<svg width="612" height="792" xmlns="http://www.w3.org/2000/svg" version="1.2" baseProfile="tiny" style="background-color:#fff"><path class="StaffLines" fill="none" stroke="#000" stroke-width=".4" stroke-linejoin="bevel" d="M38.846 63.346h544.808M38.846 68.347h544.808M38.846 73.347h544.808M38.846 78.347h544.808M38.846 83.347h544.808M38.846 115.847h544.808M38.846 120.847h544.808M38.846 125.847h544.808M38.846 130.847h544.808M38.846 135.847h544.808"/><path class="Text" d="M35.112 47.534a2.28 2.28 0 01.078-.313c.032-.093.089-.226.172-.398.083-.172.18-.315.29-.43.108-.114.262-.216.46-.304.198-.089.417-.133.656-.133.417 0 .766.135 1.047.406.282.27.422.604.422 1 0 .604-.339 1.266-1.016 1.984l-1.328 1.422h1.891c.188 0 .325-.03.414-.093.089-.063.206-.209.352-.438l.109.031-.453 1.078h-3.11v-.093l1.422-1.516c.698-.73 1.047-1.417 1.047-2.062 0-.344-.104-.62-.312-.828-.209-.209-.48-.313-.813-.313-.281 0-.505.075-.672.227-.166.15-.328.424-.484.82l-.172-.047m6.063.844c.49.354.82.65.992.89.172.24.258.516.258.828 0 .417-.144.748-.43.993-.287.244-.67.367-1.148.367-.459 0-.831-.123-1.118-.367a1.203 1.203 0 01-.43-.961c0-.271.066-.498.196-.68.13-.182.414-.435.852-.758-.428-.375-.701-.65-.82-.828a1.145 1.145 0 01-.18-.656c0-.365.143-.67.43-.914.286-.245.653-.367 1.1-.367.396 0 .722.106.977.32.255.213.383.492.383.836 0 .27-.078.5-.234.687-.157.188-.433.391-.828.61m-.625.468c-.23.188-.391.373-.485.555-.093.182-.14.404-.14.664 0 .344.09.623.273.836.182.214.425.32.727.32.26 0 .47-.08.632-.242a.856.856 0 00.243-.633 1.226 1.226 0 00-.078-.437.812.812 0 00-.118-.188 5.418 5.418 0 00-.133-.164 2.095 2.095 0 00-.18-.172 2.138 2.138 0 00-.202-.163 14.117 14.117 0 01-.258-.18 12.855 12.855 0 00-.281-.196m.39-.609c.01-.01.05-.039.117-.086a1.12 1.12 0 00.141-.11c.026-.025.07-.064.133-.116a.637.637 0 00.14-.157c.032-.052.068-.114.11-.187a.746.746 0 00.086-.242c.015-.089.023-.18.023-.274 0-.27-.078-.49-.234-.656-.156-.167-.37-.25-.64-.25a.868.868 0 00-.618.227.748.748 0 00-.242.57c0 .219.075.427.226.625.151.198.404.416.758.656"/><path class="SlurSegment" stroke="#000" stroke-width=".35" stroke-linecap="round" stroke-linejoin="round" fill-rule="evenodd" d="M418.189 128.763c16.935-6.9 67.741-6.9 84.676 0-16.935-6.1-67.741-6.1-84.676 0M418.189 142.93c16.935 6.1 67.741 6.1 84.676 0-16.935 6.9-67.741 6.9-84.676 0M289.453 128.763c24.025-6.9 96.1-6.9 120.126 0-24.026-6.1-96.101-6.1-120.126 0M289.453 142.93c24.025 6.1 96.1 6.1 120.126 0-24.026 6.9-96.101 6.9-120.126 0M72.25 125.43c23.061 6.1 92.245 6.1 115.306 0-23.061 6.9-92.245 6.9-115.306 0M456.023 94.597c10.021 6.099 40.084 6.099 50.105 0-10.021 6.899-40.084 6.899-50.105 0"/><path class="BarLine" stroke="#000" stroke-width=".8" stroke-linejoin="bevel" d="M39.246 63.346v72.501M578.754 63.346v72.501"/><path class="BarLine" stroke="#000" stroke-width="2.5" stroke-linejoin="bevel" d="M582.404 63.346v72.501"/><path class="BarLine" stroke="#000" stroke-width=".8" stroke-linejoin="bevel" d="M497.298 63.346v72.501M404.012 63.346v72.501M275.276 63.346v72.501M181.99 63.346v72.501"/><path class="Accidental" d="M338 75.847c.166-.094.336-.141.507-.141.172 0 .342.047.508.14l-.062 3.657 2.14-.39h.079c.229 0 .343.109.343.327l.141 11.407c-.167.093-.336.14-.508.14s-.341-.047-.508-.14l.063-3.657-2.11.39h-.078c-.239 0-.359-.108-.359-.327L338 75.847m2.718 9.39l.063-4.14-1.844.359-.062 4.14 1.843-.359M317.829 82.518v1.547c0 .552.026.99.078 1.313.427-.365.734-.636.922-.813.208-.208.417-.497.625-.867.208-.37.312-.737.312-1.101 0-.365-.078-.678-.234-.938-.156-.26-.365-.39-.625-.39a.993.993 0 00-.781.359c-.198.26-.297.557-.297.89m-.828 3.579l-.25-11.891c.187-.104.372-.156.554-.156.183 0 .362.052.54.156l-.157 6.89a2.74 2.74 0 011.844-.687c.5 0 .919.208 1.258.625.338.417.508.896.508 1.438 0 .333-.11.692-.328 1.078a3.395 3.395 0 01-.657.812c-.135.104-.468.365-1 .781l-.554.407c-.214.156-.347.255-.399.297-.094.052-.182.156-.265.312a1.056 1.056 0 01-.313.328.433.433 0 01-.32.125.412.412 0 01-.321-.14.51.51 0 01-.14-.375M118.387 75.847c.167-.094.336-.141.508-.141s.341.047.508.14l-.063 3.657 2.141-.39h.078c.229 0 .344.109.344.327l.14 11.407c-.166.093-.336.14-.507.14-.172 0-.342-.047-.508-.14l.062-3.657-2.109.39h-.078c-.24 0-.36-.108-.36-.327l-.156-11.406m2.719 9.39l.062-4.14-1.843.359-.063 4.14 1.844-.359M99.02 82.518v1.547c0 .552.026.99.078 1.313.427-.365.734-.636.922-.813.208-.208.416-.497.625-.867.208-.37.312-.737.312-1.101 0-.365-.078-.678-.234-.938-.156-.26-.365-.39-.625-.39a.993.993 0 00-.781.359c-.198.26-.297.557-.297.89m-.828 3.579l-.25-11.891c.187-.104.372-.156.554-.156.183 0 .362.052.54.156l-.157 6.89a2.738 2.738 0 011.844-.687c.5 0 .919.208 1.258.625.338.417.507.896.507 1.438 0 .333-.109.692-.328 1.078a3.369 3.369 0 01-.656.812c-.135.104-.469.365-1 .781l-.555.407c-.213.156-.346.255-.398.297-.094.052-.182.156-.266.312a1.047 1.047 0 01-.312.328.434.434 0 01-.32.125.41.41 0 01-.32-.14.507.507 0 01-.141-.375"/><path class="LedgerLine" stroke="#000" stroke-width=".8" stroke-linecap="square" stroke-linejoin="bevel" d="M502.198 140.847h9.944M502.198 88.347h9.944M450.01 88.347h9.944M408.912 140.847h9.944M280.176 140.847h9.943M227.988 88.347h9.943M62.973 105.846h9.944M62.973 110.847h9.944"/><path class="Stem" stroke="#000" stroke-width=".65" stroke-linecap="round" stroke-linejoin="bevel" d="M510.317 140.079v-26.107M510.317 90.079V73.347M458.129 90.079V73.347M437.399 82.407v-14.06M417.031 140.079v-26.107M416.85 84.907v-15.31M389.577 82.407v-14.06M369.284 79.907v-12.81M348.992 82.407v-14.06M328.699 82.407v-14.06M308.407 82.407v-19.06M288.294 140.079v-26.107M288.114 72.407v-14.06M236.106 90.079V73.347M215.377 82.407v-14.06M188.715 124.131v15.466M194.828 84.907v-15.31M168.358 82.407v-14.06M148.869 79.907v-12.81M129.379 82.407v-14.06M109.89 82.407v-14.06M90.4 82.407v-19.06M64.798 106.63v32.967M70.911 72.407v-14.06"/><path class="Note" d="M510.01 129.534a.741.741 0 00-.25-.562.844.844 0 00-.593-.25c-.386 0-1.172.39-2.36 1.171-1.229.792-1.979 1.36-2.25 1.704a.868.868 0 00-.218.562c0 .219.088.406.265.563.156.166.349.25.578.25.375 0 1.172-.391 2.391-1.172 1.198-.782 1.937-1.349 2.219-1.703a.833.833 0 00.218-.563m-1.031-1.437c1.115 0 1.672.479 1.672 1.437 0 .469-.135 1.016-.406 1.641-.271.614-.636 1.083-1.094 1.406-1 .677-2.255 1.016-3.766 1.016-1.125 0-1.687-.48-1.687-1.438 0-.427.135-.969.406-1.625.261-.625.625-1.099 1.094-1.422 1.01-.677 2.271-1.015 3.781-1.015M510.01 139.534a.741.741 0 00-.25-.562.844.844 0 00-.593-.25c-.386 0-1.172.39-2.36 1.171-1.229.792-1.979 1.36-2.25 1.704a.868.868 0 00-.218.562c0 .219.088.406.265.563.156.166.349.25.578.25.375 0 1.172-.391 2.391-1.172 1.198-.782 1.937-1.349 2.219-1.703a.833.833 0 00.218-.563m-1.031-1.437c1.115 0 1.672.479 1.672 1.437 0 .469-.135 1.016-.406 1.641-.271.614-.636 1.083-1.094 1.406-1 .677-2.255 1.016-3.766 1.016-1.125 0-1.687-.48-1.687-1.438 0-.427.135-.969.406-1.625.261-.625.625-1.099 1.094-1.422 1.01-.677 2.271-1.015 3.781-1.015M510.01 89.534a.743.743 0 00-.25-.563.845.845 0 00-.593-.25c-.386 0-1.172.391-2.36 1.172-1.229.792-1.979 1.36-2.25 1.704a.87.87 0 00-.218.562c0 .219.088.406.265.563a.76.76 0 00.578.25c.375 0 1.172-.391 2.391-1.172 1.198-.782 1.937-1.35 2.219-1.703a.83.83 0 00.218-.563m-1.031-1.438c1.115 0 1.672.48 1.672 1.438 0 .469-.135 1.016-.406 1.64-.271.615-.636 1.084-1.094 1.407-1 .677-2.255 1.016-3.766 1.016-1.125 0-1.687-.48-1.687-1.438 0-.427.135-.969.406-1.625.261-.625.625-1.099 1.094-1.422 1.01-.677 2.271-1.015 3.781-1.015M457.822 89.534a.743.743 0 00-.25-.563.845.845 0 00-.593-.25c-.386 0-1.172.391-2.36 1.172-1.229.792-1.979 1.36-2.25 1.704a.871.871 0 00-.219.562c0 .219.089.406.266.563a.76.76 0 00.578.25c.375 0 1.172-.391 2.391-1.172 1.198-.782 1.937-1.35 2.219-1.703a.835.835 0 00.218-.563m-1.031-1.438c1.115 0 1.672.48 1.672 1.438 0 .469-.136 1.016-.406 1.64-.271.615-.636 1.084-1.094 1.407-1 .677-2.255 1.016-3.766 1.016-1.125 0-1.687-.48-1.687-1.438 0-.427.135-.969.406-1.625.26-.625.625-1.099 1.094-1.422 1.01-.677 2.271-1.015 3.781-1.015M435.532 80.597c.625 0 1.156.16 1.594.484.395.354.593.797.593 1.328 0 .896-.458 1.734-1.375 2.516-.937.78-1.942 1.172-3.015 1.172-.625 0-1.151-.162-1.578-.485a1.688 1.688 0 01-.61-1.328c0-.896.469-1.734 1.407-2.516.916-.78 1.911-1.171 2.984-1.171M416.724 129.534a.741.741 0 00-.25-.562.844.844 0 00-.593-.25c-.386 0-1.172.39-2.36 1.171-1.229.792-1.979 1.36-2.25 1.704a.87.87 0 00-.219.562c0 .219.089.406.266.563.156.166.349.25.578.25.375 0 1.172-.391 2.391-1.172 1.198-.782 1.937-1.349 2.219-1.703a.838.838 0 00.218-.563m-1.031-1.437c1.115 0 1.672.479 1.672 1.437 0 .469-.135 1.016-.406 1.641-.271.614-.636 1.083-1.094 1.406-1 .677-2.255 1.016-3.766 1.016-1.125 0-1.687-.48-1.687-1.438 0-.427.135-.969.406-1.625.261-.625.625-1.099 1.094-1.422 1.01-.677 2.271-1.015 3.781-1.015M416.724 139.534a.741.741 0 00-.25-.562.844.844 0 00-.593-.25c-.386 0-1.172.39-2.36 1.171-1.229.792-1.979 1.36-2.25 1.704a.87.87 0 00-.219.562c0 .219.089.406.266.563.156.166.349.25.578.25.375 0 1.172-.391 2.391-1.172 1.198-.782 1.937-1.349 2.219-1.703a.838.838 0 00.218-.563m-1.031-1.437c1.115 0 1.672.479 1.672 1.437 0 .469-.135 1.016-.406 1.641-.271.614-.636 1.083-1.094 1.406-1 .677-2.255 1.016-3.766 1.016-1.125 0-1.687-.48-1.687-1.438 0-.427.135-.969.406-1.625.261-.625.625-1.099 1.094-1.422 1.01-.677 2.271-1.015 3.781-1.015M414.983 83.097c.625 0 1.156.16 1.594.484.396.354.593.797.593 1.328 0 .896-.458 1.734-1.375 2.516-.937.78-1.942 1.172-3.015 1.172-.625 0-1.151-.162-1.578-.485a1.688 1.688 0 01-.61-1.328c0-.896.469-1.734 1.407-2.516.916-.78 1.911-1.171 2.984-1.171M387.71 80.597c.625 0 1.156.16 1.594.484.395.354.593.797.593 1.328 0 .896-.458 1.734-1.375 2.516-.937.78-1.942 1.172-3.015 1.172-.625 0-1.151-.162-1.578-.485a1.688 1.688 0 01-.61-1.328c0-.896.469-1.734 1.406-2.516.917-.78 1.912-1.171 2.985-1.171M367.417 78.097c.625 0 1.156.16 1.594.484.396.354.594.797.594 1.328 0 .896-.459 1.734-1.375 2.516-.938.78-1.943 1.172-3.016 1.172-.625 0-1.151-.162-1.578-.485a1.69 1.69 0 01-.609-1.328c0-.896.468-1.734 1.406-2.516.917-.78 1.911-1.171 2.984-1.171M347.125 80.597c.625 0 1.156.16 1.593.484.396.354.594.797.594 1.328 0 .896-.458 1.734-1.375 2.516-.937.78-1.943 1.172-3.015 1.172-.625 0-1.152-.162-1.579-.485a1.69 1.69 0 01-.609-1.328c0-.896.469-1.734 1.406-2.516.917-.78 1.912-1.171 2.985-1.171M326.832 80.597c.625 0 1.156.16 1.594.484.396.354.594.797.594 1.328 0 .896-.459 1.734-1.375 2.516-.938.78-1.943 1.172-3.016 1.172-.625 0-1.151-.162-1.578-.485a1.69 1.69 0 01-.61-1.328c0-.896.469-1.734 1.407-2.516.916-.78 1.911-1.171 2.984-1.171M306.539 80.597c.625 0 1.157.16 1.594.484.396.354.594.797.594 1.328 0 .896-.458 1.734-1.375 2.516-.938.78-1.943 1.172-3.016 1.172-.625 0-1.151-.162-1.578-.485a1.69 1.69 0 01-.609-1.328c0-.896.469-1.734 1.406-2.516.917-.78 1.912-1.171 2.984-1.171M287.988 129.534a.741.741 0 00-.25-.562.845.845 0 00-.594-.25c-.385 0-1.171.39-2.359 1.171-1.229.792-1.979 1.36-2.25 1.704a.87.87 0 00-.219.562c0 .219.089.406.266.563.156.166.349.25.578.25.375 0 1.172-.391 2.391-1.172 1.198-.782 1.937-1.349 2.218-1.703a.834.834 0 00.219-.563m-1.031-1.437c1.115 0 1.672.479 1.672 1.437 0 .469-.136 1.016-.406 1.641-.271.614-.636 1.083-1.094 1.406-1 .677-2.255 1.016-3.766 1.016-1.125 0-1.687-.48-1.687-1.438 0-.427.135-.969.406-1.625.26-.625.625-1.099 1.094-1.422 1.01-.677 2.271-1.015 3.781-1.015M287.988 139.534a.741.741 0 00-.25-.562.845.845 0 00-.594-.25c-.385 0-1.171.39-2.359 1.171-1.229.792-1.979 1.36-2.25 1.704a.87.87 0 00-.219.562c0 .219.089.406.266.563.156.166.349.25.578.25.375 0 1.172-.391 2.391-1.172 1.198-.782 1.937-1.349 2.218-1.703a.834.834 0 00.219-.563m-1.031-1.437c1.115 0 1.672.479 1.672 1.437 0 .469-.136 1.016-.406 1.641-.271.614-.636 1.083-1.094 1.406-1 .677-2.255 1.016-3.766 1.016-1.125 0-1.687-.48-1.687-1.438 0-.427.135-.969.406-1.625.26-.625.625-1.099 1.094-1.422 1.01-.677 2.271-1.015 3.781-1.015M286.247 70.597c.625 0 1.156.16 1.594.484.395.354.593.797.593 1.328 0 .896-.458 1.734-1.375 2.516-.937.78-1.942 1.172-3.015 1.172-.625 0-1.151-.162-1.578-.485a1.688 1.688 0 01-.61-1.328c0-.896.469-1.734 1.406-2.516.917-.78 1.912-1.171 2.985-1.171M235.8 89.534a.743.743 0 00-.25-.563.846.846 0 00-.594-.25c-.385 0-1.172.391-2.359 1.172-1.229.792-1.979 1.36-2.25 1.704a.871.871 0 00-.219.562c0 .219.089.406.266.563a.76.76 0 00.578.25c.375 0 1.172-.391 2.391-1.172 1.197-.782 1.937-1.35 2.218-1.703a.832.832 0 00.219-.563m-1.031-1.438c1.114 0 1.672.48 1.672 1.438 0 .469-.136 1.016-.407 1.64-.27.615-.635 1.084-1.093 1.407-1 .677-2.256 1.016-3.766 1.016-1.125 0-1.687-.48-1.687-1.438 0-.427.135-.969.406-1.625.26-.625.625-1.099 1.094-1.422 1.01-.677 2.27-1.015 3.781-1.015M213.51 80.597c.625 0 1.156.16 1.593.484.396.354.594.797.594 1.328 0 .896-.458 1.734-1.375 2.516-.937.78-1.943 1.172-3.015 1.172-.625 0-1.151-.162-1.579-.485a1.69 1.69 0 01-.609-1.328c0-.896.469-1.734 1.406-2.516.917-.78 1.912-1.171 2.985-1.171M194.702 122.034a.741.741 0 00-.25-.562.845.845 0 00-.594-.25c-.385 0-1.172.39-2.359 1.171-1.229.792-1.979 1.36-2.25 1.704a.87.87 0 00-.219.562c0 .219.089.406.266.563.156.166.349.25.578.25.375 0 1.172-.391 2.391-1.172 1.198-.782 1.937-1.349 2.218-1.703a.834.834 0 00.219-.563m-1.031-1.437c1.114 0 1.672.479 1.672 1.437 0 .469-.136 1.016-.407 1.641-.27.614-.635 1.083-1.093 1.406-1 .677-2.255 1.016-3.766 1.016-1.125 0-1.687-.48-1.687-1.438 0-.427.135-.969.406-1.625.26-.625.625-1.099 1.094-1.422 1.01-.677 2.27-1.015 3.781-1.015M192.961 83.097c.625 0 1.156.16 1.593.484.396.354.594.797.594 1.328 0 .896-.458 1.734-1.375 2.516-.937.78-1.942 1.172-3.015 1.172-.625 0-1.151-.162-1.579-.485a1.69 1.69 0 01-.609-1.328c0-.896.469-1.734 1.406-2.516.917-.78 1.912-1.171 2.985-1.171M166.491 80.597c.625 0 1.156.16 1.594.484.395.354.593.797.593 1.328 0 .896-.458 1.734-1.375 2.516-.937.78-1.942 1.172-3.015 1.172-.625 0-1.151-.162-1.578-.485a1.688 1.688 0 01-.61-1.328c0-.896.469-1.734 1.407-2.516.916-.78 1.911-1.171 2.984-1.171M147.002 78.097c.625 0 1.156.16 1.593.484.396.354.594.797.594 1.328 0 .896-.458 1.734-1.375 2.516-.937.78-1.943 1.172-3.016 1.172-.625 0-1.151-.162-1.578-.485a1.69 1.69 0 01-.609-1.328c0-.896.469-1.734 1.406-2.516.917-.78 1.912-1.171 2.985-1.171M127.512 80.597c.625 0 1.156.16 1.594.484.396.354.594.797.594 1.328 0 .896-.459 1.734-1.375 2.516-.938.78-1.943 1.172-3.016 1.172-.625 0-1.151-.162-1.578-.485a1.69 1.69 0 01-.609-1.328c0-.896.468-1.734 1.406-2.516.916-.78 1.911-1.171 2.984-1.171M108.023 80.597c.625 0 1.156.16 1.594.484.395.354.593.797.593 1.328 0 .896-.458 1.734-1.375 2.516-.937.78-1.942 1.172-3.015 1.172-.625 0-1.151-.162-1.578-.485a1.688 1.688 0 01-.61-1.328c0-.896.469-1.734 1.406-2.516.917-.78 1.912-1.171 2.985-1.171M88.534 80.597c.624 0 1.156.16 1.593.484.396.354.594.797.594 1.328 0 .896-.458 1.734-1.375 2.516-.938.78-1.943 1.172-3.016 1.172-.625 0-1.15-.162-1.578-.485a1.69 1.69 0 01-.61-1.328c0-.896.47-1.734 1.407-2.516.917-.78 1.912-1.171 2.984-1.171M70.785 104.534a.746.746 0 00-.25-.563.849.849 0 00-.593-.25c-.386 0-1.172.391-2.36 1.172-1.229.792-1.979 1.36-2.25 1.703a.875.875 0 00-.218.563c0 .219.088.406.265.562a.76.76 0 00.578.25c.375 0 1.172-.39 2.391-1.171 1.198-.782 1.938-1.349 2.219-1.704a.83.83 0 00.219-.562m-1.032-1.438c1.115 0 1.672.48 1.672 1.438 0 .469-.135 1.016-.406 1.641-.27.614-.635 1.083-1.094 1.406-1 .677-2.255 1.015-3.766 1.015-1.124 0-1.687-.479-1.687-1.437 0-.427.136-.969.406-1.625.26-.625.625-1.099 1.094-1.422 1.01-.677 2.27-1.016 3.781-1.016M70.785 112.034a.742.742 0 00-.25-.562.844.844 0 00-.593-.25c-.386 0-1.172.39-2.36 1.171-1.229.792-1.979 1.36-2.25 1.704a.87.87 0 00-.218.562c0 .219.088.406.265.563.156.166.35.25.578.25.375 0 1.172-.391 2.391-1.172 1.198-.782 1.938-1.349 2.219-1.703a.835.835 0 00.219-.563m-1.032-1.437c1.115 0 1.672.479 1.672 1.437 0 .469-.135 1.016-.406 1.641-.27.614-.635 1.083-1.094 1.406-1 .677-2.255 1.016-3.766 1.016-1.124 0-1.687-.48-1.687-1.438 0-.427.136-.969.406-1.625.26-.625.625-1.099 1.094-1.422 1.01-.677 2.27-1.015 3.781-1.015M70.785 122.034a.742.742 0 00-.25-.562.844.844 0 00-.593-.25c-.386 0-1.172.39-2.36 1.171-1.229.792-1.979 1.36-2.25 1.704a.87.87 0 00-.218.562c0 .219.088.406.265.563.156.166.35.25.578.25.375 0 1.172-.391 2.391-1.172 1.198-.782 1.938-1.349 2.219-1.703a.835.835 0 00.219-.563m-1.032-1.437c1.115 0 1.672.479 1.672 1.437 0 .469-.135 1.016-.406 1.641-.27.614-.635 1.083-1.094 1.406-1 .677-2.255 1.016-3.766 1.016-1.124 0-1.687-.48-1.687-1.438 0-.427.136-.969.406-1.625.26-.625.625-1.099 1.094-1.422 1.01-.677 2.27-1.015 3.781-1.015M69.044 70.597c.625 0 1.156.16 1.594.484.396.354.594.797.594 1.328 0 .896-.459 1.734-1.375 2.516-.938.78-1.943 1.172-3.016 1.172-.625 0-1.151-.162-1.578-.485a1.69 1.69 0 01-.61-1.328c0-.896.47-1.734 1.407-2.516.916-.78 1.911-1.171 2.984-1.171"/><path class="Clef" d="M54.276 119.065a1.002 1.002 0 01-.289-.726c0-.287.096-.526.29-.719a.975.975 0 01.718-.289 1 1 0 01.727.289.963.963 0 01.296.719.988.988 0 01-.297.726.988.988 0 01-.726.297.963.963 0 01-.719-.297m0 5.008a.976.976 0 01-.289-.719c0-.286.096-.528.29-.726a.963.963 0 01.718-.297c.286 0 .529.099.727.297.197.198.296.44.296.726a.963.963 0 01-.297.719 1 1 0 01-.726.289.975.975 0 01-.719-.289m-6.773-8.476c1.729 0 3.145.432 4.25 1.296 1.073.917 1.61 2.157 1.61 3.719 0 1.052-.21 2.016-.626 2.891a8.68 8.68 0 01-1.547 2.422 13.946 13.946 0 01-2.36 2.031 27.47 27.47 0 01-2.78 1.687c-1.927.969-2.995 1.454-3.203 1.454-.167 0-.25-.084-.25-.25 0-.063.026-.12.078-.172.666-.396 1.479-.896 2.437-1.5.625-.407 1.354-.969 2.188-1.688.812-.677 1.437-1.312 1.875-1.906.458-.594.875-1.323 1.25-2.188a7.452 7.452 0 00.484-2.593c0-1.261-.313-2.36-.938-3.297-.624-.938-1.447-1.406-2.468-1.406-.73 0-1.355.234-1.875.703a4.06 4.06 0 00-1.219 1.812c.25-.104.48-.156.688-.156.541 0 1.01.198 1.406.594.385.416.578.89.578 1.422 0 .562-.188 1.067-.563 1.515-.406.396-.88.594-1.422.594-.583 0-1.109-.198-1.578-.594-.448-.448-.672-.953-.672-1.515 0-1.344.459-2.49 1.376-3.438.895-.958 1.989-1.437 3.28-1.437M50.19 73.222h.125a.674.674 0 01.125-.016c1.459 0 2.657.516 3.594 1.547.938 1.01 1.406 2.192 1.406 3.547 0 1.687-.692 3.057-2.078 4.109-.364.292-.844.526-1.437.703.073.844.109 1.526.109 2.047 0 .104-.016.484-.047 1.14-.052 1.209-.469 2.256-1.25 3.141-.75.875-1.687 1.313-2.812 1.313-1.052 0-1.948-.37-2.688-1.11-.75-.76-1.125-1.671-1.125-2.734 0-.563.219-1.042.656-1.438a2.245 2.245 0 011.532-.578c.52 0 .958.204 1.312.61.365.375.547.844.547 1.406 0 .5-.182.932-.547 1.297a1.79 1.79 0 01-1.312.547c-.209 0-.407-.037-.594-.11.573.844 1.333 1.266 2.281 1.266.896 0 1.63-.365 2.203-1.094.604-.75.933-1.63.985-2.64.02-.625.03-.98.03-1.063 0-.73-.025-1.328-.077-1.797-.646.104-1.224.157-1.735.157-1.812 0-3.354-.72-4.625-2.157-1.25-1.448-1.875-3.166-1.875-5.156 0-.417.037-.839.11-1.266.083-.354.182-.74.297-1.156.062-.24.24-.62.53-1.14.105-.157.222-.352.352-.587.13-.234.222-.388.274-.46.125-.26.375-.615.75-1.063.104-.114.213-.242.328-.383.114-.14.21-.257.289-.351.078-.094.135-.167.172-.219.036-.052.33-.396.883-1.031.125-.136.25-.276.375-.422a33.1 33.1 0 01.304-.352 1.41 1.41 0 01.18-.18c-.469-1.552-.766-2.791-.89-3.718-.084-.74-.126-1.755-.126-3.047 0-1.135.26-2.198.782-3.188a6.632 6.632 0 012.125-2.515.336.336 0 01.187-.063c.094 0 .162.021.203.063.698.844 1.302 1.943 1.813 3.297.52 1.354.781 2.588.781 3.703 0 1.25-.297 2.422-.89 3.516-.678 1.156-1.553 2.354-2.626 3.593.271.854.636 2.198 1.094 4.032m1.657 9.093a3.148 3.148 0 001.593-1.265 3.213 3.213 0 00.625-1.938c0-.927-.312-1.75-.937-2.469-.646-.74-1.464-1.156-2.453-1.25.562 2.75.953 5.058 1.172 6.922M44.3 77.8c0 1.291.52 2.427 1.562 3.406 1.063.948 2.26 1.422 3.594 1.422.541 0 1.073-.042 1.594-.125-.209-1.98-.62-4.35-1.235-7.11-.74.084-1.328.344-1.765.782-.438.458-.657.974-.657 1.547 0 .99.532 1.791 1.594 2.406a.442.442 0 01.125.297.389.389 0 01-.125.28.385.385 0 01-.297.142c-.01 0-.067-.01-.172-.032-.75-.406-1.323-.927-1.718-1.562-.386-.688-.578-1.375-.578-2.063 0-.896.28-1.708.843-2.437.584-.73 1.344-1.198 2.282-1.406a140.754 140.754 0 00-.891-3.422c-.209.24-.459.523-.75.851-.292.328-.464.529-.516.602a61.59 61.59 0 00-1.078 1.422c-.448.614-.776 1.14-.984 1.578-.219.5-.412 1.041-.578 1.625a6.294 6.294 0 00-.25 1.797m6.515-19.86a5.447 5.447 0 00-2.297 2.063 5.578 5.578 0 00-.859 2.984c0 .938.234 2.203.703 3.797.938-1.135 1.64-2.182 2.11-3.14.489-1.021.734-2.084.734-3.188 0-.834-.13-1.672-.39-2.516"/><path class="Articulation" d="M232.006 57.956c-.26-.26-.39-.58-.39-.961 0-.38.13-.7.39-.961.261-.26.578-.39.953-.39s.693.13.954.39c.26.26.39.58.39.96 0 .381-.13.701-.39.962a1.3 1.3 0 01-.954.39c-.375 0-.692-.13-.953-.39m-1.312-6.719c.677-.344 1.432-.516 2.265-.516.834 0 1.589.172 2.266.516.74.333 1.328.755 1.766 1.266.479.552.885 1.104 1.218 1.656.355.573.631 1.156.829 1.75.166.48.307.948.421 1.406.094.344.141.589.141.735 0 .062-.036.135-.109.218a.624.624 0 01-.266.078c-.187 0-.318-.12-.391-.359-.239-1.469-.916-2.719-2.031-3.75-1.104-.99-2.385-1.484-3.844-1.484-1.458 0-2.739.495-3.843 1.484-1.105 1.031-1.782 2.281-2.032 3.75-.041.24-.171.36-.39.36a.603.603 0 01-.25-.079c-.084-.083-.125-.156-.125-.218 0-.146.047-.391.14-.735.115-.458.256-.927.422-1.406a8.357 8.357 0 01.828-1.75c.334-.552.745-1.104 1.235-1.656.448-.532 1.031-.953 1.75-1.266"/><path class="Dynamic" d="M193.393 98.815c-.354 0-.672.188-.953.563a4.39 4.39 0 00-.688 1.312c-.156.459-.229.86-.219 1.203 0 .49.183.735.547.735.323 0 .599-.125.828-.375.261-.271.48-.74.657-1.407.187-.687.281-1.166.281-1.437-.011-.396-.162-.594-.453-.594m-2.922-.922c.323 0 .607.086.851.258.245.172.399.404.461.696.261-.282.568-.51.922-.688.354-.177.683-.266.985-.266.625 0 1.109.193 1.453.579.333.406.5.916.5 1.531 0 1.021-.36 1.854-1.078 2.5-.657.552-1.25.828-1.782.828-.323 0-.583-.031-.781-.094-.25-.062-.417-.12-.5-.172-.114-.073-.208-.109-.281-.109-.167 0-.276.068-.328.203l-.703 2.125v.094c0 .125.093.198.281.218.062.011.159.021.289.032.13.01.232.015.305.015.187.032.281.084.281.157 0 .104-.047.156-.141.156-1.135-.073-1.87-.11-2.203-.11-.364 0-1.114.037-2.25.11-.104 0-.146-.052-.125-.156 0-.073.083-.125.25-.157.073-.02.406-.031 1-.031.271 0 .432-.083.484-.25l2.047-5.922c.032-.114.052-.213.063-.297 0-.229-.104-.338-.313-.328-.291 0-.599.188-.922.563a4.357 4.357 0 00-.75 1.203.294.294 0 01-.25.172c-.093 0-.14-.037-.14-.11 0-.104.031-.203.094-.297.26-.552.531-1.052.812-1.5.167-.25.386-.468.656-.656.25-.198.521-.297.813-.297"/><path class="Beam" fill-rule="evenodd" d="M416.525 68.386l21.199-1.29v2.5l-21.199 1.29v-2.5M368.959 65.806l20.943 1.29v2.5l-20.943-1.29v-2.5M328.374 67.097h20.943v2.5h-20.943v-2.5M287.789 56.936l20.943 5.16v2.5l-20.943-5.16v-2.5M194.503 68.386l21.199-1.29v2.5l-21.199 1.29v-2.5M148.544 65.805l20.139 1.291v2.5l-20.139-1.291v-2.5M109.565 67.097h20.139v2.5h-20.139v-2.5M70.586 56.93l20.14 5.166v2.5l-20.14-5.166v-2.5"/><path class="HairpinSegment" d="M70.247 102.05l.14.109c-.645.896-1.228 1.344-1.75 1.344a.48.48 0 01-.366-.141.501.501 0 01-.133-.359c0-.24.052-.599.156-1.078-.416.583-.778.987-1.086 1.211-.307.224-.67.335-1.086.335-.385 0-.69-.117-.914-.351-.224-.234-.336-.56-.336-.977 0-.593.183-1.211.547-1.851a5.33 5.33 0 011.375-1.602c.552-.427 1.078-.64 1.578-.64.219 0 .386.054.5.164.115.11.193.284.235.523l.562-1.953c.115-.427.172-.698.172-.813 0-.208-.245-.312-.734-.312v-.234a13.316 13.316 0 001.75-.297l.062.062c-.541 2.115-.937 3.6-1.187 4.453-.459 1.771-.688 2.776-.688 3.016 0 .062.021.12.063.172a.193.193 0 00.156.078c.104 0 .213-.052.328-.156.115-.104.333-.339.656-.703m-1.281-3.047c0-.448-.198-.672-.594-.672-.364 0-.742.21-1.133.633-.39.422-.708.935-.953 1.539-.245.604-.367 1.151-.367 1.64 0 .23.063.42.188.571a.616.616 0 00.5.226c.364 0 .729-.203 1.093-.609.365-.406.638-.919.82-1.539.183-.62.331-1.216.446-1.79m3.25 3.907c.188 0 .526-.313 1.016-.938l.156.141c-.344.5-.643.852-.899 1.055a1.293 1.293 0 01-.82.304c-.364 0-.547-.223-.547-.671 0-.23.11-.662.328-1.297l.578-2.125c.032-.24.047-.417.047-.531 0-.125-.047-.204-.14-.235-.094-.031-.302-.052-.625-.062v-.188c.375-.031 1.026-.135 1.953-.312v.03l-1.125 4.126c-.073.292-.11.469-.11.531 0 .042.019.081.055.117.037.037.08.055.133.055m.492-7.227c.11-.12.25-.18.422-.18s.32.066.445.196.188.284.188.461c0 .167-.063.31-.188.43a.613.613 0 01-.437.18c-.188 0-.334-.058-.438-.172a.647.647 0 01-.156-.454c0-.187.055-.34.164-.46m7.977 7.023c0 .125.052.187.156.187.104 0 .216-.057.336-.172.12-.114.346-.375.68-.781l.171.156c-.312.428-.606.761-.882 1-.276.24-.576.36-.899.36-.323 0-.484-.182-.484-.547 0-.104.052-.37.156-.797l.703-2.765c.052-.188.078-.323.078-.407a.252.252 0 00-.07-.172.215.215 0 00-.164-.078c-.177 0-.404.123-.68.367-.276.245-.56.57-.851.977a6.025 6.025 0 00-.727 1.273c-.172.422-.377 1.102-.617 2.039h-.89c.76-2.812 1.14-4.265 1.14-4.359 0-.198-.083-.297-.25-.297-.208 0-.477.154-.805.461-.328.308-.659.716-.992 1.227a5.19 5.19 0 00-.523 1.015c-.14.365-.357 1.016-.649 1.953h-.89a177 177 0 01.484-1.718c.469-1.656.703-2.568.703-2.735 0-.177-.156-.265-.469-.265h-.297v-.188c.771-.146 1.407-.276 1.907-.39l.031.03-.688 2.501c1.073-1.688 1.964-2.531 2.672-2.531.198 0 .362.07.493.21.13.141.195.316.195.524 0 .24-.162.849-.485 1.828.625-.99 1.157-1.672 1.594-2.047.386-.343.745-.515 1.078-.515.198 0 .365.075.5.226a.8.8 0 01.203.555.983.983 0 01-.046.312l-.813 3.016a5.36 5.36 0 00-.11.547m2.532-.563c.167 0 .31.068.43.203.12.136.18.297.18.485a.617.617 0 01-.188.453.617.617 0 01-.453.187.533.533 0 01-.407-.187.647.647 0 01-.171-.453c0-.188.06-.349.18-.485a.556.556 0 01.429-.203"/><path class="HairpinSegment" fill="none" stroke="#000" stroke-dasharray="3.25,13" stroke-dashoffset="9.75" stroke-width=".65" stroke-linecap="square" stroke-linejoin="bevel" d="M87.778 103.346h88.812"/><path class="OttavaSegment" d="M413.342 102.925c-.718 0-1.297-.188-1.734-.563-.438-.375-.656-.859-.656-1.453 0-.531.2-1 .601-1.406.401-.406.982-.735 1.742-.985-.406-.437-.682-.796-.828-1.078a1.937 1.937 0 01-.218-.906c0-.531.2-.964.601-1.297.401-.333.919-.5 1.555-.5.604 0 1.104.159 1.5.477.396.317.594.721.594 1.21 0 .428-.151.782-.454 1.063-.302.281-.802.537-1.5.766.511.531.868.981 1.071 1.351.203.37.304.758.304 1.164 0 .615-.247 1.128-.742 1.539-.495.412-1.107.618-1.836.618m.219-4.203c-.167.062-.331.14-.492.234a4.228 4.228 0 00-.57.414 2.073 2.073 0 00-.735 1.601c0 .49.154.894.461 1.211.307.318.695.477 1.164.477s.857-.159 1.164-.477c.308-.317.461-.721.461-1.211a1.54 1.54 0 00-.234-.859c-.156-.24-.563-.703-1.219-1.39m.766-.672l.39-.188c.646-.333.969-.812.969-1.437 0-.417-.117-.756-.352-1.016-.234-.26-.544-.39-.929-.39-.375 0-.672.122-.891.367-.219.244-.328.57-.328.976 0 .26.073.5.219.719.146.219.453.541.922.969"/><path class="OttavaSegment" fill="none" stroke="#000" stroke-dasharray="2,1" stroke-width=".5" stroke-linecap="square" stroke-linejoin="bevel" d="M419.092 98.347h86.361M505.453 98.347v-9.5"/><path class="OttavaSegment" d="M284.606 102.925c-.719 0-1.297-.188-1.734-.563-.438-.375-.656-.859-.656-1.453 0-.531.2-1 .601-1.406.401-.406.982-.735 1.742-.985-.406-.437-.682-.796-.828-1.078a1.938 1.938 0 01-.219-.906c0-.531.201-.964.602-1.297.401-.333.919-.5 1.555-.5.604 0 1.104.159 1.5.477.396.317.593.721.593 1.21 0 .428-.151.782-.453 1.063-.302.281-.802.537-1.5.766.511.531.867.981 1.071 1.351.203.37.304.758.304 1.164 0 .615-.247 1.128-.742 1.539-.495.412-1.107.618-1.836.618m.219-4.203c-.167.062-.331.14-.492.234a4.293 4.293 0 00-.571.414 2.083 2.083 0 00-.531.687 2.053 2.053 0 00-.203.914c0 .49.154.894.461 1.211.307.318.695.477 1.164.477s.857-.159 1.164-.477c.307-.317.461-.721.461-1.211a1.54 1.54 0 00-.234-.859c-.157-.24-.563-.703-1.219-1.39m.766-.672l.39-.188c.646-.333.969-.812.969-1.437 0-.417-.117-.756-.352-1.016-.234-.26-.544-.39-.929-.39-.375 0-.672.122-.891.367-.219.244-.328.57-.328.976 0 .26.073.5.219.719.146.219.453.541.922.969"/><path class="OttavaSegment" fill="none" stroke="#000" stroke-dasharray="2,1" stroke-width=".5" stroke-linecap="square" stroke-linejoin="bevel" d="M290.356 98.347h104.546M394.902 98.347v-9.5"/><path class="NoteDot" d="M512.728 129.151a1.097 1.097 0 01-.336-.804c0-.313.112-.581.336-.805.224-.224.492-.336.804-.336.313 0 .578.112.797.336.219.224.328.492.328.805 0 .312-.109.58-.328.804a1.072 1.072 0 01-.797.336c-.312 0-.58-.112-.804-.336M512.728 139.151a1.097 1.097 0 01-.336-.804c0-.313.112-.581.336-.805.224-.224.492-.336.804-.336.313 0 .578.112.797.336.219.224.328.492.328.805 0 .312-.109.58-.328.804a1.072 1.072 0 01-.797.336c-.312 0-.58-.112-.804-.336M512.728 91.651a1.098 1.098 0 01-.336-.804c0-.313.112-.581.336-.805.224-.224.492-.336.804-.336.313 0 .578.112.797.336.219.224.328.492.328.805 0 .312-.109.58-.328.804a1.072 1.072 0 01-.797.336c-.312 0-.58-.112-.804-.336M419.442 129.151a1.097 1.097 0 01-.336-.804c0-.313.112-.581.336-.805.223-.224.492-.336.804-.336.313 0 .578.112.797.336.219.224.328.492.328.805 0 .312-.109.58-.328.804a1.072 1.072 0 01-.797.336c-.312 0-.581-.112-.804-.336M419.442 139.151a1.097 1.097 0 01-.336-.804c0-.313.112-.581.336-.805.223-.224.492-.336.804-.336.313 0 .578.112.797.336.219.224.328.492.328.805 0 .312-.109.58-.328.804a1.072 1.072 0 01-.797.336c-.312 0-.581-.112-.804-.336M290.705 129.151a1.097 1.097 0 01-.336-.804c0-.313.112-.581.336-.805a1.1 1.1 0 01.805-.336c.313 0 .578.112.797.336.219.224.328.492.328.805 0 .312-.109.58-.328.804a1.072 1.072 0 01-.797.336 1.1 1.1 0 01-.805-.336M290.705 139.151a1.097 1.097 0 01-.336-.804c0-.313.112-.581.336-.805a1.1 1.1 0 01.805-.336c.313 0 .578.112.797.336.219.224.328.492.328.805 0 .312-.109.58-.328.804a1.072 1.072 0 01-.797.336 1.1 1.1 0 01-.805-.336M197.419 124.151a1.097 1.097 0 01-.336-.804c0-.313.112-.581.336-.805a1.1 1.1 0 01.805-.336c.313 0 .578.112.797.336.219.224.328.492.328.805 0 .312-.109.58-.328.804a1.072 1.072 0 01-.797.336 1.1 1.1 0 01-.805-.336M73.503 104.151a1.098 1.098 0 01-.336-.805c0-.312.112-.58.336-.804.224-.224.492-.336.804-.336.313 0 .578.112.797.336.219.224.328.492.328.804 0 .313-.109.581-.328.805a1.072 1.072 0 01-.797.336c-.312 0-.58-.112-.804-.336M73.503 114.151a1.097 1.097 0 01-.336-.804c0-.313.112-.581.336-.805.224-.224.492-.336.804-.336.313 0 .578.112.797.336.219.224.328.492.328.805 0 .312-.109.58-.328.804a1.072 1.072 0 01-.797.336c-.312 0-.58-.112-.804-.336M73.503 124.151a1.097 1.097 0 01-.336-.804c0-.313.112-.581.336-.805.224-.224.492-.336.804-.336.313 0 .578.112.797.336.219.224.328.492.328.805 0 .312-.109.58-.328.804a1.072 1.072 0 01-.797.336c-.312 0-.58-.112-.804-.336"/><path class="Page" d="M28.594 743.668a2.27 2.27 0 01.078-.313c.031-.094.088-.226.172-.398a1.68 1.68 0 01.289-.43 1.597 1.597 0 011.117-.437c.417 0 .766.135 1.047.406.281.271.422.604.422 1 0 .604-.339 1.265-1.016 1.984l-1.328 1.422h1.89c.188 0 .326-.031.415-.094.088-.062.205-.208.351-.437l.11.031-.453 1.078h-3.11v-.094L30 745.871c.698-.729 1.047-1.417 1.047-2.063 0-.343-.104-.619-.313-.828-.208-.208-.479-.312-.812-.312-.281 0-.505.075-.672.226-.167.151-.328.425-.484.821l-.172-.047M284.766 742.34c-.146.01-.256.026-.328.046a.671.671 0 00-.227.125.483.483 0 00-.156.297 3.039 3.039 0 00-.039.547v4.219h-.141l-3.531-4.406v3.14c0 .407.047.675.14.805.094.13.297.201.61.211v.156h-1.875v-.156c.323-.021.531-.094.625-.219.094-.125.14-.39.14-.797v-3.531c-.156-.187-.281-.307-.375-.359a.81.81 0 00-.39-.078v-.157h1.359l3.078 3.875v-2.703c0-.396-.049-.656-.148-.781-.099-.125-.305-.203-.617-.234v-.157h1.875v.157m.625 2c-.125 0-.24.005-.344.015v-.109c.375-.104.792-.25 1.25-.438l.031.016v2.844c0 .281.034.461.102.539.067.078.231.127.492.148v.125h-1.906v-.125c.281-.01.458-.057.531-.14.073-.084.109-.266.109-.547v-1.86c0-.177-.021-.299-.062-.367-.042-.068-.11-.101-.203-.101m.531-2.329a.41.41 0 01.297.125.41.41 0 010 .586.419.419 0 01-.297.118.38.38 0 01-.289-.125.412.412 0 01-.117-.289c0-.11.039-.206.117-.29a.38.38 0 01.289-.125m1.266 2.282v-.141a27.95 27.95 0 001.109-.344l.062.016v.625c.271-.26.485-.432.641-.516.156-.083.328-.125.516-.125.291 0 .52.105.687.313.167.208.25.5.25.875v1.828c0 .198.034.331.102.398.067.068.2.112.398.133v.125h-1.672v-.125c.198-.01.331-.062.399-.156.067-.094.101-.266.101-.516v-1.672c0-.52-.192-.781-.578-.781a.721.721 0 00-.367.094 3.06 3.06 0 00-.461.359v2.266c0 .135.039.234.117.297.078.062.216.099.414.109v.125h-1.703v-.125c.208-.01.344-.054.406-.133.063-.078.094-.231.094-.461v-1.984c0-.198-.021-.333-.062-.406-.042-.073-.12-.11-.235-.11a.525.525 0 00-.218.032m5.906-.407v.235h-.813v2.281c0 .25.034.432.102.547.068.115.174.172.32.172.167 0 .328-.089.485-.266l.093.078c-.25.417-.567.625-.953.625-.479 0-.719-.338-.719-1.015v-2.422h-.421c-.021-.011-.032-.026-.032-.047 0-.031.008-.055.024-.07a.444.444 0 01.093-.063 1.13 1.13 0 00.165-.117c.062-.052.151-.143.265-.273.115-.131.235-.29.359-.477.094-.125.152-.198.172-.219.032 0 .047.031.047.094v.937h.813m1 1.375c.01.334.054.62.133.86.078.239.182.417.312.531.13.115.26.198.391.25.13.052.268.078.414.078.25 0 .468-.062.656-.187s.38-.339.578-.641l.125.063c-.167.437-.396.77-.687 1a1.575 1.575 0 01-1 .343c-.459 0-.831-.161-1.118-.484-.286-.323-.429-.76-.429-1.313 0-.593.164-1.067.492-1.421a1.601 1.601 0 011.227-.532c.406 0 .721.12.945.36.224.239.362.604.414 1.093h-2.453m.015-.234h1.625c-.052-.344-.132-.583-.242-.719-.109-.135-.289-.203-.539-.203-.479 0-.76.308-.844.922m2.782-.734v-.141a27.95 27.95 0 001.109-.344l.062.016v.625c.271-.26.485-.432.641-.516.156-.083.328-.125.516-.125.291 0 .521.105.687.313.167.208.25.5.25.875v1.828c0 .198.034.331.102.398.068.068.2.112.398.133v.125h-1.672v-.125c.198-.01.331-.062.399-.156s.101-.266.101-.516v-1.672c0-.52-.192-.781-.578-.781a.721.721 0 00-.367.094 3.06 3.06 0 00-.461.359v2.266c0 .135.039.234.117.297.078.062.216.099.414.109v.125h-1.703v-.125c.209-.01.344-.054.406-.133.063-.078.094-.231.094-.461v-1.984c0-.198-.021-.333-.062-.406-.042-.073-.12-.11-.235-.11a.525.525 0 00-.218.032m6.562 3.265l-.031-.015v-.532c-.261.365-.604.547-1.031.547-.438 0-.792-.159-1.063-.476-.271-.318-.406-.732-.406-1.242 0-.563.161-1.042.484-1.438.323-.396.714-.594 1.172-.594.292 0 .573.12.844.36v-1.266c0-.167-.024-.276-.07-.328-.047-.052-.149-.078-.305-.078h-.172v-.125c.49-.125.885-.245 1.187-.36l.032.032v4.515c0 .188.023.31.07.368.047.057.143.085.289.085.031 0 .094-.005.188-.015v.125l-1.188.437m-.75-.437a.8.8 0 00.516-.164c.135-.11.203-.211.203-.305v-1.812a.743.743 0 00-.25-.563.803.803 0 00-.563-.234.85.85 0 00-.742.406c-.182.271-.273.63-.273 1.078 0 .479.101.865.304 1.156.204.292.472.438.805.438m3.985-3.313c.51 0 .932.17 1.265.508.333.339.5.768.5 1.289 0 .563-.172 1.029-.515 1.399a1.664 1.664 0 01-1.266.554c-.5 0-.919-.179-1.258-.539-.338-.359-.508-.81-.508-1.351 0-.542.164-.987.492-1.336.329-.349.758-.524 1.29-.524m-1.047 1.485c0 .562.104 1.041.312 1.437.208.396.479.594.813.594.291 0 .523-.128.695-.383.172-.255.258-.607.258-1.055 0-.541-.107-.984-.321-1.328-.213-.343-.487-.515-.82-.515a.81.81 0 00-.68.343c-.171.23-.257.532-.257.907m5.218-1.625c.021-.115.047-.219.079-.313.031-.094.088-.226.171-.398.084-.172.18-.315.289-.43a1.6 1.6 0 011.118-.437c.416 0 .765.135 1.046.406.282.271.422.604.422 1 0 .604-.338 1.265-1.015 1.984l-1.328 1.422h1.89c.188 0 .326-.031.414-.094.089-.062.206-.208.352-.437l.109.031-.453 1.078h-3.109v-.094l1.422-1.515c.698-.729 1.046-1.417 1.046-2.063 0-.343-.104-.619-.312-.828-.208-.208-.479-.312-.812-.312-.282 0-.506.075-.672.226-.167.151-.328.425-.485.821l-.172-.047m7.008 3.156c-.318.51-.75.766-1.297.766-.547 0-.981-.261-1.304-.782-.323-.52-.485-1.192-.485-2.015 0-.771.164-1.417.492-1.938.329-.521.769-.781 1.321-.781.521 0 .942.255 1.265.766.323.51.485 1.177.485 2 0 .812-.159 1.474-.477 1.984m-1.289-4.547c-.708 0-1.062.865-1.062 2.594 0 1.677.349 2.515 1.046 2.515.698 0 1.047-.843 1.047-2.531 0-.833-.088-1.471-.265-1.914-.177-.443-.433-.664-.766-.664m3.469.469c-.104 0-.297.057-.578.172v-.11l1.422-.734.062.016v4.796c0 .198.05.326.149.383.099.058.304.086.617.086v.125h-2.203v-.125c.302-.01.505-.054.609-.133.104-.078.156-.242.156-.492v-3.609c0-.25-.078-.375-.234-.375m6.109-.563v.125l-1.703 5.235h-.515l1.578-4.766h-1.735c-.219 0-.385.039-.5.117-.114.078-.255.253-.422.524l-.14-.063.469-1.172h2.968m3.594-.109c-.74 0-1.37.253-1.891.758a2.465 2.465 0 00-.781 1.836c0 .729.258 1.351.774 1.867a2.541 2.541 0 001.867.773c.719 0 1.336-.255 1.851-.765a2.5 2.5 0 00.774-1.844c0-.719-.255-1.336-.766-1.852-.51-.515-1.12-.773-1.828-.773m.016-.344c.791 0 1.474.289 2.046.867.573.579.86 1.279.86 2.102 0 .802-.292 1.497-.875 2.086-.583.588-1.276.883-2.078.883-.834 0-1.537-.287-2.11-.86s-.859-1.286-.859-2.14c0-.823.292-1.519.875-2.086.583-.568 1.297-.852 2.141-.852m-1.594 3.063c0-.5.154-.907.461-1.219.307-.313.69-.469 1.148-.469.198 0 .388.026.571.078.182.052.289.078.32.078.104 0 .167-.052.187-.156h.11l.047 1.078h-.11c-.177-.593-.526-.89-1.047-.89-.343 0-.619.13-.828.39-.208.261-.312.61-.312 1.047 0 .271.036.508.109.711.073.203.169.357.289.461.12.104.245.18.375.227.13.047.268.07.414.07.386 0 .745-.161 1.078-.484l.094.093a1.675 1.675 0 01-1.312.61c-.48 0-.865-.149-1.157-.446-.291-.296-.437-.69-.437-1.179"/><path class="Bracket" fill-rule="evenodd" d="M36.755 89.14c0-5.84-4.023-11.518-4.023-17.114 0-2.818 1.097-5.555 4.48-8.006a.153.153 0 00.069-.112c0-.092-.252-.174-.434-.174-.092 0-.252.01-.366.082-4.389 3.145-5.852 6.78-5.852 10.456 0 5.923 4.297 11.641 4.297 17.319 0 2.818-1.097 5.473-4.48 7.924v.163c3.383 2.451 4.48 5.106 4.48 7.924 0 5.678-4.297 11.396-4.297 17.318 0 3.677 1.463 7.312 5.852 10.457.114.071.274.081.365.081.183 0 .435-.081.435-.173a.15.15 0 00-.069-.112c-3.383-2.451-4.48-5.188-4.48-8.006 0-5.596 4.023-11.273 4.023-17.114 0-3.717-1.463-7.271-5.76-10.456 4.297-3.186 5.76-6.74 5.76-10.457"/></svg>
