//Event file generated from Sappy .s format.
        #include "MPlayDef.event"

        #define    DarkCloudsGather_grp  voicegroup000
        #define    DarkCloudsGather_pri  0
        #define    DarkCloudsGather_rev  0
        #define    DarkCloudsGather_key  0

        // .rodata
        // DarkCloudsGather
        ALIGN 4

//****************** Track 0 (Midi-Chn.0) ******************//

DarkCloudsGather_0:
        BYTE   KEYSH   DarkCloudsGather_key+0
// 000   ----------------------------------------
        BYTE   TEMPO   138/2
DarkCloudsGather_0_LOOP:
        BYTE           VOICE   48
        BYTE           PAN     c_v-17
        BYTE           VOL     62
        BYTE           N03     Cs3   v103
        BYTE   W06
        BYTE                   Cs3   v047
        BYTE   W06
        BYTE                   Cs3   v092
        BYTE   W06
        BYTE                   Cs3   v095
        BYTE   W06
        BYTE                   Cs3   v106
        BYTE   W06
        BYTE                   Cs3   v046
        BYTE   W06
        BYTE                   Cs3   v098
        BYTE   W06
        BYTE                   Cs3   v049
        BYTE   W06
        BYTE                   Cs3   v109
        BYTE   W06
        BYTE                   Cs3   v046
        BYTE   W06
        BYTE                   Cs3   v098
        BYTE   W06
        BYTE                   Cs3   v049
        BYTE   W06
        BYTE           N11     Cs3   v085
        BYTE   W12
        BYTE           N03     Dn3   v087
        BYTE   W06
        BYTE                   Dn3   v050
        BYTE   W06
// 001   ----------------------------------------
        BYTE           N11     Dn3   v085
        BYTE   W12
        BYTE           N03     Ds3   v088
        BYTE   W06
        BYTE                   Ds3   v050
        BYTE   W06
        BYTE           N11     Ds3   v092
        BYTE   W12
        BYTE           N03     En3   v100
        BYTE   W06
        BYTE                   En3   v047
        BYTE   W06
        BYTE                   Cs3   v104
        BYTE   W06
        BYTE                   Cs3   v047
        BYTE   W06
        BYTE                   Cs3   v104
        BYTE   W06
        BYTE                   Cs3   v088
        BYTE   W06
        BYTE                   Cs3
        BYTE   W06
        BYTE                   Cs3   v050
        BYTE   W06
        BYTE                   Cs3   v096
        BYTE   W06
        BYTE                   Cs3   v049
        BYTE   W06
// 002   ----------------------------------------
        BYTE                   Cs3   v098
        BYTE   W06
        BYTE                   Cs3   v049
        BYTE   W06
        BYTE                   Cs3   v095
        BYTE   W06
        BYTE                   Cs3   v049
        BYTE   W06
        BYTE           N11     Cs3   v101
        BYTE   W12
        BYTE           N03     Dn3   v098
        BYTE   W06
        BYTE                   Dn3   v049
        BYTE   W06
        BYTE           N11     Dn3   v098
        BYTE   W12
        BYTE           N03     Ds3   v108
        BYTE   W06
        BYTE                   Ds3   v046
        BYTE   W06
        BYTE           N11     Ds3   v106
        BYTE   W12
        BYTE           N03     En3   v108
        BYTE   W06
        BYTE                   En3   v046
        BYTE   W06
// 003   ----------------------------------------
        BYTE                   Cs3   v086
        BYTE           N03     Gn3   v090
        BYTE   W06
        BYTE                   Cs3   v048
        BYTE           N03     Gn3   v047
        BYTE   W06
        BYTE                   Cs3   v080
        BYTE           N03     Gn3   v103
        BYTE   W06
        BYTE                   Cs3   v101
        BYTE           N03     Gn3   v086
        BYTE   W06
        BYTE                   Cs3   v101
        BYTE           N03     Gn3   v096
        BYTE   W06
        BYTE                   Cs3   v045
        BYTE           N03     Gn3   v046
        BYTE   W06
        BYTE                   Cs3   v095
        BYTE           N03     Gn3   v093
        BYTE   W06
        BYTE                   Cs3   v046
        BYTE           N03     Gn3   v047
        BYTE   W06
        BYTE                   Cs3   v100
        BYTE           N03     Gn3   v098
        BYTE   W06
        BYTE                   Cs3   v045
        BYTE           N03     Gn3   v046
        BYTE   W06
        BYTE                   Cs3   v095
        BYTE           N03     Gn3   v108
        BYTE   W06
        BYTE                   Cs3   v046
        BYTE           N03     Gn3   v043
        BYTE   W06
        BYTE           N11     Cs3   v105
        BYTE           N11     Gn3   v088
        BYTE   W12
        BYTE           N03     Dn3
        BYTE           N03     Gs3   v095
        BYTE   W06
        BYTE                   Dn3   v048
        BYTE           N03     Gs3   v046
        BYTE   W06
// 004   ----------------------------------------
        BYTE           N11     Dn3   v083
        BYTE           N11     Gs3   v091
        BYTE   W12
        BYTE           N03     Ds3   v088
        BYTE           N03     An3   v093
        BYTE   W06
        BYTE                   Ds3   v048
        BYTE           N03     An3   v047
        BYTE   W06
        BYTE           N11     Ds3   v086
        BYTE           N11     An3   v085
        BYTE   W12
        BYTE           N03     En3   v098
        BYTE           N03     As3
        BYTE   W06
        BYTE                   En3   v046
        BYTE           N03     As3
        BYTE   W06
        BYTE                   Cs3   v101
        BYTE           N03     Gn3   v103
        BYTE   W06
        BYTE                   Cs3   v045
        BYTE           N03     Gn3   v044
        BYTE   W06
        BYTE                   Cs3   v098
        BYTE           N03     Gn3   v096
        BYTE   W06
        BYTE                   Cs3   v090
        BYTE           N03     Gn3   v093
        BYTE   W06
        BYTE                   Cs3   v090
        BYTE           N03     Gn3   v085
        BYTE   W06
        BYTE                   Cs3   v047
        BYTE           N03     Gn3   v049
        BYTE   W06
        BYTE                   Cs3   v086
        BYTE           N03     Gn3   v080
        BYTE   W06
        BYTE                   Cs3   v048
        BYTE           N03     Gn3   v050
        BYTE   W06
// 005   ----------------------------------------
        BYTE                   Cs3   v091
        BYTE           N03     Gn3   v098
        BYTE   W06
        BYTE                   Cs3   v047
        BYTE           N03     Gn3   v046
        BYTE   W06
        BYTE                   Cs3   v093
        BYTE           N03     Gn3   v088
        BYTE   W06
        BYTE                   Cs3   v047
        BYTE           N03     Gn3   v048
        BYTE   W06
        BYTE           N11     Cs3   v085
        BYTE           N11     Gn3   v105
        BYTE   W12
        BYTE           N03     Dn3   v088
        BYTE           N03     Gs3   v091
        BYTE   W06
        BYTE                   Dn3   v048
        BYTE           N03     Gs3   v047
        BYTE   W06
        BYTE           N11     Dn3   v085
        BYTE           N11     Gs3   v100
        BYTE   W12
        BYTE           N03     Ds3   v093
        BYTE           N03     An3   v083
        BYTE   W06
        BYTE                   Ds3   v047
        BYTE           N03     An3   v049
        BYTE   W06
        BYTE           N11     Ds3   v095
        BYTE           N11     An3   v106
        BYTE   W12
        BYTE           N03     En3   v081
        BYTE           N03     As3   v087
        BYTE   W06
        BYTE                   En3   v050
        BYTE           N03     As3   v048
        BYTE   W06
// 006   ----------------------------------------
        BYTE           N32     Cs4   v079   gtp3
        BYTE           TIE     Dn4   v088
        BYTE   W07
        BYTE           VOL     61
        BYTE   W01
        BYTE                   59
        BYTE   W02
        BYTE                   58
        BYTE   W01
        BYTE                   57
        BYTE   W02
        BYTE                   55
        BYTE   W01
        BYTE                   53
        BYTE   W02
        BYTE                   52
        BYTE   W01
        BYTE                   50
        BYTE   W02
        BYTE                   48
        BYTE   W01
        BYTE                   47
        BYTE   W02
        BYTE                   45
        BYTE   W01
        BYTE                   44
        BYTE   W02
        BYTE                   41
        BYTE   W08
        BYTE                   42
        BYTE   W03
        BYTE           N32     Cn4   v079   gtp3
        BYTE   W12
        BYTE           VOL     43
        BYTE   W11
        BYTE                   44
        BYTE   W11
        BYTE                   45
        BYTE   W02
        BYTE           N32     Bn3   v079   gtp3
        BYTE   W06
        BYTE           VOL     46
        BYTE   W11
        BYTE                   47
        BYTE   W07
// 007   ----------------------------------------
        BYTE   W01
        BYTE                   48
        BYTE   W07
        BYTE                   49
        BYTE   W04
        BYTE           N32     As3   v075   gtp3
        BYTE           VOL     50
        BYTE   W08
        BYTE                   51
        BYTE   W03
        BYTE                   52
        BYTE   W08
        BYTE                   53
        BYTE   W04
        BYTE                   54
        BYTE   W04
        BYTE                   55
        BYTE   W03
        BYTE                   56
        BYTE   W02
        BYTE           EOT     Dn4
        BYTE           VOL     55
        BYTE   W02
        BYTE                   53
        BYTE   W01
        BYTE                   51
        BYTE   W01
        BYTE           N32     Bn3   v077   gtp3
        BYTE           TIE     Ds4   v089
        BYTE   W01
        BYTE           VOL     49
        BYTE   W01
        BYTE                   47
        BYTE   W02
        BYTE                   45
        BYTE   W01
        BYTE                   43
        BYTE   W02
        BYTE                   41
        BYTE   W01
        BYTE                   39
        BYTE   W01
        BYTE                   37
        BYTE   W09
        BYTE                   38
        BYTE   W18
        BYTE           N32     An3   v085   gtp3
        BYTE           VOL     39
        BYTE   W12
// 008   ----------------------------------------
        BYTE                   40
        BYTE   W12
        BYTE                   41
        BYTE   W09
        BYTE                   42
        BYTE   W03
        BYTE           N32     As3   v082   gtp3
        BYTE   W06
        BYTE           VOL     43
        BYTE   W06
        BYTE                   44
        BYTE   W06
        BYTE                   45
        BYTE   W06
        BYTE                   46
        BYTE   W06
        BYTE                   47
        BYTE   W06
        BYTE           N32     Cn4   v091   gtp3
        BYTE           VOL     48
        BYTE   W03
        BYTE                   49
        BYTE   W06
        BYTE                   50
        BYTE   W03
        BYTE                   51
        BYTE   W03
        BYTE                   52
        BYTE   W03
        BYTE                   53
        BYTE   W03
        BYTE                   54
        BYTE   W03
        BYTE                   55
        BYTE   W03
        BYTE                   56
        BYTE   W03
        BYTE                   58
        BYTE   W02
        BYTE           EOT     Ds4
        BYTE   W01
        BYTE           VOL     59
        BYTE   W03
// 009   ----------------------------------------
        BYTE                   60
        BYTE   W03
        BYTE                   62
        BYTE   W92
        BYTE   W01
// 010   ----------------------------------------
        BYTE   W96
// 011   ----------------------------------------
        BYTE   W19
        BYTE                   60
        BYTE   W01
        BYTE                   58
        BYTE   W01
        BYTE                   54
        BYTE   W01
        BYTE                   51
        BYTE   W01
        BYTE                   49
        BYTE   W01
        BYTE                   47
        BYTE           N05     Ds3   v113
        BYTE           N05     Ds4   v099
        BYTE   W03
        BYTE           VOL     48
        BYTE   W03
        BYTE                   49
        BYTE           N02     Gs3   v104
        BYTE           N02     Gs4   v090
        BYTE   W03
        BYTE           VOL     51
        BYTE           N02     Gs3   v070
        BYTE           N02     Gs4   v056
        BYTE   W03
        BYTE           VOL     52
        BYTE           N02     Gs3   v110
        BYTE           N02     Gs4   v096
        BYTE   W03
        BYTE           VOL     53
        BYTE           N02     Gs3   v060
        BYTE           N02     Gs4   v046
        BYTE   W03
        BYTE           VOL     55
        BYTE           N02     Cs4   v084
        BYTE           N02     Cs5   v070
        BYTE   W03
        BYTE           VOL     56
        BYTE           N02     Cs4   v054
        BYTE           N02     Cs5   v040
        BYTE   W03
        BYTE           VOL     57
        BYTE           N02     Cs4   v103
        BYTE           N02     Cs5   v089
        BYTE   W03
        BYTE           VOL     59
        BYTE           N02     Cs4   v045
        BYTE           N02     Cs5   v031
        BYTE   W03
        BYTE                   Ds4   v089
        BYTE           N02     Ds5   v075
        BYTE   W03
        BYTE           VOL     61
        BYTE           N02     Ds4   v055
        BYTE           N02     Ds5   v041
        BYTE   W02
        BYTE           VOL     62
        BYTE   W01
        BYTE           N02     Gs4   v100
        BYTE           N02     Gs5   v069
        BYTE   W02
        BYTE           VOL     61
        BYTE   W01
        BYTE           N02     Gs4   v045
        BYTE           N02     Gs5   v031
        BYTE   W01
        BYTE           VOL     60
        BYTE   W01
        BYTE                   59
        BYTE   W01
        BYTE           N02     Ds4   v093
        BYTE           N02     Ds5   v079
        BYTE   W02
        BYTE           VOL     58
        BYTE   W01
        BYTE           N02     Ds4   v056
        BYTE           N02     Ds5   v042
        BYTE   W02
        BYTE           VOL     57
        BYTE   W01
        BYTE           N02     Ds4   v095
        BYTE           N02     Ds5   v081
        BYTE   W01
        BYTE           VOL     56
        BYTE   W01
        BYTE                   55
        BYTE   W01
        BYTE           N02     Ds4   v045
        BYTE           N02     Ds5   v031
        BYTE   W02
        BYTE           VOL     54
        BYTE   W01
        BYTE           N02     Cs4   v086
        BYTE           N02     Cs5   v072
        BYTE   W01
        BYTE           VOL     53
        BYTE   W01
        BYTE                   52
        BYTE   W01
        BYTE           N02     Cs4   v054
        BYTE           N02     Cs5   v040
        BYTE   W02
        BYTE           VOL     51
        BYTE   W01
        BYTE           N02     Gs3   v116
        BYTE           N02     Gs4   v102
        BYTE   W01
        BYTE           VOL     50
        BYTE   W01
        BYTE                   49
        BYTE   W01
        BYTE           N02     Gs3   v045
        BYTE           N02     Gs4   v031
        BYTE   W01
        BYTE           VOL     48
        BYTE   W02
        BYTE           N02     Ds3   v104
        BYTE           N02     Ds4   v090
        BYTE   W01
        BYTE           VOL     47
        BYTE   W01
        BYTE                   46
        BYTE   W01
        BYTE           N02     Ds3   v070
        BYTE           N02     Ds4   v056
        BYTE   W01
        BYTE           VOL     45
        BYTE   W02
// 012   ----------------------------------------
        BYTE                   44
        BYTE   W03
        BYTE           N02     Ds3   v060
        BYTE           N02     Ds4   v046
        BYTE   W92
        BYTE   W01
// 013   ----------------------------------------
        BYTE   W54
        BYTE                   Cs3   v102
        BYTE   W01
        BYTE           VOL     45
        BYTE   W02
        BYTE           N02     Cs3   v058
        BYTE   W03
        BYTE           N05     Cs3   v108
        BYTE   W01
        BYTE           VOL     46
        BYTE   W05
        BYTE           N02     Fs3   v104
        BYTE   W01
        BYTE           VOL     47
        BYTE   W02
        BYTE           N02     Fs3   v058
        BYTE   W03
        BYTE           N05     Fs3   v114
        BYTE   W01
        BYTE           VOL     48
        BYTE   W05
        BYTE           N02     Gs3   v100
        BYTE   W01
        BYTE           VOL     49
        BYTE   W02
        BYTE           N02     Gs3   v058
        BYTE   W01
        BYTE           VOL     50
        BYTE   W02
        BYTE           N05     Gs3   v112
        BYTE   W04
        BYTE           VOL     51
        BYTE   W02
        BYTE           N02     Ds4   v070
        BYTE   W01
        BYTE           VOL     52
        BYTE   W02
        BYTE           N02     Ds4   v040
        BYTE   W03
// 014   ----------------------------------------
        BYTE           N05     Ds4   v084
        BYTE   W01
        BYTE           VOL     53
        BYTE   W03
        BYTE                   54
        BYTE   W02
        BYTE           N02     Fs4   v074
        BYTE   W01
        BYTE           VOL     55
        BYTE   W02
        BYTE           N02     Fs4   v040
        BYTE   W01
        BYTE           VOL     56
        BYTE   W02
        BYTE           N05     Fs4   v084
        BYTE   W01
        BYTE           VOL     57
        BYTE   W03
        BYTE                   58
        BYTE   W02
        BYTE           N02     Gs4   v077
        BYTE   W01
        BYTE           VOL     59
        BYTE   W02
        BYTE           N02     Gs4   v040
        BYTE   W01
        BYTE           VOL     61
        BYTE   W02
        BYTE           N05     Ds5   v058
        BYTE   W01
        BYTE           VOL     62
        BYTE   W05
        BYTE           N02     Gs4   v073
        BYTE   W03
        BYTE                   Gs4   v040
        BYTE   W03
        BYTE           N05     Gs4   v079
        BYTE   W06
        BYTE           N02     Fs4   v072
        BYTE   W03
        BYTE                   Fs4   v040
        BYTE   W03
        BYTE           N05     Fs4   v085
        BYTE   W06
        BYTE           N02     Ds4   v069
        BYTE   W03
        BYTE                   Ds4   v040
        BYTE   W03
        BYTE           N05     Ds4   v081
        BYTE   W06
        BYTE           N02     Gs3   v099
        BYTE   W03
        BYTE                   Gs3   v058
        BYTE   W03
        BYTE           N05     Gs3   v116
        BYTE   W06
        BYTE           N02     Fs3   v096
        BYTE   W03
        BYTE                   Fs3   v058
        BYTE   W03
        BYTE           N05     Fs3   v113
        BYTE   W06
        BYTE           N02     Ds3   v115
        BYTE   W03
        BYTE                   Ds3   v058
        BYTE   W03
// 015   ----------------------------------------
        BYTE           N03     Gs3   v105
        BYTE   W01
        BYTE           VOL     60
        BYTE   W02
        BYTE                   59
        BYTE   W01
        BYTE                   56
        BYTE   W02
        BYTE                   54
        BYTE           N03     Gs3   v058
        BYTE   W01
        BYTE           VOL     52
        BYTE   W05
        BYTE           N03     Gs3   v082
        BYTE   W06
        BYTE                   Gs3   v084
        BYTE   W06
        BYTE                   Gs3   v087
        BYTE   W06
        BYTE                   Gs3   v051
        BYTE   W06
        BYTE                   Gs3   v103
        BYTE   W06
        BYTE                   Gs3   v057
        BYTE   W06
        BYTE                   Gs3   v084
        BYTE   W06
        BYTE                   Gs3   v050
        BYTE   W06
        BYTE                   Gs3   v085
        BYTE   W06
        BYTE                   Gs3   v051
        BYTE   W06
        BYTE           N11     Gs3   v103
        BYTE   W08
        BYTE           VOL     53
        BYTE   W04
        BYTE           N03     An3   v081
        BYTE   W05
        BYTE           VOL     54
        BYTE   W01
        BYTE           N03     An3   v049
        BYTE   W06
// 016   ----------------------------------------
        BYTE           N11     An3   v101
        BYTE   W02
        BYTE           VOL     55
        BYTE   W06
        BYTE                   56
        BYTE   W04
        BYTE           N03     As3   v084
        BYTE   W02
        BYTE           VOL     57
        BYTE   W04
        BYTE           N03     As3   v050
        BYTE   W02
        BYTE           VOL     58
        BYTE   W04
        BYTE           N11     As3   v105
        BYTE   W02
        BYTE           VOL     59
        BYTE   W06
        BYTE                   60
        BYTE   W03
        BYTE                   61
        BYTE   W01
        BYTE           N03     Bn3   v078
        BYTE   W02
        BYTE           VOL     62
        BYTE   W01
        BYTE                   61
        BYTE   W02
        BYTE                   60
        BYTE   W01
        BYTE           N03     Bn3   v049
        BYTE           VOL     59
        BYTE   W02
        BYTE                   58
        BYTE   W01
        BYTE                   57
        BYTE   W02
        BYTE                   55
        BYTE   W01
        BYTE           N03     Dn4   v103
        BYTE           VOL     54
        BYTE   W02
        BYTE                   53
        BYTE   W01
        BYTE                   51
        BYTE   W03
        BYTE           N03     Dn4   v057
        BYTE   W06
        BYTE                   Dn4   v084
        BYTE   W06
        BYTE                   Dn4   v083
        BYTE   W06
        BYTE                   Dn4   v084
        BYTE   W06
        BYTE                   Dn4   v050
        BYTE   W06
        BYTE                   Dn4   v102
        BYTE   W06
        BYTE                   Dn4   v057
        BYTE   W06
// 017   ----------------------------------------
        BYTE                   Dn4   v082
        BYTE   W06
        BYTE                   Dn4   v050
        BYTE   W06
        BYTE                   Dn4   v087
        BYTE   W06
        BYTE                   Dn4   v051
        BYTE   W06
        BYTE           N11     Dn4   v100
        BYTE   W10
        BYTE           VOL     52
        BYTE   W02
        BYTE           N03     Ds4   v072
        BYTE   W06
        BYTE                   Ds4   v038
        BYTE   W01
        BYTE           VOL     53
        BYTE   W05
        BYTE           N11     Ds4   v087
        BYTE   W04
        BYTE           VOL     54
        BYTE   W06
        BYTE                   55
        BYTE   W02
        BYTE           N03     En4   v073
        BYTE   W04
        BYTE           VOL     56
        BYTE   W02
        BYTE           N03     En4   v038
        BYTE   W01
        BYTE           VOL     57
        BYTE   W03
        BYTE                   58
        BYTE   W02
        BYTE           N11     En4   v093
        BYTE   W04
        BYTE           VOL     59
        BYTE   W03
        BYTE                   60
        BYTE   W03
        BYTE                   61
        BYTE   W02
        BYTE                   62
        BYTE           N03     Fn4   v071
        BYTE   W01
        BYTE           VOL     61
        BYTE   W02
        BYTE                   59
        BYTE   W01
        BYTE                   58
        BYTE   W02
        BYTE                   57
        BYTE           N03     Fn4   v037
        BYTE   W01
        BYTE           VOL     55
        BYTE   W02
        BYTE                   54
        BYTE   W01
        BYTE                   52
        BYTE   W02
// 018   ----------------------------------------
        BYTE                   51
        BYTE           N68     Cn4   v067   gtp3
        BYTE                   Fs4   v070
        BYTE   W01
        BYTE           VOL     49
        BYTE   W02
        BYTE                   48
        BYTE   W01
        BYTE                   46
        BYTE   W02
        BYTE                   45
        BYTE   W01
        BYTE                   43
        BYTE   W02
        BYTE                   42
        BYTE   W01
        BYTE                   40
        BYTE   W02
        BYTE                   38
        BYTE   W06
        BYTE                   39
        BYTE   W03
        BYTE                   40
        BYTE   W06
        BYTE                   41
        BYTE   W03
        BYTE                   42
        BYTE   W06
        BYTE                   43
        BYTE   W03
        BYTE                   44
        BYTE   W03
        BYTE                   45
        BYTE   W03
        BYTE                   47
        BYTE   W03
        BYTE                   48
        BYTE   W03
        BYTE                   50
        BYTE   W03
        BYTE                   52
        BYTE   W03
        BYTE                   54
        BYTE   W03
        BYTE                   57
        BYTE   W03
        BYTE                   59
        BYTE   W03
        BYTE                   62
        BYTE   W06
        BYTE           N32     Cn4   v070   gtp3
        BYTE                   Fn4   v069
        BYTE   W24
// 019   ----------------------------------------
        BYTE   W07
        BYTE           VOL     61
        BYTE   W05
        BYTE           N32     Cs4   v074   gtp3
        BYTE                   En4   v070
        BYTE   W04
        BYTE           VOL     60
        BYTE   W06
        BYTE                   59
        BYTE   W06
        BYTE                   58
        BYTE   W06
        BYTE                   57
        BYTE   W03
        BYTE                   56
        BYTE   W03
        BYTE                   55
        BYTE   W03
        BYTE                   54
        BYTE   W03
        BYTE                   52
        BYTE   W02
        BYTE                   51
        BYTE           N68     Cs4   v074   gtp3
        BYTE           TIE     Ds4   v070
        BYTE   W15
        BYTE           VOL     52
        BYTE   W09
        BYTE                   53
        BYTE   W06
        BYTE                   54
        BYTE   W09
        BYTE                   55
        BYTE   W03
        BYTE                   56
        BYTE   W06
// 020   ----------------------------------------
        BYTE                   57
        BYTE   W03
        BYTE                   58
        BYTE   W06
        BYTE                   59
        BYTE   W03
        BYTE                   60
        BYTE   W03
        BYTE                   61
        BYTE   W01
        BYTE                   62
        BYTE   W08
        BYTE           N56     Gs3   v073   gtp3
        BYTE   W08
        BYTE           VOL     61
        BYTE   W03
        BYTE                   60
        BYTE   W03
        BYTE                   59
        BYTE   W03
        BYTE                   58
        BYTE   W03
        BYTE                   57
        BYTE   W02
        BYTE                   56
        BYTE   W03
        BYTE                   55
        BYTE   W01
        BYTE                   54
        BYTE   W02
        BYTE                   53
        BYTE   W03
        BYTE                   52
        BYTE   W01
        BYTE                   51
        BYTE   W02
        BYTE                   50
        BYTE   W01
        BYTE                   49
        BYTE   W02
        BYTE                   48
        BYTE   W01
        BYTE                   47
        BYTE   W02
        BYTE                   46
        BYTE   W01
        BYTE                   44
        BYTE   W02
        BYTE                   43
        BYTE   W01
        BYTE                   42
        BYTE   W02
        BYTE                   40
        BYTE   W01
        BYTE                   39
        BYTE   W02
        BYTE                   37
        BYTE   W01
        BYTE                   35
        BYTE   W02
        BYTE                   34
        BYTE   W01
        BYTE                   32
        BYTE   W02
        BYTE                   30
        BYTE   W01
        BYTE                   28
        BYTE   W02
        BYTE                   25
        BYTE   W01
        BYTE           EOT     Ds4
        BYTE           VOL     23
        BYTE   W02
        BYTE                   20
        BYTE   W01
        BYTE                   17
        BYTE   W01
        BYTE                   14
        BYTE   W09
// 021   ----------------------------------------
        BYTE                   62
        BYTE   GoTo
         POIN2  DarkCloudsGather_0_LOOP
        BYTE   FINE

//****************** Track 1 (Midi-Chn.1) ******************//

DarkCloudsGather_1:
        BYTE   KEYSH   DarkCloudsGather_key+0
// 000   ----------------------------------------
DarkCloudsGather_1_LOOP:
        BYTE           VOICE   2
        BYTE           VOL     69
        BYTE           N03     Cs1   v117
        BYTE   W06
        BYTE                   Cs1   v038
        BYTE   W06
        BYTE           N02     Cs1   v097
        BYTE   W06
        BYTE                   Cs1
        BYTE   W06
        BYTE           N05     Cs1   v091
        BYTE   W06
        BYTE                   Cs1   v041
        BYTE   W06
        BYTE           N03     Cs1   v104
        BYTE   W06
        BYTE                   Cs1   v039
        BYTE   W06
        BYTE                   Cs1   v084
        BYTE   W06
        BYTE                   Cs1   v042
        BYTE   W06
        BYTE                   Cs1   v084
        BYTE   W06
        BYTE                   Cs1   v042
        BYTE   W06
        BYTE           N05     Cs1   v122
        BYTE   W06
        BYTE                   Cs1   v037
        BYTE   W06
        BYTE           N03     Cs1   v069
        BYTE   W06
        BYTE                   Cs1   v044
        BYTE   W06
// 001   ----------------------------------------
DarkCloudsGather_1_1:
        BYTE           N05     Cs1   v113
        BYTE   W06
        BYTE                   Cs1   v038
        BYTE   W06
        BYTE           N02     Cs1   v061
        BYTE   W06
        BYTE                   Cs1   v044
        BYTE   W06
        BYTE           N05     Cs1   v113
        BYTE   W06
        BYTE                   Cs1   v038
        BYTE   W06
        BYTE           N04     Cs1   v088
        BYTE   W06
        BYTE                   Cs1   v041
        BYTE   W06
        BYTE           N03     Cs1   v117
        BYTE   W06
        BYTE                   Cs1   v038
        BYTE   W06
        BYTE           N02     Cs1   v097
        BYTE   W06
        BYTE                   Cs1
        BYTE   W06
        BYTE           N05     Cs1   v091
        BYTE   W06
        BYTE                   Cs1   v041
        BYTE   W06
        BYTE           N03     Cs1   v104
        BYTE   W06
        BYTE                   Cs1   v039
        BYTE   W06
        BYTE   PEND
// 002   ----------------------------------------
DarkCloudsGather_1_2:
        BYTE           N03     Cs1   v084
        BYTE   W06
        BYTE                   Cs1   v042
        BYTE   W06
        BYTE                   Cs1   v084
        BYTE   W06
        BYTE                   Cs1   v042
        BYTE   W06
        BYTE           N05     Cs1   v122
        BYTE   W06
        BYTE                   Cs1   v037
        BYTE   W06
        BYTE           N03     Cs1   v069
        BYTE   W06
        BYTE                   Cs1   v044
        BYTE   W06
        BYTE           N05     Cs1   v113
        BYTE   W06
        BYTE                   Cs1   v038
        BYTE   W06
        BYTE           N02     Cs1   v061
        BYTE   W06
        BYTE                   Cs1   v044
        BYTE   W06
        BYTE           N05     Cs1   v113
        BYTE   W06
        BYTE                   Cs1   v038
        BYTE   W06
        BYTE           N04     Cs1   v088
        BYTE   W06
        BYTE                   Cs1   v041
        BYTE   W06
        BYTE   PEND
// 003   ----------------------------------------
DarkCloudsGather_1_3:
        BYTE           N03     Cs1   v117
        BYTE   W06
        BYTE                   Cs1   v038
        BYTE   W06
        BYTE           N02     Cs1   v097
        BYTE   W06
        BYTE                   Cs1
        BYTE   W06
        BYTE           N05     Cs1   v091
        BYTE   W06
        BYTE                   Cs1   v041
        BYTE   W06
        BYTE           N03     Cs1   v104
        BYTE   W06
        BYTE                   Cs1   v039
        BYTE   W06
        BYTE                   Cs1   v084
        BYTE   W06
        BYTE                   Cs1   v042
        BYTE   W06
        BYTE                   Cs1   v084
        BYTE   W06
        BYTE                   Cs1   v042
        BYTE   W06
        BYTE           N05     Cs1   v122
        BYTE   W06
        BYTE                   Cs1   v037
        BYTE   W06
        BYTE           N03     Cs1   v069
        BYTE   W06
        BYTE                   Cs1   v044
        BYTE   W06
        BYTE   PEND
// 004   ----------------------------------------
        BYTE   PATT
         POIN2  DarkCloudsGather_1_1
// 005   ----------------------------------------
        BYTE   PATT
         POIN2  DarkCloudsGather_1_2
// 006   ----------------------------------------
        BYTE   PATT
         POIN2  DarkCloudsGather_1_3
// 007   ----------------------------------------
        BYTE   PATT
         POIN2  DarkCloudsGather_1_1
// 008   ----------------------------------------
        BYTE           N03     Cs1   v084
        BYTE   W06
        BYTE                   Cs1   v042
        BYTE   W06
        BYTE                   Cs1   v079
        BYTE   W06
        BYTE                   Cs1   v043
        BYTE   W06
        BYTE           N05     Cs1   v117
        BYTE   W06
        BYTE                   Cs1   v038
        BYTE   W06
        BYTE           N03     Cs1   v064
        BYTE   W06
        BYTE                   Cs1   v044
        BYTE   W06
        BYTE           N05     Cs1   v108
        BYTE   W06
        BYTE                   Cs1   v039
        BYTE   W06
        BYTE           N02     Cs1   v056
        BYTE   W06
        BYTE                   Cs1   v045
        BYTE   W06
        BYTE           N05     Cs1   v108
        BYTE   W06
        BYTE                   Cs1   v039
        BYTE   W06
        BYTE           N04     Cs1   v083
        BYTE   W06
        BYTE                   Cs1   v042
        BYTE   W06
// 009   ----------------------------------------
DarkCloudsGather_1_9:
        BYTE           N03     Gs0   v112
        BYTE   W06
        BYTE                   Gs0   v038
        BYTE   W06
        BYTE           N02     Gs0   v092
        BYTE   W06
        BYTE                   Gs0
        BYTE   W06
        BYTE           N05     Gs0   v086
        BYTE   W06
        BYTE                   Gs0   v042
        BYTE   W06
        BYTE           N03     Gs0   v099
        BYTE   W06
        BYTE                   Gs0   v040
        BYTE   W06
        BYTE                   Gs0   v079
        BYTE   W06
        BYTE                   Gs0   v043
        BYTE   W06
        BYTE                   Gs0   v079
        BYTE   W06
        BYTE                   Gs0   v043
        BYTE   W06
        BYTE           N05     Gs0   v117
        BYTE   W06
        BYTE                   Gs0   v038
        BYTE   W06
        BYTE           N03     Gs0   v064
        BYTE   W06
        BYTE                   Gs0   v044
        BYTE   W06
        BYTE   PEND
// 010   ----------------------------------------
DarkCloudsGather_1_10:
        BYTE           N05     Gs0   v108
        BYTE   W06
        BYTE                   Gs0   v039
        BYTE   W06
        BYTE           N02     Gs0   v056
        BYTE   W06
        BYTE                   Gs0   v045
        BYTE   W06
        BYTE           N05     Gs0   v108
        BYTE   W06
        BYTE                   Gs0   v039
        BYTE   W06
        BYTE           N04     Gs0   v083
        BYTE   W06
        BYTE                   Gs0   v042
        BYTE   W06
        BYTE           N03     Gs0   v112
        BYTE   W06
        BYTE                   Gs0   v038
        BYTE   W06
        BYTE           N02     Gs0   v092
        BYTE   W06
        BYTE                   Gs0
        BYTE   W06
        BYTE           N05     Gs0   v086
        BYTE   W06
        BYTE                   Gs0   v042
        BYTE   W06
        BYTE           N03     Gs0   v099
        BYTE   W06
        BYTE                   Gs0   v040
        BYTE   W06
        BYTE   PEND
// 011   ----------------------------------------
        BYTE                   Gs0   v079
        BYTE   W06
        BYTE                   Gs0   v043
        BYTE   W06
        BYTE                   Gs0   v079
        BYTE   W06
        BYTE                   Gs0   v043
        BYTE   W06
        BYTE           N05     Gs0   v117
        BYTE   W06
        BYTE                   Gs0   v038
        BYTE   W06
        BYTE           N03     Gs0   v064
        BYTE   W06
        BYTE                   Gs0   v044
        BYTE   W06
        BYTE           N05     Gs0   v108
        BYTE   W06
        BYTE                   Gs0   v039
        BYTE   W06
        BYTE           N02     Gs0   v056
        BYTE   W06
        BYTE                   Gs0   v045
        BYTE   W06
        BYTE           N05     Gs0   v108
        BYTE   W06
        BYTE                   Gs0   v039
        BYTE   W06
        BYTE           N04     Gs0   v083
        BYTE   W06
        BYTE                   Gs0   v042
        BYTE   W06
// 012   ----------------------------------------
        BYTE   PATT
         POIN2  DarkCloudsGather_1_9
// 013   ----------------------------------------
        BYTE   PATT
         POIN2  DarkCloudsGather_1_10
// 014   ----------------------------------------
        BYTE           N03     Gs0   v079
        BYTE   W06
        BYTE                   Gs0   v043
        BYTE   W06
        BYTE                   Gs0   v079
        BYTE   W06
        BYTE                   Gs0   v043
        BYTE   W06
        BYTE           N05     Ds2   v117
        BYTE   W06
        BYTE           N03     Gs1   v101
        BYTE           N05     Ds2   v038
        BYTE   W06
        BYTE                   Gs1   v109
        BYTE   W06
        BYTE           N03     Fs1   v100
        BYTE           N05     Gs1   v039
        BYTE   W06
        BYTE                   Fs1   v117
        BYTE   W06
        BYTE           N03     Ds1   v096
        BYTE           N05     Fs1   v038
        BYTE   W06
        BYTE                   Ds1   v112
        BYTE   W06
        BYTE           N03     Gs0   v099
        BYTE           N05     Ds1   v038
        BYTE   W06
        BYTE                   Gs0   v116
        BYTE   W06
        BYTE           N03     Fs0   v096
        BYTE           N05     Gs0   v038
        BYTE   W06
        BYTE                   Fs0   v113
        BYTE   W06
        BYTE           N03     Ds0   v115
        BYTE           N05     Fs0   v038
        BYTE   W06
// 015   ----------------------------------------
        BYTE           N03     Ds0
        BYTE           N03     Cs1   v117
        BYTE   W06
        BYTE                   Cs1   v038
        BYTE   W06
        BYTE           N02     Cs1   v096
        BYTE   W06
        BYTE                   Cs1
        BYTE   W06
        BYTE           N05     Cs1   v090
        BYTE   W06
        BYTE                   Cs1   v041
        BYTE   W06
        BYTE           N03     Cs1   v102
        BYTE   W06
        BYTE                   Cs1   v040
        BYTE   W06
        BYTE                   Cs1   v083
        BYTE   W06
        BYTE                   Cs1   v042
        BYTE   W06
        BYTE                   Cs1   v083
        BYTE   W06
        BYTE                   Cs1   v042
        BYTE   W06
        BYTE           N05     Cs1   v097
        BYTE   W06
        BYTE                   Cs1   v040
        BYTE   W06
        BYTE           N03     Cn1   v069
        BYTE   W06
        BYTE                   Cn1   v044
        BYTE   W06
// 016   ----------------------------------------
        BYTE           N05     Cn1   v113
        BYTE   W06
        BYTE                   Cn1   v038
        BYTE   W06
        BYTE           N02     Bn0   v080
        BYTE   W06
        BYTE                   Bn0   v042
        BYTE   W06
        BYTE           N05     Bn0   v127
        BYTE   W06
        BYTE                   Bn0   v036
        BYTE   W06
        BYTE           N04     As0   v097
        BYTE   W06
        BYTE                   As0   v040
        BYTE   W06
        BYTE           N03     Cs1   v117
        BYTE   W06
        BYTE                   Cs1   v038
        BYTE   W06
        BYTE           N02     Cs1   v091
        BYTE   W06
        BYTE                   Cs1   v081
        BYTE   W06
        BYTE           N05     Cs1   v075
        BYTE   W06
        BYTE                   Cs1   v043
        BYTE   W06
        BYTE           N03     Cs1   v088
        BYTE   W06
        BYTE                   Cs1   v041
        BYTE   W06
// 017   ----------------------------------------
        BYTE                   Cs1   v068
        BYTE   W06
        BYTE                   Cs1   v044
        BYTE   W06
        BYTE                   Cs1   v068
        BYTE   W06
        BYTE                   Cs1   v044
        BYTE   W06
        BYTE           N05     Cs1   v097
        BYTE   W06
        BYTE                   Cs1   v040
        BYTE   W06
        BYTE           N03     Cn1   v075
        BYTE   W06
        BYTE                   Cn1   v043
        BYTE   W06
        BYTE           N05     Cn1   v113
        BYTE   W06
        BYTE                   Cn1   v038
        BYTE   W06
        BYTE           N02     Bn0   v090
        BYTE   W06
        BYTE                   Bn0   v041
        BYTE   W06
        BYTE           N05     Bn0   v127
        BYTE   W06
        BYTE                   Bn0   v036
        BYTE   W06
        BYTE           N04     As0   v103
        BYTE   W06
        BYTE                   As0   v039
        BYTE   W06
// 018   ----------------------------------------
        BYTE   PATT
         POIN2  DarkCloudsGather_1_3
// 019   ----------------------------------------
        BYTE           N05     Cs1   v113
        BYTE   W06
        BYTE                   Cs1   v038
        BYTE   W06
        BYTE           N02     Cs1   v061
        BYTE   W06
        BYTE                   Cs1   v044
        BYTE   W06
        BYTE           N05     Cs1   v113
        BYTE   W06
        BYTE                   Cs1   v038
        BYTE   W06
        BYTE           N04     Cs1   v088
        BYTE   W06
        BYTE                   Cs1   v041
        BYTE   W06
        BYTE           N03     Gs0   v117
        BYTE   W06
        BYTE                   Gs0   v038
        BYTE   W06
        BYTE           N02     Gs0   v097
        BYTE   W06
        BYTE                   Gs0
        BYTE   W06
        BYTE           N05     Gs0   v091
        BYTE   W06
        BYTE                   Gs0   v041
        BYTE   W06
        BYTE           N03     Gs0   v104
        BYTE   W06
        BYTE                   Gs0   v039
        BYTE   W06
// 020   ----------------------------------------
        BYTE                   Gs0   v084
        BYTE   W06
        BYTE                   Gs0   v042
        BYTE   W06
        BYTE                   Gs0   v084
        BYTE   W06
        BYTE                   Gs0   v042
        BYTE   W06
        BYTE           N05     Gs0   v122
        BYTE   W06
        BYTE                   Gs0   v037
        BYTE   W06
        BYTE           N03     Gs0   v069
        BYTE   W06
        BYTE                   Gs0   v044
        BYTE   W06
        BYTE           N05     Gs0   v113
        BYTE   W06
        BYTE                   Gs0   v038
        BYTE   W06
        BYTE           N02     Gs0   v061
        BYTE   W06
        BYTE                   Gs0   v044
        BYTE   W06
        BYTE           N04     Gs0   v113
        BYTE   W06
        BYTE                   Gs0   v088
        BYTE   W06
        BYTE                   Gs0
        BYTE   W06
        BYTE                   Gs0
        BYTE   W06
// 021   ----------------------------------------
        BYTE   GoTo
         POIN2  DarkCloudsGather_1_LOOP
        BYTE   FINE

//****************** Track 2 (Midi-Chn.2) ******************//

DarkCloudsGather_2:
        BYTE   KEYSH   DarkCloudsGather_key+0
// 000   ----------------------------------------
DarkCloudsGather_2_LOOP:
        BYTE           VOICE   127
        BYTE           VOL     56
        BYTE           N32     Cs2   v065   gtp3
        BYTE   W12
        BYTE           N03     An1   v088
        BYTE   W06
        BYTE           N05
        BYTE   W06
        BYTE           N07     Gn1   v097
        BYTE   W12
        BYTE           N05     Gn1   v088
        BYTE   W06
        BYTE                   Fn1   v084
        BYTE   W12
        BYTE                   Gn1   v113
        BYTE   W06
        BYTE                   Fn1   v082
        BYTE   W06
        BYTE                   Gn1   v091
        BYTE   W06
        BYTE                   Cn2   v104
        BYTE   W12
        BYTE           N06     An1   v108
        BYTE   W12
// 001   ----------------------------------------
DarkCloudsGather_2_1:
        BYTE           N09     An1   v086
        BYTE   W12
        BYTE           N05     Gn1   v069
        BYTE   W12
        BYTE                   An1   v088
        BYTE   W06
        BYTE                   Gn1   v097
        BYTE   W12
        BYTE                   Fn1   v088
        BYTE   W06
        BYTE           N06     Cn2   v094
        BYTE   W12
        BYTE           N03     An1   v088
        BYTE   W06
        BYTE           N05
        BYTE   W06
        BYTE           N07     Gn1   v097
        BYTE   W12
        BYTE           N05     Gn1   v088
        BYTE   W06
        BYTE                   Fn1   v084
        BYTE   W06
        BYTE   PEND
// 002   ----------------------------------------
        BYTE   W06
        BYTE                   Gn1   v113
        BYTE   W06
        BYTE                   Fn1   v082
        BYTE   W06
        BYTE                   Gn1   v091
        BYTE   W06
        BYTE                   Cn2   v104
        BYTE   W12
        BYTE           N06     An1   v108
        BYTE   W12
        BYTE           N09     An1   v086
        BYTE   W12
        BYTE           N05     Gn1   v069
        BYTE   W12
        BYTE                   An1   v088
        BYTE   W06
        BYTE                   Gn1   v097
        BYTE   W06
        BYTE           N11     As2   v052
        BYTE   W06
        BYTE           N05     Fn1   v088
        BYTE   W06
// 003   ----------------------------------------
        BYTE                   Cn2   v108
        BYTE           N11     An2   v063
        BYTE   W12
        BYTE           N03     An1   v088
        BYTE           N05     An2   v052
        BYTE   W06
        BYTE                   An1   v088
        BYTE           N05     An2   v068
        BYTE   W06
        BYTE           N07     Gn1   v097
        BYTE           N11     An2   v048
        BYTE   W12
        BYTE           N05     Gn1   v088
        BYTE           N11     An2   v052
        BYTE   W06
        BYTE           N05     Fn1   v084
        BYTE   W06
        BYTE           N11     An2   v057
        BYTE   W06
        BYTE           N05     Gn1   v113
        BYTE   W06
        BYTE                   Fn1   v082
        BYTE           N11     An2   v048
        BYTE   W06
        BYTE           N05     Gn1   v091
        BYTE   W06
        BYTE                   Cn2   v104
        BYTE           N11     An2   v074
        BYTE   W12
        BYTE           N06     An1   v108
        BYTE           N11     An2   v052
        BYTE   W12
// 004   ----------------------------------------
        BYTE           N09     An1   v086
        BYTE           N11     An2   v072
        BYTE   W12
        BYTE           N05     Gn1   v069
        BYTE           N11     An2   v043
        BYTE   W12
        BYTE           N05     An1   v088
        BYTE           N05     An2   v072
        BYTE   W06
        BYTE                   Gn1   v097
        BYTE           N05     An2   v052
        BYTE   W06
        BYTE                   An2   v048
        BYTE   W06
        BYTE                   Fn1   v088
        BYTE           N05     An2   v052
        BYTE   W06
        BYTE           N06     Cn2   v094
        BYTE           N11     An2   v074
        BYTE   W12
        BYTE           N03     An1   v088
        BYTE           N05     An2   v048
        BYTE   W06
        BYTE                   An1   v088
        BYTE           N05     An2   v048
        BYTE   W06
        BYTE           N07     Gn1   v097
        BYTE           N11     An2   v037
        BYTE   W12
        BYTE           N05     Gn1   v088
        BYTE           N11     An2   v063
        BYTE   W06
        BYTE           N05     Fn1   v084
        BYTE   W06
// 005   ----------------------------------------
        BYTE           N11     An2   v030
        BYTE   W06
        BYTE           N05     Gn1   v113
        BYTE   W06
        BYTE                   Fn1   v082
        BYTE           N11     An2   v039
        BYTE   W06
        BYTE           N05     Gn1   v091
        BYTE   W06
        BYTE                   Cn2   v104
        BYTE           N11     An2   v071
        BYTE   W12
        BYTE           N06     An1   v108
        BYTE           N11     An2   v039
        BYTE   W12
        BYTE           N09     An1   v086
        BYTE           N11     An2   v075
        BYTE   W12
        BYTE           N05     Gn1   v069
        BYTE           N11     An2   v037
        BYTE   W12
        BYTE           N05     An1   v088
        BYTE           N05     An2   v075
        BYTE   W06
        BYTE                   Gn1   v097
        BYTE           N05     An2   v057
        BYTE   W06
        BYTE                   An2
        BYTE   W06
        BYTE                   Fn1   v088
        BYTE           N05     An2   v052
        BYTE   W06
// 006   ----------------------------------------
DarkCloudsGather_2_6:
        BYTE           N05     Cn2   v108
        BYTE   W12
        BYTE           N03     An1   v088
        BYTE   W06
        BYTE           N05
        BYTE   W06
        BYTE           N07     Gn1   v097
        BYTE   W12
        BYTE           N05     Gn1   v088
        BYTE   W06
        BYTE                   Fn1   v084
        BYTE   W12
        BYTE                   Gn1   v113
        BYTE   W06
        BYTE                   Fn1   v082
        BYTE   W06
        BYTE                   Gn1   v091
        BYTE   W06
        BYTE                   Cn2   v104
        BYTE   W12
        BYTE           N06     An1   v108
        BYTE   W12
        BYTE   PEND
// 007   ----------------------------------------
        BYTE   PATT
         POIN2  DarkCloudsGather_2_1
// 008   ----------------------------------------
        BYTE   W06
        BYTE           N05     Gn1   v113
        BYTE   W06
        BYTE                   Fn1   v086
        BYTE   W06
        BYTE                   Gn1   v095
        BYTE   W06
        BYTE                   Fs1   v064
        BYTE   W06
        BYTE                   Fs1   v039
        BYTE   W06
        BYTE                   Fs1   v063
        BYTE   W06
        BYTE                   Fs1   v037
        BYTE   W06
        BYTE                   Fs1   v067
        BYTE   W06
        BYTE                   Fs1   v038
        BYTE   W06
        BYTE                   Fs1   v071
        BYTE   W06
        BYTE                   Fs1   v034
        BYTE   W06
        BYTE           N02     Fs1   v064
        BYTE   W03
        BYTE                   Fs1   v046
        BYTE   W03
        BYTE                   Gs1   v056
        BYTE   W03
        BYTE                   Gs1   v046
        BYTE   W03
        BYTE           N05     As1   v071
        BYTE   W06
        BYTE                   As1   v082
        BYTE   W06
// 009   ----------------------------------------
        BYTE           N06     Cn1   v113
        BYTE           N11     En2   v073
        BYTE   W12
        BYTE           N05     Cn1   v098
        BYTE           N02     Fn2   v104
        BYTE   W12
        BYTE           N06     Cn1   v098
        BYTE           N03     Fn2   v087
        BYTE   W12
        BYTE           N05     Cn1   v098
        BYTE           N02     Fn2   v088
        BYTE   W06
        BYTE           N03     Fn2   v105
        BYTE   W06
        BYTE           N05     Cn1   v098
        BYTE   W06
        BYTE           N03     Fn2   v101
        BYTE   W06
        BYTE           N05     Cn1   v098
        BYTE           N02     Fn2
        BYTE   W06
        BYTE           N03     Fn2   v095
        BYTE   W06
        BYTE           N06     Cn1   v113
        BYTE           N02     Fn2   v105
        BYTE   W06
        BYTE                   Fn2   v092
        BYTE   W06
        BYTE           N06     Cn1   v098
        BYTE           N02     Fn2   v088
        BYTE   W12
// 010   ----------------------------------------
        BYTE           N06     Cn1   v113
        BYTE           N02     Fn2   v084
        BYTE   W12
        BYTE           N06     Cn1   v098
        BYTE           N02     Fn2   v108
        BYTE   W06
        BYTE                   Fn2
        BYTE   W06
        BYTE           N05     Cn1   v113
        BYTE           N03     Fn2   v092
        BYTE   W12
        BYTE           N05     Cn1   v098
        BYTE           N03     Fn2   v105
        BYTE   W12
        BYTE           N06     Cn1   v113
        BYTE           N03     Fn2   v095
        BYTE   W12
        BYTE           N05     Cn1   v098
        BYTE           N03     Fn2   v101
        BYTE   W12
        BYTE           N06     Cn1   v098
        BYTE           N03     Fn2   v090
        BYTE   W12
        BYTE           N05     Cn1   v098
        BYTE           N02     Fn2   v105
        BYTE   W06
        BYTE           N03     Fn2   v086
        BYTE   W06
// 011   ----------------------------------------
        BYTE           N05     Cn1   v098
        BYTE   W06
        BYTE           N02     Fn2   v117
        BYTE   W06
        BYTE           N05     Cn1   v098
        BYTE           N02     Fn2   v086
        BYTE   W06
        BYTE                   Fn2   v095
        BYTE   W06
        BYTE           N06     Cn1   v113
        BYTE           N02     Fn2   v095
        BYTE   W06
        BYTE                   Fn2   v092
        BYTE   W06
        BYTE           N06     Cn1   v098
        BYTE           N03     Fn2   v084
        BYTE   W12
        BYTE           N06     Cn1   v113
        BYTE           N03     Fn2   v101
        BYTE   W12
        BYTE           N06     Cn1   v098
        BYTE           N02     Fn2   v112
        BYTE   W06
        BYTE                   Fn2   v082
        BYTE   W06
        BYTE           N05     Cn1   v113
        BYTE           N05     Fs1   v060
        BYTE   W06
        BYTE                   Gs1   v074
        BYTE   W06
        BYTE                   Cn1   v098
        BYTE           N02     Gs1   v066
        BYTE   W03
        BYTE                   Gs1   v060
        BYTE   W03
        BYTE           N05     As1   v067
        BYTE   W06
// 012   ----------------------------------------
        BYTE           N06     Cn1   v113
        BYTE           N11     En2   v072
        BYTE   W12
        BYTE           N05     Cn1   v098
        BYTE           N03     Fn2   v108
        BYTE   W12
        BYTE           N06     Cn1   v098
        BYTE           N03     Fn2
        BYTE   W12
        BYTE           N05     Cn1
        BYTE           N03     Fn2   v092
        BYTE   W06
        BYTE                   Fn2   v078
        BYTE   W06
        BYTE           N05     Cn1   v098
        BYTE   W06
        BYTE           N02     Fn2   v112
        BYTE   W06
        BYTE           N05     Cn1   v098
        BYTE           N03     Fn2
        BYTE   W06
        BYTE           N02     Fn2   v076
        BYTE   W06
        BYTE           N06     Cn1   v113
        BYTE           N02     Fn2   v086
        BYTE   W06
        BYTE                   Fn2   v095
        BYTE   W06
        BYTE           N06     Cn1   v098
        BYTE           N03     Fn2   v112
        BYTE   W12
// 013   ----------------------------------------
        BYTE           N06     Cn1   v113
        BYTE           N03     Fn2   v112
        BYTE   W12
        BYTE           N06     Cn1   v098
        BYTE           N03     Fn2
        BYTE   W06
        BYTE                   Fn2   v105
        BYTE   W06
        BYTE           N05     Cn1   v113
        BYTE   W06
        BYTE           N02     Fn2   v112
        BYTE   W06
        BYTE           N05     Cn1   v098
        BYTE           N02     Fn2   v090
        BYTE   W06
        BYTE                   Fn2
        BYTE   W06
        BYTE           N06     Cn1   v113
        BYTE           N03     Fn2   v098
        BYTE   W12
        BYTE           N05     Cn1
        BYTE           N03     Fn2   v108
        BYTE   W12
        BYTE           N06     Cn1   v098
        BYTE           N02     Fn2   v112
        BYTE   W12
        BYTE           N05     Cn1   v098
        BYTE           N02     Fn2   v105
        BYTE   W06
        BYTE           N03     Fn2   v073
        BYTE   W06
// 014   ----------------------------------------
        BYTE           N05     Cn1   v098
        BYTE   W06
        BYTE           N02     Fn2   v108
        BYTE   W06
        BYTE           N05     Cn1   v098
        BYTE           N02     Fn2   v082
        BYTE   W06
        BYTE                   Fn2   v098
        BYTE   W06
        BYTE           N05     Cn2   v108
        BYTE   W12
        BYTE           N06     An1   v112
        BYTE   W12
        BYTE           N09     An1   v090
        BYTE   W12
        BYTE           N05     Gn1   v073
        BYTE   W12
        BYTE           N02     En1   v076
        BYTE   W03
        BYTE                   Dn1
        BYTE   W03
        BYTE                   En1   v092
        BYTE   W03
        BYTE                   Dn1
        BYTE   W03
        BYTE                   En1   v091
        BYTE   W03
        BYTE                   Dn1
        BYTE   W03
        BYTE                   En1   v103
        BYTE   W03
        BYTE                   Dn1
        BYTE   W03
// 015   ----------------------------------------
        BYTE           N11     Cs2   v065
        BYTE   W12
        BYTE           N03     An1   v088
        BYTE   W06
        BYTE           N05
        BYTE   W06
        BYTE           N07     Gn1   v097
        BYTE   W12
        BYTE           N05     Gn1   v088
        BYTE   W06
        BYTE                   Fn1   v084
        BYTE   W12
        BYTE                   Gn1   v113
        BYTE   W06
        BYTE                   Fn1   v082
        BYTE   W06
        BYTE                   Gn1   v091
        BYTE   W06
        BYTE                   Cn2   v104
        BYTE   W12
        BYTE           N06     An1   v108
        BYTE   W12
// 016   ----------------------------------------
        BYTE   PATT
         POIN2  DarkCloudsGather_2_1
// 017   ----------------------------------------
        BYTE   W06
        BYTE           N05     Gn1   v113
        BYTE   W06
        BYTE                   Fn1   v082
        BYTE   W06
        BYTE                   Gn1   v091
        BYTE   W06
        BYTE                   Cn2   v104
        BYTE   W12
        BYTE           N06     An1   v108
        BYTE   W12
        BYTE           N09     An1   v086
        BYTE   W12
        BYTE           N05     Gn1   v069
        BYTE   W12
        BYTE                   An1   v088
        BYTE   W06
        BYTE                   Gn1   v097
        BYTE   W12
        BYTE                   Fn1   v088
        BYTE   W06
// 018   ----------------------------------------
        BYTE   PATT
         POIN2  DarkCloudsGather_2_6
// 019   ----------------------------------------
        BYTE           N09     An1   v086
        BYTE   W12
        BYTE           N05     Gn1   v069
        BYTE   W12
        BYTE                   An1   v088
        BYTE   W06
        BYTE                   Gn1   v097
        BYTE   W12
        BYTE                   Fn1   v088
        BYTE   W06
        BYTE           N03     Fn2   v094
        BYTE   W12
        BYTE                   Fn2   v104
        BYTE   W12
        BYTE           N02     Fn2   v108
        BYTE   W12
        BYTE                   Fn2   v101
        BYTE   W06
        BYTE           N03     Fn2   v069
        BYTE   W06
// 020   ----------------------------------------
        BYTE   W06
        BYTE           N02     Fn2   v104
        BYTE   W06
        BYTE                   Fn2   v078
        BYTE   W06
        BYTE                   Fn2   v094
        BYTE   W06
        BYTE           N11     An2   v079
        BYTE   W12
        BYTE                   An2   v045
        BYTE   W12
        BYTE                   An2   v084
        BYTE   W12
        BYTE                   An2   v041
        BYTE   W12
        BYTE           N05     Cn2   v088
        BYTE   W06
        BYTE                   An1   v097
        BYTE   W06
        BYTE                   Gn1
        BYTE   W06
        BYTE                   Fn1   v088
        BYTE   W06
// 021   ----------------------------------------
        BYTE   GoTo
         POIN2  DarkCloudsGather_2_LOOP
        BYTE   FINE

//****************** Track 3 (Midi-Chn.3) ******************//

DarkCloudsGather_3:
        BYTE   KEYSH   DarkCloudsGather_key+0
// 000   ----------------------------------------
DarkCloudsGather_3_LOOP:
        BYTE           VOICE   18
        BYTE           PAN     c_v-20
        BYTE           TIE     Cs2   v077
        BYTE           TIE     Cs3   v082
        BYTE           VOL     54
        BYTE   W01
        BYTE                   53
        BYTE   W01
        BYTE                   50
        BYTE   W01
        BYTE                   47
        BYTE   W01
        BYTE                   45
        BYTE   W01
        BYTE                   43
        BYTE   W01
        BYTE                   39
        BYTE   W01
        BYTE                   37
        BYTE   W01
        BYTE                   35
        BYTE   W09
        BYTE                   36
        BYTE   W03
        BYTE                   37
        BYTE   W03
        BYTE                   38
        BYTE   W06
        BYTE                   39
        BYTE   W06
        BYTE                   40
        BYTE   W03
        BYTE                   41
        BYTE   W06
        BYTE                   42
        BYTE   W03
        BYTE                   43
        BYTE   W06
        BYTE                   44
        BYTE   W06
        BYTE                   45
        BYTE   W03
        BYTE                   46
        BYTE   W06
        BYTE                   47
        BYTE   W06
        BYTE                   48
        BYTE   W03
        BYTE                   49
        BYTE   W06
        BYTE                   50
        BYTE   W06
        BYTE                   51
        BYTE   W03
        BYTE                   52
        BYTE   W04
// 001   ----------------------------------------
        BYTE   W02
        BYTE                   53
        BYTE   W03
        BYTE                   54
        BYTE   W06
        BYTE                   55
        BYTE   W03
        BYTE                   56
        BYTE   W08
        BYTE           EOT     Cs2
        BYTE                   Cs3
        BYTE   W02
        BYTE           N02     Cs2
        BYTE           N02     Cs3   v097
        BYTE   W03
        BYTE                   Cs2   v047
        BYTE           N02     Cs3
        BYTE   W03
        BYTE                   Cs2   v097
        BYTE           N02     Cs3   v088
        BYTE   W03
        BYTE                   Cs2   v045
        BYTE           N02     Cs3
        BYTE   W03
        BYTE                   Cs2   v097
        BYTE           N02     Cs3   v088
        BYTE   W03
        BYTE                   Cs2   v045
        BYTE           N02     Cs3
        BYTE   W03
        BYTE                   Cs2   v100
        BYTE           N02     Cs3   v097
        BYTE   W03
        BYTE                   Cs2   v047
        BYTE           N02     Cs3
        BYTE   W03
        BYTE           TIE     Cs3   v082
        BYTE   W02
        BYTE           VOL     54
        BYTE   W01
        BYTE                   53
        BYTE   W01
        BYTE                   50
        BYTE   W01
        BYTE                   47
        BYTE   W01
        BYTE                   45
        BYTE   W01
        BYTE                   43
        BYTE   W01
        BYTE                   39
        BYTE   W01
        BYTE                   37
        BYTE   W01
        BYTE                   35
        BYTE   W09
        BYTE                   36
        BYTE   W03
        BYTE                   37
        BYTE   W03
        BYTE                   38
        BYTE   W06
        BYTE                   39
        BYTE   W06
        BYTE                   40
        BYTE   W03
        BYTE                   41
        BYTE   W06
        BYTE                   42
        BYTE   W02
// 002   ----------------------------------------
DarkCloudsGather_3_2:
        BYTE   W01
        BYTE           VOL     43
        BYTE   W06
        BYTE                   44
        BYTE   W06
        BYTE                   45
        BYTE   W03
        BYTE                   46
        BYTE   W06
        BYTE                   47
        BYTE   W06
        BYTE                   48
        BYTE   W03
        BYTE                   49
        BYTE   W06
        BYTE                   50
        BYTE   W06
        BYTE                   51
        BYTE   W03
        BYTE                   52
        BYTE   W06
        BYTE                   53
        BYTE   W03
        BYTE                   54
        BYTE   W06
        BYTE                   55
        BYTE   W03
        BYTE                   56
        BYTE   W06
        BYTE           EOT     Cs3
        BYTE   W02
        BYTE           N02     Cs3   v047
        BYTE   W24
        BYTE   PEND
// 003   ----------------------------------------
        BYTE           TIE     Cs3   v082
        BYTE   W02
        BYTE           VOL     54
        BYTE   W01
        BYTE                   50
        BYTE   W01
        BYTE                   49
        BYTE   W01
        BYTE                   47
        BYTE   W01
        BYTE                   43
        BYTE   W01
        BYTE                   41
        BYTE   W01
        BYTE                   39
        BYTE   W01
        BYTE                   35
        BYTE   W09
        BYTE                   36
        BYTE   W03
        BYTE                   37
        BYTE   W03
        BYTE                   38
        BYTE   W06
        BYTE                   39
        BYTE   W06
        BYTE                   40
        BYTE   W03
        BYTE                   41
        BYTE   W06
        BYTE                   42
        BYTE   W03
        BYTE                   43
        BYTE   W06
        BYTE                   44
        BYTE   W06
        BYTE                   45
        BYTE   W03
        BYTE                   46
        BYTE   W06
        BYTE                   47
        BYTE   W06
        BYTE                   48
        BYTE   W03
        BYTE                   49
        BYTE   W06
        BYTE                   50
        BYTE   W06
        BYTE                   51
        BYTE   W03
        BYTE                   52
        BYTE   W03
// 004   ----------------------------------------
        BYTE   W03
        BYTE                   53
        BYTE   W03
        BYTE                   54
        BYTE   W06
        BYTE                   55
        BYTE   W03
        BYTE                   56
        BYTE   W07
        BYTE           EOT
        BYTE   W02
        BYTE           N02     Cs3   v097
        BYTE   W03
        BYTE                   Cs3   v047
        BYTE   W03
        BYTE                   Cs3   v088
        BYTE   W03
        BYTE                   Cs3   v047
        BYTE   W03
        BYTE                   Cs3   v088
        BYTE   W03
        BYTE                   Cs3   v047
        BYTE   W03
        BYTE                   Cs3   v097
        BYTE   W03
        BYTE                   Cs3   v047
        BYTE   W03
        BYTE           TIE     Cs3   v082
        BYTE   W02
        BYTE           VOL     54
        BYTE   W01
        BYTE                   53
        BYTE   W01
        BYTE                   49
        BYTE   W01
        BYTE                   47
        BYTE   W01
        BYTE                   45
        BYTE   W01
        BYTE                   41
        BYTE   W01
        BYTE                   39
        BYTE   W01
        BYTE                   37
        BYTE   W01
        BYTE                   35
        BYTE   W09
        BYTE                   36
        BYTE   W03
        BYTE                   37
        BYTE   W03
        BYTE                   38
        BYTE   W06
        BYTE                   39
        BYTE   W06
        BYTE                   40
        BYTE   W03
        BYTE                   41
        BYTE   W06
        BYTE                   42
        BYTE   W02
// 005   ----------------------------------------
        BYTE   PATT
         POIN2  DarkCloudsGather_3_2
// 006   ----------------------------------------
        BYTE           TIE     Cs3   v082
        BYTE   W03
        BYTE           VOL     54
        BYTE   W01
        BYTE                   50
        BYTE   W01
        BYTE                   49
        BYTE   W01
        BYTE                   47
        BYTE   W01
        BYTE                   43
        BYTE   W01
        BYTE                   41
        BYTE   W01
        BYTE                   39
        BYTE   W01
        BYTE                   35
        BYTE   W10
        BYTE                   36
        BYTE   W03
        BYTE                   37
        BYTE   W03
        BYTE                   38
        BYTE   W06
        BYTE                   39
        BYTE   W06
        BYTE                   40
        BYTE   W03
        BYTE                   41
        BYTE   W06
        BYTE                   42
        BYTE   W03
        BYTE                   43
        BYTE   W06
        BYTE                   44
        BYTE   W06
        BYTE                   45
        BYTE   W03
        BYTE                   46
        BYTE   W06
        BYTE                   47
        BYTE   W06
        BYTE                   48
        BYTE   W03
        BYTE                   49
        BYTE   W06
        BYTE                   50
        BYTE   W06
        BYTE                   51
        BYTE   W03
        BYTE                   52
        BYTE   W01
// 007   ----------------------------------------
        BYTE   W05
        BYTE                   53
        BYTE   W03
        BYTE                   54
        BYTE   W06
        BYTE                   55
        BYTE   W03
        BYTE                   56
        BYTE   W05
        BYTE           EOT
        BYTE   W02
        BYTE           N02     Cs3   v097
        BYTE   W03
        BYTE                   Cs3   v047
        BYTE   W03
        BYTE                   Cs3   v088
        BYTE   W03
        BYTE                   Cs3   v047
        BYTE   W03
        BYTE                   Cs3   v088
        BYTE   W03
        BYTE                   Cs3   v047
        BYTE   W03
        BYTE                   Cs3   v097
        BYTE   W03
        BYTE                   Cs3   v047
        BYTE   W03
        BYTE           N68     Cs3   v082   gtp2
        BYTE   W48
// 008   ----------------------------------------
        BYTE   W24
        BYTE           N11     Fn2   v087
        BYTE           N11     Cn3
        BYTE   W12
        BYTE                   Fs2   v082
        BYTE           N11     Cs3
        BYTE   W12
        BYTE           N02     Gn2   v090
        BYTE           N02     Dn3
        BYTE   W03
        BYTE                   Gn2   v047
        BYTE           N02     Dn3
        BYTE   W03
        BYTE                   Gs2   v090
        BYTE           N02     Ds3
        BYTE   W03
        BYTE                   Gs2   v047
        BYTE           N02     Ds3
        BYTE   W03
        BYTE           N05     An2   v087
        BYTE           N05     En3
        BYTE   W06
        BYTE           N02     As2   v082
        BYTE           N02     Fn3
        BYTE   W03
        BYTE                   As2   v047
        BYTE           N02     Fn3
        BYTE   W03
        BYTE           N05     As2   v090
        BYTE           N05     Fn3
        BYTE   W06
        BYTE           N02     Bn2
        BYTE           N02     Fs3
        BYTE   W03
        BYTE                   Bn2   v047
        BYTE           N02     Fs3
        BYTE   W03
        BYTE           N05     Bn2   v100
        BYTE           N05     Fs3
        BYTE   W06
        BYTE           N02     Cn3
        BYTE           N02     Gn3
        BYTE   W03
        BYTE                   Cn3   v047
        BYTE           N02     Gn3
        BYTE   W03
// 009   ----------------------------------------
        BYTE           TIE     Gs1   v116
        BYTE           N04     Gs2   v111
        BYTE   W06
        BYTE                   Gs2   v050
        BYTE   W06
        BYTE                   Gs2   v111
        BYTE   W06
        BYTE                   Gs2   v050
        BYTE   W06
        BYTE           N03     Gs2   v107
        BYTE   W06
        BYTE                   Gs2   v050
        BYTE   W06
        BYTE           N04     Gs2   v117
        BYTE   W06
        BYTE                   Gs2   v051
        BYTE   W06
        BYTE           N03     Gs2   v111
        BYTE   W06
        BYTE                   Gs2   v050
        BYTE   W06
        BYTE                   Gs2   v111
        BYTE   W06
        BYTE                   Gs2   v050
        BYTE   W06
        BYTE                   Gs2   v102
        BYTE   W06
        BYTE                   Gs2   v049
        BYTE   W06
        BYTE                   Gs2   v107
        BYTE   W06
        BYTE                   Gs2   v050
        BYTE   W06
// 010   ----------------------------------------
        BYTE                   Gs2   v111
        BYTE   W06
        BYTE                   Gs2   v050
        BYTE   W06
        BYTE           N04     Gs2   v111
        BYTE   W06
        BYTE                   Gs2   v050
        BYTE   W06
        BYTE                   Gs2   v111
        BYTE   W06
        BYTE                   Gs2   v050
        BYTE   W06
        BYTE                   Gs2   v111
        BYTE   W06
        BYTE                   Gs2   v050
        BYTE   W03
        BYTE           EOT     Gs1
        BYTE   W03
        BYTE           TIE     Gs1   v116
        BYTE           N03     Gs2   v107
        BYTE   W06
        BYTE                   Gs2   v050
        BYTE   W06
        BYTE           N04     Gs2   v111
        BYTE   W06
        BYTE                   Gs2   v050
        BYTE   W06
        BYTE           N03     Gs2   v107
        BYTE   W06
        BYTE                   Gs2   v050
        BYTE   W06
        BYTE           N04     Gs2   v111
        BYTE   W06
        BYTE                   Gs2   v050
        BYTE   W06
// 011   ----------------------------------------
        BYTE           N03     Gs2   v107
        BYTE   W06
        BYTE                   Gs2   v050
        BYTE   W06
        BYTE           N04     Gs2   v111
        BYTE   W06
        BYTE                   Gs2   v050
        BYTE   W06
        BYTE                   Gs2   v111
        BYTE   W06
        BYTE                   Gs2   v050
        BYTE   W06
        BYTE                   Gs2   v111
        BYTE   W06
        BYTE                   Gs2   v050
        BYTE   W06
        BYTE                   Gs2   v107
        BYTE   W06
        BYTE                   Gs2   v050
        BYTE   W06
        BYTE                   Gs2   v111
        BYTE   W06
        BYTE                   Gs2   v050
        BYTE   W06
        BYTE                   Gs2   v111
        BYTE   W06
        BYTE                   Gs2   v050
        BYTE   W06
        BYTE                   Gs2   v111
        BYTE   W06
        BYTE                   Gs2   v050
        BYTE   W03
        BYTE           EOT     Gs1
        BYTE   W03
// 012   ----------------------------------------
        BYTE           TIE     Gs1   v116
        BYTE           N04     Gs2   v117
        BYTE   W06
        BYTE                   Gs2   v051
        BYTE   W06
        BYTE                   Gs2   v117
        BYTE   W06
        BYTE                   Gs2   v051
        BYTE   W06
        BYTE                   Gs2   v111
        BYTE   W06
        BYTE                   Gs2   v050
        BYTE   W06
        BYTE                   Gs2   v117
        BYTE   W06
        BYTE                   Gs2   v051
        BYTE   W06
        BYTE                   Gs2   v107
        BYTE   W06
        BYTE                   Gs2   v050
        BYTE   W06
        BYTE                   Gs2   v107
        BYTE   W06
        BYTE                   Gs2   v050
        BYTE   W06
        BYTE                   Gs2   v107
        BYTE   W06
        BYTE                   Gs2   v050
        BYTE   W06
        BYTE           N03     Gs2   v094
        BYTE   W06
        BYTE                   Gs2   v049
        BYTE   W06
// 013   ----------------------------------------
        BYTE           N04     Gs2   v107
        BYTE   W06
        BYTE                   Gs2   v050
        BYTE   W06
        BYTE                   Gs2   v117
        BYTE   W06
        BYTE                   Gs2   v051
        BYTE   W06
        BYTE           N03     Gs2   v107
        BYTE   W06
        BYTE                   Gs2   v050
        BYTE   W06
        BYTE           N04     Gs2   v107
        BYTE   W06
        BYTE                   Gs2   v050
        BYTE   W03
        BYTE           EOT     Gs1
        BYTE   W03
        BYTE           TIE     Gs1   v116
        BYTE           N04     Gs2   v107
        BYTE   W06
        BYTE                   Gs2   v050
        BYTE   W06
        BYTE                   Gs2   v102
        BYTE   W06
        BYTE                   Gs2   v049
        BYTE   W06
        BYTE           N03     Gs2   v107
        BYTE   W06
        BYTE                   Gs2   v050
        BYTE   W06
        BYTE                   Gs2   v107
        BYTE   W06
        BYTE                   Gs2   v050
        BYTE   W06
// 014   ----------------------------------------
        BYTE                   Gs2   v111
        BYTE   W06
        BYTE                   Gs2   v050
        BYTE   W06
        BYTE                   Gs2   v107
        BYTE   W06
        BYTE                   Gs2   v050
        BYTE   W06
        BYTE           N04     Gs2   v107
        BYTE   W06
        BYTE                   Gs2   v050
        BYTE   W06
        BYTE                   Gs2   v107
        BYTE   W06
        BYTE                   Gs2   v050
        BYTE   W06
        BYTE                   Gs2   v111
        BYTE   W06
        BYTE                   Gs2   v050
        BYTE   W06
        BYTE                   Gs2   v117
        BYTE   W06
        BYTE                   Gs2   v051
        BYTE   W06
        BYTE                   Gs2   v117
        BYTE   W06
        BYTE                   Gs2   v051
        BYTE   W06
        BYTE           N05     Gs2   v111
        BYTE   W06
        BYTE                   Gs2   v050
        BYTE   W03
        BYTE           EOT     Gs1
        BYTE   W03
// 015   ----------------------------------------
        BYTE           N04     Cs2   v095
        BYTE           N04     Ds3
        BYTE   W06
        BYTE                   Cs2   v049
        BYTE           N04     Ds3
        BYTE   W06
        BYTE           N03     Cs2   v075
        BYTE           N03     Ds3
        BYTE   W06
        BYTE                   Cs2   v047
        BYTE           N03     Ds3
        BYTE   W06
        BYTE           N04     Cs2   v080
        BYTE           N04     Ds3
        BYTE   W06
        BYTE                   Cs2   v048
        BYTE           N04     Ds3
        BYTE   W06
        BYTE                   Cs2   v075
        BYTE           N04     Ds3
        BYTE   W06
        BYTE                   Cs2   v047
        BYTE           N04     Ds3
        BYTE   W06
        BYTE           N03     Cs2   v075
        BYTE           N03     Ds3
        BYTE   W06
        BYTE                   Cs2   v047
        BYTE           N03     Ds3
        BYTE   W06
        BYTE           N04     Cs2   v080
        BYTE           N04     Ds3
        BYTE   W06
        BYTE                   Cs2   v048
        BYTE           N04     Ds3
        BYTE   W06
        BYTE           N11     Cs2   v104
        BYTE           N11     Ds3
        BYTE   W12
        BYTE           N05     Cn2   v069
        BYTE           N05     En3
        BYTE   W06
        BYTE                   Cn2   v047
        BYTE           N05     En3
        BYTE   W06
// 016   ----------------------------------------
        BYTE           N11     Cn2   v113
        BYTE           N11     En3
        BYTE   W12
        BYTE           N05     Bn1   v083
        BYTE           N05     Fn3   v088
        BYTE   W06
        BYTE                   Bn1   v048
        BYTE           N05     Fn3
        BYTE   W06
        BYTE           N11     Bn1   v126
        BYTE           N11     Fn3   v127
        BYTE   W12
        BYTE           N05     As1   v091
        BYTE           N05     Fs3   v098
        BYTE   W06
        BYTE                   As1   v049
        BYTE           N05     Fs3
        BYTE   W06
        BYTE                   Cs2   v104
        BYTE           N04     Ds3   v095
        BYTE   W06
        BYTE           N05     Cs2   v050
        BYTE           N04     Ds3   v049
        BYTE   W06
        BYTE                   Cs2   v082
        BYTE           N03     Ds3
        BYTE   W06
        BYTE           N04     Cs2   v048
        BYTE           N03     Ds3
        BYTE   W06
        BYTE           N05     Cs2   v087
        BYTE           N04     Ds3
        BYTE   W06
        BYTE           N05     Cs2   v048
        BYTE           N04     Ds3
        BYTE   W06
        BYTE           N05     Cs2   v091
        BYTE           N04     Ds3   v082
        BYTE   W06
        BYTE           N05     Cs2   v049
        BYTE           N04     Ds3   v048
        BYTE   W06
// 017   ----------------------------------------
        BYTE           N05     Cs2   v091
        BYTE           N03     Ds3   v082
        BYTE   W06
        BYTE           N05     Cs2   v049
        BYTE           N03     Ds3   v048
        BYTE   W06
        BYTE           N05     Cs2   v091
        BYTE           N04     Ds3   v087
        BYTE   W06
        BYTE           N05     Cs2   v049
        BYTE           N04     Ds3   v048
        BYTE   W06
        BYTE           N11     Cs2   v110
        BYTE           N11     Ds3   v104
        BYTE   W12
        BYTE           N05     Cn2   v091
        BYTE           N05     En3   v069
        BYTE   W06
        BYTE                   Cn2   v049
        BYTE           N05     En3   v047
        BYTE   W06
        BYTE           N11     Cn2   v113
        BYTE           N11     En3
        BYTE   W12
        BYTE           N05     Bn1   v101
        BYTE           N05     Fn3   v092
        BYTE   W06
        BYTE                   Bn1   v049
        BYTE           N05     Fn3
        BYTE   W06
        BYTE           N11     Bn1   v117
        BYTE           N11     Fn3   v118
        BYTE   W12
        BYTE           N05     As1   v106
        BYTE           N05     Fs3   v097
        BYTE   W06
        BYTE                   As1   v050
        BYTE           N05     Fs3   v049
        BYTE   W06
// 018   ----------------------------------------
        BYTE           N68     Cs2   v095   gtp2
        BYTE                   Cs3
        BYTE   W03
        BYTE           VOL     50
        BYTE   W01
        BYTE                   47
        BYTE   W01
        BYTE                   43
        BYTE   W01
        BYTE                   36
        BYTE   W01
        BYTE                   33
        BYTE   W01
        BYTE                   30
        BYTE   W01
        BYTE                   24
        BYTE   W03
        BYTE                   25
        BYTE   W03
        BYTE                   26
        BYTE   W03
        BYTE                   27
        BYTE   W05
        BYTE                   28
        BYTE   W03
        BYTE                   29
        BYTE   W03
        BYTE                   30
        BYTE   W03
        BYTE                   31
        BYTE   W03
        BYTE                   32
        BYTE   W01
        BYTE                   33
        BYTE   W03
        BYTE                   34
        BYTE   W02
        BYTE                   35
        BYTE   W03
        BYTE                   36
        BYTE   W01
        BYTE                   37
        BYTE   W02
        BYTE                   38
        BYTE   W01
        BYTE                   39
        BYTE   W02
        BYTE                   40
        BYTE   W01
        BYTE                   41
        BYTE   W02
        BYTE                   42
        BYTE   W01
        BYTE                   43
        BYTE   W02
        BYTE                   44
        BYTE   W01
        BYTE                   45
        BYTE   W02
        BYTE                   47
        BYTE   W01
        BYTE                   48
        BYTE   W02
        BYTE                   50
        BYTE   W01
        BYTE                   51
        BYTE   W02
        BYTE                   53
        BYTE   W01
        BYTE                   54
        BYTE   W01
        BYTE                   56
        BYTE   W05
        BYTE           N68     Cs2   v095   gtp2
        BYTE                   Cs3
        BYTE   W12
        BYTE           VOL     55
        BYTE   W06
        BYTE                   54
        BYTE   W03
        BYTE                   53
        BYTE   W03
// 019   ----------------------------------------
        BYTE   W03
        BYTE                   52
        BYTE   W03
        BYTE                   51
        BYTE   W03
        BYTE                   50
        BYTE   W03
        BYTE                   49
        BYTE   W03
        BYTE                   48
        BYTE   W03
        BYTE                   47
        BYTE   W03
        BYTE                   46
        BYTE   W03
        BYTE                   45
        BYTE   W03
        BYTE                   43
        BYTE   W03
        BYTE                   42
        BYTE   W03
        BYTE                   40
        BYTE   W03
        BYTE                   39
        BYTE   W03
        BYTE                   37
        BYTE   W03
        BYTE                   35
        BYTE   W03
        BYTE                   32
        BYTE   W02
        BYTE                   31
        BYTE   W01
        BYTE           N68     Gs2   v095   gtp2
        BYTE   W08
        BYTE           VOL     32
        BYTE   W03
        BYTE                   33
        BYTE   W03
        BYTE                   34
        BYTE   W06
        BYTE                   35
        BYTE   W03
        BYTE                   36
        BYTE   W03
        BYTE                   37
        BYTE   W03
        BYTE                   38
        BYTE   W03
        BYTE                   39
        BYTE   W03
        BYTE                   40
        BYTE   W03
        BYTE                   41
        BYTE   W03
        BYTE                   42
        BYTE   W03
        BYTE                   43
        BYTE   W03
        BYTE                   45
        BYTE   W01
// 020   ----------------------------------------
        BYTE   W02
        BYTE                   46
        BYTE   W03
        BYTE                   47
        BYTE   W03
        BYTE                   49
        BYTE   W03
        BYTE                   51
        BYTE   W03
        BYTE                   53
        BYTE   W03
        BYTE                   55
        BYTE   W01
        BYTE                   56
        BYTE   W06
        BYTE           N56     Gs3   v110
        BYTE   W10
        BYTE           VOL     55
        BYTE   W05
        BYTE                   54
        BYTE   W04
        BYTE                   53
        BYTE   W03
        BYTE                   52
        BYTE   W03
        BYTE                   51
        BYTE   W03
        BYTE                   50
        BYTE   W03
        BYTE                   49
        BYTE   W03
        BYTE                   48
        BYTE   W02
        BYTE                   47
        BYTE   W03
        BYTE                   46
        BYTE   W01
        BYTE                   45
        BYTE   W02
        BYTE                   44
        BYTE   W01
        BYTE                   43
        BYTE   W03
        BYTE                   42
        BYTE   W02
        BYTE                   41
        BYTE   W01
        BYTE                   40
        BYTE   W02
        BYTE                   39
        BYTE   W01
        BYTE                   38
        BYTE   W02
        BYTE                   36
        BYTE   W01
        BYTE                   35
        BYTE   W02
        BYTE                   34
        BYTE   W01
        BYTE                   32
        BYTE   W02
        BYTE                   31
        BYTE   W01
        BYTE                   29
        BYTE   W02
        BYTE                   28
        BYTE   W01
        BYTE                   26
        BYTE   W02
        BYTE                   24
        BYTE   W01
        BYTE                   22
        BYTE   W02
        BYTE                   18
        BYTE   W03
// 021   ----------------------------------------
        BYTE                   54
        BYTE   GoTo
         POIN2  DarkCloudsGather_3_LOOP
        BYTE   FINE

//****************** Track 4 (Midi-Chn.4) ******************//

DarkCloudsGather_4:
        BYTE   KEYSH   DarkCloudsGather_key+0
// 000   ----------------------------------------
DarkCloudsGather_4_LOOP:
        BYTE   W08
        BYTE           VOICE   41
        BYTE           PAN     c_v+63
        BYTE           VOL     45
        BYTE           N03     Cs3   v084
        BYTE   W06
        BYTE                   Cs3   v049
        BYTE   W06
        BYTE                   Cs3   v077
        BYTE   W06
        BYTE                   Cs3   v079
        BYTE   W06
        BYTE                   Cs3   v086
        BYTE   W06
        BYTE                   Cs3   v048
        BYTE   W06
        BYTE                   Cs3   v081
        BYTE   W06
        BYTE                   Cs3   v050
        BYTE   W06
        BYTE                   Cs3   v088
        BYTE   W06
        BYTE                   Cs3   v048
        BYTE   W06
        BYTE                   Cs3   v081
        BYTE   W06
        BYTE                   Cs3   v050
        BYTE   W06
        BYTE           N11     Cs3   v073
        BYTE   W12
        BYTE           N03     Dn3   v074
        BYTE   W04
// 001   ----------------------------------------
        BYTE   W02
        BYTE                   Dn3   v051
        BYTE   W06
        BYTE           N11     Dn3   v073
        BYTE   W12
        BYTE           N03     Ds3   v075
        BYTE   W06
        BYTE                   Ds3   v051
        BYTE   W06
        BYTE           N11     Ds3   v077
        BYTE   W12
        BYTE           N03     En3   v082
        BYTE   W06
        BYTE                   En3   v049
        BYTE   W06
        BYTE                   Cs3   v085
        BYTE   W06
        BYTE                   Cs3   v049
        BYTE   W06
        BYTE                   Cs3   v085
        BYTE   W06
        BYTE                   Cs3   v075
        BYTE   W06
        BYTE                   Cs3
        BYTE   W06
        BYTE                   Cs3   v051
        BYTE   W06
        BYTE                   Cs3   v080
        BYTE   W04
// 002   ----------------------------------------
        BYTE   W02
        BYTE                   Cs3   v050
        BYTE   W06
        BYTE                   Cs3   v081
        BYTE   W06
        BYTE                   Cs3   v050
        BYTE   W06
        BYTE                   Cs3   v079
        BYTE   W06
        BYTE                   Cs3   v050
        BYTE   W06
        BYTE           N11     Cs3   v083
        BYTE   W12
        BYTE           N03     Dn3   v081
        BYTE   W06
        BYTE                   Dn3   v050
        BYTE   W06
        BYTE           N11     Dn3   v081
        BYTE   W12
        BYTE           N03     Ds3   v087
        BYTE   W06
        BYTE                   Ds3   v048
        BYTE   W06
        BYTE           N11     Ds3   v086
        BYTE   W12
        BYTE           N03     En3   v087
        BYTE   W04
// 003   ----------------------------------------
        BYTE   W02
        BYTE                   En3   v048
        BYTE   W92
        BYTE   W02
// 004   ----------------------------------------
        BYTE   W96
// 005   ----------------------------------------
        BYTE   W96
// 006   ----------------------------------------
        BYTE           N32     Cs3   v083   gtp3
        BYTE   W07
        BYTE           VOL     44
        BYTE   W01
        BYTE                   43
        BYTE   W02
        BYTE                   42
        BYTE   W01
        BYTE                   41
        BYTE   W02
        BYTE                   39
        BYTE   W01
        BYTE                   38
        BYTE   W02
        BYTE                   37
        BYTE   W01
        BYTE                   36
        BYTE   W02
        BYTE                   35
        BYTE   W01
        BYTE                   34
        BYTE   W02
        BYTE                   33
        BYTE   W01
        BYTE                   32
        BYTE   W02
        BYTE                   30
        BYTE   W11
        BYTE           N32     Cn3   v083   gtp3
        BYTE   W12
        BYTE           VOL     31
        BYTE   W11
        BYTE                   32
        BYTE   W13
        BYTE           N32     Bn2   v083   gtp3
        BYTE   W02
        BYTE           VOL     33
        BYTE   W15
        BYTE                   34
        BYTE   W07
// 007   ----------------------------------------
        BYTE   W05
        BYTE                   35
        BYTE   W07
        BYTE           N32     As2   v078   gtp3
        BYTE           VOL     36
        BYTE   W11
        BYTE                   37
        BYTE   W04
        BYTE                   38
        BYTE   W08
        BYTE                   39
        BYTE   W08
        BYTE                   40
        BYTE   W01
        BYTE                   39
        BYTE   W02
        BYTE                   38
        BYTE   W01
        BYTE                   36
        BYTE   W01
        BYTE           N32     Bn2   v081   gtp3
        BYTE   W01
        BYTE           VOL     35
        BYTE   W01
        BYTE                   34
        BYTE   W02
        BYTE                   32
        BYTE   W01
        BYTE                   31
        BYTE   W02
        BYTE                   29
        BYTE   W02
        BYTE                   27
        BYTE   W15
        BYTE                   28
        BYTE   W12
        BYTE           N32     An2   v092   gtp3
        BYTE   W06
        BYTE           VOL     29
        BYTE   W06
// 008   ----------------------------------------
        BYTE   W06
        BYTE                   30
        BYTE   W12
        BYTE                   31
        BYTE   W06
        BYTE                   32
        BYTE   W09
        BYTE                   33
        BYTE   W06
        BYTE                   34
        BYTE   W06
        BYTE                   35
        BYTE   W06
        BYTE                   36
        BYTE   W06
        BYTE                   37
        BYTE   W03
        BYTE                   38
        BYTE   W03
        BYTE                   39
        BYTE   W03
        BYTE                   40
        BYTE   W03
        BYTE                   41
        BYTE   W03
        BYTE                   43
        BYTE   W03
        BYTE                   44
        BYTE   W02
        BYTE                   45
        BYTE   W11
        BYTE           VOICE   110
        BYTE           PAN     c_v-19
        BYTE           VOL     65
        BYTE   W08
// 009   ----------------------------------------
        BYTE   W12
        BYTE           N05     Cn4   v111
        BYTE   W06
        BYTE                   Cn4   v049
        BYTE   W06
        BYTE                   Cn4   v076
        BYTE   W06
        BYTE                   Cn4   v045
        BYTE   W06
        BYTE                   Cn4   v115
        BYTE   W06
        BYTE           N17     Cn4   v050
        BYTE   W18
        BYTE           N05     Cn4   v084
        BYTE   W06
        BYTE                   Cn4   v046
        BYTE   W06
        BYTE                   Cn4   v094
        BYTE   W06
        BYTE                   Cn4   v107
        BYTE   W06
        BYTE                   Cn4   v049
        BYTE   W06
        BYTE                   Cn4   v091
        BYTE   W06
// 010   ----------------------------------------
        BYTE                   Cn4   v109
        BYTE   W06
        BYTE                   Cn4   v049
        BYTE   W06
        BYTE                   Cn4   v112
        BYTE   W06
        BYTE           N17     Cn4   v049
        BYTE   W18
        BYTE           N05     Cn4   v100
        BYTE   W06
        BYTE                   Cn4
        BYTE   W18
        BYTE                   Cs4   v098
        BYTE   W06
        BYTE                   Cs4   v048
        BYTE   W06
        BYTE                   Cs4   v090
        BYTE   W06
        BYTE                   Cs4   v047
        BYTE   W06
        BYTE                   Cs4   v115
        BYTE   W06
        BYTE           N17     Cs4   v050
        BYTE   W06
// 011   ----------------------------------------
        BYTE   W12
        BYTE           N05     Cs4   v084
        BYTE   W06
        BYTE                   Cs4   v046
        BYTE   W06
        BYTE                   Cs4   v094
        BYTE   W06
        BYTE                   Cs4   v107
        BYTE   W06
        BYTE                   Cs4   v049
        BYTE   W06
        BYTE                   Cs4   v091
        BYTE   W06
        BYTE                   Cs4   v109
        BYTE   W06
        BYTE                   Cs4   v049
        BYTE   W06
        BYTE                   Cs4   v107
        BYTE   W06
        BYTE           N17     Cs4   v049
        BYTE   W18
        BYTE           N05     Cs4   v091
        BYTE   W06
        BYTE                   Cs4   v047
        BYTE   W06
// 012   ----------------------------------------
        BYTE   W12
        BYTE                   Cn4   v096
        BYTE   W06
        BYTE                   Cn4   v047
        BYTE   W06
        BYTE                   Cn4   v106
        BYTE   W06
        BYTE                   Cn4   v049
        BYTE   W06
        BYTE                   Cn4   v117
        BYTE   W06
        BYTE           N17     Cn4   v050
        BYTE   W18
        BYTE           N05     Cn4   v102
        BYTE   W06
        BYTE                   Cn4   v048
        BYTE   W06
        BYTE                   Cn4   v107
        BYTE   W06
        BYTE                   Cn4
        BYTE   W06
        BYTE                   Cn4   v049
        BYTE   W06
        BYTE                   Cn4   v101
        BYTE   W06
// 013   ----------------------------------------
        BYTE                   Cn4   v114
        BYTE   W06
        BYTE                   Cn4   v050
        BYTE   W06
        BYTE                   Cn4   v112
        BYTE   W06
        BYTE                   Cn4   v049
        BYTE   W06
        BYTE                   Cn4   v100
        BYTE   W06
        BYTE                   Cn4
        BYTE   W06
        BYTE                   Cn4   v097
        BYTE   W06
        BYTE                   Cn4
        BYTE   W06
        BYTE                   Cs4   v108
        BYTE   W06
        BYTE                   Cs4   v049
        BYTE   W06
        BYTE                   Cs4   v095
        BYTE   W06
        BYTE                   Cs4   v047
        BYTE   W06
        BYTE                   Cs4   v095
        BYTE   W06
        BYTE                   Cs4   v047
        BYTE   W06
        BYTE                   Cs4   v108
        BYTE   W06
        BYTE           N17     Cs4   v049
        BYTE   W06
// 014   ----------------------------------------
        BYTE   W12
        BYTE           N05     Cs4   v094
        BYTE   W06
        BYTE                   Cs4   v047
        BYTE   W06
        BYTE                   Cs4   v104
        BYTE   W06
        BYTE           N17     Cs4   v048
        BYTE   W18
        BYTE           N05     Cs4   v091
        BYTE   W06
        BYTE                   Cs4   v047
        BYTE   W06
        BYTE                   Cs4   v095
        BYTE   W06
        BYTE           N17     Cs4   v047
        BYTE   W18
        BYTE           N05     Cs4   v095
        BYTE   W06
        BYTE                   Cs4   v047
        BYTE   W06
// 015   ----------------------------------------
        BYTE   W96
// 016   ----------------------------------------
        BYTE   W48
        BYTE           VOICE   41
        BYTE           VOL     37
        BYTE           N60     Cs2   v110   gtp2
        BYTE   W09
        BYTE           VOL     38
        BYTE   W06
        BYTE                   39
        BYTE   W09
        BYTE                   40
        BYTE   W03
        BYTE                   41
        BYTE   W06
        BYTE                   42
        BYTE   W03
        BYTE                   43
        BYTE   W03
        BYTE                   44
        BYTE   W03
        BYTE                   45
        BYTE   W03
        BYTE                   46
        BYTE   W03
// 017   ----------------------------------------
        BYTE                   47
        BYTE   W03
        BYTE                   49
        BYTE   W03
        BYTE                   51
        BYTE   W03
        BYTE                   54
        BYTE   W02
        BYTE                   56
        BYTE   W13
        BYTE           N11     Cs2   v100
        BYTE   W12
        BYTE                   Gn4   v094
        BYTE   W12
        BYTE                   Gn2   v104
        BYTE   W12
        BYTE                   Gs4   v084
        BYTE   W12
        BYTE                   Gs2   v100
        BYTE   W12
        BYTE                   Cs5   v094
        BYTE   W12
// 018   ----------------------------------------
        BYTE           N68     Cn3   v127   gtp2
        BYTE   W05
        BYTE           VOL     53
        BYTE   W01
        BYTE                   47
        BYTE   W01
        BYTE                   43
        BYTE   W01
        BYTE                   39
        BYTE   W01
        BYTE                   35
        BYTE   W09
        BYTE                   36
        BYTE   W06
        BYTE                   37
        BYTE   W03
        BYTE                   38
        BYTE   W06
        BYTE                   39
        BYTE   W03
        BYTE                   40
        BYTE   W06
        BYTE                   41
        BYTE   W03
        BYTE                   43
        BYTE   W06
        BYTE                   45
        BYTE   W03
        BYTE                   46
        BYTE   W03
        BYTE                   47
        BYTE   W03
        BYTE                   49
        BYTE   W03
        BYTE                   50
        BYTE   W03
        BYTE                   53
        BYTE   W03
        BYTE                   55
        BYTE   W01
        BYTE                   56
        BYTE   W02
        BYTE           N32     Bn2   v117   gtp2
        BYTE   W15
        BYTE           VOL     55
        BYTE   W03
        BYTE                   54
        BYTE   W06
// 019   ----------------------------------------
        BYTE   W03
        BYTE                   53
        BYTE   W03
        BYTE                   52
        BYTE   W03
        BYTE                   51
        BYTE   W03
        BYTE                   50
        BYTE           N32     As2   v108   gtp2
        BYTE   W03
        BYTE           VOL     49
        BYTE   W03
        BYTE                   48
        BYTE   W03
        BYTE                   47
        BYTE   W03
        BYTE                   46
        BYTE   W03
        BYTE                   44
        BYTE   W03
        BYTE                   43
        BYTE   W03
        BYTE                   40
        BYTE   W03
        BYTE                   38
        BYTE   W03
        BYTE                   35
        BYTE   W03
        BYTE                   32
        BYTE   W02
        BYTE                   29
        BYTE   W04
        BYTE           TIE     Gs2   v110
        BYTE   W02
        BYTE           VOL     30
        BYTE   W06
        BYTE                   31
        BYTE   W06
        BYTE                   32
        BYTE   W06
        BYTE                   33
        BYTE   W03
        BYTE                   34
        BYTE   W03
        BYTE                   35
        BYTE   W06
        BYTE                   36
        BYTE   W03
        BYTE                   38
        BYTE   W03
        BYTE                   39
        BYTE   W03
        BYTE                   40
        BYTE   W03
        BYTE                   41
        BYTE   W03
        BYTE                   43
        BYTE   W01
// 020   ----------------------------------------
        BYTE   W02
        BYTE                   44
        BYTE   W03
        BYTE                   46
        BYTE   W03
        BYTE                   47
        BYTE   W03
        BYTE                   50
        BYTE   W03
        BYTE                   52
        BYTE   W03
        BYTE                   55
        BYTE   W01
        BYTE                   56
        BYTE   W16
        BYTE                   55
        BYTE   W03
        BYTE                   54
        BYTE   W05
        BYTE                   53
        BYTE   W03
        BYTE                   52
        BYTE   W03
        BYTE                   51
        BYTE   W01
        BYTE                   50
        BYTE   W03
        BYTE                   49
        BYTE   W03
        BYTE                   48
        BYTE   W02
        BYTE                   47
        BYTE   W03
        BYTE                   46
        BYTE   W01
        BYTE                   45
        BYTE   W02
        BYTE                   44
        BYTE   W01
        BYTE                   43
        BYTE   W02
        BYTE                   42
        BYTE   W01
        BYTE                   41
        BYTE   W02
        BYTE                   40
        BYTE   W01
        BYTE                   39
        BYTE   W02
        BYTE                   38
        BYTE   W01
        BYTE                   36
        BYTE   W02
        BYTE                   35
        BYTE   W01
        BYTE                   34
        BYTE   W01
        BYTE           EOT
        BYTE   W01
        BYTE           VOL     32
        BYTE   W01
        BYTE                   30
        BYTE   W02
        BYTE                   28
        BYTE   W01
        BYTE                   27
        BYTE   W02
        BYTE                   24
        BYTE   W01
        BYTE                   22
        BYTE   W11
// 021   ----------------------------------------
        BYTE           VOICE   0
        BYTE           VOL     100
        BYTE           PAN     c_v+0
        BYTE   GoTo
         POIN2  DarkCloudsGather_4_LOOP
        BYTE   FINE

//****************** Track 5 (Midi-Chn.5) ******************//

DarkCloudsGather_5:
        BYTE   KEYSH   DarkCloudsGather_key+0
// 000   ----------------------------------------
DarkCloudsGather_5_LOOP:
        BYTE           VOICE   28
        BYTE           PAN     c_v+22
        BYTE           VOL     56
        BYTE           N03     Gs1   v078
        BYTE   W03
        BYTE                   Gs1   v056
        BYTE   W03
        BYTE                   Cs2   v089
        BYTE   W03
        BYTE                   Cs2   v067
        BYTE   W03
        BYTE                   Ds2   v082
        BYTE   W03
        BYTE                   Ds2   v060
        BYTE   W03
        BYTE                   Gn2   v078
        BYTE   W03
        BYTE                   Gn2   v056
        BYTE   W03
        BYTE                   Gs2   v078
        BYTE   W03
        BYTE                   Gs2   v056
        BYTE   W03
        BYTE                   Cs3   v078
        BYTE   W03
        BYTE                   Cs3   v056
        BYTE   W03
        BYTE                   Gs1   v078
        BYTE   W03
        BYTE                   Gs1   v056
        BYTE   W03
        BYTE                   Cs2   v089
        BYTE   W03
        BYTE                   Cs2   v067
        BYTE   W03
        BYTE                   Ds2   v082
        BYTE   W03
        BYTE                   Ds2   v060
        BYTE   W03
        BYTE                   Gn2   v078
        BYTE   W03
        BYTE                   Gn2   v056
        BYTE   W03
        BYTE                   Gs2   v078
        BYTE   W03
        BYTE                   Gs2   v056
        BYTE   W03
        BYTE                   Cs3   v078
        BYTE   W03
        BYTE                   Cs3   v056
        BYTE   W03
        BYTE                   Gs1   v078
        BYTE   W03
        BYTE                   Gs1   v056
        BYTE   W03
        BYTE                   Cs2   v089
        BYTE   W03
        BYTE                   Cs2   v067
        BYTE   W03
        BYTE                   Ds2   v082
        BYTE   W03
        BYTE                   Ds2   v060
        BYTE   W03
        BYTE                   Gn2   v078
        BYTE   W03
        BYTE                   Gn2   v056
        BYTE   W03
// 001   ----------------------------------------
        BYTE                   Gs2   v078
        BYTE   W03
        BYTE                   Gs2   v056
        BYTE   W03
        BYTE                   Cs3   v078
        BYTE   W03
        BYTE                   Cs3   v056
        BYTE   W03
        BYTE                   Gs1   v078
        BYTE   W03
        BYTE                   Gs1   v056
        BYTE   W03
        BYTE                   Cs2   v089
        BYTE   W03
        BYTE                   Cs2   v067
        BYTE   W03
        BYTE                   Ds2   v082
        BYTE   W03
        BYTE                   Ds2   v060
        BYTE   W03
        BYTE                   Gn2   v078
        BYTE   W03
        BYTE                   Gn2   v056
        BYTE   W03
        BYTE                   Gs2   v078
        BYTE   W03
        BYTE                   Gs2   v056
        BYTE   W03
        BYTE                   Cs3   v078
        BYTE   W03
        BYTE                   Cs3   v056
        BYTE   W03
        BYTE                   Gs1   v078
        BYTE   W03
        BYTE                   Gs1   v056
        BYTE   W03
        BYTE                   Cs2   v089
        BYTE   W03
        BYTE                   Cs2   v067
        BYTE   W03
        BYTE                   Ds2   v082
        BYTE   W03
        BYTE                   Ds2   v060
        BYTE   W03
        BYTE                   Gn2   v078
        BYTE   W03
        BYTE                   Gn2   v056
        BYTE   W03
        BYTE                   Gs2   v078
        BYTE   W03
        BYTE                   Gs2   v056
        BYTE   W03
        BYTE                   Cs3   v078
        BYTE   W03
        BYTE                   Cs3   v056
        BYTE   W03
        BYTE                   Gs1   v078
        BYTE   W03
        BYTE                   Gs1   v056
        BYTE   W03
        BYTE                   Cs2   v089
        BYTE   W03
        BYTE                   Cs2   v067
        BYTE   W03
// 002   ----------------------------------------
        BYTE                   Ds2   v082
        BYTE   W03
        BYTE                   Ds2   v060
        BYTE   W03
        BYTE                   Gn2   v078
        BYTE   W03
        BYTE                   Gn2   v056
        BYTE   W03
        BYTE                   Gs2   v078
        BYTE   W03
        BYTE                   Gs2   v056
        BYTE   W03
        BYTE                   Cs3   v078
        BYTE   W03
        BYTE                   Cs3   v056
        BYTE   W03
        BYTE                   Gs1   v078
        BYTE   W03
        BYTE                   Gs1   v056
        BYTE   W03
        BYTE                   Cs2   v089
        BYTE   W03
        BYTE                   Cs2   v067
        BYTE   W03
        BYTE                   Ds2   v082
        BYTE   W03
        BYTE                   Ds2   v060
        BYTE   W03
        BYTE                   Gn2   v078
        BYTE   W03
        BYTE                   Gn2   v056
        BYTE   W03
        BYTE                   Gs2   v078
        BYTE   W03
        BYTE                   Gs2   v056
        BYTE   W03
        BYTE                   Cs3   v078
        BYTE   W03
        BYTE                   Cs3   v056
        BYTE   W03
        BYTE                   Gs2   v078
        BYTE   W03
        BYTE                   Gs2   v056
        BYTE   W03
        BYTE                   Cs3   v089
        BYTE   W03
        BYTE                   Cs3   v067
        BYTE   W03
        BYTE                   Ds3   v082
        BYTE   W03
        BYTE                   Ds3   v060
        BYTE   W03
        BYTE                   Gn3   v056
        BYTE   W03
        BYTE                   Gn3   v034
        BYTE   W03
        BYTE                   Gs3   v056
        BYTE   W03
        BYTE                   Gs3   v034
        BYTE   W03
        BYTE                   Cn4   v056
        BYTE   W06
// 003   ----------------------------------------
        BYTE           N07     Cs4   v044
        BYTE   W06
        BYTE                   Gs3   v035
        BYTE   W06
        BYTE                   Gn3   v041
        BYTE   W06
        BYTE                   Ds3   v048
        BYTE   W06
        BYTE                   Cs3   v045
        BYTE   W06
        BYTE                   Gs2   v046
        BYTE   W06
        BYTE                   Cs4   v048
        BYTE   W06
        BYTE                   Gs3   v038
        BYTE   W06
        BYTE                   Gn3   v043
        BYTE   W06
        BYTE                   Ds3   v053
        BYTE   W06
        BYTE                   Cs3   v054
        BYTE   W06
        BYTE                   Gs2   v051
        BYTE   W06
        BYTE                   Cs4
        BYTE   W06
        BYTE                   Gs3   v040
        BYTE   W06
        BYTE                   Gn3   v048
        BYTE   W06
        BYTE                   Ds3   v050
        BYTE   W06
// 004   ----------------------------------------
        BYTE                   Cs3   v058
        BYTE   W06
        BYTE                   Gs2
        BYTE   W06
        BYTE                   Cs4   v054
        BYTE   W06
        BYTE                   Gs3   v046
        BYTE   W06
        BYTE                   Gn3   v053
        BYTE   W06
        BYTE                   Ds3   v056
        BYTE   W06
        BYTE                   Cs3   v058
        BYTE   W06
        BYTE                   Gs2
        BYTE   W06
        BYTE                   Cs4
        BYTE   W06
        BYTE                   Gs3   v047
        BYTE   W06
        BYTE                   Gn3   v050
        BYTE   W06
        BYTE                   Ds3   v063
        BYTE   W06
        BYTE                   Cs3   v062
        BYTE   W06
        BYTE                   Gs2   v064
        BYTE   W06
        BYTE                   Cs4   v060
        BYTE   W06
        BYTE                   Gs3   v050
        BYTE   W06
// 005   ----------------------------------------
        BYTE                   Gn3   v056
        BYTE   W06
        BYTE                   Ds3   v060
        BYTE   W06
        BYTE                   Cs3   v061
        BYTE   W06
        BYTE                   Gs2   v067
        BYTE   W06
        BYTE                   Cs4   v065
        BYTE   W06
        BYTE                   Gs3   v051
        BYTE   W06
        BYTE                   Gn3   v058
        BYTE   W06
        BYTE                   Ds3   v065
        BYTE   W06
        BYTE                   Cs3   v067
        BYTE   W06
        BYTE                   Gs2   v066
        BYTE   W06
        BYTE                   Gn2   v077
        BYTE   W36
// 006   ----------------------------------------
        BYTE           VOL     26
        BYTE           N05     Cs2   v097
        BYTE   W06
        BYTE           VOL     27
        BYTE           N05     Cs2   v053
        BYTE   W06
        BYTE           VOL     28
        BYTE           N05     Cn2   v095
        BYTE   W04
        BYTE           VOL     29
        BYTE   W02
        BYTE           N05     Cn2   v053
        BYTE   W01
        BYTE           VOL     30
        BYTE   W03
        BYTE                   31
        BYTE   W02
        BYTE           N05     Cs2   v091
        BYTE   W03
        BYTE           VOL     32
        BYTE   W03
        BYTE                   33
        BYTE           N05     Cs2   v052
        BYTE   W03
        BYTE           VOL     34
        BYTE   W03
        BYTE                   35
        BYTE           N05     Dn2   v087
        BYTE   W03
        BYTE           VOL     36
        BYTE   W01
        BYTE                   37
        BYTE   W02
        BYTE           N05     Dn2   v051
        BYTE   W01
        BYTE           VOL     38
        BYTE   W02
        BYTE                   39
        BYTE   W03
        BYTE                   40
        BYTE           N05     Cs2   v085
        BYTE   W01
        BYTE           VOL     41
        BYTE   W02
        BYTE                   42
        BYTE   W01
        BYTE                   43
        BYTE   W02
        BYTE                   44
        BYTE           N05     Cs2   v051
        BYTE   W01
        BYTE           VOL     45
        BYTE   W02
        BYTE                   47
        BYTE   W03
        BYTE                   49
        BYTE           N05     Dn2   v089
        BYTE   W01
        BYTE           VOL     50
        BYTE   W02
        BYTE                   51
        BYTE   W01
        BYTE                   53
        BYTE   W02
        BYTE                   54
        BYTE           N05     Dn2   v052
        BYTE   W01
        BYTE           VOL     56
        BYTE   W05
        BYTE           N05     Ds2   v081
        BYTE   W06
        BYTE                   Ds2   v050
        BYTE   W06
        BYTE                   En2   v090
        BYTE   W03
        BYTE           VOL     55
        BYTE   W03
        BYTE           N05     En2   v052
        BYTE   W02
        BYTE           VOL     54
        BYTE   W04
// 007   ----------------------------------------
        BYTE           N05     Fn2   v085
        BYTE           VOL     53
        BYTE   W05
        BYTE                   52
        BYTE   W01
        BYTE           N05     Fn2   v051
        BYTE           VOL     51
        BYTE   W03
        BYTE                   50
        BYTE   W03
        BYTE           N05     En2   v090
        BYTE   W02
        BYTE           VOL     49
        BYTE   W01
        BYTE                   48
        BYTE   W03
        BYTE           N05     En2   v052
        BYTE           VOL     47
        BYTE   W03
        BYTE                   46
        BYTE   W02
        BYTE                   45
        BYTE   W01
        BYTE           N05     Ds2   v084
        BYTE           VOL     44
        BYTE   W02
        BYTE                   43
        BYTE   W03
        BYTE                   41
        BYTE   W01
        BYTE           N05     Ds2   v051
        BYTE           VOL     40
        BYTE   W02
        BYTE                   39
        BYTE   W01
        BYTE                   38
        BYTE   W02
        BYTE                   37
        BYTE   W01
        BYTE           N05     Cn2   v095
        BYTE           VOL     35
        BYTE   W02
        BYTE                   34
        BYTE   W01
        BYTE                   33
        BYTE   W02
        BYTE                   31
        BYTE   W01
        BYTE           N05     Cn2   v053
        BYTE           VOL     30
        BYTE   W02
        BYTE                   27
        BYTE   W04
        BYTE           N05     Cs2   v091
        BYTE   W06
        BYTE                   Cs2   v052
        BYTE   W06
        BYTE                   Cn2   v084
        BYTE   W02
        BYTE           VOL     28
        BYTE   W04
        BYTE           N05     Cn2   v051
        BYTE   W05
        BYTE           VOL     29
        BYTE   W01
        BYTE           N05     Cs2   v088
        BYTE   W06
        BYTE                   Cs2   v051
        BYTE   W02
        BYTE           VOL     30
        BYTE   W04
        BYTE           N05     Dn2   v085
        BYTE   W02
        BYTE           VOL     31
        BYTE   W04
        BYTE           N05     Dn2   v051
        BYTE   W06
// 008   ----------------------------------------
        BYTE                   Ds2   v100
        BYTE   W02
        BYTE           VOL     32
        BYTE   W04
        BYTE           N05     Ds2   v054
        BYTE   W02
        BYTE           VOL     33
        BYTE   W04
        BYTE           N05     En2   v100
        BYTE   W02
        BYTE           VOL     34
        BYTE   W04
        BYTE           N05     En2   v054
        BYTE   W02
        BYTE           VOL     35
        BYTE   W04
        BYTE           N05     Fn2   v103
        BYTE   W02
        BYTE           VOL     36
        BYTE   W04
        BYTE           N05     Fn2   v055
        BYTE   W02
        BYTE           VOL     37
        BYTE   W03
        BYTE                   38
        BYTE   W01
        BYTE           N05     Fs2   v085
        BYTE   W05
        BYTE           VOL     39
        BYTE   W01
        BYTE           N05     Fs2   v051
        BYTE   W05
        BYTE           VOL     40
        BYTE   W01
        BYTE           N02     Gn2   v093
        BYTE   W02
        BYTE           VOL     41
        BYTE   W01
        BYTE           N02     Gn2   v051
        BYTE   W02
        BYTE           VOL     42
        BYTE   W01
        BYTE           N02     Gs2   v093
        BYTE   W02
        BYTE           VOL     43
        BYTE   W01
        BYTE           N02     Gs2   v051
        BYTE   W03
        BYTE           N05     An2   v090
        BYTE   W02
        BYTE           VOL     44
        BYTE   W03
        BYTE                   45
        BYTE   W01
        BYTE           N02     As2
        BYTE   W02
        BYTE           VOL     47
        BYTE   W01
        BYTE           N02     As2   v051
        BYTE   W03
        BYTE           N05     As2   v101
        BYTE   W02
        BYTE           VOL     49
        BYTE   W03
        BYTE                   50
        BYTE   W01
        BYTE           N02     Bn2
        BYTE   W02
        BYTE           VOL     51
        BYTE   W01
        BYTE           N02     Bn2   v051
        BYTE   W02
        BYTE           VOL     52
        BYTE   W01
        BYTE           N05     Bn2   v117
        BYTE   W02
        BYTE           VOL     54
        BYTE   W03
        BYTE                   55
        BYTE   W01
        BYTE           N02     Cn3
        BYTE   W01
        BYTE           VOL     56
        BYTE   W02
        BYTE           N02     Cn3   v051
        BYTE   W03
// 009   ----------------------------------------
        BYTE           VOICE   66
        BYTE           TIE     Cs4   v101
        BYTE   W08
        BYTE           VOL     55
        BYTE   W01
        BYTE                   53
        BYTE   W01
        BYTE                   51
        BYTE   W01
        BYTE                   48
        BYTE   W01
        BYTE                   46
        BYTE   W01
        BYTE                   44
        BYTE   W01
        BYTE                   43
        BYTE   W23
        BYTE                   44
        BYTE   W12
        BYTE                   45
        BYTE   W12
        BYTE                   46
        BYTE   W07
        BYTE                   47
        BYTE   W16
        BYTE                   48
        BYTE   W08
        BYTE                   49
        BYTE   W04
// 010   ----------------------------------------
        BYTE   W04
        BYTE                   50
        BYTE   W08
        BYTE                   51
        BYTE   W08
        BYTE                   52
        BYTE   W03
        BYTE                   53
        BYTE   W04
        BYTE                   54
        BYTE   W08
        BYTE                   55
        BYTE   W04
        BYTE                   56
        BYTE   W08
        BYTE           EOT
        BYTE   W01
        BYTE           TIE     Cn4   v087
        BYTE   W24
        BYTE           VOL     55
        BYTE   W15
        BYTE                   54
        BYTE   W09
// 011   ----------------------------------------
        BYTE   W06
        BYTE                   53
        BYTE   W11
        BYTE                   52
        BYTE   W07
        BYTE                   51
        BYTE   W08
        BYTE                   50
        BYTE   W11
        BYTE                   49
        BYTE   W07
        BYTE                   48
        BYTE   W08
        BYTE                   47
        BYTE   W07
        BYTE                   46
        BYTE   W04
        BYTE                   45
        BYTE   W07
        BYTE                   44
        BYTE   W04
        BYTE                   43
        BYTE   W07
        BYTE                   42
        BYTE   W01
        BYTE                   41
        BYTE   W06
        BYTE           EOT
        BYTE   W02
// 012   ----------------------------------------
        BYTE           VOL     42
        BYTE           TIE     Cs4   v101
        BYTE   W12
        BYTE           VOL     43
        BYTE   W16
        BYTE                   44
        BYTE   W13
        BYTE                   45
        BYTE   W08
        BYTE                   46
        BYTE   W08
        BYTE                   47
        BYTE   W17
        BYTE                   48
        BYTE   W08
        BYTE                   49
        BYTE   W04
        BYTE                   50
        BYTE   W10
// 013   ----------------------------------------
        BYTE   W02
        BYTE                   51
        BYTE   W08
        BYTE                   52
        BYTE   W04
        BYTE                   53
        BYTE   W09
        BYTE                   54
        BYTE   W08
        BYTE                   55
        BYTE   W04
        BYTE                   56
        BYTE   W12
        BYTE           EOT
        BYTE   W01
        BYTE           TIE     Cn4
        BYTE   W07
        BYTE           VOL     55
        BYTE   W01
        BYTE                   54
        BYTE   W01
        BYTE                   53
        BYTE   W01
        BYTE                   50
        BYTE   W01
        BYTE                   49
        BYTE   W01
        BYTE                   48
        BYTE   W01
        BYTE                   44
        BYTE   W01
        BYTE                   42
        BYTE   W01
        BYTE                   39
        BYTE   W01
        BYTE                   32
        BYTE   W06
        BYTE                   33
        BYTE   W12
        BYTE                   34
        BYTE   W06
        BYTE                   35
        BYTE   W08
// 014   ----------------------------------------
        BYTE   W04
        BYTE                   36
        BYTE   W09
        BYTE                   37
        BYTE   W06
        BYTE                   38
        BYTE   W03
        BYTE                   39
        BYTE   W09
        BYTE                   40
        BYTE   W06
        BYTE                   41
        BYTE   W03
        BYTE                   42
        BYTE   W03
        BYTE                   43
        BYTE   W06
        BYTE                   44
        BYTE   W03
        BYTE                   45
        BYTE   W03
        BYTE                   46
        BYTE   W03
        BYTE                   47
        BYTE   W06
        BYTE                   48
        BYTE   W03
        BYTE                   50
        BYTE   W06
        BYTE                   52
        BYTE   W03
        BYTE                   53
        BYTE   W03
        BYTE                   55
        BYTE   W03
        BYTE                   56
        BYTE   W13
        BYTE           EOT
        BYTE   W01
// 015   ----------------------------------------
        BYTE           PAN     c_v-29
        BYTE           VOL     34
        BYTE   W24
        BYTE   W03
        BYTE                   35
        BYTE   W03
        BYTE           VOICE   105
        BYTE           TIE     An3   v064
        BYTE   W01
        BYTE           PAN     c_v-28
        BYTE   W02
        BYTE                   c_v-27
        BYTE   W01
        BYTE                   c_v-26
        BYTE   W02
        BYTE           VOL     36
        BYTE           PAN     c_v-25
        BYTE   W01
        BYTE                   c_v-24
        BYTE   W02
        BYTE           VOL     37
        BYTE           PAN     c_v-23
        BYTE   W02
        BYTE                   c_v-22
        BYTE   W01
        BYTE                   c_v-21
        BYTE   W02
        BYTE                   c_v-20
        BYTE   W01
        BYTE           VOL     38
        BYTE           PAN     c_v-19
        BYTE   W02
        BYTE                   c_v-18
        BYTE   W01
        BYTE           VOL     39
        BYTE           PAN     c_v-17
        BYTE   W02
        BYTE                   c_v-16
        BYTE   W01
        BYTE                   c_v-15
        BYTE   W02
        BYTE                   c_v-14
        BYTE   W01
        BYTE           VOL     40
        BYTE           PAN     c_v-13
        BYTE   W02
        BYTE                   c_v-12
        BYTE   W01
        BYTE           VOL     41
        BYTE           PAN     c_v-11
        BYTE   W02
        BYTE                   c_v-10
        BYTE   W01
        BYTE           VOL     42
        BYTE           PAN     c_v-9
        BYTE   W02
        BYTE                   c_v-8
        BYTE   W01
        BYTE           VOL     43
        BYTE           PAN     c_v-7
        BYTE   W02
        BYTE                   c_v-6
        BYTE   W01
        BYTE                   c_v-5
        BYTE   W02
        BYTE                   c_v-4
        BYTE   W01
        BYTE           VOL     44
        BYTE           PAN     c_v-3
        BYTE   W02
        BYTE                   c_v-2
        BYTE   W01
        BYTE           VOL     45
        BYTE   W01
        BYTE           PAN     c_v-1
        BYTE   W01
        BYTE                   c_v+0
        BYTE   W01
        BYTE           VOL     46
        BYTE   W01
        BYTE           PAN     c_v+1
        BYTE   W01
        BYTE                   c_v+2
        BYTE   W01
        BYTE           VOL     47
        BYTE   W01
        BYTE           PAN     c_v+3
        BYTE   W01
        BYTE                   c_v+4
        BYTE   W01
        BYTE           VOL     48
        BYTE   W01
        BYTE           PAN     c_v+5
        BYTE   W01
        BYTE                   c_v+6
        BYTE   W01
        BYTE           VOL     50
        BYTE   W01
        BYTE           PAN     c_v+7
        BYTE   W01
        BYTE                   c_v+8
        BYTE   W01
        BYTE           VOL     51
        BYTE   W01
        BYTE           PAN     c_v+9
        BYTE   W01
        BYTE                   c_v+10
        BYTE   W01
        BYTE           VOL     52
        BYTE   W01
        BYTE           PAN     c_v+11
        BYTE   W01
        BYTE                   c_v+12
        BYTE   W01
        BYTE           VOL     54
        BYTE   W01
        BYTE           PAN     c_v+13
        BYTE   W01
        BYTE                   c_v+14
        BYTE   W01
// 016   ----------------------------------------
        BYTE           VOL     55
        BYTE   W01
        BYTE           PAN     c_v+15
        BYTE           VOL     56
        BYTE   W01
        BYTE           PAN     c_v+16
        BYTE   W02
        BYTE                   c_v+17
        BYTE   W02
        BYTE                   c_v+18
        BYTE   W01
        BYTE                   c_v+19
        BYTE   W02
        BYTE                   c_v+20
        BYTE   W01
        BYTE                   c_v+21
        BYTE   W02
        BYTE                   c_v+22
        BYTE   W01
        BYTE                   c_v+23
        BYTE   W02
        BYTE                   c_v+24
        BYTE   W01
        BYTE                   c_v+25
        BYTE   W02
        BYTE                   c_v+26
        BYTE   W01
        BYTE                   c_v+27
        BYTE   W02
        BYTE                   c_v+28
        BYTE   W01
        BYTE                   c_v+29
        BYTE   W02
        BYTE                   c_v+30
        BYTE   W01
        BYTE                   c_v+31
        BYTE   W02
        BYTE                   c_v+32
        BYTE   W01
        BYTE                   c_v+33
        BYTE   W02
        BYTE                   c_v+34
        BYTE   W01
        BYTE                   c_v+35
        BYTE   W02
        BYTE                   c_v+36
        BYTE   W01
        BYTE                   c_v+37
        BYTE   W02
        BYTE                   c_v+38
        BYTE   W02
        BYTE                   c_v+39
        BYTE   W01
        BYTE                   c_v+40
        BYTE   W02
        BYTE                   c_v+41
        BYTE   W01
        BYTE                   c_v+42
        BYTE   W02
        BYTE                   c_v+43
        BYTE           VOL     55
        BYTE   W01
        BYTE           PAN     c_v+44
        BYTE   W02
        BYTE                   c_v+45
        BYTE   W01
        BYTE                   c_v+46
        BYTE   W02
        BYTE                   c_v+47
        BYTE           VOL     54
        BYTE   W01
        BYTE           PAN     c_v+48
        BYTE   W02
        BYTE                   c_v+49
        BYTE   W01
        BYTE                   c_v+50
        BYTE   W02
        BYTE                   c_v+51
        BYTE   W01
        BYTE                   c_v+52
        BYTE   W02
        BYTE                   c_v+53
        BYTE           VOL     53
        BYTE   W01
        BYTE           PAN     c_v+54
        BYTE   W02
        BYTE           VOL     52
        BYTE           PAN     c_v+55
        BYTE   W01
        BYTE                   c_v+56
        BYTE   W02
        BYTE                   c_v+55
        BYTE   W01
        BYTE                   c_v+54
        BYTE   W01
        BYTE                   c_v+53
        BYTE   W01
        BYTE           VOL     51
        BYTE           PAN     c_v+52
        BYTE   W01
        BYTE                   c_v+51
        BYTE   W01
        BYTE                   c_v+50
        BYTE   W01
        BYTE                   c_v+49
        BYTE           VOL     50
        BYTE   W01
        BYTE           PAN     c_v+48
        BYTE   W01
        BYTE                   c_v+46
        BYTE   W01
        BYTE                   c_v+45
        BYTE   W01
        BYTE                   c_v+44
        BYTE   W01
        BYTE                   c_v+43
        BYTE   W01
        BYTE           VOL     49
        BYTE           PAN     c_v+42
        BYTE   W01
        BYTE                   c_v+41
        BYTE   W01
        BYTE                   c_v+40
        BYTE   W01
        BYTE                   c_v+39
        BYTE   W01
        BYTE                   c_v+38
        BYTE   W01
        BYTE                   c_v+37
        BYTE   W01
        BYTE                   c_v+36
        BYTE           VOL     48
        BYTE   W01
        BYTE           PAN     c_v+35
        BYTE   W01
        BYTE                   c_v+34
        BYTE   W01
        BYTE           VOL     47
        BYTE           PAN     c_v+32
        BYTE   W01
        BYTE                   c_v+31
        BYTE   W01
        BYTE                   c_v+30
        BYTE   W01
        BYTE                   c_v+29
        BYTE   W01
        BYTE                   c_v+28
        BYTE   W01
        BYTE                   c_v+27
        BYTE   W01
        BYTE           VOL     46
        BYTE           PAN     c_v+26
        BYTE   W01
        BYTE                   c_v+25
        BYTE   W01
        BYTE                   c_v+24
        BYTE   W01
        BYTE                   c_v+23
        BYTE           VOL     45
        BYTE   W01
// 017   ----------------------------------------
        BYTE           PAN     c_v+22
        BYTE   W01
        BYTE                   c_v+21
        BYTE   W01
        BYTE           VOL     44
        BYTE           PAN     c_v+19
        BYTE   W01
        BYTE                   c_v+18
        BYTE   W01
        BYTE                   c_v+17
        BYTE   W01
        BYTE           VOL     43
        BYTE           PAN     c_v+16
        BYTE   W01
        BYTE                   c_v+15
        BYTE   W01
        BYTE                   c_v+14
        BYTE   W01
        BYTE                   c_v+13
        BYTE   W01
        BYTE                   c_v+12
        BYTE   W01
        BYTE                   c_v+11
        BYTE   W01
        BYTE                   c_v+10
        BYTE           VOL     42
        BYTE   W02
        BYTE           PAN     c_v+9
        BYTE   W01
        BYTE           VOL     41
        BYTE           PAN     c_v+7
        BYTE   W01
        BYTE                   c_v+6
        BYTE   W01
        BYTE                   c_v+5
        BYTE   W01
        BYTE           VOL     40
        BYTE           PAN     c_v+4
        BYTE   W01
        BYTE                   c_v+3
        BYTE   W01
        BYTE                   c_v+2
        BYTE   W01
        BYTE           VOL     39
        BYTE           PAN     c_v+1
        BYTE   W01
        BYTE                   c_v+0
        BYTE   W01
        BYTE                   c_v-1
        BYTE   W01
        BYTE                   c_v-2
        BYTE           VOL     38
        BYTE   W01
        BYTE           PAN     c_v-3
        BYTE   W01
        BYTE                   c_v-4
        BYTE   W01
        BYTE                   c_v-5
        BYTE           VOL     37
        BYTE   W01
        BYTE           PAN     c_v-7
        BYTE   W01
        BYTE                   c_v-8
        BYTE   W01
        BYTE           VOL     36
        BYTE           PAN     c_v-9
        BYTE   W01
        BYTE                   c_v-10
        BYTE   W01
        BYTE                   c_v-11
        BYTE   W01
        BYTE           VOL     35
        BYTE           PAN     c_v-12
        BYTE   W01
        BYTE                   c_v-13
        BYTE   W01
        BYTE                   c_v-14
        BYTE   W01
        BYTE                   c_v-15
        BYTE           VOL     34
        BYTE   W01
        BYTE           PAN     c_v-16
        BYTE   W01
        BYTE                   c_v-17
        BYTE   W01
        BYTE                   c_v-18
        BYTE           VOL     33
        BYTE   W01
        BYTE           PAN     c_v-20
        BYTE   W01
        BYTE                   c_v-21
        BYTE   W01
        BYTE           VOL     31
        BYTE           PAN     c_v-22
        BYTE   W01
        BYTE                   c_v-23
        BYTE   W01
        BYTE                   c_v-24
        BYTE   W01
        BYTE           VOL     30
        BYTE           PAN     c_v-25
        BYTE   W01
        BYTE                   c_v-26
        BYTE   W01
        BYTE                   c_v-27
        BYTE   W01
        BYTE                   c_v-28
        BYTE           VOL     29
        BYTE   W01
        BYTE           PAN     c_v-29
        BYTE   W01
        BYTE                   c_v-30
        BYTE   W01
        BYTE                   c_v-31
        BYTE           VOL     27
        BYTE   W01
        BYTE           PAN     c_v-33
        BYTE   W01
        BYTE                   c_v-34
        BYTE   W01
        BYTE           VOL     26
        BYTE           PAN     c_v-35
        BYTE   W01
        BYTE                   c_v-36
        BYTE   W02
        BYTE           VOL     25
        BYTE           PAN     c_v-37
        BYTE   W01
        BYTE                   c_v-38
        BYTE   W01
        BYTE                   c_v-39
        BYTE   W01
        BYTE                   c_v-40
        BYTE           VOL     23
        BYTE   W01
        BYTE           PAN     c_v-41
        BYTE   W01
        BYTE                   c_v-42
        BYTE   W01
        BYTE                   c_v-43
        BYTE           VOL     22
        BYTE   W01
        BYTE           PAN     c_v-44
        BYTE   W01
        BYTE                   c_v-46
        BYTE   W01
        BYTE           VOL     20
        BYTE           PAN     c_v-47
        BYTE   W01
        BYTE                   c_v-48
        BYTE   W01
        BYTE                   c_v-49
        BYTE   W01
        BYTE           VOL     19
        BYTE           PAN     c_v-50
        BYTE   W01
        BYTE                   c_v-51
        BYTE   W01
        BYTE                   c_v-52
        BYTE   W01
        BYTE                   c_v-53
        BYTE           VOL     17
        BYTE   W01
        BYTE           EOT
        BYTE           PAN     c_v-54
        BYTE   W01
        BYTE                   c_v-55
        BYTE   W01
        BYTE                   c_v-56
        BYTE           VOL     15
        BYTE   W01
        BYTE           PAN     c_v-57
        BYTE           VOL     14
        BYTE   W01
        BYTE           PAN     c_v-59
        BYTE   W01
        BYTE                   c_v-60
        BYTE   W01
        BYTE                   c_v-61
        BYTE   W01
        BYTE                   c_v-62
        BYTE   W01
        BYTE                   c_v-63
        BYTE   W01
        BYTE                   c_v-64
        BYTE   W15
// 018   ----------------------------------------
        BYTE   W96
// 019   ----------------------------------------
        BYTE   W48
        BYTE           VOICE   28
        BYTE           PAN     c_v+22
        BYTE           VOL     56
        BYTE           N05     Cs4   v059
        BYTE   W06
        BYTE                   Gs3   v045
        BYTE   W06
        BYTE                   Fs3   v058
        BYTE   W06
        BYTE                   Ds3   v059
        BYTE   W06
        BYTE                   Cs3   v054
        BYTE   W06
        BYTE                   Gs2   v056
        BYTE   W06
        BYTE                   Cs4   v065
        BYTE   W06
        BYTE                   Gs3   v049
        BYTE   W06
// 020   ----------------------------------------
        BYTE                   Fs3   v061
        BYTE   W06
        BYTE                   Ds3   v065
        BYTE   W06
        BYTE                   Cs3   v067
        BYTE   W06
        BYTE                   Gs2   v063
        BYTE   W06
        BYTE                   Cn4   v069
        BYTE   W06
        BYTE                   Gs3   v052
        BYTE   W06
        BYTE                   Fs3   v069
        BYTE   W06
        BYTE                   Ds3   v062
        BYTE   W06
        BYTE                   Cn3   v072
        BYTE   W06
        BYTE                   Gs2
        BYTE   W06
        BYTE                   Fs2
        BYTE   W06
        BYTE                   Ds2
        BYTE   W06
        BYTE           N03     Fs2   v084
        BYTE   W04
        BYTE                   Gs2   v080
        BYTE   W04
        BYTE                   Cn3   v076
        BYTE   W04
        BYTE                   Ds3   v091
        BYTE   W04
        BYTE                   Fs3   v088
        BYTE   W04
        BYTE                   Gs3   v097
        BYTE   W04
// 021   ----------------------------------------
        BYTE   GoTo
         POIN2  DarkCloudsGather_5_LOOP
        BYTE   FINE

//****************** Track 6 (Midi-Chn.6) ******************//

DarkCloudsGather_6:
        BYTE   KEYSH   DarkCloudsGather_key+0
// 000   ----------------------------------------
DarkCloudsGather_6_LOOP:
        BYTE           VOICE   15
        BYTE   W96
// 001   ----------------------------------------
        BYTE   W96
// 002   ----------------------------------------
        BYTE   W24
        BYTE           PAN     c_v+22
        BYTE           VOL     39
        BYTE   W48
        BYTE           N03     Cs3   v084
        BYTE   W04
        BYTE                   Fs3   v080
        BYTE   W04
        BYTE                   Gn3   v076
        BYTE   W04
        BYTE                   Bn3   v091
        BYTE   W04
        BYTE                   Cs4   v088
        BYTE   W04
        BYTE                   Fs4   v097
        BYTE   W04
// 003   ----------------------------------------
        BYTE   W96
// 004   ----------------------------------------
        BYTE   W96
// 005   ----------------------------------------
        BYTE   W72
        BYTE                   Fs3   v084
        BYTE   W04
        BYTE                   Cn4   v080
        BYTE   W04
        BYTE                   Cs4   v076
        BYTE   W04
        BYTE                   Fn4   v091
        BYTE   W04
        BYTE                   Fs4   v088
        BYTE   W04
        BYTE                   Bn4   v097
        BYTE   W04
// 006   ----------------------------------------
        BYTE           VOICE   20
        BYTE           PAN     c_v+33
        BYTE           VOL     69
        BYTE           N06     Cn3   v113
        BYTE   W06
        BYTE                   Cn3   v085
        BYTE   W06
        BYTE                   Cn3   v064
        BYTE   W06
        BYTE                   Cn3   v055
        BYTE   W06
        BYTE                   Cn3   v058
        BYTE   W06
        BYTE                   Cn3   v051
        BYTE   W06
        BYTE                   Cn3   v069
        BYTE   W06
        BYTE                   Cn3   v058
        BYTE   W06
        BYTE                   Cn3   v060
        BYTE   W06
        BYTE                   Cn3   v052
        BYTE   W06
        BYTE                   Cn3   v062
        BYTE   W06
        BYTE                   Cn3   v053
        BYTE   W06
        BYTE                   Cn3   v074
        BYTE   W06
        BYTE                   Cn3   v061
        BYTE   W06
        BYTE                   Cn3
        BYTE   W06
        BYTE                   Cn3   v053
        BYTE   W06
// 007   ----------------------------------------
        BYTE                   Cn3   v078
        BYTE   W06
        BYTE                   Cn3   v064
        BYTE   W06
        BYTE                   Cn3   v084
        BYTE   W06
        BYTE                   Cn3   v067
        BYTE   W06
        BYTE                   Cn3   v086
        BYTE   W06
        BYTE                   Cn3   v069
        BYTE   W06
        BYTE                   Cn3   v117
        BYTE   W06
        BYTE                   Cn3   v087
        BYTE   W06
        BYTE                   Cn3   v127
        BYTE   W06
        BYTE                   Cn3   v093
        BYTE   W06
        BYTE                   Cn3   v062
        BYTE   W06
        BYTE                   Cn3   v053
        BYTE   W06
        BYTE                   Cn3   v060
        BYTE   W06
        BYTE                   Cn3   v052
        BYTE   W06
        BYTE                   Cn3   v072
        BYTE   W06
        BYTE                   Cn3   v060
        BYTE   W06
// 008   ----------------------------------------
        BYTE                   Cn3   v076
        BYTE   W06
        BYTE                   Cn3   v063
        BYTE   W06
        BYTE                   Cn3   v082
        BYTE   W06
        BYTE                   Cn3   v066
        BYTE   W06
        BYTE                   Cn3   v069
        BYTE   W06
        BYTE                   Cn3   v058
        BYTE   W06
        BYTE                   Cn3   v069
        BYTE   W06
        BYTE                   Cn3   v058
        BYTE   W06
        BYTE                   Cn3   v086
        BYTE   W06
        BYTE                   Cn3   v069
        BYTE   W06
        BYTE                   Cn3   v097
        BYTE   W06
        BYTE                   Cn3   v075
        BYTE   W06
        BYTE                   Cn3   v117
        BYTE   W06
        BYTE                   Cn3   v087
        BYTE   W06
        BYTE                   Cn3   v127
        BYTE   W06
        BYTE                   Cn3   v093
        BYTE   W06
// 009   ----------------------------------------
        BYTE   W96
// 010   ----------------------------------------
        BYTE   W96
// 011   ----------------------------------------
        BYTE   W96
// 012   ----------------------------------------
        BYTE           VOICE   15
        BYTE           PAN     c_v+22
        BYTE           VOL     39
        BYTE   W06
        BYTE           N03     Cs3   v056
        BYTE   W03
        BYTE                   Cs3   v034
        BYTE   W03
        BYTE           N06     Cs3   v097
        BYTE   W06
        BYTE           N03     Fs3   v056
        BYTE   W03
        BYTE                   Fs3   v034
        BYTE   W03
        BYTE           N06     Fs3   v096
        BYTE   W06
        BYTE           N03     Gs3   v058
        BYTE   W03
        BYTE                   Gs3   v036
        BYTE   W03
        BYTE           N06     Gs3   v100
        BYTE   W06
        BYTE           N03     Cs4   v059
        BYTE   W03
        BYTE                   Cs4   v037
        BYTE   W03
        BYTE           N06     Cs4   v090
        BYTE   W06
        BYTE           N03     Fs4   v055
        BYTE   W03
        BYTE                   Fs4   v034
        BYTE   W03
        BYTE           N06     Fs4   v092
        BYTE   W06
        BYTE           N03     Gs4   v056
        BYTE   W03
        BYTE                   Gs4   v034
        BYTE   W03
        BYTE           N06     Cs5   v095
        BYTE   W06
        BYTE           N03     Gs4   v058
        BYTE   W03
        BYTE                   Gs4   v036
        BYTE   W03
        BYTE           N06     Gs4   v093
        BYTE   W06
        BYTE           N03     Fs4   v059
        BYTE   W03
        BYTE                   Fs4   v037
        BYTE   W03
// 013   ----------------------------------------
        BYTE           N06     Fs4   v099
        BYTE   W06
        BYTE           N03     Cs4   v056
        BYTE   W03
        BYTE                   Cs4   v034
        BYTE   W03
        BYTE           N06     Cs4   v094
        BYTE   W06
        BYTE           N03     Gs3   v058
        BYTE   W03
        BYTE                   Gs3   v036
        BYTE   W03
        BYTE           N06     Gs3   v091
        BYTE   W06
        BYTE           N03     Fs3   v050
        BYTE   W03
        BYTE                   Fs3   v030
        BYTE   W03
        BYTE           N06     Fs3   v094
        BYTE   W06
        BYTE           N03     Cs3   v052
        BYTE   W03
        BYTE                   Cs3   v031
        BYTE   W09
        BYTE                   Cs3   v053
        BYTE   W03
        BYTE                   Cs3   v032
        BYTE   W03
        BYTE           N06     Cs3   v091
        BYTE   W06
        BYTE           N03     Fs3   v053
        BYTE   W03
        BYTE                   Fs3   v032
        BYTE   W03
        BYTE           N06     Fs3   v093
        BYTE   W06
        BYTE           N03     Gs3   v054
        BYTE   W03
        BYTE                   Gs3   v033
        BYTE   W03
        BYTE           N06     Gs3   v096
        BYTE   W06
        BYTE           N03     Ds4   v052
        BYTE   W03
        BYTE                   Ds4   v031
        BYTE   W03
// 014   ----------------------------------------
        BYTE           N06     Ds4   v099
        BYTE   W06
        BYTE           N03     Fs4   v056
        BYTE   W03
        BYTE                   Fs4   v034
        BYTE   W03
        BYTE           N06     Fs4   v097
        BYTE   W06
        BYTE           N03     Gs4   v050
        BYTE   W03
        BYTE                   Gs4   v030
        BYTE   W03
        BYTE           N06     Ds5   v100
        BYTE   W06
        BYTE           N03     Gs4   v056
        BYTE   W03
        BYTE                   Gs4   v034
        BYTE   W03
        BYTE           N06     Gs4   v094
        BYTE   W06
        BYTE           N03     Fs4   v058
        BYTE   W03
        BYTE                   Fs4   v036
        BYTE   W03
        BYTE           N06     Fs4   v096
        BYTE   W06
        BYTE           N03     Ds4   v056
        BYTE   W03
        BYTE                   Ds4   v034
        BYTE   W03
        BYTE           N06     Ds4   v096
        BYTE   W06
        BYTE           N03     Gs3   v054
        BYTE   W03
        BYTE                   Gs3   v033
        BYTE   W03
        BYTE           N06     Gs3   v117
        BYTE   W06
        BYTE           N03     Fs3   v073
        BYTE   W03
        BYTE                   Fs3   v048
        BYTE   W03
        BYTE           N06     Fs3   v112
        BYTE   W06
        BYTE           N03     Ds3   v076
        BYTE   W03
        BYTE                   Ds3   v051
        BYTE   W03
// 015   ----------------------------------------
        BYTE   W96
// 016   ----------------------------------------
        BYTE   W96
// 017   ----------------------------------------
        BYTE   W96
// 018   ----------------------------------------
        BYTE   W96
// 019   ----------------------------------------
        BYTE   W96
// 020   ----------------------------------------
        BYTE   W66
        BYTE           N05     Ds2   v072
        BYTE   W06
        BYTE           N03     Fs2   v084
        BYTE   W04
        BYTE                   Gs2   v080
        BYTE   W04
        BYTE                   Cn3   v076
        BYTE   W04
        BYTE                   Ds3   v091
        BYTE   W04
        BYTE                   Fs3   v088
        BYTE   W04
        BYTE                   Gs3   v097
        BYTE   W04
// 021   ----------------------------------------
        BYTE           VOL     100
        BYTE           PAN     c_v+0
        BYTE   GoTo
         POIN2  DarkCloudsGather_6_LOOP
        BYTE   FINE


//********************** End of Song ***********************//

        ALIGN 4
DarkCloudsGather:
        BYTE   7                       // Num Tracks
        BYTE   0                       // Unknown
        BYTE   DarkCloudsGather_pri    // Priority
        BYTE   DarkCloudsGather_rev    // Reverb

        POIN2   DarkCloudsGather_grp   

        POIN2   DarkCloudsGather_0
        POIN2   DarkCloudsGather_1
        POIN2   DarkCloudsGather_2
        POIN2   DarkCloudsGather_3
        POIN2   DarkCloudsGather_4
        POIN2   DarkCloudsGather_5
        POIN2   DarkCloudsGather_6

        
