//Event file generated from Sappy .s format.
        #include "MPlayDef.event"

        #define    EndlessBattle_grp  voicegroup000
        #define    EndlessBattle_pri  0
        #define    EndlessBattle_rev  0
        #define    EndlessBattle_key  0

        // .rodata
        // EndlessBattle
        ALIGN 4

//****************** Track 0 (Midi-Chn.0) ******************//

EndlessBattle_0:
        BYTE   KEYSH   EndlessBattle_key+0
// 000   ----------------------------------------
        BYTE   TEMPO   122/2
        BYTE           VOICE   2
        BYTE           VOL     55
        BYTE           N30     Gn0   v126   gtp1
        BYTE   W36
        BYTE                   Gn0
        BYTE   W36
        BYTE           N20
        BYTE   W24
// 001   ----------------------------------------
        BYTE           N30     Gn0   v126   gtp1
        BYTE   W36
        BYTE                   Gn0
        BYTE   W36
        BYTE           N11
        BYTE   W12
        BYTE           N03     Dn1   v101
        BYTE   W06
        BYTE                   Gn0
        BYTE   W06
// 002   ----------------------------------------
EndlessBattle_0_LOOP:
        BYTE           N11     Cn1   v126
        BYTE   W12
        BYTE           N03     Cn1   v127
        BYTE   W12
        BYTE           N07     Cn1   v091
        BYTE   W12
        BYTE           N11     Cn1   v126
        BYTE   W12
        BYTE           N03     Cn1   v127
        BYTE   W12
        BYTE           N07     Cn1   v091
        BYTE   W12
        BYTE           N12     Cn1   v126
        BYTE   W12
        BYTE           N02     Cn1   v091
        BYTE   W06
        BYTE                   Cn1   v078
        BYTE   W06
// 003   ----------------------------------------
EndlessBattle_0_3:
        BYTE           N11     As0   v126
        BYTE   W12
        BYTE           N03     As0   v127
        BYTE   W12
        BYTE           N07     As0   v091
        BYTE   W12
        BYTE           N11     As0   v126
        BYTE   W12
        BYTE           N03     As0   v127
        BYTE   W12
        BYTE           N07     As0   v091
        BYTE   W12
        BYTE           N12     As0   v126
        BYTE   W12
        BYTE           N02     As0   v091
        BYTE   W06
        BYTE                   As0   v078
        BYTE   W06
        BYTE   PEND
// 004   ----------------------------------------
EndlessBattle_0_4:
        BYTE           N11     Gs0   v126
        BYTE   W12
        BYTE           N03     Gs0   v127
        BYTE   W12
        BYTE           N07     Gs0   v091
        BYTE   W12
        BYTE           N11     Gs0   v126
        BYTE   W12
        BYTE           N03     Gs0   v127
        BYTE   W12
        BYTE           N07     Gs0   v091
        BYTE   W12
        BYTE           N12     Gs0   v126
        BYTE   W12
        BYTE           N02     Gs0   v091
        BYTE   W06
        BYTE                   Gs0   v078
        BYTE   W06
        BYTE   PEND
// 005   ----------------------------------------
EndlessBattle_0_5:
        BYTE           N11     Gn0   v126
        BYTE   W12
        BYTE           N03     Gn0   v127
        BYTE   W12
        BYTE           N07     Gn0   v091
        BYTE   W12
        BYTE           N11     Gn0   v126
        BYTE   W12
        BYTE           N03     Gn0   v127
        BYTE   W12
        BYTE           N07     Gn0   v091
        BYTE   W12
        BYTE           N12     Gn0   v126
        BYTE   W12
        BYTE           N02     Gn0   v091
        BYTE   W06
        BYTE                   Gn0   v078
        BYTE   W06
        BYTE   PEND
// 006   ----------------------------------------
        BYTE           N11     Fn0   v126
        BYTE   W12
        BYTE           N03     Fn0   v127
        BYTE   W12
        BYTE           N07     Fn0   v091
        BYTE   W12
        BYTE           N11     Fn0   v126
        BYTE   W12
        BYTE           N03     Fn0   v127
        BYTE   W12
        BYTE           N07     Fn0   v091
        BYTE   W12
        BYTE           N12     Fn0   v126
        BYTE   W12
        BYTE           N02     Fn0   v091
        BYTE   W06
        BYTE                   Fn0   v078
        BYTE   W06
// 007   ----------------------------------------
        BYTE           N11     Ds1   v126
        BYTE   W12
        BYTE           N03     Ds1   v127
        BYTE   W12
        BYTE           N07     Ds1   v091
        BYTE   W12
        BYTE           N11     Ds1   v126
        BYTE   W12
        BYTE           N03     Ds1   v127
        BYTE   W12
        BYTE           N07     Ds1   v091
        BYTE   W12
        BYTE           N12     Ds1   v126
        BYTE   W12
        BYTE           N02     Ds1   v091
        BYTE   W06
        BYTE                   Ds1   v078
        BYTE   W06
// 008   ----------------------------------------
EndlessBattle_0_8:
        BYTE           N11     Dn1   v126
        BYTE   W12
        BYTE           N03     Dn1   v127
        BYTE   W12
        BYTE           N07     Dn1   v091
        BYTE   W12
        BYTE           N11     Dn1   v126
        BYTE   W12
        BYTE           N03     Dn1   v127
        BYTE   W12
        BYTE           N07     Dn1   v091
        BYTE   W12
        BYTE           N12     Dn1   v126
        BYTE   W12
        BYTE           N02     Dn1   v091
        BYTE   W06
        BYTE                   Dn1   v078
        BYTE   W06
        BYTE   PEND
// 009   ----------------------------------------
        BYTE           N11     Gn0   v126
        BYTE   W12
        BYTE           N03     Gn0   v127
        BYTE   W12
        BYTE           N07     Gn0   v091
        BYTE   W12
        BYTE           N11     Gn0   v126
        BYTE   W12
        BYTE           N03     Gn0   v127
        BYTE   W12
        BYTE           N07     Gn0   v091
        BYTE   W12
        BYTE           N12     Gn0   v126
        BYTE   W12
        BYTE           N03     Dn1   v127
        BYTE   W06
        BYTE                   Gn1
        BYTE   W06
// 010   ----------------------------------------
        BYTE           N11     Cn1   v126
        BYTE   W12
        BYTE           N03     Cn1   v127
        BYTE   W12
        BYTE           N07     Cn1   v091
        BYTE   W12
        BYTE           N11     Cn1   v126
        BYTE   W12
        BYTE           N03     Cn1   v127
        BYTE   W12
        BYTE           N07     Cn1   v091
        BYTE   W12
        BYTE           N12     Cn1   v126
        BYTE   W12
        BYTE           N02     Cn1   v091
        BYTE   W06
        BYTE                   Cn1   v078
        BYTE   W06
// 011   ----------------------------------------
        BYTE   PATT
         POIN2  EndlessBattle_0_3
// 012   ----------------------------------------
        BYTE           N11     An0   v126
        BYTE   W12
        BYTE           N03     An0   v127
        BYTE   W12
        BYTE           N07     An0   v091
        BYTE   W12
        BYTE           N11     An0   v126
        BYTE   W12
        BYTE           N03     An0   v127
        BYTE   W12
        BYTE           N07     An0   v091
        BYTE   W12
        BYTE           N12     An0   v126
        BYTE   W12
        BYTE           N02     An0   v091
        BYTE   W06
        BYTE                   An0   v078
        BYTE   W06
// 013   ----------------------------------------
        BYTE   PATT
         POIN2  EndlessBattle_0_4
// 014   ----------------------------------------
EndlessBattle_0_14:
        BYTE           N11     Cs1   v126
        BYTE   W12
        BYTE           N03     Cs1   v127
        BYTE   W12
        BYTE           N07     Cs1   v091
        BYTE   W12
        BYTE           N11     Cs1   v126
        BYTE   W12
        BYTE           N03     Cs1   v127
        BYTE   W12
        BYTE           N07     Cs1   v091
        BYTE   W12
        BYTE           N12     Cs1   v126
        BYTE   W12
        BYTE           N02     Cs1   v091
        BYTE   W06
        BYTE                   Cs1   v078
        BYTE   W06
        BYTE   PEND
// 015   ----------------------------------------
        BYTE   PATT
         POIN2  EndlessBattle_0_14
// 016   ----------------------------------------
        BYTE   PATT
         POIN2  EndlessBattle_0_8
// 017   ----------------------------------------
        BYTE   PATT
         POIN2  EndlessBattle_0_5
// 018   ----------------------------------------
        BYTE           N44     Gs0   v115   gtp2
        BYTE   W48
        BYTE           N21     Ds1
        BYTE   W24
        BYTE                   Gs1
        BYTE   W24
// 019   ----------------------------------------
        BYTE           N23     As1
        BYTE   W24
        BYTE           N52     As0
        BYTE   W60
        BYTE           N04     Cn1
        BYTE   W06
        BYTE                   Dn1
        BYTE   W06
// 020   ----------------------------------------
EndlessBattle_0_20:
        BYTE           N44     Ds1   v115   gtp3
        BYTE   W48
        BYTE           N23     As0
        BYTE   W24
        BYTE           N22     Ds1
        BYTE   W24
        BYTE   PEND
// 021   ----------------------------------------
        BYTE           N44     Fn1   v115   gtp3
        BYTE   W48
        BYTE           N22     Cn1
        BYTE   W24
        BYTE                   An0
        BYTE   W24
// 022   ----------------------------------------
        BYTE           N68     Gs0   v115   gtp2
        BYTE   W72
        BYTE           N22     Ds1
        BYTE   W24
// 023   ----------------------------------------
        BYTE           N23     As0
        BYTE   W24
        BYTE                   Fn1
        BYTE   W24
        BYTE                   Cn2
        BYTE   W24
        BYTE           N22     As1
        BYTE   W24
// 024   ----------------------------------------
        BYTE           N44     An1   v115   gtp3
        BYTE   W48
        BYTE           N44     An0   v115   gtp2
        BYTE   W48
// 025   ----------------------------------------
        BYTE           N23     Fn1
        BYTE   W24
        BYTE                   Ds1
        BYTE   W24
        BYTE                   Cn1
        BYTE   W24
        BYTE           N22     An0
        BYTE   W24
// 026   ----------------------------------------
        BYTE           N76     Gs0
        BYTE   W84
        BYTE           N04     As0
        BYTE   W06
        BYTE                   Cn1
        BYTE   W06
// 027   ----------------------------------------
        BYTE           N44     As0   v115   gtp2
        BYTE   W48
        BYTE           N22     Cn1
        BYTE   W24
        BYTE                   Dn1
        BYTE   W24
// 028   ----------------------------------------
        BYTE   PATT
         POIN2  EndlessBattle_0_20
// 029   ----------------------------------------
        BYTE           N44     Fn1   v115   gtp3
        BYTE   W48
        BYTE           N44     Fn0   v115   gtp2
        BYTE   W48
// 030   ----------------------------------------
        BYTE                   Gs0
        BYTE   W48
        BYTE           N22     Ds1
        BYTE   W24
        BYTE           N44     Gs1   v115   gtp2
        BYTE   W24
// 031   ----------------------------------------
        BYTE   W24
        BYTE           N44     Gs0   v115   gtp3
        BYTE   W48
        BYTE           N22     Cn1
        BYTE   W24
// 032   ----------------------------------------
        BYTE           N23     As0
        BYTE   W24
        BYTE                   As0
        BYTE   W24
        BYTE                   As0
        BYTE   W24
        BYTE           N22
        BYTE   W24
// 033   ----------------------------------------
        BYTE           N23     Bn0
        BYTE   W24
        BYTE                   Bn0
        BYTE   W24
        BYTE                   Gn0
        BYTE   W24
        BYTE           N22     Bn0
        BYTE   W24
// 034   ----------------------------------------
        BYTE           N32     Cn1   v115   gtp2
        BYTE   W36
        BYTE                   As0
        BYTE   W36
        BYTE           N22     Gs0
        BYTE   W24
// 035   ----------------------------------------
EndlessBattle_0_35:
        BYTE           N30     Gs0   v115   gtp1
        BYTE   W36
        BYTE                   Gs0
        BYTE   W36
        BYTE           N19
        BYTE   W24
        BYTE   PEND
// 036   ----------------------------------------
        BYTE           N32     Cn1   v115   gtp2
        BYTE   W36
        BYTE                   As0
        BYTE   W36
        BYTE           N20     Gs0
        BYTE   W24
// 037   ----------------------------------------
        BYTE   PATT
         POIN2  EndlessBattle_0_35
// 038   ----------------------------------------
        BYTE           N30     Gn0   v126   gtp1
        BYTE   W36
        BYTE                   Gn0
        BYTE   W36
        BYTE           N20
        BYTE   W24
// 039   ----------------------------------------
        BYTE           N30     Gn0   v126   gtp1
        BYTE   W36
        BYTE                   Gn0
        BYTE   W36
        BYTE           N03     Dn1   v101
        BYTE   W12
        BYTE                   Gn0
        BYTE   W12
// 040   ----------------------------------------
        BYTE   GoTo
         POIN2  EndlessBattle_0_LOOP
        BYTE   FINE

//****************** Track 1 (Midi-Chn.1) ******************//

EndlessBattle_1:
        BYTE   KEYSH   EndlessBattle_key+0
// 000   ----------------------------------------
        BYTE           VOICE   51
        BYTE           VOL     50
        BYTE           PAN     c_v-26
        BYTE           N11     Gn2   v066
        BYTE           N11     Dn2
        BYTE   W36
        BYTE                   Gn2   v075
        BYTE           N11     Dn2
        BYTE   W36
        BYTE                   Gn2   v090
        BYTE           N11     Dn2
        BYTE   W24
// 001   ----------------------------------------
        BYTE                   Gn2   v107
        BYTE           N11     Dn2
        BYTE   W36
        BYTE                   Gn2   v084
        BYTE           N11     Dn2
        BYTE   W36
        BYTE                   Gn2   v090
        BYTE           N11     Dn2
        BYTE   W24
// 002   ----------------------------------------
EndlessBattle_1_LOOP:
        BYTE           N11     Gn2   v104
        BYTE           N11     Ds2
        BYTE   W24
        BYTE                   Gn2   v069
        BYTE           N11     Ds2
        BYTE   W24
        BYTE                   Ds2   v081
        BYTE           N11     Gn2
        BYTE   W24
        BYTE                   Gn2   v070
        BYTE           N11     Ds2
        BYTE   W24
// 003   ----------------------------------------
        BYTE                   Fn2   v104
        BYTE           N11     Dn2
        BYTE   W24
        BYTE                   Fn2   v069
        BYTE           N11     Dn2
        BYTE   W24
        BYTE                   Dn2   v081
        BYTE           N11     Fn2
        BYTE   W24
        BYTE                   Dn2   v070
        BYTE           N11     Fn2
        BYTE   W24
// 004   ----------------------------------------
        BYTE                   Ds2   v104
        BYTE           N11     Cn2
        BYTE   W24
        BYTE                   Ds2   v069
        BYTE           N11     Cn2
        BYTE   W24
        BYTE                   Ds2   v081
        BYTE           N11     Cn2
        BYTE   W24
        BYTE                   Ds2   v070
        BYTE           N11     Cn2
        BYTE   W24
// 005   ----------------------------------------
        BYTE                   As1   v104
        BYTE           N11     Dn2
        BYTE   W24
        BYTE                   Dn2   v069
        BYTE           N11     As1
        BYTE   W24
        BYTE                   Dn2   v081
        BYTE           N11     As1
        BYTE   W24
        BYTE                   Dn2   v070
        BYTE           N11     As1
        BYTE   W24
// 006   ----------------------------------------
        BYTE                   Cn2   v104
        BYTE           N11     Gs1
        BYTE   W24
        BYTE                   Cn2   v069
        BYTE           N11     Gs1
        BYTE   W24
        BYTE                   Cn2   v081
        BYTE           N11     Gs1
        BYTE   W24
        BYTE                   Cn2   v070
        BYTE           N11     Gs1
        BYTE   W24
// 007   ----------------------------------------
        BYTE                   Cn2   v104
        BYTE           N11     As1
        BYTE   W24
        BYTE                   Cn2   v069
        BYTE           N11     As1
        BYTE   W24
        BYTE                   Cn2   v081
        BYTE           N11     As1
        BYTE   W24
        BYTE                   Cn2   v070
        BYTE           N11     As1
        BYTE   W24
// 008   ----------------------------------------
        BYTE                   Dn2   v104
        BYTE           N11     Gs1
        BYTE   W24
        BYTE                   Dn2   v069
        BYTE           N11     Gs1
        BYTE   W24
        BYTE                   Fn2   v081
        BYTE           N11     Cn2
        BYTE   W24
        BYTE                   Fn2   v070
        BYTE           N11     Cn2
        BYTE   W24
// 009   ----------------------------------------
        BYTE                   Gn2   v104
        BYTE           N11     Dn2
        BYTE   W24
        BYTE                   Dn2   v069
        BYTE           N11     Gn2
        BYTE   W24
        BYTE                   Gn2   v081
        BYTE           N11     Dn2
        BYTE   W24
        BYTE                   Dn2   v070
        BYTE           N11     Gn2
        BYTE   W24
// 010   ----------------------------------------
        BYTE                   Gn2   v104
        BYTE           N11     Ds2
        BYTE   W24
        BYTE                   Gn2   v069
        BYTE           N11     Ds2
        BYTE   W24
        BYTE                   Gn2   v081
        BYTE           N11     Ds2
        BYTE   W24
        BYTE                   Gn2   v070
        BYTE           N11     Ds2
        BYTE   W24
// 011   ----------------------------------------
        BYTE                   Fn2   v104
        BYTE           N11     Dn2
        BYTE   W24
        BYTE                   Fn2   v069
        BYTE           N11     Dn2
        BYTE   W24
        BYTE                   Fn2   v081
        BYTE           N11     Dn2
        BYTE   W24
        BYTE                   Dn2   v070
        BYTE           N11     Fn2
        BYTE   W24
// 012   ----------------------------------------
EndlessBattle_1_12:
        BYTE           N11     Fn2   v104
        BYTE           N11     Cn2
        BYTE   W24
        BYTE                   Cn2   v069
        BYTE           N11     Fn2
        BYTE   W24
        BYTE                   Fn2   v081
        BYTE           N11     Cn2
        BYTE   W24
        BYTE                   Fn2   v070
        BYTE           N11     Cn2
        BYTE   W24
        BYTE   PEND
// 013   ----------------------------------------
        BYTE                   Gn2   v104
        BYTE           N11     Ds2
        BYTE   W24
        BYTE                   Ds2   v069
        BYTE           N11     Gn2
        BYTE   W24
        BYTE                   Gn2   v081
        BYTE           N11     Ds2
        BYTE   W24
        BYTE                   Gn2   v070
        BYTE           N11     Ds2
        BYTE   W24
// 014   ----------------------------------------
        BYTE                   Ds2   v104
        BYTE           N11     Cn2
        BYTE   W24
        BYTE                   Ds2   v069
        BYTE           N11     Cn2
        BYTE   W24
        BYTE                   Ds2   v081
        BYTE           N11     Cn2
        BYTE   W24
        BYTE                   Cn2   v070
        BYTE           N11     Ds2
        BYTE   W24
// 015   ----------------------------------------
        BYTE   PATT
         POIN2  EndlessBattle_1_12
// 016   ----------------------------------------
        BYTE           N11     En2   v104
        BYTE           N11     Fn2
        BYTE   W24
        BYTE                   Fn2   v069
        BYTE           N11     En2
        BYTE   W24
        BYTE                   Fn2   v081
        BYTE           N11     En2
        BYTE   W24
        BYTE                   Fn2   v070
        BYTE           N11     En2
        BYTE   W24
// 017   ----------------------------------------
        BYTE                   Gn2   v104
        BYTE           N11     Dn2
        BYTE   W24
        BYTE                   Gn2   v069
        BYTE           N11     Cn3
        BYTE   W24
        BYTE                   Dn3   v081
        BYTE           N11     Fn2
        BYTE   W24
        BYTE                   Gn2   v070
        BYTE           N11     Dn2
        BYTE   W24
// 018   ----------------------------------------
        BYTE           N23     Gn1   v071
        BYTE           N23     As2
        BYTE   W05
        BYTE           VOL     37
        BYTE   W11
        BYTE                   38
        BYTE   W08
        BYTE                   39
        BYTE           N23     Gs1
        BYTE           N23     Cn3
        BYTE   W12
        BYTE           VOL     40
        BYTE   W07
        BYTE                   41
        BYTE   W05
        BYTE           N23     Cn2
        BYTE           N23     Ds3
        BYTE   W07
        BYTE           VOL     42
        BYTE   W12
        BYTE                   43
        BYTE   W05
        BYTE           N23     Ds2
        BYTE           N23     Gn3
        BYTE   W02
        BYTE           VOL     44
        BYTE   W12
        BYTE                   45
        BYTE   W08
        BYTE                   46
        BYTE   W02
// 019   ----------------------------------------
        BYTE           N23     Fn2
        BYTE           N44     As3   v071   gtp3
        BYTE   W10
        BYTE           VOL     45
        BYTE   W13
        BYTE                   44
        BYTE   W01
        BYTE           N23     Gn2
        BYTE   W18
        BYTE           VOL     43
        BYTE   W06
        BYTE           N23     As1
        BYTE           N44     Fn3   v071   gtp3
        BYTE   W24
        BYTE           N23     Dn2
        BYTE   W24
// 020   ----------------------------------------
        BYTE                   As1
        BYTE           N44     Ds3   v071   gtp3
        BYTE   W24
        BYTE           N80     Gn1
        BYTE   W24
        BYTE           N56     As2
        BYTE   W08
        BYTE           VOL     42
        BYTE   W06
        BYTE                   41
        BYTE   W03
        BYTE                   40
        BYTE   W03
        BYTE                   39
        BYTE   W06
        BYTE                   38
        BYTE   W03
        BYTE                   37
        BYTE   W03
        BYTE                   36
        BYTE   W03
        BYTE                   35
        BYTE   W04
        BYTE                   34
        BYTE   W02
        BYTE                   32
        BYTE   W01
        BYTE                   30
        BYTE   W02
        BYTE                   29
        BYTE   W01
        BYTE                   27
        BYTE   W02
        BYTE                   26
        BYTE   W01
// 021   ----------------------------------------
        BYTE                   24
        BYTE   W02
        BYTE                   23
        BYTE   W01
        BYTE                   21
        BYTE   W02
        BYTE                   19
        BYTE   W01
        BYTE                   18
        BYTE   W02
        BYTE                   16
        BYTE   W01
        BYTE                   15
        BYTE   W01
        BYTE                   16
        BYTE   W01
        BYTE                   19
        BYTE   W01
        BYTE                   21
        BYTE   W01
        BYTE                   22
        BYTE   W01
        BYTE                   25
        BYTE   W01
        BYTE                   27
        BYTE   W01
        BYTE                   28
        BYTE   W01
        BYTE                   31
        BYTE   W01
        BYTE                   32
        BYTE   W01
        BYTE                   34
        BYTE   W01
        BYTE                   37
        BYTE   W01
        BYTE                   38
        BYTE   W01
        BYTE                   40
        BYTE   W01
        BYTE                   43
        BYTE   W01
        BYTE                   45
        BYTE           N23     Fn1
        BYTE           N23     An2
        BYTE   W24
        BYTE                   An1
        BYTE           N23     Cn3
        BYTE   W24
        BYTE                   Ds2
        BYTE           N44     Fn3   v071   gtp3
        BYTE   W24
// 022   ----------------------------------------
        BYTE                   Cn2
        BYTE   W24
        BYTE           N23     Gn3
        BYTE   W24
        BYTE           N44     As1   v071   gtp3
        BYTE           N23     Dn3
        BYTE   W24
        BYTE                   Ds3
        BYTE   W24
// 023   ----------------------------------------
        BYTE           N22     Dn2
        BYTE           N44     Fn3   v071   gtp3
        BYTE   W24
        BYTE           N22     Cn2
        BYTE   W24
        BYTE           N44     As1   v071   gtp3
        BYTE                   Dn3
        BYTE   W48
// 024   ----------------------------------------
        BYTE           N23     Gn1
        BYTE           N44     Cn3   v071   gtp3
        BYTE   W24
        BYTE           N23     An1
        BYTE   W24
        BYTE                   Cn2
        BYTE           N23     Fn3
        BYTE   W24
        BYTE                   Ds2
        BYTE           N23     Gn3
        BYTE   W24
// 025   ----------------------------------------
        BYTE                   Fn2
        BYTE           N23     An3
        BYTE   W24
        BYTE                   An2
        BYTE           N23     Cn4
        BYTE   W24
        BYTE           N44     Cn2   v071   gtp3
        BYTE           N23     Fn3
        BYTE   W48
// 026   ----------------------------------------
        BYTE           N92     Gs2   v071   gtp3
        BYTE   W96
// 027   ----------------------------------------
        BYTE                   As2
        BYTE   W96
// 028   ----------------------------------------
        BYTE                   Ds2
        BYTE   W96
// 029   ----------------------------------------
        BYTE                   Fn2
        BYTE   W96
// 030   ----------------------------------------
        BYTE                   Gs2
        BYTE   W96
// 031   ----------------------------------------
        BYTE                   Cn3
        BYTE   W96
// 032   ----------------------------------------
        BYTE                   As2
        BYTE   W96
// 033   ----------------------------------------
        BYTE                   Gn2
        BYTE   W96
// 034   ----------------------------------------
        BYTE           N36     Ds3   v066
        BYTE   W05
        BYTE           VOL     44
        BYTE   W06
        BYTE                   43
        BYTE   W03
        BYTE                   42
        BYTE   W05
        BYTE                   41
        BYTE   W08
        BYTE                   42
        BYTE   W09
        BYTE           N32     Gn3   v066   gtp3
        BYTE   W02
        BYTE           VOL     43
        BYTE   W08
        BYTE                   44
        BYTE   W12
        BYTE                   45
        BYTE   W14
        BYTE           N44     Ds3   v066   gtp3
        BYTE   W03
        BYTE           VOL     44
        BYTE   W21
// 035   ----------------------------------------
        BYTE   W05
        BYTE                   43
        BYTE   W17
        BYTE                   42
        BYTE   W02
        BYTE           N23     Cn3
        BYTE   W24
        BYTE           VOL     41
        BYTE           N23     As2
        BYTE   W24
        BYTE                   Gs2
        BYTE   W02
        BYTE           VOL     40
        BYTE   W17
        BYTE                   39
        BYTE   W05
// 036   ----------------------------------------
        BYTE           N32     As2   v066   gtp3
        BYTE   W10
        BYTE           VOL     40
        BYTE   W07
        BYTE                   41
        BYTE   W10
        BYTE                   42
        BYTE   W09
        BYTE           N32     Ds3   v066   gtp3
        BYTE   W01
        BYTE           VOL     43
        BYTE   W07
        BYTE                   44
        BYTE   W10
        BYTE                   45
        BYTE   W18
        BYTE           N32     Fn3   v066   gtp3
        BYTE   W24
// 037   ----------------------------------------
        BYTE   W10
        BYTE           VOL     44
        BYTE   W02
        BYTE           N80     Ds3   v066   gtp3
        BYTE   W08
        BYTE           VOL     43
        BYTE   W06
        BYTE                   42
        BYTE   W09
        BYTE                   41
        BYTE   W09
        BYTE                   40
        BYTE   W06
        BYTE                   39
        BYTE   W06
        BYTE                   38
        BYTE   W02
        BYTE                   37
        BYTE   W03
        BYTE                   36
        BYTE   W01
        BYTE                   35
        BYTE   W02
        BYTE                   34
        BYTE   W03
        BYTE                   32
        BYTE   W03
        BYTE                   31
        BYTE   W01
        BYTE                   30
        BYTE   W02
        BYTE                   29
        BYTE   W01
        BYTE                   28
        BYTE   W03
        BYTE                   27
        BYTE   W02
        BYTE                   26
        BYTE   W01
        BYTE                   25
        BYTE   W02
        BYTE                   24
        BYTE   W01
        BYTE                   23
        BYTE   W03
        BYTE                   22
        BYTE   W02
        BYTE                   21
        BYTE   W01
        BYTE                   20
        BYTE   W02
        BYTE                   19
        BYTE   W01
        BYTE                   18
        BYTE   W03
        BYTE                   17
        BYTE   W01
// 038   ----------------------------------------
        BYTE           N11     Gn2
        BYTE           N11     Dn2
        BYTE   W36
        BYTE                   Gn2   v075
        BYTE           N11     Dn2
        BYTE   W36
        BYTE                   Gn2   v090
        BYTE           N11     Dn2
        BYTE   W24
// 039   ----------------------------------------
        BYTE                   Gn2
        BYTE           N11     Dn2
        BYTE   W36
        BYTE                   Gn2   v067
        BYTE           N11     Dn2
        BYTE   W36
        BYTE                   Dn2   v090
        BYTE           N11     Gn2
        BYTE   W24
// 040   ----------------------------------------
        BYTE           VOL     50
        BYTE   GoTo
         POIN2  EndlessBattle_1_LOOP
        BYTE   FINE

//****************** Track 2 (Midi-Chn.2) ******************//

EndlessBattle_2:
        BYTE   KEYSH   EndlessBattle_key+0
// 000   ----------------------------------------
        BYTE           VOICE   51
        BYTE           VOL     47
        BYTE           PAN     c_v+15
        BYTE           N11     Cn3   v066
        BYTE   W12
        BYTE           N05     Gn2   v061
        BYTE   W12
        BYTE                   Gn2   v074
        BYTE   W12
        BYTE           N11     Cn3   v075
        BYTE   W12
        BYTE           N04     Gn2   v074
        BYTE   W12
        BYTE                   Gn2   v061
        BYTE   W12
        BYTE           N11     Cn3   v090
        BYTE   W12
        BYTE           N05     Gn2   v061
        BYTE   W12
// 001   ----------------------------------------
        BYTE           N11     Bn2   v107
        BYTE   W12
        BYTE           N04     Gn2   v061
        BYTE   W12
        BYTE                   Gn2   v074
        BYTE   W12
        BYTE           N11     Bn2   v084
        BYTE   W12
        BYTE           N05     Gn2   v074
        BYTE   W12
        BYTE           N04     Gn2   v061
        BYTE   W12
        BYTE           N11     Bn2   v090
        BYTE   W12
        BYTE           N05     Gn2   v061
        BYTE   W12
// 002   ----------------------------------------
EndlessBattle_2_LOOP:
        BYTE           N11     Dn3   v104
        BYTE   W12
        BYTE           N05     Gn2   v074
        BYTE   W12
        BYTE           N11     Dn3   v069
        BYTE   W12
        BYTE           N05     Gn2   v074
        BYTE   W12
        BYTE           N11     Dn3   v081
        BYTE   W12
        BYTE           N05     Gn2   v074
        BYTE   W12
        BYTE           N11     Dn3   v070
        BYTE   W12
        BYTE           N04     Gn2   v074
        BYTE   W12
// 003   ----------------------------------------
        BYTE           N11     Cn3   v104
        BYTE   W12
        BYTE           N05     Fn2   v074
        BYTE   W12
        BYTE           N11     Cn3   v069
        BYTE   W12
        BYTE           N05     Fn2   v074
        BYTE   W12
        BYTE           N11     Cn3   v081
        BYTE   W12
        BYTE           N04     Fn2   v074
        BYTE   W12
        BYTE           N11     Cn3   v070
        BYTE   W12
        BYTE           N05     Fn2   v074
        BYTE   W12
// 004   ----------------------------------------
        BYTE           N11     As2   v104
        BYTE   W12
        BYTE           N05     Gn2   v074
        BYTE   W12
        BYTE           N11     As2   v069
        BYTE   W12
        BYTE           N05     Gn2   v074
        BYTE   W12
        BYTE           N11     As2   v081
        BYTE   W12
        BYTE           N05     Gn2   v074
        BYTE   W12
        BYTE           N11     As2   v070
        BYTE   W12
        BYTE           N05     Gn2   v074
        BYTE   W12
// 005   ----------------------------------------
        BYTE           N11     An2   v104
        BYTE   W12
        BYTE           N04     Fn2   v074
        BYTE   W12
        BYTE           N11     An2   v069
        BYTE   W12
        BYTE           N05     Fn2   v074
        BYTE   W12
        BYTE           N11     An2   v081
        BYTE   W12
        BYTE           N05     Fn2   v074
        BYTE   W12
        BYTE           N11     An2   v070
        BYTE   W12
        BYTE           N05     Fn2   v074
        BYTE   W12
// 006   ----------------------------------------
        BYTE           N11     Gn2   v104
        BYTE   W12
        BYTE           N05     Ds2   v074
        BYTE   W12
        BYTE           N11     Gn2   v069
        BYTE   W12
        BYTE           N05     Ds2   v074
        BYTE   W12
        BYTE           N11     Gn2   v081
        BYTE   W12
        BYTE           N05     Ds2   v074
        BYTE   W12
        BYTE           N11     Gn2   v070
        BYTE   W12
        BYTE           N05     Ds2   v074
        BYTE   W12
// 007   ----------------------------------------
        BYTE           N11     Gn2   v104
        BYTE   W12
        BYTE           N04     Ds2   v074
        BYTE   W12
        BYTE           N11     Gn2   v069
        BYTE   W12
        BYTE           N05     Ds2   v074
        BYTE   W12
        BYTE           N11     Gn2   v081
        BYTE   W12
        BYTE           N05     Ds2   v074
        BYTE   W12
        BYTE           N11     Gn2   v070
        BYTE   W12
        BYTE           N05     Ds2   v074
        BYTE   W12
// 008   ----------------------------------------
        BYTE           N11     Fn2   v104
        BYTE   W12
        BYTE           N04     Dn2   v074
        BYTE   W12
        BYTE           N11     Fn2   v069
        BYTE   W12
        BYTE           N04     Dn2   v074
        BYTE   W12
        BYTE           N11     Gs2   v081
        BYTE   W12
        BYTE           N04     Fn2   v074
        BYTE   W12
        BYTE           N11     Gs2   v070
        BYTE   W12
        BYTE           N04     Fn2   v074
        BYTE   W12
// 009   ----------------------------------------
        BYTE           N11     Cn3   v104
        BYTE   W12
        BYTE           N05     Gn2   v074
        BYTE   W12
        BYTE           N11     Cn3   v069
        BYTE   W12
        BYTE           N04     Gn2   v074
        BYTE   W12
        BYTE           N11     Bn2   v081
        BYTE   W12
        BYTE           N05     Gn2   v074
        BYTE   W12
        BYTE           N11     Bn2   v070
        BYTE   W12
        BYTE           N04     Gn2   v074
        BYTE   W12
// 010   ----------------------------------------
        BYTE           N11     Dn3   v104
        BYTE   W12
        BYTE           N05     Gn2   v074
        BYTE   W12
        BYTE           N11     Dn3   v069
        BYTE   W12
        BYTE           N05     Gn2   v074
        BYTE   W12
        BYTE           N11     Dn3   v081
        BYTE   W12
        BYTE           N05     Gn2   v074
        BYTE   W12
        BYTE           N11     Dn3   v070
        BYTE   W12
        BYTE           N05     Gn2   v074
        BYTE   W12
// 011   ----------------------------------------
        BYTE           N11     Cn3   v104
        BYTE   W12
        BYTE           N04     Fn2   v074
        BYTE   W12
        BYTE           N11     Cn3   v069
        BYTE   W12
        BYTE           N04     Fn2   v074
        BYTE   W12
        BYTE           N11     Cn3   v081
        BYTE   W12
        BYTE           N05     Fn2   v074
        BYTE   W12
        BYTE           N11     Cn3   v070
        BYTE   W12
        BYTE           N04     Fn2   v074
        BYTE   W12
// 012   ----------------------------------------
        BYTE           N11     An2   v104
        BYTE   W12
        BYTE           N04     Fn2   v074
        BYTE   W12
        BYTE           N11     An2   v069
        BYTE   W12
        BYTE           N04     Fn2   v074
        BYTE   W12
        BYTE           N11     An2   v081
        BYTE   W12
        BYTE           N05     Fn2   v074
        BYTE   W12
        BYTE           N11     An2   v070
        BYTE   W12
        BYTE           N04     Fn2   v074
        BYTE   W12
// 013   ----------------------------------------
        BYTE           N11     As2   v104
        BYTE   W12
        BYTE           N05     Gn2   v074
        BYTE   W12
        BYTE           N11     As2   v069
        BYTE   W12
        BYTE           N04     Gn2   v074
        BYTE   W12
        BYTE           N11     As2   v081
        BYTE   W12
        BYTE           N04     Gn2   v074
        BYTE   W12
        BYTE           N11     As2   v070
        BYTE   W12
        BYTE           N05     Gn2   v074
        BYTE   W12
// 014   ----------------------------------------
        BYTE           N11     Gs2   v104
        BYTE   W12
        BYTE           N05     Fn2   v074
        BYTE   W12
        BYTE           N11     Gs2   v069
        BYTE   W12
        BYTE           N05     Fn2   v074
        BYTE   W12
        BYTE           N11     Gs2   v081
        BYTE   W12
        BYTE           N04     Fn2   v074
        BYTE   W12
        BYTE           N11     Gs2   v070
        BYTE   W12
        BYTE           N05     Fn2   v074
        BYTE   W12
// 015   ----------------------------------------
        BYTE           N11     Gs2   v104
        BYTE   W12
        BYTE           N05     Fn2   v074
        BYTE   W12
        BYTE           N11     Gs2   v069
        BYTE   W12
        BYTE           N05     Fn2   v074
        BYTE   W12
        BYTE           N11     Gs2   v081
        BYTE   W12
        BYTE           N04     Fn2   v074
        BYTE   W12
        BYTE           N11     Gs2   v070
        BYTE   W12
        BYTE           N04     Fn2   v074
        BYTE   W12
// 016   ----------------------------------------
        BYTE           N11     Cn3   v104
        BYTE   W12
        BYTE           N05     An2   v074
        BYTE   W12
        BYTE           N11     Cn3   v069
        BYTE   W12
        BYTE           N05     An2   v074
        BYTE   W12
        BYTE           N11     Cn3   v081
        BYTE   W12
        BYTE           N05     An2   v074
        BYTE   W12
        BYTE           N11     Cn3   v070
        BYTE   W12
        BYTE           N05     An2   v074
        BYTE   W12
// 017   ----------------------------------------
        BYTE           N11     Cn3   v104
        BYTE   W12
        BYTE           N05     Gn2   v074
        BYTE   W12
        BYTE           N11     Dn3   v069
        BYTE   W12
        BYTE           N04     Cn3   v074
        BYTE   W12
        BYTE           N11     Bn2   v081
        BYTE   W12
        BYTE           N04     Gn2   v074
        BYTE   W12
        BYTE           N11     Bn2   v070
        BYTE   W12
        BYTE           N05     Gn2   v074
        BYTE   W12
// 018   ----------------------------------------
        BYTE   W96
// 019   ----------------------------------------
        BYTE   W96
// 020   ----------------------------------------
        BYTE   W96
// 021   ----------------------------------------
        BYTE   W96
// 022   ----------------------------------------
        BYTE   W96
// 023   ----------------------------------------
        BYTE   W96
// 024   ----------------------------------------
        BYTE   W96
// 025   ----------------------------------------
        BYTE   W96
// 026   ----------------------------------------
        BYTE   W96
// 027   ----------------------------------------
        BYTE   W96
// 028   ----------------------------------------
        BYTE   W96
// 029   ----------------------------------------
        BYTE   W96
// 030   ----------------------------------------
        BYTE   W96
// 031   ----------------------------------------
        BYTE   W96
// 032   ----------------------------------------
        BYTE   W96
// 033   ----------------------------------------
        BYTE   W96
// 034   ----------------------------------------
        BYTE   W96
// 035   ----------------------------------------
        BYTE   W96
// 036   ----------------------------------------
        BYTE   W96
// 037   ----------------------------------------
        BYTE   W96
// 038   ----------------------------------------
        BYTE           N11     Cn3   v066
        BYTE   W12
        BYTE           N05     Gn2   v061
        BYTE   W12
        BYTE                   Gn2   v074
        BYTE   W12
        BYTE           N11     Cn3   v075
        BYTE   W12
        BYTE           N05     Gn2   v074
        BYTE   W12
        BYTE           N04     Gn2   v061
        BYTE   W12
        BYTE           N11     Cn3   v090
        BYTE   W12
        BYTE           N05     Gn2   v061
        BYTE   W12
// 039   ----------------------------------------
        BYTE           N11     Bn2   v090
        BYTE   W12
        BYTE           N04     Gn2   v061
        BYTE   W12
        BYTE                   Gn2   v074
        BYTE   W12
        BYTE           N11     Bn2   v067
        BYTE   W12
        BYTE           N05     Gn2   v074
        BYTE   W12
        BYTE                   Gn2   v061
        BYTE   W12
        BYTE           N11     Bn2   v090
        BYTE   W12
        BYTE           N05     Gn2   v061
        BYTE   W12
// 040   ----------------------------------------
        BYTE   GoTo
         POIN2  EndlessBattle_2_LOOP
        BYTE   FINE

//****************** Track 3 (Midi-Chn.3) ******************//

EndlessBattle_3:
        BYTE   KEYSH   EndlessBattle_key+0
// 000   ----------------------------------------
        BYTE           VOICE   76
        BYTE           PAN     c_v+37
        BYTE           VOL     31
        BYTE   W96
// 001   ----------------------------------------
        BYTE   W92
        BYTE   W01
        BYTE                   45
        BYTE   W03
// 002   ----------------------------------------
EndlessBattle_3_LOOP:
        BYTE           N36     Ds4   v107
        BYTE   W02
        BYTE           VOL     44
        BYTE   W01
        BYTE                   42
        BYTE   W01
        BYTE                   40
        BYTE   W01
        BYTE                   37
        BYTE   W01
        BYTE                   35
        BYTE   W01
        BYTE                   32
        BYTE   W11
        BYTE                   34
        BYTE   W02
        BYTE                   36
        BYTE   W01
        BYTE                   38
        BYTE   W02
        BYTE                   40
        BYTE   W01
        BYTE                   42
        BYTE   W02
        BYTE                   44
        BYTE   W01
        BYTE                   45
        BYTE   W02
        BYTE                   47
        BYTE   W01
        BYTE                   49
        BYTE   W01
        BYTE                   47
        BYTE   W02
        BYTE                   45
        BYTE   W01
        BYTE                   43
        BYTE   W01
        BYTE                   42
        BYTE   W01
        BYTE           N06     Fn4
        BYTE   W02
        BYTE           VOL     43
        BYTE   W02
        BYTE                   44
        BYTE   W02
        BYTE           N06     Gn4
        BYTE   W01
        BYTE           VOL     45
        BYTE   W01
        BYTE                   46
        BYTE   W02
        BYTE                   47
        BYTE   W02
        BYTE           N56     Cn5   v107   gtp3
        BYTE   W01
        BYTE           VOL     49
        BYTE   W02
        BYTE                   47
        BYTE   W01
        BYTE                   44
        BYTE   W02
        BYTE                   42
        BYTE   W01
        BYTE                   40
        BYTE   W02
        BYTE                   37
        BYTE   W01
        BYTE                   35
        BYTE   W01
        BYTE                   33
        BYTE   W08
        BYTE                   34
        BYTE   W13
        BYTE                   35
        BYTE   W01
        BYTE                   36
        BYTE   W02
        BYTE                   37
        BYTE   W01
        BYTE                   38
        BYTE   W02
        BYTE                   39
        BYTE   W01
        BYTE                   40
        BYTE   W02
        BYTE                   41
        BYTE   W01
        BYTE                   42
        BYTE   W02
        BYTE                   43
        BYTE   W01
        BYTE                   44
        BYTE   W02
        BYTE                   45
        BYTE   W01
// 003   ----------------------------------------
        BYTE                   46
        BYTE   W02
        BYTE                   47
        BYTE   W01
        BYTE                   48
        BYTE   W15
        BYTE           N03     Cn5   v082
        BYTE   W03
        BYTE                   Cs5
        BYTE   W03
        BYTE           N24     Dn5   v101
        BYTE   W02
        BYTE           VOL     47
        BYTE   W01
        BYTE                   46
        BYTE   W01
        BYTE                   45
        BYTE   W01
        BYTE                   42
        BYTE   W01
        BYTE                   41
        BYTE   W01
        BYTE                   40
        BYTE   W01
        BYTE                   38
        BYTE   W01
        BYTE                   36
        BYTE   W02
        BYTE                   37
        BYTE   W01
        BYTE                   39
        BYTE   W02
        BYTE                   40
        BYTE   W01
        BYTE                   41
        BYTE   W02
        BYTE                   42
        BYTE   W01
        BYTE                   44
        BYTE   W02
        BYTE                   45
        BYTE   W01
        BYTE                   46
        BYTE   W02
        BYTE                   47
        BYTE   W01
        BYTE                   49
        BYTE           N24     As4   v107
        BYTE   W13
        BYTE           VOL     48
        BYTE   W08
        BYTE                   47
        BYTE   W03
        BYTE           N24     Fn4
        BYTE   W05
        BYTE           VOL     46
        BYTE   W03
        BYTE                   45
        BYTE   W03
        BYTE                   44
        BYTE   W03
        BYTE                   43
        BYTE   W03
        BYTE                   42
        BYTE   W03
        BYTE                   41
        BYTE   W03
        BYTE                   40
        BYTE   W01
// 004   ----------------------------------------
        BYTE           N18     Gn4
        BYTE   W18
        BYTE           N06     Fn4
        BYTE   W01
        BYTE           VOL     41
        BYTE   W05
        BYTE           N96     Gn4
        BYTE   W02
        BYTE           VOL     39
        BYTE   W01
        BYTE                   37
        BYTE   W01
        BYTE                   35
        BYTE   W01
        BYTE                   32
        BYTE   W01
        BYTE                   30
        BYTE   W03
        BYTE                   31
        BYTE   W03
        BYTE                   32
        BYTE   W06
        BYTE                   33
        BYTE   W01
        BYTE                   34
        BYTE   W01
        BYTE                   35
        BYTE   W02
        BYTE                   37
        BYTE   W01
        BYTE                   38
        BYTE   W02
        BYTE                   40
        BYTE   W01
        BYTE                   41
        BYTE   W02
        BYTE                   43
        BYTE   W01
        BYTE                   44
        BYTE   W02
        BYTE                   46
        BYTE   W01
        BYTE                   48
        BYTE   W03
        BYTE                   47
        BYTE   W03
        BYTE                   46
        BYTE   W03
        BYTE                   45
        BYTE   W03
        BYTE                   44
        BYTE   W03
        BYTE                   43
        BYTE   W03
        BYTE                   42
        BYTE   W03
        BYTE                   41
        BYTE   W03
        BYTE                   40
        BYTE   W03
        BYTE                   39
        BYTE   W04
        BYTE                   38
        BYTE   W02
        BYTE                   37
        BYTE   W01
        BYTE                   36
        BYTE   W03
        BYTE                   35
        BYTE   W02
        BYTE                   34
        BYTE   W01
// 005   ----------------------------------------
        BYTE   W02
        BYTE                   33
        BYTE   W01
        BYTE                   32
        BYTE   W03
        BYTE                   31
        BYTE   W02
        BYTE                   30
        BYTE   W01
        BYTE                   29
        BYTE   W03
        BYTE                   28
        BYTE   W02
        BYTE                   27
        BYTE   W01
        BYTE                   26
        BYTE   W02
        BYTE                   25
        BYTE   W03
        BYTE                   24
        BYTE   W01
        BYTE                   23
        BYTE   W02
        BYTE                   22
        BYTE   W03
        BYTE                   21
        BYTE   W01
        BYTE                   20
        BYTE   W01
        BYTE                   19
        BYTE   W02
        BYTE                   21
        BYTE   W01
        BYTE                   24
        BYTE   W02
        BYTE                   25
        BYTE   W01
        BYTE                   28
        BYTE   W02
        BYTE                   30
        BYTE   W01
        BYTE                   32
        BYTE   W02
        BYTE                   34
        BYTE   W01
        BYTE                   36
        BYTE   W02
        BYTE                   38
        BYTE           N03     As4   v082
        BYTE   W01
        BYTE           VOL     40
        BYTE   W02
        BYTE                   42
        BYTE           N03     Bn4
        BYTE   W01
        BYTE           VOL     45
        BYTE   W02
        BYTE                   44
        BYTE           N24     Cn5   v107
        BYTE   W01
        BYTE           VOL     42
        BYTE   W02
        BYTE                   41
        BYTE   W01
        BYTE                   40
        BYTE   W02
        BYTE                   39
        BYTE   W01
        BYTE                   38
        BYTE   W01
        BYTE                   37
        BYTE   W14
        BYTE                   38
        BYTE   W02
        BYTE           N24     As4
        BYTE   W07
        BYTE           VOL     39
        BYTE   W03
        BYTE                   40
        BYTE   W02
        BYTE                   41
        BYTE   W01
        BYTE                   42
        BYTE   W03
        BYTE                   43
        BYTE   W02
        BYTE                   44
        BYTE   W03
        BYTE                   45
        BYTE   W02
        BYTE                   46
        BYTE   W01
// 006   ----------------------------------------
        BYTE                   45
        BYTE           N32     Gn4   v107   gtp3
        BYTE   W01
        BYTE           VOL     42
        BYTE   W01
        BYTE                   41
        BYTE   W01
        BYTE                   40
        BYTE   W01
        BYTE                   37
        BYTE   W06
        BYTE                   38
        BYTE   W03
        BYTE                   39
        BYTE   W06
        BYTE                   40
        BYTE   W02
        BYTE                   41
        BYTE   W01
        BYTE                   42
        BYTE   W03
        BYTE                   43
        BYTE   W02
        BYTE                   44
        BYTE   W01
        BYTE                   45
        BYTE   W03
        BYTE                   46
        BYTE   W02
        BYTE                   47
        BYTE   W01
        BYTE                   48
        BYTE   W02
        BYTE           N06
        BYTE   W06
        BYTE                   Gs4
        BYTE   W06
        BYTE           N48     Fn4
        BYTE   W08
        BYTE           VOL     47
        BYTE   W06
        BYTE                   46
        BYTE   W03
        BYTE                   45
        BYTE   W07
        BYTE                   44
        BYTE   W03
        BYTE                   42
        BYTE   W01
        BYTE                   41
        BYTE   W02
        BYTE                   40
        BYTE   W01
        BYTE                   39
        BYTE   W02
        BYTE                   38
        BYTE   W01
        BYTE                   37
        BYTE   W02
        BYTE                   35
        BYTE   W01
        BYTE                   34
        BYTE   W02
        BYTE                   33
        BYTE   W01
        BYTE                   32
        BYTE   W02
        BYTE                   31
        BYTE   W01
        BYTE                   30
        BYTE   W02
        BYTE                   29
        BYTE   W01
        BYTE                   27
        BYTE   W02
// 007   ----------------------------------------
        BYTE                   26
        BYTE   W01
        BYTE                   25
        BYTE   W01
        BYTE                   24
        BYTE   W02
        BYTE                   25
        BYTE   W03
        BYTE                   27
        BYTE   W03
        BYTE                   29
        BYTE   W03
        BYTE                   30
        BYTE   W01
        BYTE                   31
        BYTE   W02
        BYTE                   32
        BYTE   W01
        BYTE                   33
        BYTE   W02
        BYTE                   34
        BYTE   W01
        BYTE                   35
        BYTE   W04
        BYTE                   36
        BYTE           N24     Gn4
        BYTE   W03
        BYTE           VOL     37
        BYTE   W03
        BYTE                   38
        BYTE   W02
        BYTE                   39
        BYTE   W01
        BYTE                   40
        BYTE   W02
        BYTE                   41
        BYTE   W01
        BYTE                   43
        BYTE   W02
        BYTE                   44
        BYTE   W01
        BYTE                   45
        BYTE   W02
        BYTE                   47
        BYTE   W01
        BYTE                   48
        BYTE   W01
        BYTE                   49
        BYTE   W05
        BYTE           N18     Cn4
        BYTE   W02
        BYTE           VOL     48
        BYTE   W01
        BYTE                   47
        BYTE   W02
        BYTE                   46
        BYTE   W01
        BYTE                   45
        BYTE   W02
        BYTE                   44
        BYTE   W01
        BYTE                   43
        BYTE   W09
        BYTE                   44
        BYTE           N18     Dn4
        BYTE   W09
        BYTE           VOL     45
        BYTE   W09
        BYTE                   46
        BYTE           N12     Ds4
        BYTE   W06
        BYTE           VOL     47
        BYTE   W06
// 008   ----------------------------------------
        BYTE                   48
        BYTE           N18     Gn4
        BYTE   W02
        BYTE           VOL     47
        BYTE   W01
        BYTE                   45
        BYTE   W02
        BYTE                   44
        BYTE   W01
        BYTE                   43
        BYTE   W02
        BYTE                   41
        BYTE   W01
        BYTE                   40
        BYTE   W01
        BYTE                   39
        BYTE   W03
        BYTE                   40
        BYTE   W03
        BYTE                   41
        BYTE   W02
        BYTE           N06     Fn4
        BYTE   W01
        BYTE           VOL     42
        BYTE   W02
        BYTE                   43
        BYTE   W01
        BYTE                   44
        BYTE   W02
        BYTE           TIE     Gn4
        BYTE   W01
        BYTE           VOL     45
        BYTE   W01
        BYTE                   44
        BYTE   W01
        BYTE                   42
        BYTE   W01
        BYTE                   40
        BYTE   W01
        BYTE                   39
        BYTE   W01
        BYTE                   36
        BYTE   W01
        BYTE                   34
        BYTE   W01
        BYTE                   33
        BYTE   W01
        BYTE                   31
        BYTE   W03
        BYTE                   32
        BYTE   W03
        BYTE                   33
        BYTE   W03
        BYTE                   34
        BYTE   W06
        BYTE                   35
        BYTE   W03
        BYTE                   36
        BYTE   W01
        BYTE                   38
        BYTE   W02
        BYTE                   40
        BYTE   W01
        BYTE                   42
        BYTE   W02
        BYTE                   44
        BYTE   W01
        BYTE                   47
        BYTE   W07
        BYTE                   46
        BYTE   W03
        BYTE                   45
        BYTE   W03
        BYTE                   44
        BYTE   W06
        BYTE                   42
        BYTE   W05
        BYTE                   41
        BYTE   W03
        BYTE                   40
        BYTE   W06
        BYTE                   39
        BYTE   W05
// 009   ----------------------------------------
        BYTE   W01
        BYTE                   38
        BYTE   W06
        BYTE                   37
        BYTE   W06
        BYTE                   36
        BYTE   W03
        BYTE                   35
        BYTE   W06
        BYTE                   34
        BYTE   W01
        BYTE                   33
        BYTE   W02
        BYTE                   32
        BYTE   W01
        BYTE                   31
        BYTE   W02
        BYTE                   30
        BYTE   W01
        BYTE                   29
        BYTE   W03
        BYTE                   27
        BYTE   W03
        BYTE                   26
        BYTE   W02
        BYTE                   25
        BYTE   W01
        BYTE                   24
        BYTE   W02
        BYTE                   23
        BYTE   W01
        BYTE                   22
        BYTE   W02
        BYTE                   21
        BYTE   W01
        BYTE                   20
        BYTE   W02
        BYTE                   19
        BYTE   W01
        BYTE                   18
        BYTE   W02
        BYTE                   17
        BYTE   W03
        BYTE                   15
        BYTE   W03
        BYTE                   13
        BYTE   W03
        BYTE                   12
        BYTE   W01
        BYTE                   11
        BYTE   W02
        BYTE                   10
        BYTE   W01
        BYTE                   9
        BYTE   W01
        BYTE           EOT
        BYTE   W01
        BYTE           VOL     8
        BYTE   W01
        BYTE                   7
        BYTE   W02
        BYTE                   6
        BYTE   W01
        BYTE                   5
        BYTE   W02
        BYTE                   4
        BYTE   W01
        BYTE                   3
        BYTE   W02
        BYTE                   4
        BYTE   W01
        BYTE                   7
        BYTE   W01
        BYTE                   8
        BYTE   W01
        BYTE                   9
        BYTE   W01
        BYTE                   12
        BYTE   W01
        BYTE                   13
        BYTE   W01
        BYTE                   15
        BYTE   W01
        BYTE                   18
        BYTE   W01
        BYTE                   19
        BYTE   W01
        BYTE                   20
        BYTE   W01
        BYTE                   23
        BYTE   W01
        BYTE                   25
        BYTE   W01
        BYTE                   26
        BYTE   W01
        BYTE                   29
        BYTE   W01
        BYTE                   30
        BYTE   W01
        BYTE                   31
        BYTE   W01
        BYTE                   34
        BYTE   W01
        BYTE                   35
        BYTE   W01
        BYTE                   37
        BYTE   W01
        BYTE                   40
        BYTE   W01
        BYTE                   41
        BYTE   W01
        BYTE                   42
        BYTE   W01
        BYTE                   45
        BYTE   W01
// 010   ----------------------------------------
        BYTE                   47
        BYTE           N36     Ds4
        BYTE   W01
        BYTE           VOL     45
        BYTE   W01
        BYTE                   40
        BYTE   W01
        BYTE                   38
        BYTE   W01
        BYTE                   35
        BYTE   W01
        BYTE                   32
        BYTE   W19
        BYTE                   34
        BYTE   W01
        BYTE                   36
        BYTE   W02
        BYTE                   38
        BYTE   W01
        BYTE                   40
        BYTE   W02
        BYTE                   42
        BYTE   W01
        BYTE                   44
        BYTE   W02
        BYTE                   46
        BYTE   W01
        BYTE                   49
        BYTE   W02
        BYTE           N06     Fn4
        BYTE   W01
        BYTE           VOL     48
        BYTE   W05
        BYTE           N06     Gn4
        BYTE   W01
        BYTE           VOL     47
        BYTE   W05
        BYTE                   46
        BYTE           N56     Cn5   v107   gtp3
        BYTE   W01
        BYTE           VOL     44
        BYTE   W01
        BYTE                   43
        BYTE   W01
        BYTE                   40
        BYTE   W01
        BYTE                   38
        BYTE   W01
        BYTE                   37
        BYTE   W09
        BYTE                   38
        BYTE   W02
        BYTE                   39
        BYTE   W01
        BYTE                   40
        BYTE   W02
        BYTE                   42
        BYTE   W01
        BYTE                   44
        BYTE   W02
        BYTE                   45
        BYTE   W01
        BYTE                   47
        BYTE   W02
        BYTE                   48
        BYTE   W01
        BYTE                   47
        BYTE   W02
        BYTE                   45
        BYTE   W01
        BYTE                   44
        BYTE   W02
        BYTE                   42
        BYTE   W01
        BYTE                   41
        BYTE   W02
        BYTE                   39
        BYTE   W03
        BYTE                   38
        BYTE   W02
        BYTE                   37
        BYTE   W01
        BYTE                   36
        BYTE   W02
        BYTE                   35
        BYTE   W03
        BYTE                   34
        BYTE   W01
        BYTE                   33
        BYTE   W01
        BYTE                   32
        BYTE   W01
// 011   ----------------------------------------
        BYTE                   33
        BYTE   W02
        BYTE                   34
        BYTE   W01
        BYTE                   35
        BYTE   W02
        BYTE                   36
        BYTE   W01
        BYTE                   37
        BYTE   W02
        BYTE                   38
        BYTE   W01
        BYTE                   39
        BYTE   W01
        BYTE                   40
        BYTE   W03
        BYTE                   42
        BYTE   W02
        BYTE                   43
        BYTE   W09
        BYTE           N24
        BYTE   W02
        BYTE           VOL     41
        BYTE   W02
        BYTE                   39
        BYTE   W01
        BYTE                   38
        BYTE   W02
        BYTE                   36
        BYTE   W01
        BYTE                   34
        BYTE   W01
        BYTE                   33
        BYTE   W02
        BYTE                   34
        BYTE   W03
        BYTE                   35
        BYTE   W01
        BYTE                   36
        BYTE   W02
        BYTE                   37
        BYTE   W03
        BYTE                   38
        BYTE   W01
        BYTE                   39
        BYTE   W03
        BYTE                   40
        BYTE           N18     Dn5   v101
        BYTE   W02
        BYTE           VOL     41
        BYTE   W01
        BYTE                   42
        BYTE   W15
        BYTE           N18     Ds5   v091
        BYTE   W10
        BYTE           VOL     43
        BYTE   W06
        BYTE                   44
        BYTE   W02
        BYTE           N12     Fn5   v085
        BYTE   W04
        BYTE           VOL     45
        BYTE   W03
        BYTE                   46
        BYTE   W05
// 012   ----------------------------------------
        BYTE                   47
        BYTE           N40     Gn5   v078   gtp1
        BYTE   W02
        BYTE           VOL     46
        BYTE   W01
        BYTE                   45
        BYTE   W02
        BYTE                   44
        BYTE   W01
        BYTE                   43
        BYTE   W02
        BYTE                   42
        BYTE   W01
        BYTE                   40
        BYTE   W02
        BYTE                   39
        BYTE   W01
        BYTE                   38
        BYTE   W02
        BYTE                   37
        BYTE   W01
        BYTE                   36
        BYTE   W01
        BYTE                   35
        BYTE   W06
        BYTE                   36
        BYTE   W06
        BYTE                   37
        BYTE   W06
        BYTE                   38
        BYTE   W02
        BYTE                   40
        BYTE   W01
        BYTE                   42
        BYTE   W02
        BYTE                   44
        BYTE   W01
        BYTE                   45
        BYTE   W01
        BYTE                   47
        BYTE   W01
        BYTE           N06     Fn5   v085
        BYTE   W06
        BYTE           N48     Cn5   v107
        BYTE   W08
        BYTE           VOL     46
        BYTE   W01
        BYTE                   45
        BYTE   W02
        BYTE                   44
        BYTE   W01
        BYTE                   43
        BYTE   W02
        BYTE                   42
        BYTE   W01
        BYTE                   41
        BYTE   W01
        BYTE                   40
        BYTE   W16
        BYTE                   39
        BYTE   W16
// 013   ----------------------------------------
        BYTE   W02
        BYTE                   38
        BYTE   W01
        BYTE                   37
        BYTE   W01
        BYTE                   36
        BYTE   W06
        BYTE                   35
        BYTE   W06
        BYTE                   34
        BYTE   W06
        BYTE                   33
        BYTE   W02
        BYTE                   32
        BYTE           N24     Gn4
        BYTE   W02
        BYTE           VOL     33
        BYTE   W01
        BYTE                   34
        BYTE   W02
        BYTE                   35
        BYTE   W03
        BYTE                   36
        BYTE   W01
        BYTE                   37
        BYTE   W02
        BYTE                   38
        BYTE   W01
        BYTE                   39
        BYTE   W03
        BYTE                   40
        BYTE   W02
        BYTE                   41
        BYTE   W01
        BYTE                   42
        BYTE   W02
        BYTE                   43
        BYTE   W01
        BYTE                   44
        BYTE   W02
        BYTE                   45
        BYTE   W01
        BYTE                   44
        BYTE           N24     Ds5   v091
        BYTE   W02
        BYTE           VOL     43
        BYTE   W01
        BYTE                   42
        BYTE   W03
        BYTE                   41
        BYTE   W02
        BYTE                   39
        BYTE   W06
        BYTE                   38
        BYTE   W03
        BYTE                   37
        BYTE   W06
        BYTE                   36
        BYTE   W01
        BYTE           N24     Dn5   v101
        BYTE   W16
        BYTE           VOL     37
        BYTE   W03
        BYTE                   39
        BYTE   W03
        BYTE                   40
        BYTE   W01
        BYTE                   42
        BYTE   W01
// 014   ----------------------------------------
        BYTE           N40     Cn5   v107   gtp1
        BYTE   W01
        BYTE           VOL     43
        BYTE   W01
        BYTE                   41
        BYTE   W02
        BYTE                   39
        BYTE   W01
        BYTE                   37
        BYTE   W02
        BYTE                   36
        BYTE   W01
        BYTE                   34
        BYTE   W09
        BYTE                   35
        BYTE   W09
        BYTE                   36
        BYTE   W02
        BYTE                   37
        BYTE   W01
        BYTE                   38
        BYTE   W02
        BYTE                   39
        BYTE   W01
        BYTE                   40
        BYTE   W02
        BYTE                   42
        BYTE   W01
        BYTE                   43
        BYTE   W02
        BYTE                   44
        BYTE   W01
        BYTE                   45
        BYTE   W02
        BYTE                   47
        BYTE   W02
        BYTE           N06     As4
        BYTE   W06
        BYTE           N48     Fn4
        BYTE   W11
        BYTE           VOL     46
        BYTE   W03
        BYTE                   45
        BYTE   W06
        BYTE                   44
        BYTE   W04
        BYTE                   43
        BYTE   W03
        BYTE                   42
        BYTE   W02
        BYTE                   41
        BYTE   W03
        BYTE                   40
        BYTE   W01
        BYTE                   39
        BYTE   W03
        BYTE                   38
        BYTE   W02
        BYTE                   37
        BYTE   W03
        BYTE                   36
        BYTE   W01
        BYTE                   35
        BYTE   W03
        BYTE                   34
        BYTE   W03
// 015   ----------------------------------------
        BYTE                   33
        BYTE   W02
        BYTE                   32
        BYTE   W03
        BYTE                   31
        BYTE   W06
        BYTE                   32
        BYTE   W06
        BYTE                   33
        BYTE   W03
        BYTE                   34
        BYTE   W03
        BYTE                   35
        BYTE   W01
        BYTE                   36
        BYTE           N24
        BYTE   W02
        BYTE           VOL     37
        BYTE   W01
        BYTE                   38
        BYTE   W02
        BYTE                   39
        BYTE   W03
        BYTE                   40
        BYTE   W01
        BYTE                   41
        BYTE   W02
        BYTE                   42
        BYTE   W01
        BYTE                   43
        BYTE   W01
        BYTE                   44
        BYTE   W06
        BYTE                   45
        BYTE   W05
        BYTE                   46
        BYTE           N18     Gn4
        BYTE   W18
        BYTE                   Gs4
        BYTE   W18
        BYTE           N12     As4
        BYTE   W12
// 016   ----------------------------------------
        BYTE           N18     Gn4
        BYTE   W02
        BYTE           VOL     45
        BYTE   W01
        BYTE                   44
        BYTE   W01
        BYTE                   42
        BYTE   W01
        BYTE                   40
        BYTE   W01
        BYTE                   38
        BYTE   W01
        BYTE                   37
        BYTE   W01
        BYTE                   34
        BYTE   W02
        BYTE                   35
        BYTE   W01
        BYTE                   36
        BYTE   W02
        BYTE                   37
        BYTE   W01
        BYTE                   39
        BYTE   W03
        BYTE                   40
        BYTE   W01
        BYTE           N06     Fn4
        BYTE   W01
        BYTE           VOL     42
        BYTE   W01
        BYTE                   43
        BYTE   W02
        BYTE                   44
        BYTE   W01
        BYTE                   45
        BYTE   W01
        BYTE           TIE     Gn4
        BYTE   W02
        BYTE           VOL     44
        BYTE   W01
        BYTE                   42
        BYTE   W01
        BYTE                   40
        BYTE   W01
        BYTE                   39
        BYTE   W01
        BYTE                   38
        BYTE   W01
        BYTE                   35
        BYTE   W20
        BYTE                   37
        BYTE   W01
        BYTE                   40
        BYTE   W02
        BYTE                   42
        BYTE   W01
        BYTE                   44
        BYTE   W06
        BYTE                   43
        BYTE   W06
        BYTE                   42
        BYTE   W09
        BYTE                   41
        BYTE   W06
        BYTE                   40
        BYTE   W09
        BYTE                   39
        BYTE   W05
// 017   ----------------------------------------
        BYTE   W01
        BYTE                   38
        BYTE   W06
        BYTE                   37
        BYTE   W07
        BYTE                   36
        BYTE   W03
        BYTE                   35
        BYTE   W03
        BYTE                   34
        BYTE   W03
        BYTE                   33
        BYTE   W03
        BYTE                   32
        BYTE   W03
        BYTE                   31
        BYTE   W03
        BYTE                   30
        BYTE   W03
        BYTE                   29
        BYTE   W03
        BYTE                   28
        BYTE   W03
        BYTE                   27
        BYTE   W03
        BYTE                   26
        BYTE   W03
        BYTE                   25
        BYTE   W03
        BYTE                   24
        BYTE   W03
        BYTE                   23
        BYTE   W03
        BYTE                   22
        BYTE   W03
        BYTE                   21
        BYTE   W03
        BYTE                   20
        BYTE   W03
        BYTE                   18
        BYTE   W06
        BYTE                   17
        BYTE   W03
        BYTE                   15
        BYTE   W03
        BYTE                   14
        BYTE   W01
        BYTE           EOT
        BYTE   W02
        BYTE           VOL     13
        BYTE   W03
        BYTE                   12
        BYTE   W13
// 018   ----------------------------------------
        BYTE   W96
// 019   ----------------------------------------
        BYTE   W44
        BYTE   W01
        BYTE                   11
        BYTE   W48
        BYTE   W03
// 020   ----------------------------------------
        BYTE   W96
// 021   ----------------------------------------
        BYTE   W07
        BYTE                   10
        BYTE   W88
        BYTE   W01
// 022   ----------------------------------------
        BYTE   W96
// 023   ----------------------------------------
        BYTE   W44
        BYTE   W01
        BYTE                   9
        BYTE   W48
        BYTE   W03
// 024   ----------------------------------------
        BYTE   W24
        BYTE   W02
        BYTE                   10
        BYTE   W01
        BYTE                   12
        BYTE   W01
        BYTE                   13
        BYTE   W01
        BYTE                   16
        BYTE   W01
        BYTE                   18
        BYTE   W01
        BYTE                   19
        BYTE   W01
        BYTE                   22
        BYTE   W01
        BYTE                   24
        BYTE   W01
        BYTE                   25
        BYTE   W01
        BYTE                   29
        BYTE   W01
        BYTE                   30
        BYTE   W01
        BYTE                   32
        BYTE   W01
        BYTE                   35
        BYTE   W01
        BYTE                   36
        BYTE   W01
        BYTE                   38
        BYTE   W01
        BYTE                   41
        BYTE   W01
        BYTE                   42
        BYTE           N03     As4   v081
        BYTE   W01
        BYTE           VOL     44
        BYTE   W02
        BYTE           N03     Bn4
        BYTE   W03
        BYTE           N18     Cn5   v107
        BYTE   W02
        BYTE           VOL     42
        BYTE   W01
        BYTE                   37
        BYTE   W01
        BYTE                   34
        BYTE   W08
        BYTE                   36
        BYTE   W02
        BYTE                   38
        BYTE   W01
        BYTE                   40
        BYTE   W02
        BYTE                   43
        BYTE   W01
        BYTE                   45
        BYTE           N06     Dn5   v105
        BYTE   W06
        BYTE           TIE     Cn5   v107
        BYTE   W03
        BYTE           VOL     44
        BYTE   W02
        BYTE                   43
        BYTE   W01
        BYTE                   42
        BYTE   W02
        BYTE                   40
        BYTE   W01
        BYTE                   39
        BYTE   W02
        BYTE                   38
        BYTE   W01
        BYTE                   37
        BYTE   W02
        BYTE                   36
        BYTE   W03
        BYTE                   35
        BYTE   W07
// 025   ----------------------------------------
        BYTE   W02
        BYTE                   34
        BYTE   W09
        BYTE                   33
        BYTE   W06
        BYTE                   32
        BYTE   W09
        BYTE                   31
        BYTE   W03
        BYTE                   30
        BYTE   W09
        BYTE                   29
        BYTE   W07
        BYTE                   28
        BYTE   W03
        BYTE                   27
        BYTE   W01
        BYTE                   26
        BYTE   W02
        BYTE                   25
        BYTE   W03
        BYTE                   24
        BYTE   W01
        BYTE                   23
        BYTE   W02
        BYTE                   22
        BYTE   W03
        BYTE                   21
        BYTE   W01
        BYTE                   20
        BYTE   W02
        BYTE                   19
        BYTE   W01
        BYTE                   18
        BYTE   W03
        BYTE                   17
        BYTE   W02
        BYTE                   16
        BYTE   W01
        BYTE                   15
        BYTE   W03
        BYTE                   14
        BYTE   W02
        BYTE                   13
        BYTE   W01
        BYTE                   12
        BYTE   W03
        BYTE                   11
        BYTE   W02
        BYTE                   10
        BYTE   W01
        BYTE                   9
        BYTE   W02
        BYTE                   8
        BYTE   W03
        BYTE                   7
        BYTE   W01
        BYTE                   6
        BYTE   W02
        BYTE                   5
        BYTE   W02
        BYTE           EOT
        BYTE   W01
        BYTE           VOL     4
        BYTE   W01
        BYTE                   3
        BYTE   W02
// 026   ----------------------------------------
        BYTE                   2
        BYTE   W96
// 027   ----------------------------------------
        BYTE   W08
        BYTE                   3
        BYTE   W76
        BYTE   W01
        BYTE                   4
        BYTE   W11
// 028   ----------------------------------------
        BYTE   W40
        BYTE                   5
        BYTE   W56
// 029   ----------------------------------------
        BYTE   W21
        BYTE                   6
        BYTE   W48
        BYTE   W03
        BYTE                   7
        BYTE   W24
// 030   ----------------------------------------
        BYTE   W52
        BYTE   W01
        BYTE                   8
        BYTE   W42
        BYTE   W01
// 031   ----------------------------------------
        BYTE   W32
        BYTE   W01
        BYTE                   9
        BYTE   W52
        BYTE                   10
        BYTE   W11
// 032   ----------------------------------------
        BYTE   W66
        BYTE                   11
        BYTE   W30
// 033   ----------------------------------------
        BYTE   W21
        BYTE                   12
        BYTE   W48
        BYTE   W03
        BYTE                   45
        BYTE   W18
        BYTE           N02     Dn5   v034
        BYTE   W02
        BYTE                   Ds5   v055
        BYTE   W02
        BYTE                   En5   v065
        BYTE   W02
// 034   ----------------------------------------
        BYTE           N18     Fn5   v090
        BYTE   W02
        BYTE           VOL     42
        BYTE   W01
        BYTE                   36
        BYTE   W01
        BYTE                   33
        BYTE   W02
        BYTE                   34
        BYTE   W03
        BYTE                   35
        BYTE   W02
        BYTE                   37
        BYTE   W01
        BYTE                   38
        BYTE   W02
        BYTE                   40
        BYTE   W01
        BYTE                   42
        BYTE   W02
        BYTE                   44
        BYTE   W01
        BYTE                   45
        BYTE           N06     Gn5
        BYTE   W06
        BYTE           N12     Fn5
        BYTE   W12
        BYTE           N24     Ds5   v099
        BYTE   W02
        BYTE           VOL     43
        BYTE   W01
        BYTE                   40
        BYTE   W01
        BYTE                   37
        BYTE   W01
        BYTE                   32
        BYTE   W02
        BYTE                   33
        BYTE   W01
        BYTE                   34
        BYTE   W03
        BYTE                   35
        BYTE   W03
        BYTE                   36
        BYTE   W02
        BYTE                   37
        BYTE   W01
        BYTE                   38
        BYTE   W03
        BYTE                   39
        BYTE   W02
        BYTE                   40
        BYTE   W03
        BYTE                   41
        BYTE   W01
        BYTE                   42
        BYTE   W03
        BYTE                   43
        BYTE   W02
        BYTE                   44
        BYTE   W03
        BYTE                   45
        BYTE   W01
        BYTE                   46
        BYTE   W01
        BYTE           N18     Dn5
        BYTE   W01
        BYTE           VOL     42
        BYTE   W01
        BYTE                   39
        BYTE   W01
        BYTE                   37
        BYTE   W01
        BYTE                   34
        BYTE   W03
        BYTE                   35
        BYTE   W03
        BYTE                   36
        BYTE   W02
        BYTE                   37
        BYTE   W02
        BYTE                   40
        BYTE   W01
        BYTE                   42
        BYTE   W01
        BYTE                   43
        BYTE   W01
        BYTE                   46
        BYTE   W01
        BYTE                   47
        BYTE           N06     Ds5
        BYTE   W06
// 035   ----------------------------------------
        BYTE           N12     Dn5
        BYTE   W01
        BYTE           VOL     45
        BYTE   W02
        BYTE                   44
        BYTE   W01
        BYTE                   43
        BYTE   W02
        BYTE                   41
        BYTE   W02
        BYTE                   42
        BYTE   W01
        BYTE                   43
        BYTE   W02
        BYTE                   44
        BYTE   W01
        BYTE                   45
        BYTE           N54     Cn5
        BYTE   W02
        BYTE           VOL     47
        BYTE   W02
        BYTE                   45
        BYTE   W01
        BYTE                   42
        BYTE   W02
        BYTE                   40
        BYTE   W01
        BYTE                   39
        BYTE   W03
        BYTE                   38
        BYTE   W03
        BYTE                   37
        BYTE   W03
        BYTE                   36
        BYTE   W03
        BYTE                   35
        BYTE   W03
        BYTE                   34
        BYTE   W03
        BYTE                   33
        BYTE   W03
        BYTE                   32
        BYTE   W01
        BYTE                   31
        BYTE   W02
        BYTE                   30
        BYTE   W03
        BYTE                   29
        BYTE   W01
        BYTE                   28
        BYTE   W02
        BYTE                   27
        BYTE   W01
        BYTE                   26
        BYTE   W02
        BYTE                   25
        BYTE   W01
        BYTE                   24
        BYTE   W02
        BYTE                   23
        BYTE   W01
        BYTE                   22
        BYTE   W02
        BYTE                   21
        BYTE   W01
        BYTE                   20
        BYTE   W02
        BYTE                   19
        BYTE   W01
        BYTE                   18
        BYTE   W02
        BYTE                   17
        BYTE   W01
        BYTE                   16
        BYTE   W02
        BYTE                   18
        BYTE   W01
        BYTE                   22
        BYTE   W01
        BYTE                   26
        BYTE   W01
        BYTE                   34
        BYTE   W01
        BYTE                   37
        BYTE           N12     Dn5
        BYTE   W03
        BYTE           VOL     38
        BYTE   W03
        BYTE                   39
        BYTE   W03
        BYTE                   40
        BYTE   W03
        BYTE                   41
        BYTE           N12     Ds5
        BYTE   W03
        BYTE           VOL     42
        BYTE   W03
        BYTE                   43
        BYTE   W03
        BYTE                   44
        BYTE   W03
// 036   ----------------------------------------
        BYTE                   45
        BYTE           N18     Fn5   v090
        BYTE   W01
        BYTE           VOL     43
        BYTE   W01
        BYTE                   40
        BYTE   W01
        BYTE                   35
        BYTE   W14
        BYTE                   39
        BYTE   W01
        BYTE                   46
        BYTE           N06     Gn5
        BYTE   W06
        BYTE           N12     Fn5
        BYTE   W03
        BYTE           VOL     45
        BYTE   W09
        BYTE                   44
        BYTE           N30     Ds5   v099
        BYTE   W01
        BYTE           VOL     43
        BYTE   W02
        BYTE                   42
        BYTE   W01
        BYTE                   40
        BYTE   W02
        BYTE                   39
        BYTE   W01
        BYTE                   37
        BYTE   W01
        BYTE                   36
        BYTE   W06
        BYTE                   35
        BYTE   W04
        BYTE                   34
        BYTE   W03
        BYTE                   33
        BYTE   W02
        BYTE                   32
        BYTE   W03
        BYTE                   30
        BYTE   W02
        BYTE                   32
        BYTE   W01
        BYTE                   35
        BYTE   W01
        BYTE           N02     Fn5   v045
        BYTE   W01
        BYTE           VOL     37
        BYTE   W01
        BYTE                   39
        BYTE           N02     Gn5   v061
        BYTE   W02
        BYTE           VOL     41
        BYTE           N02     Gs5   v071
        BYTE   W01
        BYTE           VOL     44
        BYTE   W01
        BYTE           N24     As5   v083
        BYTE   W01
        BYTE           VOL     42
        BYTE   W01
        BYTE                   40
        BYTE   W02
        BYTE                   38
        BYTE   W01
        BYTE                   36
        BYTE   W02
        BYTE                   33
        BYTE   W02
        BYTE                   34
        BYTE   W01
        BYTE                   35
        BYTE   W02
        BYTE                   36
        BYTE   W01
        BYTE                   37
        BYTE   W02
        BYTE                   39
        BYTE   W01
        BYTE                   40
        BYTE   W02
        BYTE                   41
        BYTE   W01
        BYTE                   42
        BYTE   W02
        BYTE                   43
        BYTE   W01
        BYTE                   44
        BYTE   W02
// 037   ----------------------------------------
        BYTE                   45
        BYTE           N06     Gs5   v092
        BYTE   W06
        BYTE                   Gn5
        BYTE   W06
        BYTE           N72     Ds5   v099   gtp2
        BYTE   W02
        BYTE           VOL     44
        BYTE   W01
        BYTE                   40
        BYTE   W01
        BYTE                   39
        BYTE   W01
        BYTE                   37
        BYTE   W01
        BYTE                   34
        BYTE   W07
        BYTE                   35
        BYTE   W03
        BYTE                   36
        BYTE   W03
        BYTE                   37
        BYTE   W06
        BYTE                   38
        BYTE   W03
        BYTE                   39
        BYTE   W03
        BYTE                   40
        BYTE   W08
        BYTE                   39
        BYTE   W03
        BYTE                   38
        BYTE   W03
        BYTE                   37
        BYTE   W03
        BYTE                   36
        BYTE   W03
        BYTE                   35
        BYTE   W03
        BYTE                   34
        BYTE   W03
        BYTE                   33
        BYTE   W03
        BYTE                   32
        BYTE   W03
        BYTE                   31
        BYTE   W03
        BYTE                   30
        BYTE   W02
        BYTE                   28
        BYTE   W01
        BYTE                   26
        BYTE   W02
        BYTE                   24
        BYTE   W01
        BYTE                   22
        BYTE   W02
        BYTE                   20
        BYTE   W01
        BYTE                   18
        BYTE   W02
        BYTE                   16
        BYTE   W01
        BYTE                   14
        BYTE   W02
        BYTE                   12
        BYTE   W01
        BYTE                   10
        BYTE   W02
        BYTE                   8
        BYTE   W01
// 038   ----------------------------------------
        BYTE           N44     Gn3   v107   gtp3
        BYTE   W01
        BYTE           VOL     10
        BYTE   W01
        BYTE                   11
        BYTE   W01
        BYTE                   14
        BYTE   W01
        BYTE                   16
        BYTE   W01
        BYTE                   17
        BYTE   W01
        BYTE                   20
        BYTE   W01
        BYTE                   22
        BYTE   W01
        BYTE                   24
        BYTE   W01
        BYTE                   27
        BYTE   W01
        BYTE                   28
        BYTE   W01
        BYTE                   30
        BYTE   W01
        BYTE                   33
        BYTE   W01
        BYTE                   34
        BYTE   W01
        BYTE                   36
        BYTE   W01
        BYTE                   39
        BYTE   W01
        BYTE                   41
        BYTE   W06
        BYTE                   42
        BYTE   W03
        BYTE                   43
        BYTE   W03
        BYTE                   44
        BYTE   W03
        BYTE                   43
        BYTE   W01
        BYTE                   42
        BYTE   W01
        BYTE                   40
        BYTE   W01
        BYTE                   37
        BYTE   W01
        BYTE                   36
        BYTE   W01
        BYTE                   35
        BYTE   W01
        BYTE                   32
        BYTE   W01
        BYTE                   30
        BYTE   W01
        BYTE                   29
        BYTE   W01
        BYTE                   26
        BYTE   W01
        BYTE                   25
        BYTE   W01
        BYTE                   23
        BYTE   W01
        BYTE                   20
        BYTE   W01
        BYTE                   19
        BYTE   W01
        BYTE                   17
        BYTE   W01
        BYTE                   15
        BYTE   W01
        BYTE                   13
        BYTE   W01
        BYTE                   16
        BYTE           N40     Dn4
        BYTE   W01
        BYTE           VOL     17
        BYTE   W01
        BYTE                   18
        BYTE   W01
        BYTE                   21
        BYTE   W01
        BYTE                   22
        BYTE   W01
        BYTE                   24
        BYTE   W01
        BYTE                   26
        BYTE   W01
        BYTE                   27
        BYTE   W01
        BYTE                   29
        BYTE   W01
        BYTE                   31
        BYTE   W01
        BYTE                   33
        BYTE   W01
        BYTE                   34
        BYTE   W01
        BYTE                   35
        BYTE   W09
        BYTE                   37
        BYTE   W01
        BYTE                   39
        BYTE   W02
        BYTE                   42
        BYTE   W01
        BYTE                   43
        BYTE   W02
        BYTE                   41
        BYTE   W01
        BYTE                   39
        BYTE   W02
        BYTE                   35
        BYTE   W10
        BYTE           N04     Cs4
        BYTE   W04
        BYTE                   Cn4
        BYTE   W04
// 039   ----------------------------------------
        BYTE           N80     Bn3   v107   gtp1
        BYTE   W07
        BYTE           VOL     34
        BYTE   W06
        BYTE                   33
        BYTE   W03
        BYTE                   32
        BYTE   W06
        BYTE                   31
        BYTE   W06
        BYTE                   30
        BYTE   W06
        BYTE                   29
        BYTE   W06
        BYTE                   28
        BYTE   W03
        BYTE                   27
        BYTE   W04
        BYTE                   26
        BYTE   W02
        BYTE                   25
        BYTE   W01
        BYTE                   24
        BYTE   W02
        BYTE                   23
        BYTE   W01
        BYTE                   22
        BYTE   W02
        BYTE                   21
        BYTE   W01
        BYTE                   20
        BYTE   W02
        BYTE                   18
        BYTE   W03
        BYTE                   17
        BYTE   W01
        BYTE                   16
        BYTE   W02
        BYTE                   15
        BYTE   W01
        BYTE                   13
        BYTE   W03
        BYTE                   12
        BYTE   W02
        BYTE                   10
        BYTE   W03
        BYTE                   8
        BYTE   W03
        BYTE                   7
        BYTE   W01
        BYTE                   5
        BYTE   W03
        BYTE                   3
        BYTE   W02
        BYTE                   2
        BYTE   W03
        BYTE                   0
        BYTE   W07
        BYTE                   31
        BYTE   W01
        BYTE                   45
        BYTE   W03
// 040   ----------------------------------------
        BYTE   GoTo
         POIN2  EndlessBattle_3_LOOP
        BYTE   FINE

//****************** Track 4 (Midi-Chn.4) ******************//

EndlessBattle_4:
        BYTE   KEYSH   EndlessBattle_key+0
// 000   ----------------------------------------
        BYTE           VOICE   107
        BYTE           PAN     c_v-35
        BYTE           VOL     54
        BYTE           N11     Cn5   v069
        BYTE           N11     Gn5
        BYTE   W12
        BYTE                   Cn5   v037
        BYTE           N11     Gn5
        BYTE   W12
        BYTE                   Cn5   v015
        BYTE           N11     Gn5
        BYTE   W12
        BYTE                   Cn5   v089
        BYTE           N11     Gn5
        BYTE   W12
        BYTE                   Cn5   v057
        BYTE           N11     Gn5
        BYTE   W12
        BYTE                   Cn5   v035
        BYTE           N11     Gn5
        BYTE   W12
        BYTE                   Cn5   v089
        BYTE           N11     Gn5
        BYTE   W12
        BYTE                   Cn5   v073
        BYTE           N11     Gn5
        BYTE   W12
// 001   ----------------------------------------
EndlessBattle_4_1:
        BYTE           N11     Bn4   v105
        BYTE           N11     Gn5
        BYTE   W12
        BYTE                   Bn4   v073
        BYTE           N11     Gn5
        BYTE   W12
        BYTE                   Bn4   v051
        BYTE           N11     Gn5
        BYTE   W12
        BYTE                   Bn4   v105
        BYTE           N11     Gn5
        BYTE   W12
        BYTE                   Bn4   v073
        BYTE           N11     Gn5
        BYTE   W12
        BYTE                   Bn4   v051
        BYTE           N11     Gn5
        BYTE   W12
        BYTE                   Bn4   v105
        BYTE           N11     Gn5
        BYTE   W12
        BYTE                   Bn4   v073
        BYTE           N11     Gn5
        BYTE   W12
        BYTE   PEND
// 002   ----------------------------------------
EndlessBattle_4_LOOP:
        BYTE   W96
// 003   ----------------------------------------
        BYTE   W96
// 004   ----------------------------------------
        BYTE   W96
// 005   ----------------------------------------
        BYTE   W96
// 006   ----------------------------------------
        BYTE   W96
// 007   ----------------------------------------
        BYTE   W96
// 008   ----------------------------------------
        BYTE   W96
// 009   ----------------------------------------
        BYTE   W96
// 010   ----------------------------------------
        BYTE           VOL     26
        BYTE           N44     Cn2   v096   gtp3
        BYTE                   Gn2
        BYTE   W09
        BYTE           VOL     27
        BYTE   W03
        BYTE                   28
        BYTE   W03
        BYTE                   29
        BYTE   W06
        BYTE                   30
        BYTE   W06
        BYTE                   31
        BYTE   W03
        BYTE                   32
        BYTE   W06
        BYTE                   33
        BYTE   W06
        BYTE                   34
        BYTE   W03
        BYTE                   35
        BYTE   W03
        BYTE                   36
        BYTE           N44     Ds2   v096   gtp3
        BYTE                   Cn3
        BYTE   W09
        BYTE           VOL     37
        BYTE   W03
        BYTE                   38
        BYTE   W03
        BYTE                   39
        BYTE   W06
        BYTE                   40
        BYTE   W06
        BYTE                   41
        BYTE   W03
        BYTE                   42
        BYTE   W06
        BYTE                   43
        BYTE   W06
        BYTE                   44
        BYTE   W03
        BYTE                   45
        BYTE   W03
// 011   ----------------------------------------
        BYTE                   46
        BYTE           N44     Dn2   v096   gtp3
        BYTE                   As2
        BYTE   W06
        BYTE           VOL     45
        BYTE   W07
        BYTE                   44
        BYTE   W06
        BYTE                   43
        BYTE   W10
        BYTE                   42
        BYTE   W06
        BYTE                   41
        BYTE   W07
        BYTE                   40
        BYTE   W06
        BYTE                   39
        BYTE           N44     As1   v096   gtp3
        BYTE                   Fn2
        BYTE   W10
        BYTE           VOL     38
        BYTE   W06
        BYTE                   37
        BYTE   W07
        BYTE                   36
        BYTE   W10
        BYTE                   35
        BYTE   W06
        BYTE                   34
        BYTE   W06
        BYTE                   33
        BYTE   W03
// 012   ----------------------------------------
        BYTE           N36     Cn2
        BYTE           N36     Fn2
        BYTE   W07
        BYTE           VOL     32
        BYTE   W07
        BYTE                   31
        BYTE   W01
        BYTE                   32
        BYTE   W02
        BYTE                   33
        BYTE   W03
        BYTE                   34
        BYTE   W01
        BYTE                   35
        BYTE   W02
        BYTE                   36
        BYTE   W01
        BYTE                   37
        BYTE   W02
        BYTE                   38
        BYTE   W01
        BYTE                   39
        BYTE   W03
        BYTE                   40
        BYTE   W02
        BYTE                   41
        BYTE   W01
        BYTE                   42
        BYTE   W02
        BYTE                   43
        BYTE   W01
        BYTE                   44
        BYTE           N03     Cs2
        BYTE           N03     Gn2
        BYTE   W02
        BYTE           VOL     45
        BYTE   W01
        BYTE                   46
        BYTE           N03     Dn2
        BYTE           N03     An2
        BYTE   W03
        BYTE           VOL     47
        BYTE           N03     Ds2
        BYTE           N03     As2
        BYTE   W02
        BYTE           VOL     48
        BYTE   W01
        BYTE                   49
        BYTE           N03     En2
        BYTE           N03     Cn3
        BYTE   W02
        BYTE           VOL     50
        BYTE   W01
        BYTE                   51
        BYTE           N18     Fn2
        BYTE           N18     Dn3
        BYTE   W18
        BYTE                   Gn2
        BYTE           N18     Ds3
        BYTE   W18
        BYTE           N12     An2
        BYTE           N12     Fn3
        BYTE   W09
        BYTE           VOL     52
        BYTE   W03
// 013   ----------------------------------------
        BYTE           N18     Cn3
        BYTE           N18     Gn3
        BYTE   W18
        BYTE           N06     Gs2
        BYTE           N06     Fn3
        BYTE   W06
        BYTE           N68     Ds2   v096   gtp3
        BYTE                   Cn3
        BYTE   W03
        BYTE           VOL     53
        BYTE   W06
        BYTE                   52
        BYTE   W03
        BYTE                   51
        BYTE   W06
        BYTE                   50
        BYTE   W03
        BYTE                   49
        BYTE   W06
        BYTE                   48
        BYTE   W06
        BYTE                   47
        BYTE   W03
        BYTE                   46
        BYTE   W06
        BYTE                   45
        BYTE   W03
        BYTE                   44
        BYTE   W01
        BYTE                   43
        BYTE   W02
        BYTE                   42
        BYTE   W01
        BYTE                   40
        BYTE   W02
        BYTE                   39
        BYTE   W01
        BYTE                   38
        BYTE   W02
        BYTE                   37
        BYTE   W01
        BYTE                   36
        BYTE   W02
        BYTE                   35
        BYTE   W01
        BYTE                   34
        BYTE   W02
        BYTE                   33
        BYTE   W01
        BYTE                   32
        BYTE   W02
        BYTE                   31
        BYTE   W01
        BYTE                   30
        BYTE   W02
        BYTE                   29
        BYTE   W01
        BYTE                   27
        BYTE   W02
        BYTE                   26
        BYTE   W01
        BYTE                   25
        BYTE   W02
// 014   ----------------------------------------
        BYTE                   24
        BYTE           N44     Cs2   v096   gtp3
        BYTE                   Gs2
        BYTE   W01
        BYTE           VOL     23
        BYTE   W02
        BYTE                   22
        BYTE   W01
        BYTE                   21
        BYTE   W02
        BYTE                   20
        BYTE   W01
        BYTE                   21
        BYTE   W02
        BYTE                   23
        BYTE   W01
        BYTE                   25
        BYTE   W02
        BYTE                   26
        BYTE   W01
        BYTE                   28
        BYTE   W02
        BYTE                   30
        BYTE   W01
        BYTE                   31
        BYTE   W02
        BYTE                   33
        BYTE   W01
        BYTE                   35
        BYTE   W02
        BYTE                   36
        BYTE   W01
        BYTE                   38
        BYTE   W08
        BYTE                   39
        BYTE   W12
        BYTE                   40
        BYTE   W06
        BYTE           N42     Fn2
        BYTE           N36     Cn3   v096   gtp2
        BYTE   W08
        BYTE           VOL     41
        BYTE   W11
        BYTE                   42
        BYTE   W11
        BYTE                   43
        BYTE   W09
        BYTE           N03     Dn3   v104
        BYTE   W03
        BYTE                   Fs2
        BYTE           N03     Ds3
        BYTE   W03
        BYTE                   Gn2
        BYTE           N03     En3
        BYTE   W01
        BYTE           VOL     44
        BYTE   W02
// 015   ----------------------------------------
        BYTE           N44     Gs2   v096   gtp3
        BYTE                   Fn3
        BYTE   W30
        BYTE           VOL     45
        BYTE   W07
        BYTE                   44
        BYTE   W06
        BYTE                   43
        BYTE   W05
        BYTE           N44     Fn2   v096   gtp3
        BYTE                   Cn3
        BYTE   W05
        BYTE           VOL     42
        BYTE   W07
        BYTE                   41
        BYTE   W06
        BYTE                   40
        BYTE   W07
        BYTE                   39
        BYTE   W10
        BYTE                   38
        BYTE   W06
        BYTE                   37
        BYTE   W07
// 016   ----------------------------------------
        BYTE                   36
        BYTE           N44     Fn2   v096   gtp3
        BYTE                   Cn3
        BYTE   W20
        BYTE           VOL     37
        BYTE   W08
        BYTE                   38
        BYTE   W08
        BYTE                   39
        BYTE   W12
        BYTE           N18     Cn2
        BYTE           N18     An2
        BYTE   W01
        BYTE           VOL     40
        BYTE   W08
        BYTE                   41
        BYTE   W08
        BYTE                   42
        BYTE   W01
        BYTE           N03     Dn2
        BYTE           N03     As2
        BYTE   W03
        BYTE                   En2
        BYTE           N03     Bn2
        BYTE   W03
        BYTE           N23     Fn2
        BYTE           N23     Cn3
        BYTE   W02
        BYTE           VOL     43
        BYTE   W12
        BYTE                   44
        BYTE   W08
        BYTE                   45
        BYTE   W02
// 017   ----------------------------------------
        BYTE           N48     Gn2
        BYTE           N48     Cn3
        BYTE   W02
        BYTE           VOL     46
        BYTE   W06
        BYTE                   45
        BYTE   W12
        BYTE                   44
        BYTE   W11
        BYTE                   43
        BYTE   W17
        BYTE                   42
        BYTE           N30     Dn2   v096   gtp1
        BYTE           N32     Bn2
        BYTE   W03
        BYTE           VOL     41
        BYTE   W02
        BYTE                   40
        BYTE   W01
        BYTE                   39
        BYTE   W03
        BYTE                   38
        BYTE   W02
        BYTE                   37
        BYTE   W01
        BYTE                   36
        BYTE   W03
        BYTE                   35
        BYTE   W02
        BYTE                   34
        BYTE   W03
        BYTE                   33
        BYTE   W01
        BYTE                   32
        BYTE   W03
        BYTE                   30
        BYTE   W01
        BYTE                   27
        BYTE   W02
        BYTE                   24
        BYTE   W01
        BYTE                   22
        BYTE   W02
        BYTE                   19
        BYTE   W01
        BYTE                   17
        BYTE   W02
        BYTE                   14
        BYTE   W01
        BYTE                   12
        BYTE   W02
        BYTE                   9
        BYTE   W01
        BYTE                   7
        BYTE   W02
        BYTE                   3
        BYTE   W01
        BYTE                   17
        BYTE   W01
        BYTE                   25
        BYTE   W01
        BYTE                   38
        BYTE   W03
        BYTE                   39
        BYTE   W03
// 018   ----------------------------------------
        BYTE                   40
        BYTE           N48     Gn3   v127
        BYTE   W03
        BYTE           VOL     41
        BYTE   W03
        BYTE                   43
        BYTE   W03
        BYTE                   44
        BYTE   W03
        BYTE                   45
        BYTE   W03
        BYTE                   46
        BYTE   W03
        BYTE                   47
        BYTE   W03
        BYTE                   49
        BYTE   W03
        BYTE                   50
        BYTE   W03
        BYTE                   51
        BYTE   W03
        BYTE                   52
        BYTE   W03
        BYTE                   53
        BYTE   W03
        BYTE                   55
        BYTE   W12
        BYTE           N48     Cn4
        BYTE   W07
        BYTE           VOL     54
        BYTE   W03
        BYTE                   53
        BYTE   W03
        BYTE                   52
        BYTE   W03
        BYTE                   51
        BYTE   W03
        BYTE                   50
        BYTE   W03
        BYTE                   49
        BYTE   W08
        BYTE                   50
        BYTE   W03
        BYTE                   51
        BYTE   W03
        BYTE                   52
        BYTE   W03
        BYTE                   53
        BYTE   W06
        BYTE                   54
        BYTE   W03
// 019   ----------------------------------------
        BYTE                   55
        BYTE   W16
        BYTE                   53
        BYTE   W02
        BYTE                   51
        BYTE   W01
        BYTE                   49
        BYTE   W02
        BYTE                   46
        BYTE   W03
        BYTE                   47
        BYTE           N24
        BYTE   W03
        BYTE           VOL     48
        BYTE   W03
        BYTE                   49
        BYTE   W03
        BYTE                   50
        BYTE   W03
        BYTE                   52
        BYTE   W03
        BYTE                   53
        BYTE   W03
        BYTE                   54
        BYTE   W03
        BYTE                   55
        BYTE   W03
        BYTE           N24     Dn4
        BYTE   W24
        BYTE                   As3
        BYTE   W24
// 020   ----------------------------------------
        BYTE           N48     Gn3
        BYTE   W11
        BYTE           VOL     54
        BYTE   W03
        BYTE                   53
        BYTE   W06
        BYTE                   52
        BYTE   W03
        BYTE                   51
        BYTE   W08
        BYTE                   52
        BYTE   W06
        BYTE                   53
        BYTE   W06
        BYTE                   54
        BYTE   W05
        BYTE           N32     Ds3   v127   gtp3
        BYTE   W01
        BYTE           VOL     55
        BYTE   W32
        BYTE   W03
        BYTE           N06     Fn3
        BYTE   W06
        BYTE                   Gn3
        BYTE   W06
// 021   ----------------------------------------
        BYTE           N48     Fn3
        BYTE   W11
        BYTE           VOL     54
        BYTE   W09
        BYTE                   53
        BYTE   W14
        BYTE                   52
        BYTE   W08
        BYTE                   51
        BYTE   W03
        BYTE                   50
        BYTE   W03
        BYTE                   49
        BYTE   W06
        BYTE                   48
        BYTE   W02
        BYTE                   47
        BYTE   W02
        BYTE                   48
        BYTE   W01
        BYTE                   49
        BYTE   W01
        BYTE           N24     Cn3
        BYTE   W02
        BYTE           VOL     50
        BYTE   W03
        BYTE                   51
        BYTE   W02
        BYTE                   52
        BYTE   W01
        BYTE                   53
        BYTE   W03
        BYTE                   54
        BYTE   W02
        BYTE                   55
        BYTE   W11
        BYTE           N12     Dn3
        BYTE   W12
// 022   ----------------------------------------
        BYTE           N48     Ds3
        BYTE   W48
        BYTE           N24     Fn3
        BYTE   W24
        BYTE                   Gn3
        BYTE   W24
// 023   ----------------------------------------
        BYTE           N48     As3
        BYTE   W09
        BYTE           VOL     54
        BYTE   W03
        BYTE                   53
        BYTE   W06
        BYTE                   52
        BYTE   W03
        BYTE                   51
        BYTE   W01
        BYTE                   50
        BYTE   W03
        BYTE                   51
        BYTE   W06
        BYTE                   52
        BYTE   W06
        BYTE                   53
        BYTE   W06
        BYTE                   54
        BYTE   W05
        BYTE           N18     Fn3
        BYTE   W01
        BYTE           VOL     55
        BYTE   W17
        BYTE           N18     Gn3
        BYTE   W18
        BYTE           N12     As3
        BYTE   W12
// 024   ----------------------------------------
        BYTE           N18     Cn4
        BYTE   W18
        BYTE           N06     Dn4
        BYTE   W06
        BYTE           TIE     Cn4
        BYTE   W05
        BYTE           VOL     54
        BYTE   W03
        BYTE                   53
        BYTE   W03
        BYTE                   52
        BYTE   W03
        BYTE                   51
        BYTE   W06
        BYTE                   52
        BYTE   W03
        BYTE                   53
        BYTE   W06
        BYTE                   54
        BYTE   W03
        BYTE                   55
        BYTE   W12
        BYTE                   54
        BYTE   W08
        BYTE                   53
        BYTE   W12
        BYTE                   52
        BYTE   W08
// 025   ----------------------------------------
        BYTE   W01
        BYTE                   51
        BYTE   W08
        BYTE                   50
        BYTE   W08
        BYTE                   49
        BYTE   W07
        BYTE                   48
        BYTE   W03
        BYTE                   46
        BYTE   W03
        BYTE                   45
        BYTE   W03
        BYTE                   44
        BYTE   W03
        BYTE                   43
        BYTE   W03
        BYTE                   41
        BYTE   W03
        BYTE                   40
        BYTE   W03
        BYTE                   39
        BYTE   W03
        BYTE                   37
        BYTE   W03
        BYTE                   36
        BYTE   W03
        BYTE                   35
        BYTE   W03
        BYTE                   34
        BYTE   W03
        BYTE                   33
        BYTE   W03
        BYTE                   31
        BYTE   W03
        BYTE                   30
        BYTE   W03
        BYTE                   29
        BYTE   W03
        BYTE           EOT
        BYTE           VOL     27
        BYTE   W03
        BYTE                   26
        BYTE   W03
        BYTE                   25
        BYTE   W03
        BYTE                   24
        BYTE   W03
        BYTE                   23
        BYTE   W03
        BYTE                   21
        BYTE   W03
        BYTE                   20
        BYTE   W01
        BYTE                   19
        BYTE   W03
        BYTE                   20
        BYTE   W02
// 026   ----------------------------------------
        BYTE           N48     Gs1   v104
        BYTE           N24     Cn2
        BYTE   W01
        BYTE           VOL     21
        BYTE   W03
        BYTE                   22
        BYTE   W03
        BYTE                   23
        BYTE   W03
        BYTE                   24
        BYTE   W03
        BYTE                   25
        BYTE   W03
        BYTE                   26
        BYTE   W03
        BYTE                   27
        BYTE   W03
        BYTE                   29
        BYTE   W02
        BYTE           N24     Ds2
        BYTE   W01
        BYTE           VOL     30
        BYTE   W03
        BYTE                   31
        BYTE   W03
        BYTE                   32
        BYTE   W03
        BYTE                   33
        BYTE   W03
        BYTE                   34
        BYTE   W03
        BYTE                   35
        BYTE   W03
        BYTE                   36
        BYTE   W03
        BYTE                   37
        BYTE   W01
        BYTE                   38
        BYTE   W01
        BYTE           N24     Cn2
        BYTE           N24     Gs2
        BYTE   W05
        BYTE           VOL     39
        BYTE   W09
        BYTE                   40
        BYTE   W06
        BYTE                   41
        BYTE   W03
        BYTE                   42
        BYTE   W01
        BYTE           N24     Ds2
        BYTE           N24     Cn3
        BYTE   W05
        BYTE           VOL     43
        BYTE   W09
        BYTE                   44
        BYTE   W06
        BYTE                   45
        BYTE   W04
// 027   ----------------------------------------
        BYTE           N48     Fn2
        BYTE           N48     Dn3
        BYTE   W30
        BYTE           VOL     46
        BYTE   W18
        BYTE           N48     Dn2
        BYTE           N48     As2
        BYTE   W32
        BYTE   W01
        BYTE           VOL     47
        BYTE   W15
// 028   ----------------------------------------
        BYTE           N24     Fn3
        BYTE           N48     Gn3
        BYTE   W02
        BYTE           VOL     48
        BYTE   W02
        BYTE                   47
        BYTE   W01
        BYTE                   46
        BYTE   W02
        BYTE                   45
        BYTE   W01
        BYTE                   44
        BYTE   W02
        BYTE                   43
        BYTE   W01
        BYTE                   42
        BYTE   W02
        BYTE                   41
        BYTE   W01
        BYTE                   40
        BYTE   W02
        BYTE                   39
        BYTE   W08
        BYTE           N24     Ds3
        BYTE   W02
        BYTE           VOL     40
        BYTE   W07
        BYTE                   41
        BYTE   W07
        BYTE                   42
        BYTE   W07
        BYTE                   43
        BYTE   W01
        BYTE           N24     As2
        BYTE           N24     Fn3   v077
        BYTE   W09
        BYTE           VOL     44
        BYTE   W04
        BYTE                   45
        BYTE   W03
        BYTE                   44
        BYTE   W03
        BYTE                   43
        BYTE   W03
        BYTE                   42
        BYTE   W02
        BYTE           N24     Gn2   v104
        BYTE           N24     Ds3   v077
        BYTE   W01
        BYTE           VOL     41
        BYTE   W03
        BYTE                   40
        BYTE   W03
        BYTE                   39
        BYTE   W06
        BYTE                   38
        BYTE   W03
        BYTE                   37
        BYTE   W03
        BYTE                   36
        BYTE   W03
        BYTE                   35
        BYTE   W02
// 029   ----------------------------------------
        BYTE           N48     An2   v104
        BYTE           N96     Cn3
        BYTE   W01
        BYTE           VOL     34
        BYTE   W03
        BYTE                   33
        BYTE   W05
        BYTE                   32
        BYTE   W03
        BYTE                   33
        BYTE   W03
        BYTE                   34
        BYTE   W01
        BYTE                   35
        BYTE   W02
        BYTE                   36
        BYTE   W03
        BYTE                   37
        BYTE   W03
        BYTE                   38
        BYTE   W01
        BYTE                   39
        BYTE   W03
        BYTE                   40
        BYTE   W02
        BYTE                   41
        BYTE   W01
        BYTE                   42
        BYTE   W03
        BYTE                   43
        BYTE   W03
        BYTE                   44
        BYTE   W02
        BYTE                   45
        BYTE   W01
        BYTE                   46
        BYTE   W03
        BYTE                   47
        BYTE   W02
        BYTE                   48
        BYTE   W03
        BYTE                   49
        BYTE           N48     Fn2
        BYTE   W02
        BYTE           VOL     50
        BYTE   W03
        BYTE                   49
        BYTE   W03
        BYTE                   48
        BYTE   W03
        BYTE                   47
        BYTE   W03
        BYTE                   46
        BYTE   W03
        BYTE                   45
        BYTE   W03
        BYTE                   44
        BYTE   W03
        BYTE                   43
        BYTE   W03
        BYTE                   42
        BYTE   W03
        BYTE                   41
        BYTE   W03
        BYTE                   39
        BYTE   W06
        BYTE                   38
        BYTE   W03
        BYTE                   36
        BYTE   W06
        BYTE                   34
        BYTE   W01
// 030   ----------------------------------------
        BYTE   W02
        BYTE                   33
        BYTE   W06
        BYTE                   31
        BYTE   W02
        BYTE                   30
        BYTE   W03
        BYTE                   31
        BYTE   W03
        BYTE                   32
        BYTE   W06
        BYTE                   33
        BYTE   W02
        BYTE           N48     Cn2
        BYTE           N48     Ds2
        BYTE   W04
        BYTE           VOL     34
        BYTE   W03
        BYTE                   35
        BYTE   W03
        BYTE                   36
        BYTE   W06
        BYTE                   37
        BYTE   W06
        BYTE                   38
        BYTE   W03
        BYTE                   39
        BYTE   W06
        BYTE                   40
        BYTE   W03
        BYTE                   41
        BYTE   W03
        BYTE                   42
        BYTE   W06
        BYTE                   43
        BYTE   W03
        BYTE                   44
        BYTE   W02
        BYTE           N48     Dn2
        BYTE           N48     Fn2
        BYTE   W24
// 031   ----------------------------------------
        BYTE   W24
        BYTE           N24     Ds2
        BYTE           N24     Gn2
        BYTE   W04
        BYTE           VOL     45
        BYTE   W20
        BYTE           N24     Cn2
        BYTE           N24     Gs2
        BYTE   W17
        BYTE           VOL     46
        BYTE   W07
        BYTE           N24     Ds2
        BYTE           N24     Cn3
        BYTE   W24
// 032   ----------------------------------------
        BYTE           N72     Fn2
        BYTE           N72     Dn3
        BYTE   W05
        BYTE           VOL     47
        BYTE   W01
        BYTE                   46
        BYTE   W03
        BYTE                   45
        BYTE   W02
        BYTE                   44
        BYTE   W03
        BYTE                   43
        BYTE   W03
        BYTE                   42
        BYTE   W01
        BYTE                   41
        BYTE   W02
        BYTE                   40
        BYTE   W02
        BYTE                   39
        BYTE   W12
        BYTE                   38
        BYTE   W08
        BYTE                   37
        BYTE   W08
        BYTE                   36
        BYTE   W12
        BYTE                   35
        BYTE   W03
        BYTE                   36
        BYTE   W03
        BYTE                   37
        BYTE   W03
        BYTE                   38
        BYTE   W01
        BYTE           N24     Gs2
        BYTE           N24     Fn3
        BYTE   W02
        BYTE           VOL     39
        BYTE   W03
        BYTE                   40
        BYTE   W02
        BYTE                   42
        BYTE   W06
        BYTE                   43
        BYTE   W03
        BYTE                   44
        BYTE   W03
        BYTE                   45
        BYTE   W03
        BYTE                   46
        BYTE   W02
// 033   ----------------------------------------
        BYTE           N96     Fn2
        BYTE           N96     Dn3
        BYTE   W06
        BYTE           VOL     44
        BYTE   W03
        BYTE                   43
        BYTE   W03
        BYTE                   41
        BYTE   W01
        BYTE                   40
        BYTE   W02
        BYTE                   39
        BYTE   W01
        BYTE                   37
        BYTE   W02
        BYTE                   36
        BYTE   W01
        BYTE                   34
        BYTE   W02
        BYTE                   33
        BYTE   W01
        BYTE                   32
        BYTE   W02
        BYTE                   30
        BYTE   W01
        BYTE                   29
        BYTE   W02
        BYTE                   27
        BYTE   W01
        BYTE                   26
        BYTE   W02
        BYTE                   25
        BYTE   W01
        BYTE                   23
        BYTE   W02
        BYTE                   22
        BYTE   W01
        BYTE                   20
        BYTE   W02
        BYTE                   19
        BYTE   W01
        BYTE                   18
        BYTE   W02
        BYTE                   16
        BYTE   W01
        BYTE                   15
        BYTE   W02
        BYTE                   13
        BYTE   W01
        BYTE                   14
        BYTE   W02
        BYTE                   16
        BYTE   W01
        BYTE                   17
        BYTE   W02
        BYTE                   18
        BYTE   W01
        BYTE                   20
        BYTE   W02
        BYTE                   21
        BYTE   W01
        BYTE                   22
        BYTE   W02
        BYTE                   23
        BYTE   W01
        BYTE                   24
        BYTE   W02
        BYTE                   26
        BYTE   W01
        BYTE                   27
        BYTE   W02
        BYTE                   28
        BYTE   W01
        BYTE                   30
        BYTE   W02
        BYTE                   31
        BYTE   W01
        BYTE                   32
        BYTE   W02
        BYTE                   33
        BYTE   W01
        BYTE                   34
        BYTE   W02
        BYTE                   36
        BYTE   W03
        BYTE                   37
        BYTE   W03
        BYTE                   39
        BYTE   W06
        BYTE                   41
        BYTE   W02
        BYTE                   42
        BYTE   W02
        BYTE                   43
        BYTE   W03
        BYTE                   44
        BYTE   W03
        BYTE                   45
        BYTE   W01
        BYTE                   46
        BYTE   W03
        BYTE                   47
        BYTE   W01
// 034   ----------------------------------------
        BYTE           N36     Gn2
        BYTE           N36     Fn3
        BYTE   W01
        BYTE           VOL     48
        BYTE   W32
        BYTE   W03
        BYTE           N12     Gn2
        BYTE           N12     Ds3
        BYTE   W12
        BYTE                   Gn2   v054
        BYTE           N12     Ds3
        BYTE   W12
        BYTE                   Gn2   v039
        BYTE           N12     Ds3
        BYTE   W12
        BYTE           N36     Fn2   v104
        BYTE           N36     Dn3
        BYTE   W24
// 035   ----------------------------------------
        BYTE   W12
        BYTE           N72     Ds2
        BYTE           N72     Cn3
        BYTE   W06
        BYTE           VOL     47
        BYTE   W01
        BYTE                   46
        BYTE   W02
        BYTE                   44
        BYTE   W01
        BYTE                   43
        BYTE   W02
        BYTE                   42
        BYTE   W01
        BYTE                   40
        BYTE   W02
        BYTE                   39
        BYTE   W01
        BYTE                   37
        BYTE   W02
        BYTE                   36
        BYTE   W09
        BYTE                   37
        BYTE   W03
        BYTE                   38
        BYTE   W03
        BYTE                   39
        BYTE   W06
        BYTE                   40
        BYTE   W06
        BYTE                   41
        BYTE   W03
        BYTE                   42
        BYTE   W06
        BYTE                   43
        BYTE   W06
        BYTE                   44
        BYTE   W03
        BYTE                   45
        BYTE   W03
        BYTE                   46
        BYTE   W09
        BYTE                   47
        BYTE   W03
        BYTE                   48
        BYTE   W03
        BYTE                   49
        BYTE   W03
// 036   ----------------------------------------
        BYTE           N36     Gn2
        BYTE           N36     Fn3
        BYTE   W36
        BYTE           N12     Gn2
        BYTE           N12     Ds3
        BYTE   W12
        BYTE                   Gn2   v054
        BYTE           N12     Ds3
        BYTE   W12
        BYTE                   Gn2   v039
        BYTE           N12     Ds3
        BYTE   W12
        BYTE           N36     Fn2   v104
        BYTE           N36     Dn3
        BYTE   W24
// 037   ----------------------------------------
        BYTE   W12
        BYTE           N66     Ds2
        BYTE           N66     Cn3
        BYTE   W04
        BYTE           VOL     50
        BYTE   W02
        BYTE                   51
        BYTE   W03
        BYTE                   50
        BYTE   W03
        BYTE                   49
        BYTE   W06
        BYTE                   47
        BYTE   W03
        BYTE                   46
        BYTE   W06
        BYTE                   44
        BYTE   W03
        BYTE                   43
        BYTE   W06
        BYTE                   41
        BYTE   W03
        BYTE                   40
        BYTE   W03
        BYTE                   39
        BYTE   W03
        BYTE                   38
        BYTE   W03
        BYTE                   37
        BYTE   W03
        BYTE                   36
        BYTE   W03
        BYTE                   35
        BYTE   W03
        BYTE                   34
        BYTE   W01
        BYTE                   33
        BYTE   W02
        BYTE                   31
        BYTE   W01
        BYTE                   30
        BYTE   W02
        BYTE                   29
        BYTE   W01
        BYTE                   27
        BYTE   W02
        BYTE                   26
        BYTE   W01
        BYTE                   25
        BYTE   W02
        BYTE                   23
        BYTE   W01
        BYTE                   22
        BYTE   W02
        BYTE                   21
        BYTE   W01
        BYTE                   20
        BYTE   W02
        BYTE                   18
        BYTE   W01
        BYTE                   17
        BYTE   W02
        BYTE                   16
        BYTE   W01
        BYTE                   14
        BYTE   W02
        BYTE                   13
        BYTE   W01
        BYTE                   11
        BYTE   W01
        BYTE                   32
        BYTE   W01
// 038   ----------------------------------------
        BYTE                   55
        BYTE           N11     Cn5   v069
        BYTE           N11     Gn5
        BYTE   W12
        BYTE                   Cn5   v037
        BYTE           N11     Gn5
        BYTE   W12
        BYTE                   Cn5   v015
        BYTE           N11     Gn5
        BYTE   W12
        BYTE                   Cn5   v089
        BYTE           N11     Gn5
        BYTE   W12
        BYTE                   Cn5   v057
        BYTE           N11     Gn5
        BYTE   W12
        BYTE                   Cn5   v035
        BYTE           N11     Gn5
        BYTE   W12
        BYTE                   Cn5   v089
        BYTE           N11     Gn5
        BYTE   W12
        BYTE                   Cn5   v073
        BYTE           N11     Gn5
        BYTE   W12
// 039   ----------------------------------------
        BYTE   PATT
         POIN2  EndlessBattle_4_1
// 040   ----------------------------------------
        BYTE           VOL     54
        BYTE   GoTo
         POIN2  EndlessBattle_4_LOOP
        BYTE   FINE

//****************** Track 5 (Midi-Chn.5) ******************//

EndlessBattle_5:
        BYTE   KEYSH   EndlessBattle_key+0
// 000   ----------------------------------------
        BYTE           VOICE   127
        BYTE           VOL     57
        BYTE           N06     Dn1   v110
        BYTE           N14     An2   v038
        BYTE   W06
        BYTE           N06     Ds1   v077
        BYTE   W06
        BYTE                   Dn1   v099
        BYTE   W06
        BYTE                   Dn1   v040
        BYTE   W06
        BYTE                   Dn1   v028
        BYTE   W06
        BYTE                   Dn1   v019
        BYTE   W06
        BYTE                   Ds1   v093
        BYTE           N14     An2   v046
        BYTE   W06
        BYTE           N06     Dn1   v065
        BYTE   W06
        BYTE                   Dn1   v074
        BYTE   W06
        BYTE                   Ds1   v057
        BYTE   W06
        BYTE                   Dn1   v083
        BYTE   W06
        BYTE                   Dn1   v040
        BYTE   W06
        BYTE                   Dn1   v093
        BYTE           N14     An2   v039
        BYTE   W06
        BYTE           N06     Dn1   v019
        BYTE   W06
        BYTE                   Dn1   v041
        BYTE   W06
        BYTE           N02     Dn1   v055
        BYTE   W03
        BYTE                   Ds1   v068
        BYTE   W03
// 001   ----------------------------------------
EndlessBattle_5_1:
        BYTE           N06     Dn1   v110
        BYTE           N14     An2   v056
        BYTE   W06
        BYTE           N06     Ds1   v077
        BYTE   W06
        BYTE                   Dn1   v099
        BYTE   W06
        BYTE                   Dn1   v040
        BYTE   W06
        BYTE                   Dn1   v028
        BYTE   W06
        BYTE                   Dn1   v019
        BYTE   W06
        BYTE                   Ds1   v090
        BYTE           N14     An2   v046
        BYTE   W06
        BYTE           N06     Dn1   v078
        BYTE   W06
        BYTE                   Dn1   v091
        BYTE   W06
        BYTE                   Ds1   v057
        BYTE   W06
        BYTE                   Dn1   v099
        BYTE   W06
        BYTE                   Dn1   v040
        BYTE   W06
        BYTE           N24     Fs2   v089
        BYTE           N14     An2   v039
        BYTE   W24
        BYTE   PEND
// 002   ----------------------------------------
EndlessBattle_5_LOOP:
        BYTE           N06     Dn1   v110
        BYTE           N84     Cs2   v047   gtp2
        BYTE   W06
        BYTE           N06     Ds1   v077
        BYTE   W06
        BYTE                   Dn1   v099
        BYTE   W06
        BYTE                   Dn1   v040
        BYTE   W06
        BYTE                   Dn1   v028
        BYTE   W06
        BYTE                   Dn1   v019
        BYTE   W06
        BYTE                   Ds1   v068
        BYTE   W06
        BYTE                   Dn1   v078
        BYTE   W06
        BYTE                   Dn1   v091
        BYTE   W06
        BYTE                   Ds1   v057
        BYTE   W06
        BYTE                   Dn1   v099
        BYTE   W06
        BYTE                   Dn1   v040
        BYTE   W06
        BYTE                   Dn1   v028
        BYTE   W06
        BYTE                   Dn1   v019
        BYTE   W12
        BYTE           N02     Dn1   v055
        BYTE   W03
        BYTE                   Ds1   v068
        BYTE   W03
// 003   ----------------------------------------
EndlessBattle_5_3:
        BYTE           N06     Dn1   v110
        BYTE   W06
        BYTE                   Ds1   v077
        BYTE   W06
        BYTE                   Dn1   v099
        BYTE   W06
        BYTE                   Dn1   v040
        BYTE   W06
        BYTE                   Dn1   v028
        BYTE   W06
        BYTE                   Dn1   v019
        BYTE   W06
        BYTE                   Ds1   v068
        BYTE   W06
        BYTE                   Dn1   v078
        BYTE   W06
        BYTE                   Dn1   v091
        BYTE   W06
        BYTE                   Ds1   v057
        BYTE   W06
        BYTE                   Dn1   v099
        BYTE   W06
        BYTE                   Dn1   v040
        BYTE   W06
        BYTE           N24     Fs2   v080
        BYTE   W24
        BYTE   PEND
// 004   ----------------------------------------
EndlessBattle_5_4:
        BYTE           N06     Dn1   v110
        BYTE   W06
        BYTE                   Ds1   v077
        BYTE   W06
        BYTE                   Dn1   v099
        BYTE   W06
        BYTE                   Dn1   v040
        BYTE   W06
        BYTE                   Dn1   v028
        BYTE   W06
        BYTE                   Dn1   v019
        BYTE   W06
        BYTE                   Ds1   v068
        BYTE   W06
        BYTE                   Dn1   v078
        BYTE   W06
        BYTE                   Dn1   v091
        BYTE   W06
        BYTE                   Ds1   v057
        BYTE   W06
        BYTE                   Dn1   v099
        BYTE   W06
        BYTE                   Dn1   v040
        BYTE   W06
        BYTE                   Dn1   v028
        BYTE   W06
        BYTE                   Dn1   v019
        BYTE   W12
        BYTE           N02     Dn1   v055
        BYTE   W03
        BYTE                   Ds1   v068
        BYTE   W03
        BYTE   PEND
// 005   ----------------------------------------
        BYTE   PATT
         POIN2  EndlessBattle_5_3
// 006   ----------------------------------------
        BYTE   PATT
         POIN2  EndlessBattle_5_4
// 007   ----------------------------------------
        BYTE   PATT
         POIN2  EndlessBattle_5_3
// 008   ----------------------------------------
        BYTE   PATT
         POIN2  EndlessBattle_5_4
// 009   ----------------------------------------
        BYTE   PATT
         POIN2  EndlessBattle_5_3
// 010   ----------------------------------------
        BYTE           N06     Dn1   v110
        BYTE           N84     Cs2   v032   gtp2
        BYTE   W06
        BYTE           N06     Ds1   v077
        BYTE   W06
        BYTE                   Dn1   v099
        BYTE   W06
        BYTE                   Dn1   v040
        BYTE   W06
        BYTE                   Dn1   v028
        BYTE   W06
        BYTE                   Dn1   v019
        BYTE   W06
        BYTE                   Ds1   v068
        BYTE   W06
        BYTE                   Dn1   v078
        BYTE   W06
        BYTE                   Dn1   v091
        BYTE   W06
        BYTE                   Ds1   v057
        BYTE   W06
        BYTE                   Dn1   v099
        BYTE   W06
        BYTE                   Dn1   v040
        BYTE   W06
        BYTE                   Dn1   v028
        BYTE   W06
        BYTE                   Dn1   v019
        BYTE   W12
        BYTE           N02     Dn1   v055
        BYTE   W03
        BYTE                   Ds1   v068
        BYTE   W03
// 011   ----------------------------------------
        BYTE   PATT
         POIN2  EndlessBattle_5_3
// 012   ----------------------------------------
        BYTE   PATT
         POIN2  EndlessBattle_5_4
// 013   ----------------------------------------
        BYTE   PATT
         POIN2  EndlessBattle_5_3
// 014   ----------------------------------------
        BYTE   PATT
         POIN2  EndlessBattle_5_4
// 015   ----------------------------------------
        BYTE   PATT
         POIN2  EndlessBattle_5_3
// 016   ----------------------------------------
        BYTE   PATT
         POIN2  EndlessBattle_5_4
// 017   ----------------------------------------
        BYTE   PATT
         POIN2  EndlessBattle_5_3
// 018   ----------------------------------------
EndlessBattle_5_18:
        BYTE           N15     Ds1   v099
        BYTE           N12     An2   v035
        BYTE   W16
        BYTE           N15     Ds1   v066
        BYTE   W08
        BYTE           N12     An2   v016
        BYTE   W08
        BYTE           N15     Ds1   v050
        BYTE   W16
        BYTE                   Ds1   v040
        BYTE           N12     An2   v035
        BYTE   W16
        BYTE           N15     Ds1   v031
        BYTE   W08
        BYTE           N12     An2   v016
        BYTE   W08
        BYTE           N15     Ds1   v020
        BYTE   W16
        BYTE   PEND
// 019   ----------------------------------------
EndlessBattle_5_19:
        BYTE           N15     Dn1   v099
        BYTE           N12     An2   v035
        BYTE   W16
        BYTE           N15     Dn1   v066
        BYTE   W08
        BYTE           N12     An2   v016
        BYTE   W08
        BYTE           N15     Dn1   v050
        BYTE   W16
        BYTE                   Dn1   v040
        BYTE           N12     An2   v035
        BYTE   W16
        BYTE           N15     Dn1   v031
        BYTE   W08
        BYTE           N12     An2   v016
        BYTE   W08
        BYTE           N15     Dn1   v020
        BYTE   W16
        BYTE   PEND
// 020   ----------------------------------------
        BYTE   PATT
         POIN2  EndlessBattle_5_18
// 021   ----------------------------------------
        BYTE   PATT
         POIN2  EndlessBattle_5_19
// 022   ----------------------------------------
        BYTE   PATT
         POIN2  EndlessBattle_5_18
// 023   ----------------------------------------
        BYTE   PATT
         POIN2  EndlessBattle_5_19
// 024   ----------------------------------------
        BYTE   PATT
         POIN2  EndlessBattle_5_18
// 025   ----------------------------------------
        BYTE           N15     Dn1   v099
        BYTE           N12     An2   v035
        BYTE   W16
        BYTE           N15     Dn1   v066
        BYTE   W08
        BYTE           N12     An2   v016
        BYTE   W08
        BYTE           N15     Dn1   v050
        BYTE   W16
        BYTE                   Dn1   v040
        BYTE           N12     An2   v035
        BYTE   W24
        BYTE           N24     Fs2   v092
        BYTE           N03     Fn2   v001
        BYTE           N12     An2   v016
        BYTE   W04
        BYTE           N03     Fn2   v013
        BYTE   W04
        BYTE                   Fn2   v026
        BYTE   W04
        BYTE                   Fn2   v038
        BYTE   W04
        BYTE                   Fn2   v048
        BYTE   W04
        BYTE                   Fn2   v057
        BYTE   W04
// 026   ----------------------------------------
        BYTE           N06     Dn1   v118
        BYTE           TIE     Fn2   v064
        BYTE   W06
        BYTE           N06     Ds1   v077
        BYTE   W06
        BYTE                   Dn1   v107
        BYTE   W06
        BYTE                   Dn1   v048
        BYTE   W06
        BYTE                   Dn1   v036
        BYTE   W06
        BYTE                   Dn1   v027
        BYTE   W06
        BYTE                   Ds1   v068
        BYTE   W06
        BYTE                   Dn1   v086
        BYTE   W06
        BYTE                   Dn1   v099
        BYTE   W06
        BYTE                   Ds1   v057
        BYTE   W06
        BYTE                   Dn1   v107
        BYTE   W06
        BYTE                   Dn1   v048
        BYTE   W06
        BYTE                   Dn1   v036
        BYTE   W06
        BYTE                   Dn1   v027
        BYTE   W12
        BYTE           N02     Dn1   v063
        BYTE   W03
        BYTE                   Ds1   v068
        BYTE   W03
// 027   ----------------------------------------
        BYTE           N06     Dn1   v118
        BYTE   W02
        BYTE           EOT     Fn2
        BYTE   W04
        BYTE           N06     Ds1   v077
        BYTE   W06
        BYTE                   Dn1   v107
        BYTE   W06
        BYTE                   Dn1   v048
        BYTE   W06
        BYTE                   Dn1   v036
        BYTE   W06
        BYTE                   Dn1   v027
        BYTE   W06
        BYTE                   Ds1   v068
        BYTE   W06
        BYTE                   Dn1   v086
        BYTE   W06
        BYTE                   Dn1   v099
        BYTE   W06
        BYTE                   Ds1   v057
        BYTE   W06
        BYTE                   Dn1   v107
        BYTE   W06
        BYTE                   Dn1   v048
        BYTE   W06
        BYTE           N24     Fs2   v088
        BYTE   W24
// 028   ----------------------------------------
EndlessBattle_5_28:
        BYTE           N06     Dn1   v118
        BYTE   W06
        BYTE                   Ds1   v077
        BYTE   W06
        BYTE                   Dn1   v107
        BYTE   W06
        BYTE                   Dn1   v048
        BYTE   W06
        BYTE                   Dn1   v036
        BYTE   W06
        BYTE                   Dn1   v027
        BYTE   W06
        BYTE                   Ds1   v068
        BYTE   W06
        BYTE                   Dn1   v086
        BYTE   W06
        BYTE                   Dn1   v099
        BYTE   W06
        BYTE                   Ds1   v057
        BYTE   W06
        BYTE                   Dn1   v107
        BYTE   W06
        BYTE                   Dn1   v048
        BYTE   W06
        BYTE                   Dn1   v036
        BYTE   W06
        BYTE                   Dn1   v027
        BYTE   W12
        BYTE           N02     Dn1   v063
        BYTE   W03
        BYTE                   Ds1   v068
        BYTE   W03
        BYTE   PEND
// 029   ----------------------------------------
EndlessBattle_5_29:
        BYTE           N06     Dn1   v118
        BYTE   W06
        BYTE                   Ds1   v077
        BYTE   W06
        BYTE                   Dn1   v107
        BYTE   W06
        BYTE                   Dn1   v048
        BYTE   W06
        BYTE                   Dn1   v036
        BYTE   W06
        BYTE                   Dn1   v027
        BYTE   W06
        BYTE                   Ds1   v068
        BYTE   W06
        BYTE                   Dn1   v086
        BYTE   W06
        BYTE                   Dn1   v099
        BYTE   W06
        BYTE                   Ds1   v057
        BYTE   W06
        BYTE                   Dn1   v107
        BYTE   W06
        BYTE                   Dn1   v048
        BYTE   W06
        BYTE           N24     Fs2   v088
        BYTE   W24
        BYTE   PEND
// 030   ----------------------------------------
        BYTE   PATT
         POIN2  EndlessBattle_5_28
// 031   ----------------------------------------
        BYTE   PATT
         POIN2  EndlessBattle_5_29
// 032   ----------------------------------------
        BYTE   PATT
         POIN2  EndlessBattle_5_28
// 033   ----------------------------------------
        BYTE           N06     Dn1   v118
        BYTE   W06
        BYTE                   Ds1   v077
        BYTE   W06
        BYTE                   Dn1   v107
        BYTE   W06
        BYTE                   Dn1   v048
        BYTE   W06
        BYTE                   Dn1   v036
        BYTE   W06
        BYTE                   Dn1   v027
        BYTE   W06
        BYTE                   Ds1   v068
        BYTE   W06
        BYTE                   Dn1   v086
        BYTE   W06
        BYTE                   Dn1   v043
        BYTE   W06
        BYTE                   Ds1   v114
        BYTE   W06
        BYTE                   Dn1   v068
        BYTE   W06
        BYTE                   Ds1   v077
        BYTE   W06
        BYTE           N12     Fs2   v100
        BYTE   W12
        BYTE           N06     Dn1   v093
        BYTE   W06
        BYTE                   Ds1   v092
        BYTE   W06
// 034   ----------------------------------------
        BYTE           N23     Fs2   v096
        BYTE           N92     Cs2   v047   gtp1
        BYTE   W24
        BYTE           N05     Dn1   v086
        BYTE   W06
        BYTE                   Ds1
        BYTE   W06
        BYTE                   Dn1
        BYTE   W06
        BYTE           N06     Dn1   v048
        BYTE   W06
        BYTE                   Dn1   v036
        BYTE   W06
        BYTE                   Dn1   v027
        BYTE   W06
        BYTE           N05     Ds1   v067
        BYTE   W06
        BYTE                   Dn1   v094
        BYTE   W06
        BYTE           N23     Fs2   v096
        BYTE   W24
// 035   ----------------------------------------
        BYTE           N05     Dn1   v086
        BYTE   W06
        BYTE                   Ds1
        BYTE   W06
        BYTE                   Dn1
        BYTE   W06
        BYTE           N06     Dn1   v048
        BYTE   W06
        BYTE                   Dn1   v036
        BYTE   W06
        BYTE                   Dn1   v072
        BYTE   W06
        BYTE           N05     Ds1   v067
        BYTE   W06
        BYTE                   Dn1   v094
        BYTE   W06
        BYTE                   Ds1   v036
        BYTE   W06
        BYTE                   Dn1   v079
        BYTE   W06
        BYTE                   Ds1   v065
        BYTE   W06
        BYTE                   Dn1   v048
        BYTE   W06
        BYTE           N03     Ds1   v072
        BYTE   W03
        BYTE                   Dn1   v075
        BYTE   W03
        BYTE           N05     Ds1   v090
        BYTE   W06
        BYTE                   Dn1   v065
        BYTE   W06
        BYTE                   Ds1   v051
        BYTE   W06
// 036   ----------------------------------------
        BYTE           N23     Fs2   v096
        BYTE           N92     En2   v047   gtp1
        BYTE   W24
        BYTE           N05     Dn1   v086
        BYTE   W06
        BYTE                   Ds1
        BYTE   W06
        BYTE                   Dn1
        BYTE   W06
        BYTE           N06     Dn1   v048
        BYTE   W06
        BYTE                   Dn1   v036
        BYTE   W06
        BYTE                   Dn1   v027
        BYTE   W06
        BYTE           N05     Ds1   v067
        BYTE   W06
        BYTE                   Dn1   v094
        BYTE   W06
        BYTE           N23     Fs2   v096
        BYTE   W24
// 037   ----------------------------------------
        BYTE           N05     Dn1   v086
        BYTE   W06
        BYTE                   Ds1
        BYTE   W06
        BYTE                   Dn1
        BYTE   W06
        BYTE           N06     Dn1   v048
        BYTE   W06
        BYTE                   Dn1   v036
        BYTE   W06
        BYTE                   Dn1   v071
        BYTE   W06
        BYTE           N05     Ds1   v067
        BYTE   W06
        BYTE                   Dn1   v094
        BYTE   W06
        BYTE                   Ds1   v035
        BYTE   W06
        BYTE                   Dn1   v085
        BYTE   W06
        BYTE                   Ds1   v065
        BYTE   W06
        BYTE                   Dn1   v048
        BYTE   W06
        BYTE           N03     Ds1   v072
        BYTE   W03
        BYTE                   Dn1   v075
        BYTE   W03
        BYTE           N05     Ds1   v090
        BYTE   W06
        BYTE                   Dn1   v065
        BYTE   W06
        BYTE                   Ds1   v051
        BYTE   W06
// 038   ----------------------------------------
        BYTE           N06     Dn1   v110
        BYTE           N32     An2   v040   gtp2
        BYTE   W06
        BYTE           N06     Ds1   v077
        BYTE   W06
        BYTE                   Dn1   v099
        BYTE   W06
        BYTE                   Dn1   v040
        BYTE   W06
        BYTE                   Dn1   v028
        BYTE   W06
        BYTE                   Dn1   v019
        BYTE   W06
        BYTE                   Ds1   v093
        BYTE           N14     An2   v046
        BYTE   W06
        BYTE           N06     Dn1   v065
        BYTE   W06
        BYTE                   Dn1   v074
        BYTE   W06
        BYTE                   Ds1   v057
        BYTE   W06
        BYTE                   Dn1   v083
        BYTE   W06
        BYTE                   Dn1   v040
        BYTE   W06
        BYTE                   Dn1   v093
        BYTE           N14     An2   v039
        BYTE   W06
        BYTE           N06     Dn1   v019
        BYTE   W06
        BYTE                   Dn1   v041
        BYTE   W06
        BYTE           N02     Dn1   v055
        BYTE   W03
        BYTE                   Ds1   v068
        BYTE   W03
// 039   ----------------------------------------
        BYTE   PATT
         POIN2  EndlessBattle_5_1
// 040   ----------------------------------------
        BYTE   GoTo
         POIN2  EndlessBattle_5_LOOP
        BYTE   FINE

//****************** Track 6 (Midi-Chn.6) ******************//

EndlessBattle_6:
        BYTE   KEYSH   EndlessBattle_key+0
// 000   ----------------------------------------
        BYTE           VOICE   57
        BYTE   W96
// 001   ----------------------------------------
        BYTE   W96
// 002   ----------------------------------------
EndlessBattle_6_LOOP:
        BYTE   W96
// 003   ----------------------------------------
        BYTE   W96
// 004   ----------------------------------------
        BYTE   W96
// 005   ----------------------------------------
        BYTE   W96
// 006   ----------------------------------------
        BYTE   W96
// 007   ----------------------------------------
        BYTE   W96
// 008   ----------------------------------------
        BYTE   W96
// 009   ----------------------------------------
        BYTE   W96
// 010   ----------------------------------------
        BYTE   W96
// 011   ----------------------------------------
        BYTE   W96
// 012   ----------------------------------------
        BYTE   W96
// 013   ----------------------------------------
        BYTE   W96
// 014   ----------------------------------------
        BYTE   W96
// 015   ----------------------------------------
        BYTE           VOL     46
        BYTE           PAN     c_v+34
        BYTE   W96
// 016   ----------------------------------------
        BYTE   W96
// 017   ----------------------------------------
        BYTE   W90
        BYTE           VOL     32
        BYTE   W06
// 018   ----------------------------------------
        BYTE                   33
        BYTE           N44     Gn2   v121   gtp3
        BYTE   W03
        BYTE           VOL     35
        BYTE   W03
        BYTE                   36
        BYTE   W03
        BYTE                   37
        BYTE   W06
        BYTE                   38
        BYTE   W03
        BYTE                   40
        BYTE   W03
        BYTE                   41
        BYTE   W03
        BYTE                   42
        BYTE   W06
        BYTE                   44
        BYTE   W03
        BYTE                   45
        BYTE   W03
        BYTE                   46
        BYTE   W12
        BYTE           N44     Cn3   v121   gtp3
        BYTE   W07
        BYTE           VOL     45
        BYTE   W03
        BYTE                   44
        BYTE   W06
        BYTE                   43
        BYTE   W03
        BYTE                   42
        BYTE   W03
        BYTE                   41
        BYTE   W08
        BYTE                   42
        BYTE   W06
        BYTE                   43
        BYTE   W03
        BYTE                   44
        BYTE   W03
        BYTE                   45
        BYTE   W06
// 019   ----------------------------------------
        BYTE                   46
        BYTE   W16
        BYTE                   45
        BYTE   W01
        BYTE                   43
        BYTE   W02
        BYTE                   41
        BYTE   W01
        BYTE                   39
        BYTE   W01
        BYTE                   38
        BYTE   W03
        BYTE                   39
        BYTE           N23
        BYTE   W03
        BYTE           VOL     40
        BYTE   W03
        BYTE                   41
        BYTE   W03
        BYTE                   42
        BYTE   W03
        BYTE                   43
        BYTE   W03
        BYTE                   44
        BYTE   W03
        BYTE                   45
        BYTE   W03
        BYTE                   46
        BYTE   W03
        BYTE           N23     Dn3
        BYTE   W24
        BYTE                   As2
        BYTE   W24
// 020   ----------------------------------------
        BYTE           N44     Gn2   v121   gtp3
        BYTE   W11
        BYTE           VOL     45
        BYTE   W06
        BYTE                   44
        BYTE   W06
        BYTE                   43
        BYTE   W02
        BYTE                   42
        BYTE   W03
        BYTE                   43
        BYTE   W06
        BYTE                   44
        BYTE   W06
        BYTE                   45
        BYTE   W08
        BYTE           N32     Ds2   v121   gtp2
        BYTE           VOL     46
        BYTE   W36
        BYTE           N05     Fn2
        BYTE   W06
        BYTE                   Gn2
        BYTE   W06
// 021   ----------------------------------------
        BYTE           N44     Fn2   v121   gtp3
        BYTE   W10
        BYTE           VOL     45
        BYTE   W14
        BYTE                   44
        BYTE   W15
        BYTE                   43
        BYTE   W06
        BYTE                   42
        BYTE   W03
        BYTE                   41
        BYTE   W06
        BYTE                   40
        BYTE   W05
        BYTE                   41
        BYTE   W01
        BYTE           N23     Cn2
        BYTE   W02
        BYTE           VOL     42
        BYTE   W03
        BYTE                   43
        BYTE   W03
        BYTE                   44
        BYTE   W03
        BYTE                   45
        BYTE   W02
        BYTE                   46
        BYTE   W11
        BYTE           N11     Dn2
        BYTE   W12
// 022   ----------------------------------------
        BYTE           N44     Ds2   v121   gtp3
        BYTE   W48
        BYTE           N23     Fn2
        BYTE   W24
        BYTE                   Gn2
        BYTE   W24
// 023   ----------------------------------------
        BYTE           N44     As2   v121   gtp3
        BYTE   W09
        BYTE           VOL     45
        BYTE   W06
        BYTE                   44
        BYTE   W03
        BYTE                   43
        BYTE   W03
        BYTE                   42
        BYTE   W07
        BYTE                   43
        BYTE   W06
        BYTE                   44
        BYTE   W06
        BYTE                   45
        BYTE   W08
        BYTE           N17     Fn2
        BYTE   W01
        BYTE           VOL     46
        BYTE   W17
        BYTE           N17     Gn2
        BYTE   W18
        BYTE           N11     As2
        BYTE   W12
// 024   ----------------------------------------
        BYTE           N17     Cn3
        BYTE   W18
        BYTE           N05     Dn3
        BYTE   W06
        BYTE           TIE     Cn3
        BYTE   W05
        BYTE           VOL     45
        BYTE   W03
        BYTE                   44
        BYTE   W03
        BYTE                   43
        BYTE   W02
        BYTE                   42
        BYTE   W03
        BYTE                   43
        BYTE   W03
        BYTE                   44
        BYTE   W06
        BYTE                   45
        BYTE   W06
        BYTE                   46
        BYTE   W14
        BYTE                   45
        BYTE   W13
        BYTE                   44
        BYTE   W14
// 025   ----------------------------------------
        BYTE                   41
        BYTE   W01
        BYTE                   40
        BYTE   W01
        BYTE                   38
        BYTE   W01
        BYTE                   35
        BYTE   W01
        BYTE                   34
        BYTE   W01
        BYTE                   32
        BYTE   W01
        BYTE                   29
        BYTE   W01
        BYTE                   28
        BYTE   W01
        BYTE                   26
        BYTE   W01
        BYTE                   23
        BYTE   W01
        BYTE                   21
        BYTE   W01
        BYTE                   20
        BYTE   W01
        BYTE                   17
        BYTE   W01
        BYTE                   15
        BYTE   W01
        BYTE                   14
        BYTE   W01
        BYTE                   11
        BYTE   W01
        BYTE                   9
        BYTE   W01
        BYTE                   8
        BYTE   W01
        BYTE                   4
        BYTE   W01
        BYTE                   3
        BYTE   W01
        BYTE                   0
        BYTE   W09
        BYTE           EOT
        BYTE   W07
        BYTE           VOICE   106
        BYTE           PAN     c_v-25
        BYTE   W36
        BYTE           N03     Gn2   v107
        BYTE   W01
        BYTE           VOL     44
        BYTE   W02
        BYTE           N04     An2
        BYTE   W04
        BYTE           N03     As2
        BYTE   W04
        BYTE                   Cn3
        BYTE   W03
        BYTE                   Dn3
        BYTE   W03
        BYTE                   Ds3
        BYTE   W04
        BYTE           N02     Fn3
        BYTE   W03
// 026   ----------------------------------------
        BYTE           N44     Gn3   v107   gtp3
        BYTE   W08
        BYTE           VOL     43
        BYTE   W02
        BYTE                   42
        BYTE   W03
        BYTE                   41
        BYTE   W03
        BYTE                   40
        BYTE   W01
        BYTE                   39
        BYTE   W03
        BYTE                   38
        BYTE   W03
        BYTE                   37
        BYTE   W03
        BYTE                   36
        BYTE   W09
        BYTE                   37
        BYTE   W09
        BYTE                   38
        BYTE   W04
        BYTE           N44     Ds4   v107   gtp3
        BYTE   W05
        BYTE           VOL     39
        BYTE   W09
        BYTE                   40
        BYTE   W09
        BYTE                   41
        BYTE   W09
        BYTE                   42
        BYTE   W07
        BYTE                   43
        BYTE   W09
// 027   ----------------------------------------
        BYTE   W24
        BYTE           N23     Dn4
        BYTE   W24
        BYTE                   Cn4
        BYTE   W24
        BYTE                   As3
        BYTE   W24
// 028   ----------------------------------------
        BYTE           N44     Gn3   v107   gtp3
        BYTE   W01
        BYTE           VOL     42
        BYTE   W03
        BYTE                   41
        BYTE   W03
        BYTE                   40
        BYTE   W03
        BYTE                   39
        BYTE   W03
        BYTE                   38
        BYTE   W03
        BYTE                   37
        BYTE   W08
        BYTE                   38
        BYTE   W06
        BYTE                   39
        BYTE   W03
        BYTE                   40
        BYTE   W06
        BYTE                   41
        BYTE   W06
        BYTE                   42
        BYTE   W03
        BYTE                   43
        BYTE           N17     As3
        BYTE   W18
        BYTE                   Ds3
        BYTE   W18
        BYTE           N11     Gn3
        BYTE   W12
// 029   ----------------------------------------
        BYTE           N44     Fn3   v107   gtp3
        BYTE   W03
        BYTE           VOL     42
        BYTE   W03
        BYTE                   41
        BYTE   W03
        BYTE                   40
        BYTE   W03
        BYTE                   39
        BYTE   W03
        BYTE                   38
        BYTE   W04
        BYTE                   37
        BYTE   W06
        BYTE                   38
        BYTE   W03
        BYTE                   39
        BYTE   W06
        BYTE                   40
        BYTE   W03
        BYTE                   41
        BYTE   W06
        BYTE                   42
        BYTE   W03
        BYTE                   43
        BYTE   W02
        BYTE           N23     Cn3
        BYTE   W24
        BYTE                   Dn3
        BYTE   W24
// 030   ----------------------------------------
        BYTE           TIE     Ds3
        BYTE   W09
        BYTE           VOL     42
        BYTE   W06
        BYTE                   41
        BYTE   W06
        BYTE                   40
        BYTE   W06
        BYTE                   39
        BYTE   W09
        BYTE                   38
        BYTE   W06
        BYTE                   37
        BYTE   W06
        BYTE                   36
        BYTE   W06
        BYTE                   35
        BYTE   W08
        BYTE                   36
        BYTE   W11
        BYTE                   37
        BYTE   W11
        BYTE                   38
        BYTE   W11
        BYTE                   39
        BYTE   W01
// 031   ----------------------------------------
        BYTE   W11
        BYTE                   40
        BYTE   W11
        BYTE                   41
        BYTE   W11
        BYTE                   42
        BYTE   W11
        BYTE                   43
        BYTE   W03
        BYTE           EOT
        BYTE   W01
        BYTE           N17     Dn3
        BYTE   W18
        BYTE                   Ds3
        BYTE   W18
        BYTE           N11     Fn3
        BYTE   W12
// 032   ----------------------------------------
        BYTE           N60     Gn3
        BYTE   W03
        BYTE           VOL     42
        BYTE   W03
        BYTE                   41
        BYTE   W03
        BYTE                   40
        BYTE   W06
        BYTE                   39
        BYTE   W03
        BYTE                   38
        BYTE   W10
        BYTE                   39
        BYTE   W09
        BYTE                   40
        BYTE   W09
        BYTE                   41
        BYTE   W09
        BYTE                   42
        BYTE   W17
        BYTE           N17
        BYTE   W18
        BYTE           N05     Gs3
        BYTE   W06
// 033   ----------------------------------------
        BYTE           N92     Gn3   v107   gtp3
        BYTE   W23
        BYTE           VOL     41
        BYTE   W14
        BYTE                   40
        BYTE   W09
        BYTE                   39
        BYTE   W06
        BYTE                   38
        BYTE   W06
        BYTE                   37
        BYTE   W06
        BYTE                   36
        BYTE   W06
        BYTE                   35
        BYTE   W06
        BYTE                   34
        BYTE   W06
        BYTE                   33
        BYTE   W06
        BYTE                   32
        BYTE   W03
        BYTE                   31
        BYTE   W05
// 034   ----------------------------------------
        BYTE   W96
// 035   ----------------------------------------
        BYTE   W96
// 036   ----------------------------------------
        BYTE   W96
// 037   ----------------------------------------
        BYTE   W96
// 038   ----------------------------------------
        BYTE   W96
// 039   ----------------------------------------
        BYTE   W96
// 040   ----------------------------------------
        BYTE           VOICE   57
        BYTE           VOL     100
        BYTE           PAN     c_v+0
        BYTE   GoTo
         POIN2  EndlessBattle_6_LOOP
        BYTE   FINE

//****************** Track 7 (Midi-Chn.7) ******************//

EndlessBattle_7:
        BYTE   KEYSH   EndlessBattle_key+0
// 000   ----------------------------------------
        BYTE           VOICE   47
        BYTE           VOL     60
        BYTE           PAN     c_v+19
        BYTE           N32     Gn2   v113   gtp3
        BYTE   W36
        BYTE           N32     Gn2   v087   gtp2
        BYTE   W36
        BYTE           N23     Gn2   v113
        BYTE   W24
// 001   ----------------------------------------
EndlessBattle_7_1:
        BYTE           N32     Gn2   v113   gtp3
        BYTE   W36
        BYTE           N32     Gn2   v087   gtp2
        BYTE   W36
        BYTE           N11     Gn2   v113
        BYTE   W12
        BYTE           N04     Gn2   v083
        BYTE   W04
        BYTE                   Gn2   v091
        BYTE   W04
        BYTE                   Gn2   v104
        BYTE   W04
        BYTE   PEND
// 002   ----------------------------------------
EndlessBattle_7_LOOP:
        BYTE           N32     Cn3   v099   gtp3
        BYTE   W36
        BYTE           N56     Cn3   v093   gtp2
        BYTE   W60
// 003   ----------------------------------------
EndlessBattle_7_3:
        BYTE           N32     As2   v099   gtp3
        BYTE   W36
        BYTE           N56     As2   v093   gtp2
        BYTE   W60
        BYTE   PEND
// 004   ----------------------------------------
EndlessBattle_7_4:
        BYTE           N32     Gs2   v099   gtp3
        BYTE   W36
        BYTE           N56     Gs2   v093   gtp2
        BYTE   W60
        BYTE   PEND
// 005   ----------------------------------------
EndlessBattle_7_5:
        BYTE           N32     Gn2   v099   gtp3
        BYTE   W36
        BYTE           N56     Gn2   v093   gtp2
        BYTE   W60
        BYTE   PEND
// 006   ----------------------------------------
        BYTE           N32     Fn2   v099   gtp3
        BYTE   W36
        BYTE           N56     Fn2   v093   gtp2
        BYTE   W60
// 007   ----------------------------------------
        BYTE           N32     Ds2   v099   gtp3
        BYTE   W36
        BYTE           N56     Ds2   v093   gtp2
        BYTE   W60
// 008   ----------------------------------------
EndlessBattle_7_8:
        BYTE           N32     Dn3   v099   gtp3
        BYTE   W36
        BYTE           N56     Dn3   v093   gtp2
        BYTE   W60
        BYTE   PEND
// 009   ----------------------------------------
        BYTE   PATT
         POIN2  EndlessBattle_7_5
// 010   ----------------------------------------
        BYTE           N32     Cn3   v099   gtp3
        BYTE   W36
        BYTE           N56     Cn3   v093   gtp2
        BYTE   W60
// 011   ----------------------------------------
        BYTE   PATT
         POIN2  EndlessBattle_7_3
// 012   ----------------------------------------
        BYTE           N32     An2   v099   gtp3
        BYTE   W36
        BYTE           N56     An2   v093   gtp2
        BYTE   W60
// 013   ----------------------------------------
        BYTE   PATT
         POIN2  EndlessBattle_7_4
// 014   ----------------------------------------
EndlessBattle_7_14:
        BYTE           N32     Cs3   v099   gtp3
        BYTE   W36
        BYTE           N56     Cs3   v093   gtp2
        BYTE   W60
        BYTE   PEND
// 015   ----------------------------------------
        BYTE   PATT
         POIN2  EndlessBattle_7_14
// 016   ----------------------------------------
        BYTE   PATT
         POIN2  EndlessBattle_7_8
// 017   ----------------------------------------
        BYTE   PATT
         POIN2  EndlessBattle_7_5
// 018   ----------------------------------------
        BYTE           N96     Gs2   v089
        BYTE   W96
// 019   ----------------------------------------
        BYTE                   As2
        BYTE   W96
// 020   ----------------------------------------
        BYTE                   Ds2
        BYTE   W96
// 021   ----------------------------------------
        BYTE                   Fn2
        BYTE   W96
// 022   ----------------------------------------
        BYTE                   Gs2
        BYTE   W96
// 023   ----------------------------------------
        BYTE                   As2
        BYTE   W96
// 024   ----------------------------------------
        BYTE                   An2
        BYTE   W96
// 025   ----------------------------------------
        BYTE                   An2
        BYTE   W96
// 026   ----------------------------------------
        BYTE                   Gs2
        BYTE   W96
// 027   ----------------------------------------
        BYTE                   As2
        BYTE   W96
// 028   ----------------------------------------
        BYTE                   Ds2
        BYTE   W96
// 029   ----------------------------------------
        BYTE                   Fn2
        BYTE   W96
// 030   ----------------------------------------
        BYTE                   Gs2
        BYTE   W96
// 031   ----------------------------------------
        BYTE                   Gs2
        BYTE   W96
// 032   ----------------------------------------
        BYTE           N24     As2   v087
        BYTE   W24
        BYTE                   As2   v083
        BYTE   W24
        BYTE                   As2
        BYTE   W24
        BYTE                   As2
        BYTE   W24
// 033   ----------------------------------------
        BYTE                   Bn2   v113
        BYTE   W24
        BYTE                   Bn2   v083
        BYTE   W24
        BYTE                   Bn2
        BYTE   W24
        BYTE                   Bn2
        BYTE   W24
// 034   ----------------------------------------
        BYTE           N36     Cn4   v113
        BYTE   W36
        BYTE                   As2   v104
        BYTE   W36
        BYTE           N96     Gs2
        BYTE   W24
// 035   ----------------------------------------
        BYTE   W72
        BYTE           N06     Gs2   v071
        BYTE   W06
        BYTE                   Gs2   v085
        BYTE   W06
        BYTE                   Gs2   v094
        BYTE   W06
        BYTE                   Gs2   v113
        BYTE   W06
// 036   ----------------------------------------
        BYTE           N36     Cn4
        BYTE   W36
        BYTE                   As2   v104
        BYTE   W36
        BYTE           N72     Gs2
        BYTE   W24
// 037   ----------------------------------------
        BYTE   W48
        BYTE           N24     Ds2   v106
        BYTE   W24
        BYTE                   Gs2   v113
        BYTE   W24
// 038   ----------------------------------------
        BYTE           N32     Gn2   v113   gtp3
        BYTE   W36
        BYTE           N32     Gn2   v087   gtp2
        BYTE   W36
        BYTE           N23     Gn2   v113
        BYTE   W24
// 039   ----------------------------------------
        BYTE   PATT
         POIN2  EndlessBattle_7_1
// 040   ----------------------------------------
        BYTE   GoTo
         POIN2  EndlessBattle_7_LOOP
        BYTE   FINE

//****************** Track 8 (Midi-Chn.8) ******************//

EndlessBattle_8:
        BYTE   KEYSH   EndlessBattle_key+0
// 000   ----------------------------------------
        BYTE           VOICE   11
        BYTE           VOL     37
        BYTE           PAN     c_v-14
        BYTE           N11     Gn3   v116
        BYTE   W12
        BYTE                   Gn3   v095
        BYTE   W12
        BYTE                   Gn3   v056
        BYTE   W12
        BYTE                   Gn3   v116
        BYTE   W12
        BYTE                   Gn3   v095
        BYTE   W12
        BYTE                   Gn3   v056
        BYTE   W12
        BYTE                   Gn3   v116
        BYTE   W12
        BYTE                   Gn3   v095
        BYTE   W12
// 001   ----------------------------------------
EndlessBattle_8_1:
        BYTE           N11     Gn3   v116
        BYTE   W12
        BYTE                   Gn3   v095
        BYTE   W12
        BYTE                   Gn3   v056
        BYTE   W12
        BYTE                   Gn3   v116
        BYTE   W12
        BYTE                   Gn3   v095
        BYTE   W12
        BYTE                   Gn3   v056
        BYTE   W12
        BYTE                   Gn3   v116
        BYTE   W12
        BYTE                   Gn3   v095
        BYTE   W12
        BYTE   PEND
// 002   ----------------------------------------
EndlessBattle_8_LOOP:
        BYTE           N11     Cn4   v116
        BYTE   W12
        BYTE                   Cn4   v095
        BYTE   W12
        BYTE                   Cn4   v056
        BYTE   W12
        BYTE                   Cn4   v116
        BYTE   W12
        BYTE                   Cn4   v095
        BYTE   W12
        BYTE                   Cn4   v056
        BYTE   W12
        BYTE                   Cn4   v116
        BYTE   W12
        BYTE                   Cn4   v095
        BYTE   W12
// 003   ----------------------------------------
EndlessBattle_8_3:
        BYTE           N11     As3   v116
        BYTE   W12
        BYTE                   As3   v095
        BYTE   W12
        BYTE                   As3   v056
        BYTE   W12
        BYTE                   As3   v116
        BYTE   W12
        BYTE                   As3   v095
        BYTE   W12
        BYTE                   As3   v056
        BYTE   W12
        BYTE                   As3   v116
        BYTE   W12
        BYTE                   As3   v095
        BYTE   W12
        BYTE   PEND
// 004   ----------------------------------------
EndlessBattle_8_4:
        BYTE           N11     Gs3   v116
        BYTE   W12
        BYTE                   Gs3   v095
        BYTE   W12
        BYTE                   Gs3   v056
        BYTE   W12
        BYTE                   Gs3   v116
        BYTE   W12
        BYTE                   Gs3   v095
        BYTE   W12
        BYTE                   Gs3   v056
        BYTE   W12
        BYTE                   Gs3   v116
        BYTE   W12
        BYTE                   Gs3   v095
        BYTE   W12
        BYTE   PEND
// 005   ----------------------------------------
        BYTE   PATT
         POIN2  EndlessBattle_8_1
// 006   ----------------------------------------
        BYTE           N11     Fn3   v116
        BYTE   W12
        BYTE                   Fn3   v095
        BYTE   W12
        BYTE                   Fn3   v056
        BYTE   W12
        BYTE                   Fn3   v116
        BYTE   W12
        BYTE                   Fn3   v095
        BYTE   W12
        BYTE                   Fn3   v056
        BYTE   W12
        BYTE                   Fn3   v116
        BYTE   W12
        BYTE                   Fn3   v095
        BYTE   W12
// 007   ----------------------------------------
        BYTE                   Ds3   v116
        BYTE   W12
        BYTE                   Ds3   v095
        BYTE   W12
        BYTE                   Ds3   v056
        BYTE   W12
        BYTE                   Ds3   v116
        BYTE   W12
        BYTE                   Ds3   v095
        BYTE   W12
        BYTE                   Ds3   v056
        BYTE   W12
        BYTE                   Ds3   v116
        BYTE   W12
        BYTE                   Ds3   v095
        BYTE   W12
// 008   ----------------------------------------
EndlessBattle_8_8:
        BYTE           N11     Dn4   v116
        BYTE   W12
        BYTE                   Dn4   v095
        BYTE   W12
        BYTE                   Dn4   v056
        BYTE   W12
        BYTE                   Dn4   v116
        BYTE   W12
        BYTE                   Dn4   v095
        BYTE   W12
        BYTE                   Dn4   v056
        BYTE   W12
        BYTE                   Dn4   v116
        BYTE   W12
        BYTE                   Dn4   v095
        BYTE   W12
        BYTE   PEND
// 009   ----------------------------------------
        BYTE   PATT
         POIN2  EndlessBattle_8_1
// 010   ----------------------------------------
        BYTE           N11     Cn4   v116
        BYTE   W12
        BYTE                   Cn4   v095
        BYTE   W12
        BYTE                   Cn4   v056
        BYTE   W12
        BYTE                   Cn4   v116
        BYTE   W12
        BYTE                   Cn4   v095
        BYTE   W12
        BYTE                   Cn4   v056
        BYTE   W12
        BYTE                   Cn4   v116
        BYTE   W12
        BYTE                   Cn4   v095
        BYTE   W12
// 011   ----------------------------------------
        BYTE   PATT
         POIN2  EndlessBattle_8_3
// 012   ----------------------------------------
        BYTE           N11     An3   v116
        BYTE   W12
        BYTE                   An3   v095
        BYTE   W12
        BYTE                   An3   v056
        BYTE   W12
        BYTE                   An3   v116
        BYTE   W12
        BYTE                   An3   v095
        BYTE   W12
        BYTE                   An3   v056
        BYTE   W12
        BYTE                   An3   v116
        BYTE   W12
        BYTE                   An3   v095
        BYTE   W12
// 013   ----------------------------------------
        BYTE   PATT
         POIN2  EndlessBattle_8_4
// 014   ----------------------------------------
EndlessBattle_8_14:
        BYTE           N11     Cs4   v116
        BYTE   W12
        BYTE                   Cs4   v095
        BYTE   W12
        BYTE                   Cs4   v056
        BYTE   W12
        BYTE                   Cs4   v116
        BYTE   W12
        BYTE                   Cs4   v095
        BYTE   W12
        BYTE                   Cs4   v056
        BYTE   W12
        BYTE                   Cs4   v116
        BYTE   W12
        BYTE                   Cs4   v095
        BYTE   W12
        BYTE   PEND
// 015   ----------------------------------------
        BYTE   PATT
         POIN2  EndlessBattle_8_14
// 016   ----------------------------------------
        BYTE   PATT
         POIN2  EndlessBattle_8_8
// 017   ----------------------------------------
        BYTE   PATT
         POIN2  EndlessBattle_8_1
// 018   ----------------------------------------
        BYTE           N48     Gs1   v075
        BYTE   W48
        BYTE           N23     Ds2
        BYTE   W24
        BYTE                   Gs2
        BYTE   W24
// 019   ----------------------------------------
        BYTE           N24     As2
        BYTE   W24
        BYTE           N54     As1
        BYTE   W60
        BYTE           N06     Cn2
        BYTE   W06
        BYTE                   Dn2
        BYTE   W06
// 020   ----------------------------------------
EndlessBattle_8_20:
        BYTE           N48     Ds2   v075
        BYTE   W48
        BYTE           N24     As1
        BYTE   W24
        BYTE                   Ds2
        BYTE   W24
        BYTE   PEND
// 021   ----------------------------------------
        BYTE           N48     Fn2
        BYTE   W48
        BYTE           N24     Cn2
        BYTE   W24
        BYTE                   An1
        BYTE   W24
// 022   ----------------------------------------
        BYTE           N72     Gs1
        BYTE   W72
        BYTE           N24     Ds2
        BYTE   W24
// 023   ----------------------------------------
        BYTE                   As1
        BYTE   W24
        BYTE                   Fn2
        BYTE   W24
        BYTE                   Cn3
        BYTE   W24
        BYTE                   As2
        BYTE   W24
// 024   ----------------------------------------
        BYTE           N48     An2
        BYTE   W48
        BYTE                   An1
        BYTE   W48
// 025   ----------------------------------------
        BYTE           N24     Fn2
        BYTE   W24
        BYTE                   Ds2
        BYTE   W24
        BYTE                   Cn2
        BYTE   W24
        BYTE                   An1
        BYTE   W24
// 026   ----------------------------------------
        BYTE           N78     Gs1
        BYTE   W84
        BYTE           N06     As1
        BYTE   W06
        BYTE                   Cn2
        BYTE   W06
// 027   ----------------------------------------
        BYTE           N48     As1
        BYTE   W48
        BYTE           N24     Cn2
        BYTE   W24
        BYTE                   Dn2
        BYTE   W24
// 028   ----------------------------------------
        BYTE   PATT
         POIN2  EndlessBattle_8_20
// 029   ----------------------------------------
        BYTE           N48     Fn2   v075
        BYTE   W48
        BYTE                   Fn1
        BYTE   W48
// 030   ----------------------------------------
        BYTE                   Gs1
        BYTE   W48
        BYTE           N24     Ds2
        BYTE   W24
        BYTE           N48     Gs2
        BYTE   W24
// 031   ----------------------------------------
        BYTE   W24
        BYTE                   Gs1
        BYTE   W48
        BYTE           N24     Cn2
        BYTE   W24
// 032   ----------------------------------------
        BYTE                   As3   v096
        BYTE   W24
        BYTE                   As3
        BYTE   W24
        BYTE                   As3
        BYTE   W24
        BYTE                   As3
        BYTE   W24
// 033   ----------------------------------------
        BYTE                   Bn3
        BYTE   W24
        BYTE                   Bn3
        BYTE   W24
        BYTE                   Gn3
        BYTE   W24
        BYTE                   Bn3
        BYTE   W24
// 034   ----------------------------------------
EndlessBattle_8_34:
        BYTE           N11     Cn4   v116
        BYTE   W12
        BYTE                   Cn4   v095
        BYTE   W12
        BYTE                   Cn4   v056
        BYTE   W12
        BYTE                   As3   v116
        BYTE   W12
        BYTE                   As3   v095
        BYTE   W12
        BYTE                   As3   v056
        BYTE   W12
        BYTE                   Gs3   v116
        BYTE   W12
        BYTE                   Gs3   v095
        BYTE   W12
        BYTE   PEND
// 035   ----------------------------------------
        BYTE   PATT
         POIN2  EndlessBattle_8_4
// 036   ----------------------------------------
        BYTE   PATT
         POIN2  EndlessBattle_8_34
// 037   ----------------------------------------
        BYTE   PATT
         POIN2  EndlessBattle_8_4
// 038   ----------------------------------------
        BYTE   PATT
         POIN2  EndlessBattle_8_1
// 039   ----------------------------------------
        BYTE   PATT
         POIN2  EndlessBattle_8_1
// 040   ----------------------------------------
        BYTE   GoTo
         POIN2  EndlessBattle_8_LOOP
        BYTE   FINE


//********************** End of Song ***********************//

        ALIGN 4
EndlessBattle:
        BYTE   9                       // Num Tracks
        BYTE   0                       // Unknown
        BYTE   EndlessBattle_pri       // Priority
        BYTE   EndlessBattle_rev       // Reverb

        POIN2   EndlessBattle_grp      

        POIN2   EndlessBattle_0
        POIN2   EndlessBattle_1
        POIN2   EndlessBattle_2
        POIN2   EndlessBattle_3
        POIN2   EndlessBattle_4
        POIN2   EndlessBattle_5
        POIN2   EndlessBattle_6
        POIN2   EndlessBattle_7
        POIN2   EndlessBattle_8

        
