	.include "MPlayDef.s"

	.equ	Die_grp, voicegroup000
	.equ	Die_pri, 0
	.equ	Die_rev, 0
	.equ	Die_mvl, 85
	.equ	Die_key, 0
	.equ	Die_tbs, 1
	.equ	Die_exg, 0
	.equ	Die_cmp, 1

	.section .rodata
	.global	Die
	.align	2

@**************** Track 1 (Midi-Chn.1) ****************@

Die_1:
	.byte	KEYSH , Die_key+0
@ 000   ----------------------------------------
	.byte	TEMPO , 93*Die_tbs/2
	.byte		VOICE , 41
	.byte		VOL   , 100*Die_mvl/mxv
	.byte		PAN   , c_v-20
	.byte		N23   , Fn3 , v096
	.byte		N23   , Fn4 , v076
	.byte	W01
	.byte	W02
	.byte	W01
	.byte	W02
	.byte	W01
	.byte	W02
	.byte	W01
	.byte	W01
	.byte	W01
	.byte	W01
	.byte	W01
	.byte	W01
	.byte	W01
	.byte	W01
	.byte	W01
	.byte	W01
	.byte	W01
	.byte	W01
	.byte	W01
	.byte	W01
	.byte	W01
	.byte		N90   , Ds3 , v096
	.byte		N90   , Ds4 , v072
	.byte	W01
	.byte	W02
	.byte	W01
	.byte	W02
	.byte	W01
	.byte	W02
	.byte	W01
	.byte	W02
	.byte	W01
	.byte	W02
	.byte	W01
	.byte	W02
	.byte	W01
	.byte	W02
	.byte	W01
	.byte	W02
	.byte	W01
	.byte	W02
	.byte	W01
	.byte	W02
	.byte	W01
	.byte	W02
	.byte	W01
	.byte	W02
	.byte	W01
	.byte	W02
	.byte	W01
	.byte	W15
	.byte	W03
	.byte	W01
	.byte	W02
	.byte	W01
	.byte	W02
	.byte	W01
	.byte	W02
	.byte	W01
	.byte	W02
	.byte	W01
	.byte	W01
@ 001   ----------------------------------------
	.byte	W01
	.byte	W01
	.byte	W02
	.byte	W01
	.byte	W02
	.byte	W01
	.byte	W02
	.byte	W01
	.byte	W02
	.byte	W01
	.byte	W02
	.byte	W01
	.byte	W02
	.byte	W01
	.byte	W02
	.byte	W01
	.byte	W01
	.byte	TEMPO , 85*Die_tbs/2
	.byte		N44   , Cn3 , v064
	.byte		N42   , Ds3 , v076
	.byte	W03
	.byte	W01
	.byte	W02
	.byte	W01
	.byte	W02
	.byte	W01
	.byte	W02
	.byte	W01
	.byte	W02
	.byte	W01
	.byte	W02
	.byte	W01
	.byte	W02
	.byte	W01
	.byte	W02
	.byte	W01
	.byte	W02
	.byte	W01
	.byte	W02
	.byte	W01
	.byte	W02
	.byte	W01
	.byte	W02
	.byte	W01
	.byte	W02
	.byte	W01
	.byte	W02
	.byte	W01
	.byte	W05
	.byte		N44   , Cn3 , v064
	.byte		N44   , Ds3 , v076
	.byte	W10
	.byte	W03
	.byte	W01
	.byte	W02
	.byte	W01
	.byte	W02
	.byte	W01
	.byte	W02
	.byte	W01
	.byte	W01
@ 002   ----------------------------------------
	.byte	W01
	.byte	W01
	.byte	W02
	.byte	W01
	.byte	W02
	.byte	W01
	.byte	W02
	.byte	W01
	.byte	W02
	.byte	W01
	.byte	W02
	.byte	W01
	.byte	W02
	.byte	W01
	.byte	W02
	.byte	W01
	.byte	W01
	.byte		        Cn3 , v064
	.byte		N44   , Ds3 , v076
	.byte	W02
	.byte	W03
	.byte	W03
	.byte	W03
	.byte	W03
	.byte	W03
	.byte	W03
	.byte	W03
	.byte	W03
	.byte	W03
	.byte	W03
	.byte	W03
	.byte	W03
	.byte	W03
	.byte	W01
	.byte	W06
	.byte		        Bn2 , v064
	.byte		N44   , Dn3 , v080
	.byte	W09
	.byte	W03
	.byte	W02
	.byte	W01
	.byte	W02
	.byte	W01
	.byte	W02
	.byte	W01
	.byte	W02
	.byte	W01
@ 003   ----------------------------------------
	.byte	W02
	.byte	W01
	.byte	W02
	.byte	W01
	.byte	W02
	.byte	W01
	.byte	W02
	.byte	W01
	.byte	W02
	.byte	W01
	.byte	W02
	.byte	W01
	.byte	W02
	.byte	W01
	.byte	W02
	.byte	W01
Die_1_B1:
	.byte		N44   , Cn3 , v076
	.byte		N44   , Ds3 , v092
	.byte	W06
	.byte	W03
	.byte	W06
	.byte	W03
	.byte	W03
	.byte	W03
	.byte	W03
	.byte	W03
	.byte	W03
	.byte	W03
	.byte	W03
	.byte	W03
	.byte	W03
	.byte	W03
	.byte		        Cn3 , v080
	.byte		N44   , Ds3 , v096
	.byte	W03
	.byte	W03
	.byte	W03
	.byte	W03
	.byte	W03
	.byte	W03
	.byte	W03
	.byte	W03
@ 004   ----------------------------------------
	.byte	W03
	.byte	W03
	.byte	W03
	.byte	W03
	.byte	W12
	.byte		        Cn3 , v080
	.byte		N48   , Fn3 , v092
	.byte	W08
	.byte	W06
	.byte	W03
	.byte	W03
	.byte	W03
	.byte	W03
	.byte	W03
	.byte	W03
	.byte	W03
	.byte	W03
	.byte	W03
	.byte	W03
	.byte	W04
	.byte	TEMPO , 82*Die_tbs/2
	.byte		N92   , As2 , v076
	.byte		N22   , Ds3 , v096
	.byte	W02
	.byte	W03
	.byte	W03
	.byte	W03
	.byte	W01
	.byte	TEMPO , 80*Die_tbs/2
	.byte	W02
	.byte	W03
	.byte	W03
	.byte	W03
	.byte	W01
@ 005   ----------------------------------------
	.byte	TEMPO , 77*Die_tbs/2
	.byte		N23   , Dn3 
	.byte	W02
	.byte	W03
	.byte	W03
	.byte	W03
	.byte	W01
	.byte	TEMPO , 75*Die_tbs/2
	.byte	W02
	.byte	W02
	.byte	W08
	.byte	TEMPO , 72*Die_tbs/2
	.byte		N24   , Cn3 
	.byte	W07
	.byte	W03
	.byte	W01
	.byte	W01
	.byte	TEMPO , 69*Die_tbs/2
	.byte	W02
	.byte	W02
	.byte	W01
	.byte	W02
	.byte	W01
	.byte	W02
	.byte	W01
	.byte	W01
	.byte	TEMPO , 67*Die_tbs/2
	.byte		N22   , Dn3 
	.byte	W01
	.byte	W01
	.byte	W02
	.byte	W01
	.byte	W02
	.byte	W01
	.byte	W02
	.byte	W01
	.byte	W01
	.byte	TEMPO , 64*Die_tbs/2
	.byte	W01
	.byte	W01
	.byte	W02
	.byte	W01
	.byte	W02
	.byte	W01
	.byte	W02
	.byte	W01
	.byte	W01
	.byte	TEMPO , 85*Die_tbs/2
	.byte		N44   , Cn3 , v064
	.byte		N42   , Ds3 , v076
	.byte	W03
	.byte	W03
	.byte	W03
	.byte	W03
	.byte	W03
	.byte	W03
	.byte	W03
	.byte	W03
@ 006   ----------------------------------------
	.byte	W03
	.byte	W03
	.byte	W03
	.byte	W03
	.byte	W03
	.byte	W03
	.byte	W01
	.byte	W05
	.byte		N44   , Cn3 , v064
	.byte		N44   , Ds3 , v076
	.byte	W10
	.byte	W03
	.byte	W01
	.byte	W02
	.byte	W01
	.byte	W02
	.byte	W01
	.byte	W02
	.byte	W01
	.byte	W02
	.byte	W01
	.byte	W02
	.byte	W01
	.byte	W02
	.byte	W01
	.byte	W02
	.byte	W01
	.byte	W02
	.byte	W01
	.byte	W02
	.byte	W01
	.byte	W02
	.byte	W01
	.byte	W02
	.byte	W01
	.byte	W01
	.byte		        Cn3 , v064
	.byte		N44   , Ds3 , v076
	.byte	W02
	.byte	W03
	.byte	W03
	.byte	W03
	.byte	W03
	.byte	W03
	.byte	W03
	.byte	W03
	.byte	W01
@ 007   ----------------------------------------
	.byte	W02
	.byte	W03
	.byte	W03
	.byte	W03
	.byte	W03
	.byte	W03
	.byte	W01
	.byte	W06
	.byte		        Bn2 , v064
	.byte		N44   , Dn3 , v080
	.byte	W09
	.byte	W03
	.byte	W03
	.byte	W03
	.byte	W03
	.byte	W03
	.byte	W03
	.byte	W03
	.byte	W03
	.byte	W03
	.byte	W03
	.byte	W03
	.byte	W03
	.byte	W03
	.byte	GOTO
	 .word	Die_1_B1
Die_1_B2:
	.byte	W02
	.byte	FINE

@**************** Track 2 (Midi-Chn.2) ****************@

Die_2:
	.byte	KEYSH , Die_key+0
@ 000   ----------------------------------------
	.byte		VOICE , 105
	.byte		VOL   , 115*Die_mvl/mxv
	.byte		PAN   , c_v+19
	.byte		N23   , As2 , v112
	.byte		N23   , Gs3 , v076
	.byte	W01
	.byte	W01
	.byte	W01
	.byte	W01
	.byte	W01
	.byte	W01
	.byte	W01
	.byte	W01
	.byte	W01
	.byte	W01
	.byte	W01
	.byte	W01
	.byte	W01
	.byte	W01
	.byte	W01
	.byte	W01
	.byte	W01
	.byte	W01
	.byte	W01
	.byte	W01
	.byte	W01
	.byte	W01
	.byte	W01
	.byte	W01
	.byte		N90   , Gn2 , v104
	.byte		N90   , Ds3 , v088
	.byte	W01
	.byte	W02
	.byte	W01
	.byte	W02
	.byte	W01
	.byte	W02
	.byte	W01
	.byte	W02
	.byte	W01
	.byte	W02
	.byte	W01
	.byte	W02
	.byte	W01
	.byte	W02
	.byte	W01
	.byte	W02
	.byte	W01
	.byte	W02
	.byte	W01
	.byte	W02
	.byte	W01
	.byte	W02
	.byte	W01
	.byte	W02
	.byte	W01
	.byte	W02
	.byte	W01
	.byte	W15
	.byte	W01
	.byte	W02
	.byte	W01
	.byte	W02
	.byte	W01
	.byte	W02
	.byte	W01
	.byte	W02
	.byte	W01
	.byte	W02
	.byte	W01
	.byte	W01
@ 001   ----------------------------------------
	.byte	W01
	.byte	W01
	.byte	W02
	.byte	W01
	.byte	W02
	.byte	W01
	.byte	W02
	.byte	W01
	.byte	W02
	.byte	W01
	.byte	W02
	.byte	W01
	.byte	W02
	.byte	W01
	.byte	W02
	.byte	W01
	.byte	W01
	.byte		TIE   , Ds1 , v072
	.byte		TIE   , Gn1 
	.byte	W06
	.byte	W03
	.byte	W03
	.byte	W03
	.byte	W03
	.byte	W03
	.byte	W03
	.byte	W03
	.byte	W03
	.byte	W03
	.byte	W03
	.byte	W03
	.byte	W03
	.byte	W03
	.byte	W03
	.byte	W03
	.byte	W03
	.byte	W03
	.byte	W03
	.byte	W03
	.byte	W03
	.byte	W03
	.byte	W03
@ 002   ----------------------------------------
	.byte	W03
	.byte	W03
	.byte	W03
	.byte	W03
	.byte	W17
	.byte	W06
	.byte	W06
	.byte	W03
	.byte	W06
	.byte	W03
	.byte	W03
	.byte	W03
	.byte	W03
	.byte	W03
	.byte	W03
	.byte	W03
	.byte		EOT   , Ds1 
	.byte	W01
	.byte		N44   , Dn1 , v068
	.byte	W02
	.byte	W03
	.byte	W03
	.byte	W03
	.byte	W03
	.byte	W03
	.byte	W03
	.byte	W03
	.byte	W01
@ 003   ----------------------------------------
	.byte	W02
	.byte	W03
	.byte	W03
	.byte	W03
	.byte	W03
	.byte	W03
	.byte	W03
	.byte	W02
	.byte	W02
	.byte		EOT   , Gn1 
Die_2_B1:
	.byte		N92   , Ds1 , v068
	.byte		N92   , Gn1 , v072
	.byte	W04
	.byte	W06
	.byte	W06
	.byte	W03
	.byte	W06
	.byte	W03
	.byte	W03
	.byte	W03
	.byte	W06
	.byte	W03
	.byte	W03
	.byte	W03
	.byte	W03
	.byte	W03
	.byte	W03
	.byte	W03
	.byte	W03
	.byte	W03
	.byte	W03
	.byte	W02
@ 004   ----------------------------------------
	.byte	W01
	.byte	W03
	.byte	W03
	.byte	W03
	.byte	W03
	.byte	W03
	.byte	W03
	.byte	W03
	.byte	W02
	.byte		N44   , Fn1 , v068
	.byte		N48   , Gs1 
	.byte	W01
	.byte	W01
	.byte	W44
	.byte	W02
	.byte		N24   , Ds1 
	.byte		N90   , Fn1 
	.byte	W04
	.byte	W06
	.byte	W03
	.byte	W06
	.byte	W03
	.byte	W02
@ 005   ----------------------------------------
	.byte		N24   , Dn1 
	.byte	W01
	.byte	W03
	.byte	W06
	.byte	W03
	.byte	W03
	.byte	W03
	.byte	W03
	.byte	W02
	.byte		        Cn1 
	.byte	W01
	.byte	W03
	.byte	W03
	.byte	W03
	.byte	W03
	.byte	W03
	.byte	W03
	.byte	W03
	.byte	W02
	.byte		        Dn1 , v064
	.byte	W01
	.byte	W03
	.byte	W03
	.byte	W03
	.byte	W03
	.byte	W03
	.byte	W03
	.byte	W03
	.byte	W02
	.byte		TIE   , Ds1 , v072
	.byte		TIE   , Gn1 
	.byte	W06
	.byte	W03
	.byte	W03
	.byte	W03
	.byte	W03
	.byte	W03
	.byte	W03
@ 006   ----------------------------------------
	.byte	W03
	.byte	W03
	.byte	W03
	.byte	W03
	.byte	W03
	.byte	W03
	.byte	W03
	.byte	W03
	.byte	W03
	.byte	W03
	.byte	W03
	.byte	W03
	.byte	W03
	.byte	W03
	.byte	W03
	.byte	W03
	.byte	W03
	.byte	W03
	.byte	W03
	.byte	W03
	.byte	W17
	.byte	W06
	.byte	W06
	.byte	W03
	.byte	W04
@ 007   ----------------------------------------
	.byte	W02
	.byte	W03
	.byte	W03
	.byte	W03
	.byte	W03
	.byte	W03
	.byte	W03
	.byte	W03
	.byte		EOT   , Ds1 
	.byte	W01
	.byte		N44   , Dn1 , v068
	.byte	W02
	.byte	W03
	.byte	W03
	.byte	W03
	.byte	W03
	.byte	W03
	.byte	W03
	.byte	W03
	.byte	W03
	.byte	W03
	.byte	W03
	.byte	W03
	.byte	W03
	.byte	W03
	.byte	W03
	.byte	W02
	.byte	W02
	.byte		EOT   , Gn1 
	.byte	GOTO
	 .word	Die_2_B1
Die_2_B2:
	.byte	W02
	.byte	FINE

@**************** Track 3 (Midi-Chn.3) ****************@

Die_3:
	.byte	KEYSH , Die_key+0
@ 000   ----------------------------------------
	.byte		VOICE , 49
	.byte		VOL   , 93*Die_mvl/mxv
	.byte		PAN   , c_v+17
	.byte		N23   , Gs3 , v096
	.byte	W01
	.byte	W01
	.byte	W01
	.byte	W01
	.byte	W01
	.byte	W01
	.byte	W01
	.byte	W01
	.byte	W01
	.byte	W01
	.byte	W01
	.byte	W01
	.byte	W02
	.byte	W01
	.byte	W02
	.byte	W01
	.byte	W02
	.byte	W01
	.byte	W02
	.byte	W01
	.byte		N90   , Ds3 , v088
	.byte	W03
	.byte	W03
	.byte	W03
	.byte	W03
	.byte	W03
	.byte	W03
	.byte	W03
	.byte	W03
	.byte	W03
	.byte	W03
	.byte	W03
	.byte	W03
	.byte	W03
	.byte	W01
	.byte	W15
	.byte	W01
	.byte	W02
	.byte	W01
	.byte	W02
	.byte	W01
	.byte	W02
	.byte	W01
	.byte	W02
	.byte	W01
	.byte	W02
	.byte	W01
	.byte	W01
@ 001   ----------------------------------------
	.byte	W01
	.byte	W01
	.byte	W02
	.byte	W01
	.byte	W02
	.byte	W01
	.byte	W02
	.byte	W01
	.byte	W02
	.byte	W01
	.byte	W02
	.byte	W01
	.byte	W02
	.byte	W01
	.byte	W02
	.byte	W02
	.byte		N44   , Cn3 , v072
	.byte	W04
	.byte	W06
	.byte	W06
	.byte	W03
	.byte	W06
	.byte	W03
	.byte	W03
	.byte	W03
	.byte	W03
	.byte	W03
	.byte	W03
	.byte	W03
	.byte	W02
	.byte		        As2 
	.byte	W01
	.byte	W03
	.byte	W03
	.byte	W03
	.byte	W03
	.byte	W03
	.byte	W03
	.byte	W03
	.byte	W02
@ 002   ----------------------------------------
	.byte	W01
	.byte	W02
	.byte	W21
	.byte		        Gs2 
	.byte	W08
	.byte	W06
	.byte	W06
	.byte	W03
	.byte	W06
	.byte	W03
	.byte	W03
	.byte	W03
	.byte	W03
	.byte	W03
	.byte	W03
	.byte	W01
	.byte		        Gn2 
	.byte	W02
	.byte	W03
	.byte	W03
	.byte	W03
	.byte	W03
	.byte	W03
	.byte	W03
	.byte	W03
	.byte	W01
@ 003   ----------------------------------------
	.byte	W02
	.byte	W03
	.byte	W03
	.byte	W03
	.byte	W03
	.byte	W09
	.byte	W01
Die_3_B1:
	.byte		N44   , Cn3 , v076
	.byte	W02
	.byte	W06
	.byte	W06
	.byte	W03
	.byte	W06
	.byte	W03
	.byte	W06
	.byte	W03
	.byte	W03
	.byte	W03
	.byte	W03
	.byte	W03
	.byte	W01
	.byte		        As2 , v072
	.byte	W02
	.byte	W03
	.byte	W03
	.byte	W03
	.byte	W03
	.byte	W03
	.byte	W03
	.byte	W03
	.byte	W01
@ 004   ----------------------------------------
	.byte	W02
	.byte	W03
	.byte	W03
	.byte	W03
	.byte	W03
	.byte	W03
	.byte	W01
	.byte	W06
	.byte		        Gs2 , v076
	.byte	W36
	.byte	W02
	.byte	W06
	.byte	W03
	.byte	W01
	.byte		N88   , As2 
	.byte	W02
	.byte	W03
	.byte	W03
	.byte	W03
	.byte	W03
	.byte	W03
	.byte	W03
	.byte	W03
	.byte	W01
@ 005   ----------------------------------------
	.byte	W02
	.byte	W03
	.byte	W03
	.byte	W03
	.byte	W03
	.byte	W03
	.byte	W03
	.byte	W03
	.byte	W03
	.byte	W03
	.byte	W03
	.byte	W03
	.byte	W03
	.byte	W03
	.byte	W03
	.byte	W03
	.byte	W03
	.byte	W03
	.byte	W03
	.byte	W03
	.byte	W03
	.byte	W03
	.byte	W03
	.byte	W03
	.byte	W01
	.byte		N44   , Cn3 , v072
	.byte	W06
	.byte	W06
	.byte	W06
	.byte	W03
	.byte	W03
@ 006   ----------------------------------------
	.byte	W03
	.byte	W03
	.byte	W03
	.byte	W03
	.byte	W03
	.byte	W03
	.byte	W03
	.byte	W03
	.byte		        As2 
	.byte	W03
	.byte	W03
	.byte	W03
	.byte	W03
	.byte	W03
	.byte	W03
	.byte	W03
	.byte	W03
	.byte	W03
	.byte	W21
	.byte		        Gs2 
	.byte	W08
	.byte	W06
	.byte	W06
	.byte	W03
	.byte	W01
@ 007   ----------------------------------------
	.byte	W05
	.byte	W03
	.byte	W03
	.byte	W03
	.byte	W03
	.byte	W03
	.byte	W03
	.byte	W01
	.byte		        Gn2 
	.byte	W02
	.byte	W03
	.byte	W03
	.byte	W03
	.byte	W03
	.byte	W03
	.byte	W03
	.byte	W03
	.byte	W03
	.byte	W03
	.byte	W03
	.byte	W03
	.byte	W03
	.byte	W10
	.byte	GOTO
	 .word	Die_3_B1
Die_3_B2:
	.byte	W02
	.byte	FINE

@**************** Track 4 (Midi-Chn.4) ****************@

Die_4:
	.byte	KEYSH , Die_key+0
@ 000   ----------------------------------------
	.byte		VOICE , 2
	.byte		VOL   , 115*Die_mvl/mxv
	.byte		PAN   , c_v+16
	.byte		N23   , Ds1 , v096
	.byte	W01
	.byte	W01
	.byte	W01
	.byte	W01
	.byte	W01
	.byte	W01
	.byte	W01
	.byte	W01
	.byte	W01
	.byte	W01
	.byte	W01
	.byte	W01
	.byte	W01
	.byte	W01
	.byte	W01
	.byte	W01
	.byte	W01
	.byte	W01
	.byte	W02
	.byte	W01
	.byte	W02
	.byte	W01
	.byte		N90   , Ds1 , v092
	.byte	W06
	.byte	W03
	.byte	W03
	.byte	W03
	.byte	W03
	.byte	W03
	.byte	W03
	.byte	W03
	.byte	W03
	.byte	W03
	.byte	W03
	.byte	W03
	.byte	W01
	.byte	W15
	.byte	W01
	.byte	W02
	.byte	W01
	.byte	W02
	.byte	W01
	.byte	W02
	.byte	W01
	.byte	W02
	.byte	W01
	.byte	W02
	.byte	W01
	.byte	W01
@ 001   ----------------------------------------
	.byte	W01
	.byte	W01
	.byte	W02
	.byte	W01
	.byte	W02
	.byte	W01
	.byte	W02
	.byte	W01
	.byte	W02
	.byte	W01
	.byte	W02
	.byte	W01
	.byte	W02
	.byte	W01
	.byte	W02
	.byte	W01
	.byte	W01
	.byte		N44   , Cn1 , v080
	.byte	W03
	.byte	W03
	.byte	W03
	.byte	W03
	.byte	W03
	.byte	W03
	.byte	W03
	.byte	W03
	.byte	W03
	.byte	W03
	.byte	W03
	.byte	W03
	.byte	W03
	.byte	W03
	.byte	W03
	.byte	W03
	.byte		        As0 , v076
	.byte	W24
@ 002   ----------------------------------------
	.byte	W24
	.byte		        Gs0 
	.byte	W48
	.byte		        Gn0 , v080
	.byte	W24
@ 003   ----------------------------------------
	.byte	W24
Die_4_B1:
	.byte		N44   , Cn1 , v088
	.byte	W48
	.byte		        As0 , v080
	.byte	W24
@ 004   ----------------------------------------
	.byte	W24
	.byte		        Gs0 , v088
	.byte	W48
	.byte		N92   , As0 , v084
	.byte	W24
@ 005   ----------------------------------------
	.byte	W24
	.byte	W03
	.byte	W03
	.byte	W03
	.byte	W03
	.byte	W03
	.byte	W03
	.byte	W03
	.byte	W03
	.byte	W03
	.byte	W03
	.byte	W03
	.byte	W03
	.byte	W03
	.byte	W03
	.byte	W03
	.byte	W03
	.byte		N44   , Cn1 , v080
	.byte	W03
	.byte	W03
	.byte	W03
	.byte	W03
	.byte	W03
	.byte	W03
	.byte	W03
	.byte	W03
@ 006   ----------------------------------------
	.byte	W03
	.byte	W03
	.byte	W03
	.byte	W03
	.byte	W03
	.byte	W03
	.byte	W06
	.byte		        As0 , v076
	.byte	W48
	.byte		        Gs0 
	.byte	W24
@ 007   ----------------------------------------
	.byte	W24
	.byte		        Gn0 , v080
	.byte	W48
	.byte	GOTO
	 .word	Die_4_B1
Die_4_B2:
	.byte	W02
	.byte	FINE

@**************** Track 5 (Midi-Chn.5) ****************@

Die_5:
	.byte	KEYSH , Die_key+0
@ 000   ----------------------------------------
	.byte		VOICE , 14
	.byte		VOL   , 80*Die_mvl/mxv
	.byte		PAN   , c_v+17
	.byte	W13
	.byte	W02
	.byte	W01
	.byte	W02
	.byte	W01
	.byte	W02
	.byte	W01
	.byte	W02
	.byte	W01
	.byte		N78   , Ds2 , v080
	.byte	W02
	.byte	W01
	.byte	W02
	.byte	W01
	.byte	W02
	.byte	W01
	.byte	W02
	.byte	W01
	.byte	W02
	.byte	W01
	.byte	W02
	.byte	W01
	.byte	W02
	.byte	W01
	.byte	W02
	.byte	W01
	.byte	W02
	.byte	W01
	.byte	W02
	.byte	W01
	.byte	W02
	.byte	W01
	.byte	W36
	.byte	W02
@ 001   ----------------------------------------
	.byte	W96
@ 002   ----------------------------------------
	.byte	W96
@ 003   ----------------------------------------
	.byte	W24
Die_5_B1:
	.byte	W72
@ 004   ----------------------------------------
	.byte	W96
@ 005   ----------------------------------------
	.byte	W96
@ 006   ----------------------------------------
	.byte	W96
@ 007   ----------------------------------------
	.byte	W72
	.byte	GOTO
	 .word	Die_5_B1
Die_5_B2:
	.byte	W02
	.byte	FINE

@**************** Track 6 (Midi-Chn.6) ****************@

Die_6:
	.byte	KEYSH , Die_key+0
@ 000   ----------------------------------------
	.byte		VOICE , 6
	.byte		VOL   , 114*Die_mvl/mxv
	.byte		PAN   , c_v-14
	.byte		N30   , Ds1 , v068
	.byte	W08
	.byte	W01
	.byte	W01
	.byte	W01
	.byte	W01
	.byte	W01
	.byte	W01
	.byte	W01
	.byte	W01
	.byte	W01
	.byte	W01
	.byte	W01
	.byte	W01
	.byte	W01
	.byte	W01
	.byte	W01
	.byte	W03
	.byte	W03
	.byte	W01
	.byte		N88   , Ds3 , v120
	.byte	W03
	.byte	W02
	.byte	W03
	.byte	W01
	.byte	W02
	.byte	W03
	.byte	W01
	.byte	W02
	.byte	W01
	.byte	W02
	.byte	W01
	.byte	W02
	.byte	W01
	.byte	W02
	.byte	W01
	.byte	W02
	.byte	W01
	.byte	W02
	.byte	W01
	.byte	W02
	.byte	W01
	.byte	W02
	.byte	W01
	.byte	W02
	.byte	W01
	.byte	W02
	.byte	W01
	.byte	W02
	.byte	W01
	.byte	W02
	.byte	W01
	.byte	W02
	.byte	W01
	.byte	W02
	.byte	W01
	.byte	W02
	.byte	W01
	.byte	W02
	.byte	W01
	.byte	W03
@ 001   ----------------------------------------
	.byte	W07
	.byte	W01
	.byte	W02
	.byte	W01
	.byte	W02
	.byte	W01
	.byte	W02
	.byte	W01
	.byte	W02
	.byte	W01
	.byte	W02
	.byte	W01
	.byte	W01
	.byte		N44   , Cn2 , v048
	.byte	W72
@ 002   ----------------------------------------
	.byte	W96
@ 003   ----------------------------------------
	.byte	W24
Die_6_B1:
	.byte	W72
@ 004   ----------------------------------------
	.byte	W96
@ 005   ----------------------------------------
	.byte	W96
@ 006   ----------------------------------------
	.byte	W96
@ 007   ----------------------------------------
	.byte	W72
	.byte	GOTO
	 .word	Die_6_B1
Die_6_B2:
	.byte	W02
	.byte	FINE

@**************** Track 7 (Midi-Chn.7) ****************@

Die_7:
	.byte	KEYSH , Die_key+0
@ 000   ----------------------------------------
	.byte	W03
	.byte		VOICE , 10
	.byte		VOL   , 75*Die_mvl/mxv
	.byte		PAN   , c_v+63
	.byte		N23   , Fn3 , v096
	.byte		N23   , Fn4 , v076
	.byte	W01
	.byte	W02
	.byte	W01
	.byte	W02
	.byte	W01
	.byte	W02
	.byte	W01
	.byte	W01
	.byte	W01
	.byte	W01
	.byte	W01
	.byte	W01
	.byte	W01
	.byte	W01
	.byte	W01
	.byte	W01
	.byte	W01
	.byte	W01
	.byte	W01
	.byte	W01
	.byte	W01
	.byte		N90   , Ds3 , v096
	.byte		N90   , Ds4 , v072
	.byte	W01
	.byte	W02
	.byte	W01
	.byte	W02
	.byte	W01
	.byte	W02
	.byte	W01
	.byte	W02
	.byte	W01
	.byte	W02
	.byte	W01
	.byte	W02
	.byte	W01
	.byte	W02
	.byte	W01
	.byte	W02
	.byte	W01
	.byte	W02
	.byte	W01
	.byte	W02
	.byte	W01
	.byte	W02
	.byte	W01
	.byte	W02
	.byte	W01
	.byte	W02
	.byte	W01
	.byte	W15
	.byte	W03
	.byte	W01
	.byte	W02
	.byte	W01
	.byte	W02
	.byte	W01
	.byte	W02
	.byte	W01
	.byte	W01
@ 001   ----------------------------------------
	.byte	W01
	.byte	W01
	.byte	W02
	.byte	W01
	.byte	W02
	.byte	W01
	.byte	W02
	.byte	W01
	.byte	W02
	.byte	W01
	.byte	W02
	.byte	W01
	.byte	W02
	.byte	W01
	.byte	W02
	.byte	W01
	.byte	W02
	.byte	W01
	.byte	W01
	.byte		N44   , Cn3 , v064
	.byte		N42   , Ds3 , v076
	.byte	W03
	.byte	W01
	.byte	W02
	.byte	W01
	.byte	W02
	.byte	W01
	.byte	W02
	.byte	W01
	.byte	W02
	.byte	W01
	.byte	W02
	.byte	W01
	.byte	W02
	.byte	W01
	.byte	W02
	.byte	W01
	.byte	W02
	.byte	W01
	.byte	W02
	.byte	W01
	.byte	W02
	.byte	W01
	.byte	W02
	.byte	W01
	.byte	W02
	.byte	W01
	.byte	W02
	.byte	W01
	.byte	W05
	.byte		N44   , Cn3 , v064
	.byte		N44   , Ds3 , v076
	.byte	W10
	.byte	W03
	.byte	W01
	.byte	W02
	.byte	W01
	.byte	W02
	.byte	W01
	.byte	W01
@ 002   ----------------------------------------
	.byte	W01
	.byte	W01
	.byte	W02
	.byte	W01
	.byte	W02
	.byte	W01
	.byte	W02
	.byte	W01
	.byte	W02
	.byte	W01
	.byte	W02
	.byte	W01
	.byte	W02
	.byte	W01
	.byte	W02
	.byte	W01
	.byte	W02
	.byte	W01
	.byte	W01
	.byte		        Cn3 , v064
	.byte		N44   , Ds3 , v076
	.byte	W02
	.byte	W03
	.byte	W03
	.byte	W03
	.byte	W03
	.byte	W03
	.byte	W03
	.byte	W03
	.byte	W03
	.byte	W03
	.byte	W03
	.byte	W03
	.byte	W03
	.byte	W03
	.byte	W01
	.byte	W06
	.byte		        Bn2 , v064
	.byte		N44   , Dn3 , v080
	.byte	W09
	.byte	W03
	.byte	W02
	.byte	W01
	.byte	W02
	.byte	W01
	.byte	W02
	.byte	W01
@ 003   ----------------------------------------
	.byte	W02
	.byte	W01
	.byte	W02
	.byte	W01
	.byte	W02
	.byte	W01
	.byte	W02
	.byte	W01
	.byte	W02
	.byte	W01
	.byte	W02
	.byte	W01
	.byte	W02
	.byte	W01
	.byte	W02
	.byte	W01
Die_7_B1:
	.byte	W02
	.byte	W01
	.byte		N44   , Cn3 , v076
	.byte		N44   , Ds3 , v092
	.byte	W06
	.byte	W03
	.byte	W06
	.byte	W03
	.byte	W03
	.byte	W03
	.byte	W03
	.byte	W03
	.byte	W03
	.byte	W03
	.byte	W03
	.byte	W03
	.byte	W03
	.byte	W03
	.byte		        Cn3 , v080
	.byte		N44   , Ds3 , v096
	.byte	W03
	.byte	W03
	.byte	W03
	.byte	W03
	.byte	W03
	.byte	W03
	.byte	W03
@ 004   ----------------------------------------
	.byte	W03
	.byte	W03
	.byte	W03
	.byte	W03
	.byte	W03
	.byte	W12
	.byte		        Cn3 , v080
	.byte		N48   , Fn3 , v092
	.byte	W08
	.byte	W06
	.byte	W03
	.byte	W03
	.byte	W03
	.byte	W03
	.byte	W03
	.byte	W03
	.byte	W03
	.byte	W03
	.byte	W03
	.byte	W03
	.byte	W04
	.byte		N92   , As2 , v076
	.byte		N22   , Ds3 , v096
	.byte	W02
	.byte	W03
	.byte	W03
	.byte	W03
	.byte	W03
	.byte	W03
	.byte	W03
	.byte	W01
@ 005   ----------------------------------------
	.byte	W02
	.byte	W01
	.byte		N23   , Dn3 
	.byte	W02
	.byte	W03
	.byte	W03
	.byte	W03
	.byte	W03
	.byte	W02
	.byte	W08
	.byte		N24   , Cn3 
	.byte	W07
	.byte	W03
	.byte	W01
	.byte	W03
	.byte	W02
	.byte	W01
	.byte	W02
	.byte	W01
	.byte	W02
	.byte	W01
	.byte	W01
	.byte		N22   , Dn3 
	.byte	W01
	.byte	W01
	.byte	W02
	.byte	W01
	.byte	W02
	.byte	W01
	.byte	W02
	.byte	W01
	.byte	W02
	.byte	W01
	.byte	W02
	.byte	W01
	.byte	W02
	.byte	W01
	.byte	W02
	.byte	W01
	.byte	W01
	.byte		N44   , Cn3 , v064
	.byte		N42   , Ds3 , v076
	.byte	W03
	.byte	W03
	.byte	W03
	.byte	W03
	.byte	W03
	.byte	W03
	.byte	W03
@ 006   ----------------------------------------
	.byte	W03
	.byte	W03
	.byte	W03
	.byte	W03
	.byte	W03
	.byte	W03
	.byte	W03
	.byte	W01
	.byte	W05
	.byte		N44   , Cn3 , v064
	.byte		N44   , Ds3 , v076
	.byte	W10
	.byte	W03
	.byte	W01
	.byte	W02
	.byte	W01
	.byte	W02
	.byte	W01
	.byte	W02
	.byte	W01
	.byte	W02
	.byte	W01
	.byte	W02
	.byte	W01
	.byte	W02
	.byte	W01
	.byte	W02
	.byte	W01
	.byte	W02
	.byte	W01
	.byte	W02
	.byte	W01
	.byte	W02
	.byte	W01
	.byte	W02
	.byte	W01
	.byte	W01
	.byte		        Cn3 , v064
	.byte		N44   , Ds3 , v076
	.byte	W02
	.byte	W03
	.byte	W03
	.byte	W03
	.byte	W03
	.byte	W03
	.byte	W03
	.byte	W01
@ 007   ----------------------------------------
	.byte	W02
	.byte	W03
	.byte	W03
	.byte	W03
	.byte	W03
	.byte	W03
	.byte	W03
	.byte	W01
	.byte	W06
	.byte		        Bn2 , v064
	.byte		N44   , Dn3 , v080
	.byte	W09
	.byte	W03
	.byte	W03
	.byte	W03
	.byte	W03
	.byte	W03
	.byte	W03
	.byte	W03
	.byte	W03
	.byte	W03
	.byte	W03
	.byte	W03
	.byte	W03
	.byte	GOTO
	 .word	Die_7_B1
Die_7_B2:
	.byte	W02
	.byte	FINE

@******************************************************@
	.align	2

Die:
	.byte	7	@ NumTrks
	.byte	0	@ NumBlks
	.byte	Die_pri	@ Priority
	.byte	Die_rev	@ Reverb.

	.word	Die_grp

	.word	Die_1
	.word	Die_2
	.word	Die_3
	.word	Die_4
	.word	Die_5
	.word	Die_6
	.word	Die_7

	.end
