//Event file generated from Sappy .s format.
	#include "MPlayDef.event"

	#define	LandOfSorrow_grp  voicegroup000
	#define	LandOfSorrow_pri  0
	#define	LandOfSorrow_rev  0
	#define	LandOfSorrow_mvl  85
	#define	LandOfSorrow_key  0
	#define	LandOfSorrow_tbs  1
	#define	LandOfSorrow_exg  0
	#define	LandOfSorrow_cmp  1

	// .rodata
	//	LandOfSorrow
	ALIGN 4

//**************** Track 1 (Midi-Chn.1) ****************//

LandOfSorrow_1:
	BYTE	KEYSH   LandOfSorrow_key+0
// 000   ----------------------------------------
	BYTE	TEMPO   136*LandOfSorrow_tbs/2
	BYTE		VOICE   46
	BYTE		VOL     70*LandOfSorrow_mvl/mxv
	BYTE		PAN     c_v+5
	BYTE		N06     An3   v064
	BYTE	W24
	BYTE		        Dn4 
	BYTE	W24
	BYTE		        An3 
	BYTE		N06     Dn4 
	BYTE	W24
	BYTE		        Fn3 
	BYTE	W18
	BYTE		N03     Dn3 
	BYTE	W03
	BYTE		        En3 
	BYTE	W03
// 001   ----------------------------------------
	BYTE		N24     Cs3 
	BYTE		N24     Fn3 
	BYTE	W42
	BYTE		N03     En3 
	BYTE	W03
	BYTE		        Fn3 
	BYTE	W03
	BYTE		N24     Dn3 
	BYTE		N24     Gn3 
	BYTE	W48
LandOfSorrow_1_B1:
// 002   ----------------------------------------
LandOfSorrow_1_002:
	BYTE		N08     Fn3   v084
	BYTE	W08
	BYTE		        Dn3 
	BYTE	W08
	BYTE		        Fn3 
	BYTE	W08
	BYTE		        An3 
	BYTE	W08
	BYTE		        Fn3 
	BYTE	W08
	BYTE		        An3 
	BYTE	W08
	BYTE		        Fn3 
	BYTE	W08
	BYTE		        Dn3 
	BYTE	W08
	BYTE		        Fn3 
	BYTE	W08
	BYTE		        Dn3 
	BYTE	W08
	BYTE		        An2 
	BYTE	W08
	BYTE		        Dn3 
	BYTE	W08
	BYTE	PEND
// 003   ----------------------------------------
LandOfSorrow_1_003:
	BYTE		N08     En3   v084
	BYTE	W08
	BYTE		        Cn3 
	BYTE	W08
	BYTE		        En3 
	BYTE	W08
	BYTE		        Cn3 
	BYTE	W08
	BYTE		        Gn2 
	BYTE	W08
	BYTE		        Cn3 
	BYTE	W08
	BYTE		        Gn3 
	BYTE	W08
	BYTE		        En3 
	BYTE	W08
	BYTE		        Gn3 
	BYTE	W08
	BYTE		        En3 
	BYTE	W08
	BYTE		        Cn3 
	BYTE	W08
	BYTE		        En3 
	BYTE	W08
	BYTE	PEND
// 004   ----------------------------------------
LandOfSorrow_1_004:
	BYTE		N08     Fn3   v084
	BYTE	W08
	BYTE		        Dn3 
	BYTE	W08
	BYTE		        Fn3 
	BYTE	W08
	BYTE		        Dn3 
	BYTE	W08
	BYTE		        An3 
	BYTE	W08
	BYTE		        Dn3 
	BYTE	W08
	BYTE		        An2 
	BYTE	W08
	BYTE		        Fn2 
	BYTE	W08
	BYTE		        An2 
	BYTE	W08
	BYTE		        Fn2 
	BYTE	W08
	BYTE		        Dn2 
	BYTE	W08
	BYTE		        Fn2 
	BYTE	W08
	BYTE	PEND
// 005   ----------------------------------------
LandOfSorrow_1_005:
	BYTE		N08     Cn3   v084
	BYTE	W08
	BYTE		        Gn2 
	BYTE	W08
	BYTE		        Cn3 
	BYTE	W08
	BYTE		        Gn2 
	BYTE	W08
	BYTE		        En2 
	BYTE	W08
	BYTE		        Gn2 
	BYTE	W08
	BYTE		        Cn3 
	BYTE	W08
	BYTE		        Gn2 
	BYTE	W08
	BYTE		        Cn3 
	BYTE	W08
	BYTE		        En3 
	BYTE	W08
	BYTE		        Gn3 
	BYTE	W08
	BYTE		        En3 
	BYTE	W08
	BYTE	PEND
// 006   ----------------------------------------
	BYTE	PATT
	 POIN2	LandOfSorrow_1_002
// 007   ----------------------------------------
	BYTE	PATT
	 POIN2	LandOfSorrow_1_003
// 008   ----------------------------------------
	BYTE	PATT
	 POIN2	LandOfSorrow_1_004
// 009   ----------------------------------------
	BYTE	PATT
	 POIN2	LandOfSorrow_1_005
// 010   ----------------------------------------
LandOfSorrow_1_010:
	BYTE		N08     Fn3   v084
	BYTE	W08
	BYTE		        Dn3 
	BYTE	W08
	BYTE		        Fn3 
	BYTE	W08
	BYTE		        Gn3 
	BYTE	W08
	BYTE		        En3 
	BYTE	W08
	BYTE		        Gn3 
	BYTE	W08
	BYTE		        Fn3 
	BYTE	W08
	BYTE		        Dn3 
	BYTE	W08
	BYTE		        Fn3 
	BYTE	W08
	BYTE		        En3 
	BYTE	W08
	BYTE		        Cn3 
	BYTE	W08
	BYTE		        En3 
	BYTE	W08
	BYTE	PEND
// 011   ----------------------------------------
LandOfSorrow_1_011:
	BYTE		N08     Fn3   v084
	BYTE	W08
	BYTE		        Dn3 
	BYTE	W08
	BYTE		        Fn3 
	BYTE	W08
	BYTE		        Dn3 
	BYTE	W08
	BYTE		        An2 
	BYTE	W08
	BYTE		        Dn3 
	BYTE	W08
	BYTE		        An3 
	BYTE	W08
	BYTE		        Fn3 
	BYTE	W08
	BYTE		        An3 
	BYTE	W08
	BYTE		        Fn3 
	BYTE	W08
	BYTE		        Dn3 
	BYTE	W08
	BYTE		        Fn3 
	BYTE	W08
	BYTE	PEND
// 012   ----------------------------------------
	BYTE		        Gn3 
	BYTE	W08
	BYTE		        En3 
	BYTE	W08
	BYTE		        Gn3 
	BYTE	W08
	BYTE		        En3 
	BYTE	W08
	BYTE		        Cn3 
	BYTE	W08
	BYTE		        Gn2 
	BYTE	W08
	BYTE		        En3 
	BYTE	W08
	BYTE		        Cn3 
	BYTE	W08
	BYTE		        En3 
	BYTE	W08
	BYTE		        Cn3 
	BYTE	W08
	BYTE		        Gn2 
	BYTE	W08
	BYTE		        En2 
	BYTE	W08
// 013   ----------------------------------------
	BYTE		        Fn3 
	BYTE	W08
	BYTE		        Dn3 
	BYTE	W08
	BYTE		        Fn3 
	BYTE	W08
	BYTE		        Dn3 
	BYTE	W08
	BYTE		        An2 
	BYTE	W08
	BYTE		        Dn3 
	BYTE	W08
	BYTE		        Fn3 
	BYTE	W08
	BYTE		        Dn3 
	BYTE	W08
	BYTE		        Fn3 
	BYTE	W08
	BYTE		        Dn3 
	BYTE	W08
	BYTE		        An2 
	BYTE	W08
	BYTE		        Dn3 
	BYTE	W08
// 014   ----------------------------------------
	BYTE	PATT
	 POIN2	LandOfSorrow_1_010
// 015   ----------------------------------------
	BYTE	PATT
	 POIN2	LandOfSorrow_1_011
// 016   ----------------------------------------
	BYTE		N08     Cn4   v084
	BYTE	W08
	BYTE		        Gn3 
	BYTE	W08
	BYTE		        Cn4 
	BYTE	W08
	BYTE		        Gn3 
	BYTE	W08
	BYTE		        En3 
	BYTE	W08
	BYTE		        Cn3 
	BYTE	W08
	BYTE		        Gn3 
	BYTE	W08
	BYTE		        En3 
	BYTE	W08
	BYTE		        Gn3 
	BYTE	W08
	BYTE		        En3 
	BYTE	W08
	BYTE		        Cn3 
	BYTE	W08
	BYTE		        Gn2 
	BYTE	W08
// 017   ----------------------------------------
	BYTE		        En3 
	BYTE	W08
	BYTE		        Cn3 
	BYTE	W08
	BYTE		        En3 
	BYTE	W08
	BYTE		        Cn3 
	BYTE	W08
	BYTE		        Gn2 
	BYTE	W08
	BYTE		        Cn3 
	BYTE	W08
	BYTE		        Fn3 
	BYTE	W08
	BYTE		        Cn3 
	BYTE	W08
	BYTE		        Fn3 
	BYTE	W08
	BYTE		        Gn3 
	BYTE	W08
	BYTE		        En3 
	BYTE	W08
	BYTE		        Gn3 
	BYTE	W08
// 018   ----------------------------------------
	BYTE		        Fn3 
	BYTE	W08
	BYTE		        Dn3 
	BYTE	W08
	BYTE		        Fn3 
	BYTE	W08
	BYTE		        Dn3 
	BYTE	W08
	BYTE		        En3 
	BYTE	W08
	BYTE		        Fn3 
	BYTE	W08
	BYTE		        Dn3 
	BYTE	W08
	BYTE		        An2 
	BYTE	W08
	BYTE		        Dn2 
	BYTE	W08
	BYTE		        An2 
	BYTE	W08
	BYTE		        Dn3 
	BYTE	W08
	BYTE		        Fn3 
	BYTE	W08
// 019   ----------------------------------------
	BYTE		        En3 
	BYTE	W08
	BYTE		        Cn3 
	BYTE	W08
	BYTE		        En3 
	BYTE	W08
	BYTE		        Cn3 
	BYTE	W08
	BYTE		        Dn3 
	BYTE	W08
	BYTE		        En3 
	BYTE	W08
	BYTE		        Gn3 
	BYTE	W08
	BYTE		        En3 
	BYTE	W08
	BYTE		        Gn3 
	BYTE	W08
	BYTE		        En3 
	BYTE	W08
	BYTE		        Cn3 
	BYTE	W08
	BYTE		        En3 
	BYTE	W08
// 020   ----------------------------------------
	BYTE		        Fn3 
	BYTE	W08
	BYTE		        Dn3 
	BYTE	W08
	BYTE		        Fn3 
	BYTE	W08
	BYTE		        Dn3 
	BYTE	W08
	BYTE		        An2 
	BYTE	W08
	BYTE		        Dn3 
	BYTE	W08
	BYTE		N08   
	BYTE	W08
	BYTE		        An2 
	BYTE	W08
	BYTE		        Dn3 
	BYTE	W08
	BYTE		        An2 
	BYTE	W08
	BYTE		        Fn2 
	BYTE	W08
	BYTE		        Dn2 
	BYTE	W08
// 021   ----------------------------------------
	BYTE		        En3 
	BYTE	W08
	BYTE		        Cn3 
	BYTE	W08
	BYTE		        En3 
	BYTE	W08
	BYTE		        Cn3 
	BYTE	W08
	BYTE		        Gn2 
	BYTE	W08
	BYTE		        Cn3 
	BYTE	W08
	BYTE		        Gn2 
	BYTE	W08
	BYTE		        En2 
	BYTE	W08
	BYTE		        Gn2 
	BYTE	W08
	BYTE		        Cn3 
	BYTE	W08
	BYTE		        En3 
	BYTE	W08
	BYTE		        Gn3 
	BYTE	W08
// 022   ----------------------------------------
	BYTE		        Fn3 
	BYTE	W08
	BYTE		        Dn3 
	BYTE	W08
	BYTE		        Fn3 
	BYTE	W08
	BYTE		        Dn3 
	BYTE	W08
	BYTE		        En3 
	BYTE	W08
	BYTE		        Fn3 
	BYTE	W08
	BYTE		        Dn3 
	BYTE	W08
	BYTE		        An2 
	BYTE	W08
	BYTE		        Dn3 
	BYTE	W08
	BYTE		        An2 
	BYTE	W08
	BYTE		        Dn2 
	BYTE	W08
	BYTE		        Fn3 
	BYTE	W08
// 023   ----------------------------------------
	BYTE		        En3 
	BYTE	W08
	BYTE		        Cn3 
	BYTE	W08
	BYTE		        En3 
	BYTE	W08
	BYTE		        Cn3 
	BYTE	W08
	BYTE		        Gn2 
	BYTE	W08
	BYTE		        Cn3 
	BYTE	W08
	BYTE		        Fn3 
	BYTE	W08
	BYTE		        Dn3 
	BYTE	W08
	BYTE		        Fn3 
	BYTE	W08
	BYTE		        Gn3 
	BYTE	W08
	BYTE		        Dn3 
	BYTE	W08
	BYTE		        Gn3 
	BYTE	W08
// 024   ----------------------------------------
	BYTE		        Fn3 
	BYTE	W08
	BYTE		        An2 
	BYTE	W08
	BYTE		        Dn2 
	BYTE	W08
	BYTE		        Fn3 
	BYTE	W08
	BYTE		        An2 
	BYTE	W08
	BYTE		        Dn3 
	BYTE	W08
	BYTE		        En3 
	BYTE	W08
	BYTE		        An2 
	BYTE	W08
	BYTE		        Dn3 
	BYTE	W08
	BYTE		        En3 
	BYTE	W08
	BYTE		        An2 
	BYTE	W08
	BYTE		        Dn3 
	BYTE	W08
// 025   ----------------------------------------
	BYTE		N08   
	BYTE	W08
	BYTE		        An2 
	BYTE	W08
	BYTE		        Dn3 
	BYTE	W08
	BYTE		N08   
	BYTE	W08
	BYTE		        An2 
	BYTE	W08
	BYTE		        Dn3 
	BYTE	W08
	BYTE		        Cs3 
	BYTE	W08
	BYTE		        An2 
	BYTE	W08
	BYTE		        Cs3 
	BYTE	W08
	BYTE		N08   
	BYTE	W08
	BYTE		        An2 
	BYTE	W08
	BYTE		        Cs3 
	BYTE	W08
// 026   ----------------------------------------
LandOfSorrow_1_026:
	BYTE		N36     An2   v100
	BYTE	W36
	BYTE		N12   
	BYTE	W12
	BYTE		N72     Fn3 
	BYTE	W48
	BYTE	PEND
// 027   ----------------------------------------
LandOfSorrow_1_027:
	BYTE	W24
	BYTE		N08     En3   v100
	BYTE	W08
	BYTE		        Fn3 
	BYTE	W08
	BYTE		        En3 
	BYTE	W08
	BYTE		N12     Dn3 
	BYTE	W24
	BYTE		        Cn3 
	BYTE	W24
	BYTE	PEND
// 028   ----------------------------------------
	BYTE	PATT
	 POIN2	LandOfSorrow_1_026
// 029   ----------------------------------------
	BYTE	PATT
	 POIN2	LandOfSorrow_1_027
// 030   ----------------------------------------
	BYTE	PATT
	 POIN2	LandOfSorrow_1_026
// 031   ----------------------------------------
	BYTE	PATT
	 POIN2	LandOfSorrow_1_027
// 032   ----------------------------------------
	BYTE	PATT
	 POIN2	LandOfSorrow_1_026
// 033   ----------------------------------------
LandOfSorrow_1_033:
	BYTE	W24
	BYTE		N12     En3   v100
	BYTE	W24
	BYTE		        Dn3 
	BYTE	W24
	BYTE		        Cn3 
	BYTE	W24
	BYTE	PEND
// 034   ----------------------------------------
	BYTE	PATT
	 POIN2	LandOfSorrow_1_026
// 035   ----------------------------------------
	BYTE	PATT
	 POIN2	LandOfSorrow_1_027
// 036   ----------------------------------------
	BYTE	PATT
	 POIN2	LandOfSorrow_1_026
// 037   ----------------------------------------
	BYTE	PATT
	 POIN2	LandOfSorrow_1_027
// 038   ----------------------------------------
	BYTE	PATT
	 POIN2	LandOfSorrow_1_026
// 039   ----------------------------------------
	BYTE	PATT
	 POIN2	LandOfSorrow_1_027
// 040   ----------------------------------------
	BYTE	PATT
	 POIN2	LandOfSorrow_1_026
// 041   ----------------------------------------
	BYTE	PATT
	 POIN2	LandOfSorrow_1_033
// 042   ----------------------------------------
LandOfSorrow_1_042:
	BYTE		N36     Cn3   v100
	BYTE	W36
	BYTE		N12     Dn3 
	BYTE	W12
	BYTE		N72     As2 
	BYTE	W48
	BYTE	PEND
// 043   ----------------------------------------
LandOfSorrow_1_043:
	BYTE	W24
	BYTE		N24     As2   v100
	BYTE	W24
	BYTE		        En3 
	BYTE	W24
	BYTE		        Dn3 
	BYTE	W24
	BYTE	PEND
// 044   ----------------------------------------
LandOfSorrow_1_044:
	BYTE		N24     Cn3   v100
	BYTE	W24
	BYTE		N12   
	BYTE	W12
	BYTE		        Dn3 
	BYTE	W12
	BYTE		N72     As2 
	BYTE	W48
	BYTE	PEND
// 045   ----------------------------------------
	BYTE	PATT
	 POIN2	LandOfSorrow_1_043
// 046   ----------------------------------------
	BYTE	PATT
	 POIN2	LandOfSorrow_1_042
// 047   ----------------------------------------
	BYTE	W24
	BYTE		N24     As2   v100
	BYTE	W24
	BYTE		        Cn3 
	BYTE	W24
	BYTE		        Dn3 
	BYTE	W24
// 048   ----------------------------------------
	BYTE	PATT
	 POIN2	LandOfSorrow_1_044
// 049   ----------------------------------------
	BYTE	W24
	BYTE		N24     Cn3   v100
	BYTE	W24
	BYTE		        Dn3 
	BYTE	W24
	BYTE		        En3 
	BYTE	W24
	BYTE	GoTo
	 POIN2	LandOfSorrow_1_B1
LandOfSorrow_1_B2:
// 050   ----------------------------------------
	BYTE	FINE

//**************** Track 2 (Midi-Chn.2) ****************//

LandOfSorrow_2:
	BYTE	KEYSH   LandOfSorrow_key+0
// 000   ----------------------------------------
	BYTE		VOICE   91
	BYTE		PAN     c_v-13
	BYTE		VOL     84*LandOfSorrow_mvl/mxv
	BYTE		N03     An3   v064
	BYTE	W24
	BYTE		        Dn4 
	BYTE	W24
	BYTE		        An3 
	BYTE	W24
	BYTE		        Fn3 
	BYTE	W24
// 001   ----------------------------------------
	BYTE		N03   
	BYTE	W48
	BYTE		        Gn3 
	BYTE	W48
LandOfSorrow_2_B1:
// 002   ----------------------------------------
LandOfSorrow_2_002:
	BYTE		N24     An3   v100
	BYTE	W24
	BYTE		        Dn4 
	BYTE	W24
	BYTE		        An3 
	BYTE	W24
	BYTE		        Fn3 
	BYTE	W24
	BYTE	PEND
// 003   ----------------------------------------
LandOfSorrow_2_003:
	BYTE		N48     Gn3   v100
	BYTE	W48
	BYTE		        As3 
	BYTE	W48
	BYTE	PEND
// 004   ----------------------------------------
LandOfSorrow_2_004:
	BYTE		N48     An3   v100
	BYTE	W48
	BYTE		        Dn3 
	BYTE	W48
	BYTE	PEND
// 005   ----------------------------------------
	BYTE		N96     En3 
	BYTE	W96
// 006   ----------------------------------------
	BYTE	PATT
	 POIN2	LandOfSorrow_2_002
// 007   ----------------------------------------
	BYTE	PATT
	 POIN2	LandOfSorrow_2_003
// 008   ----------------------------------------
	BYTE	PATT
	 POIN2	LandOfSorrow_2_004
// 009   ----------------------------------------
	BYTE		N96     En3   v100
	BYTE	W96
// 010   ----------------------------------------
LandOfSorrow_2_010:
	BYTE		N24     An3   v100
	BYTE	W24
	BYTE		        As3 
	BYTE	W24
	BYTE		        An3 
	BYTE	W24
	BYTE		        Gn3 
	BYTE	W24
	BYTE	PEND
// 011   ----------------------------------------
LandOfSorrow_2_011:
	BYTE		N48     An3   v100
	BYTE	W48
	BYTE		        Dn4 
	BYTE	W48
	BYTE	PEND
// 012   ----------------------------------------
	BYTE		        Cn4 
	BYTE	W48
	BYTE		        Gn3 
	BYTE	W48
// 013   ----------------------------------------
	BYTE		N96     An3 
	BYTE	W96
// 014   ----------------------------------------
	BYTE	PATT
	 POIN2	LandOfSorrow_2_010
// 015   ----------------------------------------
	BYTE	PATT
	 POIN2	LandOfSorrow_2_011
// 016   ----------------------------------------
	BYTE		N48     En4   v100
	BYTE	W48
	BYTE		        Cn4 
	BYTE	W48
// 017   ----------------------------------------
LandOfSorrow_2_017:
	BYTE		N48     Gn3   v100
	BYTE	W48
	BYTE		N24     An3 
	BYTE	W24
	BYTE		        As3 
	BYTE	W24
	BYTE	PEND
// 018   ----------------------------------------
LandOfSorrow_2_018:
	BYTE		N48     An3   v100
	BYTE	W48
	BYTE		        Fn3 
	BYTE	W48
	BYTE	PEND
// 019   ----------------------------------------
	BYTE	PATT
	 POIN2	LandOfSorrow_2_003
// 020   ----------------------------------------
	BYTE	PATT
	 POIN2	LandOfSorrow_2_018
// 021   ----------------------------------------
	BYTE		N96     Gn3   v100
	BYTE	W96
// 022   ----------------------------------------
	BYTE	PATT
	 POIN2	LandOfSorrow_2_018
// 023   ----------------------------------------
	BYTE	PATT
	 POIN2	LandOfSorrow_2_017
// 024   ----------------------------------------
	BYTE		N48     An3   v100
	BYTE	W48
	BYTE		        Gn3 
	BYTE	W48
// 025   ----------------------------------------
	BYTE		        Fn3 
	BYTE	W48
	BYTE		        En3 
	BYTE	W48
// 026   ----------------------------------------
LandOfSorrow_2_026:
	BYTE		N36     Dn3   v100
	BYTE	W36
	BYTE		N12   
	BYTE	W12
	BYTE		N72     An3 
	BYTE	W48
	BYTE	PEND
// 027   ----------------------------------------
LandOfSorrow_2_027:
	BYTE	W24
	BYTE		N08     Gn3   v100
	BYTE	W08
	BYTE		        An3 
	BYTE	W08
	BYTE		        Gn3 
	BYTE	W08
	BYTE		N12     Fn3 
	BYTE	W24
	BYTE		        En3 
	BYTE	W24
	BYTE	PEND
// 028   ----------------------------------------
	BYTE	PATT
	 POIN2	LandOfSorrow_2_026
// 029   ----------------------------------------
	BYTE	PATT
	 POIN2	LandOfSorrow_2_027
// 030   ----------------------------------------
	BYTE	PATT
	 POIN2	LandOfSorrow_2_026
// 031   ----------------------------------------
	BYTE	PATT
	 POIN2	LandOfSorrow_2_027
// 032   ----------------------------------------
	BYTE	PATT
	 POIN2	LandOfSorrow_2_026
// 033   ----------------------------------------
LandOfSorrow_2_033:
	BYTE	W24
	BYTE		N12     Gn3   v100
	BYTE	W24
	BYTE		        Fn3 
	BYTE	W24
	BYTE		        En3 
	BYTE	W24
	BYTE	PEND
// 034   ----------------------------------------
	BYTE	PATT
	 POIN2	LandOfSorrow_2_026
// 035   ----------------------------------------
	BYTE	PATT
	 POIN2	LandOfSorrow_2_027
// 036   ----------------------------------------
	BYTE	PATT
	 POIN2	LandOfSorrow_2_026
// 037   ----------------------------------------
	BYTE	PATT
	 POIN2	LandOfSorrow_2_027
// 038   ----------------------------------------
	BYTE	PATT
	 POIN2	LandOfSorrow_2_026
// 039   ----------------------------------------
	BYTE	PATT
	 POIN2	LandOfSorrow_2_027
// 040   ----------------------------------------
	BYTE	PATT
	 POIN2	LandOfSorrow_2_026
// 041   ----------------------------------------
	BYTE	PATT
	 POIN2	LandOfSorrow_2_033
// 042   ----------------------------------------
LandOfSorrow_2_042:
	BYTE		N36     En3   v100
	BYTE	W36
	BYTE		N12     Fn3 
	BYTE	W12
	BYTE		N72     Dn3 
	BYTE	W48
	BYTE	PEND
// 043   ----------------------------------------
LandOfSorrow_2_043:
	BYTE	W24
	BYTE		N24     Dn3   v100
	BYTE	W24
	BYTE		        Gn3 
	BYTE	W24
	BYTE		        Fn3 
	BYTE	W24
	BYTE	PEND
// 044   ----------------------------------------
LandOfSorrow_2_044:
	BYTE		N24     En3   v100
	BYTE	W24
	BYTE		N12   
	BYTE	W12
	BYTE		        Fn3 
	BYTE	W12
	BYTE		N72     Dn3 
	BYTE	W48
	BYTE	PEND
// 045   ----------------------------------------
	BYTE	PATT
	 POIN2	LandOfSorrow_2_043
// 046   ----------------------------------------
	BYTE	PATT
	 POIN2	LandOfSorrow_2_042
// 047   ----------------------------------------
	BYTE	W24
	BYTE		N24     Dn3   v100
	BYTE	W24
	BYTE		        En3 
	BYTE	W24
	BYTE		        Fn3 
	BYTE	W24
// 048   ----------------------------------------
	BYTE	PATT
	 POIN2	LandOfSorrow_2_044
// 049   ----------------------------------------
	BYTE	W24
	BYTE		N24     En3   v100
	BYTE	W24
	BYTE		        Fn3 
	BYTE	W24
	BYTE		        Gn3 
	BYTE	W24
	BYTE	GoTo
	 POIN2	LandOfSorrow_2_B1
LandOfSorrow_2_B2:
// 050   ----------------------------------------
	BYTE	FINE

//**************** Track 3 (Midi-Chn.3) ****************//

LandOfSorrow_3:
	BYTE	KEYSH   LandOfSorrow_key+0
// 000   ----------------------------------------
	BYTE		VOICE   39
	BYTE		VOL     67*LandOfSorrow_mvl/mxv
	BYTE	W96
// 001   ----------------------------------------
	BYTE	W96
LandOfSorrow_3_B1:
// 002   ----------------------------------------
LandOfSorrow_3_002:
	BYTE		N12     Dn2   v100
	BYTE	W24
	BYTE		N12   
	BYTE	W24
	BYTE		N12   
	BYTE	W24
	BYTE		N12   
	BYTE	W24
	BYTE	PEND
// 003   ----------------------------------------
	BYTE	PATT
	 POIN2	LandOfSorrow_3_002
// 004   ----------------------------------------
	BYTE	PATT
	 POIN2	LandOfSorrow_3_002
// 005   ----------------------------------------
	BYTE	PATT
	 POIN2	LandOfSorrow_3_002
// 006   ----------------------------------------
	BYTE	PATT
	 POIN2	LandOfSorrow_3_002
// 007   ----------------------------------------
	BYTE	PATT
	 POIN2	LandOfSorrow_3_002
// 008   ----------------------------------------
	BYTE	PATT
	 POIN2	LandOfSorrow_3_002
// 009   ----------------------------------------
	BYTE	PATT
	 POIN2	LandOfSorrow_3_002
// 010   ----------------------------------------
	BYTE	PATT
	 POIN2	LandOfSorrow_3_002
// 011   ----------------------------------------
	BYTE	PATT
	 POIN2	LandOfSorrow_3_002
// 012   ----------------------------------------
	BYTE	PATT
	 POIN2	LandOfSorrow_3_002
// 013   ----------------------------------------
	BYTE	PATT
	 POIN2	LandOfSorrow_3_002
// 014   ----------------------------------------
	BYTE	PATT
	 POIN2	LandOfSorrow_3_002
// 015   ----------------------------------------
	BYTE	PATT
	 POIN2	LandOfSorrow_3_002
// 016   ----------------------------------------
LandOfSorrow_3_016:
	BYTE		N12     Cn2   v100
	BYTE	W24
	BYTE		N12   
	BYTE	W24
	BYTE		N12   
	BYTE	W24
	BYTE		N12   
	BYTE	W24
	BYTE	PEND
// 017   ----------------------------------------
	BYTE	PATT
	 POIN2	LandOfSorrow_3_016
// 018   ----------------------------------------
LandOfSorrow_3_018:
	BYTE		N12     As1   v100
	BYTE	W24
	BYTE		N12   
	BYTE	W24
	BYTE		N12   
	BYTE	W24
	BYTE		N12   
	BYTE	W24
	BYTE	PEND
// 019   ----------------------------------------
	BYTE	PATT
	 POIN2	LandOfSorrow_3_018
// 020   ----------------------------------------
	BYTE	PATT
	 POIN2	LandOfSorrow_3_018
// 021   ----------------------------------------
	BYTE	PATT
	 POIN2	LandOfSorrow_3_018
// 022   ----------------------------------------
	BYTE	PATT
	 POIN2	LandOfSorrow_3_018
// 023   ----------------------------------------
	BYTE	PATT
	 POIN2	LandOfSorrow_3_018
// 024   ----------------------------------------
LandOfSorrow_3_024:
	BYTE		N12     An1   v100
	BYTE	W24
	BYTE		N12   
	BYTE	W24
	BYTE		N12   
	BYTE	W24
	BYTE		N12   
	BYTE	W24
	BYTE	PEND
// 025   ----------------------------------------
	BYTE	PATT
	 POIN2	LandOfSorrow_3_024
// 026   ----------------------------------------
LandOfSorrow_3_026:
	BYTE		N12     Dn1   v100
	BYTE	W24
	BYTE		        Dn2 
	BYTE	W24
	BYTE		        Dn1 
	BYTE	W24
	BYTE		        Dn2 
	BYTE	W24
	BYTE	PEND
// 027   ----------------------------------------
	BYTE	PATT
	 POIN2	LandOfSorrow_3_026
// 028   ----------------------------------------
LandOfSorrow_3_028:
	BYTE		N12     Cn1   v100
	BYTE	W24
	BYTE		        Cn2 
	BYTE	W24
	BYTE		        Cn1 
	BYTE	W24
	BYTE		        Cn2 
	BYTE	W24
	BYTE	PEND
// 029   ----------------------------------------
	BYTE	PATT
	 POIN2	LandOfSorrow_3_028
// 030   ----------------------------------------
LandOfSorrow_3_030:
	BYTE		N12     As0   v100
	BYTE	W24
	BYTE		        As1 
	BYTE	W24
	BYTE		        As0 
	BYTE	W24
	BYTE		        As1 
	BYTE	W24
	BYTE	PEND
// 031   ----------------------------------------
	BYTE	PATT
	 POIN2	LandOfSorrow_3_030
// 032   ----------------------------------------
LandOfSorrow_3_032:
	BYTE		N12     An0   v100
	BYTE	W24
	BYTE		        An1 
	BYTE	W24
	BYTE		        An0 
	BYTE	W24
	BYTE		        An1 
	BYTE	W24
	BYTE	PEND
// 033   ----------------------------------------
	BYTE	PATT
	 POIN2	LandOfSorrow_3_032
// 034   ----------------------------------------
	BYTE	PATT
	 POIN2	LandOfSorrow_3_026
// 035   ----------------------------------------
	BYTE	PATT
	 POIN2	LandOfSorrow_3_026
// 036   ----------------------------------------
	BYTE	PATT
	 POIN2	LandOfSorrow_3_028
// 037   ----------------------------------------
	BYTE	PATT
	 POIN2	LandOfSorrow_3_028
// 038   ----------------------------------------
	BYTE	PATT
	 POIN2	LandOfSorrow_3_030
// 039   ----------------------------------------
	BYTE	PATT
	 POIN2	LandOfSorrow_3_030
// 040   ----------------------------------------
	BYTE	PATT
	 POIN2	LandOfSorrow_3_032
// 041   ----------------------------------------
	BYTE	PATT
	 POIN2	LandOfSorrow_3_032
// 042   ----------------------------------------
	BYTE	PATT
	 POIN2	LandOfSorrow_3_018
// 043   ----------------------------------------
	BYTE	PATT
	 POIN2	LandOfSorrow_3_018
// 044   ----------------------------------------
	BYTE	PATT
	 POIN2	LandOfSorrow_3_018
// 045   ----------------------------------------
	BYTE	PATT
	 POIN2	LandOfSorrow_3_018
// 046   ----------------------------------------
	BYTE	PATT
	 POIN2	LandOfSorrow_3_016
// 047   ----------------------------------------
	BYTE	PATT
	 POIN2	LandOfSorrow_3_016
// 048   ----------------------------------------
	BYTE	PATT
	 POIN2	LandOfSorrow_3_016
// 049   ----------------------------------------
	BYTE	PATT
	 POIN2	LandOfSorrow_3_016
	BYTE	GoTo
	 POIN2	LandOfSorrow_3_B1
LandOfSorrow_3_B2:
// 050   ----------------------------------------
	BYTE	FINE

//**************** Track 4 (Midi-Chn.4) ****************//

LandOfSorrow_4:
	BYTE	KEYSH   LandOfSorrow_key+0
// 000   ----------------------------------------
	BYTE		VOICE   1
	BYTE		VOL     60*LandOfSorrow_mvl/mxv
	BYTE		PAN     c_v+20
	BYTE		N24     An2   v028
	BYTE	W24
	BYTE		        Dn3   v040
	BYTE	W24
	BYTE		        An2   v052
	BYTE	W24
	BYTE		        Fn2   v064
	BYTE	W24
// 001   ----------------------------------------
	BYTE		N44   
	BYTE	W48
	BYTE		        Gn2 
	BYTE	W48
LandOfSorrow_4_B1:
// 002   ----------------------------------------
LandOfSorrow_4_002:
	BYTE		N96     Dn1   v104
	BYTE		N24     An3   v084
	BYTE	W24
	BYTE		        Dn4 
	BYTE	W24
	BYTE		        An3 
	BYTE	W24
	BYTE		        Fn3 
	BYTE	W24
	BYTE	PEND
// 003   ----------------------------------------
LandOfSorrow_4_003:
	BYTE		N48     Gn3   v084
	BYTE	W48
	BYTE		        As3 
	BYTE	W48
	BYTE	PEND
// 004   ----------------------------------------
LandOfSorrow_4_004:
	BYTE		N96     Dn1   v104
	BYTE		N48     An3   v084
	BYTE	W48
	BYTE		        Dn3 
	BYTE	W48
	BYTE	PEND
// 005   ----------------------------------------
	BYTE		N96     En3 
	BYTE	W96
// 006   ----------------------------------------
	BYTE	PATT
	 POIN2	LandOfSorrow_4_002
// 007   ----------------------------------------
	BYTE	PATT
	 POIN2	LandOfSorrow_4_003
// 008   ----------------------------------------
	BYTE	PATT
	 POIN2	LandOfSorrow_4_004
// 009   ----------------------------------------
	BYTE		N96     En3   v084
	BYTE	W96
// 010   ----------------------------------------
LandOfSorrow_4_010:
	BYTE		N96     Dn1   v104
	BYTE		N24     An3   v084
	BYTE	W24
	BYTE		        As3 
	BYTE	W24
	BYTE		        An3 
	BYTE	W24
	BYTE		        Gn3 
	BYTE	W24
	BYTE	PEND
// 011   ----------------------------------------
LandOfSorrow_4_011:
	BYTE		N48     An3   v084
	BYTE	W48
	BYTE		        Dn4 
	BYTE	W48
	BYTE	PEND
// 012   ----------------------------------------
	BYTE		N96     Dn1   v104
	BYTE		N48     Cn4   v084
	BYTE	W48
	BYTE		        Gn3 
	BYTE	W48
// 013   ----------------------------------------
	BYTE		N96     An3 
	BYTE	W96
// 014   ----------------------------------------
	BYTE	PATT
	 POIN2	LandOfSorrow_4_010
// 015   ----------------------------------------
	BYTE	PATT
	 POIN2	LandOfSorrow_4_011
// 016   ----------------------------------------
	BYTE		N96     Cn1   v104
	BYTE		N48     En4   v084
	BYTE	W48
	BYTE		        Cn4 
	BYTE	W48
// 017   ----------------------------------------
LandOfSorrow_4_017:
	BYTE		N48     Gn3   v084
	BYTE	W48
	BYTE		N24     An3 
	BYTE	W24
	BYTE		        As3 
	BYTE	W24
	BYTE	PEND
// 018   ----------------------------------------
LandOfSorrow_4_018:
	BYTE		N96     As0   v104
	BYTE		N48     An3   v084
	BYTE	W48
	BYTE		        Fn3 
	BYTE	W48
	BYTE	PEND
// 019   ----------------------------------------
	BYTE	PATT
	 POIN2	LandOfSorrow_4_003
// 020   ----------------------------------------
	BYTE	PATT
	 POIN2	LandOfSorrow_4_018
// 021   ----------------------------------------
	BYTE		N96     Gn3   v084
	BYTE	W96
// 022   ----------------------------------------
	BYTE	PATT
	 POIN2	LandOfSorrow_4_018
// 023   ----------------------------------------
	BYTE	PATT
	 POIN2	LandOfSorrow_4_017
// 024   ----------------------------------------
	BYTE		N48     An3   v084
	BYTE	W48
	BYTE		        Gn3 
	BYTE	W48
// 025   ----------------------------------------
	BYTE		        Fn3 
	BYTE	W48
	BYTE		        En3 
	BYTE	W48
// 026   ----------------------------------------
LandOfSorrow_4_026:
	BYTE		N36     Dn3   v084
	BYTE	W36
	BYTE		N12   
	BYTE	W12
	BYTE		N72     An3 
	BYTE	W48
	BYTE	PEND
// 027   ----------------------------------------
LandOfSorrow_4_027:
	BYTE	W24
	BYTE		N08     Gn3   v084
	BYTE	W08
	BYTE		        An3 
	BYTE	W08
	BYTE		        Gn3 
	BYTE	W08
	BYTE		N12     Fn3 
	BYTE	W24
	BYTE		        En3 
	BYTE	W24
	BYTE	PEND
// 028   ----------------------------------------
	BYTE	PATT
	 POIN2	LandOfSorrow_4_026
// 029   ----------------------------------------
	BYTE	PATT
	 POIN2	LandOfSorrow_4_027
// 030   ----------------------------------------
	BYTE	PATT
	 POIN2	LandOfSorrow_4_026
// 031   ----------------------------------------
	BYTE	PATT
	 POIN2	LandOfSorrow_4_027
// 032   ----------------------------------------
	BYTE	PATT
	 POIN2	LandOfSorrow_4_026
// 033   ----------------------------------------
LandOfSorrow_4_033:
	BYTE	W24
	BYTE		N12     Gn3   v084
	BYTE	W24
	BYTE		        Fn3 
	BYTE	W24
	BYTE		        En3 
	BYTE	W24
	BYTE	PEND
// 034   ----------------------------------------
	BYTE	PATT
	 POIN2	LandOfSorrow_4_026
// 035   ----------------------------------------
	BYTE	PATT
	 POIN2	LandOfSorrow_4_027
// 036   ----------------------------------------
	BYTE	PATT
	 POIN2	LandOfSorrow_4_026
// 037   ----------------------------------------
	BYTE	PATT
	 POIN2	LandOfSorrow_4_027
// 038   ----------------------------------------
	BYTE	PATT
	 POIN2	LandOfSorrow_4_026
// 039   ----------------------------------------
	BYTE	PATT
	 POIN2	LandOfSorrow_4_027
// 040   ----------------------------------------
	BYTE	PATT
	 POIN2	LandOfSorrow_4_026
// 041   ----------------------------------------
	BYTE	PATT
	 POIN2	LandOfSorrow_4_033
// 042   ----------------------------------------
LandOfSorrow_4_042:
	BYTE		N36     En3   v084
	BYTE	W36
	BYTE		N12     Fn3 
	BYTE	W12
	BYTE		N72     Dn3 
	BYTE	W48
	BYTE	PEND
// 043   ----------------------------------------
LandOfSorrow_4_043:
	BYTE	W24
	BYTE		N24     Dn3   v084
	BYTE	W24
	BYTE		        Gn3 
	BYTE	W24
	BYTE		        Fn3 
	BYTE	W24
	BYTE	PEND
// 044   ----------------------------------------
LandOfSorrow_4_044:
	BYTE		N24     En3   v084
	BYTE	W24
	BYTE		N12   
	BYTE	W12
	BYTE		        Fn3 
	BYTE	W12
	BYTE		N72     Dn3 
	BYTE	W48
	BYTE	PEND
// 045   ----------------------------------------
	BYTE	PATT
	 POIN2	LandOfSorrow_4_043
// 046   ----------------------------------------
	BYTE	PATT
	 POIN2	LandOfSorrow_4_042
// 047   ----------------------------------------
	BYTE	W24
	BYTE		N24     Dn3   v084
	BYTE	W24
	BYTE		        En3 
	BYTE	W24
	BYTE		        Fn3 
	BYTE	W24
// 048   ----------------------------------------
	BYTE	PATT
	 POIN2	LandOfSorrow_4_044
// 049   ----------------------------------------
	BYTE	W24
	BYTE		N24     En3   v084
	BYTE	W24
	BYTE		        Fn3 
	BYTE	W24
	BYTE		        Gn3 
	BYTE	W24
	BYTE	GoTo
	 POIN2	LandOfSorrow_4_B1
LandOfSorrow_4_B2:
// 050   ----------------------------------------
	BYTE	FINE

//**************** Track 5 (Midi-Chn.5) ****************//

LandOfSorrow_5:
	BYTE	KEYSH   LandOfSorrow_key+0
// 000   ----------------------------------------
	BYTE		VOICE   107
	BYTE		VOL     95*LandOfSorrow_mvl/mxv
	BYTE		PAN     c_v-5
	BYTE		N24     An3   v064
	BYTE	W24
	BYTE		        Dn4 
	BYTE	W24
	BYTE		        An3 
	BYTE	W24
	BYTE		        Fn3 
	BYTE	W24
// 001   ----------------------------------------
	BYTE		N48     Cs3 
	BYTE		N48     Fn3 
	BYTE	W48
	BYTE		        Dn3 
	BYTE		N48     Gn3 
	BYTE	W48
LandOfSorrow_5_B1:
// 002   ----------------------------------------
	BYTE	W96
// 003   ----------------------------------------
	BYTE	W96
// 004   ----------------------------------------
	BYTE	W96
// 005   ----------------------------------------
	BYTE	W24
	BYTE		N24     As3   v064
	BYTE	W24
	BYTE		        An3 
	BYTE	W24
	BYTE		        Fn3 
	BYTE	W24
// 006   ----------------------------------------
	BYTE		N96     Dn3 
	BYTE	W96
// 007   ----------------------------------------
	BYTE		        En3 
	BYTE	W96
// 008   ----------------------------------------
	BYTE		        Fn3 
	BYTE	W96
// 009   ----------------------------------------
	BYTE		        Gn3 
	BYTE	W96
// 010   ----------------------------------------
LandOfSorrow_5_010:
	BYTE		N24     An3   v064
	BYTE	W24
	BYTE		        As3 
	BYTE	W24
	BYTE		        An3 
	BYTE	W24
	BYTE		        Gn3 
	BYTE	W24
	BYTE	PEND
// 011   ----------------------------------------
	BYTE		N48     Fn3 
	BYTE	W48
	BYTE		        An3 
	BYTE	W48
// 012   ----------------------------------------
	BYTE		N96   
	BYTE	W96
// 013   ----------------------------------------
	BYTE		        Fn3 
	BYTE	W96
// 014   ----------------------------------------
	BYTE	PATT
	 POIN2	LandOfSorrow_5_010
// 015   ----------------------------------------
	BYTE		N48     An3   v064
	BYTE	W48
	BYTE		        Fn3 
	BYTE	W48
// 016   ----------------------------------------
	BYTE		        Gn3 
	BYTE	W48
	BYTE		        En3 
	BYTE	W48
// 017   ----------------------------------------
	BYTE		        Dn3 
	BYTE	W48
	BYTE		        Cn3 
	BYTE	W48
// 018   ----------------------------------------
	BYTE	W96
// 019   ----------------------------------------
	BYTE	W48
	BYTE		N24     As3 
	BYTE	W24
	BYTE		        An3 
	BYTE	W24
// 020   ----------------------------------------
	BYTE		N48     Fn3 
	BYTE	W48
	BYTE		        Dn3 
	BYTE	W48
// 021   ----------------------------------------
	BYTE		N96     Gn3 
	BYTE	W96
// 022   ----------------------------------------
	BYTE	W96
// 023   ----------------------------------------
	BYTE	W48
	BYTE		N24     An3 
	BYTE	W24
	BYTE		        As3 
	BYTE	W24
// 024   ----------------------------------------
	BYTE		N48     An3   v068
	BYTE	W48
	BYTE		        Gn3   v072
	BYTE	W48
// 025   ----------------------------------------
	BYTE		        Fn3   v076
	BYTE	W48
	BYTE		        En3   v084
	BYTE	W48
// 026   ----------------------------------------
	BYTE	W96
// 027   ----------------------------------------
	BYTE	W96
// 028   ----------------------------------------
	BYTE	W96
// 029   ----------------------------------------
	BYTE	W96
// 030   ----------------------------------------
	BYTE	W96
// 031   ----------------------------------------
	BYTE	W96
// 032   ----------------------------------------
	BYTE	W96
// 033   ----------------------------------------
	BYTE	W96
// 034   ----------------------------------------
	BYTE		N54     Dn3   v064
	BYTE	W48
	BYTE		N72     Fn3 
	BYTE	W48
// 035   ----------------------------------------
LandOfSorrow_5_035:
	BYTE	W24
	BYTE		N12     Gn3   v064
	BYTE	W24
	BYTE		        An3 
	BYTE	W24
	BYTE		        As3 
	BYTE	W24
	BYTE	PEND
// 036   ----------------------------------------
	BYTE		N42     Cn4 
	BYTE	W36
	BYTE		N12     As3 
	BYTE	W06
	BYTE		        An3 
	BYTE	W06
	BYTE		N72     Fn3 
	BYTE	W48
// 037   ----------------------------------------
	BYTE	PATT
	 POIN2	LandOfSorrow_5_035
// 038   ----------------------------------------
	BYTE		N42     Cn4   v064
	BYTE	W36
	BYTE		N12     As3 
	BYTE	W06
	BYTE		        An3 
	BYTE	W06
	BYTE		N78     Fn3 
	BYTE	W48
// 039   ----------------------------------------
	BYTE	W24
	BYTE		N18     Gn3 
	BYTE	W12
	BYTE		        An3 
	BYTE	W12
	BYTE		N30     Gn3 
	BYTE	W24
	BYTE		N18     Fn3 
	BYTE	W12
	BYTE		        En3 
	BYTE	W12
// 040   ----------------------------------------
	BYTE		TIE     Dn3 
	BYTE	W96
// 041   ----------------------------------------
	BYTE	W24
	BYTE		EOT   
	BYTE	W72
// 042   ----------------------------------------
	BYTE	W96
// 043   ----------------------------------------
	BYTE	W96
// 044   ----------------------------------------
	BYTE	W96
// 045   ----------------------------------------
	BYTE	W24
	BYTE		N24     Dn3   v056
	BYTE	W24
	BYTE		        Gn3 
	BYTE	W24
	BYTE		        Fn3 
	BYTE	W24
// 046   ----------------------------------------
	BYTE		N36     En3 
	BYTE	W36
	BYTE		N12     Fn3 
	BYTE	W12
	BYTE		N72     Dn3 
	BYTE	W48
// 047   ----------------------------------------
	BYTE	W24
	BYTE		N24   
	BYTE	W24
	BYTE		        En3 
	BYTE	W24
	BYTE		        Fn3 
	BYTE	W24
// 048   ----------------------------------------
	BYTE		        En3 
	BYTE	W24
	BYTE		N12   
	BYTE	W12
	BYTE		        Fn3 
	BYTE	W12
	BYTE		N72     Dn3 
	BYTE	W48
// 049   ----------------------------------------
	BYTE	W24
	BYTE		N24     En3 
	BYTE	W24
	BYTE		        Fn3 
	BYTE	W24
	BYTE		        Gn3 
	BYTE	W24
	BYTE	GoTo
	 POIN2	LandOfSorrow_5_B1
LandOfSorrow_5_B2:
// 050   ----------------------------------------
	BYTE	FINE

//**************** Track 6 (Midi-Chn.6) ****************//

LandOfSorrow_6:
	BYTE	KEYSH   LandOfSorrow_key+0
// 000   ----------------------------------------
	BYTE		VOICE   127
	BYTE		VOL     56*LandOfSorrow_mvl/mxv
	BYTE	W96
// 001   ----------------------------------------
	BYTE		N96     En2   v064
	BYTE	W96
LandOfSorrow_6_B1:
// 002   ----------------------------------------
	BYTE	W96
// 003   ----------------------------------------
	BYTE	W96
// 004   ----------------------------------------
	BYTE	W96
// 005   ----------------------------------------
	BYTE	W24
	BYTE		N06     Cn2   v104
	BYTE	W24
	BYTE		        Bn1 
	BYTE	W24
	BYTE		        Gn1 
	BYTE	W24
// 006   ----------------------------------------
	BYTE		        Cn1 
	BYTE		N96     Fn2   v064
	BYTE	W96
// 007   ----------------------------------------
	BYTE	W96
// 008   ----------------------------------------
	BYTE	W96
// 009   ----------------------------------------
	BYTE	W24
	BYTE		N06     Bn1   v104
	BYTE	W24
	BYTE		        Cn2 
	BYTE	W24
	BYTE		        Bn1 
	BYTE	W24
// 010   ----------------------------------------
	BYTE		        Gn1 
	BYTE		N96     Fn2   v064
	BYTE	W96
// 011   ----------------------------------------
	BYTE	W96
// 012   ----------------------------------------
	BYTE	W96
// 013   ----------------------------------------
	BYTE	W96
// 014   ----------------------------------------
	BYTE	W96
// 015   ----------------------------------------
	BYTE	W96
// 016   ----------------------------------------
	BYTE	W96
// 017   ----------------------------------------
	BYTE	W96
// 018   ----------------------------------------
	BYTE	W96
// 019   ----------------------------------------
	BYTE	W96
// 020   ----------------------------------------
	BYTE	W96
// 021   ----------------------------------------
	BYTE	W96
// 022   ----------------------------------------
	BYTE	W96
// 023   ----------------------------------------
	BYTE	W96
// 024   ----------------------------------------
	BYTE		N06     An1 
	BYTE	W48
	BYTE		        Fn1   v072
	BYTE	W48
// 025   ----------------------------------------
	BYTE		        An1   v076
	BYTE		N96     En2   v064
	BYTE	W24
	BYTE		N06     Fn1   v084
	BYTE	W24
	BYTE		        An1   v092
	BYTE	W24
	BYTE		        Fn1   v096
	BYTE	W24
// 026   ----------------------------------------
LandOfSorrow_6_026:
	BYTE		N06     Cn1   v104
	BYTE	W24
	BYTE		N03     Dn1 
	BYTE	W24
	BYTE		N06     Cn1 
	BYTE	W24
	BYTE		N03     Dn1 
	BYTE	W24
	BYTE	PEND
// 027   ----------------------------------------
	BYTE	PATT
	 POIN2	LandOfSorrow_6_026
// 028   ----------------------------------------
	BYTE	PATT
	 POIN2	LandOfSorrow_6_026
// 029   ----------------------------------------
	BYTE	PATT
	 POIN2	LandOfSorrow_6_026
// 030   ----------------------------------------
	BYTE	PATT
	 POIN2	LandOfSorrow_6_026
// 031   ----------------------------------------
	BYTE	PATT
	 POIN2	LandOfSorrow_6_026
// 032   ----------------------------------------
	BYTE	PATT
	 POIN2	LandOfSorrow_6_026
// 033   ----------------------------------------
	BYTE	PATT
	 POIN2	LandOfSorrow_6_026
// 034   ----------------------------------------
	BYTE	PATT
	 POIN2	LandOfSorrow_6_026
// 035   ----------------------------------------
	BYTE	PATT
	 POIN2	LandOfSorrow_6_026
// 036   ----------------------------------------
	BYTE	PATT
	 POIN2	LandOfSorrow_6_026
// 037   ----------------------------------------
	BYTE	PATT
	 POIN2	LandOfSorrow_6_026
// 038   ----------------------------------------
	BYTE	PATT
	 POIN2	LandOfSorrow_6_026
// 039   ----------------------------------------
	BYTE	PATT
	 POIN2	LandOfSorrow_6_026
// 040   ----------------------------------------
	BYTE	PATT
	 POIN2	LandOfSorrow_6_026
// 041   ----------------------------------------
LandOfSorrow_6_041:
	BYTE		N06     Cn1   v084
	BYTE	W24
	BYTE		N06   
	BYTE	W24
	BYTE		N06   
	BYTE	W24
	BYTE		N06   
	BYTE	W24
	BYTE	PEND
// 042   ----------------------------------------
	BYTE	PATT
	 POIN2	LandOfSorrow_6_041
// 043   ----------------------------------------
	BYTE	PATT
	 POIN2	LandOfSorrow_6_041
// 044   ----------------------------------------
	BYTE	PATT
	 POIN2	LandOfSorrow_6_041
// 045   ----------------------------------------
	BYTE	PATT
	 POIN2	LandOfSorrow_6_041
// 046   ----------------------------------------
	BYTE	PATT
	 POIN2	LandOfSorrow_6_041
// 047   ----------------------------------------
	BYTE	PATT
	 POIN2	LandOfSorrow_6_041
// 048   ----------------------------------------
	BYTE	PATT
	 POIN2	LandOfSorrow_6_041
// 049   ----------------------------------------
	BYTE	PATT
	 POIN2	LandOfSorrow_6_041
	BYTE	GoTo
	 POIN2	LandOfSorrow_6_B1
LandOfSorrow_6_B2:
// 050   ----------------------------------------
	BYTE	FINE

//******************************************************//
	ALIGN 4

LandOfSorrow:
	BYTE	6	// NumTrks
	BYTE	0	// NumBlks
	BYTE	LandOfSorrow_pri	// Priority
	BYTE	LandOfSorrow_rev	// Reverb.

	POIN2	LandOfSorrow_grp

	POIN2	LandOfSorrow_1
	POIN2	LandOfSorrow_2
	POIN2	LandOfSorrow_3
	POIN2	LandOfSorrow_4
	POIN2	LandOfSorrow_5
	POIN2	LandOfSorrow_6

	
