//Event file generated from Sappy .s format.
	#include "MPlayDef.event"

	#define	LordOfADeadEmpire_Ablaze_grp  voicegroup000
	#define	LordOfADeadEmpire_Ablaze_pri  0
	#define	LordOfADeadEmpire_Ablaze_rev  0
	#define	LordOfADeadEmpire_Ablaze_mvl  85
	#define	LordOfADeadEmpire_Ablaze_key  0
	#define	LordOfADeadEmpire_Ablaze_tbs  1
	#define	LordOfADeadEmpire_Ablaze_exg  0
	#define	LordOfADeadEmpire_Ablaze_cmp  1

	// .rodata
	//	LordOfADeadEmpire_Ablaze
	ALIGN 4

//**************** Track 1 (Midi-Chn.1) ****************//

LordOfADeadEmpire_Ablaze_1:
	BYTE	KEYSH   LordOfADeadEmpire_Ablaze_key+0
// 000   ----------------------------------------
	BYTE	TEMPO   134*LordOfADeadEmpire_Ablaze_tbs/2
	BYTE		VOICE   63
	BYTE		VOL     53*LordOfADeadEmpire_Ablaze_mvl/mxv
	BYTE		N18     Dn4   v127
	BYTE	W18
	BYTE		N03   
	BYTE	W03
	BYTE		N03   
	BYTE	W03
	BYTE		N06   
	BYTE	W09
	BYTE		N06   
	BYTE	W09
	BYTE		N06   
	BYTE	W12
	BYTE		N06   
	BYTE	W09
	BYTE		N06   
	BYTE	W09
	BYTE		N06   
	BYTE	W09
	BYTE		N06   
	BYTE	W09
	BYTE		N06   
	BYTE	W06
// 001   ----------------------------------------
	BYTE		N24     Cs4 
	BYTE	W24
	BYTE		N07   
	BYTE	W07
	BYTE		N08     Cs4   v124
	BYTE	W08
	BYTE		N09     Cs4   v100
	BYTE	W09
	BYTE		N07     Cs4   v127
	BYTE	W07
	BYTE		N08     Cs4   v116
	BYTE	W08
	BYTE		N09     Cs4   v108
	BYTE	W09
	BYTE		N07     Cs4   v112
	BYTE	W07
	BYTE		N08     Cs4   v120
	BYTE	W08
	BYTE		        Cs4   v124
	BYTE	W08
	BYTE		N24     Cn4   v120
	BYTE	W01
// 002   ----------------------------------------
	BYTE	W24
	BYTE		N07     Cn4   v127
	BYTE	W07
	BYTE		N08     Cn4   v120
	BYTE	W08
	BYTE		N09     Cn4   v104
	BYTE	W09
	BYTE		N07     Cn4   v127
	BYTE	W07
	BYTE		        Cn4   v116
	BYTE	W07
	BYTE		N08     Cn4   v127
	BYTE	W10
	BYTE		N07   
	BYTE	W07
	BYTE		N08     Cn4   v120
	BYTE	W08
	BYTE		        Cn4   v104
	BYTE	W09
// 003   ----------------------------------------
	BYTE		N24     Bn3 
	BYTE	W24
	BYTE		N07     Bn3   v096
	BYTE	W07
	BYTE		N08     Bn3   v127
	BYTE	W08
	BYTE		N08   
	BYTE	W09
	BYTE		N07   
	BYTE	W07
	BYTE		N07   
	BYTE	W08
	BYTE		N09   
	BYTE	W09
	BYTE		N07   
	BYTE	W07
	BYTE		N07   
	BYTE	W08
	BYTE		N08   
	BYTE	W09
// 004   ----------------------------------------
	BYTE		N24     As3   v084
	BYTE	W24
	BYTE		N07     As3   v116
	BYTE	W07
	BYTE		N08     As3   v064
	BYTE	W08
	BYTE		        As3   v127
	BYTE	W08
	BYTE		N07   
	BYTE	W08
	BYTE		N08     As3   v108
	BYTE	W08
	BYTE		        As3   v124
	BYTE	W08
	BYTE		N07     As3   v100
	BYTE	W08
	BYTE		N08     As3   v120
	BYTE	W08
	BYTE		N09     As3   v127
	BYTE	W09
// 005   ----------------------------------------
	BYTE		N24     An3   v112
	BYTE	W24
	BYTE		N07     An3   v127
	BYTE	W07
	BYTE		N07   
	BYTE	W08
	BYTE		N09   
	BYTE	W09
	BYTE		N07     An3   v108
	BYTE	W07
	BYTE		        An3   v127
	BYTE	W07
	BYTE		N09     An3   v096
	BYTE	W10
	BYTE		N07     An3   v116
	BYTE	W07
	BYTE		N08     An3   v104
	BYTE	W08
	BYTE		N09     An3   v127
	BYTE	W08
	BYTE		N24     Gs3 
	BYTE	W01
// 006   ----------------------------------------
	BYTE	W24
	BYTE		N07   
	BYTE	W07
	BYTE		N08     Gs3   v096
	BYTE	W08
	BYTE		N09     Gs3   v127
	BYTE	W09
	BYTE		N07   
	BYTE	W07
	BYTE		N07   
	BYTE	W07
	BYTE		N09   
	BYTE	W10
	BYTE		N07   
	BYTE	W07
	BYTE		N07   
	BYTE	W08
	BYTE		N08   
	BYTE	W08
	BYTE		N07     An3 
	BYTE	W01
// 007   ----------------------------------------
	BYTE	W07
	BYTE		        Cs4   v120
	BYTE	W07
	BYTE		N09     En4   v127
	BYTE	W09
	BYTE		N07     An3 
	BYTE	W08
	BYTE		N08     Cs4   v124
	BYTE	W08
	BYTE		N09     En4   v127
	BYTE	W08
	BYTE		N07     An4 
	BYTE	W08
	BYTE		        En4 
	BYTE	W07
	BYTE		N09     Cs4 
	BYTE	W10
	BYTE		N07     An3   v112
	BYTE	W07
	BYTE		        En3   v127
	BYTE	W07
	BYTE		N09     Cs3 
	BYTE	W10
// 008   ----------------------------------------
	BYTE		N24     Dn4 
	BYTE	W24
	BYTE		N07   
	BYTE	W07
	BYTE		N07   
	BYTE	W08
	BYTE		N09   
	BYTE	W09
	BYTE		N07   
	BYTE	W07
	BYTE		N07   
	BYTE	W08
	BYTE		N09   
	BYTE	W09
	BYTE		N07   
	BYTE	W07
	BYTE		N07   
	BYTE	W08
	BYTE		N09   
	BYTE	W09
// 009   ----------------------------------------
	BYTE		N24     Cs4 
	BYTE	W24
	BYTE		N07   
	BYTE	W07
	BYTE		N08     Cs4   v124
	BYTE	W08
	BYTE		N09     Cs4   v100
	BYTE	W09
	BYTE		N07     Cs4   v127
	BYTE	W07
	BYTE		N08     Cs4   v116
	BYTE	W08
	BYTE		N09     Cs4   v108
	BYTE	W09
	BYTE		N07     Cs4   v112
	BYTE	W07
	BYTE		N08     Cs4   v120
	BYTE	W08
	BYTE		        Cs4   v124
	BYTE	W09
// 010   ----------------------------------------
	BYTE		N24     En4   v104
	BYTE	W24
	BYTE		N07     En4   v096
	BYTE	W07
	BYTE		        En4   v127
	BYTE	W07
	BYTE		N08   
	BYTE	W09
	BYTE		N07   
	BYTE	W08
	BYTE		N07   
	BYTE	W07
	BYTE		N09   
	BYTE	W09
	BYTE		N07   
	BYTE	W08
	BYTE		N07   
	BYTE	W07
	BYTE		N08   
	BYTE	W09
	BYTE		N24     Fn4   v084
	BYTE	W01
// 011   ----------------------------------------
	BYTE	W23
	BYTE		N07     Fn4   v116
	BYTE	W08
	BYTE		        Fn4   v064
	BYTE	W07
	BYTE		N08     Fn4   v127
	BYTE	W09
	BYTE		N07   
	BYTE	W08
	BYTE		        Fn4   v108
	BYTE	W07
	BYTE		N08     Fn4   v124
	BYTE	W09
	BYTE		N07     Fn4   v100
	BYTE	W08
	BYTE		        Fn4   v120
	BYTE	W07
	BYTE		N09     Fn4   v127
	BYTE	W09
	BYTE		N24     En4   v112
	BYTE	W01
// 012   ----------------------------------------
	BYTE	W23
	BYTE		N07     En4   v127
	BYTE	W08
	BYTE		N07   
	BYTE	W07
	BYTE		N09   
	BYTE	W09
	BYTE		N07     En4   v108
	BYTE	W08
	BYTE		        En4   v127
	BYTE	W07
	BYTE		N09     En4   v096
	BYTE	W09
	BYTE		N07     En4   v116
	BYTE	W08
	BYTE		        En4   v104
	BYTE	W07
	BYTE		N09     En4   v127
	BYTE	W09
	BYTE		N24     Ds4 
	BYTE	W01
// 013   ----------------------------------------
	BYTE	W24
	BYTE		N07   
	BYTE	W07
	BYTE		        Ds4   v096
	BYTE	W07
	BYTE		N09     Ds4   v127
	BYTE	W09
	BYTE		N07   
	BYTE	W08
	BYTE		N07   
	BYTE	W07
	BYTE		N09   
	BYTE	W09
	BYTE		N07   
	BYTE	W08
	BYTE		N07   
	BYTE	W07
	BYTE		N08   
	BYTE	W10
// 014   ----------------------------------------
	BYTE		N07     Dn4 
	BYTE	W07
	BYTE		        Dn4   v096
	BYTE	W07
	BYTE		N09     Dn4   v127
	BYTE	W09
	BYTE		N07   
	BYTE	W08
	BYTE		N07   
	BYTE	W07
	BYTE		N09   
	BYTE	W09
	BYTE		N07   
	BYTE	W08
	BYTE		N07   
	BYTE	W07
	BYTE		N08   
	BYTE	W10
	BYTE		N07   
	BYTE	W07
	BYTE		N07   
	BYTE	W08
	BYTE		N08   
	BYTE	W09
// 015   ----------------------------------------
	BYTE	TEMPO   134*LordOfADeadEmpire_Ablaze_tbs/2
	BYTE		N07     An4 
	BYTE	W07
	BYTE		N08     En4 
	BYTE	W08
	BYTE		        Dn4 
	BYTE	W09
	BYTE		N07     An4 
	BYTE	W07
	BYTE		N08     En4 
	BYTE	W08
	BYTE		        Dn4 
	BYTE	W09
	BYTE		N07     An4 
	BYTE	W07
	BYTE		N08     En4 
	BYTE	W08
	BYTE		        Dn4 
	BYTE	W09
	BYTE	TEMPO   134*LordOfADeadEmpire_Ablaze_tbs/2
	BYTE		N07     An4 
	BYTE	W07
	BYTE		N08     En4 
	BYTE	W08
	BYTE		        Dn4 
	BYTE	W09
// 016   ----------------------------------------
LordOfADeadEmpire_Ablaze_1_016:
	BYTE		N07     An4   v127
	BYTE	W07
	BYTE		N08     En4 
	BYTE	W08
	BYTE		        Dn4 
	BYTE	W09
	BYTE		N07     An4 
	BYTE	W07
	BYTE		N08     En4 
	BYTE	W08
	BYTE		        Dn4 
	BYTE	W09
	BYTE		N07     As4 
	BYTE	W07
	BYTE		N08     Fn4 
	BYTE	W08
	BYTE		        Ds4 
	BYTE	W09
	BYTE		N07     As4 
	BYTE	W07
	BYTE		N08     Fn4 
	BYTE	W08
	BYTE		        Ds4 
	BYTE	W09
	BYTE	PEND
// 017   ----------------------------------------
LordOfADeadEmpire_Ablaze_1_017:
	BYTE		N07     As4   v127
	BYTE	W07
	BYTE		N08     Fn4 
	BYTE	W08
	BYTE		        Ds4 
	BYTE	W09
	BYTE		N07     As4 
	BYTE	W07
	BYTE		N08     Fn4 
	BYTE	W08
	BYTE		        Ds4 
	BYTE	W09
	BYTE		N07     As4 
	BYTE	W07
	BYTE		N08     Fn4 
	BYTE	W08
	BYTE		        Ds4 
	BYTE	W09
	BYTE		N07     As4 
	BYTE	W07
	BYTE		N08     Fn4 
	BYTE	W08
	BYTE		        Ds4 
	BYTE	W09
	BYTE	PEND
// 018   ----------------------------------------
	BYTE		N07     An4 
	BYTE	W07
	BYTE		N08     En4 
	BYTE	W08
	BYTE		        Dn4 
	BYTE	W09
	BYTE		N07     An4 
	BYTE	W07
	BYTE		N08     En4 
	BYTE	W08
	BYTE		        Dn4 
	BYTE	W09
	BYTE		N07     An4 
	BYTE	W07
	BYTE		N08     En4 
	BYTE	W08
	BYTE		        Dn4 
	BYTE	W09
	BYTE		N07     An4 
	BYTE	W07
	BYTE		N08     En4 
	BYTE	W08
	BYTE		        Dn4 
	BYTE	W09
// 019   ----------------------------------------
	BYTE	PATT
	 POIN2	LordOfADeadEmpire_Ablaze_1_016
// 020   ----------------------------------------
	BYTE	PATT
	 POIN2	LordOfADeadEmpire_Ablaze_1_017
// 021   ----------------------------------------
LordOfADeadEmpire_Ablaze_1_021:
	BYTE		N24     Ds4   v127
	BYTE	W24
	BYTE		N07   
	BYTE	W07
	BYTE		N08     Ds4   v124
	BYTE	W08
	BYTE		N09     Ds4   v100
	BYTE	W09
	BYTE		N07     Ds4   v127
	BYTE	W07
	BYTE		N08     Ds4   v116
	BYTE	W08
	BYTE		N09     Ds4   v108
	BYTE	W09
	BYTE		N07     Ds4   v112
	BYTE	W07
	BYTE		N08     Ds4   v120
	BYTE	W08
	BYTE		        Ds4   v124
	BYTE	W09
	BYTE	PEND
// 022   ----------------------------------------
LordOfADeadEmpire_Ablaze_1_022:
	BYTE		N24     Dn4   v120
	BYTE	W24
	BYTE		N07     Dn4   v127
	BYTE	W07
	BYTE		N08     Dn4   v120
	BYTE	W08
	BYTE		N09     Dn4   v104
	BYTE	W09
	BYTE		N07     Dn4   v127
	BYTE	W07
	BYTE		N08     Dn4   v116
	BYTE	W08
	BYTE		        Dn4   v127
	BYTE	W09
	BYTE		N07   
	BYTE	W07
	BYTE		N08     Dn4   v120
	BYTE	W08
	BYTE		        Dn4   v104
	BYTE	W09
	BYTE	PEND
// 023   ----------------------------------------
LordOfADeadEmpire_Ablaze_1_023:
	BYTE		N24     Cs4   v104
	BYTE	W24
	BYTE		N07     Cs4   v096
	BYTE	W07
	BYTE		        Cs4   v127
	BYTE	W07
	BYTE		N08   
	BYTE	W09
	BYTE		N07   
	BYTE	W08
	BYTE		N07   
	BYTE	W07
	BYTE		N09   
	BYTE	W09
	BYTE		N07   
	BYTE	W08
	BYTE		N07   
	BYTE	W07
	BYTE		N08   
	BYTE	W10
	BYTE	PEND
// 024   ----------------------------------------
LordOfADeadEmpire_Ablaze_1_024:
	BYTE		N24     Cn4   v084
	BYTE	W24
	BYTE		N07     Cn4   v116
	BYTE	W07
	BYTE		        Cn4   v064
	BYTE	W07
	BYTE		N08     Cn4   v127
	BYTE	W09
	BYTE		N07   
	BYTE	W08
	BYTE		        Cn4   v108
	BYTE	W07
	BYTE		N08     Cn4   v124
	BYTE	W09
	BYTE		N07     Cn4   v100
	BYTE	W08
	BYTE		        Cn4   v120
	BYTE	W07
	BYTE		N09     Cn4   v127
	BYTE	W09
	BYTE		N24     Bn3   v112
	BYTE	W01
	BYTE	PEND
// 025   ----------------------------------------
LordOfADeadEmpire_Ablaze_1_025:
	BYTE	W23
	BYTE		N07     Bn3   v127
	BYTE	W08
	BYTE		N07   
	BYTE	W08
	BYTE		N09   
	BYTE	W09
	BYTE		N07     Bn3   v108
	BYTE	W07
	BYTE		        Bn3   v127
	BYTE	W07
	BYTE		N09     Bn3   v096
	BYTE	W09
	BYTE		N07     Bn3   v116
	BYTE	W08
	BYTE		        Bn3   v104
	BYTE	W07
	BYTE		N09     Bn3   v127
	BYTE	W10
	BYTE	PEND
// 026   ----------------------------------------
LordOfADeadEmpire_Ablaze_1_026:
	BYTE		N24     Cn4   v112
	BYTE	W24
	BYTE		N07     Cn4   v127
	BYTE	W07
	BYTE		N07   
	BYTE	W08
	BYTE		N09   
	BYTE	W09
	BYTE		N07     Cn4   v108
	BYTE	W07
	BYTE		        Cn4   v127
	BYTE	W07
	BYTE		N09     Cn4   v096
	BYTE	W09
	BYTE		N07     Cn4   v116
	BYTE	W08
	BYTE		N08     Cn4   v104
	BYTE	W08
	BYTE		N09     Cn4   v127
	BYTE	W09
	BYTE	PEND
// 027   ----------------------------------------
LordOfADeadEmpire_Ablaze_1_027:
	BYTE		N07     Cs4   v127
	BYTE	W07
	BYTE		N07   
	BYTE	W08
	BYTE		N09   
	BYTE	W09
	BYTE		N07     Cs4   v108
	BYTE	W07
	BYTE		        Cs4   v127
	BYTE	W07
	BYTE		N09     Cs4   v096
	BYTE	W09
	BYTE		N07     Cs4   v116
	BYTE	W08
	BYTE		N08     Cs4   v104
	BYTE	W08
	BYTE		N09     Cs4   v127
	BYTE	W09
	BYTE		N07   
	BYTE	W07
	BYTE		N07   
	BYTE	W08
	BYTE		N09   
	BYTE	W09
	BYTE	PEND
// 028   ----------------------------------------
	BYTE		N07     Cs4   v108
	BYTE	W07
	BYTE		N08     Cs4   v127
	BYTE	W08
	BYTE		N09     Cs4   v096
	BYTE	W09
	BYTE		N07     Cs4   v116
	BYTE	W07
	BYTE		N08     Cs4   v104
	BYTE	W08
	BYTE		        Cs4   v127
	BYTE	W09
	BYTE		N01     Cs4   v108
	BYTE	W07
	BYTE		N07     Cs4   v127
	BYTE	W07
	BYTE		N09     Cs4   v096
	BYTE	W09
	BYTE		N07     Cs4   v116
	BYTE	W08
	BYTE		N08     Cs4   v104
	BYTE	W08
	BYTE		N09     Cs4   v127
	BYTE	W09
// 029   ----------------------------------------
	BYTE	PATT
	 POIN2	LordOfADeadEmpire_Ablaze_1_021
// 030   ----------------------------------------
	BYTE	PATT
	 POIN2	LordOfADeadEmpire_Ablaze_1_022
// 031   ----------------------------------------
	BYTE	PATT
	 POIN2	LordOfADeadEmpire_Ablaze_1_023
// 032   ----------------------------------------
	BYTE	PATT
	 POIN2	LordOfADeadEmpire_Ablaze_1_024
// 033   ----------------------------------------
	BYTE	PATT
	 POIN2	LordOfADeadEmpire_Ablaze_1_025
// 034   ----------------------------------------
	BYTE	PATT
	 POIN2	LordOfADeadEmpire_Ablaze_1_026
// 035   ----------------------------------------
	BYTE	PATT
	 POIN2	LordOfADeadEmpire_Ablaze_1_027
// 036   ----------------------------------------
	BYTE		N07     Dn4   v108
	BYTE	W07
	BYTE		N08     Dn4   v127
	BYTE	W08
	BYTE		N09     Dn4   v096
	BYTE	W09
	BYTE		N07     Dn4   v116
	BYTE	W07
	BYTE		N08     Dn4   v104
	BYTE	W08
	BYTE		        Dn4   v127
	BYTE	W09
	BYTE		N01     Dn4   v108
	BYTE	W07
	BYTE		N07     Dn4   v127
	BYTE	W07
	BYTE		N09     Dn4   v096
	BYTE	W09
	BYTE		N07     Dn4   v116
	BYTE	W08
	BYTE		N08     Dn4   v104
	BYTE	W08
	BYTE		N09     Dn4   v127
	BYTE	W09
// 037   ----------------------------------------
LordOfADeadEmpire_Ablaze_1_037:
	BYTE		N07     Ds4   v116
	BYTE	W07
	BYTE		N08     As3   v104
	BYTE	W08
	BYTE		N09     Fs3   v127
	BYTE	W09
	BYTE		N07     Dn4   v116
	BYTE	W07
	BYTE		N08     As3   v104
	BYTE	W08
	BYTE		N09     Fn3   v127
	BYTE	W09
	BYTE		N07     Cs4   v116
	BYTE	W07
	BYTE		N08     An3   v104
	BYTE	W08
	BYTE		N09     Fn3   v127
	BYTE	W09
	BYTE		N07     Cn4   v116
	BYTE	W07
	BYTE		N08     Gs3   v104
	BYTE	W08
	BYTE		N09     En3   v127
	BYTE	W09
	BYTE	PEND
// 038   ----------------------------------------
	BYTE	PATT
	 POIN2	LordOfADeadEmpire_Ablaze_1_037
// 039   ----------------------------------------
	BYTE	PATT
	 POIN2	LordOfADeadEmpire_Ablaze_1_037
// 040   ----------------------------------------
	BYTE	PATT
	 POIN2	LordOfADeadEmpire_Ablaze_1_037
// 041   ----------------------------------------
	BYTE	PATT
	 POIN2	LordOfADeadEmpire_Ablaze_1_037
// 042   ----------------------------------------
	BYTE	PATT
	 POIN2	LordOfADeadEmpire_Ablaze_1_037
// 043   ----------------------------------------
	BYTE	PATT
	 POIN2	LordOfADeadEmpire_Ablaze_1_037
// 044   ----------------------------------------
	BYTE		N07     Ds4   v116
	BYTE	W07
	BYTE		N08     As3   v104
	BYTE	W08
	BYTE		N09     Fs3   v127
	BYTE	W09
	BYTE		N07     Dn4   v116
	BYTE	W07
	BYTE		N08     As3   v104
	BYTE	W08
	BYTE		N09     Fn3   v127
	BYTE	W09
	BYTE		N07     Cs4   v116
	BYTE	W07
	BYTE		N08     An3   v104
	BYTE	W08
	BYTE		N09     Fn3   v127
	BYTE	W09
	BYTE		N07     Cn4   v116
	BYTE	W07
	BYTE		N08     Bn3   v104
	BYTE	W08
	BYTE		N09     Fs3   v127
	BYTE	W09
// 045   ----------------------------------------
LordOfADeadEmpire_Ablaze_1_045:
	BYTE		N18     Ds3   v108
	BYTE	W18
	BYTE		N07     Fs3 
	BYTE	W07
	BYTE		N08     Fn3 
	BYTE	W08
	BYTE		N07     Fs3 
	BYTE	W07
	BYTE		N08     Fn3 
	BYTE	W08
	BYTE		N18     Ds3 
	BYTE	W18
	BYTE		N07     Fs3 
	BYTE	W07
	BYTE		N08     Fn3 
	BYTE	W08
	BYTE		N07     Fs3 
	BYTE	W07
	BYTE		N08     Fn3 
	BYTE	W08
	BYTE	PEND
// 046   ----------------------------------------
LordOfADeadEmpire_Ablaze_1_046:
	BYTE		N18     Ds3   v108
	BYTE	W18
	BYTE		N07     Fs3 
	BYTE	W07
	BYTE		N08     Fn3 
	BYTE	W08
	BYTE		N07     Fs3 
	BYTE	W07
	BYTE		N08     Fn3 
	BYTE	W08
	BYTE		N07     Ds3 
	BYTE	W07
	BYTE		N09     Fn3 
	BYTE	W09
	BYTE		N08     Fs3 
	BYTE	W08
	BYTE		N07     Gs3 
	BYTE	W07
	BYTE		N08     Fs3 
	BYTE	W08
	BYTE		N09     Fn3 
	BYTE	W09
	BYTE	PEND
// 047   ----------------------------------------
	BYTE	PATT
	 POIN2	LordOfADeadEmpire_Ablaze_1_045
// 048   ----------------------------------------
	BYTE	PATT
	 POIN2	LordOfADeadEmpire_Ablaze_1_046
// 049   ----------------------------------------
	BYTE	PATT
	 POIN2	LordOfADeadEmpire_Ablaze_1_045
// 050   ----------------------------------------
	BYTE	PATT
	 POIN2	LordOfADeadEmpire_Ablaze_1_046
// 051   ----------------------------------------
	BYTE	PATT
	 POIN2	LordOfADeadEmpire_Ablaze_1_045
// 052   ----------------------------------------
	BYTE	PATT
	 POIN2	LordOfADeadEmpire_Ablaze_1_046
// 053   ----------------------------------------
	BYTE	FINE

//**************** Track 2 (Midi-Chn.2) ****************//

LordOfADeadEmpire_Ablaze_2:
	BYTE	KEYSH   LordOfADeadEmpire_Ablaze_key+0
// 000   ----------------------------------------
	BYTE		VOICE   48
	BYTE		VOL     39*LordOfADeadEmpire_Ablaze_mvl/mxv
	BYTE		N96     Fn4   v108
	BYTE		N96     Fn5   v100
	BYTE	W96
// 001   ----------------------------------------
	BYTE		        Gn4   v108
	BYTE		N96     En5   v100
	BYTE	W96
// 002   ----------------------------------------
LordOfADeadEmpire_Ablaze_2_002:
	BYTE		N96     En4   v108
	BYTE		N96     En5   v100
	BYTE	W96
	BYTE	PEND
// 003   ----------------------------------------
	BYTE		N48     Fn4   v108
	BYTE		N48     Dn5   v100
	BYTE	W48
	BYTE		N48   
	BYTE	W48
// 004   ----------------------------------------
	BYTE		N96     Gn4   v108
	BYTE		N96     Dn5   v100
	BYTE	W96
// 005   ----------------------------------------
	BYTE		        Fn4   v108
	BYTE		N96     Cs5   v100
	BYTE	W96
// 006   ----------------------------------------
LordOfADeadEmpire_Ablaze_2_006:
	BYTE		N96     Fn4   v108
	BYTE		N96     Gn5   v100
	BYTE	W96
	BYTE	PEND
// 007   ----------------------------------------
	BYTE	PATT
	 POIN2	LordOfADeadEmpire_Ablaze_2_002
// 008   ----------------------------------------
	BYTE		N96     Fn4   v108
	BYTE		N96     En5   v100
	BYTE	W96
// 009   ----------------------------------------
	BYTE		        Gn4   v108
	BYTE		N96     Cs5   v100
	BYTE	W96
// 010   ----------------------------------------
	BYTE	PATT
	 POIN2	LordOfADeadEmpire_Ablaze_2_002
// 011   ----------------------------------------
	BYTE		N96     An4   v108
	BYTE		N96     Fn5   v100
	BYTE	W96
// 012   ----------------------------------------
	BYTE	PATT
	 POIN2	LordOfADeadEmpire_Ablaze_2_006
// 013   ----------------------------------------
	BYTE		N96     En4   v108
	BYTE		N96     Dn5   v100
	BYTE	W96
// 014   ----------------------------------------
	BYTE		        An4   v108
	BYTE		N96     An5   v100
	BYTE	W96
// 015   ----------------------------------------
	BYTE		TIE     Fn4   v108
	BYTE		TIE     An4   v100
	BYTE		TIE     An5 
	BYTE	W96
// 016   ----------------------------------------
	BYTE	W96
// 017   ----------------------------------------
	BYTE	W92
	BYTE	W02
	BYTE		EOT     Fn4 
	BYTE		        An4 
	BYTE		        An5 
	BYTE		N02     Fn4   v108
	BYTE	W02
// 018   ----------------------------------------
	BYTE		N72     An4   v100
	BYTE		TIE     Dn5 
	BYTE	W96
// 019   ----------------------------------------
	BYTE	W92
	BYTE	W02
	BYTE		EOT   
	BYTE		N48     Dn4   v108
	BYTE		N02     Fn4   v100
	BYTE	W02
// 020   ----------------------------------------
	BYTE		N96     Cs5 
	BYTE		N24     Dn5   v108
	BYTE	W44
	BYTE	W02
	BYTE		N48     Cs4 
	BYTE	W48
	BYTE	W02
// 021   ----------------------------------------
	BYTE		N96     Fs4   v100
	BYTE		N96     An4   v108
	BYTE		N96     As4 
	BYTE		N96     Ds5   v100
	BYTE	W96
// 022   ----------------------------------------
LordOfADeadEmpire_Ablaze_2_022:
	BYTE		N96     Fn4   v100
	BYTE		N96     Gs4   v108
	BYTE		N96     Dn5   v100
	BYTE	W96
	BYTE	PEND
// 023   ----------------------------------------
LordOfADeadEmpire_Ablaze_2_023:
	BYTE		N96     En4   v100
	BYTE		N96     Gs4   v108
	BYTE		N96     Cs5   v100
	BYTE	W96
	BYTE	PEND
// 024   ----------------------------------------
LordOfADeadEmpire_Ablaze_2_024:
	BYTE		N96     Ds4   v100
	BYTE		N96     Gn4   v108
	BYTE		N96     Cs5   v100
	BYTE	W96
	BYTE	PEND
// 025   ----------------------------------------
LordOfADeadEmpire_Ablaze_2_025:
	BYTE		N96     Cs4   v100
	BYTE		N96     Gn4   v108
	BYTE		N96     Bn4   v100
	BYTE	W96
	BYTE	PEND
// 026   ----------------------------------------
LordOfADeadEmpire_Ablaze_2_026:
	BYTE		N96     Bn3   v100
	BYTE		N96     Fn4   v108
	BYTE		N96     As4   v100
	BYTE	W96
	BYTE	PEND
// 027   ----------------------------------------
LordOfADeadEmpire_Ablaze_2_027:
	BYTE		TIE     Dn4   v100
	BYTE		TIE     Fn4   v108
	BYTE		TIE     Cs5   v104
	BYTE	W96
	BYTE	PEND
// 028   ----------------------------------------
	BYTE	W96
	BYTE		EOT     Dn4 
	BYTE		        Fn4 
	BYTE		        Cs5 
// 029   ----------------------------------------
	BYTE		N96     Dn4   v080
	BYTE		N96     Fs4   v100
	BYTE		N96     As4   v108
	BYTE		N96     Cs5   v080
	BYTE		N96     Ds5   v100
	BYTE	W96
// 030   ----------------------------------------
	BYTE	PATT
	 POIN2	LordOfADeadEmpire_Ablaze_2_022
// 031   ----------------------------------------
	BYTE	PATT
	 POIN2	LordOfADeadEmpire_Ablaze_2_023
// 032   ----------------------------------------
	BYTE	PATT
	 POIN2	LordOfADeadEmpire_Ablaze_2_024
// 033   ----------------------------------------
	BYTE	PATT
	 POIN2	LordOfADeadEmpire_Ablaze_2_025
// 034   ----------------------------------------
	BYTE	PATT
	 POIN2	LordOfADeadEmpire_Ablaze_2_026
// 035   ----------------------------------------
	BYTE	PATT
	 POIN2	LordOfADeadEmpire_Ablaze_2_027
// 036   ----------------------------------------
	BYTE	W96
	BYTE		EOT     Dn4 
	BYTE		        Fn4 
	BYTE		        Cs5 
// 037   ----------------------------------------
	BYTE		N96     As3   v100
	BYTE		N96     Dn4   v080
	BYTE		N96     Ds4   v108
	BYTE		N96     As4   v104
	BYTE		N96     Cs5   v080
	BYTE	W96
// 038   ----------------------------------------
LordOfADeadEmpire_Ablaze_2_038:
	BYTE		N96     An3   v100
	BYTE		N96     Dn4   v108
	BYTE		N96     As4   v104
	BYTE	W96
	BYTE	PEND
// 039   ----------------------------------------
LordOfADeadEmpire_Ablaze_2_039:
	BYTE		N96     As3   v100
	BYTE		N96     Ds4   v108
	BYTE		N96     As4   v104
	BYTE	W96
	BYTE	PEND
// 040   ----------------------------------------
	BYTE	PATT
	 POIN2	LordOfADeadEmpire_Ablaze_2_038
// 041   ----------------------------------------
	BYTE	PATT
	 POIN2	LordOfADeadEmpire_Ablaze_2_039
// 042   ----------------------------------------
	BYTE	PATT
	 POIN2	LordOfADeadEmpire_Ablaze_2_038
// 043   ----------------------------------------
	BYTE	PATT
	 POIN2	LordOfADeadEmpire_Ablaze_2_039
// 044   ----------------------------------------
	BYTE		N96     Gs3   v100
	BYTE		N96     Cs4   v108
	BYTE		N96     Gs4   v104
	BYTE	W96
// 045   ----------------------------------------
	BYTE		TIE     Bn3   v100
	BYTE		TIE     Ds4   v108
	BYTE		TIE     Fs4   v104
	BYTE	W96
// 046   ----------------------------------------
	BYTE	W96
	BYTE		EOT     Bn3 
	BYTE		        Ds4 
	BYTE		        Fs4 
// 047   ----------------------------------------
	BYTE		N96     Bn3   v076
	BYTE		TIE     Cn4   v100
	BYTE		TIE     Ds4   v108
	BYTE		N96     Fs4   v104
	BYTE	W96
// 048   ----------------------------------------
	BYTE	W96
	BYTE		EOT     Cn4 
	BYTE		        Ds4 
// 049   ----------------------------------------
	BYTE		N96     Cn4   v076
	BYTE		TIE     Cs4   v100
	BYTE		TIE     Ds4   v108
	BYTE		N96     Fs4   v104
	BYTE	W96
// 050   ----------------------------------------
	BYTE	W96
	BYTE		EOT     Cs4 
	BYTE		        Ds4 
// 051   ----------------------------------------
	BYTE		N96     Cs4   v076
	BYTE		TIE     Dn4   v100
	BYTE		TIE     Fn4   v108
	BYTE		N96     Fs4   v076
	BYTE		TIE     Gs4   v104
	BYTE	W96
// 052   ----------------------------------------
	BYTE	W96
	BYTE		EOT     Dn4 
	BYTE		        Fn4 
	BYTE		        Gs4 
// 053   ----------------------------------------
	BYTE	FINE

//**************** Track 3 (Midi-Chn.3) ****************//

LordOfADeadEmpire_Ablaze_3:
	BYTE	KEYSH   LordOfADeadEmpire_Ablaze_key+0
// 000   ----------------------------------------
	BYTE		VOICE   1
	BYTE		VOL     62*LordOfADeadEmpire_Ablaze_mvl/mxv
	BYTE	W24
	BYTE		N24     An5   v124
	BYTE	W36
	BYTE		N16   
	BYTE	W16
	BYTE		N13     As5 
	BYTE	W14
	BYTE		N03     Cs5 
	BYTE	W03
	BYTE		        Fn5 
	BYTE	W03
// 001   ----------------------------------------
	BYTE		N48     An5 
	BYTE	W48
	BYTE		N16     Gn5 
	BYTE	W16
	BYTE		N15     Cn6 
	BYTE	W15
	BYTE		N16     Fn5 
	BYTE	W17
// 002   ----------------------------------------
	BYTE		N36     En5 
	BYTE	W36
	BYTE		        Gn5 
	BYTE	W36
	BYTE		N12     Fn5 
	BYTE	W18
	BYTE		N03     En5 
	BYTE	W03
	BYTE		        Cn6 
	BYTE	W03
// 003   ----------------------------------------
	BYTE		N60     En6 
	BYTE	W60
	BYTE		N18     Dn6 
	BYTE	W18
	BYTE		        An5 
	BYTE	W18
// 004   ----------------------------------------
LordOfADeadEmpire_Ablaze_3_004:
	BYTE		N60     Cn6   v124
	BYTE	W60
	BYTE		N18     As5 
	BYTE	W18
	BYTE		        Fn5 
	BYTE	W18
	BYTE	PEND
// 005   ----------------------------------------
	BYTE	PATT
	 POIN2	LordOfADeadEmpire_Ablaze_3_004
// 006   ----------------------------------------
	BYTE		N24     Dn6   v124
	BYTE	W24
	BYTE		        En6 
	BYTE	W24
	BYTE		N18     Dn6 
	BYTE	W18
	BYTE		        Gn6 
	BYTE	W18
	BYTE		N12     Fn6 
	BYTE	W12
// 007   ----------------------------------------
	BYTE		N48     Gn6 
	BYTE	W48
	BYTE		        Fn6 
	BYTE	W48
// 008   ----------------------------------------
LordOfADeadEmpire_Ablaze_3_008:
	BYTE		N48     En6   v124
	BYTE	W48
	BYTE		N18     Dn6 
	BYTE	W18
	BYTE		        An5 
	BYTE	W18
	BYTE		N12     Dn6 
	BYTE	W12
	BYTE	PEND
// 009   ----------------------------------------
	BYTE	PATT
	 POIN2	LordOfADeadEmpire_Ablaze_3_008
// 010   ----------------------------------------
	BYTE		N48     En6   v124
	BYTE	W48
	BYTE		N18     Dn6 
	BYTE	W18
	BYTE		        An5 
	BYTE	W18
	BYTE		N12     Fn6 
	BYTE	W12
// 011   ----------------------------------------
	BYTE		N48     En6 
	BYTE	W48
	BYTE		        Dn6 
	BYTE	W48
// 012   ----------------------------------------
	BYTE		N24     Cn6 
	BYTE	W24
	BYTE		N36     Dn6 
	BYTE	W36
	BYTE		N30     An5 
	BYTE	W30
	BYTE		N03     En5 
	BYTE	W03
	BYTE		        Cn6 
	BYTE	W03
// 013   ----------------------------------------
	BYTE		N36     Gn5 
	BYTE	W36
	BYTE		N24     An5 
	BYTE	W24
	BYTE		N18     Gn5 
	BYTE	W18
	BYTE		        Fn5 
	BYTE	W18
// 014   ----------------------------------------
	BYTE		N36     En5 
	BYTE	W36
	BYTE		        Gn5 
	BYTE	W36
	BYTE		N24     Fn5 
	BYTE	W24
// 015   ----------------------------------------
LordOfADeadEmpire_Ablaze_3_015:
	BYTE		N06     En5   v124
	BYTE	W09
	BYTE		N09     An4 
	BYTE	W06
	BYTE		N03     En5 
	BYTE	W09
	BYTE		N06     Fn5 
	BYTE	W09
	BYTE		N09     An4 
	BYTE	W06
	BYTE		N03     Fn5 
	BYTE	W09
	BYTE		N06     Gn5 
	BYTE	W06
	BYTE		N09     As4 
	BYTE	W09
	BYTE		        Gn5 
	BYTE	W09
	BYTE		N06     En5 
	BYTE	W09
	BYTE		N09     An4 
	BYTE	W06
	BYTE		N03     En5 
	BYTE	W09
	BYTE	PEND
// 016   ----------------------------------------
LordOfADeadEmpire_Ablaze_3_016:
	BYTE		N06     Fn5   v124
	BYTE	W09
	BYTE		N09     An4 
	BYTE	W06
	BYTE		N03     Fn5 
	BYTE	W09
	BYTE		N06     Gn5 
	BYTE	W06
	BYTE		N09     As4 
	BYTE	W09
	BYTE		        Gn5 
	BYTE	W09
	BYTE		N06     En5 
	BYTE	W09
	BYTE		N09     An4 
	BYTE	W06
	BYTE		N03     En5 
	BYTE	W09
	BYTE		N06     Fn5 
	BYTE	W09
	BYTE		N09     An4 
	BYTE	W06
	BYTE		N03     Fn5 
	BYTE	W09
	BYTE	PEND
// 017   ----------------------------------------
LordOfADeadEmpire_Ablaze_3_017:
	BYTE		N06     Gn5   v124
	BYTE	W06
	BYTE		N09     As4 
	BYTE	W09
	BYTE		        Gn5 
	BYTE	W09
	BYTE		N06     Ds5 
	BYTE	W09
	BYTE		N09     An4 
	BYTE	W06
	BYTE		N03     Ds5 
	BYTE	W09
	BYTE		N06     Fn5 
	BYTE	W09
	BYTE		N09     As4 
	BYTE	W06
	BYTE		N03     Fn5 
	BYTE	W09
	BYTE		N06     Gn5 
	BYTE	W06
	BYTE		N09     As4 
	BYTE	W09
	BYTE		        Gn5 
	BYTE	W09
	BYTE	PEND
// 018   ----------------------------------------
	BYTE	PATT
	 POIN2	LordOfADeadEmpire_Ablaze_3_015
// 019   ----------------------------------------
	BYTE	PATT
	 POIN2	LordOfADeadEmpire_Ablaze_3_016
// 020   ----------------------------------------
	BYTE	PATT
	 POIN2	LordOfADeadEmpire_Ablaze_3_017
// 021   ----------------------------------------
	BYTE	FINE

//**************** Track 4 (Midi-Chn.4) ****************//

LordOfADeadEmpire_Ablaze_4:
	BYTE	KEYSH   LordOfADeadEmpire_Ablaze_key+0
// 000   ----------------------------------------
	BYTE		VOICE   41
	BYTE		VOL     52*LordOfADeadEmpire_Ablaze_mvl/mxv
	BYTE		N96     Dn2   v100
	BYTE	W96
// 001   ----------------------------------------
LordOfADeadEmpire_Ablaze_4_001:
	BYTE		N24     Cs2   v100
	BYTE	W24
	BYTE		        An1 
	BYTE	W24
	BYTE		        Cs2 
	BYTE	W24
	BYTE		        Fn2 
	BYTE	W24
	BYTE	PEND
// 002   ----------------------------------------
	BYTE		TIE     Gn2 
	BYTE	W96
// 003   ----------------------------------------
	BYTE	W24
	BYTE		EOT   
	BYTE		N24     Fn2 
	BYTE	W24
	BYTE		        Cn3 
	BYTE	W24
	BYTE		        As2 
	BYTE	W24
// 004   ----------------------------------------
	BYTE		TIE     An2 
	BYTE	W96
// 005   ----------------------------------------
	BYTE	W24
	BYTE		EOT   
	BYTE		N24     Dn2 
	BYTE	W24
	BYTE		N24   
	BYTE	W24
	BYTE		        Gn2 
	BYTE	W24
// 006   ----------------------------------------
	BYTE		N48     En2 
	BYTE	W48
	BYTE		        Fn2 
	BYTE	W48
// 007   ----------------------------------------
	BYTE		        Cn3 
	BYTE	W48
	BYTE		        As2 
	BYTE	W48
// 008   ----------------------------------------
	BYTE		N96     Dn2 
	BYTE	W96
// 009   ----------------------------------------
	BYTE	PATT
	 POIN2	LordOfADeadEmpire_Ablaze_4_001
// 010   ----------------------------------------
	BYTE		TIE     Gn2   v100
	BYTE	W96
// 011   ----------------------------------------
	BYTE	W24
	BYTE		EOT   
	BYTE		N24     Fn2 
	BYTE	W24
	BYTE		        Cn3 
	BYTE	W24
	BYTE		        As2 
	BYTE	W24
// 012   ----------------------------------------
	BYTE		TIE     An2 
	BYTE	W96
// 013   ----------------------------------------
	BYTE	W24
	BYTE		EOT   
	BYTE		N24     Dn2 
	BYTE	W24
	BYTE		N24   
	BYTE	W24
	BYTE		        Gn2 
	BYTE	W24
// 014   ----------------------------------------
	BYTE		N96     En2 
	BYTE	W96
// 015   ----------------------------------------
	BYTE		TIE     Fn2 
	BYTE	W96
// 016   ----------------------------------------
	BYTE	W96
// 017   ----------------------------------------
	BYTE	W96
	BYTE		EOT   
// 018   ----------------------------------------
	BYTE		TIE     Dn2 
	BYTE	W96
// 019   ----------------------------------------
	BYTE	W96
	BYTE		EOT   
// 020   ----------------------------------------
	BYTE		N48     Cn2 
	BYTE	W48
	BYTE		        Bn1 
	BYTE	W48
// 021   ----------------------------------------
	BYTE		N96     Ds2 
	BYTE	W96
// 022   ----------------------------------------
LordOfADeadEmpire_Ablaze_4_022:
	BYTE		N24     Dn2   v100
	BYTE	W24
	BYTE		        As1 
	BYTE	W24
	BYTE		        Dn2 
	BYTE	W24
	BYTE		        Fn2 
	BYTE	W24
	BYTE	PEND
// 023   ----------------------------------------
LordOfADeadEmpire_Ablaze_4_023:
	BYTE		N48     Gs2   v100
	BYTE	W48
	BYTE		        Fs2 
	BYTE	W48
	BYTE	PEND
// 024   ----------------------------------------
LordOfADeadEmpire_Ablaze_4_024:
	BYTE		N48     Fn2   v100
	BYTE	W48
	BYTE		        Ds2 
	BYTE	W48
	BYTE	PEND
// 025   ----------------------------------------
	BYTE		N96     Bn1 
	BYTE	W96
// 026   ----------------------------------------
	BYTE		        Cn2 
	BYTE	W96
// 027   ----------------------------------------
	BYTE		        Dn2 
	BYTE	W96
// 028   ----------------------------------------
	BYTE		N92     Ds2 
	BYTE	W92
	BYTE	W01
	BYTE		N03   
	BYTE	W03
// 029   ----------------------------------------
	BYTE		N96   
	BYTE	W96
// 030   ----------------------------------------
	BYTE	PATT
	 POIN2	LordOfADeadEmpire_Ablaze_4_022
// 031   ----------------------------------------
	BYTE	PATT
	 POIN2	LordOfADeadEmpire_Ablaze_4_023
// 032   ----------------------------------------
	BYTE	PATT
	 POIN2	LordOfADeadEmpire_Ablaze_4_024
// 033   ----------------------------------------
	BYTE		N96     Bn1   v100
	BYTE	W96
// 034   ----------------------------------------
	BYTE		        Cn2 
	BYTE	W96
// 035   ----------------------------------------
	BYTE		        Dn2 
	BYTE	W96
// 036   ----------------------------------------
	BYTE		        Ds2 
	BYTE	W96
// 037   ----------------------------------------
	BYTE		        As1 
	BYTE	W96
// 038   ----------------------------------------
	BYTE		        An1 
	BYTE	W96
// 039   ----------------------------------------
	BYTE		        As1 
	BYTE	W96
// 040   ----------------------------------------
	BYTE		        Bn1 
	BYTE	W96
// 041   ----------------------------------------
	BYTE		        As1 
	BYTE	W96
// 042   ----------------------------------------
	BYTE		        An1 
	BYTE	W96
// 043   ----------------------------------------
	BYTE		        As1 
	BYTE	W96
// 044   ----------------------------------------
	BYTE		        Cs2 
	BYTE	W96
// 045   ----------------------------------------
	BYTE		TIE     Bn1 
	BYTE	W96
// 046   ----------------------------------------
	BYTE	W96
	BYTE		EOT   
// 047   ----------------------------------------
	BYTE		TIE     Cn2 
	BYTE	W96
// 048   ----------------------------------------
	BYTE	W96
	BYTE		EOT   
// 049   ----------------------------------------
	BYTE		TIE     Cs2 
	BYTE	W96
// 050   ----------------------------------------
	BYTE	W96
	BYTE		EOT   
// 051   ----------------------------------------
	BYTE		TIE     Dn2 
	BYTE	W96
// 052   ----------------------------------------
	BYTE	W96
	BYTE		EOT   
// 053   ----------------------------------------
	BYTE	FINE

//**************** Track 5 (Midi-Chn.5) ****************//

LordOfADeadEmpire_Ablaze_5:
	BYTE	KEYSH   LordOfADeadEmpire_Ablaze_key+0
// 000   ----------------------------------------
	BYTE		VOICE   127
	BYTE		VOL     62*LordOfADeadEmpire_Ablaze_mvl/mxv
	BYTE		N16     Dn2   v108
	BYTE	W16
	BYTE		N16   
	BYTE	W17
	BYTE		N07   
	BYTE	W07
	BYTE		N07   
	BYTE	W08
	BYTE		N16   
	BYTE	W16
	BYTE		N16   
	BYTE	W17
	BYTE		N07   
	BYTE	W07
	BYTE		N07   
	BYTE	W08
// 001   ----------------------------------------
LordOfADeadEmpire_Ablaze_5_001:
	BYTE		N16     Dn2   v108
	BYTE	W16
	BYTE		N16   
	BYTE	W17
	BYTE		N07   
	BYTE	W07
	BYTE		N07   
	BYTE	W08
	BYTE		N07   
	BYTE	W07
	BYTE		N07   
	BYTE	W08
	BYTE		N07   
	BYTE	W07
	BYTE		N07   
	BYTE	W08
	BYTE		N07   
	BYTE	W07
	BYTE		N10   
	BYTE	W11
	BYTE	PEND
// 002   ----------------------------------------
LordOfADeadEmpire_Ablaze_5_002:
	BYTE		N16     Dn2   v108
	BYTE	W16
	BYTE		N16   
	BYTE	W17
	BYTE		N07   
	BYTE	W07
	BYTE		N07   
	BYTE	W08
	BYTE		N16   
	BYTE	W16
	BYTE		N16   
	BYTE	W17
	BYTE		N07   
	BYTE	W07
	BYTE		N07   
	BYTE	W08
	BYTE	PEND
// 003   ----------------------------------------
	BYTE	PATT
	 POIN2	LordOfADeadEmpire_Ablaze_5_001
// 004   ----------------------------------------
	BYTE	PATT
	 POIN2	LordOfADeadEmpire_Ablaze_5_002
// 005   ----------------------------------------
	BYTE	PATT
	 POIN2	LordOfADeadEmpire_Ablaze_5_001
// 006   ----------------------------------------
	BYTE	PATT
	 POIN2	LordOfADeadEmpire_Ablaze_5_002
// 007   ----------------------------------------
	BYTE	PATT
	 POIN2	LordOfADeadEmpire_Ablaze_5_001
// 008   ----------------------------------------
	BYTE	PATT
	 POIN2	LordOfADeadEmpire_Ablaze_5_002
// 009   ----------------------------------------
	BYTE	PATT
	 POIN2	LordOfADeadEmpire_Ablaze_5_001
// 010   ----------------------------------------
	BYTE	PATT
	 POIN2	LordOfADeadEmpire_Ablaze_5_002
// 011   ----------------------------------------
	BYTE	PATT
	 POIN2	LordOfADeadEmpire_Ablaze_5_001
// 012   ----------------------------------------
	BYTE	PATT
	 POIN2	LordOfADeadEmpire_Ablaze_5_002
// 013   ----------------------------------------
	BYTE	PATT
	 POIN2	LordOfADeadEmpire_Ablaze_5_001
// 014   ----------------------------------------
	BYTE	PATT
	 POIN2	LordOfADeadEmpire_Ablaze_5_002
// 015   ----------------------------------------
LordOfADeadEmpire_Ablaze_5_015:
	BYTE		N07     Dn2   v108
	BYTE	W07
	BYTE		N07   
	BYTE	W08
	BYTE		N07   
	BYTE	W07
	BYTE		N07   
	BYTE	W24
	BYTE	W02
	BYTE		N18     Cs3   v127
	BYTE	W24
	BYTE		N07     Dn2   v108
	BYTE	W07
	BYTE		N07   
	BYTE	W08
	BYTE		N07   
	BYTE	W07
	BYTE		N07   
	BYTE	W02
	BYTE	PEND
// 016   ----------------------------------------
LordOfADeadEmpire_Ablaze_5_016:
	BYTE	W24
	BYTE		N18     Cs3   v127
	BYTE	W24
	BYTE		N07     Dn2   v108
	BYTE	W07
	BYTE		N07   
	BYTE	W08
	BYTE		N07   
	BYTE	W07
	BYTE		N07   
	BYTE	W24
	BYTE	W02
	BYTE	PEND
// 017   ----------------------------------------
LordOfADeadEmpire_Ablaze_5_017:
	BYTE		N18     Cs3   v127
	BYTE	W24
	BYTE		N07     Dn2   v108
	BYTE	W07
	BYTE		N07   
	BYTE	W08
	BYTE		N07   
	BYTE	W07
	BYTE		N07   
	BYTE	W24
	BYTE	W02
	BYTE		N18     Cs3   v127
	BYTE	W24
	BYTE	PEND
// 018   ----------------------------------------
	BYTE	PATT
	 POIN2	LordOfADeadEmpire_Ablaze_5_015
// 019   ----------------------------------------
	BYTE	PATT
	 POIN2	LordOfADeadEmpire_Ablaze_5_016
// 020   ----------------------------------------
	BYTE	PATT
	 POIN2	LordOfADeadEmpire_Ablaze_5_017
// 021   ----------------------------------------
	BYTE	PATT
	 POIN2	LordOfADeadEmpire_Ablaze_5_002
// 022   ----------------------------------------
	BYTE	PATT
	 POIN2	LordOfADeadEmpire_Ablaze_5_001
// 023   ----------------------------------------
	BYTE	PATT
	 POIN2	LordOfADeadEmpire_Ablaze_5_002
// 024   ----------------------------------------
	BYTE	PATT
	 POIN2	LordOfADeadEmpire_Ablaze_5_001
// 025   ----------------------------------------
	BYTE	PATT
	 POIN2	LordOfADeadEmpire_Ablaze_5_002
// 026   ----------------------------------------
	BYTE	PATT
	 POIN2	LordOfADeadEmpire_Ablaze_5_001
// 027   ----------------------------------------
	BYTE	PATT
	 POIN2	LordOfADeadEmpire_Ablaze_5_002
// 028   ----------------------------------------
	BYTE	PATT
	 POIN2	LordOfADeadEmpire_Ablaze_5_001
// 029   ----------------------------------------
	BYTE	PATT
	 POIN2	LordOfADeadEmpire_Ablaze_5_002
// 030   ----------------------------------------
	BYTE	PATT
	 POIN2	LordOfADeadEmpire_Ablaze_5_001
// 031   ----------------------------------------
	BYTE	PATT
	 POIN2	LordOfADeadEmpire_Ablaze_5_002
// 032   ----------------------------------------
	BYTE	PATT
	 POIN2	LordOfADeadEmpire_Ablaze_5_001
// 033   ----------------------------------------
	BYTE	PATT
	 POIN2	LordOfADeadEmpire_Ablaze_5_002
// 034   ----------------------------------------
	BYTE	PATT
	 POIN2	LordOfADeadEmpire_Ablaze_5_001
// 035   ----------------------------------------
	BYTE	W96
// 036   ----------------------------------------
	BYTE	W96
// 037   ----------------------------------------
	BYTE	W96
// 038   ----------------------------------------
	BYTE	W96
// 039   ----------------------------------------
	BYTE	W96
// 040   ----------------------------------------
	BYTE	W96
// 041   ----------------------------------------
	BYTE	W96
// 042   ----------------------------------------
	BYTE	W96
// 043   ----------------------------------------
	BYTE	W96
// 044   ----------------------------------------
	BYTE	W96
// 045   ----------------------------------------
	BYTE	PATT
	 POIN2	LordOfADeadEmpire_Ablaze_5_002
// 046   ----------------------------------------
	BYTE	PATT
	 POIN2	LordOfADeadEmpire_Ablaze_5_001
// 047   ----------------------------------------
	BYTE	PATT
	 POIN2	LordOfADeadEmpire_Ablaze_5_002
// 048   ----------------------------------------
	BYTE	PATT
	 POIN2	LordOfADeadEmpire_Ablaze_5_001
// 049   ----------------------------------------
	BYTE	PATT
	 POIN2	LordOfADeadEmpire_Ablaze_5_002
// 050   ----------------------------------------
	BYTE	PATT
	 POIN2	LordOfADeadEmpire_Ablaze_5_001
// 051   ----------------------------------------
	BYTE	PATT
	 POIN2	LordOfADeadEmpire_Ablaze_5_002
// 052   ----------------------------------------
	BYTE		N16     Dn2   v108
	BYTE	W16
	BYTE		N16   
	BYTE	W17
	BYTE		N07   
	BYTE	W07
	BYTE		N07   
	BYTE	W08
	BYTE		N07   
	BYTE	W07
	BYTE		N07   
	BYTE	W08
	BYTE		N07   
	BYTE	W07
	BYTE		N07   
	BYTE	W08
	BYTE		N07   
	BYTE	W07
	BYTE		N10   
	BYTE	W10
	BYTE	FINE

//**************** Track 6 (Midi-Chn.6) ****************//

LordOfADeadEmpire_Ablaze_6:
	BYTE	KEYSH   LordOfADeadEmpire_Ablaze_key+0
// 000   ----------------------------------------
	BYTE		VOICE   47
	BYTE		VOL     62*LordOfADeadEmpire_Ablaze_mvl/mxv
	BYTE		N24     Dn2   v127
	BYTE	W48
	BYTE		N07   
	BYTE	W07
	BYTE		N07   
	BYTE	W08
	BYTE		N07   
	BYTE	W18
	BYTE		N15   
	BYTE	W15
// 001   ----------------------------------------
LordOfADeadEmpire_Ablaze_6_001:
	BYTE		N24     Cs2   v127
	BYTE	W48
	BYTE		N07   
	BYTE	W07
	BYTE		N07   
	BYTE	W08
	BYTE		N07   
	BYTE	W18
	BYTE		N15   
	BYTE	W15
	BYTE	PEND
// 002   ----------------------------------------
LordOfADeadEmpire_Ablaze_6_002:
	BYTE		N24     Cn2   v127
	BYTE	W48
	BYTE		N07   
	BYTE	W07
	BYTE		N07   
	BYTE	W08
	BYTE		N07   
	BYTE	W18
	BYTE		N15   
	BYTE	W15
	BYTE	PEND
// 003   ----------------------------------------
LordOfADeadEmpire_Ablaze_6_003:
	BYTE		N24     Bn1   v127
	BYTE	W48
	BYTE		N07   
	BYTE	W07
	BYTE		N07   
	BYTE	W08
	BYTE		N07   
	BYTE	W18
	BYTE		N15   
	BYTE	W15
	BYTE	PEND
// 004   ----------------------------------------
LordOfADeadEmpire_Ablaze_6_004:
	BYTE		N24     As1   v127
	BYTE	W48
	BYTE		N07   
	BYTE	W07
	BYTE		N07   
	BYTE	W08
	BYTE		N07   
	BYTE	W18
	BYTE		N15   
	BYTE	W15
	BYTE	PEND
// 005   ----------------------------------------
LordOfADeadEmpire_Ablaze_6_005:
	BYTE		N24     An1   v127
	BYTE	W48
	BYTE		N07   
	BYTE	W07
	BYTE		N07   
	BYTE	W08
	BYTE		N07   
	BYTE	W18
	BYTE		N15   
	BYTE	W15
	BYTE	PEND
// 006   ----------------------------------------
LordOfADeadEmpire_Ablaze_6_006:
	BYTE		N24     Gs1   v127
	BYTE	W48
	BYTE		N07   
	BYTE	W07
	BYTE		N07   
	BYTE	W08
	BYTE		N07   
	BYTE	W18
	BYTE		N15   
	BYTE	W15
	BYTE	PEND
// 007   ----------------------------------------
	BYTE		N24     An1 
	BYTE	W48
	BYTE		N07     Cs2 
	BYTE	W07
	BYTE		N07   
	BYTE	W08
	BYTE		N07   
	BYTE	W18
	BYTE		N15   
	BYTE	W15
// 008   ----------------------------------------
LordOfADeadEmpire_Ablaze_6_008:
	BYTE		N24     Dn2   v127
	BYTE	W48
	BYTE		N07   
	BYTE	W07
	BYTE		N07   
	BYTE	W08
	BYTE		N07   
	BYTE	W18
	BYTE		N15   
	BYTE	W15
	BYTE	PEND
// 009   ----------------------------------------
	BYTE	PATT
	 POIN2	LordOfADeadEmpire_Ablaze_6_001
// 010   ----------------------------------------
	BYTE	PATT
	 POIN2	LordOfADeadEmpire_Ablaze_6_002
// 011   ----------------------------------------
	BYTE	PATT
	 POIN2	LordOfADeadEmpire_Ablaze_6_003
// 012   ----------------------------------------
	BYTE	PATT
	 POIN2	LordOfADeadEmpire_Ablaze_6_004
// 013   ----------------------------------------
	BYTE	PATT
	 POIN2	LordOfADeadEmpire_Ablaze_6_005
// 014   ----------------------------------------
	BYTE	PATT
	 POIN2	LordOfADeadEmpire_Ablaze_6_006
// 015   ----------------------------------------
LordOfADeadEmpire_Ablaze_6_015:
	BYTE		N07     Dn2   v127
	BYTE	W07
	BYTE		N07   
	BYTE	W08
	BYTE		N09   
	BYTE	W09
	BYTE		N24     Ds2 
	BYTE	W24
	BYTE		        Fn2 
	BYTE	W24
	BYTE		N07     Dn2 
	BYTE	W07
	BYTE		N07   
	BYTE	W08
	BYTE		N09   
	BYTE	W09
	BYTE	PEND
// 016   ----------------------------------------
LordOfADeadEmpire_Ablaze_6_016:
	BYTE		N24     Ds2   v127
	BYTE	W24
	BYTE		        Fn2 
	BYTE	W24
	BYTE		N07     Dn2 
	BYTE	W07
	BYTE		N07   
	BYTE	W08
	BYTE		N09   
	BYTE	W09
	BYTE		N24     Ds2 
	BYTE	W24
	BYTE	PEND
// 017   ----------------------------------------
	BYTE		        Fn2 
	BYTE	W24
	BYTE		        Gn2 
	BYTE	W24
	BYTE		        An2 
	BYTE	W24
	BYTE		        As2 
	BYTE	W24
// 018   ----------------------------------------
	BYTE	PATT
	 POIN2	LordOfADeadEmpire_Ablaze_6_015
// 019   ----------------------------------------
	BYTE	PATT
	 POIN2	LordOfADeadEmpire_Ablaze_6_016
// 020   ----------------------------------------
	BYTE		N24     Fn2   v127
	BYTE	W24
	BYTE		        Gn2 
	BYTE	W24
	BYTE		        Gs2 
	BYTE	W24
	BYTE		        Bn2 
	BYTE	W24
// 021   ----------------------------------------
LordOfADeadEmpire_Ablaze_6_021:
	BYTE		N24     Ds2   v127
	BYTE	W48
	BYTE		N07   
	BYTE	W07
	BYTE		N07   
	BYTE	W08
	BYTE		N07   
	BYTE	W18
	BYTE		N15   
	BYTE	W15
	BYTE	PEND
// 022   ----------------------------------------
	BYTE	PATT
	 POIN2	LordOfADeadEmpire_Ablaze_6_008
// 023   ----------------------------------------
	BYTE	PATT
	 POIN2	LordOfADeadEmpire_Ablaze_6_001
// 024   ----------------------------------------
	BYTE	PATT
	 POIN2	LordOfADeadEmpire_Ablaze_6_002
// 025   ----------------------------------------
	BYTE	PATT
	 POIN2	LordOfADeadEmpire_Ablaze_6_003
// 026   ----------------------------------------
	BYTE	PATT
	 POIN2	LordOfADeadEmpire_Ablaze_6_004
// 027   ----------------------------------------
LordOfADeadEmpire_Ablaze_6_027:
	BYTE		N07     An1   v127
	BYTE	W07
	BYTE		N07   
	BYTE	W08
	BYTE		N09   
	BYTE	W09
	BYTE		N07   
	BYTE	W07
	BYTE		N07   
	BYTE	W08
	BYTE		N09   
	BYTE	W09
	BYTE		N07   
	BYTE	W07
	BYTE		N07   
	BYTE	W08
	BYTE		N09   
	BYTE	W09
	BYTE		N07   
	BYTE	W07
	BYTE		N07   
	BYTE	W08
	BYTE		N09   
	BYTE	W09
	BYTE	PEND
// 028   ----------------------------------------
	BYTE	PATT
	 POIN2	LordOfADeadEmpire_Ablaze_6_027
// 029   ----------------------------------------
	BYTE	PATT
	 POIN2	LordOfADeadEmpire_Ablaze_6_021
// 030   ----------------------------------------
	BYTE	PATT
	 POIN2	LordOfADeadEmpire_Ablaze_6_008
// 031   ----------------------------------------
	BYTE	PATT
	 POIN2	LordOfADeadEmpire_Ablaze_6_001
// 032   ----------------------------------------
	BYTE	PATT
	 POIN2	LordOfADeadEmpire_Ablaze_6_002
// 033   ----------------------------------------
	BYTE	PATT
	 POIN2	LordOfADeadEmpire_Ablaze_6_003
// 034   ----------------------------------------
	BYTE	PATT
	 POIN2	LordOfADeadEmpire_Ablaze_6_004
// 035   ----------------------------------------
	BYTE	PATT
	 POIN2	LordOfADeadEmpire_Ablaze_6_027
// 036   ----------------------------------------
	BYTE	PATT
	 POIN2	LordOfADeadEmpire_Ablaze_6_027
// 037   ----------------------------------------
	BYTE	W96
// 038   ----------------------------------------
	BYTE	W96
// 039   ----------------------------------------
	BYTE	W96
// 040   ----------------------------------------
	BYTE	W96
// 041   ----------------------------------------
	BYTE	W96
// 042   ----------------------------------------
	BYTE	W96
// 043   ----------------------------------------
	BYTE	W96
// 044   ----------------------------------------
	BYTE	W96
// 045   ----------------------------------------
	BYTE	PATT
	 POIN2	LordOfADeadEmpire_Ablaze_6_003
// 046   ----------------------------------------
	BYTE	PATT
	 POIN2	LordOfADeadEmpire_Ablaze_6_004
// 047   ----------------------------------------
	BYTE	PATT
	 POIN2	LordOfADeadEmpire_Ablaze_6_027
// 048   ----------------------------------------
	BYTE	PATT
	 POIN2	LordOfADeadEmpire_Ablaze_6_027
// 049   ----------------------------------------
	BYTE	PATT
	 POIN2	LordOfADeadEmpire_Ablaze_6_003
// 050   ----------------------------------------
	BYTE	PATT
	 POIN2	LordOfADeadEmpire_Ablaze_6_004
// 051   ----------------------------------------
	BYTE	PATT
	 POIN2	LordOfADeadEmpire_Ablaze_6_027
// 052   ----------------------------------------
	BYTE	PATT
	 POIN2	LordOfADeadEmpire_Ablaze_6_027
// 053   ----------------------------------------
	BYTE	FINE

//**************** Track 7 (Midi-Chn.7) ****************//

LordOfADeadEmpire_Ablaze_7:
	BYTE	KEYSH   LordOfADeadEmpire_Ablaze_key+0
// 000   ----------------------------------------
	BYTE		VOICE   119
	BYTE		VOL     75*LordOfADeadEmpire_Ablaze_mvl/mxv
	BYTE		TIE     Fn3   v104
	BYTE	W96
// 001   ----------------------------------------
	BYTE	W48
	BYTE		EOT   
	BYTE	W48
// 002   ----------------------------------------
	BYTE		TIE   
	BYTE	W96
// 003   ----------------------------------------
	BYTE	W48
	BYTE		EOT   
	BYTE	W48
// 004   ----------------------------------------
	BYTE		N96   
	BYTE	W96
// 005   ----------------------------------------
	BYTE		N96   
	BYTE	W96
// 006   ----------------------------------------
	BYTE		N96   
	BYTE	W96
// 007   ----------------------------------------
	BYTE		N96   
	BYTE	W96
// 008   ----------------------------------------
	BYTE		TIE   
	BYTE	W96
// 009   ----------------------------------------
	BYTE	W48
	BYTE		EOT   
	BYTE	W48
// 010   ----------------------------------------
	BYTE		TIE   
	BYTE	W96
// 011   ----------------------------------------
	BYTE	W48
	BYTE		EOT   
	BYTE	W48
// 012   ----------------------------------------
	BYTE		TIE   
	BYTE	W96
// 013   ----------------------------------------
	BYTE	W48
	BYTE		EOT   
	BYTE	W48
// 014   ----------------------------------------
	BYTE		N96   
	BYTE	W96
// 015   ----------------------------------------
	BYTE		N48   
	BYTE	W48
	BYTE		N72   
	BYTE	W48
// 016   ----------------------------------------
	BYTE	W24
	BYTE		N72   
	BYTE	W72
// 017   ----------------------------------------
	BYTE		N72   
	BYTE	W72
	BYTE		N72   
	BYTE	W24
// 018   ----------------------------------------
	BYTE	W48
	BYTE		N72   
	BYTE	W48
// 019   ----------------------------------------
	BYTE	W24
	BYTE		N72   
	BYTE	W72
// 020   ----------------------------------------
	BYTE		N72   
	BYTE	W72
	BYTE		N24   
	BYTE	W24
// 021   ----------------------------------------
	BYTE		N96   
	BYTE	W96
// 022   ----------------------------------------
	BYTE	W96
// 023   ----------------------------------------
	BYTE	W96
// 024   ----------------------------------------
	BYTE	W96
// 025   ----------------------------------------
	BYTE		N96   
	BYTE	W96
// 026   ----------------------------------------
	BYTE	W96
// 027   ----------------------------------------
	BYTE	W96
// 028   ----------------------------------------
	BYTE	W96
// 029   ----------------------------------------
	BYTE		N96   
	BYTE	W96
// 030   ----------------------------------------
	BYTE	W96
// 031   ----------------------------------------
	BYTE	W96
// 032   ----------------------------------------
	BYTE	W96
// 033   ----------------------------------------
	BYTE		N96   
	BYTE	W96
// 034   ----------------------------------------
	BYTE	W96
// 035   ----------------------------------------
	BYTE	W96
// 036   ----------------------------------------
	BYTE	W96
// 037   ----------------------------------------
	BYTE		N96   
	BYTE	W96
// 038   ----------------------------------------
	BYTE	W96
// 039   ----------------------------------------
	BYTE	W96
// 040   ----------------------------------------
	BYTE	W96
// 041   ----------------------------------------
	BYTE		N96   
	BYTE	W96
// 042   ----------------------------------------
	BYTE	W96
// 043   ----------------------------------------
	BYTE	W96
// 044   ----------------------------------------
	BYTE	W96
// 045   ----------------------------------------
	BYTE		N96   
	BYTE	W96
// 046   ----------------------------------------
	BYTE	W96
// 047   ----------------------------------------
	BYTE		N96   
	BYTE	W96
// 048   ----------------------------------------
	BYTE	W96
// 049   ----------------------------------------
	BYTE		N96   
	BYTE	W96
// 050   ----------------------------------------
	BYTE	W96
// 051   ----------------------------------------
	BYTE		N96   
	BYTE	W96
// 052   ----------------------------------------
	BYTE	FINE

//**************** Track 8 (Midi-Chn.8) ****************//

LordOfADeadEmpire_Ablaze_8:
	BYTE	KEYSH   LordOfADeadEmpire_Ablaze_key+0
// 000   ----------------------------------------
	BYTE		VOICE   19
	BYTE		VOL     66*LordOfADeadEmpire_Ablaze_mvl/mxv
	BYTE	W24
	BYTE		N24     An3   v104
	BYTE	W24
	BYTE		N24   
	BYTE	W24
	BYTE		        As3 
	BYTE	W24
// 001   ----------------------------------------
LordOfADeadEmpire_Ablaze_8_001:
	BYTE		N48     An3   v104
	BYTE	W48
	BYTE		        Gn3 
	BYTE	W48
	BYTE	PEND
// 002   ----------------------------------------
LordOfADeadEmpire_Ablaze_8_002:
	BYTE	W24
	BYTE		N24     Gn3   v104
	BYTE	W24
	BYTE		        Cn4 
	BYTE	W24
	BYTE		        En3 
	BYTE	W24
	BYTE	PEND
// 003   ----------------------------------------
	BYTE		N48   
	BYTE	W48
	BYTE		        Dn3 
	BYTE	W48
// 004   ----------------------------------------
LordOfADeadEmpire_Ablaze_8_004:
	BYTE		N24     Gn3   v104
	BYTE	W24
	BYTE		        An3 
	BYTE	W24
	BYTE		        Dn3 
	BYTE	W24
	BYTE		N48     Gn3 
	BYTE	W24
	BYTE	PEND
// 005   ----------------------------------------
LordOfADeadEmpire_Ablaze_8_005:
	BYTE	W24
	BYTE		N24     An3   v104
	BYTE	W24
	BYTE		N36   
	BYTE	W48
	BYTE	PEND
// 006   ----------------------------------------
	BYTE		N24     Fn3 
	BYTE	W24
	BYTE		N24   
	BYTE	W24
	BYTE		        Bn3 
	BYTE	W24
	BYTE		        Dn4 
	BYTE	W24
// 007   ----------------------------------------
	BYTE		N48     Bn3 
	BYTE	W48
	BYTE		        Cs4 
	BYTE	W48
// 008   ----------------------------------------
	BYTE	W24
	BYTE		N24     An3 
	BYTE	W24
	BYTE		N24   
	BYTE	W24
	BYTE		        As3 
	BYTE	W24
// 009   ----------------------------------------
	BYTE	PATT
	 POIN2	LordOfADeadEmpire_Ablaze_8_001
// 010   ----------------------------------------
	BYTE	PATT
	 POIN2	LordOfADeadEmpire_Ablaze_8_002
// 011   ----------------------------------------
	BYTE		N48     En3   v104
	BYTE	W48
	BYTE		        Dn3 
	BYTE	W48
// 012   ----------------------------------------
	BYTE	PATT
	 POIN2	LordOfADeadEmpire_Ablaze_8_004
// 013   ----------------------------------------
	BYTE	PATT
	 POIN2	LordOfADeadEmpire_Ablaze_8_005
// 014   ----------------------------------------
	BYTE		N24     Gn3   v104
	BYTE	W24
	BYTE		        An3 
	BYTE	W24
	BYTE		        En4 
	BYTE	W24
	BYTE		        Fn4 
	BYTE	W24
// 015   ----------------------------------------
	BYTE		N48     En4 
	BYTE	W48
	BYTE		TIE     Dn4 
	BYTE	W48
// 016   ----------------------------------------
	BYTE	W96
// 017   ----------------------------------------
	BYTE	W96
	BYTE		EOT   
// 018   ----------------------------------------
	BYTE	W96
// 019   ----------------------------------------
	BYTE	W96
// 020   ----------------------------------------
	BYTE	W96
// 021   ----------------------------------------
LordOfADeadEmpire_Ablaze_8_021:
	BYTE	W18
	BYTE		N03     Ds3   v096
	BYTE	W03
	BYTE		        Fn3 
	BYTE	W03
	BYTE		N24     Fs3 
	BYTE	W24
	BYTE		        Fn3 
	BYTE	W24
	BYTE		        Ds3 
	BYTE	W24
	BYTE	PEND
// 022   ----------------------------------------
LordOfADeadEmpire_Ablaze_8_022:
	BYTE		N48     Ds3   v096
	BYTE	W48
	BYTE		N24     Cs3 
	BYTE	W24
	BYTE		        Gs2 
	BYTE	W24
	BYTE	PEND
// 023   ----------------------------------------
LordOfADeadEmpire_Ablaze_8_023:
	BYTE		N48     Bn2   v096
	BYTE	W48
	BYTE		        As2 
	BYTE	W48
	BYTE	PEND
// 024   ----------------------------------------
LordOfADeadEmpire_Ablaze_8_024:
	BYTE	W24
	BYTE		N24     Gs2   v096
	BYTE	W24
	BYTE		        As2 
	BYTE	W24
	BYTE		        Cs3 
	BYTE	W24
	BYTE	PEND
// 025   ----------------------------------------
LordOfADeadEmpire_Ablaze_8_025:
	BYTE		N48     Cs3   v096
	BYTE	W48
	BYTE		N72     Ds3 
	BYTE	W48
	BYTE	PEND
// 026   ----------------------------------------
LordOfADeadEmpire_Ablaze_8_026:
	BYTE	W24
	BYTE		N24     Bn2   v096
	BYTE	W24
	BYTE		        Dn3 
	BYTE	W24
	BYTE		        En3 
	BYTE	W24
	BYTE	PEND
// 027   ----------------------------------------
	BYTE		TIE     Fs3 
	BYTE	W96
// 028   ----------------------------------------
	BYTE	W96
	BYTE		EOT   
// 029   ----------------------------------------
	BYTE	PATT
	 POIN2	LordOfADeadEmpire_Ablaze_8_021
// 030   ----------------------------------------
	BYTE	PATT
	 POIN2	LordOfADeadEmpire_Ablaze_8_022
// 031   ----------------------------------------
	BYTE	PATT
	 POIN2	LordOfADeadEmpire_Ablaze_8_023
// 032   ----------------------------------------
	BYTE	PATT
	 POIN2	LordOfADeadEmpire_Ablaze_8_024
// 033   ----------------------------------------
	BYTE	PATT
	 POIN2	LordOfADeadEmpire_Ablaze_8_025
// 034   ----------------------------------------
	BYTE	PATT
	 POIN2	LordOfADeadEmpire_Ablaze_8_026
// 035   ----------------------------------------
	BYTE		TIE     Fs3   v096
	BYTE	W96
// 036   ----------------------------------------
	BYTE	W96
	BYTE		EOT   
// 037   ----------------------------------------
	BYTE	W96
// 038   ----------------------------------------
LordOfADeadEmpire_Ablaze_8_038:
	BYTE	W24
	BYTE		N24     Cs3   v096
	BYTE	W24
	BYTE		        An2 
	BYTE	W24
	BYTE		        En2 
	BYTE	W24
	BYTE	PEND
// 039   ----------------------------------------
	BYTE		N96     As2 
	BYTE	W96
// 040   ----------------------------------------
	BYTE		N48     Dn3 
	BYTE	W48
	BYTE		        Cs3 
	BYTE	W48
// 041   ----------------------------------------
	BYTE	W96
// 042   ----------------------------------------
	BYTE	PATT
	 POIN2	LordOfADeadEmpire_Ablaze_8_038
// 043   ----------------------------------------
	BYTE		N96     As2   v096
	BYTE	W96
// 044   ----------------------------------------
	BYTE		N48     Cs3 
	BYTE	W48
	BYTE		        Gs2 
	BYTE	W48
// 045   ----------------------------------------
LordOfADeadEmpire_Ablaze_8_045:
	BYTE		N48     Gs2   v096
	BYTE	W48
	BYTE		N96     Fs2 
	BYTE	W48
	BYTE	PEND
// 046   ----------------------------------------
LordOfADeadEmpire_Ablaze_8_046:
	BYTE	W48
	BYTE		N18     Ds2   v096
	BYTE	W18
	BYTE		        Fn2 
	BYTE	W18
	BYTE		N12     Fs2 
	BYTE	W12
	BYTE	PEND
// 047   ----------------------------------------
	BYTE		N48     Gs2 
	BYTE	W48
	BYTE		        Fs2 
	BYTE	W48
// 048   ----------------------------------------
	BYTE		        Fn2 
	BYTE	W48
	BYTE		        Cs2 
	BYTE	W48
// 049   ----------------------------------------
	BYTE	PATT
	 POIN2	LordOfADeadEmpire_Ablaze_8_045
// 050   ----------------------------------------
	BYTE	PATT
	 POIN2	LordOfADeadEmpire_Ablaze_8_046
// 051   ----------------------------------------
	BYTE		N48     Gs2   v096
	BYTE	W48
	BYTE		        Cs3 
	BYTE	W48
// 052   ----------------------------------------
	BYTE		N07     Fn3 
	BYTE	W07
	BYTE		N07   
	BYTE	W08
	BYTE		N09   
	BYTE	W09
	BYTE		N07   
	BYTE	W07
	BYTE		N07   
	BYTE	W08
	BYTE		N09   
	BYTE	W09
	BYTE		N07   
	BYTE	W07
	BYTE		N07   
	BYTE	W08
	BYTE		N09   
	BYTE	W09
	BYTE		N07   
	BYTE	W07
	BYTE		N07   
	BYTE	W08
	BYTE		N09   
	BYTE	W09
// 053   ----------------------------------------
	BYTE	FINE

//**************** Track 9 (Midi-Chn.9) ****************//

LordOfADeadEmpire_Ablaze_9:
	BYTE	KEYSH   LordOfADeadEmpire_Ablaze_key+0
// 000   ----------------------------------------
	BYTE		VOICE   52
	BYTE		VOL     62*LordOfADeadEmpire_Ablaze_mvl/mxv
	BYTE		N96     An4   v124
	BYTE	W96
// 001   ----------------------------------------
	BYTE		        Gn4 
	BYTE	W96
// 002   ----------------------------------------
	BYTE		        Cn5 
	BYTE	W96
// 003   ----------------------------------------
	BYTE		        As4 
	BYTE	W96
// 004   ----------------------------------------
	BYTE		        An4 
	BYTE	W96
// 005   ----------------------------------------
	BYTE		        Gn4 
	BYTE	W96
// 006   ----------------------------------------
	BYTE		        Cn5 
	BYTE	W96
// 007   ----------------------------------------
	BYTE		        As4 
	BYTE	W96
// 008   ----------------------------------------
	BYTE	W24
	BYTE		N24     An4   v104
	BYTE	W24
	BYTE		N24   
	BYTE	W24
	BYTE		        As4 
	BYTE	W24
// 009   ----------------------------------------
LordOfADeadEmpire_Ablaze_9_009:
	BYTE		N48     An4   v104
	BYTE	W48
	BYTE		        Gn4 
	BYTE	W48
	BYTE	PEND
// 010   ----------------------------------------
	BYTE		N96     Cn5 
	BYTE	W96
// 011   ----------------------------------------
	BYTE		        As4 
	BYTE	W96
// 012   ----------------------------------------
	BYTE	PATT
	 POIN2	LordOfADeadEmpire_Ablaze_9_009
// 013   ----------------------------------------
	BYTE		N48     Fn4   v104
	BYTE	W48
	BYTE		        Dn4 
	BYTE	W48
// 014   ----------------------------------------
	BYTE		N96     An4 
	BYTE	W96
// 015   ----------------------------------------
	BYTE		TIE   
	BYTE	W24
	BYTE		N24     An3 
	BYTE	W24
	BYTE		N36     As3 
	BYTE	W48
// 016   ----------------------------------------
LordOfADeadEmpire_Ablaze_9_016:
	BYTE		N24     An3   v104
	BYTE	W24
	BYTE		        As3 
	BYTE	W24
	BYTE		N36     Cn4 
	BYTE	W48
	BYTE	PEND
// 017   ----------------------------------------
	BYTE		N24     As3 
	BYTE	W24
	BYTE		        Cn4 
	BYTE	W24
	BYTE		        Dn4 
	BYTE	W24
	BYTE		        Ds4 
	BYTE	W24
	BYTE		EOT     An4 
// 018   ----------------------------------------
	BYTE		N24   
	BYTE	W24
	BYTE		        An3 
	BYTE	W24
	BYTE		N36     As3 
	BYTE	W48
// 019   ----------------------------------------
	BYTE	PATT
	 POIN2	LordOfADeadEmpire_Ablaze_9_016
// 020   ----------------------------------------
	BYTE		N24     Gs3   v104
	BYTE	W24
	BYTE		        As3 
	BYTE	W24
	BYTE		        Cn4 
	BYTE	W24
	BYTE		        Dn4 
	BYTE	W24
// 021   ----------------------------------------
	BYTE		N96     An4 
	BYTE	W96
// 022   ----------------------------------------
	BYTE	W96
// 023   ----------------------------------------
	BYTE	W96
// 024   ----------------------------------------
LordOfADeadEmpire_Ablaze_9_024:
	BYTE	W24
	BYTE		N24     Gs3   v104
	BYTE	W24
	BYTE		        As3 
	BYTE	W24
	BYTE		        Cs4 
	BYTE	W24
	BYTE	PEND
// 025   ----------------------------------------
LordOfADeadEmpire_Ablaze_9_025:
	BYTE		N48     Cs4   v104
	BYTE	W48
	BYTE		N72     Ds4 
	BYTE	W48
	BYTE	PEND
// 026   ----------------------------------------
LordOfADeadEmpire_Ablaze_9_026:
	BYTE	W24
	BYTE		N24     Bn3   v104
	BYTE	W24
	BYTE		        Cs4 
	BYTE	W24
	BYTE		        Ds4 
	BYTE	W24
	BYTE	PEND
// 027   ----------------------------------------
LordOfADeadEmpire_Ablaze_9_027:
	BYTE		N48     Cs4   v104
	BYTE	W48
	BYTE		        Fn4 
	BYTE	W48
	BYTE	PEND
// 028   ----------------------------------------
LordOfADeadEmpire_Ablaze_9_028:
	BYTE		N48     Cn4   v104
	BYTE	W48
	BYTE		        Dn4 
	BYTE	W48
	BYTE	PEND
// 029   ----------------------------------------
	BYTE	W96
// 030   ----------------------------------------
	BYTE	W96
// 031   ----------------------------------------
	BYTE	W96
// 032   ----------------------------------------
	BYTE	PATT
	 POIN2	LordOfADeadEmpire_Ablaze_9_024
// 033   ----------------------------------------
	BYTE	PATT
	 POIN2	LordOfADeadEmpire_Ablaze_9_025
// 034   ----------------------------------------
	BYTE	PATT
	 POIN2	LordOfADeadEmpire_Ablaze_9_026
// 035   ----------------------------------------
	BYTE	PATT
	 POIN2	LordOfADeadEmpire_Ablaze_9_027
// 036   ----------------------------------------
	BYTE	PATT
	 POIN2	LordOfADeadEmpire_Ablaze_9_028
// 037   ----------------------------------------
LordOfADeadEmpire_Ablaze_9_037:
	BYTE	W24
	BYTE		N24     Cs4   v104
	BYTE	W24
	BYTE		        Cn4 
	BYTE	W24
	BYTE		        Cs4 
	BYTE	W24
	BYTE	PEND
// 038   ----------------------------------------
	BYTE		N96     An3 
	BYTE	W96
// 039   ----------------------------------------
	BYTE	PATT
	 POIN2	LordOfADeadEmpire_Ablaze_9_037
// 040   ----------------------------------------
	BYTE		N48     Fn4   v104
	BYTE	W48
	BYTE		        Ds4 
	BYTE	W48
// 041   ----------------------------------------
	BYTE	PATT
	 POIN2	LordOfADeadEmpire_Ablaze_9_037
// 042   ----------------------------------------
	BYTE		N96     An3   v104
	BYTE	W96
// 043   ----------------------------------------
	BYTE	PATT
	 POIN2	LordOfADeadEmpire_Ablaze_9_037
// 044   ----------------------------------------
	BYTE		N48     Fs4   v104
	BYTE	W48
	BYTE		        Fn4 
	BYTE	W48
// 045   ----------------------------------------
LordOfADeadEmpire_Ablaze_9_045:
	BYTE		N48     Fn4   v104
	BYTE	W48
	BYTE		TIE     Ds4 
	BYTE	W48
	BYTE	PEND
// 046   ----------------------------------------
	BYTE	W72
	BYTE		EOT   
	BYTE	W24
// 047   ----------------------------------------
	BYTE	PATT
	 POIN2	LordOfADeadEmpire_Ablaze_9_045
// 048   ----------------------------------------
	BYTE	W72
	BYTE		EOT     Ds4 
	BYTE		N24     Ds4   v104
	BYTE	W24
// 049   ----------------------------------------
	BYTE	PATT
	 POIN2	LordOfADeadEmpire_Ablaze_9_045
// 050   ----------------------------------------
	BYTE	W72
	BYTE		EOT     Ds4 
	BYTE		N24     Ds4   v104
	BYTE	W24
// 051   ----------------------------------------
	BYTE		N96     Fn4 
	BYTE	W96
// 052   ----------------------------------------
	BYTE		        Dn4 
	BYTE	W96
// 053   ----------------------------------------
	BYTE	FINE

//**************** Track 10 (Midi-Chn.11) ****************//

LordOfADeadEmpire_Ablaze_10:
	BYTE	KEYSH   LordOfADeadEmpire_Ablaze_key+0
// 000   ----------------------------------------
	BYTE		VOICE   14
	BYTE		VOL     66*LordOfADeadEmpire_Ablaze_mvl/mxv
	BYTE		N96     Dn4   v124
	BYTE	W96
// 001   ----------------------------------------
	BYTE		        Cs4 
	BYTE	W96
// 002   ----------------------------------------
	BYTE		        Cn4 
	BYTE	W96
// 003   ----------------------------------------
	BYTE		        Bn3 
	BYTE	W96
// 004   ----------------------------------------
	BYTE		        As3 
	BYTE	W96
// 005   ----------------------------------------
	BYTE		        An3 
	BYTE	W96
// 006   ----------------------------------------
	BYTE		        Gs3 
	BYTE	W96
// 007   ----------------------------------------
	BYTE		        An3 
	BYTE	W96
// 008   ----------------------------------------
	BYTE		        Dn4 
	BYTE	W96
// 009   ----------------------------------------
	BYTE		        Cs4 
	BYTE	W96
// 010   ----------------------------------------
	BYTE		        En4 
	BYTE	W96
// 011   ----------------------------------------
	BYTE		        Dn4 
	BYTE	W96
// 012   ----------------------------------------
	BYTE		N96   
	BYTE	W96
// 013   ----------------------------------------
	BYTE		        Cs4 
	BYTE	W96
// 014   ----------------------------------------
	BYTE		        En4 
	BYTE	W96
// 015   ----------------------------------------
	BYTE		N24     Dn4 
	BYTE	W24
	BYTE		        An3 
	BYTE	W24
	BYTE		        As3 
	BYTE	W48
// 016   ----------------------------------------
	BYTE		        An3 
	BYTE	W24
	BYTE		        As3 
	BYTE	W24
	BYTE		N48     Cn4 
	BYTE	W48
// 017   ----------------------------------------
	BYTE		N24     As3 
	BYTE	W24
	BYTE		        Cn4 
	BYTE	W24
	BYTE		        Dn4 
	BYTE	W24
	BYTE		        Ds4 
	BYTE	W24
// 018   ----------------------------------------
	BYTE	W24
	BYTE		        An3 
	BYTE	W24
	BYTE		        As3 
	BYTE	W48
// 019   ----------------------------------------
	BYTE		        An3 
	BYTE	W24
	BYTE		        As3 
	BYTE	W24
	BYTE		        Cn4 
	BYTE	W48
// 020   ----------------------------------------
	BYTE		        Gs3 
	BYTE	W24
	BYTE		        As3 
	BYTE	W24
	BYTE		        Cn4 
	BYTE	W24
	BYTE		        Dn4 
	BYTE	W24
// 021   ----------------------------------------
	BYTE		N96     Ds4 
	BYTE	W96
// 022   ----------------------------------------
	BYTE		        Dn4 
	BYTE	W96
// 023   ----------------------------------------
	BYTE		        Cs4 
	BYTE	W96
// 024   ----------------------------------------
	BYTE		        Cn4 
	BYTE	W96
// 025   ----------------------------------------
	BYTE		        Bn3 
	BYTE	W96
// 026   ----------------------------------------
	BYTE		        An3 
	BYTE	W96
// 027   ----------------------------------------
	BYTE		        Gs3 
	BYTE	W96
// 028   ----------------------------------------
	BYTE	W96
// 029   ----------------------------------------
	BYTE		        Ds4 
	BYTE	W96
// 030   ----------------------------------------
	BYTE		        Dn4 
	BYTE	W96
// 031   ----------------------------------------
	BYTE		        Cs4 
	BYTE	W96
// 032   ----------------------------------------
	BYTE		        Cn4 
	BYTE	W96
// 033   ----------------------------------------
	BYTE		        Bn3 
	BYTE	W96
// 034   ----------------------------------------
	BYTE		        An3 
	BYTE	W96
// 035   ----------------------------------------
	BYTE		N48     Gs3 
	BYTE	W48
	BYTE		        Bn3 
	BYTE	W48
// 036   ----------------------------------------
	BYTE		        Ds4 
	BYTE	W48
	BYTE		        Dn4 
	BYTE	W48
// 037   ----------------------------------------
	BYTE		N96     Fs3 
	BYTE	W96
// 038   ----------------------------------------
	BYTE		        Fn3 
	BYTE	W96
// 039   ----------------------------------------
	BYTE		        Fs3 
	BYTE	W96
// 040   ----------------------------------------
	BYTE		N48     As3 
	BYTE	W48
	BYTE		        An3 
	BYTE	W48
// 041   ----------------------------------------
	BYTE		N96     Fs3 
	BYTE	W96
// 042   ----------------------------------------
	BYTE		        Fn3 
	BYTE	W96
// 043   ----------------------------------------
	BYTE		        Fs3 
	BYTE	W96
// 044   ----------------------------------------
	BYTE		N48     As3 
	BYTE	W48
	BYTE		        Gs3 
	BYTE	W48
// 045   ----------------------------------------
	BYTE		N24   
	BYTE	W48
	BYTE		N48     Fs3 
	BYTE	W48
// 046   ----------------------------------------
	BYTE	W48
	BYTE		N24   
	BYTE	W48
// 047   ----------------------------------------
	BYTE	W48
	BYTE		N24   
	BYTE	W48
// 048   ----------------------------------------
	BYTE	W48
	BYTE		N24   
	BYTE	W48
// 049   ----------------------------------------
	BYTE	W48
	BYTE		N48     Fn3 
	BYTE	W48
// 050   ----------------------------------------
	BYTE	W48
	BYTE		N24   
	BYTE	W48
// 051   ----------------------------------------
	BYTE	W48
	BYTE		N24   
	BYTE	W48
// 052   ----------------------------------------
	BYTE	W48
	BYTE		N24   
	BYTE	W24
	BYTE	FINE

//******************************************************//
	ALIGN 4

LordOfADeadEmpire_Ablaze:
	BYTE	10	// NumTrks
	BYTE	0	// NumBlks
	BYTE	LordOfADeadEmpire_Ablaze_pri	// Priority
	BYTE	LordOfADeadEmpire_Ablaze_rev	// Reverb.

	POIN2	LordOfADeadEmpire_Ablaze_grp

	POIN2	LordOfADeadEmpire_Ablaze_1
	POIN2	LordOfADeadEmpire_Ablaze_2
	POIN2	LordOfADeadEmpire_Ablaze_3
	POIN2	LordOfADeadEmpire_Ablaze_4
	POIN2	LordOfADeadEmpire_Ablaze_5
	POIN2	LordOfADeadEmpire_Ablaze_6
	POIN2	LordOfADeadEmpire_Ablaze_7
	POIN2	LordOfADeadEmpire_Ablaze_8
	POIN2	LordOfADeadEmpire_Ablaze_9
	POIN2	LordOfADeadEmpire_Ablaze_10

	
