//Event file generated from Sappy .s format.
	#include "MPlayDef.event"

	#define	MilaIdolBGM_grp  voicegroup000
	#define	MilaIdolBGM_pri  0
	#define	MilaIdolBGM_rev  0
	#define	MilaIdolBGM_mvl  85
	#define	MilaIdolBGM_key  0
	#define	MilaIdolBGM_tbs  1
	#define	MilaIdolBGM_exg  0
	#define	MilaIdolBGM_cmp  1

	// .rodata
	//	MilaIdolBGM
	ALIGN 4

//**************** Track 1 (Midi-Chn.1) ****************//

MilaIdolBGM_1:
	BYTE	KEYSH   MilaIdolBGM_key+0
MilaIdolBGM_1_B1:
// 000   ----------------------------------------
	BYTE	TEMPO   96*MilaIdolBGM_tbs/2
	BYTE		VOICE   46
	BYTE		PAN     c_v-17
	BYTE		VOL     63*MilaIdolBGM_mvl/mxv
	BYTE		N12     Dn3   v076
	BYTE	W12
	BYTE		        Fs3 
	BYTE	W12
	BYTE		        An3 
	BYTE	W12
	BYTE		        Dn4 
	BYTE	W12
	BYTE		        Fs4 
	BYTE	W12
	BYTE		        An4 
	BYTE	W12
// 001   ----------------------------------------
	BYTE		        Ds3 
	BYTE	W12
	BYTE		        Fs3 
	BYTE	W12
	BYTE		        An3 
	BYTE	W12
	BYTE		        Cn4 
	BYTE	W12
	BYTE		        Ds4 
	BYTE	W12
	BYTE		        An4 
	BYTE	W12
// 002   ----------------------------------------
MilaIdolBGM_1_002:
	BYTE		N12     En3   v076
	BYTE	W12
	BYTE		        Gn3 
	BYTE	W12
	BYTE		        Bn3 
	BYTE	W12
	BYTE		        En4 
	BYTE	W12
	BYTE		        Gn4 
	BYTE	W12
	BYTE		        Bn4 
	BYTE	W12
	BYTE	PEND
// 003   ----------------------------------------
	BYTE	PATT
	 POIN2	MilaIdolBGM_1_002
// 004   ----------------------------------------
	BYTE	PATT
	 POIN2	MilaIdolBGM_1_002
// 005   ----------------------------------------
	BYTE		N12     Fn3   v076
	BYTE	W12
	BYTE		        Gs3 
	BYTE	W12
	BYTE		        Bn3 
	BYTE	W12
	BYTE		        Dn4 
	BYTE	W12
	BYTE		        Fn4 
	BYTE	W12
	BYTE		        Bn4 
	BYTE	W12
// 006   ----------------------------------------
MilaIdolBGM_1_006:
	BYTE		N12     Fs3   v076
	BYTE	W12
	BYTE		        An3 
	BYTE	W12
	BYTE		        Cs4 
	BYTE	W12
	BYTE		        Fs4 
	BYTE	W12
	BYTE		        An4 
	BYTE	W12
	BYTE		        Cs5 
	BYTE	W12
	BYTE	PEND
// 007   ----------------------------------------
	BYTE	PATT
	 POIN2	MilaIdolBGM_1_006
// 008   ----------------------------------------
	BYTE	PATT
	 POIN2	MilaIdolBGM_1_006
// 009   ----------------------------------------
	BYTE		N12     Bn2   v076
	BYTE	W12
	BYTE		        Fs3 
	BYTE	W12
	BYTE		        Bn3 
	BYTE	W12
	BYTE		        Ds4 
	BYTE	W12
	BYTE		        Fs4 
	BYTE	W12
	BYTE		        An4 
	BYTE	W12
// 010   ----------------------------------------
	BYTE	PATT
	 POIN2	MilaIdolBGM_1_002
// 011   ----------------------------------------
	BYTE	PATT
	 POIN2	MilaIdolBGM_1_002
// 012   ----------------------------------------
	BYTE	PATT
	 POIN2	MilaIdolBGM_1_002
// 013   ----------------------------------------
	BYTE		N12     An2   v076
	BYTE	W12
	BYTE		        En3 
	BYTE	W12
	BYTE		        Gn3 
	BYTE	W12
	BYTE		        An3 
	BYTE	W12
	BYTE		        Cs4 
	BYTE	W12
	BYTE		        En4 
	BYTE	W12
// 014   ----------------------------------------
MilaIdolBGM_1_014:
	BYTE		N12     Dn3   v076
	BYTE	W12
	BYTE		        Fs3 
	BYTE	W12
	BYTE		        An3 
	BYTE	W12
	BYTE		        Dn4 
	BYTE	W12
	BYTE		        Fs4 
	BYTE	W12
	BYTE		        An4 
	BYTE	W12
	BYTE	PEND
// 015   ----------------------------------------
	BYTE	PATT
	 POIN2	MilaIdolBGM_1_014
	BYTE	GoTo
	 POIN2	MilaIdolBGM_1_B1
MilaIdolBGM_1_B2:
// 016   ----------------------------------------
	BYTE	FINE

//**************** Track 2 (Midi-Chn.3) ****************//

MilaIdolBGM_2:
	BYTE	KEYSH   MilaIdolBGM_key+0
MilaIdolBGM_2_B1:
// 000   ----------------------------------------
	BYTE		VOICE   52
	BYTE		VOL     67*MilaIdolBGM_mvl/mxv
	BYTE		N72     Fs3   v056
	BYTE	W72
// 001   ----------------------------------------
	BYTE		        Cn3 
	BYTE		N72     Fs3 
	BYTE	W72
// 002   ----------------------------------------
	BYTE		        Bn2 
	BYTE		N72     Fs3 
	BYTE	W72
// 003   ----------------------------------------
	BYTE		        Bn2   v064
	BYTE		N72     En3   v056
	BYTE	W72
// 004   ----------------------------------------
	BYTE		        Gn3 
	BYTE	W24
	BYTE		N24     Bn2 
	BYTE	W24
	BYTE		        Cs3 
	BYTE	W24
// 005   ----------------------------------------
	BYTE		        Fn3 
	BYTE		N72     Bn3 
	BYTE	W24
	BYTE		N24     Gs3 
	BYTE	W24
	BYTE		        Cs4 
	BYTE	W24
// 006   ----------------------------------------
	BYTE		N72     Fs3 
	BYTE		N72     Bn3 
	BYTE	W72
// 007   ----------------------------------------
	BYTE		        Fs3 
	BYTE		N48     An3 
	BYTE	W24
	BYTE		N24     Cs3 
	BYTE	W24
	BYTE		        En3 
	BYTE	W24
// 008   ----------------------------------------
	BYTE		N24   
	BYTE		N24     An3 
	BYTE	W24
	BYTE		        Fn3 
	BYTE		N24     Gs3 
	BYTE	W24
	BYTE		        Fs3 
	BYTE		N24     An3 
	BYTE	W24
// 009   ----------------------------------------
	BYTE		        Bn2 
	BYTE		N24     Cs4 
	BYTE	W24
	BYTE		        Cs3 
	BYTE		N24     Bn3 
	BYTE	W24
	BYTE		        Ds3 
	BYTE		N24     Fs3 
	BYTE	W24
// 010   ----------------------------------------
	BYTE		N72   
	BYTE		N72     An3 
	BYTE	W72
// 011   ----------------------------------------
	BYTE		N48     En3 
	BYTE		N72     Gn3 
	BYTE	W24
	BYTE		N24     Bn2 
	BYTE	W24
	BYTE		        Cs3 
	BYTE	W24
// 012   ----------------------------------------
	BYTE		N72     Fs3 
	BYTE	W72
// 013   ----------------------------------------
	BYTE		N48     Cs3 
	BYTE		N48     Fs3 
	BYTE	W48
	BYTE		N96     Cs3 
	BYTE		N48     En3 
	BYTE	W24
// 014   ----------------------------------------
	BYTE	W24
	BYTE		N48   
	BYTE	W48
// 015   ----------------------------------------
	BYTE		N72     Dn3 
	BYTE	W72
	BYTE	GoTo
	 POIN2	MilaIdolBGM_2_B1
MilaIdolBGM_2_B2:
// 016   ----------------------------------------
	BYTE	FINE

//**************** Track 3 (Midi-Chn.4) ****************//

MilaIdolBGM_3:
	BYTE	KEYSH   MilaIdolBGM_key+0
MilaIdolBGM_3_B1:
// 000   ----------------------------------------
	BYTE		VOICE   75
	BYTE		PAN     c_v+18
	BYTE		VOL     63*MilaIdolBGM_mvl/mxv
	BYTE		N12     Dn3   v060
	BYTE	W12
	BYTE		        Fs3 
	BYTE	W12
	BYTE		        An3 
	BYTE	W12
	BYTE		        Dn4 
	BYTE	W12
	BYTE		        Fs4 
	BYTE	W12
	BYTE		        An4 
	BYTE	W12
// 001   ----------------------------------------
	BYTE		        Ds3 
	BYTE	W12
	BYTE		        Fs3 
	BYTE	W12
	BYTE		        An3 
	BYTE	W12
	BYTE		        Cn4 
	BYTE	W12
	BYTE		        Ds4 
	BYTE	W12
	BYTE		        An4 
	BYTE	W12
// 002   ----------------------------------------
MilaIdolBGM_3_002:
	BYTE		N12     En3   v060
	BYTE	W12
	BYTE		        Gn3 
	BYTE	W12
	BYTE		        Bn3 
	BYTE	W12
	BYTE		        En4 
	BYTE	W12
	BYTE		        Gn4 
	BYTE	W12
	BYTE		        Bn4 
	BYTE	W12
	BYTE	PEND
// 003   ----------------------------------------
	BYTE	PATT
	 POIN2	MilaIdolBGM_3_002
// 004   ----------------------------------------
	BYTE	PATT
	 POIN2	MilaIdolBGM_3_002
// 005   ----------------------------------------
	BYTE		N12     Fn3   v060
	BYTE	W12
	BYTE		        Gs3 
	BYTE	W12
	BYTE		        Bn3 
	BYTE	W12
	BYTE		        Dn4 
	BYTE	W12
	BYTE		        Fn4 
	BYTE	W12
	BYTE		        Bn4 
	BYTE	W12
// 006   ----------------------------------------
MilaIdolBGM_3_006:
	BYTE		N12     Fs3   v060
	BYTE	W12
	BYTE		        An3 
	BYTE	W12
	BYTE		        Cs4 
	BYTE	W12
	BYTE		        Fs4 
	BYTE	W12
	BYTE		        An4 
	BYTE	W12
	BYTE		        Cs5 
	BYTE	W12
	BYTE	PEND
// 007   ----------------------------------------
	BYTE	PATT
	 POIN2	MilaIdolBGM_3_006
// 008   ----------------------------------------
	BYTE	PATT
	 POIN2	MilaIdolBGM_3_006
// 009   ----------------------------------------
	BYTE		N12     Bn2   v060
	BYTE	W12
	BYTE		        Fs3 
	BYTE	W12
	BYTE		        Bn3 
	BYTE	W12
	BYTE		        Ds4 
	BYTE	W12
	BYTE		        Fs4 
	BYTE	W12
	BYTE		        An4 
	BYTE	W12
// 010   ----------------------------------------
	BYTE	PATT
	 POIN2	MilaIdolBGM_3_002
// 011   ----------------------------------------
	BYTE	PATT
	 POIN2	MilaIdolBGM_3_002
// 012   ----------------------------------------
	BYTE	PATT
	 POIN2	MilaIdolBGM_3_002
// 013   ----------------------------------------
	BYTE		N12     An2   v060
	BYTE	W12
	BYTE		        En3 
	BYTE	W12
	BYTE		        Gn3 
	BYTE	W12
	BYTE		        An3 
	BYTE	W12
	BYTE		        Cs4 
	BYTE	W12
	BYTE		        En4 
	BYTE	W12
// 014   ----------------------------------------
MilaIdolBGM_3_014:
	BYTE		N12     Dn3   v060
	BYTE	W12
	BYTE		        Fs3 
	BYTE	W12
	BYTE		        An3 
	BYTE	W12
	BYTE		        Dn4 
	BYTE	W12
	BYTE		        Fs4 
	BYTE	W12
	BYTE		        An4 
	BYTE	W12
	BYTE	PEND
// 015   ----------------------------------------
	BYTE	PATT
	 POIN2	MilaIdolBGM_3_014
	BYTE	GoTo
	 POIN2	MilaIdolBGM_3_B1
MilaIdolBGM_3_B2:
// 016   ----------------------------------------
	BYTE	FINE

//**************** Track 4 (Midi-Chn.5) ****************//

MilaIdolBGM_4:
	BYTE	KEYSH   MilaIdolBGM_key+0
MilaIdolBGM_4_B1:
// 000   ----------------------------------------
	BYTE		VOICE   76
	BYTE		VOL     59*MilaIdolBGM_mvl/mxv
	BYTE	W12
	BYTE		N12     Dn3   v068
	BYTE	W12
	BYTE		        Fs3 
	BYTE	W12
	BYTE		        An3 
	BYTE	W12
	BYTE		        Dn4 
	BYTE	W12
	BYTE		        Fs4 
	BYTE	W12
// 001   ----------------------------------------
	BYTE		        An4 
	BYTE	W12
	BYTE		        Ds3 
	BYTE	W12
	BYTE		        Fs3 
	BYTE	W12
	BYTE		        An3 
	BYTE	W12
	BYTE		        Cn4 
	BYTE	W12
	BYTE		        Ds4 
	BYTE	W12
// 002   ----------------------------------------
MilaIdolBGM_4_002:
	BYTE		N12     An4   v068
	BYTE	W12
	BYTE		        En3 
	BYTE	W12
	BYTE		        Gn3 
	BYTE	W12
	BYTE		        Bn3 
	BYTE	W12
	BYTE		        En4 
	BYTE	W12
	BYTE		        Gn4 
	BYTE	W12
	BYTE	PEND
// 003   ----------------------------------------
MilaIdolBGM_4_003:
	BYTE		N12     Bn4   v068
	BYTE	W12
	BYTE		        En3 
	BYTE	W12
	BYTE		        Gn3 
	BYTE	W12
	BYTE		        Bn3 
	BYTE	W12
	BYTE		        En4 
	BYTE	W12
	BYTE		        Gn4 
	BYTE	W12
	BYTE	PEND
// 004   ----------------------------------------
	BYTE	PATT
	 POIN2	MilaIdolBGM_4_003
// 005   ----------------------------------------
	BYTE		N12     Bn4   v068
	BYTE	W12
	BYTE		        Fn3 
	BYTE	W12
	BYTE		        Gs3 
	BYTE	W12
	BYTE		        Bn3 
	BYTE	W12
	BYTE		        Dn4 
	BYTE	W12
	BYTE		        Fn4 
	BYTE	W12
// 006   ----------------------------------------
	BYTE		        Bn4 
	BYTE	W12
	BYTE		        Fs3 
	BYTE	W12
	BYTE		        An3 
	BYTE	W12
	BYTE		        Cs4 
	BYTE	W12
	BYTE		        Fs4 
	BYTE	W12
	BYTE		        An4 
	BYTE	W12
// 007   ----------------------------------------
MilaIdolBGM_4_007:
	BYTE		N12     Cs5   v068
	BYTE	W12
	BYTE		        Fs3 
	BYTE	W12
	BYTE		        An3 
	BYTE	W12
	BYTE		        Cs4 
	BYTE	W12
	BYTE		        Fs4 
	BYTE	W12
	BYTE		        An4 
	BYTE	W12
	BYTE	PEND
// 008   ----------------------------------------
	BYTE	PATT
	 POIN2	MilaIdolBGM_4_007
// 009   ----------------------------------------
	BYTE		N12     Cs5   v068
	BYTE	W12
	BYTE		        Bn2 
	BYTE	W12
	BYTE		        Fs3 
	BYTE	W12
	BYTE		        Bn3 
	BYTE	W12
	BYTE		        Ds4 
	BYTE	W12
	BYTE		        Fs4 
	BYTE	W12
// 010   ----------------------------------------
	BYTE	PATT
	 POIN2	MilaIdolBGM_4_002
// 011   ----------------------------------------
	BYTE	PATT
	 POIN2	MilaIdolBGM_4_003
// 012   ----------------------------------------
	BYTE	PATT
	 POIN2	MilaIdolBGM_4_003
// 013   ----------------------------------------
	BYTE		N12     Bn4   v068
	BYTE	W12
	BYTE		        An2 
	BYTE	W12
	BYTE		        En3 
	BYTE	W12
	BYTE		        Gn3 
	BYTE	W12
	BYTE		        An3 
	BYTE	W12
	BYTE		        Cs4 
	BYTE	W12
// 014   ----------------------------------------
	BYTE		        En4 
	BYTE	W12
	BYTE		        Dn3 
	BYTE	W12
	BYTE		        Fs3 
	BYTE	W12
	BYTE		        An3 
	BYTE	W12
	BYTE		        Dn4 
	BYTE	W12
	BYTE		        Fs4 
	BYTE	W12
// 015   ----------------------------------------
	BYTE		        An4 
	BYTE	W12
	BYTE		        Dn3 
	BYTE	W12
	BYTE		        Fs3 
	BYTE	W12
	BYTE		        An3 
	BYTE	W12
	BYTE		        Dn4 
	BYTE	W12
	BYTE		        Fs4 
	BYTE	W12
	BYTE	GoTo
	 POIN2	MilaIdolBGM_4_B1
MilaIdolBGM_4_B2:
// 016   ----------------------------------------
	BYTE	FINE

//******************************************************//
	ALIGN 4

MilaIdolBGM:
	BYTE	4	// NumTrks
	BYTE	0	// NumBlks
	BYTE	MilaIdolBGM_pri	// Priority
	BYTE	MilaIdolBGM_rev	// Reverb.

	POIN2	MilaIdolBGM_grp

	POIN2	MilaIdolBGM_1
	POIN2	MilaIdolBGM_2
	POIN2	MilaIdolBGM_3
	POIN2	MilaIdolBGM_4

	
