//Event file generated from Sappy .s format.
	#include "MPlayDef.event"

	#define	Victory_A_Insertable_grp  voicegroup000
	#define	Victory_A_Insertable_pri  0
	#define	Victory_A_Insertable_rev  0
	#define	Victory_A_Insertable_mvl  85
	#define	Victory_A_Insertable_key  0
	#define	Victory_A_Insertable_tbs  1
	#define	Victory_A_Insertable_exg  0
	#define	Victory_A_Insertable_cmp  1

	// .rodata
	//	Victory_A_Insertable
	ALIGN 4

//**************** Track 1 (Midi-Chn.1) ****************//

Victory_A_Insertable_1:
	BYTE	KEYSH   Victory_A_Insertable_key+0
Victory_A_Insertable_1_B1:
// 000   ----------------------------------------
	BYTE	TEMPO   113*Victory_A_Insertable_tbs/2
	BYTE		VOICE   48
	BYTE		VOL     85*Victory_A_Insertable_mvl/mxv
	BYTE		PAN     c_v-18
	BYTE		N19     Ds3   v120
	BYTE	W24
	BYTE		N44     Ds4   v100
	BYTE	W48
	BYTE		N03     Cs4   v120
	BYTE	W04
	BYTE		        Cs4   v072
	BYTE	W04
	BYTE		        Cn4   v112
	BYTE	W04
	BYTE		        Cn4   v060
	BYTE	W04
	BYTE		        Cs4   v127
	BYTE	W04
	BYTE		        Cs4   v084
	BYTE	W04
// 001   ----------------------------------------
	BYTE		N90     Ds4   v108
	BYTE	W92
	BYTE		N03     Ds4   v076
	BYTE	W04
// 002   ----------------------------------------
	BYTE		N23     Ds3   v120
	BYTE	W24
	BYTE		N44     Ds4   v100
	BYTE	W48
	BYTE		N03     Cs4   v112
	BYTE	W04
	BYTE		        Cs4   v064
	BYTE	W04
	BYTE		        Cn4   v124
	BYTE	W04
	BYTE		        Cn4   v076
	BYTE	W04
	BYTE		        Cs4   v120
	BYTE	W04
	BYTE		        Cs4   v072
	BYTE	W04
// 003   ----------------------------------------
	BYTE		N23     Ds4   v100
	BYTE	W24
	BYTE		        Gs3   v124
	BYTE	W24
	BYTE		        Fn4   v100
	BYTE	W24
	BYTE		N36     Cs4   v120
	BYTE	W24
// 004   ----------------------------------------
	BYTE	W16
	BYTE		N03     Cn4   v108
	BYTE	W04
	BYTE		        Cs4   v124
	BYTE	W04
	BYTE		N92     Ds4   v092
	BYTE	W32
	BYTE	W01
	BYTE	W03
	BYTE	W03
	BYTE	W03
	BYTE	W03
	BYTE	W03
	BYTE	W03
	BYTE	W03
	BYTE	W03
	BYTE	W03
	BYTE	W03
	BYTE	W03
	BYTE	W03
	BYTE	W03
// 005   ----------------------------------------
	BYTE	W03
	BYTE	W03
	BYTE	W03
	BYTE	W03
	BYTE	W03
	BYTE	W03
	BYTE	W03
	BYTE	W01
	BYTE	W02
	BYTE		N23     Ds3   v108
	BYTE	W01
	BYTE	W03
	BYTE	W03
	BYTE	W03
	BYTE	W03
	BYTE	W03
	BYTE	W03
	BYTE	W03
	BYTE	W02
	BYTE		        Gs3   v112
	BYTE	W01
	BYTE	W03
	BYTE	W03
	BYTE	W03
	BYTE	W03
	BYTE	W03
	BYTE	W03
	BYTE	W03
	BYTE	W02
	BYTE		        As3   v104
	BYTE	W01
	BYTE	W03
	BYTE	W03
	BYTE	W02
	BYTE	W15
// 006   ----------------------------------------
	BYTE		N03     Cn4   v100
	BYTE	W08
	BYTE		        Cn4   v060
	BYTE	W08
	BYTE		N07     Cs4   v100
	BYTE	W08
	BYTE		N44     Ds4   v088
	BYTE	W48
	BYTE		N07   
	BYTE	W08
	BYTE		        Cs4   v092
	BYTE	W08
	BYTE		        Cn4   v088
	BYTE	W08
// 007   ----------------------------------------
	BYTE		N44     As3 
	BYTE	W24
	BYTE		N22     Fs3   v076
	BYTE	W11
	BYTE	W03
	BYTE	W03
	BYTE	W03
	BYTE	W03
	BYTE	W01
	BYTE		        Gs3   v084
	BYTE		N23     As3   v092
	BYTE	W02
	BYTE	W03
	BYTE	W03
	BYTE	W03
	BYTE	W03
	BYTE	W03
	BYTE	W03
	BYTE	W03
	BYTE	W01
	BYTE		N03     Gs3   v127
	BYTE		N03     Cn4 
	BYTE	W02
	BYTE	W02
	BYTE		        Gs3   v080
	BYTE		N03     Cn4 
	BYTE	W01
	BYTE	W03
	BYTE	W03
	BYTE	W03
	BYTE	W02
	BYTE		        As3   v127
	BYTE		N03     Cs4 
	BYTE	W01
	BYTE	W03
	BYTE		        As3   v080
	BYTE		N03     Cs4 
	BYTE	W04
// 008   ----------------------------------------
	BYTE		VOL     60*Victory_A_Insertable_mvl/mxv
	BYTE		N72     As3   v100
	BYTE		N72     Ds4 
	BYTE	W03
	BYTE		VOL     68*Victory_A_Insertable_mvl/mxv
	BYTE	W03
	BYTE		        76*Victory_A_Insertable_mvl/mxv
	BYTE	W03
	BYTE		        80*Victory_A_Insertable_mvl/mxv
	BYTE	W03
	BYTE		        84*Victory_A_Insertable_mvl/mxv
	BYTE	W03
	BYTE		        88*Victory_A_Insertable_mvl/mxv
	BYTE	W03
	BYTE		        92*Victory_A_Insertable_mvl/mxv
	BYTE	W03
	BYTE		        96*Victory_A_Insertable_mvl/mxv
	BYTE	W03
	BYTE		        98*Victory_A_Insertable_mvl/mxv
	BYTE	W03
	BYTE		        100*Victory_A_Insertable_mvl/mxv
	BYTE	W03
	BYTE	W03
	BYTE		        98*Victory_A_Insertable_mvl/mxv
	BYTE	W03
	BYTE	W03
	BYTE		        96*Victory_A_Insertable_mvl/mxv
	BYTE	W03
	BYTE	W03
	BYTE		        94*Victory_A_Insertable_mvl/mxv
	BYTE	W03
	BYTE		        92*Victory_A_Insertable_mvl/mxv
	BYTE	W03
	BYTE		        90*Victory_A_Insertable_mvl/mxv
	BYTE	W03
	BYTE		        86*Victory_A_Insertable_mvl/mxv
	BYTE	W03
	BYTE		        82*Victory_A_Insertable_mvl/mxv
	BYTE	W03
	BYTE		        78*Victory_A_Insertable_mvl/mxv
	BYTE	W03
	BYTE		        70*Victory_A_Insertable_mvl/mxv
	BYTE	W03
	BYTE		        62*Victory_A_Insertable_mvl/mxv
	BYTE	W03
	BYTE		        54*Victory_A_Insertable_mvl/mxv
	BYTE	W03
	BYTE	W03
	BYTE	W03
	BYTE	W02
	BYTE		VOICE   75
	BYTE		VOL     85*Victory_A_Insertable_mvl/mxv
	BYTE		N07     Gs4   v127
	BYTE	W01
	BYTE	W03
	BYTE	W02
	BYTE	W02
	BYTE		        Gn4   v088
	BYTE	W08
// 009   ----------------------------------------
	BYTE		N23     Fn4   v112
	BYTE	W01
	BYTE	W01
	BYTE	W01
	BYTE	W01
	BYTE	W01
	BYTE	W01
	BYTE	W01
	BYTE	W01
	BYTE	W01
	BYTE	W15
	BYTE		N44     Cs5   v127
	BYTE	W48
	BYTE		N07     As4 
	BYTE	W08
	BYTE		        Gs4   v124
	BYTE	W09
	BYTE		        Gn4   v112
	BYTE	W07
// 010   ----------------------------------------
	BYTE		N30     Ds5   v124
	BYTE	W32
	BYTE		N07     Ds5   v052
	BYTE	W02
	BYTE	W01
	BYTE	W01
	BYTE	W01
	BYTE	W01
	BYTE	W02
	BYTE		        Cn5   v084
	BYTE	W08
	BYTE		N15     Gs4   v100
	BYTE	W16
	BYTE		N07     Gs4   v060
	BYTE	W08
	BYTE		N15     Gs4   v124
	BYTE	W16
	BYTE		N06     Gn4   v100
	BYTE	W08
// 011   ----------------------------------------
	BYTE		N19     Fn4   v127
	BYTE	W20
	BYTE		N03     Fn4   v060
	BYTE	W04
	BYTE		N44     Fn5   v124
	BYTE	W44
	BYTE	W03
	BYTE		N07     Ds5   v127
	BYTE	W09
	BYTE		        Cs5   v116
	BYTE	W09
	BYTE		        As4   v112
	BYTE	W07
// 012   ----------------------------------------
	BYTE		N80     Cn5   v116
	BYTE	W84
	BYTE		N07     Cn5   v052
	BYTE	W12
// 013   ----------------------------------------
	BYTE		N23     Fn4   v112
	BYTE	W24
	BYTE		N44     Cs5   v127
	BYTE	W48
	BYTE		N07     As4 
	BYTE	W08
	BYTE		        Gs4   v124
	BYTE	W09
	BYTE		        Gn4   v112
	BYTE	W07
// 014   ----------------------------------------
	BYTE		N32     Ds5   v127
	BYTE	W36
	BYTE		N03     Ds5   v052
	BYTE	W04
	BYTE		N07     Cn5   v100
	BYTE	W08
	BYTE		N11     Gs5   v108
	BYTE	W12
	BYTE		        Gs5   v052
	BYTE	W12
	BYTE		VOICE   68
	BYTE		N15     Gs3   v120
	BYTE	W16
	BYTE		N06     Gn3   v100
	BYTE	W08
// 015   ----------------------------------------
	BYTE		N07     Fn3   v104
	BYTE	W09
	BYTE	W03
	BYTE		N03     Fn3   v060
	BYTE	W03
	BYTE	W06
	BYTE	W03
	BYTE		VOICE   68
	BYTE		N44     Fn3   v104
	BYTE	W03
	BYTE	W03
	BYTE	W06
	BYTE	W03
	BYTE	W06
	BYTE	W03
	BYTE	W03
	BYTE	W03
	BYTE	W03
	BYTE	W03
	BYTE	W03
	BYTE	W03
	BYTE	W03
	BYTE	W03
	BYTE		N07   
	BYTE	W03
	BYTE	W03
	BYTE	W02
	BYTE		        Gn3 
	BYTE	W01
	BYTE	W03
	BYTE	W03
	BYTE	W01
	BYTE		        Gs3 
	BYTE	W02
	BYTE	W03
	BYTE	W03
// 016   ----------------------------------------
	BYTE		N23     Gn3   v116
	BYTE	W06
	BYTE	W03
	BYTE	W03
	BYTE	W03
	BYTE	W03
	BYTE	W03
	BYTE	W03
	BYTE		N44     Ds4   v084
	BYTE	W03
	BYTE	W03
	BYTE	W03
	BYTE	W03
	BYTE	W03
	BYTE	W03
	BYTE	W03
	BYTE	W03
	BYTE	W03
	BYTE	W03
	BYTE	W03
	BYTE	W02
	BYTE	W03
	BYTE	W03
	BYTE	W02
	BYTE	W01
	BYTE	W02
	BYTE	W02
	BYTE		N22     As3   v096
	BYTE	W01
	BYTE	W01
	BYTE	W02
	BYTE	W01
	BYTE	W02
	BYTE	W01
	BYTE	W02
	BYTE	W01
	BYTE	W02
	BYTE	W01
	BYTE	W02
	BYTE	W01
	BYTE	W02
	BYTE	W01
	BYTE	W02
	BYTE	W02
// 017   ----------------------------------------
	BYTE		N07     Gs3   v124
	BYTE	W04
	BYTE	W03
	BYTE	W01
	BYTE		N03     Gn3   v096
	BYTE	W02
	BYTE	W02
	BYTE		        Gn3   v068
	BYTE	W04
	BYTE		        Gs3   v092
	BYTE	W03
	BYTE	W01
	BYTE		        Gs3   v068
	BYTE	W02
	BYTE	W02
	BYTE		N44     Gs3   v116
	BYTE	W01
	BYTE	W03
	BYTE	W03
	BYTE	W03
	BYTE	W03
	BYTE	W03
	BYTE	W03
	BYTE	W03
	BYTE	W03
	BYTE	W03
	BYTE	W03
	BYTE	W03
	BYTE	W03
	BYTE	W03
	BYTE	W01
	BYTE	W02
	BYTE	W01
	BYTE	W02
	BYTE	W01
	BYTE	W01
	BYTE		N07     Gn3 
	BYTE	W01
	BYTE	W01
	BYTE	W02
	BYTE	W01
	BYTE	W02
	BYTE	W01
	BYTE		N03     Gs3   v112
	BYTE	W02
	BYTE	W01
	BYTE	W01
	BYTE		        Gs3   v068
	BYTE	W01
	BYTE	W01
	BYTE	W02
	BYTE		        As3   v104
	BYTE	W01
	BYTE	W02
	BYTE	W01
	BYTE		        As3   v068
	BYTE	W02
	BYTE	W01
	BYTE	W01
// 018   ----------------------------------------
	BYTE		N68     As3   v088
	BYTE	W09
	BYTE	W03
	BYTE	W06
	BYTE	W06
	BYTE	W03
	BYTE	W03
	BYTE	W03
	BYTE	W03
	BYTE	W03
	BYTE	W03
	BYTE	W03
	BYTE	W03
	BYTE	W03
	BYTE	W03
	BYTE	W03
	BYTE	W03
	BYTE	W03
	BYTE	W03
	BYTE	W03
	BYTE	W03
	BYTE		N07     Gn3   v116
	BYTE	W01
	BYTE	W02
	BYTE	W01
	BYTE	W02
	BYTE	W01
	BYTE	W01
	BYTE		        Gs3 
	BYTE	W01
	BYTE	W01
	BYTE	W02
	BYTE	W01
	BYTE	W02
	BYTE	W01
	BYTE		        As3 
	BYTE	W02
	BYTE	W01
	BYTE	W02
	BYTE	W01
	BYTE	W02
// 019   ----------------------------------------
	BYTE		N23     Ds4   v100
	BYTE	W06
	BYTE	W06
	BYTE	W03
	BYTE	W06
	BYTE	W03
	BYTE		        As3   v112
	BYTE	W03
	BYTE	W06
	BYTE	W03
	BYTE	W03
	BYTE	W03
	BYTE	W03
	BYTE	W03
	BYTE		        Ds4   v092
	BYTE	W03
	BYTE	W03
	BYTE	W03
	BYTE	W03
	BYTE	W03
	BYTE	W03
	BYTE	W03
	BYTE	W03
	BYTE		        As4   v072
	BYTE	W03
	BYTE	W03
	BYTE	W03
	BYTE	W03
	BYTE	W02
	BYTE	W10
// 020   ----------------------------------------
	BYTE		N07     As4   v040
	BYTE	W96
	BYTE	GoTo
	 POIN2	Victory_A_Insertable_1_B1
Victory_A_Insertable_1_B2:
// 021   ----------------------------------------
	BYTE	FINE

//**************** Track 2 (Midi-Chn.2) ****************//

Victory_A_Insertable_2:
	BYTE	KEYSH   Victory_A_Insertable_key+0
Victory_A_Insertable_2_B1:
// 000   ----------------------------------------
	BYTE		VOICE   33
	BYTE		VOL     84*Victory_A_Insertable_mvl/mxv
	BYTE		PAN     c_v+0
	BYTE		N04     Gs1   v127
	BYTE	W08
	BYTE		N07     Gs1   v048
	BYTE	W08
	BYTE		N02     Gs1   v120
	BYTE	W08
	BYTE		N05     Gs1   v116
	BYTE	W08
	BYTE		N07     Gs1   v048
	BYTE	W08
	BYTE		N03     Gs1   v116
	BYTE	W08
	BYTE		N05     Gs1   v120
	BYTE	W08
	BYTE		N07     Gs1   v048
	BYTE	W08
	BYTE		N04     Gs1   v120
	BYTE	W08
	BYTE		N05     Gs1   v124
	BYTE	W08
	BYTE		N04     Cs2   v108
	BYTE	W08
	BYTE		N06     Ds2 
	BYTE	W08
// 001   ----------------------------------------
	BYTE		        Gs1   v127
	BYTE	W08
	BYTE		N07     Gs1   v048
	BYTE	W08
	BYTE		N04     Gs1   v124
	BYTE	W08
	BYTE		N07     Gs1   v127
	BYTE	W08
	BYTE		        Gs1   v048
	BYTE	W08
	BYTE		N03     Gs1   v108
	BYTE	W08
	BYTE		N04   
	BYTE	W08
	BYTE		N03     Gs1   v120
	BYTE	W08
	BYTE		N04     Gs1   v127
	BYTE	W08
	BYTE		N07   
	BYTE	W08
	BYTE		        Gs1   v048
	BYTE	W08
	BYTE		N04     Gs1   v127
	BYTE	W08
// 002   ----------------------------------------
	BYTE		N06     Gs1   v104
	BYTE	W08
	BYTE		N07     Gs1   v048
	BYTE	W08
	BYTE		N04     Gs1   v127
	BYTE	W08
	BYTE		N05     Gs1   v124
	BYTE	W08
	BYTE		N07     Gs1   v048
	BYTE	W08
	BYTE		N03     Gs1   v088
	BYTE	W08
	BYTE		N05     Gs1   v116
	BYTE	W08
	BYTE		N07     Gs1   v048
	BYTE	W08
	BYTE		N04     Gs1   v127
	BYTE	W08
	BYTE		N05     Gs1   v120
	BYTE	W08
	BYTE		N07     Cs2   v096
	BYTE	W08
	BYTE		N06     Ds2   v100
	BYTE	W08
// 003   ----------------------------------------
	BYTE		N07     Gs1   v124
	BYTE	W08
	BYTE		        Gs1   v048
	BYTE	W08
	BYTE		N03     Gs1   v084
	BYTE	W08
	BYTE		N05     Gs1   v127
	BYTE	W12
	BYTE		N03     Gs1   v048
	BYTE	W04
	BYTE		N04     Gs1   v092
	BYTE	W08
	BYTE		N07     Fn2   v100
	BYTE	W08
	BYTE		        Fs2   v104
	BYTE	W08
	BYTE		        Cs2   v100
	BYTE	W08
	BYTE		        Gs1   v112
	BYTE	W08
	BYTE		        Fs2   v120
	BYTE	W08
	BYTE		        As1   v112
	BYTE	W08
// 004   ----------------------------------------
	BYTE		        Gs1   v116
	BYTE	W08
	BYTE		        Gs1   v048
	BYTE	W08
	BYTE		N04     Gs1   v127
	BYTE	W08
	BYTE		N06   
	BYTE	W08
	BYTE		N07     Gs1   v048
	BYTE	W08
	BYTE		N04     Gs1   v127
	BYTE	W08
	BYTE		N05     Gs1   v120
	BYTE	W08
	BYTE		N07     Gs1   v048
	BYTE	W08
	BYTE		N03     Gs1   v127
	BYTE	W08
	BYTE		N07   
	BYTE	W08
	BYTE		        Cs2   v120
	BYTE	W08
	BYTE		        Ds2   v108
	BYTE	W08
// 005   ----------------------------------------
	BYTE		N06     Gs1   v112
	BYTE	W08
	BYTE		N07     Gs1   v048
	BYTE	W08
	BYTE		N03     Gs1   v112
	BYTE	W08
	BYTE		N05     Gs1   v120
	BYTE	W08
	BYTE		N07     Gs1   v048
	BYTE	W08
	BYTE		N03     Gs1   v124
	BYTE	W08
	BYTE		N05     Gs1   v127
	BYTE	W12
	BYTE		N03     Gs1   v048
	BYTE	W04
	BYTE		        Gs1   v124
	BYTE	W08
	BYTE		N06     Gs1   v127
	BYTE	W08
	BYTE		N07     Gs1   v048
	BYTE	W08
	BYTE		N03     Gs1   v116
	BYTE	W08
// 006   ----------------------------------------
	BYTE		        Gs1   v112
	BYTE	W04
	BYTE		N07     Gs1   v048
	BYTE	W12
	BYTE		N03     Gs1   v112
	BYTE	W08
	BYTE		N05     Gs1   v120
	BYTE	W08
	BYTE		N07     Gs1   v048
	BYTE	W08
	BYTE		N03     Gs1   v124
	BYTE	W08
	BYTE		N05     Gs2   v127
	BYTE	W08
	BYTE		N03     Ds2   v124
	BYTE	W08
	BYTE		        As1 
	BYTE	W08
	BYTE		N06     Gs1   v127
	BYTE	W08
	BYTE		N07     Gs1   v048
	BYTE	W08
	BYTE		N03     Gs1   v116
	BYTE	W08
// 007   ----------------------------------------
	BYTE		N05   
	BYTE	W08
	BYTE		N07     Gs1   v048
	BYTE	W08
	BYTE		N04     Gs1   v116
	BYTE	W08
	BYTE		N05   
	BYTE	W12
	BYTE		N03     Gs1   v048
	BYTE	W04
	BYTE		N04     Gs1   v116
	BYTE	W08
	BYTE		N05     Gs1   v104
	BYTE	W08
	BYTE		N05   
	BYTE	W08
	BYTE		N04   
	BYTE	W08
	BYTE		N05   
	BYTE	W08
	BYTE		N05   
	BYTE	W08
	BYTE		        Cs2 
	BYTE	W08
// 008   ----------------------------------------
	BYTE		N15     Ds2 
	BYTE	W16
	BYTE		N07     Ds2   v048
	BYTE	W08
	BYTE		N04     Ds2   v096
	BYTE	W08
	BYTE		N05     As1 
	BYTE	W08
	BYTE		        Gs1   v104
	BYTE	W08
	BYTE		N16     Ds1 
	BYTE	W24
	BYTE		N18     Ds2   v116
	BYTE	W24
// 009   ----------------------------------------
	BYTE		N44     Cs2   v080
	BYTE	W48
	BYTE		        Ds2   v076
	BYTE	W48
// 010   ----------------------------------------
	BYTE		N30     Cn2 
	BYTE	W32
	BYTE		N07     En2 
	BYTE	W08
	BYTE		        En1 
	BYTE	W08
	BYTE		N44     Fn1   v080
	BYTE	W48
// 011   ----------------------------------------
	BYTE		        Cs2   v096
	BYTE	W48
	BYTE		        Ds2   v088
	BYTE	W48
// 012   ----------------------------------------
	BYTE		N04     Ds2   v092
	BYTE	W08
	BYTE		N05     Cn2   v084
	BYTE	W08
	BYTE		N04     Ds2   v096
	BYTE	W08
	BYTE		N11     Gn2   v100
	BYTE	W16
	BYTE		        Cn2 
	BYTE	W16
	BYTE		N04     Cn2   v084
	BYTE	W08
	BYTE		N03     Dn2 
	BYTE	W08
	BYTE		N07     En2   v100
	BYTE	W08
	BYTE		N03     Cn2 
	BYTE	W08
	BYTE		N03   
	BYTE	W08
// 013   ----------------------------------------
	BYTE		N44     Cs2   v096
	BYTE	W48
	BYTE		        Ds2 
	BYTE	W48
// 014   ----------------------------------------
	BYTE		        Cn2   v092
	BYTE	W48
	BYTE		N30     Fn1 
	BYTE	W32
	BYTE		N07     As1 
	BYTE	W08
	BYTE		        Cn2 
	BYTE	W08
// 015   ----------------------------------------
	BYTE		N84     Cs2   v096
	BYTE	W96
// 016   ----------------------------------------
	BYTE		        Cs2   v088
	BYTE	W96
// 017   ----------------------------------------
	BYTE		N78     Cs2   v096
	BYTE	W80
	BYTE		N03     Gs1   v100
	BYTE	W08
	BYTE		N03   
	BYTE	W08
// 018   ----------------------------------------
	BYTE		N23     Cs2   v104
	BYTE	W24
	BYTE		        As1   v096
	BYTE	W24
	BYTE		        Cn2   v104
	BYTE	W24
	BYTE		        Cs2 
	BYTE	W24
// 019   ----------------------------------------
	BYTE		N22     Cs2   v112
	BYTE	W24
	BYTE		N03   
	BYTE	W08
	BYTE		        Cn2 
	BYTE	W08
	BYTE		        Cs2 
	BYTE	W08
	BYTE		N22     Ds2 
	BYTE	W24
	BYTE		        Ds1 
	BYTE	W24
// 020   ----------------------------------------
	BYTE		N07     Ds1   v048
	BYTE	W72
	BYTE		N03     Ds2   v124
	BYTE	W08
	BYTE		N03   
	BYTE	W08
	BYTE		N03   
	BYTE	W08
	BYTE	GoTo
	 POIN2	Victory_A_Insertable_2_B1
Victory_A_Insertable_2_B2:
// 021   ----------------------------------------
	BYTE	FINE

//**************** Track 3 (Midi-Chn.3) ****************//

Victory_A_Insertable_3:
	BYTE	KEYSH   Victory_A_Insertable_key+0
Victory_A_Insertable_3_B1:
// 000   ----------------------------------------
	BYTE		VOICE   61
	BYTE		VOL     75*Victory_A_Insertable_mvl/mxv
	BYTE		PAN     c_v+27
	BYTE		N66     Ds2   v068
	BYTE		N66     Gs2 
	BYTE	W68
	BYTE		N03     Ds2   v036
	BYTE		N03     Gs2 
	BYTE	W04
	BYTE		N07     Cs4   v052
	BYTE		N07     Gs4 
	BYTE	W08
	BYTE		        Cn4 
	BYTE		N07     Gs4 
	BYTE	W08
	BYTE		        Cs4 
	BYTE		N07     Gn4 
	BYTE	W08
// 001   ----------------------------------------
	BYTE		N68     Ds2   v068
	BYTE		N68     Gs2 
	BYTE	W72
	BYTE		N23     Cs2 
	BYTE		N23     Fs2 
	BYTE		N23     As2 
	BYTE	W24
// 002   ----------------------------------------
	BYTE		N66     Ds2 
	BYTE		N66     Gs2 
	BYTE	W68
	BYTE		N03     Ds2   v036
	BYTE		N03     Gs2 
	BYTE	W04
	BYTE		N07     Cs4   v052
	BYTE		N07     Gs4 
	BYTE	W08
	BYTE		        Cn4 
	BYTE		N07     Gs4 
	BYTE	W08
	BYTE		        Cs4 
	BYTE		N07     Gs4 
	BYTE	W08
// 003   ----------------------------------------
	BYTE		N42     Ds2   v068
	BYTE		N42     Gs2 
	BYTE	W44
	BYTE		N03     Ds2   v036
	BYTE		N03     Gs2 
	BYTE	W04
	BYTE		N24     Fs2   v068
	BYTE		N24     As2 
	BYTE		N23     Ds3 
	BYTE	W24
	BYTE		N24     Cs2 
	BYTE		N24     Fs2 
	BYTE		N24     As2 
	BYTE	W24
// 004   ----------------------------------------
	BYTE		N07     Fs2   v036
	BYTE		N07     As2 
	BYTE	W24
	BYTE		N44     Gs2   v068
	BYTE		N44     As2 
	BYTE	W48
	BYTE		N06     Gs4   v052
	BYTE		N06     As4 
	BYTE	W08
	BYTE		        Gs4 
	BYTE		N06     As4 
	BYTE	W08
	BYTE		        Gs4 
	BYTE		N06     As4 
	BYTE	W08
// 005   ----------------------------------------
	BYTE		N68     Gs2   v056
	BYTE		N68     As2 
	BYTE	W72
	BYTE		N22     Fs2 
	BYTE		N22     As2 
	BYTE	W24
// 006   ----------------------------------------
	BYTE		N03     Fs2   v036
	BYTE		N03     As2 
	BYTE	W24
	BYTE		N44     Gs2   v068
	BYTE		N44     As2 
	BYTE	W48
	BYTE		N06     Gs4   v052
	BYTE		N06     As4 
	BYTE	W08
	BYTE		        Gs4 
	BYTE		N06     As4 
	BYTE	W08
	BYTE		        Gs4 
	BYTE		N06     As4 
	BYTE	W08
// 007   ----------------------------------------
	BYTE		N23     Fs2   v060
	BYTE		N23     As2 
	BYTE	W24
	BYTE		        Ds2 
	BYTE	W24
	BYTE		        Gs2 
	BYTE		N23     As2 
	BYTE	W24
	BYTE		        Gs2 
	BYTE		N23     As2 
	BYTE	W24
// 008   ----------------------------------------
	BYTE		N07     As2   v056
	BYTE	W08
	BYTE		N03     Gn4 
	BYTE	W04
	BYTE		N11     As4 
	BYTE	W12
	BYTE		N15     Ds3 
	BYTE	W16
	BYTE		N07     As2 
	BYTE	W08
	BYTE		N44     As2   v060
	BYTE	W02
	BYTE	W01
	BYTE	W01
	BYTE	W01
	BYTE	W01
	BYTE	W01
	BYTE	W02
	BYTE	W01
	BYTE	W02
	BYTE	W01
	BYTE	W02
	BYTE	W01
	BYTE	W02
	BYTE	W01
	BYTE	W02
	BYTE	W01
	BYTE	W02
	BYTE	W01
	BYTE	W02
	BYTE	W01
	BYTE	W02
	BYTE	W01
	BYTE	W02
	BYTE	W01
	BYTE	W02
	BYTE	W01
	BYTE	W02
	BYTE	W01
	BYTE	W02
	BYTE	W01
	BYTE	W01
	BYTE	W04
// 009   ----------------------------------------
	BYTE		N03     As2   v036
	BYTE	W96
// 010   ----------------------------------------
	BYTE	W96
// 011   ----------------------------------------
	BYTE		VOICE   57
	BYTE		N44     Fn2   v068
	BYTE	W09
	BYTE	W03
	BYTE	W06
	BYTE	W06
	BYTE	W03
	BYTE	W03
	BYTE	W06
	BYTE	W03
	BYTE	W03
	BYTE	W03
	BYTE	W03
	BYTE		N30     Gn2 
	BYTE	W03
	BYTE	W03
	BYTE	W03
	BYTE	W03
	BYTE	W03
	BYTE	W03
	BYTE	W03
	BYTE	W03
	BYTE	W03
	BYTE	W03
	BYTE	W02
	BYTE		N07     Gs2 
	BYTE	W01
	BYTE	W03
	BYTE	W03
	BYTE	W01
	BYTE		        As2 
	BYTE	W01
	BYTE	W07
// 012   ----------------------------------------
	BYTE		        Cn4 
	BYTE	W08
	BYTE		        Gn3 
	BYTE	W08
	BYTE		        Cn4 
	BYTE	W08
	BYTE		N15     Ds3 
	BYTE	W16
	BYTE		        Gn2 
	BYTE	W12
	BYTE	W03
	BYTE	W01
	BYTE		N07     Gs4 
	BYTE	W02
	BYTE	W03
	BYTE	W03
	BYTE		        As4 
	BYTE	W03
	BYTE	W03
	BYTE	W02
	BYTE		N23     Cn5 
	BYTE	W01
	BYTE	W03
	BYTE	W03
	BYTE	W03
	BYTE	W03
	BYTE	W03
	BYTE	W03
	BYTE	W01
	BYTE	W04
// 013   ----------------------------------------
	BYTE		N44     Cs3 
	BYTE	W05
	BYTE	W03
	BYTE	W06
	BYTE	W06
	BYTE	W03
	BYTE	W03
	BYTE	W06
	BYTE	W03
	BYTE	W03
	BYTE	W03
	BYTE	W03
	BYTE	W03
	BYTE	W01
	BYTE		        Ds3 
	BYTE	W02
	BYTE	W03
	BYTE	W03
	BYTE	W03
	BYTE	W03
	BYTE	W03
	BYTE	W03
	BYTE	W03
	BYTE	W03
	BYTE	W03
	BYTE	W03
	BYTE	W03
	BYTE	W03
	BYTE	W10
// 014   ----------------------------------------
	BYTE		        Cn3 
	BYTE	W03
	BYTE	W01
	BYTE	W01
	BYTE	W01
	BYTE	W01
	BYTE	W03
	BYTE	W03
	BYTE	W03
	BYTE	W03
	BYTE	W03
	BYTE	W03
	BYTE	W03
	BYTE	W03
	BYTE	W03
	BYTE	W03
	BYTE	W03
	BYTE	W03
	BYTE	W03
	BYTE	W02
	BYTE		N36     Fn3 
	BYTE	W01
	BYTE	W03
	BYTE	W03
	BYTE	W03
	BYTE	W03
	BYTE	W03
	BYTE	W03
	BYTE	W03
	BYTE	W03
	BYTE	W03
	BYTE	W03
	BYTE	W03
	BYTE	W03
	BYTE	W03
	BYTE	W03
	BYTE	W03
	BYTE	W02
// 015   ----------------------------------------
	BYTE		VOICE   14
	BYTE		VOL     85*Victory_A_Insertable_mvl/mxv
	BYTE		PAN     c_v-33
	BYTE		N24     Gs4   v080
	BYTE	W96
// 016   ----------------------------------------
	BYTE	W96
// 017   ----------------------------------------
	BYTE		        Gs4   v120
	BYTE	W96
// 018   ----------------------------------------
	BYTE		VOICE   58
	BYTE		VOL     75*Victory_A_Insertable_mvl/mxv
	BYTE		PAN     c_v+27
	BYTE		N07     Fn4   v096
	BYTE	W08
	BYTE		        Ds4 
	BYTE	W08
	BYTE		        Fn4 
	BYTE	W08
	BYTE		N30     Fn2 
	BYTE	W32
	BYTE		N07     Gs4 
	BYTE	W08
	BYTE		        Gn4 
	BYTE	W08
	BYTE		        Fn4 
	BYTE	W08
	BYTE		        Ds4 
	BYTE	W08
	BYTE		        Fn4 
	BYTE	W08
// 019   ----------------------------------------
	BYTE		N44     Gn2 
	BYTE	W48
	BYTE		        Ds2 
	BYTE	W48
// 020   ----------------------------------------
	BYTE		N07     Ds2   v056
	BYTE	W96
	BYTE	GoTo
	 POIN2	Victory_A_Insertable_3_B1
Victory_A_Insertable_3_B2:
// 021   ----------------------------------------
	BYTE	FINE

//**************** Track 4 (Midi-Chn.4) ****************//

Victory_A_Insertable_4:
	BYTE	KEYSH   Victory_A_Insertable_key+0
Victory_A_Insertable_4_B1:
// 000   ----------------------------------------
	BYTE		VOICE   14
	BYTE		VOL     85*Victory_A_Insertable_mvl/mxv
	BYTE		PAN     c_v-33
	BYTE	W96
// 001   ----------------------------------------
	BYTE		N48     Gs3   v127
	BYTE	W72
	BYTE		N23     Fs3   v120
	BYTE	W24
// 002   ----------------------------------------
	BYTE		N48     Gs3   v127
	BYTE	W96
// 003   ----------------------------------------
	BYTE		N48   
	BYTE	W96
// 004   ----------------------------------------
	BYTE	W72
	BYTE		N23     Ds3   v124
	BYTE	W24
// 005   ----------------------------------------
	BYTE		N48     Gs3   v127
	BYTE	W96
// 006   ----------------------------------------
	BYTE	W72
	BYTE		N23     Ds3   v120
	BYTE	W24
// 007   ----------------------------------------
	BYTE		N48     Gs3   v124
	BYTE	W96
// 008   ----------------------------------------
	BYTE		VOICE   107
	BYTE		VOL     72*Victory_A_Insertable_mvl/mxv
	BYTE		PAN     c_v+22
	BYTE	W80
	BYTE		N07     Gs3   v096
	BYTE	W08
	BYTE		        Gn3   v088
	BYTE	W08
// 009   ----------------------------------------
	BYTE		N23     Fn3   v068
	BYTE	W24
	BYTE		N15     Gn3 
	BYTE	W16
	BYTE		N07     Gs3 
	BYTE	W08
	BYTE		N23     As3   v084
	BYTE	W24
	BYTE		N07     Gn3   v080
	BYTE	W08
	BYTE		        Fn3   v076
	BYTE	W08
	BYTE		        Ds3   v072
	BYTE	W08
// 010   ----------------------------------------
	BYTE		N30     Cn3   v088
	BYTE	W32
	BYTE		N07     En3   v068
	BYTE	W08
	BYTE		        Gn3   v072
	BYTE	W08
	BYTE		N05     Fn3   v076
	BYTE	W08
	BYTE		N03     Fn3   v036
	BYTE	W16
	BYTE		N15     Fn3   v076
	BYTE	W16
	BYTE		N07     Ds3   v084
	BYTE	W08
// 011   ----------------------------------------
	BYTE		N13     Cs3 
	BYTE	W16
	BYTE		N03     Cs3   v036
	BYTE	W08
	BYTE		N15     Fn3   v084
	BYTE	W16
	BYTE		N07     Gs3 
	BYTE	W08
	BYTE		N23     Cs4   v072
	BYTE	W24
	BYTE		N07     Cn4   v092
	BYTE	W08
	BYTE		        As3   v088
	BYTE	W08
	BYTE		        Gs3   v084
	BYTE	W08
// 012   ----------------------------------------
	BYTE		N72     Gn3   v092
	BYTE	W36
	BYTE	W03
	BYTE	W03
	BYTE	W03
	BYTE	W03
	BYTE	W03
	BYTE	W03
	BYTE	W03
	BYTE	W03
	BYTE	W03
	BYTE	W03
	BYTE	W03
	BYTE	W03
	BYTE	W03
	BYTE	W01
	BYTE		N03     Gn3   v036
	BYTE	W02
	BYTE	W03
	BYTE	W03
	BYTE	W03
	BYTE	W03
	BYTE	W03
	BYTE	W02
	BYTE	W01
// 013   ----------------------------------------
	BYTE		N23     Fn3   v068
	BYTE	W07
	BYTE	W09
	BYTE	W04
	BYTE	W04
	BYTE		N15     Gn3 
	BYTE	W01
	BYTE	W09
	BYTE	W04
	BYTE	W02
	BYTE		N07     Gs3 
	BYTE	W02
	BYTE	W06
	BYTE		N23     As3   v084
	BYTE	W03
	BYTE	W04
	BYTE	W05
	BYTE	W04
	BYTE	W04
	BYTE	W04
	BYTE		N07     Gn3   v080
	BYTE	W01
	BYTE	W04
	BYTE	W03
	BYTE		        Fn3   v076
	BYTE	W01
	BYTE	W05
	BYTE	W02
	BYTE		        Ds3   v072
	BYTE	W02
	BYTE	W04
	BYTE	W02
// 014   ----------------------------------------
	BYTE		N30     Cn3   v084
	BYTE	W03
	BYTE	W04
	BYTE	W04
	BYTE	W05
	BYTE	W04
	BYTE	W05
	BYTE	W04
	BYTE	W03
	BYTE		N07     En3 
	BYTE	W01
	BYTE	W05
	BYTE	W02
	BYTE		        Gn3   v088
	BYTE	W02
	BYTE	W04
	BYTE	W01
	BYTE	W01
	BYTE		N17     Fn3   v092
	BYTE	W20
	BYTE		N03     Fn3   v036
	BYTE	W28
// 015   ----------------------------------------
	BYTE	W92
	BYTE	W03
	BYTE	W01
// 016   ----------------------------------------
	BYTE		VOICE   77
	BYTE		PAN     c_v-40
	BYTE		N06     As2   v127
	BYTE	W03
	BYTE	W01
	BYTE	W02
	BYTE	W02
	BYTE		N03     Gn2 
	BYTE	W01
	BYTE	W01
	BYTE	W02
	BYTE		        Gn2   v060
	BYTE	W01
	BYTE	W02
	BYTE	W01
	BYTE		        As2   v127
	BYTE	W02
	BYTE	W01
	BYTE	W01
	BYTE		        As2   v060
	BYTE	W01
	BYTE	W01
	BYTE	W02
	BYTE		N06     Ds3   v127
	BYTE	W01
	BYTE	W02
	BYTE	W01
	BYTE	W02
	BYTE	W01
	BYTE	W01
	BYTE		N03     As2 
	BYTE	W01
	BYTE	W01
	BYTE	W02
	BYTE		        As2   v060
	BYTE	W01
	BYTE	W02
	BYTE	W01
	BYTE		        Ds3   v127
	BYTE	W02
	BYTE	W01
	BYTE	W01
	BYTE		        Ds3   v060
	BYTE	W01
	BYTE	W01
	BYTE	W02
	BYTE		N06     Gn3   v127
	BYTE	W08
	BYTE		N03     Ds4 
	BYTE	W04
	BYTE		        Ds4   v060
	BYTE	W02
	BYTE	W01
	BYTE	W01
	BYTE		        As3   v127
	BYTE	W01
	BYTE	W01
	BYTE	W02
	BYTE		        As3   v060
	BYTE	W01
	BYTE	W02
	BYTE	W01
	BYTE		        Gs3   v127
	BYTE	W02
	BYTE	W01
	BYTE	W01
	BYTE		        Gs3   v060
	BYTE	W01
	BYTE	W01
	BYTE	W02
	BYTE		        Gn3   v127
	BYTE	W01
	BYTE	W02
	BYTE	W01
	BYTE		        Gn3   v060
	BYTE	W02
	BYTE	W01
	BYTE	W01
	BYTE		        Ds3   v127
	BYTE	W01
	BYTE	W01
	BYTE	W02
	BYTE		        Ds3   v060
	BYTE	W01
	BYTE	W02
	BYTE	W01
// 017   ----------------------------------------
	BYTE	W01
	BYTE	W78
	BYTE	W17
// 018   ----------------------------------------
	BYTE		N68     Cs3   v127
	BYTE	W01
	BYTE	W01
	BYTE	W01
	BYTE	W01
	BYTE	W01
	BYTE	W01
	BYTE	W01
	BYTE	W01
	BYTE	W01
	BYTE	W03
	BYTE	W03
	BYTE	W03
	BYTE	W03
	BYTE	W03
	BYTE	W03
	BYTE	W03
	BYTE	W03
	BYTE	W03
	BYTE	W03
	BYTE	W03
	BYTE	W03
	BYTE	W03
	BYTE	W03
	BYTE	W03
	BYTE	W03
	BYTE	W03
	BYTE	W03
	BYTE	W01
	BYTE	W08
	BYTE		N03     Ds3 
	BYTE	W03
	BYTE	W01
	BYTE		        Ds3   v060
	BYTE	W02
	BYTE	W01
	BYTE	W01
	BYTE		        Fn3   v127
	BYTE	W01
	BYTE	W01
	BYTE	W02
	BYTE		        Fn3   v060
	BYTE	W01
	BYTE	W02
	BYTE	W01
	BYTE		        Gn3   v127
	BYTE	W02
	BYTE	W01
	BYTE	W01
	BYTE		        Gn3   v060
	BYTE	W01
	BYTE	W01
	BYTE	W02
// 019   ----------------------------------------
	BYTE		N06     Gn3   v127
	BYTE	W04
	BYTE	W03
	BYTE	W01
	BYTE		N03     Ds3 
	BYTE	W02
	BYTE	W02
	BYTE		        Ds3   v060
	BYTE	W01
	BYTE	W03
	BYTE		        Gn3   v127
	BYTE	W03
	BYTE	W01
	BYTE		        Gn3   v060
	BYTE	W02
	BYTE	W02
	BYTE		N06     As3   v127
	BYTE	W01
	BYTE	W03
	BYTE	W03
	BYTE	W01
	BYTE		N03     Gn3 
	BYTE	W02
	BYTE	W02
	BYTE		        Gn3   v060
	BYTE	W01
	BYTE	W03
	BYTE		        As3   v127
	BYTE	W03
	BYTE	W01
	BYTE		        As3   v060
	BYTE	W02
	BYTE	W02
	BYTE		N06     Ds4   v127
	BYTE	W06
	BYTE	W02
	BYTE		N03     As3 
	BYTE	W04
	BYTE		        As3   v060
	BYTE	W03
	BYTE	W01
	BYTE		        Fn3   v127
	BYTE	W04
	BYTE		        Fn3   v060
	BYTE	W01
	BYTE	W03
	BYTE		        Ds3   v127
	BYTE	W03
	BYTE	W01
	BYTE		        Ds3   v060
	BYTE	W02
	BYTE	W02
	BYTE		        As2   v127
	BYTE	W01
	BYTE	W03
	BYTE		        As2   v060
	BYTE	W03
	BYTE	W01
	BYTE		        Gn3   v127
	BYTE	W02
	BYTE	W02
	BYTE		        Gn3   v060
	BYTE	W01
	BYTE	W02
	BYTE	W01
// 020   ----------------------------------------
	BYTE		N06     Gn3   v068
	BYTE	W96
	BYTE	GoTo
	 POIN2	Victory_A_Insertable_4_B1
Victory_A_Insertable_4_B2:
// 021   ----------------------------------------
	BYTE	FINE

//**************** Track 5 (Midi-Chn.5) ****************//

Victory_A_Insertable_5:
	BYTE	KEYSH   Victory_A_Insertable_key+0
Victory_A_Insertable_5_B1:
// 000   ----------------------------------------
	BYTE		VOICE   56
	BYTE		VOL     79*Victory_A_Insertable_mvl/mxv
	BYTE	W96
// 001   ----------------------------------------
	BYTE	W96
// 002   ----------------------------------------
	BYTE	W96
// 003   ----------------------------------------
	BYTE	W96
// 004   ----------------------------------------
	BYTE		PAN     c_v-28
	BYTE		N12     Ds2   v120
	BYTE	W16
	BYTE		N03     Ds4   v127
	BYTE	W04
	BYTE		N03   
	BYTE	W04
	BYTE		N44     Ds3   v120
	BYTE	W48
	BYTE		N06     Cs4   v108
	BYTE	W08
	BYTE		        Cn4 
	BYTE	W08
	BYTE		        Cs4 
	BYTE	W08
// 005   ----------------------------------------
	BYTE		N84     Ds3   v120
	BYTE	W88
	BYTE		N03     Ds3   v036
	BYTE	W08
// 006   ----------------------------------------
	BYTE		N15     Ds2   v120
	BYTE	W16
	BYTE		N03     Ds4   v127
	BYTE	W04
	BYTE		N03   
	BYTE	W04
	BYTE		N44     Ds3   v120
	BYTE	W48
	BYTE		N06     Ds4   v108
	BYTE	W08
	BYTE		        Cs4 
	BYTE	W08
	BYTE		        Cn4 
	BYTE	W08
// 007   ----------------------------------------
	BYTE		N64     As2   v120
	BYTE	W68
	BYTE		N03     As2   v036
	BYTE	W04
	BYTE		N15     Cn3   v120
	BYTE	W16
	BYTE		N07     Cs3 
	BYTE	W08
// 008   ----------------------------------------
	BYTE		        Ds3   v096
	BYTE	W08
	BYTE		N03     As3 
	BYTE	W04
	BYTE		N11     Ds4 
	BYTE	W12
	BYTE		N15     As3 
	BYTE	W16
	BYTE		N07     Gs3 
	BYTE	W08
	BYTE		N44     Gn3   v112
	BYTE	W01
	BYTE	W01
	BYTE	W01
	BYTE	W01
	BYTE	W01
	BYTE	W01
	BYTE	W01
	BYTE	W01
	BYTE	W01
	BYTE	W01
	BYTE	W02
	BYTE	W01
	BYTE	W02
	BYTE	W01
	BYTE	W02
	BYTE	W01
	BYTE	W02
	BYTE	W01
	BYTE	W02
	BYTE	W01
	BYTE	W02
	BYTE	W01
	BYTE	W02
	BYTE	W01
	BYTE	W02
	BYTE	W01
	BYTE	W02
	BYTE	W01
	BYTE	W02
	BYTE	W01
	BYTE	W02
	BYTE	W01
	BYTE	W05
// 009   ----------------------------------------
	BYTE		N07     Gn3   v048
	BYTE	W96
// 010   ----------------------------------------
	BYTE	W92
	BYTE	W03
	BYTE	W01
// 011   ----------------------------------------
	BYTE		N44     Gs2   v084
	BYTE	W06
	BYTE	W03
	BYTE	W03
	BYTE	W03
	BYTE	W03
	BYTE	W03
	BYTE	W03
	BYTE	W03
	BYTE	W03
	BYTE	W03
	BYTE	W03
	BYTE	W03
	BYTE	W03
	BYTE	W03
	BYTE	W03
	BYTE		N30     As2 
	BYTE	W03
	BYTE	W03
	BYTE	W03
	BYTE	W03
	BYTE	W03
	BYTE	W03
	BYTE	W03
	BYTE	W03
	BYTE	W03
	BYTE	W03
	BYTE	W02
	BYTE		N07     Cn3 
	BYTE	W01
	BYTE	W03
	BYTE	W03
	BYTE	W01
	BYTE		        Cs3 
	BYTE	W02
	BYTE	W06
// 012   ----------------------------------------
	BYTE		        Ds5   v096
	BYTE	W08
	BYTE		        Cn5   v060
	BYTE	W08
	BYTE		        Ds5   v084
	BYTE	W08
	BYTE		N14     Gn3   v092
	BYTE	W16
	BYTE		N11     Cn3   v100
	BYTE	W12
	BYTE		N03     Cn3   v036
	BYTE	W04
	BYTE		N07     Cn4   v072
	BYTE	W08
	BYTE		        Dn4   v080
	BYTE	W08
	BYTE		N23     En4   v088
	BYTE	W02
	BYTE	W01
	BYTE	W02
	BYTE	W01
	BYTE	W02
	BYTE	W01
	BYTE	W02
	BYTE	W01
	BYTE	W02
	BYTE	W01
	BYTE	W02
	BYTE	W01
	BYTE	W02
	BYTE	W01
	BYTE	W02
	BYTE	W01
// 013   ----------------------------------------
	BYTE		N44     Fn3   v084
	BYTE	W08
	BYTE	W06
	BYTE	W03
	BYTE	W06
	BYTE	W03
	BYTE	W06
	BYTE	W03
	BYTE	W03
	BYTE	W03
	BYTE	W03
	BYTE	W03
	BYTE	W01
	BYTE		        Gn3 
	BYTE	W02
	BYTE	W03
	BYTE	W03
	BYTE	W03
	BYTE	W03
	BYTE	W03
	BYTE	W03
	BYTE	W03
	BYTE	W03
	BYTE	W03
	BYTE	W03
	BYTE	W03
	BYTE	W03
	BYTE	W03
	BYTE	W01
	BYTE	W06
// 014   ----------------------------------------
	BYTE		N15     Ds3 
	BYTE	W12
	BYTE	W03
	BYTE	W01
	BYTE		N03     Fn3 
	BYTE	W02
	BYTE	W02
	BYTE		        Fs3 
	BYTE	W01
	BYTE	W03
	BYTE		N23     Gn3 
	BYTE	W03
	BYTE	W03
	BYTE	W03
	BYTE	W03
	BYTE	W03
	BYTE	W03
	BYTE	W03
	BYTE	W03
	BYTE		N36     Gs3   v088
	BYTE	W03
	BYTE	W03
	BYTE	W03
	BYTE	W03
	BYTE	W03
	BYTE	W03
	BYTE	W03
	BYTE	W03
	BYTE	W03
	BYTE	W03
	BYTE	W03
	BYTE	W03
	BYTE	W03
	BYTE	W03
	BYTE	W02
	BYTE		N03     Gs3   v040
	BYTE	W01
	BYTE	W03
// 015   ----------------------------------------
	BYTE		N92     Cs3   v084
	BYTE	W03
	BYTE	W03
	BYTE	W02
	BYTE	W06
	BYTE	W03
	BYTE	W03
	BYTE	W03
	BYTE	W03
	BYTE	W03
	BYTE	W03
	BYTE	W03
	BYTE	W03
	BYTE	W03
	BYTE	W03
	BYTE	W03
	BYTE	W03
	BYTE	W03
	BYTE	W03
	BYTE	W03
	BYTE	W03
	BYTE	W03
	BYTE	W03
	BYTE	W03
	BYTE	W03
	BYTE	W03
	BYTE	W03
	BYTE	W03
	BYTE	W03
	BYTE	W03
	BYTE	W02
	BYTE	W05
// 016   ----------------------------------------
	BYTE		N22     As2 
	BYTE	W24
	BYTE		        Ds3 
	BYTE	W24
	BYTE		        Cs3 
	BYTE	W02
	BYTE	W03
	BYTE	W03
	BYTE	W03
	BYTE	W03
	BYTE	W03
	BYTE	W03
	BYTE	W03
	BYTE	W01
	BYTE		        Cn3 
	BYTE	W02
	BYTE	W03
	BYTE	W03
	BYTE	W03
	BYTE	W03
	BYTE	W03
	BYTE	W03
	BYTE	W03
	BYTE	W01
// 017   ----------------------------------------
	BYTE		N92     Cs3 
	BYTE	W02
	BYTE	W01
	BYTE	W06
	BYTE	W03
	BYTE	W06
	BYTE	W03
	BYTE	W03
	BYTE	W03
	BYTE	W03
	BYTE	W03
	BYTE	W03
	BYTE	W03
	BYTE	W03
	BYTE	W03
	BYTE	W03
	BYTE	W03
	BYTE	W03
	BYTE	W03
	BYTE	W03
	BYTE	W03
	BYTE	W03
	BYTE	W03
	BYTE	W03
	BYTE	W03
	BYTE	W03
	BYTE	W03
	BYTE	W03
	BYTE	W03
	BYTE	W03
	BYTE	W03
	BYTE	W01
	BYTE	W02
// 018   ----------------------------------------
	BYTE		VOICE   88
	BYTE		N07     As4 
	BYTE	W08
	BYTE		        Gs4 
	BYTE	W08
	BYTE		        As4 
	BYTE	W08
	BYTE		N30     As2 
	BYTE	W32
	BYTE		N07     Cs5 
	BYTE	W08
	BYTE		        Cn5 
	BYTE	W08
	BYTE		        As4 
	BYTE	W08
	BYTE		        Gs4 
	BYTE	W08
	BYTE		        As4 
	BYTE	W08
// 019   ----------------------------------------
	BYTE		N44     As2   v092
	BYTE	W05
	BYTE	W02
	BYTE	W01
	BYTE	W02
	BYTE	W01
	BYTE	W02
	BYTE	W01
	BYTE	W02
	BYTE	W01
	BYTE	W02
	BYTE	W06
	BYTE	W06
	BYTE	W03
	BYTE	W03
	BYTE	W06
	BYTE	W03
	BYTE	W02
	BYTE		        Ds3 
	BYTE	W01
	BYTE	W03
	BYTE	W03
	BYTE	W03
	BYTE	W03
	BYTE	W03
	BYTE	W03
	BYTE	W03
	BYTE	W03
	BYTE	W03
	BYTE	W03
	BYTE	W03
	BYTE	W03
	BYTE	W03
	BYTE	W02
	BYTE	W06
// 020   ----------------------------------------
	BYTE		N07     Ds3   v040
	BYTE	W96
	BYTE	GoTo
	 POIN2	Victory_A_Insertable_5_B1
Victory_A_Insertable_5_B2:
// 021   ----------------------------------------
	BYTE	FINE

//**************** Track 6 (Midi-Chn.6) ****************//

Victory_A_Insertable_6:
	BYTE	KEYSH   Victory_A_Insertable_key+0
Victory_A_Insertable_6_B1:
// 000   ----------------------------------------
	BYTE		VOICE   61
	BYTE		VOL     90*Victory_A_Insertable_mvl/mxv
	BYTE		PAN     c_v-30
	BYTE		N11     Ds3   v060
	BYTE	W12
	BYTE		N03     Ds3   v028
	BYTE	W04
	BYTE		        Ds3   v060
	BYTE	W04
	BYTE		N03   
	BYTE	W04
	BYTE		N44     As3   v048
	BYTE		N44     Ds4   v060
	BYTE	W48
	BYTE		N03     As3   v044
	BYTE		N03     Cs4   v060
	BYTE	W04
	BYTE		        As3   v028
	BYTE		N03     Cs4   v036
	BYTE	W04
	BYTE		        As3   v044
	BYTE		N03     Cn4   v060
	BYTE	W04
	BYTE		        As3   v028
	BYTE		N03     Cn4   v036
	BYTE	W04
	BYTE		        As3   v044
	BYTE		N03     Cs4   v060
	BYTE	W04
	BYTE		        As3   v028
	BYTE		N03     Cs4   v036
	BYTE	W04
// 001   ----------------------------------------
	BYTE		N68     As3   v048
	BYTE		N68     Ds4   v060
	BYTE	W72
	BYTE		N03     As3   v028
	BYTE		N03     Ds4 
	BYTE	W24
// 002   ----------------------------------------
	BYTE		N15     Ds3   v060
	BYTE	W16
	BYTE		N03   
	BYTE	W04
	BYTE		N03   
	BYTE	W04
	BYTE		N44     As3   v048
	BYTE		N44     Ds4   v060
	BYTE	W48
	BYTE		N03     As3   v044
	BYTE		N03     Cs4   v060
	BYTE	W04
	BYTE		        As3   v028
	BYTE		N03     Cs4   v036
	BYTE	W04
	BYTE		        As3   v044
	BYTE		N03     Cn4   v060
	BYTE	W04
	BYTE		        As3   v028
	BYTE		N03     Cn4   v036
	BYTE	W04
	BYTE		        As3   v044
	BYTE		N03     Cs4   v060
	BYTE	W04
	BYTE		        As3   v028
	BYTE		N03     Cs4   v036
	BYTE	W04
// 003   ----------------------------------------
	BYTE		N23     As3   v048
	BYTE		N23     Ds4   v060
	BYTE	W24
	BYTE		        Ds3   v048
	BYTE		N23     Gs3   v060
	BYTE	W24
	BYTE		        As3   v048
	BYTE		N23     Fn4   v060
	BYTE	W24
	BYTE		N32     As3   v048
	BYTE		N32     Cs4   v060
	BYTE	W24
// 004   ----------------------------------------
	BYTE	W12
	BYTE		N05     As3   v044
	BYTE		N05     Cn4   v060
	BYTE	W06
	BYTE		        As3   v044
	BYTE		N05     Cs4   v060
	BYTE	W06
	BYTE		N68     Cn4   v044
	BYTE		N68     Ds4   v060
	BYTE	W21
	BYTE	W03
	BYTE	W03
	BYTE	W03
	BYTE	W03
	BYTE	W03
	BYTE	W03
	BYTE	W03
	BYTE	W03
	BYTE	W03
	BYTE	W03
	BYTE	W03
	BYTE	W03
	BYTE	W03
	BYTE	W03
	BYTE	W03
	BYTE	W03
	BYTE	W03
// 005   ----------------------------------------
	BYTE		        Gs2   v052
	BYTE	W01
	BYTE	W02
	BYTE	W01
	BYTE	W02
	BYTE	W01
	BYTE	W02
	BYTE	W01
	BYTE	W02
	BYTE	W01
	BYTE	W02
	BYTE	W01
	BYTE	W02
	BYTE	W01
	BYTE	W02
	BYTE	W01
	BYTE	W02
	BYTE	W01
	BYTE	W02
	BYTE	W01
	BYTE	W02
	BYTE	W01
	BYTE	W02
	BYTE	W01
	BYTE	W02
	BYTE	W01
	BYTE	W02
	BYTE	W01
	BYTE	W32
	BYTE		N03     Fs2 
	BYTE	W04
	BYTE		        Fs2   v036
	BYTE	W04
	BYTE		        Fs2   v052
	BYTE	W04
	BYTE		        Fs2   v036
	BYTE	W04
	BYTE		        Fs2   v052
	BYTE	W04
	BYTE		        Fs2   v036
	BYTE	W04
// 006   ----------------------------------------
	BYTE		N92     Gs2   v052
	BYTE	W96
// 007   ----------------------------------------
	BYTE		N23     Fs2 
	BYTE	W24
	BYTE		N03   
	BYTE	W04
	BYTE		        Fs2   v036
	BYTE	W04
	BYTE		        As2   v052
	BYTE	W04
	BYTE		        As2   v036
	BYTE	W04
	BYTE		        Ds3   v052
	BYTE	W04
	BYTE		        Ds3   v036
	BYTE	W04
	BYTE		N07     Cs3   v052
	BYTE	W08
	BYTE		N03     Gs2 
	BYTE	W04
	BYTE		        Gs2   v036
	BYTE	W04
	BYTE		        Cs3   v052
	BYTE	W04
	BYTE		        Cs3   v036
	BYTE	W04
	BYTE		N07     Fn3   v052
	BYTE	W08
	BYTE		N03     Cs3 
	BYTE	W04
	BYTE		        Cs3   v036
	BYTE	W04
	BYTE		        Fn3   v052
	BYTE	W04
	BYTE		        Fn3   v036
	BYTE	W04
// 008   ----------------------------------------
	BYTE		N23     Ds3   v060
	BYTE	W01
	BYTE	W01
	BYTE	W01
	BYTE	W01
	BYTE	W01
	BYTE	W01
	BYTE	W01
	BYTE	W01
	BYTE	W01
	BYTE	W01
	BYTE	W01
	BYTE	W03
	BYTE	W03
	BYTE	W03
	BYTE	W03
	BYTE	W01
	BYTE		        As3   v052
	BYTE	W02
	BYTE	W03
	BYTE	W03
	BYTE	W03
	BYTE	W03
	BYTE	W03
	BYTE	W03
	BYTE	W03
	BYTE	W01
	BYTE		        Ds4 
	BYTE	W02
	BYTE	W03
	BYTE	W03
	BYTE	W03
	BYTE	W03
	BYTE	W03
	BYTE	W03
	BYTE	W03
	BYTE	W01
	BYTE		        As4 
	BYTE	W02
	BYTE	W03
	BYTE	W03
	BYTE	W03
	BYTE	W03
	BYTE	W02
	BYTE	W08
// 009   ----------------------------------------
	BYTE		VOICE   11
	BYTE		VOL     100*Victory_A_Insertable_mvl/mxv
	BYTE		PAN     c_v-41
	BYTE		N07     Cs2   v084
	BYTE	W08
	BYTE		        Gs2   v076
	BYTE	W08
	BYTE		        Cn3   v088
	BYTE	W07
	BYTE		N08     Fn3   v080
	BYTE	W24
	BYTE	W01
	BYTE		N07     Ds2   v084
	BYTE	W08
	BYTE		        Gs2 
	BYTE	W08
	BYTE		        As2   v072
	BYTE	W08
	BYTE		N08     Gn3   v080
	BYTE	W24
// 010   ----------------------------------------
	BYTE		N07     Cn2   v072
	BYTE	W08
	BYTE		        Gn2   v084
	BYTE	W08
	BYTE		        Cn3   v080
	BYTE	W08
	BYTE		        Ds3   v088
	BYTE	W08
	BYTE		        As3   v084
	BYTE	W08
	BYTE		        Ds3 
	BYTE	W08
	BYTE		        Cn2 
	BYTE	W08
	BYTE		        Gs2   v080
	BYTE	W08
	BYTE		        Fn3   v084
	BYTE	W08
	BYTE		        Cn4   v076
	BYTE	W08
	BYTE		        Fn3   v080
	BYTE	W08
	BYTE		        Cn3   v076
	BYTE	W08
// 011   ----------------------------------------
	BYTE		        Cs2   v084
	BYTE	W08
	BYTE		        Gs2   v080
	BYTE	W08
	BYTE		        Cn3 
	BYTE	W08
	BYTE		N08     Fn3 
	BYTE	W23
	BYTE		N07     Ds2 
	BYTE	W09
	BYTE		        Gs2 
	BYTE	W08
	BYTE		        As2   v084
	BYTE	W08
	BYTE		N08     Gn3 
	BYTE	W24
// 012   ----------------------------------------
	BYTE		N07     Cn2   v080
	BYTE	W08
	BYTE		        Gn2   v076
	BYTE	W08
	BYTE		        Cn3   v088
	BYTE	W08
	BYTE		        En3   v080
	BYTE	W08
	BYTE		        Gn3   v088
	BYTE	W08
	BYTE		        En3   v076
	BYTE	W08
	BYTE		N03     Gn3   v080
	BYTE	W03
	BYTE		        Cn4   v076
	BYTE	W05
	BYTE		        Dn4   v080
	BYTE	W04
	BYTE		        En4   v084
	BYTE	W04
	BYTE		        Gn4   v080
	BYTE	W04
	BYTE		        Cn5 
	BYTE	W03
	BYTE		        En5   v084
	BYTE	W05
	BYTE		        Cn5   v080
	BYTE	W04
	BYTE		        Gn4   v076
	BYTE	W04
	BYTE		        En4   v084
	BYTE	W04
	BYTE		        Cn4   v080
	BYTE	W04
	BYTE		        Gn3   v084
	BYTE	W04
// 013   ----------------------------------------
	BYTE		        Cs2   v088
	BYTE	W03
	BYTE		        Gs2 
	BYTE	W04
	BYTE		        Cn3 
	BYTE	W05
	BYTE		        Cs3   v084
	BYTE	W03
	BYTE		        Fn3   v080
	BYTE	W05
	BYTE		        Cn4   v088
	BYTE	W03
	BYTE		N08     Fn4   v084
	BYTE	W24
	BYTE	W01
	BYTE		N03     Ds2 
	BYTE	W04
	BYTE		        Gs2 
	BYTE	W03
	BYTE		        As2   v088
	BYTE	W04
	BYTE		        Ds3   v084
	BYTE	W04
	BYTE		        Gs3 
	BYTE	W04
	BYTE		        As3 
	BYTE	W05
	BYTE		N08     Gn4   v088
	BYTE	W24
// 014   ----------------------------------------
	BYTE		N03     Cn2 
	BYTE	W04
	BYTE		        Gn2   v084
	BYTE	W04
	BYTE		        Cn3 
	BYTE	W04
	BYTE		        Ds3 
	BYTE	W04
	BYTE		        As3   v076
	BYTE	W04
	BYTE		        Ds4 
	BYTE	W04
	BYTE		        Gn4   v080
	BYTE	W24
	BYTE		        Cn2   v084
	BYTE	W03
	BYTE		        Gs2 
	BYTE	W04
	BYTE		        Fn3 
	BYTE	W04
	BYTE		        Cn4   v092
	BYTE	W05
	BYTE		        Fn3   v084
	BYTE	W04
	BYTE		        Cn3   v092
	BYTE	W04
	BYTE		        Fn2 
	BYTE	W04
	BYTE		        Cn3   v088
	BYTE	W04
	BYTE		        Fn3 
	BYTE	W04
	BYTE		        Gs3 
	BYTE	W04
	BYTE		        Cn4   v080
	BYTE	W04
	BYTE		N08     Fn4   v092
	BYTE	W04
// 015   ----------------------------------------
	BYTE	W96
// 016   ----------------------------------------
	BYTE		PAN     c_v+42
	BYTE		N07     Ds3   v088
	BYTE	W03
	BYTE	W01
	BYTE	W02
	BYTE	W02
	BYTE		N03     As2 
	BYTE	W01
	BYTE	W01
	BYTE	W02
	BYTE		        As2   v064
	BYTE	W01
	BYTE	W02
	BYTE	W01
	BYTE		        Ds3   v088
	BYTE	W02
	BYTE	W01
	BYTE	W01
	BYTE		        Ds3   v064
	BYTE	W01
	BYTE	W01
	BYTE	W02
	BYTE		N07     Gn3   v088
	BYTE	W01
	BYTE	W02
	BYTE	W01
	BYTE	W02
	BYTE	W01
	BYTE	W01
	BYTE		N03     Ds3 
	BYTE	W01
	BYTE	W01
	BYTE	W02
	BYTE		        Ds3   v064
	BYTE	W01
	BYTE	W02
	BYTE	W01
	BYTE		        Gn3   v088
	BYTE	W02
	BYTE	W01
	BYTE	W01
	BYTE		        Gn3   v064
	BYTE	W01
	BYTE	W01
	BYTE	W02
	BYTE		N07     As3   v088
	BYTE	W08
	BYTE		N03     Gn4   v072
	BYTE	W04
	BYTE		        Gn4   v052
	BYTE	W01
	BYTE	W01
	BYTE	W02
	BYTE		        Ds4   v072
	BYTE	W01
	BYTE	W02
	BYTE	W01
	BYTE		        Ds4   v052
	BYTE	W02
	BYTE	W01
	BYTE	W01
	BYTE		        As3   v088
	BYTE	W01
	BYTE	W01
	BYTE	W02
	BYTE		        As3   v064
	BYTE	W01
	BYTE	W02
	BYTE	W01
	BYTE		        Gs3   v088
	BYTE	W02
	BYTE	W01
	BYTE	W01
	BYTE		        Gs3   v064
	BYTE	W01
	BYTE	W01
	BYTE	W02
	BYTE		        Gn3   v088
	BYTE	W01
	BYTE	W02
	BYTE	W01
	BYTE		        Gn3   v064
	BYTE	W02
	BYTE	W01
	BYTE	W01
// 017   ----------------------------------------
	BYTE		N92     Fn3   v080
	BYTE	W14
	BYTE	W07
	BYTE	W10
	BYTE	W07
	BYTE	W10
	BYTE	W07
	BYTE	W03
	BYTE	W07
	BYTE	W07
	BYTE	W03
	BYTE	W07
	BYTE	W03
	BYTE	W07
	BYTE	W04
// 018   ----------------------------------------
	BYTE		N68     Gn3   v076
	BYTE	W03
	BYTE	W03
	BYTE	W04
	BYTE	W03
	BYTE	W04
	BYTE	W03
	BYTE	W03
	BYTE	W04
	BYTE	W03
	BYTE	W04
	BYTE	W03
	BYTE	W03
	BYTE	W04
	BYTE	W03
	BYTE	W04
	BYTE	W03
	BYTE	W03
	BYTE	W04
	BYTE	W03
	BYTE	W04
	BYTE	W03
	BYTE	W01
	BYTE		N03     Ds3   v088
	BYTE	W02
	BYTE	W01
	BYTE	W01
	BYTE		        Ds3   v052
	BYTE	W01
	BYTE	W01
	BYTE	W02
	BYTE		        Fn3   v088
	BYTE	W01
	BYTE	W02
	BYTE	W01
	BYTE		        Fn3   v052
	BYTE	W02
	BYTE	W01
	BYTE	W01
	BYTE		        Gn3   v088
	BYTE	W01
	BYTE	W01
	BYTE	W02
	BYTE		        Gn3   v052
	BYTE	W04
// 019   ----------------------------------------
	BYTE		N07     As3   v092
	BYTE	W02
	BYTE	W03
	BYTE	W03
	BYTE		N03     Gn3 
	BYTE	W03
	BYTE	W01
	BYTE		        Gn3   v052
	BYTE	W02
	BYTE	W02
	BYTE		        As3   v092
	BYTE	W01
	BYTE	W03
	BYTE		        As3   v052
	BYTE	W03
	BYTE	W01
	BYTE		N07     Ds4   v084
	BYTE	W02
	BYTE	W03
	BYTE	W03
	BYTE		N03     As3   v092
	BYTE	W03
	BYTE	W01
	BYTE		        As3   v052
	BYTE	W02
	BYTE	W02
	BYTE		        Ds4   v084
	BYTE	W01
	BYTE	W03
	BYTE		        Ds4   v044
	BYTE	W03
	BYTE	W01
	BYTE		N07     Gn4   v084
	BYTE	W08
	BYTE		N03     Ds4 
	BYTE	W04
	BYTE		        Ds4   v044
	BYTE	W03
	BYTE	W01
	BYTE		        As3   v092
	BYTE	W02
	BYTE	W02
	BYTE		        As3   v052
	BYTE	W01
	BYTE	W03
	BYTE		        Gn3   v092
	BYTE	W03
	BYTE	W01
	BYTE		        Gn3   v052
	BYTE	W02
	BYTE	W02
	BYTE		        Ds3   v092
	BYTE	W01
	BYTE	W03
	BYTE		        Ds3   v052
	BYTE	W03
	BYTE	W01
	BYTE		        As3   v092
	BYTE	W02
	BYTE	W02
	BYTE		        As3   v052
	BYTE	W01
	BYTE	W01
	BYTE	W02
// 020   ----------------------------------------
	BYTE		N07     As3   v056
	BYTE	W96
	BYTE	GoTo
	 POIN2	Victory_A_Insertable_6_B1
Victory_A_Insertable_6_B2:
// 021   ----------------------------------------
	BYTE	FINE

//**************** Track 7 (Midi-Chn.7) ****************//

Victory_A_Insertable_7:
	BYTE	KEYSH   Victory_A_Insertable_key+0
Victory_A_Insertable_7_B1:
// 000   ----------------------------------------
	BYTE		VOICE   48
	BYTE		VOL     80*Victory_A_Insertable_mvl/mxv
	BYTE		PAN     c_v+42
	BYTE		BEND    c_v+0
	BYTE		N03     Gs2   v080
	BYTE	W04
	BYTE		        Gs2   v040
	BYTE	W04
	BYTE		        Cs3   v080
	BYTE	W04
	BYTE		        Cs3   v040
	BYTE	W04
	BYTE		        Ds3   v080
	BYTE	W04
	BYTE		        Ds3   v040
	BYTE	W04
	BYTE		        Cs3   v080
	BYTE	W04
	BYTE		        Cs3   v040
	BYTE	W04
	BYTE		        Ds3   v080
	BYTE	W04
	BYTE		        Ds3   v040
	BYTE	W04
	BYTE		        Gs3   v080
	BYTE	W04
	BYTE		        Gs3   v040
	BYTE	W04
	BYTE		        Ds3   v080
	BYTE	W04
	BYTE		        Ds3   v040
	BYTE	W04
	BYTE		        Gs3   v080
	BYTE	W04
	BYTE		        Gs3   v040
	BYTE	W04
	BYTE		        As3   v080
	BYTE	W04
	BYTE		        As3   v040
	BYTE	W04
	BYTE		        Gs3   v080
	BYTE	W04
	BYTE		        Gs3   v040
	BYTE	W04
	BYTE		        Cs4   v080
	BYTE	W04
	BYTE		        Cs4   v040
	BYTE	W04
	BYTE		        Ds4   v080
	BYTE	W04
	BYTE		        Ds4   v040
	BYTE	W04
// 001   ----------------------------------------
Victory_A_Insertable_7_001:
	BYTE		N03     Gs3   v080
	BYTE	W04
	BYTE		        Gs3   v040
	BYTE	W04
	BYTE		        Cs4   v080
	BYTE	W04
	BYTE		        Cs4   v040
	BYTE	W04
	BYTE		        Ds4   v080
	BYTE	W04
	BYTE		        Ds4   v040
	BYTE	W04
	BYTE		        Cs4   v080
	BYTE	W04
	BYTE		        Cs4   v040
	BYTE	W04
	BYTE		        Ds4   v080
	BYTE	W04
	BYTE		        Ds4   v040
	BYTE	W04
	BYTE		        Gs4   v064
	BYTE	W04
	BYTE		        Gs4   v024
	BYTE	W04
	BYTE		        As4   v064
	BYTE	W04
	BYTE		        As4   v024
	BYTE	W04
	BYTE		        Gs4   v064
	BYTE	W04
	BYTE		        Gs4   v024
	BYTE	W04
	BYTE		        Ds4   v080
	BYTE	W04
	BYTE		        Ds4   v040
	BYTE	W04
	BYTE		        Cs4   v080
	BYTE	W04
	BYTE		        Cs4   v040
	BYTE	W04
	BYTE		        Fs3   v080
	BYTE	W04
	BYTE		        Fs3   v040
	BYTE	W04
	BYTE		        As3   v080
	BYTE	W04
	BYTE		        As3   v040
	BYTE	W04
	BYTE	PEND
// 002   ----------------------------------------
Victory_A_Insertable_7_002:
	BYTE		N03     Gs2   v080
	BYTE	W04
	BYTE		        Gs2   v040
	BYTE	W04
	BYTE		        Cs3   v080
	BYTE	W04
	BYTE		        Cs3   v040
	BYTE	W04
	BYTE		        Ds3   v080
	BYTE	W04
	BYTE		        Ds3   v040
	BYTE	W04
	BYTE		        Cs3   v080
	BYTE	W04
	BYTE		        Cs3   v040
	BYTE	W04
	BYTE		        Ds3   v080
	BYTE	W04
	BYTE		        Ds3   v040
	BYTE	W04
	BYTE		        Gs3   v080
	BYTE	W04
	BYTE		        Gs3   v040
	BYTE	W04
	BYTE		        Ds3   v080
	BYTE	W04
	BYTE		        Ds3   v040
	BYTE	W04
	BYTE		        Gs3   v080
	BYTE	W04
	BYTE		        Gs3   v040
	BYTE	W04
	BYTE		        As3   v080
	BYTE	W04
	BYTE		        As3   v040
	BYTE	W04
	BYTE		        Gs3   v080
	BYTE	W04
	BYTE		        Gs3   v040
	BYTE	W04
	BYTE		        Cs4   v080
	BYTE	W04
	BYTE		        Cs4   v040
	BYTE	W04
	BYTE		        Ds4   v080
	BYTE	W04
	BYTE		        Ds4   v040
	BYTE	W04
	BYTE	PEND
// 003   ----------------------------------------
	BYTE	PATT
	 POIN2	Victory_A_Insertable_7_001
// 004   ----------------------------------------
	BYTE	PATT
	 POIN2	Victory_A_Insertable_7_002
// 005   ----------------------------------------
	BYTE	PATT
	 POIN2	Victory_A_Insertable_7_001
// 006   ----------------------------------------
	BYTE	PATT
	 POIN2	Victory_A_Insertable_7_002
// 007   ----------------------------------------
	BYTE	PATT
	 POIN2	Victory_A_Insertable_7_001
// 008   ----------------------------------------
	BYTE	W92
	BYTE	W02
	BYTE		BEND    c_v+0
	BYTE	W02
// 009   ----------------------------------------
	BYTE		VOICE   14
	BYTE		VOL     100*Victory_A_Insertable_mvl/mxv
	BYTE		PAN     c_v+14
	BYTE		BEND    c_v+1
	BYTE		N44     Gs1   v072
	BYTE		N44     Fn2 
	BYTE		N44     Cs3   v076
	BYTE	W09
	BYTE	W06
	BYTE	W07
	BYTE	W06
	BYTE	W06
	BYTE	W07
	BYTE	W03
	BYTE	W04
	BYTE		        As1   v068
	BYTE		N44     Gn2   v076
	BYTE		N44     Ds3 
	BYTE	W02
	BYTE	W03
	BYTE	W07
	BYTE	W03
	BYTE	W03
	BYTE	W03
	BYTE	W04
	BYTE	W03
	BYTE	W03
	BYTE	W03
	BYTE	W03
	BYTE	W03
	BYTE	W04
	BYTE	W03
	BYTE	W01
// 010   ----------------------------------------
	BYTE		N36     Cn2   v080
	BYTE		N36     Gn2   v076
	BYTE		N36     Ds3 
	BYTE	W02
	BYTE	W03
	BYTE	W03
	BYTE	W03
	BYTE	W04
	BYTE	W03
	BYTE	W03
	BYTE	W19
	BYTE		N07     Cn2   v080
	BYTE		N07     Gn2   v076
	BYTE		N07     En3   v080
	BYTE	W08
	BYTE		N42     Cn2 
	BYTE		N42     Gs2   v084
	BYTE		N42     Fn3   v076
	BYTE	W15
	BYTE	W01
	BYTE	W02
	BYTE	W01
	BYTE	W02
	BYTE	W01
	BYTE	W02
	BYTE	W01
	BYTE	W02
	BYTE	W01
	BYTE	W02
	BYTE	W01
	BYTE	W02
	BYTE	W01
	BYTE	W02
	BYTE	W01
	BYTE	W02
	BYTE	W01
	BYTE	W02
	BYTE	W01
	BYTE	W01
	BYTE		N03     Cn2   v060
	BYTE		N03     Gs2 
	BYTE		N03     Fn3 
	BYTE	W01
	BYTE	W01
	BYTE	W01
	BYTE	W01
// 011   ----------------------------------------
	BYTE		N44     Gs1   v072
	BYTE		N44     Fn2   v076
	BYTE		N44     Cs3   v072
	BYTE	W11
	BYTE	W08
	BYTE	W08
	BYTE	W08
	BYTE	W08
	BYTE	W04
	BYTE	W01
	BYTE		        As1 
	BYTE		N44     Gn2 
	BYTE		N44     Ds3   v068
	BYTE	W07
	BYTE	W04
	BYTE	W04
	BYTE	W08
	BYTE	W04
	BYTE	W04
	BYTE	W04
	BYTE	W04
	BYTE	W04
	BYTE	W04
	BYTE	W01
// 012   ----------------------------------------
	BYTE		N90     Cn2   v072
	BYTE		N90     Gn2   v076
	BYTE		N30     Ds3   v080
	BYTE	W03
	BYTE	W04
	BYTE	W04
	BYTE	W04
	BYTE	W04
	BYTE	W04
	BYTE	W04
	BYTE	W04
	BYTE	W01
	BYTE		N07     Fn3   v084
	BYTE	W03
	BYTE	W04
	BYTE	W01
	BYTE		        Fs3   v080
	BYTE	W03
	BYTE	W01
	BYTE	W04
	BYTE		N42     Gn3   v076
	BYTE	W24
	BYTE	W02
	BYTE	W01
	BYTE	W02
	BYTE	W01
	BYTE	W02
	BYTE	W01
	BYTE	W02
	BYTE	W01
	BYTE	W02
	BYTE	W01
	BYTE	W02
	BYTE	W01
	BYTE	W02
	BYTE		N03     Cn2   v060
	BYTE		N03     Gn2 
	BYTE		N03     Gn3 
	BYTE	W01
	BYTE	W02
	BYTE	W01
// 013   ----------------------------------------
	BYTE		N44     Gs1   v076
	BYTE		N44     Fn2   v072
	BYTE		N44     Cs3 
	BYTE	W10
	BYTE	W11
	BYTE	W07
	BYTE	W08
	BYTE	W07
	BYTE	W05
	BYTE		        As1 
	BYTE		N44     Gn2   v068
	BYTE		N44     Ds3   v076
	BYTE	W02
	BYTE	W07
	BYTE	W04
	BYTE	W07
	BYTE	W04
	BYTE	W07
	BYTE	W03
	BYTE	W04
	BYTE	W04
	BYTE	W06
// 014   ----------------------------------------
	BYTE		N36     Cn2 
	BYTE		N36     Gn2   v084
	BYTE		N36     Ds3 
	BYTE	W01
	BYTE	W03
	BYTE	W04
	BYTE	W04
	BYTE	W03
	BYTE	W04
	BYTE	W03
	BYTE	W04
	BYTE	W04
	BYTE	W03
	BYTE	W04
	BYTE	W03
	BYTE		N07     Cn2 
	BYTE		N07     Gn2 
	BYTE		N07     En3   v088
	BYTE	W04
	BYTE	W04
	BYTE		N42     Cn2   v084
	BYTE		N42     Gs2 
	BYTE		N42     Fn3   v080
	BYTE	W03
	BYTE	W04
	BYTE	W03
	BYTE	W04
	BYTE	W30
	BYTE		N03     Cn2   v060
	BYTE		N03     Gs2 
	BYTE		N03     Fn3 
	BYTE	W04
// 015   ----------------------------------------
	BYTE		N92     Cs2   v084
	BYTE	W96
// 016   ----------------------------------------
	BYTE		        Cs2   v088
	BYTE	W96
// 017   ----------------------------------------
	BYTE		N92   
	BYTE	W96
// 018   ----------------------------------------
	BYTE		        Cs2   v080
	BYTE	W96
// 019   ----------------------------------------
	BYTE		N44     Cs2   v084
	BYTE	W48
	BYTE		        Ds2 
	BYTE	W44
	BYTE	W02
	BYTE		BEND    c_v+1
	BYTE	W02
// 020   ----------------------------------------
	BYTE		        c_v+0
	BYTE	W04
	BYTE		VOICE   127
	BYTE		VOL     25*Victory_A_Insertable_mvl/mxv
	BYTE		PAN     c_v+63
	BYTE	W04
	BYTE		N07     Dn1   v124
	BYTE	W16
	BYTE		N07   
	BYTE	W08
	BYTE		N06     En1   v116
	BYTE	W08
	BYTE		        Dn1 
	BYTE	W08
	BYTE		N07     En1   v112
	BYTE	W08
	BYTE		N06     Dn1   v120
	BYTE	W08
	BYTE		N07     En1   v108
	BYTE	W08
	BYTE		        Dn1   v120
	BYTE	W08
	BYTE		N03   
	BYTE	W04
	BYTE		        En1   v104
	BYTE	W04
	BYTE		        Dn1   v116
	BYTE		N07     Gn2   v076
	BYTE	W04
	BYTE		N03     En1   v104
	BYTE	W04
	BYTE	GoTo
	 POIN2	Victory_A_Insertable_7_B1
Victory_A_Insertable_7_B2:
// 021   ----------------------------------------
	BYTE	FINE

//**************** Track 8 (Midi-Chn.8) ****************//

Victory_A_Insertable_8:
	BYTE	KEYSH   Victory_A_Insertable_key+0
Victory_A_Insertable_8_B1:
// 000   ----------------------------------------
	BYTE		VOICE   124
	BYTE		VOL     82*Victory_A_Insertable_mvl/mxv
	BYTE		PAN     c_v+0
	BYTE		N06     Dn1   v124
	BYTE		N48     Cs2   v068
	BYTE	W08
	BYTE		N07     Cs1   v108
	BYTE	W08
	BYTE		        Dn1   v120
	BYTE	W08
	BYTE		N15     Cs1   v116
	BYTE		N04     En2   v068
	BYTE	W16
	BYTE		N07     Dn1   v120
	BYTE	W08
	BYTE		N07   
	BYTE	W08
	BYTE		N03     Cs1   v104
	BYTE	W04
	BYTE		        Dn1   v127
	BYTE	W04
	BYTE		        Cs1 
	BYTE	W04
	BYTE		        Dn1   v104
	BYTE	W04
	BYTE		N07     Cs1   v127
	BYTE	W08
	BYTE		        Dn1 
	BYTE	W08
	BYTE		        Cs1   v116
	BYTE	W08
// 001   ----------------------------------------
Victory_A_Insertable_8_001:
	BYTE		N19     Dn1   v127
	BYTE	W24
	BYTE		N06     Cs1   v112
	BYTE	W08
	BYTE		        Dn1 
	BYTE	W08
	BYTE		N07     Cs1   v104
	BYTE	W08
	BYTE		N06     Dn1   v120
	BYTE	W08
	BYTE		N07     Cs1   v100
	BYTE	W08
	BYTE		        Dn1   v116
	BYTE	W08
	BYTE		N15     Cs1   v127
	BYTE	W24
	BYTE	PEND
// 002   ----------------------------------------
Victory_A_Insertable_8_002:
	BYTE		N06     Dn1   v124
	BYTE	W08
	BYTE		N07     Cs1   v108
	BYTE	W08
	BYTE		        Dn1   v120
	BYTE	W08
	BYTE		N15     Cs1   v116
	BYTE	W16
	BYTE		N07     Dn1   v120
	BYTE	W08
	BYTE		N07   
	BYTE	W08
	BYTE		N03     Cs1   v104
	BYTE	W04
	BYTE		        Dn1   v127
	BYTE	W04
	BYTE		        Cs1 
	BYTE	W04
	BYTE		        Dn1   v104
	BYTE	W04
	BYTE		N07     Cs1   v127
	BYTE	W08
	BYTE		        Dn1 
	BYTE	W08
	BYTE		        Cs1   v116
	BYTE	W08
	BYTE	PEND
// 003   ----------------------------------------
	BYTE	PATT
	 POIN2	Victory_A_Insertable_8_001
// 004   ----------------------------------------
	BYTE	PATT
	 POIN2	Victory_A_Insertable_8_002
// 005   ----------------------------------------
	BYTE	PATT
	 POIN2	Victory_A_Insertable_8_001
// 006   ----------------------------------------
	BYTE	PATT
	 POIN2	Victory_A_Insertable_8_002
// 007   ----------------------------------------
	BYTE	PATT
	 POIN2	Victory_A_Insertable_8_001
// 008   ----------------------------------------
	BYTE		N07     Dn1   v116
	BYTE	W08
	BYTE		        Cs1 
	BYTE	W08
	BYTE		        Dn1   v120
	BYTE	W08
	BYTE		        Cs1   v108
	BYTE	W16
	BYTE		        Dn1   v116
	BYTE	W08
	BYTE		N03     Dn1   v112
	BYTE	W04
	BYTE		        Cs1   v124
	BYTE	W04
	BYTE		        Dn1   v127
	BYTE	W04
	BYTE		        Cs1   v120
	BYTE	W04
	BYTE		        Dn1   v112
	BYTE	W04
	BYTE		        Cs1   v108
	BYTE	W04
	BYTE		N07     Dn1   v127
	BYTE	W24
// 009   ----------------------------------------
	BYTE	W96
// 010   ----------------------------------------
	BYTE	W96
// 011   ----------------------------------------
	BYTE	W96
// 012   ----------------------------------------
	BYTE		N15     Dn1   v036
	BYTE	W16
	BYTE		N07     Dn1   v024
	BYTE	W08
	BYTE		N15     Dn1   v036
	BYTE	W16
	BYTE		N07     Dn1   v024
	BYTE	W08
	BYTE		N11   
	BYTE	W12
	BYTE		N03   
	BYTE	W04
	BYTE		        Dn1   v020
	BYTE	W04
	BYTE		        Dn1   v024
	BYTE	W04
	BYTE		N23     Cn2   v032
	BYTE	W24
// 013   ----------------------------------------
	BYTE		N03     Dn1   v028
	BYTE	W04
	BYTE		        Dn1   v020
	BYTE	W04
	BYTE		        Dn1   v012
	BYTE	W04
	BYTE		        Dn1   v004
	BYTE	W84
// 014   ----------------------------------------
	BYTE	W96
// 015   ----------------------------------------
Victory_A_Insertable_8_015:
	BYTE		N06     Dn1   v112
	BYTE	W08
	BYTE		N07     Cs1   v096
	BYTE	W08
	BYTE		        Dn1   v108
	BYTE	W08
	BYTE		N15     Cs1   v104
	BYTE	W16
	BYTE		N07     Dn1   v108
	BYTE	W08
	BYTE		N07   
	BYTE	W08
	BYTE		N03     Cs1   v092
	BYTE	W04
	BYTE		        Dn1   v112
	BYTE	W04
	BYTE		        Cs1   v116
	BYTE	W04
	BYTE		        Dn1   v092
	BYTE	W04
	BYTE		N07     Cs1   v112
	BYTE	W08
	BYTE		        Dn1 
	BYTE	W08
	BYTE		        Cs1   v104
	BYTE	W08
	BYTE	PEND
// 016   ----------------------------------------
	BYTE		N19     Dn1   v116
	BYTE	W24
	BYTE		N06     Cs1   v100
	BYTE	W08
	BYTE		        Dn1 
	BYTE	W08
	BYTE		N07     Cs1   v092
	BYTE	W08
	BYTE		N06     Dn1   v108
	BYTE	W08
	BYTE		N07     Cs1   v092
	BYTE	W08
	BYTE		        Dn1   v104
	BYTE	W08
	BYTE		N15     Cs1   v112
	BYTE	W24
// 017   ----------------------------------------
	BYTE	PATT
	 POIN2	Victory_A_Insertable_8_015
// 018   ----------------------------------------
	BYTE		N19     Dn1   v120
	BYTE	W24
	BYTE		N06     Cs1   v104
	BYTE	W08
	BYTE		        Dn1 
	BYTE	W08
	BYTE		N07     Cs1   v096
	BYTE	W08
	BYTE		N06     Dn1   v112
	BYTE	W08
	BYTE		N07     Cs1   v096
	BYTE	W08
	BYTE		        Dn1   v108
	BYTE	W08
	BYTE		N15     Fn1   v100
	BYTE	W16
	BYTE		N02     Cs1   v108
	BYTE	W08
// 019   ----------------------------------------
	BYTE	PATT
	 POIN2	Victory_A_Insertable_8_015
// 020   ----------------------------------------
	BYTE		N07     Dn1   v124
	BYTE	W16
	BYTE		N07   
	BYTE	W08
	BYTE		N06     Cs1   v116
	BYTE	W08
	BYTE		        Dn1 
	BYTE	W08
	BYTE		N07     Cs1   v112
	BYTE	W08
	BYTE		N06     Dn1   v120
	BYTE	W08
	BYTE		N07     Cs1   v108
	BYTE	W08
	BYTE		        Dn1   v120
	BYTE	W08
	BYTE		N03   
	BYTE	W04
	BYTE		        Cs1   v104
	BYTE	W04
	BYTE		        Dn1   v116
	BYTE		N07     Gn2   v076
	BYTE	W04
	BYTE		N03     Cs1   v104
	BYTE	W04
	BYTE		        Dn1   v108
	BYTE		N07     Gn2   v076
	BYTE	W04
	BYTE		N03     Cs1   v116
	BYTE	W04
	BYTE	GoTo
	 POIN2	Victory_A_Insertable_8_B1
Victory_A_Insertable_8_B2:
// 021   ----------------------------------------
	BYTE	FINE

//******************************************************//
	ALIGN 4

Victory_A_Insertable:
	BYTE	8	// NumTrks
	BYTE	0	// NumBlks
	BYTE	Victory_A_Insertable_pri	// Priority
	BYTE	Victory_A_Insertable_rev	// Reverb.

	POIN2	Victory_A_Insertable_grp

	POIN2	Victory_A_Insertable_1
	POIN2	Victory_A_Insertable_2
	POIN2	Victory_A_Insertable_3
	POIN2	Victory_A_Insertable_4
	POIN2	Victory_A_Insertable_5
	POIN2	Victory_A_Insertable_6
	POIN2	Victory_A_Insertable_7
	POIN2	Victory_A_Insertable_8

	
