//Event file generated from Sappy .s format.
	#include "MPlayDef.event"

	#define	Victory_A_FE3version_Insertable_grp  voicegroup000
	#define	Victory_A_FE3version_Insertable_pri  0
	#define	Victory_A_FE3version_Insertable_rev  0
	#define	Victory_A_FE3version_Insertable_mvl  85
	#define	Victory_A_FE3version_Insertable_key  0
	#define	Victory_A_FE3version_Insertable_tbs  1
	#define	Victory_A_FE3version_Insertable_exg  0
	#define	Victory_A_FE3version_Insertable_cmp  1

	// .rodata
	//	Victory_A_FE3version_Insertable
	ALIGN 4

//**************** Track 1 (Midi-Chn.1) ****************//

Victory_A_FE3version_Insertable_1:
	BYTE	KEYSH   Victory_A_FE3version_Insertable_key+0
Victory_A_FE3version_Insertable_1_B1:
// 000   ----------------------------------------
	BYTE	TEMPO   63*Victory_A_FE3version_Insertable_tbs/2
	BYTE		VOICE   66
	BYTE		VOL     76*Victory_A_FE3version_Insertable_mvl/mxv
	BYTE		PAN     c_v+25
	BYTE		N68     Fn3   v108
	BYTE	W72
	BYTE		N23     An3 
	BYTE	W24
// 001   ----------------------------------------
Victory_A_FE3version_Insertable_1_001:
	BYTE		N44     Gn3   v108
	BYTE	W48
	BYTE		        Dn3 
	BYTE	W48
	BYTE	PEND
// 002   ----------------------------------------
Victory_A_FE3version_Insertable_1_002:
	BYTE		N68     Fn3   v108
	BYTE	W72
	BYTE		N23     An3 
	BYTE	W24
	BYTE	PEND
// 003   ----------------------------------------
	BYTE	PATT
	 POIN2	Victory_A_FE3version_Insertable_1_001
// 004   ----------------------------------------
	BYTE		N92     Fn3   v108
	BYTE	W96
// 005   ----------------------------------------
Victory_A_FE3version_Insertable_1_005:
	BYTE		N44     Fn3   v108
	BYTE	W48
	BYTE		        Dn3 
	BYTE	W48
	BYTE	PEND
// 006   ----------------------------------------
	BYTE	PATT
	 POIN2	Victory_A_FE3version_Insertable_1_002
// 007   ----------------------------------------
	BYTE	PATT
	 POIN2	Victory_A_FE3version_Insertable_1_001
// 008   ----------------------------------------
	BYTE	PATT
	 POIN2	Victory_A_FE3version_Insertable_1_002
// 009   ----------------------------------------
	BYTE	PATT
	 POIN2	Victory_A_FE3version_Insertable_1_001
// 010   ----------------------------------------
	BYTE		N92     Fn3   v108
	BYTE	W96
// 011   ----------------------------------------
	BYTE	PATT
	 POIN2	Victory_A_FE3version_Insertable_1_005
	BYTE	GoTo
	 POIN2	Victory_A_FE3version_Insertable_1_B1
Victory_A_FE3version_Insertable_1_B2:
// 012   ----------------------------------------
	BYTE	FINE

//**************** Track 2 (Midi-Chn.2) ****************//

Victory_A_FE3version_Insertable_2:
	BYTE	KEYSH   Victory_A_FE3version_Insertable_key+0
Victory_A_FE3version_Insertable_2_B1:
// 000   ----------------------------------------
	BYTE		VOICE   58
	BYTE		VOL     64*Victory_A_FE3version_Insertable_mvl/mxv
	BYTE	W01
	BYTE		PAN     c_v+43
	BYTE	W36
	BYTE		N02     An3   v104
	BYTE	W04
	BYTE		N02   
	BYTE	W04
	BYTE		N02   
	BYTE	W04
	BYTE		N23   
	BYTE	W24
	BYTE		N02     Cn4 
	BYTE	W04
	BYTE		N02   
	BYTE	W04
	BYTE		N02   
	BYTE	W04
	BYTE		N11     Fn4 
	BYTE	W11
// 001   ----------------------------------------
Victory_A_FE3version_Insertable_2_001:
	BYTE	W01
	BYTE		N32     Gn4   v104
	BYTE	W36
	BYTE		N03     Dn4 
	BYTE	W08
	BYTE		        Bn3 
	BYTE	W04
	BYTE		N11     Dn4 
	BYTE	W12
	BYTE		N23     Gn3 
	BYTE	W32
	BYTE		N03     Dn3 
	BYTE	W03
	BYTE	PEND
// 002   ----------------------------------------
Victory_A_FE3version_Insertable_2_002:
	BYTE	W01
	BYTE		N11     Fn3   v104
	BYTE	W16
	BYTE		N03     An3 
	BYTE	W04
	BYTE		        Cn4 
	BYTE	W04
	BYTE		N23     Fn4 
	BYTE	W24
	BYTE		N02     An3   v108
	BYTE	W04
	BYTE		        Cn4   v096
	BYTE	W04
	BYTE		        Fn4 
	BYTE	W04
	BYTE		N22     An4   v104
	BYTE	W24
	BYTE		N03     Cn5 
	BYTE	W08
	BYTE		N03   
	BYTE	W03
	BYTE	PEND
// 003   ----------------------------------------
Victory_A_FE3version_Insertable_2_003:
	BYTE	W01
	BYTE		N92     Bn4   v104
	BYTE	W92
	BYTE	W03
	BYTE	PEND
// 004   ----------------------------------------
	BYTE	W96
// 005   ----------------------------------------
	BYTE	W96
// 006   ----------------------------------------
	BYTE		PAN     c_v+0
	BYTE	W01
	BYTE		        c_v+43
	BYTE	W36
	BYTE		N02     An3 
	BYTE	W04
	BYTE		N02   
	BYTE	W04
	BYTE		N02   
	BYTE	W04
	BYTE		N23   
	BYTE	W24
	BYTE		N02     Cn4 
	BYTE	W04
	BYTE		N02   
	BYTE	W04
	BYTE		N02   
	BYTE	W04
	BYTE		N11     Fn4 
	BYTE	W11
// 007   ----------------------------------------
	BYTE	PATT
	 POIN2	Victory_A_FE3version_Insertable_2_001
// 008   ----------------------------------------
	BYTE	PATT
	 POIN2	Victory_A_FE3version_Insertable_2_002
// 009   ----------------------------------------
	BYTE	PATT
	 POIN2	Victory_A_FE3version_Insertable_2_003
// 010   ----------------------------------------
	BYTE	W96
// 011   ----------------------------------------
	BYTE	W96
	BYTE	GoTo
	 POIN2	Victory_A_FE3version_Insertable_2_B1
Victory_A_FE3version_Insertable_2_B2:
// 012   ----------------------------------------
	BYTE		PAN     c_v+0
	BYTE	FINE

//**************** Track 3 (Midi-Chn.3) ****************//

Victory_A_FE3version_Insertable_3:
	BYTE	KEYSH   Victory_A_FE3version_Insertable_key+0
Victory_A_FE3version_Insertable_3_B1:
// 000   ----------------------------------------
	BYTE		VOICE   77
	BYTE		VOL     64*Victory_A_FE3version_Insertable_mvl/mxv
	BYTE		N03     Cn2   v104
	BYTE	W04
	BYTE		        En2 
	BYTE	W04
	BYTE		        An2 
	BYTE	W04
	BYTE		        Cn3 
	BYTE	W04
	BYTE		        En3 
	BYTE	W04
	BYTE		        An3 
	BYTE	W04
	BYTE		        Cn4 
	BYTE	W04
	BYTE		        An3 
	BYTE	W04
	BYTE		        En3 
	BYTE	W04
	BYTE		        Cn3 
	BYTE	W04
	BYTE		        An2 
	BYTE	W04
	BYTE		        En2 
	BYTE	W04
	BYTE		        Cn2 
	BYTE	W04
	BYTE		        En2 
	BYTE	W04
	BYTE		        An2 
	BYTE	W04
	BYTE		        Cn3 
	BYTE	W04
	BYTE		        En3 
	BYTE	W04
	BYTE		        An3 
	BYTE	W04
	BYTE		        Cn4 
	BYTE	W04
	BYTE		        An3 
	BYTE	W04
	BYTE		        En3 
	BYTE	W04
	BYTE		        Cn3 
	BYTE	W04
	BYTE		        An2 
	BYTE	W04
	BYTE		        En2 
	BYTE	W04
// 001   ----------------------------------------
Victory_A_FE3version_Insertable_3_001:
	BYTE		N03     Bn1   v104
	BYTE	W04
	BYTE		        Dn2 
	BYTE	W04
	BYTE		        Gn2 
	BYTE	W04
	BYTE		        Bn2 
	BYTE	W04
	BYTE		        Dn3 
	BYTE	W04
	BYTE		        Gn3 
	BYTE	W04
	BYTE		        Bn3 
	BYTE	W04
	BYTE		        Gn3 
	BYTE	W04
	BYTE		        Dn3 
	BYTE	W04
	BYTE		        Bn2 
	BYTE	W04
	BYTE		        Gn2 
	BYTE	W04
	BYTE		        Dn2 
	BYTE	W04
	BYTE		        Bn1 
	BYTE	W04
	BYTE		        Dn2 
	BYTE	W04
	BYTE		        Gn2 
	BYTE	W04
	BYTE		        Bn2 
	BYTE	W04
	BYTE		        Dn3 
	BYTE	W04
	BYTE		        Gn3 
	BYTE	W04
	BYTE		        Bn3 
	BYTE	W04
	BYTE		        Gn3 
	BYTE	W04
	BYTE		        Dn3 
	BYTE	W04
	BYTE		        Bn2 
	BYTE	W04
	BYTE		        Gn2 
	BYTE	W04
	BYTE		        Dn2 
	BYTE	W04
	BYTE	PEND
// 002   ----------------------------------------
Victory_A_FE3version_Insertable_3_002:
	BYTE		N03     Cn2   v104
	BYTE	W04
	BYTE		        En2 
	BYTE	W04
	BYTE		        An2 
	BYTE	W04
	BYTE		        Cn3 
	BYTE	W04
	BYTE		        En3 
	BYTE	W04
	BYTE		        An3 
	BYTE	W04
	BYTE		        Cn4 
	BYTE	W04
	BYTE		        An3 
	BYTE	W04
	BYTE		        En3 
	BYTE	W04
	BYTE		        Cn3 
	BYTE	W04
	BYTE		        An2 
	BYTE	W04
	BYTE		        En2 
	BYTE	W04
	BYTE		        Cn2 
	BYTE	W04
	BYTE		        En2 
	BYTE	W04
	BYTE		        An2 
	BYTE	W04
	BYTE		        Cn3 
	BYTE	W04
	BYTE		        En3 
	BYTE	W04
	BYTE		        An3 
	BYTE	W04
	BYTE		        Cn4 
	BYTE	W04
	BYTE		        An3 
	BYTE	W04
	BYTE		        En3 
	BYTE	W04
	BYTE		        Cn3 
	BYTE	W04
	BYTE		        An2 
	BYTE	W04
	BYTE		        En2 
	BYTE	W04
	BYTE	PEND
// 003   ----------------------------------------
	BYTE	PATT
	 POIN2	Victory_A_FE3version_Insertable_3_001
// 004   ----------------------------------------
Victory_A_FE3version_Insertable_3_004:
	BYTE		N03     An1   v104
	BYTE	W04
	BYTE		        Cn2 
	BYTE	W04
	BYTE		        En2 
	BYTE	W04
	BYTE		        An2 
	BYTE	W04
	BYTE		        Cn3 
	BYTE	W04
	BYTE		        En3 
	BYTE	W04
	BYTE		        An3 
	BYTE	W04
	BYTE		        En3 
	BYTE	W04
	BYTE		        Cn3 
	BYTE	W04
	BYTE		        An2 
	BYTE	W04
	BYTE		        En2 
	BYTE	W04
	BYTE		        Cn2 
	BYTE	W04
	BYTE		        An1 
	BYTE	W04
	BYTE		        Cn2 
	BYTE	W04
	BYTE		        En2 
	BYTE	W04
	BYTE		        An2 
	BYTE	W04
	BYTE		        Cn3 
	BYTE	W04
	BYTE		        En3 
	BYTE	W04
	BYTE		        An3 
	BYTE	W04
	BYTE		        En3 
	BYTE	W04
	BYTE		        Cn3 
	BYTE	W04
	BYTE		        An2 
	BYTE	W04
	BYTE		        En2 
	BYTE	W04
	BYTE		        Cn2 
	BYTE	W04
	BYTE	PEND
// 005   ----------------------------------------
Victory_A_FE3version_Insertable_3_005:
	BYTE		N03     An1   v104
	BYTE	W04
	BYTE		        Cn2 
	BYTE	W04
	BYTE		        En2 
	BYTE	W04
	BYTE		        An2 
	BYTE	W04
	BYTE		        Cn3 
	BYTE	W04
	BYTE		        En3 
	BYTE	W04
	BYTE		        An3 
	BYTE	W04
	BYTE		        En3 
	BYTE	W04
	BYTE		        Cn3 
	BYTE	W04
	BYTE		        An2 
	BYTE	W04
	BYTE		        En2 
	BYTE	W04
	BYTE		        Cn2 
	BYTE	W04
	BYTE		        Gn1 
	BYTE	W04
	BYTE		        Bn1 
	BYTE	W04
	BYTE		        Dn2 
	BYTE	W04
	BYTE		        Gn2 
	BYTE	W04
	BYTE		        Bn2 
	BYTE	W04
	BYTE		        Dn3 
	BYTE	W04
	BYTE		        Gn3 
	BYTE	W04
	BYTE		        Dn3 
	BYTE	W04
	BYTE		        Bn2 
	BYTE	W04
	BYTE		        Gn2 
	BYTE	W04
	BYTE		        Bn2 
	BYTE	W04
	BYTE		        Dn3 
	BYTE	W04
	BYTE	PEND
// 006   ----------------------------------------
	BYTE		VOL     64*Victory_A_FE3version_Insertable_mvl/mxv
	BYTE		N03     Cn2 
	BYTE	W04
	BYTE		        En2 
	BYTE	W04
	BYTE		        An2 
	BYTE	W04
	BYTE		        Cn3 
	BYTE	W04
	BYTE		        En3 
	BYTE	W04
	BYTE		        An3 
	BYTE	W04
	BYTE		        Cn4 
	BYTE	W04
	BYTE		        An3 
	BYTE	W04
	BYTE		        En3 
	BYTE	W04
	BYTE		        Cn3 
	BYTE	W04
	BYTE		        An2 
	BYTE	W04
	BYTE		        En2 
	BYTE	W04
	BYTE		        Cn2 
	BYTE	W04
	BYTE		        En2 
	BYTE	W04
	BYTE		        An2 
	BYTE	W04
	BYTE		        Cn3 
	BYTE	W04
	BYTE		        En3 
	BYTE	W04
	BYTE		        An3 
	BYTE	W04
	BYTE		        Cn4 
	BYTE	W04
	BYTE		        An3 
	BYTE	W04
	BYTE		        En3 
	BYTE	W04
	BYTE		        Cn3 
	BYTE	W04
	BYTE		        An2 
	BYTE	W04
	BYTE		        En2 
	BYTE	W04
// 007   ----------------------------------------
	BYTE	PATT
	 POIN2	Victory_A_FE3version_Insertable_3_001
// 008   ----------------------------------------
	BYTE	PATT
	 POIN2	Victory_A_FE3version_Insertable_3_002
// 009   ----------------------------------------
	BYTE	PATT
	 POIN2	Victory_A_FE3version_Insertable_3_001
// 010   ----------------------------------------
	BYTE	PATT
	 POIN2	Victory_A_FE3version_Insertable_3_004
// 011   ----------------------------------------
	BYTE	PATT
	 POIN2	Victory_A_FE3version_Insertable_3_005
	BYTE	GoTo
	 POIN2	Victory_A_FE3version_Insertable_3_B1
Victory_A_FE3version_Insertable_3_B2:
// 012   ----------------------------------------
	BYTE	FINE

//**************** Track 4 (Midi-Chn.4) ****************//

Victory_A_FE3version_Insertable_4:
	BYTE	KEYSH   Victory_A_FE3version_Insertable_key+0
Victory_A_FE3version_Insertable_4_B1:
// 000   ----------------------------------------
	BYTE		VOICE   34
	BYTE		VOL     80*Victory_A_FE3version_Insertable_mvl/mxv
	BYTE		PAN     c_v+0
	BYTE		N10     Dn2   v104
	BYTE	W12
	BYTE		N03     Dn2   v092
	BYTE	W04
	BYTE		N03   
	BYTE	W04
	BYTE		N03   
	BYTE	W04
	BYTE		N10     Dn2   v104
	BYTE	W12
	BYTE		N03     Dn2   v092
	BYTE	W04
	BYTE		N03   
	BYTE	W04
	BYTE		N03   
	BYTE	W04
	BYTE		N10     Dn2   v104
	BYTE	W12
	BYTE		N03     Dn2   v092
	BYTE	W04
	BYTE		N03   
	BYTE	W04
	BYTE		N03   
	BYTE	W04
	BYTE		        Dn2   v104
	BYTE	W04
	BYTE		        Dn2   v092
	BYTE	W04
	BYTE		N03   
	BYTE	W04
	BYTE		N03   
	BYTE	W04
	BYTE		N03   
	BYTE	W04
	BYTE		N03   
	BYTE	W04
// 001   ----------------------------------------
Victory_A_FE3version_Insertable_4_001:
	BYTE		N10     Dn2   v104
	BYTE	W12
	BYTE		N03     Dn2   v092
	BYTE	W04
	BYTE		N03   
	BYTE	W04
	BYTE		N03   
	BYTE	W04
	BYTE		N10     Dn2   v104
	BYTE	W12
	BYTE		N03     Dn2   v092
	BYTE	W04
	BYTE		N03   
	BYTE	W04
	BYTE		N03   
	BYTE	W04
	BYTE		N10     Dn2   v104
	BYTE	W12
	BYTE		N03     Dn2   v092
	BYTE	W04
	BYTE		N03   
	BYTE	W04
	BYTE		N03   
	BYTE	W04
	BYTE		        Dn2   v104
	BYTE	W04
	BYTE		        Dn2   v092
	BYTE	W04
	BYTE		N03   
	BYTE	W04
	BYTE		N03   
	BYTE	W04
	BYTE		N03   
	BYTE	W04
	BYTE		N03   
	BYTE	W04
	BYTE	PEND
// 002   ----------------------------------------
	BYTE	PATT
	 POIN2	Victory_A_FE3version_Insertable_4_001
// 003   ----------------------------------------
	BYTE	PATT
	 POIN2	Victory_A_FE3version_Insertable_4_001
// 004   ----------------------------------------
	BYTE	PATT
	 POIN2	Victory_A_FE3version_Insertable_4_001
// 005   ----------------------------------------
Victory_A_FE3version_Insertable_4_005:
	BYTE		N10     Gn2   v104
	BYTE	W12
	BYTE		N03     Gn2   v092
	BYTE	W04
	BYTE		N03   
	BYTE	W04
	BYTE		N03   
	BYTE	W04
	BYTE		N10     Gn2   v104
	BYTE	W12
	BYTE		N03     Gn2   v092
	BYTE	W04
	BYTE		N03   
	BYTE	W04
	BYTE		N03   
	BYTE	W04
	BYTE		N10     Gn2   v104
	BYTE	W12
	BYTE		N03     Gn2   v092
	BYTE	W04
	BYTE		N03   
	BYTE	W04
	BYTE		N03   
	BYTE	W04
	BYTE		        Gn2   v104
	BYTE	W04
	BYTE		        Gn2   v092
	BYTE	W04
	BYTE		N03   
	BYTE	W04
	BYTE		N03   
	BYTE	W04
	BYTE		N03   
	BYTE	W04
	BYTE		N03   
	BYTE	W04
	BYTE	PEND
// 006   ----------------------------------------
	BYTE	PATT
	 POIN2	Victory_A_FE3version_Insertable_4_001
// 007   ----------------------------------------
	BYTE	PATT
	 POIN2	Victory_A_FE3version_Insertable_4_001
// 008   ----------------------------------------
	BYTE	PATT
	 POIN2	Victory_A_FE3version_Insertable_4_001
// 009   ----------------------------------------
	BYTE	PATT
	 POIN2	Victory_A_FE3version_Insertable_4_001
// 010   ----------------------------------------
	BYTE	PATT
	 POIN2	Victory_A_FE3version_Insertable_4_001
// 011   ----------------------------------------
	BYTE	PATT
	 POIN2	Victory_A_FE3version_Insertable_4_005
	BYTE	GoTo
	 POIN2	Victory_A_FE3version_Insertable_4_B1
Victory_A_FE3version_Insertable_4_B2:
// 012   ----------------------------------------
	BYTE	FINE

//**************** Track 5 (Midi-Chn.5) ****************//

Victory_A_FE3version_Insertable_5:
	BYTE	KEYSH   Victory_A_FE3version_Insertable_key+0
Victory_A_FE3version_Insertable_5_B1:
// 000   ----------------------------------------
	BYTE		VOICE   61
	BYTE		VOL     56*Victory_A_FE3version_Insertable_mvl/mxv
	BYTE		PAN     c_v+25
	BYTE		N68     An3   v108
	BYTE	W72
	BYTE		N23     Cn4 
	BYTE	W24
// 001   ----------------------------------------
Victory_A_FE3version_Insertable_5_001:
	BYTE		N44     Bn3   v108
	BYTE	W48
	BYTE		        Gn3 
	BYTE	W48
	BYTE	PEND
// 002   ----------------------------------------
Victory_A_FE3version_Insertable_5_002:
	BYTE		N68     An3   v108
	BYTE	W72
	BYTE		N23     En4 
	BYTE	W24
	BYTE	PEND
// 003   ----------------------------------------
	BYTE	PATT
	 POIN2	Victory_A_FE3version_Insertable_5_001
// 004   ----------------------------------------
	BYTE		N92     An3   v108
	BYTE	W96
// 005   ----------------------------------------
Victory_A_FE3version_Insertable_5_005:
	BYTE		N44     An3   v108
	BYTE	W48
	BYTE		        Gn3 
	BYTE	W48
	BYTE	PEND
// 006   ----------------------------------------
	BYTE		N68     An3 
	BYTE	W72
	BYTE		N23     Cn4 
	BYTE	W24
// 007   ----------------------------------------
	BYTE	PATT
	 POIN2	Victory_A_FE3version_Insertable_5_001
// 008   ----------------------------------------
	BYTE	PATT
	 POIN2	Victory_A_FE3version_Insertable_5_002
// 009   ----------------------------------------
	BYTE	PATT
	 POIN2	Victory_A_FE3version_Insertable_5_001
// 010   ----------------------------------------
	BYTE		N92     An3   v108
	BYTE	W96
// 011   ----------------------------------------
	BYTE	PATT
	 POIN2	Victory_A_FE3version_Insertable_5_005
	BYTE	GoTo
	 POIN2	Victory_A_FE3version_Insertable_5_B1
Victory_A_FE3version_Insertable_5_B2:
// 012   ----------------------------------------
	BYTE	FINE

//**************** Track 6 (Midi-Chn.6) ****************//

Victory_A_FE3version_Insertable_6:
	BYTE	KEYSH   Victory_A_FE3version_Insertable_key+0
Victory_A_FE3version_Insertable_6_B1:
// 000   ----------------------------------------
	BYTE		VOICE   57
	BYTE		VOL     64*Victory_A_FE3version_Insertable_mvl/mxv
	BYTE		PAN     c_v-25
	BYTE		N68     Cn3   v108
	BYTE	W72
	BYTE		N23     Fn3 
	BYTE	W24
// 001   ----------------------------------------
Victory_A_FE3version_Insertable_6_001:
	BYTE		N44     Dn3   v108
	BYTE	W48
	BYTE		        Bn2 
	BYTE	W48
	BYTE	PEND
// 002   ----------------------------------------
Victory_A_FE3version_Insertable_6_002:
	BYTE		N68     Cn3   v108
	BYTE	W72
	BYTE		N23     Fn3 
	BYTE	W24
	BYTE	PEND
// 003   ----------------------------------------
	BYTE	PATT
	 POIN2	Victory_A_FE3version_Insertable_6_001
// 004   ----------------------------------------
	BYTE		N92     Cn3   v108
	BYTE	W96
// 005   ----------------------------------------
Victory_A_FE3version_Insertable_6_005:
	BYTE		N44     Cn3   v108
	BYTE	W48
	BYTE		        Bn2 
	BYTE	W48
	BYTE	PEND
// 006   ----------------------------------------
	BYTE	PATT
	 POIN2	Victory_A_FE3version_Insertable_6_002
// 007   ----------------------------------------
	BYTE	PATT
	 POIN2	Victory_A_FE3version_Insertable_6_001
// 008   ----------------------------------------
	BYTE	PATT
	 POIN2	Victory_A_FE3version_Insertable_6_002
// 009   ----------------------------------------
	BYTE	PATT
	 POIN2	Victory_A_FE3version_Insertable_6_001
// 010   ----------------------------------------
	BYTE		N92     Cn3   v108
	BYTE	W96
// 011   ----------------------------------------
	BYTE	PATT
	 POIN2	Victory_A_FE3version_Insertable_6_005
	BYTE	GoTo
	 POIN2	Victory_A_FE3version_Insertable_6_B1
Victory_A_FE3version_Insertable_6_B2:
// 012   ----------------------------------------
	BYTE	FINE

//**************** Track 7 (Midi-Chn.8) ****************//

Victory_A_FE3version_Insertable_7:
	BYTE	KEYSH   Victory_A_FE3version_Insertable_key+0
Victory_A_FE3version_Insertable_7_B1:
// 000   ----------------------------------------
	BYTE		VOICE   41
	BYTE		VOL     73*Victory_A_FE3version_Insertable_mvl/mxv
	BYTE		PAN     c_v-14
	BYTE	W36
	BYTE		N02     An3   v104
	BYTE	W04
	BYTE		N02   
	BYTE	W04
	BYTE		N02   
	BYTE	W04
	BYTE		N23   
	BYTE	W24
	BYTE		N02     Cn4 
	BYTE	W04
	BYTE		N02   
	BYTE	W04
	BYTE		N02   
	BYTE	W04
	BYTE		N11     Fn4 
	BYTE	W12
// 001   ----------------------------------------
Victory_A_FE3version_Insertable_7_001:
	BYTE		N32     Gn4   v104
	BYTE	W36
	BYTE		N03     Dn4 
	BYTE	W08
	BYTE		        Bn3 
	BYTE	W04
	BYTE		N11     Dn4 
	BYTE	W12
	BYTE		N23     Gn3 
	BYTE	W32
	BYTE		N03     Dn3 
	BYTE	W04
	BYTE	PEND
// 002   ----------------------------------------
Victory_A_FE3version_Insertable_7_002:
	BYTE		N11     Fn3   v104
	BYTE	W16
	BYTE		N03     An3 
	BYTE	W04
	BYTE		        Cn4 
	BYTE	W04
	BYTE		N23     Fn4 
	BYTE	W24
	BYTE		N02     An3   v108
	BYTE	W04
	BYTE		        Cn4   v096
	BYTE	W04
	BYTE		        Fn4 
	BYTE	W04
	BYTE		N22     An4   v104
	BYTE	W24
	BYTE		N03     Cn5 
	BYTE	W08
	BYTE		N03   
	BYTE	W04
	BYTE	PEND
// 003   ----------------------------------------
	BYTE		N92     Bn4 
	BYTE	W96
// 004   ----------------------------------------
Victory_A_FE3version_Insertable_7_004:
	BYTE		PAN     c_v+25
	BYTE		N23     An4   v112
	BYTE	W24
	BYTE		        Fn4   v108
	BYTE	W24
	BYTE		        Cn4   v104
	BYTE	W24
	BYTE		N07     An3   v100
	BYTE	W08
	BYTE		        Cn4   v104
	BYTE	W08
	BYTE		        Fn4   v108
	BYTE	W08
	BYTE	PEND
// 005   ----------------------------------------
Victory_A_FE3version_Insertable_7_005:
	BYTE		N44     Gn4   v112
	BYTE	W48
	BYTE		        Dn4 
	BYTE	W48
	BYTE	PEND
// 006   ----------------------------------------
	BYTE		PAN     c_v-14
	BYTE	W36
	BYTE		N02     An3   v104
	BYTE	W04
	BYTE		N02   
	BYTE	W04
	BYTE		N02   
	BYTE	W04
	BYTE		N23   
	BYTE	W24
	BYTE		N02     Cn4 
	BYTE	W04
	BYTE		N02   
	BYTE	W04
	BYTE		N02   
	BYTE	W04
	BYTE		N11     Fn4 
	BYTE	W12
// 007   ----------------------------------------
	BYTE	PATT
	 POIN2	Victory_A_FE3version_Insertable_7_001
// 008   ----------------------------------------
	BYTE	PATT
	 POIN2	Victory_A_FE3version_Insertable_7_002
// 009   ----------------------------------------
	BYTE		N92     Bn4   v104
	BYTE	W96
// 010   ----------------------------------------
	BYTE	PATT
	 POIN2	Victory_A_FE3version_Insertable_7_004
// 011   ----------------------------------------
	BYTE	PATT
	 POIN2	Victory_A_FE3version_Insertable_7_005
	BYTE	GoTo
	 POIN2	Victory_A_FE3version_Insertable_7_B1
Victory_A_FE3version_Insertable_7_B2:
// 012   ----------------------------------------
	BYTE	FINE

//**************** Track 8 (Midi-Chn.9) ****************//

Victory_A_FE3version_Insertable_8:
	BYTE	KEYSH   Victory_A_FE3version_Insertable_key+0
Victory_A_FE3version_Insertable_8_B1:
// 000   ----------------------------------------
	BYTE		VOICE   122
	BYTE		VOL     88*Victory_A_FE3version_Insertable_mvl/mxv
	BYTE		N11     Dn1   v108
	BYTE	W12
	BYTE		N03     Dn1   v092
	BYTE	W04
	BYTE		        Dn1   v072
	BYTE	W04
	BYTE		N03   
	BYTE	W04
	BYTE		N11     Dn1   v108
	BYTE	W12
	BYTE		N03     Dn1   v092
	BYTE	W04
	BYTE		        Dn1   v072
	BYTE	W04
	BYTE		N03   
	BYTE	W04
	BYTE		N11     Dn1   v108
	BYTE	W12
	BYTE		N03     Dn1   v092
	BYTE	W04
	BYTE		        Dn1   v072
	BYTE	W04
	BYTE		N03   
	BYTE	W04
	BYTE		        Dn1   v104
	BYTE	W04
	BYTE		        Dn1   v092
	BYTE	W04
	BYTE		        Dn1   v072
	BYTE	W04
	BYTE		N03   
	BYTE	W04
	BYTE		N03   
	BYTE	W04
	BYTE		N03   
	BYTE	W04
// 001   ----------------------------------------
Victory_A_FE3version_Insertable_8_001:
	BYTE		N11     Dn1   v108
	BYTE	W12
	BYTE		N03     Dn1   v092
	BYTE	W04
	BYTE		        Dn1   v072
	BYTE	W04
	BYTE		N03   
	BYTE	W04
	BYTE		N11     Dn1   v108
	BYTE	W12
	BYTE		N03     Dn1   v092
	BYTE	W04
	BYTE		        Dn1   v072
	BYTE	W04
	BYTE		N03   
	BYTE	W04
	BYTE		N11     Dn1   v108
	BYTE	W12
	BYTE		N03     Dn1   v092
	BYTE	W04
	BYTE		        Dn1   v072
	BYTE	W04
	BYTE		N03   
	BYTE	W04
	BYTE		        Dn1   v104
	BYTE	W04
	BYTE		        Dn1   v092
	BYTE	W04
	BYTE		        Dn1   v072
	BYTE	W04
	BYTE		N03   
	BYTE	W04
	BYTE		N03   
	BYTE	W04
	BYTE		N03   
	BYTE	W04
	BYTE	PEND
// 002   ----------------------------------------
	BYTE	PATT
	 POIN2	Victory_A_FE3version_Insertable_8_001
// 003   ----------------------------------------
	BYTE	PATT
	 POIN2	Victory_A_FE3version_Insertable_8_001
// 004   ----------------------------------------
	BYTE	PATT
	 POIN2	Victory_A_FE3version_Insertable_8_001
// 005   ----------------------------------------
	BYTE	PATT
	 POIN2	Victory_A_FE3version_Insertable_8_001
// 006   ----------------------------------------
	BYTE	PATT
	 POIN2	Victory_A_FE3version_Insertable_8_001
// 007   ----------------------------------------
	BYTE	PATT
	 POIN2	Victory_A_FE3version_Insertable_8_001
// 008   ----------------------------------------
	BYTE	PATT
	 POIN2	Victory_A_FE3version_Insertable_8_001
// 009   ----------------------------------------
	BYTE	PATT
	 POIN2	Victory_A_FE3version_Insertable_8_001
// 010   ----------------------------------------
	BYTE	PATT
	 POIN2	Victory_A_FE3version_Insertable_8_001
// 011   ----------------------------------------
	BYTE	PATT
	 POIN2	Victory_A_FE3version_Insertable_8_001
	BYTE	GoTo
	 POIN2	Victory_A_FE3version_Insertable_8_B1
Victory_A_FE3version_Insertable_8_B2:
// 012   ----------------------------------------
	BYTE	FINE

//******************************************************//
	ALIGN 4

Victory_A_FE3version_Insertable:
	BYTE	8	// NumTrks
	BYTE	0	// NumBlks
	BYTE	Victory_A_FE3version_Insertable_pri	// Priority
	BYTE	Victory_A_FE3version_Insertable_rev	// Reverb.

	POIN2	Victory_A_FE3version_Insertable_grp

	POIN2	Victory_A_FE3version_Insertable_1
	POIN2	Victory_A_FE3version_Insertable_2
	POIN2	Victory_A_FE3version_Insertable_3
	POIN2	Victory_A_FE3version_Insertable_4
	POIN2	Victory_A_FE3version_Insertable_5
	POIN2	Victory_A_FE3version_Insertable_6
	POIN2	Victory_A_FE3version_Insertable_7
	POIN2	Victory_A_FE3version_Insertable_8

	
