//Event file generated from Sappy .s format.
	#include "MPlayDef.event"

	#define	WorldMapCh3_grp  voicegroup000
	#define	WorldMapCh3_pri  0
	#define	WorldMapCh3_rev  0
	#define	WorldMapCh3_mvl  85
	#define	WorldMapCh3_key  0
	#define	WorldMapCh3_tbs  1
	#define	WorldMapCh3_exg  0
	#define	WorldMapCh3_cmp  1

	// .rodata
	//	WorldMapCh3
	ALIGN 4

//**************** Track 1 (Midi-Chn.1) ****************//

WorldMapCh3_1:
	BYTE	KEYSH   WorldMapCh3_key+0
// 000   ----------------------------------------
	BYTE	TEMPO   136*WorldMapCh3_tbs/2
	BYTE		VOICE   41
	BYTE		VOL     50*WorldMapCh3_mvl/mxv
	BYTE		PAN     c_v-38
	BYTE	W96
// 001   ----------------------------------------
	BYTE	W96
WorldMapCh3_1_B1:
// 002   ----------------------------------------
	BYTE	W96
// 003   ----------------------------------------
	BYTE	W96
// 004   ----------------------------------------
	BYTE	W96
// 005   ----------------------------------------
	BYTE	W96
// 006   ----------------------------------------
	BYTE	W96
// 007   ----------------------------------------
	BYTE	W96
// 008   ----------------------------------------
	BYTE	W96
// 009   ----------------------------------------
	BYTE	W96
// 010   ----------------------------------------
	BYTE		N42     Dn3   v100
	BYTE		N42     Fn3 
	BYTE	W48
	BYTE		        As3 
	BYTE		N42     Dn4 
	BYTE	W48
// 011   ----------------------------------------
	BYTE		        Ds3 
	BYTE		N42     Dn4 
	BYTE	W48
	BYTE		N21     Gn3 
	BYTE		N21     Cn4 
	BYTE	W24
	BYTE		        Ds3 
	BYTE		N21     As3 
	BYTE	W24
// 012   ----------------------------------------
	BYTE		N32     Fn3 
	BYTE		N32     As3 
	BYTE	W36
	BYTE		N10     Cn3 
	BYTE		N10     An3 
	BYTE	W12
	BYTE		N32     Cn3 
	BYTE		N32     An3 
	BYTE	W36
	BYTE		N10     As3 
	BYTE		N10     Ds4 
	BYTE	W12
// 013   ----------------------------------------
	BYTE		N32     As3 
	BYTE		N32     Ds4 
	BYTE	W36
	BYTE		N10     Fn3 
	BYTE		N10     Dn4 
	BYTE	W12
	BYTE		N42     Fn3 
	BYTE		N42     Dn4 
	BYTE	W48
// 014   ----------------------------------------
	BYTE		N56     As2 
	BYTE		N56     Fn3 
	BYTE	W60
	BYTE		N10     As2 
	BYTE		N10     Fn3 
	BYTE	W12
	BYTE		        Dn3 
	BYTE		N10     As3 
	BYTE	W12
	BYTE		        Fn3 
	BYTE		N10     Dn4 
	BYTE	W12
// 015   ----------------------------------------
	BYTE		N42     As3 
	BYTE		N42     Fn4 
	BYTE	W48
	BYTE		N21     Gn3 
	BYTE		N21     Ds4 
	BYTE	W24
	BYTE		        Gn3 
	BYTE		N21     Dn4 
	BYTE	W24
// 016   ----------------------------------------
	BYTE		N32     Gn3 
	BYTE		N32     Dn4 
	BYTE	W36
	BYTE		N10     Gn3 
	BYTE		N10     Cn4 
	BYTE	W12
	BYTE		N32     Gn3 
	BYTE		N32     Cn4 
	BYTE	W36
	BYTE		N10     Fn3 
	BYTE		N10     As3 
	BYTE	W12
// 017   ----------------------------------------
	BYTE		N32     Fn3 
	BYTE		N32     As3 
	BYTE	W36
	BYTE		N10     Fn3 
	BYTE		N10     An3 
	BYTE	W12
	BYTE		N42     Fn3 
	BYTE		N42     An3 
	BYTE	W48
// 018   ----------------------------------------
	BYTE		N42   
	BYTE		N42     Cn4 
	BYTE	W48
	BYTE		N21     As3 
	BYTE		N21     Dn4 
	BYTE	W24
	BYTE		        Cn4 
	BYTE		N21     Ds4 
	BYTE	W24
// 019   ----------------------------------------
	BYTE		N32     Cn4 
	BYTE		N32     Ds4 
	BYTE	W36
	BYTE		N10     As3 
	BYTE		N10     Dn4 
	BYTE	W12
	BYTE		N42     As3 
	BYTE		N42     Dn4 
	BYTE	W48
// 020   ----------------------------------------
	BYTE		        As3 
	BYTE		N42     Dn4 
	BYTE	W48
	BYTE		N21     Cn4 
	BYTE		N21     En4 
	BYTE	W24
	BYTE		        Dn4 
	BYTE		N21     Fn4 
	BYTE	W24
// 021   ----------------------------------------
	BYTE		N32     Dn4 
	BYTE		N32     Fn4 
	BYTE	W36
	BYTE		N10     Cn4 
	BYTE		N10     En4 
	BYTE	W12
	BYTE		N42     Cn4 
	BYTE		N42     En4 
	BYTE	W48
// 022   ----------------------------------------
	BYTE		        Cn4 
	BYTE		N42     En4 
	BYTE	W48
	BYTE		N21     Dn4 
	BYTE		N21     Fn4 
	BYTE	W24
	BYTE		        En4 
	BYTE		N21     Gn4 
	BYTE	W24
// 023   ----------------------------------------
	BYTE		N32     En4 
	BYTE		N32     Gn4 
	BYTE	W36
	BYTE		N10     Fn4 
	BYTE		N10     An4 
	BYTE	W12
	BYTE		N42     An3 
	BYTE		N42     Dn4 
	BYTE		N42     Fn4 
	BYTE	W48
// 024   ----------------------------------------
	BYTE	W96
// 025   ----------------------------------------
	BYTE	W96
// 026   ----------------------------------------
	BYTE		        An3 
	BYTE	W48
	BYTE		        Cn4 
	BYTE	W48
// 027   ----------------------------------------
	BYTE		        Fn4 
	BYTE	W48
	BYTE		N21     En4 
	BYTE	W24
	BYTE		        Fn4 
	BYTE	W24
// 028   ----------------------------------------
	BYTE		N42     Dn4 
	BYTE	W48
	BYTE		        Cn4 
	BYTE	W48
// 029   ----------------------------------------
	BYTE		N21     As3 
	BYTE	W24
	BYTE		        An3 
	BYTE	W24
	BYTE		        Gn3 
	BYTE	W24
	BYTE		        Cn4 
	BYTE	W24
// 030   ----------------------------------------
	BYTE		N42     An3   v127
	BYTE	W48
	BYTE		        Cn4 
	BYTE	W48
// 031   ----------------------------------------
	BYTE		        As3 
	BYTE	W48
	BYTE		N21     An3 
	BYTE	W24
	BYTE		        Gn3 
	BYTE	W24
// 032   ----------------------------------------
	BYTE		N42     An3 
	BYTE	W48
	BYTE		N16     Gn3 
	BYTE	W18
	BYTE		        An3 
	BYTE	W18
	BYTE		N10     Gn3 
	BYTE	W12
// 033   ----------------------------------------
	BYTE		N42   
	BYTE	W48
	BYTE		        Fs3 
	BYTE	W48
	BYTE	GoTo
	 POIN2	WorldMapCh3_1_B1
WorldMapCh3_1_B2:
// 034   ----------------------------------------
	BYTE	FINE

//**************** Track 2 (Midi-Chn.2) ****************//

WorldMapCh3_2:
	BYTE	KEYSH   WorldMapCh3_key+0
// 000   ----------------------------------------
	BYTE		VOICE   66
	BYTE		VOL     59*WorldMapCh3_mvl/mxv
	BYTE		PAN     c_v+42
	BYTE	W96
// 001   ----------------------------------------
	BYTE		N06     Fn3   v052
	BYTE		N06     As3 
	BYTE	W24
	BYTE		        Fn3   v072
	BYTE		N06     As3 
	BYTE	W24
	BYTE		        Fn3   v092
	BYTE		N06     As3 
	BYTE	W24
	BYTE		        Fn3   v104
	BYTE		N06     As3 
	BYTE	W24
WorldMapCh3_2_B1:
// 002   ----------------------------------------
	BYTE		N42     Dn3   v100
	BYTE		N42     Fn3 
	BYTE	W48
	BYTE		        As3 
	BYTE		N42     Dn4 
	BYTE	W48
// 003   ----------------------------------------
	BYTE		        Gn3 
	BYTE		N42     Dn4 
	BYTE	W48
	BYTE		N21     Gn3 
	BYTE		N21     Cn4 
	BYTE	W24
	BYTE		        Gn3 
	BYTE		N21     As3 
	BYTE	W24
// 004   ----------------------------------------
	BYTE		N32     Fn3 
	BYTE		N32     As3 
	BYTE	W36
	BYTE		N10     Cn3 
	BYTE		N10     An3 
	BYTE	W12
	BYTE		N32     Cn3 
	BYTE		N32     An3 
	BYTE	W36
	BYTE		N10     As3 
	BYTE		N10     Ds4 
	BYTE	W12
// 005   ----------------------------------------
	BYTE		N32     As3 
	BYTE		N32     Ds4 
	BYTE	W36
	BYTE		N10     Fn3 
	BYTE		N10     Dn4 
	BYTE	W12
	BYTE		N42     Fn3 
	BYTE		N42     Dn4 
	BYTE	W48
// 006   ----------------------------------------
	BYTE		N56     As2 
	BYTE		N56     Fn3 
	BYTE	W60
	BYTE		N10     As2 
	BYTE		N10     Fn3 
	BYTE	W12
	BYTE		        Dn3 
	BYTE		N10     As3 
	BYTE	W12
	BYTE		        Fn3 
	BYTE		N10     Dn4 
	BYTE	W12
// 007   ----------------------------------------
	BYTE		N42     As3 
	BYTE		N42     Fn4 
	BYTE	W48
	BYTE		N21     Gn3 
	BYTE		N21     Ds4 
	BYTE	W24
	BYTE		        Gn3 
	BYTE		N21     Dn4 
	BYTE	W24
// 008   ----------------------------------------
	BYTE		N32     Gn3 
	BYTE		N32     Dn4 
	BYTE	W36
	BYTE		N10     Gn3 
	BYTE		N10     Cn4 
	BYTE	W12
	BYTE		N32     Gn3 
	BYTE		N32     Cn4 
	BYTE	W36
	BYTE		N10     Fn3 
	BYTE		N10     As3 
	BYTE	W12
// 009   ----------------------------------------
	BYTE		N32     Fn3 
	BYTE		N32     As3 
	BYTE	W36
	BYTE		N10     Fn3 
	BYTE		N10     An3 
	BYTE	W12
	BYTE		N42     Fn3 
	BYTE		N42     An3 
	BYTE	W48
// 010   ----------------------------------------
	BYTE	W96
// 011   ----------------------------------------
	BYTE	W96
// 012   ----------------------------------------
	BYTE	W96
// 013   ----------------------------------------
	BYTE	W96
// 014   ----------------------------------------
	BYTE	W96
// 015   ----------------------------------------
	BYTE	W96
// 016   ----------------------------------------
	BYTE	W96
// 017   ----------------------------------------
	BYTE	W96
// 018   ----------------------------------------
	BYTE	W96
// 019   ----------------------------------------
	BYTE	W96
// 020   ----------------------------------------
	BYTE	W96
// 021   ----------------------------------------
	BYTE	W96
// 022   ----------------------------------------
	BYTE	W96
// 023   ----------------------------------------
	BYTE	W96
// 024   ----------------------------------------
	BYTE	W12
	BYTE		N05     Fn3   v116
	BYTE		N05     Dn4 
	BYTE	W06
	BYTE		        An3 
	BYTE		N05     En4 
	BYTE	W06
	BYTE		        Dn4 
	BYTE		N08     Fn4 
	BYTE	W12
	BYTE		N05     Fn3 
	BYTE		N05     Dn4 
	BYTE	W06
	BYTE		        An3 
	BYTE		N05     En4 
	BYTE	W06
	BYTE		N42     Dn4   v120
	BYTE		N42     Fn4 
	BYTE	W48
// 025   ----------------------------------------
	BYTE	W12
	BYTE		N05     En3 
	BYTE		N05     Dn4 
	BYTE	W06
	BYTE		        Gn3 
	BYTE		N05     En4 
	BYTE	W06
	BYTE		N09     Cn4 
	BYTE		N08     Fn4 
	BYTE	W12
	BYTE		N05     En3 
	BYTE		N05     Dn4 
	BYTE	W06
	BYTE		        Gn3 
	BYTE		N05     En4 
	BYTE	W06
	BYTE		N21     Cn4 
	BYTE		N21     Fn4 
	BYTE	W24
	BYTE		        En4 
	BYTE		N21     Gn4 
	BYTE	W15
	BYTE	W09
// 026   ----------------------------------------
	BYTE		N42     Cn3   v127
	BYTE		N42     An3 
	BYTE	W48
	BYTE		        En3 
	BYTE		N42     Cn4 
	BYTE	W48
// 027   ----------------------------------------
	BYTE		        An3 
	BYTE		N42     Fn4 
	BYTE	W48
	BYTE		N21     An3 
	BYTE		N21     En4 
	BYTE	W24
	BYTE		        An3 
	BYTE		N21     Fn4 
	BYTE	W24
// 028   ----------------------------------------
	BYTE		N42     As3 
	BYTE		N42     Dn4 
	BYTE	W48
	BYTE		        Fn3 
	BYTE		N42     Cn4 
	BYTE	W48
// 029   ----------------------------------------
	BYTE		N21     Gn3 
	BYTE		N21     As3 
	BYTE	W24
	BYTE		        Cn3 
	BYTE		N21     An3 
	BYTE	W24
	BYTE		        Cn3 
	BYTE		N21     Gn3 
	BYTE	W24
	BYTE		        En3 
	BYTE		N21     Cn4 
	BYTE	W24
// 030   ----------------------------------------
	BYTE		N42     Cn3 
	BYTE		N42     An3 
	BYTE	W48
	BYTE		        Gn3 
	BYTE		N42     Cn4 
	BYTE	W48
// 031   ----------------------------------------
	BYTE		        Fn3 
	BYTE		N42     As3 
	BYTE	W48
	BYTE		N21     Cs3 
	BYTE		N21     An3 
	BYTE	W24
	BYTE		        Cs3 
	BYTE		N21     Gn3 
	BYTE	W24
// 032   ----------------------------------------
	BYTE		N42     Cn3 
	BYTE		N42     Ds3 
	BYTE		N42     An3 
	BYTE	W48
	BYTE		N16     Ds3 
	BYTE		N16     Gn3 
	BYTE	W18
	BYTE		        Ds3 
	BYTE		N16     An3 
	BYTE	W18
	BYTE		N10     Ds3 
	BYTE		N10     Gn3 
	BYTE	W12
// 033   ----------------------------------------
	BYTE		N42     Dn3 
	BYTE		N42     Gn3 
	BYTE	W48
	BYTE		        Dn3 
	BYTE		N42     Fs3 
	BYTE	W48
	BYTE	GoTo
	 POIN2	WorldMapCh3_2_B1
WorldMapCh3_2_B2:
// 034   ----------------------------------------
	BYTE	FINE

//**************** Track 3 (Midi-Chn.3) ****************//

WorldMapCh3_3:
	BYTE	KEYSH   WorldMapCh3_key+0
// 000   ----------------------------------------
	BYTE		VOICE   68
	BYTE		VOL     44*WorldMapCh3_mvl/mxv
	BYTE	W96
// 001   ----------------------------------------
	BYTE	W96
WorldMapCh3_3_B1:
// 002   ----------------------------------------
WorldMapCh3_3_002:
	BYTE		N42     Dn3   v100
	BYTE		N42     Fn3 
	BYTE	W48
	BYTE		        As3 
	BYTE		N42     Dn4 
	BYTE	W48
	BYTE	PEND
// 003   ----------------------------------------
WorldMapCh3_3_003:
	BYTE		N42     Ds3   v100
	BYTE		N42     Dn4 
	BYTE	W48
	BYTE		N21     Gn3 
	BYTE		N21     Cn4 
	BYTE	W24
	BYTE		        Ds3 
	BYTE		N21     As3 
	BYTE	W24
	BYTE	PEND
// 004   ----------------------------------------
WorldMapCh3_3_004:
	BYTE		N32     Fn3   v100
	BYTE		N32     As3 
	BYTE	W36
	BYTE		N10     Cn3 
	BYTE		N10     An3 
	BYTE	W12
	BYTE		N32     Cn3 
	BYTE		N32     An3 
	BYTE	W36
	BYTE		N10     As3 
	BYTE		N10     Ds4 
	BYTE	W12
	BYTE	PEND
// 005   ----------------------------------------
WorldMapCh3_3_005:
	BYTE		N32     As3   v100
	BYTE		N32     Ds4 
	BYTE	W36
	BYTE		N10     Fn3 
	BYTE		N10     Dn4 
	BYTE	W12
	BYTE		N42     Fn3 
	BYTE		N42     Dn4 
	BYTE	W48
	BYTE	PEND
// 006   ----------------------------------------
WorldMapCh3_3_006:
	BYTE		N56     As2   v100
	BYTE		N56     Fn3 
	BYTE	W60
	BYTE		N10     As2 
	BYTE		N10     Fn3 
	BYTE	W12
	BYTE		        Dn3 
	BYTE		N10     As3 
	BYTE	W12
	BYTE		        Fn3 
	BYTE		N10     Dn4 
	BYTE	W12
	BYTE	PEND
// 007   ----------------------------------------
WorldMapCh3_3_007:
	BYTE		N42     As3   v100
	BYTE		N42     Fn4 
	BYTE	W48
	BYTE		N21     Gn3 
	BYTE		N21     Ds4 
	BYTE	W24
	BYTE		        Gn3 
	BYTE		N21     Dn4 
	BYTE	W24
	BYTE	PEND
// 008   ----------------------------------------
WorldMapCh3_3_008:
	BYTE		N32     Gn3   v100
	BYTE		N32     Dn4 
	BYTE	W36
	BYTE		N10     Gn3 
	BYTE		N10     Cn4 
	BYTE	W12
	BYTE		N32     Gn3 
	BYTE		N32     Cn4 
	BYTE	W36
	BYTE		N10     Fn3 
	BYTE		N10     As3 
	BYTE	W12
	BYTE	PEND
// 009   ----------------------------------------
WorldMapCh3_3_009:
	BYTE		N32     Fn3   v100
	BYTE		N32     As3 
	BYTE	W36
	BYTE		N10     Fn3 
	BYTE		N10     An3 
	BYTE	W12
	BYTE		N42     Fn3 
	BYTE		N42     An3 
	BYTE	W48
	BYTE	PEND
// 010   ----------------------------------------
	BYTE	PATT
	 POIN2	WorldMapCh3_3_002
// 011   ----------------------------------------
	BYTE	PATT
	 POIN2	WorldMapCh3_3_003
// 012   ----------------------------------------
	BYTE	PATT
	 POIN2	WorldMapCh3_3_004
// 013   ----------------------------------------
	BYTE	PATT
	 POIN2	WorldMapCh3_3_005
// 014   ----------------------------------------
	BYTE	PATT
	 POIN2	WorldMapCh3_3_006
// 015   ----------------------------------------
	BYTE	PATT
	 POIN2	WorldMapCh3_3_007
// 016   ----------------------------------------
	BYTE	PATT
	 POIN2	WorldMapCh3_3_008
// 017   ----------------------------------------
	BYTE	PATT
	 POIN2	WorldMapCh3_3_009
// 018   ----------------------------------------
	BYTE	W96
// 019   ----------------------------------------
	BYTE	W96
// 020   ----------------------------------------
	BYTE	W96
// 021   ----------------------------------------
	BYTE	W96
// 022   ----------------------------------------
	BYTE	W96
// 023   ----------------------------------------
	BYTE	W96
// 024   ----------------------------------------
	BYTE	W12
	BYTE		N05     Fn3   v116
	BYTE		N05     Dn4 
	BYTE	W06
	BYTE		        An3 
	BYTE		N05     En4 
	BYTE	W06
	BYTE		        Dn4 
	BYTE		N08     Fn4 
	BYTE	W12
	BYTE		N05     Fn3 
	BYTE		N05     Dn4 
	BYTE	W06
	BYTE		        An3 
	BYTE		N05     En4 
	BYTE	W06
	BYTE		N42     Dn4   v120
	BYTE		N42     Fn4 
	BYTE	W48
// 025   ----------------------------------------
	BYTE	W12
	BYTE		N05     En3 
	BYTE		N05     Dn4 
	BYTE	W06
	BYTE		        Gn3 
	BYTE		N05     En4 
	BYTE	W06
	BYTE		N09     Cn4 
	BYTE		N08     Fn4 
	BYTE	W12
	BYTE		N05     En3 
	BYTE		N05     Dn4 
	BYTE	W06
	BYTE		        Gn3 
	BYTE		N05     En4 
	BYTE	W06
	BYTE		N21     Cn4 
	BYTE		N21     Fn4 
	BYTE	W24
	BYTE		        En4 
	BYTE		N21     Gn4 
	BYTE	W24
// 026   ----------------------------------------
	BYTE		N42     An3   v100
	BYTE	W48
	BYTE		        Cn4 
	BYTE	W48
// 027   ----------------------------------------
	BYTE		        Fn4 
	BYTE	W48
	BYTE		N21     En4 
	BYTE	W24
	BYTE		        Fn4 
	BYTE	W24
// 028   ----------------------------------------
	BYTE		N42     Dn4 
	BYTE	W48
	BYTE		        Cn4 
	BYTE	W48
// 029   ----------------------------------------
	BYTE		N21     As3 
	BYTE	W24
	BYTE		        An3 
	BYTE	W24
	BYTE		        Gn3 
	BYTE	W24
	BYTE		        Cn4 
	BYTE	W24
// 030   ----------------------------------------
	BYTE		N42     An3   v127
	BYTE	W48
	BYTE		        Cn4 
	BYTE	W48
// 031   ----------------------------------------
	BYTE		        As3 
	BYTE	W48
	BYTE		N21     An3 
	BYTE	W24
	BYTE		        Gn3 
	BYTE	W24
// 032   ----------------------------------------
	BYTE		N42     An3 
	BYTE	W48
	BYTE		N16     Gn3 
	BYTE	W18
	BYTE		        An3 
	BYTE	W18
	BYTE		N10     Gn3 
	BYTE	W12
// 033   ----------------------------------------
	BYTE		N42   
	BYTE	W48
	BYTE		        Fs3 
	BYTE	W48
	BYTE	GoTo
	 POIN2	WorldMapCh3_3_B1
WorldMapCh3_3_B2:
// 034   ----------------------------------------
	BYTE	FINE

//**************** Track 4 (Midi-Chn.4) ****************//

WorldMapCh3_4:
	BYTE	KEYSH   WorldMapCh3_key+0
// 000   ----------------------------------------
	BYTE		VOICE   2
	BYTE		VOL     66*WorldMapCh3_mvl/mxv
	BYTE		PAN     c_v-23
	BYTE		N06     As1   v044
	BYTE	W24
	BYTE		        As1   v048
	BYTE	W24
	BYTE		        As1   v056
	BYTE	W24
	BYTE		        As1   v064
	BYTE	W24
// 001   ----------------------------------------
	BYTE		        As1   v072
	BYTE	W24
	BYTE		        As1   v080
	BYTE	W24
	BYTE		        As1   v088
	BYTE	W24
	BYTE		        As1   v096
	BYTE	W24
WorldMapCh3_4_B1:
// 002   ----------------------------------------
WorldMapCh3_4_002:
	BYTE		N18     As1   v100
	BYTE	W24
	BYTE		N06   
	BYTE	W08
	BYTE		N06   
	BYTE	W08
	BYTE		N06   
	BYTE	W08
	BYTE		N18   
	BYTE	W24
	BYTE		N06   
	BYTE	W08
	BYTE		N06   
	BYTE	W08
	BYTE		N06   
	BYTE	W08
	BYTE	PEND
// 003   ----------------------------------------
WorldMapCh3_4_003:
	BYTE		N17     Ds1   v100
	BYTE	W24
	BYTE		N06   
	BYTE	W08
	BYTE		N06   
	BYTE	W08
	BYTE		N06   
	BYTE	W08
	BYTE		N17   
	BYTE	W24
	BYTE		N06   
	BYTE	W08
	BYTE		N06   
	BYTE	W08
	BYTE		N06   
	BYTE	W08
	BYTE	PEND
// 004   ----------------------------------------
WorldMapCh3_4_004:
	BYTE		N17     Fn1   v100
	BYTE	W24
	BYTE		N05   
	BYTE	W08
	BYTE		N05   
	BYTE	W08
	BYTE		N05   
	BYTE	W08
	BYTE		N17   
	BYTE	W24
	BYTE		N05   
	BYTE	W08
	BYTE		N05   
	BYTE	W08
	BYTE		N05   
	BYTE	W08
	BYTE	PEND
// 005   ----------------------------------------
WorldMapCh3_4_005:
	BYTE		N17     As1   v100
	BYTE	W24
	BYTE		N05   
	BYTE	W08
	BYTE		N05   
	BYTE	W08
	BYTE		N05   
	BYTE	W08
	BYTE		N17   
	BYTE	W24
	BYTE		N05   
	BYTE	W08
	BYTE		N05   
	BYTE	W08
	BYTE		N05   
	BYTE	W08
	BYTE	PEND
// 006   ----------------------------------------
	BYTE	PATT
	 POIN2	WorldMapCh3_4_005
// 007   ----------------------------------------
	BYTE	PATT
	 POIN2	WorldMapCh3_4_003
// 008   ----------------------------------------
WorldMapCh3_4_008:
	BYTE		N18     En1   v100
	BYTE	W24
	BYTE		N06   
	BYTE	W08
	BYTE		N06   
	BYTE	W08
	BYTE		N06   
	BYTE	W08
	BYTE		N18   
	BYTE	W24
	BYTE		N06   
	BYTE	W08
	BYTE		N06   
	BYTE	W08
	BYTE		N06   
	BYTE	W08
	BYTE	PEND
// 009   ----------------------------------------
	BYTE	PATT
	 POIN2	WorldMapCh3_4_004
// 010   ----------------------------------------
	BYTE	PATT
	 POIN2	WorldMapCh3_4_002
// 011   ----------------------------------------
	BYTE	PATT
	 POIN2	WorldMapCh3_4_003
// 012   ----------------------------------------
	BYTE	PATT
	 POIN2	WorldMapCh3_4_004
// 013   ----------------------------------------
	BYTE	PATT
	 POIN2	WorldMapCh3_4_005
// 014   ----------------------------------------
	BYTE	PATT
	 POIN2	WorldMapCh3_4_005
// 015   ----------------------------------------
	BYTE	PATT
	 POIN2	WorldMapCh3_4_003
// 016   ----------------------------------------
	BYTE	PATT
	 POIN2	WorldMapCh3_4_008
// 017   ----------------------------------------
	BYTE	PATT
	 POIN2	WorldMapCh3_4_004
// 018   ----------------------------------------
	BYTE		N21     Fn1   v100
	BYTE		N21     Fn2 
	BYTE	W24
	BYTE		        Fn1 
	BYTE	W24
	BYTE		        An1 
	BYTE	W24
	BYTE		        Cn2 
	BYTE	W24
// 019   ----------------------------------------
	BYTE		        As1 
	BYTE	W24
	BYTE		N21   
	BYTE	W24
	BYTE		N21   
	BYTE	W24
	BYTE		        An1 
	BYTE	W24
// 020   ----------------------------------------
	BYTE		        Gn1 
	BYTE	W24
	BYTE		N21   
	BYTE	W24
	BYTE		N21   
	BYTE	W24
	BYTE		N21   
	BYTE	W24
// 021   ----------------------------------------
	BYTE		        Cn2 
	BYTE	W24
	BYTE		N21   
	BYTE	W24
	BYTE		N21   
	BYTE	W24
	BYTE		        As1 
	BYTE	W24
// 022   ----------------------------------------
	BYTE		        An1 
	BYTE	W24
	BYTE		N21   
	BYTE	W24
	BYTE		N21   
	BYTE	W24
	BYTE		N21   
	BYTE	W24
// 023   ----------------------------------------
	BYTE		        Dn2 
	BYTE	W24
	BYTE		N21   
	BYTE	W24
	BYTE		N21   
	BYTE	W24
	BYTE		        Cn2 
	BYTE	W24
// 024   ----------------------------------------
	BYTE		N64     As1 
	BYTE	W72
	BYTE		N21   
	BYTE	W24
// 025   ----------------------------------------
	BYTE		N64     Cn2 
	BYTE	W72
	BYTE		N21   
	BYTE	W24
// 026   ----------------------------------------
WorldMapCh3_4_026:
	BYTE		N21     Fn2   v100
	BYTE	W24
	BYTE		N21   
	BYTE	W24
	BYTE		        En2 
	BYTE	W24
	BYTE		N21   
	BYTE	W24
	BYTE	PEND
// 027   ----------------------------------------
	BYTE		        Dn2 
	BYTE	W24
	BYTE		N21   
	BYTE	W24
	BYTE		        Cn2 
	BYTE	W24
	BYTE		N21   
	BYTE	W24
// 028   ----------------------------------------
	BYTE		        As1 
	BYTE	W24
	BYTE		N21   
	BYTE	W24
	BYTE		        An1 
	BYTE	W24
	BYTE		N21   
	BYTE	W24
// 029   ----------------------------------------
	BYTE		        Gn1 
	BYTE	W24
	BYTE		N21   
	BYTE	W24
	BYTE		        Cn2 
	BYTE	W24
	BYTE		N21   
	BYTE	W24
// 030   ----------------------------------------
	BYTE	PATT
	 POIN2	WorldMapCh3_4_026
// 031   ----------------------------------------
	BYTE		N21     Dn2   v100
	BYTE	W24
	BYTE		N21   
	BYTE	W24
	BYTE		        Cs2 
	BYTE	W24
	BYTE		N21   
	BYTE	W24
// 032   ----------------------------------------
	BYTE		        Cn2 
	BYTE	W24
	BYTE		N21   
	BYTE	W24
	BYTE		N21   
	BYTE	W24
	BYTE		N21   
	BYTE	W24
// 033   ----------------------------------------
	BYTE		        Dn2 
	BYTE	W24
	BYTE		N21   
	BYTE	W24
	BYTE		N21   
	BYTE	W24
	BYTE		N21   
	BYTE	W24
	BYTE	GoTo
	 POIN2	WorldMapCh3_4_B1
WorldMapCh3_4_B2:
// 034   ----------------------------------------
	BYTE	FINE

//**************** Track 5 (Midi-Chn.5) ****************//

WorldMapCh3_5:
	BYTE	KEYSH   WorldMapCh3_key+0
// 000   ----------------------------------------
	BYTE		VOICE   73
	BYTE		VOL     54*WorldMapCh3_mvl/mxv
	BYTE	W96
// 001   ----------------------------------------
	BYTE	W96
WorldMapCh3_5_B1:
// 002   ----------------------------------------
	BYTE	W96
// 003   ----------------------------------------
	BYTE	W96
// 004   ----------------------------------------
	BYTE	W96
// 005   ----------------------------------------
	BYTE	W96
// 006   ----------------------------------------
	BYTE	W96
// 007   ----------------------------------------
	BYTE	W96
// 008   ----------------------------------------
	BYTE	W96
// 009   ----------------------------------------
	BYTE	W96
// 010   ----------------------------------------
	BYTE	W96
// 011   ----------------------------------------
	BYTE	W96
// 012   ----------------------------------------
	BYTE	W96
// 013   ----------------------------------------
	BYTE	W96
// 014   ----------------------------------------
	BYTE	W96
// 015   ----------------------------------------
	BYTE	W96
// 016   ----------------------------------------
	BYTE	W96
// 017   ----------------------------------------
	BYTE	W96
// 018   ----------------------------------------
	BYTE		N42     An4   v100
	BYTE		N42     Cn5 
	BYTE	W48
	BYTE		N21     As4 
	BYTE		N21     Dn5 
	BYTE	W24
	BYTE		        Cn5 
	BYTE		N21     Ds5 
	BYTE	W24
// 019   ----------------------------------------
	BYTE		N32     Cn5 
	BYTE		N32     Ds5 
	BYTE	W36
	BYTE		N10     As4 
	BYTE		N10     Dn5 
	BYTE	W12
	BYTE		N42     As4 
	BYTE		N42     Dn5 
	BYTE	W48
// 020   ----------------------------------------
	BYTE		        As4 
	BYTE		N42     Dn5 
	BYTE	W48
	BYTE		N21     Cn5 
	BYTE		N21     En5 
	BYTE	W24
	BYTE		        Dn5 
	BYTE		N21     Fn5 
	BYTE	W24
// 021   ----------------------------------------
	BYTE		N32     Dn5 
	BYTE		N32     Fn5 
	BYTE	W36
	BYTE		N10     Cn5 
	BYTE		N10     En5 
	BYTE	W12
	BYTE		N42     Cn5 
	BYTE		N42     En5 
	BYTE	W48
// 022   ----------------------------------------
	BYTE		        Cn5 
	BYTE		N42     En5 
	BYTE	W48
	BYTE		N21     Dn5 
	BYTE		N21     Fn5 
	BYTE	W24
	BYTE		        En5 
	BYTE		N21     Gn5 
	BYTE	W24
// 023   ----------------------------------------
	BYTE		N32     En5 
	BYTE		N32     Gn5 
	BYTE	W36
	BYTE		N10     Fn5 
	BYTE		N10     An5 
	BYTE	W12
	BYTE		N42     An4 
	BYTE		N42     Dn5 
	BYTE		N42     Fn5 
	BYTE	W48
// 024   ----------------------------------------
	BYTE	W96
// 025   ----------------------------------------
	BYTE	W96
// 026   ----------------------------------------
	BYTE	W96
// 027   ----------------------------------------
	BYTE	W96
// 028   ----------------------------------------
	BYTE	W96
// 029   ----------------------------------------
	BYTE	W96
// 030   ----------------------------------------
	BYTE		        An4   v127
	BYTE	W48
	BYTE		        Cn5 
	BYTE	W48
// 031   ----------------------------------------
	BYTE		        As4 
	BYTE	W48
	BYTE		N21     An4 
	BYTE	W24
	BYTE		        Gn4 
	BYTE	W24
// 032   ----------------------------------------
	BYTE		N42     An4 
	BYTE	W48
	BYTE		N16     Gn4 
	BYTE	W18
	BYTE		        An4 
	BYTE	W18
	BYTE		N10     Gn4 
	BYTE	W12
// 033   ----------------------------------------
	BYTE		N42   
	BYTE	W48
	BYTE		        Fs4 
	BYTE	W48
	BYTE	GoTo
	 POIN2	WorldMapCh3_5_B1
WorldMapCh3_5_B2:
// 034   ----------------------------------------
	BYTE	FINE

//**************** Track 6 (Midi-Chn.6) ****************//

WorldMapCh3_6:
	BYTE	KEYSH   WorldMapCh3_key+0
// 000   ----------------------------------------
	BYTE		VOICE   47
	BYTE		VOL     63*WorldMapCh3_mvl/mxv
	BYTE		PAN     c_v-16
	BYTE		N03     As1   v044
	BYTE	W04
	BYTE		N03   
	BYTE	W04
	BYTE		        As1   v048
	BYTE	W04
	BYTE		N03   
	BYTE	W04
	BYTE		        As1   v052
	BYTE	W04
	BYTE		        As1   v056
	BYTE	W04
	BYTE		N03   
	BYTE	W04
	BYTE		        As1   v060
	BYTE	W04
	BYTE		        As1   v064
	BYTE	W04
	BYTE		N03   
	BYTE	W04
	BYTE		        As1   v068
	BYTE	W04
	BYTE		        As1   v072
	BYTE	W04
	BYTE		N03   
	BYTE	W04
	BYTE		        As1   v076
	BYTE	W04
	BYTE		N03   
	BYTE	W04
	BYTE		        As1   v080
	BYTE	W04
	BYTE		        As1   v084
	BYTE	W04
	BYTE		N03   
	BYTE	W04
	BYTE		        As1   v088
	BYTE	W04
	BYTE		        As1   v092
	BYTE	W04
	BYTE		        As1   v096
	BYTE	W04
	BYTE		        As1   v100
	BYTE	W04
	BYTE		N03   
	BYTE	W04
	BYTE		        As1   v104
	BYTE	W04
// 001   ----------------------------------------
	BYTE		        As1   v092
	BYTE	W04
	BYTE		        As1   v096
	BYTE	W04
	BYTE		N03   
	BYTE	W04
	BYTE		N03   
	BYTE	W04
	BYTE		N03   
	BYTE	W04
	BYTE		        As1   v100
	BYTE	W04
	BYTE		N03   
	BYTE	W04
	BYTE		N03   
	BYTE	W04
	BYTE		        As1   v104
	BYTE	W04
	BYTE		N03   
	BYTE	W04
	BYTE		N03   
	BYTE	W04
	BYTE		N03   
	BYTE	W04
	BYTE		        As1   v108
	BYTE	W04
	BYTE		N03   
	BYTE	W04
	BYTE		N03   
	BYTE	W04
	BYTE		N03   
	BYTE	W04
	BYTE		        As1   v112
	BYTE	W04
	BYTE		N03   
	BYTE	W04
	BYTE		N03   
	BYTE	W04
	BYTE		        As1   v116
	BYTE	W04
	BYTE		N03   
	BYTE	W04
	BYTE		N03   
	BYTE	W04
	BYTE		N03   
	BYTE	W04
	BYTE		        As1   v120
	BYTE	W04
WorldMapCh3_6_B1:
// 002   ----------------------------------------
	BYTE		N10     As1   v116
	BYTE	W02
	BYTE	W22
	BYTE		N21   
	BYTE	W24
	BYTE		N21   
	BYTE	W24
	BYTE		N21   
	BYTE	W24
// 003   ----------------------------------------
WorldMapCh3_6_003:
	BYTE		N21     Ds1   v116
	BYTE	W24
	BYTE		N21   
	BYTE	W24
	BYTE		N21   
	BYTE	W24
	BYTE		N21   
	BYTE	W24
	BYTE	PEND
// 004   ----------------------------------------
WorldMapCh3_6_004:
	BYTE		N21     Fn1   v116
	BYTE	W24
	BYTE		N21   
	BYTE	W24
	BYTE		N21   
	BYTE	W24
	BYTE		N21   
	BYTE	W24
	BYTE	PEND
// 005   ----------------------------------------
WorldMapCh3_6_005:
	BYTE		N21     As1   v116
	BYTE	W24
	BYTE		N21   
	BYTE	W24
	BYTE		N21   
	BYTE	W24
	BYTE		N21   
	BYTE	W24
	BYTE	PEND
// 006   ----------------------------------------
	BYTE	PATT
	 POIN2	WorldMapCh3_6_005
// 007   ----------------------------------------
	BYTE	PATT
	 POIN2	WorldMapCh3_6_003
// 008   ----------------------------------------
	BYTE		N21     En1   v116
	BYTE	W24
	BYTE		N21   
	BYTE	W24
	BYTE		N21   
	BYTE	W24
	BYTE		N21   
	BYTE	W24
// 009   ----------------------------------------
	BYTE	PATT
	 POIN2	WorldMapCh3_6_004
// 010   ----------------------------------------
	BYTE	PATT
	 POIN2	WorldMapCh3_6_005
// 011   ----------------------------------------
	BYTE	PATT
	 POIN2	WorldMapCh3_6_003
// 012   ----------------------------------------
	BYTE	PATT
	 POIN2	WorldMapCh3_6_004
// 013   ----------------------------------------
	BYTE	PATT
	 POIN2	WorldMapCh3_6_005
// 014   ----------------------------------------
	BYTE	PATT
	 POIN2	WorldMapCh3_6_005
// 015   ----------------------------------------
	BYTE	PATT
	 POIN2	WorldMapCh3_6_003
// 016   ----------------------------------------
	BYTE		N21     En1   v116
	BYTE	W24
	BYTE		N21   
	BYTE	W24
	BYTE		N21   
	BYTE	W24
	BYTE		N21   
	BYTE	W20
	BYTE	W04
// 017   ----------------------------------------
	BYTE		N03     As1   v088
	BYTE	W04
	BYTE		N03   
	BYTE	W04
	BYTE		        As1   v092
	BYTE	W04
	BYTE		N03   
	BYTE	W04
	BYTE		N03   
	BYTE	W04
	BYTE		        As1   v096
	BYTE	W04
	BYTE		N03   
	BYTE	W04
	BYTE		N03   
	BYTE	W04
	BYTE		        As1   v100
	BYTE	W04
	BYTE		N03   
	BYTE	W04
	BYTE		N03   
	BYTE	W04
	BYTE		        As1   v104
	BYTE	W04
	BYTE		N03   
	BYTE	W04
	BYTE		N03   
	BYTE	W04
	BYTE		        As1   v108
	BYTE	W04
	BYTE		N03   
	BYTE	W04
	BYTE		N03   
	BYTE	W04
	BYTE		        As1   v112
	BYTE	W04
	BYTE		N03   
	BYTE	W04
	BYTE		N03   
	BYTE	W04
	BYTE		        As1   v116
	BYTE	W04
	BYTE		N03   
	BYTE	W04
	BYTE		        As1   v120
	BYTE	W04
	BYTE		N03   
	BYTE	W04
// 018   ----------------------------------------
	BYTE		N15   
	BYTE	W24
	BYTE	W03
	BYTE		N03     As1   v112
	BYTE	W06
	BYTE		N06   
	BYTE	W09
	BYTE		N03     As1   v116
	BYTE	W06
	BYTE		N24     As1   v104
	BYTE	W24
	BYTE		N24   
	BYTE	W24
// 019   ----------------------------------------
	BYTE	W24
	BYTE		N24   
	BYTE	W24
	BYTE		        Fs1 
	BYTE	W24
	BYTE		        Ds2 
	BYTE	W24
// 020   ----------------------------------------
	BYTE		N15     Dn2 
	BYTE	W24
	BYTE	W03
	BYTE		N03     Dn2   v112
	BYTE	W06
	BYTE		N06   
	BYTE	W09
	BYTE		N03     Dn2   v116
	BYTE	W06
	BYTE		N24     Dn2   v104
	BYTE	W24
	BYTE		N24   
	BYTE	W24
// 021   ----------------------------------------
	BYTE	W24
	BYTE		        As1 
	BYTE	W24
	BYTE		        Ds2 
	BYTE	W24
	BYTE		        Dn2 
	BYTE	W24
// 022   ----------------------------------------
	BYTE		N15     As1 
	BYTE	W24
	BYTE	W03
	BYTE		N03     As1   v112
	BYTE	W06
	BYTE		N06   
	BYTE	W09
	BYTE		N03     As1   v116
	BYTE	W06
	BYTE		N24     As1   v104
	BYTE	W24
	BYTE		N24   
	BYTE	W24
// 023   ----------------------------------------
	BYTE		N03     Cn2   v068
	BYTE	W04
	BYTE		        Cn2   v072
	BYTE	W04
	BYTE		N03   
	BYTE	W04
	BYTE		        Cn2   v076
	BYTE	W04
	BYTE		N03   
	BYTE	W04
	BYTE		        Cn2   v080
	BYTE	W04
	BYTE		        Cn2   v084
	BYTE	W04
	BYTE		N03   
	BYTE	W04
	BYTE		        Cn2   v088
	BYTE	W04
	BYTE		N03   
	BYTE	W04
	BYTE		        Cn2   v092
	BYTE	W04
	BYTE		N03   
	BYTE	W04
	BYTE		        Cn2   v096
	BYTE	W04
	BYTE		        Cn2   v100
	BYTE	W04
	BYTE		N03   
	BYTE	W04
	BYTE		        Cn2   v104
	BYTE	W04
	BYTE		N03   
	BYTE	W04
	BYTE		        Cn2   v108
	BYTE	W04
	BYTE		        Cn2   v112
	BYTE	W04
	BYTE		N03   
	BYTE	W04
	BYTE		        Cn2   v116
	BYTE	W04
	BYTE		N03   
	BYTE	W04
	BYTE		        Cn2   v120
	BYTE	W04
	BYTE		N03   
	BYTE	W04
// 024   ----------------------------------------
	BYTE		N21     As1   v124
	BYTE	W72
	BYTE	W03
	BYTE		N03     As1   v104
	BYTE	W06
	BYTE		N06   
	BYTE	W09
	BYTE		N03   
	BYTE	W06
// 025   ----------------------------------------
	BYTE		N48     Cn2   v120
	BYTE	W72
	BYTE		        Cn2   v104
	BYTE	W24
// 026   ----------------------------------------
	BYTE	W96
// 027   ----------------------------------------
	BYTE	W96
// 028   ----------------------------------------
	BYTE	W96
// 029   ----------------------------------------
	BYTE	W96
// 030   ----------------------------------------
	BYTE	W96
// 031   ----------------------------------------
	BYTE	W96
// 032   ----------------------------------------
	BYTE	W96
// 033   ----------------------------------------
	BYTE		N03     Dn2   v072
	BYTE	W04
	BYTE		        Dn2   v076
	BYTE	W04
	BYTE		N03   
	BYTE	W04
	BYTE		        Dn2   v080
	BYTE	W04
	BYTE		N03   
	BYTE	W04
	BYTE		        Dn2   v084
	BYTE	W04
	BYTE		        Dn2   v088
	BYTE	W04
	BYTE		N03   
	BYTE	W04
	BYTE		        Dn2   v092
	BYTE	W04
	BYTE		N03   
	BYTE	W04
	BYTE		        Dn2   v096
	BYTE	W04
	BYTE		N03   
	BYTE	W04
	BYTE		        Dn2   v100
	BYTE	W04
	BYTE		N03   
	BYTE	W04
	BYTE		        Dn2   v104
	BYTE	W04
	BYTE		N03   
	BYTE	W04
	BYTE		        Dn2   v108
	BYTE	W04
	BYTE		N03   
	BYTE	W04
	BYTE		        Dn2   v112
	BYTE	W04
	BYTE		N03   
	BYTE	W04
	BYTE		        Dn2   v116
	BYTE	W04
	BYTE		N03   
	BYTE	W04
	BYTE		        Dn2   v120
	BYTE	W04
	BYTE		        Dn2   v124
	BYTE	W04
	BYTE	GoTo
	 POIN2	WorldMapCh3_6_B1
WorldMapCh3_6_B2:
// 034   ----------------------------------------
	BYTE	FINE

//**************** Track 7 (Midi-Chn.7) ****************//

WorldMapCh3_7:
	BYTE	KEYSH   WorldMapCh3_key+0
// 000   ----------------------------------------
	BYTE		VOICE   60
	BYTE		VOL     42*WorldMapCh3_mvl/mxv
	BYTE		PAN     c_v+20
	BYTE	W96
// 001   ----------------------------------------
	BYTE	W84
	BYTE	W03
	BYTE	W02
	BYTE	W04
	BYTE	W03
WorldMapCh3_7_B1:
// 002   ----------------------------------------
WorldMapCh3_7_002:
	BYTE		N84     As1   v100
	BYTE		N92     As2 
	BYTE		N90     Dn3 
	BYTE		N90     Fn3 
	BYTE	W96
	BYTE	PEND
// 003   ----------------------------------------
WorldMapCh3_7_003:
	BYTE		N84     Ds1   v100
	BYTE		N92     As2 
	BYTE		N92     Ds3 
	BYTE		N92     Gn3 
	BYTE	W96
	BYTE	PEND
// 004   ----------------------------------------
WorldMapCh3_7_004:
	BYTE		N84     Fn1   v100
	BYTE		N92     Cn3 
	BYTE		N92     Fn3 
	BYTE		N92     An3 
	BYTE	W96
	BYTE	PEND
// 005   ----------------------------------------
WorldMapCh3_7_005:
	BYTE		N84     As1   v100
	BYTE		N92     Dn3 
	BYTE		N92     Fn3 
	BYTE		N92     As3 
	BYTE	W96
	BYTE	PEND
// 006   ----------------------------------------
	BYTE	PATT
	 POIN2	WorldMapCh3_7_002
// 007   ----------------------------------------
	BYTE	PATT
	 POIN2	WorldMapCh3_7_003
// 008   ----------------------------------------
WorldMapCh3_7_008:
	BYTE		N84     En1   v100
	BYTE		N92     As2 
	BYTE		N92     En3 
	BYTE		N92     Gn3 
	BYTE		N92     As3 
	BYTE	W96
	BYTE	PEND
// 009   ----------------------------------------
WorldMapCh3_7_009:
	BYTE		N84     Fn1   v100
	BYTE		N92     Cn3 
	BYTE		N92     Fn3 
	BYTE		N92     An3 
	BYTE		N92     Cn4 
	BYTE	W96
	BYTE	PEND
// 010   ----------------------------------------
	BYTE	PATT
	 POIN2	WorldMapCh3_7_002
// 011   ----------------------------------------
	BYTE	PATT
	 POIN2	WorldMapCh3_7_003
// 012   ----------------------------------------
	BYTE	PATT
	 POIN2	WorldMapCh3_7_004
// 013   ----------------------------------------
	BYTE	PATT
	 POIN2	WorldMapCh3_7_005
// 014   ----------------------------------------
	BYTE	PATT
	 POIN2	WorldMapCh3_7_002
// 015   ----------------------------------------
	BYTE	PATT
	 POIN2	WorldMapCh3_7_003
// 016   ----------------------------------------
	BYTE	PATT
	 POIN2	WorldMapCh3_7_008
// 017   ----------------------------------------
	BYTE	PATT
	 POIN2	WorldMapCh3_7_009
// 018   ----------------------------------------
	BYTE		N84     Cn3   v100
	BYTE		N84     Fn3 
	BYTE	W96
// 019   ----------------------------------------
WorldMapCh3_7_019:
	BYTE		N84     As2   v100
	BYTE		N84     Dn3 
	BYTE		N84     Fn3 
	BYTE	W96
	BYTE	PEND
// 020   ----------------------------------------
	BYTE	PATT
	 POIN2	WorldMapCh3_7_019
// 021   ----------------------------------------
	BYTE		N84     Gn2   v100
	BYTE		N84     Cn3 
	BYTE		N84     En3 
	BYTE		N84     Gn3 
	BYTE	W96
// 022   ----------------------------------------
	BYTE		        Cn3 
	BYTE		N84     En3 
	BYTE		N84     An3 
	BYTE	W96
// 023   ----------------------------------------
	BYTE		        An2 
	BYTE		N84     Dn3 
	BYTE		N84     Fn3 
	BYTE		N84     An3 
	BYTE	W96
// 024   ----------------------------------------
	BYTE		        As2 
	BYTE		N84     Dn3 
	BYTE		N84     Fn3 
	BYTE		N84     As3 
	BYTE	W96
// 025   ----------------------------------------
	BYTE		        Cn3 
	BYTE		N84     En3 
	BYTE		N84     Gn3 
	BYTE		N84     Cn4 
	BYTE	W90
	BYTE	W06
// 026   ----------------------------------------
	BYTE		N42     Cn3 
	BYTE		N42     Fn3 
	BYTE		N42     Cn4 
	BYTE	W02
	BYTE	W44
	BYTE	W02
	BYTE		        Cn3 
	BYTE		N42     En3 
	BYTE		N42     Cn4 
	BYTE	W48
// 027   ----------------------------------------
WorldMapCh3_7_027:
	BYTE		N42     Dn3   v100
	BYTE		N42     Fn3 
	BYTE		N42     As3 
	BYTE	W48
	BYTE		        Cn3 
	BYTE		N42     En3 
	BYTE		N42     An3 
	BYTE	W48
	BYTE	PEND
// 028   ----------------------------------------
	BYTE	PATT
	 POIN2	WorldMapCh3_7_027
// 029   ----------------------------------------
	BYTE		N42     As2   v100
	BYTE		N42     Dn3 
	BYTE		N42     Gn3 
	BYTE	W48
	BYTE		        Cn3 
	BYTE		N42     En3 
	BYTE		N42     Cn4 
	BYTE	W48
// 030   ----------------------------------------
	BYTE		        Cn3 
	BYTE		N42     Fn3 
	BYTE		N42     Cn4 
	BYTE	W48
	BYTE		        Cn3 
	BYTE		N42     En3 
	BYTE		N42     Cn4 
	BYTE	W48
// 031   ----------------------------------------
	BYTE		        Dn3 
	BYTE		N42     Fn3 
	BYTE		N42     As3 
	BYTE	W48
	BYTE		        Cs3 
	BYTE		N42     En3 
	BYTE		N42     An3 
	BYTE	W48
// 032   ----------------------------------------
	BYTE		N84     Cn3 
	BYTE		N84     Ds3 
	BYTE		N84     An3 
	BYTE	W96
// 033   ----------------------------------------
	BYTE		N42     As2 
	BYTE		N42     Dn3 
	BYTE		N42     Gn3 
	BYTE	W48
	BYTE		        An2 
	BYTE		N42     Dn3 
	BYTE		N42     Fs3 
	BYTE	W48
	BYTE	GoTo
	 POIN2	WorldMapCh3_7_B1
WorldMapCh3_7_B2:
// 034   ----------------------------------------
	BYTE	FINE

//**************** Track 8 (Midi-Chn.8) ****************//

WorldMapCh3_8:
	BYTE	KEYSH   WorldMapCh3_key+0
// 000   ----------------------------------------
	BYTE		VOICE   123
	BYTE		VOL     91*WorldMapCh3_mvl/mxv
	BYTE	W96
// 001   ----------------------------------------
	BYTE	W96
WorldMapCh3_8_B1:
// 002   ----------------------------------------
	BYTE		N48     Cs2   v104
	BYTE		N48     An2 
	BYTE	W96
// 003   ----------------------------------------
	BYTE	W96
// 004   ----------------------------------------
	BYTE	W96
// 005   ----------------------------------------
	BYTE	W96
// 006   ----------------------------------------
	BYTE	W96
// 007   ----------------------------------------
	BYTE	W96
// 008   ----------------------------------------
	BYTE	W96
// 009   ----------------------------------------
	BYTE	W96
// 010   ----------------------------------------
	BYTE		        Cs2 
	BYTE	W96
// 011   ----------------------------------------
	BYTE	W96
// 012   ----------------------------------------
	BYTE	W96
// 013   ----------------------------------------
	BYTE	W96
// 014   ----------------------------------------
	BYTE	W96
// 015   ----------------------------------------
	BYTE	W96
// 016   ----------------------------------------
	BYTE	W96
// 017   ----------------------------------------
	BYTE	W96
// 018   ----------------------------------------
	BYTE		N48   
	BYTE		N48     An2 
	BYTE	W96
// 019   ----------------------------------------
	BYTE	W96
// 020   ----------------------------------------
	BYTE	W96
// 021   ----------------------------------------
	BYTE	W96
// 022   ----------------------------------------
	BYTE	W96
// 023   ----------------------------------------
	BYTE	W96
// 024   ----------------------------------------
	BYTE		N48   
	BYTE	W96
// 025   ----------------------------------------
	BYTE		N06     Dn1   v064
	BYTE		N48     An2   v104
	BYTE	W24
	BYTE		N24     Ds1   v064
	BYTE	W24
	BYTE		N06     Dn1 
	BYTE	W24
	BYTE		N06   
	BYTE	W24
// 026   ----------------------------------------
WorldMapCh3_8_026:
	BYTE		N06     Dn1   v064
	BYTE	W24
	BYTE		N24     Ds1 
	BYTE	W24
	BYTE		N06     Dn1 
	BYTE	W24
	BYTE		N06   
	BYTE	W24
	BYTE	PEND
// 027   ----------------------------------------
	BYTE	PATT
	 POIN2	WorldMapCh3_8_026
// 028   ----------------------------------------
	BYTE	PATT
	 POIN2	WorldMapCh3_8_026
// 029   ----------------------------------------
	BYTE	PATT
	 POIN2	WorldMapCh3_8_026
// 030   ----------------------------------------
	BYTE	PATT
	 POIN2	WorldMapCh3_8_026
// 031   ----------------------------------------
	BYTE	PATT
	 POIN2	WorldMapCh3_8_026
// 032   ----------------------------------------
	BYTE	PATT
	 POIN2	WorldMapCh3_8_026
// 033   ----------------------------------------
	BYTE		N06     Dn1   v064
	BYTE	W48
	BYTE		N06   
	BYTE	W48
	BYTE	GoTo
	 POIN2	WorldMapCh3_8_B1
WorldMapCh3_8_B2:
// 034   ----------------------------------------
	BYTE	FINE

//******************************************************//
	ALIGN 4

WorldMapCh3:
	BYTE	8	// NumTrks
	BYTE	0	// NumBlks
	BYTE	WorldMapCh3_pri	// Priority
	BYTE	WorldMapCh3_rev	// Reverb.

	POIN2	WorldMapCh3_grp

	POIN2	WorldMapCh3_1
	POIN2	WorldMapCh3_2
	POIN2	WorldMapCh3_3
	POIN2	WorldMapCh3_4
	POIN2	WorldMapCh3_5
	POIN2	WorldMapCh3_6
	POIN2	WorldMapCh3_7
	POIN2	WorldMapCh3_8

	
