//Event file generated from Sappy .s format.
	#include "MPlayDef.event"

	#define	AlmVictory_grp  voicegroup000
	#define	AlmVictory_pri  0
	#define	AlmVictory_rev  0
	#define	AlmVictory_mvl  85
	#define	AlmVictory_key  0
	#define	AlmVictory_tbs  1
	#define	AlmVictory_exg  0
	#define	AlmVictory_cmp  1

	// .rodata
	//	AlmVictory
	ALIGN 4

//**************** Track 1 (Midi-Chn.1) ****************//

AlmVictory_1:
	BYTE	KEYSH   AlmVictory_key+0
// 000   ----------------------------------------
	BYTE	TEMPO   146*AlmVictory_tbs/2
	BYTE		VOICE   86
	BYTE		VOL     62*AlmVictory_mvl/mxv
	BYTE		PAN     c_v+15
	BYTE		N42     Fs3   v100
	BYTE		N42     An3 
	BYTE		N42     Cs4 
	BYTE	W06
	BYTE	W12
	BYTE	W30
	BYTE		N07     Cs3 
	BYTE		N07     Fs3 
	BYTE	W08
	BYTE		N07   
	BYTE		N07     An3 
	BYTE	W08
	BYTE		N07   
	BYTE		N07     Cs4 
	BYTE	W08
	BYTE		N07   
	BYTE		N07     En4 
	BYTE	W08
	BYTE		        An3 
	BYTE		N07     Cs4 
	BYTE	W08
	BYTE		        Fs3 
	BYTE		N07     An3 
	BYTE	W08
AlmVictory_1_B1:
// 001   ----------------------------------------
AlmVictory_1_001:
	BYTE		N21     Fs3   v100
	BYTE		N21     Bn3 
	BYTE		N21     Ds4 
	BYTE	W24
	BYTE		N07     Cs3 
	BYTE		N07     Fs3 
	BYTE	W08
	BYTE		N07   
	BYTE		N07     Bn3 
	BYTE	W08
	BYTE		N07   
	BYTE		N07     Ds4 
	BYTE	W08
	BYTE		N21     Fs3 
	BYTE		N21     Bn3 
	BYTE		N21     Dn4 
	BYTE	W24
	BYTE		N07     Cs3 
	BYTE		N07     Fs3 
	BYTE	W08
	BYTE		N07   
	BYTE		N07     Bn3 
	BYTE	W08
	BYTE		N07   
	BYTE		N07     Dn4 
	BYTE	W08
	BYTE	PEND
// 002   ----------------------------------------
AlmVictory_1_002:
	BYTE		TIE     Fs3   v100
	BYTE		TIE     As3 
	BYTE		TIE     Cs4 
	BYTE	W96
	BYTE	PEND
// 003   ----------------------------------------
	BYTE	W84
	BYTE	W02
	BYTE		EOT     Fs3 
	BYTE		        As3 
	BYTE		        Cs4 
	BYTE	W10
// 004   ----------------------------------------
	BYTE		N42     Fs3 
	BYTE		N42     An3 
	BYTE		N42     Cs4 
	BYTE	W06
	BYTE	W12
	BYTE	W30
	BYTE		N07     Cs3 
	BYTE		N07     Fs3 
	BYTE	W08
	BYTE		N07   
	BYTE		N07     An3 
	BYTE	W08
	BYTE		N07   
	BYTE		N07     Cs4 
	BYTE	W08
	BYTE		N07   
	BYTE		N07     En4 
	BYTE	W08
	BYTE		        An3 
	BYTE		N07     Cs4 
	BYTE	W08
	BYTE		        Fs3 
	BYTE		N07     An3 
	BYTE	W08
// 005   ----------------------------------------
	BYTE	PATT
	 POIN2	AlmVictory_1_001
// 006   ----------------------------------------
	BYTE	PATT
	 POIN2	AlmVictory_1_002
// 007   ----------------------------------------
	BYTE	W68
	BYTE		EOT     As3 
	BYTE		        Cs4 
	BYTE	W04
	BYTE		N07     As3   v100
	BYTE		N07     Cs4 
	BYTE	W14
	BYTE		EOT     Fs3 
	BYTE	W02
	BYTE		N07     As3 
	BYTE		N07     Cs4 
	BYTE	W08
// 008   ----------------------------------------
	BYTE		N42     An3 
	BYTE		N42     Cs4 
	BYTE	W48
	BYTE		N07     An2 
	BYTE		N07     En3 
	BYTE	W08
	BYTE		        Cs3 
	BYTE		N07     An3 
	BYTE	W08
	BYTE		        En3 
	BYTE		N07     Cs4 
	BYTE	W08
	BYTE		        An3 
	BYTE		N07     En4 
	BYTE	W08
	BYTE		        En3 
	BYTE		N07     Cs4 
	BYTE	W08
	BYTE		        Cs3 
	BYTE		N07     An3 
	BYTE	W08
// 009   ----------------------------------------
	BYTE		N21     Fs3 
	BYTE		N21     Bn3 
	BYTE		N21     Ds4 
	BYTE	W24
	BYTE		N07     Ds3 
	BYTE		N07     Fs3 
	BYTE	W08
	BYTE		N07   
	BYTE		N07     Bn3 
	BYTE	W08
	BYTE		N07   
	BYTE		N07     Ds4 
	BYTE	W08
	BYTE		N21     Fs3 
	BYTE		N21     Bn3 
	BYTE		N21     Fs4 
	BYTE	W24
	BYTE		N07     Fs3 
	BYTE		N07     Bn3 
	BYTE	W08
	BYTE		N07   
	BYTE		N07     Ds4 
	BYTE	W08
	BYTE		N07   
	BYTE		N07     Fs4 
	BYTE	W08
// 010   ----------------------------------------
	BYTE		N84     Gs3 
	BYTE		N84     Cs4 
	BYTE		N78     Fs4 
	BYTE	W80
	BYTE		N07     Gs4 
	BYTE	W08
	BYTE		        Fs4 
	BYTE	W08
// 011   ----------------------------------------
	BYTE		N84     Gs3 
	BYTE		N84     Cs4 
	BYTE		N84     Fn4 
	BYTE	W96
// 012   ----------------------------------------
	BYTE		N42     Cn4 
	BYTE		N30     Fn4 
	BYTE	W32
	BYTE		N07     Gn4 
	BYTE	W08
	BYTE		        Fn4 
	BYTE	W08
	BYTE		N42     Cn4 
	BYTE		N42     En4 
	BYTE	W48
// 013   ----------------------------------------
	BYTE		        Bn3 
	BYTE		N30     En4 
	BYTE	W32
	BYTE		N07     Fs4 
	BYTE	W08
	BYTE		        En4 
	BYTE	W08
	BYTE		N42     Bn3 
	BYTE		N42     Ds4 
	BYTE	W48
// 014   ----------------------------------------
	BYTE		        As3 
	BYTE		N30     Ds4 
	BYTE	W32
	BYTE		N07     Fn4 
	BYTE	W08
	BYTE		        Ds4 
	BYTE	W08
	BYTE		N42     As3 
	BYTE		N42     Dn4 
	BYTE	W48
// 015   ----------------------------------------
	BYTE		        An3 
	BYTE		N30     Dn4 
	BYTE	W32
	BYTE		N07     En4 
	BYTE	W08
	BYTE		        Dn4 
	BYTE	W08
	BYTE		N42     An3 
	BYTE		N42     Cs4 
	BYTE	W24
	BYTE	TEMPO   130*AlmVictory_tbs/2
	BYTE	W24
// 016   ----------------------------------------
	BYTE	TEMPO   144*AlmVictory_tbs/2
	BYTE	W96
// 017   ----------------------------------------
	BYTE	W96
// 018   ----------------------------------------
	BYTE	W96
// 019   ----------------------------------------
	BYTE	W96
// 020   ----------------------------------------
	BYTE	W96
// 021   ----------------------------------------
	BYTE	W96
// 022   ----------------------------------------
	BYTE	W96
// 023   ----------------------------------------
	BYTE	W96
// 024   ----------------------------------------
	BYTE	W96
// 025   ----------------------------------------
	BYTE	W96
// 026   ----------------------------------------
	BYTE	W96
// 027   ----------------------------------------
	BYTE	W96
// 028   ----------------------------------------
	BYTE	W96
// 029   ----------------------------------------
	BYTE	W96
// 030   ----------------------------------------
	BYTE	W96
// 031   ----------------------------------------
	BYTE	W48
	BYTE	TEMPO   145*AlmVictory_tbs/2
	BYTE	W48
// 032   ----------------------------------------
	BYTE	TEMPO   146*AlmVictory_tbs/2
	BYTE		        Fs3 
	BYTE		N42     An3 
	BYTE		N42     Cs4 
	BYTE	W06
	BYTE	W12
	BYTE	W30
	BYTE		N07     Cs3 
	BYTE		N07     Fs3 
	BYTE	W08
	BYTE		N07   
	BYTE		N07     An3 
	BYTE	W08
	BYTE		N07   
	BYTE		N07     Cs4 
	BYTE	W08
	BYTE		N07   
	BYTE		N07     En4 
	BYTE	W08
	BYTE		        An3 
	BYTE		N07     Cs4 
	BYTE	W08
	BYTE		        Fs3 
	BYTE		N07     An3 
	BYTE	W08
	BYTE	GoTo
	 POIN2	AlmVictory_1_B1
AlmVictory_1_B2:
// 033   ----------------------------------------
	BYTE	FINE

//**************** Track 2 (Midi-Chn.2) ****************//

AlmVictory_2:
	BYTE	KEYSH   AlmVictory_key+0
// 000   ----------------------------------------
	BYTE		VOICE   2
	BYTE		VOL     53*AlmVictory_mvl/mxv
	BYTE		PAN     c_v-22
	BYTE		N13     An2   v100
	BYTE		N13     Cs3 
	BYTE		N13     Fs3 
	BYTE	W16
	BYTE		N06     An2 
	BYTE		N06     Cs3 
	BYTE		N06     Fs3 
	BYTE	W08
	BYTE		N13     An2 
	BYTE		N13     Cs3 
	BYTE		N13     Fs3 
	BYTE	W16
	BYTE		N06     An2 
	BYTE		N06     Cs3 
	BYTE		N06     Fs3 
	BYTE	W08
	BYTE		N13     An2 
	BYTE		N13     Cs3 
	BYTE		N13     Fs3 
	BYTE	W16
	BYTE		N06     An2 
	BYTE		N06     Cs3 
	BYTE		N06     Fs3 
	BYTE	W08
	BYTE		N13     An2 
	BYTE		N13     Cs3 
	BYTE		N13     Fs3 
	BYTE	W16
	BYTE		N06     An2 
	BYTE		N06     Cs3 
	BYTE		N06     Fs3 
	BYTE	W08
AlmVictory_2_B1:
// 001   ----------------------------------------
AlmVictory_2_001:
	BYTE		N13     An2   v100
	BYTE		N13     Cs3 
	BYTE		N13     Fs3 
	BYTE	W16
	BYTE		N06     An2 
	BYTE		N06     Cs3 
	BYTE		N06     Fs3 
	BYTE	W08
	BYTE		N13     An2 
	BYTE		N13     Cs3 
	BYTE		N13     Fs3 
	BYTE	W16
	BYTE		N06     An2 
	BYTE		N06     Cs3 
	BYTE		N06     Fs3 
	BYTE	W08
	BYTE		N13     An2 
	BYTE		N13     Cs3 
	BYTE		N13     Fs3 
	BYTE	W16
	BYTE		N06     An2 
	BYTE		N06     Cs3 
	BYTE		N06     Fs3 
	BYTE	W08
	BYTE		N13     An2 
	BYTE		N13     Cs3 
	BYTE		N13     Fs3 
	BYTE	W16
	BYTE		N06     An2 
	BYTE		N06     Cs3 
	BYTE		N06     Fs3 
	BYTE	W08
	BYTE	PEND
// 002   ----------------------------------------
AlmVictory_2_002:
	BYTE		N13     As2   v100
	BYTE		N13     Cs3 
	BYTE		N13     Fs3 
	BYTE	W16
	BYTE		N06     As2 
	BYTE		N06     Cs3 
	BYTE		N06     Fs3 
	BYTE	W08
	BYTE		N13     As2 
	BYTE		N13     Cs3 
	BYTE		N13     Fs3 
	BYTE	W16
	BYTE		N06     As2 
	BYTE		N06     Cs3 
	BYTE		N06     Fs3 
	BYTE	W08
	BYTE		N13     As2 
	BYTE		N13     Cs3 
	BYTE		N13     Fs3 
	BYTE	W16
	BYTE		N06     As2 
	BYTE		N06     Cs3 
	BYTE		N06     Fs3 
	BYTE	W08
	BYTE		N13     As2 
	BYTE		N13     Cs3 
	BYTE		N13     Fs3 
	BYTE	W16
	BYTE		N06     As2 
	BYTE		N06     Cs3 
	BYTE		N06     Fs3 
	BYTE	W08
	BYTE	PEND
// 003   ----------------------------------------
	BYTE	PATT
	 POIN2	AlmVictory_2_002
// 004   ----------------------------------------
	BYTE	PATT
	 POIN2	AlmVictory_2_001
// 005   ----------------------------------------
	BYTE	PATT
	 POIN2	AlmVictory_2_001
// 006   ----------------------------------------
	BYTE	PATT
	 POIN2	AlmVictory_2_002
// 007   ----------------------------------------
	BYTE	PATT
	 POIN2	AlmVictory_2_002
// 008   ----------------------------------------
AlmVictory_2_008:
	BYTE		N13     An2   v100
	BYTE		N13     Cs3 
	BYTE		N13     En3 
	BYTE	W16
	BYTE		N06     An2 
	BYTE		N06     Cs3 
	BYTE		N06     En3 
	BYTE	W08
	BYTE		N13     An2 
	BYTE		N13     Cs3 
	BYTE		N13     En3 
	BYTE	W16
	BYTE		N06     An2 
	BYTE		N06     Cs3 
	BYTE		N06     En3 
	BYTE	W08
	BYTE		N13     An2 
	BYTE		N13     Cs3 
	BYTE		N13     En3 
	BYTE	W16
	BYTE		N06     An2 
	BYTE		N06     Cs3 
	BYTE		N06     En3 
	BYTE	W08
	BYTE		N13     An2 
	BYTE		N13     Cs3 
	BYTE		N13     En3 
	BYTE	W16
	BYTE		N06     An2 
	BYTE		N06     Cs3 
	BYTE		N06     En3 
	BYTE	W08
	BYTE	PEND
// 009   ----------------------------------------
	BYTE	PATT
	 POIN2	AlmVictory_2_008
// 010   ----------------------------------------
	BYTE		N13     Fs2   v100
	BYTE		N13     Cs3 
	BYTE		N13     Fs3 
	BYTE	W16
	BYTE		N06     Fs2 
	BYTE		N06     Cs3 
	BYTE		N06     Fs3 
	BYTE	W08
	BYTE		N13     Fs2 
	BYTE		N13     Cs3 
	BYTE		N13     Fs3 
	BYTE	W16
	BYTE		N06     Fs2 
	BYTE		N06     Cs3 
	BYTE		N06     Fs3 
	BYTE	W08
	BYTE		N13     Fs2 
	BYTE		N13     Cs3 
	BYTE		N13     Fs3 
	BYTE	W16
	BYTE		N06     Fs2 
	BYTE		N06     Cs3 
	BYTE		N06     Fs3 
	BYTE	W08
	BYTE		N13     Fs2 
	BYTE		N13     Cs3 
	BYTE		N13     Fs3 
	BYTE	W16
	BYTE		N06     Fs2 
	BYTE		N06     Cs3 
	BYTE		N06     Fs3 
	BYTE	W08
// 011   ----------------------------------------
	BYTE		N13     Fn2 
	BYTE		N13     Cs3 
	BYTE		N13     Fn3 
	BYTE	W16
	BYTE		N06     Fn2 
	BYTE		N06     Cs3 
	BYTE		N06     Fn3 
	BYTE	W08
	BYTE		N13     Fn2 
	BYTE		N13     Cs3 
	BYTE		N13     Fn3 
	BYTE	W16
	BYTE		N06     Fn2 
	BYTE		N06     Cs3 
	BYTE		N06     Fn3 
	BYTE	W08
	BYTE		N13     Fn2 
	BYTE		N13     Cs3 
	BYTE		N13     Fn3 
	BYTE	W16
	BYTE		N06     Fn2 
	BYTE		N06     Cs3 
	BYTE		N06     Fn3 
	BYTE	W08
	BYTE		N13     Fn2 
	BYTE		N13     Cs3 
	BYTE		N13     Fn3 
	BYTE	W16
	BYTE		N06     Fn2 
	BYTE		N06     Cs3 
	BYTE		N06     Fn3 
	BYTE	W08
// 012   ----------------------------------------
	BYTE		N12     Fn2 
	BYTE		N13     Cn3 
	BYTE		N13     Fn3 
	BYTE	W15
	BYTE		N06     Fn2 
	BYTE	W01
	BYTE		        Cn3 
	BYTE		N06     Fn3 
	BYTE	W08
	BYTE		N12     Fn2 
	BYTE		N13     Cn3 
	BYTE		N13     Fn3 
	BYTE	W15
	BYTE		N06     Fn2 
	BYTE	W01
	BYTE		        Cn3 
	BYTE		N06     Fn3 
	BYTE	W08
	BYTE		N13     En2 
	BYTE		N13     Cn3 
	BYTE		N13     En3 
	BYTE	W16
	BYTE		N06     En2 
	BYTE		N06     Cn3 
	BYTE		N06     En3 
	BYTE	W08
	BYTE		N13     En2 
	BYTE		N13     Cn3 
	BYTE		N13     En3 
	BYTE	W16
	BYTE		N06     En2 
	BYTE		N06     Cn3 
	BYTE		N06     En3 
	BYTE	W08
// 013   ----------------------------------------
	BYTE		N12     En2 
	BYTE		N13     Bn2 
	BYTE		N13     En3 
	BYTE	W15
	BYTE		N06     En2 
	BYTE	W01
	BYTE		        Bn2 
	BYTE		N06     En3 
	BYTE	W08
	BYTE		N12     En2 
	BYTE		N13     Bn2 
	BYTE		N13     En3 
	BYTE	W15
	BYTE		N06     En2 
	BYTE	W01
	BYTE		        Bn2 
	BYTE		N06     En3 
	BYTE	W08
	BYTE		N13     Ds2 
	BYTE		N13     Bn2 
	BYTE		N13     Ds3 
	BYTE	W16
	BYTE		N06     Ds2 
	BYTE		N06     Bn2 
	BYTE		N06     Ds3 
	BYTE	W08
	BYTE		N13     Ds2 
	BYTE		N13     Bn2 
	BYTE		N13     Ds3 
	BYTE	W16
	BYTE		N06     Ds2 
	BYTE		N06     Bn2 
	BYTE		N06     Ds3 
	BYTE	W08
// 014   ----------------------------------------
	BYTE		N12     Ds2 
	BYTE		N12     As2 
	BYTE		N13     Ds3 
	BYTE	W15
	BYTE		N06     Ds2 
	BYTE	W01
	BYTE		        As2 
	BYTE		N06     Ds3 
	BYTE	W08
	BYTE		N12     Ds2 
	BYTE		N12     As2 
	BYTE		N13     Ds3 
	BYTE	W15
	BYTE		N06     Ds2 
	BYTE	W01
	BYTE		        As2 
	BYTE		N06     Ds3 
	BYTE	W08
	BYTE		N13     Dn2 
	BYTE		N13     As2 
	BYTE		N13     Dn3 
	BYTE	W16
	BYTE		N06     Dn2 
	BYTE		N06     As2 
	BYTE		N06     Dn3 
	BYTE	W08
	BYTE		N13     Dn2 
	BYTE		N13     As2 
	BYTE		N13     Dn3 
	BYTE	W16
	BYTE		N06     Dn2 
	BYTE		N06     As2 
	BYTE		N06     Dn3 
	BYTE	W08
// 015   ----------------------------------------
	BYTE		N12     Dn2 
	BYTE		N13     An2 
	BYTE		N13     Dn3 
	BYTE	W15
	BYTE		N06     Dn2 
	BYTE	W01
	BYTE		        An2 
	BYTE		N06     Dn3 
	BYTE	W08
	BYTE		N12     Dn2 
	BYTE		N13     An2 
	BYTE		N13     Dn3 
	BYTE	W15
	BYTE		N06     Dn2 
	BYTE	W01
	BYTE		        An2 
	BYTE		N06     Dn3 
	BYTE	W08
	BYTE		N13     Cs2 
	BYTE		N13     An2 
	BYTE		N13     Cs3 
	BYTE	W16
	BYTE		N06     Cs2 
	BYTE		N06     An2 
	BYTE		N06     Cs3 
	BYTE	W08
	BYTE		N13     Cs2 
	BYTE		N13     An2 
	BYTE		N13     Cs3 
	BYTE	W16
	BYTE		N06     Cs2 
	BYTE		N06     An2 
	BYTE		N06     Cs3 
	BYTE	W08
// 016   ----------------------------------------
AlmVictory_2_016:
	BYTE		N12     Bn2   v100
	BYTE		N12     Dn3 
	BYTE		N12     Gn3 
	BYTE	W12
	BYTE		        Bn2 
	BYTE		N12     Dn3 
	BYTE		N12     Gn3 
	BYTE	W24
	BYTE		        Bn2 
	BYTE		N12     Dn3 
	BYTE		N12     Gn3 
	BYTE	W12
	BYTE		        Bn2 
	BYTE		N12     Dn3 
	BYTE		N12     Gn3 
	BYTE	W12
	BYTE		        Bn2 
	BYTE		N12     Dn3 
	BYTE		N12     Gn3 
	BYTE	W24
	BYTE		        Bn2 
	BYTE		N12     Dn3 
	BYTE		N12     Gn3 
	BYTE	W12
	BYTE	PEND
// 017   ----------------------------------------
	BYTE	PATT
	 POIN2	AlmVictory_2_016
// 018   ----------------------------------------
AlmVictory_2_018:
	BYTE		N12     Cs3   v100
	BYTE		N12     En3 
	BYTE		N12     An3 
	BYTE	W12
	BYTE		        Cs3 
	BYTE		N12     En3 
	BYTE		N12     An3 
	BYTE	W24
	BYTE		        Cs3 
	BYTE		N12     En3 
	BYTE		N12     An3 
	BYTE	W12
	BYTE		        Cs3 
	BYTE		N12     En3 
	BYTE		N12     An3 
	BYTE	W12
	BYTE		        Cs3 
	BYTE		N12     En3 
	BYTE		N12     An3 
	BYTE	W24
	BYTE		        Cs3 
	BYTE		N12     En3 
	BYTE		N12     An3 
	BYTE	W12
	BYTE	PEND
// 019   ----------------------------------------
	BYTE	PATT
	 POIN2	AlmVictory_2_018
// 020   ----------------------------------------
	BYTE	PATT
	 POIN2	AlmVictory_2_016
// 021   ----------------------------------------
	BYTE	PATT
	 POIN2	AlmVictory_2_016
// 022   ----------------------------------------
AlmVictory_2_022:
	BYTE		N12     Fs2   v100
	BYTE		N12     Cs3 
	BYTE		N12     En3 
	BYTE		N12     An3 
	BYTE	W12
	BYTE		        Fs2 
	BYTE		N12     Cs3 
	BYTE		N12     En3 
	BYTE		N12     An3 
	BYTE	W24
	BYTE		        Fs2 
	BYTE		N12     Cs3 
	BYTE		N12     En3 
	BYTE		N12     An3 
	BYTE	W12
	BYTE		        Fs2 
	BYTE		N12     Cs3 
	BYTE		N12     En3 
	BYTE		N12     An3 
	BYTE	W12
	BYTE		        Fs2 
	BYTE		N12     Cs3 
	BYTE		N12     En3 
	BYTE		N12     An3 
	BYTE	W24
	BYTE		        Fs2 
	BYTE		N12     Cs3 
	BYTE		N12     En3 
	BYTE		N12     An3 
	BYTE	W12
	BYTE	PEND
// 023   ----------------------------------------
	BYTE	PATT
	 POIN2	AlmVictory_2_022
// 024   ----------------------------------------
	BYTE	PATT
	 POIN2	AlmVictory_2_016
// 025   ----------------------------------------
	BYTE	PATT
	 POIN2	AlmVictory_2_016
// 026   ----------------------------------------
	BYTE	PATT
	 POIN2	AlmVictory_2_018
// 027   ----------------------------------------
	BYTE	PATT
	 POIN2	AlmVictory_2_018
// 028   ----------------------------------------
AlmVictory_2_028:
	BYTE		N12     Gs2   v100
	BYTE		N12     Bn2 
	BYTE		N12     Dn3 
	BYTE		N12     Fs3 
	BYTE	W12
	BYTE		        Gs2 
	BYTE		N12     Bn2 
	BYTE		N12     Dn3 
	BYTE		N12     Fs3 
	BYTE	W24
	BYTE		        Gs2 
	BYTE		N12     Bn2 
	BYTE		N12     Dn3 
	BYTE		N12     Fs3 
	BYTE	W12
	BYTE		        Gs2 
	BYTE		N12     Bn2 
	BYTE		N12     Dn3 
	BYTE		N12     Fs3 
	BYTE	W12
	BYTE		        Gs2 
	BYTE		N12     Bn2 
	BYTE		N12     Dn3 
	BYTE		N12     Fs3 
	BYTE	W24
	BYTE		        Gs2 
	BYTE		N12     Bn2 
	BYTE		N12     Dn3 
	BYTE		N12     Fs3 
	BYTE	W12
	BYTE	PEND
// 029   ----------------------------------------
	BYTE	PATT
	 POIN2	AlmVictory_2_028
// 030   ----------------------------------------
	BYTE		N12     Fs2   v100
	BYTE		N12     Cs3 
	BYTE		N12     Fs3 
	BYTE		N12     An3 
	BYTE	W12
	BYTE		        Fs2 
	BYTE		N12     Cs3 
	BYTE		N12     Fs3 
	BYTE		N12     An3 
	BYTE	W24
	BYTE		        Fs2 
	BYTE		N12     Cs3 
	BYTE		N12     Fs3 
	BYTE		N12     An3 
	BYTE	W12
	BYTE		        Fs2 
	BYTE		N12     Cs3 
	BYTE		N12     Fs3 
	BYTE		N12     An3 
	BYTE	W12
	BYTE		        Fs2 
	BYTE		N12     Cs3 
	BYTE		N12     Fs3 
	BYTE		N12     An3 
	BYTE	W24
	BYTE		        Fs2 
	BYTE		N12     Cs3 
	BYTE		N12     Fs3 
	BYTE		N12     An3 
	BYTE	W12
// 031   ----------------------------------------
	BYTE	PATT
	 POIN2	AlmVictory_2_022
// 032   ----------------------------------------
	BYTE	PATT
	 POIN2	AlmVictory_2_001
	BYTE	GoTo
	 POIN2	AlmVictory_2_B1
AlmVictory_2_B2:
// 033   ----------------------------------------
	BYTE	FINE

//**************** Track 3 (Midi-Chn.3) ****************//

AlmVictory_3:
	BYTE	KEYSH   AlmVictory_key+0
// 000   ----------------------------------------
	BYTE		VOICE   39
	BYTE		VOL     81*AlmVictory_mvl/mxv
	BYTE		PAN     c_v+23
	BYTE		N10     Fs1   v100
	BYTE	W24
	BYTE		N10   
	BYTE	W24
	BYTE		N10   
	BYTE	W24
	BYTE		N10   
	BYTE	W24
AlmVictory_3_B1:
// 001   ----------------------------------------
AlmVictory_3_001:
	BYTE		N10     Fs1   v100
	BYTE	W24
	BYTE		N10   
	BYTE	W24
	BYTE		N10   
	BYTE	W24
	BYTE		N10   
	BYTE	W24
	BYTE	PEND
// 002   ----------------------------------------
	BYTE	PATT
	 POIN2	AlmVictory_3_001
// 003   ----------------------------------------
	BYTE	PATT
	 POIN2	AlmVictory_3_001
// 004   ----------------------------------------
	BYTE	PATT
	 POIN2	AlmVictory_3_001
// 005   ----------------------------------------
	BYTE	PATT
	 POIN2	AlmVictory_3_001
// 006   ----------------------------------------
	BYTE	PATT
	 POIN2	AlmVictory_3_001
// 007   ----------------------------------------
	BYTE	PATT
	 POIN2	AlmVictory_3_001
// 008   ----------------------------------------
AlmVictory_3_008:
	BYTE		N10     En1   v100
	BYTE	W24
	BYTE		N10   
	BYTE	W24
	BYTE		N10   
	BYTE	W24
	BYTE		N10   
	BYTE	W24
	BYTE	PEND
// 009   ----------------------------------------
	BYTE	PATT
	 POIN2	AlmVictory_3_008
// 010   ----------------------------------------
	BYTE		N09     Dn1   v100
	BYTE	W24
	BYTE		N09   
	BYTE	W24
	BYTE		N09   
	BYTE	W24
	BYTE		N09   
	BYTE	W24
// 011   ----------------------------------------
	BYTE		N10     Cs1 
	BYTE	W24
	BYTE		N10   
	BYTE	W24
	BYTE		N10   
	BYTE	W24
	BYTE		N10   
	BYTE	W24
// 012   ----------------------------------------
	BYTE		        Cn2 
	BYTE	W24
	BYTE		N10   
	BYTE	W24
	BYTE		N10   
	BYTE	W24
	BYTE		N10   
	BYTE	W24
// 013   ----------------------------------------
	BYTE		        Bn1 
	BYTE	W24
	BYTE		N10   
	BYTE	W24
	BYTE		N10   
	BYTE	W24
	BYTE		N10   
	BYTE	W24
// 014   ----------------------------------------
	BYTE		        As1 
	BYTE	W24
	BYTE		N10   
	BYTE	W24
	BYTE		N10   
	BYTE	W24
	BYTE		N10   
	BYTE	W24
// 015   ----------------------------------------
	BYTE		        An1 
	BYTE	W24
	BYTE		N10   
	BYTE	W24
	BYTE		N10   
	BYTE	W24
	BYTE		N10   
	BYTE	W24
// 016   ----------------------------------------
AlmVictory_3_016:
	BYTE		N10     Gn1   v100
	BYTE	W12
	BYTE		N21   
	BYTE	W24
	BYTE		N10   
	BYTE	W12
	BYTE		N10   
	BYTE	W12
	BYTE		N21   
	BYTE	W24
	BYTE		N10   
	BYTE	W12
	BYTE	PEND
// 017   ----------------------------------------
	BYTE	PATT
	 POIN2	AlmVictory_3_016
// 018   ----------------------------------------
AlmVictory_3_018:
	BYTE		N10     An1   v100
	BYTE	W12
	BYTE		N21   
	BYTE	W24
	BYTE		N10   
	BYTE	W12
	BYTE		N10   
	BYTE	W12
	BYTE		N21   
	BYTE	W24
	BYTE		N10   
	BYTE	W12
	BYTE	PEND
// 019   ----------------------------------------
	BYTE	PATT
	 POIN2	AlmVictory_3_018
// 020   ----------------------------------------
	BYTE	PATT
	 POIN2	AlmVictory_3_016
// 021   ----------------------------------------
	BYTE	PATT
	 POIN2	AlmVictory_3_016
// 022   ----------------------------------------
AlmVictory_3_022:
	BYTE		N10     Fs1   v100
	BYTE	W12
	BYTE		N19   
	BYTE	W24
	BYTE		N10   
	BYTE	W12
	BYTE		N10   
	BYTE	W12
	BYTE		N19   
	BYTE	W24
	BYTE		N10   
	BYTE	W12
	BYTE	PEND
// 023   ----------------------------------------
	BYTE	PATT
	 POIN2	AlmVictory_3_022
// 024   ----------------------------------------
	BYTE	PATT
	 POIN2	AlmVictory_3_016
// 025   ----------------------------------------
	BYTE	PATT
	 POIN2	AlmVictory_3_016
// 026   ----------------------------------------
	BYTE	PATT
	 POIN2	AlmVictory_3_018
// 027   ----------------------------------------
	BYTE	PATT
	 POIN2	AlmVictory_3_018
// 028   ----------------------------------------
AlmVictory_3_028:
	BYTE		N10     Gs1   v100
	BYTE	W12
	BYTE		N10   
	BYTE	W24
	BYTE		N10   
	BYTE	W12
	BYTE		N10   
	BYTE	W12
	BYTE		N10   
	BYTE	W24
	BYTE		N10   
	BYTE	W12
	BYTE	PEND
// 029   ----------------------------------------
	BYTE	PATT
	 POIN2	AlmVictory_3_028
// 030   ----------------------------------------
	BYTE		N10     Fs1   v100
	BYTE	W12
	BYTE		N10   
	BYTE	W24
	BYTE		N10   
	BYTE	W12
	BYTE		N10   
	BYTE	W12
	BYTE		N10   
	BYTE	W24
	BYTE		N10   
	BYTE	W12
// 031   ----------------------------------------
	BYTE		        Cs2 
	BYTE	W24
	BYTE		N10   
	BYTE	W24
	BYTE		N10   
	BYTE	W24
	BYTE		N10   
	BYTE	W24
// 032   ----------------------------------------
	BYTE	PATT
	 POIN2	AlmVictory_3_001
	BYTE	GoTo
	 POIN2	AlmVictory_3_B1
AlmVictory_3_B2:
// 033   ----------------------------------------
	BYTE	FINE

//**************** Track 4 (Midi-Chn.4) ****************//

AlmVictory_4:
	BYTE	KEYSH   AlmVictory_key+0
// 000   ----------------------------------------
	BYTE		VOICE   40
	BYTE		VOL     64*AlmVictory_mvl/mxv
	BYTE		PAN     c_v-14
	BYTE	W96
AlmVictory_4_B1:
// 001   ----------------------------------------
	BYTE	W96
// 002   ----------------------------------------
	BYTE	W96
// 003   ----------------------------------------
	BYTE	W96
// 004   ----------------------------------------
	BYTE	W96
// 005   ----------------------------------------
	BYTE	W96
// 006   ----------------------------------------
	BYTE	W96
// 007   ----------------------------------------
	BYTE	W96
// 008   ----------------------------------------
	BYTE	W96
// 009   ----------------------------------------
	BYTE	W96
// 010   ----------------------------------------
	BYTE	W96
// 011   ----------------------------------------
	BYTE	W96
// 012   ----------------------------------------
	BYTE	W96
// 013   ----------------------------------------
	BYTE	W96
// 014   ----------------------------------------
	BYTE	W96
// 015   ----------------------------------------
	BYTE	W56
	BYTE	W01
	BYTE	W21
	BYTE	W06
	BYTE	W05
	BYTE	W06
	BYTE	W01
// 016   ----------------------------------------
	BYTE		N84     Bn3   v100
	BYTE	W32
	BYTE	W03
	BYTE	W60
	BYTE	W01
// 017   ----------------------------------------
	BYTE		N32     Gn3 
	BYTE	W11
	BYTE	W24
	BYTE	W01
	BYTE		        Bn3 
	BYTE	W36
	BYTE		N21     Fs4 
	BYTE	W11
	BYTE	W13
// 018   ----------------------------------------
	BYTE		N84     En4 
	BYTE	W56
	BYTE	W03
	BYTE	W36
	BYTE	W01
// 019   ----------------------------------------
	BYTE		        Cs4 
	BYTE	W32
	BYTE	W03
	BYTE	W60
	BYTE	W01
// 020   ----------------------------------------
	BYTE		        Bn3 
	BYTE	W96
// 021   ----------------------------------------
	BYTE		N32     Gn3 
	BYTE	W36
	BYTE		        Bn3 
	BYTE	W36
	BYTE		N21     Dn4 
	BYTE	W24
// 022   ----------------------------------------
	BYTE		N84     En4 
	BYTE	W96
// 023   ----------------------------------------
	BYTE		        Cs4 
	BYTE	W92
	BYTE	W03
	BYTE	W01
// 024   ----------------------------------------
	BYTE		        Bn3 
	BYTE	W96
// 025   ----------------------------------------
	BYTE		N32     Gn3 
	BYTE	W36
	BYTE		        Bn3 
	BYTE	W36
	BYTE		N21     Fs4 
	BYTE	W24
// 026   ----------------------------------------
	BYTE		N84     En4 
	BYTE	W96
// 027   ----------------------------------------
	BYTE		        Cs4 
	BYTE	W92
	BYTE	W04
// 028   ----------------------------------------
	BYTE		        Bn3 
	BYTE	W96
// 029   ----------------------------------------
	BYTE		N32   
	BYTE	W36
	BYTE		        Cs4 
	BYTE	W36
	BYTE		N21     Dn4 
	BYTE	W24
// 030   ----------------------------------------
	BYTE		N84     Fs3   v084
	BYTE		N84     Cs4   v100
	BYTE	W96
// 031   ----------------------------------------
	BYTE		        Cs3   v084
	BYTE		N84     An3   v100
	BYTE		N96     Cs5   v104
	BYTE	W96
// 032   ----------------------------------------
	BYTE	W96
	BYTE	GoTo
	 POIN2	AlmVictory_4_B1
AlmVictory_4_B2:
// 033   ----------------------------------------
	BYTE	FINE

//**************** Track 5 (Midi-Chn.5) ****************//

AlmVictory_5:
	BYTE	KEYSH   AlmVictory_key+0
// 000   ----------------------------------------
	BYTE		VOICE   46
	BYTE		VOL     67*AlmVictory_mvl/mxv
	BYTE		PAN     c_v+23
	BYTE	W96
AlmVictory_5_B1:
// 001   ----------------------------------------
	BYTE	W96
// 002   ----------------------------------------
	BYTE	W96
// 003   ----------------------------------------
	BYTE	W96
// 004   ----------------------------------------
	BYTE	W96
// 005   ----------------------------------------
	BYTE	W96
// 006   ----------------------------------------
	BYTE	W96
// 007   ----------------------------------------
	BYTE	W96
// 008   ----------------------------------------
	BYTE	W96
// 009   ----------------------------------------
	BYTE	W96
// 010   ----------------------------------------
	BYTE	W96
// 011   ----------------------------------------
	BYTE	W96
// 012   ----------------------------------------
	BYTE	W96
// 013   ----------------------------------------
	BYTE	W96
// 014   ----------------------------------------
	BYTE	W96
// 015   ----------------------------------------
	BYTE	W96
// 016   ----------------------------------------
AlmVictory_5_016:
	BYTE		N64     Bn2   v100
	BYTE		N64     Bn3 
	BYTE	W72
	BYTE		N05     Gn2 
	BYTE	W06
	BYTE		        Bn2 
	BYTE	W06
	BYTE		        Dn3 
	BYTE	W06
	BYTE		        Gn3 
	BYTE	W06
	BYTE	PEND
// 017   ----------------------------------------
AlmVictory_5_017:
	BYTE		N21     Bn3   v100
	BYTE	W24
	BYTE		N05     Dn4 
	BYTE	W06
	BYTE		        Bn3 
	BYTE	W06
	BYTE		        Gn3 
	BYTE	W06
	BYTE		        Dn3 
	BYTE	W06
	BYTE		        Bn3 
	BYTE	W06
	BYTE		        Gn3 
	BYTE	W06
	BYTE		        Dn3 
	BYTE	W06
	BYTE		        Bn2 
	BYTE	W06
	BYTE		        Gn3 
	BYTE	W06
	BYTE		        Dn3 
	BYTE	W06
	BYTE		        Bn2 
	BYTE	W06
	BYTE		        Gn2 
	BYTE	W06
	BYTE	PEND
// 018   ----------------------------------------
AlmVictory_5_018:
	BYTE		N64     Cs3   v100
	BYTE		N64     Cs4 
	BYTE	W72
	BYTE		N05     En2 
	BYTE	W06
	BYTE		        An2 
	BYTE	W06
	BYTE		        Cs3 
	BYTE	W06
	BYTE		        En3 
	BYTE	W06
	BYTE	PEND
// 019   ----------------------------------------
AlmVictory_5_019:
	BYTE		N21     An3   v100
	BYTE	W24
	BYTE		N05     En4 
	BYTE	W06
	BYTE		        Cs4 
	BYTE	W06
	BYTE		        An3 
	BYTE	W06
	BYTE		        En3 
	BYTE	W06
	BYTE		        Cs4 
	BYTE	W06
	BYTE		        An3 
	BYTE	W06
	BYTE		        En3 
	BYTE	W06
	BYTE		        Cs3 
	BYTE	W06
	BYTE		        An3 
	BYTE	W06
	BYTE		        En3 
	BYTE	W06
	BYTE		        Cs3 
	BYTE	W06
	BYTE		        An2 
	BYTE	W06
	BYTE	PEND
// 020   ----------------------------------------
	BYTE	PATT
	 POIN2	AlmVictory_5_016
// 021   ----------------------------------------
	BYTE	PATT
	 POIN2	AlmVictory_5_017
// 022   ----------------------------------------
	BYTE	PATT
	 POIN2	AlmVictory_5_018
// 023   ----------------------------------------
	BYTE	PATT
	 POIN2	AlmVictory_5_019
// 024   ----------------------------------------
	BYTE	PATT
	 POIN2	AlmVictory_5_016
// 025   ----------------------------------------
	BYTE	PATT
	 POIN2	AlmVictory_5_017
// 026   ----------------------------------------
	BYTE	PATT
	 POIN2	AlmVictory_5_018
// 027   ----------------------------------------
	BYTE	PATT
	 POIN2	AlmVictory_5_019
// 028   ----------------------------------------
	BYTE		N64     Bn2   v100
	BYTE		N10     Gs3   v084
	BYTE	W06
	BYTE		N05     Bn3 
	BYTE	W06
	BYTE		        Dn4 
	BYTE	W06
	BYTE		        Fs4 
	BYTE	W06
	BYTE		        Gs4 
	BYTE	W06
	BYTE		        Dn4 
	BYTE	W06
	BYTE		        Bn3 
	BYTE	W06
	BYTE		        Gs3 
	BYTE	W06
	BYTE		        Bn3 
	BYTE	W06
	BYTE		        Gs3 
	BYTE	W06
	BYTE		        Fs3 
	BYTE	W06
	BYTE		        Dn3 
	BYTE	W06
	BYTE		        Gs2   v100
	BYTE	W06
	BYTE		        Bn2 
	BYTE	W06
	BYTE		        Dn3 
	BYTE	W06
	BYTE		        Gs3 
	BYTE	W06
// 029   ----------------------------------------
	BYTE		N21     Bn3 
	BYTE	W24
	BYTE		N05     Dn4 
	BYTE	W06
	BYTE		        Bn3 
	BYTE	W06
	BYTE		        Gs3 
	BYTE	W06
	BYTE		        Dn3 
	BYTE	W06
	BYTE		        Bn3 
	BYTE	W06
	BYTE		        Gs3 
	BYTE	W06
	BYTE		        Dn3 
	BYTE	W06
	BYTE		        Bn2 
	BYTE	W06
	BYTE		        Gs3 
	BYTE	W06
	BYTE		        Dn3 
	BYTE	W06
	BYTE		        Bn2 
	BYTE	W06
	BYTE		        Gs2 
	BYTE	W06
// 030   ----------------------------------------
	BYTE	PATT
	 POIN2	AlmVictory_5_018
// 031   ----------------------------------------
	BYTE	PATT
	 POIN2	AlmVictory_5_019
// 032   ----------------------------------------
	BYTE	W96
	BYTE	GoTo
	 POIN2	AlmVictory_5_B1
AlmVictory_5_B2:
// 033   ----------------------------------------
	BYTE	FINE

//**************** Track 6 (Midi-Chn.6) ****************//

AlmVictory_6:
	BYTE	KEYSH   AlmVictory_key+0
// 000   ----------------------------------------
	BYTE		VOICE   47
	BYTE		VOL     72*AlmVictory_mvl/mxv
	BYTE		PAN     c_v-14
	BYTE		N72     Fs1   v100
	BYTE	W96
AlmVictory_6_B1:
// 001   ----------------------------------------
	BYTE	W96
// 002   ----------------------------------------
	BYTE	W96
// 003   ----------------------------------------
AlmVictory_6_003:
	BYTE		N03     Fs1   v072
	BYTE	W04
	BYTE		N03   
	BYTE	W04
	BYTE		        Fs1   v076
	BYTE	W04
	BYTE		N03   
	BYTE	W04
	BYTE		        Fs1   v080
	BYTE	W04
	BYTE		N03   
	BYTE	W04
	BYTE		        Fs1   v084
	BYTE	W04
	BYTE		N03   
	BYTE	W04
	BYTE		        Fs1   v088
	BYTE	W04
	BYTE		N03   
	BYTE	W04
	BYTE		        Fs1   v092
	BYTE	W04
	BYTE		N03   
	BYTE	W04
	BYTE		        Fs1   v096
	BYTE	W04
	BYTE		N03   
	BYTE	W04
	BYTE		N03   
	BYTE	W04
	BYTE		        Fs1   v100
	BYTE	W04
	BYTE		N03   
	BYTE	W04
	BYTE		        Fs1   v104
	BYTE	W04
	BYTE		N03   
	BYTE	W04
	BYTE		        Fs1   v108
	BYTE	W04
	BYTE		N03   
	BYTE	W04
	BYTE		        Fs1   v112
	BYTE	W04
	BYTE		N03   
	BYTE	W04
	BYTE		        Fs1   v116
	BYTE	W04
	BYTE	PEND
// 004   ----------------------------------------
	BYTE		N30   
	BYTE	W96
// 005   ----------------------------------------
	BYTE	W96
// 006   ----------------------------------------
	BYTE	W96
// 007   ----------------------------------------
	BYTE	PATT
	 POIN2	AlmVictory_6_003
// 008   ----------------------------------------
	BYTE		N24     Fs1   v116
	BYTE	W96
// 009   ----------------------------------------
	BYTE	W96
// 010   ----------------------------------------
	BYTE	W96
// 011   ----------------------------------------
	BYTE	W96
// 012   ----------------------------------------
	BYTE	W96
// 013   ----------------------------------------
	BYTE	W96
// 014   ----------------------------------------
	BYTE	W96
// 015   ----------------------------------------
	BYTE	PATT
	 POIN2	AlmVictory_6_003
// 016   ----------------------------------------
	BYTE		N24     Fs1   v116
	BYTE	W96
// 017   ----------------------------------------
	BYTE	W96
// 018   ----------------------------------------
	BYTE	W96
// 019   ----------------------------------------
	BYTE	W96
// 020   ----------------------------------------
	BYTE	W96
// 021   ----------------------------------------
	BYTE	W96
// 022   ----------------------------------------
	BYTE	W96
// 023   ----------------------------------------
	BYTE	W96
// 024   ----------------------------------------
	BYTE	W96
// 025   ----------------------------------------
	BYTE	W96
// 026   ----------------------------------------
	BYTE	W96
// 027   ----------------------------------------
	BYTE	W96
// 028   ----------------------------------------
	BYTE	W96
// 029   ----------------------------------------
	BYTE	W96
// 030   ----------------------------------------
	BYTE	W96
// 031   ----------------------------------------
	BYTE		N12     Fs1   v100
	BYTE	W24
	BYTE		        Fs1   v112
	BYTE	W24
	BYTE		        Fs1   v120
	BYTE	W24
	BYTE		        Fs1   v127
	BYTE	W24
// 032   ----------------------------------------
	BYTE		N21     Fs1   v100
	BYTE	W96
	BYTE	GoTo
	 POIN2	AlmVictory_6_B1
AlmVictory_6_B2:
// 033   ----------------------------------------
	BYTE	FINE

//**************** Track 7 (Midi-Chn.7) ****************//

AlmVictory_7:
	BYTE	KEYSH   AlmVictory_key+0
// 000   ----------------------------------------
	BYTE		VOICE   124
	BYTE		VOL     63*AlmVictory_mvl/mxv
	BYTE		PAN     c_v+2
	BYTE		N03     Cn1   v100
	BYTE		N03     Fs1 
	BYTE		N03     Cs2 
	BYTE	W15
	BYTE		        Fs1 
	BYTE	W09
	BYTE		        Dn1 
	BYTE		N03     Fs1 
	BYTE	W15
	BYTE		N03   
	BYTE	W09
	BYTE		        Cn1 
	BYTE		N03     Fs1 
	BYTE	W15
	BYTE		N03   
	BYTE	W09
	BYTE		        Dn1 
	BYTE		N03     Fs1 
	BYTE	W15
	BYTE		N03   
	BYTE	W09
AlmVictory_7_B1:
// 001   ----------------------------------------
AlmVictory_7_001:
	BYTE		N03     Cn1   v100
	BYTE		N03     Fs1 
	BYTE	W15
	BYTE		N03   
	BYTE	W09
	BYTE		        Dn1 
	BYTE		N03     Fs1 
	BYTE	W15
	BYTE		N03   
	BYTE	W09
	BYTE		        Cn1 
	BYTE		N03     Fs1 
	BYTE	W15
	BYTE		N03   
	BYTE	W09
	BYTE		        Dn1 
	BYTE		N03     Fs1 
	BYTE	W15
	BYTE		N03   
	BYTE	W09
	BYTE	PEND
// 002   ----------------------------------------
	BYTE	PATT
	 POIN2	AlmVictory_7_001
// 003   ----------------------------------------
	BYTE	PATT
	 POIN2	AlmVictory_7_001
// 004   ----------------------------------------
AlmVictory_7_004:
	BYTE		N03     Cn1   v100
	BYTE		N03     Fs1 
	BYTE		N03     Cs2 
	BYTE	W15
	BYTE		        Fs1 
	BYTE	W09
	BYTE		        Dn1 
	BYTE		N03     Fs1 
	BYTE	W15
	BYTE		N03   
	BYTE	W09
	BYTE		        Cn1 
	BYTE		N03     Fs1 
	BYTE	W15
	BYTE		N03   
	BYTE	W09
	BYTE		        Dn1 
	BYTE		N03     Fs1 
	BYTE	W15
	BYTE		N03   
	BYTE	W09
	BYTE	PEND
// 005   ----------------------------------------
	BYTE	PATT
	 POIN2	AlmVictory_7_001
// 006   ----------------------------------------
	BYTE	PATT
	 POIN2	AlmVictory_7_001
// 007   ----------------------------------------
	BYTE	PATT
	 POIN2	AlmVictory_7_001
// 008   ----------------------------------------
	BYTE	PATT
	 POIN2	AlmVictory_7_004
// 009   ----------------------------------------
	BYTE	PATT
	 POIN2	AlmVictory_7_001
// 010   ----------------------------------------
	BYTE	PATT
	 POIN2	AlmVictory_7_001
// 011   ----------------------------------------
	BYTE	PATT
	 POIN2	AlmVictory_7_001
// 012   ----------------------------------------
	BYTE	PATT
	 POIN2	AlmVictory_7_004
// 013   ----------------------------------------
	BYTE	PATT
	 POIN2	AlmVictory_7_004
// 014   ----------------------------------------
	BYTE	PATT
	 POIN2	AlmVictory_7_004
// 015   ----------------------------------------
	BYTE	PATT
	 POIN2	AlmVictory_7_004
// 016   ----------------------------------------
AlmVictory_7_016:
	BYTE		N03     Cn1   v100
	BYTE		N03     Fs1 
	BYTE		N03     Cs2 
	BYTE	W12
	BYTE		        Fs1 
	BYTE	W12
	BYTE		        Dn1 
	BYTE	W12
	BYTE		        Fs1 
	BYTE	W12
	BYTE		        Cn1 
	BYTE		N03     Fs1 
	BYTE	W12
	BYTE		N03   
	BYTE	W12
	BYTE		        Dn1 
	BYTE	W12
	BYTE		        Fs1 
	BYTE	W12
	BYTE	PEND
// 017   ----------------------------------------
AlmVictory_7_017:
	BYTE		N03     Cn1   v100
	BYTE		N03     Fs1 
	BYTE	W12
	BYTE		N03   
	BYTE	W12
	BYTE		        Dn1 
	BYTE	W12
	BYTE		        Fs1 
	BYTE	W12
	BYTE		        Cn1 
	BYTE		N03     Fs1 
	BYTE	W12
	BYTE		N03   
	BYTE	W12
	BYTE		        Dn1 
	BYTE	W12
	BYTE		        Fs1 
	BYTE	W12
	BYTE	PEND
// 018   ----------------------------------------
	BYTE	PATT
	 POIN2	AlmVictory_7_017
// 019   ----------------------------------------
	BYTE	PATT
	 POIN2	AlmVictory_7_017
// 020   ----------------------------------------
	BYTE	PATT
	 POIN2	AlmVictory_7_017
// 021   ----------------------------------------
	BYTE	PATT
	 POIN2	AlmVictory_7_017
// 022   ----------------------------------------
	BYTE	PATT
	 POIN2	AlmVictory_7_017
// 023   ----------------------------------------
	BYTE	PATT
	 POIN2	AlmVictory_7_017
// 024   ----------------------------------------
	BYTE	PATT
	 POIN2	AlmVictory_7_016
// 025   ----------------------------------------
	BYTE	PATT
	 POIN2	AlmVictory_7_017
// 026   ----------------------------------------
	BYTE	PATT
	 POIN2	AlmVictory_7_017
// 027   ----------------------------------------
	BYTE	PATT
	 POIN2	AlmVictory_7_017
// 028   ----------------------------------------
	BYTE	PATT
	 POIN2	AlmVictory_7_017
// 029   ----------------------------------------
	BYTE	PATT
	 POIN2	AlmVictory_7_017
// 030   ----------------------------------------
	BYTE	PATT
	 POIN2	AlmVictory_7_017
// 031   ----------------------------------------
	BYTE		N03     Cn1   v100
	BYTE		N03     Dn1 
	BYTE		N03     Fs1 
	BYTE		N03     Cs2 
	BYTE		N03     Ds2 
	BYTE	W12
	BYTE		        Fs1 
	BYTE	W12
	BYTE		        Dn1 
	BYTE		N03     Ds2 
	BYTE	W12
	BYTE		        Fs1 
	BYTE	W12
	BYTE		        Cn1 
	BYTE		N03     Dn1 
	BYTE		N03     Fs1 
	BYTE		N03     Ds2 
	BYTE	W12
	BYTE		        Fs1 
	BYTE	W12
	BYTE		        Dn1 
	BYTE		N03     Ds2 
	BYTE	W12
	BYTE		        Fs1 
	BYTE	W12
// 032   ----------------------------------------
	BYTE	PATT
	 POIN2	AlmVictory_7_004
	BYTE	GoTo
	 POIN2	AlmVictory_7_B1
AlmVictory_7_B2:
// 033   ----------------------------------------
	BYTE	FINE

//******************************************************//
	ALIGN 4

AlmVictory:
	BYTE	7	// NumTrks
	BYTE	0	// NumBlks
	BYTE	AlmVictory_pri	// Priority
	BYTE	AlmVictory_rev	// Reverb.

	POIN2	AlmVictory_grp

	POIN2	AlmVictory_1
	POIN2	AlmVictory_2
	POIN2	AlmVictory_3
	POIN2	AlmVictory_4
	POIN2	AlmVictory_5
	POIN2	AlmVictory_6
	POIN2	AlmVictory_7

	
