//Event file generated from Sappy .s format.
	#include "MPlayDef.event"

	#define	FE3_Victory_C_grp  voicegroup000
	#define	FE3_Victory_C_pri  0
	#define	FE3_Victory_C_rev  0
	#define	FE3_Victory_C_mvl  85
	#define	FE3_Victory_C_key  0
	#define	FE3_Victory_C_tbs  1
	#define	FE3_Victory_C_exg  0
	#define	FE3_Victory_C_cmp  1

	// .rodata
	//	FE3_Victory_C
	ALIGN 4

//**************** Track 1 (Midi-Chn.1) ****************//

FE3_Victory_C_1:
	BYTE	KEYSH   FE3_Victory_C_key+0
FE3_Victory_C_1_B1:
// 000   ----------------------------------------
	BYTE	TEMPO   63*FE3_Victory_C_tbs/2
	BYTE		VOICE   66
	BYTE		VOL     76*FE3_Victory_C_mvl/mxv
	BYTE		PAN     c_v+25
	BYTE		N68     Fn3   v108
	BYTE	W72
	BYTE		N23     An3 
	BYTE	W24
// 001   ----------------------------------------
FE3_Victory_C_1_001:
	BYTE		N44     Gn3   v108
	BYTE	W48
	BYTE		        Dn3 
	BYTE	W48
	BYTE	PEND
// 002   ----------------------------------------
FE3_Victory_C_1_002:
	BYTE		N68     Fn3   v108
	BYTE	W72
	BYTE		N23     An3 
	BYTE	W24
	BYTE	PEND
// 003   ----------------------------------------
	BYTE	PATT
	 POIN2	FE3_Victory_C_1_001
// 004   ----------------------------------------
	BYTE		N92     Fn3   v108
	BYTE	W96
// 005   ----------------------------------------
FE3_Victory_C_1_005:
	BYTE		N44     Fn3   v108
	BYTE	W48
	BYTE		        Dn3 
	BYTE	W48
	BYTE	PEND
// 006   ----------------------------------------
	BYTE	PATT
	 POIN2	FE3_Victory_C_1_002
// 007   ----------------------------------------
	BYTE	PATT
	 POIN2	FE3_Victory_C_1_001
// 008   ----------------------------------------
	BYTE	PATT
	 POIN2	FE3_Victory_C_1_002
// 009   ----------------------------------------
	BYTE	PATT
	 POIN2	FE3_Victory_C_1_001
// 010   ----------------------------------------
	BYTE		N92     Fn3   v108
	BYTE	W96
// 011   ----------------------------------------
	BYTE	PATT
	 POIN2	FE3_Victory_C_1_005
	BYTE	GoTo
	 POIN2	FE3_Victory_C_1_B1
FE3_Victory_C_1_B2:
// 012   ----------------------------------------
	BYTE	FINE

//**************** Track 2 (Midi-Chn.2) ****************//

FE3_Victory_C_2:
	BYTE	KEYSH   FE3_Victory_C_key+0
FE3_Victory_C_2_B1:
// 000   ----------------------------------------
	BYTE		VOICE   58
	BYTE		VOL     64*FE3_Victory_C_mvl/mxv
	BYTE	W01
	BYTE		PAN     c_v+43
	BYTE	W36
	BYTE		N02     An3   v104
	BYTE	W04
	BYTE		N02   
	BYTE	W04
	BYTE		N02   
	BYTE	W04
	BYTE		N23   
	BYTE	W24
	BYTE		N02     Cn4 
	BYTE	W04
	BYTE		N02   
	BYTE	W04
	BYTE		N02   
	BYTE	W04
	BYTE		N11     Fn4 
	BYTE	W11
// 001   ----------------------------------------
FE3_Victory_C_2_001:
	BYTE	W01
	BYTE		N32     Gn4   v104
	BYTE	W36
	BYTE		N03     Dn4 
	BYTE	W08
	BYTE		        Bn3 
	BYTE	W04
	BYTE		N11     Dn4 
	BYTE	W12
	BYTE		N23     Gn3 
	BYTE	W32
	BYTE		N03     Dn3 
	BYTE	W03
	BYTE	PEND
// 002   ----------------------------------------
FE3_Victory_C_2_002:
	BYTE	W01
	BYTE		N11     Fn3   v104
	BYTE	W16
	BYTE		N03     An3 
	BYTE	W04
	BYTE		        Cn4 
	BYTE	W04
	BYTE		N23     Fn4 
	BYTE	W24
	BYTE		N02     An3   v108
	BYTE	W04
	BYTE		        Cn4   v096
	BYTE	W04
	BYTE		        Fn4 
	BYTE	W04
	BYTE		N22     An4   v104
	BYTE	W24
	BYTE		N03     Cn5 
	BYTE	W08
	BYTE		N03   
	BYTE	W03
	BYTE	PEND
// 003   ----------------------------------------
FE3_Victory_C_2_003:
	BYTE	W01
	BYTE		N92     Bn4   v104
	BYTE	W92
	BYTE	W03
	BYTE	PEND
// 004   ----------------------------------------
	BYTE	W96
// 005   ----------------------------------------
	BYTE	W96
// 006   ----------------------------------------
	BYTE		PAN     c_v+0
	BYTE	W01
	BYTE		        c_v+43
	BYTE	W36
	BYTE		N02     An3 
	BYTE	W04
	BYTE		N02   
	BYTE	W04
	BYTE		N02   
	BYTE	W04
	BYTE		N23   
	BYTE	W24
	BYTE		N02     Cn4 
	BYTE	W04
	BYTE		N02   
	BYTE	W04
	BYTE		N02   
	BYTE	W04
	BYTE		N11     Fn4 
	BYTE	W11
// 007   ----------------------------------------
	BYTE	PATT
	 POIN2	FE3_Victory_C_2_001
// 008   ----------------------------------------
	BYTE	PATT
	 POIN2	FE3_Victory_C_2_002
// 009   ----------------------------------------
	BYTE	PATT
	 POIN2	FE3_Victory_C_2_003
// 010   ----------------------------------------
	BYTE	W96
// 011   ----------------------------------------
	BYTE	W96
	BYTE	GoTo
	 POIN2	FE3_Victory_C_2_B1
FE3_Victory_C_2_B2:
// 012   ----------------------------------------
	BYTE		PAN     c_v+0
	BYTE	FINE

//**************** Track 3 (Midi-Chn.4) ****************//

FE3_Victory_C_3:
	BYTE	KEYSH   FE3_Victory_C_key+0
FE3_Victory_C_3_B1:
// 000   ----------------------------------------
	BYTE		VOICE   34
	BYTE		VOL     80*FE3_Victory_C_mvl/mxv
	BYTE		PAN     c_v+0
	BYTE		N10     Dn2   v104
	BYTE	W12
	BYTE		N03     Dn2   v092
	BYTE	W04
	BYTE		N03   
	BYTE	W04
	BYTE		N03   
	BYTE	W04
	BYTE		N10     Dn2   v104
	BYTE	W12
	BYTE		N03     Dn2   v092
	BYTE	W04
	BYTE		N03   
	BYTE	W04
	BYTE		N03   
	BYTE	W04
	BYTE		N10     Dn2   v104
	BYTE	W12
	BYTE		N03     Dn2   v092
	BYTE	W04
	BYTE		N03   
	BYTE	W04
	BYTE		N03   
	BYTE	W04
	BYTE		        Dn2   v104
	BYTE	W04
	BYTE		        Dn2   v092
	BYTE	W04
	BYTE		N03   
	BYTE	W04
	BYTE		N03   
	BYTE	W04
	BYTE		N03   
	BYTE	W04
	BYTE		N03   
	BYTE	W04
// 001   ----------------------------------------
FE3_Victory_C_3_001:
	BYTE		N10     Dn2   v104
	BYTE	W12
	BYTE		N03     Dn2   v092
	BYTE	W04
	BYTE		N03   
	BYTE	W04
	BYTE		N03   
	BYTE	W04
	BYTE		N10     Dn2   v104
	BYTE	W12
	BYTE		N03     Dn2   v092
	BYTE	W04
	BYTE		N03   
	BYTE	W04
	BYTE		N03   
	BYTE	W04
	BYTE		N10     Dn2   v104
	BYTE	W12
	BYTE		N03     Dn2   v092
	BYTE	W04
	BYTE		N03   
	BYTE	W04
	BYTE		N03   
	BYTE	W04
	BYTE		        Dn2   v104
	BYTE	W04
	BYTE		        Dn2   v092
	BYTE	W04
	BYTE		N03   
	BYTE	W04
	BYTE		N03   
	BYTE	W04
	BYTE		N03   
	BYTE	W04
	BYTE		N03   
	BYTE	W04
	BYTE	PEND
// 002   ----------------------------------------
	BYTE	PATT
	 POIN2	FE3_Victory_C_3_001
// 003   ----------------------------------------
	BYTE	PATT
	 POIN2	FE3_Victory_C_3_001
// 004   ----------------------------------------
	BYTE	PATT
	 POIN2	FE3_Victory_C_3_001
// 005   ----------------------------------------
FE3_Victory_C_3_005:
	BYTE		N10     Gn2   v104
	BYTE	W12
	BYTE		N03     Gn2   v092
	BYTE	W04
	BYTE		N03   
	BYTE	W04
	BYTE		N03   
	BYTE	W04
	BYTE		N10     Gn2   v104
	BYTE	W12
	BYTE		N03     Gn2   v092
	BYTE	W04
	BYTE		N03   
	BYTE	W04
	BYTE		N03   
	BYTE	W04
	BYTE		N10     Gn2   v104
	BYTE	W12
	BYTE		N03     Gn2   v092
	BYTE	W04
	BYTE		N03   
	BYTE	W04
	BYTE		N03   
	BYTE	W04
	BYTE		        Gn2   v104
	BYTE	W04
	BYTE		        Gn2   v092
	BYTE	W04
	BYTE		N03   
	BYTE	W04
	BYTE		N03   
	BYTE	W04
	BYTE		N03   
	BYTE	W04
	BYTE		N03   
	BYTE	W04
	BYTE	PEND
// 006   ----------------------------------------
	BYTE	PATT
	 POIN2	FE3_Victory_C_3_001
// 007   ----------------------------------------
	BYTE	PATT
	 POIN2	FE3_Victory_C_3_001
// 008   ----------------------------------------
	BYTE	PATT
	 POIN2	FE3_Victory_C_3_001
// 009   ----------------------------------------
	BYTE	PATT
	 POIN2	FE3_Victory_C_3_001
// 010   ----------------------------------------
	BYTE	PATT
	 POIN2	FE3_Victory_C_3_001
// 011   ----------------------------------------
	BYTE	PATT
	 POIN2	FE3_Victory_C_3_005
	BYTE	GoTo
	 POIN2	FE3_Victory_C_3_B1
FE3_Victory_C_3_B2:
// 012   ----------------------------------------
	BYTE	FINE

//**************** Track 4 (Midi-Chn.5) ****************//

FE3_Victory_C_4:
	BYTE	KEYSH   FE3_Victory_C_key+0
FE3_Victory_C_4_B1:
// 000   ----------------------------------------
	BYTE		VOICE   61
	BYTE		VOL     56*FE3_Victory_C_mvl/mxv
	BYTE		PAN     c_v+25
	BYTE		N68     An3   v108
	BYTE	W72
	BYTE		N23     Cn4 
	BYTE	W24
// 001   ----------------------------------------
FE3_Victory_C_4_001:
	BYTE		N44     Bn3   v108
	BYTE	W48
	BYTE		        Gn3 
	BYTE	W48
	BYTE	PEND
// 002   ----------------------------------------
FE3_Victory_C_4_002:
	BYTE		N68     An3   v108
	BYTE	W72
	BYTE		N23     En4 
	BYTE	W24
	BYTE	PEND
// 003   ----------------------------------------
	BYTE	PATT
	 POIN2	FE3_Victory_C_4_001
// 004   ----------------------------------------
	BYTE		N92     An3   v108
	BYTE	W96
// 005   ----------------------------------------
FE3_Victory_C_4_005:
	BYTE		N44     An3   v108
	BYTE	W48
	BYTE		        Gn3 
	BYTE	W48
	BYTE	PEND
// 006   ----------------------------------------
	BYTE		N68     An3 
	BYTE	W72
	BYTE		N23     Cn4 
	BYTE	W24
// 007   ----------------------------------------
	BYTE	PATT
	 POIN2	FE3_Victory_C_4_001
// 008   ----------------------------------------
	BYTE	PATT
	 POIN2	FE3_Victory_C_4_002
// 009   ----------------------------------------
	BYTE	PATT
	 POIN2	FE3_Victory_C_4_001
// 010   ----------------------------------------
	BYTE		N92     An3   v108
	BYTE	W96
// 011   ----------------------------------------
	BYTE	PATT
	 POIN2	FE3_Victory_C_4_005
	BYTE	GoTo
	 POIN2	FE3_Victory_C_4_B1
FE3_Victory_C_4_B2:
// 012   ----------------------------------------
	BYTE	FINE

//**************** Track 5 (Midi-Chn.6) ****************//

FE3_Victory_C_5:
	BYTE	KEYSH   FE3_Victory_C_key+0
FE3_Victory_C_5_B1:
// 000   ----------------------------------------
	BYTE		VOICE   57
	BYTE		VOL     64*FE3_Victory_C_mvl/mxv
	BYTE		PAN     c_v-25
	BYTE		N68     Cn3   v108
	BYTE	W72
	BYTE		N23     Fn3 
	BYTE	W24
// 001   ----------------------------------------
FE3_Victory_C_5_001:
	BYTE		N44     Dn3   v108
	BYTE	W48
	BYTE		        Bn2 
	BYTE	W48
	BYTE	PEND
// 002   ----------------------------------------
FE3_Victory_C_5_002:
	BYTE		N68     Cn3   v108
	BYTE	W72
	BYTE		N23     Fn3 
	BYTE	W24
	BYTE	PEND
// 003   ----------------------------------------
	BYTE	PATT
	 POIN2	FE3_Victory_C_5_001
// 004   ----------------------------------------
	BYTE		N92     Cn3   v108
	BYTE	W96
// 005   ----------------------------------------
FE3_Victory_C_5_005:
	BYTE		N44     Cn3   v108
	BYTE	W48
	BYTE		        Bn2 
	BYTE	W48
	BYTE	PEND
// 006   ----------------------------------------
	BYTE	PATT
	 POIN2	FE3_Victory_C_5_002
// 007   ----------------------------------------
	BYTE	PATT
	 POIN2	FE3_Victory_C_5_001
// 008   ----------------------------------------
	BYTE	PATT
	 POIN2	FE3_Victory_C_5_002
// 009   ----------------------------------------
	BYTE	PATT
	 POIN2	FE3_Victory_C_5_001
// 010   ----------------------------------------
	BYTE		N92     Cn3   v108
	BYTE	W96
// 011   ----------------------------------------
	BYTE	PATT
	 POIN2	FE3_Victory_C_5_005
	BYTE	GoTo
	 POIN2	FE3_Victory_C_5_B1
FE3_Victory_C_5_B2:
// 012   ----------------------------------------
	BYTE	FINE

//**************** Track 6 (Midi-Chn.8) ****************//

FE3_Victory_C_6:
	BYTE	KEYSH   FE3_Victory_C_key+0
FE3_Victory_C_6_B1:
// 000   ----------------------------------------
	BYTE		VOICE   41
	BYTE		VOL     73*FE3_Victory_C_mvl/mxv
	BYTE		PAN     c_v-14
	BYTE	W36
	BYTE		N02     An3   v104
	BYTE	W04
	BYTE		N02   
	BYTE	W04
	BYTE		N02   
	BYTE	W04
	BYTE		N23   
	BYTE	W24
	BYTE		N02     Cn4 
	BYTE	W04
	BYTE		N02   
	BYTE	W04
	BYTE		N02   
	BYTE	W04
	BYTE		N11     Fn4 
	BYTE	W12
// 001   ----------------------------------------
FE3_Victory_C_6_001:
	BYTE		N32     Gn4   v104
	BYTE	W36
	BYTE		N03     Dn4 
	BYTE	W08
	BYTE		        Bn3 
	BYTE	W04
	BYTE		N11     Dn4 
	BYTE	W12
	BYTE		N23     Gn3 
	BYTE	W32
	BYTE		N03     Dn3 
	BYTE	W04
	BYTE	PEND
// 002   ----------------------------------------
FE3_Victory_C_6_002:
	BYTE		N11     Fn3   v104
	BYTE	W16
	BYTE		N03     An3 
	BYTE	W04
	BYTE		        Cn4 
	BYTE	W04
	BYTE		N23     Fn4 
	BYTE	W24
	BYTE		N02     An3   v108
	BYTE	W04
	BYTE		        Cn4   v096
	BYTE	W04
	BYTE		        Fn4 
	BYTE	W04
	BYTE		N22     An4   v104
	BYTE	W24
	BYTE		N03     Cn5 
	BYTE	W08
	BYTE		N03   
	BYTE	W04
	BYTE	PEND
// 003   ----------------------------------------
	BYTE		N92     Bn4 
	BYTE	W96
// 004   ----------------------------------------
FE3_Victory_C_6_004:
	BYTE		PAN     c_v+25
	BYTE		N23     An4   v112
	BYTE	W24
	BYTE		        Fn4   v108
	BYTE	W24
	BYTE		        Cn4   v104
	BYTE	W24
	BYTE		N07     An3   v100
	BYTE	W08
	BYTE		        Cn4   v104
	BYTE	W08
	BYTE		        Fn4   v108
	BYTE	W08
	BYTE	PEND
// 005   ----------------------------------------
FE3_Victory_C_6_005:
	BYTE		N44     Gn4   v112
	BYTE	W48
	BYTE		        Dn4 
	BYTE	W48
	BYTE	PEND
// 006   ----------------------------------------
	BYTE		PAN     c_v-14
	BYTE	W36
	BYTE		N02     An3   v104
	BYTE	W04
	BYTE		N02   
	BYTE	W04
	BYTE		N02   
	BYTE	W04
	BYTE		N23   
	BYTE	W24
	BYTE		N02     Cn4 
	BYTE	W04
	BYTE		N02   
	BYTE	W04
	BYTE		N02   
	BYTE	W04
	BYTE		N11     Fn4 
	BYTE	W12
// 007   ----------------------------------------
	BYTE	PATT
	 POIN2	FE3_Victory_C_6_001
// 008   ----------------------------------------
	BYTE	PATT
	 POIN2	FE3_Victory_C_6_002
// 009   ----------------------------------------
	BYTE		N92     Bn4   v104
	BYTE	W96
// 010   ----------------------------------------
	BYTE	PATT
	 POIN2	FE3_Victory_C_6_004
// 011   ----------------------------------------
	BYTE	PATT
	 POIN2	FE3_Victory_C_6_005
	BYTE	GoTo
	 POIN2	FE3_Victory_C_6_B1
FE3_Victory_C_6_B2:
// 012   ----------------------------------------
	BYTE	FINE

//**************** Track 7 (Midi-Chn.9) ****************//

FE3_Victory_C_7:
	BYTE	KEYSH   FE3_Victory_C_key+0
FE3_Victory_C_7_B1:
// 000   ----------------------------------------
	BYTE		VOICE   122
	BYTE		VOL     88*FE3_Victory_C_mvl/mxv
	BYTE		N11     Dn1   v108
	BYTE	W12
	BYTE		N03     Dn1   v092
	BYTE	W04
	BYTE		        Dn1   v072
	BYTE	W04
	BYTE		N03   
	BYTE	W04
	BYTE		N11     Dn1   v108
	BYTE	W12
	BYTE		N03     Dn1   v092
	BYTE	W04
	BYTE		        Dn1   v072
	BYTE	W04
	BYTE		N03   
	BYTE	W04
	BYTE		N11     Dn1   v108
	BYTE	W12
	BYTE		N03     Dn1   v092
	BYTE	W04
	BYTE		        Dn1   v072
	BYTE	W04
	BYTE		N03   
	BYTE	W04
	BYTE		        Dn1   v104
	BYTE	W04
	BYTE		        Dn1   v092
	BYTE	W04
	BYTE		        Dn1   v072
	BYTE	W04
	BYTE		N03   
	BYTE	W04
	BYTE		N03   
	BYTE	W04
	BYTE		N03   
	BYTE	W04
// 001   ----------------------------------------
FE3_Victory_C_7_001:
	BYTE		N11     Dn1   v108
	BYTE	W12
	BYTE		N03     Dn1   v092
	BYTE	W04
	BYTE		        Dn1   v072
	BYTE	W04
	BYTE		N03   
	BYTE	W04
	BYTE		N11     Dn1   v108
	BYTE	W12
	BYTE		N03     Dn1   v092
	BYTE	W04
	BYTE		        Dn1   v072
	BYTE	W04
	BYTE		N03   
	BYTE	W04
	BYTE		N11     Dn1   v108
	BYTE	W12
	BYTE		N03     Dn1   v092
	BYTE	W04
	BYTE		        Dn1   v072
	BYTE	W04
	BYTE		N03   
	BYTE	W04
	BYTE		        Dn1   v104
	BYTE	W04
	BYTE		        Dn1   v092
	BYTE	W04
	BYTE		        Dn1   v072
	BYTE	W04
	BYTE		N03   
	BYTE	W04
	BYTE		N03   
	BYTE	W04
	BYTE		N03   
	BYTE	W04
	BYTE	PEND
// 002   ----------------------------------------
	BYTE	PATT
	 POIN2	FE3_Victory_C_7_001
// 003   ----------------------------------------
	BYTE	PATT
	 POIN2	FE3_Victory_C_7_001
// 004   ----------------------------------------
	BYTE	PATT
	 POIN2	FE3_Victory_C_7_001
// 005   ----------------------------------------
	BYTE	PATT
	 POIN2	FE3_Victory_C_7_001
// 006   ----------------------------------------
	BYTE	PATT
	 POIN2	FE3_Victory_C_7_001
// 007   ----------------------------------------
	BYTE	PATT
	 POIN2	FE3_Victory_C_7_001
// 008   ----------------------------------------
	BYTE	PATT
	 POIN2	FE3_Victory_C_7_001
// 009   ----------------------------------------
	BYTE	PATT
	 POIN2	FE3_Victory_C_7_001
// 010   ----------------------------------------
	BYTE	PATT
	 POIN2	FE3_Victory_C_7_001
// 011   ----------------------------------------
	BYTE	PATT
	 POIN2	FE3_Victory_C_7_001
	BYTE	GoTo
	 POIN2	FE3_Victory_C_7_B1
FE3_Victory_C_7_B2:
// 012   ----------------------------------------
	BYTE	FINE

//**************** Track 8 (Midi-Chn.3) ****************//

FE3_Victory_C_8:
	BYTE	KEYSH   FE3_Victory_C_key+0
FE3_Victory_C_8_B1:
// 000   ----------------------------------------
	BYTE		VOICE   77
	BYTE		VOL     64*FE3_Victory_C_mvl/mxv
	BYTE		N03     Cn2   v104
	BYTE	W04
	BYTE		        En2 
	BYTE	W04
	BYTE		        An2 
	BYTE	W04
	BYTE		        Cn3 
	BYTE	W04
	BYTE		        En3 
	BYTE	W04
	BYTE		        An3 
	BYTE	W04
	BYTE		        Cn4 
	BYTE	W04
	BYTE		        An3 
	BYTE	W04
	BYTE		        En3 
	BYTE	W04
	BYTE		        Cn3 
	BYTE	W04
	BYTE		        An2 
	BYTE	W04
	BYTE		        En2 
	BYTE	W04
	BYTE		        Cn2 
	BYTE	W04
	BYTE		        En2 
	BYTE	W04
	BYTE		        An2 
	BYTE	W04
	BYTE		        Cn3 
	BYTE	W04
	BYTE		        En3 
	BYTE	W04
	BYTE		        An3 
	BYTE	W04
	BYTE		        Cn4 
	BYTE	W04
	BYTE		        An3 
	BYTE	W04
	BYTE		        En3 
	BYTE	W04
	BYTE		        Cn3 
	BYTE	W04
	BYTE		        An2 
	BYTE	W04
	BYTE		        En2 
	BYTE	W04
// 001   ----------------------------------------
FE3_Victory_C_8_001:
	BYTE		N03     Bn1   v104
	BYTE	W04
	BYTE		        Dn2 
	BYTE	W04
	BYTE		        Gn2 
	BYTE	W04
	BYTE		        Bn2 
	BYTE	W04
	BYTE		        Dn3 
	BYTE	W04
	BYTE		        Gn3 
	BYTE	W04
	BYTE		        Bn3 
	BYTE	W04
	BYTE		        Gn3 
	BYTE	W04
	BYTE		        Dn3 
	BYTE	W04
	BYTE		        Bn2 
	BYTE	W04
	BYTE		        Gn2 
	BYTE	W04
	BYTE		        Dn2 
	BYTE	W04
	BYTE		        Bn1 
	BYTE	W04
	BYTE		        Dn2 
	BYTE	W04
	BYTE		        Gn2 
	BYTE	W04
	BYTE		        Bn2 
	BYTE	W04
	BYTE		        Dn3 
	BYTE	W04
	BYTE		        Gn3 
	BYTE	W04
	BYTE		        Bn3 
	BYTE	W04
	BYTE		        Gn3 
	BYTE	W04
	BYTE		        Dn3 
	BYTE	W04
	BYTE		        Bn2 
	BYTE	W04
	BYTE		        Gn2 
	BYTE	W04
	BYTE		        Dn2 
	BYTE	W04
	BYTE	PEND
// 002   ----------------------------------------
FE3_Victory_C_8_002:
	BYTE		N03     Cn2   v104
	BYTE	W04
	BYTE		        En2 
	BYTE	W04
	BYTE		        An2 
	BYTE	W04
	BYTE		        Cn3 
	BYTE	W04
	BYTE		        En3 
	BYTE	W04
	BYTE		        An3 
	BYTE	W04
	BYTE		        Cn4 
	BYTE	W04
	BYTE		        An3 
	BYTE	W04
	BYTE		        En3 
	BYTE	W04
	BYTE		        Cn3 
	BYTE	W04
	BYTE		        An2 
	BYTE	W04
	BYTE		        En2 
	BYTE	W04
	BYTE		        Cn2 
	BYTE	W04
	BYTE		        En2 
	BYTE	W04
	BYTE		        An2 
	BYTE	W04
	BYTE		        Cn3 
	BYTE	W04
	BYTE		        En3 
	BYTE	W04
	BYTE		        An3 
	BYTE	W04
	BYTE		        Cn4 
	BYTE	W04
	BYTE		        An3 
	BYTE	W04
	BYTE		        En3 
	BYTE	W04
	BYTE		        Cn3 
	BYTE	W04
	BYTE		        An2 
	BYTE	W04
	BYTE		        En2 
	BYTE	W04
	BYTE	PEND
// 003   ----------------------------------------
	BYTE	PATT
	 POIN2	FE3_Victory_C_8_001
// 004   ----------------------------------------
FE3_Victory_C_8_004:
	BYTE		N03     An1   v104
	BYTE	W04
	BYTE		        Cn2 
	BYTE	W04
	BYTE		        En2 
	BYTE	W04
	BYTE		        An2 
	BYTE	W04
	BYTE		        Cn3 
	BYTE	W04
	BYTE		        En3 
	BYTE	W04
	BYTE		        An3 
	BYTE	W04
	BYTE		        En3 
	BYTE	W04
	BYTE		        Cn3 
	BYTE	W04
	BYTE		        An2 
	BYTE	W04
	BYTE		        En2 
	BYTE	W04
	BYTE		        Cn2 
	BYTE	W04
	BYTE		        An1 
	BYTE	W04
	BYTE		        Cn2 
	BYTE	W04
	BYTE		        En2 
	BYTE	W04
	BYTE		        An2 
	BYTE	W04
	BYTE		        Cn3 
	BYTE	W04
	BYTE		        En3 
	BYTE	W04
	BYTE		        An3 
	BYTE	W04
	BYTE		        En3 
	BYTE	W04
	BYTE		        Cn3 
	BYTE	W04
	BYTE		        An2 
	BYTE	W04
	BYTE		        En2 
	BYTE	W04
	BYTE		        Cn2 
	BYTE	W04
	BYTE	PEND
// 005   ----------------------------------------
FE3_Victory_C_8_005:
	BYTE		N03     An1   v104
	BYTE	W04
	BYTE		        Cn2 
	BYTE	W04
	BYTE		        En2 
	BYTE	W04
	BYTE		        An2 
	BYTE	W04
	BYTE		        Cn3 
	BYTE	W04
	BYTE		        En3 
	BYTE	W04
	BYTE		        An3 
	BYTE	W04
	BYTE		        En3 
	BYTE	W04
	BYTE		        Cn3 
	BYTE	W04
	BYTE		        An2 
	BYTE	W04
	BYTE		        En2 
	BYTE	W04
	BYTE		        Cn2 
	BYTE	W04
	BYTE		        Gn1 
	BYTE	W04
	BYTE		        Bn1 
	BYTE	W04
	BYTE		        Dn2 
	BYTE	W04
	BYTE		        Gn2 
	BYTE	W04
	BYTE		        Bn2 
	BYTE	W04
	BYTE		        Dn3 
	BYTE	W04
	BYTE		        Gn3 
	BYTE	W04
	BYTE		        Dn3 
	BYTE	W04
	BYTE		        Bn2 
	BYTE	W04
	BYTE		        Gn2 
	BYTE	W04
	BYTE		        Bn2 
	BYTE	W04
	BYTE		        Dn3 
	BYTE	W04
	BYTE	PEND
// 006   ----------------------------------------
	BYTE		VOL     64*FE3_Victory_C_mvl/mxv
	BYTE		N03     Cn2 
	BYTE	W04
	BYTE		        En2 
	BYTE	W04
	BYTE		        An2 
	BYTE	W04
	BYTE		        Cn3 
	BYTE	W04
	BYTE		        En3 
	BYTE	W04
	BYTE		        An3 
	BYTE	W04
	BYTE		        Cn4 
	BYTE	W04
	BYTE		        An3 
	BYTE	W04
	BYTE		        En3 
	BYTE	W04
	BYTE		        Cn3 
	BYTE	W04
	BYTE		        An2 
	BYTE	W04
	BYTE		        En2 
	BYTE	W04
	BYTE		        Cn2 
	BYTE	W04
	BYTE		        En2 
	BYTE	W04
	BYTE		        An2 
	BYTE	W04
	BYTE		        Cn3 
	BYTE	W04
	BYTE		        En3 
	BYTE	W04
	BYTE		        An3 
	BYTE	W04
	BYTE		        Cn4 
	BYTE	W04
	BYTE		        An3 
	BYTE	W04
	BYTE		        En3 
	BYTE	W04
	BYTE		        Cn3 
	BYTE	W04
	BYTE		        An2 
	BYTE	W04
	BYTE		        En2 
	BYTE	W04
// 007   ----------------------------------------
	BYTE	PATT
	 POIN2	FE3_Victory_C_8_001
// 008   ----------------------------------------
	BYTE	PATT
	 POIN2	FE3_Victory_C_8_002
// 009   ----------------------------------------
	BYTE	PATT
	 POIN2	FE3_Victory_C_8_001
// 010   ----------------------------------------
	BYTE	PATT
	 POIN2	FE3_Victory_C_8_004
// 011   ----------------------------------------
	BYTE	PATT
	 POIN2	FE3_Victory_C_8_005
	BYTE	GoTo
	 POIN2	FE3_Victory_C_8_B1
FE3_Victory_C_8_B2:
// 012   ----------------------------------------
	BYTE	FINE

//******************************************************//
	ALIGN 4

FE3_Victory_C:
	BYTE	8	// NumTrks
	BYTE	0	// NumBlks
	BYTE	FE3_Victory_C_pri	// Priority
	BYTE	FE3_Victory_C_rev	// Reverb.

	POIN2	FE3_Victory_C_grp

	POIN2	FE3_Victory_C_1
	POIN2	FE3_Victory_C_2
	POIN2	FE3_Victory_C_3
	POIN2	FE3_Victory_C_4
	POIN2	FE3_Victory_C_5
	POIN2	FE3_Victory_C_6
	POIN2	FE3_Victory_C_7
	POIN2	FE3_Victory_C_8

	
