//Event file generated from Sappy .s format.
	#include "MPlayDef.event"

	#define	MapIntroOpening_grp  voicegroup000
	#define	MapIntroOpening_pri  0
	#define	MapIntroOpening_rev  0
	#define	MapIntroOpening_mvl  85
	#define	MapIntroOpening_key  0
	#define	MapIntroOpening_tbs  1
	#define	MapIntroOpening_exg  0
	#define	MapIntroOpening_cmp  1

	// .rodata
	//	MapIntroOpening
	ALIGN 4

//**************** Track 1 (Midi-Chn.1) ****************//

MapIntroOpening_1:
	BYTE	KEYSH   MapIntroOpening_key+0
// 000   ----------------------------------------
	BYTE	TEMPO   300*MapIntroOpening_tbs/2
	BYTE		VOICE   76
	BYTE		VOL     95*MapIntroOpening_mvl/mxv
	BYTE		PAN     c_v-38
	BYTE	W84
	BYTE	W04
	BYTE	W08
// 001   ----------------------------------------
	BYTE	TEMPO   70*MapIntroOpening_tbs/2
	BYTE		N44     Cn3   v100
	BYTE	W48
	BYTE		        Cn4 
	BYTE	W48
// 002   ----------------------------------------
	BYTE		N10     Gn4 
	BYTE	W12
	BYTE		        As4 
	BYTE	W12
	BYTE		        An4 
	BYTE	W12
	BYTE		        Fn4 
	BYTE	W12
	BYTE		N90     Gn4 
	BYTE	W48
// 003   ----------------------------------------
	BYTE	W96
// 004   ----------------------------------------
	BYTE		N44     Cn3 
	BYTE	W48
	BYTE		        Gn3 
	BYTE	W48
// 005   ----------------------------------------
	BYTE		N22     Cn4 
	BYTE	W24
	BYTE		N23     Ds4 
	BYTE	W24
	BYTE		N44     Dn4 
	BYTE	W48
// 006   ----------------------------------------
	BYTE		N23     Cn4 
	BYTE	W24
	BYTE		        As3 
	BYTE	W24
	BYTE		TIE     Gn3 
	BYTE	W48
// 007   ----------------------------------------
	BYTE	W03
	BYTE	TEMPO   100*MapIntroOpening_tbs/2
	BYTE	W80
	BYTE	W03
	BYTE		EOT   
	BYTE	W10
// 008   ----------------------------------------
	BYTE	TEMPO   130*MapIntroOpening_tbs/2
	BYTE	W72
// 009   ----------------------------------------
	BYTE	W72
// 010   ----------------------------------------
	BYTE	W72
// 011   ----------------------------------------
	BYTE	W72
// 012   ----------------------------------------
	BYTE	W72
// 013   ----------------------------------------
	BYTE	W72
// 014   ----------------------------------------
	BYTE	W72
// 015   ----------------------------------------
	BYTE	W72
// 016   ----------------------------------------
	BYTE	W72
// 017   ----------------------------------------
	BYTE	W72
// 018   ----------------------------------------
	BYTE	W72
// 019   ----------------------------------------
	BYTE	W72
// 020   ----------------------------------------
	BYTE	W72
// 021   ----------------------------------------
	BYTE	W72
// 022   ----------------------------------------
	BYTE	W72
// 023   ----------------------------------------
	BYTE	W72
// 024   ----------------------------------------
	BYTE	W72
// 025   ----------------------------------------
	BYTE	W72
// 026   ----------------------------------------
	BYTE	W72
// 027   ----------------------------------------
	BYTE	W72
// 028   ----------------------------------------
	BYTE	W72
// 029   ----------------------------------------
	BYTE	W72
// 030   ----------------------------------------
	BYTE	W72
// 031   ----------------------------------------
	BYTE	W72
// 032   ----------------------------------------
	BYTE	W72
// 033   ----------------------------------------
	BYTE	W72
// 034   ----------------------------------------
	BYTE	W72
// 035   ----------------------------------------
	BYTE	W72
// 036   ----------------------------------------
	BYTE	W72
// 037   ----------------------------------------
	BYTE	W72
// 038   ----------------------------------------
	BYTE	W72
// 039   ----------------------------------------
	BYTE	W72
// 040   ----------------------------------------
	BYTE	W72
// 041   ----------------------------------------
	BYTE	W72
// 042   ----------------------------------------
	BYTE	W72
// 043   ----------------------------------------
	BYTE	W72
// 044   ----------------------------------------
	BYTE	W72
// 045   ----------------------------------------
	BYTE	W72
// 046   ----------------------------------------
	BYTE	W24
	BYTE	TEMPO   125*MapIntroOpening_tbs/2
	BYTE	W24
	BYTE	TEMPO   120*MapIntroOpening_tbs/2
	BYTE	W24
// 047   ----------------------------------------
	BYTE	TEMPO   113*MapIntroOpening_tbs/2
	BYTE	W24
	BYTE	TEMPO   105*MapIntroOpening_tbs/2
	BYTE	W24
	BYTE	TEMPO   95*MapIntroOpening_tbs/2
	BYTE	W24
// 048   ----------------------------------------
	BYTE	TEMPO   80*MapIntroOpening_tbs/2
	BYTE	W96
// 049   ----------------------------------------
	BYTE	W96
// 050   ----------------------------------------
	BYTE	W96
// 051   ----------------------------------------
	BYTE	TEMPO   136*MapIntroOpening_tbs/2
	BYTE	W96
// 052   ----------------------------------------
	BYTE	W44
	BYTE	W03
	BYTE	FINE

//**************** Track 2 (Midi-Chn.2) ****************//

MapIntroOpening_2:
	BYTE	KEYSH   MapIntroOpening_key+0
// 000   ----------------------------------------
	BYTE		VOICE   49
	BYTE		PAN     c_v+34
	BYTE		VOL     56*MapIntroOpening_mvl/mxv
	BYTE	W96
// 001   ----------------------------------------
	BYTE		TIE     Cn5   v104
	BYTE	W96
// 002   ----------------------------------------
	BYTE	W96
// 003   ----------------------------------------
	BYTE	W36
	BYTE		EOT   
	BYTE	W60
// 004   ----------------------------------------
	BYTE		N96     Cn5   v076
	BYTE	W48
	BYTE		        Gn4 
	BYTE	W48
// 005   ----------------------------------------
	BYTE	W48
	BYTE		        Dn4 
	BYTE	W48
// 006   ----------------------------------------
	BYTE	W48
	BYTE		TIE     Gn3   v104
	BYTE	W48
// 007   ----------------------------------------
	BYTE	W96
	BYTE		EOT   
// 008   ----------------------------------------
	BYTE	W72
// 009   ----------------------------------------
	BYTE	W72
// 010   ----------------------------------------
	BYTE	W72
// 011   ----------------------------------------
	BYTE	W72
// 012   ----------------------------------------
MapIntroOpening_2_012:
	BYTE		N64     Gn2   v100
	BYTE		N64     Cn3 
	BYTE		N64     Gn3 
	BYTE	W72
	BYTE	PEND
// 013   ----------------------------------------
MapIntroOpening_2_013:
	BYTE		N64     As2   v100
	BYTE		N64     Ds3 
	BYTE		N64     As3 
	BYTE	W72
	BYTE	PEND
// 014   ----------------------------------------
MapIntroOpening_2_014:
	BYTE		N64     An2   v100
	BYTE		N64     Cn3 
	BYTE		N64     An3 
	BYTE	W72
	BYTE	PEND
// 015   ----------------------------------------
MapIntroOpening_2_015:
	BYTE		N64     An2   v100
	BYTE		N64     Cn3 
	BYTE		N64     Fn3 
	BYTE	W72
	BYTE	PEND
// 016   ----------------------------------------
MapIntroOpening_2_016:
	BYTE		TIE     Cn3   v100
	BYTE		TIE     En3 
	BYTE		TIE     Gn3 
	BYTE	W72
	BYTE	PEND
// 017   ----------------------------------------
	BYTE	W64
	BYTE		EOT     Cn3 
	BYTE		        En3 
	BYTE		        Gn3 
	BYTE	W08
// 018   ----------------------------------------
	BYTE		TIE     Gn2   v104
	BYTE	W72
// 019   ----------------------------------------
	BYTE	W66
	BYTE		EOT   
	BYTE	W06
// 020   ----------------------------------------
	BYTE	PATT
	 POIN2	MapIntroOpening_2_012
// 021   ----------------------------------------
	BYTE	PATT
	 POIN2	MapIntroOpening_2_013
// 022   ----------------------------------------
	BYTE	PATT
	 POIN2	MapIntroOpening_2_014
// 023   ----------------------------------------
	BYTE	PATT
	 POIN2	MapIntroOpening_2_015
// 024   ----------------------------------------
	BYTE	PATT
	 POIN2	MapIntroOpening_2_016
// 025   ----------------------------------------
	BYTE	W64
	BYTE		EOT     Cn3 
	BYTE		        En3 
	BYTE		        Gn3 
	BYTE	W08
// 026   ----------------------------------------
	BYTE		TIE     Gn2   v104
	BYTE	W72
// 027   ----------------------------------------
	BYTE	W66
	BYTE		EOT   
	BYTE	W06
// 028   ----------------------------------------
	BYTE		N64     Ds3   v100
	BYTE		N64     Gn3 
	BYTE	W72
// 029   ----------------------------------------
	BYTE		N64   
	BYTE		N64     As3 
	BYTE	W72
// 030   ----------------------------------------
	BYTE		        Fn3 
	BYTE		N64     An3 
	BYTE	W72
// 031   ----------------------------------------
	BYTE		N64   
	BYTE		N64     Cn4 
	BYTE	W72
// 032   ----------------------------------------
	BYTE		        Ds3 
	BYTE		N64     Gn3 
	BYTE	W72
// 033   ----------------------------------------
	BYTE		N64   
	BYTE		N64     As3 
	BYTE	W72
// 034   ----------------------------------------
	BYTE		        Fn3 
	BYTE		N64     An3 
	BYTE	W72
// 035   ----------------------------------------
	BYTE		N64   
	BYTE		N64     Cn4 
	BYTE	W72
// 036   ----------------------------------------
	BYTE		        Fn3 
	BYTE		N64     As3 
	BYTE	W72
// 037   ----------------------------------------
	BYTE		        Gs3 
	BYTE		N64     Cs4 
	BYTE	W72
// 038   ----------------------------------------
	BYTE		        Gn3 
	BYTE		N64     Cn4 
	BYTE	W72
// 039   ----------------------------------------
MapIntroOpening_2_039:
	BYTE		N42     Fs3   v100
	BYTE		N42     As3 
	BYTE		N42     Ds4 
	BYTE	W48
	BYTE		N10     Ds3 
	BYTE		N10     Gs3 
	BYTE		N10     Ds4 
	BYTE	W12
	BYTE		        Cn3 
	BYTE		N10     Gs3 
	BYTE		N10     Cn4 
	BYTE	W12
	BYTE	PEND
// 040   ----------------------------------------
	BYTE		N64     Fn3 
	BYTE		N64     As3 
	BYTE	W72
// 041   ----------------------------------------
	BYTE		        Gs3 
	BYTE		N64     Cs4 
	BYTE	W72
// 042   ----------------------------------------
	BYTE		        Gn3 
	BYTE		N64     Cn4 
	BYTE	W72
// 043   ----------------------------------------
	BYTE	PATT
	 POIN2	MapIntroOpening_2_039
// 044   ----------------------------------------
	BYTE		TIE     Ds3   v100
	BYTE		TIE     Fs3 
	BYTE		TIE     As3 
	BYTE	W72
// 045   ----------------------------------------
	BYTE	W68
	BYTE	W01
	BYTE		EOT     Ds3 
	BYTE		        Fs3 
	BYTE		        As3 
	BYTE	W03
// 046   ----------------------------------------
	BYTE		TIE     Cn3 
	BYTE		TIE     En3 
	BYTE		TIE     Gn3 
	BYTE		TIE     Cn4 
	BYTE	W72
// 047   ----------------------------------------
	BYTE	W60
	BYTE	W03
	BYTE		EOT     Cn3 
	BYTE		        En3 
	BYTE		        Gn3 
	BYTE		        Cn4 
	BYTE	W09
// 048   ----------------------------------------
	BYTE		BEND    c_v-1
	BYTE	W96
// 049   ----------------------------------------
	BYTE	W96
// 050   ----------------------------------------
	BYTE	W96
// 051   ----------------------------------------
	BYTE	W96
// 052   ----------------------------------------
	BYTE	W44
	BYTE	W03
	BYTE	FINE

//**************** Track 3 (Midi-Chn.3) ****************//

MapIntroOpening_3:
	BYTE	KEYSH   MapIntroOpening_key+0
// 000   ----------------------------------------
	BYTE		VOICE   18
	BYTE		VOL     87*MapIntroOpening_mvl/mxv
	BYTE		PAN     c_v-19
	BYTE	W42
	BYTE		N02     Cn2   v100
	BYTE	W03
	BYTE		N02   
	BYTE	W03
	BYTE		TIE   
	BYTE	W48
// 001   ----------------------------------------
	BYTE	W96
// 002   ----------------------------------------
	BYTE	W96
// 003   ----------------------------------------
	BYTE	W36
	BYTE	W03
	BYTE		EOT   
	BYTE	W03
	BYTE		N02   
	BYTE	W03
	BYTE		N02   
	BYTE	W03
	BYTE		TIE   
	BYTE	W48
// 004   ----------------------------------------
	BYTE	W96
// 005   ----------------------------------------
	BYTE	W96
// 006   ----------------------------------------
	BYTE	W48
	BYTE		        Gn2   v064
	BYTE	W48
// 007   ----------------------------------------
	BYTE	W84
	BYTE	W02
	BYTE		EOT     Cn2 
	BYTE	W10
	BYTE		        Gn2 
// 008   ----------------------------------------
	BYTE	W72
// 009   ----------------------------------------
	BYTE	W72
// 010   ----------------------------------------
	BYTE	W72
// 011   ----------------------------------------
	BYTE	W72
// 012   ----------------------------------------
	BYTE	W72
// 013   ----------------------------------------
	BYTE	W72
// 014   ----------------------------------------
	BYTE	W72
// 015   ----------------------------------------
	BYTE	W72
// 016   ----------------------------------------
	BYTE	W72
// 017   ----------------------------------------
	BYTE	W72
// 018   ----------------------------------------
	BYTE	W72
// 019   ----------------------------------------
	BYTE	W72
// 020   ----------------------------------------
	BYTE	W72
// 021   ----------------------------------------
	BYTE	W72
// 022   ----------------------------------------
	BYTE	W72
// 023   ----------------------------------------
	BYTE	W72
// 024   ----------------------------------------
	BYTE	W72
// 025   ----------------------------------------
	BYTE	W72
// 026   ----------------------------------------
	BYTE	W72
// 027   ----------------------------------------
	BYTE	W72
// 028   ----------------------------------------
	BYTE	W72
// 029   ----------------------------------------
	BYTE	W72
// 030   ----------------------------------------
	BYTE	W72
// 031   ----------------------------------------
	BYTE	W72
// 032   ----------------------------------------
	BYTE	W72
// 033   ----------------------------------------
	BYTE	W72
// 034   ----------------------------------------
	BYTE	W72
// 035   ----------------------------------------
	BYTE	W72
// 036   ----------------------------------------
	BYTE	W72
// 037   ----------------------------------------
	BYTE	W72
// 038   ----------------------------------------
	BYTE	W72
// 039   ----------------------------------------
	BYTE	W72
// 040   ----------------------------------------
	BYTE	W72
// 041   ----------------------------------------
	BYTE	W72
// 042   ----------------------------------------
	BYTE	W72
// 043   ----------------------------------------
	BYTE	W72
// 044   ----------------------------------------
	BYTE	W72
// 045   ----------------------------------------
	BYTE	W72
// 046   ----------------------------------------
	BYTE	W72
// 047   ----------------------------------------
	BYTE	W72
// 048   ----------------------------------------
	BYTE		TIE     Cn2   v100
	BYTE	W96
// 049   ----------------------------------------
	BYTE	W96
// 050   ----------------------------------------
	BYTE	W96
// 051   ----------------------------------------
	BYTE	W72
	BYTE	W02
	BYTE	W01
	BYTE	W02
	BYTE	W01
	BYTE	W02
	BYTE	W01
	BYTE	W02
	BYTE	W01
	BYTE	W02
	BYTE	W01
	BYTE	W02
	BYTE	W01
	BYTE	W02
	BYTE	W01
	BYTE	W02
	BYTE	W01
// 052   ----------------------------------------
	BYTE	W02
	BYTE	W01
	BYTE	W02
	BYTE	W01
	BYTE	W02
	BYTE	W01
	BYTE	W02
	BYTE	W01
	BYTE	W02
	BYTE	W01
	BYTE	W02
	BYTE	W01
	BYTE	W02
	BYTE	W01
	BYTE	W02
	BYTE	W01
	BYTE	W02
	BYTE	W01
	BYTE	W02
	BYTE	W01
	BYTE	W02
	BYTE	W01
	BYTE	W02
	BYTE	W01
	BYTE	W02
	BYTE	W01
	BYTE	W02
	BYTE	W01
	BYTE	W02
	BYTE	W01
	BYTE	W02
	BYTE		EOT   
	BYTE	FINE

//**************** Track 4 (Midi-Chn.4) ****************//

MapIntroOpening_4:
	BYTE	KEYSH   MapIntroOpening_key+0
// 000   ----------------------------------------
	BYTE		VOICE   66
	BYTE		VOL     70*MapIntroOpening_mvl/mxv
	BYTE		PAN     c_v-26
	BYTE	W96
// 001   ----------------------------------------
	BYTE	W96
// 002   ----------------------------------------
	BYTE	W96
// 003   ----------------------------------------
	BYTE	W96
// 004   ----------------------------------------
	BYTE	W96
// 005   ----------------------------------------
	BYTE	W96
// 006   ----------------------------------------
	BYTE	W96
// 007   ----------------------------------------
	BYTE	W96
// 008   ----------------------------------------
	BYTE	W72
// 009   ----------------------------------------
	BYTE	W72
// 010   ----------------------------------------
	BYTE	W72
// 011   ----------------------------------------
	BYTE	W72
// 012   ----------------------------------------
MapIntroOpening_4_012:
	BYTE		N64     Gn2   v100
	BYTE		N64     Cn3 
	BYTE		N64     Gn3 
	BYTE	W72
	BYTE	PEND
// 013   ----------------------------------------
MapIntroOpening_4_013:
	BYTE		N64     As2   v100
	BYTE		N64     Ds3 
	BYTE		N64     As3 
	BYTE	W72
	BYTE	PEND
// 014   ----------------------------------------
MapIntroOpening_4_014:
	BYTE		N64     An2   v100
	BYTE		N64     Cn3 
	BYTE		N64     An3 
	BYTE	W72
	BYTE	PEND
// 015   ----------------------------------------
MapIntroOpening_4_015:
	BYTE		N64     An2   v100
	BYTE		N64     Cn3 
	BYTE		N64     Fn3 
	BYTE	W72
	BYTE	PEND
// 016   ----------------------------------------
MapIntroOpening_4_016:
	BYTE		TIE     Cn3   v100
	BYTE		TIE     En3 
	BYTE		TIE     Gn3 
	BYTE	W72
	BYTE	PEND
// 017   ----------------------------------------
	BYTE	W64
	BYTE		EOT     Cn3 
	BYTE		        En3 
	BYTE		        Gn3 
	BYTE	W08
// 018   ----------------------------------------
MapIntroOpening_4_018:
	BYTE		TIE     Gn2   v104
	BYTE		TIE     Cn3 
	BYTE	W72
	BYTE	PEND
// 019   ----------------------------------------
	BYTE	W66
	BYTE		EOT     Gn2 
	BYTE		        Cn3 
	BYTE	W06
// 020   ----------------------------------------
	BYTE	PATT
	 POIN2	MapIntroOpening_4_012
// 021   ----------------------------------------
	BYTE	PATT
	 POIN2	MapIntroOpening_4_013
// 022   ----------------------------------------
	BYTE	PATT
	 POIN2	MapIntroOpening_4_014
// 023   ----------------------------------------
	BYTE	PATT
	 POIN2	MapIntroOpening_4_015
// 024   ----------------------------------------
	BYTE	PATT
	 POIN2	MapIntroOpening_4_016
// 025   ----------------------------------------
	BYTE	W64
	BYTE		EOT     Cn3 
	BYTE		        En3 
	BYTE		        Gn3 
	BYTE	W08
// 026   ----------------------------------------
	BYTE	PATT
	 POIN2	MapIntroOpening_4_018
// 027   ----------------------------------------
	BYTE	W66
	BYTE		EOT     Gn2 
	BYTE		        Cn3 
	BYTE	W06
// 028   ----------------------------------------
	BYTE		N64     Ds3   v100
	BYTE		N64     Gn3 
	BYTE	W72
// 029   ----------------------------------------
	BYTE		N64   
	BYTE		N64     As3 
	BYTE	W72
// 030   ----------------------------------------
	BYTE		        Fn3 
	BYTE		N64     An3 
	BYTE	W72
// 031   ----------------------------------------
	BYTE		N64   
	BYTE		N64     Cn4 
	BYTE	W72
// 032   ----------------------------------------
	BYTE		        Ds3 
	BYTE		N64     Gn3 
	BYTE	W72
// 033   ----------------------------------------
	BYTE		N64   
	BYTE		N64     As3 
	BYTE	W72
// 034   ----------------------------------------
	BYTE		        Fn3 
	BYTE		N64     An3 
	BYTE	W72
// 035   ----------------------------------------
	BYTE		N64   
	BYTE		N64     Cn4 
	BYTE	W72
// 036   ----------------------------------------
	BYTE		        Fn3 
	BYTE		N64     As3 
	BYTE	W72
// 037   ----------------------------------------
	BYTE		        Gs3 
	BYTE		N64     Cs4 
	BYTE	W72
// 038   ----------------------------------------
	BYTE		        Gn3 
	BYTE		N64     Cn4 
	BYTE	W72
// 039   ----------------------------------------
MapIntroOpening_4_039:
	BYTE		N42     Fs3   v100
	BYTE		N42     As3 
	BYTE		N42     Ds4 
	BYTE	W48
	BYTE		N10     Ds3 
	BYTE		N10     Gs3 
	BYTE		N10     Ds4 
	BYTE	W12
	BYTE		        Cn3 
	BYTE		N10     Gs3 
	BYTE		N10     Cn4 
	BYTE	W12
	BYTE	PEND
// 040   ----------------------------------------
	BYTE		N64     Fn3 
	BYTE		N64     As3 
	BYTE	W72
// 041   ----------------------------------------
	BYTE		        Gs3 
	BYTE		N64     Cs4 
	BYTE	W72
// 042   ----------------------------------------
	BYTE		        Gn3 
	BYTE		N64     Cn4 
	BYTE	W72
// 043   ----------------------------------------
	BYTE	PATT
	 POIN2	MapIntroOpening_4_039
// 044   ----------------------------------------
	BYTE		TIE     Ds3   v100
	BYTE		TIE     Fs3 
	BYTE		TIE     As3 
	BYTE	W72
// 045   ----------------------------------------
	BYTE	W64
	BYTE		EOT     Ds3 
	BYTE		        Fs3 
	BYTE		        As3 
	BYTE	W08
// 046   ----------------------------------------
	BYTE		TIE     Cn3 
	BYTE		TIE     En3 
	BYTE		TIE     Gn3 
	BYTE		TIE     Cn4 
	BYTE	W72
// 047   ----------------------------------------
	BYTE	W64
	BYTE		EOT     En3 
	BYTE		        Gn3 
	BYTE		        Cn4 
	BYTE	W01
	BYTE		        Cn3 
	BYTE	W07
// 048   ----------------------------------------
	BYTE		N84     Dn3 
	BYTE		N42     Gn3 
	BYTE	W48
	BYTE		N21     Fn3 
	BYTE		N21     Cn4 
	BYTE	W24
	BYTE		        Gs3 
	BYTE		N21     Ds4 
	BYTE	W24
// 049   ----------------------------------------
	BYTE		N84     Gn3 
	BYTE		N42     Dn4 
	BYTE	W48
	BYTE		N21     As3 
	BYTE		N21     Fn4 
	BYTE	W24
	BYTE		        Dn4 
	BYTE		N21     As4 
	BYTE	W24
// 050   ----------------------------------------
	BYTE		TIE     Cn4 
	BYTE		TIE     En4 
	BYTE		TIE     Gn4 
	BYTE		TIE     Cn5 
	BYTE	W88
	BYTE	W01
	BYTE	W07
// 051   ----------------------------------------
	BYTE	W23
	BYTE	W08
	BYTE	W06
	BYTE	W04
	BYTE	W03
	BYTE	W03
	BYTE	W03
	BYTE	W02
	BYTE	W03
	BYTE	W01
	BYTE	W03
	BYTE	W02
	BYTE	W01
	BYTE	W02
	BYTE	W01
	BYTE	W02
	BYTE	W01
	BYTE	W02
	BYTE	W01
	BYTE	W02
	BYTE	W01
	BYTE	W02
	BYTE	W01
	BYTE	W02
	BYTE	W01
	BYTE	W02
	BYTE	W01
	BYTE	W02
	BYTE	W01
	BYTE	W02
	BYTE	W01
	BYTE	W02
	BYTE	W01
	BYTE	W02
	BYTE	W01
	BYTE	W01
// 052   ----------------------------------------
	BYTE	W01
	BYTE	W01
	BYTE	W02
	BYTE	W01
	BYTE	W02
	BYTE	W01
	BYTE	W02
	BYTE	W01
	BYTE	W02
	BYTE	W01
	BYTE	W02
	BYTE	W01
	BYTE	W02
	BYTE	W01
	BYTE	W02
	BYTE	W01
	BYTE	W02
	BYTE	W01
	BYTE	W02
	BYTE	W01
	BYTE	W02
	BYTE	W01
	BYTE	W02
	BYTE	W02
	BYTE	W02
	BYTE		EOT     Cn4 
	BYTE		        En4 
	BYTE		        Gn4 
	BYTE		        Cn5 
	BYTE	W07
	BYTE	W02
	BYTE	FINE

//**************** Track 5 (Midi-Chn.5) ****************//

MapIntroOpening_5:
	BYTE	KEYSH   MapIntroOpening_key+0
// 000   ----------------------------------------
	BYTE		VOICE   4
	BYTE		VOL     75*MapIntroOpening_mvl/mxv
	BYTE		PAN     c_v+17
	BYTE	W96
// 001   ----------------------------------------
	BYTE	W96
// 002   ----------------------------------------
	BYTE	W96
// 003   ----------------------------------------
	BYTE	W96
// 004   ----------------------------------------
	BYTE	W96
// 005   ----------------------------------------
	BYTE	W96
// 006   ----------------------------------------
	BYTE	W96
// 007   ----------------------------------------
	BYTE	W96
// 008   ----------------------------------------
	BYTE		N18     Cn2   v048
	BYTE	W18
	BYTE		N06   
	BYTE	W06
	BYTE		N12   
	BYTE	W12
	BYTE		        Cn2   v036
	BYTE	W12
	BYTE		        Cn2   v048
	BYTE	W12
	BYTE		        Cn2   v036
	BYTE	W12
// 009   ----------------------------------------
	BYTE		N18     Cn2   v056
	BYTE	W18
	BYTE		N06   
	BYTE	W06
	BYTE		N12   
	BYTE	W12
	BYTE		        Cn2   v040
	BYTE	W12
	BYTE		        Cn2   v056
	BYTE	W12
	BYTE		        Cn2   v040
	BYTE	W12
// 010   ----------------------------------------
	BYTE		N18     Cn2   v068
	BYTE	W18
	BYTE		N06   
	BYTE	W06
	BYTE		N12   
	BYTE	W12
	BYTE		        Cn2   v052
	BYTE	W12
	BYTE		        Cn2   v068
	BYTE	W12
	BYTE		        Cn2   v052
	BYTE	W12
// 011   ----------------------------------------
	BYTE		N18     Cn2   v080
	BYTE	W18
	BYTE		N06   
	BYTE	W06
	BYTE		N12   
	BYTE	W12
	BYTE		        Cn2   v060
	BYTE	W12
	BYTE		        Cn2   v080
	BYTE	W12
	BYTE		        Cn2   v060
	BYTE	W12
// 012   ----------------------------------------
MapIntroOpening_5_012:
	BYTE		N18     Cn2   v100
	BYTE	W18
	BYTE		N06   
	BYTE	W06
	BYTE		N12   
	BYTE	W12
	BYTE		        Cn2   v076
	BYTE	W12
	BYTE		        Cn2   v100
	BYTE	W12
	BYTE		        Cn2   v076
	BYTE	W12
	BYTE	PEND
// 013   ----------------------------------------
	BYTE	PATT
	 POIN2	MapIntroOpening_5_012
// 014   ----------------------------------------
	BYTE	PATT
	 POIN2	MapIntroOpening_5_012
// 015   ----------------------------------------
	BYTE	PATT
	 POIN2	MapIntroOpening_5_012
// 016   ----------------------------------------
	BYTE	PATT
	 POIN2	MapIntroOpening_5_012
// 017   ----------------------------------------
	BYTE	PATT
	 POIN2	MapIntroOpening_5_012
// 018   ----------------------------------------
	BYTE	PATT
	 POIN2	MapIntroOpening_5_012
// 019   ----------------------------------------
	BYTE	PATT
	 POIN2	MapIntroOpening_5_012
// 020   ----------------------------------------
	BYTE	PATT
	 POIN2	MapIntroOpening_5_012
// 021   ----------------------------------------
	BYTE	PATT
	 POIN2	MapIntroOpening_5_012
// 022   ----------------------------------------
	BYTE	PATT
	 POIN2	MapIntroOpening_5_012
// 023   ----------------------------------------
	BYTE	PATT
	 POIN2	MapIntroOpening_5_012
// 024   ----------------------------------------
	BYTE	PATT
	 POIN2	MapIntroOpening_5_012
// 025   ----------------------------------------
	BYTE	PATT
	 POIN2	MapIntroOpening_5_012
// 026   ----------------------------------------
	BYTE	PATT
	 POIN2	MapIntroOpening_5_012
// 027   ----------------------------------------
	BYTE	PATT
	 POIN2	MapIntroOpening_5_012
// 028   ----------------------------------------
	BYTE	PATT
	 POIN2	MapIntroOpening_5_012
// 029   ----------------------------------------
	BYTE	PATT
	 POIN2	MapIntroOpening_5_012
// 030   ----------------------------------------
	BYTE	PATT
	 POIN2	MapIntroOpening_5_012
// 031   ----------------------------------------
	BYTE	PATT
	 POIN2	MapIntroOpening_5_012
// 032   ----------------------------------------
	BYTE	PATT
	 POIN2	MapIntroOpening_5_012
// 033   ----------------------------------------
	BYTE	PATT
	 POIN2	MapIntroOpening_5_012
// 034   ----------------------------------------
	BYTE	PATT
	 POIN2	MapIntroOpening_5_012
// 035   ----------------------------------------
	BYTE	PATT
	 POIN2	MapIntroOpening_5_012
// 036   ----------------------------------------
MapIntroOpening_5_036:
	BYTE		N18     Fn1   v100
	BYTE	W18
	BYTE		N06   
	BYTE	W06
	BYTE		N12   
	BYTE	W12
	BYTE		        Fn1   v076
	BYTE	W12
	BYTE		        Fn1   v100
	BYTE	W12
	BYTE		        Fn1   v076
	BYTE	W12
	BYTE	PEND
// 037   ----------------------------------------
	BYTE	PATT
	 POIN2	MapIntroOpening_5_036
// 038   ----------------------------------------
	BYTE	PATT
	 POIN2	MapIntroOpening_5_036
// 039   ----------------------------------------
	BYTE	PATT
	 POIN2	MapIntroOpening_5_036
// 040   ----------------------------------------
	BYTE	PATT
	 POIN2	MapIntroOpening_5_036
// 041   ----------------------------------------
	BYTE	PATT
	 POIN2	MapIntroOpening_5_036
// 042   ----------------------------------------
	BYTE	PATT
	 POIN2	MapIntroOpening_5_036
// 043   ----------------------------------------
	BYTE	PATT
	 POIN2	MapIntroOpening_5_036
// 044   ----------------------------------------
MapIntroOpening_5_044:
	BYTE		N18     Fs1   v100
	BYTE	W18
	BYTE		N06   
	BYTE	W06
	BYTE		N12   
	BYTE	W12
	BYTE		        Fs1   v076
	BYTE	W12
	BYTE		        Fs1   v100
	BYTE	W12
	BYTE		        Fs1   v076
	BYTE	W12
	BYTE	PEND
// 045   ----------------------------------------
	BYTE	PATT
	 POIN2	MapIntroOpening_5_044
// 046   ----------------------------------------
MapIntroOpening_5_046:
	BYTE		N18     Gn1   v100
	BYTE	W18
	BYTE		N06   
	BYTE	W06
	BYTE		N12   
	BYTE	W12
	BYTE		        Gn1   v076
	BYTE	W12
	BYTE		        Gn1   v100
	BYTE	W12
	BYTE		        Gn1   v076
	BYTE	W12
	BYTE	PEND
// 047   ----------------------------------------
	BYTE	PATT
	 POIN2	MapIntroOpening_5_046
// 048   ----------------------------------------
	BYTE	W96
// 049   ----------------------------------------
	BYTE	W96
// 050   ----------------------------------------
	BYTE	W96
// 051   ----------------------------------------
	BYTE	W96
// 052   ----------------------------------------
	BYTE	W44
	BYTE	W03
	BYTE	FINE

//**************** Track 6 (Midi-Chn.6) ****************//

MapIntroOpening_6:
	BYTE	KEYSH   MapIntroOpening_key+0
// 000   ----------------------------------------
	BYTE		VOICE   127
	BYTE		VOL     84*MapIntroOpening_mvl/mxv
	BYTE		PAN     c_v-13
	BYTE	W96
// 001   ----------------------------------------
	BYTE	W96
// 002   ----------------------------------------
	BYTE	W96
// 003   ----------------------------------------
	BYTE	W96
// 004   ----------------------------------------
	BYTE	W96
// 005   ----------------------------------------
	BYTE	W96
// 006   ----------------------------------------
	BYTE	W96
// 007   ----------------------------------------
	BYTE	W48
	BYTE		N48     En2   v104
	BYTE	W48
// 008   ----------------------------------------
	BYTE		N24     Cn1 
	BYTE		N72     Cs2   v100
	BYTE	W18
	BYTE		N06     Cn3   v076
	BYTE	W06
	BYTE		        Cn3   v104
	BYTE	W12
	BYTE		        Cs3 
	BYTE	W12
	BYTE		        Cn3 
	BYTE	W12
	BYTE		N12     Dn1 
	BYTE	W12
// 009   ----------------------------------------
MapIntroOpening_6_009:
	BYTE		N24     Cn1   v104
	BYTE	W18
	BYTE		N06     Cn3   v076
	BYTE	W06
	BYTE		        Cn3   v104
	BYTE	W12
	BYTE		        Cs3 
	BYTE	W12
	BYTE		        Cn3 
	BYTE	W12
	BYTE		N12     Dn1 
	BYTE		N24     As1 
	BYTE	W12
	BYTE	PEND
// 010   ----------------------------------------
MapIntroOpening_6_010:
	BYTE		N24     Cn1   v104
	BYTE	W18
	BYTE		N06     Cn3   v076
	BYTE	W06
	BYTE		        Cn3   v104
	BYTE	W12
	BYTE		        Cs3 
	BYTE	W12
	BYTE		        Cn3 
	BYTE	W12
	BYTE		N12     Dn1 
	BYTE	W12
	BYTE	PEND
// 011   ----------------------------------------
	BYTE	PATT
	 POIN2	MapIntroOpening_6_009
// 012   ----------------------------------------
	BYTE	PATT
	 POIN2	MapIntroOpening_6_010
// 013   ----------------------------------------
	BYTE	PATT
	 POIN2	MapIntroOpening_6_009
// 014   ----------------------------------------
	BYTE	PATT
	 POIN2	MapIntroOpening_6_010
// 015   ----------------------------------------
	BYTE	PATT
	 POIN2	MapIntroOpening_6_009
// 016   ----------------------------------------
	BYTE	PATT
	 POIN2	MapIntroOpening_6_010
// 017   ----------------------------------------
	BYTE	PATT
	 POIN2	MapIntroOpening_6_009
// 018   ----------------------------------------
	BYTE	PATT
	 POIN2	MapIntroOpening_6_010
// 019   ----------------------------------------
	BYTE	PATT
	 POIN2	MapIntroOpening_6_009
// 020   ----------------------------------------
	BYTE	PATT
	 POIN2	MapIntroOpening_6_010
// 021   ----------------------------------------
	BYTE	PATT
	 POIN2	MapIntroOpening_6_009
// 022   ----------------------------------------
	BYTE	PATT
	 POIN2	MapIntroOpening_6_010
// 023   ----------------------------------------
	BYTE	PATT
	 POIN2	MapIntroOpening_6_009
// 024   ----------------------------------------
	BYTE	PATT
	 POIN2	MapIntroOpening_6_010
// 025   ----------------------------------------
	BYTE	PATT
	 POIN2	MapIntroOpening_6_009
// 026   ----------------------------------------
	BYTE	PATT
	 POIN2	MapIntroOpening_6_010
// 027   ----------------------------------------
	BYTE	PATT
	 POIN2	MapIntroOpening_6_009
// 028   ----------------------------------------
	BYTE	PATT
	 POIN2	MapIntroOpening_6_010
// 029   ----------------------------------------
	BYTE	PATT
	 POIN2	MapIntroOpening_6_009
// 030   ----------------------------------------
	BYTE	PATT
	 POIN2	MapIntroOpening_6_010
// 031   ----------------------------------------
	BYTE	PATT
	 POIN2	MapIntroOpening_6_009
// 032   ----------------------------------------
	BYTE	PATT
	 POIN2	MapIntroOpening_6_010
// 033   ----------------------------------------
	BYTE	PATT
	 POIN2	MapIntroOpening_6_009
// 034   ----------------------------------------
	BYTE	PATT
	 POIN2	MapIntroOpening_6_010
// 035   ----------------------------------------
	BYTE	PATT
	 POIN2	MapIntroOpening_6_009
// 036   ----------------------------------------
	BYTE	PATT
	 POIN2	MapIntroOpening_6_010
// 037   ----------------------------------------
	BYTE	PATT
	 POIN2	MapIntroOpening_6_009
// 038   ----------------------------------------
	BYTE	PATT
	 POIN2	MapIntroOpening_6_010
// 039   ----------------------------------------
	BYTE	PATT
	 POIN2	MapIntroOpening_6_009
// 040   ----------------------------------------
	BYTE	PATT
	 POIN2	MapIntroOpening_6_010
// 041   ----------------------------------------
	BYTE	PATT
	 POIN2	MapIntroOpening_6_009
// 042   ----------------------------------------
	BYTE	PATT
	 POIN2	MapIntroOpening_6_010
// 043   ----------------------------------------
	BYTE	PATT
	 POIN2	MapIntroOpening_6_009
// 044   ----------------------------------------
	BYTE	PATT
	 POIN2	MapIntroOpening_6_010
// 045   ----------------------------------------
	BYTE	PATT
	 POIN2	MapIntroOpening_6_009
// 046   ----------------------------------------
	BYTE	PATT
	 POIN2	MapIntroOpening_6_010
// 047   ----------------------------------------
	BYTE	PATT
	 POIN2	MapIntroOpening_6_009
// 048   ----------------------------------------
	BYTE	W96
// 049   ----------------------------------------
	BYTE	W96
// 050   ----------------------------------------
	BYTE	W40
	BYTE	W56
// 051   ----------------------------------------
	BYTE	W96
// 052   ----------------------------------------
	BYTE	W44
	BYTE	W03
	BYTE	FINE

//**************** Track 7 (Midi-Chn.8) ****************//

MapIntroOpening_7:
	BYTE	KEYSH   MapIntroOpening_key+0
// 000   ----------------------------------------
	BYTE		VOICE   65
	BYTE		VOL     84*MapIntroOpening_mvl/mxv
	BYTE		PAN     c_v+37
	BYTE	W96
// 001   ----------------------------------------
	BYTE	W96
// 002   ----------------------------------------
	BYTE	W96
// 003   ----------------------------------------
	BYTE	W96
// 004   ----------------------------------------
	BYTE	W96
// 005   ----------------------------------------
	BYTE	W96
// 006   ----------------------------------------
	BYTE	W96
// 007   ----------------------------------------
	BYTE	W96
// 008   ----------------------------------------
	BYTE	W72
// 009   ----------------------------------------
	BYTE	W72
// 010   ----------------------------------------
	BYTE	W72
// 011   ----------------------------------------
	BYTE	W72
// 012   ----------------------------------------
	BYTE	W72
// 013   ----------------------------------------
	BYTE	W72
// 014   ----------------------------------------
	BYTE	W72
// 015   ----------------------------------------
	BYTE	W72
// 016   ----------------------------------------
	BYTE	W72
// 017   ----------------------------------------
	BYTE	W72
// 018   ----------------------------------------
	BYTE	W72
// 019   ----------------------------------------
	BYTE	W72
// 020   ----------------------------------------
	BYTE		N60     Gn2   v100
	BYTE	W72
// 021   ----------------------------------------
	BYTE		        As2 
	BYTE	W72
// 022   ----------------------------------------
	BYTE		        An2 
	BYTE	W72
// 023   ----------------------------------------
	BYTE		        Fn2 
	BYTE	W72
// 024   ----------------------------------------
	BYTE		TIE     Gn2 
	BYTE	W72
// 025   ----------------------------------------
	BYTE	W60
	BYTE		EOT   
	BYTE	W12
// 026   ----------------------------------------
	BYTE		TIE     Cn3   v104
	BYTE	W72
// 027   ----------------------------------------
	BYTE	W66
	BYTE		EOT   
	BYTE	W06
// 028   ----------------------------------------
	BYTE	W72
// 029   ----------------------------------------
	BYTE	W72
// 030   ----------------------------------------
	BYTE	W72
// 031   ----------------------------------------
	BYTE	W72
// 032   ----------------------------------------
	BYTE		N64     Ds2   v100
	BYTE		N64     Gn2 
	BYTE	W72
// 033   ----------------------------------------
	BYTE		N64   
	BYTE		N64     As2 
	BYTE	W72
// 034   ----------------------------------------
	BYTE		        Fn2 
	BYTE		N64     An2 
	BYTE	W72
// 035   ----------------------------------------
	BYTE		N64   
	BYTE		N64     Cn3 
	BYTE	W72
// 036   ----------------------------------------
	BYTE	W72
// 037   ----------------------------------------
	BYTE	W72
// 038   ----------------------------------------
	BYTE	W72
// 039   ----------------------------------------
	BYTE	W72
// 040   ----------------------------------------
	BYTE		        Fn2 
	BYTE		N64     As2 
	BYTE	W72
// 041   ----------------------------------------
	BYTE		        Gs2 
	BYTE		N64     Cs3 
	BYTE	W72
// 042   ----------------------------------------
	BYTE		        Gn2 
	BYTE		N64     Cn3 
	BYTE	W72
// 043   ----------------------------------------
	BYTE		N42     Fs2 
	BYTE		N42     As2 
	BYTE		N42     Ds3 
	BYTE	W72
// 044   ----------------------------------------
	BYTE	W72
// 045   ----------------------------------------
	BYTE	W72
// 046   ----------------------------------------
	BYTE	W72
// 047   ----------------------------------------
	BYTE	W72
// 048   ----------------------------------------
	BYTE		BEND    c_v-3
	BYTE	W96
// 049   ----------------------------------------
	BYTE	W96
// 050   ----------------------------------------
	BYTE	W96
// 051   ----------------------------------------
	BYTE	W96
// 052   ----------------------------------------
	BYTE	W44
	BYTE	W03
	BYTE	FINE

//**************** Track 8 (Midi-Chn.9) ****************//

MapIntroOpening_8:
	BYTE	KEYSH   MapIntroOpening_key+0
// 000   ----------------------------------------
	BYTE		VOICE   47
	BYTE		VOL     101*MapIntroOpening_mvl/mxv
	BYTE		PAN     c_v+21
	BYTE	W96
// 001   ----------------------------------------
	BYTE	W96
// 002   ----------------------------------------
	BYTE	W90
	BYTE		N02     Cn2   v028
	BYTE	W03
	BYTE		        Cn2   v032
	BYTE	W03
// 003   ----------------------------------------
	BYTE		        Cn2   v040
	BYTE	W03
	BYTE		        Cn2   v048
	BYTE	W03
	BYTE		        Cn2   v052
	BYTE	W03
	BYTE		        Cn2   v060
	BYTE	W03
	BYTE		        Cn2   v064
	BYTE	W03
	BYTE		        Cn2   v072
	BYTE	W03
	BYTE		        Cn2   v088
	BYTE	W03
	BYTE		        Cn2   v076
	BYTE	W03
	BYTE		        Cn2   v084
	BYTE	W03
	BYTE		        Cn2   v100
	BYTE	W03
	BYTE		        Cn2   v104
	BYTE	W03
	BYTE		N02   
	BYTE	W03
	BYTE		        Cn2   v108
	BYTE	W03
	BYTE		        Cn2   v100
	BYTE	W03
	BYTE		        Cn2   v088
	BYTE	W03
	BYTE		        Cn2   v104
	BYTE	W03
	BYTE		N01     Cn2   v088
	BYTE	W48
// 004   ----------------------------------------
	BYTE	W96
// 005   ----------------------------------------
	BYTE	W96
// 006   ----------------------------------------
	BYTE	W96
// 007   ----------------------------------------
	BYTE	W42
	BYTE		N02     Cn2   v064
	BYTE	W03
	BYTE		        Cn2   v068
	BYTE	W03
	BYTE		        Cn2   v072
	BYTE	W03
	BYTE		        Cn2   v076
	BYTE	W03
	BYTE		N02   
	BYTE	W03
	BYTE		        Cn2   v080
	BYTE	W03
	BYTE		        Cn2   v084
	BYTE	W03
	BYTE		        Cn2   v088
	BYTE	W03
	BYTE		N02   
	BYTE	W03
	BYTE		        Cn2   v092
	BYTE	W03
	BYTE		        Cn2   v096
	BYTE	W03
	BYTE		        Cn2   v100
	BYTE	W03
	BYTE		        Cn2   v104
	BYTE	W03
	BYTE		N02   
	BYTE	W03
	BYTE		        Cn2   v108
	BYTE	W03
	BYTE		        Cn2   v112
	BYTE	W03
	BYTE		        Cn2   v116
	BYTE	W03
	BYTE		N02   
	BYTE	W03
// 008   ----------------------------------------
	BYTE		N24     Cn2   v100
	BYTE	W72
// 009   ----------------------------------------
	BYTE		        Cn2   v104
	BYTE	W72
// 010   ----------------------------------------
	BYTE		N24   
	BYTE	W72
// 011   ----------------------------------------
	BYTE		N24   
	BYTE	W72
// 012   ----------------------------------------
	BYTE		N24   
	BYTE	W72
// 013   ----------------------------------------
	BYTE		N24   
	BYTE	W72
// 014   ----------------------------------------
	BYTE		N24   
	BYTE	W72
// 015   ----------------------------------------
	BYTE		N24   
	BYTE	W72
// 016   ----------------------------------------
	BYTE		N24   
	BYTE	W72
// 017   ----------------------------------------
MapIntroOpening_8_017:
	BYTE		N24     Cn2   v104
	BYTE	W24
	BYTE		N02     Cn2   v028
	BYTE	W03
	BYTE		        Cn2   v032
	BYTE	W03
	BYTE		        Cn2   v040
	BYTE	W03
	BYTE		        Cn2   v048
	BYTE	W03
	BYTE		        Cn2   v052
	BYTE	W03
	BYTE		        Cn2   v060
	BYTE	W03
	BYTE		        Cn2   v064
	BYTE	W03
	BYTE		        Cn2   v072
	BYTE	W03
	BYTE		        Cn2   v088
	BYTE	W03
	BYTE		        Cn2   v076
	BYTE	W03
	BYTE		        Cn2   v084
	BYTE	W03
	BYTE		        Cn2   v100
	BYTE	W03
	BYTE		        Cn2   v104
	BYTE	W03
	BYTE		N02   
	BYTE	W03
	BYTE		        Cn2   v108
	BYTE	W03
	BYTE		        Cn2   v100
	BYTE	W03
	BYTE	PEND
// 018   ----------------------------------------
MapIntroOpening_8_018:
	BYTE		N02     Cn2   v088
	BYTE	W03
	BYTE		        Cn2   v104
	BYTE	W03
	BYTE		N01     Cn2   v088
	BYTE	W66
	BYTE	PEND
// 019   ----------------------------------------
	BYTE		N24     Cn2   v104
	BYTE	W72
// 020   ----------------------------------------
	BYTE		N24   
	BYTE	W72
// 021   ----------------------------------------
	BYTE		N24   
	BYTE	W72
// 022   ----------------------------------------
	BYTE		N24   
	BYTE	W72
// 023   ----------------------------------------
	BYTE		N24   
	BYTE	W72
// 024   ----------------------------------------
	BYTE		N24   
	BYTE	W72
// 025   ----------------------------------------
	BYTE	PATT
	 POIN2	MapIntroOpening_8_017
// 026   ----------------------------------------
	BYTE	PATT
	 POIN2	MapIntroOpening_8_018
// 027   ----------------------------------------
	BYTE		N24     Cn2   v104
	BYTE	W72
// 028   ----------------------------------------
	BYTE		N24   
	BYTE	W72
// 029   ----------------------------------------
	BYTE		N24   
	BYTE	W72
// 030   ----------------------------------------
	BYTE		N24   
	BYTE	W72
// 031   ----------------------------------------
	BYTE		N24   
	BYTE	W72
// 032   ----------------------------------------
	BYTE		N24   
	BYTE	W72
// 033   ----------------------------------------
	BYTE		N24   
	BYTE	W72
// 034   ----------------------------------------
	BYTE		N24   
	BYTE	W72
// 035   ----------------------------------------
	BYTE	W18
	BYTE		N02     Cn2   v052
	BYTE	W03
	BYTE		        Cn2   v056
	BYTE	W03
	BYTE		N02   
	BYTE	W03
	BYTE		        Cn2   v060
	BYTE	W03
	BYTE		        Cn2   v064
	BYTE	W03
	BYTE		N02   
	BYTE	W03
	BYTE		        Cn2   v068
	BYTE	W03
	BYTE		N02   
	BYTE	W03
	BYTE		        Cn2   v072
	BYTE	W03
	BYTE		        Cn2   v076
	BYTE	W03
	BYTE		N02   
	BYTE	W03
	BYTE		        Cn2   v080
	BYTE	W03
	BYTE		        Cn2   v084
	BYTE	W03
	BYTE		N02   
	BYTE	W03
	BYTE		        Cn2   v088
	BYTE	W03
	BYTE		N02   
	BYTE	W03
	BYTE		        Cn2   v092
	BYTE	W03
	BYTE		        Cn2   v096
	BYTE	W03
// 036   ----------------------------------------
	BYTE		N24     Cn2   v104
	BYTE	W72
// 037   ----------------------------------------
	BYTE		N24   
	BYTE	W72
// 038   ----------------------------------------
	BYTE		N24   
	BYTE	W72
// 039   ----------------------------------------
	BYTE		N24   
	BYTE	W72
// 040   ----------------------------------------
	BYTE		N24   
	BYTE	W72
// 041   ----------------------------------------
	BYTE		N24   
	BYTE	W72
// 042   ----------------------------------------
	BYTE		N24   
	BYTE	W72
// 043   ----------------------------------------
	BYTE		N24   
	BYTE	W72
// 044   ----------------------------------------
	BYTE		N24   
	BYTE	W72
// 045   ----------------------------------------
	BYTE		N24   
	BYTE	W72
// 046   ----------------------------------------
	BYTE		N24   
	BYTE	W72
// 047   ----------------------------------------
	BYTE		N24   
	BYTE	W72
// 048   ----------------------------------------
	BYTE	W96
// 049   ----------------------------------------
	BYTE	W96
// 050   ----------------------------------------
	BYTE	W96
// 051   ----------------------------------------
	BYTE	W96
// 052   ----------------------------------------
	BYTE	W44
	BYTE	W03
	BYTE	FINE

//******************************************************//
	ALIGN 4

MapIntroOpening:
	BYTE	8	// NumTrks
	BYTE	0	// NumBlks
	BYTE	MapIntroOpening_pri	// Priority
	BYTE	MapIntroOpening_rev	// Reverb.

	POIN2	MapIntroOpening_grp

	POIN2	MapIntroOpening_1
	POIN2	MapIntroOpening_2
	POIN2	MapIntroOpening_3
	POIN2	MapIntroOpening_4
	POIN2	MapIntroOpening_5
	POIN2	MapIntroOpening_6
	POIN2	MapIntroOpening_7
	POIN2	MapIntroOpening_8

	
