//Event file generated from Sappy .s format.
	#include "MPlayDef.event"

	#define	RecruitmentThemeFull_grp  voicegroup000
	#define	RecruitmentThemeFull_pri  0
	#define	RecruitmentThemeFull_rev  0
	#define	RecruitmentThemeFull_mvl  85
	#define	RecruitmentThemeFull_key  0
	#define	RecruitmentThemeFull_tbs  1
	#define	RecruitmentThemeFull_exg  0
	#define	RecruitmentThemeFull_cmp  1

	// .rodata
	//	RecruitmentThemeFull
	ALIGN 4

//**************** Track 1 (Midi-Chn.1) ****************//

RecruitmentThemeFull_1:
	BYTE	KEYSH   RecruitmentThemeFull_key+0
RecruitmentThemeFull_1_B1:
// 000   ----------------------------------------
	BYTE	TEMPO   185*RecruitmentThemeFull_tbs/2
	BYTE		VOICE   60
	BYTE		VOL     119*RecruitmentThemeFull_mvl/mxv
	BYTE		N42     Bn3   v096
	BYTE	W48
	BYTE		N64     Cn4 
	BYTE	W48
// 001   ----------------------------------------
	BYTE	W24
	BYTE		N21     Bn3 
	BYTE	W24
	BYTE		        Cn4 
	BYTE	W24
	BYTE		        Dn4 
	BYTE	W24
// 002   ----------------------------------------
	BYTE		N42     En4 
	BYTE	W48
	BYTE		N21     Dn4 
	BYTE	W24
	BYTE		        Cn4 
	BYTE	W24
// 003   ----------------------------------------
	BYTE		N42     Bn3 
	BYTE	W48
	BYTE		N21     En3 
	BYTE	W24
	BYTE		        Gs3 
	BYTE	W24
// 004   ----------------------------------------
RecruitmentThemeFull_1_004:
	BYTE		N21     Bn3   v096
	BYTE	W24
	BYTE		        Cn4 
	BYTE	W24
	BYTE		N64     En3 
	BYTE	W48
	BYTE	PEND
// 005   ----------------------------------------
	BYTE	W24
	BYTE		N21     Bn3 
	BYTE	W24
	BYTE		        Cn4 
	BYTE	W24
	BYTE		        En3 
	BYTE	W24
// 006   ----------------------------------------
	BYTE	PATT
	 POIN2	RecruitmentThemeFull_1_004
// 007   ----------------------------------------
	BYTE	W24
	BYTE		N21     Dn3   v096
	BYTE	W24
	BYTE		        Gn3 
	BYTE	W24
	BYTE		        Fn3 
	BYTE	W24
// 008   ----------------------------------------
	BYTE		TIE     En3 
	BYTE	W96
// 009   ----------------------------------------
	BYTE	W56
	BYTE	W01
	BYTE		EOT   
	BYTE	W15
	BYTE		N21   
	BYTE	W24
// 010   ----------------------------------------
RecruitmentThemeFull_1_010:
	BYTE		N42     En3   v096
	BYTE	W48
	BYTE		N64     Fn3 
	BYTE	W48
	BYTE	PEND
// 011   ----------------------------------------
RecruitmentThemeFull_1_011:
	BYTE	W24
	BYTE		N21     Dn3   v096
	BYTE	W24
	BYTE		        Gn3 
	BYTE	W24
	BYTE		        Bn3 
	BYTE	W24
	BYTE	PEND
// 012   ----------------------------------------
	BYTE		N21   
	BYTE	W24
	BYTE		        Cn4 
	BYTE	W24
	BYTE		TIE     En3 
	BYTE	W48
// 013   ----------------------------------------
	BYTE	W64
	BYTE		EOT   
	BYTE	W08
	BYTE		N21   
	BYTE	W24
// 014   ----------------------------------------
	BYTE	PATT
	 POIN2	RecruitmentThemeFull_1_010
// 015   ----------------------------------------
	BYTE	PATT
	 POIN2	RecruitmentThemeFull_1_011
// 016   ----------------------------------------
	BYTE		N21     Bn3   v096
	BYTE	W24
	BYTE		        Cn4 
	BYTE	W24
	BYTE		N64     En4 
	BYTE	W48
// 017   ----------------------------------------
	BYTE	W24
	BYTE		N21     Dn4 
	BYTE	W24
	BYTE		        Cn4 
	BYTE	W24
	BYTE		        Bn3 
	BYTE	W24
// 018   ----------------------------------------
	BYTE		N32   
	BYTE	W36
	BYTE		TIE     An3 
	BYTE	W60
// 019   ----------------------------------------
	BYTE	W36
	BYTE	W02
	BYTE		EOT   
	BYTE	W10
	BYTE		N42     Gn3 
	BYTE	W48
// 020   ----------------------------------------
	BYTE		TIE     An3 
	BYTE	W96
// 021   ----------------------------------------
	BYTE	W20
	BYTE		EOT   
	BYTE	W76
	BYTE	GoTo
	 POIN2	RecruitmentThemeFull_1_B1
RecruitmentThemeFull_1_B2:
// 022   ----------------------------------------
	BYTE	FINE

//**************** Track 2 (Midi-Chn.2) ****************//

RecruitmentThemeFull_2:
	BYTE	KEYSH   RecruitmentThemeFull_key+0
RecruitmentThemeFull_2_B1:
// 000   ----------------------------------------
	BYTE		VOICE   86
	BYTE		VOL     98*RecruitmentThemeFull_mvl/mxv
	BYTE	W96
// 001   ----------------------------------------
	BYTE	W96
// 002   ----------------------------------------
	BYTE	W96
// 003   ----------------------------------------
	BYTE	W96
// 004   ----------------------------------------
	BYTE	W96
// 005   ----------------------------------------
	BYTE	W96
// 006   ----------------------------------------
	BYTE	W96
// 007   ----------------------------------------
	BYTE	W96
// 008   ----------------------------------------
	BYTE	W96
// 009   ----------------------------------------
	BYTE	W72
	BYTE		N21     En4   v064
	BYTE	W24
// 010   ----------------------------------------
RecruitmentThemeFull_2_010:
	BYTE		N42     En4   v064
	BYTE	W48
	BYTE		N64     Fn4 
	BYTE	W48
	BYTE	PEND
// 011   ----------------------------------------
RecruitmentThemeFull_2_011:
	BYTE	W24
	BYTE		N21     Dn4   v064
	BYTE	W24
	BYTE		        Gn4 
	BYTE	W24
	BYTE		        Bn4 
	BYTE	W24
	BYTE	PEND
// 012   ----------------------------------------
	BYTE		N21   
	BYTE	W24
	BYTE		        Cn5 
	BYTE	W24
	BYTE		TIE     En4 
	BYTE	W48
// 013   ----------------------------------------
	BYTE	W64
	BYTE		EOT   
	BYTE	W08
	BYTE		N21   
	BYTE	W24
// 014   ----------------------------------------
	BYTE	PATT
	 POIN2	RecruitmentThemeFull_2_010
// 015   ----------------------------------------
	BYTE	PATT
	 POIN2	RecruitmentThemeFull_2_011
// 016   ----------------------------------------
	BYTE		N21     Bn4   v064
	BYTE	W24
	BYTE		        Cn5 
	BYTE	W24
	BYTE		N64     En5 
	BYTE	W48
// 017   ----------------------------------------
	BYTE	W24
	BYTE		N21     Dn5 
	BYTE	W24
	BYTE		        Cn5 
	BYTE	W24
	BYTE		        Bn4 
	BYTE	W24
// 018   ----------------------------------------
	BYTE		N32   
	BYTE	W36
	BYTE		TIE     An4 
	BYTE	W60
// 019   ----------------------------------------
	BYTE	W36
	BYTE	W02
	BYTE		EOT   
	BYTE	W10
	BYTE		N42     Gn4 
	BYTE	W48
// 020   ----------------------------------------
	BYTE		N92     Dn4 
	BYTE		TIE     An4 
	BYTE	W96
// 021   ----------------------------------------
	BYTE		N17     Cs4 
	BYTE	W18
	BYTE		EOT     An4 
	BYTE	W78
	BYTE	GoTo
	 POIN2	RecruitmentThemeFull_2_B1
RecruitmentThemeFull_2_B2:
// 022   ----------------------------------------
	BYTE	FINE

//**************** Track 3 (Midi-Chn.4) ****************//

RecruitmentThemeFull_3:
	BYTE	KEYSH   RecruitmentThemeFull_key+0
RecruitmentThemeFull_3_B1:
// 000   ----------------------------------------
	BYTE		VOICE   7
	BYTE		VOL     98*RecruitmentThemeFull_mvl/mxv
	BYTE		N10     An3   v064
	BYTE	W12
	BYTE		        Cn4 
	BYTE	W12
	BYTE		        En4 
	BYTE	W12
	BYTE		        An4 
	BYTE	W12
	BYTE		        An3 
	BYTE	W12
	BYTE		        Cn4 
	BYTE	W12
	BYTE		        En4 
	BYTE	W12
	BYTE		        An4 
	BYTE	W12
// 001   ----------------------------------------
RecruitmentThemeFull_3_001:
	BYTE		N10     Gn3   v064
	BYTE	W12
	BYTE		        Cn4 
	BYTE	W12
	BYTE		        En4 
	BYTE	W12
	BYTE		        Gn4 
	BYTE	W12
	BYTE		        Gn3 
	BYTE	W12
	BYTE		        Cn4 
	BYTE	W12
	BYTE		        En4 
	BYTE	W12
	BYTE		        Gn4 
	BYTE	W12
	BYTE	PEND
// 002   ----------------------------------------
RecruitmentThemeFull_3_002:
	BYTE		N10     Fs3   v064
	BYTE	W12
	BYTE		        An3 
	BYTE	W12
	BYTE		        Dn4 
	BYTE	W12
	BYTE		        Fs4 
	BYTE	W12
	BYTE		        Fs3 
	BYTE	W12
	BYTE		        An3 
	BYTE	W12
	BYTE		        Dn4 
	BYTE	W12
	BYTE		        Fs4 
	BYTE	W12
	BYTE	PEND
// 003   ----------------------------------------
RecruitmentThemeFull_3_003:
	BYTE		N10     En3   v064
	BYTE	W12
	BYTE		        Gs3 
	BYTE	W12
	BYTE		        Bn3 
	BYTE	W12
	BYTE		        En4 
	BYTE	W12
	BYTE		        En3 
	BYTE	W12
	BYTE		        Gs3 
	BYTE	W12
	BYTE		        Bn3 
	BYTE	W12
	BYTE		        En4 
	BYTE	W12
	BYTE	PEND
// 004   ----------------------------------------
	BYTE		        An3 
	BYTE	W12
	BYTE		        Cn4 
	BYTE	W12
	BYTE		        En4 
	BYTE	W12
	BYTE		        An4 
	BYTE	W12
	BYTE		        An3 
	BYTE	W12
	BYTE		        Cn4 
	BYTE	W12
	BYTE		        En4 
	BYTE	W12
	BYTE		        An4 
	BYTE	W12
// 005   ----------------------------------------
	BYTE	PATT
	 POIN2	RecruitmentThemeFull_3_001
// 006   ----------------------------------------
	BYTE	PATT
	 POIN2	RecruitmentThemeFull_3_002
// 007   ----------------------------------------
	BYTE		N10     Fn3   v064
	BYTE	W12
	BYTE		        An3 
	BYTE	W12
	BYTE		        Dn4 
	BYTE	W12
	BYTE		        Fn4 
	BYTE	W12
	BYTE		        Fn3 
	BYTE	W12
	BYTE		        An3 
	BYTE	W12
	BYTE		        Dn4 
	BYTE	W12
	BYTE		        Fn4 
	BYTE	W12
// 008   ----------------------------------------
	BYTE	PATT
	 POIN2	RecruitmentThemeFull_3_003
// 009   ----------------------------------------
	BYTE		N21     Dn4   v064
	BYTE	W96
// 010   ----------------------------------------
RecruitmentThemeFull_3_010:
	BYTE		N10     Dn3   v064
	BYTE	W12
	BYTE		        Fn3 
	BYTE	W12
	BYTE		        An3 
	BYTE	W12
	BYTE		        Dn4 
	BYTE	W12
	BYTE		        Dn3 
	BYTE	W12
	BYTE		        Fn3 
	BYTE	W12
	BYTE		        An3 
	BYTE	W12
	BYTE		        Dn4 
	BYTE	W12
	BYTE	PEND
// 011   ----------------------------------------
RecruitmentThemeFull_3_011:
	BYTE		N10     Dn3   v064
	BYTE	W12
	BYTE		        Gn3 
	BYTE	W12
	BYTE		        Bn3 
	BYTE	W12
	BYTE		        Dn4 
	BYTE	W12
	BYTE		        Dn3 
	BYTE	W12
	BYTE		        Gn3 
	BYTE	W12
	BYTE		        Bn3 
	BYTE	W12
	BYTE		        Dn4 
	BYTE	W12
	BYTE	PEND
// 012   ----------------------------------------
RecruitmentThemeFull_3_012:
	BYTE		N10     En3   v064
	BYTE	W12
	BYTE		        An3 
	BYTE	W12
	BYTE		        Cn4 
	BYTE	W12
	BYTE		        En4 
	BYTE	W12
	BYTE		        En3 
	BYTE	W12
	BYTE		        An3 
	BYTE	W12
	BYTE		        Cn4 
	BYTE	W12
	BYTE		        En4 
	BYTE	W12
	BYTE	PEND
// 013   ----------------------------------------
	BYTE	PATT
	 POIN2	RecruitmentThemeFull_3_012
// 014   ----------------------------------------
	BYTE	PATT
	 POIN2	RecruitmentThemeFull_3_010
// 015   ----------------------------------------
	BYTE	PATT
	 POIN2	RecruitmentThemeFull_3_011
// 016   ----------------------------------------
	BYTE	PATT
	 POIN2	RecruitmentThemeFull_3_012
// 017   ----------------------------------------
	BYTE		N10     An3   v064
	BYTE	W12
	BYTE		        Cn4 
	BYTE	W12
	BYTE		        En4 
	BYTE	W12
	BYTE		        An4 
	BYTE	W12
	BYTE		        Gn4 
	BYTE	W12
	BYTE		        En4 
	BYTE	W12
	BYTE		        Cn4 
	BYTE	W12
	BYTE		        En3 
	BYTE	W12
// 018   ----------------------------------------
	BYTE		        Cn3 
	BYTE	W12
	BYTE		        Fn3 
	BYTE	W12
	BYTE		        An3 
	BYTE	W12
	BYTE		        Cn4 
	BYTE	W12
	BYTE		        Cn3 
	BYTE	W12
	BYTE		        Fn3 
	BYTE	W12
	BYTE		        An3 
	BYTE	W12
	BYTE		        Cn4 
	BYTE	W12
// 019   ----------------------------------------
	BYTE		        Bn2 
	BYTE	W12
	BYTE		        Dn3 
	BYTE	W12
	BYTE		        Gn3 
	BYTE	W12
	BYTE		        Bn3 
	BYTE	W12
	BYTE		        Bn2 
	BYTE	W12
	BYTE		        Dn3 
	BYTE	W12
	BYTE		        Gn3 
	BYTE	W12
	BYTE		        Bn3 
	BYTE	W12
// 020   ----------------------------------------
	BYTE		        An2 
	BYTE	W12
	BYTE		        Cn3 
	BYTE	W12
	BYTE		        En3 
	BYTE	W12
	BYTE		        An3 
	BYTE	W12
	BYTE		        An2 
	BYTE	W12
	BYTE		        Cn3 
	BYTE	W12
	BYTE		        En3 
	BYTE	W12
	BYTE		        Gn3 
	BYTE	W12
// 021   ----------------------------------------
	BYTE		        An3 
	BYTE	W96
	BYTE	GoTo
	 POIN2	RecruitmentThemeFull_3_B1
RecruitmentThemeFull_3_B2:
// 022   ----------------------------------------
	BYTE	FINE

//**************** Track 4 (Midi-Chn.5) ****************//

RecruitmentThemeFull_4:
	BYTE	KEYSH   RecruitmentThemeFull_key+0
RecruitmentThemeFull_4_B1:
// 000   ----------------------------------------
	BYTE		VOICE   40
	BYTE		VOL     118*RecruitmentThemeFull_mvl/mxv
	BYTE	W96
// 001   ----------------------------------------
	BYTE	W96
// 002   ----------------------------------------
	BYTE	W96
// 003   ----------------------------------------
	BYTE	W96
// 004   ----------------------------------------
	BYTE	W96
// 005   ----------------------------------------
	BYTE	W96
// 006   ----------------------------------------
	BYTE	W96
// 007   ----------------------------------------
	BYTE	W96
// 008   ----------------------------------------
	BYTE	W96
// 009   ----------------------------------------
	BYTE	W96
// 010   ----------------------------------------
RecruitmentThemeFull_4_010:
	BYTE		N10     Bn3   v064
	BYTE	W12
	BYTE		        An3 
	BYTE	W12
	BYTE		        Bn3 
	BYTE	W12
	BYTE		N32     Cn4 
	BYTE	W60
	BYTE	PEND
// 011   ----------------------------------------
	BYTE		N10     Bn3 
	BYTE	W12
	BYTE		        An3 
	BYTE	W12
	BYTE		        Gn3 
	BYTE	W12
	BYTE		N32     Bn3 
	BYTE	W60
// 012   ----------------------------------------
	BYTE	PATT
	 POIN2	RecruitmentThemeFull_4_010
// 013   ----------------------------------------
	BYTE		N10     Dn4   v064
	BYTE	W12
	BYTE		        En4 
	BYTE	W12
	BYTE		        Dn4 
	BYTE	W12
	BYTE		        Cn4 
	BYTE	W12
	BYTE		        Bn3 
	BYTE	W12
	BYTE		        An3 
	BYTE	W12
	BYTE		        Gn3 
	BYTE	W12
	BYTE		        Bn3 
	BYTE	W12
// 014   ----------------------------------------
RecruitmentThemeFull_4_014:
	BYTE		N10     Bn3   v064
	BYTE	W12
	BYTE		        An3 
	BYTE	W12
	BYTE		        Bn3 
	BYTE	W12
	BYTE		N32     En4 
	BYTE	W60
	BYTE	PEND
// 015   ----------------------------------------
	BYTE	PATT
	 POIN2	RecruitmentThemeFull_4_014
// 016   ----------------------------------------
	BYTE	PATT
	 POIN2	RecruitmentThemeFull_4_014
// 017   ----------------------------------------
	BYTE		N10     Dn4   v064
	BYTE	W12
	BYTE		        En4 
	BYTE	W12
	BYTE		        Dn4 
	BYTE	W12
	BYTE		        Cn4 
	BYTE	W12
	BYTE		        Dn4 
	BYTE	W12
	BYTE		        Cn4 
	BYTE	W12
	BYTE		        Bn3 
	BYTE	W12
	BYTE		        An3 
	BYTE	W12
// 018   ----------------------------------------
RecruitmentThemeFull_4_018:
	BYTE		N10     Cn4   v064
	BYTE	W12
	BYTE		        Bn3 
	BYTE	W12
	BYTE		        An3 
	BYTE	W12
	BYTE		N32     En3 
	BYTE	W60
	BYTE	PEND
// 019   ----------------------------------------
	BYTE	PATT
	 POIN2	RecruitmentThemeFull_4_018
// 020   ----------------------------------------
	BYTE		N10     Cn4   v064
	BYTE	W12
	BYTE		        Bn3 
	BYTE	W12
	BYTE		        An3 
	BYTE	W12
	BYTE		N21     Gn3 
	BYTE	W24
	BYTE		        Bn3 
	BYTE	W24
	BYTE		N10     Gn3 
	BYTE	W12
// 021   ----------------------------------------
	BYTE		N12     An3 
	BYTE	W96
	BYTE	GoTo
	 POIN2	RecruitmentThemeFull_4_B1
RecruitmentThemeFull_4_B2:
// 022   ----------------------------------------
	BYTE	FINE

//**************** Track 5 (Midi-Chn.6) ****************//

RecruitmentThemeFull_5:
	BYTE	KEYSH   RecruitmentThemeFull_key+0
RecruitmentThemeFull_5_B1:
// 000   ----------------------------------------
	BYTE		VOICE   34
	BYTE		VOL     100*RecruitmentThemeFull_mvl/mxv
	BYTE		N21     An1   v116
	BYTE	W36
	BYTE		N10   
	BYTE	W36
	BYTE		N10   
	BYTE	W24
// 001   ----------------------------------------
	BYTE		N21     Gn1 
	BYTE	W36
	BYTE		N10   
	BYTE	W36
	BYTE		N10   
	BYTE	W24
// 002   ----------------------------------------
	BYTE		N21     Fs1 
	BYTE	W36
	BYTE		N10   
	BYTE	W36
	BYTE		N10   
	BYTE	W24
// 003   ----------------------------------------
	BYTE		N21     Gs1 
	BYTE	W36
	BYTE		N10   
	BYTE	W36
	BYTE		N10   
	BYTE	W24
// 004   ----------------------------------------
	BYTE		N21     An1 
	BYTE	W36
	BYTE		N10   
	BYTE	W24
	BYTE		N10   
	BYTE	W24
	BYTE		N10   
	BYTE	W12
// 005   ----------------------------------------
	BYTE		N21     Gn1 
	BYTE	W36
	BYTE		N10   
	BYTE	W24
	BYTE		N10   
	BYTE	W24
	BYTE		N10   
	BYTE	W12
// 006   ----------------------------------------
	BYTE		N21     Fs1 
	BYTE	W36
	BYTE		N10   
	BYTE	W24
	BYTE		N10   
	BYTE	W24
	BYTE		N10   
	BYTE	W12
// 007   ----------------------------------------
	BYTE		N21     Fn1 
	BYTE	W36
	BYTE		N10   
	BYTE	W24
	BYTE		N10   
	BYTE	W24
	BYTE		N10   
	BYTE	W12
// 008   ----------------------------------------
	BYTE		N21     En1 
	BYTE	W36
	BYTE		N10   
	BYTE	W24
	BYTE		N10   
	BYTE	W24
	BYTE		N10   
	BYTE	W12
// 009   ----------------------------------------
	BYTE		N10   
	BYTE	W72
	BYTE		N21   
	BYTE	W24
// 010   ----------------------------------------
	BYTE		        Fn1 
	BYTE	W36
	BYTE		N42   
	BYTE	W60
// 011   ----------------------------------------
	BYTE		N21     Gn1 
	BYTE	W36
	BYTE		N42   
	BYTE	W60
// 012   ----------------------------------------
	BYTE		N21     An1 
	BYTE	W36
	BYTE		N42   
	BYTE	W60
// 013   ----------------------------------------
	BYTE		N21   
	BYTE	W36
	BYTE		N21   
	BYTE	W36
	BYTE		        Gn1 
	BYTE	W24
// 014   ----------------------------------------
RecruitmentThemeFull_5_014:
	BYTE		N21     Dn1   v116
	BYTE	W36
	BYTE		N21   
	BYTE	W36
	BYTE		N10   
	BYTE	W24
	BYTE	PEND
// 015   ----------------------------------------
	BYTE		N21     En1 
	BYTE	W36
	BYTE		N21   
	BYTE	W36
	BYTE		N10     Gs1 
	BYTE	W24
// 016   ----------------------------------------
	BYTE		N21     An1 
	BYTE	W36
	BYTE		N21   
	BYTE	W36
	BYTE		        En1 
	BYTE	W24
// 017   ----------------------------------------
	BYTE		        Gn1 
	BYTE	W36
	BYTE		N21   
	BYTE	W36
	BYTE		        En1 
	BYTE	W24
// 018   ----------------------------------------
	BYTE	PATT
	 POIN2	RecruitmentThemeFull_5_014
// 019   ----------------------------------------
	BYTE		N21     En1   v116
	BYTE	W36
	BYTE		        Gn1 
	BYTE	W36
	BYTE		N10     Bn1 
	BYTE	W24
// 020   ----------------------------------------
	BYTE		N21     An1 
	BYTE	W36
	BYTE		        Gn1 
	BYTE	W24
	BYTE		N10   
	BYTE	W24
	BYTE		N10   
	BYTE	W12
// 021   ----------------------------------------
	BYTE		N21     An1 
	BYTE	W96
	BYTE	GoTo
	 POIN2	RecruitmentThemeFull_5_B1
RecruitmentThemeFull_5_B2:
// 022   ----------------------------------------
	BYTE	FINE

//**************** Track 6 (Midi-Chn.7) ****************//

RecruitmentThemeFull_6:
	BYTE	KEYSH   RecruitmentThemeFull_key+0
RecruitmentThemeFull_6_B1:
// 000   ----------------------------------------
	BYTE		VOICE   127
	BYTE		VOL     113*RecruitmentThemeFull_mvl/mxv
	BYTE		N03     Cn1   v108
	BYTE		N03     As1 
	BYTE	W72
	BYTE		        Cn1 
	BYTE		N03     Fs1 
	BYTE	W24
// 001   ----------------------------------------
RecruitmentThemeFull_6_001:
	BYTE		N03     Cn1   v108
	BYTE		N03     As1 
	BYTE	W72
	BYTE		        Cn1 
	BYTE		N03     Fs1 
	BYTE	W24
	BYTE	PEND
// 002   ----------------------------------------
	BYTE	PATT
	 POIN2	RecruitmentThemeFull_6_001
// 003   ----------------------------------------
	BYTE		N03     Cn1   v108
	BYTE		N03     As1 
	BYTE	W72
	BYTE		        Cn1 
	BYTE		N03     En1 
	BYTE		N03     Fs1 
	BYTE	W24
// 004   ----------------------------------------
RecruitmentThemeFull_6_004:
	BYTE		N03     Cn1   v108
	BYTE		N03     As1 
	BYTE	W36
	BYTE		        Cn1 
	BYTE		N03     Fs1 
	BYTE	W36
	BYTE		        Cn1 
	BYTE		N03     Fs1 
	BYTE	W24
	BYTE	PEND
// 005   ----------------------------------------
RecruitmentThemeFull_6_005:
	BYTE		N03     Cn1   v108
	BYTE		N03     As1 
	BYTE	W36
	BYTE		        Cn1 
	BYTE		N03     Fs1 
	BYTE	W36
	BYTE		        Cn1 
	BYTE		N03     Fs1 
	BYTE	W12
	BYTE		        Cn1 
	BYTE		N03     Fs1 
	BYTE	W12
	BYTE	PEND
// 006   ----------------------------------------
	BYTE	PATT
	 POIN2	RecruitmentThemeFull_6_004
// 007   ----------------------------------------
	BYTE	PATT
	 POIN2	RecruitmentThemeFull_6_005
// 008   ----------------------------------------
	BYTE		N03     Cn1   v108
	BYTE		N03     As1 
	BYTE	W24
	BYTE		        Cn1 
	BYTE		N03     En1   v104
	BYTE	W12
	BYTE		        Cn1   v108
	BYTE		N03     En1   v104
	BYTE		N03     Fs1   v108
	BYTE	W12
	BYTE		        Cn1 
	BYTE		N03     En1   v104
	BYTE	W12
	BYTE		        Cn1   v108
	BYTE		N03     En1   v104
	BYTE	W12
	BYTE		        Cn1   v108
	BYTE		N03     En1   v104
	BYTE	W12
	BYTE		        Cn1   v108
	BYTE		N03     En1   v104
	BYTE		N03     Fs1   v108
	BYTE	W12
// 009   ----------------------------------------
	BYTE		        Cn1 
	BYTE		N03     Dn1 
	BYTE		N03     As1 
	BYTE	W24
	BYTE		        Cn1 
	BYTE	W24
	BYTE		N03   
	BYTE	W12
	BYTE		N03   
	BYTE	W12
	BYTE		        Dn1 
	BYTE		N03     Ds2 
	BYTE	W24
// 010   ----------------------------------------
	BYTE		        Cn1 
	BYTE		N03     Fs1 
	BYTE		N03     An2 
	BYTE	W24
	BYTE		        Dn1 
	BYTE		N03     Ds2 
	BYTE	W12
	BYTE		        Cn1 
	BYTE	W12
	BYTE		N03   
	BYTE		N03     Fs1 
	BYTE	W24
	BYTE		        Dn1 
	BYTE		N03     Ds2 
	BYTE	W12
	BYTE		        Cn1 
	BYTE	W12
// 011   ----------------------------------------
RecruitmentThemeFull_6_011:
	BYTE		N03     Cn1   v108
	BYTE		N03     Fs1 
	BYTE	W24
	BYTE		        Dn1 
	BYTE		N03     Ds2 
	BYTE	W12
	BYTE		        Cn1 
	BYTE	W12
	BYTE		N03   
	BYTE		N03     Fs1 
	BYTE	W24
	BYTE		        Dn1 
	BYTE		N03     Ds2 
	BYTE	W12
	BYTE		        Cn1 
	BYTE	W12
	BYTE	PEND
// 012   ----------------------------------------
	BYTE	PATT
	 POIN2	RecruitmentThemeFull_6_011
// 013   ----------------------------------------
	BYTE	PATT
	 POIN2	RecruitmentThemeFull_6_011
// 014   ----------------------------------------
	BYTE	PATT
	 POIN2	RecruitmentThemeFull_6_011
// 015   ----------------------------------------
	BYTE	PATT
	 POIN2	RecruitmentThemeFull_6_011
// 016   ----------------------------------------
	BYTE	PATT
	 POIN2	RecruitmentThemeFull_6_011
// 017   ----------------------------------------
	BYTE		N03     Cn1   v108
	BYTE		N03     Fs1 
	BYTE	W24
	BYTE		        Dn1 
	BYTE		N03     Ds2 
	BYTE	W12
	BYTE		        Cn1 
	BYTE	W12
	BYTE		N03   
	BYTE		N03     Fs1 
	BYTE	W12
	BYTE		        Dn2 
	BYTE	W12
	BYTE		        Dn1 
	BYTE		N03     Ds2 
	BYTE	W12
	BYTE		        Cn1 
	BYTE		N03     Bn1 
	BYTE	W12
// 018   ----------------------------------------
	BYTE		        Cn1 
	BYTE		N03     Fs1 
	BYTE		N03     Cs2 
	BYTE	W24
	BYTE		        Dn1 
	BYTE		N03     Ds2 
	BYTE	W12
	BYTE		        Cn1 
	BYTE	W12
	BYTE		N03   
	BYTE		N03     Fs1 
	BYTE	W24
	BYTE		        Dn1 
	BYTE		N03     Ds2 
	BYTE	W12
	BYTE		        Cn1 
	BYTE	W12
// 019   ----------------------------------------
	BYTE	PATT
	 POIN2	RecruitmentThemeFull_6_011
// 020   ----------------------------------------
	BYTE		N03     Cn1   v108
	BYTE		N03     Fs1 
	BYTE	W24
	BYTE		        Dn1 
	BYTE		N03     Ds2 
	BYTE	W12
	BYTE		        Cn1 
	BYTE	W12
	BYTE		N03   
	BYTE		N03     Fs1 
	BYTE	W12
	BYTE		        En1 
	BYTE	W12
	BYTE		        Dn1 
	BYTE		N03     Ds2 
	BYTE	W12
	BYTE		        Cn1 
	BYTE	W12
// 021   ----------------------------------------
	BYTE		N03   
	BYTE		N03     En1 
	BYTE		N03     Fs1 
	BYTE	W12
	BYTE		        En1 
	BYTE	W12
	BYTE		        Cn1 
	BYTE		N03     En1 
	BYTE		N03     Fs1 
	BYTE	W12
	BYTE		        En1 
	BYTE	W12
	BYTE		        Cn1 
	BYTE		N03     En1 
	BYTE		N03     Fs1 
	BYTE	W12
	BYTE		        Cn1 
	BYTE		N03     En1 
	BYTE	W12
	BYTE		        Dn1 
	BYTE		N03     En1 
	BYTE		N03     An2 
	BYTE	W12
	BYTE		        En1 
	BYTE	W12
	BYTE	GoTo
	 POIN2	RecruitmentThemeFull_6_B1
RecruitmentThemeFull_6_B2:
// 022   ----------------------------------------
	BYTE	FINE

//**************** Track 7 (Midi-Chn.8) ****************//

RecruitmentThemeFull_7:
	BYTE	KEYSH   RecruitmentThemeFull_key+0
RecruitmentThemeFull_7_B1:
// 000   ----------------------------------------
	BYTE		VOICE   109
	BYTE		VOL     79*RecruitmentThemeFull_mvl/mxv
	BYTE		N21     An3   v064
	BYTE		N21     Cn4 
	BYTE		N21     En4 
	BYTE	W36
	BYTE		N10     An3 
	BYTE		N10     Cn4 
	BYTE		N10     En4 
	BYTE	W24
	BYTE		        An3 
	BYTE		N10     Cn4 
	BYTE		N10     En4 
	BYTE	W24
	BYTE		        An3 
	BYTE		N10     Cn4 
	BYTE		N10     En4 
	BYTE	W12
// 001   ----------------------------------------
	BYTE		N21     Gn3 
	BYTE		N21     Cn4 
	BYTE		N21     En4 
	BYTE	W36
	BYTE		N10     Gn3 
	BYTE		N10     Cn4 
	BYTE		N10     En4 
	BYTE	W24
	BYTE		        Gn3 
	BYTE		N10     Cn4 
	BYTE		N10     En4 
	BYTE	W24
	BYTE		        Gn3 
	BYTE		N10     Cn4 
	BYTE		N10     En4 
	BYTE	W12
// 002   ----------------------------------------
	BYTE		N21     Fs3 
	BYTE		N21     An3 
	BYTE		N21     Dn4 
	BYTE		N21     En4 
	BYTE	W36
	BYTE		N10     Fs3 
	BYTE		N10     An3 
	BYTE		N10     Dn4 
	BYTE		N10     En4 
	BYTE	W24
	BYTE		        Fs3 
	BYTE		N10     An3 
	BYTE		N10     Dn4 
	BYTE		N10     En4 
	BYTE	W24
	BYTE		        Fs3 
	BYTE		N10     An3 
	BYTE		N10     Dn4 
	BYTE		N10     En4 
	BYTE	W12
// 003   ----------------------------------------
RecruitmentThemeFull_7_003:
	BYTE		N21     Gs3   v064
	BYTE		N21     Bn3 
	BYTE		N21     Dn4 
	BYTE		N21     En4 
	BYTE	W36
	BYTE		N10     Gs3 
	BYTE		N10     Bn3 
	BYTE		N10     Dn4 
	BYTE		N10     En4 
	BYTE	W24
	BYTE		        Gs3 
	BYTE		N10     Bn3 
	BYTE		N10     Dn4 
	BYTE		N10     En4 
	BYTE	W24
	BYTE		        Gs3 
	BYTE		N10     Bn3 
	BYTE		N10     Dn4 
	BYTE		N10     En4 
	BYTE	W12
	BYTE	PEND
// 004   ----------------------------------------
	BYTE		N21     An3 
	BYTE		N21     Cn4 
	BYTE		N21     En4 
	BYTE		N21     An4 
	BYTE	W36
	BYTE		N10     An3 
	BYTE		N10     Cn4 
	BYTE		N10     En4 
	BYTE		N10     An4 
	BYTE	W24
	BYTE		        An3 
	BYTE		N10     Cn4 
	BYTE		N10     En4 
	BYTE		N10     An4 
	BYTE	W24
	BYTE		        An3 
	BYTE		N10     Cn4 
	BYTE		N10     En4 
	BYTE		N10     An4 
	BYTE	W12
// 005   ----------------------------------------
	BYTE		N21     Gn3 
	BYTE		N21     Cn4 
	BYTE		N21     En4 
	BYTE		N21     Gn4 
	BYTE	W36
	BYTE		N10     Gn3 
	BYTE		N10     Cn4 
	BYTE		N10     En4 
	BYTE		N10     Gn4 
	BYTE	W24
	BYTE		        Gn3 
	BYTE		N10     Cn4 
	BYTE		N10     En4 
	BYTE		N10     Gn4 
	BYTE	W24
	BYTE		        Gn3 
	BYTE		N10     Cn4 
	BYTE		N10     En4 
	BYTE		N10     Gn4 
	BYTE	W12
// 006   ----------------------------------------
	BYTE		N21     Fs3 
	BYTE		N21     An3 
	BYTE		N21     Dn4 
	BYTE		N21     Fs4 
	BYTE	W36
	BYTE		N10     Fs3 
	BYTE		N10     An3 
	BYTE		N10     Dn4 
	BYTE		N10     Fs4 
	BYTE	W24
	BYTE		        Fs3 
	BYTE		N10     An3 
	BYTE		N10     Dn4 
	BYTE		N10     Fs4 
	BYTE	W24
	BYTE		        Fs3 
	BYTE		N10     An3 
	BYTE		N10     Dn4 
	BYTE		N10     Fs4 
	BYTE	W12
// 007   ----------------------------------------
	BYTE		N21     Fn3 
	BYTE		N21     An3 
	BYTE		N21     Dn4 
	BYTE		N21     Fn4 
	BYTE	W36
	BYTE		N10     Fn3 
	BYTE		N10     An3 
	BYTE		N10     Dn4 
	BYTE		N10     Fn4 
	BYTE	W24
	BYTE		        Fn3 
	BYTE		N10     An3 
	BYTE		N10     Dn4 
	BYTE		N10     Fn4 
	BYTE	W24
	BYTE		        Fn3 
	BYTE		N10     An3 
	BYTE		N10     Dn4 
	BYTE		N10     Fn4 
	BYTE	W12
// 008   ----------------------------------------
	BYTE	PATT
	 POIN2	RecruitmentThemeFull_7_003
// 009   ----------------------------------------
	BYTE		N10     Gs3   v064
	BYTE		N10     Dn4 
	BYTE		N10     En4 
	BYTE		N10     Gs4 
	BYTE		N10     Bn4 
	BYTE		N10     Dn5 
	BYTE	W96
// 010   ----------------------------------------
RecruitmentThemeFull_7_010:
	BYTE		N10     Fn3   v064
	BYTE		N10     An3 
	BYTE		N10     Cn4 
	BYTE	W36
	BYTE		        Fn3 
	BYTE		N10     An3 
	BYTE		N10     Cn4 
	BYTE	W24
	BYTE		        Fn3 
	BYTE		N10     An3 
	BYTE		N10     Cn4 
	BYTE	W24
	BYTE		        Fn3 
	BYTE		N10     An3 
	BYTE		N10     Cn4 
	BYTE	W12
	BYTE	PEND
// 011   ----------------------------------------
RecruitmentThemeFull_7_011:
	BYTE		N10     Gn3   v064
	BYTE		N10     Bn3 
	BYTE		N10     Dn4 
	BYTE	W36
	BYTE		        Gn3 
	BYTE		N10     Bn3 
	BYTE		N10     Dn4 
	BYTE	W24
	BYTE		        Gn3 
	BYTE		N10     Bn3 
	BYTE		N10     Dn4 
	BYTE	W24
	BYTE		        Gn3 
	BYTE		N10     Bn3 
	BYTE		N10     Dn4 
	BYTE	W12
	BYTE	PEND
// 012   ----------------------------------------
RecruitmentThemeFull_7_012:
	BYTE		N10     An3   v064
	BYTE		N10     Cn4 
	BYTE		N10     En4 
	BYTE	W36
	BYTE		        An3 
	BYTE		N10     Cn4 
	BYTE		N10     En4 
	BYTE	W24
	BYTE		        An3 
	BYTE		N10     Cn4 
	BYTE		N10     En4 
	BYTE	W24
	BYTE		        An3 
	BYTE		N10     Cn4 
	BYTE		N10     En4 
	BYTE	W12
	BYTE	PEND
// 013   ----------------------------------------
RecruitmentThemeFull_7_013:
	BYTE		N10     Gn3   v064
	BYTE		N10     Bn3 
	BYTE		N10     Dn4 
	BYTE		N10     En4 
	BYTE	W36
	BYTE		        Gn3 
	BYTE		N10     Bn3 
	BYTE		N10     Dn4 
	BYTE		N10     En4 
	BYTE	W24
	BYTE		        Gn3 
	BYTE		N10     Bn3 
	BYTE		N10     Dn4 
	BYTE		N10     En4 
	BYTE	W24
	BYTE		        Gn3 
	BYTE		N10     Bn3 
	BYTE		N10     Dn4 
	BYTE		N10     En4 
	BYTE	W12
	BYTE	PEND
// 014   ----------------------------------------
	BYTE	PATT
	 POIN2	RecruitmentThemeFull_7_010
// 015   ----------------------------------------
	BYTE	PATT
	 POIN2	RecruitmentThemeFull_7_011
// 016   ----------------------------------------
	BYTE	PATT
	 POIN2	RecruitmentThemeFull_7_012
// 017   ----------------------------------------
	BYTE	PATT
	 POIN2	RecruitmentThemeFull_7_013
// 018   ----------------------------------------
	BYTE		N10     Fn3   v064
	BYTE		N10     An3 
	BYTE		N10     Cn4 
	BYTE		N10     Fn4 
	BYTE	W36
	BYTE		        Fn3 
	BYTE		N10     An3 
	BYTE		N10     Cn4 
	BYTE		N10     Fn4 
	BYTE	W24
	BYTE		        Fn3 
	BYTE		N10     An3 
	BYTE		N10     Cn4 
	BYTE		N10     Fn4 
	BYTE	W24
	BYTE		        Fn3 
	BYTE		N10     An3 
	BYTE		N10     Cn4 
	BYTE		N10     Fn4 
	BYTE	W12
// 019   ----------------------------------------
	BYTE		        Gn3 
	BYTE		N10     Bn3 
	BYTE		N10     Dn4 
	BYTE		N10     Gn4 
	BYTE	W36
	BYTE		        Gn3 
	BYTE		N10     Bn3 
	BYTE		N10     Dn4 
	BYTE		N10     Gn4 
	BYTE	W24
	BYTE		        Gn3 
	BYTE		N10     Bn3 
	BYTE		N10     Dn4 
	BYTE		N10     Gn4 
	BYTE	W24
	BYTE		        Gn3 
	BYTE		N10     Bn3 
	BYTE		N10     Dn4 
	BYTE		N10     Gn4 
	BYTE	W12
// 020   ----------------------------------------
	BYTE		        An3 
	BYTE		N10     Dn4 
	BYTE		N10     En4 
	BYTE		N10     An4 
	BYTE	W36
	BYTE		        An3 
	BYTE		N10     Dn4 
	BYTE		N10     En4 
	BYTE		N10     An4 
	BYTE	W24
	BYTE		        An3 
	BYTE		N10     Dn4 
	BYTE		N10     En4 
	BYTE		N10     An4 
	BYTE	W24
	BYTE		        An3 
	BYTE		N10     Dn4 
	BYTE		N10     En4 
	BYTE		N10     An4 
	BYTE	W12
// 021   ----------------------------------------
	BYTE		        An3 
	BYTE		N10     Cs4 
	BYTE		N10     En4 
	BYTE		N10     An4 
	BYTE	W96
	BYTE	GoTo
	 POIN2	RecruitmentThemeFull_7_B1
RecruitmentThemeFull_7_B2:
// 022   ----------------------------------------
	BYTE	FINE

//******************************************************//
	ALIGN 4

RecruitmentThemeFull:
	BYTE	7	// NumTrks
	BYTE	0	// NumBlks
	BYTE	RecruitmentThemeFull_pri	// Priority
	BYTE	RecruitmentThemeFull_rev	// Reverb.

	POIN2	RecruitmentThemeFull_grp

	POIN2	RecruitmentThemeFull_1
	POIN2	RecruitmentThemeFull_2
	POIN2	RecruitmentThemeFull_3
	POIN2	RecruitmentThemeFull_4
	POIN2	RecruitmentThemeFull_5
	POIN2	RecruitmentThemeFull_6
	POIN2	RecruitmentThemeFull_7

	
