//Event file generated from Sappy .s format.
	#include "MPlayDef.event"

	#define	Recruitment_Reprise_grp  voicegroup000
	#define	Recruitment_Reprise_pri  0
	#define	Recruitment_Reprise_rev  0
	#define	Recruitment_Reprise_mvl  85
	#define	Recruitment_Reprise_key  0
	#define	Recruitment_Reprise_tbs  1
	#define	Recruitment_Reprise_exg  0
	#define	Recruitment_Reprise_cmp  1

	// .rodata
	//	Recruitment_Reprise
	ALIGN 4

//**************** Track 1 (Midi-Chn.1) ****************//

Recruitment_Reprise_1:
	BYTE	KEYSH   Recruitment_Reprise_key+0
// 000   ----------------------------------------
	BYTE	TEMPO   150*Recruitment_Reprise_tbs/2
	BYTE		VOICE   69
	BYTE		VOL     64*Recruitment_Reprise_mvl/mxv
	BYTE		PAN     c_v-35
	BYTE	W96
Recruitment_Reprise_1_B1:
// 001   ----------------------------------------
	BYTE		N42     Gs3   v092
	BYTE	W48
	BYTE		N64     An3 
	BYTE	W48
// 002   ----------------------------------------
	BYTE	W24
	BYTE		N21     Gs3 
	BYTE	W24
	BYTE		        An3 
	BYTE	W24
	BYTE		        Bn3 
	BYTE	W24
// 003   ----------------------------------------
	BYTE		N42     Cs4 
	BYTE	W48
	BYTE		N21     Bn3 
	BYTE	W24
	BYTE		        An3 
	BYTE	W24
// 004   ----------------------------------------
	BYTE		N42     Gs3 
	BYTE	W48
	BYTE		N21     Cs3 
	BYTE	W24
	BYTE		        Fn3 
	BYTE	W24
// 005   ----------------------------------------
Recruitment_Reprise_1_005:
	BYTE		N21     Gs3   v092
	BYTE	W24
	BYTE		        An3 
	BYTE	W24
	BYTE		N64     Cs3 
	BYTE	W48
	BYTE	PEND
// 006   ----------------------------------------
	BYTE	W24
	BYTE		N21     Gs3 
	BYTE	W24
	BYTE		        An3 
	BYTE	W24
	BYTE		        Cs3 
	BYTE	W24
// 007   ----------------------------------------
	BYTE	PATT
	 POIN2	Recruitment_Reprise_1_005
// 008   ----------------------------------------
	BYTE	W24
	BYTE		N21     Bn2   v092
	BYTE	W24
	BYTE		        En3 
	BYTE	W24
	BYTE		        Dn3 
	BYTE	W24
// 009   ----------------------------------------
	BYTE		TIE     Cs3 
	BYTE	W56
	BYTE	W01
	BYTE	W01
	BYTE	W28
	BYTE	W01
	BYTE	W06
	BYTE	W03
// 010   ----------------------------------------
	BYTE	W04
	BYTE	W02
	BYTE	W03
	BYTE	W01
	BYTE	W02
	BYTE	W01
	BYTE	W02
	BYTE	W01
	BYTE	W02
	BYTE	W01
	BYTE	W02
	BYTE	W01
	BYTE	W02
	BYTE	W01
	BYTE	W02
	BYTE	W01
	BYTE	W02
	BYTE	W01
	BYTE	W02
	BYTE	W01
	BYTE	W02
	BYTE	W01
	BYTE	W02
	BYTE	W01
	BYTE	W02
	BYTE	W01
	BYTE	W02
	BYTE	W01
	BYTE	W02
	BYTE	W01
	BYTE	W02
	BYTE	W01
	BYTE	W02
	BYTE	W01
	BYTE	W02
	BYTE		EOT   
	BYTE	W01
	BYTE	W02
	BYTE	W01
	BYTE	W02
	BYTE	W07
	BYTE	W02
	BYTE		N21   
	BYTE	W24
// 011   ----------------------------------------
Recruitment_Reprise_1_011:
	BYTE		N42     Cs3   v092
	BYTE	W48
	BYTE		N64     Dn3 
	BYTE	W48
	BYTE	PEND
// 012   ----------------------------------------
Recruitment_Reprise_1_012:
	BYTE	W24
	BYTE		N21     Bn2   v092
	BYTE	W24
	BYTE		        En3 
	BYTE	W24
	BYTE		        Gs3 
	BYTE	W24
	BYTE	PEND
// 013   ----------------------------------------
	BYTE		N21   
	BYTE	W24
	BYTE		        An3 
	BYTE	W24
	BYTE		TIE     Cs3 
	BYTE	W13
	BYTE	W32
	BYTE	W03
// 014   ----------------------------------------
	BYTE	W06
	BYTE	W07
	BYTE	W06
	BYTE	W05
	BYTE	W03
	BYTE	W03
	BYTE	W03
	BYTE	W01
	BYTE	W03
	BYTE	W02
	BYTE	W03
	BYTE	W01
	BYTE	W02
	BYTE	W01
	BYTE	W02
	BYTE	W01
	BYTE	W02
	BYTE	W01
	BYTE	W02
	BYTE	W01
	BYTE	W02
	BYTE	W01
	BYTE	W02
	BYTE	W01
	BYTE	W02
	BYTE	W01
	BYTE		EOT   
	BYTE	W02
	BYTE	W04
	BYTE	W02
	BYTE		N21   
	BYTE	W24
// 015   ----------------------------------------
	BYTE	PATT
	 POIN2	Recruitment_Reprise_1_011
// 016   ----------------------------------------
	BYTE	PATT
	 POIN2	Recruitment_Reprise_1_012
// 017   ----------------------------------------
	BYTE		N21     Gs3   v092
	BYTE	W24
	BYTE		        An3 
	BYTE	W24
	BYTE		N64     Cs4 
	BYTE	W15
	BYTE	W24
	BYTE	W03
	BYTE	W05
	BYTE	W01
// 018   ----------------------------------------
	BYTE	W03
	BYTE	W03
	BYTE	W02
	BYTE	W01
	BYTE	W03
	BYTE	W02
	BYTE	W01
	BYTE	W02
	BYTE	W06
	BYTE	W01
	BYTE		N21     Bn3 
	BYTE	W24
	BYTE		        An3 
	BYTE	W24
	BYTE		        Gs3 
	BYTE	W24
// 019   ----------------------------------------
	BYTE		N42   
	BYTE	W48
	BYTE		N84     Fs3 
	BYTE	W48
// 020   ----------------------------------------
	BYTE	W48
	BYTE		N42     En3 
	BYTE	W48
// 021   ----------------------------------------
	BYTE		TIE     Fs3 
	BYTE	W90
	BYTE	W01
	BYTE	W01
	BYTE	W04
// 022   ----------------------------------------
	BYTE	W17
	BYTE	W05
	BYTE	W04
	BYTE	W03
	BYTE	W02
	BYTE	W03
	BYTE	W01
	BYTE	W02
	BYTE	W01
	BYTE	W02
	BYTE	W01
	BYTE	W02
	BYTE	W01
	BYTE	W02
	BYTE	W01
	BYTE	W02
	BYTE	W01
	BYTE	W02
	BYTE	W01
	BYTE	W02
	BYTE	W01
	BYTE	W02
	BYTE	W01
	BYTE	W02
	BYTE	W01
	BYTE	W02
	BYTE	W01
	BYTE	W02
	BYTE	W01
	BYTE	W02
	BYTE	W01
	BYTE	W02
	BYTE	W01
	BYTE	W02
	BYTE	W01
	BYTE	W02
	BYTE	W01
	BYTE	W02
	BYTE	W01
	BYTE	W02
	BYTE	W01
	BYTE		EOT   
	BYTE	W02
	BYTE	W01
	BYTE	W02
	BYTE	W03
	BYTE	W02
	BYTE	GoTo
	 POIN2	Recruitment_Reprise_1_B1
Recruitment_Reprise_1_B2:
// 023   ----------------------------------------
	BYTE	FINE

//**************** Track 2 (Midi-Chn.2) ****************//

Recruitment_Reprise_2:
	BYTE	KEYSH   Recruitment_Reprise_key+0
// 000   ----------------------------------------
	BYTE		VOICE   51
	BYTE		VOL     81*Recruitment_Reprise_mvl/mxv
	BYTE		PAN     c_v-17
	BYTE		N06     Fs1   v064
	BYTE	W36
	BYTE		N06   
	BYTE	W12
	BYTE		N12   
	BYTE	W24
	BYTE		N12   
	BYTE	W24
Recruitment_Reprise_2_B1:
// 001   ----------------------------------------
	BYTE		N12     Fs1   v104
	BYTE	W72
	BYTE		N18     Cs2   v076
	BYTE	W24
// 002   ----------------------------------------
	BYTE		N12     En1   v096
	BYTE	W72
	BYTE		N18     Cs2   v076
	BYTE	W24
// 003   ----------------------------------------
	BYTE		N12     Ds1   v096
	BYTE	W72
	BYTE		N18     Bn1   v076
	BYTE	W24
// 004   ----------------------------------------
	BYTE		N12     Cs1   v096
	BYTE	W48
	BYTE		        Cs1   v104
	BYTE	W12
	BYTE		N18     Gs1 
	BYTE	W24
	BYTE		N12     Cs1 
	BYTE	W12
// 005   ----------------------------------------
	BYTE		        Fs1   v096
	BYTE	W72
	BYTE		N18     Cs2   v076
	BYTE	W24
// 006   ----------------------------------------
	BYTE		N12     An0   v096
	BYTE	W72
	BYTE		N18     En1   v076
	BYTE	W24
// 007   ----------------------------------------
Recruitment_Reprise_2_007:
	BYTE		N12     Bn0   v096
	BYTE	W72
	BYTE		N18     Fs1   v076
	BYTE	W24
	BYTE	PEND
// 008   ----------------------------------------
	BYTE	PATT
	 POIN2	Recruitment_Reprise_2_007
// 009   ----------------------------------------
	BYTE		N12     Cs1   v096
	BYTE	W72
	BYTE		N18     Gs1   v076
	BYTE	W24
// 010   ----------------------------------------
	BYTE		N84     Cs1   v096
	BYTE	W96
// 011   ----------------------------------------
	BYTE		N12     Bn0 
	BYTE	W72
	BYTE		N24     Fs1   v076
	BYTE	W24
// 012   ----------------------------------------
	BYTE		N72     En1   v096
	BYTE	W72
	BYTE		N24     Bn1   v076
	BYTE	W24
// 013   ----------------------------------------
Recruitment_Reprise_2_013:
	BYTE		N72     Fs1   v096
	BYTE	W72
	BYTE		N24     Cs2   v076
	BYTE	W24
	BYTE	PEND
// 014   ----------------------------------------
	BYTE		N42     Fs1   v096
	BYTE	W48
	BYTE		N44     En1   v084
	BYTE	W48
// 015   ----------------------------------------
	BYTE		N68     Bn0   v096
	BYTE	W72
	BYTE		N24     Fs1   v076
	BYTE	W24
// 016   ----------------------------------------
	BYTE		N68     En1   v096
	BYTE	W72
	BYTE		N24     Bn1   v076
	BYTE	W24
// 017   ----------------------------------------
	BYTE	PATT
	 POIN2	Recruitment_Reprise_2_013
// 018   ----------------------------------------
	BYTE		N48     Fs1   v096
	BYTE	W48
	BYTE		N23     An0 
	BYTE	W24
	BYTE		N24     En1   v076
	BYTE	W24
// 019   ----------------------------------------
	BYTE		N68     Dn1   v096
	BYTE	W72
	BYTE		N24     An1   v076
	BYTE	W24
// 020   ----------------------------------------
	BYTE		N42     En1   v096
	BYTE	W48
	BYTE		        Bn1   v100
	BYTE	W48
// 021   ----------------------------------------
	BYTE	PATT
	 POIN2	Recruitment_Reprise_2_013
// 022   ----------------------------------------
	BYTE		N84     Fs1   v096
	BYTE	W96
	BYTE	GoTo
	 POIN2	Recruitment_Reprise_2_B1
Recruitment_Reprise_2_B2:
// 023   ----------------------------------------
	BYTE	FINE

//**************** Track 3 (Midi-Chn.3) ****************//

Recruitment_Reprise_3:
	BYTE	KEYSH   Recruitment_Reprise_key+0
// 000   ----------------------------------------
	BYTE		VOICE   110
	BYTE		VOL     82*Recruitment_Reprise_mvl/mxv
	BYTE		PAN     c_v-17
	BYTE		N06     Fs3   v064
	BYTE	W12
	BYTE		N12   
	BYTE	W12
	BYTE		N06   
	BYTE	W12
	BYTE		N06   
	BYTE	W12
	BYTE		N12   
	BYTE	W12
	BYTE		N06   
	BYTE	W12
	BYTE		N12   
	BYTE	W12
	BYTE		N06   
	BYTE	W12
Recruitment_Reprise_3_B1:
// 001   ----------------------------------------
	BYTE		N06     Fs3   v104
	BYTE	W12
	BYTE		N12   
	BYTE	W12
	BYTE		N06   
	BYTE	W12
	BYTE		N06   
	BYTE	W12
	BYTE		N12   
	BYTE	W12
	BYTE		N06   
	BYTE	W12
	BYTE		N12     Cs4   v076
	BYTE	W12
	BYTE		N06     Cs4   v104
	BYTE	W12
// 002   ----------------------------------------
	BYTE		        En3   v096
	BYTE	W12
	BYTE		N12     En3   v104
	BYTE	W12
	BYTE		N06   
	BYTE	W12
	BYTE		N06   
	BYTE	W12
	BYTE		N12   
	BYTE	W12
	BYTE		N06   
	BYTE	W12
	BYTE		N12     Cs4   v076
	BYTE	W12
	BYTE		N06     Cs4   v104
	BYTE	W12
// 003   ----------------------------------------
	BYTE		        Ds3   v096
	BYTE	W12
	BYTE		N12     Ds3   v104
	BYTE	W12
	BYTE		N06   
	BYTE	W12
	BYTE		N06   
	BYTE	W12
	BYTE		N12   
	BYTE	W12
	BYTE		N06   
	BYTE	W12
	BYTE		N12     Bn3   v076
	BYTE	W12
	BYTE		N06     Bn3   v104
	BYTE	W12
// 004   ----------------------------------------
	BYTE		        Cs3   v096
	BYTE	W12
	BYTE		N12     Cs3   v104
	BYTE	W12
	BYTE		N06   
	BYTE	W12
	BYTE		N06   
	BYTE	W12
	BYTE		N12   
	BYTE	W12
	BYTE		N06   
	BYTE	W12
	BYTE		N12     Gs3   v080
	BYTE	W12
	BYTE		N06     Gs3   v104
	BYTE	W12
// 005   ----------------------------------------
Recruitment_Reprise_3_005:
	BYTE		N06     Fs3   v096
	BYTE	W12
	BYTE		N12     Fs3   v104
	BYTE	W12
	BYTE		N06   
	BYTE	W12
	BYTE		N06   
	BYTE	W12
	BYTE		N12   
	BYTE	W12
	BYTE		N06   
	BYTE	W12
	BYTE		N12     Cs4   v076
	BYTE	W12
	BYTE		N06     Cs4   v104
	BYTE	W12
	BYTE	PEND
// 006   ----------------------------------------
	BYTE		        An2   v096
	BYTE	W12
	BYTE		N12     An2   v104
	BYTE	W12
	BYTE		N06   
	BYTE	W12
	BYTE		N06   
	BYTE	W12
	BYTE		N12   
	BYTE	W12
	BYTE		N06   
	BYTE	W12
	BYTE		N12     En3   v076
	BYTE	W12
	BYTE		N06     En3   v104
	BYTE	W12
// 007   ----------------------------------------
Recruitment_Reprise_3_007:
	BYTE		N06     Bn2   v096
	BYTE	W12
	BYTE		N12     Bn2   v104
	BYTE	W12
	BYTE		N06   
	BYTE	W12
	BYTE		N06   
	BYTE	W12
	BYTE		N12   
	BYTE	W12
	BYTE		N06   
	BYTE	W12
	BYTE		N12     Fs3   v076
	BYTE	W12
	BYTE		N06     Fs3   v104
	BYTE	W12
	BYTE	PEND
// 008   ----------------------------------------
	BYTE	PATT
	 POIN2	Recruitment_Reprise_3_007
// 009   ----------------------------------------
	BYTE		N06     Cs3   v096
	BYTE	W12
	BYTE		N12     Cs3   v104
	BYTE	W12
	BYTE		N06   
	BYTE	W12
	BYTE		N06   
	BYTE	W12
	BYTE		N12   
	BYTE	W12
	BYTE		N06   
	BYTE	W12
	BYTE		N12     Gs3   v076
	BYTE	W12
	BYTE		N06     Gs3   v104
	BYTE	W12
// 010   ----------------------------------------
	BYTE		        Cs3   v096
	BYTE	W12
	BYTE		N12     Cs3   v104
	BYTE	W12
	BYTE		N06   
	BYTE	W12
	BYTE		N06   
	BYTE	W12
	BYTE		N12   
	BYTE	W12
	BYTE		N06   
	BYTE	W12
	BYTE		N12   
	BYTE	W12
	BYTE		N06   
	BYTE	W12
// 011   ----------------------------------------
	BYTE	PATT
	 POIN2	Recruitment_Reprise_3_007
// 012   ----------------------------------------
Recruitment_Reprise_3_012:
	BYTE		N06     En3   v096
	BYTE	W12
	BYTE		N12     En3   v104
	BYTE	W12
	BYTE		N06   
	BYTE	W12
	BYTE		N06   
	BYTE	W12
	BYTE		N12   
	BYTE	W12
	BYTE		N06   
	BYTE	W12
	BYTE		N12     Bn3   v076
	BYTE	W12
	BYTE		N06     Bn3   v104
	BYTE	W12
	BYTE	PEND
// 013   ----------------------------------------
	BYTE	PATT
	 POIN2	Recruitment_Reprise_3_005
// 014   ----------------------------------------
	BYTE		N06     Fs3   v096
	BYTE	W12
	BYTE		N12     Fs3   v104
	BYTE	W12
	BYTE		N06   
	BYTE	W12
	BYTE		N06   
	BYTE	W12
	BYTE		N12     En3   v084
	BYTE	W12
	BYTE		N06     En3   v104
	BYTE	W12
	BYTE		N12   
	BYTE	W12
	BYTE		N06   
	BYTE	W12
// 015   ----------------------------------------
	BYTE	PATT
	 POIN2	Recruitment_Reprise_3_007
// 016   ----------------------------------------
	BYTE	PATT
	 POIN2	Recruitment_Reprise_3_012
// 017   ----------------------------------------
	BYTE	PATT
	 POIN2	Recruitment_Reprise_3_005
// 018   ----------------------------------------
	BYTE		N06     Fs3   v096
	BYTE	W12
	BYTE		N12     Fs3   v104
	BYTE	W12
	BYTE		N06   
	BYTE	W12
	BYTE		N06   
	BYTE	W12
	BYTE		N12     An2   v096
	BYTE	W12
	BYTE		N06     An2   v104
	BYTE	W12
	BYTE		N12     En3   v076
	BYTE	W12
	BYTE		N06     En3   v104
	BYTE	W12
// 019   ----------------------------------------
	BYTE		        Dn3   v096
	BYTE	W12
	BYTE		N12     Dn3   v104
	BYTE	W12
	BYTE		N06   
	BYTE	W12
	BYTE		N06   
	BYTE	W12
	BYTE		N12   
	BYTE	W12
	BYTE		N06   
	BYTE	W12
	BYTE		N12     An3   v076
	BYTE	W12
	BYTE		N06     An3   v104
	BYTE	W12
// 020   ----------------------------------------
	BYTE		        En3   v096
	BYTE	W12
	BYTE		N12     En3   v104
	BYTE	W12
	BYTE		N06   
	BYTE	W12
	BYTE		N06   
	BYTE	W12
	BYTE		N12     Bn3   v100
	BYTE	W12
	BYTE		N06     Bn3   v104
	BYTE	W12
	BYTE		N12   
	BYTE	W12
	BYTE		N06   
	BYTE	W12
// 021   ----------------------------------------
	BYTE	PATT
	 POIN2	Recruitment_Reprise_3_005
// 022   ----------------------------------------
	BYTE		N84     Fs3   v096
	BYTE	W96
	BYTE	GoTo
	 POIN2	Recruitment_Reprise_3_B1
Recruitment_Reprise_3_B2:
// 023   ----------------------------------------
	BYTE	FINE

//**************** Track 4 (Midi-Chn.4) ****************//

Recruitment_Reprise_4:
	BYTE	KEYSH   Recruitment_Reprise_key+0
// 000   ----------------------------------------
	BYTE		VOICE   46
	BYTE		VOL     45*Recruitment_Reprise_mvl/mxv
	BYTE		PAN     c_v-26
	BYTE		N12     Fs2   v104
	BYTE	W12
	BYTE		        An2 
	BYTE	W12
	BYTE		        Cs3 
	BYTE	W12
	BYTE		        En3 
	BYTE	W12
	BYTE		        Fs3 
	BYTE	W12
	BYTE		        An3 
	BYTE	W12
	BYTE		        Cs4 
	BYTE	W12
	BYTE		        En4 
	BYTE	W12
Recruitment_Reprise_4_B1:
// 001   ----------------------------------------
	BYTE		N12     Fs4   v104
	BYTE	W12
	BYTE		N10     An4   v084
	BYTE	W12
	BYTE		        Cs5 
	BYTE	W12
	BYTE		        Fs5 
	BYTE	W12
	BYTE		        Fs4 
	BYTE	W12
	BYTE		        An4 
	BYTE	W12
	BYTE		        Cs5 
	BYTE	W12
	BYTE		        Fs5 
	BYTE	W12
// 002   ----------------------------------------
Recruitment_Reprise_4_002:
	BYTE		N10     En4   v084
	BYTE	W12
	BYTE		        An4 
	BYTE	W12
	BYTE		        Cs5 
	BYTE	W12
	BYTE		        En5 
	BYTE	W12
	BYTE		        En4 
	BYTE	W12
	BYTE		        An4 
	BYTE	W12
	BYTE		        Cs5 
	BYTE	W12
	BYTE		        En5 
	BYTE	W12
	BYTE	PEND
// 003   ----------------------------------------
Recruitment_Reprise_4_003:
	BYTE		N10     Ds4   v084
	BYTE	W12
	BYTE		        Fs4 
	BYTE	W12
	BYTE		        Bn4 
	BYTE	W12
	BYTE		        Ds5 
	BYTE	W12
	BYTE		        Ds4 
	BYTE	W12
	BYTE		        Fs4 
	BYTE	W12
	BYTE		        Bn4 
	BYTE	W12
	BYTE		        Ds5 
	BYTE	W12
	BYTE	PEND
// 004   ----------------------------------------
Recruitment_Reprise_4_004:
	BYTE		N10     Cs4   v084
	BYTE	W12
	BYTE		        Fn4 
	BYTE	W12
	BYTE		        Gs4 
	BYTE	W12
	BYTE		        Cs5 
	BYTE	W12
	BYTE		        Cs4 
	BYTE	W12
	BYTE		        Fn4 
	BYTE	W12
	BYTE		        Gs4 
	BYTE	W12
	BYTE		        Cs5 
	BYTE	W12
	BYTE	PEND
// 005   ----------------------------------------
	BYTE		        Fs4 
	BYTE	W12
	BYTE		        An4 
	BYTE	W12
	BYTE		        Cs5 
	BYTE	W12
	BYTE		        Fs5 
	BYTE	W12
	BYTE		        Fs4 
	BYTE	W12
	BYTE		        An4 
	BYTE	W12
	BYTE		        Cs5 
	BYTE	W12
	BYTE		        Fs5 
	BYTE	W12
// 006   ----------------------------------------
	BYTE	PATT
	 POIN2	Recruitment_Reprise_4_002
// 007   ----------------------------------------
	BYTE	PATT
	 POIN2	Recruitment_Reprise_4_003
// 008   ----------------------------------------
	BYTE		N10     Dn4   v084
	BYTE	W12
	BYTE		        Fs4 
	BYTE	W12
	BYTE		        Bn4 
	BYTE	W12
	BYTE		        Dn5 
	BYTE	W12
	BYTE		        Dn4 
	BYTE	W12
	BYTE		        Fs4 
	BYTE	W12
	BYTE		        Bn4 
	BYTE	W12
	BYTE		        Dn5 
	BYTE	W12
// 009   ----------------------------------------
	BYTE	PATT
	 POIN2	Recruitment_Reprise_4_004
// 010   ----------------------------------------
	BYTE		N10     Bn3   v084
	BYTE	W12
	BYTE		        Fn4 
	BYTE	W12
	BYTE		        Gs4 
	BYTE	W12
	BYTE		        Cs5 
	BYTE	W12
	BYTE		        Bn3 
	BYTE	W12
	BYTE		        Fn4 
	BYTE	W12
	BYTE		        Gs4 
	BYTE	W12
	BYTE		        Cs5 
	BYTE	W12
// 011   ----------------------------------------
Recruitment_Reprise_4_011:
	BYTE		N10     Bn3   v084
	BYTE	W12
	BYTE		        Dn4 
	BYTE	W12
	BYTE		        Fs4 
	BYTE	W12
	BYTE		        Bn4 
	BYTE	W12
	BYTE		        Bn3 
	BYTE	W12
	BYTE		        Dn4 
	BYTE	W12
	BYTE		        Fs4 
	BYTE	W12
	BYTE		        Bn4 
	BYTE	W12
	BYTE	PEND
// 012   ----------------------------------------
Recruitment_Reprise_4_012:
	BYTE		N10     Bn3   v084
	BYTE	W12
	BYTE		        En4 
	BYTE	W12
	BYTE		        Gs4 
	BYTE	W12
	BYTE		        Bn4 
	BYTE	W12
	BYTE		        Bn3 
	BYTE	W12
	BYTE		        En4 
	BYTE	W12
	BYTE		        Gs4 
	BYTE	W12
	BYTE		        Bn4 
	BYTE	W12
	BYTE	PEND
// 013   ----------------------------------------
Recruitment_Reprise_4_013:
	BYTE		N10     Cs4   v084
	BYTE	W12
	BYTE		        Fs4 
	BYTE	W12
	BYTE		        An4 
	BYTE	W12
	BYTE		        Cs5 
	BYTE	W12
	BYTE		        Cs4 
	BYTE	W12
	BYTE		        Fs4 
	BYTE	W12
	BYTE		        An4 
	BYTE	W12
	BYTE		        Cs5 
	BYTE	W12
	BYTE	PEND
// 014   ----------------------------------------
	BYTE	PATT
	 POIN2	Recruitment_Reprise_4_013
// 015   ----------------------------------------
	BYTE	PATT
	 POIN2	Recruitment_Reprise_4_011
// 016   ----------------------------------------
	BYTE	PATT
	 POIN2	Recruitment_Reprise_4_012
// 017   ----------------------------------------
	BYTE	PATT
	 POIN2	Recruitment_Reprise_4_013
// 018   ----------------------------------------
	BYTE		N10     Fs4   v084
	BYTE	W12
	BYTE		        An4 
	BYTE	W12
	BYTE		        Cs5 
	BYTE	W12
	BYTE		        Fs5 
	BYTE	W12
	BYTE		        En5 
	BYTE	W12
	BYTE		        Cs5 
	BYTE	W12
	BYTE		        An4 
	BYTE	W12
	BYTE		        Cs4 
	BYTE	W12
// 019   ----------------------------------------
	BYTE		        An3 
	BYTE	W12
	BYTE		        Dn4 
	BYTE	W12
	BYTE		        Fs4 
	BYTE	W12
	BYTE		        An4 
	BYTE	W12
	BYTE		        An3 
	BYTE	W12
	BYTE		        Dn4 
	BYTE	W12
	BYTE		        Fs4 
	BYTE	W12
	BYTE		        An4 
	BYTE	W12
// 020   ----------------------------------------
	BYTE		        Gs3 
	BYTE	W12
	BYTE		        Bn3 
	BYTE	W12
	BYTE		        En4 
	BYTE	W12
	BYTE		        Gs4 
	BYTE	W12
	BYTE		        Gs3 
	BYTE	W12
	BYTE		        Bn3 
	BYTE	W12
	BYTE		        En4 
	BYTE	W12
	BYTE		        Gs4 
	BYTE	W12
// 021   ----------------------------------------
	BYTE		        Fs3 
	BYTE	W12
	BYTE		        An3 
	BYTE	W12
	BYTE		        Cs4 
	BYTE	W12
	BYTE		        Fs4 
	BYTE	W12
	BYTE		        Fs3 
	BYTE	W12
	BYTE		        An3 
	BYTE	W12
	BYTE		        Cs4 
	BYTE	W12
	BYTE		        Fs4 
	BYTE	W12
// 022   ----------------------------------------
	BYTE		        Fs3 
	BYTE	W12
	BYTE		        An3 
	BYTE	W12
	BYTE		        Cs4 
	BYTE	W12
	BYTE		        Fs4 
	BYTE	W12
	BYTE		        An4 
	BYTE	W12
	BYTE		        Cs5 
	BYTE	W12
	BYTE		        Fs5 
	BYTE	W12
	BYTE		        An5 
	BYTE	W12
	BYTE	GoTo
	 POIN2	Recruitment_Reprise_4_B1
Recruitment_Reprise_4_B2:
// 023   ----------------------------------------
	BYTE	FINE

//**************** Track 5 (Midi-Chn.6) ****************//

Recruitment_Reprise_5:
	BYTE	KEYSH   Recruitment_Reprise_key+0
// 000   ----------------------------------------
	BYTE		VOICE   107
	BYTE		VOL     64*Recruitment_Reprise_mvl/mxv
	BYTE		PAN     c_v+33
	BYTE		N12     Gs1   v104
	BYTE	W06
	BYTE		        An1 
	BYTE	W06
	BYTE		        Bn1 
	BYTE	W06
	BYTE		        Cs2 
	BYTE	W06
	BYTE		        Ds2 
	BYTE	W06
	BYTE		        En2 
	BYTE	W06
	BYTE		        Fs2 
	BYTE	W06
	BYTE		        Gs2 
	BYTE	W06
	BYTE		        An2 
	BYTE	W06
	BYTE		        Bn2 
	BYTE	W06
	BYTE		        Cs3 
	BYTE	W06
	BYTE		        Ds3 
	BYTE	W06
	BYTE		        En3 
	BYTE	W06
	BYTE		        Fs3 
	BYTE	W06
	BYTE		        Gn3 
	BYTE	W12
Recruitment_Reprise_5_B1:
// 001   ----------------------------------------
	BYTE		N42     Gs3   v092
	BYTE	W48
	BYTE		N64     An3 
	BYTE	W48
// 002   ----------------------------------------
	BYTE	W24
	BYTE		N21     Gs3 
	BYTE	W24
	BYTE		        An3 
	BYTE	W24
	BYTE		        Bn3 
	BYTE	W24
// 003   ----------------------------------------
	BYTE		N42     Cs4 
	BYTE	W48
	BYTE		N21     Bn3 
	BYTE	W24
	BYTE		        An3 
	BYTE	W24
// 004   ----------------------------------------
	BYTE		N42     Gs3 
	BYTE	W48
	BYTE		N21     Cs3 
	BYTE	W24
	BYTE		        Fn3 
	BYTE	W24
// 005   ----------------------------------------
Recruitment_Reprise_5_005:
	BYTE		N21     Gs3   v092
	BYTE	W24
	BYTE		        An3 
	BYTE	W24
	BYTE		N64     Cs3 
	BYTE	W48
	BYTE	PEND
// 006   ----------------------------------------
	BYTE	W24
	BYTE		N21     Gs3 
	BYTE	W24
	BYTE		        An3 
	BYTE	W24
	BYTE		        Cs3 
	BYTE	W24
// 007   ----------------------------------------
	BYTE	PATT
	 POIN2	Recruitment_Reprise_5_005
// 008   ----------------------------------------
	BYTE	W24
	BYTE		N21     Bn2   v092
	BYTE	W24
	BYTE		        En3 
	BYTE	W24
	BYTE		        Dn3 
	BYTE	W24
// 009   ----------------------------------------
	BYTE		TIE     Cs3 
	BYTE	W56
	BYTE	W01
	BYTE	W01
	BYTE	W28
	BYTE	W01
	BYTE	W06
	BYTE	W03
// 010   ----------------------------------------
	BYTE	W04
	BYTE	W02
	BYTE	W03
	BYTE	W01
	BYTE	W02
	BYTE	W01
	BYTE	W02
	BYTE	W01
	BYTE	W02
	BYTE	W01
	BYTE	W02
	BYTE	W01
	BYTE	W02
	BYTE	W01
	BYTE	W02
	BYTE	W01
	BYTE	W02
	BYTE	W01
	BYTE	W02
	BYTE	W01
	BYTE	W02
	BYTE	W01
	BYTE	W02
	BYTE	W01
	BYTE	W02
	BYTE	W01
	BYTE	W02
	BYTE	W01
	BYTE	W02
	BYTE	W01
	BYTE	W02
	BYTE	W01
	BYTE	W02
	BYTE	W01
	BYTE	W02
	BYTE		EOT   
	BYTE	W01
	BYTE	W02
	BYTE	W06
	BYTE	W04
	BYTE	W02
	BYTE		N21     Cs4 
	BYTE	W24
// 011   ----------------------------------------
Recruitment_Reprise_5_011:
	BYTE		N42     Cs4   v092
	BYTE	W48
	BYTE		N64     Dn4 
	BYTE	W48
	BYTE	PEND
// 012   ----------------------------------------
Recruitment_Reprise_5_012:
	BYTE	W24
	BYTE		N21     Bn3   v092
	BYTE	W24
	BYTE		        En4 
	BYTE	W24
	BYTE		        Gs4 
	BYTE	W24
	BYTE	PEND
// 013   ----------------------------------------
	BYTE		N21   
	BYTE	W24
	BYTE		        An4 
	BYTE	W24
	BYTE		TIE     Cs4 
	BYTE	W13
	BYTE	W32
	BYTE	W03
// 014   ----------------------------------------
	BYTE	W06
	BYTE	W07
	BYTE	W06
	BYTE	W05
	BYTE	W03
	BYTE	W03
	BYTE	W03
	BYTE	W01
	BYTE	W03
	BYTE	W02
	BYTE	W03
	BYTE	W01
	BYTE	W02
	BYTE	W01
	BYTE	W02
	BYTE	W01
	BYTE	W02
	BYTE	W01
	BYTE	W02
	BYTE	W01
	BYTE	W02
	BYTE	W01
	BYTE	W02
	BYTE	W01
	BYTE	W02
	BYTE	W01
	BYTE		EOT   
	BYTE	W02
	BYTE	W04
	BYTE	W02
	BYTE		N21   
	BYTE	W24
// 015   ----------------------------------------
	BYTE	PATT
	 POIN2	Recruitment_Reprise_5_011
// 016   ----------------------------------------
	BYTE	PATT
	 POIN2	Recruitment_Reprise_5_012
// 017   ----------------------------------------
	BYTE		N21     Gs4   v092
	BYTE	W24
	BYTE		        An4 
	BYTE	W24
	BYTE		N64     Cs5 
	BYTE	W15
	BYTE	W24
	BYTE	W03
	BYTE	W05
	BYTE	W01
// 018   ----------------------------------------
	BYTE	W03
	BYTE	W03
	BYTE	W02
	BYTE	W01
	BYTE	W03
	BYTE	W02
	BYTE	W01
	BYTE	W02
	BYTE	W06
	BYTE	W01
	BYTE		N21     Bn4 
	BYTE	W24
	BYTE		        An4 
	BYTE	W24
	BYTE		        Gs4 
	BYTE	W24
// 019   ----------------------------------------
	BYTE		N42   
	BYTE	W48
	BYTE		N84     Fs4 
	BYTE	W48
// 020   ----------------------------------------
	BYTE	W48
	BYTE		N42     En4 
	BYTE	W48
// 021   ----------------------------------------
	BYTE		TIE     Fs4 
	BYTE	W90
	BYTE	W01
	BYTE	W01
	BYTE	W04
// 022   ----------------------------------------
	BYTE	W17
	BYTE	W05
	BYTE	W04
	BYTE	W03
	BYTE	W02
	BYTE	W03
	BYTE	W01
	BYTE	W02
	BYTE	W01
	BYTE	W02
	BYTE	W01
	BYTE	W02
	BYTE	W01
	BYTE	W02
	BYTE	W01
	BYTE	W02
	BYTE	W01
	BYTE	W02
	BYTE	W01
	BYTE	W02
	BYTE	W01
	BYTE	W02
	BYTE	W01
	BYTE	W02
	BYTE	W01
	BYTE	W02
	BYTE	W01
	BYTE	W02
	BYTE	W01
	BYTE	W02
	BYTE	W01
	BYTE	W02
	BYTE	W01
	BYTE	W02
	BYTE	W01
	BYTE	W02
	BYTE	W01
	BYTE	W02
	BYTE	W01
	BYTE	W02
	BYTE	W01
	BYTE		EOT   
	BYTE	W02
	BYTE	W01
	BYTE	W02
	BYTE	W03
	BYTE	W02
	BYTE	GoTo
	 POIN2	Recruitment_Reprise_5_B1
Recruitment_Reprise_5_B2:
// 023   ----------------------------------------
	BYTE	FINE

//**************** Track 6 (Midi-Chn.8) ****************//

Recruitment_Reprise_6:
	BYTE	KEYSH   Recruitment_Reprise_key+0
// 000   ----------------------------------------
	BYTE		VOICE   60
	BYTE		VOL     54*Recruitment_Reprise_mvl/mxv
	BYTE		PAN     c_v+46
	BYTE	W96
Recruitment_Reprise_6_B1:
// 001   ----------------------------------------
	BYTE		N42     Gs2   v092
	BYTE	W48
	BYTE		N64     An2 
	BYTE	W48
// 002   ----------------------------------------
	BYTE	W24
	BYTE		N21     Gs2 
	BYTE	W24
	BYTE		        An2 
	BYTE	W24
	BYTE		        Bn2 
	BYTE	W24
// 003   ----------------------------------------
	BYTE		N42     Cs3 
	BYTE	W48
	BYTE		N21     Bn2 
	BYTE	W24
	BYTE		        An2 
	BYTE	W24
// 004   ----------------------------------------
	BYTE		N42     Gs2 
	BYTE	W48
	BYTE		N21     Cs2 
	BYTE	W24
	BYTE		N18     Fn2 
	BYTE	W24
// 005   ----------------------------------------
	BYTE		        Gs2 
	BYTE	W24
	BYTE		        An2 
	BYTE	W24
	BYTE		N64     Cs2 
	BYTE	W48
// 006   ----------------------------------------
	BYTE	W24
	BYTE		N21     Gs2 
	BYTE	W24
	BYTE		        An2 
	BYTE	W24
	BYTE		        Cs2 
	BYTE	W24
// 007   ----------------------------------------
	BYTE		        Gs2 
	BYTE	W24
	BYTE		        An2 
	BYTE	W24
	BYTE		N64     Cs2 
	BYTE	W48
// 008   ----------------------------------------
	BYTE	W24
	BYTE		N21     Bn1 
	BYTE	W24
	BYTE		        En2 
	BYTE	W24
	BYTE		        Dn2 
	BYTE	W24
// 009   ----------------------------------------
	BYTE		TIE     Cs2 
	BYTE	W56
	BYTE	W01
	BYTE	W01
	BYTE	W28
	BYTE	W01
	BYTE	W06
	BYTE	W03
// 010   ----------------------------------------
	BYTE	W04
	BYTE	W02
	BYTE	W03
	BYTE	W01
	BYTE	W02
	BYTE	W01
	BYTE	W02
	BYTE	W01
	BYTE	W02
	BYTE	W01
	BYTE	W02
	BYTE	W01
	BYTE	W02
	BYTE	W01
	BYTE	W02
	BYTE	W01
	BYTE	W02
	BYTE	W01
	BYTE	W02
	BYTE	W01
	BYTE	W02
	BYTE	W01
	BYTE	W02
	BYTE	W01
	BYTE	W02
	BYTE	W01
	BYTE	W02
	BYTE	W01
	BYTE	W02
	BYTE	W01
	BYTE	W02
	BYTE	W01
	BYTE	W02
	BYTE	W01
	BYTE	W02
	BYTE		EOT   
	BYTE	W01
	BYTE	W02
	BYTE	W01
	BYTE	W02
	BYTE	W07
	BYTE	W02
	BYTE		N21   
	BYTE	W24
// 011   ----------------------------------------
Recruitment_Reprise_6_011:
	BYTE		N42     Cs2   v092
	BYTE	W48
	BYTE		N64     Dn2 
	BYTE	W48
	BYTE	PEND
// 012   ----------------------------------------
Recruitment_Reprise_6_012:
	BYTE	W24
	BYTE		N21     Bn1   v092
	BYTE	W24
	BYTE		        En2 
	BYTE	W24
	BYTE		        Gs2 
	BYTE	W24
	BYTE	PEND
// 013   ----------------------------------------
	BYTE		N21   
	BYTE	W24
	BYTE		        An2 
	BYTE	W24
	BYTE		TIE     Cs2 
	BYTE	W13
	BYTE	W32
	BYTE	W03
// 014   ----------------------------------------
	BYTE	W06
	BYTE	W07
	BYTE	W06
	BYTE	W05
	BYTE	W03
	BYTE	W03
	BYTE	W03
	BYTE	W01
	BYTE	W03
	BYTE	W02
	BYTE	W03
	BYTE	W01
	BYTE	W02
	BYTE	W01
	BYTE	W02
	BYTE	W01
	BYTE	W02
	BYTE	W01
	BYTE	W02
	BYTE	W01
	BYTE	W02
	BYTE	W01
	BYTE	W02
	BYTE	W01
	BYTE	W02
	BYTE	W01
	BYTE		EOT   
	BYTE	W02
	BYTE	W04
	BYTE	W02
	BYTE		N21   
	BYTE	W24
// 015   ----------------------------------------
	BYTE	PATT
	 POIN2	Recruitment_Reprise_6_011
// 016   ----------------------------------------
	BYTE	PATT
	 POIN2	Recruitment_Reprise_6_012
// 017   ----------------------------------------
	BYTE		N21     Gs2   v092
	BYTE	W24
	BYTE		        An2 
	BYTE	W24
	BYTE		N64     Cs3 
	BYTE	W15
	BYTE	W24
	BYTE	W03
	BYTE	W05
	BYTE	W01
// 018   ----------------------------------------
	BYTE	W03
	BYTE	W03
	BYTE	W02
	BYTE	W01
	BYTE	W03
	BYTE	W02
	BYTE	W01
	BYTE	W02
	BYTE	W06
	BYTE	W01
	BYTE		N21     Bn2 
	BYTE	W24
	BYTE		        An2 
	BYTE	W24
	BYTE		        Gs2 
	BYTE	W24
// 019   ----------------------------------------
	BYTE		N42   
	BYTE	W48
	BYTE		N84     Fs2 
	BYTE	W48
// 020   ----------------------------------------
	BYTE	W48
	BYTE		N42     En2 
	BYTE	W48
// 021   ----------------------------------------
	BYTE		TIE     Fs2 
	BYTE	W90
	BYTE	W01
	BYTE	W01
	BYTE	W04
// 022   ----------------------------------------
	BYTE	W17
	BYTE	W05
	BYTE	W04
	BYTE	W03
	BYTE	W02
	BYTE	W03
	BYTE	W01
	BYTE	W02
	BYTE	W01
	BYTE	W02
	BYTE	W01
	BYTE	W02
	BYTE	W01
	BYTE	W02
	BYTE	W01
	BYTE	W02
	BYTE	W01
	BYTE	W02
	BYTE	W01
	BYTE	W02
	BYTE	W01
	BYTE	W02
	BYTE	W01
	BYTE	W02
	BYTE	W01
	BYTE	W02
	BYTE	W01
	BYTE	W02
	BYTE	W01
	BYTE	W02
	BYTE	W01
	BYTE	W02
	BYTE	W01
	BYTE	W02
	BYTE	W01
	BYTE	W02
	BYTE	W01
	BYTE	W02
	BYTE	W01
	BYTE	W02
	BYTE	W01
	BYTE		EOT   
	BYTE	W02
	BYTE	W01
	BYTE	W02
	BYTE	W03
	BYTE	W02
	BYTE	GoTo
	 POIN2	Recruitment_Reprise_6_B1
Recruitment_Reprise_6_B2:
// 023   ----------------------------------------
	BYTE	FINE

//******************************************************//
	ALIGN 4

Recruitment_Reprise:
	BYTE	6	// NumTrks
	BYTE	0	// NumBlks
	BYTE	Recruitment_Reprise_pri	// Priority
	BYTE	Recruitment_Reprise_rev	// Reverb.

	POIN2	Recruitment_Reprise_grp

	POIN2	Recruitment_Reprise_1
	POIN2	Recruitment_Reprise_2
	POIN2	Recruitment_Reprise_3
	POIN2	Recruitment_Reprise_4
	POIN2	Recruitment_Reprise_5
	POIN2	Recruitment_Reprise_6

	
