//Event file generated from Sappy .s format.
	#include "MPlayDef.event"

	#define	song43_grp  voicegroup000
	#define	song43_pri  0
	#define	song43_rev  0
	#define	song43_mvl  85
	#define	song43_key  0
	#define	song43_tbs  1
	#define	song43_exg  0
	#define	song43_cmp  1

	// .rodata
	//	song43
	ALIGN 4

//**************** Track 1 (Midi-Chn.1) ****************//

song43_1:
	BYTE	KEYSH   song43_key+0
// 000   ----------------------------------------
	BYTE	TEMPO   128*song43_tbs/2
	BYTE	W96
// 001   ----------------------------------------
	BYTE	W96
// 002   ----------------------------------------
	BYTE	W96
// 003   ----------------------------------------
	BYTE	W96
// 004   ----------------------------------------
	BYTE	W96
// 005   ----------------------------------------
	BYTE	W96
// 006   ----------------------------------------
	BYTE	W96
// 007   ----------------------------------------
	BYTE	W96
// 008   ----------------------------------------
	BYTE		VOICE   68
	BYTE	W03
	BYTE		VOL     74*song43_mvl/mxv
	BYTE	W03
	BYTE		PAN     c_v-30
	BYTE	W18
	BYTE		N23     Fn4   v076
	BYTE	W24
	BYTE		N07     Fn4   v032
	BYTE	W24
	BYTE		N23     En4   v076
	BYTE	W24
// 009   ----------------------------------------
song43_1_009:
	BYTE		N07     En4   v032
	BYTE	W24
	BYTE		N23     Dn4   v076
	BYTE	W24
	BYTE		N07     Dn4   v032
	BYTE	W24
	BYTE		N23     Cn4   v076
	BYTE	W24
	BYTE	PEND
// 010   ----------------------------------------
song43_1_010:
	BYTE		N07     Cn4   v032
	BYTE	W24
	BYTE		N23     Fn4   v076
	BYTE	W24
	BYTE		N07     Fn4   v032
	BYTE	W24
	BYTE		N23     En4   v076
	BYTE	W24
	BYTE	PEND
// 011   ----------------------------------------
	BYTE	PATT
	 POIN2	song43_1_009
// 012   ----------------------------------------
	BYTE	PATT
	 POIN2	song43_1_010
// 013   ----------------------------------------
	BYTE	PATT
	 POIN2	song43_1_009
// 014   ----------------------------------------
	BYTE	PATT
	 POIN2	song43_1_010
// 015   ----------------------------------------
	BYTE		N07     En4   v032
	BYTE	W24
	BYTE		N23     Dn4   v076
	BYTE	W24
	BYTE		N07     Dn4   v032
	BYTE	W24
	BYTE		N23     Cs4   v076
	BYTE	W24
// 016   ----------------------------------------
	BYTE	FINE

//**************** Track 2 (Midi-Chn.1) ****************//

song43_2:
	BYTE	KEYSH   song43_key+0
// 000   ----------------------------------------
	BYTE		VOICE   61
	BYTE	W03
	BYTE		VOL     81*song43_mvl/mxv
	BYTE	W03
	BYTE		PAN     c_v+20
	BYTE	W18
	BYTE		N23     An3   v100
	BYTE	W24
	BYTE		N07     An3   v032
	BYTE	W24
	BYTE		N23     Gn3   v100
	BYTE	W24
// 001   ----------------------------------------
song43_2_001:
	BYTE		N07     Gn3   v032
	BYTE	W24
	BYTE		N23     Fn3   v100
	BYTE	W24
	BYTE		N07     Fn3   v032
	BYTE	W24
	BYTE		N23     En3   v100
	BYTE	W24
	BYTE	PEND
// 002   ----------------------------------------
song43_2_002:
	BYTE		N07     En3   v032
	BYTE	W24
	BYTE		N23     An3   v100
	BYTE	W24
	BYTE		N07     An3   v032
	BYTE	W24
	BYTE		N23     Gn3   v100
	BYTE	W24
	BYTE	PEND
// 003   ----------------------------------------
	BYTE	PATT
	 POIN2	song43_2_001
// 004   ----------------------------------------
	BYTE	PATT
	 POIN2	song43_2_002
// 005   ----------------------------------------
	BYTE	PATT
	 POIN2	song43_2_001
// 006   ----------------------------------------
	BYTE	PATT
	 POIN2	song43_2_002
// 007   ----------------------------------------
	BYTE	PATT
	 POIN2	song43_2_001
// 008   ----------------------------------------
	BYTE	PATT
	 POIN2	song43_2_002
// 009   ----------------------------------------
	BYTE	PATT
	 POIN2	song43_2_001
// 010   ----------------------------------------
	BYTE	PATT
	 POIN2	song43_2_002
// 011   ----------------------------------------
	BYTE	PATT
	 POIN2	song43_2_001
// 012   ----------------------------------------
	BYTE	PATT
	 POIN2	song43_2_002
// 013   ----------------------------------------
	BYTE	PATT
	 POIN2	song43_2_001
// 014   ----------------------------------------
	BYTE	PATT
	 POIN2	song43_2_002
// 015   ----------------------------------------
	BYTE	PATT
	 POIN2	song43_2_001
// 016   ----------------------------------------
	BYTE	FINE

//**************** Track 3 (Midi-Chn.1) ****************//

song43_3:
	BYTE	KEYSH   song43_key+0
// 000   ----------------------------------------
	BYTE		VOICE   33
	BYTE		VOL     77*song43_mvl/mxv
	BYTE		PAN     c_v+0
	BYTE		N07     Dn2   v096
	BYTE	W16
	BYTE		N08     Dn2   v084
	BYTE	W08
	BYTE		N16     Dn2   v096
	BYTE	W16
	BYTE		N08     Dn2   v084
	BYTE	W08
	BYTE		N16     Dn2   v096
	BYTE	W16
	BYTE		N08     Dn2   v084
	BYTE	W08
	BYTE		N16     Dn2   v096
	BYTE	W16
	BYTE		N08     Dn2   v084
	BYTE	W08
// 001   ----------------------------------------
song43_3_001:
	BYTE		N07     Dn2   v096
	BYTE	W16
	BYTE		N08     Dn2   v084
	BYTE	W08
	BYTE		N16     Dn2   v096
	BYTE	W16
	BYTE		N08     Dn2   v084
	BYTE	W08
	BYTE		N16     Dn2   v096
	BYTE	W16
	BYTE		N08     Dn2   v084
	BYTE	W08
	BYTE		N16     Dn2   v096
	BYTE	W16
	BYTE		N08     Dn2   v084
	BYTE	W08
	BYTE	PEND
// 002   ----------------------------------------
song43_3_002:
	BYTE		N07     Cn2   v096
	BYTE	W16
	BYTE		N08     Cn2   v084
	BYTE	W08
	BYTE		N16     Cn2   v096
	BYTE	W16
	BYTE		N08     Cn2   v084
	BYTE	W08
	BYTE		N16     Cn2   v096
	BYTE	W16
	BYTE		N08     Cn2   v084
	BYTE	W08
	BYTE		N16     Cn2   v096
	BYTE	W16
	BYTE		N08     Cn2   v084
	BYTE	W08
	BYTE	PEND
// 003   ----------------------------------------
	BYTE	PATT
	 POIN2	song43_3_002
// 004   ----------------------------------------
song43_3_004:
	BYTE		N07     Bn1   v096
	BYTE	W16
	BYTE		N08     Bn1   v084
	BYTE	W08
	BYTE		N16     Bn1   v096
	BYTE	W16
	BYTE		N08     Bn1   v084
	BYTE	W08
	BYTE		N16     Bn1   v096
	BYTE	W16
	BYTE		N08     Bn1   v084
	BYTE	W08
	BYTE		N16     Bn1   v096
	BYTE	W16
	BYTE		N08     Bn1   v084
	BYTE	W08
	BYTE	PEND
// 005   ----------------------------------------
song43_3_005:
	BYTE		N07     Bn1   v096
	BYTE	W16
	BYTE		N07   
	BYTE	W08
	BYTE		N07   
	BYTE	W16
	BYTE		N07   
	BYTE	W08
	BYTE		N07   
	BYTE	W16
	BYTE		N07   
	BYTE	W08
	BYTE		N07   
	BYTE	W16
	BYTE		N07   
	BYTE	W08
	BYTE	PEND
// 006   ----------------------------------------
song43_3_006:
	BYTE		N07     As2   v096
	BYTE	W16
	BYTE		N08     As2   v084
	BYTE	W08
	BYTE		N16     As2   v096
	BYTE	W16
	BYTE		N08     As2   v084
	BYTE	W08
	BYTE		N16     As2   v096
	BYTE	W16
	BYTE		N08     As2   v084
	BYTE	W08
	BYTE		N16     As2   v096
	BYTE	W16
	BYTE		N08     As2   v084
	BYTE	W08
	BYTE	PEND
// 007   ----------------------------------------
song43_3_007:
	BYTE		N07     An2   v096
	BYTE	W16
	BYTE		N08     An2   v084
	BYTE	W08
	BYTE		N16     An2   v096
	BYTE	W16
	BYTE		N08     An2   v084
	BYTE	W08
	BYTE		N16     An2   v096
	BYTE	W16
	BYTE		N08     An2   v084
	BYTE	W08
	BYTE		N16     An2   v096
	BYTE	W16
	BYTE		N08     An2   v084
	BYTE	W08
	BYTE	PEND
// 008   ----------------------------------------
	BYTE	PATT
	 POIN2	song43_3_001
// 009   ----------------------------------------
	BYTE	PATT
	 POIN2	song43_3_001
// 010   ----------------------------------------
	BYTE	PATT
	 POIN2	song43_3_002
// 011   ----------------------------------------
	BYTE	PATT
	 POIN2	song43_3_002
// 012   ----------------------------------------
	BYTE	PATT
	 POIN2	song43_3_004
// 013   ----------------------------------------
	BYTE	PATT
	 POIN2	song43_3_005
// 014   ----------------------------------------
	BYTE	PATT
	 POIN2	song43_3_006
// 015   ----------------------------------------
	BYTE	PATT
	 POIN2	song43_3_007
// 016   ----------------------------------------
	BYTE	FINE

//**************** Track 4 (Midi-Chn.1) ****************//

song43_4:
	BYTE	KEYSH   song43_key+0
// 000   ----------------------------------------
	BYTE		VOICE   48
	BYTE		VOL     65*song43_mvl/mxv
	BYTE		PAN     c_v+20
	BYTE		N07     Dn3   v080
	BYTE	W08
	BYTE		N08     An2   v084
	BYTE	W08
	BYTE		        Dn3   v076
	BYTE	W08
	BYTE		N07   
	BYTE	W16
	BYTE		N08     Dn3   v084
	BYTE	W08
	BYTE		N07   
	BYTE	W08
	BYTE		N08     An2   v076
	BYTE	W08
	BYTE		        Dn3   v080
	BYTE	W08
	BYTE		N16     Dn3   v076
	BYTE	W16
	BYTE		N08     Dn3   v084
	BYTE	W08
// 001   ----------------------------------------
song43_4_001:
	BYTE		N07     Dn3   v080
	BYTE	W08
	BYTE		N08     An2   v076
	BYTE	W08
	BYTE		        Dn3   v080
	BYTE	W08
	BYTE		N07   
	BYTE	W16
	BYTE		N08     Dn3   v088
	BYTE	W08
	BYTE		        Dn3   v080
	BYTE	W08
	BYTE		        An2   v084
	BYTE	W08
	BYTE		        Dn3   v088
	BYTE	W08
	BYTE		N07   
	BYTE	W16
	BYTE		N08     Dn3   v080
	BYTE	W08
	BYTE	PEND
// 002   ----------------------------------------
song43_4_002:
	BYTE		N07     Cn3   v084
	BYTE	W08
	BYTE		N08     An2   v080
	BYTE	W08
	BYTE		        Cn3   v088
	BYTE	W08
	BYTE		N16     Cn3   v076
	BYTE	W16
	BYTE		N08     Cn3   v080
	BYTE	W08
	BYTE		        Cn3   v084
	BYTE	W08
	BYTE		        An2   v080
	BYTE	W08
	BYTE		        Cn3   v076
	BYTE	W08
	BYTE		N16     Cn3   v080
	BYTE	W16
	BYTE		N08     Cn3   v076
	BYTE	W08
	BYTE	PEND
// 003   ----------------------------------------
song43_4_003:
	BYTE		N07     Cn3   v076
	BYTE	W08
	BYTE		N08     An2 
	BYTE	W08
	BYTE		        Cn3 
	BYTE	W08
	BYTE		N16     Cn3   v088
	BYTE	W16
	BYTE		N08     Cn3   v076
	BYTE	W08
	BYTE		        Cn3   v080
	BYTE	W08
	BYTE		        An2 
	BYTE	W08
	BYTE		        Cn3   v088
	BYTE	W08
	BYTE		N16     Cn3   v080
	BYTE	W16
	BYTE		N07   
	BYTE	W08
	BYTE	PEND
// 004   ----------------------------------------
song43_4_004:
	BYTE		N07     Bn2   v084
	BYTE	W08
	BYTE		N08     An2 
	BYTE	W08
	BYTE		        Bn2 
	BYTE	W08
	BYTE		N16     Bn2   v076
	BYTE	W16
	BYTE		N07   
	BYTE	W08
	BYTE		N08     Bn2   v080
	BYTE	W08
	BYTE		        An2 
	BYTE	W08
	BYTE		        Bn2 
	BYTE	W08
	BYTE		N16     Bn2   v084
	BYTE	W16
	BYTE		N07   
	BYTE	W08
	BYTE	PEND
// 005   ----------------------------------------
song43_4_005:
	BYTE		N07     Bn2   v084
	BYTE	W08
	BYTE		N08     An2   v076
	BYTE	W08
	BYTE		        Bn2 
	BYTE	W08
	BYTE		N16     Bn2   v080
	BYTE	W16
	BYTE		N08     Bn2   v084
	BYTE	W08
	BYTE		N07   
	BYTE	W08
	BYTE		N08     An2 
	BYTE	W08
	BYTE		        Bn2   v080
	BYTE	W08
	BYTE		N07   
	BYTE	W16
	BYTE		N08     Bn2   v084
	BYTE	W08
	BYTE	PEND
// 006   ----------------------------------------
song43_4_006:
	BYTE		N07     As2   v088
	BYTE	W08
	BYTE		N08     An2   v080
	BYTE	W08
	BYTE		        As2   v076
	BYTE	W08
	BYTE		N16     As2   v080
	BYTE	W16
	BYTE		N07   
	BYTE	W08
	BYTE		N07   
	BYTE	W08
	BYTE		N08     An2 
	BYTE	W08
	BYTE		        As2   v084
	BYTE	W08
	BYTE		N16     As2   v088
	BYTE	W16
	BYTE		N08     As2   v076
	BYTE	W08
	BYTE	PEND
// 007   ----------------------------------------
song43_4_007:
	BYTE		N07     An2   v080
	BYTE	W08
	BYTE		N08     An2   v084
	BYTE	W08
	BYTE		N07   
	BYTE	W08
	BYTE		N07   
	BYTE	W16
	BYTE		N08     An2   v080
	BYTE	W08
	BYTE		        An2   v088
	BYTE	W08
	BYTE		        An2   v076
	BYTE	W08
	BYTE		        An2   v080
	BYTE	W08
	BYTE		N16     An2   v088
	BYTE	W16
	BYTE		N08     An2   v080
	BYTE	W08
	BYTE	PEND
// 008   ----------------------------------------
	BYTE		        Dn3 
	BYTE	W08
	BYTE		        An2   v084
	BYTE	W08
	BYTE		        Dn3   v076
	BYTE	W08
	BYTE		N07   
	BYTE	W16
	BYTE		N08     Dn3   v084
	BYTE	W08
	BYTE		N07   
	BYTE	W08
	BYTE		N08     An2   v076
	BYTE	W08
	BYTE		        Dn3   v080
	BYTE	W08
	BYTE		N16     Dn3   v076
	BYTE	W16
	BYTE		N08     Dn3   v084
	BYTE	W08
// 009   ----------------------------------------
	BYTE	PATT
	 POIN2	song43_4_001
// 010   ----------------------------------------
	BYTE	PATT
	 POIN2	song43_4_002
// 011   ----------------------------------------
	BYTE	PATT
	 POIN2	song43_4_003
// 012   ----------------------------------------
	BYTE	PATT
	 POIN2	song43_4_004
// 013   ----------------------------------------
	BYTE	PATT
	 POIN2	song43_4_005
// 014   ----------------------------------------
	BYTE	PATT
	 POIN2	song43_4_006
// 015   ----------------------------------------
	BYTE	PATT
	 POIN2	song43_4_007
// 016   ----------------------------------------
	BYTE	FINE

//**************** Track 5 (Midi-Chn.1) ****************//

song43_5:
	BYTE	KEYSH   song43_key+0
// 000   ----------------------------------------
	BYTE		VOICE   80
	BYTE		VOL     48*song43_mvl/mxv
	BYTE		PAN     c_v-64
	BYTE		N07     Dn2   v060
	BYTE	W01
	BYTE		PAN     c_v-63
	BYTE	W01
	BYTE		N01     DnM2
	BYTE	W01
	BYTE		        EnM2
	BYTE	W01
	BYTE		        FnM2
	BYTE	W01
	BYTE		        FsM2
	BYTE	W01
	BYTE		        GsM2
	BYTE	W01
	BYTE		        AnM2
	BYTE	W01
	BYTE		        AsM2
	BYTE		N07     Fn2 
	BYTE	W01
	BYTE		PAN     c_v-52
	BYTE	W01
	BYTE		N01     CsM1
	BYTE	W01
	BYTE		        DnM1
	BYTE	W01
	BYTE		        EnM1
	BYTE	W01
	BYTE		        FnM1
	BYTE	W01
	BYTE		        FsM1
	BYTE	W01
	BYTE		        GsM1
	BYTE	W01
	BYTE		        AnM1
	BYTE		N07     An2 
	BYTE	W01
	BYTE		PAN     c_v-42
	BYTE	W01
	BYTE		N01     Cn0 
	BYTE	W01
	BYTE		        Cs0 
	BYTE	W01
	BYTE		        Dn0 
	BYTE	W01
	BYTE		        En0 
	BYTE	W01
	BYTE		        Fn0 
	BYTE	W01
	BYTE		        Fs0 
	BYTE	W01
	BYTE		        Gs0 
	BYTE		N07     Dn3 
	BYTE	W01
	BYTE		PAN     c_v-31
	BYTE	W01
	BYTE		N01     As0 
	BYTE	W01
	BYTE		        Cn1 
	BYTE	W01
	BYTE		        Cs1 
	BYTE	W01
	BYTE		        Dn1 
	BYTE	W01
	BYTE		        En1 
	BYTE	W01
	BYTE		        Fn1 
	BYTE	W01
	BYTE		        Fs1 
	BYTE		N07     Fn3 
	BYTE	W01
	BYTE		PAN     c_v-20
	BYTE	W01
	BYTE		N01     An1 
	BYTE	W01
	BYTE		        As1 
	BYTE	W01
	BYTE		        Cn2 
	BYTE	W01
	BYTE		        Cs2 
	BYTE	W01
	BYTE		        Dn2 
	BYTE	W01
	BYTE		        En2 
	BYTE	W01
	BYTE		        Fn2 
	BYTE		N07     An3 
	BYTE	W01
	BYTE		PAN     c_v-10
	BYTE	W01
	BYTE		N01     Gs2 
	BYTE	W01
	BYTE		        An2 
	BYTE	W01
	BYTE		        As2 
	BYTE	W01
	BYTE		        Cn3 
	BYTE	W01
	BYTE		        Cs3 
	BYTE	W01
	BYTE		        Dn3 
	BYTE	W01
	BYTE		        En3 
	BYTE		N07     Dn4 
	BYTE	W01
	BYTE		PAN     c_v+1
	BYTE	W01
	BYTE		N01     Fs3 
	BYTE	W01
	BYTE		        Gs3 
	BYTE	W01
	BYTE		        An3 
	BYTE	W01
	BYTE		        As3 
	BYTE	W01
	BYTE		        Cn4 
	BYTE	W01
	BYTE		        Cs4 
	BYTE	W01
	BYTE		N07     An3 
	BYTE		N01     Dn4 
	BYTE	W01
	BYTE		PAN     c_v+12
	BYTE	W01
	BYTE		N01     Fn4 
	BYTE	W01
	BYTE		        Fs4 
	BYTE	W01
	BYTE		        Gs4 
	BYTE	W01
	BYTE		        An4 
	BYTE	W01
	BYTE		        As4 
	BYTE	W01
	BYTE		        Cn5 
	BYTE	W01
	BYTE		N07     Fn3 
	BYTE		N01     Cs5 
	BYTE	W01
	BYTE		PAN     c_v+22
	BYTE	W01
	BYTE		N01     En5 
	BYTE	W01
	BYTE		        Fn5 
	BYTE	W01
	BYTE		        Fs5 
	BYTE	W01
	BYTE		        Gs5 
	BYTE	W01
	BYTE		        An5 
	BYTE	W01
	BYTE		        As5 
	BYTE	W01
	BYTE		N07     Dn3 
	BYTE		N01     Cn6 
	BYTE	W01
	BYTE		PAN     c_v+33
	BYTE	W01
	BYTE		N01     Dn6 
	BYTE	W01
	BYTE		        En6 
	BYTE	W01
	BYTE		        Fn6 
	BYTE	W01
	BYTE		        Fs6 
	BYTE	W01
	BYTE		        Gs6 
	BYTE	W01
	BYTE		        An6 
	BYTE	W01
	BYTE		N07     An2 
	BYTE		N01     As6 
	BYTE	W01
	BYTE		PAN     c_v+44
	BYTE	W01
	BYTE		N01     Cs7 
	BYTE	W01
	BYTE		        Dn7 
	BYTE	W01
	BYTE		        En7 
	BYTE	W01
	BYTE		        Fn7 
	BYTE	W01
	BYTE		        Fs7 
	BYTE	W01
	BYTE		        Gs7 
	BYTE	W01
	BYTE		N07     Fn2 
	BYTE		N01     An7 
	BYTE	W01
	BYTE		PAN     c_v+54
	BYTE	W01
	BYTE		N01     Cn8 
	BYTE	W01
	BYTE		        Cs8 
	BYTE	W01
	BYTE		        Dn8 
	BYTE	W01
	BYTE		        En8 
	BYTE	W01
	BYTE		        Fn8 
	BYTE	W01
	BYTE		        Fs8 
	BYTE	W01
// 001   ----------------------------------------
song43_5_001:
	BYTE		PAN     c_v+63
	BYTE		N07     An1   v060
	BYTE	W01
	BYTE		PAN     c_v+62
	BYTE	W01
	BYTE		N01     Fn8 
	BYTE	W01
	BYTE		        Ds8 
	BYTE	W01
	BYTE		        Dn8 
	BYTE	W01
	BYTE		        Cs8 
	BYTE	W01
	BYTE		        Bn7 
	BYTE	W01
	BYTE		        As7 
	BYTE	W01
	BYTE		N07     Dn2 
	BYTE		N01     An7 
	BYTE	W01
	BYTE		PAN     c_v+51
	BYTE	W01
	BYTE		N01     Fs7 
	BYTE	W01
	BYTE		        Fn7 
	BYTE	W01
	BYTE		        Ds7 
	BYTE	W01
	BYTE		        Dn7 
	BYTE	W01
	BYTE		        Cs7 
	BYTE	W01
	BYTE		        Bn6 
	BYTE	W01
	BYTE		N07     Fn2 
	BYTE		N01     As6 
	BYTE	W01
	BYTE		PAN     c_v+41
	BYTE	W01
	BYTE		N01     Gn6 
	BYTE	W01
	BYTE		        Fs6 
	BYTE	W01
	BYTE		        Fn6 
	BYTE	W01
	BYTE		        Ds6 
	BYTE	W01
	BYTE		        Dn6 
	BYTE	W01
	BYTE		        Cs6 
	BYTE	W01
	BYTE		N07     An2 
	BYTE		N01     Bn5 
	BYTE	W01
	BYTE		PAN     c_v+30
	BYTE	W01
	BYTE		N01     An5 
	BYTE	W01
	BYTE		        Gn5 
	BYTE	W01
	BYTE		        Fs5 
	BYTE	W01
	BYTE		        Fn5 
	BYTE	W01
	BYTE		        Ds5 
	BYTE	W01
	BYTE		        Dn5 
	BYTE	W01
	BYTE		N07     Dn3 
	BYTE		N01     Cs5 
	BYTE	W01
	BYTE		PAN     c_v+19
	BYTE	W01
	BYTE		N01     As4 
	BYTE	W01
	BYTE		        An4 
	BYTE	W01
	BYTE		        Gn4 
	BYTE	W01
	BYTE		        Fs4 
	BYTE	W01
	BYTE		        Fn4 
	BYTE	W01
	BYTE		        Ds4 
	BYTE	W01
	BYTE		N07     Fn3 
	BYTE		N01     Dn4 
	BYTE	W01
	BYTE		PAN     c_v+9
	BYTE	W01
	BYTE		N01     Bn3 
	BYTE	W01
	BYTE		        As3 
	BYTE	W01
	BYTE		        An3 
	BYTE	W01
	BYTE		        Gn3 
	BYTE	W01
	BYTE		        Fs3 
	BYTE	W01
	BYTE		        Fn3 
	BYTE	W01
	BYTE		        Ds3 
	BYTE		N07     An3 
	BYTE	W01
	BYTE		PAN     c_v-2
	BYTE	W01
	BYTE		N01     Cs3 
	BYTE	W01
	BYTE		        Bn2 
	BYTE	W01
	BYTE		        As2 
	BYTE	W01
	BYTE		        An2 
	BYTE	W01
	BYTE		        Gn2 
	BYTE	W01
	BYTE		        Fs2 
	BYTE	W01
	BYTE		        Fn2 
	BYTE		N07     Fn3 
	BYTE	W01
	BYTE		PAN     c_v-13
	BYTE	W01
	BYTE		N01     Dn2 
	BYTE	W01
	BYTE		        Cs2 
	BYTE	W01
	BYTE		        Bn1 
	BYTE	W01
	BYTE		        As1 
	BYTE	W01
	BYTE		        An1 
	BYTE	W01
	BYTE		        Gn1 
	BYTE	W01
	BYTE		        Fs1 
	BYTE		N07     Dn3 
	BYTE	W01
	BYTE		PAN     c_v-23
	BYTE	W01
	BYTE		N01     Ds1 
	BYTE	W01
	BYTE		        Dn1 
	BYTE	W01
	BYTE		        Cs1 
	BYTE	W01
	BYTE		        Bn0 
	BYTE	W01
	BYTE		        As0 
	BYTE	W01
	BYTE		        An0 
	BYTE	W01
	BYTE		        Gn0 
	BYTE		N07     An2 
	BYTE	W01
	BYTE		PAN     c_v-34
	BYTE	W01
	BYTE		N01     Fn0 
	BYTE	W01
	BYTE		        Ds0 
	BYTE	W01
	BYTE		        Dn0 
	BYTE	W01
	BYTE		        Cs0 
	BYTE	W01
	BYTE		        BnM1
	BYTE	W01
	BYTE		        AsM1
	BYTE	W01
	BYTE		        AnM1
	BYTE		N07     Fn2 
	BYTE	W01
	BYTE		PAN     c_v-45
	BYTE	W01
	BYTE		N01     FsM1
	BYTE	W01
	BYTE		        FnM1
	BYTE	W01
	BYTE		        DsM1
	BYTE	W01
	BYTE		        DnM1
	BYTE	W01
	BYTE		        CsM1
	BYTE	W01
	BYTE		        BnM2
	BYTE	W01
	BYTE		        AsM2
	BYTE		N07     Dn2 
	BYTE	W01
	BYTE		PAN     c_v-55
	BYTE	W01
	BYTE		N01     GnM2
	BYTE	W01
	BYTE		        FsM2
	BYTE	W01
	BYTE		        FnM2
	BYTE	W01
	BYTE		        DsM2
	BYTE	W01
	BYTE		        DnM2
	BYTE	W01
	BYTE		        CsM2
	BYTE	W01
	BYTE	PEND
// 002   ----------------------------------------
song43_5_002:
	BYTE		PAN     c_v-64
	BYTE		N07     Cn2   v060
	BYTE	W01
	BYTE		PAN     c_v-63
	BYTE	W01
	BYTE		N01     DnM2
	BYTE	W01
	BYTE		        EnM2
	BYTE	W01
	BYTE		        FnM2
	BYTE	W01
	BYTE		        FsM2
	BYTE	W01
	BYTE		        GsM2
	BYTE	W01
	BYTE		        AnM2
	BYTE	W01
	BYTE		        AsM2
	BYTE		N07     En2 
	BYTE	W01
	BYTE		PAN     c_v-52
	BYTE	W01
	BYTE		N01     CsM1
	BYTE	W01
	BYTE		        DnM1
	BYTE	W01
	BYTE		        EnM1
	BYTE	W01
	BYTE		        FnM1
	BYTE	W01
	BYTE		        FsM1
	BYTE	W01
	BYTE		        GsM1
	BYTE	W01
	BYTE		        AnM1
	BYTE		N07     An2 
	BYTE	W01
	BYTE		PAN     c_v-42
	BYTE	W01
	BYTE		N01     Cn0 
	BYTE	W01
	BYTE		        Cs0 
	BYTE	W01
	BYTE		        Dn0 
	BYTE	W01
	BYTE		        En0 
	BYTE	W01
	BYTE		        Fn0 
	BYTE	W01
	BYTE		        Fs0 
	BYTE	W01
	BYTE		        Gs0 
	BYTE		N07     Cn3 
	BYTE	W01
	BYTE		PAN     c_v-31
	BYTE	W01
	BYTE		N01     As0 
	BYTE	W01
	BYTE		        Cn1 
	BYTE	W01
	BYTE		        Cs1 
	BYTE	W01
	BYTE		        Dn1 
	BYTE	W01
	BYTE		        En1 
	BYTE	W01
	BYTE		        Fn1 
	BYTE	W01
	BYTE		        Fs1 
	BYTE		N07     En3 
	BYTE	W01
	BYTE		PAN     c_v-20
	BYTE	W01
	BYTE		N01     An1 
	BYTE	W01
	BYTE		        As1 
	BYTE	W01
	BYTE		        Cn2 
	BYTE	W01
	BYTE		        Cs2 
	BYTE	W01
	BYTE		        Dn2 
	BYTE	W01
	BYTE		        En2 
	BYTE	W01
	BYTE		        Fn2 
	BYTE		N07     An3 
	BYTE	W01
	BYTE		PAN     c_v-10
	BYTE	W01
	BYTE		N01     Gs2 
	BYTE	W01
	BYTE		        An2 
	BYTE	W01
	BYTE		        As2 
	BYTE	W01
	BYTE		        Cn3 
	BYTE	W01
	BYTE		        Cs3 
	BYTE	W01
	BYTE		        Dn3 
	BYTE	W01
	BYTE		        En3 
	BYTE		N06     Cn4 
	BYTE	W01
	BYTE		PAN     c_v+1
	BYTE	W01
	BYTE		N01     Fs3 
	BYTE	W01
	BYTE		        Gs3 
	BYTE	W01
	BYTE		        An3 
	BYTE	W01
	BYTE		        As3 
	BYTE	W01
	BYTE		        Cn4 
	BYTE	W01
	BYTE		        Cs4 
	BYTE	W01
	BYTE		N07     An3 
	BYTE		N01     Dn4 
	BYTE	W01
	BYTE		PAN     c_v+12
	BYTE	W01
	BYTE		N01     Fn4 
	BYTE	W01
	BYTE		        Fs4 
	BYTE	W01
	BYTE		        Gs4 
	BYTE	W01
	BYTE		        An4 
	BYTE	W01
	BYTE		        As4 
	BYTE	W01
	BYTE		        Cn5 
	BYTE	W01
	BYTE		N07     En3 
	BYTE		N01     Cs5 
	BYTE	W01
	BYTE		PAN     c_v+22
	BYTE	W01
	BYTE		N01     En5 
	BYTE	W01
	BYTE		        Fn5 
	BYTE	W01
	BYTE		        Fs5 
	BYTE	W01
	BYTE		        Gs5 
	BYTE	W01
	BYTE		        An5 
	BYTE	W01
	BYTE		        As5 
	BYTE	W01
	BYTE		N07     Cn3 
	BYTE		N01     Cn6 
	BYTE	W01
	BYTE		PAN     c_v+33
	BYTE	W01
	BYTE		N01     Dn6 
	BYTE	W01
	BYTE		        En6 
	BYTE	W01
	BYTE		        Fn6 
	BYTE	W01
	BYTE		        Fs6 
	BYTE	W01
	BYTE		        Gs6 
	BYTE	W01
	BYTE		        An6 
	BYTE	W01
	BYTE		N07     An2 
	BYTE		N01     As6 
	BYTE	W01
	BYTE		PAN     c_v+44
	BYTE	W01
	BYTE		N01     Cs7 
	BYTE	W01
	BYTE		        Dn7 
	BYTE	W01
	BYTE		        En7 
	BYTE	W01
	BYTE		        Fn7 
	BYTE	W01
	BYTE		        Fs7 
	BYTE	W01
	BYTE		        Gs7 
	BYTE	W01
	BYTE		N07     En2 
	BYTE		N01     An7 
	BYTE	W01
	BYTE		PAN     c_v+54
	BYTE	W01
	BYTE		N01     Cn8 
	BYTE	W01
	BYTE		        Cs8 
	BYTE	W01
	BYTE		        Dn8 
	BYTE	W01
	BYTE		        En8 
	BYTE	W01
	BYTE		        Fn8 
	BYTE	W01
	BYTE		        Fs8 
	BYTE	W01
	BYTE	PEND
// 003   ----------------------------------------
song43_5_003:
	BYTE		PAN     c_v+63
	BYTE		N07     An1   v060
	BYTE	W01
	BYTE		PAN     c_v+62
	BYTE	W01
	BYTE		N01     Fn8 
	BYTE	W01
	BYTE		        Ds8 
	BYTE	W01
	BYTE		        Dn8 
	BYTE	W01
	BYTE		        Cs8 
	BYTE	W01
	BYTE		        Bn7 
	BYTE	W01
	BYTE		        As7 
	BYTE	W01
	BYTE		N07     Cn2 
	BYTE		N01     An7 
	BYTE	W01
	BYTE		PAN     c_v+51
	BYTE	W01
	BYTE		N01     Fs7 
	BYTE	W01
	BYTE		        Fn7 
	BYTE	W01
	BYTE		        Ds7 
	BYTE	W01
	BYTE		        Dn7 
	BYTE	W01
	BYTE		        Cs7 
	BYTE	W01
	BYTE		        Bn6 
	BYTE	W01
	BYTE		N07     En2 
	BYTE		N01     As6 
	BYTE	W01
	BYTE		PAN     c_v+41
	BYTE	W01
	BYTE		N01     Gn6 
	BYTE	W01
	BYTE		        Fs6 
	BYTE	W01
	BYTE		        Fn6 
	BYTE	W01
	BYTE		        Ds6 
	BYTE	W01
	BYTE		        Dn6 
	BYTE	W01
	BYTE		        Cs6 
	BYTE	W01
	BYTE		N07     An2 
	BYTE		N01     Bn5 
	BYTE	W01
	BYTE		PAN     c_v+30
	BYTE	W01
	BYTE		N01     An5 
	BYTE	W01
	BYTE		        Gn5 
	BYTE	W01
	BYTE		        Fs5 
	BYTE	W01
	BYTE		        Fn5 
	BYTE	W01
	BYTE		        Ds5 
	BYTE	W01
	BYTE		        Dn5 
	BYTE	W01
	BYTE		N07     Cn3 
	BYTE		N01     Cs5 
	BYTE	W01
	BYTE		PAN     c_v+19
	BYTE	W01
	BYTE		N01     As4 
	BYTE	W01
	BYTE		        An4 
	BYTE	W01
	BYTE		        Gn4 
	BYTE	W01
	BYTE		        Fs4 
	BYTE	W01
	BYTE		        Fn4 
	BYTE	W01
	BYTE		        Ds4 
	BYTE	W01
	BYTE		N07     En3 
	BYTE		N01     Dn4 
	BYTE	W01
	BYTE		PAN     c_v+9
	BYTE	W01
	BYTE		N01     Bn3 
	BYTE	W01
	BYTE		        As3 
	BYTE	W01
	BYTE		        An3 
	BYTE	W01
	BYTE		        Gn3 
	BYTE	W01
	BYTE		        Fs3 
	BYTE	W01
	BYTE		        Fn3 
	BYTE	W01
	BYTE		        Ds3 
	BYTE		N07     An3 
	BYTE	W01
	BYTE		PAN     c_v-2
	BYTE	W01
	BYTE		N01     Cs3 
	BYTE	W01
	BYTE		        Bn2 
	BYTE	W01
	BYTE		        As2 
	BYTE	W01
	BYTE		        An2 
	BYTE	W01
	BYTE		        Gn2 
	BYTE	W01
	BYTE		        Fs2 
	BYTE	W01
	BYTE		        Fn2 
	BYTE		N07     En3 
	BYTE	W01
	BYTE		PAN     c_v-13
	BYTE	W01
	BYTE		N01     Dn2 
	BYTE	W01
	BYTE		        Cs2 
	BYTE	W01
	BYTE		        Bn1 
	BYTE	W01
	BYTE		        As1 
	BYTE	W01
	BYTE		        An1 
	BYTE	W01
	BYTE		        Gn1 
	BYTE	W01
	BYTE		        Fs1 
	BYTE		N07     Cn3 
	BYTE	W01
	BYTE		PAN     c_v-23
	BYTE	W01
	BYTE		N01     Ds1 
	BYTE	W01
	BYTE		        Dn1 
	BYTE	W01
	BYTE		        Cs1 
	BYTE	W01
	BYTE		        Bn0 
	BYTE	W01
	BYTE		        As0 
	BYTE	W01
	BYTE		        An0 
	BYTE	W01
	BYTE		        Gn0 
	BYTE		N07     An2 
	BYTE	W01
	BYTE		PAN     c_v-34
	BYTE	W01
	BYTE		N01     Fn0 
	BYTE	W01
	BYTE		        Ds0 
	BYTE	W01
	BYTE		        Dn0 
	BYTE	W01
	BYTE		        Cs0 
	BYTE	W01
	BYTE		        BnM1
	BYTE	W01
	BYTE		        AsM1
	BYTE	W01
	BYTE		        AnM1
	BYTE		N07     En2 
	BYTE	W01
	BYTE		PAN     c_v-45
	BYTE	W01
	BYTE		N01     FsM1
	BYTE	W01
	BYTE		        FnM1
	BYTE	W01
	BYTE		        DsM1
	BYTE	W01
	BYTE		        DnM1
	BYTE	W01
	BYTE		        CsM1
	BYTE	W01
	BYTE		        BnM2
	BYTE	W01
	BYTE		        AsM2
	BYTE		N07     Cn2 
	BYTE	W01
	BYTE		PAN     c_v-55
	BYTE	W01
	BYTE		N01     GnM2
	BYTE	W01
	BYTE		        FsM2
	BYTE	W01
	BYTE		        FnM2
	BYTE	W01
	BYTE		        DsM2
	BYTE	W01
	BYTE		        DnM2
	BYTE	W01
	BYTE		        CsM2
	BYTE	W01
	BYTE	PEND
// 004   ----------------------------------------
song43_5_004:
	BYTE		PAN     c_v-64
	BYTE		N07     Bn1   v060
	BYTE	W01
	BYTE		PAN     c_v-63
	BYTE	W01
	BYTE		N01     DnM2
	BYTE	W01
	BYTE		        EnM2
	BYTE	W01
	BYTE		        FnM2
	BYTE	W01
	BYTE		        FsM2
	BYTE	W01
	BYTE		        GsM2
	BYTE	W01
	BYTE		        AnM2
	BYTE	W01
	BYTE		        AsM2
	BYTE		N07     Dn2 
	BYTE	W01
	BYTE		PAN     c_v-52
	BYTE	W01
	BYTE		N01     CsM1
	BYTE	W01
	BYTE		        DnM1
	BYTE	W01
	BYTE		        EnM1
	BYTE	W01
	BYTE		        FnM1
	BYTE	W01
	BYTE		        FsM1
	BYTE	W01
	BYTE		        GsM1
	BYTE	W01
	BYTE		        AnM1
	BYTE		N07     Gn2 
	BYTE	W01
	BYTE		PAN     c_v-42
	BYTE	W01
	BYTE		N01     Cn0 
	BYTE	W01
	BYTE		        Cs0 
	BYTE	W01
	BYTE		        Dn0 
	BYTE	W01
	BYTE		        En0 
	BYTE	W01
	BYTE		        Fn0 
	BYTE	W01
	BYTE		        Fs0 
	BYTE	W01
	BYTE		        Gs0 
	BYTE		N07     Bn2 
	BYTE	W01
	BYTE		PAN     c_v-31
	BYTE	W01
	BYTE		N01     As0 
	BYTE	W01
	BYTE		        Cn1 
	BYTE	W01
	BYTE		        Cs1 
	BYTE	W01
	BYTE		        Dn1 
	BYTE	W01
	BYTE		        En1 
	BYTE	W01
	BYTE		        Fn1 
	BYTE	W01
	BYTE		        Fs1 
	BYTE		N07     Dn3 
	BYTE	W01
	BYTE		PAN     c_v-20
	BYTE	W01
	BYTE		N01     An1 
	BYTE	W01
	BYTE		        As1 
	BYTE	W01
	BYTE		        Cn2 
	BYTE	W01
	BYTE		        Cs2 
	BYTE	W01
	BYTE		        Dn2 
	BYTE	W01
	BYTE		        En2 
	BYTE	W01
	BYTE		        Fn2 
	BYTE		N07     Gn3 
	BYTE	W01
	BYTE		PAN     c_v-10
	BYTE	W01
	BYTE		N01     Gs2 
	BYTE	W01
	BYTE		        An2 
	BYTE	W01
	BYTE		        As2 
	BYTE	W01
	BYTE		        Cn3 
	BYTE	W01
	BYTE		        Cs3 
	BYTE	W01
	BYTE		        Dn3 
	BYTE	W01
	BYTE		        En3 
	BYTE		N07     Bn3 
	BYTE	W01
	BYTE		PAN     c_v+1
	BYTE	W01
	BYTE		N01     Fs3 
	BYTE	W01
	BYTE		        Gs3 
	BYTE	W01
	BYTE		        An3 
	BYTE	W01
	BYTE		        As3 
	BYTE	W01
	BYTE		        Cn4 
	BYTE	W01
	BYTE		        Cs4 
	BYTE	W01
	BYTE		N07     Gn3 
	BYTE		N01     Dn4 
	BYTE	W01
	BYTE		PAN     c_v+12
	BYTE	W01
	BYTE		N01     Fn4 
	BYTE	W01
	BYTE		        Fs4 
	BYTE	W01
	BYTE		        Gs4 
	BYTE	W01
	BYTE		        An4 
	BYTE	W01
	BYTE		        As4 
	BYTE	W01
	BYTE		        Cn5 
	BYTE	W01
	BYTE		N07     Dn3 
	BYTE		N01     Cs5 
	BYTE	W01
	BYTE		PAN     c_v+22
	BYTE	W01
	BYTE		N01     En5 
	BYTE	W01
	BYTE		        Fn5 
	BYTE	W01
	BYTE		        Fs5 
	BYTE	W01
	BYTE		        Gs5 
	BYTE	W01
	BYTE		        An5 
	BYTE	W01
	BYTE		        As5 
	BYTE	W01
	BYTE		N07     Bn2 
	BYTE		N01     Cn6 
	BYTE	W01
	BYTE		PAN     c_v+33
	BYTE	W01
	BYTE		N01     Dn6 
	BYTE	W01
	BYTE		        En6 
	BYTE	W01
	BYTE		        Fn6 
	BYTE	W01
	BYTE		        Fs6 
	BYTE	W01
	BYTE		        Gs6 
	BYTE	W01
	BYTE		        An6 
	BYTE	W01
	BYTE		N07     Gn2 
	BYTE		N01     As6 
	BYTE	W01
	BYTE		PAN     c_v+44
	BYTE	W01
	BYTE		N01     Cs7 
	BYTE	W01
	BYTE		        Dn7 
	BYTE	W01
	BYTE		        En7 
	BYTE	W01
	BYTE		        Fn7 
	BYTE	W01
	BYTE		        Fs7 
	BYTE	W01
	BYTE		        Gs7 
	BYTE	W01
	BYTE		N07     Dn2 
	BYTE		N01     An7 
	BYTE	W01
	BYTE		PAN     c_v+54
	BYTE	W01
	BYTE		N01     Cn8 
	BYTE	W01
	BYTE		        Cs8 
	BYTE	W01
	BYTE		        Dn8 
	BYTE	W01
	BYTE		        En8 
	BYTE	W01
	BYTE		        Fn8 
	BYTE	W01
	BYTE		        Fs8 
	BYTE	W01
	BYTE	PEND
// 005   ----------------------------------------
song43_5_005:
	BYTE		PAN     c_v+63
	BYTE		N07     Gn1   v060
	BYTE	W01
	BYTE		PAN     c_v+62
	BYTE	W01
	BYTE		N01     Fn8 
	BYTE	W01
	BYTE		        Ds8 
	BYTE	W01
	BYTE		        Dn8 
	BYTE	W01
	BYTE		        Cs8 
	BYTE	W01
	BYTE		        Bn7 
	BYTE	W01
	BYTE		        As7 
	BYTE	W01
	BYTE		N07     Bn1 
	BYTE		N01     An7 
	BYTE	W01
	BYTE		PAN     c_v+51
	BYTE	W01
	BYTE		N01     Fs7 
	BYTE	W01
	BYTE		        Fn7 
	BYTE	W01
	BYTE		        Ds7 
	BYTE	W01
	BYTE		        Dn7 
	BYTE	W01
	BYTE		        Cs7 
	BYTE	W01
	BYTE		        Bn6 
	BYTE	W01
	BYTE		N07     Dn2 
	BYTE		N01     As6 
	BYTE	W01
	BYTE		PAN     c_v+41
	BYTE	W01
	BYTE		N01     Gn6 
	BYTE	W01
	BYTE		        Fs6 
	BYTE	W01
	BYTE		        Fn6 
	BYTE	W01
	BYTE		        Ds6 
	BYTE	W01
	BYTE		        Dn6 
	BYTE	W01
	BYTE		        Cs6 
	BYTE	W01
	BYTE		N07     Gn2 
	BYTE		N01     Bn5 
	BYTE	W01
	BYTE		PAN     c_v+30
	BYTE	W01
	BYTE		N01     An5 
	BYTE	W01
	BYTE		        Gn5 
	BYTE	W01
	BYTE		        Fs5 
	BYTE	W01
	BYTE		        Fn5 
	BYTE	W01
	BYTE		        Ds5 
	BYTE	W01
	BYTE		        Dn5 
	BYTE	W01
	BYTE		N07     Bn2 
	BYTE		N01     Cs5 
	BYTE	W01
	BYTE		PAN     c_v+19
	BYTE	W01
	BYTE		N01     As4 
	BYTE	W01
	BYTE		        An4 
	BYTE	W01
	BYTE		        Gn4 
	BYTE	W01
	BYTE		        Fs4 
	BYTE	W01
	BYTE		        Fn4 
	BYTE	W01
	BYTE		        Ds4 
	BYTE	W01
	BYTE		N07     Dn3 
	BYTE		N01     Dn4 
	BYTE	W01
	BYTE		PAN     c_v+9
	BYTE	W01
	BYTE		N01     Bn3 
	BYTE	W01
	BYTE		        As3 
	BYTE	W01
	BYTE		        An3 
	BYTE	W01
	BYTE		        Gn3 
	BYTE	W01
	BYTE		        Fs3 
	BYTE	W01
	BYTE		        Fn3 
	BYTE	W01
	BYTE		        Ds3 
	BYTE		N07     Gn3 
	BYTE	W01
	BYTE		PAN     c_v-2
	BYTE	W01
	BYTE		N01     Cs3 
	BYTE	W01
	BYTE		        Bn2 
	BYTE	W01
	BYTE		        As2 
	BYTE	W01
	BYTE		        An2 
	BYTE	W01
	BYTE		        Gn2 
	BYTE	W01
	BYTE		        Fs2 
	BYTE	W01
	BYTE		        Fn2 
	BYTE		N07     Dn3 
	BYTE	W01
	BYTE		PAN     c_v-13
	BYTE	W01
	BYTE		N01     Dn2 
	BYTE	W01
	BYTE		        Cs2 
	BYTE	W01
	BYTE		        Bn1 
	BYTE	W01
	BYTE		        As1 
	BYTE	W01
	BYTE		        An1 
	BYTE	W01
	BYTE		        Gn1 
	BYTE	W01
	BYTE		        Fs1 
	BYTE		N07     Bn2 
	BYTE	W01
	BYTE		PAN     c_v-23
	BYTE	W01
	BYTE		N01     Ds1 
	BYTE	W01
	BYTE		        Dn1 
	BYTE	W01
	BYTE		        Cs1 
	BYTE	W01
	BYTE		        Bn0 
	BYTE	W01
	BYTE		        As0 
	BYTE	W01
	BYTE		        An0 
	BYTE	W01
	BYTE		        Gn0 
	BYTE		N07     Gn2 
	BYTE	W01
	BYTE		PAN     c_v-34
	BYTE	W01
	BYTE		N01     Fn0 
	BYTE	W01
	BYTE		        Ds0 
	BYTE	W01
	BYTE		        Dn0 
	BYTE	W01
	BYTE		        Cs0 
	BYTE	W01
	BYTE		        BnM1
	BYTE	W01
	BYTE		        AsM1
	BYTE	W01
	BYTE		        AnM1
	BYTE		N07     Dn2 
	BYTE	W01
	BYTE		PAN     c_v-45
	BYTE	W01
	BYTE		N01     FsM1
	BYTE	W01
	BYTE		        FnM1
	BYTE	W01
	BYTE		        DsM1
	BYTE	W01
	BYTE		        DnM1
	BYTE	W01
	BYTE		        CsM1
	BYTE	W01
	BYTE		        BnM2
	BYTE	W01
	BYTE		        AsM2
	BYTE		N07     Bn1 
	BYTE	W01
	BYTE		PAN     c_v-55
	BYTE	W01
	BYTE		N01     GnM2
	BYTE	W01
	BYTE		        FsM2
	BYTE	W01
	BYTE		        FnM2
	BYTE	W01
	BYTE		        DsM2
	BYTE	W01
	BYTE		        DnM2
	BYTE	W01
	BYTE		        CsM2
	BYTE	W01
	BYTE	PEND
// 006   ----------------------------------------
song43_5_006:
	BYTE		PAN     c_v-64
	BYTE		N07     As1   v060
	BYTE	W01
	BYTE		PAN     c_v-63
	BYTE	W01
	BYTE		N01     DnM2
	BYTE	W01
	BYTE		        EnM2
	BYTE	W01
	BYTE		        FnM2
	BYTE	W01
	BYTE		        FsM2
	BYTE	W01
	BYTE		        GsM2
	BYTE	W01
	BYTE		        AnM2
	BYTE	W01
	BYTE		        AsM2
	BYTE		N07     Dn2 
	BYTE	W01
	BYTE		PAN     c_v-52
	BYTE	W01
	BYTE		N01     CsM1
	BYTE	W01
	BYTE		        DnM1
	BYTE	W01
	BYTE		        EnM1
	BYTE	W01
	BYTE		        FnM1
	BYTE	W01
	BYTE		        FsM1
	BYTE	W01
	BYTE		        GsM1
	BYTE	W01
	BYTE		        AnM1
	BYTE		N07     Fn2 
	BYTE	W01
	BYTE		PAN     c_v-42
	BYTE	W01
	BYTE		N01     Cn0 
	BYTE	W01
	BYTE		        Cs0 
	BYTE	W01
	BYTE		        Dn0 
	BYTE	W01
	BYTE		        En0 
	BYTE	W01
	BYTE		        Fn0 
	BYTE	W01
	BYTE		        Fs0 
	BYTE	W01
	BYTE		        Gs0 
	BYTE		N07     As2 
	BYTE	W01
	BYTE		PAN     c_v-31
	BYTE	W01
	BYTE		N01     As0 
	BYTE	W01
	BYTE		        Cn1 
	BYTE	W01
	BYTE		        Cs1 
	BYTE	W01
	BYTE		        Dn1 
	BYTE	W01
	BYTE		        En1 
	BYTE	W01
	BYTE		        Fn1 
	BYTE	W01
	BYTE		        Fs1 
	BYTE		N07     Dn3 
	BYTE	W01
	BYTE		PAN     c_v-20
	BYTE	W01
	BYTE		N01     An1 
	BYTE	W01
	BYTE		        As1 
	BYTE	W01
	BYTE		        Cn2 
	BYTE	W01
	BYTE		        Cs2 
	BYTE	W01
	BYTE		        Dn2 
	BYTE	W01
	BYTE		        En2 
	BYTE	W01
	BYTE		        Fn2 
	BYTE		N07     Fn3 
	BYTE	W01
	BYTE		PAN     c_v-10
	BYTE	W01
	BYTE		N01     Gs2 
	BYTE	W01
	BYTE		        An2 
	BYTE	W01
	BYTE		        As2 
	BYTE	W01
	BYTE		        Cn3 
	BYTE	W01
	BYTE		        Cs3 
	BYTE	W01
	BYTE		        Dn3 
	BYTE	W01
	BYTE		        En3 
	BYTE		N05     As3 
	BYTE	W01
	BYTE		PAN     c_v+1
	BYTE	W01
	BYTE		N01     Fs3 
	BYTE	W01
	BYTE		        Gs3 
	BYTE	W01
	BYTE		        An3 
	BYTE	W01
	BYTE		N02     As3 
	BYTE	W01
	BYTE		N01     Cn4 
	BYTE	W01
	BYTE		        Cs4 
	BYTE	W01
	BYTE		N07     Fn3 
	BYTE		N01     Dn4 
	BYTE	W01
	BYTE		PAN     c_v+12
	BYTE	W01
	BYTE		N01     Fn4 
	BYTE	W01
	BYTE		        Fs4 
	BYTE	W01
	BYTE		        Gs4 
	BYTE	W01
	BYTE		        An4 
	BYTE	W01
	BYTE		        As4 
	BYTE	W01
	BYTE		        Cn5 
	BYTE	W01
	BYTE		N07     Dn3 
	BYTE		N01     Cs5 
	BYTE	W01
	BYTE		PAN     c_v+22
	BYTE	W01
	BYTE		N01     En5 
	BYTE	W01
	BYTE		        Fn5 
	BYTE	W01
	BYTE		        Fs5 
	BYTE	W01
	BYTE		        Gs5 
	BYTE	W01
	BYTE		        An5 
	BYTE	W01
	BYTE		        As5 
	BYTE	W01
	BYTE		N07     As2 
	BYTE		N01     Cn6 
	BYTE	W01
	BYTE		PAN     c_v+33
	BYTE	W01
	BYTE		N01     Dn6 
	BYTE	W01
	BYTE		        En6 
	BYTE	W01
	BYTE		        Fn6 
	BYTE	W01
	BYTE		        Fs6 
	BYTE	W01
	BYTE		        Gs6 
	BYTE	W01
	BYTE		        An6 
	BYTE	W01
	BYTE		N07     Fn2 
	BYTE		N01     As6 
	BYTE	W01
	BYTE		PAN     c_v+44
	BYTE	W01
	BYTE		N01     Cs7 
	BYTE	W01
	BYTE		        Dn7 
	BYTE	W01
	BYTE		        En7 
	BYTE	W01
	BYTE		        Fn7 
	BYTE	W01
	BYTE		        Fs7 
	BYTE	W01
	BYTE		        Gs7 
	BYTE	W01
	BYTE		N07     Dn2 
	BYTE		N01     An7 
	BYTE	W01
	BYTE		PAN     c_v+54
	BYTE	W01
	BYTE		N01     Cn8 
	BYTE	W01
	BYTE		        Cs8 
	BYTE	W01
	BYTE		        Dn8 
	BYTE	W01
	BYTE		        En8 
	BYTE	W01
	BYTE		        Fn8 
	BYTE	W01
	BYTE		        Fs8 
	BYTE	W01
	BYTE	PEND
// 007   ----------------------------------------
song43_5_007:
	BYTE		PAN     c_v+63
	BYTE		N07     An1   v060
	BYTE	W01
	BYTE		PAN     c_v+62
	BYTE	W01
	BYTE		N01     Fn8 
	BYTE	W01
	BYTE		        Ds8 
	BYTE	W01
	BYTE		        Dn8 
	BYTE	W01
	BYTE		        Cs8 
	BYTE	W01
	BYTE		        Bn7 
	BYTE	W01
	BYTE		        As7 
	BYTE	W01
	BYTE		N07     Cs2 
	BYTE		N01     An7 
	BYTE	W01
	BYTE		PAN     c_v+51
	BYTE	W01
	BYTE		N01     Fs7 
	BYTE	W01
	BYTE		        Fn7 
	BYTE	W01
	BYTE		        Ds7 
	BYTE	W01
	BYTE		        Dn7 
	BYTE	W01
	BYTE		        Cs7 
	BYTE	W01
	BYTE		        Bn6 
	BYTE	W01
	BYTE		N07     En2 
	BYTE		N01     As6 
	BYTE	W01
	BYTE		PAN     c_v+41
	BYTE	W01
	BYTE		N01     Gn6 
	BYTE	W01
	BYTE		        Fs6 
	BYTE	W01
	BYTE		        Fn6 
	BYTE	W01
	BYTE		        Ds6 
	BYTE	W01
	BYTE		        Dn6 
	BYTE	W01
	BYTE		        Cs6 
	BYTE	W01
	BYTE		N07     An2 
	BYTE		N01     Bn5 
	BYTE	W01
	BYTE		PAN     c_v+30
	BYTE	W01
	BYTE		N01     An5 
	BYTE	W01
	BYTE		        Gn5 
	BYTE	W01
	BYTE		        Fs5 
	BYTE	W01
	BYTE		        Fn5 
	BYTE	W01
	BYTE		        Ds5 
	BYTE	W01
	BYTE		        Dn5 
	BYTE	W01
	BYTE		N07     Cs3 
	BYTE		N01     Cs5 
	BYTE	W01
	BYTE		PAN     c_v+19
	BYTE	W01
	BYTE		N01     As4 
	BYTE	W01
	BYTE		        An4 
	BYTE	W01
	BYTE		        Gn4 
	BYTE	W01
	BYTE		        Fs4 
	BYTE	W01
	BYTE		        Fn4 
	BYTE	W01
	BYTE		        Ds4 
	BYTE	W01
	BYTE		N07     En3 
	BYTE		N01     Dn4 
	BYTE	W01
	BYTE		PAN     c_v+9
	BYTE	W01
	BYTE		N01     Bn3 
	BYTE	W01
	BYTE		        As3 
	BYTE	W01
	BYTE		        An3 
	BYTE	W01
	BYTE		        Gn3 
	BYTE	W01
	BYTE		        Fs3 
	BYTE	W01
	BYTE		        Fn3 
	BYTE	W01
	BYTE		        Ds3 
	BYTE		N07     An3 
	BYTE	W01
	BYTE		PAN     c_v-2
	BYTE	W01
	BYTE		N01     Cs3 
	BYTE	W01
	BYTE		        Bn2 
	BYTE	W01
	BYTE		        As2 
	BYTE	W01
	BYTE		        An2 
	BYTE	W01
	BYTE		        Gn2 
	BYTE	W01
	BYTE		        Fs2 
	BYTE	W01
	BYTE		        Fn2 
	BYTE		N07     En3 
	BYTE	W01
	BYTE		PAN     c_v-13
	BYTE	W01
	BYTE		N01     Dn2 
	BYTE	W01
	BYTE		        Cs2 
	BYTE	W01
	BYTE		        Bn1 
	BYTE	W01
	BYTE		        As1 
	BYTE	W01
	BYTE		        An1 
	BYTE	W01
	BYTE		        Gn1 
	BYTE	W01
	BYTE		        Fs1 
	BYTE		N07     Cs3 
	BYTE	W01
	BYTE		PAN     c_v-23
	BYTE	W01
	BYTE		N01     Ds1 
	BYTE	W01
	BYTE		        Dn1 
	BYTE	W01
	BYTE		        Cs1 
	BYTE	W01
	BYTE		        Bn0 
	BYTE	W01
	BYTE		        As0 
	BYTE	W01
	BYTE		        An0 
	BYTE	W01
	BYTE		        Gn0 
	BYTE		N07     An2 
	BYTE	W01
	BYTE		PAN     c_v-34
	BYTE	W01
	BYTE		N01     Fn0 
	BYTE	W01
	BYTE		        Ds0 
	BYTE	W01
	BYTE		        Dn0 
	BYTE	W01
	BYTE		        Cs0 
	BYTE	W01
	BYTE		        BnM1
	BYTE	W01
	BYTE		        AsM1
	BYTE	W01
	BYTE		        AnM1
	BYTE		N07     En2 
	BYTE	W01
	BYTE		PAN     c_v-45
	BYTE	W01
	BYTE		N01     FsM1
	BYTE	W01
	BYTE		        FnM1
	BYTE	W01
	BYTE		        DsM1
	BYTE	W01
	BYTE		        DnM1
	BYTE	W01
	BYTE		        CsM1
	BYTE	W01
	BYTE		        BnM2
	BYTE	W01
	BYTE		        AsM2
	BYTE		N07     Cs2 
	BYTE	W01
	BYTE		PAN     c_v-55
	BYTE	W01
	BYTE		N01     GnM2
	BYTE	W01
	BYTE		        FsM2
	BYTE	W01
	BYTE		        FnM2
	BYTE	W01
	BYTE		        DsM2
	BYTE	W01
	BYTE		        DnM2
	BYTE	W01
	BYTE		        CsM2
	BYTE	W01
	BYTE	PEND
// 008   ----------------------------------------
	BYTE		        CnM2
	BYTE		N07     Dn2 
	BYTE	W01
	BYTE		PAN     c_v-63
	BYTE	W01
	BYTE		N01     DnM2
	BYTE	W01
	BYTE		        EnM2
	BYTE	W01
	BYTE		        FnM2
	BYTE	W01
	BYTE		        FsM2
	BYTE	W01
	BYTE		        GsM2
	BYTE	W01
	BYTE		        AnM2
	BYTE	W01
	BYTE		        AsM2
	BYTE		N07     Fn2 
	BYTE	W01
	BYTE		PAN     c_v-52
	BYTE	W01
	BYTE		N01     CsM1
	BYTE	W01
	BYTE		        DnM1
	BYTE	W01
	BYTE		        EnM1
	BYTE	W01
	BYTE		        FnM1
	BYTE	W01
	BYTE		        FsM1
	BYTE	W01
	BYTE		        GsM1
	BYTE	W01
	BYTE		        AnM1
	BYTE		N07     An2 
	BYTE	W01
	BYTE		PAN     c_v-42
	BYTE	W01
	BYTE		N01     Cn0 
	BYTE	W01
	BYTE		        Cs0 
	BYTE	W01
	BYTE		        Dn0 
	BYTE	W01
	BYTE		        En0 
	BYTE	W01
	BYTE		        Fn0 
	BYTE	W01
	BYTE		        Fs0 
	BYTE	W01
	BYTE		        Gs0 
	BYTE		N07     Dn3 
	BYTE	W01
	BYTE		PAN     c_v-31
	BYTE	W01
	BYTE		N01     As0 
	BYTE	W01
	BYTE		        Cn1 
	BYTE	W01
	BYTE		        Cs1 
	BYTE	W01
	BYTE		        Dn1 
	BYTE	W01
	BYTE		        En1 
	BYTE	W01
	BYTE		        Fn1 
	BYTE	W01
	BYTE		        Fs1 
	BYTE		N07     Fn3 
	BYTE	W01
	BYTE		PAN     c_v-20
	BYTE	W01
	BYTE		N01     An1 
	BYTE	W01
	BYTE		        As1 
	BYTE	W01
	BYTE		        Cn2 
	BYTE	W01
	BYTE		        Cs2 
	BYTE	W01
	BYTE		        Dn2 
	BYTE	W01
	BYTE		        En2 
	BYTE	W01
	BYTE		        Fn2 
	BYTE		N07     An3 
	BYTE	W01
	BYTE		PAN     c_v-10
	BYTE	W01
	BYTE		N01     Gs2 
	BYTE	W01
	BYTE		        An2 
	BYTE	W01
	BYTE		        As2 
	BYTE	W01
	BYTE		        Cn3 
	BYTE	W01
	BYTE		        Cs3 
	BYTE	W01
	BYTE		        Dn3 
	BYTE	W01
	BYTE		        En3 
	BYTE		N07     Dn4 
	BYTE	W01
	BYTE		PAN     c_v+1
	BYTE	W01
	BYTE		N01     Fs3 
	BYTE	W01
	BYTE		        Gs3 
	BYTE	W01
	BYTE		        An3 
	BYTE	W01
	BYTE		        As3 
	BYTE	W01
	BYTE		        Cn4 
	BYTE	W01
	BYTE		        Cs4 
	BYTE	W01
	BYTE		N07     An3 
	BYTE		N01     Dn4 
	BYTE	W01
	BYTE		PAN     c_v+12
	BYTE	W01
	BYTE		N01     Fn4 
	BYTE	W01
	BYTE		        Fs4 
	BYTE	W01
	BYTE		        Gs4 
	BYTE	W01
	BYTE		        An4 
	BYTE	W01
	BYTE		        As4 
	BYTE	W01
	BYTE		        Cn5 
	BYTE	W01
	BYTE		N07     Fn3 
	BYTE		N01     Cs5 
	BYTE	W01
	BYTE		PAN     c_v+22
	BYTE	W01
	BYTE		N01     En5 
	BYTE	W01
	BYTE		        Fn5 
	BYTE	W01
	BYTE		        Fs5 
	BYTE	W01
	BYTE		        Gs5 
	BYTE	W01
	BYTE		        An5 
	BYTE	W01
	BYTE		        As5 
	BYTE	W01
	BYTE		N07     Dn3 
	BYTE		N01     Cn6 
	BYTE	W01
	BYTE		PAN     c_v+33
	BYTE	W01
	BYTE		N01     Dn6 
	BYTE	W01
	BYTE		        En6 
	BYTE	W01
	BYTE		        Fn6 
	BYTE	W01
	BYTE		        Fs6 
	BYTE	W01
	BYTE		        Gs6 
	BYTE	W01
	BYTE		        An6 
	BYTE	W01
	BYTE		N07     An2 
	BYTE		N01     As6 
	BYTE	W01
	BYTE		PAN     c_v+44
	BYTE	W01
	BYTE		N01     Cs7 
	BYTE	W01
	BYTE		        Dn7 
	BYTE	W01
	BYTE		        En7 
	BYTE	W01
	BYTE		        Fn7 
	BYTE	W01
	BYTE		        Fs7 
	BYTE	W01
	BYTE		        Gs7 
	BYTE	W01
	BYTE		N07     Fn2 
	BYTE		N01     An7 
	BYTE	W01
	BYTE		PAN     c_v+54
	BYTE	W01
	BYTE		N01     Cn8 
	BYTE	W01
	BYTE		        Cs8 
	BYTE	W01
	BYTE		        Dn8 
	BYTE	W01
	BYTE		        En8 
	BYTE	W01
	BYTE		        Fn8 
	BYTE	W01
	BYTE		        Fs8 
	BYTE	W01
// 009   ----------------------------------------
	BYTE	PATT
	 POIN2	song43_5_001
// 010   ----------------------------------------
	BYTE	PATT
	 POIN2	song43_5_002
// 011   ----------------------------------------
	BYTE	PATT
	 POIN2	song43_5_003
// 012   ----------------------------------------
	BYTE	PATT
	 POIN2	song43_5_004
// 013   ----------------------------------------
	BYTE	PATT
	 POIN2	song43_5_005
// 014   ----------------------------------------
	BYTE	PATT
	 POIN2	song43_5_006
// 015   ----------------------------------------
	BYTE	PATT
	 POIN2	song43_5_007
// 016   ----------------------------------------
	BYTE	FINE

//**************** Track 6 (Midi-Chn.1) ****************//

song43_6:
	BYTE	KEYSH   song43_key+0
// 000   ----------------------------------------
	BYTE		VOICE   60
	BYTE		VOL     53*song43_mvl/mxv
	BYTE		PAN     c_v-20
	BYTE		N07     An2   v068
	BYTE		N07     Fn3 
	BYTE	W08
	BYTE		        An2   v012
	BYTE		N07     Fn3 
	BYTE	W16
	BYTE		N19     An2   v076
	BYTE		N19     Fn3 
	BYTE	W24
	BYTE		N07     An2   v068
	BYTE		N07     Fn3 
	BYTE	W08
	BYTE		        An2   v012
	BYTE		N07     Fn3 
	BYTE	W16
	BYTE		N19     An2   v076
	BYTE		N19     Fn3 
	BYTE	W24
// 001   ----------------------------------------
	BYTE		N07     An2   v068
	BYTE		N07     Fn3 
	BYTE	W08
	BYTE		        An2   v012
	BYTE		N07     Fn3 
	BYTE	W16
	BYTE		N19     An2   v076
	BYTE		N19     Fn3 
	BYTE	W24
	BYTE		N07     An2   v068
	BYTE		N07     Fn3 
	BYTE	W08
	BYTE		        An2   v012
	BYTE		N07     Fn3 
	BYTE	W16
	BYTE		N19     An2   v076
	BYTE		N19     Fn3 
	BYTE	W24
// 002   ----------------------------------------
song43_6_002:
	BYTE		N07     An2   v068
	BYTE		N07     En3 
	BYTE	W08
	BYTE		        An2   v012
	BYTE		N07     En3 
	BYTE	W16
	BYTE		N19     An2   v076
	BYTE		N19     En3 
	BYTE	W24
	BYTE		N07     An2   v068
	BYTE		N07     En3 
	BYTE	W08
	BYTE		        An2   v012
	BYTE		N07     En3 
	BYTE	W16
	BYTE		N19     An2   v076
	BYTE		N19     En3 
	BYTE	W24
	BYTE	PEND
// 003   ----------------------------------------
	BYTE	PATT
	 POIN2	song43_6_002
// 004   ----------------------------------------
song43_6_004:
	BYTE		N07     Gn2   v068
	BYTE		N07     Dn3 
	BYTE	W08
	BYTE		        Gn2   v012
	BYTE		N07     Dn3 
	BYTE	W16
	BYTE		N19     Gn2   v076
	BYTE		N19     Dn3 
	BYTE	W24
	BYTE		N07     Gn2   v068
	BYTE		N07     Dn3 
	BYTE	W08
	BYTE		        Gn2   v012
	BYTE		N07     Dn3 
	BYTE	W16
	BYTE		N19     Gn2   v076
	BYTE		N19     Dn3 
	BYTE	W24
	BYTE	PEND
// 005   ----------------------------------------
	BYTE	PATT
	 POIN2	song43_6_004
// 006   ----------------------------------------
	BYTE		N07     As2   v068
	BYTE		N07     Dn3 
	BYTE	W08
	BYTE		        As2   v012
	BYTE		N07     Dn3 
	BYTE	W16
	BYTE		N19     As2   v076
	BYTE		N19     Dn3 
	BYTE	W24
	BYTE		N07     As2   v068
	BYTE		N07     Dn3 
	BYTE	W08
	BYTE		        As2   v012
	BYTE		N07     Dn3 
	BYTE	W16
	BYTE		N19     As2   v076
	BYTE		N19     Dn3 
	BYTE	W24
// 007   ----------------------------------------
	BYTE		N07     Cs3   v068
	BYTE		N07     En3 
	BYTE	W08
	BYTE		        Cs3   v012
	BYTE		N07     En3 
	BYTE	W16
	BYTE		N19     Cs3   v076
	BYTE		N19     En3 
	BYTE	W24
	BYTE		N07     Cs3   v068
	BYTE		N07     En3 
	BYTE	W08
	BYTE		        Cs3   v012
	BYTE		N07     En3 
	BYTE	W08
	BYTE		        Cs3   v068
	BYTE		N07     En3 
	BYTE	W08
	BYTE		        Cs3 
	BYTE		N07     En3 
	BYTE	W08
	BYTE		        Cs3   v012
	BYTE		N07     En3 
	BYTE	W08
	BYTE		        Cs3   v068
	BYTE		N07     En3 
	BYTE	W08
// 008   ----------------------------------------
song43_6_008:
	BYTE		N07     An2   v068
	BYTE	W08
	BYTE		N16     An2   v012
	BYTE	W16
	BYTE		N19     An2   v076
	BYTE	W24
	BYTE		N07     An2   v068
	BYTE	W08
	BYTE		N16     An2   v012
	BYTE	W16
	BYTE		N19     An2   v076
	BYTE	W24
	BYTE	PEND
// 009   ----------------------------------------
	BYTE	PATT
	 POIN2	song43_6_008
// 010   ----------------------------------------
	BYTE	PATT
	 POIN2	song43_6_008
// 011   ----------------------------------------
	BYTE	PATT
	 POIN2	song43_6_008
// 012   ----------------------------------------
song43_6_012:
	BYTE		N07     Gn2   v068
	BYTE	W08
	BYTE		N16     Gn2   v012
	BYTE	W16
	BYTE		N19     Gn2   v076
	BYTE	W24
	BYTE		N07     Gn2   v068
	BYTE	W08
	BYTE		N16     Gn2   v012
	BYTE	W16
	BYTE		N19     Gn2   v076
	BYTE	W24
	BYTE	PEND
// 013   ----------------------------------------
	BYTE	PATT
	 POIN2	song43_6_012
// 014   ----------------------------------------
	BYTE		N07     As2   v068
	BYTE	W08
	BYTE		N16     As2   v012
	BYTE	W16
	BYTE		N19     As2   v076
	BYTE	W24
	BYTE		N07     As2   v068
	BYTE	W08
	BYTE		N16     As2   v012
	BYTE	W16
	BYTE		N19     As2   v076
	BYTE	W24
// 015   ----------------------------------------
	BYTE		N07     Cs3   v068
	BYTE	W08
	BYTE		N16     Cs3   v012
	BYTE	W16
	BYTE		N19     Cs3   v076
	BYTE	W24
	BYTE		N07     Cs3   v068
	BYTE	W08
	BYTE		N08     Cs3   v012
	BYTE	W08
	BYTE		        Cs3   v068
	BYTE	W08
	BYTE		N07   
	BYTE	W08
	BYTE		N08     Cs3   v012
	BYTE	W08
	BYTE		        Cs3   v068
	BYTE	W08
// 016   ----------------------------------------
	BYTE	FINE

//**************** Track 7 (Midi-Chn.1) ****************//

song43_7:
	BYTE	KEYSH   song43_key+0
// 000   ----------------------------------------
	BYTE		VOICE   127
	BYTE		VOL     70*song43_mvl/mxv
	BYTE		PAN     c_v+0
	BYTE		N07     Dn1   v092
	BYTE	W16
	BYTE		N08     Dn1   v076
	BYTE	W08
	BYTE		N16     Dn1   v092
	BYTE	W16
	BYTE		N08     Dn1   v076
	BYTE	W08
	BYTE		N16     Dn1   v092
	BYTE	W16
	BYTE		N08     Dn1   v076
	BYTE	W08
	BYTE		N16     Dn1   v092
	BYTE	W16
	BYTE		N08     Dn1   v076
	BYTE	W08
// 001   ----------------------------------------
song43_7_001:
	BYTE		N07     Dn1   v092
	BYTE	W16
	BYTE		N08     Dn1   v076
	BYTE	W08
	BYTE		N16     Dn1   v092
	BYTE	W16
	BYTE		N08     Dn1   v076
	BYTE	W08
	BYTE		N16     Dn1   v092
	BYTE	W16
	BYTE		N08     Dn1   v076
	BYTE	W08
	BYTE		N16     Dn1   v092
	BYTE	W16
	BYTE		N08     Dn1   v076
	BYTE	W08
	BYTE	PEND
// 002   ----------------------------------------
	BYTE	PATT
	 POIN2	song43_7_001
// 003   ----------------------------------------
	BYTE	PATT
	 POIN2	song43_7_001
// 004   ----------------------------------------
	BYTE	PATT
	 POIN2	song43_7_001
// 005   ----------------------------------------
	BYTE	PATT
	 POIN2	song43_7_001
// 006   ----------------------------------------
	BYTE	PATT
	 POIN2	song43_7_001
// 007   ----------------------------------------
song43_7_007:
	BYTE		N07     Dn1   v092
	BYTE	W16
	BYTE		N08     Dn1   v076
	BYTE	W08
	BYTE		N16     Dn1   v092
	BYTE	W16
	BYTE		N08     Dn1   v076
	BYTE	W08
	BYTE		        Dn1   v092
	BYTE	W08
	BYTE		        Dn1   v076
	BYTE	W08
	BYTE		N07   
	BYTE	W08
	BYTE		N08     Dn1   v092
	BYTE	W08
	BYTE		        Dn1   v076
	BYTE	W08
	BYTE		N07   
	BYTE	W08
	BYTE	PEND
// 008   ----------------------------------------
	BYTE	PATT
	 POIN2	song43_7_001
// 009   ----------------------------------------
	BYTE	PATT
	 POIN2	song43_7_001
// 010   ----------------------------------------
	BYTE	PATT
	 POIN2	song43_7_001
// 011   ----------------------------------------
	BYTE	PATT
	 POIN2	song43_7_001
// 012   ----------------------------------------
	BYTE	PATT
	 POIN2	song43_7_001
// 013   ----------------------------------------
	BYTE	PATT
	 POIN2	song43_7_001
// 014   ----------------------------------------
	BYTE	PATT
	 POIN2	song43_7_001
// 015   ----------------------------------------
	BYTE	PATT
	 POIN2	song43_7_007
// 016   ----------------------------------------
	BYTE	FINE

//******************************************************//
	ALIGN 4

song43:
	BYTE	7	// NumTrks
	BYTE	0	// NumBlks
	BYTE	song43_pri	// Priority
	BYTE	song43_rev	// Reverb.

	POIN2	song43_grp

	POIN2	song43_1
	POIN2	song43_2
	POIN2	song43_3
	POIN2	song43_4
	POIN2	song43_5
	POIN2	song43_6
	POIN2	song43_7

	
