//Event file generated from Sappy .s format.
	#include "MPlayDef.event"

	#define	26-Fight_(Final)_grp  voicegroup000
	#define	26-Fight_(Final)_pri  0
	#define	26-Fight_(Final)_rev  0
	#define	26-Fight_(Final)_mvl  85
	#define	26-Fight_(Final)_key  0
	#define	26-Fight_(Final)_tbs  1
	#define	26-Fight_(Final)_exg  0
	#define	26-Fight_(Final)_cmp  1

	// .rodata
	//	26-Fight_(Final)
	ALIGN 4

//**************** Track 1 (Midi-Chn.1) ****************//

26-Fight_(Final)_1:
	BYTE	KEYSH   26-Fight_(Final)_key+0
// 000   ----------------------------------------
	BYTE	TEMPO   180*26-Fight_(Final)_tbs/2
	BYTE	W48
	BYTE		VOICE   99
	BYTE	W05
	BYTE	W04
	BYTE	W03
	BYTE	TEMPO   212*26-Fight_(Final)_tbs/2
	BYTE	W04
	BYTE		VOL     122*26-Fight_(Final)_mvl/mxv
	BYTE	W01
	BYTE	W03
	BYTE	W01
	BYTE		        123*26-Fight_(Final)_mvl/mxv
	BYTE	W03
// 001   ----------------------------------------
26-Fight_(Final)_1_001:
	BYTE		N10     Dn4   v100
	BYTE	W01
	BYTE		VOL     124*26-Fight_(Final)_mvl/mxv
	BYTE	W03
	BYTE		        125*26-Fight_(Final)_mvl/mxv
	BYTE	W05
	BYTE		        126*26-Fight_(Final)_mvl/mxv
	BYTE	W03
	BYTE		        123*26-Fight_(Final)_mvl/mxv
	BYTE		N10     As3 
	BYTE	W12
	BYTE		        Gn3 
	BYTE	W12
	BYTE		        Dn4 
	BYTE	W12
	BYTE		        As3 
	BYTE	W12
	BYTE		        Gn3 
	BYTE	W12
	BYTE	PEND
// 002   ----------------------------------------
26-Fight_(Final)_1_002:
	BYTE		N10     Ds4   v100
	BYTE	W24
	BYTE		N10   
	BYTE	W24
	BYTE	PEND
// 003   ----------------------------------------
	BYTE		        Dn4 
	BYTE	W12
	BYTE		        As3 
	BYTE	W12
	BYTE		        Gn3 
	BYTE	W12
	BYTE		        Dn4 
	BYTE	W12
	BYTE		        As3 
	BYTE	W12
	BYTE		        Gn3 
	BYTE	W12
// 004   ----------------------------------------
	BYTE	PATT
	 POIN2	26-Fight_(Final)_1_002
// 005   ----------------------------------------
26-Fight_(Final)_1_005:
	BYTE		N10     Dn4   v100
	BYTE	W24
	BYTE		        As3 
	BYTE	W12
	BYTE		        Dn4 
	BYTE	W24
	BYTE		        As3 
	BYTE	W12
	BYTE	PEND
// 006   ----------------------------------------
26-Fight_(Final)_1_006:
	BYTE		N10     Ds4   v100
	BYTE	W24
	BYTE		        Cn4 
	BYTE	W24
	BYTE		        Gs3 
	BYTE	W24
	BYTE	PEND
// 007   ----------------------------------------
	BYTE	PATT
	 POIN2	26-Fight_(Final)_1_005
// 008   ----------------------------------------
	BYTE	PATT
	 POIN2	26-Fight_(Final)_1_006
// 009   ----------------------------------------
	BYTE		N21     Dn4   v100
	BYTE		N16     Dn5 
	BYTE	W24
	BYTE		N21     As3 
	BYTE		N21     As4 
	BYTE	W24
	BYTE		        Gn3 
	BYTE		N21     Gn4 
	BYTE	W24
// 010   ----------------------------------------
	BYTE		        Cn4 
	BYTE		N14     Cn5 
	BYTE	W24
	BYTE		N21     An3 
	BYTE		N17     An4 
	BYTE	W24
	BYTE		N21     Fn3 
	BYTE		N17     Fn4 
	BYTE	W24
// 011   ----------------------------------------
	BYTE		N10     Cs4 
	BYTE		N10     Cs5 
	BYTE	W24
	BYTE		        As3 
	BYTE		N10     As4 
	BYTE	W24
	BYTE		        Gn3 
	BYTE		N10     Gn4 
	BYTE	W24
// 012   ----------------------------------------
	BYTE		        Cn4 
	BYTE	W01
	BYTE		VOL     124*26-Fight_(Final)_mvl/mxv
	BYTE	W03
	BYTE		        125*26-Fight_(Final)_mvl/mxv
	BYTE	W05
	BYTE		        126*26-Fight_(Final)_mvl/mxv
	BYTE	W03
	BYTE		        123*26-Fight_(Final)_mvl/mxv
	BYTE		N10     Gs3 
	BYTE	W12
	BYTE		        Fn3 
	BYTE	W12
	BYTE		        Cn4 
	BYTE	W12
	BYTE		        Gs3 
	BYTE	W12
	BYTE		        Fn3 
	BYTE	W12
// 013   ----------------------------------------
26-Fight_(Final)_1_013:
	BYTE		N10     Cs4   v100
	BYTE	W24
	BYTE		N10   
	BYTE	W24
	BYTE	PEND
// 014   ----------------------------------------
26-Fight_(Final)_1_014:
	BYTE		N10     Cn4   v100
	BYTE	W12
	BYTE		        Gs3 
	BYTE	W12
	BYTE		        Fn3 
	BYTE	W12
	BYTE		        Cn4 
	BYTE	W12
	BYTE		        Gs3 
	BYTE	W12
	BYTE		        Fn3 
	BYTE	W12
	BYTE	PEND
// 015   ----------------------------------------
	BYTE	PATT
	 POIN2	26-Fight_(Final)_1_013
// 016   ----------------------------------------
26-Fight_(Final)_1_016:
	BYTE		N10     Cn4   v100
	BYTE	W24
	BYTE		        Gs3 
	BYTE	W12
	BYTE		        Cn4 
	BYTE	W24
	BYTE		        Gs3 
	BYTE	W12
	BYTE	PEND
// 017   ----------------------------------------
26-Fight_(Final)_1_017:
	BYTE		N10     Cs4   v100
	BYTE	W24
	BYTE		        As3 
	BYTE	W24
	BYTE		        Fs3 
	BYTE	W24
	BYTE	PEND
// 018   ----------------------------------------
	BYTE	PATT
	 POIN2	26-Fight_(Final)_1_016
// 019   ----------------------------------------
	BYTE	PATT
	 POIN2	26-Fight_(Final)_1_017
// 020   ----------------------------------------
	BYTE		N21     Cn4   v100
	BYTE		N16     Cn5 
	BYTE	W24
	BYTE		N21     Gs3 
	BYTE		N21     Gs4 
	BYTE	W24
	BYTE		        Fn3 
	BYTE		N21     Fn4 
	BYTE	W24
// 021   ----------------------------------------
	BYTE		        As3 
	BYTE		N14     As4 
	BYTE	W24
	BYTE		N21     Gn3 
	BYTE		N17     Gn4 
	BYTE	W24
	BYTE		N21     Ds3 
	BYTE		N17     Ds4 
	BYTE	W24
// 022   ----------------------------------------
	BYTE		N10     Bn3 
	BYTE		N10     Bn4 
	BYTE	W24
	BYTE		        Gs3 
	BYTE		N10     Gs4 
	BYTE	W24
	BYTE		        Fn3 
	BYTE		N10     Fn4 
	BYTE	W24
// 023   ----------------------------------------
	BYTE	W01
	BYTE		VOL     124*26-Fight_(Final)_mvl/mxv
	BYTE		N10     Bn3 
	BYTE	W03
	BYTE		VOL     125*26-Fight_(Final)_mvl/mxv
	BYTE	W05
	BYTE		        126*26-Fight_(Final)_mvl/mxv
	BYTE	W03
	BYTE		        123*26-Fight_(Final)_mvl/mxv
	BYTE		N10     Gn3 
	BYTE	W12
	BYTE		        En3 
	BYTE	W12
	BYTE		        Bn3 
	BYTE	W12
	BYTE		        Gn3 
	BYTE	W12
	BYTE		        En3 
	BYTE	W12
// 024   ----------------------------------------
26-Fight_(Final)_1_024:
	BYTE		N10     Cn4   v100
	BYTE	W24
	BYTE		N10   
	BYTE	W24
	BYTE	PEND
// 025   ----------------------------------------
	BYTE		        Bn3 
	BYTE	W12
	BYTE		        Gn3 
	BYTE	W12
	BYTE		        En3 
	BYTE	W12
	BYTE		        Bn3 
	BYTE	W12
	BYTE		        Gn3 
	BYTE	W12
	BYTE		        En3 
	BYTE	W12
// 026   ----------------------------------------
	BYTE	PATT
	 POIN2	26-Fight_(Final)_1_024
// 027   ----------------------------------------
26-Fight_(Final)_1_027:
	BYTE		N10     Bn3   v100
	BYTE	W24
	BYTE		        Gn3 
	BYTE	W12
	BYTE		        Bn3 
	BYTE	W24
	BYTE		        Gn3 
	BYTE	W12
	BYTE	PEND
// 028   ----------------------------------------
26-Fight_(Final)_1_028:
	BYTE		N10     Cn4   v100
	BYTE	W24
	BYTE		        An3 
	BYTE	W24
	BYTE		        Fn3 
	BYTE	W24
	BYTE	PEND
// 029   ----------------------------------------
	BYTE	PATT
	 POIN2	26-Fight_(Final)_1_027
// 030   ----------------------------------------
	BYTE	PATT
	 POIN2	26-Fight_(Final)_1_028
// 031   ----------------------------------------
26-Fight_(Final)_1_031:
	BYTE		N21     Bn3   v100
	BYTE		N16     Bn4 
	BYTE	W24
	BYTE		N21     Gn3 
	BYTE		N21     Gn4 
	BYTE	W24
	BYTE		        En3 
	BYTE		N21     En4 
	BYTE	W24
	BYTE	PEND
// 032   ----------------------------------------
26-Fight_(Final)_1_032:
	BYTE		N21     An3   v100
	BYTE		N14     An4 
	BYTE	W24
	BYTE		N21     Fs3 
	BYTE		N17     Fs4 
	BYTE	W24
	BYTE		N21     Dn3 
	BYTE		N17     Dn4 
	BYTE	W24
	BYTE	PEND
// 033   ----------------------------------------
26-Fight_(Final)_1_033:
	BYTE		N10     As3   v100
	BYTE		N10     As4 
	BYTE	W24
	BYTE		        Gn3 
	BYTE		N10     Gn4 
	BYTE	W24
	BYTE		        En3 
	BYTE		N10     En4 
	BYTE	W24
	BYTE	PEND
// 034   ----------------------------------------
	BYTE	PATT
	 POIN2	26-Fight_(Final)_1_001
// 035   ----------------------------------------
	BYTE		N10     Ds4   v100
	BYTE	W24
	BYTE		N10   
	BYTE	W24
	BYTE		        Dn4 
	BYTE	W12
	BYTE		        As3 
	BYTE	W12
// 036   ----------------------------------------
	BYTE		        Gn3 
	BYTE	W12
	BYTE		        Dn4 
	BYTE	W12
	BYTE		        As3 
	BYTE	W12
	BYTE		        Gn3 
	BYTE	W12
	BYTE		        Ds4 
	BYTE	W24
// 037   ----------------------------------------
	BYTE		N10   
	BYTE	W24
	BYTE		        Dn4 
	BYTE	W24
	BYTE		        As3 
	BYTE	W12
	BYTE		        Dn4 
	BYTE	W12
// 038   ----------------------------------------
26-Fight_(Final)_1_038:
	BYTE	W12
	BYTE		N10     As3   v100
	BYTE	W12
	BYTE		        Ds4 
	BYTE	W24
	BYTE		        Cn4 
	BYTE	W24
	BYTE	PEND
// 039   ----------------------------------------
	BYTE		        Gs3 
	BYTE	W24
	BYTE		        Dn4 
	BYTE	W24
	BYTE		        As3 
	BYTE	W12
	BYTE		        Dn4 
	BYTE	W12
// 040   ----------------------------------------
	BYTE	PATT
	 POIN2	26-Fight_(Final)_1_038
// 041   ----------------------------------------
	BYTE		N10     Gs3   v100
	BYTE	W24
	BYTE		N21     Dn4 
	BYTE		N16     Dn5 
	BYTE	W24
	BYTE		N21     As3 
	BYTE		N21     As4 
	BYTE	W24
// 042   ----------------------------------------
	BYTE		        Gn3 
	BYTE		N21     Gn4 
	BYTE	W24
	BYTE		        Cn4 
	BYTE		N14     Cn5 
	BYTE	W24
	BYTE		N21     An3 
	BYTE		N17     An4 
	BYTE	W24
// 043   ----------------------------------------
	BYTE		N21     Fn3 
	BYTE		N17     Fn4 
	BYTE	W24
	BYTE		N10     Cs4 
	BYTE		N10     Cs5 
	BYTE	W24
	BYTE		        As3 
	BYTE		N10     As4 
	BYTE	W24
// 044   ----------------------------------------
	BYTE		        Gn3 
	BYTE		N10     Gn4 
	BYTE	W24
	BYTE		        Cn4 
	BYTE	W01
	BYTE		VOL     124*26-Fight_(Final)_mvl/mxv
	BYTE	W03
	BYTE		        125*26-Fight_(Final)_mvl/mxv
	BYTE	W05
	BYTE		        126*26-Fight_(Final)_mvl/mxv
	BYTE	W03
	BYTE		        123*26-Fight_(Final)_mvl/mxv
	BYTE		N10     Gs3 
	BYTE	W12
	BYTE		        Fn3 
	BYTE	W12
	BYTE		        Cn4 
	BYTE	W12
// 045   ----------------------------------------
	BYTE		        Gs3 
	BYTE	W12
	BYTE		        Fn3 
	BYTE	W12
	BYTE		        Cs4 
	BYTE	W24
	BYTE		N10   
	BYTE	W24
// 046   ----------------------------------------
	BYTE	PATT
	 POIN2	26-Fight_(Final)_1_014
// 047   ----------------------------------------
	BYTE		N10     Cs4   v100
	BYTE	W24
	BYTE		N10   
	BYTE	W24
	BYTE		        Cn4 
	BYTE	W24
// 048   ----------------------------------------
26-Fight_(Final)_1_048:
	BYTE		N10     Gs3   v100
	BYTE	W12
	BYTE		        Cn4 
	BYTE	W24
	BYTE		        Gs3 
	BYTE	W12
	BYTE		        Cs4 
	BYTE	W24
	BYTE	PEND
// 049   ----------------------------------------
	BYTE		        As3 
	BYTE	W24
	BYTE		        Fs3 
	BYTE	W24
	BYTE		        Cn4 
	BYTE	W24
// 050   ----------------------------------------
	BYTE	PATT
	 POIN2	26-Fight_(Final)_1_048
// 051   ----------------------------------------
	BYTE		N10     As3   v100
	BYTE	W24
	BYTE		        Fs3 
	BYTE	W24
	BYTE		N21     Cn4 
	BYTE		N16     Cn5 
	BYTE	W24
// 052   ----------------------------------------
	BYTE		N21     Gs3 
	BYTE		N21     Gs4 
	BYTE	W24
	BYTE		        Fn3 
	BYTE		N21     Fn4 
	BYTE	W24
	BYTE		        As3 
	BYTE		N14     As4 
	BYTE	W24
// 053   ----------------------------------------
	BYTE		N21     Gn3 
	BYTE		N17     Gn4 
	BYTE	W24
	BYTE		N21     Ds3 
	BYTE		N17     Ds4 
	BYTE	W24
	BYTE		N10     Bn3 
	BYTE		N10     Bn4 
	BYTE	W24
// 054   ----------------------------------------
	BYTE		        Gs3 
	BYTE		N10     Gs4 
	BYTE	W24
	BYTE		        Fn3 
	BYTE		N10     Fn4 
	BYTE	W24
	BYTE	W01
	BYTE		VOL     124*26-Fight_(Final)_mvl/mxv
	BYTE		N10     Bn3 
	BYTE	W03
	BYTE		VOL     125*26-Fight_(Final)_mvl/mxv
	BYTE	W05
	BYTE		        126*26-Fight_(Final)_mvl/mxv
	BYTE	W03
	BYTE		        123*26-Fight_(Final)_mvl/mxv
	BYTE		N10     Gn3 
	BYTE	W12
// 055   ----------------------------------------
	BYTE		        En3 
	BYTE	W12
	BYTE		        Bn3 
	BYTE	W12
	BYTE		        Gn3 
	BYTE	W12
	BYTE		        En3 
	BYTE	W12
	BYTE		        Cn4 
	BYTE	W24
// 056   ----------------------------------------
	BYTE		N10   
	BYTE	W24
	BYTE		        Bn3 
	BYTE	W12
	BYTE		        Gn3 
	BYTE	W12
	BYTE		        En3 
	BYTE	W12
	BYTE		        Bn3 
	BYTE	W12
// 057   ----------------------------------------
	BYTE		        Gn3 
	BYTE	W12
	BYTE		        En3 
	BYTE	W12
	BYTE		        Cn4 
	BYTE	W24
	BYTE		N10   
	BYTE	W24
// 058   ----------------------------------------
	BYTE	PATT
	 POIN2	26-Fight_(Final)_1_027
// 059   ----------------------------------------
	BYTE	PATT
	 POIN2	26-Fight_(Final)_1_028
// 060   ----------------------------------------
	BYTE	PATT
	 POIN2	26-Fight_(Final)_1_027
// 061   ----------------------------------------
	BYTE	PATT
	 POIN2	26-Fight_(Final)_1_028
// 062   ----------------------------------------
	BYTE	PATT
	 POIN2	26-Fight_(Final)_1_031
// 063   ----------------------------------------
	BYTE	PATT
	 POIN2	26-Fight_(Final)_1_032
// 064   ----------------------------------------
	BYTE	PATT
	 POIN2	26-Fight_(Final)_1_033
// 065   ----------------------------------------
	BYTE	PATT
	 POIN2	26-Fight_(Final)_1_001
// 066   ----------------------------------------
	BYTE		N10     Ds4   v100
	BYTE	W24
	BYTE		N10   
	BYTE	W24
	BYTE		        Dn4 
	BYTE	W11
	BYTE		VOL     122*26-Fight_(Final)_mvl/mxv
	BYTE	W01
	BYTE		N10     As3 
	BYTE	W05
	BYTE		VOL     121*26-Fight_(Final)_mvl/mxv
	BYTE	W06
	BYTE		        120*26-Fight_(Final)_mvl/mxv
	BYTE	W01
// 067   ----------------------------------------
	BYTE		N10     Gn3 
	BYTE	W05
	BYTE		VOL     119*26-Fight_(Final)_mvl/mxv
	BYTE	W06
	BYTE		        118*26-Fight_(Final)_mvl/mxv
	BYTE	W01
	BYTE		N10     Dn4 
	BYTE	W05
	BYTE		VOL     117*26-Fight_(Final)_mvl/mxv
	BYTE	W06
	BYTE		        116*26-Fight_(Final)_mvl/mxv
	BYTE	W01
	BYTE		N10     As3 
	BYTE	W05
	BYTE		VOL     115*26-Fight_(Final)_mvl/mxv
	BYTE	W06
	BYTE		        114*26-Fight_(Final)_mvl/mxv
	BYTE	W01
	BYTE		N10     Gn3 
	BYTE	W05
	BYTE		VOL     113*26-Fight_(Final)_mvl/mxv
	BYTE	W06
	BYTE		        112*26-Fight_(Final)_mvl/mxv
	BYTE	W01
	BYTE		N10     Ds4 
	BYTE	W05
	BYTE		VOL     111*26-Fight_(Final)_mvl/mxv
	BYTE	W06
	BYTE		        110*26-Fight_(Final)_mvl/mxv
	BYTE	W06
	BYTE		        109*26-Fight_(Final)_mvl/mxv
	BYTE	W06
	BYTE		        108*26-Fight_(Final)_mvl/mxv
	BYTE	W01
// 068   ----------------------------------------
	BYTE		N10   
	BYTE	W05
	BYTE		VOL     107*26-Fight_(Final)_mvl/mxv
	BYTE	W06
	BYTE		        106*26-Fight_(Final)_mvl/mxv
	BYTE	W06
	BYTE		        105*26-Fight_(Final)_mvl/mxv
	BYTE	W06
	BYTE		        104*26-Fight_(Final)_mvl/mxv
	BYTE	W01
	BYTE		N10     Dn4 
	BYTE	W05
	BYTE		VOL     103*26-Fight_(Final)_mvl/mxv
	BYTE	W06
	BYTE		        102*26-Fight_(Final)_mvl/mxv
	BYTE	W06
	BYTE		        101*26-Fight_(Final)_mvl/mxv
	BYTE	W06
	BYTE		        100*26-Fight_(Final)_mvl/mxv
	BYTE	W01
	BYTE		N10     As3 
	BYTE	W05
	BYTE		VOL     99*26-Fight_(Final)_mvl/mxv
	BYTE	W06
	BYTE		        98*26-Fight_(Final)_mvl/mxv
	BYTE	W01
	BYTE		N10     Dn4 
	BYTE	W05
	BYTE		VOL     97*26-Fight_(Final)_mvl/mxv
	BYTE	W06
	BYTE		        96*26-Fight_(Final)_mvl/mxv
	BYTE	W01
// 069   ----------------------------------------
	BYTE	W05
	BYTE		        95*26-Fight_(Final)_mvl/mxv
	BYTE	W06
	BYTE		        94*26-Fight_(Final)_mvl/mxv
	BYTE	W01
	BYTE		N10     As3 
	BYTE	W05
	BYTE		VOL     93*26-Fight_(Final)_mvl/mxv
	BYTE	W06
	BYTE		        92*26-Fight_(Final)_mvl/mxv
	BYTE	W01
	BYTE		N10     Ds4 
	BYTE	W05
	BYTE		VOL     91*26-Fight_(Final)_mvl/mxv
	BYTE	W06
	BYTE		        90*26-Fight_(Final)_mvl/mxv
	BYTE	W06
	BYTE		        89*26-Fight_(Final)_mvl/mxv
	BYTE	W06
	BYTE		        88*26-Fight_(Final)_mvl/mxv
	BYTE	W01
	BYTE		N10     Cn4 
	BYTE	W05
	BYTE		VOL     87*26-Fight_(Final)_mvl/mxv
	BYTE	W06
	BYTE		        86*26-Fight_(Final)_mvl/mxv
	BYTE	W07
	BYTE		        85*26-Fight_(Final)_mvl/mxv
	BYTE	W06
// 070   ----------------------------------------
	BYTE		        84*26-Fight_(Final)_mvl/mxv
	BYTE		N10     Gs3 
	BYTE	W06
	BYTE		VOL     83*26-Fight_(Final)_mvl/mxv
	BYTE	W06
	BYTE		        82*26-Fight_(Final)_mvl/mxv
	BYTE	W06
	BYTE		        81*26-Fight_(Final)_mvl/mxv
	BYTE	W06
	BYTE		        80*26-Fight_(Final)_mvl/mxv
	BYTE		N10     Dn4 
	BYTE	W06
	BYTE		VOL     79*26-Fight_(Final)_mvl/mxv
	BYTE	W06
	BYTE		        78*26-Fight_(Final)_mvl/mxv
	BYTE	W06
	BYTE		        77*26-Fight_(Final)_mvl/mxv
	BYTE	W06
	BYTE		        76*26-Fight_(Final)_mvl/mxv
	BYTE		N10     As3 
	BYTE	W06
	BYTE		VOL     75*26-Fight_(Final)_mvl/mxv
	BYTE	W06
	BYTE		        74*26-Fight_(Final)_mvl/mxv
	BYTE		N10     Dn4 
	BYTE	W06
	BYTE		VOL     73*26-Fight_(Final)_mvl/mxv
	BYTE	W06
// 071   ----------------------------------------
	BYTE		        72*26-Fight_(Final)_mvl/mxv
	BYTE	W06
	BYTE		        71*26-Fight_(Final)_mvl/mxv
	BYTE	W06
	BYTE		        70*26-Fight_(Final)_mvl/mxv
	BYTE		N10     As3 
	BYTE	W06
	BYTE		VOL     69*26-Fight_(Final)_mvl/mxv
	BYTE	W06
	BYTE		        68*26-Fight_(Final)_mvl/mxv
	BYTE		N10     Ds4 
	BYTE	W06
	BYTE		VOL     67*26-Fight_(Final)_mvl/mxv
	BYTE	W06
	BYTE		        66*26-Fight_(Final)_mvl/mxv
	BYTE	W06
	BYTE		        65*26-Fight_(Final)_mvl/mxv
	BYTE	W06
	BYTE		        64*26-Fight_(Final)_mvl/mxv
	BYTE		N10     Cn4 
	BYTE	W06
	BYTE		VOL     63*26-Fight_(Final)_mvl/mxv
	BYTE	W06
	BYTE		        62*26-Fight_(Final)_mvl/mxv
	BYTE	W06
	BYTE		        61*26-Fight_(Final)_mvl/mxv
	BYTE	W06
// 072   ----------------------------------------
	BYTE		        60*26-Fight_(Final)_mvl/mxv
	BYTE		N10     Gs3 
	BYTE	W06
	BYTE		VOL     59*26-Fight_(Final)_mvl/mxv
	BYTE	W06
	BYTE		        58*26-Fight_(Final)_mvl/mxv
	BYTE	W06
	BYTE		        57*26-Fight_(Final)_mvl/mxv
	BYTE	W06
	BYTE		        56*26-Fight_(Final)_mvl/mxv
	BYTE		N21     Dn4 
	BYTE		N16     Dn5 
	BYTE	W06
	BYTE		VOL     55*26-Fight_(Final)_mvl/mxv
	BYTE	W06
	BYTE		        54*26-Fight_(Final)_mvl/mxv
	BYTE	W06
	BYTE		        53*26-Fight_(Final)_mvl/mxv
	BYTE	W06
	BYTE		        52*26-Fight_(Final)_mvl/mxv
	BYTE		N21     As3 
	BYTE		N21     As4 
	BYTE	W06
	BYTE		VOL     51*26-Fight_(Final)_mvl/mxv
	BYTE	W06
	BYTE		        50*26-Fight_(Final)_mvl/mxv
	BYTE	W06
	BYTE		        49*26-Fight_(Final)_mvl/mxv
	BYTE	W06
// 073   ----------------------------------------
	BYTE		        48*26-Fight_(Final)_mvl/mxv
	BYTE		N21     Gn3 
	BYTE		N21     Gn4 
	BYTE	W08
	BYTE		VOL     47*26-Fight_(Final)_mvl/mxv
	BYTE	W06
	BYTE		        46*26-Fight_(Final)_mvl/mxv
	BYTE	W06
	BYTE		        45*26-Fight_(Final)_mvl/mxv
	BYTE	W04
	BYTE		N21     Cn4 
	BYTE		N14     Cn5 
	BYTE	W02
	BYTE		VOL     44*26-Fight_(Final)_mvl/mxv
	BYTE	W06
	BYTE		        43*26-Fight_(Final)_mvl/mxv
	BYTE	W06
	BYTE		        42*26-Fight_(Final)_mvl/mxv
	BYTE	W06
	BYTE		        41*26-Fight_(Final)_mvl/mxv
	BYTE	W04
	BYTE		N21     An3 
	BYTE		N17     An4 
	BYTE	W02
	BYTE		VOL     40*26-Fight_(Final)_mvl/mxv
	BYTE	W06
	BYTE		        39*26-Fight_(Final)_mvl/mxv
	BYTE	W06
	BYTE		        38*26-Fight_(Final)_mvl/mxv
	BYTE	W06
	BYTE		        37*26-Fight_(Final)_mvl/mxv
	BYTE	W04
// 074   ----------------------------------------
	BYTE		N21     Fn3 
	BYTE		N17     Fn4 
	BYTE	W02
	BYTE		VOL     36*26-Fight_(Final)_mvl/mxv
	BYTE	W06
	BYTE		        35*26-Fight_(Final)_mvl/mxv
	BYTE	W06
	BYTE		        34*26-Fight_(Final)_mvl/mxv
	BYTE	W06
	BYTE		        33*26-Fight_(Final)_mvl/mxv
	BYTE	W04
	BYTE		N10     Cs4 
	BYTE		N10     Cs5 
	BYTE	W02
	BYTE		VOL     32*26-Fight_(Final)_mvl/mxv
	BYTE	W06
	BYTE		        31*26-Fight_(Final)_mvl/mxv
	BYTE	W06
	BYTE		        30*26-Fight_(Final)_mvl/mxv
	BYTE	W06
	BYTE		        29*26-Fight_(Final)_mvl/mxv
	BYTE	W04
	BYTE		N10     As3 
	BYTE		N10     As4 
	BYTE	W02
	BYTE		VOL     28*26-Fight_(Final)_mvl/mxv
	BYTE	W06
	BYTE		        27*26-Fight_(Final)_mvl/mxv
	BYTE	W06
	BYTE		        26*26-Fight_(Final)_mvl/mxv
	BYTE	W06
	BYTE		        25*26-Fight_(Final)_mvl/mxv
	BYTE	W04
// 075   ----------------------------------------
	BYTE		N10     Gn3 
	BYTE		N10     Gn4 
	BYTE	W02
	BYTE		VOL     24*26-Fight_(Final)_mvl/mxv
	BYTE	W06
	BYTE		        23*26-Fight_(Final)_mvl/mxv
	BYTE	W06
	BYTE		        22*26-Fight_(Final)_mvl/mxv
	BYTE	W06
	BYTE		        21*26-Fight_(Final)_mvl/mxv
	BYTE	W04
	BYTE		N10     Cn4 
	BYTE	W02
	BYTE		VOL     20*26-Fight_(Final)_mvl/mxv
	BYTE	W06
	BYTE		        19*26-Fight_(Final)_mvl/mxv
	BYTE	W04
	BYTE		N10     Gs3 
	BYTE	W02
	BYTE		VOL     18*26-Fight_(Final)_mvl/mxv
	BYTE	W06
	BYTE		        17*26-Fight_(Final)_mvl/mxv
	BYTE	W04
	BYTE		N10     Fn3 
	BYTE	W02
	BYTE		VOL     16*26-Fight_(Final)_mvl/mxv
	BYTE	W06
	BYTE		        15*26-Fight_(Final)_mvl/mxv
	BYTE	W04
	BYTE		N10     Cn4 
	BYTE	W02
	BYTE		VOL     14*26-Fight_(Final)_mvl/mxv
	BYTE	W06
	BYTE		        13*26-Fight_(Final)_mvl/mxv
	BYTE	W04
// 076   ----------------------------------------
	BYTE		N10     Gs3 
	BYTE	W02
	BYTE		VOL     12*26-Fight_(Final)_mvl/mxv
	BYTE	W06
	BYTE		        11*26-Fight_(Final)_mvl/mxv
	BYTE	W04
	BYTE		N10     Fn3 
	BYTE	W02
	BYTE		VOL     10*26-Fight_(Final)_mvl/mxv
	BYTE	W07
	BYTE		        9*26-Fight_(Final)_mvl/mxv
	BYTE	W03
	BYTE		N10     Cs4 
	BYTE	W03
	BYTE		VOL     8*26-Fight_(Final)_mvl/mxv
	BYTE	W06
	BYTE		        7*26-Fight_(Final)_mvl/mxv
	BYTE	W06
	BYTE		        6*26-Fight_(Final)_mvl/mxv
	BYTE	W06
	BYTE		        5*26-Fight_(Final)_mvl/mxv
	BYTE	W03
	BYTE		N10   
	BYTE	W03
	BYTE		VOL     4*26-Fight_(Final)_mvl/mxv
	BYTE	W06
	BYTE		        3*26-Fight_(Final)_mvl/mxv
	BYTE	W06
	BYTE		        2*26-Fight_(Final)_mvl/mxv
	BYTE	W09
// 077   ----------------------------------------
	BYTE	W48
	BYTE	FINE

//**************** Track 2 (Midi-Chn.2) ****************//

26-Fight_(Final)_2:
	BYTE	KEYSH   26-Fight_(Final)_key+0
// 000   ----------------------------------------
	BYTE	W72
// 001   ----------------------------------------
	BYTE		VOICE   48
	BYTE		VOL     123*26-Fight_(Final)_mvl/mxv
	BYTE		N10     As3   v100
	BYTE	W12
	BYTE		        Gn3 
	BYTE	W12
	BYTE		        Dn3 
	BYTE	W12
	BYTE		        As3 
	BYTE	W12
	BYTE		        Gn3 
	BYTE	W12
	BYTE		        Dn3 
	BYTE	W12
// 002   ----------------------------------------
26-Fight_(Final)_2_002:
	BYTE		N21     Gs3   v100
	BYTE		N21     Cn4 
	BYTE	W24
	BYTE		        Gs3 
	BYTE		N21     Cn4 
	BYTE	W24
	BYTE	PEND
// 003   ----------------------------------------
26-Fight_(Final)_2_003:
	BYTE		N10     As3   v100
	BYTE	W12
	BYTE		        Gn3 
	BYTE	W12
	BYTE		        Dn3 
	BYTE	W12
	BYTE		        As3 
	BYTE	W12
	BYTE		        Gn3 
	BYTE	W12
	BYTE		        Dn3 
	BYTE	W12
	BYTE	PEND
// 004   ----------------------------------------
	BYTE	PATT
	 POIN2	26-Fight_(Final)_2_002
// 005   ----------------------------------------
26-Fight_(Final)_2_005:
	BYTE		N21     Gn3   v100
	BYTE	W24
	BYTE		N10     Dn3 
	BYTE	W12
	BYTE		N21     Gn3 
	BYTE	W24
	BYTE		N10     Dn3 
	BYTE	W12
	BYTE	PEND
// 006   ----------------------------------------
26-Fight_(Final)_2_006:
	BYTE		N21     Gs2   v100
	BYTE		N21     Cn4 
	BYTE	W24
	BYTE		        Cn3 
	BYTE		N21     Gs3 
	BYTE	W24
	BYTE		        Gs2 
	BYTE		N21     Ds3 
	BYTE	W24
	BYTE	PEND
// 007   ----------------------------------------
	BYTE	PATT
	 POIN2	26-Fight_(Final)_2_005
// 008   ----------------------------------------
	BYTE	PATT
	 POIN2	26-Fight_(Final)_2_006
// 009   ----------------------------------------
	BYTE		N64     Gn3   v100
	BYTE		N64     Dn4 
	BYTE	W72
// 010   ----------------------------------------
	BYTE		        An3 
	BYTE		N64     Fn4 
	BYTE	W72
// 011   ----------------------------------------
	BYTE		        As3 
	BYTE		N64     Gn4 
	BYTE	W72
// 012   ----------------------------------------
26-Fight_(Final)_2_012:
	BYTE		N10     Gs3   v100
	BYTE	W12
	BYTE		        Fn3 
	BYTE	W12
	BYTE		        Cn3 
	BYTE	W12
	BYTE		        Gs3 
	BYTE	W12
	BYTE		        Fn3 
	BYTE	W12
	BYTE		        Cn3 
	BYTE	W12
	BYTE	PEND
// 013   ----------------------------------------
26-Fight_(Final)_2_013:
	BYTE		N21     Fs3   v100
	BYTE		N21     As3 
	BYTE	W24
	BYTE		        Fs3 
	BYTE		N21     As3 
	BYTE	W24
	BYTE	PEND
// 014   ----------------------------------------
	BYTE	PATT
	 POIN2	26-Fight_(Final)_2_012
// 015   ----------------------------------------
	BYTE	PATT
	 POIN2	26-Fight_(Final)_2_013
// 016   ----------------------------------------
26-Fight_(Final)_2_016:
	BYTE		N21     Fn3   v100
	BYTE	W24
	BYTE		N10     Cn3 
	BYTE	W12
	BYTE		N21     Fn3 
	BYTE	W24
	BYTE		N10     Cn3 
	BYTE	W12
	BYTE	PEND
// 017   ----------------------------------------
26-Fight_(Final)_2_017:
	BYTE		N21     Fs2   v100
	BYTE		N21     As3 
	BYTE	W24
	BYTE		        As2 
	BYTE		N21     Fs3 
	BYTE	W24
	BYTE		        Fs2 
	BYTE		N21     Cs3 
	BYTE	W24
	BYTE	PEND
// 018   ----------------------------------------
	BYTE	PATT
	 POIN2	26-Fight_(Final)_2_016
// 019   ----------------------------------------
	BYTE	PATT
	 POIN2	26-Fight_(Final)_2_017
// 020   ----------------------------------------
	BYTE		N64     Fn3   v100
	BYTE		N64     Cn4 
	BYTE	W72
// 021   ----------------------------------------
	BYTE		        Gn3 
	BYTE		N64     Ds4 
	BYTE	W72
// 022   ----------------------------------------
	BYTE		        Gs3 
	BYTE		N64     Fn4 
	BYTE	W72
// 023   ----------------------------------------
26-Fight_(Final)_2_023:
	BYTE		N10     Gn3   v100
	BYTE	W12
	BYTE		        En3 
	BYTE	W12
	BYTE		        Bn2 
	BYTE	W12
	BYTE		        Gn3 
	BYTE	W12
	BYTE		        En3 
	BYTE	W12
	BYTE		        Bn2 
	BYTE	W12
	BYTE	PEND
// 024   ----------------------------------------
26-Fight_(Final)_2_024:
	BYTE		N21     Fn3   v100
	BYTE		N21     An3 
	BYTE	W24
	BYTE		        Fn3 
	BYTE		N21     An3 
	BYTE	W24
	BYTE	PEND
// 025   ----------------------------------------
	BYTE	PATT
	 POIN2	26-Fight_(Final)_2_023
// 026   ----------------------------------------
	BYTE	PATT
	 POIN2	26-Fight_(Final)_2_024
// 027   ----------------------------------------
26-Fight_(Final)_2_027:
	BYTE		N21     En3   v100
	BYTE	W24
	BYTE		N10     Bn2 
	BYTE	W12
	BYTE		N21     En3 
	BYTE	W24
	BYTE		N10     Bn2 
	BYTE	W12
	BYTE	PEND
// 028   ----------------------------------------
26-Fight_(Final)_2_028:
	BYTE		N21     Fn2   v100
	BYTE		N21     An3 
	BYTE	W24
	BYTE		        An2 
	BYTE		N21     Fn3 
	BYTE	W24
	BYTE		        Fn2 
	BYTE		N21     Cn3 
	BYTE	W24
	BYTE	PEND
// 029   ----------------------------------------
	BYTE	PATT
	 POIN2	26-Fight_(Final)_2_027
// 030   ----------------------------------------
	BYTE	PATT
	 POIN2	26-Fight_(Final)_2_028
// 031   ----------------------------------------
	BYTE		N64     En3   v100
	BYTE		N64     Bn3 
	BYTE	W72
// 032   ----------------------------------------
	BYTE		        Fs3 
	BYTE		N64     Dn4 
	BYTE	W72
// 033   ----------------------------------------
	BYTE		        Gn3 
	BYTE		N64     En4 
	BYTE	W72
// 034   ----------------------------------------
	BYTE	PATT
	 POIN2	26-Fight_(Final)_2_003
// 035   ----------------------------------------
	BYTE		N21     Gs3   v100
	BYTE		N21     Cn4 
	BYTE	W24
	BYTE		        Gs3 
	BYTE		N21     Cn4 
	BYTE	W24
	BYTE		N10     As3 
	BYTE	W12
	BYTE		        Gn3 
	BYTE	W12
// 036   ----------------------------------------
	BYTE		        Dn3 
	BYTE	W12
	BYTE		        As3 
	BYTE	W12
	BYTE		        Gn3 
	BYTE	W12
	BYTE		        Dn3 
	BYTE	W12
	BYTE		N21     Gs3 
	BYTE		N21     Cn4 
	BYTE	W24
// 037   ----------------------------------------
	BYTE		        Gs3 
	BYTE		N21     Cn4 
	BYTE	W24
	BYTE		        Gn3 
	BYTE	W24
	BYTE		N10     Dn3 
	BYTE	W12
	BYTE		N21     Gn3 
	BYTE	W12
// 038   ----------------------------------------
26-Fight_(Final)_2_038:
	BYTE	W12
	BYTE		N10     Dn3   v100
	BYTE	W12
	BYTE		N21     Gs2 
	BYTE		N21     Cn4 
	BYTE	W24
	BYTE		        Cn3 
	BYTE		N21     Gs3 
	BYTE	W24
	BYTE	PEND
// 039   ----------------------------------------
	BYTE		        Gs2 
	BYTE		N21     Ds3 
	BYTE	W24
	BYTE		        Gn3 
	BYTE	W24
	BYTE		N10     Dn3 
	BYTE	W12
	BYTE		N21     Gn3 
	BYTE	W12
// 040   ----------------------------------------
	BYTE	PATT
	 POIN2	26-Fight_(Final)_2_038
// 041   ----------------------------------------
	BYTE		N21     Gs2   v100
	BYTE		N21     Ds3 
	BYTE	W24
	BYTE		N64     Gn3 
	BYTE		N64     Dn4 
	BYTE	W48
// 042   ----------------------------------------
	BYTE	W24
	BYTE		        An3 
	BYTE		N64     Fn4 
	BYTE	W48
// 043   ----------------------------------------
	BYTE	W24
	BYTE		        As3 
	BYTE		N64     Gn4 
	BYTE	W48
// 044   ----------------------------------------
	BYTE	W24
	BYTE		N10     Gs3 
	BYTE	W12
	BYTE		        Fn3 
	BYTE	W12
	BYTE		        Cn3 
	BYTE	W12
	BYTE		        Gs3 
	BYTE	W12
// 045   ----------------------------------------
	BYTE		        Fn3 
	BYTE	W12
	BYTE		        Cn3 
	BYTE	W12
	BYTE		N21     Fs3 
	BYTE		N21     As3 
	BYTE	W24
	BYTE		        Fs3 
	BYTE		N21     As3 
	BYTE	W24
// 046   ----------------------------------------
	BYTE	PATT
	 POIN2	26-Fight_(Final)_2_012
// 047   ----------------------------------------
	BYTE		N21     Fs3   v100
	BYTE		N21     As3 
	BYTE	W24
	BYTE		        Fs3 
	BYTE		N21     As3 
	BYTE	W24
	BYTE		        Fn3 
	BYTE	W24
// 048   ----------------------------------------
26-Fight_(Final)_2_048:
	BYTE		N10     Cn3   v100
	BYTE	W12
	BYTE		N21     Fn3 
	BYTE	W24
	BYTE		N10     Cn3 
	BYTE	W12
	BYTE		N21     Fs2 
	BYTE		N21     As3 
	BYTE	W24
	BYTE	PEND
// 049   ----------------------------------------
	BYTE		        As2 
	BYTE		N21     Fs3 
	BYTE	W24
	BYTE		        Fs2 
	BYTE		N21     Cs3 
	BYTE	W24
	BYTE		        Fn3 
	BYTE	W24
// 050   ----------------------------------------
	BYTE	PATT
	 POIN2	26-Fight_(Final)_2_048
// 051   ----------------------------------------
	BYTE		N21     As2   v100
	BYTE		N21     Fs3 
	BYTE	W24
	BYTE		        Fs2 
	BYTE		N21     Cs3 
	BYTE	W24
	BYTE		N64     Fn3 
	BYTE		N64     Cn4 
	BYTE	W24
// 052   ----------------------------------------
	BYTE	W48
	BYTE		        Gn3 
	BYTE		N64     Ds4 
	BYTE	W24
// 053   ----------------------------------------
	BYTE	W48
	BYTE		        Gs3 
	BYTE		N64     Fn4 
	BYTE	W24
// 054   ----------------------------------------
	BYTE	W48
	BYTE		N10     Gn3 
	BYTE	W12
	BYTE		        En3 
	BYTE	W12
// 055   ----------------------------------------
	BYTE		        Bn2 
	BYTE	W12
	BYTE		        Gn3 
	BYTE	W12
	BYTE		        En3 
	BYTE	W12
	BYTE		        Bn2 
	BYTE	W12
	BYTE		N21     Fn3 
	BYTE		N21     An3 
	BYTE	W24
// 056   ----------------------------------------
	BYTE		        Fn3 
	BYTE		N21     An3 
	BYTE	W24
	BYTE		N10     Gn3 
	BYTE	W12
	BYTE		        En3 
	BYTE	W12
	BYTE		        Bn2 
	BYTE	W12
	BYTE		        Gn3 
	BYTE	W12
// 057   ----------------------------------------
	BYTE		        En3 
	BYTE	W12
	BYTE		        Bn2 
	BYTE	W12
	BYTE		N21     Fn3 
	BYTE		N21     An3 
	BYTE	W24
	BYTE		        Fn3 
	BYTE		N21     An3 
	BYTE	W24
// 058   ----------------------------------------
	BYTE	PATT
	 POIN2	26-Fight_(Final)_2_027
// 059   ----------------------------------------
	BYTE	PATT
	 POIN2	26-Fight_(Final)_2_028
// 060   ----------------------------------------
	BYTE	PATT
	 POIN2	26-Fight_(Final)_2_027
// 061   ----------------------------------------
	BYTE	PATT
	 POIN2	26-Fight_(Final)_2_028
// 062   ----------------------------------------
	BYTE		N64     En3   v100
	BYTE		N64     Bn3 
	BYTE	W72
// 063   ----------------------------------------
	BYTE		        Fs3 
	BYTE		N64     Dn4 
	BYTE	W72
// 064   ----------------------------------------
	BYTE		        Gn3 
	BYTE		N64     En4 
	BYTE	W72
// 065   ----------------------------------------
	BYTE	PATT
	 POIN2	26-Fight_(Final)_2_003
// 066   ----------------------------------------
	BYTE		N21     Gs3   v100
	BYTE		N21     Cn4 
	BYTE	W24
	BYTE		        Gs3 
	BYTE		N21     Cn4 
	BYTE	W24
	BYTE		N10     As3 
	BYTE	W07
	BYTE		VOL     122*26-Fight_(Final)_mvl/mxv
	BYTE	W05
	BYTE		N10     Gn3 
	BYTE	W01
	BYTE		VOL     121*26-Fight_(Final)_mvl/mxv
	BYTE	W06
	BYTE		        120*26-Fight_(Final)_mvl/mxv
	BYTE	W05
// 067   ----------------------------------------
	BYTE		N10     Dn3 
	BYTE	W01
	BYTE		VOL     119*26-Fight_(Final)_mvl/mxv
	BYTE	W06
	BYTE		        118*26-Fight_(Final)_mvl/mxv
	BYTE	W05
	BYTE		N10     As3 
	BYTE	W01
	BYTE		VOL     117*26-Fight_(Final)_mvl/mxv
	BYTE	W06
	BYTE		        116*26-Fight_(Final)_mvl/mxv
	BYTE	W05
	BYTE		N10     Gn3 
	BYTE	W01
	BYTE		VOL     115*26-Fight_(Final)_mvl/mxv
	BYTE	W06
	BYTE		        114*26-Fight_(Final)_mvl/mxv
	BYTE	W05
	BYTE		N10     Dn3 
	BYTE	W01
	BYTE		VOL     113*26-Fight_(Final)_mvl/mxv
	BYTE	W06
	BYTE		        112*26-Fight_(Final)_mvl/mxv
	BYTE	W05
	BYTE		N21     Gs3 
	BYTE		N21     Cn4 
	BYTE	W01
	BYTE		VOL     111*26-Fight_(Final)_mvl/mxv
	BYTE	W06
	BYTE		        110*26-Fight_(Final)_mvl/mxv
	BYTE	W06
	BYTE		        109*26-Fight_(Final)_mvl/mxv
	BYTE	W06
	BYTE		        108*26-Fight_(Final)_mvl/mxv
	BYTE	W05
// 068   ----------------------------------------
	BYTE		N21     Gs3 
	BYTE		N21     Cn4 
	BYTE	W01
	BYTE		VOL     107*26-Fight_(Final)_mvl/mxv
	BYTE	W06
	BYTE		        106*26-Fight_(Final)_mvl/mxv
	BYTE	W06
	BYTE		        105*26-Fight_(Final)_mvl/mxv
	BYTE	W06
	BYTE		        104*26-Fight_(Final)_mvl/mxv
	BYTE	W05
	BYTE		N21     Gn3 
	BYTE	W01
	BYTE		VOL     103*26-Fight_(Final)_mvl/mxv
	BYTE	W06
	BYTE		        102*26-Fight_(Final)_mvl/mxv
	BYTE	W06
	BYTE		        101*26-Fight_(Final)_mvl/mxv
	BYTE	W06
	BYTE		        100*26-Fight_(Final)_mvl/mxv
	BYTE	W05
	BYTE		N10     Dn3 
	BYTE	W01
	BYTE		VOL     99*26-Fight_(Final)_mvl/mxv
	BYTE	W06
	BYTE		        98*26-Fight_(Final)_mvl/mxv
	BYTE	W05
	BYTE		N21     Gn3 
	BYTE	W01
	BYTE		VOL     97*26-Fight_(Final)_mvl/mxv
	BYTE	W06
	BYTE		        96*26-Fight_(Final)_mvl/mxv
	BYTE	W05
// 069   ----------------------------------------
	BYTE	W01
	BYTE		        95*26-Fight_(Final)_mvl/mxv
	BYTE	W06
	BYTE		        94*26-Fight_(Final)_mvl/mxv
	BYTE	W05
	BYTE		N10     Dn3 
	BYTE	W01
	BYTE		VOL     93*26-Fight_(Final)_mvl/mxv
	BYTE	W06
	BYTE		        92*26-Fight_(Final)_mvl/mxv
	BYTE	W05
	BYTE		N21     Gs2 
	BYTE		N21     Cn4 
	BYTE	W01
	BYTE		VOL     91*26-Fight_(Final)_mvl/mxv
	BYTE	W06
	BYTE		        90*26-Fight_(Final)_mvl/mxv
	BYTE	W06
	BYTE		        89*26-Fight_(Final)_mvl/mxv
	BYTE	W06
	BYTE		        88*26-Fight_(Final)_mvl/mxv
	BYTE	W05
	BYTE		N21     Cn3 
	BYTE		N21     Gs3 
	BYTE	W01
	BYTE		VOL     87*26-Fight_(Final)_mvl/mxv
	BYTE	W06
	BYTE		        86*26-Fight_(Final)_mvl/mxv
	BYTE	W06
	BYTE		        85*26-Fight_(Final)_mvl/mxv
	BYTE	W04
	BYTE		        84*26-Fight_(Final)_mvl/mxv
	BYTE	W06
	BYTE		        83*26-Fight_(Final)_mvl/mxv
	BYTE	W01
// 070   ----------------------------------------
	BYTE		N21     Gs2 
	BYTE		N21     Ds3 
	BYTE	W05
	BYTE		VOL     82*26-Fight_(Final)_mvl/mxv
	BYTE	W06
	BYTE		        81*26-Fight_(Final)_mvl/mxv
	BYTE	W06
	BYTE		        80*26-Fight_(Final)_mvl/mxv
	BYTE	W06
	BYTE		        79*26-Fight_(Final)_mvl/mxv
	BYTE	W01
	BYTE		N21     Gn3 
	BYTE	W05
	BYTE		VOL     78*26-Fight_(Final)_mvl/mxv
	BYTE	W06
	BYTE		        77*26-Fight_(Final)_mvl/mxv
	BYTE	W06
	BYTE		        76*26-Fight_(Final)_mvl/mxv
	BYTE	W06
	BYTE		        75*26-Fight_(Final)_mvl/mxv
	BYTE	W01
	BYTE		N10     Dn3 
	BYTE	W05
	BYTE		VOL     74*26-Fight_(Final)_mvl/mxv
	BYTE	W06
	BYTE		        73*26-Fight_(Final)_mvl/mxv
	BYTE	W01
	BYTE		N21     Gn3 
	BYTE	W05
	BYTE		VOL     72*26-Fight_(Final)_mvl/mxv
	BYTE	W06
	BYTE		        71*26-Fight_(Final)_mvl/mxv
	BYTE	W01
// 071   ----------------------------------------
	BYTE	W05
	BYTE		        70*26-Fight_(Final)_mvl/mxv
	BYTE	W06
	BYTE		        69*26-Fight_(Final)_mvl/mxv
	BYTE	W01
	BYTE		N10     Dn3 
	BYTE	W05
	BYTE		VOL     68*26-Fight_(Final)_mvl/mxv
	BYTE	W06
	BYTE		        67*26-Fight_(Final)_mvl/mxv
	BYTE	W01
	BYTE		N21     Gs2 
	BYTE		N21     Cn4 
	BYTE	W05
	BYTE		VOL     66*26-Fight_(Final)_mvl/mxv
	BYTE	W06
	BYTE		        65*26-Fight_(Final)_mvl/mxv
	BYTE	W06
	BYTE		        64*26-Fight_(Final)_mvl/mxv
	BYTE	W06
	BYTE		        63*26-Fight_(Final)_mvl/mxv
	BYTE	W01
	BYTE		N21     Cn3 
	BYTE		N21     Gs3 
	BYTE	W05
	BYTE		VOL     62*26-Fight_(Final)_mvl/mxv
	BYTE	W06
	BYTE		        61*26-Fight_(Final)_mvl/mxv
	BYTE	W06
	BYTE		        60*26-Fight_(Final)_mvl/mxv
	BYTE	W06
	BYTE		        59*26-Fight_(Final)_mvl/mxv
	BYTE	W01
// 072   ----------------------------------------
	BYTE		N21     Gs2 
	BYTE		N21     Ds3 
	BYTE	W05
	BYTE		VOL     58*26-Fight_(Final)_mvl/mxv
	BYTE	W06
	BYTE		        57*26-Fight_(Final)_mvl/mxv
	BYTE	W06
	BYTE		        56*26-Fight_(Final)_mvl/mxv
	BYTE	W06
	BYTE		        55*26-Fight_(Final)_mvl/mxv
	BYTE	W01
	BYTE		N64     Gn3 
	BYTE		N64     Dn4 
	BYTE	W05
	BYTE		VOL     54*26-Fight_(Final)_mvl/mxv
	BYTE	W06
	BYTE		        53*26-Fight_(Final)_mvl/mxv
	BYTE	W06
	BYTE		        52*26-Fight_(Final)_mvl/mxv
	BYTE	W06
	BYTE		        51*26-Fight_(Final)_mvl/mxv
	BYTE	W06
	BYTE		        50*26-Fight_(Final)_mvl/mxv
	BYTE	W06
	BYTE		        49*26-Fight_(Final)_mvl/mxv
	BYTE	W06
	BYTE		        48*26-Fight_(Final)_mvl/mxv
	BYTE	W06
	BYTE		        47*26-Fight_(Final)_mvl/mxv
	BYTE	W01
// 073   ----------------------------------------
	BYTE	W05
	BYTE		        46*26-Fight_(Final)_mvl/mxv
	BYTE	W05
	BYTE		        45*26-Fight_(Final)_mvl/mxv
	BYTE	W06
	BYTE		        44*26-Fight_(Final)_mvl/mxv
	BYTE	W06
	BYTE		        43*26-Fight_(Final)_mvl/mxv
	BYTE	W02
	BYTE		N64     An3 
	BYTE		N64     Fn4 
	BYTE	W04
	BYTE		VOL     42*26-Fight_(Final)_mvl/mxv
	BYTE	W06
	BYTE		        41*26-Fight_(Final)_mvl/mxv
	BYTE	W06
	BYTE		        40*26-Fight_(Final)_mvl/mxv
	BYTE	W06
	BYTE		        39*26-Fight_(Final)_mvl/mxv
	BYTE	W06
	BYTE		        38*26-Fight_(Final)_mvl/mxv
	BYTE	W06
	BYTE		        37*26-Fight_(Final)_mvl/mxv
	BYTE	W06
	BYTE		        36*26-Fight_(Final)_mvl/mxv
	BYTE	W06
	BYTE		        35*26-Fight_(Final)_mvl/mxv
	BYTE	W02
// 074   ----------------------------------------
	BYTE	W04
	BYTE		        34*26-Fight_(Final)_mvl/mxv
	BYTE	W06
	BYTE		        33*26-Fight_(Final)_mvl/mxv
	BYTE	W06
	BYTE		        32*26-Fight_(Final)_mvl/mxv
	BYTE	W06
	BYTE		        31*26-Fight_(Final)_mvl/mxv
	BYTE	W02
	BYTE		N64     As3 
	BYTE		N64     Gn4 
	BYTE	W04
	BYTE		VOL     30*26-Fight_(Final)_mvl/mxv
	BYTE	W06
	BYTE		        29*26-Fight_(Final)_mvl/mxv
	BYTE	W06
	BYTE		        28*26-Fight_(Final)_mvl/mxv
	BYTE	W06
	BYTE		        27*26-Fight_(Final)_mvl/mxv
	BYTE	W06
	BYTE		        26*26-Fight_(Final)_mvl/mxv
	BYTE	W06
	BYTE		        25*26-Fight_(Final)_mvl/mxv
	BYTE	W06
	BYTE		        24*26-Fight_(Final)_mvl/mxv
	BYTE	W06
	BYTE		        23*26-Fight_(Final)_mvl/mxv
	BYTE	W02
// 075   ----------------------------------------
	BYTE	W04
	BYTE		        22*26-Fight_(Final)_mvl/mxv
	BYTE	W06
	BYTE		        21*26-Fight_(Final)_mvl/mxv
	BYTE	W06
	BYTE		        20*26-Fight_(Final)_mvl/mxv
	BYTE	W06
	BYTE		        19*26-Fight_(Final)_mvl/mxv
	BYTE	W02
	BYTE		N10     Gs3 
	BYTE	W04
	BYTE		VOL     18*26-Fight_(Final)_mvl/mxv
	BYTE	W06
	BYTE		        17*26-Fight_(Final)_mvl/mxv
	BYTE	W02
	BYTE		N10     Fn3 
	BYTE	W04
	BYTE		VOL     16*26-Fight_(Final)_mvl/mxv
	BYTE	W06
	BYTE		        15*26-Fight_(Final)_mvl/mxv
	BYTE	W02
	BYTE		N10     Cn3 
	BYTE	W04
	BYTE		VOL     14*26-Fight_(Final)_mvl/mxv
	BYTE	W06
	BYTE		        13*26-Fight_(Final)_mvl/mxv
	BYTE	W02
	BYTE		N10     Gs3 
	BYTE	W04
	BYTE		VOL     12*26-Fight_(Final)_mvl/mxv
	BYTE	W06
	BYTE		        11*26-Fight_(Final)_mvl/mxv
	BYTE	W02
// 076   ----------------------------------------
	BYTE		N10     Fn3 
	BYTE	W04
	BYTE		VOL     10*26-Fight_(Final)_mvl/mxv
	BYTE	W06
	BYTE		        9*26-Fight_(Final)_mvl/mxv
	BYTE	W02
	BYTE		N10     Cn3 
	BYTE	W04
	BYTE		VOL     8*26-Fight_(Final)_mvl/mxv
	BYTE	W04
	BYTE		        7*26-Fight_(Final)_mvl/mxv
	BYTE	W04
	BYTE		N21     Fs3 
	BYTE		N21     As3 
	BYTE	W02
	BYTE		VOL     6*26-Fight_(Final)_mvl/mxv
	BYTE	W06
	BYTE		        5*26-Fight_(Final)_mvl/mxv
	BYTE	W06
	BYTE		        4*26-Fight_(Final)_mvl/mxv
	BYTE	W06
	BYTE		        3*26-Fight_(Final)_mvl/mxv
	BYTE	W04
	BYTE		N21     Fs3 
	BYTE		N21     As3 
	BYTE	W02
	BYTE		VOL     2*26-Fight_(Final)_mvl/mxv
	BYTE	W08
	BYTE		        1*26-Fight_(Final)_mvl/mxv
	BYTE	W14
// 077   ----------------------------------------
	BYTE	W48
	BYTE	FINE

//**************** Track 3 (Midi-Chn.3) ****************//

26-Fight_(Final)_3:
	BYTE	KEYSH   26-Fight_(Final)_key+0
// 000   ----------------------------------------
	BYTE		VOICE   41
	BYTE	W72
// 001   ----------------------------------------
	BYTE		VOL     124*26-Fight_(Final)_mvl/mxv
	BYTE	W72
// 002   ----------------------------------------
	BYTE	W48
// 003   ----------------------------------------
	BYTE	W72
// 004   ----------------------------------------
	BYTE	W48
// 005   ----------------------------------------
	BYTE	W72
// 006   ----------------------------------------
	BYTE	W72
// 007   ----------------------------------------
	BYTE	W72
// 008   ----------------------------------------
	BYTE	W72
// 009   ----------------------------------------
	BYTE		N10     Gn2   v100
	BYTE	W12
	BYTE		        Gs2 
	BYTE	W12
	BYTE		        Gn2 
	BYTE	W12
	BYTE		        Gs2 
	BYTE	W12
	BYTE		        Gn2 
	BYTE	W12
	BYTE		        Gs2 
	BYTE	W12
// 010   ----------------------------------------
	BYTE	W60
	BYTE	W01
	BYTE	W11
// 011   ----------------------------------------
	BYTE		        Cs4 
	BYTE	W12
	BYTE		        As3 
	BYTE	W12
	BYTE		        Gn3 
	BYTE	W12
	BYTE		        Ds4 
	BYTE	W12
	BYTE		        Cn4 
	BYTE	W12
	BYTE		        Cs3 
	BYTE	W12
// 012   ----------------------------------------
	BYTE	W72
// 013   ----------------------------------------
	BYTE	W48
// 014   ----------------------------------------
	BYTE	W72
// 015   ----------------------------------------
	BYTE	W48
// 016   ----------------------------------------
	BYTE	W72
// 017   ----------------------------------------
	BYTE	W72
// 018   ----------------------------------------
	BYTE	W72
// 019   ----------------------------------------
	BYTE	W72
// 020   ----------------------------------------
	BYTE		        Fn2 
	BYTE	W12
	BYTE		        Fs2 
	BYTE	W12
	BYTE		        Fn2 
	BYTE	W12
	BYTE		        Fs2 
	BYTE	W12
	BYTE		        Fn2 
	BYTE	W12
	BYTE		        Fs2 
	BYTE	W12
// 021   ----------------------------------------
	BYTE	W72
// 022   ----------------------------------------
	BYTE		        Bn3 
	BYTE	W12
	BYTE		        Gs3 
	BYTE	W12
	BYTE		        Fn3 
	BYTE	W12
	BYTE		        Cs4 
	BYTE	W12
	BYTE		        As3 
	BYTE	W12
	BYTE		        Bn2 
	BYTE	W12
// 023   ----------------------------------------
	BYTE	W72
// 024   ----------------------------------------
	BYTE	W48
// 025   ----------------------------------------
	BYTE	W72
// 026   ----------------------------------------
	BYTE	W48
// 027   ----------------------------------------
	BYTE	W72
// 028   ----------------------------------------
	BYTE	W72
// 029   ----------------------------------------
	BYTE	W72
// 030   ----------------------------------------
	BYTE	W72
// 031   ----------------------------------------
26-Fight_(Final)_3_031:
	BYTE		N10     En2   v100
	BYTE	W12
	BYTE		        Fn2 
	BYTE	W12
	BYTE		        En2 
	BYTE	W12
	BYTE		        Fn2 
	BYTE	W12
	BYTE		        En2 
	BYTE	W12
	BYTE		        Fn2 
	BYTE	W12
	BYTE	PEND
// 032   ----------------------------------------
	BYTE	W72
// 033   ----------------------------------------
26-Fight_(Final)_3_033:
	BYTE		N10     As3   v100
	BYTE	W12
	BYTE		        Gn3 
	BYTE	W12
	BYTE		        En3 
	BYTE	W12
	BYTE		        Cn4 
	BYTE	W12
	BYTE		        An3 
	BYTE	W12
	BYTE		        As2 
	BYTE	W12
	BYTE	PEND
// 034   ----------------------------------------
	BYTE	W72
// 035   ----------------------------------------
	BYTE	W72
// 036   ----------------------------------------
	BYTE	W72
// 037   ----------------------------------------
	BYTE	W72
// 038   ----------------------------------------
	BYTE	W72
// 039   ----------------------------------------
	BYTE	W72
// 040   ----------------------------------------
	BYTE	W72
// 041   ----------------------------------------
	BYTE	W24
	BYTE		        Gn2 
	BYTE	W12
	BYTE		        Gs2 
	BYTE	W12
	BYTE		        Gn2 
	BYTE	W12
	BYTE		        Gs2 
	BYTE	W12
// 042   ----------------------------------------
	BYTE		        Gn2 
	BYTE	W12
	BYTE		        Gs2 
	BYTE	W60
// 043   ----------------------------------------
	BYTE	W24
	BYTE		        Cs4 
	BYTE	W12
	BYTE		        As3 
	BYTE	W12
	BYTE		        Gn3 
	BYTE	W12
	BYTE		        Ds4 
	BYTE	W12
// 044   ----------------------------------------
	BYTE		        Cn4 
	BYTE	W12
	BYTE		        Cs3 
	BYTE	W60
// 045   ----------------------------------------
	BYTE	W72
// 046   ----------------------------------------
	BYTE	W72
// 047   ----------------------------------------
	BYTE	W72
// 048   ----------------------------------------
	BYTE	W72
// 049   ----------------------------------------
	BYTE	W72
// 050   ----------------------------------------
	BYTE	W72
// 051   ----------------------------------------
	BYTE	W48
	BYTE		        Fn2 
	BYTE	W12
	BYTE		        Fs2 
	BYTE	W12
// 052   ----------------------------------------
	BYTE		        Fn2 
	BYTE	W12
	BYTE		        Fs2 
	BYTE	W12
	BYTE		        Fn2 
	BYTE	W12
	BYTE		        Fs2 
	BYTE	W36
// 053   ----------------------------------------
	BYTE	W48
	BYTE		        Bn3 
	BYTE	W12
	BYTE		        Gs3 
	BYTE	W12
// 054   ----------------------------------------
	BYTE		        Fn3 
	BYTE	W12
	BYTE		        Cs4 
	BYTE	W12
	BYTE		        As3 
	BYTE	W12
	BYTE		        Bn2 
	BYTE	W36
// 055   ----------------------------------------
	BYTE	W72
// 056   ----------------------------------------
	BYTE	W72
// 057   ----------------------------------------
	BYTE	W72
// 058   ----------------------------------------
	BYTE	W72
// 059   ----------------------------------------
	BYTE	W72
// 060   ----------------------------------------
	BYTE	W72
// 061   ----------------------------------------
	BYTE	W72
// 062   ----------------------------------------
	BYTE	PATT
	 POIN2	26-Fight_(Final)_3_031
// 063   ----------------------------------------
	BYTE	W72
// 064   ----------------------------------------
	BYTE	PATT
	 POIN2	26-Fight_(Final)_3_033
// 065   ----------------------------------------
	BYTE	W72
// 066   ----------------------------------------
	BYTE	W56
	BYTE	W01
	BYTE		VOL     123*26-Fight_(Final)_mvl/mxv
	BYTE	W06
	BYTE		        122*26-Fight_(Final)_mvl/mxv
	BYTE	W06
	BYTE		        121*26-Fight_(Final)_mvl/mxv
	BYTE	W03
// 067   ----------------------------------------
	BYTE	W03
	BYTE		        120*26-Fight_(Final)_mvl/mxv
	BYTE	W06
	BYTE		        119*26-Fight_(Final)_mvl/mxv
	BYTE	W06
	BYTE		        118*26-Fight_(Final)_mvl/mxv
	BYTE	W06
	BYTE		        117*26-Fight_(Final)_mvl/mxv
	BYTE	W05
	BYTE		        116*26-Fight_(Final)_mvl/mxv
	BYTE	W06
	BYTE		        115*26-Fight_(Final)_mvl/mxv
	BYTE	W06
	BYTE		        114*26-Fight_(Final)_mvl/mxv
	BYTE	W06
	BYTE		        113*26-Fight_(Final)_mvl/mxv
	BYTE	W06
	BYTE		        112*26-Fight_(Final)_mvl/mxv
	BYTE	W06
	BYTE		        111*26-Fight_(Final)_mvl/mxv
	BYTE	W06
	BYTE		        110*26-Fight_(Final)_mvl/mxv
	BYTE	W04
	BYTE		        109*26-Fight_(Final)_mvl/mxv
	BYTE	W06
// 068   ----------------------------------------
	BYTE		        108*26-Fight_(Final)_mvl/mxv
	BYTE	W06
	BYTE		        107*26-Fight_(Final)_mvl/mxv
	BYTE	W06
	BYTE		        106*26-Fight_(Final)_mvl/mxv
	BYTE	W06
	BYTE		        105*26-Fight_(Final)_mvl/mxv
	BYTE	W06
	BYTE		        104*26-Fight_(Final)_mvl/mxv
	BYTE	W06
	BYTE		        103*26-Fight_(Final)_mvl/mxv
	BYTE	W05
	BYTE		        102*26-Fight_(Final)_mvl/mxv
	BYTE	W06
	BYTE		        101*26-Fight_(Final)_mvl/mxv
	BYTE	W06
	BYTE		        100*26-Fight_(Final)_mvl/mxv
	BYTE	W06
	BYTE		        99*26-Fight_(Final)_mvl/mxv
	BYTE	W06
	BYTE		        98*26-Fight_(Final)_mvl/mxv
	BYTE	W06
	BYTE		        97*26-Fight_(Final)_mvl/mxv
	BYTE	W06
	BYTE		        96*26-Fight_(Final)_mvl/mxv
	BYTE	W01
// 069   ----------------------------------------
	BYTE	W03
	BYTE		        95*26-Fight_(Final)_mvl/mxv
	BYTE	W06
	BYTE		        94*26-Fight_(Final)_mvl/mxv
	BYTE	W06
	BYTE		        93*26-Fight_(Final)_mvl/mxv
	BYTE	W06
	BYTE		        92*26-Fight_(Final)_mvl/mxv
	BYTE	W06
	BYTE		        91*26-Fight_(Final)_mvl/mxv
	BYTE	W06
	BYTE		        90*26-Fight_(Final)_mvl/mxv
	BYTE	W06
	BYTE		        89*26-Fight_(Final)_mvl/mxv
	BYTE	W05
	BYTE		        88*26-Fight_(Final)_mvl/mxv
	BYTE	W06
	BYTE		        87*26-Fight_(Final)_mvl/mxv
	BYTE	W06
	BYTE		        86*26-Fight_(Final)_mvl/mxv
	BYTE	W06
	BYTE		        85*26-Fight_(Final)_mvl/mxv
	BYTE	W06
	BYTE		        84*26-Fight_(Final)_mvl/mxv
	BYTE	W04
// 070   ----------------------------------------
	BYTE	W02
	BYTE		        83*26-Fight_(Final)_mvl/mxv
	BYTE	W06
	BYTE		        82*26-Fight_(Final)_mvl/mxv
	BYTE	W04
	BYTE		        81*26-Fight_(Final)_mvl/mxv
	BYTE	W06
	BYTE		        80*26-Fight_(Final)_mvl/mxv
	BYTE	W06
	BYTE		        79*26-Fight_(Final)_mvl/mxv
	BYTE	W06
	BYTE		        78*26-Fight_(Final)_mvl/mxv
	BYTE	W06
	BYTE		        77*26-Fight_(Final)_mvl/mxv
	BYTE	W06
	BYTE		        76*26-Fight_(Final)_mvl/mxv
	BYTE	W06
	BYTE		        75*26-Fight_(Final)_mvl/mxv
	BYTE	W05
	BYTE		        74*26-Fight_(Final)_mvl/mxv
	BYTE	W06
	BYTE		        73*26-Fight_(Final)_mvl/mxv
	BYTE	W06
	BYTE		        72*26-Fight_(Final)_mvl/mxv
	BYTE	W06
	BYTE		        71*26-Fight_(Final)_mvl/mxv
	BYTE	W01
// 071   ----------------------------------------
	BYTE	W05
	BYTE		        70*26-Fight_(Final)_mvl/mxv
	BYTE	W06
	BYTE		        69*26-Fight_(Final)_mvl/mxv
	BYTE	W06
	BYTE		        68*26-Fight_(Final)_mvl/mxv
	BYTE	W04
	BYTE		        67*26-Fight_(Final)_mvl/mxv
	BYTE	W06
	BYTE		        66*26-Fight_(Final)_mvl/mxv
	BYTE	W06
	BYTE		        65*26-Fight_(Final)_mvl/mxv
	BYTE	W06
	BYTE		        64*26-Fight_(Final)_mvl/mxv
	BYTE	W06
	BYTE		        63*26-Fight_(Final)_mvl/mxv
	BYTE	W06
	BYTE		        62*26-Fight_(Final)_mvl/mxv
	BYTE	W06
	BYTE		        61*26-Fight_(Final)_mvl/mxv
	BYTE	W05
	BYTE		        60*26-Fight_(Final)_mvl/mxv
	BYTE	W06
	BYTE		        59*26-Fight_(Final)_mvl/mxv
	BYTE	W04
// 072   ----------------------------------------
	BYTE	W02
	BYTE		        58*26-Fight_(Final)_mvl/mxv
	BYTE	W06
	BYTE		        57*26-Fight_(Final)_mvl/mxv
	BYTE	W06
	BYTE		        56*26-Fight_(Final)_mvl/mxv
	BYTE	W06
	BYTE		        55*26-Fight_(Final)_mvl/mxv
	BYTE	W04
	BYTE		N10     Gn2   v100
	BYTE	W02
	BYTE		VOL     54*26-Fight_(Final)_mvl/mxv
	BYTE	W04
	BYTE		        53*26-Fight_(Final)_mvl/mxv
	BYTE	W06
	BYTE		        52*26-Fight_(Final)_mvl/mxv
	BYTE		N10     Gs2 
	BYTE	W06
	BYTE		VOL     51*26-Fight_(Final)_mvl/mxv
	BYTE	W06
	BYTE		        50*26-Fight_(Final)_mvl/mxv
	BYTE		N10     Gn2 
	BYTE	W06
	BYTE		VOL     49*26-Fight_(Final)_mvl/mxv
	BYTE	W06
	BYTE		        48*26-Fight_(Final)_mvl/mxv
	BYTE		N10     Gs2 
	BYTE	W06
	BYTE		VOL     47*26-Fight_(Final)_mvl/mxv
	BYTE	W05
	BYTE		        46*26-Fight_(Final)_mvl/mxv
	BYTE	W01
// 073   ----------------------------------------
	BYTE		N10     Gn2 
	BYTE	W05
	BYTE		VOL     45*26-Fight_(Final)_mvl/mxv
	BYTE	W06
	BYTE		        44*26-Fight_(Final)_mvl/mxv
	BYTE	W01
	BYTE		N10     Gs2 
	BYTE	W05
	BYTE		VOL     43*26-Fight_(Final)_mvl/mxv
	BYTE	W06
	BYTE		        42*26-Fight_(Final)_mvl/mxv
	BYTE	W06
	BYTE		        41*26-Fight_(Final)_mvl/mxv
	BYTE	W06
	BYTE		        40*26-Fight_(Final)_mvl/mxv
	BYTE	W04
	BYTE		        39*26-Fight_(Final)_mvl/mxv
	BYTE	W06
	BYTE		        38*26-Fight_(Final)_mvl/mxv
	BYTE	W06
	BYTE		        37*26-Fight_(Final)_mvl/mxv
	BYTE	W06
	BYTE		        36*26-Fight_(Final)_mvl/mxv
	BYTE	W06
	BYTE		        35*26-Fight_(Final)_mvl/mxv
	BYTE	W06
	BYTE		        34*26-Fight_(Final)_mvl/mxv
	BYTE	W03
// 074   ----------------------------------------
	BYTE	W03
	BYTE		        33*26-Fight_(Final)_mvl/mxv
	BYTE	W05
	BYTE		        32*26-Fight_(Final)_mvl/mxv
	BYTE	W06
	BYTE		        31*26-Fight_(Final)_mvl/mxv
	BYTE	W06
	BYTE		        30*26-Fight_(Final)_mvl/mxv
	BYTE	W04
	BYTE		N10     Cs4 
	BYTE	W02
	BYTE		VOL     29*26-Fight_(Final)_mvl/mxv
	BYTE	W06
	BYTE		        28*26-Fight_(Final)_mvl/mxv
	BYTE	W04
	BYTE		N10     As3 
	BYTE	W02
	BYTE		VOL     27*26-Fight_(Final)_mvl/mxv
	BYTE	W06
	BYTE		        26*26-Fight_(Final)_mvl/mxv
	BYTE	W04
	BYTE		        25*26-Fight_(Final)_mvl/mxv
	BYTE		N10     Gn3 
	BYTE	W06
	BYTE		VOL     24*26-Fight_(Final)_mvl/mxv
	BYTE	W06
	BYTE		        23*26-Fight_(Final)_mvl/mxv
	BYTE		N10     Ds4 
	BYTE	W06
	BYTE		VOL     22*26-Fight_(Final)_mvl/mxv
	BYTE	W06
// 075   ----------------------------------------
	BYTE		        21*26-Fight_(Final)_mvl/mxv
	BYTE		N10     Cn4 
	BYTE	W06
	BYTE		VOL     20*26-Fight_(Final)_mvl/mxv
	BYTE	W06
	BYTE		        19*26-Fight_(Final)_mvl/mxv
	BYTE		N10     Cs3 
	BYTE	W05
	BYTE		VOL     18*26-Fight_(Final)_mvl/mxv
	BYTE	W06
	BYTE		        17*26-Fight_(Final)_mvl/mxv
	BYTE	W06
	BYTE		        16*26-Fight_(Final)_mvl/mxv
	BYTE	W06
	BYTE		        15*26-Fight_(Final)_mvl/mxv
	BYTE	W06
	BYTE		        14*26-Fight_(Final)_mvl/mxv
	BYTE	W06
	BYTE		        13*26-Fight_(Final)_mvl/mxv
	BYTE	W06
	BYTE		        12*26-Fight_(Final)_mvl/mxv
	BYTE	W04
	BYTE		        11*26-Fight_(Final)_mvl/mxv
	BYTE	W06
	BYTE		        10*26-Fight_(Final)_mvl/mxv
	BYTE	W06
	BYTE		        9*26-Fight_(Final)_mvl/mxv
	BYTE	W03
// 076   ----------------------------------------
	BYTE	W03
	BYTE		        8*26-Fight_(Final)_mvl/mxv
	BYTE	W06
	BYTE		        7*26-Fight_(Final)_mvl/mxv
	BYTE	W06
	BYTE		        6*26-Fight_(Final)_mvl/mxv
	BYTE	W06
	BYTE		        5*26-Fight_(Final)_mvl/mxv
	BYTE	W05
	BYTE		        4*26-Fight_(Final)_mvl/mxv
	BYTE	W06
	BYTE		        3*26-Fight_(Final)_mvl/mxv
	BYTE	W06
	BYTE		        2*26-Fight_(Final)_mvl/mxv
	BYTE	W32
	BYTE	W02
// 077   ----------------------------------------
	BYTE	W48
	BYTE	FINE

//**************** Track 4 (Midi-Chn.4) ****************//

26-Fight_(Final)_4:
	BYTE	KEYSH   26-Fight_(Final)_key+0
// 000   ----------------------------------------
	BYTE	W72
// 001   ----------------------------------------
	BYTE		VOICE   47
	BYTE		VOL     101*26-Fight_(Final)_mvl/mxv
	BYTE		N10     Gn1   v100
	BYTE	W18
	BYTE		VOL     102*26-Fight_(Final)_mvl/mxv
	BYTE	W06
	BYTE		N10     Dn1 
	BYTE	W12
	BYTE		        Gn1 
	BYTE	W24
	BYTE		        Dn1 
	BYTE	W12
// 002   ----------------------------------------
26-Fight_(Final)_4_002:
	BYTE		N10     Gs1   v100
	BYTE	W12
	BYTE		        Ds1 
	BYTE	W12
	BYTE		        Gs1 
	BYTE	W12
	BYTE		        Ds1 
	BYTE	W12
	BYTE	PEND
// 003   ----------------------------------------
26-Fight_(Final)_4_003:
	BYTE		N10     Gn1   v100
	BYTE	W24
	BYTE		        Dn1 
	BYTE	W12
	BYTE		        Gn1 
	BYTE	W24
	BYTE		        Dn1 
	BYTE	W12
	BYTE	PEND
// 004   ----------------------------------------
	BYTE	PATT
	 POIN2	26-Fight_(Final)_4_002
// 005   ----------------------------------------
	BYTE	PATT
	 POIN2	26-Fight_(Final)_4_003
// 006   ----------------------------------------
26-Fight_(Final)_4_006:
	BYTE		N10     Gs1   v100
	BYTE	W12
	BYTE		        Ds1 
	BYTE	W12
	BYTE		        Gs1 
	BYTE	W12
	BYTE		        Ds1 
	BYTE	W12
	BYTE		        Gs1 
	BYTE	W12
	BYTE		        Ds1 
	BYTE	W12
	BYTE	PEND
// 007   ----------------------------------------
	BYTE	PATT
	 POIN2	26-Fight_(Final)_4_003
// 008   ----------------------------------------
	BYTE	PATT
	 POIN2	26-Fight_(Final)_4_006
// 009   ----------------------------------------
26-Fight_(Final)_4_009:
	BYTE		N10     Gn0   v100
	BYTE	W12
	BYTE		        Dn1 
	BYTE	W12
	BYTE		        Gn0 
	BYTE	W12
	BYTE		        Dn1 
	BYTE	W12
	BYTE		        Gn0 
	BYTE	W12
	BYTE		        Dn1 
	BYTE	W12
	BYTE	PEND
// 010   ----------------------------------------
	BYTE	PATT
	 POIN2	26-Fight_(Final)_4_009
// 011   ----------------------------------------
	BYTE	PATT
	 POIN2	26-Fight_(Final)_4_009
// 012   ----------------------------------------
26-Fight_(Final)_4_012:
	BYTE		N10     Fn1   v100
	BYTE	W24
	BYTE		        Cn1 
	BYTE	W12
	BYTE		        Fn1 
	BYTE	W24
	BYTE		        Cn1 
	BYTE	W12
	BYTE	PEND
// 013   ----------------------------------------
26-Fight_(Final)_4_013:
	BYTE		N10     Fs1   v100
	BYTE	W12
	BYTE		        Cs1 
	BYTE	W12
	BYTE		        Fs1 
	BYTE	W12
	BYTE		        Cs1 
	BYTE	W12
	BYTE	PEND
// 014   ----------------------------------------
	BYTE	PATT
	 POIN2	26-Fight_(Final)_4_012
// 015   ----------------------------------------
	BYTE	PATT
	 POIN2	26-Fight_(Final)_4_013
// 016   ----------------------------------------
	BYTE	PATT
	 POIN2	26-Fight_(Final)_4_012
// 017   ----------------------------------------
26-Fight_(Final)_4_017:
	BYTE		N10     Fs1   v100
	BYTE	W12
	BYTE		        Cs1 
	BYTE	W12
	BYTE		        Fs1 
	BYTE	W12
	BYTE		        Cs1 
	BYTE	W12
	BYTE		        Fs1 
	BYTE	W12
	BYTE		        Cs1 
	BYTE	W12
	BYTE	PEND
// 018   ----------------------------------------
	BYTE	PATT
	 POIN2	26-Fight_(Final)_4_012
// 019   ----------------------------------------
	BYTE	PATT
	 POIN2	26-Fight_(Final)_4_017
// 020   ----------------------------------------
26-Fight_(Final)_4_020:
	BYTE		N10     Fn0   v100
	BYTE	W12
	BYTE		        Cn1 
	BYTE	W12
	BYTE		        Fn0 
	BYTE	W12
	BYTE		        Cn1 
	BYTE	W12
	BYTE		        Fn0 
	BYTE	W12
	BYTE		        Cn1 
	BYTE	W12
	BYTE	PEND
// 021   ----------------------------------------
	BYTE	PATT
	 POIN2	26-Fight_(Final)_4_020
// 022   ----------------------------------------
	BYTE	PATT
	 POIN2	26-Fight_(Final)_4_020
// 023   ----------------------------------------
26-Fight_(Final)_4_023:
	BYTE		N10     En1   v100
	BYTE	W24
	BYTE		        Bn0 
	BYTE	W12
	BYTE		        En1 
	BYTE	W24
	BYTE		        Bn0 
	BYTE	W12
	BYTE	PEND
// 024   ----------------------------------------
26-Fight_(Final)_4_024:
	BYTE		N10     Fn1   v100
	BYTE	W12
	BYTE		        Cn1 
	BYTE	W12
	BYTE		        Fn1 
	BYTE	W12
	BYTE		        Cn1 
	BYTE	W12
	BYTE	PEND
// 025   ----------------------------------------
	BYTE	PATT
	 POIN2	26-Fight_(Final)_4_023
// 026   ----------------------------------------
	BYTE	PATT
	 POIN2	26-Fight_(Final)_4_024
// 027   ----------------------------------------
	BYTE	PATT
	 POIN2	26-Fight_(Final)_4_023
// 028   ----------------------------------------
26-Fight_(Final)_4_028:
	BYTE		N10     Fn1   v100
	BYTE	W12
	BYTE		        Cn1 
	BYTE	W12
	BYTE		        Fn1 
	BYTE	W12
	BYTE		        Cn1 
	BYTE	W12
	BYTE		        Fn1 
	BYTE	W12
	BYTE		        Cn1 
	BYTE	W12
	BYTE	PEND
// 029   ----------------------------------------
	BYTE	PATT
	 POIN2	26-Fight_(Final)_4_023
// 030   ----------------------------------------
	BYTE	PATT
	 POIN2	26-Fight_(Final)_4_028
// 031   ----------------------------------------
26-Fight_(Final)_4_031:
	BYTE		N10     En0   v100
	BYTE	W12
	BYTE		        Bn0 
	BYTE	W12
	BYTE		        En0 
	BYTE	W12
	BYTE		        Bn0 
	BYTE	W12
	BYTE		        En0 
	BYTE	W12
	BYTE		        Bn0 
	BYTE	W12
	BYTE	PEND
// 032   ----------------------------------------
	BYTE	PATT
	 POIN2	26-Fight_(Final)_4_031
// 033   ----------------------------------------
	BYTE	PATT
	 POIN2	26-Fight_(Final)_4_031
// 034   ----------------------------------------
	BYTE	PATT
	 POIN2	26-Fight_(Final)_4_003
// 035   ----------------------------------------
	BYTE		N10     Gs1   v100
	BYTE	W12
	BYTE		        Ds1 
	BYTE	W12
	BYTE		        Gs1 
	BYTE	W12
	BYTE		        Ds1 
	BYTE	W12
	BYTE		        Gn1 
	BYTE	W24
// 036   ----------------------------------------
	BYTE		        Dn1 
	BYTE	W12
	BYTE		        Gn1 
	BYTE	W24
	BYTE		        Dn1 
	BYTE	W12
	BYTE		        Gs1 
	BYTE	W12
	BYTE		        Ds1 
	BYTE	W12
// 037   ----------------------------------------
26-Fight_(Final)_4_037:
	BYTE		N10     Gs1   v100
	BYTE	W12
	BYTE		        Ds1 
	BYTE	W12
	BYTE		        Gn1 
	BYTE	W24
	BYTE		        Dn1 
	BYTE	W12
	BYTE		        Gn1 
	BYTE	W12
	BYTE	PEND
// 038   ----------------------------------------
26-Fight_(Final)_4_038:
	BYTE	W12
	BYTE		N10     Dn1   v100
	BYTE	W12
	BYTE		        Gs1 
	BYTE	W12
	BYTE		        Ds1 
	BYTE	W12
	BYTE		        Gs1 
	BYTE	W12
	BYTE		        Ds1 
	BYTE	W12
	BYTE	PEND
// 039   ----------------------------------------
	BYTE	PATT
	 POIN2	26-Fight_(Final)_4_037
// 040   ----------------------------------------
	BYTE	PATT
	 POIN2	26-Fight_(Final)_4_038
// 041   ----------------------------------------
	BYTE		N10     Gs1   v100
	BYTE	W12
	BYTE		        Ds1 
	BYTE	W12
	BYTE		        Gn0 
	BYTE	W12
	BYTE		        Dn1 
	BYTE	W12
	BYTE		        Gn0 
	BYTE	W12
	BYTE		        Dn1 
	BYTE	W12
// 042   ----------------------------------------
	BYTE	PATT
	 POIN2	26-Fight_(Final)_4_009
// 043   ----------------------------------------
	BYTE	PATT
	 POIN2	26-Fight_(Final)_4_009
// 044   ----------------------------------------
	BYTE		N10     Gn0   v100
	BYTE	W12
	BYTE		        Dn1 
	BYTE	W12
	BYTE		        Fn1 
	BYTE	W24
	BYTE		        Cn1 
	BYTE	W12
	BYTE		        Fn1 
	BYTE	W12
// 045   ----------------------------------------
	BYTE	W12
	BYTE		        Cn1 
	BYTE	W12
	BYTE		        Fs1 
	BYTE	W12
	BYTE		        Cs1 
	BYTE	W12
	BYTE		        Fs1 
	BYTE	W12
	BYTE		        Cs1 
	BYTE	W12
// 046   ----------------------------------------
	BYTE	PATT
	 POIN2	26-Fight_(Final)_4_012
// 047   ----------------------------------------
26-Fight_(Final)_4_047:
	BYTE		N10     Fs1   v100
	BYTE	W12
	BYTE		        Cs1 
	BYTE	W12
	BYTE		        Fs1 
	BYTE	W12
	BYTE		        Cs1 
	BYTE	W12
	BYTE		        Fn1 
	BYTE	W24
	BYTE	PEND
// 048   ----------------------------------------
26-Fight_(Final)_4_048:
	BYTE		N10     Cn1   v100
	BYTE	W12
	BYTE		        Fn1 
	BYTE	W24
	BYTE		        Cn1 
	BYTE	W12
	BYTE		        Fs1 
	BYTE	W12
	BYTE		        Cs1 
	BYTE	W12
	BYTE	PEND
// 049   ----------------------------------------
	BYTE	PATT
	 POIN2	26-Fight_(Final)_4_047
// 050   ----------------------------------------
	BYTE	PATT
	 POIN2	26-Fight_(Final)_4_048
// 051   ----------------------------------------
	BYTE		N10     Fs1   v100
	BYTE	W12
	BYTE		        Cs1 
	BYTE	W12
	BYTE		        Fs1 
	BYTE	W12
	BYTE		        Cs1 
	BYTE	W12
	BYTE		        Fn0 
	BYTE	W12
	BYTE		        Cn1 
	BYTE	W12
// 052   ----------------------------------------
	BYTE	PATT
	 POIN2	26-Fight_(Final)_4_020
// 053   ----------------------------------------
	BYTE	PATT
	 POIN2	26-Fight_(Final)_4_020
// 054   ----------------------------------------
	BYTE		N10     Fn0   v100
	BYTE	W12
	BYTE		        Cn1 
	BYTE	W12
	BYTE		        Fn0 
	BYTE	W12
	BYTE		        Cn1 
	BYTE	W12
	BYTE		        En1 
	BYTE	W24
// 055   ----------------------------------------
	BYTE		        Bn0 
	BYTE	W12
	BYTE		        En1 
	BYTE	W24
	BYTE		        Bn0 
	BYTE	W12
	BYTE		        Fn1 
	BYTE	W12
	BYTE		        Cn1 
	BYTE	W12
// 056   ----------------------------------------
	BYTE		        Fn1 
	BYTE	W12
	BYTE		        Cn1 
	BYTE	W12
	BYTE		        En1 
	BYTE	W24
	BYTE		        Bn0 
	BYTE	W12
	BYTE		        En1 
	BYTE	W12
// 057   ----------------------------------------
	BYTE	W12
	BYTE		        Bn0 
	BYTE	W12
	BYTE		        Fn1 
	BYTE	W12
	BYTE		        Cn1 
	BYTE	W12
	BYTE		        Fn1 
	BYTE	W12
	BYTE		        Cn1 
	BYTE	W12
// 058   ----------------------------------------
	BYTE	PATT
	 POIN2	26-Fight_(Final)_4_023
// 059   ----------------------------------------
	BYTE	PATT
	 POIN2	26-Fight_(Final)_4_028
// 060   ----------------------------------------
	BYTE	PATT
	 POIN2	26-Fight_(Final)_4_023
// 061   ----------------------------------------
	BYTE	PATT
	 POIN2	26-Fight_(Final)_4_028
// 062   ----------------------------------------
	BYTE	PATT
	 POIN2	26-Fight_(Final)_4_031
// 063   ----------------------------------------
	BYTE	PATT
	 POIN2	26-Fight_(Final)_4_031
// 064   ----------------------------------------
	BYTE	PATT
	 POIN2	26-Fight_(Final)_4_031
// 065   ----------------------------------------
	BYTE	PATT
	 POIN2	26-Fight_(Final)_4_003
// 066   ----------------------------------------
	BYTE		N10     Gs1   v100
	BYTE	W12
	BYTE		        Ds1 
	BYTE	W12
	BYTE		        Gs1 
	BYTE	W12
	BYTE		        Ds1 
	BYTE	W12
	BYTE		        Gn1 
	BYTE	W10
	BYTE		VOL     101*26-Fight_(Final)_mvl/mxv
	BYTE	W08
	BYTE		        100*26-Fight_(Final)_mvl/mxv
	BYTE	W06
// 067   ----------------------------------------
	BYTE		N10     Dn1 
	BYTE	W01
	BYTE		VOL     99*26-Fight_(Final)_mvl/mxv
	BYTE	W08
	BYTE		        98*26-Fight_(Final)_mvl/mxv
	BYTE	W03
	BYTE		N10     Gn1 
	BYTE	W04
	BYTE		VOL     97*26-Fight_(Final)_mvl/mxv
	BYTE	W08
	BYTE		        96*26-Fight_(Final)_mvl/mxv
	BYTE	W07
	BYTE		        95*26-Fight_(Final)_mvl/mxv
	BYTE	W05
	BYTE		N10     Dn1 
	BYTE	W03
	BYTE		VOL     94*26-Fight_(Final)_mvl/mxv
	BYTE	W06
	BYTE		        93*26-Fight_(Final)_mvl/mxv
	BYTE	W03
	BYTE		N10     Gs1 
	BYTE	W04
	BYTE		VOL     92*26-Fight_(Final)_mvl/mxv
	BYTE	W08
	BYTE		        91*26-Fight_(Final)_mvl/mxv
	BYTE		N10     Ds1 
	BYTE	W07
	BYTE		VOL     90*26-Fight_(Final)_mvl/mxv
	BYTE	W05
// 068   ----------------------------------------
	BYTE		N10     Gs1 
	BYTE	W03
	BYTE		VOL     89*26-Fight_(Final)_mvl/mxv
	BYTE	W07
	BYTE		        88*26-Fight_(Final)_mvl/mxv
	BYTE	W02
	BYTE		N10     Ds1 
	BYTE	W06
	BYTE		VOL     87*26-Fight_(Final)_mvl/mxv
	BYTE	W06
	BYTE		N10     Gn1 
	BYTE	W01
	BYTE		VOL     86*26-Fight_(Final)_mvl/mxv
	BYTE	W06
	BYTE		        85*26-Fight_(Final)_mvl/mxv
	BYTE	W08
	BYTE		        84*26-Fight_(Final)_mvl/mxv
	BYTE	W07
	BYTE		        83*26-Fight_(Final)_mvl/mxv
	BYTE	W02
	BYTE		N10     Dn1 
	BYTE	W06
	BYTE		VOL     82*26-Fight_(Final)_mvl/mxv
	BYTE	W06
	BYTE		N10     Gn1 
	BYTE	W01
	BYTE		VOL     81*26-Fight_(Final)_mvl/mxv
	BYTE	W08
	BYTE		        80*26-Fight_(Final)_mvl/mxv
	BYTE	W03
// 069   ----------------------------------------
	BYTE	W04
	BYTE		        79*26-Fight_(Final)_mvl/mxv
	BYTE	W08
	BYTE		        78*26-Fight_(Final)_mvl/mxv
	BYTE		N10     Dn1 
	BYTE	W07
	BYTE		VOL     77*26-Fight_(Final)_mvl/mxv
	BYTE	W05
	BYTE		N10     Gs1 
	BYTE	W01
	BYTE		VOL     76*26-Fight_(Final)_mvl/mxv
	BYTE	W08
	BYTE		        75*26-Fight_(Final)_mvl/mxv
	BYTE	W03
	BYTE		N10     Ds1 
	BYTE	W04
	BYTE		VOL     74*26-Fight_(Final)_mvl/mxv
	BYTE	W08
	BYTE		        73*26-Fight_(Final)_mvl/mxv
	BYTE		N10     Gs1 
	BYTE	W07
	BYTE		VOL     72*26-Fight_(Final)_mvl/mxv
	BYTE	W05
	BYTE		N10     Ds1 
	BYTE	W03
	BYTE		VOL     71*26-Fight_(Final)_mvl/mxv
	BYTE	W07
	BYTE		        70*26-Fight_(Final)_mvl/mxv
	BYTE	W02
// 070   ----------------------------------------
	BYTE		N10     Gs1 
	BYTE	W06
	BYTE		VOL     69*26-Fight_(Final)_mvl/mxv
	BYTE	W06
	BYTE		        68*26-Fight_(Final)_mvl/mxv
	BYTE		N10     Ds1 
	BYTE	W07
	BYTE		VOL     67*26-Fight_(Final)_mvl/mxv
	BYTE	W05
	BYTE		N10     Gn1 
	BYTE	W03
	BYTE		VOL     66*26-Fight_(Final)_mvl/mxv
	BYTE	W07
	BYTE		        65*26-Fight_(Final)_mvl/mxv
	BYTE	W08
	BYTE		        64*26-Fight_(Final)_mvl/mxv
	BYTE	W06
	BYTE		N10     Dn1 
	BYTE	W01
	BYTE		VOL     63*26-Fight_(Final)_mvl/mxv
	BYTE	W08
	BYTE		        62*26-Fight_(Final)_mvl/mxv
	BYTE	W03
	BYTE		N10     Gn1 
	BYTE	W04
	BYTE		VOL     61*26-Fight_(Final)_mvl/mxv
	BYTE	W08
// 071   ----------------------------------------
	BYTE		        60*26-Fight_(Final)_mvl/mxv
	BYTE	W06
	BYTE		        59*26-Fight_(Final)_mvl/mxv
	BYTE	W06
	BYTE		N10     Dn1 
	BYTE	W01
	BYTE		VOL     58*26-Fight_(Final)_mvl/mxv
	BYTE	W08
	BYTE		        57*26-Fight_(Final)_mvl/mxv
	BYTE	W03
	BYTE		N10     Gs1 
	BYTE	W04
	BYTE		VOL     56*26-Fight_(Final)_mvl/mxv
	BYTE	W08
	BYTE		        55*26-Fight_(Final)_mvl/mxv
	BYTE		N10     Ds1 
	BYTE	W07
	BYTE		VOL     54*26-Fight_(Final)_mvl/mxv
	BYTE	W05
	BYTE		N10     Gs1 
	BYTE	W03
	BYTE		VOL     53*26-Fight_(Final)_mvl/mxv
	BYTE	W07
	BYTE		        52*26-Fight_(Final)_mvl/mxv
	BYTE	W02
	BYTE		N10     Ds1 
	BYTE	W04
	BYTE		VOL     51*26-Fight_(Final)_mvl/mxv
	BYTE	W08
// 072   ----------------------------------------
	BYTE		        50*26-Fight_(Final)_mvl/mxv
	BYTE		N10     Gs1 
	BYTE	W07
	BYTE		VOL     49*26-Fight_(Final)_mvl/mxv
	BYTE	W05
	BYTE		N10     Ds1 
	BYTE	W03
	BYTE		VOL     48*26-Fight_(Final)_mvl/mxv
	BYTE	W07
	BYTE		        47*26-Fight_(Final)_mvl/mxv
	BYTE	W02
	BYTE		N10     Gn0 
	BYTE	W06
	BYTE		VOL     46*26-Fight_(Final)_mvl/mxv
	BYTE	W06
	BYTE		N10     Dn1 
	BYTE	W01
	BYTE		VOL     45*26-Fight_(Final)_mvl/mxv
	BYTE	W08
	BYTE		        44*26-Fight_(Final)_mvl/mxv
	BYTE	W03
	BYTE		N10     Gn0 
	BYTE	W04
	BYTE		VOL     43*26-Fight_(Final)_mvl/mxv
	BYTE	W06
	BYTE		        42*26-Fight_(Final)_mvl/mxv
	BYTE	W02
	BYTE		N10     Dn1 
	BYTE	W06
	BYTE		VOL     41*26-Fight_(Final)_mvl/mxv
	BYTE	W06
// 073   ----------------------------------------
	BYTE		N10     Gn0 
	BYTE	W01
	BYTE		VOL     40*26-Fight_(Final)_mvl/mxv
	BYTE	W08
	BYTE		        39*26-Fight_(Final)_mvl/mxv
	BYTE	W03
	BYTE		N10     Dn1 
	BYTE	W04
	BYTE		VOL     38*26-Fight_(Final)_mvl/mxv
	BYTE	W08
	BYTE		        37*26-Fight_(Final)_mvl/mxv
	BYTE		N10     Gn0 
	BYTE	W07
	BYTE		VOL     36*26-Fight_(Final)_mvl/mxv
	BYTE	W05
	BYTE		N10     Dn1 
	BYTE	W03
	BYTE		VOL     35*26-Fight_(Final)_mvl/mxv
	BYTE	W06
	BYTE		        34*26-Fight_(Final)_mvl/mxv
	BYTE	W03
	BYTE		N10     Gn0 
	BYTE	W04
	BYTE		VOL     33*26-Fight_(Final)_mvl/mxv
	BYTE	W08
	BYTE		        32*26-Fight_(Final)_mvl/mxv
	BYTE		N10     Dn1 
	BYTE	W07
	BYTE		VOL     31*26-Fight_(Final)_mvl/mxv
	BYTE	W05
// 074   ----------------------------------------
	BYTE		N10     Gn0 
	BYTE	W03
	BYTE		VOL     30*26-Fight_(Final)_mvl/mxv
	BYTE	W07
	BYTE		        29*26-Fight_(Final)_mvl/mxv
	BYTE	W02
	BYTE		N10     Dn1 
	BYTE	W06
	BYTE		VOL     28*26-Fight_(Final)_mvl/mxv
	BYTE	W06
	BYTE		N10     Gn0 
	BYTE	W01
	BYTE		VOL     27*26-Fight_(Final)_mvl/mxv
	BYTE	W06
	BYTE		        26*26-Fight_(Final)_mvl/mxv
	BYTE	W05
	BYTE		N10     Dn1 
	BYTE	W03
	BYTE		VOL     25*26-Fight_(Final)_mvl/mxv
	BYTE	W07
	BYTE		        24*26-Fight_(Final)_mvl/mxv
	BYTE	W02
	BYTE		N10     Gn0 
	BYTE	W06
	BYTE		VOL     23*26-Fight_(Final)_mvl/mxv
	BYTE	W06
	BYTE		N10     Dn1 
	BYTE	W01
	BYTE		VOL     22*26-Fight_(Final)_mvl/mxv
	BYTE	W08
	BYTE		        21*26-Fight_(Final)_mvl/mxv
	BYTE	W03
// 075   ----------------------------------------
	BYTE		N10     Gn0 
	BYTE	W04
	BYTE		VOL     20*26-Fight_(Final)_mvl/mxv
	BYTE	W08
	BYTE		        19*26-Fight_(Final)_mvl/mxv
	BYTE		N10     Dn1 
	BYTE	W07
	BYTE		VOL     18*26-Fight_(Final)_mvl/mxv
	BYTE	W05
	BYTE		N10     Fn1 
	BYTE	W01
	BYTE		VOL     17*26-Fight_(Final)_mvl/mxv
	BYTE	W08
	BYTE		        16*26-Fight_(Final)_mvl/mxv
	BYTE	W07
	BYTE		        15*26-Fight_(Final)_mvl/mxv
	BYTE	W08
	BYTE		        14*26-Fight_(Final)_mvl/mxv
	BYTE		N10     Cn1 
	BYTE	W07
	BYTE		VOL     13*26-Fight_(Final)_mvl/mxv
	BYTE	W05
	BYTE		N10     Fn1 
	BYTE	W03
	BYTE		VOL     12*26-Fight_(Final)_mvl/mxv
	BYTE	W07
	BYTE		        11*26-Fight_(Final)_mvl/mxv
	BYTE	W02
// 076   ----------------------------------------
	BYTE	W06
	BYTE		        10*26-Fight_(Final)_mvl/mxv
	BYTE	W06
	BYTE		        9*26-Fight_(Final)_mvl/mxv
	BYTE		N10     Cn1 
	BYTE	W07
	BYTE		VOL     8*26-Fight_(Final)_mvl/mxv
	BYTE	W05
	BYTE		N10     Fs1 
	BYTE	W03
	BYTE		VOL     7*26-Fight_(Final)_mvl/mxv
	BYTE	W07
	BYTE		        6*26-Fight_(Final)_mvl/mxv
	BYTE	W02
	BYTE		N10     Cs1 
	BYTE	W06
	BYTE		VOL     5*26-Fight_(Final)_mvl/mxv
	BYTE	W06
	BYTE		N10     Fs1 
	BYTE	W01
	BYTE		VOL     4*26-Fight_(Final)_mvl/mxv
	BYTE	W08
	BYTE		        3*26-Fight_(Final)_mvl/mxv
	BYTE	W03
	BYTE		N10     Cs1 
	BYTE	W04
	BYTE		VOL     2*26-Fight_(Final)_mvl/mxv
	BYTE	W08
// 077   ----------------------------------------
	BYTE	W48
	BYTE	FINE

//**************** Track 5 (Midi-Chn.5) ****************//

26-Fight_(Final)_5:
	BYTE	KEYSH   26-Fight_(Final)_key+0
// 000   ----------------------------------------
	BYTE		VOICE   4
	BYTE	W48
	BYTE	W03
	BYTE		VOL     114*26-Fight_(Final)_mvl/mxv
	BYTE	W21
// 001   ----------------------------------------
26-Fight_(Final)_5_001:
	BYTE		N05     Gn1   v100
	BYTE	W06
	BYTE		N05   
	BYTE	W06
	BYTE		N05   
	BYTE	W06
	BYTE		N05   
	BYTE	W06
	BYTE		N05   
	BYTE	W06
	BYTE		N05   
	BYTE	W06
	BYTE		N05   
	BYTE	W06
	BYTE		N05   
	BYTE	W06
	BYTE		N05   
	BYTE	W06
	BYTE		N05   
	BYTE	W06
	BYTE		N05   
	BYTE	W06
	BYTE		N05   
	BYTE	W06
	BYTE	PEND
// 002   ----------------------------------------
26-Fight_(Final)_5_002:
	BYTE		N05     Gs1   v100
	BYTE	W06
	BYTE		N05   
	BYTE	W06
	BYTE		N05   
	BYTE	W06
	BYTE		N05   
	BYTE	W06
	BYTE		N05   
	BYTE	W06
	BYTE		N05   
	BYTE	W06
	BYTE		N05   
	BYTE	W06
	BYTE		N05   
	BYTE	W06
	BYTE	PEND
// 003   ----------------------------------------
	BYTE	PATT
	 POIN2	26-Fight_(Final)_5_001
// 004   ----------------------------------------
	BYTE	PATT
	 POIN2	26-Fight_(Final)_5_002
// 005   ----------------------------------------
	BYTE	PATT
	 POIN2	26-Fight_(Final)_5_001
// 006   ----------------------------------------
	BYTE		N05     Gs1   v100
	BYTE	W06
	BYTE		N05   
	BYTE	W06
	BYTE		N05   
	BYTE	W06
	BYTE		N05   
	BYTE	W06
	BYTE		N05   
	BYTE	W06
	BYTE		N05   
	BYTE	W06
	BYTE		N05   
	BYTE	W06
	BYTE		N05   
	BYTE	W06
	BYTE		N05   
	BYTE	W06
	BYTE		N05   
	BYTE	W06
	BYTE		N05   
	BYTE	W06
	BYTE		N05   
	BYTE	W06
// 007   ----------------------------------------
	BYTE		        Gn1 
	BYTE		N05     As1 
	BYTE	W06
	BYTE		        Gn1 
	BYTE		N05     As1 
	BYTE	W06
	BYTE		        Gn1 
	BYTE		N05     As1 
	BYTE	W06
	BYTE		        Gn1 
	BYTE		N05     As1 
	BYTE	W06
	BYTE		        Gn1 
	BYTE		N05     As1 
	BYTE	W06
	BYTE		        Gn1 
	BYTE		N05     As1 
	BYTE	W06
	BYTE		        Gn1 
	BYTE		N05     As1 
	BYTE	W06
	BYTE		        Gn1 
	BYTE		N05     As1 
	BYTE	W06
	BYTE		        Gn1 
	BYTE		N05     As1 
	BYTE	W06
	BYTE		        Gn1 
	BYTE		N05     As1 
	BYTE	W06
	BYTE		        Gn1 
	BYTE		N05     As1 
	BYTE	W06
	BYTE		        Gn1 
	BYTE		N05     As1 
	BYTE	W06
// 008   ----------------------------------------
	BYTE		        Gs1 
	BYTE		N05     Cn2 
	BYTE	W06
	BYTE		        Gs1 
	BYTE		N05     Cn2 
	BYTE	W06
	BYTE		        Gs1 
	BYTE		N05     Cn2 
	BYTE	W06
	BYTE		        Gs1 
	BYTE		N05     Cn2 
	BYTE	W06
	BYTE		        Gs1 
	BYTE		N05     Cn2 
	BYTE	W06
	BYTE		        Gs1 
	BYTE		N05     Cn2 
	BYTE	W06
	BYTE		        Gs1 
	BYTE		N05     Cn2 
	BYTE	W06
	BYTE		        Gs1 
	BYTE		N05     Cn2 
	BYTE	W06
	BYTE		        Gs1 
	BYTE		N05     Cn2 
	BYTE	W06
	BYTE		        Gs1 
	BYTE		N05     Cn2 
	BYTE	W06
	BYTE		        Gs1 
	BYTE		N05     Cn2 
	BYTE	W06
	BYTE		        Gs1 
	BYTE		N05     Cn2 
	BYTE	W06
// 009   ----------------------------------------
	BYTE		        Gn1 
	BYTE	W06
	BYTE		        Dn1 
	BYTE	W06
	BYTE		        Gn1 
	BYTE	W06
	BYTE		        Dn1 
	BYTE	W06
	BYTE		        Gn1 
	BYTE	W06
	BYTE		        Dn1 
	BYTE	W06
	BYTE		        Gn1 
	BYTE	W06
	BYTE		        Dn1 
	BYTE	W06
	BYTE		        Gn1 
	BYTE	W06
	BYTE		        Dn1 
	BYTE	W06
	BYTE		        Gn1 
	BYTE	W06
	BYTE		        Dn1 
	BYTE	W06
// 010   ----------------------------------------
26-Fight_(Final)_5_010:
	BYTE		N05     Fn1   v100
	BYTE	W06
	BYTE		        Cn1 
	BYTE	W06
	BYTE		        Fn1 
	BYTE	W06
	BYTE		        Cn1 
	BYTE	W06
	BYTE		        Fn1 
	BYTE	W06
	BYTE		        Cn1 
	BYTE	W06
	BYTE		        Fn1 
	BYTE	W06
	BYTE		        Cn1 
	BYTE	W06
	BYTE		        Fn1 
	BYTE	W06
	BYTE		        Cn1 
	BYTE	W06
	BYTE		        Fn1 
	BYTE	W06
	BYTE		        Cn1 
	BYTE	W06
	BYTE	PEND
// 011   ----------------------------------------
	BYTE		        Gn1 
	BYTE	W06
	BYTE		        Cs1 
	BYTE	W06
	BYTE		        Gn1 
	BYTE	W06
	BYTE		        Cs1 
	BYTE	W06
	BYTE		        Gn1 
	BYTE	W06
	BYTE		        Cs1 
	BYTE	W06
	BYTE		        Gn1 
	BYTE	W06
	BYTE		        Cs1 
	BYTE	W06
	BYTE		        Gn1 
	BYTE	W06
	BYTE		        Cs1 
	BYTE	W06
	BYTE		        Gn1 
	BYTE	W06
	BYTE		        Cs1 
	BYTE	W06
// 012   ----------------------------------------
26-Fight_(Final)_5_012:
	BYTE		N05     Fn1   v100
	BYTE	W06
	BYTE		N05   
	BYTE	W06
	BYTE		N05   
	BYTE	W06
	BYTE		N05   
	BYTE	W06
	BYTE		N05   
	BYTE	W06
	BYTE		N05   
	BYTE	W06
	BYTE		N05   
	BYTE	W06
	BYTE		N05   
	BYTE	W06
	BYTE		N05   
	BYTE	W06
	BYTE		N05   
	BYTE	W06
	BYTE		N05   
	BYTE	W06
	BYTE		N05   
	BYTE	W06
	BYTE	PEND
// 013   ----------------------------------------
26-Fight_(Final)_5_013:
	BYTE		N05     Fs1   v100
	BYTE	W06
	BYTE		N05   
	BYTE	W06
	BYTE		N05   
	BYTE	W06
	BYTE		N05   
	BYTE	W06
	BYTE		N05   
	BYTE	W06
	BYTE		N05   
	BYTE	W06
	BYTE		N05   
	BYTE	W06
	BYTE		N05   
	BYTE	W06
	BYTE	PEND
// 014   ----------------------------------------
	BYTE	PATT
	 POIN2	26-Fight_(Final)_5_012
// 015   ----------------------------------------
	BYTE	PATT
	 POIN2	26-Fight_(Final)_5_013
// 016   ----------------------------------------
	BYTE	PATT
	 POIN2	26-Fight_(Final)_5_012
// 017   ----------------------------------------
	BYTE		N05     Fs1   v100
	BYTE	W06
	BYTE		N05   
	BYTE	W06
	BYTE		N05   
	BYTE	W06
	BYTE		N05   
	BYTE	W06
	BYTE		N05   
	BYTE	W06
	BYTE		N05   
	BYTE	W06
	BYTE		N05   
	BYTE	W06
	BYTE		N05   
	BYTE	W06
	BYTE		N05   
	BYTE	W06
	BYTE		N05   
	BYTE	W06
	BYTE		N05   
	BYTE	W06
	BYTE		N05   
	BYTE	W06
// 018   ----------------------------------------
	BYTE		        Fn1 
	BYTE		N05     Gs1 
	BYTE	W06
	BYTE		        Fn1 
	BYTE		N05     Gs1 
	BYTE	W06
	BYTE		        Fn1 
	BYTE		N05     Gs1 
	BYTE	W06
	BYTE		        Fn1 
	BYTE		N05     Gs1 
	BYTE	W06
	BYTE		        Fn1 
	BYTE		N05     Gs1 
	BYTE	W06
	BYTE		        Fn1 
	BYTE		N05     Gs1 
	BYTE	W06
	BYTE		        Fn1 
	BYTE		N05     Gs1 
	BYTE	W06
	BYTE		        Fn1 
	BYTE		N05     Gs1 
	BYTE	W06
	BYTE		        Fn1 
	BYTE		N05     Gs1 
	BYTE	W06
	BYTE		        Fn1 
	BYTE		N05     Gs1 
	BYTE	W06
	BYTE		        Fn1 
	BYTE		N05     Gs1 
	BYTE	W06
	BYTE		        Fn1 
	BYTE		N05     Gs1 
	BYTE	W06
// 019   ----------------------------------------
	BYTE		        Fs1 
	BYTE		N05     As1 
	BYTE	W06
	BYTE		        Fs1 
	BYTE		N05     As1 
	BYTE	W06
	BYTE		        Fs1 
	BYTE		N05     As1 
	BYTE	W06
	BYTE		        Fs1 
	BYTE		N05     As1 
	BYTE	W06
	BYTE		        Fs1 
	BYTE		N05     As1 
	BYTE	W06
	BYTE		        Fs1 
	BYTE		N05     As1 
	BYTE	W06
	BYTE		        Fs1 
	BYTE		N05     As1 
	BYTE	W06
	BYTE		        Fs1 
	BYTE		N05     As1 
	BYTE	W06
	BYTE		        Fs1 
	BYTE		N05     As1 
	BYTE	W06
	BYTE		        Fs1 
	BYTE		N05     As1 
	BYTE	W06
	BYTE		        Fs1 
	BYTE		N05     As1 
	BYTE	W06
	BYTE		        Fs1 
	BYTE		N05     As1 
	BYTE	W06
// 020   ----------------------------------------
	BYTE	PATT
	 POIN2	26-Fight_(Final)_5_010
// 021   ----------------------------------------
	BYTE		N05     Ds1   v100
	BYTE	W06
	BYTE		        As0 
	BYTE	W06
	BYTE		        Ds1 
	BYTE	W06
	BYTE		        As0 
	BYTE	W06
	BYTE		        Ds1 
	BYTE	W06
	BYTE		        As0 
	BYTE	W06
	BYTE		        Ds1 
	BYTE	W06
	BYTE		        As0 
	BYTE	W06
	BYTE		        Ds1 
	BYTE	W06
	BYTE		        As0 
	BYTE	W06
	BYTE		        Ds1 
	BYTE	W06
	BYTE		        As0 
	BYTE	W06
// 022   ----------------------------------------
	BYTE		        Fn1 
	BYTE	W06
	BYTE		        Bn0 
	BYTE	W06
	BYTE		        Fn1 
	BYTE	W06
	BYTE		        Bn0 
	BYTE	W06
	BYTE		        Fn1 
	BYTE	W06
	BYTE		        Bn0 
	BYTE	W06
	BYTE		        Fn1 
	BYTE	W06
	BYTE		        Bn0 
	BYTE	W06
	BYTE		        Fn1 
	BYTE	W06
	BYTE		        Bn0 
	BYTE	W06
	BYTE		        Fn1 
	BYTE	W06
	BYTE		        Bn0 
	BYTE	W06
// 023   ----------------------------------------
26-Fight_(Final)_5_023:
	BYTE		N05     En1   v100
	BYTE	W06
	BYTE		N05   
	BYTE	W06
	BYTE		N05   
	BYTE	W06
	BYTE		N05   
	BYTE	W06
	BYTE		N05   
	BYTE	W06
	BYTE		N05   
	BYTE	W06
	BYTE		N05   
	BYTE	W06
	BYTE		N05   
	BYTE	W06
	BYTE		N05   
	BYTE	W06
	BYTE		N05   
	BYTE	W06
	BYTE		N05   
	BYTE	W06
	BYTE		N05   
	BYTE	W06
	BYTE	PEND
// 024   ----------------------------------------
26-Fight_(Final)_5_024:
	BYTE		N05     Fn1   v100
	BYTE	W06
	BYTE		N05   
	BYTE	W06
	BYTE		N05   
	BYTE	W06
	BYTE		N05   
	BYTE	W06
	BYTE		N05   
	BYTE	W06
	BYTE		N05   
	BYTE	W06
	BYTE		N05   
	BYTE	W06
	BYTE		N05   
	BYTE	W06
	BYTE	PEND
// 025   ----------------------------------------
	BYTE	PATT
	 POIN2	26-Fight_(Final)_5_023
// 026   ----------------------------------------
	BYTE	PATT
	 POIN2	26-Fight_(Final)_5_024
// 027   ----------------------------------------
	BYTE	PATT
	 POIN2	26-Fight_(Final)_5_023
// 028   ----------------------------------------
	BYTE	PATT
	 POIN2	26-Fight_(Final)_5_012
// 029   ----------------------------------------
26-Fight_(Final)_5_029:
	BYTE		N05     En1   v100
	BYTE		N05     Gn1 
	BYTE	W06
	BYTE		        En1 
	BYTE		N05     Gn1 
	BYTE	W06
	BYTE		        En1 
	BYTE		N05     Gn1 
	BYTE	W06
	BYTE		        En1 
	BYTE		N05     Gn1 
	BYTE	W06
	BYTE		        En1 
	BYTE		N05     Gn1 
	BYTE	W06
	BYTE		        En1 
	BYTE		N05     Gn1 
	BYTE	W06
	BYTE		        En1 
	BYTE		N05     Gn1 
	BYTE	W06
	BYTE		        En1 
	BYTE		N05     Gn1 
	BYTE	W06
	BYTE		        En1 
	BYTE		N05     Gn1 
	BYTE	W06
	BYTE		        En1 
	BYTE		N05     Gn1 
	BYTE	W06
	BYTE		        En1 
	BYTE		N05     Gn1 
	BYTE	W06
	BYTE		        En1 
	BYTE		N05     Gn1 
	BYTE	W06
	BYTE	PEND
// 030   ----------------------------------------
26-Fight_(Final)_5_030:
	BYTE		N05     Fn1   v100
	BYTE		N05     An1 
	BYTE	W06
	BYTE		        Fn1 
	BYTE		N05     An1 
	BYTE	W06
	BYTE		        Fn1 
	BYTE		N05     An1 
	BYTE	W06
	BYTE		        Fn1 
	BYTE		N05     An1 
	BYTE	W06
	BYTE		        Fn1 
	BYTE		N05     An1 
	BYTE	W06
	BYTE		        Fn1 
	BYTE		N05     An1 
	BYTE	W06
	BYTE		        Fn1 
	BYTE		N05     An1 
	BYTE	W06
	BYTE		        Fn1 
	BYTE		N05     An1 
	BYTE	W06
	BYTE		        Fn1 
	BYTE		N05     An1 
	BYTE	W06
	BYTE		        Fn1 
	BYTE		N05     An1 
	BYTE	W06
	BYTE		        Fn1 
	BYTE		N05     An1 
	BYTE	W06
	BYTE		        Fn1 
	BYTE		N05     An1 
	BYTE	W06
	BYTE	PEND
// 031   ----------------------------------------
26-Fight_(Final)_5_031:
	BYTE		N05     En1   v100
	BYTE	W06
	BYTE		        Bn0 
	BYTE	W06
	BYTE		        En1 
	BYTE	W06
	BYTE		        Bn0 
	BYTE	W06
	BYTE		        En1 
	BYTE	W06
	BYTE		        Bn0 
	BYTE	W06
	BYTE		        En1 
	BYTE	W06
	BYTE		        Bn0 
	BYTE	W06
	BYTE		        En1 
	BYTE	W06
	BYTE		        Bn0 
	BYTE	W06
	BYTE		        En1 
	BYTE	W06
	BYTE		        Bn0 
	BYTE	W06
	BYTE	PEND
// 032   ----------------------------------------
26-Fight_(Final)_5_032:
	BYTE		N05     Dn1   v100
	BYTE	W06
	BYTE		        An0 
	BYTE	W06
	BYTE		        Dn1 
	BYTE	W06
	BYTE		        An0 
	BYTE	W06
	BYTE		        Dn1 
	BYTE	W06
	BYTE		        An0 
	BYTE	W06
	BYTE		        Dn1 
	BYTE	W06
	BYTE		        An0 
	BYTE	W06
	BYTE		        Dn1 
	BYTE	W06
	BYTE		        An0 
	BYTE	W06
	BYTE		        Dn1 
	BYTE	W06
	BYTE		        An0 
	BYTE	W06
	BYTE	PEND
// 033   ----------------------------------------
26-Fight_(Final)_5_033:
	BYTE		N05     En1   v100
	BYTE	W06
	BYTE		        As0 
	BYTE	W06
	BYTE		        En1 
	BYTE	W06
	BYTE		        As0 
	BYTE	W06
	BYTE		        En1 
	BYTE	W06
	BYTE		        As0 
	BYTE	W06
	BYTE		        En1 
	BYTE	W06
	BYTE		        As0 
	BYTE	W06
	BYTE		        En1 
	BYTE	W06
	BYTE		        As0 
	BYTE	W06
	BYTE		        En1 
	BYTE	W06
	BYTE		        As0 
	BYTE	W06
	BYTE	PEND
// 034   ----------------------------------------
	BYTE	PATT
	 POIN2	26-Fight_(Final)_5_001
// 035   ----------------------------------------
	BYTE		N05     Gs1   v100
	BYTE	W06
	BYTE		N05   
	BYTE	W06
	BYTE		N05   
	BYTE	W06
	BYTE		N05   
	BYTE	W06
	BYTE		N05   
	BYTE	W06
	BYTE		N05   
	BYTE	W06
	BYTE		N05   
	BYTE	W06
	BYTE		N05   
	BYTE	W06
	BYTE		        Gn1 
	BYTE	W06
	BYTE		N05   
	BYTE	W06
	BYTE		N05   
	BYTE	W06
	BYTE		N05   
	BYTE	W06
// 036   ----------------------------------------
	BYTE		N05   
	BYTE	W06
	BYTE		N05   
	BYTE	W06
	BYTE		N05   
	BYTE	W06
	BYTE		N05   
	BYTE	W06
	BYTE		N05   
	BYTE	W06
	BYTE		N05   
	BYTE	W06
	BYTE		N05   
	BYTE	W06
	BYTE		N05   
	BYTE	W06
	BYTE		        Gs1 
	BYTE	W06
	BYTE		N05   
	BYTE	W06
	BYTE		N05   
	BYTE	W06
	BYTE		N05   
	BYTE	W06
// 037   ----------------------------------------
	BYTE		N05   
	BYTE	W06
	BYTE		N05   
	BYTE	W06
	BYTE		N05   
	BYTE	W06
	BYTE		N05   
	BYTE	W06
	BYTE		        Gn1 
	BYTE	W06
	BYTE		N05   
	BYTE	W06
	BYTE		N05   
	BYTE	W06
	BYTE		N05   
	BYTE	W06
	BYTE		N05   
	BYTE	W06
	BYTE		N05   
	BYTE	W06
	BYTE		N05   
	BYTE	W06
	BYTE		N05   
	BYTE	W06
// 038   ----------------------------------------
	BYTE		N05   
	BYTE	W06
	BYTE		N05   
	BYTE	W06
	BYTE		N05   
	BYTE	W06
	BYTE		N05   
	BYTE	W06
	BYTE		        Gs1 
	BYTE	W06
	BYTE		N05   
	BYTE	W06
	BYTE		N05   
	BYTE	W06
	BYTE		N05   
	BYTE	W06
	BYTE		N05   
	BYTE	W06
	BYTE		N05   
	BYTE	W06
	BYTE		N05   
	BYTE	W06
	BYTE		N05   
	BYTE	W06
// 039   ----------------------------------------
	BYTE		N05   
	BYTE	W06
	BYTE		N05   
	BYTE	W06
	BYTE		N05   
	BYTE	W06
	BYTE		N05   
	BYTE	W06
	BYTE		        Gn1 
	BYTE		N05     As1 
	BYTE	W06
	BYTE		        Gn1 
	BYTE		N05     As1 
	BYTE	W06
	BYTE		        Gn1 
	BYTE		N05     As1 
	BYTE	W06
	BYTE		        Gn1 
	BYTE		N05     As1 
	BYTE	W06
	BYTE		        Gn1 
	BYTE		N05     As1 
	BYTE	W06
	BYTE		        Gn1 
	BYTE		N05     As1 
	BYTE	W06
	BYTE		        Gn1 
	BYTE		N05     As1 
	BYTE	W06
	BYTE		        Gn1 
	BYTE		N05     As1 
	BYTE	W06
// 040   ----------------------------------------
	BYTE		        Gn1 
	BYTE		N05     As1 
	BYTE	W06
	BYTE		        Gn1 
	BYTE		N05     As1 
	BYTE	W06
	BYTE		        Gn1 
	BYTE		N05     As1 
	BYTE	W06
	BYTE		        Gn1 
	BYTE		N05     As1 
	BYTE	W06
	BYTE		        Gs1 
	BYTE		N05     Cn2 
	BYTE	W06
	BYTE		        Gs1 
	BYTE		N05     Cn2 
	BYTE	W06
	BYTE		        Gs1 
	BYTE		N05     Cn2 
	BYTE	W06
	BYTE		        Gs1 
	BYTE		N05     Cn2 
	BYTE	W06
	BYTE		        Gs1 
	BYTE		N05     Cn2 
	BYTE	W06
	BYTE		        Gs1 
	BYTE		N05     Cn2 
	BYTE	W06
	BYTE		        Gs1 
	BYTE		N05     Cn2 
	BYTE	W06
	BYTE		        Gs1 
	BYTE		N05     Cn2 
	BYTE	W06
// 041   ----------------------------------------
	BYTE		        Gs1 
	BYTE		N05     Cn2 
	BYTE	W06
	BYTE		        Gs1 
	BYTE		N05     Cn2 
	BYTE	W06
	BYTE		        Gs1 
	BYTE		N05     Cn2 
	BYTE	W06
	BYTE		        Gs1 
	BYTE		N05     Cn2 
	BYTE	W06
	BYTE		        Gn1 
	BYTE	W06
	BYTE		        Dn1 
	BYTE	W06
	BYTE		        Gn1 
	BYTE	W06
	BYTE		        Dn1 
	BYTE	W06
	BYTE		        Gn1 
	BYTE	W06
	BYTE		        Dn1 
	BYTE	W06
	BYTE		        Gn1 
	BYTE	W06
	BYTE		        Dn1 
	BYTE	W06
// 042   ----------------------------------------
	BYTE		        Gn1 
	BYTE	W06
	BYTE		        Dn1 
	BYTE	W06
	BYTE		        Gn1 
	BYTE	W06
	BYTE		        Dn1 
	BYTE	W06
	BYTE		        Fn1 
	BYTE	W06
	BYTE		        Cn1 
	BYTE	W06
	BYTE		        Fn1 
	BYTE	W06
	BYTE		        Cn1 
	BYTE	W06
	BYTE		        Fn1 
	BYTE	W06
	BYTE		        Cn1 
	BYTE	W06
	BYTE		        Fn1 
	BYTE	W06
	BYTE		        Cn1 
	BYTE	W06
// 043   ----------------------------------------
	BYTE		        Fn1 
	BYTE	W06
	BYTE		        Cn1 
	BYTE	W06
	BYTE		        Fn1 
	BYTE	W06
	BYTE		        Cn1 
	BYTE	W06
	BYTE		        Gn1 
	BYTE	W06
	BYTE		        Cs1 
	BYTE	W06
	BYTE		        Gn1 
	BYTE	W06
	BYTE		        Cs1 
	BYTE	W06
	BYTE		        Gn1 
	BYTE	W06
	BYTE		        Cs1 
	BYTE	W06
	BYTE		        Gn1 
	BYTE	W06
	BYTE		        Cs1 
	BYTE	W06
// 044   ----------------------------------------
	BYTE		        Gn1 
	BYTE	W06
	BYTE		        Cs1 
	BYTE	W06
	BYTE		        Gn1 
	BYTE	W06
	BYTE		        Cs1 
	BYTE	W06
	BYTE		        Fn1 
	BYTE	W06
	BYTE		N05   
	BYTE	W06
	BYTE		N05   
	BYTE	W06
	BYTE		N05   
	BYTE	W06
	BYTE		N05   
	BYTE	W06
	BYTE		N05   
	BYTE	W06
	BYTE		N05   
	BYTE	W06
	BYTE		N05   
	BYTE	W06
// 045   ----------------------------------------
	BYTE		N05   
	BYTE	W06
	BYTE		N05   
	BYTE	W06
	BYTE		N05   
	BYTE	W06
	BYTE		N05   
	BYTE	W06
	BYTE		        Fs1 
	BYTE	W06
	BYTE		N05   
	BYTE	W06
	BYTE		N05   
	BYTE	W06
	BYTE		N05   
	BYTE	W06
	BYTE		N05   
	BYTE	W06
	BYTE		N05   
	BYTE	W06
	BYTE		N05   
	BYTE	W06
	BYTE		N05   
	BYTE	W06
// 046   ----------------------------------------
	BYTE	PATT
	 POIN2	26-Fight_(Final)_5_012
// 047   ----------------------------------------
	BYTE		N05     Fs1   v100
	BYTE	W06
	BYTE		N05   
	BYTE	W06
	BYTE		N05   
	BYTE	W06
	BYTE		N05   
	BYTE	W06
	BYTE		N05   
	BYTE	W06
	BYTE		N05   
	BYTE	W06
	BYTE		N05   
	BYTE	W06
	BYTE		N05   
	BYTE	W06
	BYTE		        Fn1 
	BYTE	W06
	BYTE		N05   
	BYTE	W06
	BYTE		N05   
	BYTE	W06
	BYTE		N05   
	BYTE	W06
// 048   ----------------------------------------
	BYTE		N05   
	BYTE	W06
	BYTE		N05   
	BYTE	W06
	BYTE		N05   
	BYTE	W06
	BYTE		N05   
	BYTE	W06
	BYTE		N05   
	BYTE	W06
	BYTE		N05   
	BYTE	W06
	BYTE		N05   
	BYTE	W06
	BYTE		N05   
	BYTE	W06
	BYTE		        Fs1 
	BYTE	W06
	BYTE		N05   
	BYTE	W06
	BYTE		N05   
	BYTE	W06
	BYTE		N05   
	BYTE	W06
// 049   ----------------------------------------
	BYTE		N05   
	BYTE	W06
	BYTE		N05   
	BYTE	W06
	BYTE		N05   
	BYTE	W06
	BYTE		N05   
	BYTE	W06
	BYTE		N05   
	BYTE	W06
	BYTE		N05   
	BYTE	W06
	BYTE		N05   
	BYTE	W06
	BYTE		N05   
	BYTE	W06
	BYTE		        Fn1 
	BYTE		N05     Gs1 
	BYTE	W06
	BYTE		        Fn1 
	BYTE		N05     Gs1 
	BYTE	W06
	BYTE		        Fn1 
	BYTE		N05     Gs1 
	BYTE	W06
	BYTE		        Fn1 
	BYTE		N05     Gs1 
	BYTE	W06
// 050   ----------------------------------------
	BYTE		        Fn1 
	BYTE		N05     Gs1 
	BYTE	W06
	BYTE		        Fn1 
	BYTE		N05     Gs1 
	BYTE	W06
	BYTE		        Fn1 
	BYTE		N05     Gs1 
	BYTE	W06
	BYTE		        Fn1 
	BYTE		N05     Gs1 
	BYTE	W06
	BYTE		        Fn1 
	BYTE		N05     Gs1 
	BYTE	W06
	BYTE		        Fn1 
	BYTE		N05     Gs1 
	BYTE	W06
	BYTE		        Fn1 
	BYTE		N05     Gs1 
	BYTE	W06
	BYTE		        Fn1 
	BYTE		N05     Gs1 
	BYTE	W06
	BYTE		        Fs1 
	BYTE		N05     As1 
	BYTE	W06
	BYTE		        Fs1 
	BYTE		N05     As1 
	BYTE	W06
	BYTE		        Fs1 
	BYTE		N05     As1 
	BYTE	W06
	BYTE		        Fs1 
	BYTE		N05     As1 
	BYTE	W06
// 051   ----------------------------------------
	BYTE		        Fs1 
	BYTE		N05     As1 
	BYTE	W06
	BYTE		        Fs1 
	BYTE		N05     As1 
	BYTE	W06
	BYTE		        Fs1 
	BYTE		N05     As1 
	BYTE	W06
	BYTE		        Fs1 
	BYTE		N05     As1 
	BYTE	W06
	BYTE		        Fs1 
	BYTE		N05     As1 
	BYTE	W06
	BYTE		        Fs1 
	BYTE		N05     As1 
	BYTE	W06
	BYTE		        Fs1 
	BYTE		N05     As1 
	BYTE	W06
	BYTE		        Fs1 
	BYTE		N05     As1 
	BYTE	W06
	BYTE		        Fn1 
	BYTE	W06
	BYTE		        Cn1 
	BYTE	W06
	BYTE		        Fn1 
	BYTE	W06
	BYTE		        Cn1 
	BYTE	W06
// 052   ----------------------------------------
	BYTE		        Fn1 
	BYTE	W06
	BYTE		        Cn1 
	BYTE	W06
	BYTE		        Fn1 
	BYTE	W06
	BYTE		        Cn1 
	BYTE	W06
	BYTE		        Fn1 
	BYTE	W06
	BYTE		        Cn1 
	BYTE	W06
	BYTE		        Fn1 
	BYTE	W06
	BYTE		        Cn1 
	BYTE	W06
	BYTE		        Ds1 
	BYTE	W06
	BYTE		        As0 
	BYTE	W06
	BYTE		        Ds1 
	BYTE	W06
	BYTE		        As0 
	BYTE	W06
// 053   ----------------------------------------
	BYTE		        Ds1 
	BYTE	W06
	BYTE		        As0 
	BYTE	W06
	BYTE		        Ds1 
	BYTE	W06
	BYTE		        As0 
	BYTE	W06
	BYTE		        Ds1 
	BYTE	W06
	BYTE		        As0 
	BYTE	W06
	BYTE		        Ds1 
	BYTE	W06
	BYTE		        As0 
	BYTE	W06
	BYTE		        Fn1 
	BYTE	W06
	BYTE		        Bn0 
	BYTE	W06
	BYTE		        Fn1 
	BYTE	W06
	BYTE		        Bn0 
	BYTE	W06
// 054   ----------------------------------------
	BYTE		        Fn1 
	BYTE	W06
	BYTE		        Bn0 
	BYTE	W06
	BYTE		        Fn1 
	BYTE	W06
	BYTE		        Bn0 
	BYTE	W06
	BYTE		        Fn1 
	BYTE	W06
	BYTE		        Bn0 
	BYTE	W06
	BYTE		        Fn1 
	BYTE	W06
	BYTE		        Bn0 
	BYTE	W06
	BYTE		        En1 
	BYTE	W06
	BYTE		N05   
	BYTE	W06
	BYTE		N05   
	BYTE	W06
	BYTE		N05   
	BYTE	W06
// 055   ----------------------------------------
	BYTE		N05   
	BYTE	W06
	BYTE		N05   
	BYTE	W06
	BYTE		N05   
	BYTE	W06
	BYTE		N05   
	BYTE	W06
	BYTE		N05   
	BYTE	W06
	BYTE		N05   
	BYTE	W06
	BYTE		N05   
	BYTE	W06
	BYTE		N05   
	BYTE	W06
	BYTE		        Fn1 
	BYTE	W06
	BYTE		N05   
	BYTE	W06
	BYTE		N05   
	BYTE	W06
	BYTE		N05   
	BYTE	W06
// 056   ----------------------------------------
	BYTE		N05   
	BYTE	W06
	BYTE		N05   
	BYTE	W06
	BYTE		N05   
	BYTE	W06
	BYTE		N05   
	BYTE	W06
	BYTE		        En1 
	BYTE	W06
	BYTE		N05   
	BYTE	W06
	BYTE		N05   
	BYTE	W06
	BYTE		N05   
	BYTE	W06
	BYTE		N05   
	BYTE	W06
	BYTE		N05   
	BYTE	W06
	BYTE		N05   
	BYTE	W06
	BYTE		N05   
	BYTE	W06
// 057   ----------------------------------------
	BYTE		N05   
	BYTE	W06
	BYTE		N05   
	BYTE	W06
	BYTE		N05   
	BYTE	W06
	BYTE		N05   
	BYTE	W06
	BYTE		        Fn1 
	BYTE	W06
	BYTE		N05   
	BYTE	W06
	BYTE		N05   
	BYTE	W06
	BYTE		N05   
	BYTE	W06
	BYTE		N05   
	BYTE	W06
	BYTE		N05   
	BYTE	W06
	BYTE		N05   
	BYTE	W06
	BYTE		N05   
	BYTE	W06
// 058   ----------------------------------------
	BYTE	PATT
	 POIN2	26-Fight_(Final)_5_023
// 059   ----------------------------------------
	BYTE	PATT
	 POIN2	26-Fight_(Final)_5_012
// 060   ----------------------------------------
	BYTE	PATT
	 POIN2	26-Fight_(Final)_5_029
// 061   ----------------------------------------
	BYTE	PATT
	 POIN2	26-Fight_(Final)_5_030
// 062   ----------------------------------------
	BYTE	PATT
	 POIN2	26-Fight_(Final)_5_031
// 063   ----------------------------------------
	BYTE	PATT
	 POIN2	26-Fight_(Final)_5_032
// 064   ----------------------------------------
	BYTE	PATT
	 POIN2	26-Fight_(Final)_5_033
// 065   ----------------------------------------
	BYTE	PATT
	 POIN2	26-Fight_(Final)_5_001
// 066   ----------------------------------------
	BYTE		N05     Gs1   v100
	BYTE	W06
	BYTE		N05   
	BYTE	W06
	BYTE		N05   
	BYTE	W06
	BYTE		N05   
	BYTE	W06
	BYTE		N05   
	BYTE	W06
	BYTE		N05   
	BYTE	W06
	BYTE		N05   
	BYTE	W06
	BYTE		N05   
	BYTE	W06
	BYTE		        Gn1 
	BYTE	W06
	BYTE		N05   
	BYTE	W06
	BYTE		VOL     113*26-Fight_(Final)_mvl/mxv
	BYTE		N05   
	BYTE	W06
	BYTE		VOL     112*26-Fight_(Final)_mvl/mxv
	BYTE		N05   
	BYTE	W06
// 067   ----------------------------------------
	BYTE		VOL     111*26-Fight_(Final)_mvl/mxv
	BYTE		N05   
	BYTE	W06
	BYTE		N05   
	BYTE	W01
	BYTE		VOL     110*26-Fight_(Final)_mvl/mxv
	BYTE	W05
	BYTE		N05   
	BYTE	W01
	BYTE		VOL     109*26-Fight_(Final)_mvl/mxv
	BYTE	W05
	BYTE		N05   
	BYTE	W01
	BYTE		VOL     108*26-Fight_(Final)_mvl/mxv
	BYTE	W05
	BYTE		N05   
	BYTE	W01
	BYTE		VOL     107*26-Fight_(Final)_mvl/mxv
	BYTE	W05
	BYTE		N05   
	BYTE	W03
	BYTE		VOL     106*26-Fight_(Final)_mvl/mxv
	BYTE	W03
	BYTE		N05   
	BYTE	W03
	BYTE		VOL     105*26-Fight_(Final)_mvl/mxv
	BYTE	W03
	BYTE		N05   
	BYTE	W03
	BYTE		VOL     104*26-Fight_(Final)_mvl/mxv
	BYTE	W03
	BYTE		N05     Gs1 
	BYTE	W04
	BYTE		VOL     103*26-Fight_(Final)_mvl/mxv
	BYTE	W02
	BYTE		N05   
	BYTE	W04
	BYTE		VOL     102*26-Fight_(Final)_mvl/mxv
	BYTE	W02
	BYTE		N05   
	BYTE	W04
	BYTE		VOL     101*26-Fight_(Final)_mvl/mxv
	BYTE	W02
	BYTE		N05   
	BYTE	W04
	BYTE		VOL     100*26-Fight_(Final)_mvl/mxv
	BYTE	W02
// 068   ----------------------------------------
	BYTE		N05   
	BYTE	W06
	BYTE		VOL     99*26-Fight_(Final)_mvl/mxv
	BYTE		N05   
	BYTE	W06
	BYTE		VOL     98*26-Fight_(Final)_mvl/mxv
	BYTE		N05   
	BYTE	W06
	BYTE		VOL     97*26-Fight_(Final)_mvl/mxv
	BYTE		N05   
	BYTE	W06
	BYTE		VOL     96*26-Fight_(Final)_mvl/mxv
	BYTE		N05     Gn1 
	BYTE	W06
	BYTE		N05   
	BYTE	W01
	BYTE		VOL     95*26-Fight_(Final)_mvl/mxv
	BYTE	W05
	BYTE		N05   
	BYTE	W01
	BYTE		VOL     94*26-Fight_(Final)_mvl/mxv
	BYTE	W05
	BYTE		N05   
	BYTE	W01
	BYTE		VOL     93*26-Fight_(Final)_mvl/mxv
	BYTE	W05
	BYTE		N05   
	BYTE	W03
	BYTE		VOL     92*26-Fight_(Final)_mvl/mxv
	BYTE	W03
	BYTE		N05   
	BYTE	W03
	BYTE		VOL     91*26-Fight_(Final)_mvl/mxv
	BYTE	W03
	BYTE		N05   
	BYTE	W03
	BYTE		VOL     90*26-Fight_(Final)_mvl/mxv
	BYTE	W03
	BYTE		N05   
	BYTE	W03
	BYTE		VOL     89*26-Fight_(Final)_mvl/mxv
	BYTE	W03
// 069   ----------------------------------------
	BYTE		N05   
	BYTE	W04
	BYTE		VOL     88*26-Fight_(Final)_mvl/mxv
	BYTE	W02
	BYTE		N05   
	BYTE	W04
	BYTE		VOL     87*26-Fight_(Final)_mvl/mxv
	BYTE	W02
	BYTE		N05   
	BYTE	W04
	BYTE		VOL     86*26-Fight_(Final)_mvl/mxv
	BYTE	W02
	BYTE		N05   
	BYTE	W04
	BYTE		VOL     85*26-Fight_(Final)_mvl/mxv
	BYTE	W02
	BYTE		N05     Gs1 
	BYTE	W06
	BYTE		VOL     84*26-Fight_(Final)_mvl/mxv
	BYTE		N05   
	BYTE	W06
	BYTE		VOL     83*26-Fight_(Final)_mvl/mxv
	BYTE		N05   
	BYTE	W06
	BYTE		VOL     82*26-Fight_(Final)_mvl/mxv
	BYTE		N05   
	BYTE	W06
	BYTE		N05   
	BYTE	W01
	BYTE		VOL     81*26-Fight_(Final)_mvl/mxv
	BYTE	W05
	BYTE		N05   
	BYTE	W01
	BYTE		VOL     80*26-Fight_(Final)_mvl/mxv
	BYTE	W05
	BYTE		N05   
	BYTE	W01
	BYTE		VOL     79*26-Fight_(Final)_mvl/mxv
	BYTE	W05
	BYTE		N05   
	BYTE	W01
	BYTE		VOL     78*26-Fight_(Final)_mvl/mxv
	BYTE	W05
// 070   ----------------------------------------
	BYTE		N05   
	BYTE	W03
	BYTE		VOL     77*26-Fight_(Final)_mvl/mxv
	BYTE	W03
	BYTE		N05   
	BYTE	W03
	BYTE		VOL     76*26-Fight_(Final)_mvl/mxv
	BYTE	W03
	BYTE		N05   
	BYTE	W03
	BYTE		VOL     75*26-Fight_(Final)_mvl/mxv
	BYTE	W03
	BYTE		N05   
	BYTE	W03
	BYTE		VOL     74*26-Fight_(Final)_mvl/mxv
	BYTE	W03
	BYTE		N05     Gn1 
	BYTE		N05     As1 
	BYTE	W04
	BYTE		VOL     73*26-Fight_(Final)_mvl/mxv
	BYTE	W02
	BYTE		N05     Gn1 
	BYTE		N05     As1 
	BYTE	W04
	BYTE		VOL     72*26-Fight_(Final)_mvl/mxv
	BYTE	W02
	BYTE		N05     Gn1 
	BYTE		N05     As1 
	BYTE	W04
	BYTE		VOL     71*26-Fight_(Final)_mvl/mxv
	BYTE	W02
	BYTE		N05     Gn1 
	BYTE		N05     As1 
	BYTE	W06
	BYTE		VOL     70*26-Fight_(Final)_mvl/mxv
	BYTE		N05     Gn1 
	BYTE		N05     As1 
	BYTE	W06
	BYTE		VOL     69*26-Fight_(Final)_mvl/mxv
	BYTE		N05     Gn1 
	BYTE		N05     As1 
	BYTE	W06
	BYTE		VOL     68*26-Fight_(Final)_mvl/mxv
	BYTE		N05     Gn1 
	BYTE		N05     As1 
	BYTE	W06
	BYTE		VOL     67*26-Fight_(Final)_mvl/mxv
	BYTE		N05     Gn1 
	BYTE		N05     As1 
	BYTE	W06
// 071   ----------------------------------------
	BYTE		        Gn1 
	BYTE		N05     As1 
	BYTE	W01
	BYTE		VOL     66*26-Fight_(Final)_mvl/mxv
	BYTE	W05
	BYTE		N05     Gn1 
	BYTE		N05     As1 
	BYTE	W01
	BYTE		VOL     65*26-Fight_(Final)_mvl/mxv
	BYTE	W05
	BYTE		N05     Gn1 
	BYTE		N05     As1 
	BYTE	W01
	BYTE		VOL     64*26-Fight_(Final)_mvl/mxv
	BYTE	W05
	BYTE		N05     Gn1 
	BYTE		N05     As1 
	BYTE	W03
	BYTE		VOL     63*26-Fight_(Final)_mvl/mxv
	BYTE	W03
	BYTE		N05     Gs1 
	BYTE		N05     Cn2 
	BYTE	W03
	BYTE		VOL     62*26-Fight_(Final)_mvl/mxv
	BYTE	W03
	BYTE		N05     Gs1 
	BYTE		N05     Cn2 
	BYTE	W03
	BYTE		VOL     61*26-Fight_(Final)_mvl/mxv
	BYTE	W03
	BYTE		N05     Gs1 
	BYTE		N05     Cn2 
	BYTE	W03
	BYTE		VOL     60*26-Fight_(Final)_mvl/mxv
	BYTE	W03
	BYTE		N05     Gs1 
	BYTE		N05     Cn2 
	BYTE	W04
	BYTE		VOL     59*26-Fight_(Final)_mvl/mxv
	BYTE	W02
	BYTE		N05     Gs1 
	BYTE		N05     Cn2 
	BYTE	W04
	BYTE		VOL     58*26-Fight_(Final)_mvl/mxv
	BYTE	W02
	BYTE		N05     Gs1 
	BYTE		N05     Cn2 
	BYTE	W04
	BYTE		VOL     57*26-Fight_(Final)_mvl/mxv
	BYTE	W02
	BYTE		N05     Gs1 
	BYTE		N05     Cn2 
	BYTE	W04
	BYTE		VOL     56*26-Fight_(Final)_mvl/mxv
	BYTE	W02
	BYTE		N05     Gs1 
	BYTE		N05     Cn2 
	BYTE	W06
// 072   ----------------------------------------
	BYTE		VOL     55*26-Fight_(Final)_mvl/mxv
	BYTE		N05     Gs1 
	BYTE		N05     Cn2 
	BYTE	W06
	BYTE		VOL     54*26-Fight_(Final)_mvl/mxv
	BYTE		N05     Gs1 
	BYTE		N05     Cn2 
	BYTE	W06
	BYTE		VOL     53*26-Fight_(Final)_mvl/mxv
	BYTE		N05     Gs1 
	BYTE		N05     Cn2 
	BYTE	W06
	BYTE		        Gs1 
	BYTE		N05     Cn2 
	BYTE	W01
	BYTE		VOL     52*26-Fight_(Final)_mvl/mxv
	BYTE	W05
	BYTE		N05     Gn1 
	BYTE	W01
	BYTE		VOL     51*26-Fight_(Final)_mvl/mxv
	BYTE	W05
	BYTE		N05     Dn1 
	BYTE	W01
	BYTE		VOL     50*26-Fight_(Final)_mvl/mxv
	BYTE	W05
	BYTE		N05     Gn1 
	BYTE	W01
	BYTE		VOL     49*26-Fight_(Final)_mvl/mxv
	BYTE	W05
	BYTE		N05     Dn1 
	BYTE	W03
	BYTE		VOL     48*26-Fight_(Final)_mvl/mxv
	BYTE	W03
	BYTE		N05     Gn1 
	BYTE	W03
	BYTE		VOL     47*26-Fight_(Final)_mvl/mxv
	BYTE	W03
	BYTE		N05     Dn1 
	BYTE	W03
	BYTE		VOL     46*26-Fight_(Final)_mvl/mxv
	BYTE	W03
	BYTE		N05     Gn1 
	BYTE	W03
	BYTE		VOL     45*26-Fight_(Final)_mvl/mxv
	BYTE	W03
	BYTE		N05     Dn1 
	BYTE	W04
	BYTE		VOL     44*26-Fight_(Final)_mvl/mxv
	BYTE	W02
// 073   ----------------------------------------
	BYTE		N05     Gn1 
	BYTE	W04
	BYTE		VOL     43*26-Fight_(Final)_mvl/mxv
	BYTE	W02
	BYTE		N05     Dn1 
	BYTE	W04
	BYTE		VOL     42*26-Fight_(Final)_mvl/mxv
	BYTE	W02
	BYTE		N05     Gn1 
	BYTE	W06
	BYTE		VOL     41*26-Fight_(Final)_mvl/mxv
	BYTE		N05     Dn1 
	BYTE	W06
	BYTE		VOL     40*26-Fight_(Final)_mvl/mxv
	BYTE		N05     Fn1 
	BYTE	W06
	BYTE		VOL     39*26-Fight_(Final)_mvl/mxv
	BYTE		N05     Cn1 
	BYTE	W06
	BYTE		VOL     38*26-Fight_(Final)_mvl/mxv
	BYTE		N05     Fn1 
	BYTE	W06
	BYTE		        Cn1 
	BYTE	W01
	BYTE		VOL     37*26-Fight_(Final)_mvl/mxv
	BYTE	W05
	BYTE		N05     Fn1 
	BYTE	W01
	BYTE		VOL     36*26-Fight_(Final)_mvl/mxv
	BYTE	W05
	BYTE		N05     Cn1 
	BYTE	W01
	BYTE		VOL     35*26-Fight_(Final)_mvl/mxv
	BYTE	W05
	BYTE		N05     Fn1 
	BYTE	W01
	BYTE		VOL     34*26-Fight_(Final)_mvl/mxv
	BYTE	W05
	BYTE		N05     Cn1 
	BYTE	W03
	BYTE		VOL     33*26-Fight_(Final)_mvl/mxv
	BYTE	W03
// 074   ----------------------------------------
	BYTE		N05     Fn1 
	BYTE	W03
	BYTE		VOL     32*26-Fight_(Final)_mvl/mxv
	BYTE	W03
	BYTE		N05     Cn1 
	BYTE	W03
	BYTE		VOL     31*26-Fight_(Final)_mvl/mxv
	BYTE	W03
	BYTE		N05     Fn1 
	BYTE	W04
	BYTE		VOL     30*26-Fight_(Final)_mvl/mxv
	BYTE	W02
	BYTE		N05     Cn1 
	BYTE	W04
	BYTE		VOL     29*26-Fight_(Final)_mvl/mxv
	BYTE	W02
	BYTE		N05     Gn1 
	BYTE	W04
	BYTE		VOL     28*26-Fight_(Final)_mvl/mxv
	BYTE	W02
	BYTE		N05     Cs1 
	BYTE	W04
	BYTE		VOL     27*26-Fight_(Final)_mvl/mxv
	BYTE	W02
	BYTE		N05     Gn1 
	BYTE	W06
	BYTE		VOL     26*26-Fight_(Final)_mvl/mxv
	BYTE		N05     Cs1 
	BYTE	W06
	BYTE		VOL     25*26-Fight_(Final)_mvl/mxv
	BYTE		N05     Gn1 
	BYTE	W06
	BYTE		VOL     24*26-Fight_(Final)_mvl/mxv
	BYTE		N05     Cs1 
	BYTE	W06
	BYTE		VOL     23*26-Fight_(Final)_mvl/mxv
	BYTE		N05     Gn1 
	BYTE	W06
	BYTE		        Cs1 
	BYTE	W01
	BYTE		VOL     22*26-Fight_(Final)_mvl/mxv
	BYTE	W05
// 075   ----------------------------------------
	BYTE		N05     Gn1 
	BYTE	W01
	BYTE		VOL     21*26-Fight_(Final)_mvl/mxv
	BYTE	W05
	BYTE		N05     Cs1 
	BYTE	W01
	BYTE		VOL     20*26-Fight_(Final)_mvl/mxv
	BYTE	W05
	BYTE		N05     Gn1 
	BYTE	W03
	BYTE		VOL     19*26-Fight_(Final)_mvl/mxv
	BYTE	W03
	BYTE		N05     Cs1 
	BYTE	W03
	BYTE		VOL     18*26-Fight_(Final)_mvl/mxv
	BYTE	W03
	BYTE		N05     Fn1 
	BYTE	W03
	BYTE		VOL     17*26-Fight_(Final)_mvl/mxv
	BYTE	W03
	BYTE		N05   
	BYTE	W03
	BYTE		VOL     16*26-Fight_(Final)_mvl/mxv
	BYTE	W03
	BYTE		N05   
	BYTE	W04
	BYTE		VOL     15*26-Fight_(Final)_mvl/mxv
	BYTE	W02
	BYTE		N05   
	BYTE	W04
	BYTE		VOL     14*26-Fight_(Final)_mvl/mxv
	BYTE	W02
	BYTE		N05   
	BYTE	W04
	BYTE		VOL     13*26-Fight_(Final)_mvl/mxv
	BYTE	W02
	BYTE		N05   
	BYTE	W06
	BYTE		VOL     12*26-Fight_(Final)_mvl/mxv
	BYTE		N05   
	BYTE	W06
	BYTE		VOL     11*26-Fight_(Final)_mvl/mxv
	BYTE		N05   
	BYTE	W06
// 076   ----------------------------------------
	BYTE		VOL     10*26-Fight_(Final)_mvl/mxv
	BYTE		N05   
	BYTE	W06
	BYTE		VOL     9*26-Fight_(Final)_mvl/mxv
	BYTE		N05   
	BYTE	W06
	BYTE		N05   
	BYTE	W01
	BYTE		VOL     8*26-Fight_(Final)_mvl/mxv
	BYTE	W05
	BYTE		N05   
	BYTE	W01
	BYTE		VOL     7*26-Fight_(Final)_mvl/mxv
	BYTE	W05
	BYTE		N05     Fs1 
	BYTE	W01
	BYTE		VOL     6*26-Fight_(Final)_mvl/mxv
	BYTE	W05
	BYTE		N05   
	BYTE	W01
	BYTE		VOL     5*26-Fight_(Final)_mvl/mxv
	BYTE	W05
	BYTE		N05   
	BYTE	W03
	BYTE		VOL     4*26-Fight_(Final)_mvl/mxv
	BYTE	W03
	BYTE		N05   
	BYTE	W03
	BYTE		VOL     3*26-Fight_(Final)_mvl/mxv
	BYTE	W03
	BYTE		N05   
	BYTE	W03
	BYTE		VOL     2*26-Fight_(Final)_mvl/mxv
	BYTE	W03
	BYTE		N05   
	BYTE	W06
	BYTE		N05   
	BYTE	W06
	BYTE		N05   
	BYTE	W06
// 077   ----------------------------------------
	BYTE	W48
	BYTE	FINE

//**************** Track 6 (Midi-Chn.6) ****************//

26-Fight_(Final)_6:
	BYTE	KEYSH   26-Fight_(Final)_key+0
// 000   ----------------------------------------
	BYTE	W48
	BYTE		VOICE   29
	BYTE	W05
	BYTE	W04
	BYTE	W03
	BYTE	W03
	BYTE	W01
	BYTE		VOL     122*26-Fight_(Final)_mvl/mxv
	BYTE	W01
	BYTE	W03
	BYTE	W01
	BYTE		        123*26-Fight_(Final)_mvl/mxv
	BYTE	W03
// 001   ----------------------------------------
26-Fight_(Final)_6_001:
	BYTE		N10     Dn4   v100
	BYTE	W01
	BYTE		VOL     124*26-Fight_(Final)_mvl/mxv
	BYTE	W03
	BYTE		        125*26-Fight_(Final)_mvl/mxv
	BYTE	W05
	BYTE		        126*26-Fight_(Final)_mvl/mxv
	BYTE	W03
	BYTE		        123*26-Fight_(Final)_mvl/mxv
	BYTE		N10     As3 
	BYTE	W12
	BYTE		        Gn3 
	BYTE	W12
	BYTE		        Dn4 
	BYTE	W12
	BYTE		        As3 
	BYTE	W12
	BYTE		        Gn3 
	BYTE	W12
	BYTE	PEND
// 002   ----------------------------------------
26-Fight_(Final)_6_002:
	BYTE		N10     Ds4   v100
	BYTE	W24
	BYTE		N10   
	BYTE	W24
	BYTE	PEND
// 003   ----------------------------------------
	BYTE		        Dn4 
	BYTE	W12
	BYTE		        As3 
	BYTE	W12
	BYTE		        Gn3 
	BYTE	W12
	BYTE		        Dn4 
	BYTE	W12
	BYTE		        As3 
	BYTE	W12
	BYTE		        Gn3 
	BYTE	W12
// 004   ----------------------------------------
	BYTE	PATT
	 POIN2	26-Fight_(Final)_6_002
// 005   ----------------------------------------
26-Fight_(Final)_6_005:
	BYTE		N10     Dn4   v100
	BYTE	W24
	BYTE		        As3 
	BYTE	W12
	BYTE		        Dn4 
	BYTE	W24
	BYTE		        As3 
	BYTE	W12
	BYTE	PEND
// 006   ----------------------------------------
26-Fight_(Final)_6_006:
	BYTE		N10     Ds4   v100
	BYTE	W24
	BYTE		        Cn4 
	BYTE	W24
	BYTE		        Gs3 
	BYTE	W24
	BYTE	PEND
// 007   ----------------------------------------
	BYTE	PATT
	 POIN2	26-Fight_(Final)_6_005
// 008   ----------------------------------------
	BYTE	PATT
	 POIN2	26-Fight_(Final)_6_006
// 009   ----------------------------------------
	BYTE		N21     Dn4   v100
	BYTE		N16     Dn5 
	BYTE	W24
	BYTE		N21     As3 
	BYTE		N21     As4 
	BYTE	W24
	BYTE		        Gn3 
	BYTE		N21     Gn4 
	BYTE	W24
// 010   ----------------------------------------
	BYTE		        Cn4 
	BYTE		N14     Cn5 
	BYTE	W24
	BYTE		N21     An3 
	BYTE		N17     An4 
	BYTE	W24
	BYTE		N21     Fn3 
	BYTE		N17     Fn4 
	BYTE	W24
// 011   ----------------------------------------
	BYTE		N10     Cs4 
	BYTE		N10     Cs5 
	BYTE	W24
	BYTE		        As3 
	BYTE		N10     As4 
	BYTE	W24
	BYTE		        Gn3 
	BYTE		N10     Gn4 
	BYTE	W24
// 012   ----------------------------------------
	BYTE		        Cn4 
	BYTE	W01
	BYTE		VOL     124*26-Fight_(Final)_mvl/mxv
	BYTE	W03
	BYTE		        125*26-Fight_(Final)_mvl/mxv
	BYTE	W05
	BYTE		        126*26-Fight_(Final)_mvl/mxv
	BYTE	W03
	BYTE		        123*26-Fight_(Final)_mvl/mxv
	BYTE		N10     Gs3 
	BYTE	W12
	BYTE		        Fn3 
	BYTE	W12
	BYTE		        Cn4 
	BYTE	W12
	BYTE		        Gs3 
	BYTE	W12
	BYTE		        Fn3 
	BYTE	W12
// 013   ----------------------------------------
26-Fight_(Final)_6_013:
	BYTE		N10     Cs4   v100
	BYTE	W24
	BYTE		N10   
	BYTE	W24
	BYTE	PEND
// 014   ----------------------------------------
26-Fight_(Final)_6_014:
	BYTE		N10     Cn4   v100
	BYTE	W12
	BYTE		        Gs3 
	BYTE	W12
	BYTE		        Fn3 
	BYTE	W12
	BYTE		        Cn4 
	BYTE	W12
	BYTE		        Gs3 
	BYTE	W12
	BYTE		        Fn3 
	BYTE	W12
	BYTE	PEND
// 015   ----------------------------------------
	BYTE	PATT
	 POIN2	26-Fight_(Final)_6_013
// 016   ----------------------------------------
26-Fight_(Final)_6_016:
	BYTE		N10     Cn4   v100
	BYTE	W24
	BYTE		        Gs3 
	BYTE	W12
	BYTE		        Cn4 
	BYTE	W24
	BYTE		        Gs3 
	BYTE	W12
	BYTE	PEND
// 017   ----------------------------------------
26-Fight_(Final)_6_017:
	BYTE		N10     Cs4   v100
	BYTE	W24
	BYTE		        As3 
	BYTE	W24
	BYTE		        Fs3 
	BYTE	W24
	BYTE	PEND
// 018   ----------------------------------------
	BYTE	PATT
	 POIN2	26-Fight_(Final)_6_016
// 019   ----------------------------------------
	BYTE	PATT
	 POIN2	26-Fight_(Final)_6_017
// 020   ----------------------------------------
	BYTE		N21     Cn4   v100
	BYTE		N16     Cn5 
	BYTE	W24
	BYTE		N21     Gs3 
	BYTE		N21     Gs4 
	BYTE	W24
	BYTE		        Fn3 
	BYTE		N21     Fn4 
	BYTE	W24
// 021   ----------------------------------------
	BYTE		        As3 
	BYTE		N14     As4 
	BYTE	W24
	BYTE		N21     Gn3 
	BYTE		N17     Gn4 
	BYTE	W24
	BYTE		N21     Ds3 
	BYTE		N17     Ds4 
	BYTE	W24
// 022   ----------------------------------------
	BYTE		N10     Bn3 
	BYTE		N10     Bn4 
	BYTE	W24
	BYTE		        Gs3 
	BYTE		N10     Gs4 
	BYTE	W24
	BYTE		        Fn3 
	BYTE		N10     Fn4 
	BYTE	W24
// 023   ----------------------------------------
	BYTE		        Bn3 
	BYTE	W01
	BYTE		VOL     124*26-Fight_(Final)_mvl/mxv
	BYTE	W03
	BYTE		        125*26-Fight_(Final)_mvl/mxv
	BYTE	W05
	BYTE		        126*26-Fight_(Final)_mvl/mxv
	BYTE	W03
	BYTE		        123*26-Fight_(Final)_mvl/mxv
	BYTE		N10     Gn3 
	BYTE	W12
	BYTE		        En3 
	BYTE	W12
	BYTE		        Bn3 
	BYTE	W12
	BYTE		        Gn3 
	BYTE	W12
	BYTE		        En3 
	BYTE	W12
// 024   ----------------------------------------
26-Fight_(Final)_6_024:
	BYTE		N10     Cn4   v100
	BYTE	W24
	BYTE		N10   
	BYTE	W24
	BYTE	PEND
// 025   ----------------------------------------
	BYTE		        Bn3 
	BYTE	W12
	BYTE		        Gn3 
	BYTE	W12
	BYTE		        En3 
	BYTE	W12
	BYTE		        Bn3 
	BYTE	W12
	BYTE		        Gn3 
	BYTE	W12
	BYTE		        En3 
	BYTE	W12
// 026   ----------------------------------------
	BYTE	PATT
	 POIN2	26-Fight_(Final)_6_024
// 027   ----------------------------------------
26-Fight_(Final)_6_027:
	BYTE		N10     Bn3   v100
	BYTE	W24
	BYTE		        Gn3 
	BYTE	W12
	BYTE		        Bn3 
	BYTE	W24
	BYTE		        Gn3 
	BYTE	W12
	BYTE	PEND
// 028   ----------------------------------------
26-Fight_(Final)_6_028:
	BYTE		N10     Cn4   v100
	BYTE	W24
	BYTE		        An3 
	BYTE	W24
	BYTE		        Fn3 
	BYTE	W24
	BYTE	PEND
// 029   ----------------------------------------
	BYTE	PATT
	 POIN2	26-Fight_(Final)_6_027
// 030   ----------------------------------------
	BYTE	PATT
	 POIN2	26-Fight_(Final)_6_028
// 031   ----------------------------------------
26-Fight_(Final)_6_031:
	BYTE		N21     Bn3   v100
	BYTE		N16     Bn4 
	BYTE	W24
	BYTE		N21     Gn3 
	BYTE		N21     Gn4 
	BYTE	W24
	BYTE		        En3 
	BYTE		N21     En4 
	BYTE	W24
	BYTE	PEND
// 032   ----------------------------------------
26-Fight_(Final)_6_032:
	BYTE		N21     An3   v100
	BYTE		N14     An4 
	BYTE	W24
	BYTE		N21     Fs3 
	BYTE		N17     Fs4 
	BYTE	W24
	BYTE		N21     Dn3 
	BYTE		N17     Dn4 
	BYTE	W24
	BYTE	PEND
// 033   ----------------------------------------
26-Fight_(Final)_6_033:
	BYTE		N10     As3   v100
	BYTE		N10     As4 
	BYTE	W24
	BYTE		        Gn3 
	BYTE		N10     Gn4 
	BYTE	W24
	BYTE		        En3 
	BYTE		N10     En4 
	BYTE	W24
	BYTE	PEND
// 034   ----------------------------------------
	BYTE	PATT
	 POIN2	26-Fight_(Final)_6_001
// 035   ----------------------------------------
	BYTE		N10     Ds4   v100
	BYTE	W24
	BYTE		N10   
	BYTE	W24
	BYTE		        Dn4 
	BYTE	W12
	BYTE		        As3 
	BYTE	W12
// 036   ----------------------------------------
	BYTE		        Gn3 
	BYTE	W12
	BYTE		        Dn4 
	BYTE	W12
	BYTE		        As3 
	BYTE	W12
	BYTE		        Gn3 
	BYTE	W12
	BYTE		        Ds4 
	BYTE	W24
// 037   ----------------------------------------
	BYTE		N10   
	BYTE	W24
	BYTE		        Dn4 
	BYTE	W24
	BYTE		        As3 
	BYTE	W12
	BYTE		        Dn4 
	BYTE	W12
// 038   ----------------------------------------
26-Fight_(Final)_6_038:
	BYTE	W12
	BYTE		N10     As3   v100
	BYTE	W12
	BYTE		        Ds4 
	BYTE	W24
	BYTE		        Cn4 
	BYTE	W24
	BYTE	PEND
// 039   ----------------------------------------
	BYTE		        Gs3 
	BYTE	W24
	BYTE		        Dn4 
	BYTE	W24
	BYTE		        As3 
	BYTE	W12
	BYTE		        Dn4 
	BYTE	W12
// 040   ----------------------------------------
	BYTE	PATT
	 POIN2	26-Fight_(Final)_6_038
// 041   ----------------------------------------
	BYTE		N10     Gs3   v100
	BYTE	W24
	BYTE		N21     Dn4 
	BYTE		N16     Dn5 
	BYTE	W24
	BYTE		N21     As3 
	BYTE		N21     As4 
	BYTE	W24
// 042   ----------------------------------------
	BYTE		        Gn3 
	BYTE		N21     Gn4 
	BYTE	W24
	BYTE		        Cn4 
	BYTE		N14     Cn5 
	BYTE	W24
	BYTE		N21     An3 
	BYTE		N17     An4 
	BYTE	W24
// 043   ----------------------------------------
	BYTE		N21     Fn3 
	BYTE		N17     Fn4 
	BYTE	W24
	BYTE		N10     Cs4 
	BYTE		N10     Cs5 
	BYTE	W24
	BYTE		        As3 
	BYTE		N10     As4 
	BYTE	W24
// 044   ----------------------------------------
	BYTE		        Gn3 
	BYTE		N10     Gn4 
	BYTE	W24
	BYTE		        Cn4 
	BYTE	W01
	BYTE		VOL     124*26-Fight_(Final)_mvl/mxv
	BYTE	W03
	BYTE		        125*26-Fight_(Final)_mvl/mxv
	BYTE	W05
	BYTE		        126*26-Fight_(Final)_mvl/mxv
	BYTE	W03
	BYTE		        123*26-Fight_(Final)_mvl/mxv
	BYTE		N10     Gs3 
	BYTE	W12
	BYTE		        Fn3 
	BYTE	W12
	BYTE		        Cn4 
	BYTE	W12
// 045   ----------------------------------------
	BYTE		        Gs3 
	BYTE	W12
	BYTE		        Fn3 
	BYTE	W12
	BYTE		        Cs4 
	BYTE	W24
	BYTE		N10   
	BYTE	W24
// 046   ----------------------------------------
	BYTE	PATT
	 POIN2	26-Fight_(Final)_6_014
// 047   ----------------------------------------
	BYTE		N10     Cs4   v100
	BYTE	W24
	BYTE		N10   
	BYTE	W24
	BYTE		        Cn4 
	BYTE	W24
// 048   ----------------------------------------
26-Fight_(Final)_6_048:
	BYTE		N10     Gs3   v100
	BYTE	W12
	BYTE		        Cn4 
	BYTE	W24
	BYTE		        Gs3 
	BYTE	W12
	BYTE		        Cs4 
	BYTE	W24
	BYTE	PEND
// 049   ----------------------------------------
	BYTE		        As3 
	BYTE	W24
	BYTE		        Fs3 
	BYTE	W24
	BYTE		        Cn4 
	BYTE	W24
// 050   ----------------------------------------
	BYTE	PATT
	 POIN2	26-Fight_(Final)_6_048
// 051   ----------------------------------------
	BYTE		N10     As3   v100
	BYTE	W24
	BYTE		        Fs3 
	BYTE	W24
	BYTE		N21     Cn4 
	BYTE		N16     Cn5 
	BYTE	W24
// 052   ----------------------------------------
	BYTE		N21     Gs3 
	BYTE		N21     Gs4 
	BYTE	W24
	BYTE		        Fn3 
	BYTE		N21     Fn4 
	BYTE	W24
	BYTE		        As3 
	BYTE		N14     As4 
	BYTE	W24
// 053   ----------------------------------------
	BYTE		N21     Gn3 
	BYTE		N17     Gn4 
	BYTE	W24
	BYTE		N21     Ds3 
	BYTE		N17     Ds4 
	BYTE	W24
	BYTE		N10     Bn3 
	BYTE		N10     Bn4 
	BYTE	W24
// 054   ----------------------------------------
	BYTE		        Gs3 
	BYTE		N10     Gs4 
	BYTE	W24
	BYTE		        Fn3 
	BYTE		N10     Fn4 
	BYTE	W24
	BYTE		        Bn3 
	BYTE	W01
	BYTE		VOL     124*26-Fight_(Final)_mvl/mxv
	BYTE	W03
	BYTE		        125*26-Fight_(Final)_mvl/mxv
	BYTE	W05
	BYTE		        126*26-Fight_(Final)_mvl/mxv
	BYTE	W03
	BYTE		        123*26-Fight_(Final)_mvl/mxv
	BYTE		N10     Gn3 
	BYTE	W12
// 055   ----------------------------------------
	BYTE		        En3 
	BYTE	W12
	BYTE		        Bn3 
	BYTE	W12
	BYTE		        Gn3 
	BYTE	W12
	BYTE		        En3 
	BYTE	W12
	BYTE		        Cn4 
	BYTE	W24
// 056   ----------------------------------------
	BYTE		N10   
	BYTE	W24
	BYTE		        Bn3 
	BYTE	W12
	BYTE		        Gn3 
	BYTE	W12
	BYTE		        En3 
	BYTE	W12
	BYTE		        Bn3 
	BYTE	W12
// 057   ----------------------------------------
	BYTE		        Gn3 
	BYTE	W12
	BYTE		        En3 
	BYTE	W12
	BYTE		        Cn4 
	BYTE	W24
	BYTE		N10   
	BYTE	W24
// 058   ----------------------------------------
	BYTE	PATT
	 POIN2	26-Fight_(Final)_6_027
// 059   ----------------------------------------
	BYTE	PATT
	 POIN2	26-Fight_(Final)_6_028
// 060   ----------------------------------------
	BYTE	PATT
	 POIN2	26-Fight_(Final)_6_027
// 061   ----------------------------------------
	BYTE	PATT
	 POIN2	26-Fight_(Final)_6_028
// 062   ----------------------------------------
	BYTE	PATT
	 POIN2	26-Fight_(Final)_6_031
// 063   ----------------------------------------
	BYTE	PATT
	 POIN2	26-Fight_(Final)_6_032
// 064   ----------------------------------------
	BYTE	PATT
	 POIN2	26-Fight_(Final)_6_033
// 065   ----------------------------------------
	BYTE	PATT
	 POIN2	26-Fight_(Final)_6_001
// 066   ----------------------------------------
	BYTE		N10     Ds4   v100
	BYTE	W24
	BYTE		N10   
	BYTE	W24
	BYTE		        Dn4 
	BYTE	W03
	BYTE		VOL     122*26-Fight_(Final)_mvl/mxv
	BYTE	W05
	BYTE		        121*26-Fight_(Final)_mvl/mxv
	BYTE	W04
	BYTE		N10     As3 
	BYTE	W02
	BYTE		VOL     120*26-Fight_(Final)_mvl/mxv
	BYTE	W06
	BYTE		        119*26-Fight_(Final)_mvl/mxv
	BYTE	W04
// 067   ----------------------------------------
	BYTE		N10     Gn3 
	BYTE	W02
	BYTE		VOL     118*26-Fight_(Final)_mvl/mxv
	BYTE	W06
	BYTE		        117*26-Fight_(Final)_mvl/mxv
	BYTE	W04
	BYTE		N10     Dn4 
	BYTE	W02
	BYTE		VOL     116*26-Fight_(Final)_mvl/mxv
	BYTE	W06
	BYTE		        115*26-Fight_(Final)_mvl/mxv
	BYTE	W04
	BYTE		N10     As3 
	BYTE	W04
	BYTE		VOL     114*26-Fight_(Final)_mvl/mxv
	BYTE	W06
	BYTE		        113*26-Fight_(Final)_mvl/mxv
	BYTE	W02
	BYTE		N10     Gn3 
	BYTE	W04
	BYTE		VOL     112*26-Fight_(Final)_mvl/mxv
	BYTE	W06
	BYTE		        111*26-Fight_(Final)_mvl/mxv
	BYTE	W02
	BYTE		N10     Ds4 
	BYTE	W04
	BYTE		VOL     110*26-Fight_(Final)_mvl/mxv
	BYTE	W06
	BYTE		        109*26-Fight_(Final)_mvl/mxv
	BYTE	W06
	BYTE		        108*26-Fight_(Final)_mvl/mxv
	BYTE	W07
	BYTE		        107*26-Fight_(Final)_mvl/mxv
	BYTE	W01
// 068   ----------------------------------------
	BYTE		N10   
	BYTE	W05
	BYTE		VOL     106*26-Fight_(Final)_mvl/mxv
	BYTE	W06
	BYTE		        105*26-Fight_(Final)_mvl/mxv
	BYTE	W06
	BYTE		        104*26-Fight_(Final)_mvl/mxv
	BYTE	W06
	BYTE		        103*26-Fight_(Final)_mvl/mxv
	BYTE	W01
	BYTE		N10     Dn4 
	BYTE	W05
	BYTE		VOL     102*26-Fight_(Final)_mvl/mxv
	BYTE	W06
	BYTE		        101*26-Fight_(Final)_mvl/mxv
	BYTE	W06
	BYTE		        100*26-Fight_(Final)_mvl/mxv
	BYTE	W07
	BYTE		N10     As3 
	BYTE	W01
	BYTE		VOL     99*26-Fight_(Final)_mvl/mxv
	BYTE	W06
	BYTE		        98*26-Fight_(Final)_mvl/mxv
	BYTE	W05
	BYTE		N10     Dn4 
	BYTE	W01
	BYTE		VOL     97*26-Fight_(Final)_mvl/mxv
	BYTE	W06
	BYTE		        96*26-Fight_(Final)_mvl/mxv
	BYTE	W05
// 069   ----------------------------------------
	BYTE	W01
	BYTE		        95*26-Fight_(Final)_mvl/mxv
	BYTE	W06
	BYTE		        94*26-Fight_(Final)_mvl/mxv
	BYTE	W05
	BYTE		N10     As3 
	BYTE	W01
	BYTE		VOL     93*26-Fight_(Final)_mvl/mxv
	BYTE	W07
	BYTE		        92*26-Fight_(Final)_mvl/mxv
	BYTE	W04
	BYTE		N10     Ds4 
	BYTE	W02
	BYTE		VOL     91*26-Fight_(Final)_mvl/mxv
	BYTE	W06
	BYTE		        90*26-Fight_(Final)_mvl/mxv
	BYTE	W06
	BYTE		        89*26-Fight_(Final)_mvl/mxv
	BYTE	W06
	BYTE		        88*26-Fight_(Final)_mvl/mxv
	BYTE	W04
	BYTE		N10     Cn4 
	BYTE	W02
	BYTE		VOL     87*26-Fight_(Final)_mvl/mxv
	BYTE	W06
	BYTE		        86*26-Fight_(Final)_mvl/mxv
	BYTE	W08
	BYTE		        85*26-Fight_(Final)_mvl/mxv
	BYTE	W06
	BYTE		        84*26-Fight_(Final)_mvl/mxv
	BYTE	W02
// 070   ----------------------------------------
	BYTE		N10     Gs3 
	BYTE	W04
	BYTE		VOL     83*26-Fight_(Final)_mvl/mxv
	BYTE	W06
	BYTE		        82*26-Fight_(Final)_mvl/mxv
	BYTE	W06
	BYTE		        81*26-Fight_(Final)_mvl/mxv
	BYTE	W06
	BYTE		        80*26-Fight_(Final)_mvl/mxv
	BYTE	W02
	BYTE		N10     Dn4 
	BYTE	W04
	BYTE		VOL     79*26-Fight_(Final)_mvl/mxv
	BYTE	W06
	BYTE		        78*26-Fight_(Final)_mvl/mxv
	BYTE	W07
	BYTE		        77*26-Fight_(Final)_mvl/mxv
	BYTE	W06
	BYTE		        76*26-Fight_(Final)_mvl/mxv
	BYTE	W01
	BYTE		N10     As3 
	BYTE	W05
	BYTE		VOL     75*26-Fight_(Final)_mvl/mxv
	BYTE	W06
	BYTE		        74*26-Fight_(Final)_mvl/mxv
	BYTE	W01
	BYTE		N10     Dn4 
	BYTE	W05
	BYTE		VOL     73*26-Fight_(Final)_mvl/mxv
	BYTE	W06
	BYTE		        72*26-Fight_(Final)_mvl/mxv
	BYTE	W01
// 071   ----------------------------------------
	BYTE	W05
	BYTE		        71*26-Fight_(Final)_mvl/mxv
	BYTE	W07
	BYTE		N10     As3 
	BYTE	W01
	BYTE		VOL     70*26-Fight_(Final)_mvl/mxv
	BYTE	W06
	BYTE		        69*26-Fight_(Final)_mvl/mxv
	BYTE	W05
	BYTE		N10     Ds4 
	BYTE	W01
	BYTE		VOL     68*26-Fight_(Final)_mvl/mxv
	BYTE	W06
	BYTE		        67*26-Fight_(Final)_mvl/mxv
	BYTE	W06
	BYTE		        66*26-Fight_(Final)_mvl/mxv
	BYTE	W06
	BYTE		        65*26-Fight_(Final)_mvl/mxv
	BYTE	W05
	BYTE		N10     Cn4 
	BYTE	W01
	BYTE		VOL     64*26-Fight_(Final)_mvl/mxv
	BYTE	W06
	BYTE		        63*26-Fight_(Final)_mvl/mxv
	BYTE	W07
	BYTE		        62*26-Fight_(Final)_mvl/mxv
	BYTE	W06
	BYTE		        61*26-Fight_(Final)_mvl/mxv
	BYTE	W04
// 072   ----------------------------------------
	BYTE		N10     Gs3 
	BYTE	W02
	BYTE		VOL     60*26-Fight_(Final)_mvl/mxv
	BYTE	W06
	BYTE		        59*26-Fight_(Final)_mvl/mxv
	BYTE	W06
	BYTE		        58*26-Fight_(Final)_mvl/mxv
	BYTE	W06
	BYTE		        57*26-Fight_(Final)_mvl/mxv
	BYTE	W04
	BYTE		N21     Dn4 
	BYTE		N16     Dn5 
	BYTE	W02
	BYTE		VOL     56*26-Fight_(Final)_mvl/mxv
	BYTE	W08
	BYTE		        55*26-Fight_(Final)_mvl/mxv
	BYTE	W06
	BYTE		        54*26-Fight_(Final)_mvl/mxv
	BYTE	W06
	BYTE		        53*26-Fight_(Final)_mvl/mxv
	BYTE	W02
	BYTE		N21     As3 
	BYTE		N21     As4 
	BYTE	W04
	BYTE		VOL     52*26-Fight_(Final)_mvl/mxv
	BYTE	W06
	BYTE		        51*26-Fight_(Final)_mvl/mxv
	BYTE	W06
	BYTE		        50*26-Fight_(Final)_mvl/mxv
	BYTE	W06
	BYTE		        49*26-Fight_(Final)_mvl/mxv
	BYTE	W02
// 073   ----------------------------------------
	BYTE		N21     Gn3 
	BYTE		N21     Gn4 
	BYTE	W05
	BYTE		VOL     48*26-Fight_(Final)_mvl/mxv
	BYTE	W06
	BYTE		        47*26-Fight_(Final)_mvl/mxv
	BYTE	W06
	BYTE		        46*26-Fight_(Final)_mvl/mxv
	BYTE	W06
	BYTE		        45*26-Fight_(Final)_mvl/mxv
	BYTE	W01
	BYTE		N21     Cn4 
	BYTE		N14     Cn5 
	BYTE	W05
	BYTE		VOL     44*26-Fight_(Final)_mvl/mxv
	BYTE	W06
	BYTE		        43*26-Fight_(Final)_mvl/mxv
	BYTE	W06
	BYTE		        42*26-Fight_(Final)_mvl/mxv
	BYTE	W06
	BYTE		        41*26-Fight_(Final)_mvl/mxv
	BYTE	W01
	BYTE		N21     An3 
	BYTE		N17     An4 
	BYTE	W07
	BYTE		VOL     40*26-Fight_(Final)_mvl/mxv
	BYTE	W06
	BYTE		        39*26-Fight_(Final)_mvl/mxv
	BYTE	W06
	BYTE		        38*26-Fight_(Final)_mvl/mxv
	BYTE	W05
// 074   ----------------------------------------
	BYTE		N21     Fn3 
	BYTE		N17     Fn4 
	BYTE	W01
	BYTE		VOL     37*26-Fight_(Final)_mvl/mxv
	BYTE	W06
	BYTE		        36*26-Fight_(Final)_mvl/mxv
	BYTE	W06
	BYTE		        35*26-Fight_(Final)_mvl/mxv
	BYTE	W06
	BYTE		        34*26-Fight_(Final)_mvl/mxv
	BYTE	W05
	BYTE		N10     Cs4 
	BYTE		N10     Cs5 
	BYTE	W02
	BYTE		VOL     33*26-Fight_(Final)_mvl/mxv
	BYTE	W06
	BYTE		        32*26-Fight_(Final)_mvl/mxv
	BYTE	W06
	BYTE		        31*26-Fight_(Final)_mvl/mxv
	BYTE	W06
	BYTE		        30*26-Fight_(Final)_mvl/mxv
	BYTE	W04
	BYTE		N10     As3 
	BYTE		N10     As4 
	BYTE	W02
	BYTE		VOL     29*26-Fight_(Final)_mvl/mxv
	BYTE	W06
	BYTE		        28*26-Fight_(Final)_mvl/mxv
	BYTE	W06
	BYTE		        27*26-Fight_(Final)_mvl/mxv
	BYTE	W08
	BYTE		        26*26-Fight_(Final)_mvl/mxv
	BYTE	W02
// 075   ----------------------------------------
	BYTE		N10     Gn3 
	BYTE		N10     Gn4 
	BYTE	W04
	BYTE		VOL     25*26-Fight_(Final)_mvl/mxv
	BYTE	W06
	BYTE		        24*26-Fight_(Final)_mvl/mxv
	BYTE	W06
	BYTE		        23*26-Fight_(Final)_mvl/mxv
	BYTE	W06
	BYTE		        22*26-Fight_(Final)_mvl/mxv
	BYTE	W02
	BYTE		N10     Cn4 
	BYTE	W04
	BYTE		VOL     21*26-Fight_(Final)_mvl/mxv
	BYTE	W06
	BYTE		        20*26-Fight_(Final)_mvl/mxv
	BYTE	W02
	BYTE		N10     Gs3 
	BYTE	W04
	BYTE		VOL     19*26-Fight_(Final)_mvl/mxv
	BYTE	W07
	BYTE		        18*26-Fight_(Final)_mvl/mxv
	BYTE	W01
	BYTE		N10     Fn3 
	BYTE	W05
	BYTE		VOL     17*26-Fight_(Final)_mvl/mxv
	BYTE	W06
	BYTE		        16*26-Fight_(Final)_mvl/mxv
	BYTE	W01
	BYTE		N10     Cn4 
	BYTE	W05
	BYTE		VOL     15*26-Fight_(Final)_mvl/mxv
	BYTE	W06
	BYTE		        14*26-Fight_(Final)_mvl/mxv
	BYTE	W01
// 076   ----------------------------------------
	BYTE		N10     Gs3 
	BYTE	W05
	BYTE		VOL     13*26-Fight_(Final)_mvl/mxv
	BYTE	W06
	BYTE		        12*26-Fight_(Final)_mvl/mxv
	BYTE	W01
	BYTE		N10     Fn3 
	BYTE	W07
	BYTE		VOL     11*26-Fight_(Final)_mvl/mxv
	BYTE	W05
	BYTE		N10     Cs4 
	BYTE	W01
	BYTE		VOL     10*26-Fight_(Final)_mvl/mxv
	BYTE	W06
	BYTE		        9*26-Fight_(Final)_mvl/mxv
	BYTE	W06
	BYTE		        8*26-Fight_(Final)_mvl/mxv
	BYTE	W06
	BYTE		        7*26-Fight_(Final)_mvl/mxv
	BYTE	W05
	BYTE		N10   
	BYTE	W01
	BYTE		VOL     6*26-Fight_(Final)_mvl/mxv
	BYTE	W06
	BYTE		        5*26-Fight_(Final)_mvl/mxv
	BYTE	W06
	BYTE		        4*26-Fight_(Final)_mvl/mxv
	BYTE	W07
	BYTE		        3*26-Fight_(Final)_mvl/mxv
	BYTE	W04
// 077   ----------------------------------------
	BYTE	W02
	BYTE		        2*26-Fight_(Final)_mvl/mxv
	BYTE	W44
	BYTE	W02
	BYTE	FINE

//**************** Track 7 (Midi-Chn.7) ****************//

26-Fight_(Final)_7:
	BYTE	KEYSH   26-Fight_(Final)_key+0
// 000   ----------------------------------------
	BYTE		VOICE   122
	BYTE	W60
	BYTE	W03
	BYTE		VOL     113*26-Fight_(Final)_mvl/mxv
	BYTE	W09
// 001   ----------------------------------------
26-Fight_(Final)_7_001:
	BYTE		N01     Cn1   v100
	BYTE		N01     Fs1 
	BYTE		N01     Cs2 
	BYTE	W12
	BYTE		        Fs1 
	BYTE	W06
	BYTE		N01   
	BYTE	W06
	BYTE		N01   
	BYTE	W12
	BYTE		N01   
	BYTE	W06
	BYTE		N01   
	BYTE	W06
	BYTE		N01   
	BYTE	W12
	BYTE		N01   
	BYTE	W06
	BYTE		N01   
	BYTE	W06
	BYTE	PEND
// 002   ----------------------------------------
26-Fight_(Final)_7_002:
	BYTE		N01     Dn1   v100
	BYTE		N01     Fs1 
	BYTE		N01     Cs2 
	BYTE	W12
	BYTE		        Fs1 
	BYTE	W06
	BYTE		N01   
	BYTE	W06
	BYTE		        Dn1 
	BYTE		N01     Fs1 
	BYTE		N01     Cs2 
	BYTE	W12
	BYTE		        Fs1 
	BYTE	W06
	BYTE		N01   
	BYTE	W06
	BYTE	PEND
// 003   ----------------------------------------
26-Fight_(Final)_7_003:
	BYTE		N01     Fs1   v100
	BYTE	W12
	BYTE		N01   
	BYTE	W06
	BYTE		N01   
	BYTE	W06
	BYTE		N01   
	BYTE	W12
	BYTE		N01   
	BYTE	W06
	BYTE		N01   
	BYTE	W06
	BYTE		N01   
	BYTE	W12
	BYTE		N01   
	BYTE	W06
	BYTE		N01   
	BYTE	W06
	BYTE	PEND
// 004   ----------------------------------------
	BYTE	PATT
	 POIN2	26-Fight_(Final)_7_002
// 005   ----------------------------------------
	BYTE	PATT
	 POIN2	26-Fight_(Final)_7_003
// 006   ----------------------------------------
26-Fight_(Final)_7_006:
	BYTE		N01     Dn1   v100
	BYTE		N01     Fs1 
	BYTE		N01     Cs2 
	BYTE	W12
	BYTE		        Fs1 
	BYTE	W06
	BYTE		N01   
	BYTE	W06
	BYTE		        Dn1 
	BYTE		N01     Fs1 
	BYTE		N01     Cs2 
	BYTE	W12
	BYTE		        Fs1 
	BYTE	W06
	BYTE		N01   
	BYTE	W06
	BYTE		        Dn1 
	BYTE		N01     Fs1 
	BYTE		N01     Cs2 
	BYTE	W12
	BYTE		        Fs1 
	BYTE	W06
	BYTE		N01   
	BYTE	W06
	BYTE	PEND
// 007   ----------------------------------------
	BYTE	PATT
	 POIN2	26-Fight_(Final)_7_003
// 008   ----------------------------------------
	BYTE	PATT
	 POIN2	26-Fight_(Final)_7_006
// 009   ----------------------------------------
26-Fight_(Final)_7_009:
	BYTE		N01     Dn1   v100
	BYTE		N01     Fs1 
	BYTE		N01     Cs2 
	BYTE	W12
	BYTE		        Fs1 
	BYTE	W06
	BYTE		N01   
	BYTE	W06
	BYTE		        Dn1 
	BYTE		N01     Fs1 
	BYTE	W12
	BYTE		N01   
	BYTE	W06
	BYTE		N01   
	BYTE	W06
	BYTE		        Dn1 
	BYTE		N01     Fs1 
	BYTE	W12
	BYTE		N01   
	BYTE	W06
	BYTE		N01   
	BYTE	W06
	BYTE	PEND
// 010   ----------------------------------------
26-Fight_(Final)_7_010:
	BYTE		N01     Dn1   v100
	BYTE		N01     Fs1 
	BYTE	W12
	BYTE		N01   
	BYTE	W06
	BYTE		N01   
	BYTE	W06
	BYTE		        Dn1 
	BYTE		N01     Fs1 
	BYTE	W12
	BYTE		N01   
	BYTE	W06
	BYTE		N01   
	BYTE	W06
	BYTE		        Dn1 
	BYTE		N01     Fs1 
	BYTE	W12
	BYTE		N01   
	BYTE	W06
	BYTE		N01   
	BYTE	W06
	BYTE	PEND
// 011   ----------------------------------------
	BYTE	PATT
	 POIN2	26-Fight_(Final)_7_010
// 012   ----------------------------------------
	BYTE	PATT
	 POIN2	26-Fight_(Final)_7_001
// 013   ----------------------------------------
	BYTE	PATT
	 POIN2	26-Fight_(Final)_7_002
// 014   ----------------------------------------
	BYTE	PATT
	 POIN2	26-Fight_(Final)_7_003
// 015   ----------------------------------------
	BYTE	PATT
	 POIN2	26-Fight_(Final)_7_002
// 016   ----------------------------------------
	BYTE	PATT
	 POIN2	26-Fight_(Final)_7_003
// 017   ----------------------------------------
	BYTE	PATT
	 POIN2	26-Fight_(Final)_7_006
// 018   ----------------------------------------
	BYTE	PATT
	 POIN2	26-Fight_(Final)_7_003
// 019   ----------------------------------------
	BYTE	PATT
	 POIN2	26-Fight_(Final)_7_006
// 020   ----------------------------------------
	BYTE	PATT
	 POIN2	26-Fight_(Final)_7_009
// 021   ----------------------------------------
	BYTE	PATT
	 POIN2	26-Fight_(Final)_7_010
// 022   ----------------------------------------
	BYTE	PATT
	 POIN2	26-Fight_(Final)_7_010
// 023   ----------------------------------------
	BYTE	PATT
	 POIN2	26-Fight_(Final)_7_001
// 024   ----------------------------------------
	BYTE	PATT
	 POIN2	26-Fight_(Final)_7_002
// 025   ----------------------------------------
	BYTE	PATT
	 POIN2	26-Fight_(Final)_7_003
// 026   ----------------------------------------
	BYTE	PATT
	 POIN2	26-Fight_(Final)_7_002
// 027   ----------------------------------------
	BYTE	PATT
	 POIN2	26-Fight_(Final)_7_003
// 028   ----------------------------------------
	BYTE	PATT
	 POIN2	26-Fight_(Final)_7_006
// 029   ----------------------------------------
	BYTE	PATT
	 POIN2	26-Fight_(Final)_7_003
// 030   ----------------------------------------
	BYTE	PATT
	 POIN2	26-Fight_(Final)_7_006
// 031   ----------------------------------------
	BYTE	PATT
	 POIN2	26-Fight_(Final)_7_009
// 032   ----------------------------------------
	BYTE	PATT
	 POIN2	26-Fight_(Final)_7_010
// 033   ----------------------------------------
	BYTE	PATT
	 POIN2	26-Fight_(Final)_7_010
// 034   ----------------------------------------
	BYTE	PATT
	 POIN2	26-Fight_(Final)_7_001
// 035   ----------------------------------------
26-Fight_(Final)_7_035:
	BYTE		N01     Dn1   v100
	BYTE		N01     Fs1 
	BYTE		N01     Cs2 
	BYTE	W12
	BYTE		        Fs1 
	BYTE	W06
	BYTE		N01   
	BYTE	W06
	BYTE		        Dn1 
	BYTE		N01     Fs1 
	BYTE		N01     Cs2 
	BYTE	W12
	BYTE		        Fs1 
	BYTE	W06
	BYTE		N01   
	BYTE	W06
	BYTE		N01   
	BYTE	W12
	BYTE		N01   
	BYTE	W06
	BYTE		N01   
	BYTE	W06
	BYTE	PEND
// 036   ----------------------------------------
26-Fight_(Final)_7_036:
	BYTE		N01     Fs1   v100
	BYTE	W12
	BYTE		N01   
	BYTE	W06
	BYTE		N01   
	BYTE	W06
	BYTE		N01   
	BYTE	W12
	BYTE		N01   
	BYTE	W06
	BYTE		N01   
	BYTE	W06
	BYTE		        Dn1 
	BYTE		N01     Fs1 
	BYTE		N01     Cs2 
	BYTE	W12
	BYTE		        Fs1 
	BYTE	W06
	BYTE		N01   
	BYTE	W06
	BYTE	PEND
// 037   ----------------------------------------
26-Fight_(Final)_7_037:
	BYTE		N01     Dn1   v100
	BYTE		N01     Fs1 
	BYTE		N01     Cs2 
	BYTE	W12
	BYTE		        Fs1 
	BYTE	W06
	BYTE		N01   
	BYTE	W06
	BYTE		N01   
	BYTE	W12
	BYTE		N01   
	BYTE	W06
	BYTE		N01   
	BYTE	W06
	BYTE		N01   
	BYTE	W12
	BYTE		N01   
	BYTE	W06
	BYTE		N01   
	BYTE	W06
	BYTE	PEND
// 038   ----------------------------------------
26-Fight_(Final)_7_038:
	BYTE		N01     Fs1   v100
	BYTE	W12
	BYTE		N01   
	BYTE	W06
	BYTE		N01   
	BYTE	W06
	BYTE		        Dn1 
	BYTE		N01     Fs1 
	BYTE		N01     Cs2 
	BYTE	W12
	BYTE		        Fs1 
	BYTE	W06
	BYTE		N01   
	BYTE	W06
	BYTE		        Dn1 
	BYTE		N01     Fs1 
	BYTE		N01     Cs2 
	BYTE	W12
	BYTE		        Fs1 
	BYTE	W06
	BYTE		N01   
	BYTE	W06
	BYTE	PEND
// 039   ----------------------------------------
	BYTE	PATT
	 POIN2	26-Fight_(Final)_7_037
// 040   ----------------------------------------
	BYTE	PATT
	 POIN2	26-Fight_(Final)_7_038
// 041   ----------------------------------------
	BYTE		N01     Dn1   v100
	BYTE		N01     Fs1 
	BYTE		N01     Cs2 
	BYTE	W12
	BYTE		        Fs1 
	BYTE	W06
	BYTE		N01   
	BYTE	W06
	BYTE		        Dn1 
	BYTE		N01     Fs1 
	BYTE		N01     Cs2 
	BYTE	W12
	BYTE		        Fs1 
	BYTE	W06
	BYTE		N01   
	BYTE	W06
	BYTE		        Dn1 
	BYTE		N01     Fs1 
	BYTE	W12
	BYTE		N01   
	BYTE	W06
	BYTE		N01   
	BYTE	W06
// 042   ----------------------------------------
	BYTE	PATT
	 POIN2	26-Fight_(Final)_7_010
// 043   ----------------------------------------
	BYTE	PATT
	 POIN2	26-Fight_(Final)_7_010
// 044   ----------------------------------------
	BYTE		N01     Dn1   v100
	BYTE		N01     Fs1 
	BYTE	W12
	BYTE		N01   
	BYTE	W06
	BYTE		N01   
	BYTE	W06
	BYTE		        Cn1 
	BYTE		N01     Fs1 
	BYTE		N01     Cs2 
	BYTE	W12
	BYTE		        Fs1 
	BYTE	W06
	BYTE		N01   
	BYTE	W06
	BYTE		N01   
	BYTE	W12
	BYTE		N01   
	BYTE	W06
	BYTE		N01   
	BYTE	W06
// 045   ----------------------------------------
	BYTE	PATT
	 POIN2	26-Fight_(Final)_7_038
// 046   ----------------------------------------
	BYTE	PATT
	 POIN2	26-Fight_(Final)_7_003
// 047   ----------------------------------------
	BYTE	PATT
	 POIN2	26-Fight_(Final)_7_035
// 048   ----------------------------------------
	BYTE	PATT
	 POIN2	26-Fight_(Final)_7_036
// 049   ----------------------------------------
	BYTE	PATT
	 POIN2	26-Fight_(Final)_7_035
// 050   ----------------------------------------
	BYTE	PATT
	 POIN2	26-Fight_(Final)_7_036
// 051   ----------------------------------------
	BYTE	PATT
	 POIN2	26-Fight_(Final)_7_006
// 052   ----------------------------------------
	BYTE	PATT
	 POIN2	26-Fight_(Final)_7_010
// 053   ----------------------------------------
	BYTE	PATT
	 POIN2	26-Fight_(Final)_7_010
// 054   ----------------------------------------
	BYTE		N01     Dn1   v100
	BYTE		N01     Fs1 
	BYTE	W12
	BYTE		N01   
	BYTE	W06
	BYTE		N01   
	BYTE	W06
	BYTE		        Dn1 
	BYTE		N01     Fs1 
	BYTE	W12
	BYTE		N01   
	BYTE	W06
	BYTE		N01   
	BYTE	W06
	BYTE		        Cn1 
	BYTE		N01     Fs1 
	BYTE		N01     Cs2 
	BYTE	W12
	BYTE		        Fs1 
	BYTE	W06
	BYTE		N01   
	BYTE	W06
// 055   ----------------------------------------
	BYTE	PATT
	 POIN2	26-Fight_(Final)_7_036
// 056   ----------------------------------------
	BYTE	PATT
	 POIN2	26-Fight_(Final)_7_037
// 057   ----------------------------------------
	BYTE	PATT
	 POIN2	26-Fight_(Final)_7_038
// 058   ----------------------------------------
	BYTE	PATT
	 POIN2	26-Fight_(Final)_7_003
// 059   ----------------------------------------
	BYTE	PATT
	 POIN2	26-Fight_(Final)_7_006
// 060   ----------------------------------------
	BYTE	PATT
	 POIN2	26-Fight_(Final)_7_003
// 061   ----------------------------------------
	BYTE	PATT
	 POIN2	26-Fight_(Final)_7_006
// 062   ----------------------------------------
	BYTE	PATT
	 POIN2	26-Fight_(Final)_7_009
// 063   ----------------------------------------
	BYTE	PATT
	 POIN2	26-Fight_(Final)_7_010
// 064   ----------------------------------------
	BYTE	PATT
	 POIN2	26-Fight_(Final)_7_010
// 065   ----------------------------------------
	BYTE	PATT
	 POIN2	26-Fight_(Final)_7_001
// 066   ----------------------------------------
	BYTE		N01     Dn1   v100
	BYTE		N01     Fs1 
	BYTE		N01     Cs2 
	BYTE	W12
	BYTE		        Fs1 
	BYTE	W06
	BYTE		N01   
	BYTE	W06
	BYTE		        Dn1 
	BYTE		N01     Fs1 
	BYTE		N01     Cs2 
	BYTE	W12
	BYTE		        Fs1 
	BYTE	W06
	BYTE		N01   
	BYTE	W06
	BYTE		N01   
	BYTE	W02
	BYTE		VOL     110*26-Fight_(Final)_mvl/mxv
	BYTE	W07
	BYTE		        109*26-Fight_(Final)_mvl/mxv
	BYTE	W03
	BYTE		N01   
	BYTE	W03
	BYTE		VOL     108*26-Fight_(Final)_mvl/mxv
	BYTE	W03
	BYTE		N01   
	BYTE	W05
	BYTE		VOL     107*26-Fight_(Final)_mvl/mxv
	BYTE	W01
// 067   ----------------------------------------
	BYTE		N01   
	BYTE	W05
	BYTE		VOL     106*26-Fight_(Final)_mvl/mxv
	BYTE	W07
	BYTE		        105*26-Fight_(Final)_mvl/mxv
	BYTE		N01   
	BYTE	W06
	BYTE		VOL     104*26-Fight_(Final)_mvl/mxv
	BYTE		N01   
	BYTE	W06
	BYTE		N01   
	BYTE	W02
	BYTE		VOL     103*26-Fight_(Final)_mvl/mxv
	BYTE	W06
	BYTE		        102*26-Fight_(Final)_mvl/mxv
	BYTE	W04
	BYTE		N01   
	BYTE	W02
	BYTE		VOL     101*26-Fight_(Final)_mvl/mxv
	BYTE	W04
	BYTE		N01   
	BYTE	W03
	BYTE		VOL     100*26-Fight_(Final)_mvl/mxv
	BYTE	W03
	BYTE		N01     Dn1 
	BYTE		N01     Fs1 
	BYTE		N01     Cs2 
	BYTE	W03
	BYTE		VOL     99*26-Fight_(Final)_mvl/mxv
	BYTE	W08
	BYTE		        98*26-Fight_(Final)_mvl/mxv
	BYTE	W01
	BYTE		N01     Fs1 
	BYTE	W05
	BYTE		VOL     97*26-Fight_(Final)_mvl/mxv
	BYTE	W01
	BYTE		N01   
	BYTE	W06
// 068   ----------------------------------------
	BYTE		VOL     96*26-Fight_(Final)_mvl/mxv
	BYTE		N01     Dn1 
	BYTE		N01     Fs1 
	BYTE		N01     Cs2 
	BYTE	W06
	BYTE		VOL     95*26-Fight_(Final)_mvl/mxv
	BYTE	W06
	BYTE		        94*26-Fight_(Final)_mvl/mxv
	BYTE		N01     Fs1 
	BYTE	W06
	BYTE		N01   
	BYTE	W02
	BYTE		VOL     93*26-Fight_(Final)_mvl/mxv
	BYTE	W04
	BYTE		N01   
	BYTE	W02
	BYTE		VOL     92*26-Fight_(Final)_mvl/mxv
	BYTE	W07
	BYTE		        91*26-Fight_(Final)_mvl/mxv
	BYTE	W03
	BYTE		N01   
	BYTE	W03
	BYTE		VOL     90*26-Fight_(Final)_mvl/mxv
	BYTE	W03
	BYTE		N01   
	BYTE	W05
	BYTE		VOL     89*26-Fight_(Final)_mvl/mxv
	BYTE	W01
	BYTE		N01   
	BYTE	W05
	BYTE		VOL     88*26-Fight_(Final)_mvl/mxv
	BYTE	W06
	BYTE		        87*26-Fight_(Final)_mvl/mxv
	BYTE	W01
	BYTE		N01   
	BYTE	W06
	BYTE		VOL     86*26-Fight_(Final)_mvl/mxv
	BYTE		N01   
	BYTE	W06
// 069   ----------------------------------------
	BYTE		VOL     85*26-Fight_(Final)_mvl/mxv
	BYTE		N01   
	BYTE	W08
	BYTE		VOL     84*26-Fight_(Final)_mvl/mxv
	BYTE	W04
	BYTE		N01   
	BYTE	W02
	BYTE		VOL     83*26-Fight_(Final)_mvl/mxv
	BYTE	W04
	BYTE		N01   
	BYTE	W03
	BYTE		VOL     82*26-Fight_(Final)_mvl/mxv
	BYTE	W03
	BYTE		N01     Dn1 
	BYTE		N01     Fs1 
	BYTE		N01     Cs2 
	BYTE	W03
	BYTE		VOL     81*26-Fight_(Final)_mvl/mxv
	BYTE	W06
	BYTE		        80*26-Fight_(Final)_mvl/mxv
	BYTE	W03
	BYTE		N01     Fs1 
	BYTE	W05
	BYTE		VOL     79*26-Fight_(Final)_mvl/mxv
	BYTE	W01
	BYTE		N01   
	BYTE	W05
	BYTE		VOL     78*26-Fight_(Final)_mvl/mxv
	BYTE	W01
	BYTE		N01     Dn1 
	BYTE		N01     Fs1 
	BYTE		N01     Cs2 
	BYTE	W06
	BYTE		VOL     77*26-Fight_(Final)_mvl/mxv
	BYTE	W06
	BYTE		        76*26-Fight_(Final)_mvl/mxv
	BYTE		N01     Fs1 
	BYTE	W06
	BYTE		N01   
	BYTE	W02
	BYTE		VOL     75*26-Fight_(Final)_mvl/mxv
	BYTE	W04
// 070   ----------------------------------------
	BYTE		N01     Dn1 
	BYTE		N01     Fs1 
	BYTE		N01     Cs2 
	BYTE	W02
	BYTE		VOL     74*26-Fight_(Final)_mvl/mxv
	BYTE	W06
	BYTE		        73*26-Fight_(Final)_mvl/mxv
	BYTE	W04
	BYTE		N01     Fs1 
	BYTE	W03
	BYTE		VOL     72*26-Fight_(Final)_mvl/mxv
	BYTE	W03
	BYTE		N01   
	BYTE	W03
	BYTE		VOL     71*26-Fight_(Final)_mvl/mxv
	BYTE	W03
	BYTE		N01   
	BYTE	W05
	BYTE		VOL     70*26-Fight_(Final)_mvl/mxv
	BYTE	W06
	BYTE		        69*26-Fight_(Final)_mvl/mxv
	BYTE	W01
	BYTE		N01   
	BYTE	W06
	BYTE		VOL     68*26-Fight_(Final)_mvl/mxv
	BYTE		N01   
	BYTE	W06
	BYTE		VOL     67*26-Fight_(Final)_mvl/mxv
	BYTE		N01   
	BYTE	W06
	BYTE		VOL     66*26-Fight_(Final)_mvl/mxv
	BYTE	W06
	BYTE		N01   
	BYTE	W02
	BYTE		VOL     65*26-Fight_(Final)_mvl/mxv
	BYTE	W04
	BYTE		N01   
	BYTE	W02
	BYTE		VOL     64*26-Fight_(Final)_mvl/mxv
	BYTE	W04
// 071   ----------------------------------------
	BYTE		N01   
	BYTE	W03
	BYTE		VOL     63*26-Fight_(Final)_mvl/mxv
	BYTE	W06
	BYTE		        62*26-Fight_(Final)_mvl/mxv
	BYTE	W03
	BYTE		N01   
	BYTE	W05
	BYTE		VOL     61*26-Fight_(Final)_mvl/mxv
	BYTE	W01
	BYTE		N01   
	BYTE	W05
	BYTE		VOL     60*26-Fight_(Final)_mvl/mxv
	BYTE	W01
	BYTE		N01     Dn1 
	BYTE		N01     Fs1 
	BYTE		N01     Cs2 
	BYTE	W05
	BYTE		VOL     59*26-Fight_(Final)_mvl/mxv
	BYTE	W07
	BYTE		        58*26-Fight_(Final)_mvl/mxv
	BYTE		N01     Fs1 
	BYTE	W06
	BYTE		VOL     57*26-Fight_(Final)_mvl/mxv
	BYTE		N01   
	BYTE	W06
	BYTE		        Dn1 
	BYTE		N01     Fs1 
	BYTE		N01     Cs2 
	BYTE	W02
	BYTE		VOL     56*26-Fight_(Final)_mvl/mxv
	BYTE	W06
	BYTE		        55*26-Fight_(Final)_mvl/mxv
	BYTE	W04
	BYTE		N01     Fs1 
	BYTE	W03
	BYTE		VOL     54*26-Fight_(Final)_mvl/mxv
	BYTE	W03
	BYTE		N01   
	BYTE	W03
	BYTE		VOL     53*26-Fight_(Final)_mvl/mxv
	BYTE	W03
// 072   ----------------------------------------
	BYTE		N01     Dn1 
	BYTE		N01     Fs1 
	BYTE		N01     Cs2 
	BYTE	W03
	BYTE		VOL     52*26-Fight_(Final)_mvl/mxv
	BYTE	W08
	BYTE		        51*26-Fight_(Final)_mvl/mxv
	BYTE	W01
	BYTE		N01     Fs1 
	BYTE	W05
	BYTE		VOL     50*26-Fight_(Final)_mvl/mxv
	BYTE	W01
	BYTE		N01   
	BYTE	W06
	BYTE		VOL     49*26-Fight_(Final)_mvl/mxv
	BYTE		N01     Dn1 
	BYTE		N01     Fs1 
	BYTE		N01     Cs2 
	BYTE	W06
	BYTE		VOL     48*26-Fight_(Final)_mvl/mxv
	BYTE	W06
	BYTE		N01     Fs1 
	BYTE	W02
	BYTE		VOL     47*26-Fight_(Final)_mvl/mxv
	BYTE	W04
	BYTE		N01   
	BYTE	W02
	BYTE		VOL     46*26-Fight_(Final)_mvl/mxv
	BYTE	W04
	BYTE		N01     Dn1 
	BYTE		N01     Fs1 
	BYTE	W02
	BYTE		VOL     45*26-Fight_(Final)_mvl/mxv
	BYTE	W07
	BYTE		        44*26-Fight_(Final)_mvl/mxv
	BYTE	W03
	BYTE		N01   
	BYTE	W03
	BYTE		VOL     43*26-Fight_(Final)_mvl/mxv
	BYTE	W03
	BYTE		N01   
	BYTE	W05
	BYTE		VOL     42*26-Fight_(Final)_mvl/mxv
	BYTE	W01
// 073   ----------------------------------------
	BYTE		N01     Dn1 
	BYTE		N01     Fs1 
	BYTE	W05
	BYTE		VOL     41*26-Fight_(Final)_mvl/mxv
	BYTE	W07
	BYTE		        40*26-Fight_(Final)_mvl/mxv
	BYTE		N01   
	BYTE	W06
	BYTE		VOL     39*26-Fight_(Final)_mvl/mxv
	BYTE		N01   
	BYTE	W06
	BYTE		        Dn1 
	BYTE		N01     Fs1 
	BYTE	W02
	BYTE		VOL     38*26-Fight_(Final)_mvl/mxv
	BYTE	W06
	BYTE		        37*26-Fight_(Final)_mvl/mxv
	BYTE	W04
	BYTE		N01   
	BYTE	W02
	BYTE		VOL     36*26-Fight_(Final)_mvl/mxv
	BYTE	W04
	BYTE		N01   
	BYTE	W03
	BYTE		VOL     35*26-Fight_(Final)_mvl/mxv
	BYTE	W03
	BYTE		N01     Dn1 
	BYTE		N01     Fs1 
	BYTE	W03
	BYTE		VOL     34*26-Fight_(Final)_mvl/mxv
	BYTE	W08
	BYTE		        33*26-Fight_(Final)_mvl/mxv
	BYTE	W01
	BYTE		N01   
	BYTE	W05
	BYTE		VOL     32*26-Fight_(Final)_mvl/mxv
	BYTE	W01
	BYTE		N01   
	BYTE	W06
// 074   ----------------------------------------
	BYTE		VOL     31*26-Fight_(Final)_mvl/mxv
	BYTE		N01     Dn1 
	BYTE		N01     Fs1 
	BYTE	W06
	BYTE		VOL     30*26-Fight_(Final)_mvl/mxv
	BYTE	W06
	BYTE		        29*26-Fight_(Final)_mvl/mxv
	BYTE		N01   
	BYTE	W06
	BYTE		N01   
	BYTE	W02
	BYTE		VOL     28*26-Fight_(Final)_mvl/mxv
	BYTE	W04
	BYTE		N01     Dn1 
	BYTE		N01     Fs1 
	BYTE	W02
	BYTE		VOL     27*26-Fight_(Final)_mvl/mxv
	BYTE	W07
	BYTE		        26*26-Fight_(Final)_mvl/mxv
	BYTE	W03
	BYTE		N01   
	BYTE	W03
	BYTE		VOL     25*26-Fight_(Final)_mvl/mxv
	BYTE	W03
	BYTE		N01   
	BYTE	W05
	BYTE		VOL     24*26-Fight_(Final)_mvl/mxv
	BYTE	W01
	BYTE		N01     Dn1 
	BYTE		N01     Fs1 
	BYTE	W05
	BYTE		VOL     23*26-Fight_(Final)_mvl/mxv
	BYTE	W06
	BYTE		        22*26-Fight_(Final)_mvl/mxv
	BYTE	W01
	BYTE		N01   
	BYTE	W06
	BYTE		VOL     21*26-Fight_(Final)_mvl/mxv
	BYTE		N01   
	BYTE	W06
// 075   ----------------------------------------
	BYTE		VOL     20*26-Fight_(Final)_mvl/mxv
	BYTE		N01     Dn1 
	BYTE		N01     Fs1 
	BYTE	W08
	BYTE		VOL     19*26-Fight_(Final)_mvl/mxv
	BYTE	W04
	BYTE		N01   
	BYTE	W02
	BYTE		VOL     18*26-Fight_(Final)_mvl/mxv
	BYTE	W04
	BYTE		N01   
	BYTE	W03
	BYTE		VOL     17*26-Fight_(Final)_mvl/mxv
	BYTE	W03
	BYTE		N01     Cn1 
	BYTE		N01     Fs1 
	BYTE		N01     Cs2 
	BYTE	W03
	BYTE		VOL     16*26-Fight_(Final)_mvl/mxv
	BYTE	W06
	BYTE		        15*26-Fight_(Final)_mvl/mxv
	BYTE	W03
	BYTE		N01     Fs1 
	BYTE	W05
	BYTE		VOL     14*26-Fight_(Final)_mvl/mxv
	BYTE	W01
	BYTE		N01   
	BYTE	W05
	BYTE		VOL     13*26-Fight_(Final)_mvl/mxv
	BYTE	W01
	BYTE		N01   
	BYTE	W06
	BYTE		VOL     12*26-Fight_(Final)_mvl/mxv
	BYTE	W06
	BYTE		        11*26-Fight_(Final)_mvl/mxv
	BYTE		N01   
	BYTE	W06
	BYTE		N01   
	BYTE	W02
	BYTE		VOL     10*26-Fight_(Final)_mvl/mxv
	BYTE	W04
// 076   ----------------------------------------
	BYTE		N01   
	BYTE	W02
	BYTE		VOL     9*26-Fight_(Final)_mvl/mxv
	BYTE	W06
	BYTE		        8*26-Fight_(Final)_mvl/mxv
	BYTE	W04
	BYTE		N01   
	BYTE	W03
	BYTE		VOL     7*26-Fight_(Final)_mvl/mxv
	BYTE	W03
	BYTE		N01   
	BYTE	W03
	BYTE		VOL     6*26-Fight_(Final)_mvl/mxv
	BYTE	W03
	BYTE		N01     Dn1 
	BYTE		N01     Fs1 
	BYTE		N01     Cs2 
	BYTE	W05
	BYTE		VOL     5*26-Fight_(Final)_mvl/mxv
	BYTE	W06
	BYTE		        4*26-Fight_(Final)_mvl/mxv
	BYTE	W01
	BYTE		N01     Fs1 
	BYTE	W06
	BYTE		VOL     3*26-Fight_(Final)_mvl/mxv
	BYTE		N01   
	BYTE	W06
	BYTE		VOL     2*26-Fight_(Final)_mvl/mxv
	BYTE		N01     Dn1 
	BYTE		N01     Fs1 
	BYTE		N01     Cs2 
	BYTE	W12
	BYTE		        Fs1 
	BYTE	W06
	BYTE		N01   
	BYTE	W06
// 077   ----------------------------------------
	BYTE	W48
	BYTE	FINE

//******************************************************//
	ALIGN 4

26-Fight_(Final):
	BYTE	7	// NumTrks
	BYTE	0	// NumBlks
	BYTE	26-Fight_(Final)_pri	// Priority
	BYTE	26-Fight_(Final)_rev	// Reverb.

	POIN2	26-Fight_(Final)_grp

	POIN2	26-Fight_(Final)_1
	POIN2	26-Fight_(Final)_2
	POIN2	26-Fight_(Final)_3
	POIN2	26-Fight_(Final)_4
	POIN2	26-Fight_(Final)_5
	POIN2	26-Fight_(Final)_6
	POIN2	26-Fight_(Final)_7

	
