        .include "MPlayDef.s"

        .equ    A_distant_promise_grp, voicegroup000
        .equ    A_distant_promise_pri, 0
        .equ    A_distant_promise_rev, 0
        .equ    A_distant_promise_key, 0

        .section .rodata
        .global A_distant_promise
        .align  2

@****************** Track 0 (Midi-Chn.0) ******************@

A_distant_promise_0:
        .byte   KEYSH , A_distant_promise_key+0
@ 000   ----------------------------------------
        .byte   TEMPO , 80/2
A_distant_promise_0_LOOP:
        .byte           VOICE , 0
        .byte           PAN   , c_v-26
        .byte           VOL   , 54
        .byte           N12   , Fn4 , v126
        .byte           N96   , Cs3
        .byte   W12
        .byte           N12   , Cn4
        .byte   W12
        .byte                   As4
        .byte   W12
        .byte                   Cn4
        .byte   W12
        .byte                   Fn4
        .byte   W12
        .byte                   Cn4
        .byte   W12
        .byte                   As4
        .byte   W12
        .byte                   Cn4
        .byte   W12
@ 001   ----------------------------------------
A_distant_promise_0_1:
        .byte           N12   , Fn4 , v126
        .byte           N96   , Cs3
        .byte           N96   , Gs2
        .byte   W12
        .byte           N12   , Cn4
        .byte   W12
        .byte                   As4
        .byte   W12
        .byte                   Cn4
        .byte   W12
        .byte                   Fn4
        .byte   W12
        .byte                   Cn4
        .byte   W12
        .byte                   As4
        .byte   W12
        .byte                   Cn4
        .byte   W12
        .byte   PEND
@ 002   ----------------------------------------
        .byte                   Gn4
        .byte           N96   , Cn3
        .byte   W12
        .byte           N12   , Cn4
        .byte   W12
        .byte                   As4
        .byte   W12
        .byte                   Cn4
        .byte   W12
        .byte                   Fn4
        .byte   W12
        .byte                   Cn4
        .byte   W12
        .byte                   As4
        .byte   W12
        .byte                   Cn4
        .byte   W12
@ 003   ----------------------------------------
        .byte                   Ds4
        .byte           N96   , Cn3
        .byte           N96   , Gs2
        .byte   W12
        .byte           N12   , Cn4
        .byte   W12
        .byte                   As4
        .byte   W12
        .byte                   Cn4
        .byte   W12
        .byte                   Dn4
        .byte   W12
        .byte                   Cn4
        .byte   W12
        .byte                   As4
        .byte   W12
        .byte                   Cn4
        .byte   W12
@ 004   ----------------------------------------
        .byte                   Fn4
        .byte           N96   , Cs3
        .byte   W12
        .byte           N12   , Cn4
        .byte   W12
        .byte                   As4
        .byte   W12
        .byte                   Cn4
        .byte   W12
        .byte                   Fn4
        .byte   W12
        .byte                   Cn4
        .byte   W12
        .byte                   As4
        .byte   W12
        .byte                   Cn4
        .byte   W12
@ 005   ----------------------------------------
        .byte   PATT
         .word  A_distant_promise_0_1
@ 006   ----------------------------------------
        .byte           N12   , Dn4 , v126
        .byte           N96   , Cn3
        .byte   W12
        .byte           N12   , Cn4
        .byte   W12
        .byte                   As4
        .byte   W12
        .byte                   Cn4
        .byte   W12
        .byte                   Fn4
        .byte   W12
        .byte                   Cn4
        .byte   W12
        .byte                   As4
        .byte   W12
        .byte                   Cn4
        .byte   W12
@ 007   ----------------------------------------
        .byte                   Fn4
        .byte           N48   , Gn2
        .byte           N48   , Ds2
        .byte   W12
        .byte           N12   , Cn4
        .byte   W12
        .byte                   As4
        .byte   W12
        .byte                   Cn4
        .byte   W12
        .byte                   Fn4
        .byte           N24   , Gs2
        .byte   W12
        .byte           N12   , Cn4
        .byte   W12
        .byte                   As4
        .byte           N24   , As2
        .byte   W12
        .byte           N12   , Cn4
        .byte   W12
@ 008   ----------------------------------------
        .byte                   Cn5
        .byte           N72   , Cn3
        .byte   W12
        .byte           N12   , Cn4
        .byte   W12
        .byte                   As4
        .byte   W12
        .byte                   Cn4
        .byte   W12
        .byte                   Gs4
        .byte   W12
        .byte                   Cn4
        .byte   W12
        .byte                   As4
        .byte           N24   , As2
        .byte   W12
        .byte           N12   , Cn4
        .byte   W12
@ 009   ----------------------------------------
        .byte                   Gn4
        .byte           N24   , Gn2
        .byte   W12
        .byte           N12   , Cn4
        .byte   W12
        .byte                   Gs4
        .byte           N24   , Gs2
        .byte   W12
        .byte           N12   , Cn4
        .byte   W12
        .byte                   Fn4
        .byte           N24   , Fn2
        .byte   W12
        .byte           N12   , Cn4
        .byte   W12
        .byte                   Ds4
        .byte           N24   , Ds2
        .byte   W12
        .byte           N12   , Cn4
        .byte   W12
@ 010   ----------------------------------------
        .byte                   Dn4
        .byte           N24   , Ds2
        .byte   W12
        .byte           N12   , Gs3
        .byte   W12
        .byte                   Cn4
        .byte           N24   , Dn2
        .byte   W12
        .byte           N12   , Gs3
        .byte   W12
        .byte                   As3
        .byte           N24   , Cn2
        .byte   W12
        .byte           N12   , Gs3
        .byte   W12
        .byte                   Cn4
        .byte           TIE   , Dn2
        .byte   W12
        .byte           N12   , Gs3
        .byte   W12
@ 011   ----------------------------------------
        .byte                   Dn4
        .byte   W12
        .byte                   Gs3
        .byte   W12
        .byte                   Gs4
        .byte   W12
        .byte                   Gs3
        .byte   W12
        .byte           N96   , As3
        .byte   W48
@ 012   ----------------------------------------
        .byte           EOT   , Dn2
        .byte   W96
@ 013   ----------------------------------------
        .byte   W96
@ 014   ----------------------------------------
        .byte   W96
@ 015   ----------------------------------------
        .byte   W96
@ 016   ----------------------------------------
        .byte   W96
@ 017   ----------------------------------------
        .byte   W96
@ 018   ----------------------------------------
        .byte   W96
@ 019   ----------------------------------------
        .byte   W96
@ 020   ----------------------------------------
        .byte   W96
@ 021   ----------------------------------------
        .byte           N96   , Ds2
        .byte           N96   , Ds1
        .byte   W96
@ 022   ----------------------------------------
        .byte                   Fn1
        .byte           N96   , Fn2
        .byte   W96
@ 023   ----------------------------------------
A_distant_promise_0_23:
        .byte           N96   , As1 , v126
        .byte           N96   , As0
        .byte   W96
        .byte   PEND
@ 024   ----------------------------------------
        .byte           N48   , Ds2
        .byte           N48   , Ds1
        .byte   W48
        .byte           N24   , Ds2
        .byte           N24   , Ds1
        .byte   W24
        .byte                   Dn2
        .byte           N24   , Dn1
        .byte   W24
@ 025   ----------------------------------------
        .byte           N48   , Dn2
        .byte           N48   , Cn1
        .byte   W48
        .byte                   Dn2
        .byte           N48   , As0
        .byte   W48
@ 026   ----------------------------------------
        .byte           N96   , Gs1
        .byte           N96   , Gs0
        .byte   W96
@ 027   ----------------------------------------
        .byte                   An1
        .byte           N96   , An0
        .byte   W96
@ 028   ----------------------------------------
        .byte   PATT
         .word  A_distant_promise_0_23
@ 029   ----------------------------------------
        .byte   TEMPO , 90/2
        .byte   W96
@ 030   ----------------------------------------
        .byte   W96
@ 031   ----------------------------------------
        .byte   W96
@ 032   ----------------------------------------
        .byte   W96
@ 033   ----------------------------------------
        .byte   W96
@ 034   ----------------------------------------
        .byte   W96
@ 035   ----------------------------------------
        .byte   W96
@ 036   ----------------------------------------
        .byte   W96
@ 037   ----------------------------------------
        .byte   W96
@ 038   ----------------------------------------
        .byte   W96
@ 039   ----------------------------------------
        .byte   W96
@ 040   ----------------------------------------
        .byte   W96
@ 041   ----------------------------------------
        .byte           N12   , Gs4 , v126
        .byte   W12
        .byte                   Cs4
        .byte   W12
        .byte                   Cs5
        .byte   W12
        .byte                   Cs4
        .byte   W12
        .byte                   Fs4
        .byte   W12
        .byte                   Cs4
        .byte   W12
        .byte                   Cs5
        .byte   W12
        .byte                   Cs4
        .byte   W12
@ 042   ----------------------------------------
        .byte                   Fs4
        .byte   W12
        .byte                   Cs4
        .byte   W12
        .byte                   Cs5
        .byte   W12
        .byte                   Cs4
        .byte   W12
        .byte                   Fs4
        .byte   W12
        .byte                   Fn4
        .byte   W12
        .byte                   Cs4
        .byte   W12
        .byte                   As3
        .byte   W12
@ 043   ----------------------------------------
        .byte                   Cs4
        .byte   W12
        .byte                   Fs3
        .byte   W12
        .byte                   Fs4
        .byte   W12
        .byte                   Fs3
        .byte   W12
        .byte                   Gs3
        .byte   W12
        .byte                   Fs3
        .byte   W12
        .byte                   Cs4
        .byte   W12
        .byte                   Fs3
        .byte   W12
@ 044   ----------------------------------------
        .byte                   Fn3
        .byte   W12
        .byte                   Ds3
        .byte   W12
        .byte                   As3
        .byte   W12
        .byte                   Ds3
        .byte   W12
        .byte                   Fs3
        .byte   W12
        .byte                   Fn3
        .byte   W12
        .byte                   Cs3
        .byte   W12
        .byte                   As2
        .byte   W12
@ 045   ----------------------------------------
A_distant_promise_0_45:
        .byte           N12   , Cs3 , v126
        .byte   W12
        .byte                   Fs2
        .byte   W12
        .byte                   Fs3
        .byte   W12
        .byte                   Fs2
        .byte   W12
        .byte                   Gs2
        .byte   W12
        .byte                   Fs2
        .byte   W12
        .byte                   Cs3
        .byte   W12
        .byte                   Fs2
        .byte   W12
        .byte   PEND
@ 046   ----------------------------------------
        .byte   W12
        .byte           N24
        .byte   W24
        .byte           N12
        .byte   W12
        .byte                   Gs2
        .byte   W12
        .byte                   Fs2
        .byte   W12
        .byte                   Cs3
        .byte   W12
        .byte                   Fs2
        .byte   W12
@ 047   ----------------------------------------
        .byte   PATT
         .word  A_distant_promise_0_45
@ 048   ----------------------------------------
        .byte   W36
        .byte           N12   , Fs2 , v126
        .byte   W12
        .byte                   Gs2
        .byte   W12
        .byte                   Fs2
        .byte   W12
        .byte                   Cs3
        .byte   W12
        .byte                   Fs2
        .byte   W12
@ 049   ----------------------------------------
        .byte   TEMPO , 80/2
        .byte   GOTO
         .word  A_distant_promise_0_LOOP
        .byte   FINE

@****************** Track 1 (Midi-Chn.1) ******************@

A_distant_promise_1:
        .byte   KEYSH , A_distant_promise_key+0
@ 000   ----------------------------------------
A_distant_promise_1_LOOP:
        .byte           VOICE , 48
        .byte           PAN   , c_v+29
        .byte           VOL   , 37
        .byte   W96
@ 001   ----------------------------------------
A_distant_promise_1_1:
        .byte           N96   , Gs3 , v126
        .byte           N96   , Fn3
        .byte   W96
        .byte   PEND
@ 002   ----------------------------------------
        .byte           N24   , Gn3
        .byte           N24   , Ds3
        .byte   W96
@ 003   ----------------------------------------
        .byte           N48
        .byte           N48   , Gn3
        .byte   W48
        .byte                   Dn3
        .byte           N48   , Fn3
        .byte   W48
@ 004   ----------------------------------------
        .byte           N24
        .byte           N24   , Gs3
        .byte   W96
@ 005   ----------------------------------------
        .byte           N48
        .byte           N48   , Fn3
        .byte   W48
        .byte                   Gs3
        .byte           N48   , Fn3
        .byte   W48
@ 006   ----------------------------------------
        .byte           N24   , Gn3
        .byte           N24   , As3
        .byte   W96
@ 007   ----------------------------------------
        .byte           N48   , Gn3
        .byte   W48
        .byte           N24   , Gs3
        .byte   W24
        .byte                   As3
        .byte   W24
@ 008   ----------------------------------------
        .byte           N96   , Cn4
        .byte   W96
@ 009   ----------------------------------------
        .byte           N48   , As3
        .byte   W48
        .byte                   Gs3
        .byte   W48
@ 010   ----------------------------------------
        .byte           N24   , Gn3
        .byte   W24
        .byte                   Fn3
        .byte   W24
        .byte                   Ds3
        .byte   W24
        .byte           TIE   , Dn3
        .byte   W24
@ 011   ----------------------------------------
        .byte   W96
@ 012   ----------------------------------------
        .byte           EOT
        .byte   W96
@ 013   ----------------------------------------
        .byte   W96
@ 014   ----------------------------------------
        .byte   W96
@ 015   ----------------------------------------
        .byte   W96
@ 016   ----------------------------------------
        .byte   W96
@ 017   ----------------------------------------
        .byte   W96
@ 018   ----------------------------------------
        .byte   W96
@ 019   ----------------------------------------
        .byte   W96
@ 020   ----------------------------------------
        .byte   W96
@ 021   ----------------------------------------
        .byte   W96
@ 022   ----------------------------------------
        .byte   W96
@ 023   ----------------------------------------
        .byte   W96
@ 024   ----------------------------------------
        .byte   W96
@ 025   ----------------------------------------
        .byte   W96
@ 026   ----------------------------------------
        .byte   W96
@ 027   ----------------------------------------
        .byte   W96
@ 028   ----------------------------------------
        .byte   W96
@ 029   ----------------------------------------
A_distant_promise_1_29:
        .byte           N12   , Ds3 , v126
        .byte   W12
        .byte                   Fs3
        .byte   W12
        .byte                   Gs3
        .byte   W12
        .byte           TIE   , As3
        .byte   W60
        .byte   PEND
@ 030   ----------------------------------------
A_distant_promise_1_30:
        .byte   W48
        .byte           EOT   , As3
        .byte           N48   , Cs3 , v126
        .byte   W48
        .byte   PEND
@ 031   ----------------------------------------
        .byte           TIE   , Ds3
        .byte   W96
@ 032   ----------------------------------------
        .byte   W48
        .byte           EOT
        .byte           N48   , Cs3
        .byte   W48
@ 033   ----------------------------------------
        .byte   PATT
         .word  A_distant_promise_1_29
@ 034   ----------------------------------------
        .byte   PATT
         .word  A_distant_promise_1_30
@ 035   ----------------------------------------
        .byte           N96   , Cs3 , v126
        .byte   W96
@ 036   ----------------------------------------
        .byte                   Ds3
        .byte   W96
@ 037   ----------------------------------------
        .byte           N12
        .byte           N12   , Ds2
        .byte   W12
        .byte                   Fs3
        .byte           N12   , Fs2
        .byte   W12
        .byte                   Gs3
        .byte           N12   , Gs2
        .byte   W12
        .byte                   As3
        .byte           N12   , As2
        .byte   W12
        .byte           N24   , Cs4
        .byte           N24   , Cs3
        .byte   W24
        .byte                   Cs4
        .byte           N24   , Ds3
        .byte   W24
@ 038   ----------------------------------------
        .byte           N96   , Cs3
        .byte           N96   , Cs2
        .byte   W96
@ 039   ----------------------------------------
        .byte                   As0
        .byte           N96   , As2
        .byte   W96
@ 040   ----------------------------------------
        .byte                   Ds3
        .byte           N96   , Ds2
        .byte   W96
@ 041   ----------------------------------------
        .byte           TIE   , Cs5
        .byte   W96
@ 042   ----------------------------------------
        .byte           N96   , Cs4
        .byte           N96   , Gs4
        .byte   W96
@ 043   ----------------------------------------
        .byte           EOT   , Cs5
        .byte           TIE   , Fn4
        .byte   W96
@ 044   ----------------------------------------
        .byte           N96   , Fn3
        .byte           N96   , Cn4
        .byte   W96
@ 045   ----------------------------------------
        .byte           EOT   , Fn4
        .byte           TIE   , Fn3
        .byte   W96
@ 046   ----------------------------------------
        .byte   W96
@ 047   ----------------------------------------
        .byte   W96
@ 048   ----------------------------------------
        .byte           EOT
        .byte           N96   , Ds3
        .byte   W96
@ 049   ----------------------------------------
        .byte   GOTO
         .word  A_distant_promise_1_LOOP
        .byte   FINE

@****************** Track 2 (Midi-Chn.2) ******************@

A_distant_promise_2:
        .byte   KEYSH , A_distant_promise_key+0
@ 000   ----------------------------------------
A_distant_promise_2_LOOP:
        .byte           VOICE , 71
        .byte           PAN   , c_v+17
        .byte           VOL   , 46
        .byte   W96
@ 001   ----------------------------------------
        .byte   W96
@ 002   ----------------------------------------
        .byte   W96
@ 003   ----------------------------------------
        .byte   W96
@ 004   ----------------------------------------
        .byte   W96
@ 005   ----------------------------------------
        .byte   W96
@ 006   ----------------------------------------
        .byte   W96
@ 007   ----------------------------------------
        .byte   W96
@ 008   ----------------------------------------
        .byte   W96
@ 009   ----------------------------------------
        .byte   W96
@ 010   ----------------------------------------
        .byte   W96
@ 011   ----------------------------------------
        .byte   W96
@ 012   ----------------------------------------
        .byte           N96   , As3 , v126
        .byte   W96
@ 013   ----------------------------------------
        .byte           N48
        .byte   W48
        .byte                   Gn4
        .byte   W48
@ 014   ----------------------------------------
        .byte                   Gn4
        .byte   W48
        .byte           N24   , Fn4
        .byte   W24
        .byte                   Ds4
        .byte   W24
@ 015   ----------------------------------------
        .byte           N36
        .byte   W36
        .byte           N12   , Dn4
        .byte   W12
        .byte           N36
        .byte   W36
        .byte           N12   , Gs4
        .byte   W12
@ 016   ----------------------------------------
        .byte           N36
        .byte   W36
        .byte           N12   , Gn4
        .byte   W12
        .byte           N48
        .byte   W48
@ 017   ----------------------------------------
        .byte           N60   , As3
        .byte   W60
        .byte           N12
        .byte   W12
        .byte                   Ds4
        .byte   W12
        .byte                   Gn4
        .byte   W12
@ 018   ----------------------------------------
        .byte           N48   , As4
        .byte   W48
        .byte           N24   , Gs4
        .byte   W24
        .byte                   Gn4
        .byte   W24
@ 019   ----------------------------------------
        .byte                   Gn4
        .byte   W24
        .byte                   Fn4
        .byte   W24
        .byte                   Fn4
        .byte   W24
        .byte                   Ds4
        .byte   W24
@ 020   ----------------------------------------
        .byte           N36
        .byte   W36
        .byte           N12   , Dn4
        .byte   W12
        .byte           N48
        .byte   W48
@ 021   ----------------------------------------
        .byte   W96
@ 022   ----------------------------------------
        .byte   W96
@ 023   ----------------------------------------
        .byte   W96
@ 024   ----------------------------------------
        .byte   W96
@ 025   ----------------------------------------
        .byte   W96
@ 026   ----------------------------------------
        .byte   W96
@ 027   ----------------------------------------
        .byte   W96
@ 028   ----------------------------------------
        .byte   W96
@ 029   ----------------------------------------
        .byte   W96
@ 030   ----------------------------------------
        .byte   W96
@ 031   ----------------------------------------
        .byte   W96
@ 032   ----------------------------------------
        .byte   W96
@ 033   ----------------------------------------
        .byte   W96
@ 034   ----------------------------------------
        .byte   W96
@ 035   ----------------------------------------
        .byte   W96
@ 036   ----------------------------------------
        .byte   W96
@ 037   ----------------------------------------
        .byte   W96
@ 038   ----------------------------------------
        .byte   W96
@ 039   ----------------------------------------
        .byte   W96
@ 040   ----------------------------------------
        .byte   W96
@ 041   ----------------------------------------
        .byte   W96
@ 042   ----------------------------------------
        .byte   W96
@ 043   ----------------------------------------
        .byte   W96
@ 044   ----------------------------------------
        .byte   W96
@ 045   ----------------------------------------
        .byte   W96
@ 046   ----------------------------------------
        .byte   W96
@ 047   ----------------------------------------
        .byte   W96
@ 048   ----------------------------------------
        .byte   W96
@ 049   ----------------------------------------
        .byte   GOTO
         .word  A_distant_promise_2_LOOP
        .byte   FINE

@****************** Track 3 (Midi-Chn.3) ******************@

A_distant_promise_3:
        .byte   KEYSH , A_distant_promise_key+0
@ 000   ----------------------------------------
A_distant_promise_3_LOOP:
        .byte           VOICE , 52
        .byte           PAN   , c_v-19
        .byte           VOL   , 46
        .byte   W96
@ 001   ----------------------------------------
        .byte   W96
@ 002   ----------------------------------------
        .byte   W96
@ 003   ----------------------------------------
        .byte   W96
@ 004   ----------------------------------------
        .byte   W96
@ 005   ----------------------------------------
        .byte   W96
@ 006   ----------------------------------------
        .byte   W96
@ 007   ----------------------------------------
        .byte   W96
@ 008   ----------------------------------------
        .byte   W96
@ 009   ----------------------------------------
        .byte   W96
@ 010   ----------------------------------------
        .byte   W96
@ 011   ----------------------------------------
        .byte   W96
@ 012   ----------------------------------------
        .byte   W96
@ 013   ----------------------------------------
A_distant_promise_3_13:
        .byte           N96   , Cn4 , v126
        .byte           N96   , Gs3
        .byte   W96
        .byte   PEND
@ 014   ----------------------------------------
A_distant_promise_3_14:
        .byte           N96   , Fn3 , v126
        .byte           N96   , Gs3
        .byte   W96
        .byte   PEND
@ 015   ----------------------------------------
A_distant_promise_3_15:
        .byte           N96   , Gn3 , v126
        .byte           N96   , As3
        .byte   W96
        .byte   PEND
@ 016   ----------------------------------------
A_distant_promise_3_16:
        .byte           N48   , Cn4 , v126
        .byte           N48   , Gs3
        .byte   W48
        .byte           N24   , Cn4
        .byte           N24   , Gs3
        .byte   W24
        .byte                   As3
        .byte           N24   , Gn3
        .byte   W24
        .byte   PEND
@ 017   ----------------------------------------
A_distant_promise_3_17:
        .byte           N48   , Gs3 , v126
        .byte           N48   , Fn3
        .byte   W48
        .byte                   Gn3
        .byte           N48   , Ds3
        .byte   W48
        .byte   PEND
@ 018   ----------------------------------------
A_distant_promise_3_18:
        .byte           N96   , Fn3 , v126
        .byte           N96   , Dn3
        .byte   W96
        .byte   PEND
@ 019   ----------------------------------------
        .byte   PATT
         .word  A_distant_promise_3_14
@ 020   ----------------------------------------
        .byte   PATT
         .word  A_distant_promise_3_15
@ 021   ----------------------------------------
        .byte   PATT
         .word  A_distant_promise_3_14
@ 022   ----------------------------------------
        .byte   PATT
         .word  A_distant_promise_3_15
@ 023   ----------------------------------------
        .byte   PATT
         .word  A_distant_promise_3_16
@ 024   ----------------------------------------
        .byte   PATT
         .word  A_distant_promise_3_17
@ 025   ----------------------------------------
        .byte           N96   , Dn3 , v126
        .byte           N96   , Fn3
        .byte   W96
@ 026   ----------------------------------------
        .byte   PATT
         .word  A_distant_promise_3_18
@ 027   ----------------------------------------
        .byte           N96   , Gn3 , v126
        .byte           N96   , Ds3
        .byte   W96
@ 028   ----------------------------------------
        .byte   PATT
         .word  A_distant_promise_1_1
@ 029   ----------------------------------------
        .byte   W96
@ 030   ----------------------------------------
        .byte   W96
@ 031   ----------------------------------------
        .byte   W96
@ 032   ----------------------------------------
        .byte   W96
@ 033   ----------------------------------------
        .byte   W96
@ 034   ----------------------------------------
        .byte   W96
@ 035   ----------------------------------------
        .byte   W96
@ 036   ----------------------------------------
        .byte           N96   , Cs4 , v126
        .byte   W96
@ 037   ----------------------------------------
        .byte   PATT
         .word  A_distant_promise_1_1
@ 038   ----------------------------------------
        .byte           N96   , Fs3 , v126
        .byte           N96   , Ds3
        .byte   W96
@ 039   ----------------------------------------
A_distant_promise_3_39:
        .byte           N96   , Fs3 , v126
        .byte           N96   , As3
        .byte   W96
        .byte   PEND
@ 040   ----------------------------------------
        .byte   PATT
         .word  A_distant_promise_1_1
@ 041   ----------------------------------------
        .byte   PATT
         .word  A_distant_promise_3_39
@ 042   ----------------------------------------
        .byte   PATT
         .word  A_distant_promise_1_1
@ 043   ----------------------------------------
        .byte   PATT
         .word  A_distant_promise_3_13
@ 044   ----------------------------------------
        .byte   PATT
         .word  A_distant_promise_3_39
@ 045   ----------------------------------------
        .byte   PATT
         .word  A_distant_promise_3_14
@ 046   ----------------------------------------
        .byte           N96   , Gs3 , v126
        .byte           N96   , En3
        .byte   W96
@ 047   ----------------------------------------
        .byte   PATT
         .word  A_distant_promise_3_14
@ 048   ----------------------------------------
        .byte           N96   , Ds3 , v126
        .byte           N96   , Fs3
        .byte   W96
@ 049   ----------------------------------------
        .byte   GOTO
         .word  A_distant_promise_3_LOOP
        .byte   FINE

@****************** Track 4 (Midi-Chn.4) ******************@

A_distant_promise_4:
        .byte   KEYSH , A_distant_promise_key+0
@ 000   ----------------------------------------
A_distant_promise_4_LOOP:
        .byte           VOICE , 75
        .byte           PAN   , c_v+20
        .byte           VOL   , 42
        .byte   W96
@ 001   ----------------------------------------
        .byte   W96
@ 002   ----------------------------------------
        .byte   W96
@ 003   ----------------------------------------
        .byte   W96
@ 004   ----------------------------------------
        .byte   W96
@ 005   ----------------------------------------
        .byte   W96
@ 006   ----------------------------------------
        .byte   W96
@ 007   ----------------------------------------
        .byte   W96
@ 008   ----------------------------------------
        .byte   W96
@ 009   ----------------------------------------
        .byte   W96
@ 010   ----------------------------------------
        .byte   W96
@ 011   ----------------------------------------
        .byte   W96
@ 012   ----------------------------------------
        .byte   W96
@ 013   ----------------------------------------
        .byte   W96
@ 014   ----------------------------------------
        .byte   W96
@ 015   ----------------------------------------
        .byte   W96
@ 016   ----------------------------------------
        .byte   W96
@ 017   ----------------------------------------
        .byte   W96
@ 018   ----------------------------------------
        .byte   W96
@ 019   ----------------------------------------
        .byte   W96
@ 020   ----------------------------------------
        .byte   W96
@ 021   ----------------------------------------
        .byte           N48   , As4 , v126
        .byte           N48   , As3
        .byte   W48
        .byte                   Gn5
        .byte           N48   , Gn4
        .byte   W48
@ 022   ----------------------------------------
        .byte                   Gn5
        .byte           N48   , Gn4
        .byte   W48
        .byte           N24   , Fn5
        .byte           N24   , Fn4
        .byte   W24
        .byte                   Ds5
        .byte           N24   , Ds4
        .byte   W24
@ 023   ----------------------------------------
        .byte           N36   , Ds5
        .byte           N36   , Ds4
        .byte   W36
        .byte           N12   , Dn5
        .byte           N12   , Dn4
        .byte   W12
        .byte           N36   , Dn5
        .byte           N36   , Dn4
        .byte   W36
        .byte           N48   , Fn5
        .byte           N48   , Gs4
        .byte   W12
@ 024   ----------------------------------------
        .byte   W36
        .byte           N12   , Gn4
        .byte           N12   , Ds5
        .byte   W12
        .byte           N48   , Gn4
        .byte           N48   , Ds5
        .byte   W48
@ 025   ----------------------------------------
        .byte           N60   , As4
        .byte           N60   , As3
        .byte   W60
        .byte           N12   , As4
        .byte           N12   , As3
        .byte   W12
        .byte                   Ds4
        .byte           N12   , Gn5
        .byte   W12
        .byte                   Gn4
        .byte           N12   , Fn5
        .byte   W12
@ 026   ----------------------------------------
        .byte           N48   , As4
        .byte           N48   , Ds5
        .byte   W48
        .byte           N24   , Gs4
        .byte           N24   , Fn5
        .byte   W24
        .byte                   Gn5
        .byte           N24   , Gn4
        .byte   W24
@ 027   ----------------------------------------
        .byte                   Gn5
        .byte           N24   , Gn4
        .byte   W24
        .byte                   Ds5
        .byte           N24   , Ds4
        .byte   W24
        .byte                   Fn5
        .byte           N24   , Fn4
        .byte   W24
        .byte                   Cn5
        .byte           N24   , Cn4
        .byte   W24
@ 028   ----------------------------------------
        .byte           N36   , Ds5
        .byte           N36   , Ds4
        .byte   W36
        .byte           N12   , Fn5
        .byte           N12   , Fn4
        .byte   W12
        .byte           N48   , Fn5
        .byte           N48   , Fn4
        .byte   W48
@ 029   ----------------------------------------
        .byte   W96
@ 030   ----------------------------------------
        .byte   W96
@ 031   ----------------------------------------
        .byte   W96
@ 032   ----------------------------------------
        .byte   W96
@ 033   ----------------------------------------
        .byte   W96
@ 034   ----------------------------------------
        .byte   W96
@ 035   ----------------------------------------
        .byte   W96
@ 036   ----------------------------------------
        .byte   W96
@ 037   ----------------------------------------
        .byte   W96
@ 038   ----------------------------------------
        .byte   W96
@ 039   ----------------------------------------
        .byte   W96
@ 040   ----------------------------------------
        .byte   W96
@ 041   ----------------------------------------
        .byte   W96
@ 042   ----------------------------------------
        .byte   W96
@ 043   ----------------------------------------
        .byte   W96
@ 044   ----------------------------------------
        .byte   W96
@ 045   ----------------------------------------
        .byte   W96
@ 046   ----------------------------------------
        .byte   W96
@ 047   ----------------------------------------
        .byte   W96
@ 048   ----------------------------------------
        .byte   W96
@ 049   ----------------------------------------
        .byte   GOTO
         .word  A_distant_promise_4_LOOP
        .byte   FINE

@****************** Track 5 (Midi-Chn.5) ******************@

A_distant_promise_5:
        .byte   KEYSH , A_distant_promise_key+0
@ 000   ----------------------------------------
A_distant_promise_5_LOOP:
        .byte           VOICE , 79
        .byte           PAN   , c_v-19
        .byte           VOL   , 44
        .byte   W96
@ 001   ----------------------------------------
        .byte   W96
@ 002   ----------------------------------------
        .byte   W96
@ 003   ----------------------------------------
        .byte   W96
@ 004   ----------------------------------------
        .byte   W96
@ 005   ----------------------------------------
        .byte   W96
@ 006   ----------------------------------------
        .byte   W96
@ 007   ----------------------------------------
        .byte   W96
@ 008   ----------------------------------------
        .byte   W96
@ 009   ----------------------------------------
        .byte   W96
@ 010   ----------------------------------------
        .byte   W96
@ 011   ----------------------------------------
        .byte   W96
@ 012   ----------------------------------------
        .byte   W96
@ 013   ----------------------------------------
        .byte   W96
@ 014   ----------------------------------------
        .byte   W96
@ 015   ----------------------------------------
        .byte   W96
@ 016   ----------------------------------------
        .byte   W96
@ 017   ----------------------------------------
        .byte   W96
@ 018   ----------------------------------------
        .byte   W96
@ 019   ----------------------------------------
        .byte   W96
@ 020   ----------------------------------------
        .byte   W96
@ 021   ----------------------------------------
        .byte   W96
@ 022   ----------------------------------------
        .byte   W96
@ 023   ----------------------------------------
        .byte   W96
@ 024   ----------------------------------------
        .byte   W96
@ 025   ----------------------------------------
        .byte   W96
@ 026   ----------------------------------------
        .byte   W96
@ 027   ----------------------------------------
        .byte   W96
@ 028   ----------------------------------------
        .byte   W96
@ 029   ----------------------------------------
        .byte           N72   , As3 , v126
        .byte   W72
        .byte           N12   , Gs3
        .byte   W12
        .byte                   Fs3
        .byte   W12
@ 030   ----------------------------------------
A_distant_promise_5_30:
        .byte           N24   , Fn3 , v126
        .byte   W24
        .byte                   Fs3
        .byte   W24
        .byte                   Gs3
        .byte   W24
        .byte                   Cs4
        .byte   W24
        .byte   PEND
@ 031   ----------------------------------------
        .byte           N48   , Gs3
        .byte   W48
        .byte           N16   , As3
        .byte   W16
        .byte                   Gs3
        .byte   W16
        .byte                   Fs3
        .byte   W16
@ 032   ----------------------------------------
        .byte           N48   , Fn3
        .byte   W48
        .byte           N24   , Fs3
        .byte   W24
        .byte                   Cs3
        .byte   W24
@ 033   ----------------------------------------
        .byte           N48   , As3
        .byte   W48
        .byte           N16
        .byte   W16
        .byte                   Gs3
        .byte   W16
        .byte                   Fs3
        .byte   W16
@ 034   ----------------------------------------
        .byte   PATT
         .word  A_distant_promise_5_30
@ 035   ----------------------------------------
        .byte           N12   , Ds4 , v126
        .byte   W12
        .byte                   Fn4
        .byte   W12
        .byte           N48   , Cs4
        .byte   W48
        .byte           N24   , As3
        .byte   W24
@ 036   ----------------------------------------
        .byte   W12
        .byte           N12
        .byte   W12
        .byte                   Gs3
        .byte   W12
        .byte                   As3
        .byte   W12
        .byte                   Gn3
        .byte   W12
        .byte                   As3
        .byte   W12
        .byte           N24   , Cs4
        .byte           N24   , Cs3
        .byte   W24
@ 037   ----------------------------------------
        .byte           N72   , As3
        .byte           N72   , As4
        .byte   W72
        .byte           N12   , Gs4
        .byte           N12   , Gs3
        .byte   W12
        .byte                   Fs4
        .byte           N12   , Fs3
        .byte   W12
@ 038   ----------------------------------------
        .byte           N24   , Fn3
        .byte           N24   , Fn4
        .byte   W24
        .byte                   Fs3
        .byte           N24   , Fs4
        .byte   W24
        .byte                   Gs4
        .byte           N24   , Gs3
        .byte   W24
        .byte                   Cs4
        .byte           N24   , Cs5
        .byte   W24
@ 039   ----------------------------------------
        .byte           N12   , Ds4
        .byte           N12   , Ds5
        .byte   W12
        .byte                   Fn4
        .byte           N12   , Fn5
        .byte   W12
        .byte           N48   , Cs5
        .byte           N48   , Cs4
        .byte   W48
        .byte           N12   , As4
        .byte           N12   , As3
        .byte   W12
        .byte                   Gs4
        .byte           N12   , Gs5
        .byte   W12
@ 040   ----------------------------------------
        .byte           N48   , Gs4
        .byte           N48   , Gs5
        .byte   W48
        .byte                   Gn5
        .byte           N48   , Gn4
        .byte   W48
@ 041   ----------------------------------------
        .byte   W96
@ 042   ----------------------------------------
        .byte   W96
@ 043   ----------------------------------------
        .byte   W96
@ 044   ----------------------------------------
        .byte   W96
@ 045   ----------------------------------------
        .byte   W96
@ 046   ----------------------------------------
        .byte   W96
@ 047   ----------------------------------------
        .byte   W96
@ 048   ----------------------------------------
        .byte   W96
@ 049   ----------------------------------------
        .byte   GOTO
         .word  A_distant_promise_5_LOOP
        .byte   FINE


@********************** End of Song ***********************@

        .align  2
A_distant_promise:
        .byte   6                       @ Num Tracks
        .byte   0                       @ Unknown
        .byte   A_distant_promise_pri   @ Priority
        .byte   A_distant_promise_rev   @ Reverb

        .word   A_distant_promise_grp  

        .word   A_distant_promise_0
        .word   A_distant_promise_1
        .word   A_distant_promise_2
        .word   A_distant_promise_3
        .word   A_distant_promise_4
        .word   A_distant_promise_5

        .end
