//Event file generated from Sappy .s format.
        #include "MPlayDef.event"

        #define    Advance_grp  voicegroup000
        #define    Advance_pri  0
        #define    Advance_rev  0
        #define    Advance_key  0

        // .rodata
        // Advance
        ALIGN 4

//****************** Track 0 (Midi-Chn.0) ******************//

Advance_0:
        BYTE   KEYSH   Advance_key+0
// 000   ----------------------------------------
        BYTE           VOL     62
        BYTE           VOICE   124
        BYTE   W24
        BYTE           N06     Cn1   v100
        BYTE   W12
        BYTE                   Ds3
        BYTE   W12
        BYTE                   Cs1
        BYTE           N06     Ds3
        BYTE   W12
        BYTE                   Cn1
        BYTE   W12
        BYTE                   Cn1
        BYTE           N06     Dn3
        BYTE   W12
        BYTE                   Ds3
        BYTE   W12
// 001   ----------------------------------------
Advance_0_1:
        BYTE           N06     Cs1   v100
        BYTE           N12     Ds2
        BYTE   W12
        BYTE           N06     En3
        BYTE   W12
        BYTE                   Cn1
        BYTE   W12
        BYTE                   Ds3
        BYTE   W12
        BYTE                   Cs1
        BYTE           N06     Ds3
        BYTE   W12
        BYTE                   Cn1
        BYTE   W12
        BYTE                   Cn1
        BYTE           N06     Dn3
        BYTE   W12
        BYTE                   Ds3
        BYTE   W12
        BYTE   PEND
// 002   ----------------------------------------
Advance_0_2:
        BYTE           N06     Cs1   v100
        BYTE           N12     Ds2
        BYTE   W12
        BYTE           N06     En3
        BYTE   W12
        BYTE                   Cn1
        BYTE   W12
        BYTE                   Ds3
        BYTE   W12
        BYTE                   Ds3
        BYTE           N06     Cs1
        BYTE   W12
        BYTE                   Cn1
        BYTE   W12
        BYTE                   Dn3
        BYTE           N06     Cn1
        BYTE   W12
        BYTE                   Ds3
        BYTE   W12
        BYTE   PEND
// 003   ----------------------------------------
Advance_0_3:
        BYTE           N12     Ds2   v100
        BYTE           N06     Cs1
        BYTE   W12
        BYTE                   En3
        BYTE   W12
        BYTE                   Cn1
        BYTE   W12
        BYTE                   Ds3
        BYTE   W12
        BYTE                   Ds3
        BYTE           N06     Cs1
        BYTE   W12
        BYTE                   Cn1
        BYTE   W12
        BYTE                   Dn3
        BYTE           N06     Cn1
        BYTE   W12
        BYTE                   Ds3
        BYTE   W12
        BYTE   PEND
// 004   ----------------------------------------
        BYTE   PATT
         POIN2  Advance_0_3
// 005   ----------------------------------------
        BYTE   PATT
         POIN2  Advance_0_1
// 006   ----------------------------------------
        BYTE   PATT
         POIN2  Advance_0_2
// 007   ----------------------------------------
        BYTE   PATT
         POIN2  Advance_0_3
// 008   ----------------------------------------
        BYTE   PATT
         POIN2  Advance_0_3
// 009   ----------------------------------------
        BYTE   PATT
         POIN2  Advance_0_1
// 010   ----------------------------------------
        BYTE   PATT
         POIN2  Advance_0_2
// 011   ----------------------------------------
        BYTE   PATT
         POIN2  Advance_0_3
// 012   ----------------------------------------
        BYTE   PATT
         POIN2  Advance_0_3
// 013   ----------------------------------------
        BYTE   PATT
         POIN2  Advance_0_1
// 014   ----------------------------------------
        BYTE   PATT
         POIN2  Advance_0_2
// 015   ----------------------------------------
        BYTE   PATT
         POIN2  Advance_0_3
// 016   ----------------------------------------
        BYTE   PATT
         POIN2  Advance_0_3
// 017   ----------------------------------------
        BYTE   PATT
         POIN2  Advance_0_1
// 018   ----------------------------------------
        BYTE   PATT
         POIN2  Advance_0_2
// 019   ----------------------------------------
        BYTE   PATT
         POIN2  Advance_0_3
// 020   ----------------------------------------
        BYTE   PATT
         POIN2  Advance_0_3
// 021   ----------------------------------------
        BYTE   PATT
         POIN2  Advance_0_1
// 022   ----------------------------------------
        BYTE   PATT
         POIN2  Advance_0_2
// 023   ----------------------------------------
        BYTE   PATT
         POIN2  Advance_0_3
// 024   ----------------------------------------
        BYTE   W96
// 025   ----------------------------------------
        BYTE   W96
// 026   ----------------------------------------
        BYTE   FINE

//****************** Track 1 (Midi-Chn.1) ******************//

Advance_1:
        BYTE   KEYSH   Advance_key+0
// 000   ----------------------------------------
        BYTE           VOL     66
        BYTE           VOICE   2
        BYTE   W24
        BYTE           N24     Fn0   v100
        BYTE   W36
        BYTE           N06     Cn1
        BYTE   W12
        BYTE           N24
        BYTE   W24
// 001   ----------------------------------------
Advance_1_1:
        BYTE           N06     Fn1   v100
        BYTE   W12
        BYTE           N24
        BYTE   W48
        BYTE           N06     Cn1
        BYTE   W12
        BYTE           N24
        BYTE   W24
        BYTE   PEND
// 002   ----------------------------------------
Advance_1_2:
        BYTE           N06     Fn0   v100
        BYTE   W12
        BYTE           N36     En0
        BYTE   W48
        BYTE           N06     Bn0
        BYTE   W12
        BYTE           N24
        BYTE   W24
        BYTE   PEND
// 003   ----------------------------------------
Advance_1_3:
        BYTE           N06     En1   v100
        BYTE   W12
        BYTE           N24
        BYTE   W48
        BYTE           N06     Bn0
        BYTE   W12
        BYTE           N24
        BYTE   W24
        BYTE   PEND
// 004   ----------------------------------------
Advance_1_4:
        BYTE           N06     En0   v100
        BYTE   W12
        BYTE           N36     Fn0
        BYTE   W48
        BYTE           N06     Cn1
        BYTE   W12
        BYTE           N24
        BYTE   W24
        BYTE   PEND
// 005   ----------------------------------------
        BYTE   PATT
         POIN2  Advance_1_1
// 006   ----------------------------------------
        BYTE   PATT
         POIN2  Advance_1_2
// 007   ----------------------------------------
        BYTE   PATT
         POIN2  Advance_1_3
// 008   ----------------------------------------
        BYTE   PATT
         POIN2  Advance_1_4
// 009   ----------------------------------------
        BYTE   PATT
         POIN2  Advance_1_1
// 010   ----------------------------------------
        BYTE   PATT
         POIN2  Advance_1_2
// 011   ----------------------------------------
        BYTE   PATT
         POIN2  Advance_1_3
// 012   ----------------------------------------
        BYTE   PATT
         POIN2  Advance_1_4
// 013   ----------------------------------------
        BYTE           N06     En1   v100
        BYTE   W12
        BYTE           N24
        BYTE   W24
        BYTE           N30     Bn1
        BYTE   W36
        BYTE           N12     En1
        BYTE   W12
        BYTE                   Bn0
        BYTE   W12
// 014   ----------------------------------------
        BYTE                   En0
        BYTE   W12
        BYTE           N06     Bn0
        BYTE   W12
        BYTE           N24     Gn0
        BYTE   W36
        BYTE           N36
        BYTE   W36
// 015   ----------------------------------------
Advance_1_15:
        BYTE   W12
        BYTE           N12     An0   v100
        BYTE   W12
        BYTE           N24     As0
        BYTE   W36
        BYTE           N36
        BYTE   W36
        BYTE   PEND
// 016   ----------------------------------------
Advance_1_16:
        BYTE   W12
        BYTE           N06     As0   v100
        BYTE   W12
        BYTE           N24     Dn1
        BYTE   W36
        BYTE           N66
        BYTE   W36
        BYTE   PEND
// 017   ----------------------------------------
Advance_1_17:
        BYTE   W36
        BYTE           N12     Dn1   v100
        BYTE   W12
        BYTE                   Dn0
        BYTE   W12
        BYTE           N24     Dn1
        BYTE   W24
        BYTE           N12     Dn0
        BYTE   W12
        BYTE   PEND
// 018   ----------------------------------------
        BYTE                   Dn1
        BYTE   W12
        BYTE                   Dn0
        BYTE   W12
        BYTE           N24     Gn0
        BYTE   W36
        BYTE           N36
        BYTE   W36
// 019   ----------------------------------------
        BYTE   PATT
         POIN2  Advance_1_15
// 020   ----------------------------------------
        BYTE   PATT
         POIN2  Advance_1_16
// 021   ----------------------------------------
        BYTE   PATT
         POIN2  Advance_1_17
// 022   ----------------------------------------
        BYTE           N12     Dn1   v100
        BYTE   W12
        BYTE                   Dn0
        BYTE   W12
        BYTE           N24     Fn0
        BYTE   W36
        BYTE           N06     Cn1
        BYTE   W12
        BYTE           N24
        BYTE   W24
// 023   ----------------------------------------
        BYTE   PATT
         POIN2  Advance_1_1
// 024   ----------------------------------------
        BYTE   PATT
         POIN2  Advance_1_2
// 025   ----------------------------------------
        BYTE   PATT
         POIN2  Advance_1_3
// 026   ----------------------------------------
        BYTE   FINE

//****************** Track 2 (Midi-Chn.2) ******************//

Advance_2:
        BYTE   KEYSH   Advance_key+0
// 000   ----------------------------------------
        BYTE           VOICE   105
        BYTE           VOL     32
        BYTE   W24
        BYTE           TIE     En4   v100
        BYTE           TIE     Cn4
        BYTE           TIE     An3
        BYTE   W72
// 001   ----------------------------------------
Advance_2_1:
        BYTE   W84
        BYTE           EOT     An3
        BYTE                   Cn4
        BYTE                   En4
        BYTE   W12
        BYTE   PEND
// 002   ----------------------------------------
        BYTE           N06     En4   v100
        BYTE           N06     Cn4
        BYTE           N06     An3
        BYTE   W12
        BYTE           TIE     Bn3
        BYTE           TIE     Gn3
        BYTE           TIE     Dn4
        BYTE   W84
// 003   ----------------------------------------
        BYTE   W84
        BYTE           EOT
        BYTE           EOT     Gn3
        BYTE                   Bn3
        BYTE   W12
// 004   ----------------------------------------
Advance_2_4:
        BYTE           N06     Dn4   v100
        BYTE           N06     Bn3
        BYTE           N06     Gn3
        BYTE   W12
        BYTE           TIE     En4
        BYTE           TIE     Cn4
        BYTE           TIE     An3
        BYTE   W84
        BYTE   PEND
// 005   ----------------------------------------
        BYTE   PATT
         POIN2  Advance_2_1
// 006   ----------------------------------------
Advance_2_6:
        BYTE           N06     En4   v100
        BYTE           N06     Cn4
        BYTE           N06     An3
        BYTE   W12
        BYTE           TIE     Dn4
        BYTE           TIE     Bn3
        BYTE           TIE     Gn3
        BYTE   W84
        BYTE   PEND
// 007   ----------------------------------------
Advance_2_7:
        BYTE   W84
        BYTE           EOT     Gn3
        BYTE                   Bn3
        BYTE                   Dn4
        BYTE   W12
        BYTE   PEND
// 008   ----------------------------------------
        BYTE   PATT
         POIN2  Advance_2_4
// 009   ----------------------------------------
        BYTE   PATT
         POIN2  Advance_2_1
// 010   ----------------------------------------
        BYTE   PATT
         POIN2  Advance_2_6
// 011   ----------------------------------------
        BYTE   PATT
         POIN2  Advance_2_7
// 012   ----------------------------------------
        BYTE   PATT
         POIN2  Advance_2_4
// 013   ----------------------------------------
        BYTE   PATT
         POIN2  Advance_2_1
// 014   ----------------------------------------
        BYTE   W24
        BYTE           TIE     Fn4   v100
        BYTE           TIE     Cn4
        BYTE           TIE     As3
        BYTE   W72
// 015   ----------------------------------------
        BYTE   W96
// 016   ----------------------------------------
        BYTE           EOT
        BYTE           EOT     Cn4
        BYTE                   Fn4
        BYTE   W24
        BYTE           TIE     Cn4
        BYTE           TIE     En4
        BYTE           TIE     An3
        BYTE   W72
// 017   ----------------------------------------
        BYTE   W96
// 018   ----------------------------------------
        BYTE           EOT
        BYTE           EOT     En4
        BYTE                   Cn4
        BYTE   W24
        BYTE           TIE     Fn4
        BYTE           TIE     Cn4
        BYTE           TIE     As3
        BYTE   W72
// 019   ----------------------------------------
        BYTE   W96
// 020   ----------------------------------------
        BYTE           EOT
        BYTE           EOT     Cn4
        BYTE                   Fn4
        BYTE   W96
// 021   ----------------------------------------
        BYTE   W96
// 022   ----------------------------------------
        BYTE   W96
// 023   ----------------------------------------
        BYTE   W96
// 024   ----------------------------------------
        BYTE   W96
// 025   ----------------------------------------
        BYTE   W96
// 026   ----------------------------------------
        BYTE   FINE

//****************** Track 3 (Midi-Chn.3) ******************//

Advance_3:
        BYTE   KEYSH   Advance_key+0
// 000   ----------------------------------------
        BYTE           VOICE   24
        BYTE           VOL     55
        BYTE   W72
        BYTE           N36     Gn4   v100
        BYTE           N36     Cn4
        BYTE   W24
// 001   ----------------------------------------
Advance_3_1:
        BYTE   W24
        BYTE           N36     Dn4   v100
        BYTE           N36     An3
        BYTE   W48
        BYTE           N18     Gn3
        BYTE           N18     Dn3
        BYTE   W24
        BYTE   PEND
// 002   ----------------------------------------
Advance_3_2:
        BYTE           N06     En3   v100
        BYTE   W12
        BYTE           N84     Dn3
        BYTE   W60
        BYTE           N36     Gn4
        BYTE           N36     Cn4
        BYTE   W24
        BYTE   PEND
// 003   ----------------------------------------
        BYTE   PATT
         POIN2  Advance_3_1
// 004   ----------------------------------------
        BYTE           N06     Dn3   v100
        BYTE   W12
        BYTE           N84     En3
        BYTE   W60
        BYTE           N36     Gn4
        BYTE           N36     Cn4
        BYTE   W24
// 005   ----------------------------------------
        BYTE   PATT
         POIN2  Advance_3_1
// 006   ----------------------------------------
        BYTE   PATT
         POIN2  Advance_3_2
// 007   ----------------------------------------
        BYTE   PATT
         POIN2  Advance_3_1
// 008   ----------------------------------------
        BYTE           N06     Dn3   v100
        BYTE   W12
        BYTE           N84     En3
        BYTE   W60
        BYTE           N36     An2
        BYTE   W24
// 009   ----------------------------------------
Advance_3_9:
        BYTE   W24
        BYTE           N36     Cn3   v100
        BYTE   W48
        BYTE           N18     En3
        BYTE   W24
        BYTE   PEND
// 010   ----------------------------------------
        BYTE           N06     Fn3
        BYTE   W12
        BYTE           N84     Dn3
        BYTE   W60
        BYTE           N36     An2
        BYTE   W24
// 011   ----------------------------------------
Advance_3_11:
        BYTE   W24
        BYTE           N36     Cn3   v100
        BYTE   W48
        BYTE           N18     Dn3
        BYTE   W24
        BYTE   PEND
// 012   ----------------------------------------
        BYTE           N06     Cn3
        BYTE   W12
        BYTE           N84     En3
        BYTE   W60
        BYTE           N36     An2
        BYTE   W24
// 013   ----------------------------------------
        BYTE   PATT
         POIN2  Advance_3_9
// 014   ----------------------------------------
        BYTE           N06     Fn3   v100
        BYTE   W12
        BYTE           N72     Dn3
        BYTE   W60
        BYTE           N36     An2
        BYTE   W24
// 015   ----------------------------------------
        BYTE   PATT
         POIN2  Advance_3_11
// 016   ----------------------------------------
        BYTE           N06     Cn3   v100
        BYTE   W12
        BYTE           N12     Fn2
        BYTE   W24
        BYTE           N24     Gn2
        BYTE   W12
        BYTE                   An2
        BYTE   W12
        BYTE                   Cn3
        BYTE   W24
        BYTE           N12     Gn2
        BYTE   W12
// 017   ----------------------------------------
        BYTE           N96     En3
        BYTE   W12
        BYTE           N12     Gn2
        BYTE   W12
        BYTE           N24     Cn3
        BYTE   W12
        BYTE           N12     An2
        BYTE   W12
        BYTE                   Gn2
        BYTE   W12
        BYTE                   An2
        BYTE   W12
        BYTE           N24     Cn3
        BYTE   W12
        BYTE           N12     An2
        BYTE   W12
// 018   ----------------------------------------
        BYTE           N06     Gn2
        BYTE   W12
        BYTE           N12
        BYTE   W12
        BYTE           N72     En2
        BYTE   W12
        BYTE           N06     An2
        BYTE   W12
        BYTE           N12     Bn2
        BYTE   W12
        BYTE           N36     Gn3
        BYTE   W36
// 019   ----------------------------------------
        BYTE           N06     Dn3
        BYTE   W12
        BYTE           N72     Cn3
        BYTE   W84
// 020   ----------------------------------------
        BYTE           N06     Gn2
        BYTE   W12
        BYTE           N12
        BYTE   W24
        BYTE           N06     An2
        BYTE   W12
        BYTE           N12     Bn2
        BYTE   W12
        BYTE           N36     Gn3
        BYTE   W36
// 021   ----------------------------------------
        BYTE           N12     An3
        BYTE   W12
        BYTE           N24     Gn3
        BYTE   W24
        BYTE           N12     Fn3
        BYTE   W12
        BYTE           N06     En3
        BYTE   W12
        BYTE           N12     Dn3
        BYTE   W12
        BYTE           N06     En3
        BYTE   W12
        BYTE           N12     Bn2
        BYTE   W12
// 022   ----------------------------------------
        BYTE   W12
        BYTE           N72     Cn3
        BYTE           N72     En3
        BYTE   W84
// 023   ----------------------------------------
        BYTE   W96
// 024   ----------------------------------------
        BYTE   W96
// 025   ----------------------------------------
        BYTE   W96
// 026   ----------------------------------------
        BYTE   FINE


//********************** End of Song ***********************//

        ALIGN 4
Advance:
        BYTE   4                       // Num Tracks
        BYTE   0                       // Unknown
        BYTE   Advance_pri             // Priority
        BYTE   Advance_rev             // Reverb

        POIN2   Advance_grp            

        POIN2   Advance_0
        POIN2   Advance_1
        POIN2   Advance_2
        POIN2   Advance_3

        
