//Event file generated from Sappy .s format.
        #include "MPlayDef.event"

        #define    AlmVictory_grp  voicegroup000
        #define    AlmVictory_pri  0
        #define    AlmVictory_rev  0
        #define    AlmVictory_key  0

        // .rodata
        // AlmVictory
        ALIGN 4

//****************** Track 0 (Midi-Chn.0) ******************//

AlmVictory_0:
        BYTE   KEYSH   AlmVictory_key+0
// 000   ----------------------------------------
        BYTE   TEMPO   144/2
        BYTE           VOICE   77
        BYTE           VOL     41
        BYTE           PAN     c_v+15
        BYTE           N42     Cs4   v100   gtp1
        BYTE                   An3
        BYTE           N42     Fs3   v100   gtp1
        BYTE   W48
        BYTE           N07     Cs3
        BYTE           N07     Fs3
        BYTE   W08
        BYTE                   Fs3
        BYTE           N07     An3
        BYTE   W08
        BYTE                   An3
        BYTE           N07     Cs4
        BYTE   W08
        BYTE                   Cs4
        BYTE           N07     En4
        BYTE   W08
        BYTE                   An3
        BYTE           N07     Cs4
        BYTE   W08
        BYTE                   Fs3
        BYTE           N07     An3
        BYTE   W08
// 001   ----------------------------------------
AlmVictory_0_LOOP:
        BYTE           N21     Bn3   v100
        BYTE           N21     Fs3
        BYTE           N21     Ds4
        BYTE   W24
        BYTE           N07     Cs3
        BYTE           N07     Fs3
        BYTE   W08
        BYTE                   Fs3
        BYTE           N07     Bn3
        BYTE   W08
        BYTE                   Bn3
        BYTE           N07     Ds4
        BYTE   W08
        BYTE           N21     Dn4
        BYTE           N21     Fs3
        BYTE           N21     Bn3
        BYTE   W24
        BYTE           N07     Cs3
        BYTE           N07     Fs3
        BYTE   W08
        BYTE                   Fs3
        BYTE           N07     Bn3
        BYTE   W08
        BYTE                   Bn3
        BYTE           N07     Dn4
        BYTE   W08
// 002   ----------------------------------------
AlmVictory_0_2:
        BYTE           TIE     Cs4   v100
        BYTE           TIE     Fs3
        BYTE           TIE     As3
        BYTE   W96
        BYTE   PEND
// 003   ----------------------------------------
        BYTE   W84
        BYTE   W02
        BYTE           EOT     Cs4
        BYTE                   Fs3
        BYTE                   As3
        BYTE   W10
// 004   ----------------------------------------
AlmVictory_0_4:
        BYTE           N42     Cs4   v100   gtp1
        BYTE                   An3
        BYTE           N42     Fs3   v100   gtp1
        BYTE   W48
        BYTE           N07     Cs3
        BYTE           N07     Fs3
        BYTE   W08
        BYTE                   Fs3
        BYTE           N07     An3
        BYTE   W08
        BYTE                   An3
        BYTE           N07     Cs4
        BYTE   W08
        BYTE                   Cs4
        BYTE           N07     En4
        BYTE   W08
        BYTE                   An3
        BYTE           N07     Cs4
        BYTE   W08
        BYTE                   Fs3
        BYTE           N07     An3
        BYTE   W08
        BYTE   PEND
// 005   ----------------------------------------
        BYTE           N21     Bn3
        BYTE           N21     Fs3
        BYTE           N21     Ds4
        BYTE   W24
        BYTE           N07     Cs3
        BYTE           N07     Fs3
        BYTE   W08
        BYTE                   Fs3
        BYTE           N07     Bn3
        BYTE   W08
        BYTE                   Bn3
        BYTE           N07     Ds4
        BYTE   W08
        BYTE           N21     Dn4
        BYTE           N21     Fs3
        BYTE           N21     Bn3
        BYTE   W24
        BYTE           N07     Cs3
        BYTE           N07     Fs3
        BYTE   W08
        BYTE                   Fs3
        BYTE           N07     Bn3
        BYTE   W08
        BYTE                   Bn3
        BYTE           N07     Dn4
        BYTE   W08
// 006   ----------------------------------------
        BYTE   PATT
         POIN2  AlmVictory_0_2
// 007   ----------------------------------------
        BYTE   W68
        BYTE           EOT     Cs4
        BYTE                   As3
        BYTE   W04
        BYTE           N07     As3   v100
        BYTE           N07     Cs4
        BYTE   W14
        BYTE           EOT     Fs3
        BYTE   W02
        BYTE           N07     As3
        BYTE           N07     Cs4
        BYTE   W08
// 008   ----------------------------------------
        BYTE           N42     An3   v100   gtp1
        BYTE                   Cs4
        BYTE   W48
        BYTE           N07     An2
        BYTE           N07     En3
        BYTE   W08
        BYTE                   Cs3
        BYTE           N07     An3
        BYTE   W08
        BYTE                   En3
        BYTE           N07     Cs4
        BYTE   W08
        BYTE                   An3
        BYTE           N07     En4
        BYTE   W08
        BYTE                   En3
        BYTE           N07     Cs4
        BYTE   W08
        BYTE                   Cs3
        BYTE           N07     An3
        BYTE   W08
// 009   ----------------------------------------
        BYTE           N21     Bn3
        BYTE           N21     Fs3
        BYTE           N21     Ds4
        BYTE   W24
        BYTE           N07     Ds3
        BYTE           N07     Fs3
        BYTE   W08
        BYTE                   Fs3
        BYTE           N07     Bn3
        BYTE   W08
        BYTE                   Bn3
        BYTE           N07     Ds4
        BYTE   W08
        BYTE           N21     Fs4
        BYTE           N21     Fs3
        BYTE           N21     Bn3
        BYTE   W24
        BYTE           N07     Fs3
        BYTE           N07     Bn3
        BYTE   W08
        BYTE                   Bn3
        BYTE           N07     Ds4
        BYTE   W08
        BYTE                   Ds4
        BYTE           N07     Fs4
        BYTE   W08
// 010   ----------------------------------------
        BYTE           N84     Gs3   v100   gtp2
        BYTE                   Cs4
        BYTE           N78     Fs4   v100   gtp1
        BYTE   W80
        BYTE           N07     Gs4
        BYTE   W08
        BYTE                   Fs4
        BYTE   W08
// 011   ----------------------------------------
        BYTE           N84     Cs4   v100   gtp2
        BYTE                   Gs3
        BYTE           N84     Fn4   v100   gtp2
        BYTE   W96
// 012   ----------------------------------------
        BYTE           N42     Cn4   v100   gtp1
        BYTE           N30     Fn4   v100   gtp1
        BYTE   W32
        BYTE           N07     Gn4
        BYTE   W08
        BYTE                   Fn4
        BYTE   W08
        BYTE           N42     Cn4   v100   gtp1
        BYTE                   En4
        BYTE   W48
// 013   ----------------------------------------
        BYTE                   Bn3
        BYTE           N30     En4   v100   gtp1
        BYTE   W32
        BYTE           N07     Fs4
        BYTE   W08
        BYTE                   En4
        BYTE   W08
        BYTE           N42     Bn3   v100   gtp1
        BYTE                   Ds4
        BYTE   W48
// 014   ----------------------------------------
        BYTE                   As3
        BYTE           N30     Ds4   v100   gtp1
        BYTE   W32
        BYTE           N07     Fn4
        BYTE   W08
        BYTE                   Ds4
        BYTE   W08
        BYTE           N42     As3   v100   gtp1
        BYTE                   Dn4
        BYTE   W48
// 015   ----------------------------------------
        BYTE                   An3
        BYTE           N30     Dn4   v100   gtp1
        BYTE   W32
        BYTE           N07     En4
        BYTE   W08
        BYTE                   Dn4
        BYTE   W08
        BYTE           N42     An3   v100   gtp1
        BYTE                   Cs4
        BYTE   W48
// 016   ----------------------------------------
        BYTE   W96
// 017   ----------------------------------------
        BYTE   W96
// 018   ----------------------------------------
        BYTE   W96
// 019   ----------------------------------------
        BYTE   W96
// 020   ----------------------------------------
        BYTE   W96
// 021   ----------------------------------------
        BYTE   W96
// 022   ----------------------------------------
        BYTE   W96
// 023   ----------------------------------------
        BYTE   W96
// 024   ----------------------------------------
        BYTE   W96
// 025   ----------------------------------------
        BYTE   W96
// 026   ----------------------------------------
        BYTE   W96
// 027   ----------------------------------------
        BYTE   W96
// 028   ----------------------------------------
        BYTE   W96
// 029   ----------------------------------------
        BYTE   W96
// 030   ----------------------------------------
        BYTE   W96
// 031   ----------------------------------------
        BYTE   W96
// 032   ----------------------------------------
        BYTE   PATT
         POIN2  AlmVictory_0_4
// 033   ----------------------------------------
        BYTE   GoTo
         POIN2  AlmVictory_0_LOOP
        BYTE   FINE

//****************** Track 1 (Midi-Chn.1) ******************//

AlmVictory_1:
        BYTE   KEYSH   AlmVictory_key+0
// 000   ----------------------------------------
        BYTE           VOICE   102
        BYTE           VOL     35
        BYTE           PAN     c_v-22
        BYTE           N13     Fs3   v100
        BYTE           N13     An2
        BYTE           N13     Cs3
        BYTE   W16
        BYTE           N06     Fs3
        BYTE           N06     Cs3
        BYTE           N06     An2
        BYTE   W08
        BYTE           N13     Fs3
        BYTE           N13     An2
        BYTE           N13     Cs3
        BYTE   W16
        BYTE           N06     Fs3
        BYTE           N06     Cs3
        BYTE           N06     An2
        BYTE   W08
        BYTE           N13     Fs3
        BYTE           N13     An2
        BYTE           N13     Cs3
        BYTE   W16
        BYTE           N06     Fs3
        BYTE           N06     Cs3
        BYTE           N06     An2
        BYTE   W08
        BYTE           N13     Fs3
        BYTE           N13     An2
        BYTE           N13     Cs3
        BYTE   W16
        BYTE           N06
        BYTE           N06     Fs3
        BYTE           N06     An2
        BYTE   W08
// 001   ----------------------------------------
AlmVictory_1_LOOP:
        BYTE           N13     Fs3   v100
        BYTE           N13     An2
        BYTE           N13     Cs3
        BYTE   W16
        BYTE           N06     Fs3
        BYTE           N06     Cs3
        BYTE           N06     An2
        BYTE   W08
        BYTE           N13     Fs3
        BYTE           N13     An2
        BYTE           N13     Cs3
        BYTE   W16
        BYTE           N06     An2
        BYTE           N06     Cs3
        BYTE           N06     Fs3
        BYTE   W08
        BYTE           N13
        BYTE           N13     An2
        BYTE           N13     Cs3
        BYTE   W16
        BYTE           N06
        BYTE           N06     Fs3
        BYTE           N06     An2
        BYTE   W08
        BYTE           N13     Fs3
        BYTE           N13     An2
        BYTE           N13     Cs3
        BYTE   W16
        BYTE           N06     Fs3
        BYTE           N06     Cs3
        BYTE           N06     An2
        BYTE   W08
// 002   ----------------------------------------
AlmVictory_1_2:
        BYTE           N13     Fs3   v100
        BYTE           N13     As2
        BYTE           N13     Cs3
        BYTE   W16
        BYTE           N06     As2
        BYTE           N06     Cs3
        BYTE           N06     Fs3
        BYTE   W08
        BYTE           N13
        BYTE           N13     As2
        BYTE           N13     Cs3
        BYTE   W16
        BYTE           N06     Fs3
        BYTE           N06     Cs3
        BYTE           N06     As2
        BYTE   W08
        BYTE           N13     Fs3
        BYTE           N13     As2
        BYTE           N13     Cs3
        BYTE   W16
        BYTE           N06
        BYTE           N06     Fs3
        BYTE           N06     As2
        BYTE   W08
        BYTE           N13     Fs3
        BYTE           N13     As2
        BYTE           N13     Cs3
        BYTE   W16
        BYTE           N06
        BYTE           N06     As2
        BYTE           N06     Fs3
        BYTE   W08
        BYTE   PEND
// 003   ----------------------------------------
AlmVictory_1_3:
        BYTE           N13     Fs3   v100
        BYTE           N13     As2
        BYTE           N13     Cs3
        BYTE   W16
        BYTE           N06     Fs3
        BYTE           N06     Cs3
        BYTE           N06     As2
        BYTE   W08
        BYTE           N13     Fs3
        BYTE           N13     As2
        BYTE           N13     Cs3
        BYTE   W16
        BYTE           N06
        BYTE           N06     As2
        BYTE           N06     Fs3
        BYTE   W08
        BYTE           N13
        BYTE           N13     As2
        BYTE           N13     Cs3
        BYTE   W16
        BYTE           N06     Fs3
        BYTE           N06     Cs3
        BYTE           N06     As2
        BYTE   W08
        BYTE           N13     Fs3
        BYTE           N13     As2
        BYTE           N13     Cs3
        BYTE   W16
        BYTE           N06     As2
        BYTE           N06     Cs3
        BYTE           N06     Fs3
        BYTE   W08
        BYTE   PEND
// 004   ----------------------------------------
        BYTE           N13
        BYTE           N13     An2
        BYTE           N13     Cs3
        BYTE   W16
        BYTE           N06     Fs3
        BYTE           N06     Cs3
        BYTE           N06     An2
        BYTE   W08
        BYTE           N13     Fs3
        BYTE           N13     An2
        BYTE           N13     Cs3
        BYTE   W16
        BYTE           N06     Fs3
        BYTE           N06     Cs3
        BYTE           N06     An2
        BYTE   W08
        BYTE           N13     Fs3
        BYTE           N13     An2
        BYTE           N13     Cs3
        BYTE   W16
        BYTE           N06     Fs3
        BYTE           N06     Cs3
        BYTE           N06     An2
        BYTE   W08
        BYTE           N13     Fs3
        BYTE           N13     An2
        BYTE           N13     Cs3
        BYTE   W16
        BYTE           N06
        BYTE           N06     Fs3
        BYTE           N06     An2
        BYTE   W08
// 005   ----------------------------------------
        BYTE           N13     Fs3
        BYTE           N13     An2
        BYTE           N13     Cs3
        BYTE   W16
        BYTE           N06     Fs3
        BYTE           N06     Cs3
        BYTE           N06     An2
        BYTE   W08
        BYTE           N13     Fs3
        BYTE           N13     An2
        BYTE           N13     Cs3
        BYTE   W16
        BYTE           N06     An2
        BYTE           N06     Cs3
        BYTE           N06     Fs3
        BYTE   W08
        BYTE           N13
        BYTE           N13     An2
        BYTE           N13     Cs3
        BYTE   W16
        BYTE           N06
        BYTE           N06     Fs3
        BYTE           N06     An2
        BYTE   W08
        BYTE           N13     Fs3
        BYTE           N13     An2
        BYTE           N13     Cs3
        BYTE   W16
        BYTE           N06     Fs3
        BYTE           N06     Cs3
        BYTE           N06     An2
        BYTE   W08
// 006   ----------------------------------------
        BYTE   PATT
         POIN2  AlmVictory_1_2
// 007   ----------------------------------------
        BYTE   PATT
         POIN2  AlmVictory_1_3
// 008   ----------------------------------------
        BYTE           N14     En3   v100
        BYTE           N14     Cs3
        BYTE           N14     An2
        BYTE   W16
        BYTE           N06
        BYTE           N06     Cs3
        BYTE           N06     En3
        BYTE   W08
        BYTE           N13
        BYTE           N13     An2
        BYTE           N13     Cs3
        BYTE   W16
        BYTE           N06     En3
        BYTE           N06     Cs3
        BYTE           N06     An2
        BYTE   W08
        BYTE           N13     En3
        BYTE           N13     An2
        BYTE           N13     Cs3
        BYTE   W16
        BYTE           N06     En3
        BYTE           N06     Cs3
        BYTE           N06     An2
        BYTE   W08
        BYTE           N13     En3
        BYTE           N13     An2
        BYTE           N13     Cs3
        BYTE   W16
        BYTE           N06     En3
        BYTE           N06     Cs3
        BYTE           N06     An2
        BYTE   W08
// 009   ----------------------------------------
        BYTE           N13     En3
        BYTE           N13     An2
        BYTE           N13     Cs3
        BYTE   W16
        BYTE           N06     En3
        BYTE           N06     Cs3
        BYTE           N06     An2
        BYTE   W08
        BYTE           N13     En3
        BYTE           N13     An2
        BYTE           N13     Cs3
        BYTE   W16
        BYTE           N06     En3
        BYTE           N06     Cs3
        BYTE           N06     An2
        BYTE   W08
        BYTE           N13     En3
        BYTE           N13     An2
        BYTE           N13     Cs3
        BYTE   W16
        BYTE           N06     En3
        BYTE           N06     Cs3
        BYTE           N06     An2
        BYTE   W08
        BYTE           N13     En3
        BYTE           N13     An2
        BYTE           N13     Cs3
        BYTE   W16
        BYTE           N06     En3
        BYTE           N06     Cs3
        BYTE           N06     An2
        BYTE   W08
// 010   ----------------------------------------
        BYTE           N13     Cs3
        BYTE           N13     Fs3
        BYTE           N13     Fs2
        BYTE   W16
        BYTE           N06     Fs3
        BYTE           N06     Cs3
        BYTE           N06     Fs2
        BYTE   W08
        BYTE           N13     Cs3
        BYTE           N13     Fs3
        BYTE           N13     Fs2
        BYTE   W16
        BYTE           N06     Fs3
        BYTE           N06     Cs3
        BYTE           N06     Fs2
        BYTE   W08
        BYTE           N13     Cs3
        BYTE           N13     Fs3
        BYTE           N13     Fs2
        BYTE   W16
        BYTE           N06     Fs3
        BYTE           N06     Cs3
        BYTE           N06     Fs2
        BYTE   W08
        BYTE           N13     Cs3
        BYTE           N13     Fs3
        BYTE           N13     Fs2
        BYTE   W16
        BYTE           N06     Fs3
        BYTE           N06     Cs3
        BYTE           N06     Fs2
        BYTE   W08
// 011   ----------------------------------------
        BYTE           N13     Fn3
        BYTE           N13     Cs3
        BYTE           N13     Fn2
        BYTE   W16
        BYTE           N06     Fn3
        BYTE           N06     Cs3
        BYTE           N06     Fn2
        BYTE   W08
        BYTE           N13     Fn3
        BYTE           N13     Cs3
        BYTE           N13     Fn2
        BYTE   W16
        BYTE           N06     Fn3
        BYTE           N06     Cs3
        BYTE           N06     Fn2
        BYTE   W08
        BYTE           N13     Fn3
        BYTE           N13     Cs3
        BYTE           N13     Fn2
        BYTE   W16
        BYTE           N06     Fn3
        BYTE           N06     Cs3
        BYTE           N06     Fn2
        BYTE   W08
        BYTE           N13     Fn3
        BYTE           N13     Cs3
        BYTE           N13     Fn2
        BYTE   W16
        BYTE           N06     Fn3
        BYTE           N06     Cs3
        BYTE           N06     Fn2
        BYTE   W08
// 012   ----------------------------------------
        BYTE           N13     Fn3
        BYTE           N13     Cn3
        BYTE           N14     Fn2
        BYTE   W16
        BYTE           N06     Fn3
        BYTE           N06     Cn3
        BYTE           N06     Fn2
        BYTE   W08
        BYTE           N13     Fn3
        BYTE           N13     Cn3
        BYTE           N14     Fn2
        BYTE   W16
        BYTE           N06
        BYTE           N06     Cn3
        BYTE           N06     Fn3
        BYTE   W08
        BYTE           N13     En3
        BYTE           N13     En2
        BYTE           N13     Cn3
        BYTE   W16
        BYTE           N06     En3
        BYTE           N06     Cn3
        BYTE           N06     En2
        BYTE   W08
        BYTE           N13     En3
        BYTE           N13     En2
        BYTE           N13     Cn3
        BYTE   W16
        BYTE           N06
        BYTE           N06     En2
        BYTE           N06     En3
        BYTE   W08
// 013   ----------------------------------------
        BYTE           N13     Bn2
        BYTE           N13     En3
        BYTE           N14     En2
        BYTE   W16
        BYTE           N06     En3
        BYTE           N06     Bn2
        BYTE           N06     En2
        BYTE   W08
        BYTE           N13     Bn2
        BYTE           N13     En3
        BYTE           N14     En2
        BYTE   W16
        BYTE           N06
        BYTE           N06     Bn2
        BYTE           N06     En3
        BYTE   W08
        BYTE           N13     Ds3
        BYTE           N13     Ds2
        BYTE           N13     Bn2
        BYTE   W16
        BYTE           N06     Ds3
        BYTE           N06     Bn2
        BYTE           N06     Ds2
        BYTE   W08
        BYTE           N13     Ds3
        BYTE           N13     Ds2
        BYTE           N13     Bn2
        BYTE   W16
        BYTE           N06
        BYTE           N06     Ds3
        BYTE           N06     Ds2
        BYTE   W08
// 014   ----------------------------------------
        BYTE           N13     Ds3
        BYTE           N14     Ds2
        BYTE           N14     As2
        BYTE   W16
        BYTE           N06     Ds3
        BYTE           N06     As2
        BYTE           N06     Ds2
        BYTE   W08
        BYTE           N13     Ds3
        BYTE           N14     As2
        BYTE           N14     Ds2
        BYTE   W16
        BYTE           N06
        BYTE           N06     As2
        BYTE           N06     Ds3
        BYTE   W08
        BYTE           N13     Dn3
        BYTE           N13     Dn2
        BYTE           N13     As2
        BYTE   W16
        BYTE           N06     Dn3
        BYTE           N06     As2
        BYTE           N06     Dn2
        BYTE   W08
        BYTE           N13     Dn3
        BYTE           N13     Dn2
        BYTE           N13     As2
        BYTE   W16
        BYTE           N06     Dn2
        BYTE           N06     As2
        BYTE           N06     Dn3
        BYTE   W08
// 015   ----------------------------------------
        BYTE           N13     An2
        BYTE           N13     Dn3
        BYTE           N14     Dn2
        BYTE   W16
        BYTE           N06     Dn3
        BYTE           N06     An2
        BYTE           N06     Dn2
        BYTE   W08
        BYTE           N13     An2
        BYTE           N13     Dn3
        BYTE           N12     Dn2
        BYTE   W16
        BYTE           N06
        BYTE           N06     An2
        BYTE           N06     Dn3
        BYTE   W08
        BYTE           N13     Cs2
        BYTE           N13     Cs3
        BYTE           N13     An2
        BYTE   W16
        BYTE           N06     Cs3
        BYTE           N06     An2
        BYTE           N06     Cs2
        BYTE   W08
        BYTE           N13
        BYTE           N13     Cs3
        BYTE           N13     An2
        BYTE   W16
        BYTE           N06     Cs3
        BYTE           N06     An2
        BYTE           N06     Cs2
        BYTE   W08
// 016   ----------------------------------------
AlmVictory_1_16:
        BYTE           N12     Gn3   v100
        BYTE           N12     Bn2
        BYTE           N12     Dn3
        BYTE   W12
        BYTE                   Dn3
        BYTE           N12     Bn2
        BYTE           N12     Gn3
        BYTE   W24
        BYTE                   Gn3
        BYTE           N12     Bn2
        BYTE           N12     Dn3
        BYTE   W12
        BYTE                   Gn3
        BYTE           N12     Bn2
        BYTE           N12     Dn3
        BYTE   W12
        BYTE                   Dn3
        BYTE           N12     Bn2
        BYTE           N12     Gn3
        BYTE   W24
        BYTE                   Gn3
        BYTE           N12     Bn2
        BYTE           N12     Dn3
        BYTE   W12
        BYTE   PEND
// 017   ----------------------------------------
        BYTE   PATT
         POIN2  AlmVictory_1_16
// 018   ----------------------------------------
AlmVictory_1_18:
        BYTE           N12     An3   v100
        BYTE           N12     Cs3
        BYTE           N12     En3
        BYTE   W12
        BYTE                   An3
        BYTE           N12     Cs3
        BYTE           N12     En3
        BYTE   W24
        BYTE                   An3
        BYTE           N12     Cs3
        BYTE           N12     En3
        BYTE   W12
        BYTE                   An3
        BYTE           N12     Cs3
        BYTE           N12     En3
        BYTE   W12
        BYTE                   An3
        BYTE           N12     Cs3
        BYTE           N12     En3
        BYTE   W24
        BYTE                   An3
        BYTE           N12     Cs3
        BYTE           N12     En3
        BYTE   W12
        BYTE   PEND
// 019   ----------------------------------------
        BYTE   PATT
         POIN2  AlmVictory_1_18
// 020   ----------------------------------------
        BYTE   PATT
         POIN2  AlmVictory_1_16
// 021   ----------------------------------------
        BYTE   PATT
         POIN2  AlmVictory_1_16
// 022   ----------------------------------------
AlmVictory_1_22:
        BYTE           N12     En3   v100
        BYTE           N12     An3
        BYTE           N12     Fs2
        BYTE           N12     Cs3
        BYTE   W12
        BYTE                   Cs3
        BYTE           N12     En3
        BYTE           N12     Fs2
        BYTE           N12     An3
        BYTE   W24
        BYTE                   Cs3
        BYTE           N12     En3
        BYTE           N12     Fs2
        BYTE           N12     An3
        BYTE   W12
        BYTE                   Cs3
        BYTE           N12     En3
        BYTE           N12     Fs2
        BYTE           N12     An3
        BYTE   W12
        BYTE                   Cs3
        BYTE           N12     En3
        BYTE           N12     Fs2
        BYTE           N12     An3
        BYTE   W24
        BYTE                   Cs3
        BYTE           N12     En3
        BYTE           N12     Fs2
        BYTE           N12     An3
        BYTE   W12
        BYTE   PEND
// 023   ----------------------------------------
        BYTE   PATT
         POIN2  AlmVictory_1_22
// 024   ----------------------------------------
        BYTE   PATT
         POIN2  AlmVictory_1_16
// 025   ----------------------------------------
        BYTE   PATT
         POIN2  AlmVictory_1_16
// 026   ----------------------------------------
        BYTE   PATT
         POIN2  AlmVictory_1_18
// 027   ----------------------------------------
        BYTE   PATT
         POIN2  AlmVictory_1_18
// 028   ----------------------------------------
AlmVictory_1_28:
        BYTE           N12     Bn2   v100
        BYTE           N12     Dn3
        BYTE           N12     Fs3
        BYTE           N12     Gs2
        BYTE   W12
        BYTE                   Bn2
        BYTE           N12     Gs2
        BYTE           N12     Fs3
        BYTE           N12     Dn3
        BYTE   W24
        BYTE                   Gs2
        BYTE           N12     Bn2
        BYTE           N12     Fs3
        BYTE           N12     Dn3
        BYTE   W12
        BYTE                   Gs2
        BYTE           N12     Bn2
        BYTE           N12     Fs3
        BYTE           N12     Dn3
        BYTE   W12
        BYTE                   Gs2
        BYTE           N12     Bn2
        BYTE           N12     Fs3
        BYTE           N12     Dn3
        BYTE   W24
        BYTE                   Gs2
        BYTE           N12     Bn2
        BYTE           N12     Fs3
        BYTE           N12     Dn3
        BYTE   W12
        BYTE   PEND
// 029   ----------------------------------------
        BYTE   PATT
         POIN2  AlmVictory_1_28
// 030   ----------------------------------------
        BYTE           N12     Cs3   v100
        BYTE           N12     An3
        BYTE           N12     Fs3
        BYTE           N12     Fs2
        BYTE   W12
        BYTE                   Cs3
        BYTE           N12     Fs2
        BYTE           N12     Fs3
        BYTE           N12     An3
        BYTE   W24
        BYTE                   An3
        BYTE           N12     Cs3
        BYTE           N12     Fs3
        BYTE           N12     Fs2
        BYTE   W12
        BYTE                   An3
        BYTE           N12     Cs3
        BYTE           N12     Fs3
        BYTE           N12     Fs2
        BYTE   W12
        BYTE                   Cs3
        BYTE           N12     Fs2
        BYTE           N12     Fs3
        BYTE           N12     An3
        BYTE   W24
        BYTE                   An3
        BYTE           N12     Cs3
        BYTE           N12     Fs3
        BYTE           N12     Fs2
        BYTE   W12
// 031   ----------------------------------------
        BYTE   PATT
         POIN2  AlmVictory_1_22
// 032   ----------------------------------------
        BYTE           N13     Fs3   v100
        BYTE           N13     An2
        BYTE           N13     Cs3
        BYTE   W16
        BYTE           N06     Fs3
        BYTE           N06     Cs3
        BYTE           N06     An2
        BYTE   W08
        BYTE           N13     Fs3
        BYTE           N13     An2
        BYTE           N13     Cs3
        BYTE   W16
        BYTE           N06
        BYTE           N06     Fs3
        BYTE           N06     An2
        BYTE   W08
        BYTE           N13     Fs3
        BYTE           N13     An2
        BYTE           N13     Cs3
        BYTE   W16
        BYTE           N06
        BYTE           N06     An2
        BYTE           N06     Fs3
        BYTE   W08
        BYTE           N13
        BYTE           N13     An2
        BYTE           N13     Cs3
        BYTE   W16
        BYTE           N06     Fs3
        BYTE           N06     Cs3
        BYTE           N06     An2
        BYTE   W08
// 033   ----------------------------------------
        BYTE   GoTo
         POIN2  AlmVictory_1_LOOP
        BYTE   FINE

//****************** Track 2 (Midi-Chn.2) ******************//

AlmVictory_2:
        BYTE   KEYSH   AlmVictory_key+0
// 000   ----------------------------------------
        BYTE           VOICE   39
        BYTE           VOL     53
        BYTE           PAN     c_v+23
        BYTE           N06     Fs1   v104
        BYTE   W08
        BYTE                   Fs1
        BYTE   W16
        BYTE           N12
        BYTE   W16
        BYTE           N06
        BYTE   W08
        BYTE                   Cn1
        BYTE   W08
        BYTE                   Dn1
        BYTE   W08
        BYTE                   Fs1
        BYTE   W08
        BYTE                   Fs1
        BYTE   W08
        BYTE                   Cn1
        BYTE   W08
        BYTE                   Dn1
        BYTE   W08
// 001   ----------------------------------------
AlmVictory_2_LOOP:
        BYTE           N06     Fs1   v104
        BYTE   W08
        BYTE                   Fs1
        BYTE   W16
        BYTE           N12
        BYTE   W16
        BYTE           N06
        BYTE   W08
        BYTE                   Cn1
        BYTE   W08
        BYTE                   Dn1
        BYTE   W08
        BYTE                   Fs1
        BYTE   W08
        BYTE                   Fs1
        BYTE   W08
        BYTE                   Cn1
        BYTE   W08
        BYTE                   Fs1
        BYTE   W08
// 002   ----------------------------------------
AlmVictory_2_2:
        BYTE           N06     Fs1   v104
        BYTE   W08
        BYTE                   Fs1
        BYTE   W16
        BYTE           N12
        BYTE   W16
        BYTE           N06
        BYTE   W08
        BYTE                   Cn1
        BYTE   W08
        BYTE                   Dn1
        BYTE   W08
        BYTE                   Fs1
        BYTE   W08
        BYTE                   Fs1
        BYTE   W08
        BYTE                   Cn1
        BYTE   W08
        BYTE                   Dn1
        BYTE   W08
        BYTE   PEND
// 003   ----------------------------------------
        BYTE   PATT
         POIN2  AlmVictory_2_2
// 004   ----------------------------------------
        BYTE   PATT
         POIN2  AlmVictory_2_2
// 005   ----------------------------------------
        BYTE           N06     Fs1   v104
        BYTE   W08
        BYTE                   Fs1
        BYTE   W16
        BYTE           N12
        BYTE   W16
        BYTE           N06
        BYTE   W08
        BYTE                   Cn1
        BYTE   W08
        BYTE                   Dn1
        BYTE   W08
        BYTE                   Fs1
        BYTE   W08
        BYTE                   Fs1
        BYTE   W08
        BYTE                   Cn1
        BYTE   W08
        BYTE                   Fs1
        BYTE   W08
// 006   ----------------------------------------
        BYTE   PATT
         POIN2  AlmVictory_2_2
// 007   ----------------------------------------
        BYTE   PATT
         POIN2  AlmVictory_2_2
// 008   ----------------------------------------
AlmVictory_2_8:
        BYTE           N06     En1   v104
        BYTE   W08
        BYTE                   En1
        BYTE   W16
        BYTE           N12
        BYTE   W16
        BYTE           N06
        BYTE   W08
        BYTE                   Cn1
        BYTE   W08
        BYTE                   Dn1
        BYTE   W08
        BYTE                   En1
        BYTE   W08
        BYTE                   En1
        BYTE   W08
        BYTE                   Cn1
        BYTE   W08
        BYTE                   Dn1
        BYTE   W08
        BYTE   PEND
// 009   ----------------------------------------
        BYTE   PATT
         POIN2  AlmVictory_2_8
// 010   ----------------------------------------
        BYTE           N06     Dn1   v100
        BYTE   W08
        BYTE                   Dn1   v104
        BYTE   W16
        BYTE           N12     Dn1   v100
        BYTE   W16
        BYTE           N06     Dn1   v104
        BYTE   W08
        BYTE                   Fs0
        BYTE   W08
        BYTE                   An0
        BYTE   W08
        BYTE                   Dn1
        BYTE   W08
        BYTE                   Dn1   v100
        BYTE   W08
        BYTE                   Fs0   v104
        BYTE   W08
        BYTE                   An0
        BYTE   W08
// 011   ----------------------------------------
        BYTE                   Cs1   v100
        BYTE   W08
        BYTE                   Cs1   v104
        BYTE   W16
        BYTE           N12     Cs1   v100
        BYTE   W16
        BYTE           N06     Cs1   v104
        BYTE   W08
        BYTE                   Fs0
        BYTE   W08
        BYTE                   An0
        BYTE   W08
        BYTE                   Cs1
        BYTE   W08
        BYTE                   Cs1   v100
        BYTE   W08
        BYTE           N08     Cs1   v104
        BYTE   W16
// 012   ----------------------------------------
        BYTE           N06     Cn2   v100
        BYTE   W08
        BYTE                   Cn2   v104
        BYTE   W16
        BYTE           N12     Cn2   v100
        BYTE   W16
        BYTE           N06     Cn2   v104
        BYTE   W08
        BYTE           N08     En1
        BYTE   W08
        BYTE                   Gn1
        BYTE   W08
        BYTE           N06     Cn2
        BYTE   W08
        BYTE                   Cn2   v100
        BYTE   W08
        BYTE           N08     En1   v104
        BYTE   W08
        BYTE                   Gn1
        BYTE   W08
// 013   ----------------------------------------
        BYTE           N06     Bn1   v100
        BYTE   W08
        BYTE                   Bn1   v104
        BYTE   W16
        BYTE           N12     Bn1   v100
        BYTE   W16
        BYTE           N06     Bn1   v104
        BYTE   W08
        BYTE                   Ds1
        BYTE   W08
        BYTE                   Fs1
        BYTE   W08
        BYTE                   Bn1
        BYTE   W08
        BYTE                   Bn1   v100
        BYTE   W08
        BYTE                   Ds1   v104
        BYTE   W08
        BYTE                   Fs1
        BYTE   W08
// 014   ----------------------------------------
        BYTE                   As1   v100
        BYTE   W08
        BYTE                   As1   v104
        BYTE   W16
        BYTE           N12     As1   v100
        BYTE   W16
        BYTE           N06     As1   v104
        BYTE   W08
        BYTE                   Cs1
        BYTE   W08
        BYTE                   Fs1
        BYTE   W08
        BYTE                   As1
        BYTE   W08
        BYTE                   As1   v100
        BYTE   W08
        BYTE                   Cs1   v104
        BYTE   W08
        BYTE                   Fs1
        BYTE   W08
// 015   ----------------------------------------
        BYTE                   An1   v100
        BYTE   W08
        BYTE                   An1   v104
        BYTE   W16
        BYTE           N12     An1   v100
        BYTE   W16
        BYTE           N06     An1   v104
        BYTE   W08
        BYTE                   Cs1
        BYTE   W08
        BYTE                   En1
        BYTE   W08
        BYTE                   An1
        BYTE   W08
        BYTE                   An1   v100
        BYTE   W08
        BYTE                   Cs1   v104
        BYTE   W08
        BYTE                   En1
        BYTE   W08
// 016   ----------------------------------------
AlmVictory_2_16:
        BYTE           N10     Gn1   v100
        BYTE   W12
        BYTE           N21
        BYTE   W24
        BYTE           N10
        BYTE   W12
        BYTE                   Gn1
        BYTE   W12
        BYTE           N21
        BYTE   W24
        BYTE           N10
        BYTE   W12
        BYTE   PEND
// 017   ----------------------------------------
        BYTE   PATT
         POIN2  AlmVictory_2_16
// 018   ----------------------------------------
AlmVictory_2_18:
        BYTE           N10     An1   v100
        BYTE   W12
        BYTE           N21
        BYTE   W24
        BYTE           N10
        BYTE   W12
        BYTE                   An1
        BYTE   W12
        BYTE           N21
        BYTE   W24
        BYTE           N10
        BYTE   W12
        BYTE   PEND
// 019   ----------------------------------------
        BYTE   PATT
         POIN2  AlmVictory_2_18
// 020   ----------------------------------------
        BYTE   PATT
         POIN2  AlmVictory_2_16
// 021   ----------------------------------------
        BYTE   PATT
         POIN2  AlmVictory_2_16
// 022   ----------------------------------------
AlmVictory_2_22:
        BYTE           N10     Fs1   v100
        BYTE   W12
        BYTE           N19
        BYTE   W24
        BYTE           N10
        BYTE   W12
        BYTE                   Fs1
        BYTE   W12
        BYTE           N19
        BYTE   W24
        BYTE           N10
        BYTE   W12
        BYTE   PEND
// 023   ----------------------------------------
        BYTE   PATT
         POIN2  AlmVictory_2_22
// 024   ----------------------------------------
        BYTE   PATT
         POIN2  AlmVictory_2_16
// 025   ----------------------------------------
        BYTE   PATT
         POIN2  AlmVictory_2_16
// 026   ----------------------------------------
        BYTE   PATT
         POIN2  AlmVictory_2_18
// 027   ----------------------------------------
        BYTE   PATT
         POIN2  AlmVictory_2_18
// 028   ----------------------------------------
AlmVictory_2_28:
        BYTE           N10     Gs1   v100
        BYTE   W12
        BYTE                   Gs1
        BYTE   W24
        BYTE                   Gs1
        BYTE   W12
        BYTE                   Gs1
        BYTE   W12
        BYTE                   Gs1
        BYTE   W24
        BYTE                   Gs1
        BYTE   W12
        BYTE   PEND
// 029   ----------------------------------------
        BYTE   PATT
         POIN2  AlmVictory_2_28
// 030   ----------------------------------------
        BYTE           N10     Fs1   v100
        BYTE   W12
        BYTE                   Fs1
        BYTE   W24
        BYTE                   Fs1
        BYTE   W12
        BYTE                   Fs1
        BYTE   W12
        BYTE                   Fs1
        BYTE   W24
        BYTE                   Fs1
        BYTE   W12
// 031   ----------------------------------------
        BYTE           N12     Cs2
        BYTE   W12
        BYTE           N04     Cs1   v104
        BYTE   W12
        BYTE           N12     Cs2   v100
        BYTE   W12
        BYTE           N04     Cs1   v104
        BYTE   W12
        BYTE           N12     Cs2   v100
        BYTE   W12
        BYTE           N04     Cs1   v104
        BYTE   W12
        BYTE           N12     Cs2   v100
        BYTE   W12
        BYTE           N04     Cs1   v104
        BYTE   W12
// 032   ----------------------------------------
        BYTE   PATT
         POIN2  AlmVictory_2_2
// 033   ----------------------------------------
        BYTE   GoTo
         POIN2  AlmVictory_2_LOOP
        BYTE   FINE

//****************** Track 3 (Midi-Chn.3) ******************//

AlmVictory_3:
        BYTE   KEYSH   AlmVictory_key+0
// 000   ----------------------------------------
        BYTE           VOICE   40
        BYTE           VOL     42
        BYTE           PAN     c_v-14
        BYTE   W96
// 001   ----------------------------------------
AlmVictory_3_LOOP:
        BYTE   W96
// 002   ----------------------------------------
        BYTE   W96
// 003   ----------------------------------------
        BYTE   W96
// 004   ----------------------------------------
        BYTE   W96
// 005   ----------------------------------------
        BYTE   W96
// 006   ----------------------------------------
        BYTE   W96
// 007   ----------------------------------------
        BYTE   W96
// 008   ----------------------------------------
        BYTE   W96
// 009   ----------------------------------------
        BYTE   W96
// 010   ----------------------------------------
        BYTE   W96
// 011   ----------------------------------------
        BYTE   W96
// 012   ----------------------------------------
        BYTE   W96
// 013   ----------------------------------------
        BYTE   W96
// 014   ----------------------------------------
        BYTE   W96
// 015   ----------------------------------------
        BYTE   W78
        BYTE           VOL     40
        BYTE   W17
        BYTE                   41
        BYTE   W01
// 016   ----------------------------------------
        BYTE           N84     Bn3   v100   gtp2
        BYTE   W96
// 017   ----------------------------------------
AlmVictory_3_17:
        BYTE           N32     Gn3   v100
        BYTE   W36
        BYTE                   Bn3
        BYTE   W36
        BYTE           N21     Fs4
        BYTE   W24
        BYTE   PEND
// 018   ----------------------------------------
        BYTE           N84     En4   v100   gtp2
        BYTE   W96
// 019   ----------------------------------------
        BYTE                   Cs4
        BYTE   W96
// 020   ----------------------------------------
        BYTE                   Bn3
        BYTE   W96
// 021   ----------------------------------------
        BYTE           N32     Gn3
        BYTE   W36
        BYTE                   Bn3
        BYTE   W36
        BYTE           N21     Dn4
        BYTE   W24
// 022   ----------------------------------------
        BYTE           N84     En4   v100   gtp2
        BYTE   W96
// 023   ----------------------------------------
        BYTE                   Cs4
        BYTE   W96
// 024   ----------------------------------------
        BYTE                   Bn3
        BYTE   W96
// 025   ----------------------------------------
        BYTE   PATT
         POIN2  AlmVictory_3_17
// 026   ----------------------------------------
        BYTE           N84     En4   v100   gtp2
        BYTE   W96
// 027   ----------------------------------------
        BYTE                   Cs4
        BYTE   W96
// 028   ----------------------------------------
        BYTE                   Bn3
        BYTE   W96
// 029   ----------------------------------------
        BYTE           N32
        BYTE   W36
        BYTE                   Cs4
        BYTE   W36
        BYTE           N21     Dn4
        BYTE   W24
// 030   ----------------------------------------
        BYTE           N84     Fs3   v082   gtp2
        BYTE                   Cs4   v100
        BYTE   W96
// 031   ----------------------------------------
        BYTE                   Cs3   v083
        BYTE           N84     An3   v100   gtp2
        BYTE           N96     Cs5   v102
        BYTE   W96
// 032   ----------------------------------------
        BYTE   W96
// 033   ----------------------------------------
        BYTE           VOL     42
        BYTE   GoTo
         POIN2  AlmVictory_3_LOOP
        BYTE   FINE

//****************** Track 4 (Midi-Chn.4) ******************//

AlmVictory_4:
        BYTE   KEYSH   AlmVictory_key+0
// 000   ----------------------------------------
        BYTE           VOICE   46
        BYTE           VOL     44
        BYTE           PAN     c_v+23
        BYTE   W96
// 001   ----------------------------------------
AlmVictory_4_LOOP:
        BYTE   W96
// 002   ----------------------------------------
        BYTE   W96
// 003   ----------------------------------------
        BYTE   W96
// 004   ----------------------------------------
        BYTE   W96
// 005   ----------------------------------------
        BYTE   W96
// 006   ----------------------------------------
        BYTE   W96
// 007   ----------------------------------------
        BYTE   W96
// 008   ----------------------------------------
        BYTE   W96
// 009   ----------------------------------------
        BYTE   W96
// 010   ----------------------------------------
        BYTE   W96
// 011   ----------------------------------------
        BYTE   W96
// 012   ----------------------------------------
        BYTE   W96
// 013   ----------------------------------------
        BYTE   W96
// 014   ----------------------------------------
        BYTE   W96
// 015   ----------------------------------------
        BYTE   W96
// 016   ----------------------------------------
AlmVictory_4_16:
        BYTE           N64     Bn2   v100
        BYTE           N64     Bn3
        BYTE   W72
        BYTE           N05     Gn2
        BYTE   W06
        BYTE                   Bn2
        BYTE   W06
        BYTE                   Dn3
        BYTE   W06
        BYTE                   Gn3
        BYTE   W06
        BYTE   PEND
// 017   ----------------------------------------
AlmVictory_4_17:
        BYTE           N21     Bn3   v100
        BYTE   W24
        BYTE           N05     Dn4
        BYTE   W06
        BYTE                   Bn3
        BYTE   W06
        BYTE                   Gn3
        BYTE   W06
        BYTE                   Dn3
        BYTE   W06
        BYTE                   Bn3
        BYTE   W06
        BYTE                   Gn3
        BYTE   W06
        BYTE                   Dn3
        BYTE   W06
        BYTE                   Bn2
        BYTE   W06
        BYTE                   Gn3
        BYTE   W06
        BYTE                   Dn3
        BYTE   W06
        BYTE                   Bn2
        BYTE   W06
        BYTE                   Gn2
        BYTE   W06
        BYTE   PEND
// 018   ----------------------------------------
        BYTE           N64     Cs4
        BYTE           N64     Cs3
        BYTE   W72
        BYTE           N05     En2
        BYTE   W06
        BYTE                   An2
        BYTE   W06
        BYTE                   Cs3
        BYTE   W06
        BYTE                   En3
        BYTE   W06
// 019   ----------------------------------------
AlmVictory_4_19:
        BYTE           N21     An3   v100
        BYTE   W24
        BYTE           N05     En4
        BYTE   W06
        BYTE                   Cs4
        BYTE   W06
        BYTE                   An3
        BYTE   W06
        BYTE                   En3
        BYTE   W06
        BYTE                   Cs4
        BYTE   W06
        BYTE                   An3
        BYTE   W06
        BYTE                   En3
        BYTE   W06
        BYTE                   Cs3
        BYTE   W06
        BYTE                   An3
        BYTE   W06
        BYTE                   En3
        BYTE   W06
        BYTE                   Cs3
        BYTE   W06
        BYTE                   An2
        BYTE   W06
        BYTE   PEND
// 020   ----------------------------------------
        BYTE   PATT
         POIN2  AlmVictory_4_16
// 021   ----------------------------------------
        BYTE   PATT
         POIN2  AlmVictory_4_17
// 022   ----------------------------------------
AlmVictory_4_22:
        BYTE           N64     Cs3   v100
        BYTE           N64     Cs4
        BYTE   W72
        BYTE           N05     En2
        BYTE   W06
        BYTE                   An2
        BYTE   W06
        BYTE                   Cs3
        BYTE   W06
        BYTE                   En3
        BYTE   W06
        BYTE   PEND
// 023   ----------------------------------------
        BYTE   PATT
         POIN2  AlmVictory_4_19
// 024   ----------------------------------------
        BYTE   PATT
         POIN2  AlmVictory_4_16
// 025   ----------------------------------------
        BYTE   PATT
         POIN2  AlmVictory_4_17
// 026   ----------------------------------------
        BYTE   PATT
         POIN2  AlmVictory_4_22
// 027   ----------------------------------------
        BYTE   PATT
         POIN2  AlmVictory_4_19
// 028   ----------------------------------------
        BYTE           N10     Gs3   v083
        BYTE           N64     Bn2   v100
        BYTE   W06
        BYTE           N05     Bn3   v083
        BYTE   W06
        BYTE                   Dn4
        BYTE   W06
        BYTE                   Fs4
        BYTE   W06
        BYTE                   Gs4   v082
        BYTE   W06
        BYTE                   Dn4
        BYTE   W06
        BYTE                   Bn3
        BYTE   W06
        BYTE                   Gs3
        BYTE   W06
        BYTE                   Bn3   v081
        BYTE   W06
        BYTE                   Gs3
        BYTE   W06
        BYTE                   Fs3
        BYTE   W06
        BYTE                   Dn3
        BYTE   W06
        BYTE                   Gs2   v100
        BYTE   W06
        BYTE                   Bn2
        BYTE   W06
        BYTE                   Dn3
        BYTE   W06
        BYTE                   Gs3
        BYTE   W06
// 029   ----------------------------------------
        BYTE           N21     Bn3
        BYTE   W24
        BYTE           N05     Dn4
        BYTE   W06
        BYTE                   Bn3
        BYTE   W06
        BYTE                   Gs3
        BYTE   W06
        BYTE                   Dn3
        BYTE   W06
        BYTE                   Bn3
        BYTE   W06
        BYTE                   Gs3
        BYTE   W06
        BYTE                   Dn3
        BYTE   W06
        BYTE                   Bn2
        BYTE   W06
        BYTE                   Gs3
        BYTE   W06
        BYTE                   Dn3
        BYTE   W06
        BYTE                   Bn2
        BYTE   W06
        BYTE                   Gs2
        BYTE   W06
// 030   ----------------------------------------
        BYTE   PATT
         POIN2  AlmVictory_4_22
// 031   ----------------------------------------
        BYTE   PATT
         POIN2  AlmVictory_4_19
// 032   ----------------------------------------
        BYTE   W96
// 033   ----------------------------------------
        BYTE   GoTo
         POIN2  AlmVictory_4_LOOP
        BYTE   FINE

//****************** Track 5 (Midi-Chn.5) ******************//

AlmVictory_5:
        BYTE   KEYSH   AlmVictory_key+0
// 000   ----------------------------------------
        BYTE           VOICE   47
        BYTE           VOL     47
        BYTE           PAN     c_v-14
        BYTE           N72     Fs1   v100
        BYTE   W96
// 001   ----------------------------------------
AlmVictory_5_LOOP:
        BYTE   W96
// 002   ----------------------------------------
        BYTE   W96
// 003   ----------------------------------------
AlmVictory_5_3:
        BYTE           N03     Fs1   v069
        BYTE   W04
        BYTE                   Fs1   v071
        BYTE   W04
        BYTE                   Fs1   v073
        BYTE   W04
        BYTE                   Fs1   v075
        BYTE   W04
        BYTE                   Fs1   v077
        BYTE   W04
        BYTE                   Fs1   v079
        BYTE   W04
        BYTE                   Fs1   v081
        BYTE   W04
        BYTE                   Fs1   v083
        BYTE   W04
        BYTE                   Fs1   v085
        BYTE   W04
        BYTE                   Fs1   v087
        BYTE   W04
        BYTE                   Fs1   v089
        BYTE   W04
        BYTE                   Fs1   v091
        BYTE   W04
        BYTE                   Fs1   v093
        BYTE   W04
        BYTE                   Fs1   v094
        BYTE   W04
        BYTE                   Fs1   v096
        BYTE   W04
        BYTE                   Fs1   v098
        BYTE   W04
        BYTE                   Fs1   v100
        BYTE   W04
        BYTE                   Fs1   v102
        BYTE   W04
        BYTE                   Fs1   v104
        BYTE   W04
        BYTE                   Fs1   v106
        BYTE   W04
        BYTE                   Fs1   v108
        BYTE   W04
        BYTE                   Fs1   v110
        BYTE   W04
        BYTE                   Fs1   v112
        BYTE   W04
        BYTE                   Fs1   v114
        BYTE   W04
        BYTE   PEND
// 004   ----------------------------------------
        BYTE           N30     Fs1   v116
        BYTE   W96
// 005   ----------------------------------------
        BYTE   W96
// 006   ----------------------------------------
        BYTE   W96
// 007   ----------------------------------------
        BYTE   PATT
         POIN2  AlmVictory_5_3
// 008   ----------------------------------------
        BYTE           N24     Fs1   v116
        BYTE   W96
// 009   ----------------------------------------
        BYTE   W96
// 010   ----------------------------------------
        BYTE   W96
// 011   ----------------------------------------
        BYTE   W96
// 012   ----------------------------------------
        BYTE   W96
// 013   ----------------------------------------
        BYTE   W96
// 014   ----------------------------------------
        BYTE   W96
// 015   ----------------------------------------
        BYTE   PATT
         POIN2  AlmVictory_5_3
// 016   ----------------------------------------
        BYTE           N24     Fs1   v116
        BYTE   W96
// 017   ----------------------------------------
        BYTE   W96
// 018   ----------------------------------------
        BYTE   W96
// 019   ----------------------------------------
        BYTE   W96
// 020   ----------------------------------------
        BYTE   W96
// 021   ----------------------------------------
        BYTE   W96
// 022   ----------------------------------------
        BYTE   W96
// 023   ----------------------------------------
        BYTE   W96
// 024   ----------------------------------------
        BYTE   W96
// 025   ----------------------------------------
        BYTE   W96
// 026   ----------------------------------------
        BYTE   W96
// 027   ----------------------------------------
        BYTE   W96
// 028   ----------------------------------------
        BYTE   W96
// 029   ----------------------------------------
        BYTE   W96
// 030   ----------------------------------------
        BYTE   W96
// 031   ----------------------------------------
        BYTE           N12     Fs1   v100
        BYTE   W24
        BYTE                   Fs1   v111
        BYTE   W24
        BYTE                   Fs1   v118
        BYTE   W24
        BYTE                   Fs1   v127
        BYTE   W24
// 032   ----------------------------------------
        BYTE           N21     Fs1   v100
        BYTE   W96
// 033   ----------------------------------------
        BYTE   GoTo
         POIN2  AlmVictory_5_LOOP
        BYTE   FINE

//****************** Track 6 (Midi-Chn.6) ******************//

AlmVictory_6:
        BYTE   KEYSH   AlmVictory_key+0
// 000   ----------------------------------------
        BYTE           VOICE   124
        BYTE           PAN     c_v+2
        BYTE           VOL     41
        BYTE           N12     Cn1   v100
        BYTE           N12     Fs3   v104
        BYTE           N06     En3
        BYTE           N24     Cs2
        BYTE   W16
        BYTE           N06     Cn1   v100
        BYTE   W08
        BYTE           N12
        BYTE           N12     Fn3   v104
        BYTE           N06     Ds3
        BYTE           N08     Ds1
        BYTE   W16
        BYTE           N06     Cn1
        BYTE           N06     Fs3
        BYTE           N04     Ds1
        BYTE   W08
        BYTE           N12     Cn1   v100
        BYTE           N06     Fn3   v104
        BYTE           N08     En3
        BYTE   W08
        BYTE           N06     Fn3
        BYTE           N08     Dn3
        BYTE   W08
        BYTE           N06     Cn1
        BYTE           N08     En3
        BYTE   W08
        BYTE           N12     Cn1   v100
        BYTE           N12     Fs3   v104
        BYTE           N06     Ds3
        BYTE           N08     Ds1
        BYTE   W16
        BYTE           N06     Cn1
        BYTE           N06     Fs3
        BYTE           N04     Ds1
        BYTE   W08
// 001   ----------------------------------------
AlmVictory_6_LOOP:
        BYTE           N12     Cn1   v100
        BYTE           N12     Fs3   v104
        BYTE           N06     En3
        BYTE   W16
        BYTE                   Cn1   v100
        BYTE   W08
        BYTE           N12
        BYTE           N12     Fn3   v104
        BYTE           N06     Ds3
        BYTE           N08     Ds1
        BYTE   W16
        BYTE           N06     Cn1
        BYTE           N06     Fs3
        BYTE           N04     Ds1
        BYTE   W08
        BYTE           N12     Cn1   v100
        BYTE           N06     Fn3   v104
        BYTE           N08     En3
        BYTE   W08
        BYTE           N06     Fn3
        BYTE           N08     Dn3
        BYTE   W08
        BYTE           N06     Cn1
        BYTE           N08     En3
        BYTE   W08
        BYTE           N12     Cn1   v100
        BYTE           N12     Fs3   v104
        BYTE           N06     Ds3
        BYTE           N08     Ds1
        BYTE   W16
        BYTE           N06     Cn1
        BYTE           N06     Fs3
        BYTE           N04     Ds1
        BYTE   W08
// 002   ----------------------------------------
AlmVictory_6_2:
        BYTE           N12     Cn1   v100
        BYTE           N12     Fs3   v104
        BYTE           N06     En3
        BYTE   W16
        BYTE                   Cn1   v100
        BYTE   W08
        BYTE           N12
        BYTE           N12     Fn3   v104
        BYTE           N06     Ds3
        BYTE           N08     Ds1
        BYTE   W16
        BYTE           N06     Cn1
        BYTE           N06     Fs3
        BYTE           N04     Ds1
        BYTE   W08
        BYTE           N12     Cn1   v100
        BYTE           N06     Fn3   v104
        BYTE           N08     En3
        BYTE   W08
        BYTE           N06     Fn3
        BYTE           N08     Dn3
        BYTE   W08
        BYTE           N06     Cn1
        BYTE           N08     En3
        BYTE   W08
        BYTE           N12     Cn1   v100
        BYTE           N12     Fs3   v104
        BYTE           N06     Ds3
        BYTE           N08     Ds1
        BYTE   W16
        BYTE           N06     Cn1
        BYTE           N06     Fs3
        BYTE           N04     Ds1
        BYTE   W08
        BYTE   PEND
// 003   ----------------------------------------
        BYTE   PATT
         POIN2  AlmVictory_6_2
// 004   ----------------------------------------
AlmVictory_6_4:
        BYTE           N12     Cn1   v100
        BYTE           N12     Fs3   v104
        BYTE           N06     En3
        BYTE           N24     Cs2
        BYTE   W16
        BYTE           N06     Cn1   v100
        BYTE   W08
        BYTE           N12
        BYTE           N12     Fn3   v104
        BYTE           N06     Ds3
        BYTE           N08     Ds1
        BYTE   W16
        BYTE           N06     Cn1
        BYTE           N06     Fs3
        BYTE           N04     Ds1
        BYTE   W08
        BYTE           N12     Cn1   v100
        BYTE           N06     Fn3   v104
        BYTE           N08     En3
        BYTE   W08
        BYTE           N06     Fn3
        BYTE           N08     Dn3
        BYTE   W08
        BYTE           N06     Cn1
        BYTE           N08     En3
        BYTE   W08
        BYTE           N12     Cn1   v100
        BYTE           N12     Fs3   v104
        BYTE           N06     Ds3
        BYTE           N08     Ds1
        BYTE   W16
        BYTE           N06     Cn1
        BYTE           N06     Fs3
        BYTE           N04     Ds1
        BYTE   W08
        BYTE   PEND
// 005   ----------------------------------------
        BYTE   PATT
         POIN2  AlmVictory_6_2
// 006   ----------------------------------------
        BYTE   PATT
         POIN2  AlmVictory_6_2
// 007   ----------------------------------------
        BYTE   PATT
         POIN2  AlmVictory_6_2
// 008   ----------------------------------------
        BYTE   PATT
         POIN2  AlmVictory_6_4
// 009   ----------------------------------------
        BYTE   PATT
         POIN2  AlmVictory_6_2
// 010   ----------------------------------------
        BYTE   PATT
         POIN2  AlmVictory_6_2
// 011   ----------------------------------------
        BYTE   PATT
         POIN2  AlmVictory_6_2
// 012   ----------------------------------------
        BYTE   PATT
         POIN2  AlmVictory_6_4
// 013   ----------------------------------------
        BYTE   PATT
         POIN2  AlmVictory_6_4
// 014   ----------------------------------------
        BYTE   PATT
         POIN2  AlmVictory_6_4
// 015   ----------------------------------------
        BYTE           N12     Cn1   v100
        BYTE           N12     Fs3   v104
        BYTE           N06     En3
        BYTE           N22     Cs2
        BYTE   W16
        BYTE           N06     Cn1   v100
        BYTE   W08
        BYTE           N12
        BYTE           N12     Fn3   v104
        BYTE           N06     Ds3
        BYTE           N08     Ds1
        BYTE           N22     Cs2
        BYTE   W16
        BYTE           N06     Cn1
        BYTE           N06     Fs3
        BYTE           N04     Ds1
        BYTE   W08
        BYTE           N12     Cn1   v100
        BYTE           N06     Fn3   v104
        BYTE           N08     En3
        BYTE           N22     Cs2
        BYTE   W08
        BYTE           N06     Fn3
        BYTE           N08     Dn3
        BYTE   W08
        BYTE           N06     Cn1
        BYTE           N08     En3
        BYTE   W08
        BYTE           N12     Cn1   v100
        BYTE           N12     Fs3   v104
        BYTE           N06     Ds3
        BYTE           N08     Ds1
        BYTE           N22     Cs2   v100
        BYTE   W16
        BYTE           N06     Cn1   v104
        BYTE           N06     Fs3
        BYTE           N04     Ds1
        BYTE   W08
// 016   ----------------------------------------
        BYTE           N06     Fs1   v100
        BYTE           N24     Cs2
        BYTE           N12     Cn1
        BYTE           N48     An2
        BYTE   W12
        BYTE           N06     Fs1
        BYTE   W12
        BYTE           N12     Dn1
        BYTE   W12
        BYTE           N06     Fs1
        BYTE   W12
        BYTE                   Fs1
        BYTE           N12     Cn1
        BYTE   W12
        BYTE           N06     Fs1
        BYTE   W12
        BYTE           N12     Dn1
        BYTE   W12
        BYTE           N06     Fs1
        BYTE   W12
// 017   ----------------------------------------
AlmVictory_6_17:
        BYTE           N06     Fs1   v100
        BYTE           N12     Cn1
        BYTE   W12
        BYTE           N06     Fs1
        BYTE   W12
        BYTE           N12     Dn1
        BYTE   W12
        BYTE           N06     Fs1
        BYTE   W12
        BYTE                   Fs1
        BYTE           N12     Cn1
        BYTE   W12
        BYTE           N06     Fs1
        BYTE   W12
        BYTE           N12     Dn1
        BYTE   W12
        BYTE           N06     Fs1
        BYTE   W12
        BYTE   PEND
// 018   ----------------------------------------
AlmVictory_6_18:
        BYTE           N06     Fs1   v100
        BYTE           N12     Cn1
        BYTE   W12
        BYTE           N06     Fs1
        BYTE   W12
        BYTE           N12     Dn1
        BYTE   W12
        BYTE           N06     Fs1
        BYTE   W12
        BYTE           N12     Cn1
        BYTE           N06     Fs1
        BYTE   W12
        BYTE                   Fs1
        BYTE   W12
        BYTE           N12     Dn1
        BYTE   W12
        BYTE           N06     Fs1
        BYTE   W12
        BYTE   PEND
// 019   ----------------------------------------
        BYTE   PATT
         POIN2  AlmVictory_6_17
// 020   ----------------------------------------
AlmVictory_6_20:
        BYTE           N06     Fs1   v100
        BYTE           N12     Cn1
        BYTE           N24     Cs2
        BYTE   W12
        BYTE           N06     Fs1
        BYTE   W12
        BYTE           N12     Dn1
        BYTE   W12
        BYTE           N06     Fs1
        BYTE   W12
        BYTE           N12     Cn1
        BYTE           N06     Fs1
        BYTE   W12
        BYTE                   Fs1
        BYTE   W12
        BYTE           N12     Dn1
        BYTE   W12
        BYTE           N06     Fs1
        BYTE   W12
        BYTE   PEND
// 021   ----------------------------------------
        BYTE   PATT
         POIN2  AlmVictory_6_17
// 022   ----------------------------------------
        BYTE   PATT
         POIN2  AlmVictory_6_18
// 023   ----------------------------------------
        BYTE   PATT
         POIN2  AlmVictory_6_17
// 024   ----------------------------------------
        BYTE           N24     Cs2   v100
        BYTE           N06     Fs1
        BYTE           N12     Cn1
        BYTE   W12
        BYTE           N06     Fs1
        BYTE   W12
        BYTE           N12     Dn1
        BYTE   W12
        BYTE           N06     Fs1
        BYTE   W12
        BYTE           N12     Cn1
        BYTE           N06     Fs1
        BYTE   W12
        BYTE                   Fs1
        BYTE   W12
        BYTE           N12     Dn1
        BYTE   W12
        BYTE           N06     Fs1
        BYTE   W12
// 025   ----------------------------------------
        BYTE   PATT
         POIN2  AlmVictory_6_17
// 026   ----------------------------------------
        BYTE   PATT
         POIN2  AlmVictory_6_18
// 027   ----------------------------------------
        BYTE   PATT
         POIN2  AlmVictory_6_17
// 028   ----------------------------------------
        BYTE   PATT
         POIN2  AlmVictory_6_20
// 029   ----------------------------------------
        BYTE   PATT
         POIN2  AlmVictory_6_17
// 030   ----------------------------------------
        BYTE   PATT
         POIN2  AlmVictory_6_18
// 031   ----------------------------------------
        BYTE           N06     Fs1   v100
        BYTE           N21     Ds2
        BYTE           N24     Cs2
        BYTE           N12     Cn1
        BYTE           N12     Dn1
        BYTE   W12
        BYTE           N06     Fs1
        BYTE   W12
        BYTE           N21     Ds2
        BYTE           N12     Dn1
        BYTE   W12
        BYTE           N06     Fs1
        BYTE   W12
        BYTE                   Fs1
        BYTE           N21     Ds2
        BYTE           N12     Cn1
        BYTE           N12     Dn1
        BYTE   W12
        BYTE           N06     Fs1
        BYTE   W12
        BYTE           N21     Ds2
        BYTE           N12     Dn1
        BYTE   W12
        BYTE           N06     Fs1
        BYTE   W12
// 032   ----------------------------------------
        BYTE           N12     Cn1
        BYTE           N12     Fs3   v104
        BYTE           N06     En3
        BYTE           N24     An2   v100
        BYTE   W16
        BYTE           N06     Cn1
        BYTE   W08
        BYTE           N12
        BYTE           N12     Fn3   v104
        BYTE           N06     Ds3
        BYTE           N08     Ds1
        BYTE   W16
        BYTE           N06     Cn1
        BYTE           N06     Fs3
        BYTE           N04     Ds1
        BYTE   W08
        BYTE           N12     Cn1   v100
        BYTE           N06     Fn3   v104
        BYTE           N08     En3
        BYTE   W08
        BYTE           N06     Fn3
        BYTE           N08     Dn3
        BYTE   W08
        BYTE           N06     Cn1
        BYTE           N08     En3
        BYTE   W08
        BYTE           N12     Cn1   v100
        BYTE           N12     Fs3   v104
        BYTE           N06     Ds3
        BYTE           N08     Ds1
        BYTE   W16
        BYTE           N06     Cn1
        BYTE           N06     Fs3
        BYTE           N04     Ds1
        BYTE   W08
// 033   ----------------------------------------
        BYTE   GoTo
         POIN2  AlmVictory_6_LOOP
        BYTE   FINE


//********************** End of Song ***********************//

        ALIGN 4
AlmVictory:
        BYTE   7                       // Num Tracks
        BYTE   0                       // Unknown
        BYTE   AlmVictory_pri          // Priority
        BYTE   AlmVictory_rev          // Reverb

        POIN2   AlmVictory_grp         

        POIN2   AlmVictory_0
        POIN2   AlmVictory_1
        POIN2   AlmVictory_2
        POIN2   AlmVictory_3
        POIN2   AlmVictory_4
        POIN2   AlmVictory_5
        POIN2   AlmVictory_6

        
