//Event file generated from Sappy .s format.
        #include "MPlayDef.event"

        #define    BlackTower_grp  voicegroup000
        #define    BlackTower_pri  0
        #define    BlackTower_rev  0
        #define    BlackTower_key  0

        // .rodata
        // BlackTower
        ALIGN 4

//****************** Track 0 (Midi-Chn.0) ******************//

BlackTower_0:
        BYTE   KEYSH   BlackTower_key+0
// 000   ----------------------------------------
        BYTE   TEMPO   100/2
        BYTE           VOICE   109
        BYTE           PAN     c_v-20
        BYTE           VOL     37
        BYTE           N24     En3   v110
        BYTE   W24
        BYTE                   Ds3
        BYTE   W24
        BYTE           N36     Gn3
        BYTE   W36
        BYTE           N12     Fs3
        BYTE   W12
// 001   ----------------------------------------
BlackTower_0_1:
        BYTE           N12     En3   v110
        BYTE   W12
        BYTE                   Ds3
        BYTE   W12
        BYTE                   Gn3
        BYTE   W12
        BYTE                   Fs3
        BYTE   W12
        BYTE                   En3
        BYTE   W12
        BYTE                   Ds3
        BYTE   W12
        BYTE                   Gn3
        BYTE   W12
        BYTE                   Fs3
        BYTE   W12
        BYTE   PEND
// 002   ----------------------------------------
BlackTower_0_LOOP:
        BYTE           N24     Bn3   v110
        BYTE   W24
        BYTE                   As3
        BYTE   W24
        BYTE           N36     Ds4
        BYTE   W36
        BYTE           N12     Dn4
        BYTE   W12
// 003   ----------------------------------------
        BYTE                   Cn4
        BYTE   W12
        BYTE                   Bn3
        BYTE   W12
        BYTE                   Ds4
        BYTE   W12
        BYTE                   Dn4
        BYTE   W12
        BYTE                   Gs3
        BYTE   W12
        BYTE                   Gn3
        BYTE   W12
        BYTE                   Dn4
        BYTE   W12
        BYTE                   Cs4
        BYTE   W12
// 004   ----------------------------------------
        BYTE           N24     Dn4
        BYTE   W24
        BYTE                   Cs4
        BYTE   W24
        BYTE           N36     Gn4
        BYTE   W36
        BYTE           N12     Fs4
        BYTE   W12
// 005   ----------------------------------------
        BYTE                   En4
        BYTE   W12
        BYTE                   Ds4
        BYTE   W12
        BYTE                   Gn4
        BYTE   W12
        BYTE                   Fs4
        BYTE   W12
        BYTE                   En4
        BYTE   W12
        BYTE                   Ds4
        BYTE   W12
        BYTE                   Cs5
        BYTE   W12
        BYTE                   Cn5
        BYTE   W12
// 006   ----------------------------------------
        BYTE           N06     Cn4
        BYTE   W06
        BYTE                   Cs4
        BYTE   W06
        BYTE                   Bn3
        BYTE   W06
        BYTE                   Cn4
        BYTE   W06
        BYTE                   Cs4
        BYTE   W06
        BYTE                   Bn3
        BYTE   W06
        BYTE                   Cs4
        BYTE   W06
        BYTE           N05     Cn4
        BYTE   W06
        BYTE           N12
        BYTE   W12
        BYTE                   Cs4
        BYTE   W12
        BYTE                   Cn4
        BYTE   W12
        BYTE                   Bn3
        BYTE   W12
// 007   ----------------------------------------
        BYTE           N06     En3
        BYTE   W06
        BYTE                   Fn3
        BYTE   W06
        BYTE                   Bn3
        BYTE   W06
        BYTE                   Cn4
        BYTE   W06
        BYTE                   En4
        BYTE   W06
        BYTE                   Fn4
        BYTE   W06
        BYTE                   Bn4
        BYTE   W06
        BYTE                   Cn5
        BYTE   W06
        BYTE                   En5
        BYTE   W06
        BYTE                   Fn5
        BYTE   W06
        BYTE                   Bn4
        BYTE   W06
        BYTE                   Cn5
        BYTE   W06
        BYTE           N03     Ds5
        BYTE   W03
        BYTE                   Cs5
        BYTE   W03
        BYTE                   Bn4
        BYTE   W03
        BYTE                   An4
        BYTE   W03
        BYTE                   Gs4
        BYTE   W03
        BYTE                   Fs4
        BYTE   W03
        BYTE                   Ds4
        BYTE   W03
        BYTE                   Dn4
        BYTE   W03
// 008   ----------------------------------------
        BYTE           N06     Fn3
        BYTE   W06
        BYTE                   As3
        BYTE   W06
        BYTE                   Fn3
        BYTE   W06
        BYTE                   Cs4
        BYTE   W06
        BYTE           N12     Cn4
        BYTE   W12
        BYTE           N06     Fn3
        BYTE   W06
        BYTE                   Bn3
        BYTE   W06
        BYTE                   Fn3
        BYTE   W06
        BYTE                   As3
        BYTE   W06
        BYTE                   Fn3
        BYTE   W06
        BYTE                   Cn4
        BYTE   W06
        BYTE           N12     As3
        BYTE   W12
        BYTE           N06     Fn3
        BYTE   W06
        BYTE                   En3
        BYTE   W06
// 009   ----------------------------------------
        BYTE                   Fn3
        BYTE   W06
        BYTE                   As3
        BYTE   W06
        BYTE                   Fn3
        BYTE   W06
        BYTE                   Cs4
        BYTE   W06
        BYTE           N12     Cn4
        BYTE   W12
        BYTE           N06     Fn3
        BYTE   W06
        BYTE                   En3
        BYTE   W06
        BYTE           N12     Fn3
        BYTE   W12
        BYTE           N06     En3
        BYTE   W06
        BYTE                   Bn3
        BYTE   W06
        BYTE           N20     As3
        BYTE   W24
// 010   ----------------------------------------
        BYTE           N12     Cs4
        BYTE   W12
        BYTE                   Cn4
        BYTE   W12
        BYTE                   Cs4
        BYTE   W12
        BYTE           N03     Cs5
        BYTE   W03
        BYTE                   Dn5
        BYTE   W03
        BYTE                   Ds5
        BYTE   W03
        BYTE                   En5
        BYTE   W03
        BYTE           N12     Fn5
        BYTE   W12
        BYTE                   En5
        BYTE   W12
        BYTE                   Dn5
        BYTE   W12
        BYTE                   En5
        BYTE   W12
// 011   ----------------------------------------
        BYTE           N03
        BYTE   W03
        BYTE                   Fn5
        BYTE   W03
        BYTE                   Cn5
        BYTE   W03
        BYTE                   Cs5
        BYTE   W03
        BYTE                   An4
        BYTE   W03
        BYTE                   As4
        BYTE   W03
        BYTE                   En4
        BYTE   W03
        BYTE                   Fn4
        BYTE   W03
        BYTE                   Cn4
        BYTE   W03
        BYTE                   Cs4
        BYTE   W03
        BYTE                   An3
        BYTE   W03
        BYTE                   As3
        BYTE   W03
        BYTE                   En3
        BYTE   W03
        BYTE                   Fn3
        BYTE   W03
        BYTE           N06     En3
        BYTE   W06
        BYTE                   Fn3
        BYTE   W06
        BYTE                   En3
        BYTE   W06
        BYTE                   As3
        BYTE   W06
        BYTE                   An3
        BYTE   W06
        BYTE                   Cs4
        BYTE   W06
        BYTE                   Cn4
        BYTE   W06
        BYTE                   Fs4
        BYTE   W06
        BYTE                   Fn4
        BYTE   W06
// 012   ----------------------------------------
        BYTE           N24     En3
        BYTE   W24
        BYTE                   Ds3
        BYTE   W24
        BYTE           N36     Gn3
        BYTE   W36
        BYTE           N12     Fs3
        BYTE   W12
// 013   ----------------------------------------
        BYTE   PATT
         POIN2  BlackTower_0_1
// 014   ----------------------------------------
        BYTE   GoTo
         POIN2  BlackTower_0_LOOP
        BYTE   FINE

//****************** Track 1 (Midi-Chn.1) ******************//

BlackTower_1:
        BYTE   KEYSH   BlackTower_key+0
// 000   ----------------------------------------
        BYTE           VOICE   109
        BYTE           PAN     c_v+20
        BYTE           VOL     35
        BYTE           N24     Gs3   v110
        BYTE   W24
        BYTE                   Gn3
        BYTE   W24
        BYTE           N36     Bn3
        BYTE   W36
        BYTE           N12     As3
        BYTE   W12
// 001   ----------------------------------------
BlackTower_1_1:
        BYTE           N12     Gs3   v110
        BYTE   W12
        BYTE                   Gn3
        BYTE   W12
        BYTE                   Bn3
        BYTE   W12
        BYTE                   As3
        BYTE   W12
        BYTE                   Gs3
        BYTE   W12
        BYTE                   Gn3
        BYTE   W12
        BYTE                   Bn3
        BYTE   W12
        BYTE                   As3
        BYTE   W12
        BYTE   PEND
// 002   ----------------------------------------
BlackTower_1_LOOP:
        BYTE           N24     Ds4   v110
        BYTE   W24
        BYTE                   Dn4
        BYTE   W24
        BYTE           N36     Fs4
        BYTE   W36
        BYTE           N12     Fn4
        BYTE   W12
// 003   ----------------------------------------
BlackTower_1_3:
        BYTE           N12     Ds4   v110
        BYTE   W12
        BYTE                   Dn4
        BYTE   W12
        BYTE                   Fs4
        BYTE   W12
        BYTE                   Fn4
        BYTE   W12
        BYTE                   Ds4
        BYTE   W12
        BYTE                   Dn4
        BYTE   W12
        BYTE                   As4
        BYTE   W12
        BYTE                   Gs4
        BYTE   W12
        BYTE   PEND
// 004   ----------------------------------------
BlackTower_1_4:
        BYTE           N24     As4   v110
        BYTE   W24
        BYTE                   An4
        BYTE   W24
        BYTE           N36     Cs5
        BYTE   W36
        BYTE           N12     Cn5
        BYTE   W12
        BYTE   PEND
// 005   ----------------------------------------
BlackTower_1_5:
        BYTE           N12     As4   v110
        BYTE   W12
        BYTE                   An4
        BYTE   W12
        BYTE                   Cs5
        BYTE   W12
        BYTE                   Cn5
        BYTE   W12
        BYTE                   As4
        BYTE   W12
        BYTE                   An4
        BYTE   W12
        BYTE                   Fn5
        BYTE   W12
        BYTE                   En5
        BYTE   W12
        BYTE   PEND
// 006   ----------------------------------------
BlackTower_1_6:
        BYTE           N36     Fn5   v110
        BYTE   W36
        BYTE           N12     Fs5
        BYTE   W12
        BYTE                   En5
        BYTE   W12
        BYTE                   Fs5
        BYTE   W12
        BYTE                   Fn5
        BYTE   W12
        BYTE                   En5
        BYTE   W12
        BYTE   PEND
// 007   ----------------------------------------
BlackTower_1_7:
        BYTE           N32     Fn5   v110
        BYTE   W36
        BYTE           N04
        BYTE   W04
        BYTE                   An5
        BYTE   W04
        BYTE                   Cn6
        BYTE   W04
        BYTE           N05     Fn6
        BYTE   W48
        BYTE   PEND
// 008   ----------------------------------------
BlackTower_1_8:
        BYTE           N18     As3   v110
        BYTE   W18
        BYTE           N06     Fn4
        BYTE   W06
        BYTE           N20     En4
        BYTE   W24
        BYTE           N18     As3
        BYTE   W18
        BYTE           N06     Ds4
        BYTE   W06
        BYTE           N20     Cs4
        BYTE   W24
        BYTE   PEND
// 009   ----------------------------------------
BlackTower_1_9:
        BYTE           N18     As3   v110
        BYTE   W18
        BYTE           N06     Fn4
        BYTE   W06
        BYTE           N18     En4
        BYTE   W18
        BYTE           N05     As3
        BYTE   W06
        BYTE           N18
        BYTE   W18
        BYTE           N06     Ds4
        BYTE   W06
        BYTE           N20     Cs4
        BYTE   W24
        BYTE   PEND
// 010   ----------------------------------------
BlackTower_1_10:
        BYTE           N12     Fn4   v110
        BYTE   W12
        BYTE                   En4
        BYTE   W12
        BYTE                   Fn4
        BYTE   W12
        BYTE           N24     Gs4
        BYTE   W24
        BYTE           N12     Gn4
        BYTE   W12
        BYTE                   Fn4
        BYTE   W12
        BYTE                   En4
        BYTE   W12
        BYTE   PEND
// 011   ----------------------------------------
        BYTE           N72     Fn4
        BYTE   W96
// 012   ----------------------------------------
BlackTower_1_12:
        BYTE           N24     Gs3   v110
        BYTE   W24
        BYTE                   Gn3
        BYTE   W24
        BYTE           N36     Bn3
        BYTE   W36
        BYTE           N12     As3
        BYTE   W12
        BYTE   PEND
// 013   ----------------------------------------
        BYTE   PATT
         POIN2  BlackTower_1_1
// 014   ----------------------------------------
        BYTE   GoTo
         POIN2  BlackTower_1_LOOP
        BYTE   FINE

//****************** Track 2 (Midi-Chn.2) ******************//

BlackTower_2:
        BYTE   KEYSH   BlackTower_key+0
// 000   ----------------------------------------
        BYTE           VOICE   2
        BYTE           VOL     58
        BYTE           PAN     c_v+12
        BYTE           N12     Cn1   v100
        BYTE   W12
        BYTE                   Cn1
        BYTE   W72
        BYTE           N06
        BYTE   W06
        BYTE                   Cn1
        BYTE   W06
// 001   ----------------------------------------
BlackTower_2_1:
        BYTE           N12     Cn1   v100
        BYTE   W12
        BYTE                   Cn1
        BYTE   W72
        BYTE           N06
        BYTE   W06
        BYTE                   Cn1
        BYTE   W06
        BYTE   PEND
// 002   ----------------------------------------
BlackTower_2_LOOP:
        BYTE           N12     Ds1   v100
        BYTE   W12
        BYTE                   Ds1
        BYTE   W72
        BYTE           N06
        BYTE   W06
        BYTE                   Ds1
        BYTE   W06
// 003   ----------------------------------------
        BYTE           N12
        BYTE   W12
        BYTE                   Ds1
        BYTE   W72
        BYTE           N06
        BYTE   W06
        BYTE                   Ds1
        BYTE   W06
// 004   ----------------------------------------
BlackTower_2_4:
        BYTE           N12     As1   v100
        BYTE   W12
        BYTE                   As1
        BYTE   W72
        BYTE           N06
        BYTE   W06
        BYTE                   As1
        BYTE   W06
        BYTE   PEND
// 005   ----------------------------------------
        BYTE   PATT
         POIN2  BlackTower_2_4
// 006   ----------------------------------------
        BYTE           N05     Fn1   v100
        BYTE   W06
        BYTE                   Fn1
        BYTE   W06
        BYTE                   Fn1
        BYTE   W06
        BYTE                   Fn1
        BYTE   W06
        BYTE           N06     Gs1
        BYTE   W06
        BYTE           N05     Fn1
        BYTE   W06
        BYTE                   Fn1
        BYTE   W06
        BYTE                   Fn1
        BYTE   W06
        BYTE           N06     An1
        BYTE   W06
        BYTE           N05     Fn1
        BYTE   W06
        BYTE                   Fn1
        BYTE   W06
        BYTE                   Fn1
        BYTE   W06
        BYTE           N06     Bn1
        BYTE   W06
        BYTE           N05     Fn1
        BYTE   W06
        BYTE                   Fn1
        BYTE   W06
        BYTE                   Fn1
        BYTE   W06
// 007   ----------------------------------------
        BYTE                   Fn1
        BYTE   W06
        BYTE                   Fn1
        BYTE   W06
        BYTE                   Fn1
        BYTE   W06
        BYTE                   Fn1
        BYTE   W06
        BYTE           N06     Gs1
        BYTE   W06
        BYTE           N05     Fn1
        BYTE   W06
        BYTE                   Fn1
        BYTE   W06
        BYTE                   Fn1
        BYTE   W06
        BYTE           N06     An1
        BYTE   W06
        BYTE           N05     Fn1
        BYTE   W06
        BYTE                   Fn1
        BYTE   W06
        BYTE                   Fn1
        BYTE   W06
        BYTE           N06     Bn1
        BYTE   W06
        BYTE           N05     Fn1
        BYTE   W06
        BYTE           N06     Cn2
        BYTE   W06
        BYTE           N05     Fn1
        BYTE   W06
// 008   ----------------------------------------
BlackTower_2_8:
        BYTE           N11     As1   v100
        BYTE   W12
        BYTE                   As1
        BYTE   W36
        BYTE                   As1
        BYTE   W12
        BYTE                   As1
        BYTE   W24
        BYTE           N05
        BYTE   W06
        BYTE                   As1
        BYTE   W06
        BYTE   PEND
// 009   ----------------------------------------
        BYTE   PATT
         POIN2  BlackTower_2_8
// 010   ----------------------------------------
        BYTE           N11     Cn1   v100
        BYTE   W12
        BYTE                   Cn1
        BYTE   W36
        BYTE                   Cn2
        BYTE   W12
        BYTE                   Cn2
        BYTE   W36
// 011   ----------------------------------------
        BYTE           N20     Fn2
        BYTE   W24
        BYTE                   Fn2
        BYTE   W24
        BYTE           N11
        BYTE   W12
        BYTE                   Fn2
        BYTE   W12
        BYTE                   Fn2
        BYTE   W12
        BYTE                   Fn2
        BYTE   W12
// 012   ----------------------------------------
        BYTE   PATT
         POIN2  BlackTower_2_1
// 013   ----------------------------------------
        BYTE   PATT
         POIN2  BlackTower_2_1
// 014   ----------------------------------------
        BYTE   GoTo
         POIN2  BlackTower_2_LOOP
        BYTE   FINE

//****************** Track 3 (Midi-Chn.3) ******************//

BlackTower_3:
        BYTE   KEYSH   BlackTower_key+0
// 000   ----------------------------------------
        BYTE           VOICE   122
        BYTE           PAN     c_v-13
        BYTE           VOL     50
        BYTE   W96
// 001   ----------------------------------------
        BYTE   W72
        BYTE           N06     Cn2   v100
        BYTE   W06
        BYTE                   An1
        BYTE   W06
        BYTE                   Fn1
        BYTE   W06
        BYTE                   Fn1
        BYTE   W06
// 002   ----------------------------------------
BlackTower_3_LOOP:
        BYTE           N12     Fn1   v100
        BYTE   W12
        BYTE                   Fn1
        BYTE   W72
        BYTE           N06
        BYTE   W06
        BYTE                   Fn1
        BYTE   W06
// 003   ----------------------------------------
BlackTower_3_3:
        BYTE           N12     Fn1   v100
        BYTE   W12
        BYTE                   Fn1
        BYTE   W60
        BYTE           N06     Cn2
        BYTE   W06
        BYTE                   An1
        BYTE   W06
        BYTE                   Fn1
        BYTE   W06
        BYTE                   Fn1
        BYTE   W06
        BYTE   PEND
// 004   ----------------------------------------
BlackTower_3_4:
        BYTE           N12     Fn1   v100
        BYTE   W12
        BYTE                   Fn1
        BYTE   W72
        BYTE           N06
        BYTE   W06
        BYTE                   Fn1
        BYTE   W06
        BYTE   PEND
// 005   ----------------------------------------
        BYTE   PATT
         POIN2  BlackTower_3_3
// 006   ----------------------------------------
        BYTE           N20     Dn1   v110
        BYTE           N48     Cs2
        BYTE   W24
        BYTE           N20     Dn1
        BYTE   W24
        BYTE                   Dn1
        BYTE   W24
        BYTE                   Dn1
        BYTE   W24
// 007   ----------------------------------------
        BYTE           N05
        BYTE   W06
        BYTE                   As1   v043
        BYTE   W12
        BYTE                   As1   v056
        BYTE   W06
        BYTE                   Dn1   v110
        BYTE   W06
        BYTE                   As1   v069
        BYTE   W12
        BYTE                   As1   v082
        BYTE   W06
        BYTE                   Dn1   v110
        BYTE   W06
        BYTE                   As1   v096
        BYTE   W12
        BYTE                   As1   v110
        BYTE   W06
        BYTE                   Dn1
        BYTE           N06     Cn2   v100
        BYTE   W06
        BYTE           N05     As1   v096
        BYTE           N06     An1   v100
        BYTE   W06
        BYTE                   Gn1   v080
        BYTE   W06
        BYTE           N05     As1   v082
        BYTE           N06     Gn1   v080
        BYTE   W06
// 008   ----------------------------------------
BlackTower_3_8:
        BYTE           N11     Dn1   v110
        BYTE           N36     Cs2
        BYTE   W12
        BYTE           N11     As1
        BYTE   W12
        BYTE                   Dn1
        BYTE   W12
        BYTE                   As1
        BYTE   W12
        BYTE                   Dn1
        BYTE   W12
        BYTE                   As1
        BYTE   W12
        BYTE                   Dn1
        BYTE   W12
        BYTE           N05     As1
        BYTE   W06
        BYTE                   Dn1
        BYTE   W06
        BYTE   PEND
// 009   ----------------------------------------
        BYTE   PATT
         POIN2  BlackTower_3_8
// 010   ----------------------------------------
        BYTE   PATT
         POIN2  BlackTower_3_8
// 011   ----------------------------------------
        BYTE           N11     Dn1   v110
        BYTE           N36     Cs2
        BYTE   W12
        BYTE           N11     As1
        BYTE   W12
        BYTE                   Dn1
        BYTE   W12
        BYTE                   As1
        BYTE   W12
        BYTE           N05     Dn1
        BYTE   W06
        BYTE                   As1
        BYTE   W12
        BYTE                   As1
        BYTE   W06
        BYTE                   Dn1
        BYTE           N06     Cn2   v100
        BYTE   W06
        BYTE           N05     As1   v110
        BYTE           N06     An1   v100
        BYTE   W06
        BYTE                   Gn1   v080
        BYTE   W06
        BYTE           N05     As1   v110
        BYTE           N06     Gn1   v080
        BYTE   W06
// 012   ----------------------------------------
        BYTE   PATT
         POIN2  BlackTower_3_4
// 013   ----------------------------------------
        BYTE   PATT
         POIN2  BlackTower_3_3
// 014   ----------------------------------------
        BYTE   GoTo
         POIN2  BlackTower_3_LOOP
        BYTE   FINE

//****************** Track 4 (Midi-Chn.4) ******************//

BlackTower_4:
        BYTE   KEYSH   BlackTower_key+0
// 000   ----------------------------------------
        BYTE           VOICE   76
        BYTE           PAN     c_v-39
        BYTE           VOL     52
        BYTE           N24     Gs3   v110
        BYTE   W24
        BYTE                   Gn3
        BYTE   W24
        BYTE           N36     Bn3
        BYTE   W36
        BYTE           N12     As3
        BYTE   W12
// 001   ----------------------------------------
        BYTE   PATT
         POIN2  BlackTower_1_1
// 002   ----------------------------------------
BlackTower_4_LOOP:
        BYTE           N24     Ds4   v110
        BYTE   W24
        BYTE                   Dn4
        BYTE   W24
        BYTE           N36     Fs4
        BYTE   W36
        BYTE           N12     Fn4
        BYTE   W12
// 003   ----------------------------------------
        BYTE   PATT
         POIN2  BlackTower_1_3
// 004   ----------------------------------------
        BYTE   PATT
         POIN2  BlackTower_1_4
// 005   ----------------------------------------
        BYTE   PATT
         POIN2  BlackTower_1_5
// 006   ----------------------------------------
        BYTE   PATT
         POIN2  BlackTower_1_6
// 007   ----------------------------------------
        BYTE   PATT
         POIN2  BlackTower_1_7
// 008   ----------------------------------------
        BYTE   PATT
         POIN2  BlackTower_1_8
// 009   ----------------------------------------
        BYTE   PATT
         POIN2  BlackTower_1_9
// 010   ----------------------------------------
        BYTE   PATT
         POIN2  BlackTower_1_10
// 011   ----------------------------------------
        BYTE           N72     Fn4   v110
        BYTE   W96
// 012   ----------------------------------------
        BYTE   PATT
         POIN2  BlackTower_1_12
// 013   ----------------------------------------
        BYTE   PATT
         POIN2  BlackTower_1_1
// 014   ----------------------------------------
        BYTE   GoTo
         POIN2  BlackTower_4_LOOP
        BYTE   FINE

//****************** Track 5 (Midi-Chn.5) ******************//

BlackTower_5:
        BYTE   KEYSH   BlackTower_key+0
// 000   ----------------------------------------
        BYTE           VOICE   77
        BYTE           PAN     c_v+45
        BYTE           VOL     41
        BYTE   W96
// 001   ----------------------------------------
        BYTE   W96
// 002   ----------------------------------------
BlackTower_5_LOOP:
        BYTE           N24     Ds3   v110
        BYTE   W24
        BYTE                   Dn3
        BYTE   W24
        BYTE           N36     Fs3
        BYTE   W36
        BYTE           N12     Fn3
        BYTE   W12
// 003   ----------------------------------------
        BYTE                   Ds3
        BYTE   W12
        BYTE                   Dn3
        BYTE   W12
        BYTE                   Fs3
        BYTE   W12
        BYTE                   Fn3
        BYTE   W12
        BYTE                   Ds3
        BYTE   W12
        BYTE                   Dn3
        BYTE   W12
        BYTE                   As3
        BYTE   W12
        BYTE                   Gs3
        BYTE   W12
// 004   ----------------------------------------
        BYTE           N24     As3
        BYTE   W24
        BYTE                   An3
        BYTE   W24
        BYTE           N36     Cs4
        BYTE   W36
        BYTE           N12     Cn4
        BYTE   W12
// 005   ----------------------------------------
        BYTE                   As3
        BYTE   W12
        BYTE                   An3
        BYTE   W12
        BYTE                   Cs4
        BYTE   W12
        BYTE                   Cn4
        BYTE   W12
        BYTE                   As3
        BYTE   W12
        BYTE                   An3
        BYTE   W12
        BYTE                   Fn4
        BYTE   W12
        BYTE                   En4
        BYTE   W12
// 006   ----------------------------------------
        BYTE           N36     Fn4
        BYTE   W36
        BYTE           N12     Fs4
        BYTE   W12
        BYTE                   En4
        BYTE   W12
        BYTE                   Fs4
        BYTE   W12
        BYTE                   Fn4
        BYTE   W12
        BYTE                   En4
        BYTE   W12
// 007   ----------------------------------------
        BYTE           N06     En2
        BYTE   W06
        BYTE                   Fn2
        BYTE   W06
        BYTE                   Bn2
        BYTE   W06
        BYTE                   Cn3
        BYTE   W06
        BYTE                   En3
        BYTE   W06
        BYTE                   Fn3
        BYTE   W06
        BYTE                   Bn3
        BYTE   W06
        BYTE                   Cn4
        BYTE   W06
        BYTE                   En4
        BYTE   W06
        BYTE                   Fn4
        BYTE   W06
        BYTE                   Bn3
        BYTE   W06
        BYTE                   Cn4
        BYTE   W06
        BYTE           N03     Ds4
        BYTE   W03
        BYTE                   Cs4
        BYTE   W03
        BYTE                   Bn3
        BYTE   W03
        BYTE                   An3
        BYTE   W03
        BYTE                   Gs3
        BYTE   W03
        BYTE                   Fs3
        BYTE   W03
        BYTE                   Ds3
        BYTE   W03
        BYTE                   Dn3
        BYTE   W03
// 008   ----------------------------------------
        BYTE           N06     Fn2
        BYTE   W06
        BYTE                   As2
        BYTE   W06
        BYTE                   Fn2
        BYTE   W06
        BYTE                   Cs3
        BYTE   W06
        BYTE           N12     Cn3
        BYTE   W12
        BYTE           N06     Fn2
        BYTE   W06
        BYTE                   Bn2
        BYTE   W06
        BYTE                   Fn2
        BYTE   W06
        BYTE                   As2
        BYTE   W06
        BYTE                   Fn2
        BYTE   W06
        BYTE                   Cn3
        BYTE   W06
        BYTE           N12     As2
        BYTE   W12
        BYTE           N06     Fn2
        BYTE   W06
        BYTE                   En2
        BYTE   W06
// 009   ----------------------------------------
        BYTE                   Fn2
        BYTE   W06
        BYTE                   As2
        BYTE   W06
        BYTE                   Fn2
        BYTE   W06
        BYTE                   Cs3
        BYTE   W06
        BYTE           N12     Cn3
        BYTE   W12
        BYTE           N06     Fn2
        BYTE   W06
        BYTE                   En2
        BYTE   W06
        BYTE           N12     Fn2
        BYTE   W12
        BYTE           N06     En2
        BYTE   W06
        BYTE                   Bn2
        BYTE   W06
        BYTE           N20     As2
        BYTE   W24
// 010   ----------------------------------------
        BYTE           N12     Cs3
        BYTE   W12
        BYTE                   Cn3
        BYTE   W12
        BYTE                   Cs3
        BYTE   W12
        BYTE           N03     Cs4
        BYTE   W03
        BYTE                   Dn4
        BYTE   W03
        BYTE                   Ds4
        BYTE   W03
        BYTE                   En4
        BYTE   W03
        BYTE           N12     Fn4
        BYTE   W12
        BYTE                   En4
        BYTE   W12
        BYTE                   Dn4
        BYTE   W12
        BYTE                   En4
        BYTE   W12
// 011   ----------------------------------------
        BYTE           N03
        BYTE   W03
        BYTE                   Fn4
        BYTE   W03
        BYTE                   Cn4
        BYTE   W03
        BYTE                   Cs4
        BYTE   W03
        BYTE                   An3
        BYTE   W03
        BYTE                   As3
        BYTE   W03
        BYTE                   En3
        BYTE   W03
        BYTE                   Fn3
        BYTE   W03
        BYTE                   Cn3
        BYTE   W03
        BYTE                   Cs3
        BYTE   W03
        BYTE                   An2
        BYTE   W03
        BYTE                   As2
        BYTE   W03
        BYTE                   En2
        BYTE   W03
        BYTE                   Fn2
        BYTE   W03
        BYTE           N06     En2
        BYTE   W06
        BYTE                   Fn2
        BYTE   W06
        BYTE                   En2
        BYTE   W06
        BYTE                   As2
        BYTE   W06
        BYTE                   An2
        BYTE   W06
        BYTE                   Cs3
        BYTE   W06
        BYTE                   Cn3
        BYTE   W06
        BYTE                   Fs3
        BYTE   W06
        BYTE                   Fn3
        BYTE   W06
// 012   ----------------------------------------
        BYTE   W96
// 013   ----------------------------------------
        BYTE   W96
// 014   ----------------------------------------
        BYTE   GoTo
         POIN2  BlackTower_5_LOOP
        BYTE   FINE


//********************** End of Song ***********************//

        ALIGN 4
BlackTower:
        BYTE   6                       // Num Tracks
        BYTE   0                       // Unknown
        BYTE   BlackTower_pri          // Priority
        BYTE   BlackTower_rev          // Reverb

        POIN2   BlackTower_grp         

        POIN2   BlackTower_0
        POIN2   BlackTower_1
        POIN2   BlackTower_2
        POIN2   BlackTower_3
        POIN2   BlackTower_4
        POIN2   BlackTower_5

        
