//Event file generated from Sappy .s format.
	#include "MPlayDef.event"

	#define	CelicaVictory_grp  voicegroup000
	#define	CelicaVictory_pri  0
	#define	CelicaVictory_rev  0
	#define	CelicaVictory_mvl  85
	#define	CelicaVictory_key  0
	#define	CelicaVictory_tbs  1
	#define	CelicaVictory_exg  0
	#define	CelicaVictory_cmp  1

	// .rodata
	//	CelicaVictory
	ALIGN 4

//**************** Track 1 (Midi-Chn.1) ****************//

CelicaVictory_1:
	BYTE	KEYSH   CelicaVictory_key+0
// 000   ----------------------------------------
	BYTE	TEMPO   166*CelicaVictory_tbs/2
	BYTE		VOICE   18
	BYTE		VOL     82*CelicaVictory_mvl/mxv
	BYTE	W80
	BYTE	W02
	BYTE	W01
	BYTE	W02
	BYTE	W01
	BYTE	W02
	BYTE	W01
	BYTE	W02
	BYTE	W01
	BYTE	W02
	BYTE	W01
	BYTE	W01
CelicaVictory_1_B1:
// 001   ----------------------------------------
	BYTE	W01
	BYTE	W01
	BYTE	W02
	BYTE	W08
	BYTE		N10     Gn4   v100
	BYTE		N10     Dn5 
	BYTE	W12
	BYTE		        Gn4 
	BYTE		N10     Dn5 
	BYTE	W24
	BYTE		        Fn4 
	BYTE		N10     Cn5 
	BYTE	W12
	BYTE		        Fn4 
	BYTE		N10     Cn5 
	BYTE	W24
	BYTE		        Gn4 
	BYTE		N10     Dn5 
	BYTE	W12
// 002   ----------------------------------------
CelicaVictory_1_002:
	BYTE	W12
	BYTE		N10     Gs4   v100
	BYTE		N10     Ds5 
	BYTE	W12
	BYTE		        Gs4 
	BYTE		N10     Ds5 
	BYTE	W24
	BYTE		        Gn4 
	BYTE		N10     Dn5 
	BYTE	W12
	BYTE		        Gn4 
	BYTE		N10     Dn5 
	BYTE	W24
	BYTE		        Gs4 
	BYTE		N10     Ds5 
	BYTE	W12
	BYTE	PEND
// 003   ----------------------------------------
CelicaVictory_1_003:
	BYTE		PAN     c_v+35
	BYTE	W02
	BYTE		        c_v+35
	BYTE	W01
	BYTE		        c_v+35
	BYTE	W02
	BYTE		        c_v+35
	BYTE	W01
	BYTE		        c_v+35
	BYTE	W06
	BYTE		N10     As4   v100
	BYTE		N10     Dn5 
	BYTE		N10     Gn5 
	BYTE	W12
	BYTE		        As4 
	BYTE		N10     Dn5 
	BYTE		N10     Gn5 
	BYTE	W24
	BYTE		        Gs4 
	BYTE		N10     Cn5 
	BYTE		N10     Fn5 
	BYTE	W12
	BYTE		        Gs4 
	BYTE		N10     Cn5 
	BYTE		N10     Fn5 
	BYTE	W24
	BYTE		        As4 
	BYTE		N10     Dn5 
	BYTE		N10     Gn5 
	BYTE	W12
	BYTE	PEND
// 004   ----------------------------------------
CelicaVictory_1_004:
	BYTE	W01
	BYTE		PAN     c_v-24
	BYTE	W02
	BYTE		        c_v-24
	BYTE	W01
	BYTE		        c_v-24
	BYTE	W02
	BYTE		        c_v-24
	BYTE	W01
	BYTE		        c_v-24
	BYTE	W05
	BYTE		N10     Cn5   v100
	BYTE		N10     Ds5 
	BYTE		N10     Gs5 
	BYTE	W12
	BYTE		        Cn5 
	BYTE		N10     Ds5 
	BYTE		N10     Gs5 
	BYTE	W24
	BYTE		        As4 
	BYTE		N10     Dn5 
	BYTE		N10     Gn5 
	BYTE	W12
	BYTE		        As4 
	BYTE		N10     Dn5 
	BYTE		N10     Gn5 
	BYTE	W24
	BYTE		        Cn5 
	BYTE		N10     Ds5 
	BYTE		N10     Gs5 
	BYTE	W12
	BYTE		PAN     c_v+5
	BYTE	W01
	BYTE		        c_v+5
	BYTE	W02
	BYTE		        c_v+5
	BYTE	W01
	BYTE		        c_v+5
	BYTE	W02
	BYTE		        c_v+5
	BYTE	W01
	BYTE		        c_v+5
	BYTE	W02
	BYTE		        c_v+5
	BYTE	W01
	BYTE		        c_v+5
	BYTE	W02
	BYTE		        c_v+5
	BYTE		N10     Cs5 
	BYTE		N10     Gn5 
	BYTE		N10     As5 
	BYTE	W01
	BYTE		PAN     c_v+5
	BYTE	W02
	BYTE		        c_v+5
	BYTE	W01
	BYTE		        c_v+5
	BYTE	W02
	BYTE		        c_v+5
	BYTE	W06
	BYTE	PEND
// 005   ----------------------------------------
	BYTE	W12
	BYTE		N10     Gn4 
	BYTE		N10     Dn5 
	BYTE	W12
	BYTE		        Gn4 
	BYTE		N10     Dn5 
	BYTE	W24
	BYTE		        Fn4 
	BYTE		N10     Cn5 
	BYTE	W12
	BYTE		        Fn4 
	BYTE		N10     Cn5 
	BYTE	W24
	BYTE		        Gn4 
	BYTE		N10     Dn5 
	BYTE	W12
// 006   ----------------------------------------
	BYTE	PATT
	 POIN2	CelicaVictory_1_002
// 007   ----------------------------------------
	BYTE	PATT
	 POIN2	CelicaVictory_1_003
// 008   ----------------------------------------
	BYTE	PATT
	 POIN2	CelicaVictory_1_004
// 009   ----------------------------------------
CelicaVictory_1_009:
	BYTE	W12
	BYTE		N10     Ds5   v100
	BYTE		N10     Gn5 
	BYTE		N10     Cn6 
	BYTE	W12
	BYTE		        Ds5 
	BYTE		N10     Gn5 
	BYTE		N10     Cn6 
	BYTE	W24
	BYTE		        Dn5 
	BYTE		N10     Gn5 
	BYTE		N10     As5 
	BYTE	W12
	BYTE		        Dn5 
	BYTE		N10     Gn5 
	BYTE		N10     As5 
	BYTE	W24
	BYTE		        As4 
	BYTE		N10     Dn5 
	BYTE		N10     Gn5 
	BYTE	W12
	BYTE	PEND
// 010   ----------------------------------------
CelicaVictory_1_010:
	BYTE	W12
	BYTE		N10     Ds5   v100
	BYTE		N10     Gs5 
	BYTE	W24
	BYTE		        Cn5 
	BYTE		N10     Fn5 
	BYTE	W24
	BYTE		        As4 
	BYTE		N10     Gn5 
	BYTE	W24
	BYTE		        As4 
	BYTE		N10     Ds5 
	BYTE	W12
	BYTE	PEND
// 011   ----------------------------------------
CelicaVictory_1_011:
	BYTE	W12
	BYTE		N10     As4   v100
	BYTE		N10     Dn5 
	BYTE	W12
	BYTE		        As4 
	BYTE		N10     Dn5 
	BYTE	W24
	BYTE		        Gs4 
	BYTE		N10     Cn5 
	BYTE	W12
	BYTE		        Gs4 
	BYTE		N10     Cn5 
	BYTE	W24
	BYTE		N10   
	BYTE		N10     Ds5 
	BYTE	W12
	BYTE	PEND
// 012   ----------------------------------------
CelicaVictory_1_012:
	BYTE	W12
	BYTE		N10     Cn5   v100
	BYTE		N10     Fn5 
	BYTE	W24
	BYTE		        Dn5 
	BYTE		N10     Gn5 
	BYTE	W24
	BYTE		        Ds5 
	BYTE		N10     Gs5 
	BYTE	W24
	BYTE		        Cn5 
	BYTE		N10     Fn5 
	BYTE	W12
	BYTE	PEND
// 013   ----------------------------------------
	BYTE	PATT
	 POIN2	CelicaVictory_1_009
// 014   ----------------------------------------
	BYTE	PATT
	 POIN2	CelicaVictory_1_010
// 015   ----------------------------------------
	BYTE	PATT
	 POIN2	CelicaVictory_1_011
// 016   ----------------------------------------
	BYTE	PATT
	 POIN2	CelicaVictory_1_012
// 017   ----------------------------------------
	BYTE	W96
// 018   ----------------------------------------
	BYTE	W96
// 019   ----------------------------------------
	BYTE	W96
// 020   ----------------------------------------
	BYTE	W96
// 021   ----------------------------------------
CelicaVictory_1_021:
	BYTE	W12
	BYTE		N05     Gn4   v100
	BYTE		N05     As4 
	BYTE	W06
	BYTE		        An4 
	BYTE		N05     Cn5 
	BYTE	W06
	BYTE		N10     As4 
	BYTE		N10     Dn5 
	BYTE	W12
	BYTE		N05     Gn4 
	BYTE		N05     As4 
	BYTE	W06
	BYTE		        An4 
	BYTE		N05     Cn5 
	BYTE	W06
	BYTE		N10     As4 
	BYTE		N10     Dn5 
	BYTE	W48
	BYTE	PEND
// 022   ----------------------------------------
	BYTE	W24
	BYTE		        Gn4 
	BYTE		N10     Cn5 
	BYTE	W12
	BYTE		        As4 
	BYTE		N10     Dn5 
	BYTE	W12
	BYTE		        Cn5 
	BYTE		N10     Ds5 
	BYTE	W24
	BYTE		        Dn5 
	BYTE		N10     Fn5 
	BYTE	W24
// 023   ----------------------------------------
	BYTE	PATT
	 POIN2	CelicaVictory_1_021
// 024   ----------------------------------------
	BYTE	W12
	BYTE		N10     Cn5   v100
	BYTE		N10     Ds5 
	BYTE	W18
	BYTE		        As4 
	BYTE		N10     Dn5 
	BYTE	W18
	BYTE		        Gs4 
	BYTE		N10     Cn5 
	BYTE	W18
	BYTE		        Gn4 
	BYTE		N10     As4 
	BYTE	W18
	BYTE		        Fn4 
	BYTE		N10     Gs4 
	BYTE	W12
// 025   ----------------------------------------
	BYTE		        Dn4 
	BYTE		N10     Gn4 
	BYTE	W18
	BYTE		N10   
	BYTE		N10     As4 
	BYTE	W18
	BYTE		N10   
	BYTE		N10     Dn5 
	BYTE	W12
	BYTE		N21   
	BYTE		N21     Fn5 
	BYTE	W48
// 026   ----------------------------------------
	BYTE		N10     Ds4 
	BYTE		N10     Gn4 
	BYTE	W18
	BYTE		N10   
	BYTE		N10     As4 
	BYTE	W18
	BYTE		N10   
	BYTE		N10     Dn5 
	BYTE	W12
	BYTE		N21   
	BYTE		N21     Fn5 
	BYTE	W36
	BYTE		N10     Cn5 
	BYTE		N10     Ds5 
	BYTE	W12
// 027   ----------------------------------------
	BYTE		N84     As4   v124
	BYTE		N84     Dn5 
	BYTE	W96
// 028   ----------------------------------------
	BYTE		        Cn5   v127
	BYTE		N84     Ds5 
	BYTE	W96
// 029   ----------------------------------------
	BYTE	W96
// 030   ----------------------------------------
	BYTE	W96
// 031   ----------------------------------------
	BYTE	W96
// 032   ----------------------------------------
	BYTE	W96
	BYTE	GoTo
	 POIN2	CelicaVictory_1_B1
CelicaVictory_1_B2:
// 033   ----------------------------------------
	BYTE	FINE

//**************** Track 2 (Midi-Chn.2) ****************//

CelicaVictory_2:
	BYTE	KEYSH   CelicaVictory_key+0
// 000   ----------------------------------------
	BYTE		VOICE   124
	BYTE		VOL     76*CelicaVictory_mvl/mxv
	BYTE		N03     Cn1   v100
	BYTE		N03     Fs1 
	BYTE	W24
	BYTE		        Cn1 
	BYTE		N03     Fs1 
	BYTE	W24
	BYTE		        Cn1 
	BYTE		N03     Fs1 
	BYTE	W24
	BYTE		        Cn1 
	BYTE		N03     Fs1 
	BYTE		N03     As1 
	BYTE		N03     Bn1 
	BYTE		N03     Dn2 
	BYTE	W06
	BYTE		        An1 
	BYTE		N03     Dn2 
	BYTE	W06
	BYTE		        Gn1 
	BYTE		N03     Gs1 
	BYTE		N03     Bn1 
	BYTE	W12
CelicaVictory_2_B1:
// 001   ----------------------------------------
CelicaVictory_2_001:
	BYTE		N03     Cn1   v100
	BYTE		N03     Fs1 
	BYTE	W24
	BYTE		        Dn1 
	BYTE		N03     As1 
	BYTE	W24
	BYTE		        Cn1 
	BYTE		N03     Fs1 
	BYTE	W15
	BYTE		        Cn1 
	BYTE		N03     Fs1 
	BYTE	W09
	BYTE		        Dn1 
	BYTE		N03     As1 
	BYTE	W24
	BYTE	PEND
// 002   ----------------------------------------
	BYTE	PATT
	 POIN2	CelicaVictory_2_001
// 003   ----------------------------------------
	BYTE	PATT
	 POIN2	CelicaVictory_2_001
// 004   ----------------------------------------
	BYTE		N03     Cn1   v100
	BYTE		N03     Fs1 
	BYTE	W24
	BYTE		        Dn1 
	BYTE		N03     As1 
	BYTE	W24
	BYTE		        Cn1 
	BYTE		N03     Fs1 
	BYTE	W15
	BYTE		        Cn1 
	BYTE		N03     Fs1 
	BYTE	W09
	BYTE		        Dn1 
	BYTE		N03     As1 
	BYTE	W24
	BYTE		        Cn1 
	BYTE		N03     Dn1 
	BYTE		N03     As1 
	BYTE	W24
// 005   ----------------------------------------
	BYTE	PATT
	 POIN2	CelicaVictory_2_001
// 006   ----------------------------------------
	BYTE	PATT
	 POIN2	CelicaVictory_2_001
// 007   ----------------------------------------
	BYTE	PATT
	 POIN2	CelicaVictory_2_001
// 008   ----------------------------------------
	BYTE		N03     Cn1   v100
	BYTE		N03     Fs1 
	BYTE	W24
	BYTE		        Dn1 
	BYTE		N03     As1 
	BYTE	W24
	BYTE		        Cn1 
	BYTE		N03     Fs1 
	BYTE	W15
	BYTE		        Cn1 
	BYTE		N03     Fs1 
	BYTE	W09
	BYTE		        Dn1 
	BYTE		N03     As1 
	BYTE		N03     Cs2 
	BYTE	W24
	BYTE		        Cn1 
	BYTE		N03     Dn1 
	BYTE		N03     As1 
	BYTE	W24
// 009   ----------------------------------------
CelicaVictory_2_009:
	BYTE		N03     Cn1   v100
	BYTE		N03     Dn1 
	BYTE		N03     Fs1 
	BYTE		N03     Cs2 
	BYTE	W12
	BYTE		        Cn1 
	BYTE		N03     Bn1 
	BYTE	W24
	BYTE		        Cn1 
	BYTE		N03     Dn1 
	BYTE	W12
	BYTE		        Cn1 
	BYTE		N03     Bn1 
	BYTE	W24
	BYTE		        Cn1 
	BYTE		N03     Dn1 
	BYTE	W12
	BYTE		        Cn1 
	BYTE		N03     Bn1 
	BYTE	W12
	BYTE	PEND
// 010   ----------------------------------------
CelicaVictory_2_010:
	BYTE		N03     Cn1   v100
	BYTE		N03     Bn1 
	BYTE		N03     Ds2 
	BYTE	W12
	BYTE		        Cn1 
	BYTE	W12
	BYTE		        Dn1 
	BYTE		N03     Ds2 
	BYTE	W12
	BYTE		        Cn1 
	BYTE	W12
	BYTE		N03   
	BYTE		N03     Bn1 
	BYTE		N03     Ds2 
	BYTE	W24
	BYTE		        Cn1 
	BYTE		N03     Dn1 
	BYTE		N03     As1 
	BYTE		N03     Ds2 
	BYTE	W12
	BYTE		        Cn1 
	BYTE	W12
	BYTE	PEND
// 011   ----------------------------------------
CelicaVictory_2_011:
	BYTE		N03     Cn1   v100
	BYTE		N03     Dn1 
	BYTE		N03     Fs1 
	BYTE	W12
	BYTE		        Cn1 
	BYTE		N03     Bn1 
	BYTE	W24
	BYTE		        Cn1 
	BYTE		N03     Dn1 
	BYTE	W12
	BYTE		        Cn1 
	BYTE		N03     Bn1 
	BYTE	W24
	BYTE		        Cn1 
	BYTE		N03     Dn1 
	BYTE	W12
	BYTE		        Cn1 
	BYTE		N03     Bn1 
	BYTE	W12
	BYTE	PEND
// 012   ----------------------------------------
	BYTE	PATT
	 POIN2	CelicaVictory_2_010
// 013   ----------------------------------------
	BYTE	PATT
	 POIN2	CelicaVictory_2_009
// 014   ----------------------------------------
	BYTE	PATT
	 POIN2	CelicaVictory_2_010
// 015   ----------------------------------------
	BYTE	PATT
	 POIN2	CelicaVictory_2_011
// 016   ----------------------------------------
	BYTE		N03     Cn1   v100
	BYTE		N03     Bn1 
	BYTE		N03     Ds2 
	BYTE	W12
	BYTE		        Cn1 
	BYTE	W12
	BYTE		        Dn1 
	BYTE		N03     Ds2 
	BYTE	W12
	BYTE		        Cn1 
	BYTE	W12
	BYTE		N03   
	BYTE		N03     Bn1 
	BYTE		N03     Ds2 
	BYTE	W24
	BYTE		        Cn1 
	BYTE		N03     Dn1 
	BYTE		N06     Gs1   v120
	BYTE		N03     As1   v100
	BYTE		N03     Ds2 
	BYTE	W12
	BYTE		        Cn1 
	BYTE	W12
// 017   ----------------------------------------
CelicaVictory_2_017:
	BYTE		N03     Cn1   v100
	BYTE		N03     Fs1 
	BYTE		N03     Cs2 
	BYTE	W12
	BYTE		        Fs1 
	BYTE	W06
	BYTE		N03   
	BYTE	W06
	BYTE		        Dn1 
	BYTE		N03     As1 
	BYTE	W12
	BYTE		        Fs1 
	BYTE	W06
	BYTE		N03   
	BYTE	W06
	BYTE		        Cn1 
	BYTE		N03     Fs1 
	BYTE	W12
	BYTE		N03   
	BYTE	W03
	BYTE		        Cn1 
	BYTE		N03     Fs1 
	BYTE	W09
	BYTE		        Dn1 
	BYTE		N03     As1 
	BYTE	W12
	BYTE		        Fs1 
	BYTE	W06
	BYTE		N03   
	BYTE	W06
	BYTE	PEND
// 018   ----------------------------------------
CelicaVictory_2_018:
	BYTE		N03     Cn1   v100
	BYTE		N03     Fs1 
	BYTE	W12
	BYTE		N03   
	BYTE	W06
	BYTE		N03   
	BYTE	W06
	BYTE		        Dn1 
	BYTE		N03     As1 
	BYTE	W12
	BYTE		        Fs1 
	BYTE	W06
	BYTE		N03   
	BYTE	W06
	BYTE		        Cn1 
	BYTE		N03     Fs1 
	BYTE	W12
	BYTE		N03   
	BYTE	W03
	BYTE		        Cn1 
	BYTE		N03     Fs1 
	BYTE	W09
	BYTE		        Dn1 
	BYTE		N03     As1 
	BYTE	W12
	BYTE		        Fs1 
	BYTE	W06
	BYTE		N03   
	BYTE	W06
	BYTE	PEND
// 019   ----------------------------------------
	BYTE	PATT
	 POIN2	CelicaVictory_2_018
// 020   ----------------------------------------
	BYTE	PATT
	 POIN2	CelicaVictory_2_018
// 021   ----------------------------------------
	BYTE	PATT
	 POIN2	CelicaVictory_2_017
// 022   ----------------------------------------
	BYTE	PATT
	 POIN2	CelicaVictory_2_018
// 023   ----------------------------------------
	BYTE	PATT
	 POIN2	CelicaVictory_2_018
// 024   ----------------------------------------
	BYTE	PATT
	 POIN2	CelicaVictory_2_018
// 025   ----------------------------------------
	BYTE	PATT
	 POIN2	CelicaVictory_2_018
// 026   ----------------------------------------
	BYTE	PATT
	 POIN2	CelicaVictory_2_018
// 027   ----------------------------------------
	BYTE	PATT
	 POIN2	CelicaVictory_2_018
// 028   ----------------------------------------
	BYTE	PATT
	 POIN2	CelicaVictory_2_018
// 029   ----------------------------------------
CelicaVictory_2_029:
	BYTE		N03     Cn1   v100
	BYTE		N03     Dn1 
	BYTE		N03     Fs1 
	BYTE		N03     Cs2 
	BYTE	W72
	BYTE		        Bn1 
	BYTE	W09
	BYTE		N03   
	BYTE	W06
	BYTE		N03   
	BYTE	W09
	BYTE	PEND
// 030   ----------------------------------------
	BYTE	PATT
	 POIN2	CelicaVictory_2_029
// 031   ----------------------------------------
	BYTE		N03     Cn1   v100
	BYTE		N03     Dn1 
	BYTE		N03     Fs1 
	BYTE		N03     Cs2 
	BYTE		N03     Ds2 
	BYTE	W48
	BYTE		N03   
	BYTE	W24
	BYTE		        Bn1 
	BYTE	W09
	BYTE		N03   
	BYTE	W06
	BYTE		N03   
	BYTE	W09
// 032   ----------------------------------------
	BYTE		        Cn1 
	BYTE		N03     Fs1 
	BYTE		N03     Cs2 
	BYTE		N03     Ds2 
	BYTE	W24
	BYTE		        Dn1 
	BYTE		N03     As1 
	BYTE	W12
	BYTE		        Fs1 
	BYTE	W12
	BYTE		        Cn1 
	BYTE		N03     Fs1 
	BYTE		N03     Dn2 
	BYTE	W06
	BYTE		N03   
	BYTE	W06
	BYTE		        Fs1 
	BYTE		N03     Dn2 
	BYTE	W03
	BYTE		        Cn1 
	BYTE		N03     Fs1 
	BYTE	W03
	BYTE		        Dn2 
	BYTE	W06
	BYTE		        Dn1 
	BYTE		N03     As1 
	BYTE		N03     Bn1 
	BYTE		N03     Gn2 
	BYTE	W06
	BYTE		        Bn1 
	BYTE	W06
	BYTE		        Fs1 
	BYTE		N03     Bn1 
	BYTE		N03     Gn2 
	BYTE	W06
	BYTE		        DnM2
	BYTE		N03     Fs1 
	BYTE		N03     Gn1 
	BYTE		N03     Bn1 
	BYTE	W06
	BYTE	GoTo
	 POIN2	CelicaVictory_2_B1
CelicaVictory_2_B2:
// 033   ----------------------------------------
	BYTE	FINE

//**************** Track 3 (Midi-Chn.3) ****************//

CelicaVictory_3:
	BYTE	KEYSH   CelicaVictory_key+0
// 000   ----------------------------------------
	BYTE		VOICE   36
	BYTE		VOL     88*CelicaVictory_mvl/mxv
	BYTE	W66
	BYTE		PAN     c_v+19
	BYTE	W30
CelicaVictory_3_B1:
// 001   ----------------------------------------
CelicaVictory_3_001:
	BYTE		N10     Gn1   v100
	BYTE	W12
	BYTE		N10   
	BYTE	W12
	BYTE		        Dn1 
	BYTE	W12
	BYTE		        Gn1 
	BYTE	W12
	BYTE		N21   
	BYTE	W24
	BYTE		N10     Dn1 
	BYTE	W12
	BYTE		        Gn1 
	BYTE	W12
	BYTE	PEND
// 002   ----------------------------------------
CelicaVictory_3_002:
	BYTE		N10     Gs1   v100
	BYTE	W12
	BYTE		N10   
	BYTE	W12
	BYTE		        Ds1 
	BYTE	W12
	BYTE		        Gs1 
	BYTE	W12
	BYTE		N20   
	BYTE	W24
	BYTE		N10     Ds1 
	BYTE	W12
	BYTE		        Gs1 
	BYTE	W12
	BYTE	PEND
// 003   ----------------------------------------
	BYTE	PATT
	 POIN2	CelicaVictory_3_001
// 004   ----------------------------------------
CelicaVictory_3_004:
	BYTE		N10     Gs1   v100
	BYTE	W12
	BYTE		N10   
	BYTE	W12
	BYTE		        Ds1 
	BYTE	W12
	BYTE		        Gs1 
	BYTE	W12
	BYTE		N20   
	BYTE	W24
	BYTE		N10     Ds1 
	BYTE	W12
	BYTE		        Gs1 
	BYTE	W12
	BYTE		N10   
	BYTE	W12
	BYTE		N10   
	BYTE	W12
	BYTE	PEND
// 005   ----------------------------------------
	BYTE	PATT
	 POIN2	CelicaVictory_3_001
// 006   ----------------------------------------
	BYTE	PATT
	 POIN2	CelicaVictory_3_002
// 007   ----------------------------------------
	BYTE	PATT
	 POIN2	CelicaVictory_3_001
// 008   ----------------------------------------
	BYTE	PATT
	 POIN2	CelicaVictory_3_004
// 009   ----------------------------------------
CelicaVictory_3_009:
	BYTE		N10     Gn1   v100
	BYTE	W12
	BYTE		N21   
	BYTE	W24
	BYTE		N10   
	BYTE	W12
	BYTE		N21   
	BYTE	W24
	BYTE		N10   
	BYTE	W12
	BYTE		N20   
	BYTE	W12
	BYTE	PEND
// 010   ----------------------------------------
CelicaVictory_3_010:
	BYTE	W12
	BYTE		N10     Gn1   v100
	BYTE	W12
	BYTE		N21   
	BYTE	W24
	BYTE		N10   
	BYTE	W12
	BYTE		N16   
	BYTE	W24
	BYTE		N10   
	BYTE	W12
	BYTE	PEND
// 011   ----------------------------------------
CelicaVictory_3_011:
	BYTE		N10     Gs1   v100
	BYTE	W12
	BYTE		N21   
	BYTE	W24
	BYTE		N10   
	BYTE	W12
	BYTE		N21   
	BYTE	W24
	BYTE		N10   
	BYTE	W12
	BYTE		N21   
	BYTE	W12
	BYTE	PEND
// 012   ----------------------------------------
CelicaVictory_3_012:
	BYTE	W12
	BYTE		N10     Gs1   v100
	BYTE	W12
	BYTE		N21   
	BYTE	W24
	BYTE		N10   
	BYTE	W12
	BYTE		N15   
	BYTE	W24
	BYTE		N10   
	BYTE	W12
	BYTE	PEND
// 013   ----------------------------------------
	BYTE	PATT
	 POIN2	CelicaVictory_3_009
// 014   ----------------------------------------
	BYTE	PATT
	 POIN2	CelicaVictory_3_010
// 015   ----------------------------------------
	BYTE	PATT
	 POIN2	CelicaVictory_3_011
// 016   ----------------------------------------
	BYTE	PATT
	 POIN2	CelicaVictory_3_012
// 017   ----------------------------------------
CelicaVictory_3_017:
	BYTE		N12     Gn1   v100
	BYTE	W18
	BYTE		N05   
	BYTE	W06
	BYTE		N10     Dn1 
	BYTE	W12
	BYTE		N21     Gn1 
	BYTE	W36
	BYTE		N10     Dn1 
	BYTE	W12
	BYTE		        Gn1 
	BYTE	W12
	BYTE	PEND
// 018   ----------------------------------------
CelicaVictory_3_018:
	BYTE		N10     Gs1   v100
	BYTE	W18
	BYTE		N05   
	BYTE	W06
	BYTE		N10     Ds1 
	BYTE	W12
	BYTE		N22     Gs1 
	BYTE	W36
	BYTE		N10     Ds1 
	BYTE	W12
	BYTE		        Gs1 
	BYTE	W12
	BYTE	PEND
// 019   ----------------------------------------
	BYTE	PATT
	 POIN2	CelicaVictory_3_017
// 020   ----------------------------------------
	BYTE	PATT
	 POIN2	CelicaVictory_3_018
// 021   ----------------------------------------
	BYTE	PATT
	 POIN2	CelicaVictory_3_001
// 022   ----------------------------------------
	BYTE	PATT
	 POIN2	CelicaVictory_3_002
// 023   ----------------------------------------
	BYTE	PATT
	 POIN2	CelicaVictory_3_001
// 024   ----------------------------------------
	BYTE	PATT
	 POIN2	CelicaVictory_3_002
// 025   ----------------------------------------
	BYTE	PATT
	 POIN2	CelicaVictory_3_001
// 026   ----------------------------------------
	BYTE	PATT
	 POIN2	CelicaVictory_3_002
// 027   ----------------------------------------
	BYTE	PATT
	 POIN2	CelicaVictory_3_001
// 028   ----------------------------------------
	BYTE	PATT
	 POIN2	CelicaVictory_3_002
// 029   ----------------------------------------
	BYTE		N42     Gn1   v100
	BYTE	W72
	BYTE		N07   
	BYTE	W08
	BYTE		N07   
	BYTE	W08
	BYTE		N07   
	BYTE	W08
// 030   ----------------------------------------
	BYTE		N42     Gs1 
	BYTE	W72
	BYTE		N07   
	BYTE	W08
	BYTE		N07   
	BYTE	W08
	BYTE		N07   
	BYTE	W08
// 031   ----------------------------------------
	BYTE		N42     An1 
	BYTE	W72
	BYTE		N07   
	BYTE	W08
	BYTE		N07   
	BYTE	W08
	BYTE		N07   
	BYTE	W08
// 032   ----------------------------------------
	BYTE		N21   
	BYTE	W36
	BYTE		N10     As1 
	BYTE	W12
	BYTE		N42   
	BYTE	W48
	BYTE	GoTo
	 POIN2	CelicaVictory_3_B1
CelicaVictory_3_B2:
// 033   ----------------------------------------
	BYTE	FINE

//**************** Track 4 (Midi-Chn.4) ****************//

CelicaVictory_4:
	BYTE	KEYSH   CelicaVictory_key+0
// 000   ----------------------------------------
	BYTE		VOICE   63
	BYTE		VOL     53*CelicaVictory_mvl/mxv
	BYTE	W96
CelicaVictory_4_B1:
// 001   ----------------------------------------
	BYTE	W96
// 002   ----------------------------------------
	BYTE	W96
// 003   ----------------------------------------
	BYTE	W96
// 004   ----------------------------------------
	BYTE	W96
	BYTE	W24
// 005   ----------------------------------------
	BYTE	W96
// 006   ----------------------------------------
	BYTE	W96
// 007   ----------------------------------------
	BYTE	W96
// 008   ----------------------------------------
	BYTE	W96
	BYTE	W24
// 009   ----------------------------------------
CelicaVictory_4_009:
	BYTE		N10     Dn3   v100
	BYTE		N10     Gn3 
	BYTE	W12
	BYTE		        Dn3 
	BYTE		N10     Gn3 
	BYTE	W24
	BYTE		        Dn3 
	BYTE		N10     Gn3 
	BYTE	W12
	BYTE		        Dn3 
	BYTE		N10     Gn3 
	BYTE	W24
	BYTE		        Dn3 
	BYTE		N10     Gn3 
	BYTE	W12
	BYTE		        Dn3 
	BYTE		N10     Gn3 
	BYTE	W12
	BYTE	PEND
// 010   ----------------------------------------
CelicaVictory_4_010:
	BYTE	W12
	BYTE		N10     Dn3   v100
	BYTE		N10     Gn3 
	BYTE	W12
	BYTE		        Dn3 
	BYTE		N10     Gn3 
	BYTE	W24
	BYTE		        Dn3 
	BYTE		N10     Gn3 
	BYTE	W12
	BYTE		        Dn3 
	BYTE		N10     Gn3 
	BYTE	W24
	BYTE		        Dn3 
	BYTE		N10     Gn3 
	BYTE	W12
	BYTE	PEND
// 011   ----------------------------------------
CelicaVictory_4_011:
	BYTE		N10     Ds3   v100
	BYTE		N10     Gs3 
	BYTE	W12
	BYTE		        Ds3 
	BYTE		N10     Gs3 
	BYTE	W24
	BYTE		        Ds3 
	BYTE		N10     Gs3 
	BYTE	W12
	BYTE		        Ds3 
	BYTE		N10     Gs3 
	BYTE	W24
	BYTE		        Ds3 
	BYTE		N10     Gs3 
	BYTE	W12
	BYTE		        Ds3 
	BYTE		N10     Gs3 
	BYTE	W12
	BYTE	PEND
// 012   ----------------------------------------
CelicaVictory_4_012:
	BYTE	W12
	BYTE		N10     Ds3   v100
	BYTE		N10     Gs3 
	BYTE	W12
	BYTE		        Ds3 
	BYTE		N10     Gs3 
	BYTE	W24
	BYTE		        Ds3 
	BYTE		N10     Gs3 
	BYTE	W12
	BYTE		        Ds3 
	BYTE		N10     Gs3 
	BYTE	W24
	BYTE		        Ds3 
	BYTE		N10     Gs3 
	BYTE	W12
	BYTE	PEND
// 013   ----------------------------------------
	BYTE	PATT
	 POIN2	CelicaVictory_4_009
// 014   ----------------------------------------
	BYTE	PATT
	 POIN2	CelicaVictory_4_010
// 015   ----------------------------------------
	BYTE	PATT
	 POIN2	CelicaVictory_4_011
// 016   ----------------------------------------
	BYTE	PATT
	 POIN2	CelicaVictory_4_012
// 017   ----------------------------------------
	BYTE	PATT
	 POIN2	CelicaVictory_4_009
// 018   ----------------------------------------
	BYTE	PATT
	 POIN2	CelicaVictory_4_011
// 019   ----------------------------------------
	BYTE	PATT
	 POIN2	CelicaVictory_4_009
// 020   ----------------------------------------
	BYTE	PATT
	 POIN2	CelicaVictory_4_011
// 021   ----------------------------------------
	BYTE	PATT
	 POIN2	CelicaVictory_4_009
// 022   ----------------------------------------
	BYTE	PATT
	 POIN2	CelicaVictory_4_011
// 023   ----------------------------------------
	BYTE	PATT
	 POIN2	CelicaVictory_4_009
// 024   ----------------------------------------
	BYTE	PATT
	 POIN2	CelicaVictory_4_011
// 025   ----------------------------------------
	BYTE	PATT
	 POIN2	CelicaVictory_4_009
// 026   ----------------------------------------
	BYTE	PATT
	 POIN2	CelicaVictory_4_011
// 027   ----------------------------------------
	BYTE	PATT
	 POIN2	CelicaVictory_4_009
// 028   ----------------------------------------
	BYTE	PATT
	 POIN2	CelicaVictory_4_011
// 029   ----------------------------------------
	BYTE	W96
// 030   ----------------------------------------
	BYTE	W96
// 031   ----------------------------------------
	BYTE	W96
// 032   ----------------------------------------
	BYTE	W96
	BYTE	GoTo
	 POIN2	CelicaVictory_4_B1
CelicaVictory_4_B2:
// 033   ----------------------------------------
	BYTE	FINE

//**************** Track 5 (Midi-Chn.5) ****************//

CelicaVictory_5:
	BYTE	KEYSH   CelicaVictory_key+0
// 000   ----------------------------------------
	BYTE		VOICE   41
	BYTE		VOL     64*CelicaVictory_mvl/mxv
	BYTE	W96
CelicaVictory_5_B1:
// 001   ----------------------------------------
	BYTE	W96
// 002   ----------------------------------------
	BYTE	W96
// 003   ----------------------------------------
	BYTE	W96
// 004   ----------------------------------------
	BYTE	W96
	BYTE	W24
// 005   ----------------------------------------
	BYTE	W96
// 006   ----------------------------------------
	BYTE	W96
// 007   ----------------------------------------
	BYTE	W96
// 008   ----------------------------------------
	BYTE	W96
	BYTE	W24
// 009   ----------------------------------------
	BYTE	W96
// 010   ----------------------------------------
	BYTE	W96
// 011   ----------------------------------------
	BYTE	W96
// 012   ----------------------------------------
	BYTE	W96
// 013   ----------------------------------------
	BYTE	W96
// 014   ----------------------------------------
	BYTE	W96
// 015   ----------------------------------------
	BYTE	W76
	BYTE	W02
	BYTE	W01
	BYTE	W08
	BYTE		PAN     c_v+9
	BYTE	W09
// 016   ----------------------------------------
	BYTE	W72
	BYTE		N10     Gn3   v124
	BYTE	W06
	BYTE		        An3 
	BYTE	W06
	BYTE		        As3   v127
	BYTE	W06
	BYTE		N05     Cn4 
	BYTE	W06
// 017   ----------------------------------------
	BYTE		TIE     Gn3   v108
	BYTE		TIE     As3   v100
	BYTE		TIE     Dn4   v108
	BYTE		TIE     Gn4   v127
	BYTE	W96
// 018   ----------------------------------------
	BYTE	W96
// 019   ----------------------------------------
	BYTE	W96
// 020   ----------------------------------------
	BYTE	W84
	BYTE	W02
	BYTE		EOT     Gn3 
	BYTE		        As3 
	BYTE		        Dn4 
	BYTE	W09
	BYTE		        Gn4 
	BYTE	W01
// 021   ----------------------------------------
	BYTE	W96
// 022   ----------------------------------------
	BYTE	W96
// 023   ----------------------------------------
	BYTE	W96
// 024   ----------------------------------------
	BYTE	W96
// 025   ----------------------------------------
	BYTE	W96
// 026   ----------------------------------------
	BYTE	W78
	BYTE	W01
	BYTE	W02
	BYTE	W01
	BYTE	W02
	BYTE	W01
	BYTE	W02
	BYTE	W01
	BYTE	W02
	BYTE	W01
	BYTE	W01
	BYTE		PAN     c_v+35
	BYTE	W01
	BYTE	W01
	BYTE		        c_v+35
	BYTE	W01
	BYTE		        c_v+35
	BYTE	W01
// 027   ----------------------------------------
	BYTE		N05     Dn4   v116
	BYTE	W01
	BYTE		PAN     c_v+35
	BYTE	W01
	BYTE		        c_v+35
	BYTE	W10
	BYTE		N05   
	BYTE	W06
	BYTE		        Cn4 
	BYTE	W06
	BYTE		        Dn4 
	BYTE	W12
	BYTE		N05   
	BYTE	W06
	BYTE		        Cn4 
	BYTE	W06
	BYTE		        Dn4 
	BYTE	W12
	BYTE		N05   
	BYTE	W06
	BYTE		        Cn4 
	BYTE	W06
	BYTE		        Dn4 
	BYTE	W12
	BYTE		N05   
	BYTE	W06
	BYTE		        Cn4 
	BYTE	W06
// 028   ----------------------------------------
	BYTE		PAN     c_v-19
	BYTE		N05     Ds4 
	BYTE	W01
	BYTE		PAN     c_v-19
	BYTE	W11
	BYTE		N05   
	BYTE	W06
	BYTE		        Dn4 
	BYTE	W06
	BYTE		        Ds4 
	BYTE	W12
	BYTE		N05   
	BYTE	W06
	BYTE		        Dn4 
	BYTE	W06
	BYTE		        Ds4 
	BYTE	W12
	BYTE		N05   
	BYTE	W06
	BYTE		        Dn4 
	BYTE	W06
	BYTE		PAN     c_v+3
	BYTE		N07     Ds4 
	BYTE	W01
	BYTE		PAN     c_v+3
	BYTE	W02
	BYTE		        c_v+3
	BYTE	W01
	BYTE		        c_v+3
	BYTE	W02
	BYTE		        c_v+3
	BYTE	W01
	BYTE		        c_v+3
	BYTE	W01
	BYTE		N07     Fn4 
	BYTE	W08
	BYTE		        Gn4 
	BYTE	W08
// 029   ----------------------------------------
	BYTE		N64     Gn3 
	BYTE		N64     As3 
	BYTE		N64     Dn4 
	BYTE	W60
	BYTE	W03
	BYTE		PAN     c_v+5
	BYTE	W02
	BYTE		        c_v+5
	BYTE	W01
	BYTE		        c_v+5
	BYTE	W01
	BYTE		        c_v+5
	BYTE	W02
	BYTE		        c_v+5
	BYTE	W01
	BYTE		        c_v+5
	BYTE	W02
	BYTE		        c_v+44
	BYTE		N07     Gn3   v120
	BYTE		N07     As3 
	BYTE		N07     Dn4 
	BYTE	W02
	BYTE		PAN     c_v+44
	BYTE	W01
	BYTE		        c_v+44
	BYTE	W05
	BYTE		N07     Gn3 
	BYTE		N07     As3 
	BYTE		N07     Dn4 
	BYTE	W08
	BYTE		        Gn3 
	BYTE		N07     As3 
	BYTE		N07     Dn4 
	BYTE	W08
// 030   ----------------------------------------
	BYTE		PAN     c_v+2
	BYTE		N64     Gs3 
	BYTE		N64     Cn4 
	BYTE		N64     Ds4 
	BYTE	W01
	BYTE		PAN     c_v+2
	BYTE	W02
	BYTE		        c_v+2
	BYTE	W66
	BYTE	W01
	BYTE		        c_v-40
	BYTE	W02
	BYTE		        c_v-40
	BYTE		N07     Gs3   v124
	BYTE		N07     Cn4 
	BYTE		N07     Ds4 
	BYTE	W01
	BYTE		PAN     c_v-40
	BYTE	W02
	BYTE		        c_v-40
	BYTE	W01
	BYTE		        c_v-40
	BYTE	W04
	BYTE		N07     Gs3 
	BYTE		N07     Cn4 
	BYTE		N07     Ds4 
	BYTE	W08
	BYTE		        Gs3 
	BYTE		N07     Cn4 
	BYTE		N07     Ds4 
	BYTE	W08
// 031   ----------------------------------------
	BYTE		PAN     c_v+3
	BYTE		N60     Fn3 
	BYTE		N64     Cn4 
	BYTE		N64     Ds4 
	BYTE	W02
	BYTE		PAN     c_v+3
	BYTE	W01
	BYTE		        c_v+3
	BYTE	W68
	BYTE	W01
	BYTE		        c_v+44
	BYTE		N07     Fn3 
	BYTE		N07     Cn4 
	BYTE		N07     Ds4 
	BYTE	W01
	BYTE		PAN     c_v+44
	BYTE	W02
	BYTE		        c_v+44
	BYTE	W01
	BYTE		        c_v+44
	BYTE	W04
	BYTE		N07     Fn3 
	BYTE		N07     Cn4 
	BYTE		N07     Ds4 
	BYTE	W08
	BYTE		        Fn3 
	BYTE		N07     Cn4 
	BYTE		N07     Ds4 
	BYTE	W08
// 032   ----------------------------------------
	BYTE		PAN     c_v+1
	BYTE		N32     Fn3 
	BYTE		N32     Cn4 
	BYTE		N32     Ds4 
	BYTE	W02
	BYTE		PAN     c_v+1
	BYTE	W01
	BYTE		        c_v+1
	BYTE	W32
	BYTE	W01
	BYTE		N05     As3 
	BYTE		N05     Dn4 
	BYTE	W06
	BYTE		        As3 
	BYTE		N05     Dn4 
	BYTE	W06
	BYTE		N40     As3 
	BYTE		N40     Dn4 
	BYTE	W48
	BYTE	GoTo
	 POIN2	CelicaVictory_5_B1
CelicaVictory_5_B2:
// 033   ----------------------------------------
	BYTE	FINE

//**************** Track 6 (Midi-Chn.6) ****************//

CelicaVictory_6:
	BYTE	KEYSH   CelicaVictory_key+0
// 000   ----------------------------------------
	BYTE		VOICE   52
	BYTE		VOL     50*CelicaVictory_mvl/mxv
	BYTE	W96
CelicaVictory_6_B1:
// 001   ----------------------------------------
	BYTE	W96
// 002   ----------------------------------------
	BYTE	W96
// 003   ----------------------------------------
	BYTE	W96
// 004   ----------------------------------------
	BYTE	W96
	BYTE	W24
// 005   ----------------------------------------
	BYTE	W96
// 006   ----------------------------------------
	BYTE	W96
// 007   ----------------------------------------
	BYTE	W96
// 008   ----------------------------------------
	BYTE	W96
	BYTE	W24
// 009   ----------------------------------------
	BYTE	W96
// 010   ----------------------------------------
	BYTE	W96
// 011   ----------------------------------------
	BYTE	W96
// 012   ----------------------------------------
	BYTE	W96
// 013   ----------------------------------------
	BYTE	W96
// 014   ----------------------------------------
	BYTE	W96
// 015   ----------------------------------------
	BYTE	W96
// 016   ----------------------------------------
	BYTE	W96
// 017   ----------------------------------------
	BYTE		N92     As3   v100
	BYTE		N92     Dn4 
	BYTE	W96
// 018   ----------------------------------------
	BYTE		        Cn4 
	BYTE		N92     Ds4 
	BYTE	W96
// 019   ----------------------------------------
	BYTE		        As3 
	BYTE		N92     Dn4 
	BYTE	W96
// 020   ----------------------------------------
	BYTE		        Cn4 
	BYTE		N92     Ds4 
	BYTE	W96
// 021   ----------------------------------------
	BYTE		        As3 
	BYTE		N92     Dn4 
	BYTE	W96
// 022   ----------------------------------------
	BYTE		        Cn4 
	BYTE		N92     Ds4 
	BYTE	W96
// 023   ----------------------------------------
	BYTE		        As3 
	BYTE		N92     Dn4 
	BYTE	W96
// 024   ----------------------------------------
	BYTE		        Cn4 
	BYTE		N92     Ds4 
	BYTE	W96
// 025   ----------------------------------------
	BYTE		        As3 
	BYTE		N92     Dn4 
	BYTE	W96
// 026   ----------------------------------------
	BYTE		        Cn4 
	BYTE		N92     Ds4 
	BYTE	W96
// 027   ----------------------------------------
	BYTE		        As3 
	BYTE		N92     Dn4 
	BYTE		N92     Dn5 
	BYTE	W96
// 028   ----------------------------------------
	BYTE		        Cn4 
	BYTE		N92     Ds4 
	BYTE		N92     Ds5 
	BYTE	W96
// 029   ----------------------------------------
	BYTE		N84     Gn3   v088
	BYTE		N92     As3 
	BYTE		N92     Dn4 
	BYTE		N84     Gn4 
	BYTE		N92     Dn5   v100
	BYTE		N92     Gn5   v088
	BYTE	W96
// 030   ----------------------------------------
	BYTE		        Gs3 
	BYTE		N92     Cn4 
	BYTE		N84     Gs4 
	BYTE		N92     Ds5   v100
	BYTE		N92     Gs5   v088
	BYTE	W96
// 031   ----------------------------------------
	BYTE		N84     Cn4 
	BYTE		N92     Fn4 
	BYTE		N84     An4 
	BYTE		N92     Ds5   v100
	BYTE		N92     An5   v088
	BYTE	W96
// 032   ----------------------------------------
	BYTE		N42     Cn4 
	BYTE		N42     Fn4 
	BYTE		N42     An4 
	BYTE		N42     Ds5   v100
	BYTE		N42     An5   v088
	BYTE	W48
	BYTE		        As3 
	BYTE		N42     Fn4 
	BYTE		N42     As4 
	BYTE		N42     Dn5   v100
	BYTE		N42     As5   v088
	BYTE	W48
	BYTE	GoTo
	 POIN2	CelicaVictory_6_B1
CelicaVictory_6_B2:
// 033   ----------------------------------------
	BYTE	FINE

//**************** Track 7 (Midi-Chn.7) ****************//

CelicaVictory_7:
	BYTE	KEYSH   CelicaVictory_key+0
// 000   ----------------------------------------
	BYTE		VOICE   29
	BYTE		VOL     53*CelicaVictory_mvl/mxv
	BYTE	W68
	BYTE	W01
	BYTE		PAN     c_v-15
	BYTE	W24
	BYTE	W03
CelicaVictory_7_B1:
// 001   ----------------------------------------
CelicaVictory_7_001:
	BYTE		N21     Gn1   v100
	BYTE	W36
	BYTE		        Dn1 
	BYTE	W36
	BYTE		        Gn1 
	BYTE	W24
	BYTE	PEND
// 002   ----------------------------------------
CelicaVictory_7_002:
	BYTE		N21     Gs1   v100
	BYTE	W36
	BYTE		        Ds1 
	BYTE	W36
	BYTE		        Gs1 
	BYTE	W24
	BYTE	PEND
// 003   ----------------------------------------
	BYTE	PATT
	 POIN2	CelicaVictory_7_001
// 004   ----------------------------------------
CelicaVictory_7_004:
	BYTE		N21     Gs1   v100
	BYTE	W36
	BYTE		        Ds1 
	BYTE	W36
	BYTE		        Gs1 
	BYTE	W24
	BYTE		N21   
	BYTE	W24
	BYTE	PEND
// 005   ----------------------------------------
	BYTE	PATT
	 POIN2	CelicaVictory_7_001
// 006   ----------------------------------------
	BYTE	PATT
	 POIN2	CelicaVictory_7_002
// 007   ----------------------------------------
	BYTE	PATT
	 POIN2	CelicaVictory_7_001
// 008   ----------------------------------------
	BYTE	PATT
	 POIN2	CelicaVictory_7_004
// 009   ----------------------------------------
CelicaVictory_7_009:
	BYTE		N21     Gn1   v100
	BYTE	W36
	BYTE		N21   
	BYTE	W36
	BYTE		N18   
	BYTE	W24
	BYTE	PEND
// 010   ----------------------------------------
CelicaVictory_7_010:
	BYTE		N18     Gn1   v100
	BYTE	W24
	BYTE		N18   
	BYTE	W24
	BYTE		N18   
	BYTE	W24
	BYTE		N18   
	BYTE	W24
	BYTE	PEND
// 011   ----------------------------------------
CelicaVictory_7_011:
	BYTE		N18     Gs1   v100
	BYTE	W36
	BYTE		N18   
	BYTE	W36
	BYTE		N18   
	BYTE	W24
	BYTE	PEND
// 012   ----------------------------------------
CelicaVictory_7_012:
	BYTE		N18     Gs1   v100
	BYTE	W24
	BYTE		N18   
	BYTE	W24
	BYTE		N18   
	BYTE	W24
	BYTE		N18   
	BYTE	W24
	BYTE	PEND
// 013   ----------------------------------------
	BYTE	PATT
	 POIN2	CelicaVictory_7_009
// 014   ----------------------------------------
	BYTE	PATT
	 POIN2	CelicaVictory_7_010
// 015   ----------------------------------------
	BYTE	PATT
	 POIN2	CelicaVictory_7_011
// 016   ----------------------------------------
	BYTE	PATT
	 POIN2	CelicaVictory_7_012
// 017   ----------------------------------------
	BYTE	PATT
	 POIN2	CelicaVictory_7_001
// 018   ----------------------------------------
	BYTE	PATT
	 POIN2	CelicaVictory_7_002
// 019   ----------------------------------------
	BYTE	PATT
	 POIN2	CelicaVictory_7_001
// 020   ----------------------------------------
	BYTE	PATT
	 POIN2	CelicaVictory_7_002
// 021   ----------------------------------------
	BYTE	PATT
	 POIN2	CelicaVictory_7_001
// 022   ----------------------------------------
	BYTE	PATT
	 POIN2	CelicaVictory_7_002
// 023   ----------------------------------------
	BYTE	PATT
	 POIN2	CelicaVictory_7_001
// 024   ----------------------------------------
	BYTE	PATT
	 POIN2	CelicaVictory_7_002
// 025   ----------------------------------------
	BYTE	PATT
	 POIN2	CelicaVictory_7_001
// 026   ----------------------------------------
	BYTE	PATT
	 POIN2	CelicaVictory_7_002
// 027   ----------------------------------------
	BYTE	PATT
	 POIN2	CelicaVictory_7_001
// 028   ----------------------------------------
	BYTE	PATT
	 POIN2	CelicaVictory_7_002
// 029   ----------------------------------------
	BYTE		N64     Gn1   v100
	BYTE	W96
// 030   ----------------------------------------
	BYTE		        Gs1 
	BYTE	W96
// 031   ----------------------------------------
	BYTE		        An1 
	BYTE	W96
// 032   ----------------------------------------
	BYTE		N42   
	BYTE	W48
	BYTE		        As1 
	BYTE	W48
	BYTE	GoTo
	 POIN2	CelicaVictory_7_B1
CelicaVictory_7_B2:
// 033   ----------------------------------------
	BYTE	FINE

//******************************************************//
	ALIGN 4

CelicaVictory:
	BYTE	7	// NumTrks
	BYTE	0	// NumBlks
	BYTE	CelicaVictory_pri	// Priority
	BYTE	CelicaVictory_rev	// Reverb.

	POIN2	CelicaVictory_grp

	POIN2	CelicaVictory_1
	POIN2	CelicaVictory_2
	POIN2	CelicaVictory_3
	POIN2	CelicaVictory_4
	POIN2	CelicaVictory_5
	POIN2	CelicaVictory_6
	POIN2	CelicaVictory_7

	
