//Event file generated from Sappy .s format.
        #include "MPlayDef.event"

        #define    EmeraldDragon_grp  voicegroup000
        #define    EmeraldDragon_pri  0
        #define    EmeraldDragon_rev  0
        #define    EmeraldDragon_key  0

        // .rodata
        // EmeraldDragon
        ALIGN 4

//****************** Track 0 (Midi-Chn.0) ******************//

EmeraldDragon_0:
        BYTE   KEYSH   EmeraldDragon_key+0
// 000   ----------------------------------------
        BYTE   TEMPO   180/2
        BYTE           VOICE   70
        BYTE           VOL     39
        BYTE           PAN     c_v+27
        BYTE           BENDR   12
        BYTE   W96
// 001   ----------------------------------------
        BYTE   W96
// 002   ----------------------------------------
EmeraldDragon_0_LOOP:
        BYTE   W96
// 003   ----------------------------------------
        BYTE   W96
// 004   ----------------------------------------
        BYTE   W96
// 005   ----------------------------------------
        BYTE   W96
// 006   ----------------------------------------
        BYTE   W96
// 007   ----------------------------------------
        BYTE   W96
// 008   ----------------------------------------
        BYTE   W96
// 009   ----------------------------------------
EmeraldDragon_0_9:
        BYTE           N06     As4   v096
        BYTE   W06
        BYTE                   Fs4   v084
        BYTE   W06
        BYTE                   Cs4   v072
        BYTE   W06
        BYTE                   As3   v060
        BYTE   W06
        BYTE                   Fs3   v048
        BYTE   W06
        BYTE                   Cs3
        BYTE   W06
        BYTE                   Bn4   v096
        BYTE   W06
        BYTE                   Gn4   v084
        BYTE   W06
        BYTE                   Dn4   v072
        BYTE   W06
        BYTE                   Bn3   v060
        BYTE   W06
        BYTE                   Gn3   v048
        BYTE   W06
        BYTE                   Dn3
        BYTE   W06
        BYTE                   As4   v096
        BYTE   W06
        BYTE                   Fs4   v084
        BYTE   W06
        BYTE                   Cs4   v072
        BYTE   W06
        BYTE                   As3   v060
        BYTE   W06
        BYTE   PEND
// 010   ----------------------------------------
EmeraldDragon_0_10:
        BYTE           N06     Fs3   v048
        BYTE   W06
        BYTE                   Cs3
        BYTE   W06
        BYTE                   Bn4   v096
        BYTE   W06
        BYTE                   Gn4   v084
        BYTE   W06
        BYTE                   Dn4   v072
        BYTE   W06
        BYTE                   Bn3   v060
        BYTE   W06
        BYTE                   Gn3   v048
        BYTE   W06
        BYTE                   Dn3
        BYTE   W06
        BYTE                   Cn5   v096
        BYTE   W06
        BYTE                   Gn4   v080
        BYTE   W06
        BYTE                   Ds4   v064
        BYTE   W06
        BYTE                   Cn4   v048
        BYTE   W06
        BYTE                   Cs5   v096
        BYTE   W06
        BYTE                   Gs4   v080
        BYTE   W06
        BYTE                   En4   v064
        BYTE   W06
        BYTE                   Cs4   v048
        BYTE   W06
        BYTE   PEND
// 011   ----------------------------------------
        BYTE   PATT
         POIN2  EmeraldDragon_0_9
// 012   ----------------------------------------
EmeraldDragon_0_12:
        BYTE           N06     Fs3   v048
        BYTE   W06
        BYTE                   Cs3
        BYTE   W06
        BYTE                   Bn4   v096
        BYTE   W06
        BYTE                   Gn4   v084
        BYTE   W06
        BYTE                   Dn4   v072
        BYTE   W06
        BYTE                   Bn3   v060
        BYTE   W06
        BYTE                   Gn3   v048
        BYTE   W06
        BYTE                   Dn3
        BYTE   W06
        BYTE                   Gn4   v096
        BYTE   W06
        BYTE                   Ds4   v080
        BYTE   W06
        BYTE                   As3   v064
        BYTE   W06
        BYTE                   Gn3   v048
        BYTE   W06
        BYTE                   Gs4   v096
        BYTE   W06
        BYTE                   En4   v080
        BYTE   W06
        BYTE                   Bn3   v064
        BYTE   W06
        BYTE                   Gs3   v048
        BYTE   W06
        BYTE   PEND
// 013   ----------------------------------------
        BYTE   PATT
         POIN2  EmeraldDragon_0_9
// 014   ----------------------------------------
        BYTE   PATT
         POIN2  EmeraldDragon_0_10
// 015   ----------------------------------------
        BYTE   PATT
         POIN2  EmeraldDragon_0_9
// 016   ----------------------------------------
        BYTE   PATT
         POIN2  EmeraldDragon_0_12
// 017   ----------------------------------------
        BYTE           N06     Cn4   v080
        BYTE   W06
        BYTE                   Gn3
        BYTE   W06
        BYTE                   Fn3
        BYTE   W06
        BYTE                   Gn3
        BYTE   W06
        BYTE                   Cn3
        BYTE   W06
        BYTE                   Fn3
        BYTE   W06
        BYTE                   Gn3
        BYTE   W06
        BYTE                   Fn3
        BYTE   W06
        BYTE                   Cn4
        BYTE   W06
        BYTE                   Gn3
        BYTE   W06
        BYTE                   Fn3
        BYTE   W06
        BYTE                   Gn3
        BYTE   W06
        BYTE                   Bn3
        BYTE   W06
        BYTE                   Fs3
        BYTE   W06
        BYTE                   En3
        BYTE   W06
        BYTE                   Fs3
        BYTE   W06
// 018   ----------------------------------------
        BYTE                   Bn2
        BYTE   W06
        BYTE                   En3
        BYTE   W06
        BYTE                   Fs3
        BYTE   W06
        BYTE                   En3
        BYTE   W06
        BYTE                   Bn3
        BYTE   W06
        BYTE                   En3
        BYTE   W06
        BYTE                   Fs3
        BYTE   W06
        BYTE                   En3
        BYTE   W06
        BYTE                   Cn4
        BYTE   W06
        BYTE                   Gn3
        BYTE   W06
        BYTE                   Fn3
        BYTE   W06
        BYTE                   Gn3
        BYTE   W06
        BYTE                   Cn3
        BYTE   W06
        BYTE                   Fn3
        BYTE   W06
        BYTE                   Gn3
        BYTE   W06
        BYTE                   Fn3
        BYTE   W06
// 019   ----------------------------------------
        BYTE                   Cn4
        BYTE   W06
        BYTE                   Gn3
        BYTE   W06
        BYTE                   Fn3
        BYTE   W06
        BYTE                   Gn3
        BYTE   W06
        BYTE                   Cs4
        BYTE   W06
        BYTE                   Fs3
        BYTE   W06
        BYTE                   Gs3
        BYTE   W06
        BYTE                   Fs3
        BYTE   W06
        BYTE                   Cs3
        BYTE   W06
        BYTE                   Fs3
        BYTE   W06
        BYTE                   Gs3
        BYTE   W06
        BYTE                   Fs3
        BYTE   W06
        BYTE                   Cs4
        BYTE   W06
        BYTE                   Gs3
        BYTE   W06
        BYTE                   Fs3
        BYTE   W06
        BYTE                   Gs3
        BYTE   W06
// 020   ----------------------------------------
        BYTE                   Cn4
        BYTE   W06
        BYTE                   Gn3
        BYTE   W06
        BYTE                   Fn3
        BYTE   W06
        BYTE                   Gn3
        BYTE   W06
        BYTE                   Cn3
        BYTE   W06
        BYTE                   Fn3
        BYTE   W06
        BYTE                   Gn3
        BYTE   W06
        BYTE                   Fn3
        BYTE   W06
        BYTE                   Cn4
        BYTE   W06
        BYTE                   Fn3
        BYTE   W06
        BYTE                   Gn3
        BYTE   W06
        BYTE                   Fn3
        BYTE   W06
        BYTE                   Bn3
        BYTE   W06
        BYTE                   En3
        BYTE   W06
        BYTE                   Fs3
        BYTE   W06
        BYTE                   En3
        BYTE   W06
// 021   ----------------------------------------
        BYTE                   Bn2
        BYTE   W06
        BYTE                   En3
        BYTE   W06
        BYTE                   Fs3
        BYTE   W06
        BYTE                   En3
        BYTE   W06
        BYTE                   Bn3
        BYTE   W06
        BYTE                   En3
        BYTE   W06
        BYTE                   Fs3
        BYTE   W06
        BYTE                   En3
        BYTE   W06
        BYTE                   Cn4
        BYTE   W06
        BYTE                   Fn3
        BYTE   W06
        BYTE                   Gn3
        BYTE   W06
        BYTE                   Fn3
        BYTE   W06
        BYTE                   Cn3
        BYTE   W06
        BYTE                   Fn3
        BYTE   W06
        BYTE                   Gn3
        BYTE   W06
        BYTE                   Fn3
        BYTE   W06
// 022   ----------------------------------------
        BYTE                   Cn4
        BYTE   W06
        BYTE                   Fn3
        BYTE   W06
        BYTE                   Gn3
        BYTE   W06
        BYTE                   Fn3
        BYTE   W06
        BYTE                   Cs4
        BYTE   W06
        BYTE                   Fs3
        BYTE   W06
        BYTE                   Gs3
        BYTE   W06
        BYTE                   Fs3
        BYTE   W06
        BYTE                   Cs3
        BYTE   W06
        BYTE                   Fs3
        BYTE   W06
        BYTE                   Gs3
        BYTE   W06
        BYTE                   Fs3
        BYTE   W06
        BYTE                   Cs4
        BYTE   W06
        BYTE                   Fs3
        BYTE   W06
        BYTE                   Gs3
        BYTE   W06
        BYTE                   Fs3
        BYTE   W06
// 023   ----------------------------------------
        BYTE                   Dn4
        BYTE   W06
        BYTE                   An3
        BYTE   W06
        BYTE                   Gn3
        BYTE   W06
        BYTE                   An3
        BYTE   W06
        BYTE                   Dn3
        BYTE   W06
        BYTE                   Gn3
        BYTE   W06
        BYTE                   An3
        BYTE   W06
        BYTE                   Gn3
        BYTE   W06
        BYTE                   Dn4
        BYTE   W06
        BYTE                   An3
        BYTE   W06
        BYTE                   Gn3
        BYTE   W06
        BYTE                   An3
        BYTE   W06
        BYTE                   Cs4
        BYTE   W06
        BYTE                   Gs3
        BYTE   W06
        BYTE                   Fs3
        BYTE   W06
        BYTE                   Gs3
        BYTE   W06
// 024   ----------------------------------------
        BYTE                   Cs3
        BYTE   W06
        BYTE                   Fs3
        BYTE   W06
        BYTE                   Gs3
        BYTE   W06
        BYTE                   Fs3
        BYTE   W06
        BYTE                   Cs4
        BYTE   W06
        BYTE                   Fs3
        BYTE   W06
        BYTE                   Gs3
        BYTE   W06
        BYTE                   Fs3
        BYTE   W06
        BYTE                   Dn4
        BYTE   W06
        BYTE                   An3
        BYTE   W06
        BYTE                   Gn3
        BYTE   W06
        BYTE                   An3
        BYTE   W06
        BYTE                   Dn3
        BYTE   W06
        BYTE                   Gn3
        BYTE   W06
        BYTE                   An3
        BYTE   W06
        BYTE                   Gn3
        BYTE   W06
// 025   ----------------------------------------
        BYTE                   Dn4
        BYTE   W06
        BYTE                   An3
        BYTE   W06
        BYTE                   Gn3
        BYTE   W06
        BYTE                   An3
        BYTE   W06
        BYTE                   Ds4
        BYTE   W06
        BYTE                   As3
        BYTE   W06
        BYTE                   Gs3
        BYTE   W06
        BYTE                   As3
        BYTE   W06
        BYTE                   Ds3
        BYTE   W06
        BYTE                   Gs3
        BYTE   W06
        BYTE                   As3
        BYTE   W06
        BYTE                   Gs3
        BYTE   W06
        BYTE                   Ds4
        BYTE   W06
        BYTE                   As3
        BYTE   W06
        BYTE                   Gs3
        BYTE   W06
        BYTE                   As3
        BYTE   W06
// 026   ----------------------------------------
        BYTE                   Dn4
        BYTE   W06
        BYTE                   An3
        BYTE   W06
        BYTE                   Gn3
        BYTE   W06
        BYTE                   An3
        BYTE   W06
        BYTE                   Dn3
        BYTE   W06
        BYTE                   Gn3
        BYTE   W06
        BYTE                   An3
        BYTE   W06
        BYTE                   Gn3
        BYTE   W06
        BYTE                   Dn4
        BYTE   W06
        BYTE                   Gn3
        BYTE   W06
        BYTE                   An3
        BYTE   W06
        BYTE                   Gn3
        BYTE   W06
        BYTE                   Cs4
        BYTE   W06
        BYTE                   Fs3
        BYTE   W06
        BYTE                   Gs3
        BYTE   W06
        BYTE                   Fs3
        BYTE   W06
// 027   ----------------------------------------
        BYTE                   Cs3
        BYTE   W06
        BYTE                   Fs3
        BYTE   W06
        BYTE                   Gs3
        BYTE   W06
        BYTE                   Fs3
        BYTE   W06
        BYTE                   Cs4
        BYTE   W06
        BYTE                   Fs3
        BYTE   W06
        BYTE                   Gs3
        BYTE   W06
        BYTE                   Fs3
        BYTE   W06
        BYTE                   Dn4
        BYTE   W06
        BYTE                   Gn3
        BYTE   W06
        BYTE                   An3
        BYTE   W06
        BYTE                   Gn3
        BYTE   W06
        BYTE                   Dn3
        BYTE   W06
        BYTE                   Gn3
        BYTE   W06
        BYTE                   An3
        BYTE   W06
        BYTE                   Gn3
        BYTE   W06
// 028   ----------------------------------------
        BYTE                   Dn4
        BYTE   W06
        BYTE                   Gn3
        BYTE   W06
        BYTE                   An3
        BYTE   W06
        BYTE                   Gn3
        BYTE   W06
        BYTE                   Ds4
        BYTE   W06
        BYTE                   Gs3
        BYTE   W06
        BYTE                   As3
        BYTE   W06
        BYTE                   Gs3
        BYTE   W06
        BYTE                   Ds3
        BYTE   W06
        BYTE                   Gs3
        BYTE   W06
        BYTE                   As3
        BYTE   W06
        BYTE                   Gs3
        BYTE   W06
        BYTE                   Ds4
        BYTE   W06
        BYTE                   Gs3
        BYTE   W06
        BYTE                   As3
        BYTE   W06
        BYTE                   Gs3
        BYTE   W06
// 029   ----------------------------------------
        BYTE   W96
// 030   ----------------------------------------
        BYTE   W96
// 031   ----------------------------------------
        BYTE   W48
        BYTE   GoTo
         POIN2  EmeraldDragon_0_LOOP
        BYTE   W12
        BYTE   FINE

//****************** Track 1 (Midi-Chn.1) ******************//

EmeraldDragon_1:
        BYTE   KEYSH   EmeraldDragon_key+0
// 000   ----------------------------------------
        BYTE           VOICE   2
        BYTE           VOL     43
        BYTE           PAN     c_v+11
        BYTE           BENDR   12
        BYTE   W96
// 001   ----------------------------------------
        BYTE           N12     Cn1   v111
        BYTE   W12
        BYTE                   Cn1   v097
        BYTE   W12
        BYTE                   Cn1   v117
        BYTE   W12
        BYTE                   Cn1
        BYTE   W12
        BYTE                   Cn1
        BYTE   W12
        BYTE                   Cn1   v115
        BYTE   W12
        BYTE                   Cn1   v088
        BYTE   W12
        BYTE                   Cn1   v117
        BYTE   W12
// 002   ----------------------------------------
EmeraldDragon_1_LOOP:
        BYTE           N12     Cn1   v080
        BYTE   W12
        BYTE                   Cn1   v117
        BYTE   W12
        BYTE                   Cn1
        BYTE   W12
        BYTE                   Cn1
        BYTE   W12
        BYTE                   Cn1
        BYTE   W12
        BYTE                   Cn1   v080
        BYTE   W12
        BYTE                   Cn1   v094
        BYTE   W12
        BYTE                   Cn1   v117
        BYTE   W12
// 003   ----------------------------------------
        BYTE                   Cn1
        BYTE   W12
        BYTE                   Cn1   v100
        BYTE   W12
        BYTE                   Cn1   v117
        BYTE   W12
        BYTE                   Cn1
        BYTE   W12
        BYTE                   Cn1
        BYTE   W12
        BYTE                   Cn1   v105
        BYTE   W12
        BYTE                   Cn1   v080
        BYTE   W12
        BYTE                   Cn1   v117
        BYTE   W12
// 004   ----------------------------------------
        BYTE                   Cn1   v074
        BYTE   W12
        BYTE                   Cn1   v117
        BYTE   W12
        BYTE                   Cn1
        BYTE   W12
        BYTE                   Cn1
        BYTE   W12
        BYTE                   Cn1
        BYTE   W12
        BYTE                   Cn1   v103
        BYTE   W12
        BYTE                   Cn1   v094
        BYTE   W12
        BYTE                   Cn1   v117
        BYTE   W12
// 005   ----------------------------------------
        BYTE                   Cn1
        BYTE   W12
        BYTE                   Cn1   v082
        BYTE   W12
        BYTE                   Cn1   v117
        BYTE   W12
        BYTE                   Cn1
        BYTE   W12
        BYTE                   Cn1
        BYTE   W12
        BYTE                   Cn1   v111
        BYTE   W12
        BYTE                   Cn1   v082
        BYTE   W12
        BYTE                   Cn1   v117
        BYTE   W12
// 006   ----------------------------------------
        BYTE                   Cn1   v080
        BYTE   W12
        BYTE                   Cn1   v069
        BYTE   W12
        BYTE                   Cn1   v117
        BYTE   W12
        BYTE                   Cn1
        BYTE   W12
        BYTE                   Cn1
        BYTE   W12
        BYTE                   Cn1   v080
        BYTE   W12
        BYTE                   Cn1   v094
        BYTE   W12
        BYTE                   Cn1   v117
        BYTE   W12
// 007   ----------------------------------------
        BYTE                   Cn1
        BYTE   W12
        BYTE                   Cn1   v088
        BYTE   W12
        BYTE                   Cn1   v117
        BYTE   W12
        BYTE                   Cn1
        BYTE   W12
        BYTE                   Cn1
        BYTE   W12
        BYTE                   Cn1   v111
        BYTE   W12
        BYTE                   Cn1   v082
        BYTE   W12
        BYTE                   Cn1   v117
        BYTE   W12
// 008   ----------------------------------------
        BYTE                   Cn1   v092
        BYTE   W12
        BYTE                   Cn1   v063
        BYTE   W12
        BYTE                   Cn1   v117
        BYTE   W12
        BYTE                   Cn1
        BYTE   W12
        BYTE                   Cn1
        BYTE   W12
        BYTE                   Cn1   v097
        BYTE   W12
        BYTE                   Cn1   v103
        BYTE   W12
        BYTE                   Cn1   v117
        BYTE   W12
// 009   ----------------------------------------
EmeraldDragon_1_9:
        BYTE           N12     As0   v096
        BYTE   W12
        BYTE                   As1
        BYTE   W12
        BYTE                   As0
        BYTE   W12
        BYTE                   Bn0
        BYTE   W12
        BYTE                   Bn1
        BYTE   W12
        BYTE                   Bn0
        BYTE   W12
        BYTE                   As0
        BYTE   W12
        BYTE                   As1
        BYTE   W12
        BYTE   PEND
// 010   ----------------------------------------
        BYTE                   As0
        BYTE   W12
        BYTE                   Bn0
        BYTE           BEND    c_v+5
        BYTE   W01
        BYTE                   c_v+0
        BYTE   W11
        BYTE           N12     Bn1
        BYTE   W12
        BYTE                   Bn0
        BYTE   W12
        BYTE                   Cn1
        BYTE   W12
        BYTE                   Cn2
        BYTE   W12
        BYTE                   Cs1
        BYTE   W12
        BYTE                   Cs2
        BYTE   W12
// 011   ----------------------------------------
        BYTE   PATT
         POIN2  EmeraldDragon_1_9
// 012   ----------------------------------------
        BYTE           N12     As0   v096
        BYTE   W12
        BYTE                   Bn0
        BYTE   W12
        BYTE                   Bn1
        BYTE   W12
        BYTE                   Bn0
        BYTE   W12
        BYTE                   Gn0
        BYTE   W12
        BYTE                   Gn1
        BYTE   W12
        BYTE                   Gs0
        BYTE   W12
        BYTE                   Gs1
        BYTE   W12
// 013   ----------------------------------------
        BYTE   PATT
         POIN2  EmeraldDragon_1_9
// 014   ----------------------------------------
        BYTE           N12     As0   v096
        BYTE   W12
        BYTE                   Bn0
        BYTE   W12
        BYTE                   Bn1
        BYTE   W12
        BYTE                   Bn0
        BYTE   W12
        BYTE                   Cn1
        BYTE   W12
        BYTE                   Cn2
        BYTE   W12
        BYTE                   Cs1
        BYTE   W12
        BYTE                   Cs2
        BYTE   W12
// 015   ----------------------------------------
        BYTE   PATT
         POIN2  EmeraldDragon_1_9
// 016   ----------------------------------------
        BYTE           N12     As0   v096
        BYTE   W12
        BYTE                   Bn0
        BYTE           BEND    c_v+5
        BYTE   W01
        BYTE                   c_v+0
        BYTE   W11
        BYTE           N12     Bn1
        BYTE   W12
        BYTE                   Bn0
        BYTE   W12
        BYTE                   Gn0
        BYTE   W12
        BYTE                   Gn1
        BYTE   W12
        BYTE                   Gs0
        BYTE   W12
        BYTE                   Gs1
        BYTE   W12
// 017   ----------------------------------------
EmeraldDragon_1_17:
        BYTE           N12     Bn0   v096
        BYTE           N12     BnM1
        BYTE   W12
        BYTE                   Bn0
        BYTE           N12     BnM1
        BYTE   W12
        BYTE                   Bn1   v076
        BYTE           N12     Bn0
        BYTE   W12
        BYTE                   Bn0   v096
        BYTE           N12     BnM1
        BYTE   W12
        BYTE                   Bn1   v076
        BYTE           N12     Bn0
        BYTE   W12
        BYTE                   Bn0   v096
        BYTE           N12     BnM1
        BYTE   W12
        BYTE                   Cn1
        BYTE           N12     Cn0
        BYTE   W12
        BYTE                   Cn2   v076
        BYTE           N12     Cn1
        BYTE   W12
        BYTE   PEND
// 018   ----------------------------------------
EmeraldDragon_1_18:
        BYTE           N12     Cn1   v096
        BYTE           N12     Cn0
        BYTE   W12
        BYTE                   Cn1
        BYTE           N12     Cn0
        BYTE   W12
        BYTE                   Cn2   v076
        BYTE           N12     Cn1
        BYTE   W12
        BYTE                   Cn1   v096
        BYTE           N12     Cn0
        BYTE   W12
        BYTE                   Bn0
        BYTE           N12     BnM1
        BYTE   W12
        BYTE                   Bn0
        BYTE           N12     BnM1
        BYTE   W12
        BYTE                   Bn1   v076
        BYTE           N12     Bn0
        BYTE   W12
        BYTE                   Bn0   v096
        BYTE           N12     BnM1
        BYTE   W12
        BYTE   PEND
// 019   ----------------------------------------
        BYTE                   Bn1   v076
        BYTE           N12     Bn0
        BYTE   W12
        BYTE                   Bn0   v096
        BYTE           N12     BnM1
        BYTE   W12
        BYTE                   As0
        BYTE           N12     AsM1
        BYTE   W12
        BYTE                   As1   v076
        BYTE           N12     As0
        BYTE   W12
        BYTE                   As0   v096
        BYTE           N12     AsM1
        BYTE   W12
        BYTE                   As0
        BYTE           N12     AsM1
        BYTE   W12
        BYTE                   As1   v076
        BYTE           N12     As0
        BYTE   W12
        BYTE                   As0   v096
        BYTE           N12     AsM1
        BYTE   W12
// 020   ----------------------------------------
        BYTE   PATT
         POIN2  EmeraldDragon_1_17
// 021   ----------------------------------------
        BYTE   PATT
         POIN2  EmeraldDragon_1_18
// 022   ----------------------------------------
        BYTE           N12     Bn1   v076
        BYTE           N12     Bn0
        BYTE   W12
        BYTE                   Bn0   v096
        BYTE           N12     BnM1
        BYTE   W12
        BYTE                   As0
        BYTE           N12     AsM1
        BYTE   W12
        BYTE                   As1   v076
        BYTE           N12     As0
        BYTE   W12
        BYTE                   As0   v096
        BYTE           N12     AsM1
        BYTE   W12
        BYTE                   As0
        BYTE           N12     AsM1
        BYTE   W12
        BYTE                   As1   v076
        BYTE           N12     As0
        BYTE   W12
        BYTE                   As0   v096
        BYTE           N12     AsM1
        BYTE           BEND    c_v+5
        BYTE   W01
        BYTE                   c_v+0
        BYTE   W11
// 023   ----------------------------------------
        BYTE           N12     Cs1
        BYTE           N12     Cs0
        BYTE   W12
        BYTE                   Cs1
        BYTE           N12     Cs0
        BYTE   W12
        BYTE                   Cs2   v076
        BYTE           N12     Cs1
        BYTE   W12
        BYTE                   Cs1   v096
        BYTE           N12     Cs0
        BYTE   W12
        BYTE                   Cs2   v076
        BYTE           N12     Cs1
        BYTE   W12
        BYTE                   Cs1   v096
        BYTE           N12     Cs0
        BYTE           BEND    c_v+5
        BYTE   W01
        BYTE                   c_v+0
        BYTE   W11
        BYTE           N12     Dn1
        BYTE           N12     Dn0
        BYTE   W12
        BYTE                   Dn2   v076
        BYTE           N12     Dn1
        BYTE   W12
// 024   ----------------------------------------
        BYTE                   Dn1   v096
        BYTE           N12     Dn0
        BYTE   W12
        BYTE                   Dn1
        BYTE           N12     Dn0
        BYTE   W12
        BYTE                   Dn2   v076
        BYTE           N12     Dn1
        BYTE   W12
        BYTE                   Dn1   v096
        BYTE           N12     Dn0
        BYTE           BEND    c_v+5
        BYTE   W01
        BYTE                   c_v+0
        BYTE   W11
        BYTE           N12     Cs1
        BYTE           N12     Cs0
        BYTE   W12
        BYTE                   Cs1
        BYTE           N12     Cs0
        BYTE   W12
        BYTE                   Cs2   v076
        BYTE           N12     Cs1
        BYTE   W12
        BYTE                   Cs1   v096
        BYTE           N12     Cs0
        BYTE   W12
// 025   ----------------------------------------
EmeraldDragon_1_25:
        BYTE           N12     Cs2   v076
        BYTE           N12     Cs1
        BYTE   W12
        BYTE                   Cs1   v096
        BYTE           N12     Cs0
        BYTE   W12
        BYTE                   Cn1
        BYTE           N12     Cn0
        BYTE   W12
        BYTE                   Cn2   v076
        BYTE           N12     Cn1
        BYTE   W12
        BYTE                   Cn1   v096
        BYTE           N12     Cn0
        BYTE   W12
        BYTE                   Cn1
        BYTE           N12     Cn0
        BYTE   W12
        BYTE                   Cn2   v076
        BYTE           N12     Cn1
        BYTE   W12
        BYTE                   Cn1   v096
        BYTE           N12     Cn0
        BYTE   W12
        BYTE   PEND
// 026   ----------------------------------------
        BYTE                   Cs1
        BYTE           N12     Cs0
        BYTE   W12
        BYTE                   Cs1
        BYTE           N12     Cs0
        BYTE   W12
        BYTE                   Cs2   v076
        BYTE           N12     Cs1
        BYTE   W12
        BYTE                   Cs1   v096
        BYTE           N12     Cs0
        BYTE   W12
        BYTE                   Cs2   v076
        BYTE           N12     Cs1
        BYTE   W12
        BYTE                   Cs1   v096
        BYTE           N12     Cs0
        BYTE   W12
        BYTE                   Dn1
        BYTE           N12     Dn0
        BYTE   W12
        BYTE                   Dn2   v076
        BYTE           N12     Dn1
        BYTE   W12
// 027   ----------------------------------------
        BYTE                   Dn1   v096
        BYTE           N12     Dn0
        BYTE   W12
        BYTE                   Dn1
        BYTE           N12     Dn0
        BYTE   W12
        BYTE                   Dn2   v076
        BYTE           N12     Dn1
        BYTE   W12
        BYTE                   Dn1   v096
        BYTE           N12     Dn0
        BYTE   W12
        BYTE                   Cs1
        BYTE           N12     Cs0
        BYTE   W12
        BYTE                   Cs1
        BYTE           N12     Cs0
        BYTE   W12
        BYTE                   Cs2   v076
        BYTE           N12     Cs1
        BYTE   W12
        BYTE                   Cs1   v096
        BYTE           N12     Cs0
        BYTE   W12
// 028   ----------------------------------------
        BYTE   PATT
         POIN2  EmeraldDragon_1_25
// 029   ----------------------------------------
        BYTE           N12     As0   v096
        BYTE   W12
        BYTE                   As1
        BYTE   W12
        BYTE                   As0
        BYTE   W12
        BYTE                   Cs1
        BYTE   W12
        BYTE                   Cs2
        BYTE   W12
        BYTE                   Cs1
        BYTE   W12
        BYTE                   En1
        BYTE   W12
        BYTE                   En2
        BYTE   W12
// 030   ----------------------------------------
        BYTE                   Cs2
        BYTE   W12
        BYTE                   Gn1
        BYTE   W12
        BYTE                   Gn2
        BYTE   W12
        BYTE                   Gn1
        BYTE   W12
        BYTE           BEND    c_v+5
        BYTE           N12     Cn1   v111
        BYTE   W12
        BYTE                   Cn1   v097
        BYTE   W12
        BYTE                   Cn1   v117
        BYTE   W12
        BYTE                   Cn1
        BYTE   W12
// 031   ----------------------------------------
        BYTE                   Cn1
        BYTE   W12
        BYTE                   Cn1   v115
        BYTE   W12
        BYTE                   Cn1   v088
        BYTE   W12
        BYTE                   Cn1   v117
        BYTE   W12
        BYTE           BEND    c_v+0
        BYTE   GoTo
         POIN2  EmeraldDragon_1_LOOP
        BYTE   W12
        BYTE   FINE

//****************** Track 2 (Midi-Chn.2) ******************//

EmeraldDragon_2:
        BYTE   KEYSH   EmeraldDragon_key+0
// 000   ----------------------------------------
        BYTE           VOICE   109
        BYTE           VOL     32
        BYTE           PAN     c_v-44
        BYTE           BENDR   12
        BYTE           N12     Cn4   v078
        BYTE   W06
        BYTE                   Bn3   v087
        BYTE   W06
        BYTE                   Cn4   v078
        BYTE   W06
        BYTE           N06     Ds4   v084
        BYTE           N12     Gs4   v069
        BYTE   W06
        BYTE           N06     Dn4   v084
        BYTE           N12     Gn4   v069
        BYTE   W06
        BYTE           N06     Ds4   v084
        BYTE           N12     Gs4   v069
        BYTE   W06
        BYTE                   Cn5   v072
        BYTE           N06     Fn4   v084
        BYTE   W06
        BYTE                   En4   v087
        BYTE           N12     Bn4   v078
        BYTE   W06
        BYTE           N06     Fn4   v081
        BYTE           N06     Cn5
        BYTE   W06
        BYTE                   Cn5   v063
        BYTE           N12     Fn5   v081
        BYTE   W06
        BYTE           N06     Bn4   v087
        BYTE           N12     En5   v084
        BYTE   W06
        BYTE                   Fn5   v072
        BYTE           N06     Cn5   v084
        BYTE   W06
        BYTE                   Ds5   v087
        BYTE           N12     Gs5
        BYTE   W06
        BYTE           N06     Dn5
        BYTE           N12     Gn5   v096
        BYTE   W06
        BYTE           N06     Ds5   v084
        BYTE           N12     Gs5   v093
        BYTE   W06
        BYTE                   Cn6   v072
        BYTE           N12     Fn5   v066
        BYTE   W06
// 001   ----------------------------------------
        BYTE                   As4   v096
        BYTE           N06     Fn4   v084
        BYTE   W36
        BYTE                   Ds4   v096
        BYTE           N12     Gs4
        BYTE   W36
        BYTE           N06     Dn4   v078
        BYTE           N12     Gn4   v096
        BYTE   W24
// 002   ----------------------------------------
EmeraldDragon_2_LOOP:
        BYTE   W12
        BYTE           N06     Cs4   v084
        BYTE           N12     Fs4   v096
        BYTE   W36
        BYTE           N06     Bn3
        BYTE           N12     En4   v078
        BYTE   W24
        BYTE           N06     Cn4   v084
        BYTE           N12     Fn4   v096
        BYTE   W24
// 003   ----------------------------------------
        BYTE           N06
        BYTE           N12     As4
        BYTE   W36
        BYTE           N06     Ds4
        BYTE           N12     Gs4   v063
        BYTE   W36
        BYTE           N06     Fs4   v072
        BYTE           N12     Bn4   v096
        BYTE   W24
// 004   ----------------------------------------
        BYTE   W12
        BYTE                   Fs4
        BYTE           N06     Cs4
        BYTE   W36
        BYTE           N18     Cs5   v075
        BYTE           N18     Gs4   v096
        BYTE   W24
        BYTE                   Bn4
        BYTE           N18     Fs4   v084
        BYTE   W24
// 005   ----------------------------------------
        BYTE           N06     Fn4   v096
        BYTE           N12     As4
        BYTE   W36
        BYTE           N06     Ds4
        BYTE           N12     Gs4
        BYTE   W36
        BYTE           N06     Dn4   v075
        BYTE           N12     Gn4   v096
        BYTE   W24
// 006   ----------------------------------------
        BYTE   W12
        BYTE           N06     Cs4   v066
        BYTE           N12     Fs4   v096
        BYTE   W36
        BYTE           N06     Bn3
        BYTE           N12     En4   v066
        BYTE   W24
        BYTE           N06     Cn4   v081
        BYTE           N12     Fn4   v096
        BYTE   W24
// 007   ----------------------------------------
        BYTE           N06
        BYTE           N12     As4
        BYTE   W36
        BYTE           N06     Ds4
        BYTE           N12     Gs4
        BYTE   W36
        BYTE                   Bn4
        BYTE           N12     Fs4   v075
        BYTE   W24
// 008   ----------------------------------------
        BYTE   W12
        BYTE                   Cs4   v063
        BYTE           N12     Fs4   v096
        BYTE   W36
        BYTE           N18     Cs5   v063
        BYTE           N18     Gs4   v096
        BYTE   W24
        BYTE                   Bn4
        BYTE           N18     Fs4   v087
        BYTE   W24
// 009   ----------------------------------------
EmeraldDragon_2_9:
        BYTE           N12     As4   v096
        BYTE   W12
        BYTE                   Fs4
        BYTE   W12
        BYTE                   Cs4
        BYTE   W12
        BYTE                   Bn4
        BYTE   W12
        BYTE                   Gn4
        BYTE   W12
        BYTE                   Dn4
        BYTE   W12
        BYTE                   As4
        BYTE   W12
        BYTE                   Fs4
        BYTE   W12
        BYTE   PEND
// 010   ----------------------------------------
EmeraldDragon_2_10:
        BYTE           N12     Cs4   v096
        BYTE   W12
        BYTE                   Bn4
        BYTE   W12
        BYTE                   Gn4
        BYTE   W12
        BYTE                   Dn4
        BYTE   W12
        BYTE                   Cn5
        BYTE   W12
        BYTE                   Gs4
        BYTE   W12
        BYTE                   Cs5
        BYTE   W12
        BYTE                   An4
        BYTE   W12
        BYTE   PEND
// 011   ----------------------------------------
        BYTE   PATT
         POIN2  EmeraldDragon_2_9
// 012   ----------------------------------------
EmeraldDragon_2_12:
        BYTE           N12     Cs4   v096
        BYTE   W12
        BYTE                   Bn4
        BYTE   W12
        BYTE                   Gn4
        BYTE   W12
        BYTE                   Dn4
        BYTE   W12
        BYTE                   Ds4
        BYTE   W12
        BYTE                   As3
        BYTE   W12
        BYTE                   En4
        BYTE   W12
        BYTE                   Bn3
        BYTE   W12
        BYTE   PEND
// 013   ----------------------------------------
        BYTE   PATT
         POIN2  EmeraldDragon_2_9
// 014   ----------------------------------------
        BYTE   PATT
         POIN2  EmeraldDragon_2_10
// 015   ----------------------------------------
        BYTE   PATT
         POIN2  EmeraldDragon_2_9
// 016   ----------------------------------------
        BYTE   PATT
         POIN2  EmeraldDragon_2_12
// 017   ----------------------------------------
        BYTE           N72     Cn4   v096
        BYTE   W72
        BYTE                   Bn3
        BYTE   W24
// 018   ----------------------------------------
        BYTE   W48
        BYTE                   Cn4
        BYTE   W48
// 019   ----------------------------------------
        BYTE   W24
        BYTE                   Cs4
        BYTE   W72
// 020   ----------------------------------------
        BYTE                   Cn4
        BYTE           N72     Gn3
        BYTE   W72
        BYTE                   Bn3
        BYTE           N72     Fs3
        BYTE   W24
// 021   ----------------------------------------
        BYTE   W48
        BYTE                   Cn4
        BYTE           N72     Gn3
        BYTE   W48
// 022   ----------------------------------------
        BYTE   W24
        BYTE                   Cs4
        BYTE           N72     Gs3
        BYTE   W72
// 023   ----------------------------------------
        BYTE                   Dn4
        BYTE           N72     An3
        BYTE   W72
        BYTE                   Gs3
        BYTE           N72     Cs4
        BYTE   W24
// 024   ----------------------------------------
        BYTE   W48
        BYTE                   An3
        BYTE           N72     Dn4
        BYTE   W48
// 025   ----------------------------------------
        BYTE   W24
        BYTE                   As3
        BYTE           N72     Ds4
        BYTE   W72
// 026   ----------------------------------------
        BYTE                   An3
        BYTE           N72     Dn4
        BYTE           N72     Fn4
        BYTE   W72
        BYTE                   Gs3
        BYTE           N72     Cs4
        BYTE           N72     En4
        BYTE   W24
// 027   ----------------------------------------
        BYTE   W48
        BYTE                   An3
        BYTE           N72     Dn4
        BYTE           N72     Fn4
        BYTE   W48
// 028   ----------------------------------------
        BYTE   W24
        BYTE                   As3
        BYTE           N72     Ds4
        BYTE           N72     Fs4
        BYTE   W72
// 029   ----------------------------------------
        BYTE           N12     An4   v066
        BYTE   W06
        BYTE           N06     Gn4   v102
        BYTE   W06
        BYTE           N12     Dn4   v072
        BYTE   W06
        BYTE           N06     An3   v081
        BYTE   W06
        BYTE           N12     Gn3   v102
        BYTE   W06
        BYTE           N06     Dn3   v093
        BYTE   W06
        BYTE           N12     Gn4   v087
        BYTE   W06
        BYTE           N06     Fn4   v102
        BYTE   W06
        BYTE           N12     Cn4   v078
        BYTE   W06
        BYTE           N06     Gn3   v102
        BYTE   W06
        BYTE           N12     Fn3
        BYTE   W06
        BYTE           N06     Cn3
        BYTE   W06
        BYTE           N12     Gs4
        BYTE   W06
        BYTE           N06     Ds4
        BYTE   W06
        BYTE           N12     Cs4
        BYTE   W06
        BYTE           N06     Gs3
        BYTE   W06
// 030   ----------------------------------------
        BYTE           N12     Ds3
        BYTE   W06
        BYTE           N06     Cs3   v093
        BYTE   W06
        BYTE           N12     As4   v102
        BYTE   W06
        BYTE           N06     Fs4   v081
        BYTE   W06
        BYTE           N12     Cn4   v066
        BYTE   W06
        BYTE           N06     As3   v102
        BYTE   W06
        BYTE           N12     Fs3
        BYTE   W06
        BYTE           N06     Cn3
        BYTE   W06
        BYTE           N12     As4   v096
        BYTE           N06     Fn4   v084
        BYTE   W36
        BYTE                   Ds4   v096
        BYTE           N12     Gs4
        BYTE   W12
// 031   ----------------------------------------
        BYTE   W24
        BYTE           N06     Dn4   v078
        BYTE           N12     Gn4   v096
        BYTE   W24
        BYTE   GoTo
         POIN2  EmeraldDragon_2_LOOP
        BYTE   W12
        BYTE   FINE

//****************** Track 3 (Midi-Chn.3) ******************//

EmeraldDragon_3:
        BYTE   KEYSH   EmeraldDragon_key+0
// 000   ----------------------------------------
        BYTE           VOICE   55
        BYTE           VOL     59
        BYTE   W96
// 001   ----------------------------------------
        BYTE           N48     As2   v105
        BYTE   W96
// 002   ----------------------------------------
EmeraldDragon_3_LOOP:
        BYTE   W96
// 003   ----------------------------------------
        BYTE   W96
// 004   ----------------------------------------
        BYTE   W48
        BYTE           N36     Cs3   v105
        BYTE   W24
        BYTE                   Bn2
        BYTE   W24
// 005   ----------------------------------------
        BYTE           N48     As2   v104
        BYTE   W96
// 006   ----------------------------------------
        BYTE   W96
// 007   ----------------------------------------
        BYTE   W96
// 008   ----------------------------------------
        BYTE   W48
        BYTE           N36     Cs3   v096
        BYTE   W24
        BYTE                   Bn2
        BYTE   W24
// 009   ----------------------------------------
        BYTE           N48     As2
        BYTE   W96
// 010   ----------------------------------------
EmeraldDragon_3_10:
        BYTE   W48
        BYTE           N24     Cn3   v080
        BYTE   W24
        BYTE                   Cs3
        BYTE   W24
        BYTE   PEND
// 011   ----------------------------------------
        BYTE   W96
// 012   ----------------------------------------
EmeraldDragon_3_12:
        BYTE   W48
        BYTE           N24     Gn2   v080
        BYTE   W24
        BYTE                   Gs2
        BYTE   W24
        BYTE   PEND
// 013   ----------------------------------------
        BYTE   W96
// 014   ----------------------------------------
        BYTE   PATT
         POIN2  EmeraldDragon_3_10
// 015   ----------------------------------------
        BYTE   W96
// 016   ----------------------------------------
        BYTE   PATT
         POIN2  EmeraldDragon_3_12
// 017   ----------------------------------------
        BYTE           N48     Cs3   v080
        BYTE   W96
// 018   ----------------------------------------
        BYTE   W96
// 019   ----------------------------------------
        BYTE   W96
// 020   ----------------------------------------
        BYTE                   Cs3   v088
        BYTE   W96
// 021   ----------------------------------------
        BYTE   W96
// 022   ----------------------------------------
        BYTE   W96
// 023   ----------------------------------------
        BYTE                   Ds3   v096
        BYTE   W96
// 024   ----------------------------------------
        BYTE   W96
// 025   ----------------------------------------
        BYTE   W96
// 026   ----------------------------------------
        BYTE                   Ds3   v104
        BYTE   W96
// 027   ----------------------------------------
        BYTE   W96
// 028   ----------------------------------------
        BYTE   W96
// 029   ----------------------------------------
        BYTE           N24     As2   v072
        BYTE   W36
        BYTE                   Cs3   v080
        BYTE   W36
        BYTE                   En3   v088
        BYTE   W24
// 030   ----------------------------------------
        BYTE   W12
        BYTE                   Gn3   v096
        BYTE   W24
        BYTE                   As3   v105
        BYTE   W12
        BYTE           N48     As2
        BYTE   W48
// 031   ----------------------------------------
        BYTE   W48
        BYTE   GoTo
         POIN2  EmeraldDragon_3_LOOP
        BYTE   W12
        BYTE   FINE

//****************** Track 4 (Midi-Chn.4) ******************//

EmeraldDragon_4:
        BYTE   KEYSH   EmeraldDragon_key+0
// 000   ----------------------------------------
        BYTE           VOICE   17
        BYTE           VOL     51
        BYTE           PAN     c_v-19
        BYTE           BENDR   12
        BYTE   W96
// 001   ----------------------------------------
        BYTE           N36     As3   v102
        BYTE           N12     Fn3
        BYTE   W36
        BYTE                   Ds3
        BYTE           N36     Gs3   v099
        BYTE   W36
        BYTE                   Gn3   v086
        BYTE           N12     Dn3   v102
        BYTE   W24
// 002   ----------------------------------------
EmeraldDragon_4_LOOP:
        BYTE   W12
        BYTE           N12     Cs3   v102
        BYTE           N36     Fs3
        BYTE   W36
        BYTE           N12     Bn2
        BYTE           N24     En3
        BYTE   W24
        BYTE           N12     Cn3
        BYTE           N24     Fn3   v086
        BYTE   W24
// 003   ----------------------------------------
        BYTE           N12     Fn3   v102
        BYTE           N36     As3   v081
        BYTE   W36
        BYTE           N12     Ds3   v102
        BYTE           N36     Gs3
        BYTE   W36
        BYTE           N12     Fs3   v072
        BYTE           N36     Bn3   v102
        BYTE   W24
// 004   ----------------------------------------
        BYTE   W12
        BYTE                   Cs3
        BYTE           N36     Fs3
        BYTE   W36
        BYTE           N24     Gs3
        BYTE           N24     Cs4
        BYTE           N12     Ds3   v072
        BYTE   W24
        BYTE           N24     Fs3   v086
        BYTE           N24     Bn3   v102
        BYTE   W24
// 005   ----------------------------------------
        BYTE           N36     As3   v072
        BYTE           N12     Fn3   v102
        BYTE   W36
        BYTE                   Ds3
        BYTE           N36     Gs3   v099
        BYTE   W36
        BYTE           N12     Dn3   v075
        BYTE           N36     Gn3   v102
        BYTE   W24
// 006   ----------------------------------------
        BYTE   W12
        BYTE           N12     Cs3   v086
        BYTE           N36     Fs3   v102
        BYTE   W36
        BYTE           N12     Bn2
        BYTE           N24     En3
        BYTE   W24
        BYTE           N12     Cn3   v083
        BYTE           N24     Fn3   v086
        BYTE   W24
// 007   ----------------------------------------
        BYTE           N12     Fn3   v102
        BYTE           N36     As3   v099
        BYTE   W36
        BYTE           N12     Ds3   v102
        BYTE           N36     Gs3   v094
        BYTE   W36
        BYTE           N12     Fs3   v075
        BYTE           N36     Bn3   v102
        BYTE   W24
// 008   ----------------------------------------
        BYTE   W12
        BYTE                   Cs3   v086
        BYTE           N36     Fs3   v102
        BYTE   W36
        BYTE           N24     Gs3
        BYTE           N24     Cs4
        BYTE           N12     Ds3   v072
        BYTE   W24
        BYTE           N24     Fs3   v091
        BYTE           N24     Bn3   v102
        BYTE   W24
// 009   ----------------------------------------
EmeraldDragon_4_9:
        BYTE           N12     As3   v098
        BYTE           N06     Fs3   v085
        BYTE           N12     Cs4
        BYTE   W36
        BYTE                   Bn3   v098
        BYTE           N06     Gn3   v085
        BYTE           N12     Dn4
        BYTE   W36
        BYTE                   As3   v098
        BYTE           N06     Fs3   v085
        BYTE           N12     Cs4
        BYTE   W24
        BYTE   PEND
// 010   ----------------------------------------
EmeraldDragon_4_10:
        BYTE   W12
        BYTE           N12     Bn3   v091
        BYTE           N06     Gn3   v085
        BYTE           N12     Dn4
        BYTE   W36
        BYTE                   Cn4
        BYTE           N06     Gs3
        BYTE           N12     Ds4
        BYTE   W24
        BYTE                   Cs4   v098
        BYTE           N06     An3   v085
        BYTE           N12     En4
        BYTE   W24
        BYTE   PEND
// 011   ----------------------------------------
EmeraldDragon_4_11:
        BYTE           N12     As3   v095
        BYTE           N06     Fs3   v085
        BYTE           N12     Cs4
        BYTE   W36
        BYTE                   Bn3   v098
        BYTE           N06     Gn3   v085
        BYTE           N12     Dn4
        BYTE   W36
        BYTE                   As3   v098
        BYTE           N06     Fs3   v085
        BYTE           N12     Cs4
        BYTE   W24
        BYTE   PEND
// 012   ----------------------------------------
EmeraldDragon_4_12:
        BYTE   W12
        BYTE           N12     Bn3   v089
        BYTE           N06     Gn3   v085
        BYTE           N12     Dn4
        BYTE   W36
        BYTE                   Ds3   v095
        BYTE           N06     As2   v085
        BYTE           N12     Gn3
        BYTE   W24
        BYTE           N06     Bn2
        BYTE           N12     En3   v098
        BYTE           N12     Gs3   v085
        BYTE   W24
        BYTE   PEND
// 013   ----------------------------------------
        BYTE   PATT
         POIN2  EmeraldDragon_4_9
// 014   ----------------------------------------
        BYTE   PATT
         POIN2  EmeraldDragon_4_10
// 015   ----------------------------------------
        BYTE   PATT
         POIN2  EmeraldDragon_4_11
// 016   ----------------------------------------
        BYTE   PATT
         POIN2  EmeraldDragon_4_12
// 017   ----------------------------------------
        BYTE           N12     Gn3   v096
        BYTE           N18     Cn4   v114
        BYTE   W36
        BYTE           N12     Gn3   v096
        BYTE           N18     Cn4   v108
        BYTE   W36
        BYTE           N12     Fs3   v080
        BYTE           N12     Bn3   v096
        BYTE   W24
// 018   ----------------------------------------
        BYTE                   Fs3   v105
        BYTE           N12     Bn3   v108
        BYTE   W24
        BYTE                   Fs3   v084
        BYTE           N12     Bn3   v096
        BYTE   W24
        BYTE                   Gn3   v108
        BYTE           N18     Cn4
        BYTE   W36
        BYTE           N12     Gn3   v096
        BYTE           N18     Cn4   v084
        BYTE   W12
// 019   ----------------------------------------
        BYTE   W24
        BYTE                   Cs4   v108
        BYTE           N12     Gs3   v078
        BYTE   W24
        BYTE           N18     Cs4   v069
        BYTE           N12     Gs3   v084
        BYTE   W24
        BYTE           N18     Cs4   v096
        BYTE           N12     Gs3   v108
        BYTE   W24
// 020   ----------------------------------------
        BYTE           N18     Cn4   v084
        BYTE           N12     Gn3   v078
        BYTE   W36
        BYTE           N18     Cn4   v108
        BYTE           N12     Gn3   v084
        BYTE   W36
        BYTE                   Bn3
        BYTE           N12     Fs3   v096
        BYTE   W24
// 021   ----------------------------------------
        BYTE                   Bn3   v108
        BYTE           N12     Fs3   v078
        BYTE   W24
        BYTE                   Bn3   v096
        BYTE           N12     Fs3   v084
        BYTE   W24
        BYTE           N18     Cn4   v108
        BYTE           N12     Gn3   v087
        BYTE   W36
        BYTE                   Gn3   v096
        BYTE           N18     Cn4   v084
        BYTE   W12
// 022   ----------------------------------------
        BYTE   W24
        BYTE                   Cs4   v108
        BYTE           N12     Gs3   v102
        BYTE   W24
        BYTE           N18     Cs4   v096
        BYTE           N12     Gs3   v084
        BYTE   W24
        BYTE           N18     Cs4   v096
        BYTE           N12     Gs3   v108
        BYTE   W24
// 023   ----------------------------------------
        BYTE                   An3   v096
        BYTE           N18     Dn4   v084
        BYTE   W36
        BYTE           N12     An3   v093
        BYTE           N24     Dn4   v108
        BYTE   W36
        BYTE           N18     Cs4   v096
        BYTE           N12     Gs3   v084
        BYTE   W24
// 024   ----------------------------------------
        BYTE           N18     Cs4   v108
        BYTE           N12     Gs3   v099
        BYTE   W24
        BYTE           N18     Cs4   v096
        BYTE           N12     Gs3   v084
        BYTE   W24
        BYTE           N18     Dn4   v108
        BYTE           N12     An3   v087
        BYTE   W36
        BYTE           N24     Dn4   v096
        BYTE           N12     An3   v078
        BYTE   W12
// 025   ----------------------------------------
        BYTE   W24
        BYTE           N18     Ds4   v102
        BYTE           N12     As3   v108
        BYTE   W24
        BYTE           N18     Ds4   v096
        BYTE           N12     As3   v087
        BYTE   W24
        BYTE           N18     Ds4   v069
        BYTE           N12     As3   v108
        BYTE   W24
// 026   ----------------------------------------
        BYTE           N18     Dn4   v084
        BYTE           N12     Fn4   v080
        BYTE           N12     An3   v084
        BYTE   W36
        BYTE           N18     Dn4   v087
        BYTE           N12     Fn4   v080
        BYTE           N12     An3   v108
        BYTE   W36
        BYTE                   En4   v078
        BYTE           N18     Cs4   v084
        BYTE           N12     Gs3
        BYTE   W24
// 027   ----------------------------------------
        BYTE                   En4
        BYTE           N18     Cs4
        BYTE           N12     Gs3
        BYTE   W24
        BYTE           N24     Cs4   v108
        BYTE           N18     En4   v081
        BYTE           N12     Gs3   v108
        BYTE   W24
        BYTE                   Fn4   v084
        BYTE           N18     Dn4   v096
        BYTE           N12     An3   v078
        BYTE   W36
        BYTE                   Fn4   v108
        BYTE           N18     Dn4   v087
        BYTE           N12     An3   v108
        BYTE   W12
// 028   ----------------------------------------
        BYTE   W24
        BYTE                   Fs4   v084
        BYTE           N18     Ds4
        BYTE           N12     As3
        BYTE   W24
        BYTE                   Fs4   v108
        BYTE           N18     Ds4
        BYTE           N12     As3
        BYTE   W24
        BYTE           N18     Ds4   v084
        BYTE           N12     Fs4
        BYTE           N12     As3
        BYTE   W24
// 029   ----------------------------------------
        BYTE           N03     As2   v114
        BYTE           N06     Fn3   v108
        BYTE   W12
        BYTE           N03     As2   v096
        BYTE           N06     Fn3   v084
        BYTE   W12
        BYTE           N03     As2   v108
        BYTE           N06     Fn3
        BYTE   W12
        BYTE           N03     Cs3   v096
        BYTE           N06     Gs3   v080
        BYTE   W12
        BYTE           N03     Cs3   v096
        BYTE           N06     Gs3   v066
        BYTE   W12
        BYTE           N03     Cs3   v096
        BYTE           N06     Gs3   v084
        BYTE   W12
        BYTE           N03     En3   v096
        BYTE           N06     Bn3   v108
        BYTE   W12
        BYTE           N03     En3   v096
        BYTE           N06     Bn3   v078
        BYTE   W12
// 030   ----------------------------------------
        BYTE           N03     En3   v108
        BYTE           N06     Bn3   v096
        BYTE   W12
        BYTE           N03     Gn3
        BYTE           N06     Dn4   v084
        BYTE   W12
        BYTE           N03     Gn3   v096
        BYTE           N06     Dn4   v108
        BYTE   W12
        BYTE           N03     Gn3   v084
        BYTE           N06     Bn3   v072
        BYTE           N12     Dn4   v084
        BYTE   W12
        BYTE           N36     As3   v102
        BYTE           N12     Fn3
        BYTE   W36
        BYTE                   Ds3
        BYTE           N36     Gs3   v099
        BYTE   W12
// 031   ----------------------------------------
        BYTE   W24
        BYTE           N12     Dn3   v102
        BYTE           N36     Gn3   v100
        BYTE   W24
        BYTE   GoTo
         POIN2  EmeraldDragon_4_LOOP
        BYTE   W12
        BYTE   FINE

//****************** Track 5 (Midi-Chn.5) ******************//

EmeraldDragon_5:
        BYTE   KEYSH   EmeraldDragon_key+0
// 000   ----------------------------------------
        BYTE           VOICE   124
        BYTE           VOL     45
        BYTE           PAN     c_v-8
        BYTE           BENDR   12
        BYTE           N06     En1   v074
        BYTE   W06
        BYTE                   En1   v086
        BYTE   W06
        BYTE                   En1   v050
        BYTE   W06
        BYTE                   En1   v084
        BYTE   W06
        BYTE                   En1
        BYTE   W06
        BYTE                   En1   v086
        BYTE   W06
        BYTE                   En1   v074
        BYTE   W06
        BYTE                   En1   v086
        BYTE   W06
        BYTE                   En1   v084
        BYTE   W06
        BYTE                   En1   v086
        BYTE   W06
        BYTE                   En1
        BYTE   W06
        BYTE                   En1   v050
        BYTE   W06
        BYTE                   En1   v084
        BYTE   W06
        BYTE                   En1
        BYTE   W06
        BYTE                   En1   v086
        BYTE   W06
        BYTE                   En1   v040
        BYTE   W06
// 001   ----------------------------------------
        BYTE           N24     Cn1   v100
        BYTE           N96     An2   v080
        BYTE           N12     Fs1   v087
        BYTE           N12     En1   v080
        BYTE   W12
        BYTE           N24     En1   v096
        BYTE           N06     Fs1   v065
        BYTE   W06
        BYTE                   Fs1   v068
        BYTE   W06
        BYTE           N24     Cn1   v100
        BYTE           N12     Fs1   v092
        BYTE   W12
        BYTE           N24     En1   v094
        BYTE           N06     Fs1   v065
        BYTE   W06
        BYTE                   Fs1   v100
        BYTE   W06
        BYTE           N24     Cn1
        BYTE           N12     Fs1   v092
        BYTE   W12
        BYTE           N24     En1   v102
        BYTE           N06     Fs1   v068
        BYTE   W06
        BYTE                   Fs1
        BYTE   W06
        BYTE           N24     Cn1   v064
        BYTE           N12     Fs1   v100
        BYTE   W12
        BYTE           N24     En1   v102
        BYTE           N06     Fs1   v068
        BYTE   W06
        BYTE                   Fs1   v052
        BYTE   W06
// 002   ----------------------------------------
EmeraldDragon_5_LOOP:
        BYTE           N24     Cn1   v102
        BYTE           N12     Fs1   v063
        BYTE   W12
        BYTE           N24     En1   v102
        BYTE           N06     Fs1   v068
        BYTE   W06
        BYTE                   Fs1
        BYTE   W06
        BYTE           N24     Cn1   v096
        BYTE           N12     Fs1   v090
        BYTE   W12
        BYTE           N24     En1   v092
        BYTE           N06     Fs1   v100
        BYTE   W06
        BYTE                   Fs1   v052
        BYTE   W06
        BYTE           N24     Cn1   v100
        BYTE           N12     Fs1   v092
        BYTE   W12
        BYTE           N24     En1   v084
        BYTE           N06     Fs1   v061
        BYTE   W06
        BYTE                   Fs1   v068
        BYTE   W06
        BYTE           N24     Cn1   v064
        BYTE           N12     Fs1   v052
        BYTE   W12
        BYTE           N24     En1   v102
        BYTE           N06     Fs1   v068
        BYTE   W06
        BYTE                   Fs1   v057
        BYTE   W06
// 003   ----------------------------------------
EmeraldDragon_5_3:
        BYTE           N24     Cn1   v100
        BYTE           N12     Fs1   v071
        BYTE   W12
        BYTE           N24     En1   v088
        BYTE           N06     Fs1   v060
        BYTE   W06
        BYTE                   Fs1   v068
        BYTE   W06
        BYTE           N24     Cn1   v100
        BYTE           N12     Fs1   v092
        BYTE   W12
        BYTE           N24     En1   v102
        BYTE           N06     Fs1   v068
        BYTE   W06
        BYTE                   Fs1
        BYTE   W06
        BYTE           N24     Cn1   v100
        BYTE           N12     Fs1   v092
        BYTE   W12
        BYTE           N24     En1   v102
        BYTE           N06     Fs1   v068
        BYTE   W06
        BYTE                   Fs1
        BYTE   W06
        BYTE           N24     Cn1   v064
        BYTE           N12     Fs1   v092
        BYTE   W12
        BYTE           N24     En1   v102
        BYTE           N06     Fs1   v068
        BYTE   W06
        BYTE                   Fs1   v052
        BYTE   W06
        BYTE   PEND
// 004   ----------------------------------------
        BYTE           N24     Cn1   v100
        BYTE           N12     Fs1   v061
        BYTE   W12
        BYTE           N24     En1   v102
        BYTE           N06     Fs1   v068
        BYTE   W06
        BYTE                   Fs1
        BYTE   W06
        BYTE           N24     Cn1   v102
        BYTE           N12     Fs1   v092
        BYTE   W12
        BYTE           N24     En1   v102
        BYTE           N06     Fs1   v068
        BYTE   W06
        BYTE                   Fs1   v052
        BYTE   W06
        BYTE           N24     Cn1   v100
        BYTE           N12     Fs1   v092
        BYTE   W12
        BYTE           N24     En1   v088
        BYTE           N06     Fs1   v063
        BYTE   W06
        BYTE                   Fs1   v068
        BYTE   W06
        BYTE                   Cn1   v100
        BYTE           N12     Fs1   v092
        BYTE   W06
        BYTE           N06     Cn1   v102
        BYTE   W06
        BYTE                   Cn1   v100
        BYTE           N24     En1   v080
        BYTE           N06     Fs1   v068
        BYTE   W06
        BYTE                   Cn1   v100
        BYTE           N06     Fs1   v068
        BYTE   W06
// 005   ----------------------------------------
EmeraldDragon_5_5:
        BYTE           N24     Cn1   v100
        BYTE           N96     An2   v080
        BYTE           N12     Fs1   v087
        BYTE   W12
        BYTE           N24     En1   v096
        BYTE           N06     Fs1   v065
        BYTE   W06
        BYTE                   Fs1   v068
        BYTE   W06
        BYTE           N24     Cn1   v100
        BYTE           N12     Fs1   v092
        BYTE   W12
        BYTE           N24     En1   v094
        BYTE           N06     Fs1   v065
        BYTE   W06
        BYTE                   Fs1   v100
        BYTE   W06
        BYTE           N24     Cn1
        BYTE           N12     Fs1   v092
        BYTE   W12
        BYTE           N24     En1   v102
        BYTE           N06     Fs1   v068
        BYTE   W06
        BYTE                   Fs1
        BYTE   W06
        BYTE           N24     Cn1   v064
        BYTE           N12     Fs1   v100
        BYTE   W12
        BYTE           N24     En1   v102
        BYTE           N06     Fs1   v068
        BYTE   W06
        BYTE                   Fs1   v052
        BYTE   W06
        BYTE   PEND
// 006   ----------------------------------------
EmeraldDragon_5_6:
        BYTE           N24     Cn1   v102
        BYTE           N12     Fs1   v063
        BYTE   W12
        BYTE           N24     En1   v102
        BYTE           N06     Fs1   v068
        BYTE   W06
        BYTE                   Fs1
        BYTE   W06
        BYTE           N24     Cn1   v096
        BYTE           N12     Fs1   v090
        BYTE   W12
        BYTE           N24     En1   v092
        BYTE           N06     Fs1   v100
        BYTE   W06
        BYTE                   Fs1   v052
        BYTE   W06
        BYTE           N24     Cn1   v100
        BYTE           N12     Fs1   v092
        BYTE   W12
        BYTE           N24     En1   v084
        BYTE           N06     Fs1   v061
        BYTE   W06
        BYTE                   Fs1   v068
        BYTE   W06
        BYTE           N24     Cn1   v064
        BYTE           N12     Fs1   v052
        BYTE   W12
        BYTE           N24     En1   v102
        BYTE           N06     Fs1   v068
        BYTE   W06
        BYTE                   Fs1   v057
        BYTE   W06
        BYTE   PEND
// 007   ----------------------------------------
        BYTE   PATT
         POIN2  EmeraldDragon_5_3
// 008   ----------------------------------------
EmeraldDragon_5_8:
        BYTE           N24     Cn1   v100
        BYTE           N12     Fs1   v061
        BYTE   W12
        BYTE           N24     En1   v102
        BYTE           N06     Fs1   v068
        BYTE   W06
        BYTE                   Fs1
        BYTE   W06
        BYTE           N24     Cn1   v102
        BYTE           N12     Fs1   v092
        BYTE   W12
        BYTE           N24     En1   v102
        BYTE           N06     Fs1   v068
        BYTE   W06
        BYTE                   Fs1   v052
        BYTE   W06
        BYTE           N24     Cn1   v100
        BYTE           N12     Fs1   v092
        BYTE   W12
        BYTE           N24     En1   v088
        BYTE           N06     Fs1   v063
        BYTE   W06
        BYTE                   Fs1   v068
        BYTE   W06
        BYTE                   Cn1   v100
        BYTE           N12     Fs1   v092
        BYTE   W06
        BYTE           N06     Cn1   v102
        BYTE   W06
        BYTE                   Cn1   v100
        BYTE           N06     Fs1   v068
        BYTE           N24     En1   v080
        BYTE   W06
        BYTE           N06     Cn1   v100
        BYTE           N06     Fs1   v068
        BYTE   W06
        BYTE   PEND
// 009   ----------------------------------------
        BYTE           N24     Cn1   v100
        BYTE           N12     Fs1   v087
        BYTE           N96     An2   v080
        BYTE   W12
        BYTE           N24     En1   v096
        BYTE           N06     Fs1   v065
        BYTE   W06
        BYTE                   Fs1   v068
        BYTE   W06
        BYTE           N24     Cn1   v100
        BYTE           N12     Fs1   v092
        BYTE   W12
        BYTE           N24     En1   v094
        BYTE           N06     Fs1   v065
        BYTE   W06
        BYTE                   Fs1   v100
        BYTE   W06
        BYTE           N24     Cn1
        BYTE           N12     Fs1   v092
        BYTE   W12
        BYTE           N24     En1   v102
        BYTE           N06     Fs1   v068
        BYTE   W06
        BYTE                   Fs1
        BYTE   W06
        BYTE           N24     Cn1   v064
        BYTE           N12     Fs1   v100
        BYTE   W12
        BYTE           N24     En1   v102
        BYTE           N06     Fs1   v068
        BYTE   W06
        BYTE                   Fs1   v052
        BYTE   W06
// 010   ----------------------------------------
        BYTE   PATT
         POIN2  EmeraldDragon_5_6
// 011   ----------------------------------------
        BYTE   PATT
         POIN2  EmeraldDragon_5_3
// 012   ----------------------------------------
        BYTE   PATT
         POIN2  EmeraldDragon_5_8
// 013   ----------------------------------------
        BYTE   PATT
         POIN2  EmeraldDragon_5_5
// 014   ----------------------------------------
        BYTE   PATT
         POIN2  EmeraldDragon_5_6
// 015   ----------------------------------------
        BYTE   PATT
         POIN2  EmeraldDragon_5_3
// 016   ----------------------------------------
        BYTE           N24     Cn1   v100
        BYTE           N12     Fs1   v061
        BYTE   W12
        BYTE           N24     En1   v102
        BYTE           N06     Fs1   v068
        BYTE   W06
        BYTE                   Fs1
        BYTE   W06
        BYTE           N24     Cn1   v102
        BYTE           N12     Fs1   v092
        BYTE   W12
        BYTE           N24     En1   v102
        BYTE           N06     Fs1   v068
        BYTE   W06
        BYTE                   Fs1   v052
        BYTE   W06
        BYTE                   Cn1   v090
        BYTE           N12     Fs1   v092
        BYTE   W06
        BYTE           N06     Cn1   v100
        BYTE   W06
        BYTE                   Cn1   v034
        BYTE           N24     En1   v088
        BYTE           N06     Fs1   v063
        BYTE   W06
        BYTE                   Cn1   v034
        BYTE           N06     Fs1   v068
        BYTE   W06
        BYTE                   Cn1   v100
        BYTE           N12     Fs1   v092
        BYTE   W06
        BYTE           N18     Cn1   v100
        BYTE   W06
        BYTE           N06     Fs1   v068
        BYTE           N24     En1   v080
        BYTE   W06
        BYTE           N06     Fs1   v068
        BYTE   W06
// 017   ----------------------------------------
        BYTE           N24     Cn1   v100
        BYTE           N96     An2   v080
        BYTE           N12     Fs1   v087
        BYTE   W12
        BYTE           N24     En1   v096
        BYTE           N06     Fs1   v065
        BYTE   W06
        BYTE                   Fs1   v068
        BYTE   W06
        BYTE           N24     Cn1   v100
        BYTE           N12     Fs1   v092
        BYTE   W12
        BYTE           N24     En1   v094
        BYTE           N06     Fs1   v065
        BYTE   W06
        BYTE                   Fs1   v100
        BYTE   W06
        BYTE           N24     Cn1
        BYTE           N12     Fs1   v092
        BYTE   W12
        BYTE           N24     En1   v102
        BYTE           N06     Fs1   v068
        BYTE   W06
        BYTE                   Fs1
        BYTE   W06
        BYTE           N12     Fs1   v100
        BYTE           N06     Cn1
        BYTE   W06
        BYTE                   Cn1
        BYTE   W06
        BYTE           N24     En1   v102
        BYTE           N06     Fs1   v068
        BYTE           N06     Cn1   v100
        BYTE   W06
        BYTE                   Fs1   v052
        BYTE           N06     Cn1   v100
        BYTE   W06
// 018   ----------------------------------------
        BYTE           N12     Fs1   v063
        BYTE           N06     Cn1   v100
        BYTE   W06
        BYTE                   Cn1
        BYTE   W06
        BYTE           N24     En1   v102
        BYTE           N06     Fs1   v068
        BYTE           N06     Cn1   v100
        BYTE   W06
        BYTE                   Fs1   v068
        BYTE           N06     Cn1   v100
        BYTE   W06
        BYTE           N12     Fs1   v090
        BYTE           N06     Cn1   v096
        BYTE   W06
        BYTE           N18     Cn1   v100
        BYTE   W06
        BYTE           N24     En1   v092
        BYTE           N06     Fs1   v100
        BYTE   W06
        BYTE                   Fs1   v052
        BYTE   W06
        BYTE           N24     Cn1   v100
        BYTE           N12     Fs1   v092
        BYTE   W12
        BYTE           N24     En1   v084
        BYTE           N06     Fs1   v061
        BYTE   W06
        BYTE                   Fs1   v068
        BYTE   W06
        BYTE           N24     Cn1   v064
        BYTE           N12     Fs1   v052
        BYTE   W12
        BYTE           N24     En1   v102
        BYTE           N06     Fs1   v068
        BYTE   W06
        BYTE                   Fs1   v057
        BYTE   W06
// 019   ----------------------------------------
        BYTE           N24     Cn1   v100
        BYTE           N12     Fs1   v071
        BYTE   W12
        BYTE           N24     En1   v088
        BYTE           N06     Fs1   v060
        BYTE   W06
        BYTE                   Fs1   v068
        BYTE   W06
        BYTE           N12     Fs1   v092
        BYTE           N06     Cn1   v100
        BYTE   W06
        BYTE                   Cn1
        BYTE   W06
        BYTE           N24     En1   v102
        BYTE           N06     Fs1   v068
        BYTE           N06     Cn1   v100
        BYTE   W06
        BYTE                   Fs1   v068
        BYTE           N06     Cn1   v100
        BYTE   W06
        BYTE           N12     Fs1   v092
        BYTE           N06     Cn1   v100
        BYTE   W06
        BYTE                   Cn1
        BYTE   W06
        BYTE           N24     En1   v102
        BYTE           N06     Fs1   v068
        BYTE           N06     Cn1   v100
        BYTE   W06
        BYTE                   Fs1   v068
        BYTE           N06     Cn1   v100
        BYTE   W06
        BYTE           N12     Fs1   v092
        BYTE           N06     Cn1   v100
        BYTE   W06
        BYTE           N18
        BYTE   W06
        BYTE           N24     En1   v102
        BYTE           N06     Fs1   v068
        BYTE   W06
        BYTE                   Fs1   v052
        BYTE   W06
// 020   ----------------------------------------
        BYTE           N24     Cn1   v100
        BYTE           N12     Fs1   v061
        BYTE           N96     An2   v080
        BYTE   W12
        BYTE           N24     En1   v102
        BYTE           N06     Fs1   v068
        BYTE   W06
        BYTE                   Fs1
        BYTE   W06
        BYTE           N24     Cn1   v102
        BYTE           N12     Fs1   v092
        BYTE   W12
        BYTE           N24     En1   v102
        BYTE           N06     Fs1   v068
        BYTE   W06
        BYTE                   Fs1   v052
        BYTE   W06
        BYTE           N24     Cn1   v100
        BYTE           N12     Fs1   v092
        BYTE   W12
        BYTE           N24     En1   v088
        BYTE           N06     Fs1   v063
        BYTE   W06
        BYTE                   Fs1   v068
        BYTE   W06
        BYTE           N12     Fs1   v092
        BYTE           N06     Cn1   v100
        BYTE   W06
        BYTE                   Cn1
        BYTE   W06
        BYTE                   Fs1   v068
        BYTE           N24     En1   v080
        BYTE           N06     Cn1   v100
        BYTE   W06
        BYTE                   Fs1   v068
        BYTE           N06     Cn1   v100
        BYTE   W06
// 021   ----------------------------------------
        BYTE           N12     Fs1   v087
        BYTE           N06     Cn1   v100
        BYTE   W06
        BYTE                   Cn1
        BYTE   W06
        BYTE           N24     En1   v096
        BYTE           N06     Fs1   v065
        BYTE           N06     Cn1   v100
        BYTE   W06
        BYTE                   Fs1   v068
        BYTE           N06     Cn1   v100
        BYTE   W06
        BYTE           N12     Fs1   v092
        BYTE           N06     Cn1   v100
        BYTE   W06
        BYTE           N18
        BYTE   W06
        BYTE           N24     En1   v094
        BYTE           N06     Fs1   v065
        BYTE   W06
        BYTE                   Fs1   v100
        BYTE   W06
        BYTE           N24     Cn1
        BYTE           N12     Fs1   v092
        BYTE   W12
        BYTE           N24     En1   v102
        BYTE           N06     Fs1   v068
        BYTE   W06
        BYTE                   Fs1
        BYTE   W06
        BYTE           N24     Cn1   v064
        BYTE           N12     Fs1   v100
        BYTE   W12
        BYTE           N24     En1   v102
        BYTE           N06     Fs1   v068
        BYTE   W06
        BYTE                   Fs1   v052
        BYTE   W06
// 022   ----------------------------------------
        BYTE           N24     Cn1   v102
        BYTE           N12     Fs1   v063
        BYTE   W12
        BYTE           N24     En1   v102
        BYTE           N06     Fs1   v068
        BYTE   W06
        BYTE                   Fs1
        BYTE   W06
        BYTE           N12     Fs1   v090
        BYTE           N06     Cn1   v100
        BYTE   W06
        BYTE                   Cn1
        BYTE   W06
        BYTE           N24     En1   v092
        BYTE           N06     Fs1   v100
        BYTE           N06     Cn1
        BYTE   W06
        BYTE                   Fs1   v052
        BYTE           N06     Cn1   v100
        BYTE   W06
        BYTE           N12     Fs1   v092
        BYTE           N06     Cn1   v100
        BYTE   W06
        BYTE                   Cn1
        BYTE   W06
        BYTE           N24     En1   v084
        BYTE           N06     Fs1   v061
        BYTE           N06     Cn1   v100
        BYTE   W06
        BYTE                   Fs1   v068
        BYTE           N06     Cn1   v100
        BYTE   W06
        BYTE           N12     Fs1   v052
        BYTE           N06     Cn1   v100
        BYTE   W06
        BYTE           N18
        BYTE   W06
        BYTE           N24     En1   v102
        BYTE           N06     Fs1   v068
        BYTE   W06
        BYTE                   Fs1   v057
        BYTE   W06
// 023   ----------------------------------------
        BYTE           N24     Cn1   v100
        BYTE           N12     Fs1   v071
        BYTE           N96     An2   v080
        BYTE   W12
        BYTE           N24     En1   v088
        BYTE           N06     Fs1   v060
        BYTE   W06
        BYTE                   Fs1   v068
        BYTE   W06
        BYTE           N24     Cn1   v100
        BYTE           N12     Fs1   v092
        BYTE   W12
        BYTE           N24     En1   v102
        BYTE           N06     Fs1   v068
        BYTE   W06
        BYTE                   Fs1
        BYTE   W06
        BYTE           N24     Cn1   v100
        BYTE           N12     Fs1   v092
        BYTE   W12
        BYTE           N24     En1   v102
        BYTE           N06     Fs1   v068
        BYTE   W06
        BYTE                   Fs1
        BYTE   W06
        BYTE           N12     Fs1   v092
        BYTE           N06     Cn1   v100
        BYTE   W06
        BYTE                   Cn1
        BYTE   W06
        BYTE           N24     En1   v102
        BYTE           N06     Fs1   v068
        BYTE           N06     Cn1   v100
        BYTE   W06
        BYTE                   Fs1   v052
        BYTE           N06     Cn1   v100
        BYTE   W06
// 024   ----------------------------------------
        BYTE           N12     Fs1   v061
        BYTE           N06     Cn1   v100
        BYTE   W06
        BYTE                   Cn1
        BYTE   W06
        BYTE           N24     En1   v102
        BYTE           N06     Fs1   v068
        BYTE           N06     Cn1   v100
        BYTE   W06
        BYTE                   Fs1   v068
        BYTE           N06     Cn1   v100
        BYTE   W06
        BYTE           N12     Fs1   v092
        BYTE           N06     Cn1   v100
        BYTE   W06
        BYTE           N18
        BYTE   W06
        BYTE           N24     En1   v102
        BYTE           N06     Fs1   v068
        BYTE   W06
        BYTE                   Fs1   v052
        BYTE   W06
        BYTE           N24     Cn1   v100
        BYTE           N12     Fs1   v092
        BYTE   W12
        BYTE           N24     En1   v088
        BYTE           N06     Fs1   v063
        BYTE   W06
        BYTE                   Fs1   v068
        BYTE   W06
        BYTE           N12     Fs1   v092
        BYTE           N24     Cn1   v100
        BYTE   W12
        BYTE           N06     Fs1   v068
        BYTE           N24     En1   v080
        BYTE   W06
        BYTE           N06     Fs1   v068
        BYTE   W06
// 025   ----------------------------------------
        BYTE           N24     Cn1   v100
        BYTE           N12     Fs1   v087
        BYTE   W12
        BYTE           N24     En1   v096
        BYTE           N06     Fs1   v065
        BYTE   W06
        BYTE                   Fs1   v068
        BYTE   W06
        BYTE           N12     Fs1   v092
        BYTE           N06     Cn1   v100
        BYTE   W06
        BYTE                   Cn1
        BYTE   W06
        BYTE           N24     En1   v094
        BYTE           N06     Fs1   v065
        BYTE           N06     Cn1   v100
        BYTE   W06
        BYTE                   Fs1
        BYTE           N06     Cn1
        BYTE   W06
        BYTE           N12     Fs1   v092
        BYTE           N06     Cn1   v100
        BYTE   W06
        BYTE                   Cn1
        BYTE   W06
        BYTE           N24     En1   v102
        BYTE           N06     Fs1   v068
        BYTE           N06     Cn1   v100
        BYTE   W06
        BYTE                   Fs1   v068
        BYTE           N06     Cn1   v100
        BYTE   W06
        BYTE           N12     Fs1
        BYTE           N06     Cn1
        BYTE   W06
        BYTE           N18
        BYTE   W06
        BYTE           N24     En1   v102
        BYTE           N06     Fs1   v068
        BYTE   W06
        BYTE                   Fs1   v052
        BYTE   W06
// 026   ----------------------------------------
        BYTE           N24     Cn1   v102
        BYTE           N12     Fs1   v063
        BYTE           N96     An2   v080
        BYTE   W12
        BYTE           N24     En1   v102
        BYTE           N06     Fs1   v068
        BYTE   W06
        BYTE                   Fs1
        BYTE   W06
        BYTE           N24     Cn1   v096
        BYTE           N12     Fs1   v090
        BYTE   W12
        BYTE           N24     En1   v092
        BYTE           N06     Fs1   v100
        BYTE   W06
        BYTE                   Fs1   v052
        BYTE   W06
        BYTE           N24     Cn1   v100
        BYTE           N12     Fs1   v092
        BYTE   W12
        BYTE           N24     En1   v084
        BYTE           N06     Fs1   v061
        BYTE   W06
        BYTE                   Fs1   v068
        BYTE   W06
        BYTE           N12     Fs1   v052
        BYTE           N06     Cn1   v100
        BYTE   W06
        BYTE                   Cn1
        BYTE   W06
        BYTE           N24     En1   v102
        BYTE           N06     Fs1   v068
        BYTE           N06     Cn1   v100
        BYTE   W06
        BYTE                   Fs1   v057
        BYTE           N06     Cn1   v100
        BYTE   W06
// 027   ----------------------------------------
        BYTE           N12     Fs1   v071
        BYTE           N06     Cn1   v100
        BYTE   W06
        BYTE                   Cn1
        BYTE   W06
        BYTE           N24     En1   v088
        BYTE           N06     Fs1   v060
        BYTE           N06     Cn1   v100
        BYTE   W06
        BYTE                   Fs1   v068
        BYTE           N06     Cn1   v100
        BYTE   W06
        BYTE           N12     Fs1   v092
        BYTE           N06     Cn1   v100
        BYTE   W06
        BYTE           N18
        BYTE   W06
        BYTE           N24     En1   v102
        BYTE           N06     Fs1   v068
        BYTE   W06
        BYTE                   Fs1
        BYTE   W06
        BYTE           N24     Cn1   v100
        BYTE           N12     Fs1   v092
        BYTE   W12
        BYTE           N24     En1   v102
        BYTE           N06     Fs1   v068
        BYTE   W06
        BYTE                   Fs1
        BYTE   W06
        BYTE           N24     Cn1   v064
        BYTE           N12     Fs1   v092
        BYTE   W12
        BYTE           N24     En1   v102
        BYTE           N06     Fs1   v068
        BYTE   W06
        BYTE                   Fs1   v052
        BYTE   W06
// 028   ----------------------------------------
        BYTE           N24     Cn1   v100
        BYTE           N12     Fs1   v061
        BYTE   W12
        BYTE           N24     En1   v102
        BYTE           N06     Fs1   v068
        BYTE   W06
        BYTE                   Fs1
        BYTE   W06
        BYTE           N12     Fs1   v092
        BYTE           N06     Cn1   v100
        BYTE   W06
        BYTE                   Cn1
        BYTE   W06
        BYTE           N24     En1   v102
        BYTE           N06     Fs1   v068
        BYTE           N06     Cn1   v100
        BYTE   W06
        BYTE                   Fs1   v052
        BYTE           N06     Cn1   v100
        BYTE   W06
        BYTE           N12     Fs1   v092
        BYTE           N06     Cn1   v100
        BYTE   W06
        BYTE                   Cn1
        BYTE   W06
        BYTE           N24     En1   v088
        BYTE           N06     Fs1   v063
        BYTE           N06     Cn1   v100
        BYTE   W06
        BYTE                   Fs1   v068
        BYTE           N06     Cn1   v100
        BYTE   W06
        BYTE                   Cn1
        BYTE           N12     Fs1   v092
        BYTE   W06
        BYTE           N18     Cn1   v102
        BYTE   W06
        BYTE           N06     Fs1   v068
        BYTE           N24     En1   v080
        BYTE   W06
        BYTE           N06     Fs1   v068
        BYTE   W06
// 029   ----------------------------------------
        BYTE           N24     Cn1   v102
        BYTE           N36     An2   v040
        BYTE           N24     Fs1   v063
        BYTE   W12
        BYTE           N36     En1   v102
        BYTE   W12
        BYTE           N12     Cn1   v096
        BYTE           N06     Fs1   v068
        BYTE   W06
        BYTE                   Fs1
        BYTE   W06
        BYTE           N36     An2   v048
        BYTE           N24     Cn1   v100
        BYTE           N24     Fs1   v092
        BYTE   W12
        BYTE           N36     En1   v084
        BYTE   W12
        BYTE           N06     Fs1   v061
        BYTE           N12     Cn1   v100
        BYTE   W06
        BYTE           N06     Fs1   v068
        BYTE   W06
        BYTE           N24     Cn1   v064
        BYTE           N36     An2
        BYTE           N24     Fs1   v052
        BYTE   W12
        BYTE           N36     En1   v102
        BYTE   W12
// 030   ----------------------------------------
        BYTE           N12     Cn1   v100
        BYTE           N06     Fs1   v068
        BYTE   W06
        BYTE                   Fs1   v057
        BYTE   W06
        BYTE           N24     Cn1   v100
        BYTE           N24     Fs1   v092
        BYTE           N36     An2   v072
        BYTE   W12
        BYTE                   En1   v080
        BYTE   W12
        BYTE           N06     Fs1   v068
        BYTE           N12     Cn1   v100
        BYTE           N60     Cs2
        BYTE   W06
        BYTE           N06     Fs1   v068
        BYTE   W06
        BYTE           N24     Cn1   v100
        BYTE           N12     Fs1   v087
        BYTE           N96     An2   v100
        BYTE   W12
        BYTE           N24     En1   v096
        BYTE           N06     Fs1   v065
        BYTE   W06
        BYTE                   Fs1   v068
        BYTE   W06
        BYTE           N24     Cn1   v100
        BYTE           N12     Fs1   v092
        BYTE   W12
        BYTE           N24     En1   v094
        BYTE           N06     Fs1   v065
        BYTE   W06
        BYTE                   Fs1   v100
        BYTE   W06
// 031   ----------------------------------------
        BYTE           N24     Cn1
        BYTE           N12     Fs1   v092
        BYTE   W12
        BYTE           N24     En1   v102
        BYTE           N06     Fs1   v068
        BYTE   W06
        BYTE                   Fs1
        BYTE   W06
        BYTE           N24     Cn1   v064
        BYTE           N12     Fs1   v100
        BYTE   W12
        BYTE           N06     Fs1   v068
        BYTE           N24     En1   v100
        BYTE   W06
        BYTE           N06     Fs1   v052
        BYTE   W06
        BYTE   GoTo
         POIN2  EmeraldDragon_5_LOOP
        BYTE   W12
        BYTE   FINE

//****************** Track 6 (Midi-Chn.6) ******************//

EmeraldDragon_6:
        BYTE   KEYSH   EmeraldDragon_key+0
// 000   ----------------------------------------
        BYTE           VOICE   63
        BYTE           VOL     32
        BYTE           PAN     c_v+39
        BYTE           BENDR   12
        BYTE           N12     Cn3   v080
        BYTE   W06
        BYTE                   Bn2   v087
        BYTE   W06
        BYTE                   Cn3   v078
        BYTE   W06
        BYTE                   Gs3   v066
        BYTE           N12     Ds3   v084
        BYTE   W06
        BYTE                   Gn3   v066
        BYTE           N12     Dn3   v084
        BYTE   W06
        BYTE                   Gs3   v066
        BYTE           N12     Ds3   v084
        BYTE   W06
        BYTE                   Cn4   v069
        BYTE           N12     Fn3   v078
        BYTE   W06
        BYTE                   Bn3   v075
        BYTE           N12     En3   v087
        BYTE   W06
        BYTE           N06     Cn4   v072
        BYTE           N12     Fn3   v081
        BYTE   W06
        BYTE                   Fn4   v075
        BYTE           N12     Cn4   v084
        BYTE   W06
        BYTE                   En4   v078
        BYTE           N12     Bn3   v087
        BYTE   W06
        BYTE                   Fn4   v069
        BYTE           N12     Cn4
        BYTE   W06
        BYTE                   Gs4   v081
        BYTE           N12     Ds4   v087
        BYTE   W06
        BYTE                   Gn4
        BYTE           N12     Dn4
        BYTE   W06
        BYTE                   Ds4   v084
        BYTE           N12     Gs4
        BYTE   W06
        BYTE                   Cn5   v080
        BYTE           N12     Fn4
        BYTE   W06
// 001   ----------------------------------------
EmeraldDragon_6_1:
        BYTE   W12
        BYTE           N12     As2   v097
        BYTE           N12     Fn2
        BYTE   W12
        BYTE                   As2   v080
        BYTE           N12     Fn2
        BYTE   W24
        BYTE                   As2   v097
        BYTE           N12     Fn2
        BYTE   W12
        BYTE                   As2   v080
        BYTE           N12     Fn2
        BYTE   W24
        BYTE                   As2   v097
        BYTE           N12     Fn2
        BYTE   W12
        BYTE   PEND
// 002   ----------------------------------------
EmeraldDragon_6_LOOP:
        BYTE           N12     As2   v080
        BYTE           N12     Fn2
        BYTE   W24
        BYTE                   As2   v097
        BYTE           N12     Fn2
        BYTE   W12
        BYTE                   As2   v080
        BYTE           N12     Fn2
        BYTE   W24
        BYTE                   As2   v088
        BYTE           N12     Fn2
        BYTE   W24
        BYTE                   As2   v097
        BYTE           N12     Fn2
        BYTE   W12
// 003   ----------------------------------------
        BYTE   PATT
         POIN2  EmeraldDragon_6_1
// 004   ----------------------------------------
EmeraldDragon_6_4:
        BYTE           N12     As2   v080
        BYTE           N12     Fn2
        BYTE   W24
        BYTE                   As2   v097
        BYTE           N12     Fn2
        BYTE   W12
        BYTE                   As2   v080
        BYTE           N12     Fn2
        BYTE   W24
        BYTE                   As2   v088
        BYTE           N12     Fn2
        BYTE   W24
        BYTE                   As2   v097
        BYTE           N12     Fn2
        BYTE   W12
        BYTE   PEND
// 005   ----------------------------------------
        BYTE   PATT
         POIN2  EmeraldDragon_6_1
// 006   ----------------------------------------
        BYTE   PATT
         POIN2  EmeraldDragon_6_4
// 007   ----------------------------------------
        BYTE   PATT
         POIN2  EmeraldDragon_6_1
// 008   ----------------------------------------
        BYTE   PATT
         POIN2  EmeraldDragon_6_4
// 009   ----------------------------------------
EmeraldDragon_6_9:
        BYTE   W12
        BYTE           N12     Fs2   v097
        BYTE           N12     As2
        BYTE   W12
        BYTE                   Fs2   v080
        BYTE           N12     As2
        BYTE   W24
        BYTE                   Gn2   v097
        BYTE           N12     Bn2
        BYTE   W12
        BYTE                   Gn2   v080
        BYTE           N12     Bn2
        BYTE   W24
        BYTE                   Fs2   v097
        BYTE           N12     As2
        BYTE   W12
        BYTE   PEND
// 010   ----------------------------------------
EmeraldDragon_6_10:
        BYTE           N12     Fs2   v080
        BYTE           N12     As2
        BYTE   W24
        BYTE                   Gn2   v097
        BYTE           N12     Bn2
        BYTE   W12
        BYTE                   Gn2   v080
        BYTE           N12     Bn2
        BYTE   W24
        BYTE                   Gs2   v088
        BYTE           N12     Cn3
        BYTE   W24
        BYTE                   An2   v097
        BYTE           N12     Cs3
        BYTE   W12
        BYTE   PEND
// 011   ----------------------------------------
        BYTE   PATT
         POIN2  EmeraldDragon_6_9
// 012   ----------------------------------------
EmeraldDragon_6_12:
        BYTE           N12     Fs2   v080
        BYTE           N12     As2
        BYTE   W24
        BYTE                   Gn2   v097
        BYTE           N12     Bn2
        BYTE   W12
        BYTE                   Gn2   v080
        BYTE           N12     Bn2
        BYTE   W24
        BYTE                   Ds2   v088
        BYTE           N12     As1
        BYTE   W24
        BYTE                   En2   v097
        BYTE           N12     Bn1
        BYTE   W12
        BYTE   PEND
// 013   ----------------------------------------
        BYTE   PATT
         POIN2  EmeraldDragon_6_9
// 014   ----------------------------------------
        BYTE   PATT
         POIN2  EmeraldDragon_6_10
// 015   ----------------------------------------
        BYTE   PATT
         POIN2  EmeraldDragon_6_9
// 016   ----------------------------------------
        BYTE   PATT
         POIN2  EmeraldDragon_6_12
// 017   ----------------------------------------
        BYTE           N12     Fn3   v087
        BYTE   W12
        BYTE                   Cn3
        BYTE   W12
        BYTE                   Fn3   v078
        BYTE   W12
        BYTE                   Cn4   v075
        BYTE   W12
        BYTE                   Fn3
        BYTE   W12
        BYTE                   Cn3   v069
        BYTE   W12
        BYTE                   En3   v075
        BYTE   W12
        BYTE                   Bn2
        BYTE   W12
// 018   ----------------------------------------
        BYTE                   En3
        BYTE   W12
        BYTE                   Bn3
        BYTE   W12
        BYTE                   En3
        BYTE   W12
        BYTE                   Bn2   v063
        BYTE   W12
        BYTE                   Fn3   v075
        BYTE   W12
        BYTE                   Cn3   v080
        BYTE   W12
        BYTE                   Fn3   v075
        BYTE   W12
        BYTE                   Cn4   v063
        BYTE   W12
// 019   ----------------------------------------
        BYTE                   Fn3   v072
        BYTE   W12
        BYTE                   Cn3   v080
        BYTE   W12
        BYTE                   Fs3   v075
        BYTE   W12
        BYTE                   Cs3
        BYTE   W12
        BYTE                   Fs3
        BYTE   W12
        BYTE                   Cs4
        BYTE   W12
        BYTE                   Fs3
        BYTE   W12
        BYTE                   Cs3   v072
        BYTE   W12
// 020   ----------------------------------------
        BYTE                   Fn3   v080
        BYTE   W12
        BYTE                   Cn3   v063
        BYTE   W12
        BYTE                   Fn3   v075
        BYTE   W12
        BYTE                   Cn4   v069
        BYTE   W12
        BYTE                   Fn3   v075
        BYTE   W12
        BYTE                   Cn3   v066
        BYTE   W12
        BYTE                   En3   v075
        BYTE   W12
        BYTE                   Bn2
        BYTE   W12
// 021   ----------------------------------------
        BYTE                   En3   v080
        BYTE   W12
        BYTE                   Bn3
        BYTE   W12
        BYTE                   En3   v075
        BYTE   W12
        BYTE                   Bn2   v066
        BYTE   W12
        BYTE                   Fn3
        BYTE   W12
        BYTE                   Cn3   v080
        BYTE   W12
        BYTE                   Fn3   v063
        BYTE   W12
        BYTE                   Cn4   v066
        BYTE   W12
// 022   ----------------------------------------
        BYTE                   Fn3   v075
        BYTE   W12
        BYTE                   Cn3   v066
        BYTE   W12
        BYTE                   Fs3   v075
        BYTE   W12
        BYTE                   Cs3
        BYTE   W12
        BYTE                   Fs3
        BYTE   W12
        BYTE                   Cs4
        BYTE   W12
        BYTE                   Fs3
        BYTE   W12
        BYTE                   Cs3
        BYTE   W12
// 023   ----------------------------------------
        BYTE                   Gn3   v066
        BYTE   W12
        BYTE                   Dn3   v063
        BYTE   W12
        BYTE                   Gn3   v075
        BYTE   W12
        BYTE                   Dn4
        BYTE   W12
        BYTE                   Gn3   v072
        BYTE   W12
        BYTE                   Dn3   v075
        BYTE   W12
        BYTE                   Fs3
        BYTE   W12
        BYTE                   Cs3
        BYTE   W12
// 024   ----------------------------------------
        BYTE                   Fs3   v072
        BYTE   W12
        BYTE                   Cs4   v075
        BYTE   W12
        BYTE                   Fs3
        BYTE   W12
        BYTE                   Cs3
        BYTE   W12
        BYTE                   Gn3   v066
        BYTE   W12
        BYTE                   Dn3   v075
        BYTE   W12
        BYTE                   Gn3   v072
        BYTE   W12
        BYTE                   Dn4   v075
        BYTE   W12
// 025   ----------------------------------------
        BYTE                   Gn3   v072
        BYTE   W12
        BYTE                   Dn3   v075
        BYTE   W12
        BYTE                   Gs3
        BYTE   W12
        BYTE                   Ds3
        BYTE   W12
        BYTE                   Gs3   v072
        BYTE   W12
        BYTE                   Ds4   v075
        BYTE   W12
        BYTE                   Gs3
        BYTE   W12
        BYTE                   Ds3   v072
        BYTE   W12
// 026   ----------------------------------------
        BYTE                   Gn3   v075
        BYTE   W12
        BYTE                   Dn3   v080
        BYTE   W12
        BYTE                   Gn3   v075
        BYTE   W12
        BYTE                   Dn4
        BYTE   W12
        BYTE                   Gn3   v063
        BYTE   W12
        BYTE                   Dn3   v075
        BYTE   W12
        BYTE                   Fs3
        BYTE   W12
        BYTE                   Cs3
        BYTE   W12
// 027   ----------------------------------------
        BYTE                   Fs3
        BYTE   W12
        BYTE                   Cs4
        BYTE   W12
        BYTE                   Fs3
        BYTE   W12
        BYTE                   Cs3   v063
        BYTE   W12
        BYTE                   Gn3   v066
        BYTE   W12
        BYTE                   Dn3   v075
        BYTE   W12
        BYTE                   Gn3   v072
        BYTE   W12
        BYTE                   Dn4   v075
        BYTE   W12
// 028   ----------------------------------------
        BYTE                   Gn3   v072
        BYTE   W12
        BYTE                   Dn3   v075
        BYTE   W12
        BYTE                   Gs3
        BYTE   W12
        BYTE                   Ds3
        BYTE   W12
        BYTE                   Gs3
        BYTE   W12
        BYTE                   Ds4
        BYTE   W12
        BYTE                   Gs3
        BYTE   W12
        BYTE                   Ds3
        BYTE   W12
// 029   ----------------------------------------
        BYTE           N06     As3   v108
        BYTE           N06     Fn3   v075
        BYTE   W12
        BYTE                   As3   v084
        BYTE           N06     Fn3   v080
        BYTE   W12
        BYTE                   As3   v108
        BYTE           N06     Fn3
        BYTE   W12
        BYTE                   Cs4   v080
        BYTE           N06     Gs3   v075
        BYTE   W12
        BYTE                   Cs4   v066
        BYTE           N06     Gs3   v078
        BYTE   W12
        BYTE                   Cs4   v084
        BYTE           N06     Gs3   v072
        BYTE   W12
        BYTE                   En4   v108
        BYTE           N06     Bn3   v075
        BYTE   W12
        BYTE                   En4   v078
        BYTE           N06     Bn3   v084
        BYTE   W12
// 030   ----------------------------------------
        BYTE                   En4   v096
        BYTE           N06     Bn3   v108
        BYTE   W12
        BYTE                   Dn4   v072
        BYTE           N06     Gn4   v084
        BYTE   W12
        BYTE                   Dn4   v069
        BYTE           N06     Gn4   v108
        BYTE   W12
        BYTE                   Dn4   v084
        BYTE           N12     Gn4
        BYTE           N12     As4   v105
        BYTE   W24
        BYTE                   As2   v097
        BYTE           N12     Fn2
        BYTE   W12
        BYTE                   As2   v080
        BYTE           N12     Fn2
        BYTE   W24
// 031   ----------------------------------------
        BYTE                   As2   v097
        BYTE           N12     Fn2
        BYTE   W12
        BYTE                   As2   v080
        BYTE           N12     Fn2
        BYTE   W24
        BYTE                   As2   v097
        BYTE           N12     Fn2
        BYTE   W12
        BYTE   GoTo
         POIN2  EmeraldDragon_6_LOOP
        BYTE   W12
        BYTE   FINE


//********************** End of Song ***********************//

        ALIGN 4
EmeraldDragon:
        BYTE   7                       // Num Tracks
        BYTE   0                       // Unknown
        BYTE   EmeraldDragon_pri       // Priority
        BYTE   EmeraldDragon_rev       // Reverb

        POIN2   EmeraldDragon_grp      

        POIN2   EmeraldDragon_0
        POIN2   EmeraldDragon_1
        POIN2   EmeraldDragon_2
        POIN2   EmeraldDragon_3
        POIN2   EmeraldDragon_4
        POIN2   EmeraldDragon_5
        POIN2   EmeraldDragon_6

        
