//Event file generated from Sappy .s format.
        #include "MPlayDef.event"

        #define    EndlessBattle_Domino_grp  voicegroup000
        #define    EndlessBattle_Domino_pri  0
        #define    EndlessBattle_Domino_rev  0
        #define    EndlessBattle_Domino_key  0

        // .rodata
        // EndlessBattle_Domino
        ALIGN 4

//****************** Track 0 (Midi-Chn.0) ******************//

EndlessBattle_Domino_0:
        BYTE   KEYSH   EndlessBattle_Domino_key+0
// 000   ----------------------------------------
        BYTE   TEMPO   112/2
        BYTE           VOICE   2
        BYTE           VOL     53
        BYTE           N30     En0   v126   gtp1
        BYTE   W36
        BYTE                   En0
        BYTE   W36
        BYTE           N20
        BYTE   W24
// 001   ----------------------------------------
        BYTE           N30     En0   v126   gtp1
        BYTE   W36
        BYTE                   En0
        BYTE   W36
        BYTE           N11
        BYTE   W12
        BYTE           N03     Bn0   v101
        BYTE   W06
        BYTE                   En0
        BYTE   W06
// 002   ----------------------------------------
EndlessBattle_Domino_0_LOOP:
        BYTE           N18     An0   v100
        BYTE   W18
        BYTE           N12
        BYTE   W12
        BYTE           N06
        BYTE   W06
        BYTE           N12     En0
        BYTE   W12
        BYTE                   Fn0
        BYTE   W36
        BYTE           N06
        BYTE   W06
        BYTE                   Fn0
        BYTE   W06
// 003   ----------------------------------------
EndlessBattle_Domino_0_3:
        BYTE           N18     Gn0   v100
        BYTE   W18
        BYTE           N12
        BYTE   W12
        BYTE           N06
        BYTE   W06
        BYTE           N12     Dn0
        BYTE   W12
        BYTE                   An0
        BYTE   W36
        BYTE           N06     En0
        BYTE   W06
        BYTE                   Gn0
        BYTE   W06
        BYTE   PEND
// 004   ----------------------------------------
EndlessBattle_Domino_0_4:
        BYTE           N18     An0   v100
        BYTE   W18
        BYTE           N12
        BYTE   W12
        BYTE           N06
        BYTE   W06
        BYTE           N12     En0
        BYTE   W12
        BYTE                   Fn0
        BYTE   W36
        BYTE           N06
        BYTE   W06
        BYTE                   Fn0
        BYTE   W06
        BYTE   PEND
// 005   ----------------------------------------
        BYTE   PATT
         POIN2  EndlessBattle_Domino_0_3
// 006   ----------------------------------------
EndlessBattle_Domino_0_6:
        BYTE           N30     Dn0   v100
        BYTE   W30
        BYTE           N06
        BYTE   W06
        BYTE           N12
        BYTE   W12
        BYTE                   Gn0
        BYTE   W36
        BYTE           N06
        BYTE   W06
        BYTE                   Fn0
        BYTE   W06
        BYTE   PEND
// 007   ----------------------------------------
EndlessBattle_Domino_0_7:
        BYTE           N12     En0   v100
        BYTE   W12
        BYTE           N06
        BYTE   W06
        BYTE           N12
        BYTE   W12
        BYTE           N06
        BYTE   W06
        BYTE           N12     An0
        BYTE   W12
        BYTE                   An0
        BYTE   W12
        BYTE                   An0
        BYTE   W12
        BYTE           N06     Gn0
        BYTE   W24
        BYTE   PEND
// 008   ----------------------------------------
        BYTE   PATT
         POIN2  EndlessBattle_Domino_0_6
// 009   ----------------------------------------
        BYTE   PATT
         POIN2  EndlessBattle_Domino_0_7
// 010   ----------------------------------------
        BYTE   PATT
         POIN2  EndlessBattle_Domino_0_4
// 011   ----------------------------------------
        BYTE   PATT
         POIN2  EndlessBattle_Domino_0_3
// 012   ----------------------------------------
        BYTE   PATT
         POIN2  EndlessBattle_Domino_0_4
// 013   ----------------------------------------
        BYTE   PATT
         POIN2  EndlessBattle_Domino_0_3
// 014   ----------------------------------------
        BYTE   PATT
         POIN2  EndlessBattle_Domino_0_6
// 015   ----------------------------------------
        BYTE   PATT
         POIN2  EndlessBattle_Domino_0_7
// 016   ----------------------------------------
        BYTE   PATT
         POIN2  EndlessBattle_Domino_0_6
// 017   ----------------------------------------
        BYTE   PATT
         POIN2  EndlessBattle_Domino_0_7
// 018   ----------------------------------------
        BYTE           N44     As0   v115   gtp2
        BYTE   W48
        BYTE           N21     Fn1
        BYTE   W24
        BYTE                   As1
        BYTE   W24
// 019   ----------------------------------------
        BYTE           N23     Cn2
        BYTE   W24
        BYTE           N52     Cn1
        BYTE   W60
        BYTE           N04     Dn1
        BYTE   W06
        BYTE                   En1
        BYTE   W06
// 020   ----------------------------------------
        BYTE           N44     Fn1   v115   gtp3
        BYTE   W48
        BYTE           N23     Cn1
        BYTE   W24
        BYTE           N22     Fn1
        BYTE   W24
// 021   ----------------------------------------
        BYTE           N44     Gn1   v115   gtp3
        BYTE   W48
        BYTE           N22     Dn1
        BYTE   W24
        BYTE                   Bn0
        BYTE   W24
// 022   ----------------------------------------
        BYTE           N68     As0   v115   gtp2
        BYTE   W72
        BYTE           N22     Fn1
        BYTE   W24
// 023   ----------------------------------------
        BYTE           N23     Cn1
        BYTE   W24
        BYTE                   Gn1
        BYTE   W24
        BYTE                   Dn2
        BYTE   W24
        BYTE           N22     Cn2
        BYTE   W24
// 024   ----------------------------------------
        BYTE           N44     Bn1   v115   gtp3
        BYTE   W48
        BYTE           N44     Bn0   v115   gtp2
        BYTE   W48
// 025   ----------------------------------------
        BYTE           N23     Gn1
        BYTE   W24
        BYTE                   Fn1
        BYTE   W24
        BYTE                   Dn1
        BYTE   W24
        BYTE           N22     Bn0
        BYTE   W24
// 026   ----------------------------------------
        BYTE   PATT
         POIN2  EndlessBattle_Domino_0_4
// 027   ----------------------------------------
        BYTE   PATT
         POIN2  EndlessBattle_Domino_0_3
// 028   ----------------------------------------
        BYTE   PATT
         POIN2  EndlessBattle_Domino_0_4
// 029   ----------------------------------------
        BYTE   PATT
         POIN2  EndlessBattle_Domino_0_3
// 030   ----------------------------------------
        BYTE   PATT
         POIN2  EndlessBattle_Domino_0_6
// 031   ----------------------------------------
        BYTE   PATT
         POIN2  EndlessBattle_Domino_0_7
// 032   ----------------------------------------
        BYTE   PATT
         POIN2  EndlessBattle_Domino_0_6
// 033   ----------------------------------------
        BYTE   PATT
         POIN2  EndlessBattle_Domino_0_7
// 034   ----------------------------------------
        BYTE   PATT
         POIN2  EndlessBattle_Domino_0_4
// 035   ----------------------------------------
        BYTE   PATT
         POIN2  EndlessBattle_Domino_0_3
// 036   ----------------------------------------
        BYTE   PATT
         POIN2  EndlessBattle_Domino_0_4
// 037   ----------------------------------------
        BYTE   PATT
         POIN2  EndlessBattle_Domino_0_3
// 038   ----------------------------------------
EndlessBattle_Domino_0_38:
        BYTE           N18     En1   v100
        BYTE   W18
        BYTE           N12
        BYTE   W12
        BYTE           N06
        BYTE   W06
        BYTE           N12
        BYTE   W12
        BYTE                   En1
        BYTE   W36
        BYTE           N06
        BYTE   W06
        BYTE                   En1
        BYTE   W06
        BYTE   PEND
// 039   ----------------------------------------
EndlessBattle_Domino_0_39:
        BYTE           N18     Dn1   v100
        BYTE   W18
        BYTE           N12
        BYTE   W12
        BYTE           N06
        BYTE   W06
        BYTE           N12
        BYTE   W12
        BYTE                   Dn1
        BYTE   W36
        BYTE           N06     An0
        BYTE   W06
        BYTE                   Dn1
        BYTE   W06
        BYTE   PEND
// 040   ----------------------------------------
        BYTE   PATT
         POIN2  EndlessBattle_Domino_0_38
// 041   ----------------------------------------
        BYTE   PATT
         POIN2  EndlessBattle_Domino_0_39
// 042   ----------------------------------------
EndlessBattle_Domino_0_42:
        BYTE           N30     An0   v100
        BYTE   W30
        BYTE           N06
        BYTE   W06
        BYTE           N12
        BYTE   W12
        BYTE                   Dn1
        BYTE   W36
        BYTE           N06
        BYTE   W06
        BYTE                   Cn1
        BYTE   W06
        BYTE   PEND
// 043   ----------------------------------------
EndlessBattle_Domino_0_43:
        BYTE           N12     Gn0   v100
        BYTE   W12
        BYTE           N06
        BYTE   W06
        BYTE           N12
        BYTE   W12
        BYTE           N06
        BYTE   W06
        BYTE           N12     Dn1
        BYTE   W12
        BYTE                   Dn1
        BYTE   W12
        BYTE                   Dn1
        BYTE   W12
        BYTE           N06     Cn1
        BYTE   W24
        BYTE   PEND
// 044   ----------------------------------------
        BYTE   PATT
         POIN2  EndlessBattle_Domino_0_42
// 045   ----------------------------------------
        BYTE   PATT
         POIN2  EndlessBattle_Domino_0_43
// 046   ----------------------------------------
        BYTE   PATT
         POIN2  EndlessBattle_Domino_0_4
// 047   ----------------------------------------
        BYTE   PATT
         POIN2  EndlessBattle_Domino_0_3
// 048   ----------------------------------------
        BYTE   PATT
         POIN2  EndlessBattle_Domino_0_4
// 049   ----------------------------------------
        BYTE   PATT
         POIN2  EndlessBattle_Domino_0_3
// 050   ----------------------------------------
        BYTE   PATT
         POIN2  EndlessBattle_Domino_0_6
// 051   ----------------------------------------
        BYTE   PATT
         POIN2  EndlessBattle_Domino_0_7
// 052   ----------------------------------------
        BYTE   PATT
         POIN2  EndlessBattle_Domino_0_6
// 053   ----------------------------------------
        BYTE   PATT
         POIN2  EndlessBattle_Domino_0_7
// 054   ----------------------------------------
        BYTE   PATT
         POIN2  EndlessBattle_Domino_0_4
// 055   ----------------------------------------
        BYTE   PATT
         POIN2  EndlessBattle_Domino_0_3
// 056   ----------------------------------------
        BYTE   PATT
         POIN2  EndlessBattle_Domino_0_4
// 057   ----------------------------------------
        BYTE   PATT
         POIN2  EndlessBattle_Domino_0_3
// 058   ----------------------------------------
        BYTE   PATT
         POIN2  EndlessBattle_Domino_0_6
// 059   ----------------------------------------
        BYTE   PATT
         POIN2  EndlessBattle_Domino_0_7
// 060   ----------------------------------------
        BYTE   GoTo
         POIN2  EndlessBattle_Domino_0_LOOP
        BYTE   FINE

//****************** Track 1 (Midi-Chn.1) ******************//

EndlessBattle_Domino_1:
        BYTE   KEYSH   EndlessBattle_Domino_key+0
// 000   ----------------------------------------
        BYTE           VOICE   61
        BYTE           VOL     46
        BYTE           PAN     c_v-26
        BYTE           N11     En3   v066
        BYTE           N11     Bn2
        BYTE   W36
        BYTE                   En3   v075
        BYTE           N11     Bn2
        BYTE   W36
        BYTE                   En3   v090
        BYTE           N11     Bn2
        BYTE   W24
// 001   ----------------------------------------
        BYTE                   En3   v107
        BYTE           N11     Bn2
        BYTE   W36
        BYTE                   En3   v084
        BYTE           N11     Bn2
        BYTE   W36
        BYTE                   En3   v090
        BYTE           N11     Bn2
        BYTE   W24
// 002   ----------------------------------------
EndlessBattle_Domino_1_LOOP:
        BYTE           N11     En3   v104
        BYTE           N11     Cn3
        BYTE   W24
        BYTE                   En3   v069
        BYTE           N11     Cn3
        BYTE   W24
        BYTE                   Cn3   v081
        BYTE           N11     En3
        BYTE   W24
        BYTE                   En3   v070
        BYTE           N11     Cn3
        BYTE   W24
// 003   ----------------------------------------
        BYTE                   Dn3   v104
        BYTE           N11     Bn2
        BYTE   W24
        BYTE                   Dn3   v069
        BYTE           N11     Bn2
        BYTE   W24
        BYTE                   Bn2   v081
        BYTE           N11     Dn3
        BYTE   W24
        BYTE                   Bn2   v070
        BYTE           N11     Dn3
        BYTE   W24
// 004   ----------------------------------------
        BYTE                   Cn3   v104
        BYTE           N11     An2
        BYTE   W24
        BYTE                   Cn3   v069
        BYTE           N11     An2
        BYTE   W24
        BYTE                   Cn3   v081
        BYTE           N11     An2
        BYTE   W24
        BYTE                   Cn3   v070
        BYTE           N11     An2
        BYTE   W24
// 005   ----------------------------------------
        BYTE                   Gn2   v104
        BYTE           N11     Bn2
        BYTE   W24
        BYTE                   Bn2   v069
        BYTE           N11     Gn2
        BYTE   W24
        BYTE                   Bn2   v081
        BYTE           N11     Gn2
        BYTE   W24
        BYTE                   Bn2   v070
        BYTE           N11     Gn2
        BYTE   W24
// 006   ----------------------------------------
        BYTE                   An2   v104
        BYTE           N11     Fn2
        BYTE   W24
        BYTE                   An2   v069
        BYTE           N11     Fn2
        BYTE   W24
        BYTE                   An2   v081
        BYTE           N11     Fn2
        BYTE   W24
        BYTE                   An2   v070
        BYTE           N11     Fn2
        BYTE   W24
// 007   ----------------------------------------
        BYTE                   An2   v104
        BYTE           N11     Gn2
        BYTE   W24
        BYTE                   An2   v069
        BYTE           N11     Gn2
        BYTE   W24
        BYTE                   An2   v081
        BYTE           N11     Gn2
        BYTE   W24
        BYTE                   An2   v070
        BYTE           N11     Gn2
        BYTE   W24
// 008   ----------------------------------------
        BYTE                   Bn2   v104
        BYTE           N11     Fn2
        BYTE   W24
        BYTE                   Bn2   v069
        BYTE           N11     Fn2
        BYTE   W24
        BYTE                   Dn3   v081
        BYTE           N11     An2
        BYTE   W24
        BYTE                   Dn3   v070
        BYTE           N11     An2
        BYTE   W24
// 009   ----------------------------------------
        BYTE                   En3   v104
        BYTE           N11     Bn2
        BYTE   W24
        BYTE                   Bn2   v069
        BYTE           N11     En3
        BYTE   W24
        BYTE                   En3   v081
        BYTE           N11     Bn2
        BYTE   W24
        BYTE                   Bn2   v070
        BYTE           N11     En3
        BYTE   W24
// 010   ----------------------------------------
        BYTE                   En3   v104
        BYTE           N11     Cn3
        BYTE   W24
        BYTE                   En3   v069
        BYTE           N11     Cn3
        BYTE   W24
        BYTE                   En3   v081
        BYTE           N11     Cn3
        BYTE   W24
        BYTE                   En3   v070
        BYTE           N11     Cn3
        BYTE   W24
// 011   ----------------------------------------
        BYTE                   Dn3   v104
        BYTE           N11     Bn2
        BYTE   W24
        BYTE                   Dn3   v069
        BYTE           N11     Bn2
        BYTE   W24
        BYTE                   Dn3   v081
        BYTE           N11     Bn2
        BYTE   W24
        BYTE                   Bn2   v070
        BYTE           N11     Dn3
        BYTE   W24
// 012   ----------------------------------------
EndlessBattle_Domino_1_12:
        BYTE           N11     Dn3   v104
        BYTE           N11     An2
        BYTE   W24
        BYTE                   An2   v069
        BYTE           N11     Dn3
        BYTE   W24
        BYTE                   Dn3   v081
        BYTE           N11     An2
        BYTE   W24
        BYTE                   Dn3   v070
        BYTE           N11     An2
        BYTE   W24
        BYTE   PEND
// 013   ----------------------------------------
        BYTE                   En3   v104
        BYTE           N11     Cn3
        BYTE   W24
        BYTE                   Cn3   v069
        BYTE           N11     En3
        BYTE   W24
        BYTE                   En3   v081
        BYTE           N11     Cn3
        BYTE   W24
        BYTE                   En3   v070
        BYTE           N11     Cn3
        BYTE   W24
// 014   ----------------------------------------
        BYTE                   Cn3   v104
        BYTE           N11     An2
        BYTE   W24
        BYTE                   Cn3   v069
        BYTE           N11     An2
        BYTE   W24
        BYTE                   Cn3   v081
        BYTE           N11     An2
        BYTE   W24
        BYTE                   An2   v070
        BYTE           N11     Cn3
        BYTE   W24
// 015   ----------------------------------------
        BYTE   PATT
         POIN2  EndlessBattle_Domino_1_12
// 016   ----------------------------------------
        BYTE           N11     Fs3   v104
        BYTE           N11     Cs3
        BYTE   W24
        BYTE                   Cs3   v069
        BYTE           N11     Fs3
        BYTE   W24
        BYTE                   Cs3   v081
        BYTE           N11     Fs3
        BYTE   W24
        BYTE                   Cs3   v070
        BYTE           N11     Fs3
        BYTE   W24
// 017   ----------------------------------------
        BYTE                   En3   v104
        BYTE           N11     Bn2
        BYTE   W24
        BYTE                   En3   v069
        BYTE           N11     An3
        BYTE   W24
        BYTE                   Bn3   v081
        BYTE           N11     Dn3
        BYTE   W24
        BYTE                   En3   v070
        BYTE           N11     Bn2
        BYTE   W24
// 018   ----------------------------------------
        BYTE           N23     An1   v071
        BYTE           N23     Cn3
        BYTE   W05
        BYTE           VOL     34
        BYTE   W07
        BYTE                   35
        BYTE   W12
        BYTE                   36
        BYTE           N23     As1
        BYTE           N23     Dn3
        BYTE   W08
        BYTE           VOL     37
        BYTE   W11
        BYTE                   38
        BYTE   W05
        BYTE           N23     Dn2
        BYTE           N23     Fn3
        BYTE   W07
        BYTE           VOL     39
        BYTE   W12
        BYTE                   40
        BYTE   W05
        BYTE           N23     Fn2
        BYTE           N23     An3
        BYTE   W02
        BYTE           VOL     41
        BYTE   W12
        BYTE                   42
        BYTE   W08
        BYTE                   43
        BYTE   W02
// 019   ----------------------------------------
        BYTE           N23     Gn2
        BYTE           N44     Cn4   v071   gtp3
        BYTE   W04
        BYTE           VOL     42
        BYTE   W19
        BYTE                   41
        BYTE   W01
        BYTE           N23     An2
        BYTE   W18
        BYTE           VOL     40
        BYTE   W06
        BYTE           N23     Cn2
        BYTE           N44     Gn3   v071   gtp3
        BYTE   W24
        BYTE           N23     En2
        BYTE   W24
// 020   ----------------------------------------
        BYTE                   Cn2
        BYTE           N44     Fn3   v071   gtp3
        BYTE   W24
        BYTE           N80     An1
        BYTE   W24
        BYTE           N56     Cn3
        BYTE   W08
        BYTE           VOL     39
        BYTE   W06
        BYTE                   38
        BYTE   W03
        BYTE                   37
        BYTE   W06
        BYTE                   36
        BYTE   W03
        BYTE                   35
        BYTE   W03
        BYTE                   34
        BYTE   W06
        BYTE                   33
        BYTE   W03
        BYTE                   32
        BYTE   W01
        BYTE                   31
        BYTE   W02
        BYTE                   30
        BYTE   W01
        BYTE                   28
        BYTE   W02
        BYTE                   27
        BYTE   W01
        BYTE                   25
        BYTE   W02
        BYTE                   24
        BYTE   W01
// 021   ----------------------------------------
        BYTE                   22
        BYTE   W02
        BYTE                   21
        BYTE   W01
        BYTE                   20
        BYTE   W02
        BYTE                   18
        BYTE   W01
        BYTE                   17
        BYTE   W02
        BYTE                   15
        BYTE   W01
        BYTE                   14
        BYTE   W01
        BYTE                   15
        BYTE   W01
        BYTE                   18
        BYTE   W01
        BYTE                   19
        BYTE   W01
        BYTE                   20
        BYTE   W01
        BYTE                   23
        BYTE   W01
        BYTE                   25
        BYTE   W01
        BYTE                   26
        BYTE   W01
        BYTE                   29
        BYTE   W01
        BYTE                   30
        BYTE   W01
        BYTE                   31
        BYTE   W01
        BYTE                   34
        BYTE   W01
        BYTE                   35
        BYTE   W01
        BYTE                   37
        BYTE   W01
        BYTE                   40
        BYTE   W01
        BYTE                   42
        BYTE           N23     Gn1
        BYTE           N23     Bn2
        BYTE   W24
        BYTE                   Bn1
        BYTE           N23     Dn3
        BYTE   W24
        BYTE                   Fn2
        BYTE           N44     Gn3   v071   gtp3
        BYTE   W24
// 022   ----------------------------------------
        BYTE                   Dn2
        BYTE   W24
        BYTE           N23     An3
        BYTE   W24
        BYTE           N44     Cn2   v071   gtp3
        BYTE           N23     En3
        BYTE   W24
        BYTE                   Fn3
        BYTE   W24
// 023   ----------------------------------------
        BYTE           N22     En2
        BYTE           N44     Gn3   v071   gtp3
        BYTE   W24
        BYTE           N22     Dn2
        BYTE   W24
        BYTE           N44     Cn2   v071   gtp3
        BYTE                   En3
        BYTE   W48
// 024   ----------------------------------------
        BYTE           N23     An1
        BYTE           N44     Dn3   v071   gtp3
        BYTE   W24
        BYTE           N23     Bn1
        BYTE   W24
        BYTE                   Dn2
        BYTE           N23     Gn3
        BYTE   W24
        BYTE                   Fn2
        BYTE           N23     An3
        BYTE   W24
// 025   ----------------------------------------
        BYTE                   Gn2
        BYTE           N23     Bn3
        BYTE   W24
        BYTE                   Bn2
        BYTE           N23     Dn4
        BYTE   W24
        BYTE           N44     Dn2   v071   gtp3
        BYTE           N23     Gn3
        BYTE   W48
// 026   ----------------------------------------
        BYTE           N92     Fn2   v071   gtp3
        BYTE   W96
// 027   ----------------------------------------
        BYTE                   Gn2
        BYTE   W96
// 028   ----------------------------------------
        BYTE                   Cn2
        BYTE   W96
// 029   ----------------------------------------
        BYTE                   Dn2
        BYTE   W96
// 030   ----------------------------------------
        BYTE                   Fn2
        BYTE   W96
// 031   ----------------------------------------
        BYTE                   An2
        BYTE   W96
// 032   ----------------------------------------
        BYTE                   Gn2
        BYTE   W96
// 033   ----------------------------------------
        BYTE                   En2
        BYTE   W96
// 034   ----------------------------------------
        BYTE           N36     Cn3   v066
        BYTE   W05
        BYTE           VOL     41
        BYTE   W06
        BYTE                   40
        BYTE   W03
        BYTE                   39
        BYTE   W05
        BYTE                   38
        BYTE   W08
        BYTE                   39
        BYTE   W09
        BYTE           N32     En3   v066   gtp3
        BYTE   W02
        BYTE           VOL     40
        BYTE   W08
        BYTE                   41
        BYTE   W12
        BYTE                   42
        BYTE   W14
        BYTE           N44     Cn3   v066   gtp3
        BYTE   W03
        BYTE           VOL     41
        BYTE   W21
// 035   ----------------------------------------
EndlessBattle_Domino_1_35:
        BYTE   W05
        BYTE           VOL     40
        BYTE   W17
        BYTE                   39
        BYTE   W02
        BYTE           N23     An2   v066
        BYTE   W24
        BYTE           VOL     38
        BYTE           N23     Gn2
        BYTE   W24
        BYTE                   Fn2
        BYTE   W02
        BYTE           VOL     37
        BYTE   W22
        BYTE   PEND
// 036   ----------------------------------------
EndlessBattle_Domino_1_36:
        BYTE           N32     Gn2   v066   gtp3
        BYTE   W04
        BYTE           VOL     36
        BYTE   W03
        BYTE                   37
        BYTE   W10
        BYTE                   38
        BYTE   W10
        BYTE                   39
        BYTE   W09
        BYTE           N32     Cn3   v066   gtp3
        BYTE   W01
        BYTE           VOL     40
        BYTE   W07
        BYTE                   41
        BYTE   W10
        BYTE                   42
        BYTE   W18
        BYTE           N32     Dn3   v066   gtp3
        BYTE   W24
        BYTE   PEND
// 037   ----------------------------------------
EndlessBattle_Domino_1_37:
        BYTE   W10
        BYTE           VOL     41
        BYTE   W02
        BYTE           N80     Cn3   v066   gtp3
        BYTE   W08
        BYTE           VOL     40
        BYTE   W06
        BYTE                   39
        BYTE   W09
        BYTE                   38
        BYTE   W09
        BYTE                   37
        BYTE   W09
        BYTE                   36
        BYTE   W03
        BYTE                   35
        BYTE   W03
        BYTE                   34
        BYTE   W02
        BYTE                   33
        BYTE   W03
        BYTE                   32
        BYTE   W01
        BYTE                   31
        BYTE   W02
        BYTE                   30
        BYTE   W01
        BYTE                   29
        BYTE   W03
        BYTE                   28
        BYTE   W02
        BYTE                   27
        BYTE   W01
        BYTE                   26
        BYTE   W03
        BYTE                   25
        BYTE   W02
        BYTE                   24
        BYTE   W01
        BYTE                   23
        BYTE   W02
        BYTE                   22
        BYTE   W03
        BYTE                   21
        BYTE   W01
        BYTE                   20
        BYTE   W02
        BYTE                   19
        BYTE   W01
        BYTE                   18
        BYTE   W03
        BYTE                   17
        BYTE   W02
        BYTE                   16
        BYTE   W02
        BYTE   PEND
// 038   ----------------------------------------
        BYTE   W96
// 039   ----------------------------------------
        BYTE   W96
// 040   ----------------------------------------
        BYTE   W96
// 041   ----------------------------------------
        BYTE   W96
// 042   ----------------------------------------
        BYTE   W96
// 043   ----------------------------------------
        BYTE   W96
// 044   ----------------------------------------
        BYTE   W96
// 045   ----------------------------------------
        BYTE   W96
// 046   ----------------------------------------
        BYTE   W96
// 047   ----------------------------------------
        BYTE   W96
// 048   ----------------------------------------
        BYTE   W96
// 049   ----------------------------------------
        BYTE   W48
        BYTE                   36
        BYTE           N12     Gn4   v100
        BYTE           N12     Gn3
        BYTE   W24
        BYTE           N24     An3
        BYTE           N24     An4
        BYTE   W24
// 050   ----------------------------------------
        BYTE   W96
// 051   ----------------------------------------
EndlessBattle_Domino_1_51:
        BYTE           N24     En2   v100
        BYTE           N24     Gn3
        BYTE   W24
        BYTE           N06     En2
        BYTE           N06     Gn3
        BYTE   W24
        BYTE           N24     An2
        BYTE           N24     An3
        BYTE   W24
        BYTE           N06     An2
        BYTE           N06     An3
        BYTE   W24
        BYTE   PEND
// 052   ----------------------------------------
        BYTE   W96
// 053   ----------------------------------------
        BYTE   PATT
         POIN2  EndlessBattle_Domino_1_51
// 054   ----------------------------------------
        BYTE           N36     Cn3   v066
        BYTE   W02
        BYTE           VOL     42
        BYTE   W03
        BYTE                   41
        BYTE   W06
        BYTE                   40
        BYTE   W03
        BYTE                   39
        BYTE   W05
        BYTE                   38
        BYTE   W08
        BYTE                   39
        BYTE   W09
        BYTE           N32     En3   v066   gtp3
        BYTE   W02
        BYTE           VOL     40
        BYTE   W08
        BYTE                   41
        BYTE   W12
        BYTE                   42
        BYTE   W14
        BYTE           N44     Cn3   v066   gtp3
        BYTE   W03
        BYTE           VOL     41
        BYTE   W21
// 055   ----------------------------------------
        BYTE   PATT
         POIN2  EndlessBattle_Domino_1_35
// 056   ----------------------------------------
        BYTE   PATT
         POIN2  EndlessBattle_Domino_1_36
// 057   ----------------------------------------
        BYTE   PATT
         POIN2  EndlessBattle_Domino_1_37
// 058   ----------------------------------------
        BYTE           VOL     46
        BYTE           N11     En3   v066
        BYTE           N11     Bn2
        BYTE   W36
        BYTE                   En3   v075
        BYTE           N11     Bn2
        BYTE   W36
        BYTE                   En3   v090
        BYTE           N11     Bn2
        BYTE   W24
// 059   ----------------------------------------
        BYTE                   En3
        BYTE           N11     Bn2
        BYTE   W36
        BYTE                   En3   v067
        BYTE           N11     Bn2
        BYTE   W36
        BYTE                   Bn2   v090
        BYTE           N11     En3
        BYTE   W24
// 060   ----------------------------------------
        BYTE   GoTo
         POIN2  EndlessBattle_Domino_1_LOOP
        BYTE   FINE

//****************** Track 2 (Midi-Chn.2) ******************//

EndlessBattle_Domino_2:
        BYTE   KEYSH   EndlessBattle_Domino_key+0
// 000   ----------------------------------------
        BYTE           VOICE   52
        BYTE           VOL     43
        BYTE           PAN     c_v+15
        BYTE           N11     An3   v066
        BYTE   W12
        BYTE           N05     En3   v061
        BYTE   W12
        BYTE                   En3   v074
        BYTE   W12
        BYTE           N11     An3   v075
        BYTE   W12
        BYTE           N04     En3   v074
        BYTE   W12
        BYTE                   En3   v061
        BYTE   W12
        BYTE           N11     An3   v090
        BYTE   W12
        BYTE           N05     En3   v061
        BYTE   W12
// 001   ----------------------------------------
        BYTE           N11     Gs3   v107
        BYTE   W12
        BYTE           N04     En3   v061
        BYTE   W12
        BYTE                   En3   v074
        BYTE   W12
        BYTE           N11     Gs3   v084
        BYTE   W12
        BYTE           N05     En3   v074
        BYTE   W12
        BYTE           N04     En3   v061
        BYTE   W12
        BYTE           N11     Gs3   v090
        BYTE   W12
        BYTE           N05     En3   v061
        BYTE   W12
// 002   ----------------------------------------
EndlessBattle_Domino_2_LOOP:
        BYTE           N11     Bn3   v104
        BYTE   W12
        BYTE           N05     En3   v074
        BYTE   W12
        BYTE           N11     Bn3   v069
        BYTE   W12
        BYTE           N05     En3   v074
        BYTE   W12
        BYTE           N11     Bn3   v081
        BYTE   W12
        BYTE           N05     En3   v074
        BYTE   W12
        BYTE           N11     Bn3   v070
        BYTE   W12
        BYTE           N04     En3   v074
        BYTE   W12
// 003   ----------------------------------------
        BYTE           N11     An3   v104
        BYTE   W12
        BYTE           N05     Dn3   v074
        BYTE   W12
        BYTE           N11     An3   v069
        BYTE   W12
        BYTE           N05     Dn3   v074
        BYTE   W12
        BYTE           N11     An3   v081
        BYTE   W12
        BYTE           N04     Dn3   v074
        BYTE   W12
        BYTE           N11     An3   v070
        BYTE   W12
        BYTE           N05     Dn3   v074
        BYTE   W12
// 004   ----------------------------------------
        BYTE           N11     Gn3   v104
        BYTE   W12
        BYTE           N05     En3   v074
        BYTE   W12
        BYTE           N11     Gn3   v069
        BYTE   W12
        BYTE           N05     En3   v074
        BYTE   W12
        BYTE           N11     Gn3   v081
        BYTE   W12
        BYTE           N05     En3   v074
        BYTE   W12
        BYTE           N11     Gn3   v070
        BYTE   W12
        BYTE           N05     En3   v074
        BYTE   W12
// 005   ----------------------------------------
        BYTE           N11     Fs3   v104
        BYTE   W12
        BYTE           N04     Dn3   v074
        BYTE   W12
        BYTE           N11     Fs3   v069
        BYTE   W12
        BYTE           N05     Dn3   v074
        BYTE   W12
        BYTE           N11     Fs3   v081
        BYTE   W12
        BYTE           N05     Dn3   v074
        BYTE   W12
        BYTE           N11     Fs3   v070
        BYTE   W12
        BYTE           N05     Dn3   v074
        BYTE   W12
// 006   ----------------------------------------
        BYTE           N11     En3   v104
        BYTE   W12
        BYTE           N05     Cn3   v074
        BYTE   W12
        BYTE           N11     En3   v069
        BYTE   W12
        BYTE           N05     Cn3   v074
        BYTE   W12
        BYTE           N11     En3   v081
        BYTE   W12
        BYTE           N05     Cn3   v074
        BYTE   W12
        BYTE           N11     En3   v070
        BYTE   W12
        BYTE           N05     Cn3   v074
        BYTE   W12
// 007   ----------------------------------------
        BYTE           N11     En3   v104
        BYTE   W12
        BYTE           N04     Cn3   v074
        BYTE   W12
        BYTE           N11     En3   v069
        BYTE   W12
        BYTE           N05     Cn3   v074
        BYTE   W12
        BYTE           N11     En3   v081
        BYTE   W12
        BYTE           N05     Cn3   v074
        BYTE   W12
        BYTE           N11     En3   v070
        BYTE   W12
        BYTE           N05     Cn3   v074
        BYTE   W12
// 008   ----------------------------------------
        BYTE           N11     Dn3   v104
        BYTE   W12
        BYTE           N04     Bn2   v074
        BYTE   W12
        BYTE           N11     Dn3   v069
        BYTE   W12
        BYTE           N04     Bn2   v074
        BYTE   W12
        BYTE           N11     Fn3   v081
        BYTE   W12
        BYTE           N04     Dn3   v074
        BYTE   W12
        BYTE           N11     Fn3   v070
        BYTE   W12
        BYTE           N04     Dn3   v074
        BYTE   W12
// 009   ----------------------------------------
        BYTE           N11     An3   v104
        BYTE   W12
        BYTE           N05     En3   v074
        BYTE   W12
        BYTE           N11     An3   v069
        BYTE   W12
        BYTE           N04     En3   v074
        BYTE   W12
        BYTE           N11     Gs3   v081
        BYTE   W12
        BYTE           N05     En3   v074
        BYTE   W12
        BYTE           N11     Gs3   v070
        BYTE   W12
        BYTE           N04     En3   v074
        BYTE   W12
// 010   ----------------------------------------
        BYTE           N11     Bn3   v104
        BYTE   W12
        BYTE           N05     En3   v074
        BYTE   W12
        BYTE           N11     Bn3   v069
        BYTE   W12
        BYTE           N05     En3   v074
        BYTE   W12
        BYTE           N11     Bn3   v081
        BYTE   W12
        BYTE           N05     En3   v074
        BYTE   W12
        BYTE           N11     Bn3   v070
        BYTE   W12
        BYTE           N05     En3   v074
        BYTE   W12
// 011   ----------------------------------------
        BYTE           N11     An3   v104
        BYTE   W12
        BYTE           N04     Dn3   v074
        BYTE   W12
        BYTE           N11     An3   v069
        BYTE   W12
        BYTE           N04     Dn3   v074
        BYTE   W12
        BYTE           N11     An3   v081
        BYTE   W12
        BYTE           N05     Dn3   v074
        BYTE   W12
        BYTE           N11     An3   v070
        BYTE   W12
        BYTE           N04     Dn3   v074
        BYTE   W12
// 012   ----------------------------------------
        BYTE           N11     Fs3   v104
        BYTE   W12
        BYTE           N04     Dn3   v074
        BYTE   W12
        BYTE           N11     Fs3   v069
        BYTE   W12
        BYTE           N04     Dn3   v074
        BYTE   W12
        BYTE           N11     Fs3   v081
        BYTE   W12
        BYTE           N05     Dn3   v074
        BYTE   W12
        BYTE           N11     Fs3   v070
        BYTE   W12
        BYTE           N04     Dn3   v074
        BYTE   W12
// 013   ----------------------------------------
        BYTE           N11     Gn3   v104
        BYTE   W12
        BYTE           N05     En3   v074
        BYTE   W12
        BYTE           N11     Gn3   v069
        BYTE   W12
        BYTE           N04     En3   v074
        BYTE   W12
        BYTE           N11     Gn3   v081
        BYTE   W12
        BYTE           N04     En3   v074
        BYTE   W12
        BYTE           N11     Gn3   v070
        BYTE   W12
        BYTE           N05     En3   v074
        BYTE   W12
// 014   ----------------------------------------
        BYTE           N11     Fn3   v104
        BYTE   W12
        BYTE           N05     Dn3   v074
        BYTE   W12
        BYTE           N11     Fn3   v069
        BYTE   W12
        BYTE           N05     Dn3   v074
        BYTE   W12
        BYTE           N11     Fn3   v081
        BYTE   W12
        BYTE           N04     Dn3   v074
        BYTE   W12
        BYTE           N11     Fn3   v070
        BYTE   W12
        BYTE           N05     Dn3   v074
        BYTE   W12
// 015   ----------------------------------------
        BYTE           N11     Fn3   v104
        BYTE   W12
        BYTE           N05     Dn3   v074
        BYTE   W12
        BYTE           N11     Fn3   v069
        BYTE   W12
        BYTE           N05     Dn3   v074
        BYTE   W12
        BYTE           N11     Fn3   v081
        BYTE   W12
        BYTE           N04     Dn3   v074
        BYTE   W12
        BYTE           N11     Fn3   v070
        BYTE   W12
        BYTE           N04     Dn3   v074
        BYTE   W12
// 016   ----------------------------------------
        BYTE           N11     An3   v104
        BYTE   W12
        BYTE           N05     Fs3   v074
        BYTE   W12
        BYTE           N11     An3   v069
        BYTE   W12
        BYTE           N05     Fs3   v074
        BYTE   W12
        BYTE           N11     An3   v081
        BYTE   W12
        BYTE           N05     Fs3   v074
        BYTE   W12
        BYTE           N11     An3   v070
        BYTE   W12
        BYTE           N05     Fs3   v074
        BYTE   W12
// 017   ----------------------------------------
        BYTE           N11     An3   v104
        BYTE   W12
        BYTE           N05     En3   v074
        BYTE   W12
        BYTE           N11     Bn3   v069
        BYTE   W12
        BYTE           N04     An3   v074
        BYTE   W12
        BYTE           N11     Gs3   v081
        BYTE   W12
        BYTE           N04     En3   v074
        BYTE   W12
        BYTE           N11     Gs3   v070
        BYTE   W12
        BYTE           N05     En3   v074
        BYTE   W12
// 018   ----------------------------------------
        BYTE   W96
// 019   ----------------------------------------
        BYTE   W96
// 020   ----------------------------------------
        BYTE   W96
// 021   ----------------------------------------
        BYTE   W96
// 022   ----------------------------------------
        BYTE   W96
// 023   ----------------------------------------
        BYTE   W96
// 024   ----------------------------------------
        BYTE   W96
// 025   ----------------------------------------
        BYTE   W96
// 026   ----------------------------------------
        BYTE   W96
// 027   ----------------------------------------
        BYTE   W96
// 028   ----------------------------------------
        BYTE   W96
// 029   ----------------------------------------
        BYTE   W96
// 030   ----------------------------------------
        BYTE   W96
// 031   ----------------------------------------
        BYTE   W96
// 032   ----------------------------------------
        BYTE   W96
// 033   ----------------------------------------
        BYTE   W96
// 034   ----------------------------------------
        BYTE   W96
// 035   ----------------------------------------
        BYTE   W96
// 036   ----------------------------------------
        BYTE   W96
// 037   ----------------------------------------
        BYTE   W96
// 038   ----------------------------------------
        BYTE   W96
// 039   ----------------------------------------
        BYTE   W96
// 040   ----------------------------------------
        BYTE   W96
// 041   ----------------------------------------
EndlessBattle_Domino_2_41:
        BYTE   W84
        BYTE           N06     Cn4   v100
        BYTE   W12
        BYTE   PEND
// 042   ----------------------------------------
EndlessBattle_Domino_2_42:
        BYTE           N18     Cn4   v100
        BYTE   W18
        BYTE           N06     An3
        BYTE   W18
        BYTE           N30     Fn3
        BYTE   W36
        BYTE           N18     En4
        BYTE   W18
        BYTE           N66     Dn4
        BYTE   W06
        BYTE   PEND
// 043   ----------------------------------------
        BYTE   PATT
         POIN2  EndlessBattle_Domino_2_41
// 044   ----------------------------------------
        BYTE   PATT
         POIN2  EndlessBattle_Domino_2_42
// 045   ----------------------------------------
        BYTE   W96
// 046   ----------------------------------------
        BYTE   W06
        BYTE           VOICE   0
        BYTE           N06     An1   v100
        BYTE           N06     An2
        BYTE   W06
        BYTE                   Cn2
        BYTE           N06     Cn3
        BYTE   W06
        BYTE           N08     En3
        BYTE           N08     En2
        BYTE   W12
        BYTE                   Cn3
        BYTE           N08     Cn2
        BYTE   W12
        BYTE           N12     An1
        BYTE           N12     An2
        BYTE   W54
// 047   ----------------------------------------
EndlessBattle_Domino_2_47:
        BYTE   W06
        BYTE           N06     Gn1   v100
        BYTE           N06     Gn2
        BYTE   W06
        BYTE                   Bn1
        BYTE           N06     Bn2
        BYTE   W06
        BYTE           N08     Dn3
        BYTE           N08     Dn2
        BYTE   W12
        BYTE                   Bn2
        BYTE           N08     Bn1
        BYTE   W12
        BYTE           N12     Cn2
        BYTE           N12     Cn3
        BYTE   W54
        BYTE   PEND
// 048   ----------------------------------------
        BYTE   W06
        BYTE           N06     An1
        BYTE           N06     An2
        BYTE   W06
        BYTE                   Cn2
        BYTE           N06     Cn3
        BYTE   W06
        BYTE           N08     En3
        BYTE           N08     En2
        BYTE   W12
        BYTE                   Cn3
        BYTE           N08     Cn2
        BYTE   W12
        BYTE           N12     An1
        BYTE           N12     An2
        BYTE   W54
// 049   ----------------------------------------
        BYTE   PATT
         POIN2  EndlessBattle_Domino_2_47
// 050   ----------------------------------------
        BYTE   W12
        BYTE           VOICE   52
        BYTE           N12     En4   v100
        BYTE   W12
        BYTE           N06     Dn4
        BYTE   W06
        BYTE           N12     En4
        BYTE   W12
        BYTE           N24     Dn4
        BYTE   W54
// 051   ----------------------------------------
        BYTE   W96
// 052   ----------------------------------------
        BYTE   W12
        BYTE           N12     En4
        BYTE   W12
        BYTE           N06     Dn4
        BYTE   W06
        BYTE           N12     En4
        BYTE   W12
        BYTE           N24     Dn4
        BYTE   W54
// 053   ----------------------------------------
        BYTE           N12     Gn4
        BYTE   W12
        BYTE                   Gn4
        BYTE   W12
        BYTE                   En4
        BYTE   W12
        BYTE           N24     Cn4
        BYTE   W24
        BYTE                   An3
        BYTE   W36
// 054   ----------------------------------------
        BYTE   W96
// 055   ----------------------------------------
        BYTE   W96
// 056   ----------------------------------------
        BYTE   W96
// 057   ----------------------------------------
        BYTE   W96
// 058   ----------------------------------------
        BYTE           N11     An3   v066
        BYTE   W12
        BYTE           N05     En3   v061
        BYTE   W12
        BYTE                   En3   v074
        BYTE   W12
        BYTE           N11     An3   v075
        BYTE   W12
        BYTE           N05     En3   v074
        BYTE   W12
        BYTE           N04     En3   v061
        BYTE   W12
        BYTE           N11     An3   v090
        BYTE   W12
        BYTE           N05     En3   v061
        BYTE   W12
// 059   ----------------------------------------
        BYTE           N11     Gs3   v090
        BYTE   W12
        BYTE           N04     En3   v061
        BYTE   W12
        BYTE                   En3   v074
        BYTE   W12
        BYTE           N11     Gs3   v067
        BYTE   W12
        BYTE           N05     En3   v074
        BYTE   W12
        BYTE                   En3   v061
        BYTE   W12
        BYTE           N11     Gs3   v090
        BYTE   W12
        BYTE           N05     En3   v061
        BYTE   W12
// 060   ----------------------------------------
        BYTE   GoTo
         POIN2  EndlessBattle_Domino_2_LOOP
        BYTE   FINE

//****************** Track 3 (Midi-Chn.3) ******************//

EndlessBattle_Domino_3:
        BYTE   KEYSH   EndlessBattle_Domino_key+0
// 000   ----------------------------------------
        BYTE           VOICE   76
        BYTE           PAN     c_v+37
        BYTE           VOL     32
        BYTE   W96
// 001   ----------------------------------------
        BYTE   W92
        BYTE   W01
        BYTE                   47
        BYTE   W03
// 002   ----------------------------------------
EndlessBattle_Domino_3_LOOP:
        BYTE           N36     Cn4   v107
        BYTE   W02
        BYTE           VOL     46
        BYTE   W01
        BYTE                   44
        BYTE   W01
        BYTE                   42
        BYTE   W01
        BYTE                   38
        BYTE   W01
        BYTE                   36
        BYTE   W01
        BYTE                   33
        BYTE   W10
        BYTE                   34
        BYTE   W01
        BYTE                   35
        BYTE   W02
        BYTE                   37
        BYTE   W01
        BYTE                   39
        BYTE   W02
        BYTE                   42
        BYTE   W01
        BYTE                   44
        BYTE   W02
        BYTE                   46
        BYTE   W01
        BYTE                   48
        BYTE   W02
        BYTE                   50
        BYTE   W01
        BYTE                   51
        BYTE   W01
        BYTE                   49
        BYTE   W02
        BYTE                   47
        BYTE   W01
        BYTE                   45
        BYTE   W01
        BYTE                   44
        BYTE   W01
        BYTE           N06     Dn4
        BYTE   W02
        BYTE           VOL     45
        BYTE   W02
        BYTE                   46
        BYTE   W02
        BYTE           N06     En4
        BYTE   W01
        BYTE           VOL     47
        BYTE   W01
        BYTE                   48
        BYTE   W02
        BYTE                   49
        BYTE   W01
        BYTE                   50
        BYTE   W01
        BYTE           N56     An4   v107   gtp3
        BYTE   W01
        BYTE           VOL     51
        BYTE   W02
        BYTE                   49
        BYTE   W01
        BYTE                   46
        BYTE   W02
        BYTE                   44
        BYTE   W01
        BYTE                   42
        BYTE   W02
        BYTE                   39
        BYTE   W01
        BYTE                   37
        BYTE   W01
        BYTE                   35
        BYTE   W17
        BYTE                   36
        BYTE   W04
        BYTE                   37
        BYTE   W03
        BYTE                   39
        BYTE   W03
        BYTE                   41
        BYTE   W01
        BYTE                   42
        BYTE   W02
        BYTE                   43
        BYTE   W01
        BYTE                   44
        BYTE   W02
        BYTE                   45
        BYTE   W01
        BYTE                   46
        BYTE   W02
        BYTE                   47
        BYTE   W01
// 003   ----------------------------------------
        BYTE                   48
        BYTE   W02
        BYTE                   49
        BYTE   W01
        BYTE                   50
        BYTE   W15
        BYTE           N03     An4   v082
        BYTE   W03
        BYTE                   As4
        BYTE   W03
        BYTE           N24     Bn4   v101
        BYTE   W02
        BYTE           VOL     49
        BYTE   W01
        BYTE                   48
        BYTE   W01
        BYTE                   47
        BYTE   W01
        BYTE                   44
        BYTE   W01
        BYTE                   43
        BYTE   W01
        BYTE                   42
        BYTE   W01
        BYTE                   39
        BYTE   W01
        BYTE                   38
        BYTE   W02
        BYTE                   39
        BYTE   W01
        BYTE                   40
        BYTE   W02
        BYTE                   42
        BYTE   W01
        BYTE                   43
        BYTE   W02
        BYTE                   44
        BYTE   W01
        BYTE                   46
        BYTE   W02
        BYTE                   47
        BYTE   W01
        BYTE                   48
        BYTE   W02
        BYTE                   50
        BYTE   W01
        BYTE                   51
        BYTE           N24     Gn4   v107
        BYTE   W13
        BYTE           VOL     50
        BYTE   W11
        BYTE           N24     Dn4
        BYTE   W01
        BYTE           VOL     49
        BYTE   W04
        BYTE                   48
        BYTE   W06
        BYTE                   46
        BYTE   W03
        BYTE                   45
        BYTE   W03
        BYTE                   44
        BYTE   W03
        BYTE                   43
        BYTE   W03
        BYTE                   42
        BYTE   W01
// 004   ----------------------------------------
        BYTE           N18     En4
        BYTE   W18
        BYTE           N06     Dn4
        BYTE   W01
        BYTE           VOL     43
        BYTE   W05
        BYTE           N96     En4
        BYTE   W02
        BYTE           VOL     40
        BYTE   W01
        BYTE                   39
        BYTE   W01
        BYTE                   37
        BYTE   W01
        BYTE                   34
        BYTE   W01
        BYTE                   32
        BYTE   W06
        BYTE                   33
        BYTE   W03
        BYTE                   34
        BYTE   W03
        BYTE                   35
        BYTE   W02
        BYTE                   37
        BYTE   W02
        BYTE                   38
        BYTE   W01
        BYTE                   40
        BYTE   W02
        BYTE                   42
        BYTE   W01
        BYTE                   43
        BYTE   W02
        BYTE                   45
        BYTE   W01
        BYTE                   46
        BYTE   W02
        BYTE                   48
        BYTE   W01
        BYTE                   50
        BYTE   W06
        BYTE                   48
        BYTE   W06
        BYTE                   46
        BYTE   W03
        BYTE                   45
        BYTE   W03
        BYTE                   44
        BYTE   W03
        BYTE                   43
        BYTE   W03
        BYTE                   42
        BYTE   W03
        BYTE                   41
        BYTE   W03
        BYTE                   40
        BYTE   W01
        BYTE                   39
        BYTE   W03
        BYTE                   38
        BYTE   W02
        BYTE                   37
        BYTE   W03
        BYTE                   36
        BYTE   W01
// 005   ----------------------------------------
        BYTE                   35
        BYTE   W02
        BYTE                   34
        BYTE   W03
        BYTE                   33
        BYTE   W01
        BYTE                   32
        BYTE   W02
        BYTE                   31
        BYTE   W03
        BYTE                   30
        BYTE   W01
        BYTE                   29
        BYTE   W02
        BYTE                   28
        BYTE   W01
        BYTE                   27
        BYTE   W03
        BYTE                   26
        BYTE   W02
        BYTE                   25
        BYTE   W01
        BYTE                   24
        BYTE   W02
        BYTE                   23
        BYTE   W03
        BYTE                   22
        BYTE   W01
        BYTE                   21
        BYTE   W01
        BYTE                   20
        BYTE   W02
        BYTE                   22
        BYTE   W01
        BYTE                   25
        BYTE   W02
        BYTE                   27
        BYTE   W01
        BYTE                   29
        BYTE   W02
        BYTE                   31
        BYTE   W01
        BYTE                   33
        BYTE   W02
        BYTE                   35
        BYTE   W01
        BYTE                   38
        BYTE   W02
        BYTE                   40
        BYTE           N03     Gn4   v082
        BYTE   W01
        BYTE           VOL     42
        BYTE   W02
        BYTE                   44
        BYTE           N03     Gs4
        BYTE   W01
        BYTE           VOL     47
        BYTE   W02
        BYTE                   46
        BYTE           N24     An4   v107
        BYTE   W01
        BYTE           VOL     44
        BYTE   W02
        BYTE                   43
        BYTE   W01
        BYTE                   42
        BYTE   W02
        BYTE                   41
        BYTE   W01
        BYTE                   39
        BYTE   W17
        BYTE           N24     Gn4
        BYTE   W03
        BYTE           VOL     40
        BYTE   W04
        BYTE                   41
        BYTE   W03
        BYTE                   42
        BYTE   W02
        BYTE                   43
        BYTE   W01
        BYTE                   44
        BYTE   W03
        BYTE                   45
        BYTE   W02
        BYTE                   46
        BYTE   W03
        BYTE                   47
        BYTE   W01
        BYTE                   48
        BYTE   W02
// 006   ----------------------------------------
        BYTE                   47
        BYTE           N32     En4   v107   gtp3
        BYTE   W01
        BYTE           VOL     44
        BYTE   W01
        BYTE                   43
        BYTE   W01
        BYTE                   42
        BYTE   W01
        BYTE                   39
        BYTE   W09
        BYTE                   40
        BYTE   W03
        BYTE                   41
        BYTE   W03
        BYTE                   42
        BYTE   W02
        BYTE                   43
        BYTE   W01
        BYTE                   44
        BYTE   W03
        BYTE                   45
        BYTE   W02
        BYTE                   46
        BYTE   W01
        BYTE                   47
        BYTE   W02
        BYTE                   48
        BYTE   W03
        BYTE                   49
        BYTE   W01
        BYTE                   50
        BYTE   W02
        BYTE           N06
        BYTE   W06
        BYTE                   Fn4
        BYTE   W06
        BYTE           N48     Dn4
        BYTE   W11
        BYTE           VOL     49
        BYTE   W03
        BYTE                   48
        BYTE   W06
        BYTE                   47
        BYTE   W04
        BYTE                   46
        BYTE   W03
        BYTE                   44
        BYTE   W01
        BYTE                   43
        BYTE   W02
        BYTE                   42
        BYTE   W01
        BYTE                   41
        BYTE   W02
        BYTE                   39
        BYTE   W01
        BYTE                   38
        BYTE   W02
        BYTE                   37
        BYTE   W01
        BYTE                   36
        BYTE   W02
        BYTE                   35
        BYTE   W01
        BYTE                   33
        BYTE   W02
        BYTE                   32
        BYTE   W01
        BYTE                   31
        BYTE   W02
        BYTE                   30
        BYTE   W01
        BYTE                   29
        BYTE   W02
// 007   ----------------------------------------
        BYTE                   27
        BYTE   W01
        BYTE                   26
        BYTE   W01
        BYTE                   25
        BYTE   W02
        BYTE                   26
        BYTE   W01
        BYTE                   27
        BYTE   W02
        BYTE                   28
        BYTE   W01
        BYTE                   29
        BYTE   W02
        BYTE                   30
        BYTE   W01
        BYTE                   31
        BYTE   W02
        BYTE                   32
        BYTE   W01
        BYTE                   33
        BYTE   W02
        BYTE                   34
        BYTE   W01
        BYTE                   35
        BYTE   W02
        BYTE                   36
        BYTE   W01
        BYTE                   37
        BYTE   W04
        BYTE                   38
        BYTE           N24     En4
        BYTE   W03
        BYTE           VOL     39
        BYTE   W03
        BYTE                   40
        BYTE   W02
        BYTE                   41
        BYTE   W01
        BYTE                   42
        BYTE   W02
        BYTE                   43
        BYTE   W01
        BYTE                   45
        BYTE   W02
        BYTE                   46
        BYTE   W01
        BYTE                   47
        BYTE   W02
        BYTE                   49
        BYTE   W01
        BYTE                   50
        BYTE   W01
        BYTE                   51
        BYTE   W05
        BYTE           N18     An3
        BYTE   W02
        BYTE           VOL     50
        BYTE   W03
        BYTE                   48
        BYTE   W01
        BYTE                   47
        BYTE   W02
        BYTE                   46
        BYTE   W01
        BYTE                   45
        BYTE   W09
        BYTE                   46
        BYTE           N18     Bn3
        BYTE   W09
        BYTE           VOL     47
        BYTE   W06
        BYTE                   48
        BYTE   W03
        BYTE           N12     Cn4
        BYTE   W06
        BYTE           VOL     49
        BYTE   W06
// 008   ----------------------------------------
        BYTE                   50
        BYTE           N18     En4
        BYTE   W02
        BYTE           VOL     49
        BYTE   W01
        BYTE                   48
        BYTE   W02
        BYTE                   46
        BYTE   W01
        BYTE                   45
        BYTE   W02
        BYTE                   43
        BYTE   W01
        BYTE                   42
        BYTE   W01
        BYTE                   41
        BYTE   W03
        BYTE                   42
        BYTE   W03
        BYTE                   43
        BYTE   W02
        BYTE           N06     Dn4
        BYTE   W01
        BYTE           VOL     44
        BYTE   W02
        BYTE                   45
        BYTE   W01
        BYTE                   46
        BYTE   W02
        BYTE           TIE     En4
        BYTE   W01
        BYTE           VOL     48
        BYTE   W01
        BYTE                   46
        BYTE   W01
        BYTE                   44
        BYTE   W01
        BYTE                   42
        BYTE   W01
        BYTE                   40
        BYTE   W01
        BYTE                   37
        BYTE   W01
        BYTE                   36
        BYTE   W01
        BYTE                   35
        BYTE   W01
        BYTE                   33
        BYTE   W06
        BYTE                   34
        BYTE   W03
        BYTE                   35
        BYTE   W03
        BYTE                   36
        BYTE   W03
        BYTE                   37
        BYTE   W03
        BYTE                   38
        BYTE   W01
        BYTE                   40
        BYTE   W02
        BYTE                   42
        BYTE   W01
        BYTE                   44
        BYTE   W02
        BYTE                   46
        BYTE   W01
        BYTE                   49
        BYTE   W01
        BYTE                   50
        BYTE   W03
        BYTE                   49
        BYTE   W03
        BYTE                   48
        BYTE   W03
        BYTE                   47
        BYTE   W03
        BYTE                   46
        BYTE   W06
        BYTE                   44
        BYTE   W05
        BYTE                   43
        BYTE   W03
        BYTE                   42
        BYTE   W06
        BYTE                   41
        BYTE   W05
// 009   ----------------------------------------
        BYTE   W01
        BYTE                   40
        BYTE   W03
        BYTE                   39
        BYTE   W06
        BYTE                   38
        BYTE   W06
        BYTE                   37
        BYTE   W04
        BYTE                   36
        BYTE   W02
        BYTE                   35
        BYTE   W03
        BYTE                   33
        BYTE   W03
        BYTE                   32
        BYTE   W01
        BYTE                   31
        BYTE   W02
        BYTE                   30
        BYTE   W01
        BYTE                   29
        BYTE   W02
        BYTE                   28
        BYTE   W01
        BYTE                   27
        BYTE   W02
        BYTE                   26
        BYTE   W01
        BYTE                   25
        BYTE   W02
        BYTE                   24
        BYTE   W01
        BYTE                   23
        BYTE   W02
        BYTE                   22
        BYTE   W01
        BYTE                   21
        BYTE   W02
        BYTE                   20
        BYTE   W01
        BYTE                   19
        BYTE   W02
        BYTE                   18
        BYTE   W01
        BYTE                   17
        BYTE   W02
        BYTE                   16
        BYTE   W01
        BYTE                   15
        BYTE   W02
        BYTE                   14
        BYTE   W01
        BYTE                   13
        BYTE   W02
        BYTE                   12
        BYTE   W01
        BYTE                   11
        BYTE   W02
        BYTE                   10
        BYTE   W01
        BYTE                   9
        BYTE   W01
        BYTE           EOT
        BYTE   W01
        BYTE           VOL     8
        BYTE   W03
        BYTE                   6
        BYTE   W03
        BYTE                   4
        BYTE   W02
        BYTE                   3
        BYTE   W01
        BYTE                   4
        BYTE   W01
        BYTE                   7
        BYTE   W01
        BYTE                   8
        BYTE   W01
        BYTE                   10
        BYTE   W01
        BYTE                   12
        BYTE   W01
        BYTE                   14
        BYTE   W01
        BYTE                   16
        BYTE   W01
        BYTE                   19
        BYTE   W01
        BYTE                   20
        BYTE   W01
        BYTE                   21
        BYTE   W01
        BYTE                   24
        BYTE   W01
        BYTE                   26
        BYTE   W01
        BYTE                   27
        BYTE   W01
        BYTE                   30
        BYTE   W01
        BYTE                   31
        BYTE   W01
        BYTE                   33
        BYTE   W01
        BYTE                   35
        BYTE   W01
        BYTE                   37
        BYTE   W01
        BYTE                   39
        BYTE   W01
        BYTE                   42
        BYTE   W01
        BYTE                   43
        BYTE   W01
        BYTE                   44
        BYTE   W01
        BYTE                   47
        BYTE   W01
// 010   ----------------------------------------
        BYTE                   49
        BYTE           N36     Cn4
        BYTE   W01
        BYTE           VOL     47
        BYTE   W01
        BYTE                   42
        BYTE   W01
        BYTE                   39
        BYTE   W01
        BYTE                   37
        BYTE   W01
        BYTE                   33
        BYTE   W17
        BYTE                   34
        BYTE   W02
        BYTE                   36
        BYTE   W01
        BYTE                   38
        BYTE   W02
        BYTE                   40
        BYTE   W01
        BYTE                   42
        BYTE   W02
        BYTE                   44
        BYTE   W01
        BYTE                   46
        BYTE   W02
        BYTE                   48
        BYTE   W01
        BYTE                   51
        BYTE   W02
        BYTE           N06     Dn4
        BYTE   W01
        BYTE           VOL     50
        BYTE   W05
        BYTE           N06     En4
        BYTE   W01
        BYTE           VOL     49
        BYTE   W05
        BYTE                   48
        BYTE           N56     An4   v107   gtp3
        BYTE   W01
        BYTE           VOL     46
        BYTE   W01
        BYTE                   45
        BYTE   W01
        BYTE                   42
        BYTE   W01
        BYTE                   40
        BYTE   W01
        BYTE                   38
        BYTE   W03
        BYTE                   39
        BYTE   W08
        BYTE                   41
        BYTE   W01
        BYTE                   42
        BYTE   W02
        BYTE                   44
        BYTE   W01
        BYTE                   46
        BYTE   W02
        BYTE                   47
        BYTE   W01
        BYTE                   49
        BYTE   W02
        BYTE                   50
        BYTE   W01
        BYTE                   49
        BYTE   W02
        BYTE                   48
        BYTE   W01
        BYTE                   46
        BYTE   W02
        BYTE                   44
        BYTE   W01
        BYTE                   43
        BYTE   W02
        BYTE                   41
        BYTE   W02
        BYTE                   40
        BYTE   W01
        BYTE                   39
        BYTE   W03
        BYTE                   38
        BYTE   W02
        BYTE                   37
        BYTE   W01
        BYTE                   36
        BYTE   W02
        BYTE                   35
        BYTE   W01
        BYTE                   34
        BYTE   W02
// 011   ----------------------------------------
        BYTE                   35
        BYTE   W03
        BYTE                   37
        BYTE   W03
        BYTE                   38
        BYTE   W02
        BYTE                   39
        BYTE   W01
        BYTE                   40
        BYTE   W01
        BYTE                   42
        BYTE   W03
        BYTE                   44
        BYTE   W02
        BYTE                   45
        BYTE   W09
        BYTE           N24
        BYTE   W02
        BYTE           VOL     43
        BYTE   W02
        BYTE                   41
        BYTE   W01
        BYTE                   39
        BYTE   W02
        BYTE                   37
        BYTE   W01
        BYTE                   35
        BYTE   W04
        BYTE                   36
        BYTE   W02
        BYTE                   37
        BYTE   W03
        BYTE                   38
        BYTE   W01
        BYTE                   39
        BYTE   W02
        BYTE                   40
        BYTE   W01
        BYTE                   41
        BYTE   W03
        BYTE                   42
        BYTE           N18     Bn4   v101
        BYTE   W02
        BYTE           VOL     43
        BYTE   W01
        BYTE                   44
        BYTE   W15
        BYTE           N18     Cn5   v091
        BYTE   W10
        BYTE           VOL     45
        BYTE   W06
        BYTE                   46
        BYTE   W02
        BYTE           N12     Dn5   v085
        BYTE   W04
        BYTE           VOL     47
        BYTE   W03
        BYTE                   48
        BYTE   W05
// 012   ----------------------------------------
        BYTE                   49
        BYTE           N40     En5   v078   gtp1
        BYTE   W02
        BYTE           VOL     48
        BYTE   W01
        BYTE                   47
        BYTE   W02
        BYTE                   46
        BYTE   W01
        BYTE                   45
        BYTE   W02
        BYTE                   44
        BYTE   W01
        BYTE                   42
        BYTE   W02
        BYTE                   41
        BYTE   W01
        BYTE                   40
        BYTE   W02
        BYTE                   39
        BYTE   W01
        BYTE                   37
        BYTE   W10
        BYTE                   38
        BYTE   W06
        BYTE                   39
        BYTE   W05
        BYTE                   42
        BYTE   W01
        BYTE                   44
        BYTE   W02
        BYTE                   46
        BYTE   W01
        BYTE                   48
        BYTE   W01
        BYTE                   49
        BYTE   W01
        BYTE           N06     Dn5   v085
        BYTE   W06
        BYTE           N48     An4   v107
        BYTE   W08
        BYTE           VOL     48
        BYTE   W01
        BYTE                   47
        BYTE   W02
        BYTE                   46
        BYTE   W01
        BYTE                   45
        BYTE   W02
        BYTE                   44
        BYTE   W01
        BYTE                   43
        BYTE   W01
        BYTE                   42
        BYTE   W16
        BYTE                   41
        BYTE   W16
// 013   ----------------------------------------
        BYTE                   40
        BYTE   W02
        BYTE                   39
        BYTE   W01
        BYTE                   38
        BYTE   W04
        BYTE                   37
        BYTE   W06
        BYTE                   36
        BYTE   W06
        BYTE                   35
        BYTE   W05
        BYTE                   34
        BYTE           N24     En4
        BYTE   W02
        BYTE           VOL     35
        BYTE   W03
        BYTE                   36
        BYTE   W01
        BYTE                   37
        BYTE   W02
        BYTE                   38
        BYTE   W01
        BYTE                   39
        BYTE   W03
        BYTE                   40
        BYTE   W02
        BYTE                   41
        BYTE   W01
        BYTE                   42
        BYTE   W02
        BYTE                   43
        BYTE   W01
        BYTE                   44
        BYTE   W02
        BYTE                   45
        BYTE   W01
        BYTE                   46
        BYTE   W02
        BYTE                   47
        BYTE   W01
        BYTE                   46
        BYTE           N24     Cn5   v091
        BYTE   W02
        BYTE           VOL     45
        BYTE   W01
        BYTE                   44
        BYTE   W03
        BYTE                   43
        BYTE   W02
        BYTE                   41
        BYTE   W06
        BYTE                   40
        BYTE   W03
        BYTE                   39
        BYTE   W03
        BYTE                   38
        BYTE   W03
        BYTE                   37
        BYTE   W01
        BYTE           N24     Bn4   v101
        BYTE   W07
        BYTE           VOL     38
        BYTE   W10
        BYTE                   39
        BYTE   W02
        BYTE                   40
        BYTE   W01
        BYTE                   41
        BYTE   W02
        BYTE                   42
        BYTE   W01
        BYTE                   44
        BYTE   W01
// 014   ----------------------------------------
        BYTE           N40     An4   v107   gtp1
        BYTE   W01
        BYTE           VOL     45
        BYTE   W01
        BYTE                   43
        BYTE   W02
        BYTE                   41
        BYTE   W01
        BYTE                   39
        BYTE   W02
        BYTE                   37
        BYTE   W01
        BYTE                   35
        BYTE   W06
        BYTE                   36
        BYTE   W06
        BYTE                   37
        BYTE   W08
        BYTE                   39
        BYTE   W01
        BYTE                   40
        BYTE   W02
        BYTE                   41
        BYTE   W01
        BYTE                   42
        BYTE   W02
        BYTE                   44
        BYTE   W01
        BYTE                   45
        BYTE   W02
        BYTE                   46
        BYTE   W01
        BYTE                   47
        BYTE   W02
        BYTE                   49
        BYTE   W02
        BYTE           N06     Gn4
        BYTE   W06
        BYTE           N48     Dn4
        BYTE   W11
        BYTE           VOL     48
        BYTE   W06
        BYTE                   47
        BYTE   W03
        BYTE                   46
        BYTE   W04
        BYTE                   45
        BYTE   W03
        BYTE                   44
        BYTE   W02
        BYTE                   43
        BYTE   W03
        BYTE                   42
        BYTE   W01
        BYTE                   41
        BYTE   W03
        BYTE                   40
        BYTE   W02
        BYTE                   39
        BYTE   W03
        BYTE                   38
        BYTE   W01
        BYTE                   37
        BYTE   W03
        BYTE                   36
        BYTE   W02
        BYTE                   35
        BYTE   W01
// 015   ----------------------------------------
        BYTE                   34
        BYTE   W03
        BYTE                   33
        BYTE   W02
        BYTE                   32
        BYTE   W03
        BYTE                   33
        BYTE   W06
        BYTE                   34
        BYTE   W03
        BYTE                   35
        BYTE   W04
        BYTE                   36
        BYTE   W02
        BYTE                   37
        BYTE   W01
        BYTE           N24
        BYTE   W02
        BYTE           VOL     38
        BYTE   W01
        BYTE                   39
        BYTE   W02
        BYTE                   40
        BYTE   W01
        BYTE                   41
        BYTE   W02
        BYTE                   42
        BYTE   W01
        BYTE                   43
        BYTE   W02
        BYTE                   44
        BYTE   W01
        BYTE                   45
        BYTE   W01
        BYTE                   46
        BYTE   W06
        BYTE                   47
        BYTE   W03
        BYTE                   48
        BYTE   W02
        BYTE           N18     En4
        BYTE   W18
        BYTE                   Fn4
        BYTE   W18
        BYTE           N12     Gn4
        BYTE   W12
// 016   ----------------------------------------
        BYTE           N18     En4
        BYTE   W02
        BYTE           VOL     47
        BYTE   W01
        BYTE                   46
        BYTE   W01
        BYTE                   44
        BYTE   W01
        BYTE                   42
        BYTE   W01
        BYTE                   40
        BYTE   W01
        BYTE                   39
        BYTE   W01
        BYTE                   36
        BYTE   W02
        BYTE                   37
        BYTE   W01
        BYTE                   38
        BYTE   W02
        BYTE                   39
        BYTE   W01
        BYTE                   40
        BYTE   W02
        BYTE                   41
        BYTE   W01
        BYTE                   42
        BYTE   W01
        BYTE           N06     Dn4
        BYTE   W01
        BYTE           VOL     44
        BYTE   W01
        BYTE                   45
        BYTE   W02
        BYTE                   46
        BYTE   W01
        BYTE                   47
        BYTE   W01
        BYTE           TIE     En4
        BYTE   W02
        BYTE           VOL     46
        BYTE   W01
        BYTE                   44
        BYTE   W01
        BYTE                   42
        BYTE   W01
        BYTE                   41
        BYTE   W01
        BYTE                   39
        BYTE   W01
        BYTE                   37
        BYTE   W20
        BYTE                   39
        BYTE   W01
        BYTE                   42
        BYTE   W02
        BYTE                   44
        BYTE   W01
        BYTE                   46
        BYTE   W06
        BYTE                   45
        BYTE   W06
        BYTE                   44
        BYTE   W09
        BYTE                   43
        BYTE   W06
        BYTE                   42
        BYTE   W09
        BYTE                   41
        BYTE   W03
        BYTE                   40
        BYTE   W02
// 017   ----------------------------------------
        BYTE   W04
        BYTE                   39
        BYTE   W09
        BYTE                   38
        BYTE   W04
        BYTE                   37
        BYTE   W03
        BYTE                   36
        BYTE   W03
        BYTE                   35
        BYTE   W03
        BYTE                   34
        BYTE   W03
        BYTE                   33
        BYTE   W03
        BYTE                   31
        BYTE   W03
        BYTE                   30
        BYTE   W03
        BYTE                   29
        BYTE   W03
        BYTE                   28
        BYTE   W03
        BYTE                   27
        BYTE   W03
        BYTE                   26
        BYTE   W03
        BYTE                   25
        BYTE   W03
        BYTE                   24
        BYTE   W03
        BYTE                   23
        BYTE   W03
        BYTE                   22
        BYTE   W03
        BYTE                   21
        BYTE   W03
        BYTE                   19
        BYTE   W06
        BYTE                   17
        BYTE   W03
        BYTE                   16
        BYTE   W03
        BYTE                   15
        BYTE   W01
        BYTE           EOT
        BYTE   W02
        BYTE           VOL     14
        BYTE   W03
        BYTE                   13
        BYTE   W01
        BYTE                   12
        BYTE   W12
// 018   ----------------------------------------
        BYTE   W96
// 019   ----------------------------------------
        BYTE   W96
// 020   ----------------------------------------
        BYTE   W24
        BYTE   W02
        BYTE                   11
        BYTE   W68
        BYTE   W02
// 021   ----------------------------------------
        BYTE   W84
        BYTE                   10
        BYTE   W12
// 022   ----------------------------------------
        BYTE   W96
// 023   ----------------------------------------
        BYTE   W96
// 024   ----------------------------------------
        BYTE   W24
        BYTE   W03
        BYTE                   12
        BYTE   W01
        BYTE                   14
        BYTE   W01
        BYTE                   17
        BYTE   W01
        BYTE                   19
        BYTE   W01
        BYTE                   20
        BYTE   W01
        BYTE                   23
        BYTE   W01
        BYTE                   25
        BYTE   W01
        BYTE                   27
        BYTE   W01
        BYTE                   30
        BYTE   W01
        BYTE                   31
        BYTE   W01
        BYTE                   33
        BYTE   W01
        BYTE                   36
        BYTE   W01
        BYTE                   38
        BYTE   W01
        BYTE                   39
        BYTE   W01
        BYTE                   43
        BYTE   W01
        BYTE                   44
        BYTE           N03     Cn5   v081
        BYTE   W01
        BYTE           VOL     46
        BYTE   W02
        BYTE           N03     Cs5
        BYTE   W03
        BYTE           N18     Dn5   v107
        BYTE   W02
        BYTE           VOL     44
        BYTE   W01
        BYTE                   39
        BYTE   W01
        BYTE                   35
        BYTE   W08
        BYTE                   37
        BYTE   W02
        BYTE                   40
        BYTE   W01
        BYTE                   42
        BYTE   W02
        BYTE                   45
        BYTE   W01
        BYTE                   47
        BYTE           N06     En5   v105
        BYTE   W06
        BYTE           TIE     Dn5   v107
        BYTE   W03
        BYTE           VOL     46
        BYTE   W02
        BYTE                   45
        BYTE   W01
        BYTE                   44
        BYTE   W02
        BYTE                   42
        BYTE   W01
        BYTE                   41
        BYTE   W02
        BYTE                   40
        BYTE   W01
        BYTE                   39
        BYTE   W02
        BYTE                   37
        BYTE   W09
        BYTE                   36
        BYTE   W01
// 025   ----------------------------------------
        BYTE   W05
        BYTE                   35
        BYTE   W09
        BYTE                   34
        BYTE   W06
        BYTE                   33
        BYTE   W06
        BYTE                   32
        BYTE   W06
        BYTE                   31
        BYTE   W09
        BYTE                   30
        BYTE   W04
        BYTE                   29
        BYTE   W03
        BYTE                   28
        BYTE   W01
        BYTE                   27
        BYTE   W03
        BYTE                   26
        BYTE   W02
        BYTE                   25
        BYTE   W01
        BYTE                   24
        BYTE   W02
        BYTE                   23
        BYTE   W03
        BYTE                   22
        BYTE   W01
        BYTE                   21
        BYTE   W02
        BYTE                   20
        BYTE   W01
        BYTE                   19
        BYTE   W03
        BYTE                   18
        BYTE   W02
        BYTE                   17
        BYTE   W01
        BYTE                   16
        BYTE   W02
        BYTE                   15
        BYTE   W03
        BYTE                   14
        BYTE   W01
        BYTE                   13
        BYTE   W02
        BYTE                   12
        BYTE   W01
        BYTE                   11
        BYTE   W02
        BYTE                   10
        BYTE   W03
        BYTE                   9
        BYTE   W01
        BYTE                   8
        BYTE   W02
        BYTE                   7
        BYTE   W01
        BYTE                   6
        BYTE   W03
        BYTE                   5
        BYTE   W01
        BYTE           EOT
        BYTE   W01
        BYTE           VOL     4
        BYTE   W01
        BYTE                   3
        BYTE   W02
// 026   ----------------------------------------
        BYTE                   2
        BYTE   W96
// 027   ----------------------------------------
        BYTE   W08
        BYTE                   3
        BYTE   W48
        BYTE   W03
        BYTE                   4
        BYTE   W36
        BYTE   W01
// 028   ----------------------------------------
        BYTE   W40
        BYTE                   5
        BYTE   W48
        BYTE   W03
        BYTE                   6
        BYTE   W05
// 029   ----------------------------------------
        BYTE   W72
        BYTE                   7
        BYTE   W24
// 030   ----------------------------------------
        BYTE   W24
        BYTE   W03
        BYTE                   8
        BYTE   W68
        BYTE   W01
// 031   ----------------------------------------
        BYTE   W08
        BYTE                   9
        BYTE   W48
        BYTE   W03
        BYTE                   10
        BYTE   W36
        BYTE   W01
// 032   ----------------------------------------
        BYTE   W40
        BYTE                   11
        BYTE   W48
        BYTE   W03
        BYTE                   12
        BYTE   W05
// 033   ----------------------------------------
EndlessBattle_Domino_3_33:
        BYTE   W72
        BYTE           VOL     47
        BYTE   W18
        BYTE           N02     Bn4   v034
        BYTE   W02
        BYTE                   Cn5   v055
        BYTE   W02
        BYTE                   Cs5   v065
        BYTE   W02
        BYTE   PEND
// 034   ----------------------------------------
EndlessBattle_Domino_3_34:
        BYTE           N18     Dn5   v090
        BYTE   W02
        BYTE           VOL     44
        BYTE   W01
        BYTE                   38
        BYTE   W01
        BYTE                   35
        BYTE   W03
        BYTE                   36
        BYTE   W02
        BYTE                   37
        BYTE   W02
        BYTE                   38
        BYTE   W01
        BYTE                   40
        BYTE   W02
        BYTE                   42
        BYTE   W01
        BYTE                   44
        BYTE   W02
        BYTE                   46
        BYTE   W01
        BYTE                   48
        BYTE           N06     En5
        BYTE   W06
        BYTE           N12     Dn5
        BYTE   W12
        BYTE           N24     Cn5   v099
        BYTE   W02
        BYTE           VOL     45
        BYTE   W01
        BYTE                   42
        BYTE   W01
        BYTE                   39
        BYTE   W01
        BYTE                   34
        BYTE   W03
        BYTE                   35
        BYTE   W02
        BYTE                   36
        BYTE   W01
        BYTE                   37
        BYTE   W03
        BYTE                   38
        BYTE   W02
        BYTE                   39
        BYTE   W03
        BYTE                   40
        BYTE   W01
        BYTE                   41
        BYTE   W02
        BYTE                   42
        BYTE   W03
        BYTE                   43
        BYTE   W01
        BYTE                   44
        BYTE   W03
        BYTE                   45
        BYTE   W02
        BYTE                   46
        BYTE   W03
        BYTE                   47
        BYTE   W01
        BYTE                   48
        BYTE   W01
        BYTE           N18     Bn4
        BYTE   W01
        BYTE           VOL     44
        BYTE   W01
        BYTE                   41
        BYTE   W01
        BYTE                   39
        BYTE   W01
        BYTE                   35
        BYTE   W03
        BYTE                   36
        BYTE   W02
        BYTE                   37
        BYTE   W03
        BYTE                   38
        BYTE   W01
        BYTE                   39
        BYTE   W01
        BYTE                   42
        BYTE   W01
        BYTE                   44
        BYTE   W01
        BYTE                   45
        BYTE   W01
        BYTE                   48
        BYTE   W01
        BYTE                   49
        BYTE           N06     Cn5
        BYTE   W06
        BYTE   PEND
// 035   ----------------------------------------
EndlessBattle_Domino_3_35:
        BYTE           N12     Bn4   v099
        BYTE   W01
        BYTE           VOL     48
        BYTE   W02
        BYTE                   46
        BYTE   W01
        BYTE                   45
        BYTE   W02
        BYTE                   43
        BYTE   W02
        BYTE                   44
        BYTE   W01
        BYTE                   45
        BYTE   W02
        BYTE                   46
        BYTE   W01
        BYTE                   47
        BYTE           N54     An4
        BYTE   W02
        BYTE           VOL     49
        BYTE   W02
        BYTE                   47
        BYTE   W01
        BYTE                   44
        BYTE   W02
        BYTE                   42
        BYTE   W01
        BYTE                   40
        BYTE   W03
        BYTE                   39
        BYTE   W03
        BYTE                   38
        BYTE   W03
        BYTE                   37
        BYTE   W03
        BYTE                   36
        BYTE   W03
        BYTE                   35
        BYTE   W03
        BYTE                   34
        BYTE   W03
        BYTE                   33
        BYTE   W03
        BYTE                   32
        BYTE   W01
        BYTE                   31
        BYTE   W02
        BYTE                   30
        BYTE   W01
        BYTE                   29
        BYTE   W02
        BYTE                   28
        BYTE   W01
        BYTE                   27
        BYTE   W02
        BYTE                   26
        BYTE   W01
        BYTE                   25
        BYTE   W02
        BYTE                   24
        BYTE   W01
        BYTE                   23
        BYTE   W02
        BYTE                   22
        BYTE   W01
        BYTE                   21
        BYTE   W02
        BYTE                   20
        BYTE   W01
        BYTE                   19
        BYTE   W02
        BYTE                   18
        BYTE   W01
        BYTE                   17
        BYTE   W02
        BYTE                   19
        BYTE   W01
        BYTE                   23
        BYTE   W01
        BYTE                   27
        BYTE   W01
        BYTE                   35
        BYTE   W01
        BYTE                   39
        BYTE           N12     Bn4
        BYTE   W03
        BYTE           VOL     40
        BYTE   W03
        BYTE                   41
        BYTE   W03
        BYTE                   42
        BYTE   W03
        BYTE                   43
        BYTE           N12     Cn5
        BYTE   W03
        BYTE           VOL     44
        BYTE   W03
        BYTE                   45
        BYTE   W03
        BYTE                   46
        BYTE   W03
        BYTE   PEND
// 036   ----------------------------------------
EndlessBattle_Domino_3_36:
        BYTE           VOL     48
        BYTE           N18     Dn5   v090
        BYTE   W01
        BYTE           VOL     45
        BYTE   W01
        BYTE                   42
        BYTE   W01
        BYTE                   37
        BYTE   W14
        BYTE                   41
        BYTE   W01
        BYTE                   48
        BYTE           N06     En5
        BYTE   W06
        BYTE           N12     Dn5
        BYTE   W06
        BYTE           VOL     47
        BYTE   W06
        BYTE                   46
        BYTE           N30     Cn5   v099
        BYTE   W01
        BYTE           VOL     45
        BYTE   W02
        BYTE                   44
        BYTE   W01
        BYTE                   42
        BYTE   W02
        BYTE                   40
        BYTE   W01
        BYTE                   39
        BYTE   W01
        BYTE                   38
        BYTE   W03
        BYTE                   37
        BYTE   W06
        BYTE                   36
        BYTE   W03
        BYTE                   35
        BYTE   W03
        BYTE                   34
        BYTE   W01
        BYTE                   33
        BYTE   W02
        BYTE                   32
        BYTE   W02
        BYTE                   34
        BYTE   W01
        BYTE                   36
        BYTE   W01
        BYTE           N02     Dn5   v045
        BYTE   W01
        BYTE           VOL     39
        BYTE   W01
        BYTE                   41
        BYTE           N02     En5   v061
        BYTE   W02
        BYTE           VOL     43
        BYTE           N02     Fn5   v071
        BYTE   W01
        BYTE           VOL     46
        BYTE   W01
        BYTE           N24     Gn5   v083
        BYTE   W01
        BYTE           VOL     44
        BYTE   W01
        BYTE                   42
        BYTE   W02
        BYTE                   39
        BYTE   W01
        BYTE                   37
        BYTE   W02
        BYTE                   35
        BYTE   W03
        BYTE                   37
        BYTE   W02
        BYTE                   38
        BYTE   W01
        BYTE                   39
        BYTE   W02
        BYTE                   40
        BYTE   W01
        BYTE                   42
        BYTE   W02
        BYTE                   43
        BYTE   W01
        BYTE                   44
        BYTE   W02
        BYTE                   45
        BYTE   W01
        BYTE                   46
        BYTE   W02
        BYTE   PEND
// 037   ----------------------------------------
EndlessBattle_Domino_3_37:
        BYTE           VOL     48
        BYTE           N06     Fn5   v092
        BYTE   W06
        BYTE                   En5
        BYTE   W06
        BYTE           N72     Cn5   v099   gtp2
        BYTE   W01
        BYTE           VOL     47
        BYTE   W01
        BYTE                   46
        BYTE   W01
        BYTE                   42
        BYTE   W01
        BYTE                   41
        BYTE   W01
        BYTE                   39
        BYTE   W01
        BYTE                   36
        BYTE   W01
        BYTE                   35
        BYTE   W03
        BYTE                   36
        BYTE   W03
        BYTE                   37
        BYTE   W06
        BYTE                   38
        BYTE   W03
        BYTE                   39
        BYTE   W03
        BYTE                   40
        BYTE   W03
        BYTE                   41
        BYTE   W03
        BYTE                   42
        BYTE   W08
        BYTE                   40
        BYTE   W03
        BYTE                   39
        BYTE   W03
        BYTE                   38
        BYTE   W03
        BYTE                   37
        BYTE   W03
        BYTE                   36
        BYTE   W03
        BYTE                   35
        BYTE   W03
        BYTE                   34
        BYTE   W03
        BYTE                   33
        BYTE   W03
        BYTE                   32
        BYTE   W03
        BYTE                   31
        BYTE   W02
        BYTE                   29
        BYTE   W01
        BYTE                   27
        BYTE   W02
        BYTE                   25
        BYTE   W01
        BYTE                   23
        BYTE   W02
        BYTE                   21
        BYTE   W01
        BYTE                   19
        BYTE   W02
        BYTE                   17
        BYTE   W01
        BYTE                   15
        BYTE   W02
        BYTE                   12
        BYTE   W01
        BYTE                   10
        BYTE   W02
        BYTE                   8
        BYTE   W01
        BYTE   PEND
// 038   ----------------------------------------
        BYTE   W96
// 039   ----------------------------------------
        BYTE   W96
// 040   ----------------------------------------
        BYTE   W96
// 041   ----------------------------------------
        BYTE   W96
// 042   ----------------------------------------
        BYTE   W96
// 043   ----------------------------------------
        BYTE   W96
// 044   ----------------------------------------
        BYTE   W96
// 045   ----------------------------------------
        BYTE   W96
// 046   ----------------------------------------
        BYTE   W96
// 047   ----------------------------------------
        BYTE   W96
// 048   ----------------------------------------
        BYTE   W96
// 049   ----------------------------------------
        BYTE   W96
// 050   ----------------------------------------
        BYTE   W96
// 051   ----------------------------------------
        BYTE   W96
// 052   ----------------------------------------
        BYTE   W96
// 053   ----------------------------------------
        BYTE   PATT
         POIN2  EndlessBattle_Domino_3_33
// 054   ----------------------------------------
        BYTE   PATT
         POIN2  EndlessBattle_Domino_3_34
// 055   ----------------------------------------
        BYTE   PATT
         POIN2  EndlessBattle_Domino_3_35
// 056   ----------------------------------------
        BYTE   PATT
         POIN2  EndlessBattle_Domino_3_36
// 057   ----------------------------------------
        BYTE   PATT
         POIN2  EndlessBattle_Domino_3_37
// 058   ----------------------------------------
        BYTE           N44     En3   v107   gtp3
        BYTE   W01
        BYTE           VOL     10
        BYTE   W01
        BYTE                   12
        BYTE   W01
        BYTE                   15
        BYTE   W01
        BYTE                   17
        BYTE   W01
        BYTE                   18
        BYTE   W01
        BYTE                   21
        BYTE   W01
        BYTE                   23
        BYTE   W01
        BYTE                   25
        BYTE   W01
        BYTE                   28
        BYTE   W01
        BYTE                   29
        BYTE   W01
        BYTE                   31
        BYTE   W01
        BYTE                   34
        BYTE   W01
        BYTE                   36
        BYTE   W01
        BYTE                   37
        BYTE   W01
        BYTE                   41
        BYTE   W01
        BYTE                   43
        BYTE   W06
        BYTE                   44
        BYTE   W03
        BYTE                   45
        BYTE   W03
        BYTE                   46
        BYTE   W03
        BYTE                   45
        BYTE   W01
        BYTE                   44
        BYTE   W01
        BYTE                   42
        BYTE   W01
        BYTE                   39
        BYTE   W01
        BYTE                   37
        BYTE   W01
        BYTE                   36
        BYTE   W01
        BYTE                   33
        BYTE   W01
        BYTE                   31
        BYTE   W01
        BYTE                   30
        BYTE   W01
        BYTE                   27
        BYTE   W01
        BYTE                   26
        BYTE   W01
        BYTE                   24
        BYTE   W01
        BYTE                   21
        BYTE   W01
        BYTE                   20
        BYTE   W01
        BYTE                   18
        BYTE   W01
        BYTE                   15
        BYTE   W01
        BYTE                   14
        BYTE   W01
        BYTE                   17
        BYTE           N40     Bn3
        BYTE   W01
        BYTE           VOL     18
        BYTE   W01
        BYTE                   19
        BYTE   W01
        BYTE                   22
        BYTE   W01
        BYTE                   23
        BYTE   W01
        BYTE                   25
        BYTE   W01
        BYTE                   27
        BYTE   W01
        BYTE                   29
        BYTE   W01
        BYTE                   30
        BYTE   W01
        BYTE                   33
        BYTE   W01
        BYTE                   34
        BYTE   W01
        BYTE                   35
        BYTE   W01
        BYTE                   37
        BYTE   W09
        BYTE                   39
        BYTE   W01
        BYTE                   41
        BYTE   W02
        BYTE                   44
        BYTE   W01
        BYTE                   45
        BYTE   W02
        BYTE                   43
        BYTE   W01
        BYTE                   41
        BYTE   W02
        BYTE                   37
        BYTE   W10
        BYTE           N04     As3
        BYTE   W04
        BYTE                   An3
        BYTE   W04
// 059   ----------------------------------------
        BYTE           N80     Gs3   v107   gtp1
        BYTE   W04
        BYTE           VOL     36
        BYTE   W06
        BYTE                   35
        BYTE   W06
        BYTE                   34
        BYTE   W03
        BYTE                   33
        BYTE   W06
        BYTE                   32
        BYTE   W03
        BYTE                   31
        BYTE   W06
        BYTE                   30
        BYTE   W06
        BYTE                   29
        BYTE   W06
        BYTE                   28
        BYTE   W01
        BYTE                   27
        BYTE   W02
        BYTE                   26
        BYTE   W01
        BYTE                   25
        BYTE   W02
        BYTE                   24
        BYTE   W01
        BYTE                   23
        BYTE   W02
        BYTE                   22
        BYTE   W01
        BYTE                   21
        BYTE   W02
        BYTE                   19
        BYTE   W03
        BYTE                   17
        BYTE   W03
        BYTE                   15
        BYTE   W01
        BYTE                   14
        BYTE   W02
        BYTE                   13
        BYTE   W01
        BYTE                   12
        BYTE   W02
        BYTE                   11
        BYTE   W01
        BYTE                   10
        BYTE   W02
        BYTE                   9
        BYTE   W01
        BYTE                   8
        BYTE   W02
        BYTE                   7
        BYTE   W01
        BYTE                   6
        BYTE   W02
        BYTE                   5
        BYTE   W01
        BYTE                   4
        BYTE   W02
        BYTE                   2
        BYTE   W03
        BYTE                   0
        BYTE   W07
        BYTE                   32
        BYTE   W01
        BYTE                   47
        BYTE   W03
// 060   ----------------------------------------
        BYTE   GoTo
         POIN2  EndlessBattle_Domino_3_LOOP
        BYTE   FINE

//****************** Track 4 (Midi-Chn.4) ******************//

EndlessBattle_Domino_4:
        BYTE   KEYSH   EndlessBattle_Domino_key+0
// 000   ----------------------------------------
        BYTE           VOICE   107
        BYTE           PAN     c_v-19
        BYTE           VOL     48
        BYTE           N11     An4   v069
        BYTE           N11     En5
        BYTE   W12
        BYTE                   An4   v037
        BYTE           N11     En5
        BYTE   W12
        BYTE                   An4   v015
        BYTE           N11     En5
        BYTE   W12
        BYTE                   An4   v089
        BYTE           N11     En5
        BYTE   W12
        BYTE                   An4   v057
        BYTE           N11     En5
        BYTE   W12
        BYTE                   An4   v035
        BYTE           N11     En5
        BYTE   W12
        BYTE                   An4   v089
        BYTE           N11     En5
        BYTE   W12
        BYTE                   An4   v073
        BYTE           N11     En5
        BYTE   W12
// 001   ----------------------------------------
EndlessBattle_Domino_4_1:
        BYTE           N11     Gs4   v105
        BYTE           N11     En5
        BYTE   W12
        BYTE                   Gs4   v073
        BYTE           N11     En5
        BYTE   W12
        BYTE                   Gs4   v051
        BYTE           N11     En5
        BYTE   W12
        BYTE                   Gs4   v105
        BYTE           N11     En5
        BYTE   W12
        BYTE                   Gs4   v073
        BYTE           N11     En5
        BYTE   W12
        BYTE                   Gs4   v051
        BYTE           N11     En5
        BYTE   W12
        BYTE                   Gs4   v105
        BYTE           N11     En5
        BYTE   W12
        BYTE                   Gs4   v073
        BYTE           N11     En5
        BYTE   W12
        BYTE   PEND
// 002   ----------------------------------------
EndlessBattle_Domino_4_LOOP:
        BYTE   W96
// 003   ----------------------------------------
        BYTE   W96
// 004   ----------------------------------------
        BYTE   W96
// 005   ----------------------------------------
        BYTE   W96
// 006   ----------------------------------------
        BYTE   W96
// 007   ----------------------------------------
        BYTE   W96
// 008   ----------------------------------------
        BYTE   W96
// 009   ----------------------------------------
        BYTE   W96
// 010   ----------------------------------------
        BYTE           VOL     23
        BYTE           N44     An1   v096   gtp3
        BYTE                   En2
        BYTE   W06
        BYTE           VOL     24
        BYTE   W06
        BYTE                   25
        BYTE   W03
        BYTE                   26
        BYTE   W06
        BYTE                   27
        BYTE   W06
        BYTE                   28
        BYTE   W06
        BYTE                   29
        BYTE   W06
        BYTE                   30
        BYTE   W03
        BYTE                   31
        BYTE   W06
        BYTE                   32
        BYTE           N44     Cn2   v096   gtp3
        BYTE                   An2
        BYTE   W06
        BYTE           VOL     33
        BYTE   W06
        BYTE                   34
        BYTE   W06
        BYTE                   35
        BYTE   W03
        BYTE                   36
        BYTE   W09
        BYTE                   37
        BYTE   W03
        BYTE                   38
        BYTE   W06
        BYTE                   39
        BYTE   W03
        BYTE                   40
        BYTE   W06
// 011   ----------------------------------------
        BYTE                   41
        BYTE           N44     Bn1   v096   gtp3
        BYTE                   Gn2
        BYTE   W06
        BYTE           VOL     40
        BYTE   W10
        BYTE                   39
        BYTE   W07
        BYTE                   38
        BYTE   W09
        BYTE                   37
        BYTE   W07
        BYTE                   36
        BYTE   W09
        BYTE                   35
        BYTE           N44     Gn1   v096   gtp3
        BYTE                   Dn2
        BYTE   W07
        BYTE           VOL     34
        BYTE   W09
        BYTE                   33
        BYTE   W10
        BYTE                   32
        BYTE   W07
        BYTE                   31
        BYTE   W09
        BYTE                   30
        BYTE   W06
// 012   ----------------------------------------
        BYTE           N36     An1
        BYTE           N36     Dn2
        BYTE   W01
        BYTE           VOL     29
        BYTE   W09
        BYTE                   28
        BYTE   W07
        BYTE                   29
        BYTE   W01
        BYTE                   30
        BYTE   W02
        BYTE                   31
        BYTE   W03
        BYTE                   32
        BYTE   W01
        BYTE                   33
        BYTE   W02
        BYTE                   34
        BYTE   W03
        BYTE                   35
        BYTE   W01
        BYTE                   36
        BYTE   W02
        BYTE                   37
        BYTE   W01
        BYTE                   38
        BYTE   W03
        BYTE                   39
        BYTE           N03     As1
        BYTE           N03     En2
        BYTE   W02
        BYTE           VOL     40
        BYTE   W01
        BYTE                   41
        BYTE           N03     Bn1
        BYTE           N03     Fs2
        BYTE   W03
        BYTE           VOL     42
        BYTE           N03     Cn2
        BYTE           N03     Gn2
        BYTE   W02
        BYTE           VOL     43
        BYTE   W01
        BYTE                   44
        BYTE           N03     Cs2
        BYTE           N03     An2
        BYTE   W02
        BYTE           VOL     45
        BYTE   W01
        BYTE           N18     Dn2
        BYTE           N18     Bn2
        BYTE   W18
        BYTE                   En2
        BYTE           N18     Cn3
        BYTE   W12
        BYTE           VOL     46
        BYTE   W06
        BYTE           N12     Fs2
        BYTE           N12     Dn3
        BYTE   W12
// 013   ----------------------------------------
        BYTE           N18     An2
        BYTE           N18     En3
        BYTE   W12
        BYTE           VOL     47
        BYTE   W06
        BYTE           N06     Fn2
        BYTE           N06     Dn3
        BYTE   W06
        BYTE           N68     Cn2   v096   gtp3
        BYTE                   An2
        BYTE   W12
        BYTE           VOL     46
        BYTE   W03
        BYTE                   45
        BYTE   W06
        BYTE                   44
        BYTE   W06
        BYTE                   43
        BYTE   W06
        BYTE                   42
        BYTE   W03
        BYTE                   41
        BYTE   W06
        BYTE                   40
        BYTE   W03
        BYTE                   39
        BYTE   W01
        BYTE                   38
        BYTE   W02
        BYTE                   37
        BYTE   W01
        BYTE                   36
        BYTE   W02
        BYTE                   35
        BYTE   W01
        BYTE                   34
        BYTE   W02
        BYTE                   33
        BYTE   W01
        BYTE                   32
        BYTE   W02
        BYTE                   31
        BYTE   W01
        BYTE                   30
        BYTE   W02
        BYTE                   29
        BYTE   W01
        BYTE                   28
        BYTE   W03
        BYTE                   26
        BYTE   W03
        BYTE                   24
        BYTE   W03
        BYTE                   22
        BYTE   W02
// 014   ----------------------------------------
        BYTE           N44     As1   v096   gtp3
        BYTE                   Fn2
        BYTE   W01
        BYTE           VOL     21
        BYTE   W02
        BYTE                   20
        BYTE   W01
        BYTE                   19
        BYTE   W02
        BYTE                   18
        BYTE   W01
        BYTE                   19
        BYTE   W02
        BYTE                   21
        BYTE   W01
        BYTE                   22
        BYTE   W02
        BYTE                   24
        BYTE   W01
        BYTE                   25
        BYTE   W02
        BYTE                   27
        BYTE   W01
        BYTE                   28
        BYTE   W02
        BYTE                   29
        BYTE   W01
        BYTE                   31
        BYTE   W02
        BYTE                   33
        BYTE   W01
        BYTE                   34
        BYTE   W12
        BYTE                   35
        BYTE   W08
        BYTE                   36
        BYTE   W06
        BYTE           N42     Dn2
        BYTE           N36     An2   v096   gtp2
        BYTE   W14
        BYTE           VOL     37
        BYTE   W11
        BYTE                   38
        BYTE   W14
        BYTE           N03     Bn2   v104
        BYTE   W02
        BYTE           VOL     39
        BYTE   W01
        BYTE           N03     Ds2
        BYTE           N03     Cn3
        BYTE   W03
        BYTE                   En2
        BYTE           N03     Cs3
        BYTE   W01
        BYTE           VOL     40
        BYTE   W02
// 015   ----------------------------------------
        BYTE           N44     Fn2   v096   gtp3
        BYTE                   Dn3
        BYTE   W40
        BYTE           VOL     39
        BYTE   W07
        BYTE                   38
        BYTE   W01
        BYTE           N44     Dn2   v096   gtp3
        BYTE                   An2
        BYTE   W08
        BYTE           VOL     37
        BYTE   W07
        BYTE                   36
        BYTE   W10
        BYTE                   35
        BYTE   W06
        BYTE                   34
        BYTE   W10
        BYTE                   33
        BYTE   W07
// 016   ----------------------------------------
        BYTE           N44     Dn2   v096   gtp3
        BYTE                   An2
        BYTE   W03
        BYTE           VOL     32
        BYTE   W13
        BYTE                   33
        BYTE   W12
        BYTE                   34
        BYTE   W12
        BYTE                   35
        BYTE   W08
        BYTE           N18     An1
        BYTE           N18     Fs2
        BYTE   W01
        BYTE           VOL     36
        BYTE   W12
        BYTE                   37
        BYTE   W05
        BYTE           N03     Bn1
        BYTE           N03     Gn2
        BYTE   W03
        BYTE           VOL     38
        BYTE           N03     Cs2
        BYTE           N03     Gs2
        BYTE   W03
        BYTE           N23     Dn2
        BYTE           N23     An2
        BYTE   W10
        BYTE           VOL     39
        BYTE   W08
        BYTE                   40
        BYTE   W06
// 017   ----------------------------------------
        BYTE           N48     En2
        BYTE           N48     An2
        BYTE   W02
        BYTE           VOL     41
        BYTE   W06
        BYTE                   40
        BYTE   W17
        BYTE                   39
        BYTE   W12
        BYTE                   38
        BYTE   W11
        BYTE           N30     Bn1   v096   gtp1
        BYTE           N32     Gs2
        BYTE   W02
        BYTE           VOL     37
        BYTE   W01
        BYTE                   36
        BYTE   W03
        BYTE                   35
        BYTE   W02
        BYTE                   34
        BYTE   W03
        BYTE                   33
        BYTE   W03
        BYTE                   32
        BYTE   W01
        BYTE                   31
        BYTE   W03
        BYTE                   30
        BYTE   W02
        BYTE                   29
        BYTE   W02
        BYTE                   28
        BYTE   W02
        BYTE                   26
        BYTE   W01
        BYTE                   24
        BYTE   W02
        BYTE                   22
        BYTE   W01
        BYTE                   19
        BYTE   W02
        BYTE                   17
        BYTE   W01
        BYTE                   15
        BYTE   W02
        BYTE                   13
        BYTE   W01
        BYTE                   10
        BYTE   W02
        BYTE                   8
        BYTE   W01
        BYTE                   6
        BYTE   W02
        BYTE                   3
        BYTE   W01
        BYTE                   16
        BYTE   W01
        BYTE                   22
        BYTE   W01
        BYTE                   34
        BYTE   W06
// 018   ----------------------------------------
        BYTE                   36
        BYTE           N48     An3   v127
        BYTE   W03
        BYTE           VOL     37
        BYTE   W03
        BYTE                   38
        BYTE   W03
        BYTE                   39
        BYTE   W03
        BYTE                   40
        BYTE   W03
        BYTE                   41
        BYTE   W03
        BYTE                   42
        BYTE   W03
        BYTE                   43
        BYTE   W03
        BYTE                   45
        BYTE   W06
        BYTE                   47
        BYTE   W03
        BYTE                   48
        BYTE   W03
        BYTE                   49
        BYTE   W12
        BYTE           N48     Dn4
        BYTE   W07
        BYTE           VOL     48
        BYTE   W03
        BYTE                   47
        BYTE   W06
        BYTE                   46
        BYTE   W03
        BYTE                   45
        BYTE   W03
        BYTE                   44
        BYTE   W02
        BYTE                   43
        BYTE   W03
        BYTE                   44
        BYTE   W03
        BYTE                   45
        BYTE   W06
        BYTE                   46
        BYTE   W03
        BYTE                   47
        BYTE   W03
        BYTE                   48
        BYTE   W06
// 019   ----------------------------------------
        BYTE                   49
        BYTE   W16
        BYTE                   48
        BYTE   W02
        BYTE                   46
        BYTE   W01
        BYTE                   44
        BYTE   W02
        BYTE                   41
        BYTE   W03
        BYTE                   42
        BYTE           N24
        BYTE   W03
        BYTE           VOL     43
        BYTE   W03
        BYTE                   44
        BYTE   W03
        BYTE                   45
        BYTE   W03
        BYTE                   46
        BYTE   W03
        BYTE                   47
        BYTE   W03
        BYTE                   48
        BYTE   W03
        BYTE                   49
        BYTE   W03
        BYTE           N24     En4
        BYTE   W24
        BYTE                   Cn4
        BYTE   W24
// 020   ----------------------------------------
        BYTE           N48     An3
        BYTE   W11
        BYTE           VOL     48
        BYTE   W06
        BYTE                   47
        BYTE   W06
        BYTE                   46
        BYTE   W02
        BYTE                   45
        BYTE   W03
        BYTE                   46
        BYTE   W06
        BYTE                   47
        BYTE   W06
        BYTE                   48
        BYTE   W08
        BYTE           N32     Fn3   v127   gtp3
        BYTE   W01
        BYTE           VOL     49
        BYTE   W32
        BYTE   W03
        BYTE           N06     Gn3
        BYTE   W06
        BYTE                   An3
        BYTE   W06
// 021   ----------------------------------------
        BYTE           N48     Gn3
        BYTE   W11
        BYTE           VOL     48
        BYTE   W14
        BYTE                   47
        BYTE   W14
        BYTE                   46
        BYTE   W06
        BYTE                   45
        BYTE   W03
        BYTE                   44
        BYTE   W06
        BYTE                   43
        BYTE   W02
        BYTE                   42
        BYTE   W02
        BYTE                   43
        BYTE   W02
        BYTE           N24     Dn3
        BYTE   W01
        BYTE           VOL     44
        BYTE   W01
        BYTE                   45
        BYTE   W03
        BYTE                   46
        BYTE   W03
        BYTE                   47
        BYTE   W03
        BYTE                   48
        BYTE   W02
        BYTE                   49
        BYTE   W11
        BYTE           N12     En3
        BYTE   W12
// 022   ----------------------------------------
        BYTE           N48     Fn3
        BYTE   W48
        BYTE           N24     Gn3
        BYTE   W24
        BYTE                   An3
        BYTE   W24
// 023   ----------------------------------------
        BYTE           N48     Cn4
        BYTE   W09
        BYTE           VOL     48
        BYTE   W06
        BYTE                   47
        BYTE   W03
        BYTE                   46
        BYTE   W03
        BYTE                   45
        BYTE   W07
        BYTE                   46
        BYTE   W06
        BYTE                   47
        BYTE   W06
        BYTE                   48
        BYTE   W08
        BYTE           N18     Gn3
        BYTE   W01
        BYTE           VOL     49
        BYTE   W17
        BYTE           N18     An3
        BYTE   W18
        BYTE           N12     Cn4
        BYTE   W12
// 024   ----------------------------------------
        BYTE           N18     Dn4
        BYTE   W18
        BYTE           N06     En4
        BYTE   W06
        BYTE           TIE     Dn4
        BYTE   W05
        BYTE           VOL     48
        BYTE   W03
        BYTE                   47
        BYTE   W03
        BYTE                   46
        BYTE   W03
        BYTE                   45
        BYTE   W03
        BYTE                   46
        BYTE   W03
        BYTE                   47
        BYTE   W06
        BYTE                   48
        BYTE   W06
        BYTE                   49
        BYTE   W12
        BYTE                   48
        BYTE   W12
        BYTE                   47
        BYTE   W13
        BYTE                   46
        BYTE   W03
// 025   ----------------------------------------
        BYTE   W05
        BYTE                   45
        BYTE   W12
        BYTE                   44
        BYTE   W04
        BYTE                   43
        BYTE   W06
        BYTE                   41
        BYTE   W03
        BYTE                   40
        BYTE   W03
        BYTE                   39
        BYTE   W03
        BYTE                   38
        BYTE   W03
        BYTE                   37
        BYTE   W03
        BYTE                   36
        BYTE   W03
        BYTE                   34
        BYTE   W03
        BYTE                   33
        BYTE   W06
        BYTE                   31
        BYTE   W03
        BYTE                   30
        BYTE   W03
        BYTE                   29
        BYTE   W03
        BYTE                   28
        BYTE   W03
        BYTE                   27
        BYTE   W03
        BYTE                   26
        BYTE   W03
        BYTE           EOT
        BYTE           VOL     24
        BYTE   W03
        BYTE                   23
        BYTE   W03
        BYTE                   22
        BYTE   W03
        BYTE                   21
        BYTE   W03
        BYTE                   20
        BYTE   W03
        BYTE                   19
        BYTE   W03
        BYTE                   18
        BYTE   W01
        BYTE                   17
        BYTE   W03
        BYTE                   18
        BYTE   W02
// 026   ----------------------------------------
        BYTE           N48     Fn2   v104
        BYTE           N24     An2
        BYTE   W01
        BYTE           VOL     19
        BYTE   W03
        BYTE                   20
        BYTE   W03
        BYTE                   21
        BYTE   W03
        BYTE                   22
        BYTE   W06
        BYTE                   24
        BYTE   W06
        BYTE                   26
        BYTE   W02
        BYTE           N24     Cn3
        BYTE   W04
        BYTE           VOL     28
        BYTE   W06
        BYTE                   29
        BYTE   W03
        BYTE                   30
        BYTE   W03
        BYTE                   31
        BYTE   W03
        BYTE                   32
        BYTE   W03
        BYTE                   33
        BYTE   W01
        BYTE                   34
        BYTE   W01
        BYTE           N24     An2
        BYTE           N24     Fn3
        BYTE   W08
        BYTE           VOL     35
        BYTE   W06
        BYTE                   36
        BYTE   W09
        BYTE                   37
        BYTE   W01
        BYTE           N24     Cn3
        BYTE           N24     An3
        BYTE   W02
        BYTE           VOL     38
        BYTE   W09
        BYTE                   39
        BYTE   W06
        BYTE                   40
        BYTE   W07
// 027   ----------------------------------------
        BYTE           N48     Dn3
        BYTE           N48     Bn3
        BYTE   W30
        BYTE           VOL     41
        BYTE   W18
        BYTE           N48     Bn2
        BYTE           N48     Gn3
        BYTE   W32
        BYTE   W01
        BYTE           VOL     42
        BYTE   W15
// 028   ----------------------------------------
        BYTE           N24     Dn4
        BYTE           N48     En4
        BYTE   W02
        BYTE           VOL     43
        BYTE   W02
        BYTE                   42
        BYTE   W01
        BYTE                   41
        BYTE   W02
        BYTE                   40
        BYTE   W03
        BYTE                   38
        BYTE   W03
        BYTE                   37
        BYTE   W01
        BYTE                   36
        BYTE   W02
        BYTE                   35
        BYTE   W08
        BYTE           N24     Cn4
        BYTE   W02
        BYTE           VOL     36
        BYTE   W11
        BYTE                   37
        BYTE   W07
        BYTE                   38
        BYTE   W04
        BYTE           N24     Gn3
        BYTE           N24     Dn4   v077
        BYTE   W06
        BYTE           VOL     39
        BYTE   W07
        BYTE                   40
        BYTE   W03
        BYTE                   39
        BYTE   W03
        BYTE                   38
        BYTE   W05
        BYTE           N24     En3   v104
        BYTE           N24     Cn4   v077
        BYTE   W01
        BYTE           VOL     37
        BYTE   W03
        BYTE                   36
        BYTE   W03
        BYTE                   35
        BYTE   W03
        BYTE                   34
        BYTE   W06
        BYTE                   33
        BYTE   W03
        BYTE                   32
        BYTE   W03
        BYTE                   31
        BYTE   W02
// 029   ----------------------------------------
        BYTE           N48     Fs3   v104
        BYTE           N96     An3
        BYTE   W04
        BYTE           VOL     30
        BYTE   W03
        BYTE                   29
        BYTE   W02
        BYTE                   28
        BYTE   W01
        BYTE                   29
        BYTE   W03
        BYTE                   30
        BYTE   W02
        BYTE                   31
        BYTE   W03
        BYTE                   32
        BYTE   W03
        BYTE                   33
        BYTE   W03
        BYTE                   34
        BYTE   W03
        BYTE                   35
        BYTE   W01
        BYTE                   36
        BYTE   W03
        BYTE                   37
        BYTE   W02
        BYTE                   38
        BYTE   W03
        BYTE                   39
        BYTE   W01
        BYTE                   40
        BYTE   W03
        BYTE                   41
        BYTE   W03
        BYTE                   42
        BYTE   W02
        BYTE                   43
        BYTE   W03
        BYTE                   44
        BYTE           N48     Dn3
        BYTE   W02
        BYTE           VOL     45
        BYTE   W03
        BYTE                   44
        BYTE   W03
        BYTE                   43
        BYTE   W03
        BYTE                   42
        BYTE   W03
        BYTE                   41
        BYTE   W03
        BYTE                   40
        BYTE   W03
        BYTE                   39
        BYTE   W03
        BYTE                   38
        BYTE   W03
        BYTE                   37
        BYTE   W03
        BYTE                   36
        BYTE   W03
        BYTE                   35
        BYTE   W03
        BYTE                   34
        BYTE   W06
        BYTE                   33
        BYTE   W03
        BYTE                   32
        BYTE   W03
        BYTE                   31
        BYTE   W01
// 030   ----------------------------------------
        BYTE   W02
        BYTE                   30
        BYTE   W03
        BYTE                   29
        BYTE   W03
        BYTE                   28
        BYTE   W02
        BYTE                   27
        BYTE   W03
        BYTE                   28
        BYTE   W06
        BYTE                   29
        BYTE   W05
        BYTE           N48     An2
        BYTE           N48     Cn3
        BYTE   W01
        BYTE           VOL     30
        BYTE   W03
        BYTE                   31
        BYTE   W06
        BYTE                   32
        BYTE   W06
        BYTE                   33
        BYTE   W06
        BYTE                   34
        BYTE   W06
        BYTE                   35
        BYTE   W03
        BYTE                   36
        BYTE   W06
        BYTE                   37
        BYTE   W03
        BYTE                   38
        BYTE   W06
        BYTE                   39
        BYTE   W02
        BYTE           N48     Bn2
        BYTE           N48     Dn3
        BYTE   W24
// 031   ----------------------------------------
        BYTE   W10
        BYTE           VOL     40
        BYTE   W14
        BYTE           N24     Cn3
        BYTE           N24     En3
        BYTE   W24
        BYTE                   An2
        BYTE           N24     Fn3
        BYTE   W17
        BYTE           VOL     41
        BYTE   W07
        BYTE           N24     Cn3
        BYTE           N24     An3
        BYTE   W24
// 032   ----------------------------------------
        BYTE           N72     Dn3
        BYTE           N72     Bn3
        BYTE   W05
        BYTE           VOL     42
        BYTE   W01
        BYTE                   41
        BYTE   W03
        BYTE                   40
        BYTE   W03
        BYTE                   39
        BYTE   W02
        BYTE                   38
        BYTE   W03
        BYTE                   37
        BYTE   W03
        BYTE                   36
        BYTE   W02
        BYTE                   35
        BYTE   W08
        BYTE                   34
        BYTE   W12
        BYTE                   33
        BYTE   W12
        BYTE                   32
        BYTE   W08
        BYTE                   31
        BYTE   W03
        BYTE                   32
        BYTE   W03
        BYTE                   33
        BYTE   W03
        BYTE                   34
        BYTE   W01
        BYTE           N24     Fn3
        BYTE           N24     Dn4
        BYTE   W02
        BYTE           VOL     35
        BYTE   W03
        BYTE                   36
        BYTE   W02
        BYTE                   37
        BYTE   W03
        BYTE                   38
        BYTE   W06
        BYTE                   39
        BYTE   W03
        BYTE                   40
        BYTE   W03
        BYTE                   41
        BYTE   W02
// 033   ----------------------------------------
        BYTE           N96     Dn3
        BYTE           N96     Bn3
        BYTE   W06
        BYTE           VOL     40
        BYTE   W03
        BYTE                   39
        BYTE   W01
        BYTE                   38
        BYTE   W02
        BYTE                   37
        BYTE   W01
        BYTE                   36
        BYTE   W02
        BYTE                   34
        BYTE   W01
        BYTE                   33
        BYTE   W02
        BYTE                   32
        BYTE   W01
        BYTE                   31
        BYTE   W02
        BYTE                   29
        BYTE   W01
        BYTE                   28
        BYTE   W02
        BYTE                   27
        BYTE   W01
        BYTE                   26
        BYTE   W02
        BYTE                   24
        BYTE   W01
        BYTE                   23
        BYTE   W02
        BYTE                   22
        BYTE   W01
        BYTE                   21
        BYTE   W02
        BYTE                   19
        BYTE   W01
        BYTE                   18
        BYTE   W02
        BYTE                   17
        BYTE   W01
        BYTE                   16
        BYTE   W02
        BYTE                   15
        BYTE   W01
        BYTE                   13
        BYTE   W02
        BYTE                   12
        BYTE   W01
        BYTE                   13
        BYTE   W02
        BYTE                   14
        BYTE   W01
        BYTE                   15
        BYTE   W02
        BYTE                   16
        BYTE   W01
        BYTE                   17
        BYTE   W02
        BYTE                   19
        BYTE   W01
        BYTE                   20
        BYTE   W02
        BYTE                   21
        BYTE   W01
        BYTE                   22
        BYTE   W02
        BYTE                   23
        BYTE   W01
        BYTE                   24
        BYTE   W02
        BYTE                   25
        BYTE   W01
        BYTE                   26
        BYTE   W02
        BYTE                   28
        BYTE   W01
        BYTE                   29
        BYTE   W02
        BYTE                   30
        BYTE   W01
        BYTE                   31
        BYTE   W02
        BYTE                   33
        BYTE   W06
        BYTE                   34
        BYTE   W03
        BYTE                   35
        BYTE   W03
        BYTE                   36
        BYTE   W01
        BYTE                   37
        BYTE   W03
        BYTE                   38
        BYTE   W03
        BYTE                   39
        BYTE   W01
        BYTE                   40
        BYTE   W03
        BYTE                   41
        BYTE   W03
        BYTE                   42
        BYTE   W01
// 034   ----------------------------------------
EndlessBattle_Domino_4_34:
        BYTE           N36     En3   v104
        BYTE           N36     Dn4
        BYTE   W01
        BYTE           VOL     43
        BYTE   W32
        BYTE   W03
        BYTE           N12     En3
        BYTE           N12     Cn4
        BYTE   W12
        BYTE                   En3   v054
        BYTE           N12     Cn4
        BYTE   W12
        BYTE                   En3   v039
        BYTE           N12     Cn4
        BYTE   W12
        BYTE           N36     Dn3   v104
        BYTE           N36     Bn3
        BYTE   W24
        BYTE   PEND
// 035   ----------------------------------------
EndlessBattle_Domino_4_35:
        BYTE   W12
        BYTE           N72     Cn3   v104
        BYTE           N72     An3
        BYTE   W06
        BYTE           VOL     42
        BYTE   W01
        BYTE                   41
        BYTE   W02
        BYTE                   40
        BYTE   W01
        BYTE                   38
        BYTE   W02
        BYTE                   37
        BYTE   W01
        BYTE                   36
        BYTE   W02
        BYTE                   34
        BYTE   W01
        BYTE                   33
        BYTE   W02
        BYTE                   32
        BYTE   W06
        BYTE                   33
        BYTE   W06
        BYTE                   34
        BYTE   W06
        BYTE                   35
        BYTE   W03
        BYTE                   36
        BYTE   W09
        BYTE                   37
        BYTE   W03
        BYTE                   38
        BYTE   W06
        BYTE                   39
        BYTE   W03
        BYTE                   40
        BYTE   W06
        BYTE                   41
        BYTE   W09
        BYTE                   42
        BYTE   W03
        BYTE                   43
        BYTE   W04
        BYTE                   44
        BYTE   W02
        BYTE   PEND
// 036   ----------------------------------------
EndlessBattle_Domino_4_36:
        BYTE           N36     En3   v104
        BYTE           N36     Dn4
        BYTE   W36
        BYTE           N12     En3
        BYTE           N12     Cn4
        BYTE   W12
        BYTE                   En3   v054
        BYTE           N12     Cn4
        BYTE   W12
        BYTE                   En3   v039
        BYTE           N12     Cn4
        BYTE   W12
        BYTE           N36     Dn3   v104
        BYTE           N36     Bn3
        BYTE   W24
        BYTE   PEND
// 037   ----------------------------------------
EndlessBattle_Domino_4_37:
        BYTE   W12
        BYTE           N66     Cn3   v104
        BYTE           N66     An3
        BYTE   W04
        BYTE           VOL     45
        BYTE   W02
        BYTE                   46
        BYTE   W03
        BYTE                   45
        BYTE   W03
        BYTE                   44
        BYTE   W03
        BYTE                   43
        BYTE   W03
        BYTE                   42
        BYTE   W03
        BYTE                   41
        BYTE   W06
        BYTE                   40
        BYTE   W03
        BYTE                   39
        BYTE   W03
        BYTE                   38
        BYTE   W03
        BYTE                   37
        BYTE   W03
        BYTE                   36
        BYTE   W03
        BYTE                   35
        BYTE   W03
        BYTE                   34
        BYTE   W03
        BYTE                   33
        BYTE   W06
        BYTE                   31
        BYTE   W03
        BYTE                   30
        BYTE   W01
        BYTE                   29
        BYTE   W02
        BYTE                   28
        BYTE   W01
        BYTE                   27
        BYTE   W02
        BYTE                   26
        BYTE   W01
        BYTE                   24
        BYTE   W02
        BYTE                   23
        BYTE   W01
        BYTE                   22
        BYTE   W02
        BYTE                   21
        BYTE   W01
        BYTE                   20
        BYTE   W02
        BYTE                   19
        BYTE   W01
        BYTE                   17
        BYTE   W02
        BYTE                   16
        BYTE   W01
        BYTE                   15
        BYTE   W02
        BYTE                   14
        BYTE   W01
        BYTE                   13
        BYTE   W02
        BYTE                   12
        BYTE   W01
        BYTE                   10
        BYTE   W01
        BYTE                   28
        BYTE   W01
        BYTE   PEND
// 038   ----------------------------------------
EndlessBattle_Domino_4_38:
        BYTE           N96     Cn3   v100
        BYTE           N96     En3
        BYTE   W96
        BYTE   PEND
// 039   ----------------------------------------
EndlessBattle_Domino_4_39:
        BYTE           N96     An2   v100
        BYTE           N96     Dn3
        BYTE   W96
        BYTE   PEND
// 040   ----------------------------------------
        BYTE   PATT
         POIN2  EndlessBattle_Domino_4_38
// 041   ----------------------------------------
        BYTE   PATT
         POIN2  EndlessBattle_Domino_4_39
// 042   ----------------------------------------
EndlessBattle_Domino_4_42:
        BYTE           N96     An2   v100
        BYTE           N96     Cn3
        BYTE   W96
        BYTE   PEND
// 043   ----------------------------------------
EndlessBattle_Domino_4_43:
        BYTE           N96     Dn2   v100
        BYTE           N96     Gn2
        BYTE           N96     Bn2
        BYTE   W96
        BYTE   PEND
// 044   ----------------------------------------
        BYTE   PATT
         POIN2  EndlessBattle_Domino_4_42
// 045   ----------------------------------------
        BYTE   PATT
         POIN2  EndlessBattle_Domino_4_43
// 046   ----------------------------------------
        BYTE   W96
// 047   ----------------------------------------
        BYTE   W96
// 048   ----------------------------------------
        BYTE   W96
// 049   ----------------------------------------
        BYTE   W96
// 050   ----------------------------------------
EndlessBattle_Domino_4_50:
        BYTE           N48     Fn3   v100
        BYTE           N48     An3
        BYTE   W48
        BYTE                   Gn3
        BYTE           N48     Bn3
        BYTE   W48
        BYTE   PEND
// 051   ----------------------------------------
EndlessBattle_Domino_4_51:
        BYTE           N48     Gn3   v100
        BYTE           N48     Bn3
        BYTE   W48
        BYTE                   An3
        BYTE           N48     Cn4
        BYTE   W48
        BYTE   PEND
// 052   ----------------------------------------
        BYTE   PATT
         POIN2  EndlessBattle_Domino_4_50
// 053   ----------------------------------------
        BYTE   PATT
         POIN2  EndlessBattle_Domino_4_51
// 054   ----------------------------------------
        BYTE   PATT
         POIN2  EndlessBattle_Domino_4_34
// 055   ----------------------------------------
        BYTE   PATT
         POIN2  EndlessBattle_Domino_4_35
// 056   ----------------------------------------
        BYTE   PATT
         POIN2  EndlessBattle_Domino_4_36
// 057   ----------------------------------------
        BYTE   PATT
         POIN2  EndlessBattle_Domino_4_37
// 058   ----------------------------------------
        BYTE           VOL     49
        BYTE           N11     An4   v069
        BYTE           N11     En5
        BYTE   W12
        BYTE                   An4   v037
        BYTE           N11     En5
        BYTE   W12
        BYTE                   An4   v015
        BYTE           N11     En5
        BYTE   W12
        BYTE                   An4   v089
        BYTE           N11     En5
        BYTE   W12
        BYTE                   An4   v057
        BYTE           N11     En5
        BYTE   W12
        BYTE                   An4   v035
        BYTE           N11     En5
        BYTE   W12
        BYTE                   An4   v089
        BYTE           N11     En5
        BYTE   W12
        BYTE                   An4   v073
        BYTE           N11     En5
        BYTE   W12
// 059   ----------------------------------------
        BYTE   PATT
         POIN2  EndlessBattle_Domino_4_1
// 060   ----------------------------------------
        BYTE           VOL     48
        BYTE   GoTo
         POIN2  EndlessBattle_Domino_4_LOOP
        BYTE   FINE

//****************** Track 5 (Midi-Chn.5) ******************//

EndlessBattle_Domino_5:
        BYTE   KEYSH   EndlessBattle_Domino_key+0
// 000   ----------------------------------------
        BYTE           VOICE   122
        BYTE           VOL     61
        BYTE           N06     Bn0   v100
        BYTE   W36
        BYTE                   Bn0
        BYTE   W36
        BYTE                   Bn0
        BYTE   W24
// 001   ----------------------------------------
        BYTE                   Bn0
        BYTE   W24
        BYTE                   Dn1   v120
        BYTE   W12
        BYTE                   Bn0   v100
        BYTE   W06
        BYTE                   Dn1   v080
        BYTE   W12
        BYTE                   Dn1   v063
        BYTE   W18
        BYTE                   Dn1   v120
        BYTE           N06     Bn0   v100
        BYTE   W24
// 002   ----------------------------------------
EndlessBattle_Domino_5_LOOP:
        BYTE           N06     Bn0   v100
        BYTE           N06     An3
        BYTE           N24     An2
        BYTE   W12
        BYTE           N06     An3
        BYTE           N06     Dn3
        BYTE   W06
        BYTE                   Bn0
        BYTE           N06     Dn3
        BYTE   W06
        BYTE                   Dn1
        BYTE           N06     An3
        BYTE           N06     Ds3
        BYTE   W06
        BYTE                   Ds3
        BYTE   W06
        BYTE                   Bn0
        BYTE           N06     An3
        BYTE           N06     En3
        BYTE   W06
        BYTE                   En3
        BYTE   W06
        BYTE                   Bn0
        BYTE           N06     An3
        BYTE           N06     Fs3
        BYTE   W12
        BYTE                   An3
        BYTE           N06     Fn3
        BYTE   W06
        BYTE                   Fn3
        BYTE   W06
        BYTE                   Dn1
        BYTE           N06     An3
        BYTE           N06     Ds3
        BYTE   W06
        BYTE                   Ds3
        BYTE   W06
        BYTE                   An3
        BYTE           N06     En3
        BYTE   W06
        BYTE                   En3
        BYTE   W06
// 003   ----------------------------------------
EndlessBattle_Domino_5_3:
        BYTE           N06     Bn0   v100
        BYTE           N06     An3
        BYTE   W12
        BYTE                   An3
        BYTE           N06     Dn3
        BYTE   W06
        BYTE                   Bn0
        BYTE   W06
        BYTE                   Dn1
        BYTE           N06     An3
        BYTE           N06     Ds3
        BYTE   W06
        BYTE                   Ds3
        BYTE   W06
        BYTE                   Bn0
        BYTE           N06     An3
        BYTE           N06     En3
        BYTE   W06
        BYTE                   En3
        BYTE   W06
        BYTE                   Bn0
        BYTE           N06     An3
        BYTE           N06     Fs3
        BYTE   W12
        BYTE                   An3
        BYTE           N06     Fn3
        BYTE   W06
        BYTE                   Fn3
        BYTE   W06
        BYTE                   Dn1
        BYTE           N06     An3
        BYTE           N06     Ds3
        BYTE   W06
        BYTE                   Ds3
        BYTE   W06
        BYTE                   An3
        BYTE           N06     En3
        BYTE   W06
        BYTE                   En3
        BYTE   W06
        BYTE   PEND
// 004   ----------------------------------------
EndlessBattle_Domino_5_4:
        BYTE           N06     Bn0   v100
        BYTE           N06     An3
        BYTE   W12
        BYTE                   An3
        BYTE           N06     Dn3
        BYTE   W06
        BYTE                   Bn0
        BYTE           N06     Dn3
        BYTE   W06
        BYTE                   Dn1
        BYTE           N06     An3
        BYTE           N06     Ds3
        BYTE   W06
        BYTE                   Ds3
        BYTE   W06
        BYTE                   Bn0
        BYTE           N06     An3
        BYTE           N06     En3
        BYTE   W06
        BYTE                   En3
        BYTE   W06
        BYTE                   Bn0
        BYTE           N06     An3
        BYTE           N06     Fs3
        BYTE   W12
        BYTE                   An3
        BYTE           N06     Fn3
        BYTE   W06
        BYTE                   Fn3
        BYTE   W06
        BYTE                   Dn1
        BYTE           N06     An3
        BYTE           N06     Ds3
        BYTE   W06
        BYTE                   Ds3
        BYTE   W06
        BYTE                   An3
        BYTE           N06     En3
        BYTE   W06
        BYTE                   En3
        BYTE   W06
        BYTE   PEND
// 005   ----------------------------------------
        BYTE   PATT
         POIN2  EndlessBattle_Domino_5_3
// 006   ----------------------------------------
        BYTE   PATT
         POIN2  EndlessBattle_Domino_5_4
// 007   ----------------------------------------
        BYTE   PATT
         POIN2  EndlessBattle_Domino_5_3
// 008   ----------------------------------------
        BYTE   PATT
         POIN2  EndlessBattle_Domino_5_4
// 009   ----------------------------------------
EndlessBattle_Domino_5_9:
        BYTE           N06     Bn0   v100
        BYTE           N06     An3
        BYTE   W12
        BYTE                   An3
        BYTE           N06     Dn3
        BYTE   W06
        BYTE                   Bn0
        BYTE   W06
        BYTE                   Dn1
        BYTE           N06     An3
        BYTE           N06     Ds3
        BYTE   W06
        BYTE                   Ds3
        BYTE   W06
        BYTE                   Bn0
        BYTE           N06     An3
        BYTE           N06     En3
        BYTE   W06
        BYTE                   En3
        BYTE   W06
        BYTE                   Bn0
        BYTE           N06     An3
        BYTE           N06     Fn3
        BYTE   W06
        BYTE                   Fn3   v064
        BYTE   W06
        BYTE                   Dn1   v100
        BYTE           N06     An3
        BYTE           N06     Fn3
        BYTE   W06
        BYTE                   Fn3   v064
        BYTE   W06
        BYTE                   Dn1   v100
        BYTE           N06     An3
        BYTE           N06     Fn3
        BYTE   W06
        BYTE                   Fn3   v064
        BYTE   W06
        BYTE                   Dn1   v100
        BYTE           N06     An3
        BYTE           N06     Fs3
        BYTE   W06
        BYTE                   Dn1
        BYTE           N06     Fs3
        BYTE   W06
        BYTE   PEND
// 010   ----------------------------------------
        BYTE   PATT
         POIN2  EndlessBattle_Domino_5_4
// 011   ----------------------------------------
        BYTE   PATT
         POIN2  EndlessBattle_Domino_5_3
// 012   ----------------------------------------
        BYTE   PATT
         POIN2  EndlessBattle_Domino_5_4
// 013   ----------------------------------------
        BYTE   PATT
         POIN2  EndlessBattle_Domino_5_3
// 014   ----------------------------------------
        BYTE   PATT
         POIN2  EndlessBattle_Domino_5_4
// 015   ----------------------------------------
        BYTE   PATT
         POIN2  EndlessBattle_Domino_5_3
// 016   ----------------------------------------
        BYTE   PATT
         POIN2  EndlessBattle_Domino_5_4
// 017   ----------------------------------------
        BYTE   PATT
         POIN2  EndlessBattle_Domino_5_9
// 018   ----------------------------------------
        BYTE   PATT
         POIN2  EndlessBattle_Domino_5_4
// 019   ----------------------------------------
        BYTE   PATT
         POIN2  EndlessBattle_Domino_5_3
// 020   ----------------------------------------
        BYTE   PATT
         POIN2  EndlessBattle_Domino_5_4
// 021   ----------------------------------------
        BYTE   PATT
         POIN2  EndlessBattle_Domino_5_3
// 022   ----------------------------------------
        BYTE   PATT
         POIN2  EndlessBattle_Domino_5_4
// 023   ----------------------------------------
        BYTE   PATT
         POIN2  EndlessBattle_Domino_5_3
// 024   ----------------------------------------
        BYTE   PATT
         POIN2  EndlessBattle_Domino_5_4
// 025   ----------------------------------------
        BYTE   PATT
         POIN2  EndlessBattle_Domino_5_9
// 026   ----------------------------------------
        BYTE   PATT
         POIN2  EndlessBattle_Domino_5_4
// 027   ----------------------------------------
        BYTE   PATT
         POIN2  EndlessBattle_Domino_5_3
// 028   ----------------------------------------
        BYTE   PATT
         POIN2  EndlessBattle_Domino_5_4
// 029   ----------------------------------------
        BYTE   PATT
         POIN2  EndlessBattle_Domino_5_3
// 030   ----------------------------------------
        BYTE   PATT
         POIN2  EndlessBattle_Domino_5_4
// 031   ----------------------------------------
        BYTE   PATT
         POIN2  EndlessBattle_Domino_5_3
// 032   ----------------------------------------
        BYTE   PATT
         POIN2  EndlessBattle_Domino_5_4
// 033   ----------------------------------------
        BYTE   PATT
         POIN2  EndlessBattle_Domino_5_9
// 034   ----------------------------------------
        BYTE   PATT
         POIN2  EndlessBattle_Domino_5_4
// 035   ----------------------------------------
        BYTE   PATT
         POIN2  EndlessBattle_Domino_5_3
// 036   ----------------------------------------
        BYTE   PATT
         POIN2  EndlessBattle_Domino_5_4
// 037   ----------------------------------------
        BYTE           N06     Bn0   v100
        BYTE           N06     An3
        BYTE   W12
        BYTE                   An3
        BYTE           N06     Dn3
        BYTE   W06
        BYTE                   Bn0
        BYTE   W06
        BYTE                   Dn1
        BYTE           N06     An3
        BYTE           N06     Ds3
        BYTE   W06
        BYTE                   Ds3
        BYTE   W06
        BYTE                   Bn0
        BYTE           N06     An3
        BYTE           N06     En3
        BYTE   W06
        BYTE                   En3
        BYTE   W06
        BYTE                   Bn0
        BYTE           N06     An3
        BYTE           N06     Fn3
        BYTE   W06
        BYTE                   Fn3   v064
        BYTE   W06
        BYTE                   An3   v100
        BYTE           N06     Dn1
        BYTE           N06     Fn3
        BYTE   W06
        BYTE                   Fn3   v064
        BYTE   W06
        BYTE                   Dn1   v100
        BYTE           N06     An3
        BYTE           N06     Fn3
        BYTE   W06
        BYTE                   Fn3   v064
        BYTE   W06
        BYTE                   An3   v100
        BYTE           N06     Dn1
        BYTE           N06     Fs3
        BYTE   W06
        BYTE                   Dn1
        BYTE           N06     Fs3
        BYTE   W06
// 038   ----------------------------------------
EndlessBattle_Domino_5_38:
        BYTE   W12
        BYTE           N06     Dn3   v100
        BYTE   W06
        BYTE                   Dn3
        BYTE   W06
        BYTE                   Ds3
        BYTE   W06
        BYTE                   Ds3
        BYTE   W06
        BYTE                   En3
        BYTE   W06
        BYTE                   En3
        BYTE   W06
        BYTE                   Fs3
        BYTE   W12
        BYTE                   Fn3
        BYTE   W06
        BYTE                   Fn3
        BYTE   W06
        BYTE                   Ds3
        BYTE   W06
        BYTE                   Ds3
        BYTE   W06
        BYTE                   En3
        BYTE   W06
        BYTE                   En3
        BYTE   W06
        BYTE   PEND
// 039   ----------------------------------------
EndlessBattle_Domino_5_39:
        BYTE   W12
        BYTE           N06     Dn3   v100
        BYTE   W12
        BYTE                   Ds3
        BYTE   W06
        BYTE                   Ds3
        BYTE   W06
        BYTE                   En3
        BYTE   W06
        BYTE                   En3
        BYTE   W06
        BYTE                   Fs3
        BYTE   W12
        BYTE                   Fn3
        BYTE   W06
        BYTE                   Fn3
        BYTE   W06
        BYTE                   Ds3
        BYTE   W06
        BYTE                   Ds3
        BYTE   W06
        BYTE                   En3
        BYTE   W06
        BYTE                   En3
        BYTE   W06
        BYTE   PEND
// 040   ----------------------------------------
        BYTE   PATT
         POIN2  EndlessBattle_Domino_5_38
// 041   ----------------------------------------
        BYTE   PATT
         POIN2  EndlessBattle_Domino_5_39
// 042   ----------------------------------------
        BYTE   PATT
         POIN2  EndlessBattle_Domino_5_38
// 043   ----------------------------------------
        BYTE   PATT
         POIN2  EndlessBattle_Domino_5_39
// 044   ----------------------------------------
        BYTE   PATT
         POIN2  EndlessBattle_Domino_5_38
// 045   ----------------------------------------
        BYTE   W12
        BYTE           N06     Dn3   v100
        BYTE   W12
        BYTE                   Ds3
        BYTE   W06
        BYTE                   Ds3
        BYTE   W06
        BYTE                   En3
        BYTE   W06
        BYTE                   En3
        BYTE   W06
        BYTE                   Fn3
        BYTE   W06
        BYTE                   Fn3   v064
        BYTE   W06
        BYTE                   Dn1   v100
        BYTE           N06     Fn3
        BYTE   W06
        BYTE                   Fn3   v064
        BYTE   W06
        BYTE                   Dn1   v100
        BYTE           N06     Fn3
        BYTE   W06
        BYTE                   Fn3   v064
        BYTE   W06
        BYTE                   Dn1   v100
        BYTE           N06     Fs3
        BYTE   W06
        BYTE                   Dn1
        BYTE           N06     Fs3
        BYTE   W06
// 046   ----------------------------------------
        BYTE   PATT
         POIN2  EndlessBattle_Domino_5_4
// 047   ----------------------------------------
        BYTE   PATT
         POIN2  EndlessBattle_Domino_5_3
// 048   ----------------------------------------
        BYTE   PATT
         POIN2  EndlessBattle_Domino_5_4
// 049   ----------------------------------------
        BYTE   PATT
         POIN2  EndlessBattle_Domino_5_3
// 050   ----------------------------------------
        BYTE   PATT
         POIN2  EndlessBattle_Domino_5_4
// 051   ----------------------------------------
        BYTE   PATT
         POIN2  EndlessBattle_Domino_5_3
// 052   ----------------------------------------
        BYTE   PATT
         POIN2  EndlessBattle_Domino_5_4
// 053   ----------------------------------------
        BYTE   PATT
         POIN2  EndlessBattle_Domino_5_9
// 054   ----------------------------------------
        BYTE   PATT
         POIN2  EndlessBattle_Domino_5_4
// 055   ----------------------------------------
        BYTE   PATT
         POIN2  EndlessBattle_Domino_5_3
// 056   ----------------------------------------
        BYTE   PATT
         POIN2  EndlessBattle_Domino_5_4
// 057   ----------------------------------------
        BYTE           N06     Bn0   v100
        BYTE           N06     An3
        BYTE   W12
        BYTE                   An3
        BYTE           N06     Dn3
        BYTE   W06
        BYTE                   Bn0
        BYTE   W06
        BYTE                   Dn1
        BYTE           N06     An3
        BYTE           N06     Ds3
        BYTE   W06
        BYTE                   Ds3
        BYTE   W06
        BYTE                   Bn0
        BYTE           N06     An3
        BYTE           N06     En3
        BYTE   W06
        BYTE                   En3
        BYTE   W06
        BYTE                   Bn0
        BYTE           N06     An3
        BYTE           N06     Fn3
        BYTE   W06
        BYTE                   Fn3   v064
        BYTE   W06
        BYTE                   An3   v100
        BYTE           N06     Fn3
        BYTE           N06     Dn1
        BYTE   W06
        BYTE                   Fn3
        BYTE   W06
        BYTE                   Dn1
        BYTE           N06     An3
        BYTE           N06     Fn3
        BYTE   W06
        BYTE                   Fn3   v064
        BYTE   W06
        BYTE                   An3   v100
        BYTE           N06     Dn1
        BYTE           N06     Fs3
        BYTE   W06
        BYTE                   Dn1
        BYTE           N06     Fs3
        BYTE   W06
// 058   ----------------------------------------
        BYTE   PATT
         POIN2  EndlessBattle_Domino_5_4
// 059   ----------------------------------------
        BYTE   PATT
         POIN2  EndlessBattle_Domino_5_9
// 060   ----------------------------------------
        BYTE   GoTo
         POIN2  EndlessBattle_Domino_5_LOOP
        BYTE   FINE

//****************** Track 6 (Midi-Chn.6) ******************//

EndlessBattle_Domino_6:
        BYTE   KEYSH   EndlessBattle_Domino_key+0
// 000   ----------------------------------------
        BYTE           VOICE   55
        BYTE           VOL     58
        BYTE           N24     An3   v088
        BYTE   W96
// 001   ----------------------------------------
        BYTE                   Gs3   v105
        BYTE   W96
// 002   ----------------------------------------
EndlessBattle_Domino_6_LOOP:
        BYTE           N12     An3   v100
        BYTE   W96
// 003   ----------------------------------------
EndlessBattle_Domino_6_3:
        BYTE   W84
        BYTE           N12     En3   v100
        BYTE   W12
        BYTE   PEND
// 004   ----------------------------------------
        BYTE                   An3
        BYTE   W96
// 005   ----------------------------------------
        BYTE   PATT
         POIN2  EndlessBattle_Domino_6_3
// 006   ----------------------------------------
        BYTE           N12     An3   v100
        BYTE   W96
// 007   ----------------------------------------
        BYTE   PATT
         POIN2  EndlessBattle_Domino_6_3
// 008   ----------------------------------------
        BYTE           N12     An3   v100
        BYTE   W96
// 009   ----------------------------------------
        BYTE   W96
// 010   ----------------------------------------
        BYTE                   An3
        BYTE   W96
// 011   ----------------------------------------
        BYTE   PATT
         POIN2  EndlessBattle_Domino_6_3
// 012   ----------------------------------------
        BYTE           N12     An3   v100
        BYTE   W96
// 013   ----------------------------------------
        BYTE   PATT
         POIN2  EndlessBattle_Domino_6_3
// 014   ----------------------------------------
        BYTE           N12     An3   v100
        BYTE   W96
// 015   ----------------------------------------
        BYTE   PATT
         POIN2  EndlessBattle_Domino_6_3
// 016   ----------------------------------------
        BYTE           N12     An3   v100
        BYTE   W96
// 017   ----------------------------------------
        BYTE   W96
// 018   ----------------------------------------
        BYTE           VOICE   57
        BYTE           VOL     34
        BYTE           N44     An2   v121   gtp3
        BYTE   W03
        BYTE           VOL     35
        BYTE   W03
        BYTE                   36
        BYTE   W03
        BYTE                   38
        BYTE   W06
        BYTE                   39
        BYTE   W03
        BYTE                   41
        BYTE   W03
        BYTE                   42
        BYTE   W03
        BYTE                   43
        BYTE   W03
        BYTE                   44
        BYTE   W03
        BYTE                   45
        BYTE   W03
        BYTE                   46
        BYTE   W03
        BYTE                   47
        BYTE   W12
        BYTE           N44     Dn3   v121   gtp3
        BYTE   W07
        BYTE           VOL     46
        BYTE   W03
        BYTE                   45
        BYTE   W06
        BYTE                   44
        BYTE   W03
        BYTE                   43
        BYTE   W03
        BYTE                   42
        BYTE   W08
        BYTE                   43
        BYTE   W03
        BYTE                   44
        BYTE   W06
        BYTE                   45
        BYTE   W03
        BYTE                   46
        BYTE   W03
        BYTE                   47
        BYTE   W03
// 019   ----------------------------------------
        BYTE   W16
        BYTE                   46
        BYTE   W01
        BYTE                   44
        BYTE   W02
        BYTE                   42
        BYTE   W01
        BYTE                   40
        BYTE   W01
        BYTE                   39
        BYTE   W03
        BYTE                   40
        BYTE           N23
        BYTE   W03
        BYTE           VOL     41
        BYTE   W03
        BYTE                   42
        BYTE   W03
        BYTE                   43
        BYTE   W03
        BYTE                   44
        BYTE   W03
        BYTE                   45
        BYTE   W03
        BYTE                   46
        BYTE   W03
        BYTE                   47
        BYTE   W03
        BYTE           N23     En3
        BYTE   W24
        BYTE                   Cn3
        BYTE   W24
// 020   ----------------------------------------
        BYTE           N44     An2   v121   gtp3
        BYTE   W11
        BYTE           VOL     46
        BYTE   W06
        BYTE                   45
        BYTE   W06
        BYTE                   44
        BYTE   W11
        BYTE                   45
        BYTE   W06
        BYTE                   46
        BYTE   W06
        BYTE                   47
        BYTE   W02
        BYTE           N32     Fn2   v121   gtp2
        BYTE   W36
        BYTE           N05     Gn2
        BYTE   W06
        BYTE                   An2
        BYTE   W06
// 021   ----------------------------------------
        BYTE           N44     Gn2   v121   gtp3
        BYTE   W15
        BYTE           VOL     46
        BYTE   W09
        BYTE                   45
        BYTE   W15
        BYTE                   44
        BYTE   W06
        BYTE                   43
        BYTE   W03
        BYTE                   42
        BYTE   W06
        BYTE                   41
        BYTE   W05
        BYTE                   42
        BYTE   W01
        BYTE           N23     Dn2
        BYTE   W02
        BYTE           VOL     43
        BYTE   W03
        BYTE                   44
        BYTE   W03
        BYTE                   45
        BYTE   W03
        BYTE                   46
        BYTE   W01
        BYTE                   47
        BYTE   W12
        BYTE           N11     En2
        BYTE   W12
// 022   ----------------------------------------
        BYTE           N44     Fn2   v121   gtp3
        BYTE   W48
        BYTE           N23     Gn2
        BYTE   W24
        BYTE                   An2
        BYTE   W24
// 023   ----------------------------------------
        BYTE           N44     Cn3   v121   gtp3
        BYTE   W12
        BYTE           VOL     46
        BYTE   W03
        BYTE                   45
        BYTE   W03
        BYTE                   44
        BYTE   W04
        BYTE                   43
        BYTE   W03
        BYTE                   44
        BYTE   W09
        BYTE                   45
        BYTE   W06
        BYTE                   46
        BYTE   W06
        BYTE                   47
        BYTE   W02
        BYTE           N17     Gn2
        BYTE   W18
        BYTE                   An2
        BYTE   W18
        BYTE           N11     Cn3
        BYTE   W12
// 024   ----------------------------------------
        BYTE           N17     Dn3
        BYTE   W18
        BYTE           N05     En3
        BYTE   W06
        BYTE           TIE     Dn3
        BYTE   W08
        BYTE           VOL     45
        BYTE   W03
        BYTE                   44
        BYTE   W08
        BYTE                   45
        BYTE   W06
        BYTE                   46
        BYTE   W03
        BYTE                   47
        BYTE   W21
        BYTE                   46
        BYTE   W09
        BYTE                   45
        BYTE   W14
// 025   ----------------------------------------
        BYTE                   42
        BYTE   W01
        BYTE                   41
        BYTE   W01
        BYTE                   39
        BYTE   W01
        BYTE                   36
        BYTE   W01
        BYTE                   35
        BYTE   W01
        BYTE                   33
        BYTE   W01
        BYTE                   30
        BYTE   W01
        BYTE                   28
        BYTE   W01
        BYTE                   27
        BYTE   W01
        BYTE                   23
        BYTE   W01
        BYTE                   22
        BYTE   W01
        BYTE                   20
        BYTE   W01
        BYTE                   17
        BYTE   W01
        BYTE                   16
        BYTE   W01
        BYTE                   14
        BYTE   W01
        BYTE                   11
        BYTE   W01
        BYTE                   9
        BYTE   W01
        BYTE                   8
        BYTE   W01
        BYTE                   4
        BYTE   W01
        BYTE                   3
        BYTE   W01
        BYTE                   0
        BYTE   W09
        BYTE           EOT
        BYTE   W07
        BYTE           VOICE   66
        BYTE           PAN     c_v-25
        BYTE   W36
        BYTE           N03     En3   v107
        BYTE   W01
        BYTE           VOL     44
        BYTE   W02
        BYTE           N04     Fs3
        BYTE   W04
        BYTE           N03     Gn3
        BYTE   W04
        BYTE                   An3
        BYTE   W03
        BYTE                   Bn3
        BYTE   W03
        BYTE                   Cn4
        BYTE   W04
        BYTE           N02     Dn4
        BYTE   W03
// 026   ----------------------------------------
        BYTE           N44     En4   v107   gtp3
        BYTE   W10
        BYTE           VOL     43
        BYTE   W03
        BYTE                   42
        BYTE   W01
        BYTE                   41
        BYTE   W03
        BYTE                   40
        BYTE   W03
        BYTE                   39
        BYTE   W02
        BYTE                   38
        BYTE   W03
        BYTE                   37
        BYTE   W13
        BYTE                   38
        BYTE   W09
        BYTE                   39
        BYTE   W01
        BYTE           N44     Cn5   v107   gtp3
        BYTE   W08
        BYTE           VOL     40
        BYTE   W09
        BYTE                   41
        BYTE   W09
        BYTE                   42
        BYTE   W06
        BYTE                   43
        BYTE   W07
        BYTE                   44
        BYTE   W09
// 027   ----------------------------------------
        BYTE   W24
        BYTE           N23     Bn4
        BYTE   W24
        BYTE                   An4
        BYTE   W24
        BYTE                   Gn4
        BYTE   W24
// 028   ----------------------------------------
        BYTE           N44     En4   v107   gtp3
        BYTE   W01
        BYTE           VOL     43
        BYTE   W03
        BYTE                   42
        BYTE   W03
        BYTE                   41
        BYTE   W03
        BYTE                   40
        BYTE   W03
        BYTE                   39
        BYTE   W03
        BYTE                   38
        BYTE   W02
        BYTE                   37
        BYTE   W03
        BYTE                   38
        BYTE   W06
        BYTE                   39
        BYTE   W03
        BYTE                   40
        BYTE   W06
        BYTE                   41
        BYTE   W06
        BYTE                   42
        BYTE   W03
        BYTE                   43
        BYTE   W03
        BYTE                   44
        BYTE           N17     Gn4
        BYTE   W18
        BYTE                   Cn4
        BYTE   W18
        BYTE           N11     En4
        BYTE   W12
// 029   ----------------------------------------
        BYTE           N44     Dn4   v107   gtp3
        BYTE   W03
        BYTE           VOL     43
        BYTE   W03
        BYTE                   42
        BYTE   W03
        BYTE                   41
        BYTE   W03
        BYTE                   40
        BYTE   W03
        BYTE                   39
        BYTE   W03
        BYTE                   38
        BYTE   W07
        BYTE                   39
        BYTE   W06
        BYTE                   40
        BYTE   W03
        BYTE                   41
        BYTE   W06
        BYTE                   42
        BYTE   W03
        BYTE                   43
        BYTE   W03
        BYTE                   44
        BYTE   W02
        BYTE           N23     An3
        BYTE   W24
        BYTE                   Bn3
        BYTE   W24
// 030   ----------------------------------------
        BYTE           TIE     Cn4
        BYTE   W09
        BYTE           VOL     43
        BYTE   W06
        BYTE                   42
        BYTE   W06
        BYTE                   41
        BYTE   W06
        BYTE                   40
        BYTE   W06
        BYTE                   39
        BYTE   W06
        BYTE                   38
        BYTE   W06
        BYTE                   37
        BYTE   W06
        BYTE                   36
        BYTE   W04
        BYTE                   35
        BYTE   W03
        BYTE                   36
        BYTE   W08
        BYTE                   37
        BYTE   W11
        BYTE                   38
        BYTE   W11
        BYTE                   39
        BYTE   W08
// 031   ----------------------------------------
        BYTE   W03
        BYTE                   40
        BYTE   W11
        BYTE                   41
        BYTE   W11
        BYTE                   42
        BYTE   W08
        BYTE                   43
        BYTE   W11
        BYTE                   44
        BYTE   W03
        BYTE           EOT
        BYTE   W01
        BYTE           N17     Bn3
        BYTE   W18
        BYTE                   Cn4
        BYTE   W18
        BYTE           N11     Dn4
        BYTE   W12
// 032   ----------------------------------------
        BYTE           N60     En4
        BYTE   W03
        BYTE           VOL     43
        BYTE   W03
        BYTE                   42
        BYTE   W03
        BYTE                   41
        BYTE   W03
        BYTE                   40
        BYTE   W06
        BYTE                   39
        BYTE   W01
        BYTE                   38
        BYTE   W03
        BYTE                   39
        BYTE   W09
        BYTE                   40
        BYTE   W09
        BYTE                   41
        BYTE   W09
        BYTE                   42
        BYTE   W06
        BYTE                   43
        BYTE   W17
        BYTE           N17
        BYTE   W18
        BYTE           N05     Fn4
        BYTE   W06
// 033   ----------------------------------------
        BYTE           N92     En4   v107   gtp3
        BYTE   W23
        BYTE           VOL     42
        BYTE   W09
        BYTE                   41
        BYTE   W14
        BYTE                   40
        BYTE   W06
        BYTE                   39
        BYTE   W06
        BYTE                   38
        BYTE   W06
        BYTE                   37
        BYTE   W06
        BYTE                   36
        BYTE   W03
        BYTE                   35
        BYTE   W06
        BYTE                   34
        BYTE   W06
        BYTE                   33
        BYTE   W06
        BYTE                   32
        BYTE   W05
// 034   ----------------------------------------
        BYTE   W68
        BYTE   W03
        BYTE           VOICE   55
        BYTE           VOL     41
        BYTE   W24
        BYTE   W01
// 035   ----------------------------------------
        BYTE   W96
// 036   ----------------------------------------
        BYTE   W96
// 037   ----------------------------------------
        BYTE   W84
        BYTE                   51
        BYTE           N12     En3   v100
        BYTE   W12
// 038   ----------------------------------------
        BYTE                   An3
        BYTE   W96
// 039   ----------------------------------------
        BYTE   W96
// 040   ----------------------------------------
        BYTE   W96
// 041   ----------------------------------------
        BYTE   W96
// 042   ----------------------------------------
        BYTE   W96
// 043   ----------------------------------------
        BYTE   W96
// 044   ----------------------------------------
        BYTE   W96
// 045   ----------------------------------------
        BYTE   PATT
         POIN2  EndlessBattle_Domino_6_3
// 046   ----------------------------------------
        BYTE           N12     An3   v100
        BYTE   W96
// 047   ----------------------------------------
        BYTE   PATT
         POIN2  EndlessBattle_Domino_6_3
// 048   ----------------------------------------
        BYTE           N12     An3   v100
        BYTE   W96
// 049   ----------------------------------------
        BYTE   PATT
         POIN2  EndlessBattle_Domino_6_3
// 050   ----------------------------------------
        BYTE           N12     An3   v100
        BYTE   W96
// 051   ----------------------------------------
        BYTE   PATT
         POIN2  EndlessBattle_Domino_6_3
// 052   ----------------------------------------
        BYTE           N12     An3   v100
        BYTE   W96
// 053   ----------------------------------------
        BYTE   PATT
         POIN2  EndlessBattle_Domino_6_3
// 054   ----------------------------------------
        BYTE           N12     An3   v100
        BYTE   W96
// 055   ----------------------------------------
        BYTE   W96
// 056   ----------------------------------------
        BYTE   W96
// 057   ----------------------------------------
        BYTE   W96
// 058   ----------------------------------------
        BYTE   W96
// 059   ----------------------------------------
        BYTE   W96
// 060   ----------------------------------------
        BYTE           VOL     58
        BYTE           PAN     c_v+0
        BYTE   GoTo
         POIN2  EndlessBattle_Domino_6_LOOP
        BYTE   FINE

//****************** Track 7 (Midi-Chn.7) ******************//

EndlessBattle_Domino_7:
        BYTE   KEYSH   EndlessBattle_Domino_key+0
// 000   ----------------------------------------
        BYTE           VOICE   45
        BYTE           VOL     44
        BYTE           PAN     c_v+12
        BYTE   W96
// 001   ----------------------------------------
        BYTE   W96
// 002   ----------------------------------------
EndlessBattle_Domino_7_LOOP:
        BYTE           N06     An3   v100
        BYTE   W06
        BYTE                   An3
        BYTE   W06
        BYTE                   En4
        BYTE   W12
        BYTE                   Dn4
        BYTE   W12
        BYTE                   En4
        BYTE   W06
        BYTE                   An3
        BYTE   W12
        BYTE                   An3
        BYTE   W06
        BYTE                   En4
        BYTE   W12
        BYTE                   An4
        BYTE   W06
        BYTE                   An4
        BYTE   W06
        BYTE                   En4
        BYTE   W12
// 003   ----------------------------------------
EndlessBattle_Domino_7_3:
        BYTE           N06     An3   v100
        BYTE   W06
        BYTE                   An3
        BYTE   W06
        BYTE                   En4
        BYTE   W12
        BYTE                   Dn4
        BYTE   W12
        BYTE                   En4
        BYTE   W06
        BYTE                   An3
        BYTE   W12
        BYTE                   An3
        BYTE   W06
        BYTE                   En4
        BYTE   W12
        BYTE                   Bn3
        BYTE   W06
        BYTE                   Bn3
        BYTE   W06
        BYTE                   Cn4
        BYTE   W12
        BYTE   PEND
// 004   ----------------------------------------
EndlessBattle_Domino_7_4:
        BYTE           N06     An3   v100
        BYTE   W06
        BYTE                   An3
        BYTE   W06
        BYTE                   En4
        BYTE   W12
        BYTE                   Dn4
        BYTE   W12
        BYTE                   En4
        BYTE   W06
        BYTE                   An3
        BYTE   W12
        BYTE                   An3
        BYTE   W06
        BYTE                   En4
        BYTE   W12
        BYTE                   An4
        BYTE   W06
        BYTE                   An4
        BYTE   W06
        BYTE                   En4
        BYTE   W12
        BYTE   PEND
// 005   ----------------------------------------
        BYTE   PATT
         POIN2  EndlessBattle_Domino_7_3
// 006   ----------------------------------------
        BYTE   PATT
         POIN2  EndlessBattle_Domino_7_4
// 007   ----------------------------------------
        BYTE   PATT
         POIN2  EndlessBattle_Domino_7_3
// 008   ----------------------------------------
        BYTE   PATT
         POIN2  EndlessBattle_Domino_7_4
// 009   ----------------------------------------
        BYTE   PATT
         POIN2  EndlessBattle_Domino_7_3
// 010   ----------------------------------------
        BYTE   PATT
         POIN2  EndlessBattle_Domino_7_4
// 011   ----------------------------------------
        BYTE   PATT
         POIN2  EndlessBattle_Domino_7_3
// 012   ----------------------------------------
        BYTE   PATT
         POIN2  EndlessBattle_Domino_7_4
// 013   ----------------------------------------
        BYTE   PATT
         POIN2  EndlessBattle_Domino_7_3
// 014   ----------------------------------------
        BYTE   PATT
         POIN2  EndlessBattle_Domino_7_4
// 015   ----------------------------------------
        BYTE   PATT
         POIN2  EndlessBattle_Domino_7_3
// 016   ----------------------------------------
        BYTE   PATT
         POIN2  EndlessBattle_Domino_7_4
// 017   ----------------------------------------
        BYTE   PATT
         POIN2  EndlessBattle_Domino_7_3
// 018   ----------------------------------------
        BYTE   W96
// 019   ----------------------------------------
        BYTE   W96
// 020   ----------------------------------------
        BYTE   W96
// 021   ----------------------------------------
        BYTE   W96
// 022   ----------------------------------------
        BYTE   W96
// 023   ----------------------------------------
        BYTE   W96
// 024   ----------------------------------------
        BYTE   W96
// 025   ----------------------------------------
        BYTE   W96
// 026   ----------------------------------------
        BYTE   PATT
         POIN2  EndlessBattle_Domino_7_4
// 027   ----------------------------------------
        BYTE   PATT
         POIN2  EndlessBattle_Domino_7_3
// 028   ----------------------------------------
        BYTE   PATT
         POIN2  EndlessBattle_Domino_7_4
// 029   ----------------------------------------
        BYTE   PATT
         POIN2  EndlessBattle_Domino_7_3
// 030   ----------------------------------------
        BYTE   PATT
         POIN2  EndlessBattle_Domino_7_4
// 031   ----------------------------------------
        BYTE   PATT
         POIN2  EndlessBattle_Domino_7_3
// 032   ----------------------------------------
        BYTE   PATT
         POIN2  EndlessBattle_Domino_7_4
// 033   ----------------------------------------
        BYTE   PATT
         POIN2  EndlessBattle_Domino_7_3
// 034   ----------------------------------------
        BYTE   W96
// 035   ----------------------------------------
        BYTE   W96
// 036   ----------------------------------------
        BYTE   W96
// 037   ----------------------------------------
        BYTE   W96
// 038   ----------------------------------------
        BYTE   W96
// 039   ----------------------------------------
        BYTE   W96
// 040   ----------------------------------------
        BYTE   W96
// 041   ----------------------------------------
        BYTE   W96
// 042   ----------------------------------------
        BYTE   W96
// 043   ----------------------------------------
        BYTE   W96
// 044   ----------------------------------------
        BYTE   W96
// 045   ----------------------------------------
        BYTE   W96
// 046   ----------------------------------------
        BYTE   W96
// 047   ----------------------------------------
        BYTE   W96
// 048   ----------------------------------------
        BYTE   W96
// 049   ----------------------------------------
        BYTE   W96
// 050   ----------------------------------------
        BYTE   PATT
         POIN2  EndlessBattle_Domino_7_4
// 051   ----------------------------------------
        BYTE   PATT
         POIN2  EndlessBattle_Domino_7_3
// 052   ----------------------------------------
        BYTE   PATT
         POIN2  EndlessBattle_Domino_7_4
// 053   ----------------------------------------
        BYTE   PATT
         POIN2  EndlessBattle_Domino_7_3
// 054   ----------------------------------------
        BYTE   W96
// 055   ----------------------------------------
        BYTE   W96
// 056   ----------------------------------------
        BYTE   W96
// 057   ----------------------------------------
        BYTE   W96
// 058   ----------------------------------------
        BYTE   W96
// 059   ----------------------------------------
        BYTE   W96
// 060   ----------------------------------------
        BYTE   GoTo
         POIN2  EndlessBattle_Domino_7_LOOP
        BYTE   FINE


//********************** End of Song ***********************//

        ALIGN 4
EndlessBattle_Domino:
        BYTE   8                       // Num Tracks
        BYTE   0                       // Unknown
        BYTE   EndlessBattle_Domino_pri // Priority
        BYTE   EndlessBattle_Domino_rev // Reverb

        POIN2   EndlessBattle_Domino_grp

        POIN2   EndlessBattle_Domino_0
        POIN2   EndlessBattle_Domino_1
        POIN2   EndlessBattle_Domino_2
        POIN2   EndlessBattle_Domino_3
        POIN2   EndlessBattle_Domino_4
        POIN2   EndlessBattle_Domino_5
        POIN2   EndlessBattle_Domino_6
        POIN2   EndlessBattle_Domino_7

        
