//Event file generated from Sappy .s format.
        #include "MPlayDef.event"

        #define    fe12_win1_grp  voicegroup000
        #define    fe12_win1_pri  0
        #define    fe12_win1_rev  0
        #define    fe12_win1_key  0

        // .rodata
        // fe12_win1
        ALIGN 4

//****************** Track 0 (Midi-Chn.0) ******************//

fe12_win1_0:
        BYTE   KEYSH   fe12_win1_key+0
// 000   ----------------------------------------
        BYTE   TEMPO   114/2
fe12_win1_0_LOOP:
        BYTE           VOICE   48
        BYTE           PAN     c_v-18
        BYTE           VOL     80
        BYTE           N19     Ds3   v120
        BYTE   W24
        BYTE           N44     Ds4   v098   gtp3
        BYTE   W48
        BYTE           N03     Cs4   v120
        BYTE   W04
        BYTE                   Cs4   v072
        BYTE   W04
        BYTE                   Cn4   v109
        BYTE   W04
        BYTE                   Cn4   v060
        BYTE   W04
        BYTE                   Cs4   v127
        BYTE   W04
        BYTE                   Cs4   v081
        BYTE   W04
// 001   ----------------------------------------
        BYTE           N90     Ds4   v105   gtp1
        BYTE   W92
        BYTE           N03     Ds4   v076
        BYTE   W04
// 002   ----------------------------------------
        BYTE           N23     Ds3   v120
        BYTE   W24
        BYTE           N44     Ds4   v098   gtp3
        BYTE   W48
        BYTE           N03     Cs4   v110
        BYTE   W04
        BYTE                   Cs4   v061
        BYTE   W04
        BYTE                   Cn4   v123
        BYTE   W04
        BYTE                   Cn4   v074
        BYTE   W04
        BYTE                   Cs4   v120
        BYTE   W04
        BYTE                   Cs4   v072
        BYTE   W04
// 003   ----------------------------------------
        BYTE           N23     Ds4   v098
        BYTE   W24
        BYTE                   Gs3   v124
        BYTE   W24
        BYTE                   Fn4   v098
        BYTE   W24
        BYTE           N36     Cs4   v120   gtp3
        BYTE   W24
// 004   ----------------------------------------
        BYTE   W16
        BYTE           N03     Cn4   v105
        BYTE   W04
        BYTE                   Cs4   v123
        BYTE   W04
        BYTE           N92     Ds4   v090   gtp2
        BYTE   W32
        BYTE   W01
        BYTE           VOL     78
        BYTE   W03
        BYTE                   77
        BYTE   W03
        BYTE                   76
        BYTE   W03
        BYTE                   75
        BYTE   W03
        BYTE                   73
        BYTE   W03
        BYTE                   72
        BYTE   W03
        BYTE                   71
        BYTE   W03
        BYTE                   70
        BYTE   W03
        BYTE                   68
        BYTE   W03
        BYTE                   67
        BYTE   W03
        BYTE                   65
        BYTE   W03
        BYTE                   64
        BYTE   W03
        BYTE                   63
        BYTE   W03
// 005   ----------------------------------------
        BYTE                   61
        BYTE   W03
        BYTE                   60
        BYTE   W03
        BYTE                   59
        BYTE   W03
        BYTE                   57
        BYTE   W03
        BYTE                   56
        BYTE   W03
        BYTE                   55
        BYTE   W03
        BYTE                   53
        BYTE   W03
        BYTE                   52
        BYTE   W01
        BYTE                   51
        BYTE   W02
        BYTE           N23     Ds3   v108
        BYTE   W01
        BYTE           VOL     53
        BYTE   W03
        BYTE                   54
        BYTE   W03
        BYTE                   55
        BYTE   W03
        BYTE                   57
        BYTE   W03
        BYTE                   58
        BYTE   W03
        BYTE                   60
        BYTE   W03
        BYTE                   61
        BYTE   W03
        BYTE                   63
        BYTE   W02
        BYTE           N23     Gs3   v109
        BYTE   W01
        BYTE           VOL     64
        BYTE   W03
        BYTE                   65
        BYTE   W03
        BYTE                   67
        BYTE   W03
        BYTE                   68
        BYTE   W03
        BYTE                   70
        BYTE   W03
        BYTE                   71
        BYTE   W03
        BYTE                   73
        BYTE   W03
        BYTE                   74
        BYTE   W02
        BYTE           N23     As3   v103
        BYTE   W01
        BYTE           VOL     75
        BYTE   W03
        BYTE                   77
        BYTE   W03
        BYTE                   78
        BYTE   W02
        BYTE                   80
        BYTE   W15
// 006   ----------------------------------------
        BYTE           N03     Cn4   v097
        BYTE   W08
        BYTE                   Cn4   v060
        BYTE   W08
        BYTE           N07     Cs4   v097
        BYTE   W08
        BYTE           N44     Ds4   v086   gtp3
        BYTE   W48
        BYTE           N07
        BYTE   W08
        BYTE                   Cs4   v091
        BYTE   W08
        BYTE                   Cn4   v087
        BYTE   W08
// 007   ----------------------------------------
        BYTE           N44     As3   v086   gtp3
        BYTE   W24
        BYTE           N22     Fs3   v075
        BYTE   W11
        BYTE           VOL     79
        BYTE   W03
        BYTE                   78
        BYTE   W06
        BYTE                   77
        BYTE   W03
        BYTE                   76
        BYTE   W01
        BYTE           N22     Gs3   v082
        BYTE           N23     As3   v090
        BYTE   W02
        BYTE           VOL     75
        BYTE   W03
        BYTE                   74
        BYTE   W03
        BYTE                   73
        BYTE   W03
        BYTE                   72
        BYTE   W03
        BYTE                   70
        BYTE   W03
        BYTE                   69
        BYTE   W03
        BYTE                   67
        BYTE   W03
        BYTE                   66
        BYTE   W01
        BYTE           N03     Gs3   v127
        BYTE           N03     Cn4
        BYTE   W02
        BYTE           VOL     64
        BYTE   W02
        BYTE           N03     Gs3   v079
        BYTE           N03     Cn4
        BYTE   W01
        BYTE           VOL     62
        BYTE   W03
        BYTE                   60
        BYTE   W03
        BYTE                   57
        BYTE   W03
        BYTE                   55
        BYTE   W02
        BYTE           N03     As3   v127
        BYTE           N03     Cs4
        BYTE   W01
        BYTE           VOL     52
        BYTE   W03
        BYTE           N03     As3   v079
        BYTE           N03     Cs4
        BYTE           VOL     48
        BYTE   W04
// 008   ----------------------------------------
        BYTE                   32
        BYTE           N72     Ds4   v100
        BYTE           N72     As3
        BYTE   W03
        BYTE           VOL     35
        BYTE   W03
        BYTE                   39
        BYTE   W03
        BYTE                   40
        BYTE   W03
        BYTE                   42
        BYTE   W03
        BYTE                   43
        BYTE   W03
        BYTE                   45
        BYTE   W03
        BYTE                   47
        BYTE   W03
        BYTE                   49
        BYTE   W03
        BYTE                   50
        BYTE   W03
        BYTE                   51
        BYTE   W12
        BYTE                   52
        BYTE   W03
        BYTE                   51
        BYTE   W03
        BYTE                   52
        BYTE   W03
        BYTE                   51
        BYTE   W03
        BYTE                   50
        BYTE   W06
        BYTE                   49
        BYTE   W03
        BYTE                   46
        BYTE   W03
        BYTE                   42
        BYTE   W03
        BYTE                   39
        BYTE   W03
        BYTE                   41
        BYTE   W03
        BYTE                   42
        BYTE   W03
        BYTE                   43
        BYTE   W02
        BYTE                   70
        BYTE           VOICE   75
        BYTE           N07     Gs4   v127
        BYTE   W01
        BYTE           VOL     73
        BYTE   W03
        BYTE                   76
        BYTE   W02
        BYTE                   80
        BYTE   W02
        BYTE           N07     Gn4   v087
        BYTE   W08
// 009   ----------------------------------------
        BYTE           N23     Fn4   v110
        BYTE           VOL     78
        BYTE   W01
        BYTE                   77
        BYTE   W01
        BYTE                   75
        BYTE   W01
        BYTE                   71
        BYTE   W01
        BYTE                   68
        BYTE   W01
        BYTE                   67
        BYTE   W01
        BYTE                   62
        BYTE   W01
        BYTE                   60
        BYTE   W01
        BYTE                   57
        BYTE   W01
        BYTE                   78
        BYTE   W15
        BYTE           N44     Cs5   v127   gtp3
        BYTE   W48
        BYTE           N07     As4
        BYTE   W08
        BYTE           N08     Gs4   v124
        BYTE   W09
        BYTE                   Gn4   v109
        BYTE   W07
// 010   ----------------------------------------
        BYTE           N30     Ds5   v122   gtp1
        BYTE   W32
        BYTE           N07     Ds5   v050
        BYTE   W02
        BYTE           VOL     13
        BYTE   W01
        BYTE                   38
        BYTE   W01
        BYTE                   50
        BYTE   W01
        BYTE                   62
        BYTE   W01
        BYTE                   80
        BYTE   W02
        BYTE           N07     Cn5   v084
        BYTE   W08
        BYTE           N15     Gs4   v100
        BYTE   W16
        BYTE           N07     Gs4   v058
        BYTE   W08
        BYTE           N15     Gs4   v122
        BYTE   W16
        BYTE           N06     Gn4   v098
        BYTE   W08
// 011   ----------------------------------------
        BYTE           N19     Fn4   v127
        BYTE   W20
        BYTE           N03     Fn4   v058
        BYTE   W04
        BYTE           N44     Fn5   v122   gtp3
        BYTE   W44
        BYTE   W03
        BYTE           N08     Ds5   v127
        BYTE   W09
        BYTE           N07     Cs5   v116
        BYTE   W09
        BYTE                   As4   v109
        BYTE   W07
// 012   ----------------------------------------
        BYTE           N80     Cn5   v116   gtp3
        BYTE   W84
        BYTE           N07     Cn5   v050
        BYTE   W12
// 013   ----------------------------------------
        BYTE           N23     Fn4   v110
        BYTE   W24
        BYTE           N44     Cs5   v127   gtp3
        BYTE   W48
        BYTE           N07     As4
        BYTE   W08
        BYTE           N08     Gs4   v124
        BYTE   W09
        BYTE                   Gn4   v109
        BYTE   W07
// 014   ----------------------------------------
        BYTE           N32     Ds5   v127   gtp3
        BYTE   W36
        BYTE           N03     Ds5   v050
        BYTE   W04
        BYTE           N07     Cn5   v098
        BYTE   W08
        BYTE           N11     Gs5   v105
        BYTE   W12
        BYTE                   Gs5   v050
        BYTE   W12
        BYTE           VOICE   68
        BYTE           N15     Gs3   v117
        BYTE   W16
        BYTE           N06     Gn3   v100
        BYTE   W08
// 015   ----------------------------------------
        BYTE           N07     Fn3   v102
        BYTE   W09
        BYTE           VOL     79
        BYTE   W03
        BYTE           N03     Fn3   v060
        BYTE   W03
        BYTE           VOL     78
        BYTE   W09
        BYTE           N44     Fn3   v102   gtp3
        BYTE   W03
        BYTE           VOL     77
        BYTE   W09
        BYTE                   76
        BYTE   W03
        BYTE                   75
        BYTE   W09
        BYTE                   74
        BYTE   W03
        BYTE                   73
        BYTE   W06
        BYTE                   72
        BYTE   W06
        BYTE                   71
        BYTE   W03
        BYTE                   70
        BYTE   W03
        BYTE                   69
        BYTE   W03
        BYTE                   68
        BYTE           N07
        BYTE   W03
        BYTE           VOL     67
        BYTE   W03
        BYTE                   66
        BYTE   W02
        BYTE           N07     Gn3
        BYTE   W01
        BYTE           VOL     65
        BYTE   W03
        BYTE                   64
        BYTE   W03
        BYTE                   62
        BYTE   W01
        BYTE           N07     Gs3
        BYTE   W02
        BYTE           VOL     61
        BYTE   W03
        BYTE                   59
        BYTE   W03
// 016   ----------------------------------------
        BYTE           N23     Gn3   v115
        BYTE           VOL     56
        BYTE   W06
        BYTE                   57
        BYTE   W03
        BYTE                   58
        BYTE   W06
        BYTE                   59
        BYTE   W03
        BYTE                   60
        BYTE   W06
        BYTE           N44     Ds4   v081   gtp3
        BYTE           VOL     61
        BYTE   W03
        BYTE                   62
        BYTE   W03
        BYTE                   63
        BYTE   W03
        BYTE                   64
        BYTE   W03
        BYTE                   65
        BYTE   W03
        BYTE                   66
        BYTE   W03
        BYTE                   68
        BYTE   W03
        BYTE                   69
        BYTE   W03
        BYTE                   71
        BYTE   W03
        BYTE                   73
        BYTE   W03
        BYTE                   75
        BYTE   W03
        BYTE                   78
        BYTE   W02
        BYTE                   80
        BYTE   W03
        BYTE                   79
        BYTE   W03
        BYTE                   78
        BYTE   W03
        BYTE                   77
        BYTE   W04
        BYTE           N22     As3   v096
        BYTE   W01
        BYTE           VOL     76
        BYTE   W01
        BYTE                   75
        BYTE   W02
        BYTE                   74
        BYTE   W01
        BYTE                   73
        BYTE   W03
        BYTE                   72
        BYTE   W02
        BYTE                   71
        BYTE   W01
        BYTE                   70
        BYTE   W02
        BYTE                   68
        BYTE   W01
        BYTE                   67
        BYTE   W02
        BYTE                   66
        BYTE   W01
        BYTE                   65
        BYTE   W02
        BYTE                   63
        BYTE   W01
        BYTE                   61
        BYTE   W02
        BYTE                   57
        BYTE   W02
// 017   ----------------------------------------
        BYTE           N07     Gs3   v123
        BYTE   W04
        BYTE           VOL     58
        BYTE   W04
        BYTE           N03     Gn3   v094
        BYTE   W02
        BYTE           VOL     59
        BYTE   W02
        BYTE           N03     Gn3   v066
        BYTE   W04
        BYTE                   Gs3   v090
        BYTE           VOL     60
        BYTE   W04
        BYTE           N03     Gs3   v068
        BYTE   W02
        BYTE           VOL     61
        BYTE   W02
        BYTE           N44     Gs3   v116   gtp3
        BYTE   W01
        BYTE           VOL     62
        BYTE   W03
        BYTE                   63
        BYTE   W06
        BYTE                   65
        BYTE   W03
        BYTE                   66
        BYTE   W03
        BYTE                   67
        BYTE   W03
        BYTE                   68
        BYTE   W03
        BYTE                   70
        BYTE   W03
        BYTE                   71
        BYTE   W03
        BYTE                   73
        BYTE   W03
        BYTE                   75
        BYTE   W03
        BYTE                   77
        BYTE   W03
        BYTE                   80
        BYTE   W03
        BYTE                   79
        BYTE   W01
        BYTE                   78
        BYTE   W03
        BYTE                   77
        BYTE   W03
        BYTE                   76
        BYTE   W01
        BYTE           N07     Gn3   v115
        BYTE   W01
        BYTE           VOL     75
        BYTE   W03
        BYTE                   74
        BYTE   W01
        BYTE                   73
        BYTE   W02
        BYTE                   72
        BYTE   W01
        BYTE           N03     Gs3   v110
        BYTE           VOL     71
        BYTE   W02
        BYTE                   70
        BYTE   W01
        BYTE                   69
        BYTE   W01
        BYTE           N03     Gs3   v066
        BYTE   W01
        BYTE           VOL     68
        BYTE   W01
        BYTE                   67
        BYTE   W02
        BYTE                   66
        BYTE           N03     As3   v104
        BYTE   W01
        BYTE           VOL     65
        BYTE   W02
        BYTE                   63
        BYTE   W01
        BYTE           N03     As3   v066
        BYTE           VOL     61
        BYTE   W02
        BYTE                   60
        BYTE   W01
        BYTE                   58
        BYTE   W01
// 018   ----------------------------------------
        BYTE                   57
        BYTE           N68     As3   v087   gtp2
        BYTE   W09
        BYTE           VOL     58
        BYTE   W09
        BYTE                   59
        BYTE   W06
        BYTE                   60
        BYTE   W06
        BYTE                   61
        BYTE   W06
        BYTE                   62
        BYTE   W03
        BYTE                   63
        BYTE   W06
        BYTE                   64
        BYTE   W03
        BYTE                   65
        BYTE   W03
        BYTE                   66
        BYTE   W03
        BYTE                   67
        BYTE   W03
        BYTE                   68
        BYTE   W03
        BYTE                   70
        BYTE   W03
        BYTE                   72
        BYTE   W03
        BYTE                   73
        BYTE   W03
        BYTE                   75
        BYTE   W03
        BYTE                   78
        BYTE           N07     Gn3   v116
        BYTE   W01
        BYTE           VOL     80
        BYTE   W02
        BYTE                   79
        BYTE   W01
        BYTE                   78
        BYTE   W02
        BYTE                   77
        BYTE   W01
        BYTE                   76
        BYTE   W01
        BYTE           N07     Gs3
        BYTE   W01
        BYTE           VOL     75
        BYTE   W01
        BYTE                   73
        BYTE   W02
        BYTE                   72
        BYTE   W01
        BYTE                   70
        BYTE   W02
        BYTE                   69
        BYTE   W01
        BYTE           N07     As3
        BYTE           VOL     67
        BYTE   W02
        BYTE                   65
        BYTE   W01
        BYTE                   63
        BYTE   W02
        BYTE                   60
        BYTE   W01
        BYTE                   57
        BYTE   W02
// 019   ----------------------------------------
        BYTE                   54
        BYTE           N23     Ds4   v098
        BYTE   W06
        BYTE           VOL     55
        BYTE   W09
        BYTE                   56
        BYTE   W09
        BYTE                   57
        BYTE           N23     As3   v109
        BYTE   W03
        BYTE           VOL     58
        BYTE   W09
        BYTE                   59
        BYTE   W03
        BYTE                   60
        BYTE   W06
        BYTE                   61
        BYTE   W03
        BYTE                   62
        BYTE           N23     Ds4   v091
        BYTE   W03
        BYTE           VOL     63
        BYTE   W06
        BYTE                   65
        BYTE   W06
        BYTE                   67
        BYTE   W03
        BYTE                   68
        BYTE   W03
        BYTE                   69
        BYTE   W03
        BYTE                   70
        BYTE           N23     As4   v069
        BYTE   W03
        BYTE           VOL     72
        BYTE   W03
        BYTE                   73
        BYTE   W03
        BYTE                   75
        BYTE   W03
        BYTE                   77
        BYTE   W02
        BYTE                   80
        BYTE   W10
// 020   ----------------------------------------
        BYTE           N07     As4   v037
        BYTE   W96
// 021   ----------------------------------------
        BYTE           VOICE   48
        BYTE   GoTo
         POIN2  fe12_win1_0_LOOP
        BYTE   FINE

//****************** Track 1 (Midi-Chn.1) ******************//

fe12_win1_1:
        BYTE   KEYSH   fe12_win1_key+0
// 000   ----------------------------------------
fe12_win1_1_LOOP:
        BYTE           VOICE   33
        BYTE           VOL     72
        BYTE           N04     Gs1   v127
        BYTE   W08
        BYTE           N07     Gs1   v047
        BYTE   W08
        BYTE           N02     Gs1   v118
        BYTE   W08
        BYTE           N05     Gs1   v115
        BYTE   W08
        BYTE           N07     Gs1   v047
        BYTE   W08
        BYTE           N03     Gs1   v115
        BYTE   W08
        BYTE           N05     Gs1   v118
        BYTE   W08
        BYTE           N07     Gs1   v047
        BYTE   W08
        BYTE           N04     Gs1   v118
        BYTE   W08
        BYTE           N05     Gs1   v122
        BYTE   W08
        BYTE           N04     Cs2   v108
        BYTE   W08
        BYTE           N06     Ds2
        BYTE   W08
// 001   ----------------------------------------
        BYTE                   Gs1   v127
        BYTE   W08
        BYTE           N07     Gs1   v047
        BYTE   W08
        BYTE           N04     Gs1   v122
        BYTE   W08
        BYTE           N07     Gs1   v127
        BYTE   W08
        BYTE                   Gs1   v047
        BYTE   W08
        BYTE           N03     Gs1   v108
        BYTE   W08
        BYTE           N04     Gs1   v105
        BYTE   W08
        BYTE           N03     Gs1   v118
        BYTE   W08
        BYTE           N04     Gs1   v127
        BYTE   W08
        BYTE           N07
        BYTE   W08
        BYTE                   Gs1   v047
        BYTE   W08
        BYTE           N04     Gs1   v127
        BYTE   W08
// 002   ----------------------------------------
        BYTE           N06     Gs1   v102
        BYTE   W08
        BYTE           N07     Gs1   v047
        BYTE   W08
        BYTE           N04     Gs1   v127
        BYTE   W08
        BYTE           N05     Gs1   v122
        BYTE   W08
        BYTE           N07     Gs1   v047
        BYTE   W08
        BYTE           N03     Gs1   v088
        BYTE   W08
        BYTE           N05     Gs1   v115
        BYTE   W08
        BYTE           N07     Gs1   v047
        BYTE   W08
        BYTE           N04     Gs1   v127
        BYTE   W08
        BYTE           N05     Gs1   v118
        BYTE   W08
        BYTE           N07     Cs2   v096
        BYTE   W08
        BYTE           N06     Ds2   v100
        BYTE   W08
// 003   ----------------------------------------
        BYTE           N07     Gs1   v122
        BYTE   W08
        BYTE                   Gs1   v047
        BYTE   W08
        BYTE           N03     Gs1   v081
        BYTE   W08
        BYTE           N05     Gs1   v127
        BYTE   W12
        BYTE           N03     Gs1   v047
        BYTE   W04
        BYTE           N04     Gs1   v090
        BYTE   W08
        BYTE           N07     Fn2   v100
        BYTE   W08
        BYTE                   Fs2   v102
        BYTE   W08
        BYTE                   Cs2   v100
        BYTE   W08
        BYTE                   Gs1   v111
        BYTE   W08
        BYTE                   Fs2   v118
        BYTE   W08
        BYTE                   As1   v111
        BYTE   W08
// 004   ----------------------------------------
        BYTE                   Gs1   v115
        BYTE   W08
        BYTE                   Gs1   v047
        BYTE   W08
        BYTE           N04     Gs1   v127
        BYTE   W08
        BYTE           N06
        BYTE   W08
        BYTE           N07     Gs1   v047
        BYTE   W08
        BYTE           N04     Gs1   v127
        BYTE   W08
        BYTE           N05     Gs1   v118
        BYTE   W08
        BYTE           N07     Gs1   v047
        BYTE   W08
        BYTE           N03     Gs1   v127
        BYTE   W08
        BYTE           N07
        BYTE   W08
        BYTE                   Cs2   v118
        BYTE   W08
        BYTE                   Ds2   v105
        BYTE   W08
// 005   ----------------------------------------
        BYTE           N06     Gs1   v111
        BYTE   W08
        BYTE           N07     Gs1   v047
        BYTE   W08
        BYTE           N03     Gs1   v111
        BYTE   W08
        BYTE           N05     Gs1   v118
        BYTE   W08
        BYTE           N07     Gs1   v047
        BYTE   W08
        BYTE           N03     Gs1   v122
        BYTE   W08
        BYTE           N05     Gs1   v127
        BYTE   W12
        BYTE           N03     Gs1   v047
        BYTE   W04
        BYTE                   Gs1   v122
        BYTE   W08
        BYTE           N06     Gs1   v127
        BYTE   W08
        BYTE           N07     Gs1   v047
        BYTE   W08
        BYTE           N03     Gs1   v115
        BYTE   W08
// 006   ----------------------------------------
        BYTE                   Gs1   v111
        BYTE   W04
        BYTE           N07     Gs1   v047
        BYTE   W12
        BYTE           N03     Gs1   v111
        BYTE   W08
        BYTE           N05     Gs1   v118
        BYTE   W08
        BYTE           N07     Gs1   v047
        BYTE   W08
        BYTE           N03     Gs1   v122
        BYTE   W08
        BYTE           N05     Gs2   v127
        BYTE   W08
        BYTE           N03     Ds2   v122
        BYTE   W08
        BYTE                   As1
        BYTE   W08
        BYTE           N06     Gs1   v127
        BYTE   W08
        BYTE           N07     Gs1   v047
        BYTE   W08
        BYTE           N03     Gs1   v115
        BYTE   W08
// 007   ----------------------------------------
        BYTE           N05     Gs1   v113
        BYTE   W08
        BYTE           N07     Gs1   v047
        BYTE   W08
        BYTE           N04     Gs1   v113
        BYTE   W08
        BYTE           N05
        BYTE   W12
        BYTE           N03     Gs1   v047
        BYTE   W04
        BYTE           N04     Gs1   v113
        BYTE   W08
        BYTE           N05     Gs1   v101
        BYTE   W08
        BYTE                   Gs1
        BYTE   W08
        BYTE           N04     Gs1   v104
        BYTE   W08
        BYTE           N05     Gs1   v101
        BYTE   W08
        BYTE                   Gs1
        BYTE   W08
        BYTE                   Cs2
        BYTE   W08
// 008   ----------------------------------------
        BYTE           N15     Ds2   v103
        BYTE   W16
        BYTE           N07     Ds2   v047
        BYTE   W08
        BYTE           N04     Ds2   v094
        BYTE   W08
        BYTE           N05     As1
        BYTE   W08
        BYTE                   Gs1   v104
        BYTE   W08
        BYTE           N16     Ds1
        BYTE   W24
        BYTE           N18     Ds2   v113
        BYTE   W24
// 009   ----------------------------------------
        BYTE           N44     Cs2   v079   gtp3
        BYTE   W48
        BYTE                   Ds2   v075
        BYTE   W48
// 010   ----------------------------------------
        BYTE           N30     Cn2   v076   gtp1
        BYTE   W32
        BYTE           N07     En2
        BYTE   W08
        BYTE                   En1
        BYTE   W08
        BYTE           N44     Fn1   v079   gtp3
        BYTE   W48
// 011   ----------------------------------------
        BYTE                   Cs2   v096
        BYTE   W48
        BYTE                   Ds2   v086
        BYTE   W48
// 012   ----------------------------------------
        BYTE           N04     Ds2   v090
        BYTE   W08
        BYTE           N05     Cn2   v083
        BYTE   W08
        BYTE           N04     Ds2   v095
        BYTE   W08
        BYTE           N11     Gn2   v099
        BYTE   W16
        BYTE                   Cn2
        BYTE   W16
        BYTE           N04     Cn2   v081
        BYTE   W08
        BYTE           N03     Dn2   v083
        BYTE   W08
        BYTE           N07     En2   v099
        BYTE   W08
        BYTE           N03     Cn2
        BYTE   W08
        BYTE                   Cn2
        BYTE   W08
// 013   ----------------------------------------
        BYTE           N44     Cs2   v096   gtp3
        BYTE   W48
        BYTE                   Ds2
        BYTE   W48
// 014   ----------------------------------------
        BYTE                   Cn2   v090
        BYTE   W48
        BYTE           N30     Fn1   v091   gtp1
        BYTE   W32
        BYTE           N07     As1
        BYTE   W08
        BYTE                   Cn2
        BYTE   W08
// 015   ----------------------------------------
        BYTE           N84     Cs2   v096   gtp2
        BYTE   W96
// 016   ----------------------------------------
        BYTE                   Cs2   v086
        BYTE   W96
// 017   ----------------------------------------
        BYTE           N78     Cs2   v096   gtp1
        BYTE   W80
        BYTE           N03     Gs1   v097
        BYTE   W08
        BYTE                   Gs1
        BYTE   W08
// 018   ----------------------------------------
        BYTE           N23     Cs2   v103
        BYTE   W24
        BYTE                   As1   v096
        BYTE   W24
        BYTE                   Cn2   v101
        BYTE   W24
        BYTE                   Cs2   v103
        BYTE   W24
// 019   ----------------------------------------
        BYTE           N22     Cs2   v110
        BYTE   W24
        BYTE           N03
        BYTE   W08
        BYTE                   Cn2
        BYTE   W08
        BYTE                   Cs2
        BYTE   W08
        BYTE           N22     Ds2
        BYTE   W24
        BYTE                   Ds1
        BYTE   W24
// 020   ----------------------------------------
        BYTE           N07     Ds1   v047
        BYTE   W72
        BYTE           N03     Ds2   v123
        BYTE   W08
        BYTE                   Ds2
        BYTE   W08
        BYTE                   Ds2
        BYTE   W08
// 021   ----------------------------------------
        BYTE   GoTo
         POIN2  fe12_win1_1_LOOP
        BYTE   FINE

//****************** Track 2 (Midi-Chn.2) ******************//

fe12_win1_2:
        BYTE   KEYSH   fe12_win1_key+0
// 000   ----------------------------------------
fe12_win1_2_LOOP:
        BYTE           VOICE   61
        BYTE           PAN     c_v+27
        BYTE           VOL     56
        BYTE           N66     Ds2   v067   gtp1
        BYTE                   Gs2
        BYTE   W68
        BYTE           N03     Ds2   v036
        BYTE           N03     Gs2
        BYTE   W04
        BYTE           N07     Cs4   v050
        BYTE           N07     Gs4
        BYTE   W08
        BYTE                   Cn4
        BYTE           N07     Gs4
        BYTE   W08
        BYTE                   Cs4
        BYTE           N07     Gn4
        BYTE   W08
// 001   ----------------------------------------
        BYTE           N68     Ds2   v067   gtp3
        BYTE                   Gs2
        BYTE   W72
        BYTE           N23     Cs2
        BYTE           N23     Fs2
        BYTE           N23     As2
        BYTE   W24
// 002   ----------------------------------------
        BYTE           N66     Ds2   v067   gtp1
        BYTE                   Gs2
        BYTE   W68
        BYTE           N03     Ds2   v036
        BYTE           N03     Gs2
        BYTE   W04
        BYTE           N07     Cs4   v050
        BYTE           N07     Gs4
        BYTE   W08
        BYTE                   Cn4
        BYTE           N07     Gs4
        BYTE   W08
        BYTE                   Cs4
        BYTE           N07     Gs4
        BYTE   W08
// 003   ----------------------------------------
        BYTE           N42     Ds2   v067   gtp1
        BYTE                   Gs2
        BYTE   W44
        BYTE           N03     Ds2   v036
        BYTE           N03     Gs2
        BYTE   W04
        BYTE           N24     Fs2   v067
        BYTE           N24     As2
        BYTE           N23     Ds3
        BYTE   W24
        BYTE           N24     Cs2
        BYTE           N24     Fs2
        BYTE           N24     As2
        BYTE   W24
// 004   ----------------------------------------
        BYTE           N07     Fs2   v036
        BYTE           N07     As2
        BYTE   W24
        BYTE           N44     Gs2   v067   gtp3
        BYTE                   As2
        BYTE   W48
        BYTE           N06     Gs4   v050
        BYTE           N06     As4
        BYTE   W08
        BYTE                   Gs4
        BYTE           N06     As4
        BYTE   W08
        BYTE                   Gs4
        BYTE           N06     As4
        BYTE   W08
// 005   ----------------------------------------
        BYTE           N68     Gs2   v053   gtp2
        BYTE                   As2
        BYTE   W72
        BYTE           N22     Fs2
        BYTE           N22     As2
        BYTE   W24
// 006   ----------------------------------------
        BYTE           N03     Fs2   v036
        BYTE           N03     As2
        BYTE   W24
        BYTE           N44     Gs2   v067   gtp3
        BYTE                   As2
        BYTE   W48
        BYTE           N06     Gs4   v050
        BYTE           N06     As4
        BYTE   W08
        BYTE                   Gs4
        BYTE           N06     As4
        BYTE   W08
        BYTE                   Gs4
        BYTE           N06     As4
        BYTE   W08
// 007   ----------------------------------------
        BYTE           N23     Fs2   v060
        BYTE           N23     As2
        BYTE   W24
        BYTE                   Ds2
        BYTE   W24
        BYTE                   Gs2
        BYTE           N23     As2
        BYTE   W24
        BYTE                   Gs2
        BYTE           N23     As2
        BYTE   W24
// 008   ----------------------------------------
        BYTE           N07     As2   v053
        BYTE   W08
        BYTE           N03     Gn4
        BYTE   W04
        BYTE           N11     As4
        BYTE   W12
        BYTE           N15     Ds3
        BYTE   W16
        BYTE           N07     As2
        BYTE   W08
        BYTE           N44     As2   v060   gtp3
        BYTE   W02
        BYTE           VOL     54
        BYTE   W01
        BYTE                   48
        BYTE   W01
        BYTE                   45
        BYTE   W01
        BYTE                   42
        BYTE   W01
        BYTE                   36
        BYTE   W01
        BYTE                   33
        BYTE   W03
        BYTE                   34
        BYTE   W03
        BYTE                   35
        BYTE   W03
        BYTE                   36
        BYTE   W03
        BYTE                   37
        BYTE   W02
        BYTE                   38
        BYTE   W03
        BYTE                   39
        BYTE   W01
        BYTE                   40
        BYTE   W03
        BYTE                   41
        BYTE   W02
        BYTE                   43
        BYTE   W01
        BYTE                   44
        BYTE   W03
        BYTE                   46
        BYTE   W02
        BYTE                   47
        BYTE   W01
        BYTE                   48
        BYTE   W02
        BYTE                   50
        BYTE   W01
        BYTE                   52
        BYTE   W02
        BYTE                   53
        BYTE   W01
        BYTE                   55
        BYTE   W01
        BYTE                   56
        BYTE   W04
// 009   ----------------------------------------
        BYTE           N03     As2   v036
        BYTE   W96
// 010   ----------------------------------------
        BYTE   W96
// 011   ----------------------------------------
        BYTE           VOICE   57
        BYTE           N44     Fn2   v067   gtp3
        BYTE           VOL     39
        BYTE   W09
        BYTE                   40
        BYTE   W15
        BYTE                   41
        BYTE   W06
        BYTE                   42
        BYTE   W09
        BYTE                   43
        BYTE   W06
        BYTE                   44
        BYTE   W03
        BYTE           N30     Gn2   v067   gtp1
        BYTE   W06
        BYTE           VOL     45
        BYTE   W03
        BYTE                   46
        BYTE   W06
        BYTE                   47
        BYTE   W03
        BYTE                   48
        BYTE   W06
        BYTE                   49
        BYTE   W03
        BYTE                   50
        BYTE   W03
        BYTE                   52
        BYTE   W02
        BYTE           N07     Gs2
        BYTE   W04
        BYTE           VOL     54
        BYTE   W03
        BYTE                   55
        BYTE   W01
        BYTE           N07     As2
        BYTE   W01
        BYTE           VOL     56
        BYTE   W07
// 012   ----------------------------------------
        BYTE           N07     Cn4
        BYTE   W08
        BYTE                   Gn3
        BYTE   W08
        BYTE                   Cn4
        BYTE   W08
        BYTE           N15     Ds3
        BYTE   W16
        BYTE                   Gn2
        BYTE   W15
        BYTE           VOL     54
        BYTE   W01
        BYTE           N07     Gs4
        BYTE   W02
        BYTE           VOL     53
        BYTE   W03
        BYTE                   52
        BYTE   W03
        BYTE                   51
        BYTE           N07     As4
        BYTE   W03
        BYTE           VOL     49
        BYTE   W03
        BYTE                   48
        BYTE   W02
        BYTE           N23     Cn5
        BYTE   W01
        BYTE           VOL     47
        BYTE   W03
        BYTE                   46
        BYTE   W03
        BYTE                   44
        BYTE   W03
        BYTE                   43
        BYTE   W03
        BYTE                   42
        BYTE   W03
        BYTE                   41
        BYTE   W03
        BYTE                   40
        BYTE   W01
        BYTE                   39
        BYTE   W04
// 013   ----------------------------------------
        BYTE           N44     Cs3   v067   gtp3
        BYTE   W08
        BYTE           VOL     40
        BYTE   W15
        BYTE                   41
        BYTE   W09
        BYTE                   42
        BYTE   W06
        BYTE                   43
        BYTE   W06
        BYTE                   44
        BYTE   W04
        BYTE           N44     Ds3   v067   gtp3
        BYTE   W02
        BYTE           VOL     45
        BYTE   W06
        BYTE                   46
        BYTE   W03
        BYTE                   47
        BYTE   W06
        BYTE                   48
        BYTE   W03
        BYTE                   49
        BYTE   W03
        BYTE                   50
        BYTE   W03
        BYTE                   51
        BYTE   W03
        BYTE                   52
        BYTE   W03
        BYTE                   53
        BYTE   W03
        BYTE                   55
        BYTE   W03
        BYTE                   56
        BYTE   W10
// 014   ----------------------------------------
        BYTE           N44     Cn3   v067   gtp3
        BYTE   W03
        BYTE           VOL     54
        BYTE   W01
        BYTE                   51
        BYTE   W01
        BYTE                   48
        BYTE   W01
        BYTE                   41
        BYTE   W01
        BYTE                   40
        BYTE   W06
        BYTE                   41
        BYTE   W06
        BYTE                   42
        BYTE   W03
        BYTE                   43
        BYTE   W06
        BYTE                   44
        BYTE   W06
        BYTE                   45
        BYTE   W06
        BYTE                   46
        BYTE   W06
        BYTE                   47
        BYTE   W02
        BYTE           N36     Fn3   v067   gtp3
        BYTE   W01
        BYTE           VOL     48
        BYTE   W09
        BYTE                   49
        BYTE   W03
        BYTE                   50
        BYTE   W06
        BYTE                   51
        BYTE   W06
        BYTE                   52
        BYTE   W06
        BYTE                   53
        BYTE   W06
        BYTE                   54
        BYTE   W03
        BYTE                   55
        BYTE   W06
        BYTE                   56
        BYTE   W02
// 015   ----------------------------------------
        BYTE           VOICE   14
        BYTE           PAN     c_v-33
        BYTE           VOL     66
        BYTE           N24     Gs4   v080   gtp2
        BYTE   W96
// 016   ----------------------------------------
        BYTE   W96
// 017   ----------------------------------------
        BYTE           N24     Gs4   v120   gtp3
        BYTE   W96
// 018   ----------------------------------------
        BYTE           VOICE   70
        BYTE           VOL     56
        BYTE           PAN     c_v+27
        BYTE           N07     Fn4   v093
        BYTE   W08
        BYTE                   Ds4
        BYTE   W08
        BYTE                   Fn4
        BYTE   W08
        BYTE           N30     Fn2   v093   gtp1
        BYTE   W32
        BYTE           N07     Gs4
        BYTE   W08
        BYTE                   Gn4
        BYTE   W08
        BYTE                   Fn4
        BYTE   W08
        BYTE                   Ds4
        BYTE   W08
        BYTE                   Fn4
        BYTE   W08
// 019   ----------------------------------------
        BYTE           N44     Gn2   v093   gtp3
        BYTE   W48
        BYTE                   Ds2
        BYTE   W48
// 020   ----------------------------------------
        BYTE           N07     Ds2   v055
        BYTE   W96
// 021   ----------------------------------------
        BYTE           VOICE   61
        BYTE   GoTo
         POIN2  fe12_win1_2_LOOP
        BYTE   FINE

//****************** Track 3 (Midi-Chn.3) ******************//

fe12_win1_3:
        BYTE   KEYSH   fe12_win1_key+0
// 000   ----------------------------------------
fe12_win1_3_LOOP:
        BYTE           VOICE   14
        BYTE           PAN     c_v-33
        BYTE           VOL     66
        BYTE   W96
// 001   ----------------------------------------
        BYTE           N48     Gs3   v127
        BYTE   W72
        BYTE           N23     Fs3   v117
        BYTE   W24
// 002   ----------------------------------------
        BYTE           N48     Gs3   v127
        BYTE   W96
// 003   ----------------------------------------
        BYTE                   Gs3
        BYTE   W96
// 004   ----------------------------------------
        BYTE   W72
        BYTE           N23     Ds3   v122
        BYTE   W24
// 005   ----------------------------------------
        BYTE           N48     Gs3   v127
        BYTE   W96
// 006   ----------------------------------------
        BYTE   W72
        BYTE           N23     Ds3   v117
        BYTE   W24
// 007   ----------------------------------------
        BYTE           N48     Gs3   v122
        BYTE   W96
// 008   ----------------------------------------
        BYTE           VOICE   87
        BYTE           VOL     48
        BYTE           PAN     c_v+22
        BYTE   W80
        BYTE           N07     Gs3   v096
        BYTE   W08
        BYTE                   Gn3   v085
        BYTE   W08
// 009   ----------------------------------------
        BYTE           N23     Fn3   v068
        BYTE   W24
        BYTE           N15     Gn3
        BYTE   W16
        BYTE           N07     Gs3
        BYTE   W08
        BYTE           N23     As3   v081
        BYTE   W24
        BYTE           N07     Gn3   v079
        BYTE   W08
        BYTE                   Fn3   v075
        BYTE   W08
        BYTE                   Ds3   v072
        BYTE   W08
// 010   ----------------------------------------
        BYTE           N30     Cn3   v087   gtp1
        BYTE   W32
        BYTE           N07     En3   v068
        BYTE   W08
        BYTE                   Gn3   v072
        BYTE   W08
        BYTE           N05     Fn3   v073
        BYTE   W08
        BYTE           N03     Fn3   v036
        BYTE   W16
        BYTE           N15     Fn3   v073
        BYTE   W16
        BYTE           N07     Ds3   v084
        BYTE   W08
// 011   ----------------------------------------
        BYTE           N13     Cs3   v081
        BYTE   W16
        BYTE           N03     Cs3   v036
        BYTE   W08
        BYTE           N15     Fn3   v081
        BYTE   W16
        BYTE           N07     Gs3
        BYTE   W08
        BYTE           N23     Cs4   v070
        BYTE   W24
        BYTE           N07     Cn4   v090
        BYTE   W08
        BYTE                   As3   v088
        BYTE   W08
        BYTE                   Gs3   v082
        BYTE   W08
// 012   ----------------------------------------
        BYTE           N72     Gn3   v090   gtp1
        BYTE   W36
        BYTE           VOL     47
        BYTE   W09
        BYTE                   46
        BYTE   W09
        BYTE                   45
        BYTE   W03
        BYTE                   44
        BYTE   W09
        BYTE                   43
        BYTE   W06
        BYTE                   42
        BYTE   W03
        BYTE                   41
        BYTE   W01
        BYTE           N03     Gn3   v036
        BYTE   W02
        BYTE           VOL     40
        BYTE   W06
        BYTE                   39
        BYTE   W03
        BYTE                   38
        BYTE   W03
        BYTE                   37
        BYTE   W03
        BYTE                   36
        BYTE   W02
        BYTE                   35
        BYTE   W01
// 013   ----------------------------------------
        BYTE           N23     Fn3   v068
        BYTE   W07
        BYTE           VOL     36
        BYTE   W13
        BYTE                   37
        BYTE   W04
        BYTE           N15     Gn3
        BYTE   W14
        BYTE           VOL     38
        BYTE   W02
        BYTE           N07     Gs3
        BYTE   W08
        BYTE           N23     As3   v082
        BYTE   W07
        BYTE           VOL     39
        BYTE   W09
        BYTE                   40
        BYTE   W08
        BYTE           N07     Gn3   v079
        BYTE   W05
        BYTE           VOL     41
        BYTE   W03
        BYTE           N07     Fn3   v075
        BYTE   W08
        BYTE                   Ds3   v072
        BYTE   W02
        BYTE           VOL     42
        BYTE   W06
// 014   ----------------------------------------
        BYTE           N30     Cn3   v081   gtp1
        BYTE   W03
        BYTE           VOL     43
        BYTE   W13
        BYTE                   44
        BYTE   W09
        BYTE                   45
        BYTE   W07
        BYTE           N07     En3   v083
        BYTE   W01
        BYTE           VOL     46
        BYTE   W07
        BYTE           N07     Gn3   v087
        BYTE   W02
        BYTE           VOL     47
        BYTE   W05
        BYTE                   48
        BYTE   W01
        BYTE           N17     Fn3   v089
        BYTE   W20
        BYTE           N03     Fn3   v036
        BYTE   W28
// 015   ----------------------------------------
        BYTE   W92
        BYTE   W03
        BYTE           VOL     31
        BYTE   W01
// 016   ----------------------------------------
        BYTE           PAN     c_v-40
        BYTE           VOICE   83
        BYTE           VOL     30
        BYTE           N06     As2   v127
        BYTE   W06
        BYTE           VOL     31
        BYTE   W02
        BYTE           N03     Gn2
        BYTE   W02
        BYTE           VOL     32
        BYTE   W02
        BYTE           N03     Gn2   v060
        BYTE   W03
        BYTE           VOL     33
        BYTE   W01
        BYTE           N03     As2   v127
        BYTE   W02
        BYTE           VOL     34
        BYTE   W02
        BYTE           N03     As2   v060
        BYTE   W01
        BYTE           VOL     35
        BYTE   W03
        BYTE           N06     Ds3   v127
        BYTE   W01
        BYTE           VOL     36
        BYTE   W02
        BYTE                   37
        BYTE   W03
        BYTE                   38
        BYTE   W02
        BYTE           N03     As2
        BYTE   W01
        BYTE           VOL     39
        BYTE   W01
        BYTE                   40
        BYTE   W02
        BYTE                   41
        BYTE           N03     As2   v060
        BYTE   W03
        BYTE           VOL     42
        BYTE   W01
        BYTE           N03     Ds3   v127
        BYTE           VOL     43
        BYTE   W02
        BYTE                   44
        BYTE   W01
        BYTE                   45
        BYTE   W01
        BYTE           N03     Ds3   v060
        BYTE   W01
        BYTE           VOL     46
        BYTE   W01
        BYTE                   48
        BYTE   W02
        BYTE           N06     Gn3   v127
        BYTE   W08
        BYTE           N03     Ds4
        BYTE   W04
        BYTE                   Ds4   v060
        BYTE   W02
        BYTE           VOL     47
        BYTE   W02
        BYTE           N03     As3   v127
        BYTE   W02
        BYTE           VOL     46
        BYTE   W02
        BYTE           N03     As3   v060
        BYTE   W03
        BYTE           VOL     45
        BYTE   W01
        BYTE           N03     Gs3   v127
        BYTE           VOL     44
        BYTE   W04
        BYTE           N03     Gs3   v060
        BYTE   W01
        BYTE           VOL     43
        BYTE   W01
        BYTE                   42
        BYTE   W02
        BYTE           N03     Gn3   v127
        BYTE   W01
        BYTE           VOL     41
        BYTE   W02
        BYTE                   40
        BYTE   W01
        BYTE           N03     Gn3   v060
        BYTE   W02
        BYTE           VOL     39
        BYTE   W01
        BYTE                   38
        BYTE   W01
        BYTE           N03     Ds3   v127
        BYTE   W01
        BYTE           VOL     37
        BYTE   W01
        BYTE                   36
        BYTE   W02
        BYTE                   35
        BYTE           N03     Ds3   v060
        BYTE   W01
        BYTE           VOL     33
        BYTE   W02
        BYTE                   32
        BYTE   W01
// 017   ----------------------------------------
        BYTE                   30
        BYTE   W01
        BYTE                   29
        BYTE   W78
        BYTE                   48
        BYTE   W17
// 018   ----------------------------------------
        BYTE           N68     Cs3   v126   gtp2
        BYTE   W01
        BYTE           VOL     45
        BYTE   W01
        BYTE                   43
        BYTE   W01
        BYTE                   41
        BYTE   W01
        BYTE                   38
        BYTE   W01
        BYTE                   37
        BYTE   W01
        BYTE                   35
        BYTE   W01
        BYTE                   32
        BYTE   W01
        BYTE                   30
        BYTE   W01
        BYTE                   29
        BYTE   W06
        BYTE                   30
        BYTE   W09
        BYTE                   31
        BYTE   W03
        BYTE                   32
        BYTE   W06
        BYTE                   33
        BYTE   W03
        BYTE                   34
        BYTE   W03
        BYTE                   35
        BYTE   W03
        BYTE                   36
        BYTE   W03
        BYTE                   37
        BYTE   W03
        BYTE                   38
        BYTE   W03
        BYTE                   39
        BYTE   W03
        BYTE                   41
        BYTE   W03
        BYTE                   43
        BYTE   W03
        BYTE                   44
        BYTE   W03
        BYTE                   47
        BYTE   W01
        BYTE                   48
        BYTE   W08
        BYTE           N03     Ds3   v127
        BYTE   W03
        BYTE           VOL     47
        BYTE   W01
        BYTE           N03     Ds3   v060
        BYTE   W02
        BYTE           VOL     46
        BYTE   W02
        BYTE           N03     Fn3   v127
        BYTE   W01
        BYTE           VOL     45
        BYTE   W01
        BYTE                   44
        BYTE   W02
        BYTE                   43
        BYTE           N03     Fn3   v060
        BYTE   W01
        BYTE           VOL     42
        BYTE   W02
        BYTE                   40
        BYTE   W01
        BYTE           N03     Gn3   v127
        BYTE           VOL     39
        BYTE   W02
        BYTE                   38
        BYTE   W01
        BYTE                   36
        BYTE   W01
        BYTE           N03     Gn3   v060
        BYTE   W01
        BYTE           VOL     34
        BYTE   W01
        BYTE                   31
        BYTE   W02
// 019   ----------------------------------------
        BYTE           N06     Gn3   v127
        BYTE   W04
        BYTE           VOL     32
        BYTE   W04
        BYTE           N03     Ds3
        BYTE   W04
        BYTE                   Ds3   v060
        BYTE   W01
        BYTE           VOL     33
        BYTE   W03
        BYTE                   34
        BYTE           N03     Gn3   v127
        BYTE   W04
        BYTE                   Gn3   v060
        BYTE   W02
        BYTE           VOL     35
        BYTE   W02
        BYTE           N06     As3   v127
        BYTE   W04
        BYTE           VOL     36
        BYTE   W03
        BYTE                   37
        BYTE   W01
        BYTE           N03     Gn3
        BYTE   W02
        BYTE           VOL     38
        BYTE   W02
        BYTE           N03     Gn3   v060
        BYTE   W01
        BYTE           VOL     40
        BYTE   W03
        BYTE                   41
        BYTE           N03     As3   v127
        BYTE   W03
        BYTE           VOL     43
        BYTE   W01
        BYTE           N03     As3   v060
        BYTE   W02
        BYTE           VOL     46
        BYTE   W02
        BYTE                   48
        BYTE           N06     Ds4   v127
        BYTE   W06
        BYTE           VOL     47
        BYTE   W02
        BYTE           N03     As3
        BYTE   W04
        BYTE                   As3   v060
        BYTE   W04
        BYTE                   Fn3   v127
        BYTE   W04
        BYTE                   Fn3   v060
        BYTE   W01
        BYTE           VOL     46
        BYTE   W03
        BYTE           N03     Ds3   v127
        BYTE   W04
        BYTE                   Ds3   v060
        BYTE   W02
        BYTE           VOL     45
        BYTE   W02
        BYTE           N03     As2   v127
        BYTE   W04
        BYTE           VOL     44
        BYTE           N03     As2   v060
        BYTE   W04
        BYTE                   Gn3   v127
        BYTE   W02
        BYTE           VOL     43
        BYTE   W02
        BYTE           N03     Gn3   v060
        BYTE   W03
        BYTE           VOL     42
        BYTE   W01
// 020   ----------------------------------------
        BYTE           N06     Gn3   v066
        BYTE   W96
// 021   ----------------------------------------
        BYTE           VOICE   14
        BYTE           VOL     66
        BYTE           PAN     c_v-33
        BYTE   GoTo
         POIN2  fe12_win1_3_LOOP
        BYTE   FINE

//****************** Track 4 (Midi-Chn.4) ******************//

fe12_win1_4:
        BYTE   KEYSH   fe12_win1_key+0
// 000   ----------------------------------------
fe12_win1_4_LOOP:
        BYTE           VOL     58
        BYTE           VOICE   56
        BYTE   W96
// 001   ----------------------------------------
        BYTE   W96
// 002   ----------------------------------------
        BYTE   W96
// 003   ----------------------------------------
        BYTE   W96
// 004   ----------------------------------------
        BYTE           PAN     c_v-28
        BYTE           N12     Ds2   v120
        BYTE   W16
        BYTE           N03     Ds4   v127
        BYTE   W04
        BYTE                   Ds4
        BYTE   W04
        BYTE           N44     Ds3   v120   gtp3
        BYTE   W48
        BYTE           N06     Cs4   v105
        BYTE   W08
        BYTE                   Cn4
        BYTE   W08
        BYTE                   Cs4
        BYTE   W08
// 005   ----------------------------------------
        BYTE           N84     Ds3   v120   gtp2
        BYTE   W88
        BYTE           N03     Ds3   v036
        BYTE   W08
// 006   ----------------------------------------
        BYTE           N15     Ds2   v120
        BYTE   W16
        BYTE           N03     Ds4   v127
        BYTE   W04
        BYTE                   Ds4
        BYTE   W04
        BYTE           N44     Ds3   v120   gtp3
        BYTE   W48
        BYTE           N06     Ds4   v105
        BYTE   W08
        BYTE                   Cs4
        BYTE   W08
        BYTE                   Cn4
        BYTE   W08
// 007   ----------------------------------------
        BYTE           N64     As2   v120
        BYTE   W68
        BYTE           N03     As2   v036
        BYTE   W04
        BYTE           N15     Cn3   v120
        BYTE   W16
        BYTE           N07     Cs3   v119
        BYTE   W08
// 008   ----------------------------------------
        BYTE                   Ds3   v096
        BYTE   W08
        BYTE           N03     As3
        BYTE   W04
        BYTE           N11     Ds4
        BYTE   W12
        BYTE           N15     As3
        BYTE   W16
        BYTE           N07     Gs3
        BYTE   W08
        BYTE           VOL     57
        BYTE           N44     Gn3   v109   gtp3
        BYTE   W01
        BYTE           VOL     52
        BYTE   W01
        BYTE                   51
        BYTE   W01
        BYTE                   48
        BYTE   W01
        BYTE                   45
        BYTE   W01
        BYTE                   42
        BYTE   W01
        BYTE                   40
        BYTE   W01
        BYTE                   36
        BYTE   W01
        BYTE                   34
        BYTE   W01
        BYTE                   32
        BYTE   W01
        BYTE                   28
        BYTE   W02
        BYTE                   29
        BYTE   W03
        BYTE                   30
        BYTE   W01
        BYTE                   31
        BYTE   W02
        BYTE                   32
        BYTE   W01
        BYTE                   33
        BYTE   W02
        BYTE                   34
        BYTE   W01
        BYTE                   35
        BYTE   W02
        BYTE                   36
        BYTE   W01
        BYTE                   37
        BYTE   W02
        BYTE                   38
        BYTE   W01
        BYTE                   40
        BYTE   W02
        BYTE                   41
        BYTE   W01
        BYTE                   42
        BYTE   W02
        BYTE                   44
        BYTE   W01
        BYTE                   46
        BYTE   W02
        BYTE                   47
        BYTE   W01
        BYTE                   50
        BYTE   W02
        BYTE                   52
        BYTE   W01
        BYTE                   54
        BYTE   W02
        BYTE                   57
        BYTE   W01
        BYTE                   58
        BYTE   W05
// 009   ----------------------------------------
        BYTE           N07     Gn3   v047
        BYTE   W96
// 010   ----------------------------------------
        BYTE   W92
        BYTE   W03
        BYTE           VOL     35
        BYTE   W01
// 011   ----------------------------------------
        BYTE                   33
        BYTE           N44     Gs2   v081   gtp3
        BYTE   W09
        BYTE           VOL     34
        BYTE   W06
        BYTE                   35
        BYTE   W09
        BYTE                   36
        BYTE   W06
        BYTE                   37
        BYTE   W06
        BYTE                   38
        BYTE   W03
        BYTE                   39
        BYTE   W06
        BYTE                   40
        BYTE   W03
        BYTE           N30     As2   v081   gtp1
        BYTE   W03
        BYTE           VOL     41
        BYTE   W03
        BYTE                   42
        BYTE   W03
        BYTE                   43
        BYTE   W03
        BYTE                   44
        BYTE   W03
        BYTE                   45
        BYTE   W03
        BYTE                   46
        BYTE   W03
        BYTE                   47
        BYTE   W03
        BYTE                   48
        BYTE   W03
        BYTE                   50
        BYTE   W03
        BYTE                   51
        BYTE   W02
        BYTE           N07     Cn3
        BYTE   W01
        BYTE           VOL     52
        BYTE   W03
        BYTE                   54
        BYTE   W03
        BYTE                   56
        BYTE   W01
        BYTE           N07     Cs3
        BYTE   W02
        BYTE           VOL     58
        BYTE   W06
// 012   ----------------------------------------
        BYTE           N07     Ds5   v096
        BYTE   W08
        BYTE                   Cn5   v059
        BYTE   W08
        BYTE                   Ds5   v081
        BYTE   W08
        BYTE           N14     Gn3   v091
        BYTE   W16
        BYTE           N11     Cn3   v099
        BYTE   W12
        BYTE           N03     Cn3   v036
        BYTE   W04
        BYTE           N07     Cn4   v072
        BYTE   W08
        BYTE                   Dn4   v078
        BYTE   W08
        BYTE           N23     En4   v088
        BYTE   W02
        BYTE           VOL     56
        BYTE   W01
        BYTE                   55
        BYTE   W02
        BYTE                   53
        BYTE   W01
        BYTE                   52
        BYTE   W02
        BYTE                   51
        BYTE   W01
        BYTE                   49
        BYTE   W02
        BYTE                   48
        BYTE   W01
        BYTE                   46
        BYTE   W02
        BYTE                   45
        BYTE   W01
        BYTE                   44
        BYTE   W02
        BYTE                   42
        BYTE   W01
        BYTE                   41
        BYTE   W02
        BYTE                   40
        BYTE   W01
        BYTE                   38
        BYTE   W02
        BYTE                   36
        BYTE   W01
// 013   ----------------------------------------
        BYTE           N44     Fn3   v081   gtp3
        BYTE   W08
        BYTE           VOL     37
        BYTE   W09
        BYTE                   38
        BYTE   W09
        BYTE                   39
        BYTE   W09
        BYTE                   40
        BYTE   W09
        BYTE                   41
        BYTE   W04
        BYTE           N44     Gn3   v081   gtp3
        BYTE   W02
        BYTE           VOL     42
        BYTE   W06
        BYTE                   43
        BYTE   W03
        BYTE                   44
        BYTE   W03
        BYTE                   45
        BYTE   W03
        BYTE                   46
        BYTE   W06
        BYTE                   47
        BYTE   W03
        BYTE                   49
        BYTE   W03
        BYTE                   50
        BYTE   W03
        BYTE                   52
        BYTE   W03
        BYTE                   53
        BYTE   W03
        BYTE                   55
        BYTE   W03
        BYTE                   57
        BYTE   W01
        BYTE                   58
        BYTE   W06
// 014   ----------------------------------------
        BYTE           N15     Ds3
        BYTE   W16
        BYTE           N03     Fn3
        BYTE   W02
        BYTE           VOL     57
        BYTE   W02
        BYTE           N03     Fs3
        BYTE   W04
        BYTE           N23     Gn3
        BYTE   W03
        BYTE           VOL     56
        BYTE   W06
        BYTE                   55
        BYTE   W03
        BYTE                   54
        BYTE   W06
        BYTE                   53
        BYTE   W06
        BYTE                   52
        BYTE           N36     Gs3   v085   gtp3
        BYTE   W06
        BYTE           VOL     51
        BYTE   W03
        BYTE                   50
        BYTE   W03
        BYTE                   49
        BYTE   W06
        BYTE                   48
        BYTE   W03
        BYTE                   47
        BYTE   W03
        BYTE                   46
        BYTE   W03
        BYTE                   45
        BYTE   W03
        BYTE                   44
        BYTE   W03
        BYTE                   43
        BYTE   W03
        BYTE                   41
        BYTE   W03
        BYTE                   40
        BYTE   W03
        BYTE                   39
        BYTE   W02
        BYTE           N03     Gs3   v040
        BYTE   W01
        BYTE           VOL     37
        BYTE   W03
// 015   ----------------------------------------
        BYTE                   35
        BYTE           N92     Cs3   v081   gtp3
        BYTE   W03
        BYTE           VOL     34
        BYTE   W03
        BYTE                   31
        BYTE   W02
        BYTE                   29
        BYTE   W06
        BYTE                   30
        BYTE   W03
        BYTE                   31
        BYTE   W06
        BYTE                   32
        BYTE   W06
        BYTE                   33
        BYTE   W03
        BYTE                   34
        BYTE   W06
        BYTE                   35
        BYTE   W06
        BYTE                   36
        BYTE   W03
        BYTE                   37
        BYTE   W03
        BYTE                   38
        BYTE   W03
        BYTE                   39
        BYTE   W03
        BYTE                   40
        BYTE   W03
        BYTE                   41
        BYTE   W03
        BYTE                   42
        BYTE   W03
        BYTE                   43
        BYTE   W03
        BYTE                   44
        BYTE   W03
        BYTE                   46
        BYTE   W03
        BYTE                   47
        BYTE   W03
        BYTE                   49
        BYTE   W03
        BYTE                   51
        BYTE   W03
        BYTE                   52
        BYTE   W03
        BYTE                   54
        BYTE   W03
        BYTE                   57
        BYTE   W02
        BYTE                   58
        BYTE   W05
// 016   ----------------------------------------
        BYTE           N22     As2
        BYTE   W24
        BYTE                   Ds3
        BYTE   W24
        BYTE                   Cs3
        BYTE   W05
        BYTE           VOL     57
        BYTE   W03
        BYTE                   56
        BYTE   W03
        BYTE                   55
        BYTE   W03
        BYTE                   54
        BYTE   W03
        BYTE                   53
        BYTE   W03
        BYTE                   52
        BYTE   W03
        BYTE                   51
        BYTE   W01
        BYTE           N22     Cn3
        BYTE   W02
        BYTE           VOL     50
        BYTE   W03
        BYTE                   49
        BYTE   W03
        BYTE                   47
        BYTE   W03
        BYTE                   46
        BYTE   W03
        BYTE                   44
        BYTE   W03
        BYTE                   42
        BYTE   W03
        BYTE                   40
        BYTE   W03
        BYTE                   39
        BYTE   W01
// 017   ----------------------------------------
        BYTE           N92     Cs3   v081   gtp3
        BYTE   W02
        BYTE           VOL     36
        BYTE   W01
        BYTE                   35
        BYTE   W06
        BYTE                   36
        BYTE   W09
        BYTE                   37
        BYTE   W06
        BYTE                   38
        BYTE   W06
        BYTE                   39
        BYTE   W06
        BYTE                   40
        BYTE   W09
        BYTE                   41
        BYTE   W03
        BYTE                   42
        BYTE   W06
        BYTE                   43
        BYTE   W03
        BYTE                   44
        BYTE   W03
        BYTE                   45
        BYTE   W03
        BYTE                   46
        BYTE   W06
        BYTE                   47
        BYTE   W03
        BYTE                   48
        BYTE   W03
        BYTE                   49
        BYTE   W03
        BYTE                   50
        BYTE   W03
        BYTE                   52
        BYTE   W03
        BYTE                   53
        BYTE   W03
        BYTE                   54
        BYTE   W03
        BYTE                   56
        BYTE   W03
        BYTE                   57
        BYTE   W01
        BYTE                   58
        BYTE   W02
// 018   ----------------------------------------
        BYTE           VOICE   87
        BYTE           N07     As4
        BYTE   W08
        BYTE                   Gs4
        BYTE   W08
        BYTE                   As4
        BYTE   W08
        BYTE           N30     As2   v081   gtp1
        BYTE   W32
        BYTE           N07     Cs5
        BYTE   W08
        BYTE                   Cn5
        BYTE   W08
        BYTE                   As4
        BYTE   W08
        BYTE                   Gs4
        BYTE   W08
        BYTE                   As4
        BYTE   W08
// 019   ----------------------------------------
        BYTE           N44     As2   v092   gtp3
        BYTE   W05
        BYTE           VOL     57
        BYTE   W02
        BYTE                   56
        BYTE   W01
        BYTE                   54
        BYTE   W02
        BYTE                   53
        BYTE   W01
        BYTE                   52
        BYTE   W02
        BYTE                   50
        BYTE   W01
        BYTE                   48
        BYTE   W02
        BYTE                   47
        BYTE   W01
        BYTE                   46
        BYTE   W02
        BYTE                   43
        BYTE   W06
        BYTE                   44
        BYTE   W09
        BYTE                   45
        BYTE   W09
        BYTE                   46
        BYTE   W05
        BYTE           N44     Ds3   v092   gtp3
        BYTE   W04
        BYTE           VOL     47
        BYTE   W03
        BYTE                   48
        BYTE   W06
        BYTE                   49
        BYTE   W03
        BYTE                   50
        BYTE   W06
        BYTE                   51
        BYTE   W03
        BYTE                   52
        BYTE   W03
        BYTE                   53
        BYTE   W03
        BYTE                   54
        BYTE   W03
        BYTE                   55
        BYTE   W03
        BYTE                   56
        BYTE   W03
        BYTE                   58
        BYTE   W08
// 020   ----------------------------------------
        BYTE           N07     Ds3   v039
        BYTE   W96
// 021   ----------------------------------------
        BYTE           VOICE   56
        BYTE           PAN     c_v+0
        BYTE   GoTo
         POIN2  fe12_win1_4_LOOP
        BYTE   FINE

//****************** Track 5 (Midi-Chn.5) ******************//

fe12_win1_5:
        BYTE   KEYSH   fe12_win1_key+0
// 000   ----------------------------------------
fe12_win1_5_LOOP:
        BYTE           VOICE   61
        BYTE           PAN     c_v-30
        BYTE           VOL     60
        BYTE           N11     Ds3   v057
        BYTE   W12
        BYTE           N03     Ds3   v027
        BYTE   W04
        BYTE                   Ds3   v060
        BYTE   W04
        BYTE                   Ds3
        BYTE   W04
        BYTE           N44     As3   v046   gtp3
        BYTE                   Ds4   v057
        BYTE   W48
        BYTE           N03     As3   v044
        BYTE           N03     Cs4   v057
        BYTE   W04
        BYTE                   As3   v027
        BYTE           N03     Cs4   v035
        BYTE   W04
        BYTE                   As3   v044
        BYTE           N03     Cn4   v057
        BYTE   W04
        BYTE                   As3   v027
        BYTE           N03     Cn4   v035
        BYTE   W04
        BYTE                   As3   v044
        BYTE           N03     Cs4   v057
        BYTE   W04
        BYTE                   As3   v027
        BYTE           N03     Cs4   v035
        BYTE   W04
// 001   ----------------------------------------
        BYTE           N68     As3   v046   gtp3
        BYTE                   Ds4   v057
        BYTE   W72
        BYTE           N03     As3   v027
        BYTE           N03     Ds4
        BYTE   W24
// 002   ----------------------------------------
        BYTE           N15     Ds3   v057
        BYTE   W16
        BYTE           N03     Ds3   v060
        BYTE   W04
        BYTE                   Ds3
        BYTE   W04
        BYTE           N44     As3   v046   gtp3
        BYTE                   Ds4   v057
        BYTE   W48
        BYTE           N03     As3   v044
        BYTE           N03     Cs4   v057
        BYTE   W04
        BYTE                   As3   v027
        BYTE           N03     Cs4   v035
        BYTE   W04
        BYTE                   As3   v044
        BYTE           N03     Cn4   v057
        BYTE   W04
        BYTE                   As3   v027
        BYTE           N03     Cn4   v035
        BYTE   W04
        BYTE                   As3   v044
        BYTE           N03     Cs4   v057
        BYTE   W04
        BYTE                   As3   v027
        BYTE           N03     Cs4   v035
        BYTE   W04
// 003   ----------------------------------------
        BYTE           N23     As3   v046
        BYTE           N23     Ds4   v057
        BYTE   W24
        BYTE                   Ds3   v046
        BYTE           N23     Gs3   v057
        BYTE   W24
        BYTE                   As3   v046
        BYTE           N23     Fn4   v057
        BYTE   W24
        BYTE           N32     As3   v046   gtp3
        BYTE           N32     Cs4   v057   gtp2
        BYTE   W24
// 004   ----------------------------------------
        BYTE   W12
        BYTE           N05     As3   v041
        BYTE           N05     Cn4   v057
        BYTE   W06
        BYTE                   As3   v041
        BYTE           N05     Cs4   v057
        BYTE   W06
        BYTE           N68     Cn4   v041   gtp3
        BYTE           N68     Ds4   v057   gtp2
        BYTE   W21
        BYTE           VOL     59
        BYTE   W03
        BYTE                   58
        BYTE   W06
        BYTE                   57
        BYTE   W03
        BYTE                   56
        BYTE   W03
        BYTE                   55
        BYTE   W03
        BYTE                   54
        BYTE   W03
        BYTE                   53
        BYTE   W03
        BYTE                   52
        BYTE   W03
        BYTE                   50
        BYTE   W03
        BYTE                   49
        BYTE   W03
        BYTE                   48
        BYTE   W03
        BYTE                   47
        BYTE   W03
        BYTE                   45
        BYTE   W03
        BYTE                   43
        BYTE   W03
        BYTE                   41
        BYTE   W03
        BYTE                   39
        BYTE   W03
// 005   ----------------------------------------
        BYTE                   37
        BYTE           N68     Gs2   v052   gtp3
        BYTE   W03
        BYTE           VOL     38
        BYTE   W01
        BYTE                   39
        BYTE   W02
        BYTE                   40
        BYTE   W01
        BYTE                   41
        BYTE   W03
        BYTE                   42
        BYTE   W02
        BYTE                   43
        BYTE   W01
        BYTE                   44
        BYTE   W02
        BYTE                   45
        BYTE   W01
        BYTE                   46
        BYTE   W02
        BYTE                   47
        BYTE   W01
        BYTE                   48
        BYTE   W03
        BYTE                   49
        BYTE   W02
        BYTE                   50
        BYTE   W01
        BYTE                   51
        BYTE   W02
        BYTE                   52
        BYTE   W01
        BYTE                   53
        BYTE   W02
        BYTE                   54
        BYTE   W01
        BYTE                   55
        BYTE   W03
        BYTE                   56
        BYTE   W02
        BYTE                   57
        BYTE   W01
        BYTE                   58
        BYTE   W02
        BYTE                   59
        BYTE   W01
        BYTE                   60
        BYTE   W32
        BYTE           N03     Fs2   v049
        BYTE   W04
        BYTE                   Fs2   v033
        BYTE   W04
        BYTE                   Fs2   v049
        BYTE   W04
        BYTE                   Fs2   v033
        BYTE   W04
        BYTE                   Fs2   v049
        BYTE   W04
        BYTE                   Fs2   v033
        BYTE   W04
// 006   ----------------------------------------
        BYTE           N92     Gs2   v052   gtp3
        BYTE   W96
// 007   ----------------------------------------
        BYTE           N23     Fs2
        BYTE   W24
        BYTE           N03     Fs2   v049
        BYTE   W04
        BYTE                   Fs2   v036
        BYTE   W04
        BYTE                   As2   v049
        BYTE   W04
        BYTE                   As2   v036
        BYTE   W04
        BYTE                   Ds3   v049
        BYTE   W04
        BYTE                   Ds3   v036
        BYTE   W04
        BYTE           N07     Cs3   v052
        BYTE   W08
        BYTE           N03     Gs2   v049
        BYTE   W04
        BYTE                   Gs2   v036
        BYTE   W04
        BYTE                   Cs3   v049
        BYTE   W04
        BYTE                   Cs3   v036
        BYTE   W04
        BYTE           N07     Fn3   v052
        BYTE   W08
        BYTE           N03     Cs3   v049
        BYTE   W04
        BYTE                   Cs3   v036
        BYTE   W04
        BYTE                   Fn3   v049
        BYTE   W04
        BYTE                   Fn3   v036
        BYTE   W04
// 008   ----------------------------------------
        BYTE           N23     Ds3   v057
        BYTE   W01
        BYTE           VOL     57
        BYTE   W01
        BYTE                   55
        BYTE   W01
        BYTE                   52
        BYTE   W01
        BYTE                   47
        BYTE   W01
        BYTE                   45
        BYTE   W01
        BYTE                   42
        BYTE   W01
        BYTE                   37
        BYTE   W01
        BYTE                   34
        BYTE   W01
        BYTE                   32
        BYTE   W01
        BYTE                   26
        BYTE   W01
        BYTE                   24
        BYTE   W06
        BYTE                   25
        BYTE   W03
        BYTE                   26
        BYTE   W04
        BYTE           N23     As3   v051
        BYTE   W02
        BYTE           VOL     27
        BYTE   W03
        BYTE                   28
        BYTE   W03
        BYTE                   29
        BYTE   W03
        BYTE                   30
        BYTE   W03
        BYTE                   31
        BYTE   W03
        BYTE                   32
        BYTE   W06
        BYTE                   33
        BYTE   W01
        BYTE           N23     Ds4
        BYTE   W02
        BYTE           VOL     35
        BYTE   W03
        BYTE                   36
        BYTE   W03
        BYTE                   37
        BYTE   W03
        BYTE                   39
        BYTE   W03
        BYTE                   40
        BYTE   W03
        BYTE                   42
        BYTE   W03
        BYTE                   43
        BYTE   W03
        BYTE                   45
        BYTE   W01
        BYTE           N23     As4   v052
        BYTE   W02
        BYTE           VOL     48
        BYTE   W03
        BYTE                   50
        BYTE   W03
        BYTE                   52
        BYTE   W03
        BYTE                   55
        BYTE   W03
        BYTE                   58
        BYTE   W02
        BYTE                   60
        BYTE   W08
// 009   ----------------------------------------
        BYTE           VOICE   11
        BYTE           VOL     66
        BYTE           PAN     c_v-41
        BYTE           N07     Cs2   v083
        BYTE   W08
        BYTE                   Gs2   v075
        BYTE   W08
        BYTE                   Cn3   v085
        BYTE   W07
        BYTE           N08     Fn3   v077
        BYTE   W24
        BYTE   W01
        BYTE           N07     Ds2   v081
        BYTE   W08
        BYTE           N08     Gs2   v082
        BYTE   W08
        BYTE                   As2   v070
        BYTE   W08
        BYTE                   Gn3   v078
        BYTE   W24
// 010   ----------------------------------------
        BYTE           N07     Cn2   v072
        BYTE   W08
        BYTE                   Gn2   v082
        BYTE   W08
        BYTE                   Cn3   v080
        BYTE   W08
        BYTE           N08     Ds3   v087
        BYTE   W08
        BYTE           N07     As3   v081
        BYTE   W08
        BYTE           N08     Ds3   v082
        BYTE   W08
        BYTE                   Cn2   v083
        BYTE   W08
        BYTE                   Gs2   v078
        BYTE   W08
        BYTE           N07     Fn3   v083
        BYTE   W08
        BYTE           N08     Cn4   v076
        BYTE   W08
        BYTE           N07     Fn3   v079
        BYTE   W08
        BYTE                   Cn3   v075
        BYTE   W08
// 011   ----------------------------------------
        BYTE                   Cs2   v082
        BYTE   W08
        BYTE                   Gs2   v079
        BYTE   W08
        BYTE                   Cn3
        BYTE   W08
        BYTE           N08     Fn3   v077
        BYTE   W23
        BYTE                   Ds2   v078
        BYTE   W09
        BYTE                   Gs2
        BYTE   W08
        BYTE           N07     As2   v081
        BYTE   W08
        BYTE           N08     Gn3   v082
        BYTE   W24
// 012   ----------------------------------------
        BYTE                   Cn2   v080
        BYTE   W08
        BYTE           N07     Gn2   v073
        BYTE   W08
        BYTE           N08     Cn3   v085
        BYTE   W08
        BYTE           N07     En3   v079
        BYTE   W08
        BYTE           N08     Gn3   v086
        BYTE   W08
        BYTE                   En3   v073
        BYTE   W08
        BYTE           N03     Gn3   v077
        BYTE   W03
        BYTE           N04     Cn4   v076
        BYTE   W05
        BYTE                   Dn4   v077
        BYTE   W04
        BYTE           N03     En4   v083
        BYTE   W04
        BYTE           N04     Gn4   v078
        BYTE   W04
        BYTE                   Cn5   v080
        BYTE   W03
        BYTE                   En5   v082
        BYTE   W05
        BYTE           N03     Cn5   v077
        BYTE   W04
        BYTE           N04     Gn4   v075
        BYTE   W04
        BYTE                   En4   v083
        BYTE   W04
        BYTE           N03     Cn4   v079
        BYTE   W04
        BYTE                   Gn3   v081
        BYTE   W04
// 013   ----------------------------------------
        BYTE           N04     Cs2   v086
        BYTE   W03
        BYTE                   Gs2   v085
        BYTE   W04
        BYTE                   Cn3
        BYTE   W05
        BYTE                   Cs3   v084
        BYTE   W03
        BYTE                   Fn3   v080
        BYTE   W05
        BYTE           N03     Cn4   v085
        BYTE   W03
        BYTE           N08     Fn4   v081
        BYTE   W24
        BYTE   W01
        BYTE           N03     Ds2
        BYTE   W04
        BYTE                   Gs2
        BYTE   W03
        BYTE           N04     As2   v088
        BYTE   W04
        BYTE                   Ds3   v082
        BYTE   W04
        BYTE                   Gs3
        BYTE   W04
        BYTE                   As3   v084
        BYTE   W05
        BYTE           N08     Gn4   v087
        BYTE   W24
// 014   ----------------------------------------
        BYTE           N03     Cn2   v088
        BYTE   W04
        BYTE           N04     Gn2   v081
        BYTE   W04
        BYTE                   Cn3   v083
        BYTE   W04
        BYTE                   Ds3   v081
        BYTE   W04
        BYTE           N03     As3   v073
        BYTE   W04
        BYTE           N04     Ds4   v076
        BYTE   W04
        BYTE                   Gn4   v079
        BYTE   W24
        BYTE                   Cn2   v083
        BYTE   W03
        BYTE                   Gs2
        BYTE   W04
        BYTE                   Fn3
        BYTE   W04
        BYTE                   Cn4   v090
        BYTE   W05
        BYTE           N03     Fn3   v082
        BYTE   W04
        BYTE           N04     Cn3   v090
        BYTE   W04
        BYTE           N03     Fn2
        BYTE   W04
        BYTE                   Cn3   v085
        BYTE   W04
        BYTE           N04     Fn3   v087
        BYTE   W04
        BYTE                   Gs3   v088
        BYTE   W04
        BYTE           N03     Cn4   v078
        BYTE   W04
        BYTE           N08     Fn4   v090
        BYTE   W04
// 015   ----------------------------------------
        BYTE   W96
// 016   ----------------------------------------
        BYTE           PAN     c_v+42
        BYTE           VOL     40
        BYTE           N07     Ds3   v086
        BYTE   W04
        BYTE           VOL     41
        BYTE   W04
        BYTE           N03     As2
        BYTE   W01
        BYTE           VOL     42
        BYTE   W03
        BYTE                   43
        BYTE           N03     As2   v062
        BYTE   W03
        BYTE           VOL     44
        BYTE   W01
        BYTE           N03     Ds3   v086
        BYTE   W02
        BYTE           VOL     45
        BYTE   W01
        BYTE                   46
        BYTE   W01
        BYTE           N03     Ds3   v062
        BYTE   W01
        BYTE           VOL     47
        BYTE   W03
        BYTE                   48
        BYTE           N07     Gn3   v086
        BYTE   W01
        BYTE           VOL     49
        BYTE   W03
        BYTE                   50
        BYTE   W02
        BYTE                   51
        BYTE   W01
        BYTE                   52
        BYTE   W01
        BYTE           N03     Ds3
        BYTE   W01
        BYTE           VOL     53
        BYTE   W01
        BYTE                   54
        BYTE   W02
        BYTE                   55
        BYTE           N03     Ds3   v062
        BYTE   W01
        BYTE           VOL     56
        BYTE   W02
        BYTE                   57
        BYTE   W01
        BYTE           N03     Gn3   v086
        BYTE           VOL     59
        BYTE   W02
        BYTE                   60
        BYTE   W01
        BYTE                   61
        BYTE   W01
        BYTE           N03     Gn3   v062
        BYTE   W01
        BYTE           VOL     63
        BYTE   W01
        BYTE                   64
        BYTE   W02
        BYTE                   66
        BYTE           N07     As3   v086
        BYTE   W08
        BYTE           N03     Gn4   v071
        BYTE   W04
        BYTE                   Gn4   v050
        BYTE   W02
        BYTE           VOL     65
        BYTE   W02
        BYTE                   64
        BYTE           N03     Ds4   v071
        BYTE   W03
        BYTE           VOL     63
        BYTE   W01
        BYTE           N03     Ds4   v050
        BYTE   W02
        BYTE           VOL     62
        BYTE   W01
        BYTE                   61
        BYTE   W01
        BYTE           N03     As3   v086
        BYTE   W02
        BYTE           VOL     60
        BYTE   W02
        BYTE                   59
        BYTE           N03     As3   v062
        BYTE   W01
        BYTE           VOL     58
        BYTE   W02
        BYTE                   57
        BYTE   W01
        BYTE           N03     Gs3   v086
        BYTE           VOL     56
        BYTE   W02
        BYTE                   55
        BYTE   W01
        BYTE                   54
        BYTE   W01
        BYTE           N03     Gs3   v062
        BYTE   W01
        BYTE           VOL     53
        BYTE   W01
        BYTE                   52
        BYTE   W02
        BYTE                   51
        BYTE           N03     Gn3   v086
        BYTE   W01
        BYTE           VOL     49
        BYTE   W02
        BYTE                   48
        BYTE   W01
        BYTE           N03     Gn3   v062
        BYTE           VOL     46
        BYTE   W02
        BYTE                   44
        BYTE   W01
        BYTE                   43
        BYTE   W01
// 017   ----------------------------------------
        BYTE           N92     Fn3   v078   gtp3
        BYTE           VOL     41
        BYTE   W14
        BYTE                   42
        BYTE   W17
        BYTE                   43
        BYTE   W17
        BYTE                   44
        BYTE   W10
        BYTE                   45
        BYTE   W14
        BYTE                   46
        BYTE   W03
        BYTE                   47
        BYTE   W10
        BYTE                   48
        BYTE   W11
// 018   ----------------------------------------
        BYTE                   49
        BYTE           N68     Gn3   v076   gtp2
        BYTE   W06
        BYTE           VOL     50
        BYTE   W07
        BYTE                   51
        BYTE   W07
        BYTE                   52
        BYTE   W07
        BYTE                   53
        BYTE   W03
        BYTE                   54
        BYTE   W04
        BYTE                   55
        BYTE   W06
        BYTE                   56
        BYTE   W04
        BYTE                   58
        BYTE   W07
        BYTE                   59
        BYTE   W03
        BYTE                   61
        BYTE   W03
        BYTE                   62
        BYTE   W04
        BYTE                   63
        BYTE   W03
        BYTE                   64
        BYTE   W04
        BYTE                   66
        BYTE   W03
        BYTE                   65
        BYTE   W01
        BYTE           N03     Ds3   v086
        BYTE   W02
        BYTE           VOL     64
        BYTE   W02
        BYTE           N03     Ds3   v051
        BYTE   W01
        BYTE           VOL     63
        BYTE   W01
        BYTE                   62
        BYTE   W02
        BYTE                   61
        BYTE           N03     Fn3   v086
        BYTE   W03
        BYTE           VOL     60
        BYTE   W01
        BYTE           N03     Fn3   v051
        BYTE           VOL     58
        BYTE   W02
        BYTE                   57
        BYTE   W01
        BYTE                   55
        BYTE   W01
        BYTE           N03     Gn3   v086
        BYTE   W01
        BYTE           VOL     54
        BYTE   W01
        BYTE                   52
        BYTE   W02
        BYTE           N03     Gn3   v051
        BYTE           VOL     49
        BYTE   W04
// 019   ----------------------------------------
        BYTE           N07     As3   v090
        BYTE   W05
        BYTE           VOL     50
        BYTE   W03
        BYTE           N03     Gn3
        BYTE   W03
        BYTE           VOL     51
        BYTE   W01
        BYTE           N03     Gn3   v051
        BYTE   W04
        BYTE                   As3   v090
        BYTE   W01
        BYTE           VOL     52
        BYTE   W03
        BYTE           N03     As3   v051
        BYTE           VOL     53
        BYTE   W04
        BYTE           N07     Ds4   v081
        BYTE   W02
        BYTE           VOL     54
        BYTE   W03
        BYTE                   55
        BYTE   W03
        BYTE           N03     As3   v090
        BYTE           VOL     56
        BYTE   W03
        BYTE                   58
        BYTE   W01
        BYTE           N03     As3   v051
        BYTE   W02
        BYTE           VOL     60
        BYTE   W02
        BYTE           N03     Ds4   v081
        BYTE   W01
        BYTE           VOL     61
        BYTE   W03
        BYTE           N03     Ds4   v042
        BYTE           VOL     64
        BYTE   W03
        BYTE                   66
        BYTE   W01
        BYTE           N07     Gn4   v081
        BYTE   W08
        BYTE           N03     Ds4
        BYTE   W04
        BYTE                   Ds4   v042
        BYTE   W04
        BYTE                   As3   v090
        BYTE   W02
        BYTE           VOL     65
        BYTE   W02
        BYTE           N03     As3   v051
        BYTE   W01
        BYTE           VOL     64
        BYTE   W03
        BYTE                   63
        BYTE           N03     Gn3   v090
        BYTE   W03
        BYTE           VOL     62
        BYTE   W01
        BYTE           N03     Gn3   v051
        BYTE   W02
        BYTE           VOL     61
        BYTE   W02
        BYTE           N03     Ds3   v090
        BYTE   W01
        BYTE           VOL     60
        BYTE   W03
        BYTE                   59
        BYTE           N03     Ds3   v051
        BYTE   W03
        BYTE           VOL     58
        BYTE   W01
        BYTE           N03     As3   v090
        BYTE   W02
        BYTE           VOL     56
        BYTE   W02
        BYTE           N03     As3   v051
        BYTE   W01
        BYTE           VOL     55
        BYTE   W03
// 020   ----------------------------------------
        BYTE           N07     As3   v056
        BYTE   W96
// 021   ----------------------------------------
        BYTE           VOICE   61
        BYTE           VOL     60
        BYTE           PAN     c_v-30
        BYTE   GoTo
         POIN2  fe12_win1_5_LOOP
        BYTE   FINE

//****************** Track 6 (Midi-Chn.6) ******************//

fe12_win1_6:
        BYTE   KEYSH   fe12_win1_key+0
// 000   ----------------------------------------
fe12_win1_6_LOOP:
        BYTE           VOICE   48
        BYTE           PAN     c_v+42
        BYTE           VOL     66
        BYTE           N03     Gs2   v079
        BYTE   W04
        BYTE                   Gs2   v039
        BYTE   W04
        BYTE                   Cs3   v079
        BYTE   W04
        BYTE                   Cs3   v039
        BYTE   W04
        BYTE                   Ds3   v079
        BYTE   W04
        BYTE                   Ds3   v039
        BYTE   W04
        BYTE                   Cs3   v079
        BYTE   W04
        BYTE                   Cs3   v039
        BYTE   W04
        BYTE                   Ds3   v079
        BYTE   W04
        BYTE                   Ds3   v039
        BYTE   W04
        BYTE                   Gs3   v079
        BYTE   W04
        BYTE                   Gs3   v039
        BYTE   W04
        BYTE                   Ds3   v079
        BYTE   W04
        BYTE                   Ds3   v039
        BYTE   W04
        BYTE                   Gs3   v079
        BYTE   W04
        BYTE                   Gs3   v039
        BYTE   W04
        BYTE                   As3   v079
        BYTE   W04
        BYTE                   As3   v039
        BYTE   W04
        BYTE                   Gs3   v079
        BYTE   W04
        BYTE                   Gs3   v039
        BYTE   W04
        BYTE                   Cs4   v079
        BYTE   W04
        BYTE                   Cs4   v039
        BYTE   W04
        BYTE                   Ds4   v079
        BYTE   W04
        BYTE                   Ds4   v039
        BYTE   W04
// 001   ----------------------------------------
fe12_win1_6_1:
        BYTE           N03     Gs3   v079
        BYTE   W04
        BYTE                   Gs3   v039
        BYTE   W04
        BYTE                   Cs4   v079
        BYTE   W04
        BYTE                   Cs4   v039
        BYTE   W04
        BYTE                   Ds4   v079
        BYTE   W04
        BYTE                   Ds4   v039
        BYTE   W04
        BYTE                   Cs4   v079
        BYTE   W04
        BYTE                   Cs4   v039
        BYTE   W04
        BYTE                   Ds4   v079
        BYTE   W04
        BYTE                   Ds4   v039
        BYTE   W04
        BYTE                   Gs4   v064
        BYTE   W04
        BYTE                   Gs4   v024
        BYTE   W04
        BYTE                   As4   v064
        BYTE   W04
        BYTE                   As4   v024
        BYTE   W04
        BYTE                   Gs4   v064
        BYTE   W04
        BYTE                   Gs4   v024
        BYTE   W04
        BYTE                   Ds4   v079
        BYTE   W04
        BYTE                   Ds4   v039
        BYTE   W04
        BYTE                   Cs4   v079
        BYTE   W04
        BYTE                   Cs4   v039
        BYTE   W04
        BYTE                   Fs3   v079
        BYTE   W04
        BYTE                   Fs3   v039
        BYTE   W04
        BYTE                   As3   v079
        BYTE   W04
        BYTE                   As3   v039
        BYTE   W04
        BYTE   PEND
// 002   ----------------------------------------
fe12_win1_6_2:
        BYTE           N03     Gs2   v079
        BYTE   W04
        BYTE                   Gs2   v039
        BYTE   W04
        BYTE                   Cs3   v079
        BYTE   W04
        BYTE                   Cs3   v039
        BYTE   W04
        BYTE                   Ds3   v079
        BYTE   W04
        BYTE                   Ds3   v039
        BYTE   W04
        BYTE                   Cs3   v079
        BYTE   W04
        BYTE                   Cs3   v039
        BYTE   W04
        BYTE                   Ds3   v079
        BYTE   W04
        BYTE                   Ds3   v039
        BYTE   W04
        BYTE                   Gs3   v079
        BYTE   W04
        BYTE                   Gs3   v039
        BYTE   W04
        BYTE                   Ds3   v079
        BYTE   W04
        BYTE                   Ds3   v039
        BYTE   W04
        BYTE                   Gs3   v079
        BYTE   W04
        BYTE                   Gs3   v039
        BYTE   W04
        BYTE                   As3   v079
        BYTE   W04
        BYTE                   As3   v039
        BYTE   W04
        BYTE                   Gs3   v079
        BYTE   W04
        BYTE                   Gs3   v039
        BYTE   W04
        BYTE                   Cs4   v079
        BYTE   W04
        BYTE                   Cs4   v039
        BYTE   W04
        BYTE                   Ds4   v079
        BYTE   W04
        BYTE                   Ds4   v039
        BYTE   W04
        BYTE   PEND
// 003   ----------------------------------------
        BYTE   PATT
         POIN2  fe12_win1_6_1
// 004   ----------------------------------------
        BYTE   PATT
         POIN2  fe12_win1_6_2
// 005   ----------------------------------------
        BYTE   PATT
         POIN2  fe12_win1_6_1
// 006   ----------------------------------------
        BYTE   PATT
         POIN2  fe12_win1_6_2
// 007   ----------------------------------------
        BYTE   PATT
         POIN2  fe12_win1_6_1
// 008   ----------------------------------------
        BYTE   W96
// 009   ----------------------------------------
        BYTE           VOICE   14
        BYTE           PAN     c_v+14
        BYTE           VOL     60
        BYTE           BEND    c_v+1
        BYTE           N44     Gs1   v072   gtp3
        BYTE                   Fn2   v070
        BYTE           N44     Cs3   v074   gtp3
        BYTE   W15
        BYTE           VOL     61
        BYTE   W07
        BYTE                   62
        BYTE   W12
        BYTE                   63
        BYTE   W07
        BYTE                   64
        BYTE   W07
        BYTE           N44     As1   v066   gtp3
        BYTE                   Gn2   v075
        BYTE           N44     Ds3   v076   gtp3
        BYTE   W02
        BYTE           VOL     65
        BYTE   W03
        BYTE                   66
        BYTE   W10
        BYTE                   67
        BYTE   W03
        BYTE                   68
        BYTE   W07
        BYTE                   69
        BYTE   W03
        BYTE                   70
        BYTE   W06
        BYTE                   71
        BYTE   W03
        BYTE                   72
        BYTE   W03
        BYTE                   73
        BYTE   W04
        BYTE                   74
        BYTE   W04
// 010   ----------------------------------------
        BYTE           N36     Cn2   v079   gtp1
        BYTE                   Gn2   v076
        BYTE           N36     Ds3   v076   gtp1
        BYTE   W02
        BYTE           VOL     76
        BYTE   W03
        BYTE                   77
        BYTE   W03
        BYTE                   78
        BYTE   W03
        BYTE                   80
        BYTE   W04
        BYTE                   81
        BYTE   W03
        BYTE                   82
        BYTE   W03
        BYTE                   84
        BYTE   W19
        BYTE           N07     Cn2   v079
        BYTE           N07     Gn2   v075
        BYTE           N07     En3   v078
        BYTE   W08
        BYTE           N42     Cn2   v078   gtp1
        BYTE                   Gs2   v083
        BYTE           N42     Fn3   v076   gtp1
        BYTE   W16
        BYTE           VOL     82
        BYTE   W03
        BYTE                   80
        BYTE   W03
        BYTE                   78
        BYTE   W03
        BYTE                   76
        BYTE   W02
        BYTE                   75
        BYTE   W01
        BYTE                   74
        BYTE   W02
        BYTE                   73
        BYTE   W01
        BYTE                   72
        BYTE   W02
        BYTE                   71
        BYTE   W01
        BYTE                   70
        BYTE   W02
        BYTE                   69
        BYTE   W01
        BYTE                   68
        BYTE   W02
        BYTE                   67
        BYTE   W01
        BYTE                   66
        BYTE   W02
        BYTE                   65
        BYTE   W01
        BYTE                   64
        BYTE   W01
        BYTE           N03     Cn2   v057
        BYTE           N03     Gs2
        BYTE           N03     Fn3
        BYTE   W01
        BYTE           VOL     63
        BYTE   W01
        BYTE                   62
        BYTE   W01
        BYTE                   61
        BYTE   W01
// 011   ----------------------------------------
        BYTE           N44     Gs1   v070   gtp3
        BYTE                   Fn2   v073
        BYTE           N44     Cs3   v070   gtp3
        BYTE   W11
        BYTE           VOL     62
        BYTE   W16
        BYTE                   63
        BYTE   W08
        BYTE                   64
        BYTE   W12
        BYTE                   65
        BYTE   W01
        BYTE           N44     As1   v072   gtp3
        BYTE                   Gn2   v071
        BYTE           N44     Ds3   v066   gtp3
        BYTE   W07
        BYTE           VOL     66
        BYTE   W08
        BYTE                   67
        BYTE   W08
        BYTE                   68
        BYTE   W08
        BYTE                   69
        BYTE   W04
        BYTE                   70
        BYTE   W08
        BYTE                   71
        BYTE   W04
        BYTE                   72
        BYTE   W01
// 012   ----------------------------------------
        BYTE           N90     Cn2   v070   gtp1
        BYTE                   Gn2   v074
        BYTE           N30     Ds3   v078   gtp1
        BYTE   W07
        BYTE           VOL     73
        BYTE   W04
        BYTE                   74
        BYTE   W04
        BYTE                   75
        BYTE   W04
        BYTE                   76
        BYTE   W04
        BYTE                   77
        BYTE   W04
        BYTE                   78
        BYTE   W04
        BYTE                   80
        BYTE   W01
        BYTE           N07     Fn3   v081
        BYTE   W03
        BYTE           VOL     81
        BYTE   W04
        BYTE                   82
        BYTE   W01
        BYTE           N07     Fs3   v078
        BYTE   W03
        BYTE           VOL     84
        BYTE   W05
        BYTE           N42     Gn3   v074   gtp1
        BYTE   W24
        BYTE           VOL     83
        BYTE   W02
        BYTE                   81
        BYTE   W01
        BYTE                   80
        BYTE   W02
        BYTE                   78
        BYTE   W01
        BYTE                   76
        BYTE   W02
        BYTE                   74
        BYTE   W01
        BYTE                   72
        BYTE   W02
        BYTE                   70
        BYTE   W01
        BYTE                   69
        BYTE   W02
        BYTE                   67
        BYTE   W01
        BYTE                   65
        BYTE   W02
        BYTE                   64
        BYTE   W01
        BYTE                   62
        BYTE   W02
        BYTE                   60
        BYTE           N03     Cn2   v057
        BYTE           N03     Gn2
        BYTE           N03     Gn3
        BYTE   W01
        BYTE           VOL     58
        BYTE   W02
        BYTE                   56
        BYTE   W01
// 013   ----------------------------------------
        BYTE                   55
        BYTE           N44     Gs1   v075   gtp3
        BYTE                   Fn2   v072
        BYTE           N44     Cs3   v069   gtp3
        BYTE   W10
        BYTE           VOL     56
        BYTE   W18
        BYTE                   57
        BYTE   W08
        BYTE                   58
        BYTE   W12
        BYTE           N44     As1   v069   gtp3
        BYTE                   Gn2   v067
        BYTE           N44     Ds3   v076   gtp3
        BYTE   W02
        BYTE           VOL     59
        BYTE   W07
        BYTE                   60
        BYTE   W11
        BYTE                   61
        BYTE   W04
        BYTE                   62
        BYTE   W10
        BYTE                   63
        BYTE   W04
        BYTE                   64
        BYTE   W10
// 014   ----------------------------------------
        BYTE           N36     Cn2   v075   gtp3
        BYTE                   Gn2   v081
        BYTE           N36     Ds3   v081   gtp3
        BYTE   W01
        BYTE           VOL     65
        BYTE   W03
        BYTE                   66
        BYTE   W08
        BYTE                   68
        BYTE   W07
        BYTE                   69
        BYTE   W03
        BYTE                   70
        BYTE   W04
        BYTE                   71
        BYTE   W04
        BYTE                   72
        BYTE   W03
        BYTE                   73
        BYTE   W04
        BYTE                   74
        BYTE   W03
        BYTE           N07     Cn2   v083
        BYTE           N07     Gn2   v084
        BYTE           N07     En3   v088
        BYTE           VOL     75
        BYTE   W04
        BYTE                   76
        BYTE   W04
        BYTE                   78
        BYTE           N42     Cn2   v081   gtp1
        BYTE                   Gs2
        BYTE           N42     Fn3   v080   gtp1
        BYTE   W03
        BYTE           VOL     79
        BYTE   W04
        BYTE                   80
        BYTE   W03
        BYTE                   82
        BYTE   W04
        BYTE                   84
        BYTE   W30
        BYTE           N03     Cn2   v057
        BYTE           N03     Gs2
        BYTE           N03     Fn3
        BYTE   W04
// 015   ----------------------------------------
        BYTE           N92     Cs2   v083   gtp3
        BYTE   W96
// 016   ----------------------------------------
        BYTE                   Cs2   v088
        BYTE   W96
// 017   ----------------------------------------
        BYTE                   Cs2
        BYTE   W96
// 018   ----------------------------------------
        BYTE                   Cs2   v079
        BYTE   W96
// 019   ----------------------------------------
        BYTE           N44     Cs2   v083   gtp3
        BYTE   W48
        BYTE                   Ds2
        BYTE   W48
// 020   ----------------------------------------
        BYTE           BEND    c_v+0
        BYTE   W04
        BYTE           VOICE   127
        BYTE           VOL     17
        BYTE           PAN     c_v+63
        BYTE   W04
        BYTE           N07     Dn1   v123
        BYTE   W16
        BYTE                   Dn1
        BYTE   W08
        BYTE           N06     En1   v115
        BYTE   W08
        BYTE                   Dn1   v114
        BYTE   W08
        BYTE           N07     En1   v110
        BYTE   W08
        BYTE           N06     Dn1   v119
        BYTE   W08
        BYTE           N07     En1   v108
        BYTE   W08
        BYTE                   Dn1   v117
        BYTE   W08
        BYTE           N03
        BYTE   W04
        BYTE                   En1   v104
        BYTE   W04
        BYTE                   Dn1   v114
        BYTE           N07     Gn2   v073
        BYTE   W04
        BYTE           N03     En1   v104
        BYTE   W04
// 021   ----------------------------------------
        BYTE           VOICE   48
        BYTE           VOL     66
        BYTE           PAN     c_v+42
        BYTE   GoTo
         POIN2  fe12_win1_6_LOOP
        BYTE   FINE

//****************** Track 7 (Midi-Chn.7) ******************//

fe12_win1_7:
        BYTE   KEYSH   fe12_win1_key+0
// 000   ----------------------------------------
fe12_win1_7_LOOP:
        BYTE           VOICE   124
        BYTE           VOL     56
        BYTE           N06     Dn1   v122
        BYTE           N48     Cs2   v068
        BYTE   W08
        BYTE           N07     Cs1   v106
        BYTE   W08
        BYTE                   Dn1   v119
        BYTE   W08
        BYTE           N15     Cs1   v115
        BYTE           N04     En2   v068
        BYTE   W16
        BYTE           N07     Dn1   v119
        BYTE   W08
        BYTE                   Dn1
        BYTE   W08
        BYTE           N03     Cs1   v101
        BYTE   W04
        BYTE                   Dn1   v125
        BYTE   W04
        BYTE                   Cs1   v127
        BYTE   W04
        BYTE                   Dn1   v102
        BYTE   W04
        BYTE           N07     Cs1   v125
        BYTE   W08
        BYTE                   Dn1
        BYTE   W08
        BYTE                   Cs1   v113
        BYTE   W08
// 001   ----------------------------------------
fe12_win1_7_1:
        BYTE           N19     Dn1   v127
        BYTE   W24
        BYTE           N06     Cs1   v112
        BYTE   W08
        BYTE                   Dn1   v110
        BYTE   W08
        BYTE           N07     Cs1   v102
        BYTE   W08
        BYTE           N06     Dn1   v119
        BYTE   W08
        BYTE           N07     Cs1   v099
        BYTE   W08
        BYTE                   Dn1   v115
        BYTE   W08
        BYTE           N15     Cs1   v125
        BYTE   W24
        BYTE   PEND
// 002   ----------------------------------------
fe12_win1_7_2:
        BYTE           N06     Dn1   v122
        BYTE   W08
        BYTE           N07     Cs1   v106
        BYTE   W08
        BYTE                   Dn1   v119
        BYTE   W08
        BYTE           N15     Cs1   v115
        BYTE   W16
        BYTE           N07     Dn1   v119
        BYTE   W08
        BYTE                   Dn1
        BYTE   W08
        BYTE           N03     Cs1   v101
        BYTE   W04
        BYTE                   Dn1   v125
        BYTE   W04
        BYTE                   Cs1   v127
        BYTE   W04
        BYTE                   Dn1   v102
        BYTE   W04
        BYTE           N07     Cs1   v125
        BYTE   W08
        BYTE                   Dn1
        BYTE   W08
        BYTE                   Cs1   v113
        BYTE   W08
        BYTE   PEND
// 003   ----------------------------------------
        BYTE   PATT
         POIN2  fe12_win1_7_1
// 004   ----------------------------------------
        BYTE   PATT
         POIN2  fe12_win1_7_2
// 005   ----------------------------------------
        BYTE   PATT
         POIN2  fe12_win1_7_1
// 006   ----------------------------------------
        BYTE   PATT
         POIN2  fe12_win1_7_2
// 007   ----------------------------------------
        BYTE   PATT
         POIN2  fe12_win1_7_1
// 008   ----------------------------------------
        BYTE           N07     Dn1   v114
        BYTE   W08
        BYTE                   Cs1
        BYTE   W08
        BYTE                   Dn1   v118
        BYTE   W08
        BYTE                   Cs1   v108
        BYTE   W16
        BYTE                   Dn1   v115
        BYTE   W08
        BYTE           N03     Dn1   v111
        BYTE   W04
        BYTE                   Cs1   v122
        BYTE   W04
        BYTE                   Dn1   v125
        BYTE   W04
        BYTE                   Cs1   v119
        BYTE   W04
        BYTE                   Dn1   v111
        BYTE   W04
        BYTE                   Cs1   v105
        BYTE   W04
        BYTE           N07     Dn1   v125
        BYTE   W24
// 009   ----------------------------------------
        BYTE   W96
// 010   ----------------------------------------
        BYTE   W96
// 011   ----------------------------------------
        BYTE   W96
// 012   ----------------------------------------
        BYTE           N15     Dn1   v034
        BYTE   W16
        BYTE           N07     Dn1   v024
        BYTE   W08
        BYTE           N15     Dn1   v034
        BYTE   W16
        BYTE           N07     Dn1   v024
        BYTE   W08
        BYTE           N11
        BYTE   W12
        BYTE           N03
        BYTE   W04
        BYTE                   Dn1   v020
        BYTE   W04
        BYTE                   Dn1   v024
        BYTE   W04
        BYTE           N23     Cn2   v030
        BYTE   W24
// 013   ----------------------------------------
        BYTE           N03     Dn1   v027
        BYTE   W04
        BYTE                   Dn1   v019
        BYTE   W04
        BYTE                   Dn1   v010
        BYTE   W04
        BYTE                   Dn1   v001
        BYTE   W84
// 014   ----------------------------------------
        BYTE   W96
// 015   ----------------------------------------
fe12_win1_7_15:
        BYTE           N06     Dn1   v109
        BYTE   W08
        BYTE           N07     Cs1   v095
        BYTE   W08
        BYTE                   Dn1   v107
        BYTE   W08
        BYTE           N15     Cs1   v103
        BYTE   W16
        BYTE           N07     Dn1   v107
        BYTE   W08
        BYTE                   Dn1
        BYTE   W08
        BYTE           N03     Cs1   v091
        BYTE   W04
        BYTE                   Dn1   v112
        BYTE   W04
        BYTE                   Cs1   v114
        BYTE   W04
        BYTE                   Dn1   v092
        BYTE   W04
        BYTE           N07     Cs1   v112
        BYTE   W08
        BYTE                   Dn1
        BYTE   W08
        BYTE                   Cs1   v102
        BYTE   W08
        BYTE   PEND
// 016   ----------------------------------------
        BYTE           N19     Dn1   v114
        BYTE   W24
        BYTE           N06     Cs1   v100
        BYTE   W08
        BYTE                   Dn1   v099
        BYTE   W08
        BYTE           N07     Cs1   v091
        BYTE   W08
        BYTE           N06     Dn1   v107
        BYTE   W08
        BYTE           N07     Cs1   v089
        BYTE   W08
        BYTE                   Dn1   v103
        BYTE   W08
        BYTE           N15     Cs1   v112
        BYTE   W24
// 017   ----------------------------------------
        BYTE   PATT
         POIN2  fe12_win1_7_15
// 018   ----------------------------------------
        BYTE           N19     Dn1   v117
        BYTE   W24
        BYTE           N06     Cs1   v104
        BYTE   W08
        BYTE                   Dn1   v102
        BYTE   W08
        BYTE           N07     Cs1   v095
        BYTE   W08
        BYTE           N06     Dn1   v110
        BYTE   W08
        BYTE           N07     Cs1   v093
        BYTE   W08
        BYTE                   Dn1   v106
        BYTE   W08
        BYTE           N15     Fn1   v099
        BYTE   W16
        BYTE           N02     Cs1   v108
        BYTE   W08
// 019   ----------------------------------------
        BYTE   PATT
         POIN2  fe12_win1_7_15
// 020   ----------------------------------------
        BYTE           N07     Dn1   v123
        BYTE   W16
        BYTE                   Dn1
        BYTE   W08
        BYTE           N06     Cs1   v115
        BYTE   W08
        BYTE                   Dn1   v114
        BYTE   W08
        BYTE           N07     Cs1   v110
        BYTE   W08
        BYTE           N06     Dn1   v119
        BYTE   W08
        BYTE           N07     Cs1   v108
        BYTE   W08
        BYTE                   Dn1   v117
        BYTE   W08
        BYTE           N03
        BYTE   W04
        BYTE                   Cs1   v104
        BYTE   W04
        BYTE                   Dn1   v114
        BYTE           N07     Gn2   v073
        BYTE   W04
        BYTE           N03     Cs1   v104
        BYTE   W04
        BYTE                   Dn1   v108
        BYTE           N07     Gn2   v073
        BYTE   W04
        BYTE           N03     Cs1   v114
        BYTE   W04
// 021   ----------------------------------------
        BYTE   GoTo
         POIN2  fe12_win1_7_LOOP
        BYTE   FINE


//********************** End of Song ***********************//

        ALIGN 4
fe12_win1:
        BYTE   8                       // Num Tracks
        BYTE   0                       // Unknown
        BYTE   fe12_win1_pri           // Priority
        BYTE   fe12_win1_rev           // Reverb

        POIN2   fe12_win1_grp          

        POIN2   fe12_win1_0
        POIN2   fe12_win1_1
        POIN2   fe12_win1_2
        POIN2   fe12_win1_3
        POIN2   fe12_win1_4
        POIN2   fe12_win1_5
        POIN2   fe12_win1_6
        POIN2   fe12_win1_7

        
