//Event file generated from Sappy .s format.
        #include "MPlayDef.event"

        #define    FiendsRapture_grp  voicegroup000
        #define    FiendsRapture_pri  0
        #define    FiendsRapture_rev  0
        #define    FiendsRapture_key  0

        // .rodata
        // FiendsRapture
        ALIGN 4

//****************** Track 0 (Midi-Chn.0) ******************//

FiendsRapture_0:
        BYTE   KEYSH   FiendsRapture_key+0
// 000   ----------------------------------------
        BYTE   TEMPO   140/2
FiendsRapture_0_LOOP:
        BYTE           VOICE   61
        BYTE           PAN     c_v-36
        BYTE           VOL     44
        BYTE           N12     Cs3   v081
        BYTE   W18
        BYTE           N60     Cn3
        BYTE   W60
        BYTE           N12     Cs3
        BYTE   W18
// 001   ----------------------------------------
        BYTE           N60     Ds3
        BYTE   W96
// 002   ----------------------------------------
        BYTE   W96
// 003   ----------------------------------------
        BYTE   W24
        BYTE           N12     Cs3
        BYTE   W18
        BYTE           N60     Cn3
        BYTE   W54
// 004   ----------------------------------------
        BYTE   W06
        BYTE           N12     Cs3
        BYTE   W18
        BYTE           N60     Ds3
        BYTE   W72
// 005   ----------------------------------------
        BYTE   W96
// 006   ----------------------------------------
        BYTE   W60
        BYTE           N06     Cs4
        BYTE   W18
        BYTE                   Cs4
        BYTE   W18
// 007   ----------------------------------------
        BYTE                   Cn4
        BYTE   W18
        BYTE                   Cs4
        BYTE   W06
        BYTE                   Cs4
        BYTE   W18
        BYTE                   Fs3
        BYTE   W18
        BYTE                   Gs3
        BYTE   W18
        BYTE                   Fn3
        BYTE   W18
// 008   ----------------------------------------
        BYTE           N03     Fs3
        BYTE   W06
        BYTE           N06
        BYTE   W06
        BYTE           N42     As2
        BYTE   W42
        BYTE           N36     Bn2
        BYTE   W36
        BYTE           N42     Cn3
        BYTE   W06
// 009   ----------------------------------------
        BYTE   W36
        BYTE           N36     Cs3
        BYTE   W48
        BYTE   W03
        BYTE           N06     As1
        BYTE   W09
// 010   ----------------------------------------
        BYTE   W68
        BYTE   W01
        BYTE                   As1
        BYTE   W18
        BYTE           N03     Cs2
        BYTE   W03
        BYTE           N42     As1
        BYTE   W06
// 011   ----------------------------------------
        BYTE   W36
        BYTE   W03
        BYTE           N06     Bn2
        BYTE   W06
        BYTE                   Ds3
        BYTE   W06
        BYTE                   Gs3
        BYTE   W06
        BYTE                   Bn3
        BYTE   W06
        BYTE                   Ds4
        BYTE   W06
        BYTE                   Bn3
        BYTE   W06
        BYTE                   Gs3
        BYTE   W06
        BYTE                   Ds3
        BYTE   W06
        BYTE                   Gs3
        BYTE   W06
        BYTE                   Bn3
        BYTE   W03
// 012   ----------------------------------------
        BYTE   W03
        BYTE                   Ds4
        BYTE   W06
        BYTE                   Bn3
        BYTE   W06
        BYTE                   Gs3
        BYTE   W06
        BYTE                   Dn3
        BYTE   W06
        BYTE                   Fn3
        BYTE   W06
        BYTE                   As3
        BYTE   W06
        BYTE                   Fn3
        BYTE   W06
        BYTE                   Dn4
        BYTE   W06
        BYTE                   As2
        BYTE   W06
        BYTE                   Dn3
        BYTE   W06
        BYTE                   Fn3
        BYTE   W06
        BYTE                   Dn3
        BYTE   W06
        BYTE                   Fn3
        BYTE   W06
        BYTE                   As3
        BYTE   W06
        BYTE                   Dn4
        BYTE   W06
        BYTE           N03     Fn4
        BYTE   W03
// 013   ----------------------------------------
        BYTE           N06     As2
        BYTE   W12
        BYTE                   As2
        BYTE   W18
        BYTE                   As2
        BYTE   W18
        BYTE                   As2
        BYTE   W18
        BYTE                   As2
        BYTE   W06
        BYTE                   As2
        BYTE   W06
        BYTE                   As2
        BYTE   W12
        BYTE                   As2
        BYTE   W06
// 014   ----------------------------------------
        BYTE   W12
        BYTE                   As2
        BYTE   W18
        BYTE                   As2
        BYTE   W18
        BYTE                   As2
        BYTE   W06
        BYTE                   As2
        BYTE   W06
        BYTE   GoTo
         POIN2  FiendsRapture_0_LOOP
        BYTE   FINE

//****************** Track 1 (Midi-Chn.1) ******************//

FiendsRapture_1:
        BYTE   KEYSH   FiendsRapture_key+0
// 000   ----------------------------------------
FiendsRapture_1_LOOP:
        BYTE           VOICE   57
        BYTE           PAN     c_v+46
        BYTE           VOL     56
        BYTE           N12     Fs3   v081
        BYTE   W18
        BYTE           N60     Fn3
        BYTE   W60
        BYTE           N12     Fs3
        BYTE   W18
// 001   ----------------------------------------
        BYTE           N60     Gs3
        BYTE   W96
// 002   ----------------------------------------
        BYTE   W96
// 003   ----------------------------------------
        BYTE   W24
        BYTE           N12     Fs3
        BYTE   W18
        BYTE           N60     Fn3
        BYTE   W54
// 004   ----------------------------------------
        BYTE   W06
        BYTE           N12     Fs3
        BYTE   W18
        BYTE           N60     Gs3
        BYTE   W72
// 005   ----------------------------------------
        BYTE   W96
// 006   ----------------------------------------
        BYTE   W60
        BYTE           N06     Fs4
        BYTE   W18
        BYTE                   Gs4
        BYTE   W18
// 007   ----------------------------------------
        BYTE                   Fn4
        BYTE   W18
        BYTE                   Fs4
        BYTE   W06
        BYTE                   Fs4
        BYTE   W18
        BYTE                   Cs4
        BYTE   W18
        BYTE                   Ds4
        BYTE   W18
        BYTE                   Cn4
        BYTE   W18
// 008   ----------------------------------------
        BYTE           N03     Cs4
        BYTE   W06
        BYTE           N06
        BYTE   W06
        BYTE           N42     Fs3
        BYTE   W42
        BYTE           N36
        BYTE   W36
        BYTE           N42
        BYTE   W06
// 009   ----------------------------------------
        BYTE   W36
        BYTE           N36
        BYTE   W36
        BYTE           N06     Fs2
        BYTE   W06
        BYTE                   Gs2
        BYTE   W06
        BYTE                   As2
        BYTE   W06
        BYTE                   Ds2
        BYTE   W06
// 010   ----------------------------------------
        BYTE                   Fn2
        BYTE   W06
        BYTE                   Fs2
        BYTE   W06
        BYTE           N42     Fn2
        BYTE   W42
        BYTE           N06     Fs2
        BYTE   W06
        BYTE                   Gs2
        BYTE   W06
        BYTE                   As2
        BYTE   W06
        BYTE                   Ds2
        BYTE   W06
        BYTE                   Fs2
        BYTE   W06
        BYTE                   Cs3
        BYTE   W06
        BYTE           N42     As2
        BYTE   W06
// 011   ----------------------------------------
        BYTE   W36
        BYTE           N06     Bn2
        BYTE   W06
        BYTE                   Ds3
        BYTE   W06
        BYTE                   Gs3
        BYTE   W06
        BYTE                   Bn3
        BYTE   W06
        BYTE                   Ds4
        BYTE   W06
        BYTE                   Bn3
        BYTE   W06
        BYTE                   Gs3
        BYTE   W06
        BYTE                   Ds3
        BYTE   W06
        BYTE                   Gs3
        BYTE   W06
        BYTE                   Bn3
        BYTE   W06
// 012   ----------------------------------------
        BYTE                   Ds4
        BYTE   W06
        BYTE                   Bn3
        BYTE   W06
        BYTE                   Gs3
        BYTE   W06
        BYTE                   Dn3
        BYTE   W06
        BYTE                   Fn3
        BYTE   W06
        BYTE                   As3
        BYTE   W06
        BYTE                   Fn3
        BYTE   W06
        BYTE                   Dn4
        BYTE   W06
        BYTE                   As2
        BYTE   W06
        BYTE                   Dn3
        BYTE   W06
        BYTE                   Fn3
        BYTE   W06
        BYTE                   Dn3
        BYTE   W06
        BYTE                   Fn3
        BYTE   W06
        BYTE                   As3
        BYTE   W06
        BYTE                   Dn4
        BYTE   W06
        BYTE                   Fn4
        BYTE   W06
// 013   ----------------------------------------
        BYTE                   Ds3
        BYTE   W12
        BYTE                   Ds3
        BYTE   W18
        BYTE                   Ds3
        BYTE   W18
        BYTE                   Ds3
        BYTE   W18
        BYTE                   Ds3
        BYTE   W06
        BYTE                   Ds3
        BYTE   W06
        BYTE                   Ds3
        BYTE   W12
        BYTE                   Ds3
        BYTE   W06
// 014   ----------------------------------------
        BYTE   W12
        BYTE                   Ds3
        BYTE   W18
        BYTE                   Ds3
        BYTE   W18
        BYTE                   Ds3
        BYTE   W06
        BYTE                   Ds3
        BYTE   W06
        BYTE   GoTo
         POIN2  FiendsRapture_1_LOOP
        BYTE   FINE

//****************** Track 2 (Midi-Chn.2) ******************//

FiendsRapture_2:
        BYTE   KEYSH   FiendsRapture_key+0
// 000   ----------------------------------------
FiendsRapture_2_LOOP:
        BYTE           VOICE   56
        BYTE           VOL     58
        BYTE           PAN     c_v-32
        BYTE           N24     Ds3   v094
        BYTE   W24
        BYTE           N06     Gs3
        BYTE   W06
        BYTE                   As3
        BYTE   W06
        BYTE                   Ds4
        BYTE   W06
        BYTE           N18     Ds3
        BYTE   W18
        BYTE           N06     Gs3
        BYTE   W06
        BYTE                   As3
        BYTE   W06
        BYTE                   Ds4
        BYTE   W06
        BYTE           N24     Ds3
        BYTE   W18
// 001   ----------------------------------------
FiendsRapture_2_1:
        BYTE   W06
        BYTE           N06     Gs3   v094
        BYTE   W06
        BYTE                   As3
        BYTE   W06
        BYTE                   Ds4
        BYTE   W06
        BYTE           N18     Ds3
        BYTE   W18
        BYTE           N06     Gs3
        BYTE   W06
        BYTE                   As3
        BYTE   W06
        BYTE                   Ds4
        BYTE   W06
        BYTE           N24     Ds3
        BYTE   W24
        BYTE           N06     Gs3
        BYTE   W06
        BYTE                   As3
        BYTE   W06
        BYTE   PEND
// 002   ----------------------------------------
FiendsRapture_2_2:
        BYTE           N06     Ds4   v094
        BYTE   W06
        BYTE           N18     Ds3
        BYTE   W18
        BYTE           N06     Gs3
        BYTE   W06
        BYTE                   As3
        BYTE   W06
        BYTE                   Ds4
        BYTE   W06
        BYTE           N24     Ds3
        BYTE   W24
        BYTE           N06     Gs3
        BYTE   W06
        BYTE                   As3
        BYTE   W06
        BYTE                   Ds4
        BYTE   W06
        BYTE           N18     Ds3
        BYTE   W12
        BYTE   PEND
// 003   ----------------------------------------
FiendsRapture_2_3:
        BYTE   W06
        BYTE           N06     Gs3   v094
        BYTE   W06
        BYTE                   As3
        BYTE   W06
        BYTE                   Ds4
        BYTE   W06
        BYTE           N24     Ds3
        BYTE   W24
        BYTE           N06     Gs3
        BYTE   W06
        BYTE                   As3
        BYTE   W06
        BYTE                   Ds4
        BYTE   W06
        BYTE           N18     Ds3
        BYTE   W18
        BYTE           N06     Gs3
        BYTE   W06
        BYTE                   As3
        BYTE   W06
        BYTE   PEND
// 004   ----------------------------------------
FiendsRapture_2_4:
        BYTE           N06     Ds4   v094
        BYTE   W06
        BYTE           N24     Ds3
        BYTE   W24
        BYTE           N06     Gs3
        BYTE   W06
        BYTE                   As3
        BYTE   W06
        BYTE                   Ds4
        BYTE   W06
        BYTE           N18     Ds3
        BYTE   W18
        BYTE           N06     Gs3
        BYTE   W06
        BYTE                   As3
        BYTE   W06
        BYTE                   Ds4
        BYTE   W06
        BYTE           N24     Ds3
        BYTE   W12
        BYTE   PEND
// 005   ----------------------------------------
FiendsRapture_2_5:
        BYTE   W12
        BYTE           N06     Gs3   v094
        BYTE   W06
        BYTE                   As3
        BYTE   W06
        BYTE                   Ds4
        BYTE   W06
        BYTE           N18     Ds3
        BYTE   W18
        BYTE           N06     Gs3
        BYTE   W06
        BYTE                   As3
        BYTE   W06
        BYTE                   Ds4
        BYTE   W06
        BYTE           N24     Ds3
        BYTE   W24
        BYTE           N06     Gs3
        BYTE   W06
        BYTE   PEND
// 006   ----------------------------------------
FiendsRapture_2_6:
        BYTE           N06     As3   v094
        BYTE   W06
        BYTE                   Ds4
        BYTE   W06
        BYTE           N18     Ds3
        BYTE   W18
        BYTE           N06     Gs3
        BYTE   W06
        BYTE                   As3
        BYTE   W06
        BYTE                   Ds4
        BYTE   W06
        BYTE           N24     Ds3
        BYTE   W24
        BYTE           N06     Gs3   v051
        BYTE   W06
        BYTE                   As3
        BYTE   W06
        BYTE                   Ds4
        BYTE   W06
        BYTE           N18     Ds3
        BYTE   W06
        BYTE   PEND
// 007   ----------------------------------------
FiendsRapture_2_7:
        BYTE   W12
        BYTE           N06     Gs3   v051
        BYTE   W06
        BYTE                   As3
        BYTE   W06
        BYTE                   Ds4
        BYTE   W06
        BYTE           N24     Ds3
        BYTE   W24
        BYTE           N06     Gs3
        BYTE   W06
        BYTE                   As3
        BYTE   W06
        BYTE                   Ds4
        BYTE   W06
        BYTE           N18     Ds3
        BYTE   W18
        BYTE           N06     Gs3
        BYTE   W06
        BYTE   PEND
// 008   ----------------------------------------
FiendsRapture_2_8:
        BYTE           N06     As3   v051
        BYTE   W06
        BYTE                   Ds4
        BYTE   W06
        BYTE           N24     Ds3   v094
        BYTE   W24
        BYTE           N06     Gs3
        BYTE   W06
        BYTE                   As3
        BYTE   W06
        BYTE                   Ds4
        BYTE   W06
        BYTE           N18     Ds3
        BYTE   W18
        BYTE           N06     Gs3
        BYTE   W06
        BYTE                   As3
        BYTE   W06
        BYTE                   Ds4
        BYTE   W06
        BYTE           N24     Ds3
        BYTE   W06
        BYTE   PEND
// 009   ----------------------------------------
FiendsRapture_2_9:
        BYTE   W18
        BYTE           N06     Gs3   v094
        BYTE   W06
        BYTE                   As3
        BYTE   W06
        BYTE                   Ds4
        BYTE   W06
        BYTE           N18     Ds3
        BYTE   W18
        BYTE           N06     Gs3
        BYTE   W06
        BYTE                   As3
        BYTE   W06
        BYTE                   Ds4
        BYTE   W06
        BYTE           N24     Ds3   v051
        BYTE   W24
        BYTE   PEND
// 010   ----------------------------------------
FiendsRapture_2_10:
        BYTE           N06     Gs3   v051
        BYTE   W06
        BYTE                   As3
        BYTE   W06
        BYTE                   Ds4
        BYTE   W06
        BYTE           N18     Ds3
        BYTE   W18
        BYTE           N06     Gs3
        BYTE   W06
        BYTE                   As3
        BYTE   W06
        BYTE                   Ds4
        BYTE   W06
        BYTE           N24     Ds3
        BYTE   W24
        BYTE           N06     Gs3
        BYTE   W06
        BYTE                   As3
        BYTE   W06
        BYTE                   Ds4
        BYTE   W06
        BYTE   PEND
// 011   ----------------------------------------
FiendsRapture_2_11:
        BYTE           N18     Ds3   v051
        BYTE   W18
        BYTE           N06     Gs3
        BYTE   W06
        BYTE                   As3
        BYTE   W06
        BYTE                   Ds4
        BYTE   W06
        BYTE           N24     Gs2   v094
        BYTE   W24
        BYTE           N06     Bn2
        BYTE   W06
        BYTE                   Ds3
        BYTE   W06
        BYTE                   Gs3
        BYTE   W06
        BYTE           N18     Gs2
        BYTE   W18
        BYTE   PEND
// 012   ----------------------------------------
FiendsRapture_2_12:
        BYTE           N06     Bn2   v094
        BYTE   W06
        BYTE                   Ds3
        BYTE   W06
        BYTE                   Gs3
        BYTE   W06
        BYTE           N24     As2
        BYTE   W24
        BYTE           N06     Dn3
        BYTE   W06
        BYTE                   Fn3
        BYTE   W06
        BYTE                   As3
        BYTE   W06
        BYTE           N18     As2
        BYTE   W18
        BYTE           N06     Dn3
        BYTE   W06
        BYTE                   Fn3
        BYTE   W06
        BYTE                   As3
        BYTE   W06
        BYTE   PEND
// 013   ----------------------------------------
FiendsRapture_2_13:
        BYTE           N24     Ds3   v094
        BYTE   W24
        BYTE           N06     Gn3
        BYTE   W06
        BYTE                   As3
        BYTE   W06
        BYTE                   Ds4
        BYTE   W06
        BYTE           N18     Ds3
        BYTE   W18
        BYTE           N06     Gn3
        BYTE   W06
        BYTE                   As3
        BYTE   W06
        BYTE                   Ds4
        BYTE   W06
        BYTE           N24     Ds3
        BYTE   W18
        BYTE   PEND
// 014   ----------------------------------------
        BYTE   W06
        BYTE           N06     Gn3
        BYTE   W06
        BYTE                   As3
        BYTE   W06
        BYTE                   Ds4
        BYTE   W06
        BYTE           N18     Ds3
        BYTE   W18
        BYTE           N06     Gn3
        BYTE   W06
        BYTE                   As3
        BYTE   W06
        BYTE                   Ds4
        BYTE   W06
        BYTE   GoTo
         POIN2  FiendsRapture_2_LOOP
        BYTE   FINE

//****************** Track 3 (Midi-Chn.3) ******************//

FiendsRapture_3:
        BYTE   KEYSH   FiendsRapture_key+0
// 000   ----------------------------------------
FiendsRapture_3_LOOP:
        BYTE           VOICE   106
        BYTE           PAN     c_v+26
        BYTE           VOL     46
        BYTE   W96
// 001   ----------------------------------------
        BYTE   W60
        BYTE           N06     As2   v094
        BYTE   W12
        BYTE                   As2
        BYTE   W06
        BYTE                   Ds3
        BYTE   W06
        BYTE                   Cs3
        BYTE   W06
        BYTE                   As2
        BYTE   W06
// 002   ----------------------------------------
        BYTE                   As2
        BYTE   W12
        BYTE                   As2
        BYTE   W06
        BYTE                   Ds3
        BYTE   W06
        BYTE                   Cs3
        BYTE   W06
        BYTE                   As2
        BYTE   W06
        BYTE                   As2
        BYTE   W12
        BYTE                   As2
        BYTE   W06
        BYTE                   Ds3
        BYTE   W06
        BYTE                   Cs3
        BYTE   W06
        BYTE                   As2
        BYTE   W06
        BYTE                   As2
        BYTE   W12
        BYTE                   As2
        BYTE   W06
        BYTE                   Ds3
        BYTE   W06
// 003   ----------------------------------------
        BYTE                   Cs3
        BYTE   W06
        BYTE                   As2
        BYTE   W06
        BYTE                   As2
        BYTE   W84
// 004   ----------------------------------------
        BYTE   W84
        BYTE                   As2
        BYTE   W12
// 005   ----------------------------------------
        BYTE                   As2
        BYTE   W06
        BYTE                   Ds3
        BYTE   W06
        BYTE                   Cs3
        BYTE   W06
        BYTE                   As2
        BYTE   W06
        BYTE                   As2
        BYTE   W12
        BYTE                   As2
        BYTE   W06
        BYTE                   Ds3
        BYTE   W06
        BYTE                   Cs3
        BYTE   W06
        BYTE                   As2
        BYTE   W06
        BYTE                   As2
        BYTE   W12
        BYTE                   As2
        BYTE   W06
        BYTE                   Ds3
        BYTE   W06
        BYTE                   Cs3
        BYTE   W06
        BYTE                   As2
        BYTE   W06
// 006   ----------------------------------------
        BYTE                   As2
        BYTE   W12
        BYTE                   As2
        BYTE   W06
        BYTE                   Ds3
        BYTE   W06
        BYTE                   Cs3
        BYTE   W06
        BYTE                   As2
        BYTE   W06
        BYTE                   As2
        BYTE   W60
// 007   ----------------------------------------
        BYTE   W96
// 008   ----------------------------------------
        BYTE   W96
// 009   ----------------------------------------
        BYTE   W96
// 010   ----------------------------------------
        BYTE   W96
// 011   ----------------------------------------
        BYTE   W96
// 012   ----------------------------------------
        BYTE   W96
// 013   ----------------------------------------
        BYTE   W96
// 014   ----------------------------------------
        BYTE   W60
        BYTE   GoTo
         POIN2  FiendsRapture_3_LOOP
        BYTE   FINE

//****************** Track 4 (Midi-Chn.4) ******************//

FiendsRapture_4:
        BYTE   KEYSH   FiendsRapture_key+0
// 000   ----------------------------------------
FiendsRapture_4_LOOP:
        BYTE           VOICE   51
        BYTE           PAN     c_v-20
        BYTE           VOL     39
        BYTE           N12     Fs3   v081
        BYTE   W18
        BYTE           N60     Fn3
        BYTE   W60
        BYTE           N12     Fs3
        BYTE   W18
// 001   ----------------------------------------
        BYTE           N60     Gs3
        BYTE   W60
        BYTE           N06     As3
        BYTE   W06
        BYTE                   Gs3
        BYTE   W06
        BYTE                   As3
        BYTE   W06
        BYTE                   Ds3
        BYTE   W06
        BYTE                   Cs4
        BYTE   W06
        BYTE                   As3
        BYTE   W06
// 002   ----------------------------------------
        BYTE                   As3
        BYTE   W06
        BYTE                   Gs3
        BYTE   W06
        BYTE                   As3
        BYTE   W06
        BYTE                   Ds3
        BYTE   W06
        BYTE                   Cs4
        BYTE   W06
        BYTE                   As3
        BYTE   W06
        BYTE                   As3
        BYTE   W06
        BYTE                   Gs3
        BYTE   W06
        BYTE                   As3
        BYTE   W06
        BYTE                   Ds3
        BYTE   W06
        BYTE                   Cs4
        BYTE   W06
        BYTE                   As3
        BYTE   W06
        BYTE                   As3
        BYTE   W06
        BYTE                   Gs3
        BYTE   W06
        BYTE                   As3
        BYTE   W06
        BYTE                   Ds3
        BYTE   W06
// 003   ----------------------------------------
        BYTE                   Cs4
        BYTE   W06
        BYTE                   As3
        BYTE   W06
        BYTE                   As3
        BYTE   W06
        BYTE                   Gs3
        BYTE   W06
        BYTE           N12     Fs3
        BYTE   W18
        BYTE           N60     Fn3
        BYTE   W54
// 004   ----------------------------------------
        BYTE   W06
        BYTE           N12     Fs3
        BYTE   W18
        BYTE           N60     Gs3
        BYTE   W60
        BYTE           N06     As3
        BYTE   W06
        BYTE                   Gs3
        BYTE   W06
// 005   ----------------------------------------
        BYTE                   As3
        BYTE   W06
        BYTE                   Ds3
        BYTE   W06
        BYTE                   Cs4
        BYTE   W06
        BYTE                   As3
        BYTE   W06
        BYTE                   As3
        BYTE   W06
        BYTE                   Gs3
        BYTE   W06
        BYTE                   As3
        BYTE   W06
        BYTE                   Ds3
        BYTE   W06
        BYTE                   Cs4
        BYTE   W06
        BYTE                   As3
        BYTE   W06
        BYTE                   As3
        BYTE   W06
        BYTE                   Gs3
        BYTE   W06
        BYTE                   As3
        BYTE   W06
        BYTE                   Ds3
        BYTE   W06
        BYTE                   Cs4
        BYTE   W06
        BYTE                   As3
        BYTE   W06
// 006   ----------------------------------------
        BYTE                   As3
        BYTE   W06
        BYTE                   Gs3
        BYTE   W06
        BYTE                   As3
        BYTE   W06
        BYTE                   Ds3
        BYTE   W06
        BYTE                   Cs4
        BYTE   W06
        BYTE                   As3
        BYTE   W06
        BYTE                   As3
        BYTE   W06
        BYTE                   Gs3
        BYTE   W54
// 007   ----------------------------------------
        BYTE   W96
// 008   ----------------------------------------
        BYTE   W96
// 009   ----------------------------------------
        BYTE   W72
        BYTE                   Fs3   v064
        BYTE   W06
        BYTE                   Gs3   v081
        BYTE   W06
        BYTE                   As3
        BYTE   W06
        BYTE                   Ds3
        BYTE   W06
// 010   ----------------------------------------
        BYTE                   Fn3
        BYTE   W06
        BYTE                   Fs3
        BYTE   W06
        BYTE           N42     Fn3
        BYTE   W42
        BYTE           N06     Fs3
        BYTE   W06
        BYTE                   Gs3
        BYTE   W06
        BYTE                   As3
        BYTE   W06
        BYTE                   Ds3
        BYTE   W06
        BYTE                   Fs3
        BYTE   W06
        BYTE                   Cs4
        BYTE   W06
        BYTE           N42     As3
        BYTE   W06
// 011   ----------------------------------------
        BYTE   W36
        BYTE           N06     Bn3   v064
        BYTE   W06
        BYTE                   Ds4
        BYTE   W06
        BYTE                   Gs4
        BYTE   W06
        BYTE                   Bn4
        BYTE   W06
        BYTE                   Ds5
        BYTE   W06
        BYTE                   Bn4
        BYTE   W06
        BYTE                   Gs4
        BYTE   W06
        BYTE                   Ds4
        BYTE   W06
        BYTE                   Gs4
        BYTE   W06
        BYTE                   Bn4
        BYTE   W06
// 012   ----------------------------------------
        BYTE                   Ds5
        BYTE   W06
        BYTE                   Bn4
        BYTE   W06
        BYTE                   Gs4
        BYTE   W06
        BYTE                   Dn4
        BYTE   W06
        BYTE                   Fn4
        BYTE   W06
        BYTE                   As4
        BYTE   W06
        BYTE                   Fn4
        BYTE   W06
        BYTE                   Dn5
        BYTE   W06
        BYTE                   As3
        BYTE   W06
        BYTE                   Dn4
        BYTE   W06
        BYTE                   Fn4
        BYTE   W06
        BYTE                   Dn4
        BYTE   W06
        BYTE                   Fn4
        BYTE   W06
        BYTE                   As4
        BYTE   W06
        BYTE                   Dn5
        BYTE   W06
        BYTE                   Fn5
        BYTE   W06
// 013   ----------------------------------------
        BYTE                   Ds4
        BYTE   W12
        BYTE                   Ds4
        BYTE   W18
        BYTE                   Ds4
        BYTE   W18
        BYTE                   Ds4
        BYTE   W18
        BYTE                   Ds4
        BYTE   W06
        BYTE                   Ds4
        BYTE   W06
        BYTE                   Ds4
        BYTE   W12
        BYTE                   Ds4
        BYTE   W06
// 014   ----------------------------------------
        BYTE   W12
        BYTE                   Ds4
        BYTE   W18
        BYTE                   Ds4
        BYTE   W18
        BYTE                   Ds4
        BYTE   W06
        BYTE                   Ds4
        BYTE   W06
        BYTE   GoTo
         POIN2  FiendsRapture_4_LOOP
        BYTE   FINE

//****************** Track 5 (Midi-Chn.5) ******************//

FiendsRapture_5:
        BYTE   KEYSH   FiendsRapture_key+0
// 000   ----------------------------------------
FiendsRapture_5_LOOP:
        BYTE           VOICE   127
        BYTE           VOL     50
        BYTE           N12     Bn0   v102
        BYTE   W12
        BYTE                   Bn0
        BYTE   W12
        BYTE           N18     As1   v064
        BYTE           N18     Ds1   v081
        BYTE   W18
        BYTE           N12     Bn0   v102
        BYTE   W12
        BYTE           N06     Dn1
        BYTE   W06
        BYTE                   Dn1
        BYTE   W06
        BYTE                   Dn1
        BYTE           N12     Gs1   v064
        BYTE   W06
        BYTE           N06     Dn1   v102
        BYTE   W06
        BYTE           N12     Bn0
        BYTE   W12
        BYTE                   Bn0
        BYTE   W06
// 001   ----------------------------------------
        BYTE   W06
        BYTE           N18     As1   v064
        BYTE           N18     Ds1   v102
        BYTE   W18
        BYTE           N12     Bn0
        BYTE   W12
        BYTE           N06     Dn1
        BYTE   W06
        BYTE                   Dn1
        BYTE   W06
        BYTE                   Dn1
        BYTE           N12     Gs1   v064
        BYTE   W06
        BYTE           N06     Dn1   v102
        BYTE   W06
        BYTE           N12     Bn0
        BYTE   W12
        BYTE                   Bn0
        BYTE   W12
        BYTE           N18     As1   v064
        BYTE           N18     Ds1   v102
        BYTE   W12
// 002   ----------------------------------------
        BYTE   W06
        BYTE           N12     Bn0
        BYTE   W12
        BYTE           N06     Dn1
        BYTE   W06
        BYTE                   Dn1
        BYTE   W06
        BYTE                   Dn1
        BYTE           N12     Gs1   v064
        BYTE   W06
        BYTE           N06     Dn1   v102
        BYTE   W06
        BYTE           N12     Bn0
        BYTE   W12
        BYTE                   Bn0
        BYTE   W12
        BYTE           N18     As1   v064
        BYTE           N18     Ds1   v102
        BYTE   W18
        BYTE           N12     Bn0
        BYTE   W12
// 003   ----------------------------------------
        BYTE           N06     Dn1
        BYTE   W06
        BYTE                   Dn1
        BYTE   W06
        BYTE                   Dn1
        BYTE           N12     Gs1   v064
        BYTE   W06
        BYTE           N06     Dn1   v102
        BYTE   W06
        BYTE           N12     Bn0
        BYTE   W12
        BYTE                   Bn0
        BYTE   W12
        BYTE           N18     As1   v064
        BYTE           N18     Ds1   v102
        BYTE   W18
        BYTE           N12     Bn0
        BYTE   W12
        BYTE           N06     Dn1
        BYTE   W06
        BYTE                   Dn1
        BYTE   W06
        BYTE                   Dn1
        BYTE           N12     Gs1   v064
        BYTE   W06
// 004   ----------------------------------------
        BYTE           N06     Dn1   v102
        BYTE   W06
        BYTE           N12     Bn0
        BYTE   W12
        BYTE                   Bn0
        BYTE   W12
        BYTE           N18     As1   v064
        BYTE           N18     Ds1   v102
        BYTE   W18
        BYTE           N12     Bn0
        BYTE   W12
        BYTE           N06     Dn1
        BYTE   W06
        BYTE                   Dn1
        BYTE   W06
        BYTE                   Dn1
        BYTE           N12     Gs1   v064
        BYTE   W06
        BYTE           N06     Dn1   v102
        BYTE   W06
        BYTE           N12     Bn0
        BYTE   W12
// 005   ----------------------------------------
        BYTE                   Bn0
        BYTE   W12
        BYTE           N18     As1   v064
        BYTE           N18     Ds1   v102
        BYTE   W18
        BYTE           N12     Bn0
        BYTE   W12
        BYTE           N06     Dn1
        BYTE   W06
        BYTE                   Dn1
        BYTE   W06
        BYTE                   Dn1
        BYTE           N12     Gs1   v064
        BYTE   W06
        BYTE           N06     Dn1   v102
        BYTE   W06
        BYTE           N12     Bn0
        BYTE   W12
        BYTE                   Bn0
        BYTE   W12
        BYTE           N18     As1   v064
        BYTE           N18     Ds1   v102
        BYTE   W06
// 006   ----------------------------------------
        BYTE   W12
        BYTE           N12     Bn0
        BYTE   W12
        BYTE           N06     Dn1
        BYTE   W06
        BYTE                   Dn1
        BYTE   W06
        BYTE                   Dn1
        BYTE           N12     Gs1   v064
        BYTE   W06
        BYTE           N06     Dn1   v102
        BYTE   W06
        BYTE           N12     Bn0
        BYTE   W12
        BYTE                   Cn2
        BYTE   W12
        BYTE           N18     As1   v064
        BYTE           N12     An1   v102
        BYTE   W12
        BYTE                   Gn1
        BYTE   W12
// 007   ----------------------------------------
        BYTE   W06
        BYTE           N06     Dn1
        BYTE   W06
        BYTE                   Dn1
        BYTE   W06
        BYTE                   Dn1
        BYTE           N12     Gs1   v064
        BYTE   W06
        BYTE           N06     Dn1   v102
        BYTE   W06
        BYTE           N12     Bn0
        BYTE   W12
        BYTE                   Cn2
        BYTE   W12
        BYTE           N18     As1   v064
        BYTE           N12     An1   v102
        BYTE   W12
        BYTE                   Gn1
        BYTE   W18
        BYTE           N06     Dn1
        BYTE   W06
        BYTE                   Dn1
        BYTE   W06
// 008   ----------------------------------------
        BYTE                   Dn1
        BYTE           N12     Gs1   v064
        BYTE   W06
        BYTE           N06     Dn1   v102
        BYTE   W06
        BYTE           N12     Bn0
        BYTE   W12
        BYTE                   Bn0
        BYTE   W12
        BYTE           N18     As1   v064
        BYTE           N18     Ds1   v102
        BYTE   W18
        BYTE           N12     Bn0
        BYTE   W12
        BYTE           N06     Dn1
        BYTE   W06
        BYTE                   Dn1
        BYTE   W06
        BYTE                   Dn1
        BYTE           N12     Gs1   v064
        BYTE   W06
        BYTE           N06     Dn1   v102
        BYTE   W06
        BYTE           N12     Bn0
        BYTE   W06
// 009   ----------------------------------------
        BYTE   W06
        BYTE                   Bn0
        BYTE   W12
        BYTE           N18     As1   v064
        BYTE           N18     Ds1   v102
        BYTE   W18
        BYTE           N12     Bn0
        BYTE   W12
        BYTE           N06     Dn1
        BYTE   W06
        BYTE                   Dn1
        BYTE   W06
        BYTE                   Dn1
        BYTE           N12     Gs1   v064
        BYTE   W06
        BYTE           N06     Dn1   v102
        BYTE   W06
        BYTE           N12     Bn0
        BYTE   W12
        BYTE                   Cn2
        BYTE   W12
// 010   ----------------------------------------
        BYTE           N18     As1   v064
        BYTE           N12     An1   v102
        BYTE   W12
        BYTE                   Gn1
        BYTE   W18
        BYTE           N06     Dn1
        BYTE   W06
        BYTE                   Dn1
        BYTE   W06
        BYTE                   Dn1
        BYTE           N12     Gs1   v064
        BYTE   W06
        BYTE           N06     Dn1   v102
        BYTE   W06
        BYTE           N12     Bn0
        BYTE   W12
        BYTE                   Cn2
        BYTE   W12
        BYTE           N18     As1   v064
        BYTE           N12     An1   v102
        BYTE   W12
        BYTE                   Gn1
        BYTE   W06
// 011   ----------------------------------------
        BYTE   W12
        BYTE           N06     Dn1
        BYTE   W06
        BYTE                   Dn1
        BYTE   W06
        BYTE                   Dn1
        BYTE           N12     Gs1   v064
        BYTE   W06
        BYTE           N06     Dn1   v102
        BYTE   W06
        BYTE           N12     Bn0
        BYTE   W12
        BYTE                   Bn0
        BYTE   W12
        BYTE           N18     As1   v064
        BYTE           N18     Ds1   v102
        BYTE   W18
        BYTE           N12     Bn0
        BYTE   W12
        BYTE           N06     Dn1
        BYTE   W06
// 012   ----------------------------------------
        BYTE                   Dn1
        BYTE   W06
        BYTE                   Dn1
        BYTE           N12     Gs1   v064
        BYTE   W06
        BYTE           N06     Dn1   v102
        BYTE   W06
        BYTE           N12     Bn0
        BYTE   W12
        BYTE                   Bn0
        BYTE   W12
        BYTE           N18     As1   v064
        BYTE           N18     Ds1   v102
        BYTE   W18
        BYTE           N12     Bn0
        BYTE   W12
        BYTE           N06     Dn1
        BYTE   W06
        BYTE                   Dn1
        BYTE   W06
        BYTE                   Dn1
        BYTE           N12     Gs1   v064
        BYTE   W06
        BYTE           N06     Dn1   v102
        BYTE   W06
// 013   ----------------------------------------
        BYTE           N12     Bn0
        BYTE   W12
        BYTE                   Bn0
        BYTE   W12
        BYTE           N18     As1   v064
        BYTE           N18     Ds1   v102
        BYTE   W18
        BYTE           N12     Bn0
        BYTE   W12
        BYTE           N06     Dn1
        BYTE   W06
        BYTE                   Dn1
        BYTE   W06
        BYTE                   Dn1
        BYTE           N12     Gs1   v064
        BYTE   W06
        BYTE           N06     Dn1   v102
        BYTE   W06
        BYTE           N12     Bn0
        BYTE   W12
        BYTE                   Bn0
        BYTE   W06
// 014   ----------------------------------------
        BYTE   W06
        BYTE           N16     As1   v064
        BYTE           N18     Ds1   v102
        BYTE   W18
        BYTE           N12     Bn0
        BYTE   W12
        BYTE           N06     Dn1
        BYTE   W06
        BYTE                   Dn1
        BYTE   W06
        BYTE                   Dn1
        BYTE           N12     Gs1   v064
        BYTE   W06
        BYTE           N06     Dn1   v102
        BYTE   W06
        BYTE   GoTo
         POIN2  FiendsRapture_5_LOOP
        BYTE   FINE

//****************** Track 6 (Midi-Chn.6) ******************//

FiendsRapture_6:
        BYTE   KEYSH   FiendsRapture_key+0
// 000   ----------------------------------------
FiendsRapture_6_LOOP:
        BYTE           VOICE   34
        BYTE           VOL     58
        BYTE           N12     Ds2   v081
        BYTE   W12
        BYTE                   Ds2
        BYTE   W30
        BYTE                   Ds2
        BYTE   W36
        BYTE                   Ds2
        BYTE   W12
        BYTE                   Ds2
        BYTE   W06
// 001   ----------------------------------------
        BYTE   W24
        BYTE                   Ds2
        BYTE   W36
        BYTE                   Ds2
        BYTE   W12
        BYTE                   Ds2
        BYTE   W24
// 002   ----------------------------------------
        BYTE   W06
        BYTE                   Ds2
        BYTE   W36
        BYTE                   Ds2
        BYTE   W12
        BYTE                   Ds2
        BYTE   W30
        BYTE                   Ds2
        BYTE   W12
// 003   ----------------------------------------
        BYTE   W24
        BYTE                   Ds2
        BYTE   W12
        BYTE                   Ds2
        BYTE   W30
        BYTE                   Ds2
        BYTE   W30
// 004   ----------------------------------------
        BYTE   W06
        BYTE                   Ds2
        BYTE   W12
        BYTE                   Ds2
        BYTE   W30
        BYTE                   Ds2
        BYTE   W36
        BYTE                   Ds2
        BYTE   W12
// 005   ----------------------------------------
        BYTE                   Ds2
        BYTE   W30
        BYTE                   Ds2
        BYTE   W36
        BYTE                   Ds2
        BYTE   W12
        BYTE                   Ds2
        BYTE   W18
// 006   ----------------------------------------
        BYTE   W12
        BYTE                   Ds2
        BYTE   W36
        BYTE                   Ds2
        BYTE   W12
        BYTE           TIE     Ds1   v102
        BYTE   W36
// 007   ----------------------------------------
        BYTE   W96
// 008   ----------------------------------------
        BYTE   W12
        BYTE           EOT
        BYTE           N42     As1
        BYTE   W42
        BYTE           N36     Bn1
        BYTE   W36
        BYTE           N42     Cn2
        BYTE   W06
// 009   ----------------------------------------
        BYTE   W36
        BYTE           N36     Cs2
        BYTE   W36
        BYTE           N78     Ds2   v081
        BYTE   W24
// 010   ----------------------------------------
        BYTE   W54
        BYTE                   As2
        BYTE   W42
// 011   ----------------------------------------
        BYTE   W36
        BYTE           N09     Gs2   v102
        BYTE   W12
        BYTE           N12
        BYTE   W12
        BYTE           N06     Bn2
        BYTE   W06
        BYTE                   Ds3
        BYTE   W06
        BYTE           N24     Gs2
        BYTE   W24
// 012   ----------------------------------------
        BYTE   W06
        BYTE           N06
        BYTE   W12
        BYTE           N09     As2
        BYTE   W12
        BYTE           N12
        BYTE   W12
        BYTE           N06     Dn3
        BYTE   W06
        BYTE                   Fn3
        BYTE   W06
        BYTE           N24     As2
        BYTE   W24
        BYTE           N06     Dn3
        BYTE   W06
        BYTE                   Fn3
        BYTE   W06
        BYTE                   As3
        BYTE   W06
// 013   ----------------------------------------
        BYTE                   Ds2   v081
        BYTE   W12
        BYTE                   Ds2
        BYTE   W18
        BYTE                   Ds2
        BYTE   W18
        BYTE                   Ds2
        BYTE   W18
        BYTE                   Ds2
        BYTE   W06
        BYTE                   Ds2
        BYTE   W06
        BYTE                   Ds2
        BYTE   W12
        BYTE                   Ds2
        BYTE   W06
// 014   ----------------------------------------
        BYTE   W12
        BYTE                   Ds2
        BYTE   W18
        BYTE                   Ds2
        BYTE   W18
        BYTE                   Ds2
        BYTE   W06
        BYTE                   Ds2
        BYTE   W06
        BYTE   GoTo
         POIN2  FiendsRapture_6_LOOP
        BYTE   FINE

//****************** Track 7 (Midi-Chn.7) ******************//

FiendsRapture_7:
        BYTE   KEYSH   FiendsRapture_key+0
// 000   ----------------------------------------
FiendsRapture_7_LOOP:
        BYTE           VOICE   17
        BYTE           VOL     35
        BYTE           PAN     c_v+34
        BYTE           N24     Ds3   v094
        BYTE   W24
        BYTE           N06     Gs3
        BYTE   W06
        BYTE                   As3
        BYTE   W06
        BYTE                   Ds4
        BYTE   W06
        BYTE           N18     Ds3
        BYTE   W18
        BYTE           N06     Gs3
        BYTE   W06
        BYTE                   As3
        BYTE   W06
        BYTE                   Ds4
        BYTE   W06
        BYTE           N24     Ds3
        BYTE   W18
// 001   ----------------------------------------
        BYTE   PATT
         POIN2  FiendsRapture_2_1
// 002   ----------------------------------------
        BYTE   PATT
         POIN2  FiendsRapture_2_2
// 003   ----------------------------------------
        BYTE   PATT
         POIN2  FiendsRapture_2_3
// 004   ----------------------------------------
        BYTE   PATT
         POIN2  FiendsRapture_2_4
// 005   ----------------------------------------
        BYTE   PATT
         POIN2  FiendsRapture_2_5
// 006   ----------------------------------------
        BYTE   PATT
         POIN2  FiendsRapture_2_6
// 007   ----------------------------------------
        BYTE   PATT
         POIN2  FiendsRapture_2_7
// 008   ----------------------------------------
        BYTE   PATT
         POIN2  FiendsRapture_2_8
// 009   ----------------------------------------
        BYTE   PATT
         POIN2  FiendsRapture_2_9
// 010   ----------------------------------------
        BYTE   PATT
         POIN2  FiendsRapture_2_10
// 011   ----------------------------------------
        BYTE   PATT
         POIN2  FiendsRapture_2_11
// 012   ----------------------------------------
        BYTE   PATT
         POIN2  FiendsRapture_2_12
// 013   ----------------------------------------
        BYTE   PATT
         POIN2  FiendsRapture_2_13
// 014   ----------------------------------------
        BYTE   W06
        BYTE           N06     Gn3   v094
        BYTE   W06
        BYTE                   As3
        BYTE   W06
        BYTE                   Ds4
        BYTE   W06
        BYTE           N18     Ds3
        BYTE   W18
        BYTE           N06     Gn3
        BYTE   W06
        BYTE                   As3
        BYTE   W06
        BYTE                   Ds4
        BYTE   W06
        BYTE   GoTo
         POIN2  FiendsRapture_7_LOOP
        BYTE   FINE


//********************** End of Song ***********************//

        ALIGN 4
FiendsRapture:
        BYTE   8                       // Num Tracks
        BYTE   0                       // Unknown
        BYTE   FiendsRapture_pri       // Priority
        BYTE   FiendsRapture_rev       // Reverb

        POIN2   FiendsRapture_grp      

        POIN2   FiendsRapture_0
        POIN2   FiendsRapture_1
        POIN2   FiendsRapture_2
        POIN2   FiendsRapture_3
        POIN2   FiendsRapture_4
        POIN2   FiendsRapture_5
        POIN2   FiendsRapture_6
        POIN2   FiendsRapture_7

        
