//Event file generated from Sappy .s format.
        #include "MPlayDef.event"

        #define    HeritorsOfArcadia_grp  voicegroup000
        #define    HeritorsOfArcadia_pri  0
        #define    HeritorsOfArcadia_rev  0
        #define    HeritorsOfArcadia_key  0

        // .rodata
        // HeritorsOfArcadia
        ALIGN 4

//****************** Track 0 (Midi-Chn.0) ******************//

HeritorsOfArcadia_0:
        BYTE   KEYSH   HeritorsOfArcadia_key+0
// 000   ----------------------------------------
        BYTE   TEMPO   78/2
        BYTE           VOICE   1
        BYTE           VOL     52
        BYTE           PAN     c_v+33
        BYTE   W72
// 001   ----------------------------------------
        BYTE   W72
// 002   ----------------------------------------
        BYTE   W72
// 003   ----------------------------------------
        BYTE   W72
// 004   ----------------------------------------
        BYTE   W72
// 005   ----------------------------------------
        BYTE   W72
// 006   ----------------------------------------
        BYTE   W72
// 007   ----------------------------------------
        BYTE   W72
// 008   ----------------------------------------
        BYTE   W72
// 009   ----------------------------------------
        BYTE   W72
// 010   ----------------------------------------
        BYTE   W72
// 011   ----------------------------------------
        BYTE   W72
// 012   ----------------------------------------
        BYTE   W72
// 013   ----------------------------------------
        BYTE   W72
// 014   ----------------------------------------
        BYTE   W72
// 015   ----------------------------------------
        BYTE   W72
// 016   ----------------------------------------
        BYTE   W36
        BYTE           N16     Bn4   v080
        BYTE   W36
// 017   ----------------------------------------
HeritorsOfArcadia_0_17:
        BYTE   W36
        BYTE           N32     Gs4   v080   gtp3
        BYTE   W36
        BYTE   PEND
// 018   ----------------------------------------
HeritorsOfArcadia_0_18:
        BYTE   W36
        BYTE           N32     Fs4   v080   gtp3
        BYTE   W36
        BYTE   PEND
// 019   ----------------------------------------
        BYTE   PATT
         POIN2  HeritorsOfArcadia_0_18
// 020   ----------------------------------------
        BYTE           N32     Bn4   v080   gtp3
        BYTE   W36
        BYTE                   Gs4
        BYTE   W36
// 021   ----------------------------------------
        BYTE   PATT
         POIN2  HeritorsOfArcadia_0_17
// 022   ----------------------------------------
        BYTE   PATT
         POIN2  HeritorsOfArcadia_0_18
// 023   ----------------------------------------
        BYTE   PATT
         POIN2  HeritorsOfArcadia_0_18
// 024   ----------------------------------------
        BYTE           N32     Bn4   v080   gtp3
        BYTE   W36
        BYTE           N11     Gs4   v064
        BYTE   W12
        BYTE           N05     Ds5   v067
        BYTE   W06
        BYTE                   En5   v064
        BYTE   W06
        BYTE                   Ds5   v062
        BYTE   W06
        BYTE                   Bn4   v058
        BYTE   W06
// 025   ----------------------------------------
HeritorsOfArcadia_0_25:
        BYTE           N11     Cs5   v073
        BYTE   W12
        BYTE           N05     Ds4   v067
        BYTE   W06
        BYTE           N11     En4
        BYTE   W12
        BYTE           N05     Cs5   v073
        BYTE   W06
        BYTE           N11     Bn4
        BYTE   W12
        BYTE           N05     Ds4   v067
        BYTE   W06
        BYTE           N11     En4
        BYTE   W12
        BYTE           N05     Bn4   v073
        BYTE   W06
        BYTE   PEND
// 026   ----------------------------------------
        BYTE   PATT
         POIN2  HeritorsOfArcadia_0_25
// 027   ----------------------------------------
        BYTE           N11     Bn4   v073
        BYTE   W12
        BYTE           N05     Ds4   v067
        BYTE   W06
        BYTE           N11     En4
        BYTE   W12
        BYTE           N05     Bn4   v073
        BYTE   W06
        BYTE           N11     Fs4
        BYTE   W12
        BYTE                   Gs4
        BYTE   W12
        BYTE                   Bn3
        BYTE   W12
// 028   ----------------------------------------
        BYTE                   Bn4
        BYTE   W12
        BYTE           N05     Ds4   v067
        BYTE   W06
        BYTE           N11     En4
        BYTE   W12
        BYTE           N05     Bn4   v073
        BYTE   W06
        BYTE           N11     En5
        BYTE   W12
        BYTE           N05     Ds5
        BYTE   W06
        BYTE                   En5
        BYTE   W06
        BYTE                   Ds5
        BYTE   W06
        BYTE                   Bn4
        BYTE   W06
// 029   ----------------------------------------
        BYTE   PATT
         POIN2  HeritorsOfArcadia_0_25
// 030   ----------------------------------------
        BYTE   PATT
         POIN2  HeritorsOfArcadia_0_25
// 031   ----------------------------------------
        BYTE   PATT
         POIN2  HeritorsOfArcadia_0_25
// 032   ----------------------------------------
        BYTE           N32     Bn4   v073   gtp3
        BYTE   W36
        BYTE                   Fs4   v064
        BYTE   W36
// 033   ----------------------------------------
        BYTE   W72
// 034   ----------------------------------------
        BYTE   W72
// 035   ----------------------------------------
        BYTE   W72
// 036   ----------------------------------------
        BYTE   W72
// 037   ----------------------------------------
        BYTE   W72
// 038   ----------------------------------------
        BYTE   W72
// 039   ----------------------------------------
        BYTE   W72
// 040   ----------------------------------------
        BYTE   W60
        BYTE           N11     Gs3   v080
        BYTE   W12
// 041   ----------------------------------------
        BYTE           N23     En4
        BYTE   W24
        BYTE           N11
        BYTE   W12
        BYTE                   Ds4
        BYTE   W12
        BYTE                   En4
        BYTE   W12
        BYTE                   Ds4
        BYTE   W12
// 042   ----------------------------------------
        BYTE           N56     Cs4   v096   gtp3
        BYTE   W60
        BYTE           N11
        BYTE   W12
// 043   ----------------------------------------
        BYTE           N23     Bn3   v080
        BYTE   W24
        BYTE           N11
        BYTE   W12
        BYTE                   Bn3
        BYTE   W12
        BYTE                   Cs4
        BYTE   W12
        BYTE                   Ds4
        BYTE   W12
// 044   ----------------------------------------
        BYTE           N56     Gs3   v080   gtp3
        BYTE   W60
        BYTE           N11
        BYTE   W12
// 045   ----------------------------------------
        BYTE           N23     An3
        BYTE   W24
        BYTE           N11     Gs3
        BYTE   W12
        BYTE                   An3
        BYTE   W12
        BYTE                   En4
        BYTE   W12
        BYTE                   Ds4
        BYTE   W12
// 046   ----------------------------------------
        BYTE           N44     Cs4   v080   gtp3
        BYTE   W48
        BYTE           N11     Bn3
        BYTE   W12
        BYTE                   Ds4
        BYTE   W12
// 047   ----------------------------------------
        BYTE           N68     Cs4   v080   gtp3
        BYTE   W72
// 048   ----------------------------------------
        BYTE   W60
        BYTE           N11     Fs4   v092
        BYTE   W12
// 049   ----------------------------------------
        BYTE                   Gs4   v115
        BYTE   W12
        BYTE           N17     Cs5
        BYTE   W18
        BYTE           N05
        BYTE   W06
        BYTE           N23
        BYTE   W24
        BYTE           N11
        BYTE   W12
// 050   ----------------------------------------
HeritorsOfArcadia_0_50:
        BYTE           N11     Fs4   v115
        BYTE   W12
        BYTE           N17     Bn4
        BYTE   W18
        BYTE           N05     Cs5
        BYTE   W06
        BYTE           N32     Bn4   v115   gtp3
        BYTE   W36
        BYTE   PEND
// 051   ----------------------------------------
        BYTE           N11     Fs4
        BYTE   W12
        BYTE           N17     Bn4
        BYTE   W18
        BYTE           N05
        BYTE   W06
        BYTE           N11
        BYTE   W12
        BYTE           N17     Fs4
        BYTE   W18
        BYTE           N05     En4
        BYTE   W06
// 052   ----------------------------------------
        BYTE           N23     Ds4
        BYTE   W24
        BYTE           N05     Cs4
        BYTE   W06
        BYTE                   Ds4
        BYTE   W06
        BYTE           N32     En4   v115   gtp3
        BYTE   W36
// 053   ----------------------------------------
        BYTE           N11     Gs4
        BYTE   W12
        BYTE           N17     Cs5
        BYTE   W18
        BYTE           N05
        BYTE   W06
        BYTE           N11
        BYTE   W12
        BYTE           N23     Gs4
        BYTE   W24
// 054   ----------------------------------------
        BYTE   PATT
         POIN2  HeritorsOfArcadia_0_50
// 055   ----------------------------------------
        BYTE           N11     Bn4   v096
        BYTE   W12
        BYTE                   Bn4
        BYTE   W12
        BYTE                   Bn4
        BYTE   W12
        BYTE                   An4
        BYTE   W12
        BYTE                   Gs4
        BYTE   W12
        BYTE                   Fs4
        BYTE   W12
// 056   ----------------------------------------
        BYTE                   Gs4   v115
        BYTE   W12
        BYTE                   Cs5   v106
        BYTE   W12
        BYTE           N44     Cs5   v097   gtp3
        BYTE   W48
// 057   ----------------------------------------
        BYTE   W72
// 058   ----------------------------------------
        BYTE   W72
// 059   ----------------------------------------
        BYTE   W72
// 060   ----------------------------------------
        BYTE   W72
// 061   ----------------------------------------
HeritorsOfArcadia_0_LOOP:
        BYTE   W72
// 062   ----------------------------------------
        BYTE   W72
// 063   ----------------------------------------
        BYTE   W72
// 064   ----------------------------------------
        BYTE   W72
// 065   ----------------------------------------
        BYTE   W72
// 066   ----------------------------------------
        BYTE   W72
// 067   ----------------------------------------
        BYTE   W72
// 068   ----------------------------------------
        BYTE   W72
// 069   ----------------------------------------
        BYTE   W72
// 070   ----------------------------------------
        BYTE   W72
// 071   ----------------------------------------
        BYTE   W72
// 072   ----------------------------------------
        BYTE   W72
// 073   ----------------------------------------
        BYTE   W36
        BYTE           N11     Dn5   v096
        BYTE   W36
// 074   ----------------------------------------
        BYTE   W72
// 075   ----------------------------------------
        BYTE   W72
// 076   ----------------------------------------
        BYTE   W36
        BYTE           N05     En4   v064
        BYTE   W06
        BYTE           N11     Fn4
        BYTE   W12
        BYTE                   En4
        BYTE   W12
        BYTE           N05     Cn4
        BYTE   W06
// 077   ----------------------------------------
        BYTE           N11     Gn3
        BYTE   W12
        BYTE                   Fn3
        BYTE   W12
        BYTE                   En3
        BYTE   W12
        BYTE           N32     Fn3   v064   gtp3
        BYTE   W36
// 078   ----------------------------------------
        BYTE   W72
// 079   ----------------------------------------
        BYTE   W72
// 080   ----------------------------------------
        BYTE   W72
// 081   ----------------------------------------
        BYTE   W72
// 082   ----------------------------------------
        BYTE           N11     Dn3   v096
        BYTE   W12
        BYTE                   An3
        BYTE   W12
        BYTE                   En4
        BYTE   W12
        BYTE                   Cn5   v087
        BYTE   W24
        BYTE                   Gn4   v096
        BYTE   W12
// 083   ----------------------------------------
        BYTE                   An4   v120
        BYTE   W12
        BYTE           N17     Dn5
        BYTE   W18
        BYTE           N05
        BYTE   W06
        BYTE           N32     Dn5   v120   gtp3
        BYTE   W36
// 084   ----------------------------------------
HeritorsOfArcadia_0_84:
        BYTE           N11     Gn4   v120
        BYTE   W12
        BYTE           N17     Cn5
        BYTE   W18
        BYTE           N05     Dn5
        BYTE   W06
        BYTE           N32     Cn5   v120   gtp3
        BYTE   W36
        BYTE   PEND
// 085   ----------------------------------------
        BYTE           N11     Gn4
        BYTE   W12
        BYTE                   Cn5
        BYTE   W12
        BYTE                   Cn5
        BYTE   W12
        BYTE                   Cn5
        BYTE   W12
        BYTE           N17     Gn4
        BYTE   W18
        BYTE           N05     Fn4
        BYTE   W06
// 086   ----------------------------------------
HeritorsOfArcadia_0_86:
        BYTE           N23     En4   v120
        BYTE   W24
        BYTE           N05     Dn4
        BYTE   W06
        BYTE                   En4
        BYTE   W06
        BYTE           N32     Fn4   v120   gtp3
        BYTE   W36
        BYTE   PEND
// 087   ----------------------------------------
HeritorsOfArcadia_0_87:
        BYTE           N11     An4   v120
        BYTE   W12
        BYTE           N17     Dn5
        BYTE   W18
        BYTE           N05
        BYTE   W06
        BYTE           N11
        BYTE   W12
        BYTE           N23     An4
        BYTE   W24
        BYTE   PEND
// 088   ----------------------------------------
        BYTE   PATT
         POIN2  HeritorsOfArcadia_0_84
// 089   ----------------------------------------
        BYTE           N11     Cn5   v120
        BYTE   W12
        BYTE                   Cn5
        BYTE   W12
        BYTE                   Cn5
        BYTE   W12
        BYTE                   As4
        BYTE   W12
        BYTE                   An4
        BYTE   W12
        BYTE                   En4
        BYTE   W12
// 090   ----------------------------------------
        BYTE                   Gn4
        BYTE   W12
        BYTE           N17     Fn4
        BYTE   W18
        BYTE           N05     En4
        BYTE   W06
        BYTE           N32     Fn4   v120   gtp3
        BYTE   W36
// 091   ----------------------------------------
        BYTE           N11     An4
        BYTE   W12
        BYTE                   Dn5
        BYTE   W12
        BYTE                   Dn5
        BYTE   W12
        BYTE           N23
        BYTE   W24
        BYTE           N11
        BYTE   W12
// 092   ----------------------------------------
        BYTE   PATT
         POIN2  HeritorsOfArcadia_0_84
// 093   ----------------------------------------
        BYTE           N11     Gn4   v120
        BYTE   W12
        BYTE           N17     Cn5
        BYTE   W18
        BYTE           N05
        BYTE   W06
        BYTE           N11
        BYTE   W12
        BYTE           N17     Gn4
        BYTE   W18
        BYTE           N05     Fn4
        BYTE   W06
// 094   ----------------------------------------
        BYTE   PATT
         POIN2  HeritorsOfArcadia_0_86
// 095   ----------------------------------------
        BYTE   PATT
         POIN2  HeritorsOfArcadia_0_87
// 096   ----------------------------------------
        BYTE           N11     Gn4   v120
        BYTE   W12
        BYTE           N17     Cn5
        BYTE   W18
        BYTE           N05     Dn5
        BYTE   W06
        BYTE           N11     Cn5
        BYTE   W12
        BYTE           N05     Cn4   v110
        BYTE   W06
        BYTE                   Dn4
        BYTE   W06
        BYTE                   En4
        BYTE   W06
        BYTE                   Fn4
        BYTE   W06
// 097   ----------------------------------------
        BYTE           N11     Cn5   v120
        BYTE   W12
        BYTE                   Cn5
        BYTE   W12
        BYTE                   Cn5
        BYTE   W12
        BYTE                   As4
        BYTE   W12
        BYTE                   An4
        BYTE   W12
        BYTE                   Gn4
        BYTE   W12
// 098   ----------------------------------------
        BYTE                   An4
        BYTE   W12
        BYTE                   Dn5
        BYTE   W12
        BYTE           N44     Dn5   v120   gtp3
        BYTE   W48
// 099   ----------------------------------------
        BYTE   TEMPO   76/2
        BYTE   W72
// 100   ----------------------------------------
        BYTE   W72
// 101   ----------------------------------------
        BYTE   W72
// 102   ----------------------------------------
        BYTE   W72
// 103   ----------------------------------------
        BYTE   W72
// 104   ----------------------------------------
        BYTE   W72
// 105   ----------------------------------------
        BYTE   W72
// 106   ----------------------------------------
        BYTE   TEMPO   38/2
        BYTE   W60
        BYTE   TEMPO   78/2
        BYTE   W11
        BYTE   GoTo
         POIN2  HeritorsOfArcadia_0_LOOP
        BYTE   FINE

//****************** Track 1 (Midi-Chn.1) ******************//

HeritorsOfArcadia_1:
        BYTE   KEYSH   HeritorsOfArcadia_key+0
// 000   ----------------------------------------
        BYTE           VOICE   52
        BYTE           VOL     59
        BYTE           N68     En3   v016   gtp3
        BYTE   W72
// 001   ----------------------------------------
HeritorsOfArcadia_1_1:
        BYTE           N23     En3   v064
        BYTE   W24
        BYTE           N11
        BYTE   W12
        BYTE                   Ds3
        BYTE   W12
        BYTE                   En3
        BYTE   W12
        BYTE                   Ds3
        BYTE   W12
        BYTE   PEND
// 002   ----------------------------------------
        BYTE           N68     Cs3   v064   gtp3
        BYTE   W72
// 003   ----------------------------------------
HeritorsOfArcadia_1_3:
        BYTE           N23     Bn2   v064
        BYTE   W24
        BYTE           N11
        BYTE   W12
        BYTE                   Bn2
        BYTE   W12
        BYTE                   Cs3
        BYTE   W12
        BYTE                   Ds3
        BYTE   W12
        BYTE   PEND
// 004   ----------------------------------------
        BYTE           N68     Gs2   v064   gtp3
        BYTE   W72
// 005   ----------------------------------------
        BYTE           N32     An2   v064   gtp3
        BYTE   W36
        BYTE           N11
        BYTE   W12
        BYTE                   En3
        BYTE   W12
        BYTE                   Ds3
        BYTE   W12
// 006   ----------------------------------------
HeritorsOfArcadia_1_6:
        BYTE           N44     Cs3   v064   gtp3
        BYTE   W48
        BYTE           N11     Bn2
        BYTE   W12
        BYTE                   Ds3
        BYTE   W12
        BYTE   PEND
// 007   ----------------------------------------
        BYTE           N68     Cs3   v064   gtp3
        BYTE   W72
// 008   ----------------------------------------
        BYTE   W72
// 009   ----------------------------------------
        BYTE   PATT
         POIN2  HeritorsOfArcadia_1_1
// 010   ----------------------------------------
        BYTE           N44     Cs3   v064   gtp3
        BYTE   W60
        BYTE           N11
        BYTE   W12
// 011   ----------------------------------------
        BYTE   PATT
         POIN2  HeritorsOfArcadia_1_3
// 012   ----------------------------------------
        BYTE           N68     Gs2   v064   gtp3
        BYTE   W72
// 013   ----------------------------------------
        BYTE           N23     An2
        BYTE   W24
        BYTE           N11     Gs2
        BYTE   W12
        BYTE                   An2
        BYTE   W12
        BYTE                   En3
        BYTE   W12
        BYTE                   Ds3
        BYTE   W12
// 014   ----------------------------------------
        BYTE   PATT
         POIN2  HeritorsOfArcadia_1_6
// 015   ----------------------------------------
        BYTE           N68     Cs3   v064   gtp3
        BYTE   W72
// 016   ----------------------------------------
        BYTE   W60
        BYTE           N11     Fs3   v096
        BYTE   W12
// 017   ----------------------------------------
HeritorsOfArcadia_1_17:
        BYTE           N11     Gs3   v096
        BYTE   W12
        BYTE           N17     Cs4
        BYTE   W18
        BYTE           N05
        BYTE   W06
        BYTE           N32     Cs4   v096   gtp3
        BYTE   W36
        BYTE   PEND
// 018   ----------------------------------------
HeritorsOfArcadia_1_18:
        BYTE           N11     Fs3   v096
        BYTE   W12
        BYTE           N17     Bn3
        BYTE   W18
        BYTE           N05     Cs4
        BYTE   W06
        BYTE           N32     Bn3   v096   gtp3
        BYTE   W36
        BYTE   PEND
// 019   ----------------------------------------
        BYTE           N11     Fs3
        BYTE   W12
        BYTE           N17     Bn3
        BYTE   W18
        BYTE           N05
        BYTE   W06
        BYTE           N11
        BYTE   W12
        BYTE           N17     Fs3
        BYTE   W18
        BYTE           N05     En3
        BYTE   W06
// 020   ----------------------------------------
        BYTE           N23     Ds3
        BYTE   W24
        BYTE           N05     Cs3
        BYTE   W06
        BYTE                   Ds3
        BYTE   W06
        BYTE           N23     En3
        BYTE   W36
// 021   ----------------------------------------
        BYTE   PATT
         POIN2  HeritorsOfArcadia_1_17
// 022   ----------------------------------------
        BYTE   PATT
         POIN2  HeritorsOfArcadia_1_18
// 023   ----------------------------------------
HeritorsOfArcadia_1_23:
        BYTE           N11     Bn3   v096
        BYTE   W12
        BYTE                   Bn3
        BYTE   W12
        BYTE                   Bn3
        BYTE   W12
        BYTE                   An3
        BYTE   W12
        BYTE                   Gs3
        BYTE   W12
        BYTE                   Fs3
        BYTE   W12
        BYTE   PEND
// 024   ----------------------------------------
        BYTE                   Gs3
        BYTE   W12
        BYTE                   Cs4   v089
        BYTE   W12
        BYTE           N80     Cs4   v082   gtp3
        BYTE   W48
// 025   ----------------------------------------
        BYTE   W72
// 026   ----------------------------------------
        BYTE   W72
// 027   ----------------------------------------
        BYTE   W72
// 028   ----------------------------------------
        BYTE   W72
// 029   ----------------------------------------
        BYTE   W72
// 030   ----------------------------------------
        BYTE   W72
// 031   ----------------------------------------
        BYTE   W72
// 032   ----------------------------------------
        BYTE           N32     En4   v033   gtp3
        BYTE   W72
// 033   ----------------------------------------
        BYTE           N23     En3   v096
        BYTE   W24
        BYTE           N11
        BYTE   W12
        BYTE                   Ds3
        BYTE   W12
        BYTE           N05     En3
        BYTE   W06
        BYTE           N17     Ds3
        BYTE   W18
// 034   ----------------------------------------
HeritorsOfArcadia_1_34:
        BYTE           N56     Cs3   v096   gtp3
        BYTE   W60
        BYTE           N11
        BYTE   W12
        BYTE   PEND
// 035   ----------------------------------------
HeritorsOfArcadia_1_35:
        BYTE           N23     Bn2   v080
        BYTE   W24
        BYTE           N11
        BYTE   W12
        BYTE                   Bn2
        BYTE   W12
        BYTE                   Cs3
        BYTE   W12
        BYTE                   Ds3
        BYTE   W12
        BYTE   PEND
// 036   ----------------------------------------
        BYTE           N68     Gs2   v080   gtp3
        BYTE   W72
// 037   ----------------------------------------
        BYTE           N32     An2   v080   gtp3
        BYTE   W36
        BYTE           N11
        BYTE   W12
        BYTE                   En3
        BYTE   W12
        BYTE                   Ds3
        BYTE   W12
// 038   ----------------------------------------
HeritorsOfArcadia_1_38:
        BYTE           N44     Cs3   v080   gtp3
        BYTE   W48
        BYTE           N11     Bn2
        BYTE   W12
        BYTE                   Ds3
        BYTE   W12
        BYTE   PEND
// 039   ----------------------------------------
        BYTE           N68     Cs3   v080   gtp3
        BYTE   W72
// 040   ----------------------------------------
        BYTE   W60
        BYTE           N11     Gs2
        BYTE   W12
// 041   ----------------------------------------
        BYTE           N23     En3
        BYTE   W24
        BYTE           N11
        BYTE   W12
        BYTE                   Ds3
        BYTE   W12
        BYTE                   En3
        BYTE   W12
        BYTE                   Ds3
        BYTE   W12
// 042   ----------------------------------------
        BYTE   PATT
         POIN2  HeritorsOfArcadia_1_34
// 043   ----------------------------------------
        BYTE   PATT
         POIN2  HeritorsOfArcadia_1_35
// 044   ----------------------------------------
        BYTE           N56     Gs2   v080   gtp3
        BYTE   W60
        BYTE           N11
        BYTE   W12
// 045   ----------------------------------------
        BYTE           N23     An2
        BYTE   W24
        BYTE           N11     Gs2
        BYTE   W12
        BYTE                   An2
        BYTE   W12
        BYTE                   En3
        BYTE   W12
        BYTE                   Ds3
        BYTE   W12
// 046   ----------------------------------------
        BYTE   PATT
         POIN2  HeritorsOfArcadia_1_38
// 047   ----------------------------------------
        BYTE           N68     Cs3   v080   gtp3
        BYTE   W72
// 048   ----------------------------------------
        BYTE   W24
        BYTE           N11     Ds4
        BYTE   W12
        BYTE           N16     Bn4   v092
        BYTE   W36
// 049   ----------------------------------------
        BYTE           N11     En4   v096
        BYTE   W12
        BYTE           N17     Gs4   v115
        BYTE   W18
        BYTE           N05
        BYTE   W06
        BYTE           N23     Gs4   v096
        BYTE   W24
        BYTE           N11     Gs4   v115
        BYTE   W12
// 050   ----------------------------------------
        BYTE                   Ds4   v096
        BYTE   W12
        BYTE           N17     Bn3   v115
        BYTE   W18
        BYTE           N05     Cs4
        BYTE   W06
        BYTE           N11     Fs4
        BYTE   W12
        BYTE           N05     Ds4   v105
        BYTE   W06
        BYTE                   En4
        BYTE   W06
        BYTE                   Ds4
        BYTE   W06
        BYTE                   Bn3
        BYTE   W06
// 051   ----------------------------------------
        BYTE           N11     Ds4   v096
        BYTE   W12
        BYTE           N17     Bn3   v115
        BYTE   W18
        BYTE           N05
        BYTE   W06
        BYTE           N11     Fs4   v096
        BYTE   W12
        BYTE           N17     Fs4   v115
        BYTE   W18
        BYTE           N05     En4
        BYTE   W06
// 052   ----------------------------------------
        BYTE           N23     Bn3   v096
        BYTE   W24
        BYTE           N05     Cs4   v115
        BYTE   W06
        BYTE                   Ds4
        BYTE   W06
        BYTE           N32     Cs4   v096   gtp3
        BYTE   W36
// 053   ----------------------------------------
        BYTE           N11     En4
        BYTE   W12
        BYTE           N17     Cs4   v115
        BYTE   W18
        BYTE           N05
        BYTE   W06
        BYTE           N11     Gs4   v096
        BYTE   W12
        BYTE           N23     Gs4   v115
        BYTE   W24
// 054   ----------------------------------------
        BYTE   W12
        BYTE           N17     Bn3
        BYTE   W18
        BYTE           N05     Cs4
        BYTE   W06
        BYTE           N32     Fs4   v096   gtp3
        BYTE   W36
// 055   ----------------------------------------
        BYTE           N11     Gs4
        BYTE   W12
        BYTE                   Gs4
        BYTE   W12
        BYTE                   Gs4
        BYTE   W12
        BYTE                   Fs4
        BYTE   W12
        BYTE                   En4   v115
        BYTE   W12
        BYTE                   Ds4
        BYTE   W12
// 056   ----------------------------------------
        BYTE                   Cs4   v096
        BYTE   W12
        BYTE                   Cs4   v106
        BYTE   W12
        BYTE           N44     Cs4   v097   gtp3
        BYTE   W48
// 057   ----------------------------------------
        BYTE           N11     Dn3   v049
        BYTE   W12
        BYTE                   An3
        BYTE   W12
        BYTE                   En4
        BYTE   W12
        BYTE           N32     Fs4   v049   gtp3
        BYTE   W36
// 058   ----------------------------------------
        BYTE           N11     Cs3
        BYTE   W12
        BYTE                   Gs3
        BYTE   W12
        BYTE                   Ds4
        BYTE   W12
        BYTE           N32     En4   v049   gtp3
        BYTE   W36
// 059   ----------------------------------------
        BYTE           N11     Cn3
        BYTE   W12
        BYTE                   Gn3
        BYTE   W12
        BYTE                   Dn4
        BYTE   W12
        BYTE           N32     En4   v049   gtp3
        BYTE   W36
// 060   ----------------------------------------
        BYTE           N11     Bn2
        BYTE   W12
        BYTE                   Fs3
        BYTE   W12
        BYTE                   Cs4
        BYTE   W12
        BYTE           N32     Dn4   v049   gtp3
        BYTE   W36
// 061   ----------------------------------------
HeritorsOfArcadia_1_LOOP:
        BYTE           N11     As2   v049
        BYTE   W12
        BYTE                   Fn3
        BYTE   W12
        BYTE                   Cn4
        BYTE   W12
        BYTE           N32     Dn4   v049   gtp3
        BYTE   W36
// 062   ----------------------------------------
HeritorsOfArcadia_1_62:
        BYTE           N11     An2   v049
        BYTE   W12
        BYTE           N05     En3
        BYTE   W06
        BYTE                   Gn3
        BYTE   W06
        BYTE           N11     Cn4
        BYTE   W12
        BYTE                   Dn3
        BYTE   W12
        BYTE                   An3
        BYTE   W12
        BYTE                   Cn4
        BYTE   W12
        BYTE   PEND
// 063   ----------------------------------------
        BYTE           N68     Gn3   v049   gtp3
        BYTE   W72
// 064   ----------------------------------------
        BYTE           N32     En3   v049   gtp3
        BYTE   W36
        BYTE           N11     En3   v064
        BYTE   W12
        BYTE                   Dn4   v069
        BYTE   W12
        BYTE                   En4   v074
        BYTE   W12
// 065   ----------------------------------------
        BYTE           N68     Cs4   v092   gtp3
        BYTE   W72
// 066   ----------------------------------------
        BYTE                   Bn3   v084
        BYTE   W72
// 067   ----------------------------------------
        BYTE                   Bn3
        BYTE   W72
// 068   ----------------------------------------
        BYTE                   An3   v080
        BYTE   W72
// 069   ----------------------------------------
        BYTE                   An3
        BYTE   W72
// 070   ----------------------------------------
        BYTE                   Cn4
        BYTE   W72
// 071   ----------------------------------------
        BYTE           N32     An3   v080   gtp3
        BYTE   W36
        BYTE                   Cn4
        BYTE   W36
// 072   ----------------------------------------
        BYTE           N68     Dn4   v080   gtp3
        BYTE   W72
// 073   ----------------------------------------
        BYTE           N32     Dn4   v080   gtp3
        BYTE   W60
        BYTE           N11     Dn3   v064
        BYTE   W12
// 074   ----------------------------------------
        BYTE           N32     An3   v076   gtp3
        BYTE   W36
        BYTE           N11
        BYTE   W12
        BYTE                   Gn3
        BYTE   W12
        BYTE                   Fn3
        BYTE   W12
// 075   ----------------------------------------
HeritorsOfArcadia_1_75:
        BYTE           N23     En3   v076
        BYTE   W24
        BYTE           N11     Fn3
        BYTE   W12
        BYTE           N23     Gn3
        BYTE   W24
        BYTE           N11     Cn4
        BYTE   W12
        BYTE   PEND
// 076   ----------------------------------------
        BYTE           TIE     Gn3
        BYTE   W72
// 077   ----------------------------------------
        BYTE   W32
        BYTE   W03
        BYTE           EOT
        BYTE   W24
        BYTE   W01
        BYTE           N11     Dn3   v064
        BYTE   W12
// 078   ----------------------------------------
        BYTE           N23     An3   v076
        BYTE   W24
        BYTE           N11
        BYTE   W12
        BYTE                   An3
        BYTE   W12
        BYTE                   Gn3
        BYTE   W12
        BYTE                   Fn3
        BYTE   W12
// 079   ----------------------------------------
        BYTE   PATT
         POIN2  HeritorsOfArcadia_1_75
// 080   ----------------------------------------
        BYTE           N11     Dn4   v076
        BYTE   W12
        BYTE                   En4   v079
        BYTE   W12
        BYTE           N23     Cn4   v082
        BYTE   W36
        BYTE           N11     An3   v077
        BYTE   W12
// 081   ----------------------------------------
        BYTE           TIE     Dn4   v096
        BYTE   W72
// 082   ----------------------------------------
        BYTE   W32
        BYTE   W03
        BYTE           EOT
        BYTE   W24
        BYTE   W01
        BYTE           N11     Gn4   v115
        BYTE   W12
// 083   ----------------------------------------
        BYTE                   An4   v120
        BYTE   W12
        BYTE           N17
        BYTE   W18
        BYTE           N05
        BYTE   W06
        BYTE           N32     An4   v120   gtp3
        BYTE   W36
// 084   ----------------------------------------
HeritorsOfArcadia_1_84:
        BYTE           N11     As4   v120
        BYTE   W12
        BYTE           N17
        BYTE   W18
        BYTE           N05
        BYTE   W06
        BYTE           N32     As4   v120   gtp3
        BYTE   W36
        BYTE   PEND
// 085   ----------------------------------------
        BYTE           N11     Gn4
        BYTE   W12
        BYTE                   Gn4
        BYTE   W12
        BYTE                   Gn4
        BYTE   W12
        BYTE                   Gn4
        BYTE   W12
        BYTE           N17
        BYTE   W18
        BYTE           N05
        BYTE   W06
// 086   ----------------------------------------
        BYTE           N23     Cn4
        BYTE   W24
        BYTE           N05
        BYTE   W06
        BYTE                   Cn4
        BYTE   W06
        BYTE           N32     Cn4   v120   gtp3
        BYTE   W36
// 087   ----------------------------------------
HeritorsOfArcadia_1_87:
        BYTE           N11     An4   v120
        BYTE   W12
        BYTE           N17
        BYTE   W18
        BYTE           N05
        BYTE   W06
        BYTE           N11
        BYTE   W12
        BYTE           N23
        BYTE   W24
        BYTE   PEND
// 088   ----------------------------------------
        BYTE   PATT
         POIN2  HeritorsOfArcadia_1_84
// 089   ----------------------------------------
        BYTE           N11     Gn4   v120
        BYTE   W12
        BYTE                   Gn4
        BYTE   W12
        BYTE                   Gn4
        BYTE   W12
        BYTE                   Gn4
        BYTE   W12
        BYTE                   Gn4
        BYTE   W12
        BYTE                   Gn4
        BYTE   W12
// 090   ----------------------------------------
        BYTE                   Gn4
        BYTE   W12
        BYTE           N17     Fn4
        BYTE   W18
        BYTE           N05     En4
        BYTE   W06
        BYTE           N32     Dn4   v120   gtp3
        BYTE   W36
// 091   ----------------------------------------
        BYTE           N11     An4
        BYTE   W12
        BYTE                   An4
        BYTE   W12
        BYTE                   An4
        BYTE   W12
        BYTE           N23
        BYTE   W24
        BYTE           N11
        BYTE   W12
// 092   ----------------------------------------
        BYTE   PATT
         POIN2  HeritorsOfArcadia_1_84
// 093   ----------------------------------------
        BYTE           N11     Gn4   v120
        BYTE   W12
        BYTE           N17
        BYTE   W18
        BYTE           N05
        BYTE   W06
        BYTE           N11
        BYTE   W12
        BYTE           N17
        BYTE   W18
        BYTE           N05
        BYTE   W06
// 094   ----------------------------------------
        BYTE           N23     Cn4   v096
        BYTE   W24
        BYTE           N05     Cn4   v120
        BYTE   W06
        BYTE                   Cn4
        BYTE   W06
        BYTE           N32     Cn4   v120   gtp3
        BYTE   W36
// 095   ----------------------------------------
        BYTE   PATT
         POIN2  HeritorsOfArcadia_1_87
// 096   ----------------------------------------
        BYTE           N11     As4   v120
        BYTE   W12
        BYTE           N17
        BYTE   W18
        BYTE           N05
        BYTE   W06
        BYTE           N11     Gn4
        BYTE   W12
        BYTE           N05     Cn4   v110
        BYTE   W06
        BYTE                   Dn4
        BYTE   W06
        BYTE                   En4
        BYTE   W06
        BYTE                   Fn4
        BYTE   W06
// 097   ----------------------------------------
        BYTE           N11     Gn4   v120
        BYTE   W12
        BYTE                   Gn4
        BYTE   W12
        BYTE                   Gn4
        BYTE   W12
        BYTE                   Gn4
        BYTE   W12
        BYTE                   Fn4
        BYTE   W12
        BYTE                   En4
        BYTE   W12
// 098   ----------------------------------------
        BYTE                   Fn4
        BYTE   W12
        BYTE                   An4
        BYTE   W12
        BYTE           N44     An4   v120   gtp3
        BYTE   W48
// 099   ----------------------------------------
        BYTE           N32     An3   v058   gtp3
        BYTE   W72
// 100   ----------------------------------------
        BYTE                   An3
        BYTE   W72
// 101   ----------------------------------------
        BYTE                   An3
        BYTE   W72
// 102   ----------------------------------------
        BYTE   W72
// 103   ----------------------------------------
        BYTE                   An3
        BYTE   W72
// 104   ----------------------------------------
        BYTE                   An3
        BYTE   W72
// 105   ----------------------------------------
        BYTE           N68     An3   v049   gtp3
        BYTE   W72
// 106   ----------------------------------------
        BYTE                   Cn4
        BYTE   W68
        BYTE   W03
        BYTE   GoTo
         POIN2  HeritorsOfArcadia_1_LOOP
        BYTE   FINE

//****************** Track 2 (Midi-Chn.2) ******************//

HeritorsOfArcadia_2:
        BYTE   KEYSH   HeritorsOfArcadia_key+0
// 000   ----------------------------------------
        BYTE           VOICE   0
        BYTE           VOL     52
        BYTE           PAN     c_v-33
        BYTE           N68     Ds3   v016   gtp3
        BYTE   W72
// 001   ----------------------------------------
        BYTE                   Gs3   v049
        BYTE   W72
// 002   ----------------------------------------
        BYTE           N32     En3   v049   gtp3
        BYTE   W36
        BYTE           N11     Fs3   v064
        BYTE   W12
        BYTE                   En3
        BYTE   W12
        BYTE                   Ds3
        BYTE   W12
// 003   ----------------------------------------
        BYTE           N68     Ds3   v049   gtp3
        BYTE   W72
// 004   ----------------------------------------
        BYTE           N11     En3
        BYTE   W12
        BYTE                   Gs3   v064
        BYTE   W12
        BYTE                   Fs3
        BYTE   W12
        BYTE                   En3
        BYTE   W12
        BYTE                   Ds3
        BYTE   W12
        BYTE                   Bn2
        BYTE   W12
// 005   ----------------------------------------
        BYTE           N68     Cs3   v049   gtp3
        BYTE   W72
// 006   ----------------------------------------
        BYTE                   Ds3
        BYTE   W72
// 007   ----------------------------------------
        BYTE                   En3
        BYTE   W72
// 008   ----------------------------------------
        BYTE           N32     Fs3   v049   gtp3
        BYTE   W36
        BYTE                   Fs3
        BYTE   W36
// 009   ----------------------------------------
        BYTE           N68     Gs3   v049   gtp3
        BYTE   W72
// 010   ----------------------------------------
        BYTE                   En3
        BYTE   W72
// 011   ----------------------------------------
        BYTE                   Ds3
        BYTE   W72
// 012   ----------------------------------------
        BYTE                   En3
        BYTE   W72
// 013   ----------------------------------------
        BYTE                   Cs3
        BYTE   W72
// 014   ----------------------------------------
        BYTE                   Ds3
        BYTE   W72
// 015   ----------------------------------------
        BYTE                   En3
        BYTE   W72
// 016   ----------------------------------------
        BYTE           N11     Cs3   v064
        BYTE   W12
        BYTE                   Gs3
        BYTE   W12
        BYTE                   Ds4
        BYTE   W12
        BYTE           N16     En4   v080
        BYTE   W36
// 017   ----------------------------------------
        BYTE           N11     Cs3
        BYTE   W12
        BYTE           N17     Cs3   v100
        BYTE   W18
        BYTE           N05
        BYTE   W06
        BYTE           N11     Gs3   v080
        BYTE   W12
        BYTE           N23     En3
        BYTE   W24
// 018   ----------------------------------------
HeritorsOfArcadia_2_18:
        BYTE           N11     Ds3   v080
        BYTE   W12
        BYTE           N17     En3
        BYTE   W18
        BYTE           N05     Cs3   v100
        BYTE   W06
        BYTE           N11     Fs3   v080
        BYTE   W12
        BYTE           N23     En3
        BYTE   W24
        BYTE   PEND
// 019   ----------------------------------------
        BYTE           N11     Bn2
        BYTE   W12
        BYTE           N17     Bn2   v100
        BYTE   W18
        BYTE           N05
        BYTE   W06
        BYTE           N11     Fs3   v080
        BYTE   W12
        BYTE           N17     Bn2
        BYTE   W18
        BYTE           N05     En3   v100
        BYTE   W06
// 020   ----------------------------------------
        BYTE           N23     Bn3   v080
        BYTE   W24
        BYTE           N05     Cs4   v100
        BYTE   W06
        BYTE                   Ds4
        BYTE   W06
        BYTE           N11     En4   v092
        BYTE   W12
        BYTE           N05     Ds4
        BYTE   W06
        BYTE                   En4
        BYTE   W06
        BYTE                   Ds4
        BYTE   W06
        BYTE                   Bn3
        BYTE   W06
// 021   ----------------------------------------
        BYTE           N11     Cs3   v080
        BYTE   W12
        BYTE           N17     Cs3   v100
        BYTE   W18
        BYTE           N05
        BYTE   W06
        BYTE           N11     Ds3   v080
        BYTE   W12
        BYTE           N23     En3
        BYTE   W24
// 022   ----------------------------------------
        BYTE   PATT
         POIN2  HeritorsOfArcadia_2_18
// 023   ----------------------------------------
        BYTE           N11     Ds3   v080
        BYTE   W12
        BYTE                   Bn2
        BYTE   W12
        BYTE                   Ds3
        BYTE   W12
        BYTE                   Cn3
        BYTE   W12
        BYTE                   Ds3
        BYTE   W12
        BYTE                   Ds3
        BYTE   W12
// 024   ----------------------------------------
        BYTE                   Cs3
        BYTE   W12
        BYTE                   Gs3   v093
        BYTE   W12
        BYTE                   Gs3   v087
        BYTE   W48
// 025   ----------------------------------------
HeritorsOfArcadia_2_25:
        BYTE   W36
        BYTE           N32     Bn3   v064   gtp3
        BYTE   W36
        BYTE   PEND
// 026   ----------------------------------------
HeritorsOfArcadia_2_26:
        BYTE           N07     Gs3   v064
        BYTE   W36
        BYTE           N32     Bn3   v064   gtp3
        BYTE   W36
        BYTE   PEND
// 027   ----------------------------------------
        BYTE   W36
        BYTE           N68     Bn3   v064   gtp3
        BYTE   W36
// 028   ----------------------------------------
        BYTE   W36
        BYTE           N32     Gs3   v064   gtp3
        BYTE   W36
// 029   ----------------------------------------
        BYTE   PATT
         POIN2  HeritorsOfArcadia_2_25
// 030   ----------------------------------------
        BYTE   PATT
         POIN2  HeritorsOfArcadia_2_26
// 031   ----------------------------------------
        BYTE   W36
        BYTE           TIE     Bn3   v064
        BYTE   W36
// 032   ----------------------------------------
        BYTE   W68
        BYTE   W03
        BYTE           EOT
        BYTE   W01
// 033   ----------------------------------------
        BYTE   W72
// 034   ----------------------------------------
        BYTE   W12
        BYTE           N11     Gs4   v080
        BYTE   W12
        BYTE                   Bn4
        BYTE   W12
        BYTE           N32     Fs4   v080   gtp3
        BYTE   W36
// 035   ----------------------------------------
        BYTE           N68     Ds4   v080   gtp3
        BYTE   W72
// 036   ----------------------------------------
        BYTE   W12
        BYTE           N11     Gs4
        BYTE   W12
        BYTE                   Fs4
        BYTE   W12
        BYTE                   En4
        BYTE   W12
        BYTE                   Cs4
        BYTE   W12
        BYTE                   Bn3
        BYTE   W12
// 037   ----------------------------------------
        BYTE           N68     Cs4   v080   gtp3
        BYTE   W72
// 038   ----------------------------------------
        BYTE   W12
        BYTE           N11     En4
        BYTE   W12
        BYTE                   Fs4
        BYTE   W12
        BYTE           N32     Gs4   v080   gtp3
        BYTE   W36
// 039   ----------------------------------------
        BYTE                   En3   v096
        BYTE   W36
        BYTE                   En3   v080
        BYTE   W36
// 040   ----------------------------------------
        BYTE                   En3
        BYTE   W36
        BYTE                   Ds3
        BYTE   W36
// 041   ----------------------------------------
        BYTE   W72
// 042   ----------------------------------------
        BYTE   W12
        BYTE           N11     Gs4
        BYTE   W12
        BYTE                   Bn4
        BYTE   W12
        BYTE                   Fs4
        BYTE   W12
        BYTE                   Gs4
        BYTE   W12
        BYTE                   Ds4
        BYTE   W12
// 043   ----------------------------------------
        BYTE           N68     Ds4   v080   gtp3
        BYTE   W72
// 044   ----------------------------------------
        BYTE   W12
        BYTE           N11     Gs4
        BYTE   W12
        BYTE                   Fs4
        BYTE   W12
        BYTE                   En4
        BYTE   W12
        BYTE                   Ds4
        BYTE   W12
        BYTE                   Cs4
        BYTE   W12
// 045   ----------------------------------------
        BYTE           N68     Cs4   v080   gtp3
        BYTE   W72
// 046   ----------------------------------------
        BYTE                   Ds4
        BYTE   W72
// 047   ----------------------------------------
        BYTE                   En4
        BYTE   W72
// 048   ----------------------------------------
        BYTE   W12
        BYTE           N23     En3
        BYTE   W24
        BYTE           N16     En4   v084
        BYTE   W36
// 049   ----------------------------------------
        BYTE   W72
// 050   ----------------------------------------
        BYTE   W48
        BYTE           N05     En3   v096
        BYTE   W06
        BYTE                   En4   v105
        BYTE   W06
        BYTE                   Ds4
        BYTE   W06
        BYTE                   Bn3
        BYTE   W06
// 051   ----------------------------------------
        BYTE           N68     Gs3   v096   gtp3
        BYTE   W72
// 052   ----------------------------------------
        BYTE           N32     Cs4   v096   gtp3
        BYTE   W36
        BYTE           N11     Gs3
        BYTE   W12
        BYTE           N05     Ds4   v105
        BYTE   W06
        BYTE                   En4
        BYTE   W06
        BYTE                   Ds4
        BYTE   W06
        BYTE                   Bn3
        BYTE   W06
// 053   ----------------------------------------
        BYTE   W72
// 054   ----------------------------------------
        BYTE   W72
// 055   ----------------------------------------
        BYTE   W72
// 056   ----------------------------------------
        BYTE   W36
        BYTE           N11     En3   v088
        BYTE   W12
        BYTE           N05     Ds3   v082
        BYTE   W06
        BYTE                   En3   v079
        BYTE   W06
        BYTE                   Fs3   v077
        BYTE   W06
        BYTE                   Bn3   v073
        BYTE   W06
// 057   ----------------------------------------
        BYTE           N68     Cs4   v067   gtp3
        BYTE   W72
// 058   ----------------------------------------
        BYTE                   Bn3
        BYTE   W72
// 059   ----------------------------------------
        BYTE                   Bn3
        BYTE   W72
// 060   ----------------------------------------
        BYTE                   An3
        BYTE   W72
// 061   ----------------------------------------
HeritorsOfArcadia_2_LOOP:
        BYTE   W72
// 062   ----------------------------------------
        BYTE   W72
// 063   ----------------------------------------
        BYTE   W72
// 064   ----------------------------------------
        BYTE   W72
// 065   ----------------------------------------
        BYTE           N68     Fs3   v092   gtp3
        BYTE   W72
// 066   ----------------------------------------
        BYTE                   En3   v080
        BYTE   W72
// 067   ----------------------------------------
        BYTE                   Bn2   v084
        BYTE   W72
// 068   ----------------------------------------
        BYTE                   Bn2   v096
        BYTE   W72
// 069   ----------------------------------------
        BYTE                   Fn3   v080
        BYTE   W72
// 070   ----------------------------------------
        BYTE                   Gn3
        BYTE   W72
// 071   ----------------------------------------
        BYTE           N32     Fn3   v080   gtp3
        BYTE   W36
        BYTE                   Gn3
        BYTE   W36
// 072   ----------------------------------------
        BYTE           N68     An3   v080   gtp3
        BYTE   W72
// 073   ----------------------------------------
        BYTE           N32     An3   v080   gtp3
        BYTE   W72
// 074   ----------------------------------------
        BYTE           N68     Dn3   v049   gtp3
        BYTE   W72
// 075   ----------------------------------------
        BYTE                   Dn3
        BYTE   W72
// 076   ----------------------------------------
        BYTE                   Cn3
        BYTE   W72
// 077   ----------------------------------------
        BYTE                   Fn3
        BYTE   W72
// 078   ----------------------------------------
        BYTE                   Dn3
        BYTE   W72
// 079   ----------------------------------------
        BYTE                   Dn3
        BYTE   W72
// 080   ----------------------------------------
        BYTE           N32     Fn3   v049   gtp3
        BYTE   W36
        BYTE                   Gn3   v060
        BYTE   W36
// 081   ----------------------------------------
        BYTE           TIE     An3   v072
        BYTE   W72
// 082   ----------------------------------------
        BYTE   W32
        BYTE   W03
        BYTE           EOT
        BYTE   W36
        BYTE   W01
// 083   ----------------------------------------
        BYTE           N11     Fn3   v096
        BYTE   W12
        BYTE           N17     Fn3   v120
        BYTE   W18
        BYTE           N05
        BYTE   W06
        BYTE           N32     Fn3   v096   gtp3
        BYTE   W36
// 084   ----------------------------------------
        BYTE           N11     Gn3
        BYTE   W12
        BYTE           N17     Gn3   v120
        BYTE   W18
        BYTE           N05
        BYTE   W06
        BYTE           N32     Gn3   v096   gtp3
        BYTE   W36
// 085   ----------------------------------------
        BYTE           N11     En3
        BYTE   W12
        BYTE                   En3   v120
        BYTE   W12
        BYTE                   En3
        BYTE   W12
        BYTE                   En3
        BYTE   W12
        BYTE           N17
        BYTE   W18
        BYTE           N05
        BYTE   W06
// 086   ----------------------------------------
HeritorsOfArcadia_2_86:
        BYTE           N23     An3   v120
        BYTE   W24
        BYTE           N05
        BYTE   W06
        BYTE                   An3
        BYTE   W06
        BYTE           N32     An3   v120   gtp3
        BYTE   W36
        BYTE   PEND
// 087   ----------------------------------------
        BYTE           N11     Fn3
        BYTE   W12
        BYTE           N17
        BYTE   W18
        BYTE           N05
        BYTE   W06
        BYTE           N11
        BYTE   W12
        BYTE           N23
        BYTE   W24
// 088   ----------------------------------------
HeritorsOfArcadia_2_88:
        BYTE           N11     Gn3   v120
        BYTE   W12
        BYTE           N17
        BYTE   W18
        BYTE           N05
        BYTE   W06
        BYTE           N32     Gn3   v120   gtp3
        BYTE   W36
        BYTE   PEND
// 089   ----------------------------------------
        BYTE           N11     En3
        BYTE   W12
        BYTE                   En3
        BYTE   W12
        BYTE                   En3
        BYTE   W12
        BYTE                   En3
        BYTE   W12
        BYTE                   En3
        BYTE   W12
        BYTE                   En3
        BYTE   W12
// 090   ----------------------------------------
        BYTE                   An3
        BYTE   W12
        BYTE           N17
        BYTE   W18
        BYTE           N05
        BYTE   W06
        BYTE           N32     An3   v120   gtp3
        BYTE   W36
// 091   ----------------------------------------
        BYTE           N11     Fn3
        BYTE   W12
        BYTE                   Fn3
        BYTE   W12
        BYTE                   Fn3
        BYTE   W12
        BYTE           N23
        BYTE   W24
        BYTE           N11
        BYTE   W12
// 092   ----------------------------------------
        BYTE   PATT
         POIN2  HeritorsOfArcadia_2_88
// 093   ----------------------------------------
        BYTE           N11     En3   v120
        BYTE   W12
        BYTE           N17
        BYTE   W18
        BYTE           N05
        BYTE   W06
        BYTE           N11
        BYTE   W12
        BYTE           N17
        BYTE   W18
        BYTE           N05
        BYTE   W06
// 094   ----------------------------------------
        BYTE   PATT
         POIN2  HeritorsOfArcadia_2_86
// 095   ----------------------------------------
        BYTE           N11     Fn3   v120
        BYTE   W12
        BYTE           N17
        BYTE   W18
        BYTE           N05
        BYTE   W06
        BYTE           N11     Fn3   v096
        BYTE   W12
        BYTE           N23     Fn3   v120
        BYTE   W24
// 096   ----------------------------------------
        BYTE           N11     Gn3
        BYTE   W12
        BYTE           N17
        BYTE   W18
        BYTE           N05
        BYTE   W06
        BYTE           N11     En3
        BYTE   W12
        BYTE           N05     An3   v110
        BYTE   W06
        BYTE                   As3
        BYTE   W06
        BYTE                   Cn4
        BYTE   W06
        BYTE                   Dn4
        BYTE   W06
// 097   ----------------------------------------
        BYTE           N11     En4   v120
        BYTE   W12
        BYTE                   En4
        BYTE   W12
        BYTE                   En4
        BYTE   W12
        BYTE                   En4
        BYTE   W12
        BYTE                   Cs4
        BYTE   W12
        BYTE                   As3
        BYTE   W12
// 098   ----------------------------------------
        BYTE                   Dn4
        BYTE   W12
        BYTE                   Fn4
        BYTE   W12
        BYTE           N44     Fn4   v120   gtp3
        BYTE   W48
// 099   ----------------------------------------
        BYTE           N32     Fn3   v049   gtp3
        BYTE   W72
// 100   ----------------------------------------
        BYTE                   En3
        BYTE   W72
// 101   ----------------------------------------
        BYTE                   Dn3
        BYTE   W72
// 102   ----------------------------------------
        BYTE   W72
// 103   ----------------------------------------
        BYTE                   Fn3
        BYTE   W72
// 104   ----------------------------------------
        BYTE                   En3
        BYTE   W72
// 105   ----------------------------------------
        BYTE           N68     Gn3   v045   gtp3
        BYTE   W72
// 106   ----------------------------------------
        BYTE                   Gn3   v049
        BYTE   W68
        BYTE   W03
        BYTE   GoTo
         POIN2  HeritorsOfArcadia_2_LOOP
        BYTE   FINE

//****************** Track 3 (Midi-Chn.3) ******************//

HeritorsOfArcadia_3:
        BYTE   KEYSH   HeritorsOfArcadia_key+0
// 000   ----------------------------------------
        BYTE           VOICE   106
        BYTE           VOL     35
        BYTE           PAN     c_v+26
        BYTE           N68     En3   v016   gtp3
        BYTE   W72
// 001   ----------------------------------------
        BYTE                   En3   v049
        BYTE   W72
// 002   ----------------------------------------
        BYTE                   Cs3
        BYTE   W72
// 003   ----------------------------------------
        BYTE                   Bn2
        BYTE   W72
// 004   ----------------------------------------
        BYTE                   Bn2
        BYTE   W72
// 005   ----------------------------------------
        BYTE                   An2
        BYTE   W72
// 006   ----------------------------------------
        BYTE                   Bn2
        BYTE   W72
// 007   ----------------------------------------
        BYTE                   Cs3
        BYTE   W72
// 008   ----------------------------------------
        BYTE           N32     En3   v049   gtp3
        BYTE   W36
        BYTE                   Ds3
        BYTE   W36
// 009   ----------------------------------------
        BYTE           N68     En3   v049   gtp3
        BYTE   W72
// 010   ----------------------------------------
        BYTE                   Cs3
        BYTE   W72
// 011   ----------------------------------------
        BYTE                   Bn2
        BYTE   W72
// 012   ----------------------------------------
        BYTE                   Bn2
        BYTE   W72
// 013   ----------------------------------------
        BYTE                   An2
        BYTE   W72
// 014   ----------------------------------------
        BYTE                   Bn2
        BYTE   W72
// 015   ----------------------------------------
        BYTE                   Cs3
        BYTE   W72
// 016   ----------------------------------------
        BYTE   W36
        BYTE           N16     Ds4   v080
        BYTE   W36
// 017   ----------------------------------------
HeritorsOfArcadia_3_17:
        BYTE   W36
        BYTE           N32     En4   v080   gtp3
        BYTE   W36
        BYTE   PEND
// 018   ----------------------------------------
HeritorsOfArcadia_3_18:
        BYTE   W36
        BYTE           N32     Ds4   v080   gtp3
        BYTE   W36
        BYTE   PEND
// 019   ----------------------------------------
        BYTE   PATT
         POIN2  HeritorsOfArcadia_3_18
// 020   ----------------------------------------
        BYTE           N32     Gs4   v080   gtp3
        BYTE   W36
        BYTE                   En4
        BYTE   W36
// 021   ----------------------------------------
        BYTE   PATT
         POIN2  HeritorsOfArcadia_3_17
// 022   ----------------------------------------
        BYTE   PATT
         POIN2  HeritorsOfArcadia_3_18
// 023   ----------------------------------------
        BYTE   PATT
         POIN2  HeritorsOfArcadia_3_18
// 024   ----------------------------------------
        BYTE           N32     Gs4   v080   gtp3
        BYTE   W36
        BYTE                   En4   v064
        BYTE   W36
// 025   ----------------------------------------
        BYTE           N68     An2   v064   gtp3
        BYTE   W72
// 026   ----------------------------------------
        BYTE                   Bn2
        BYTE   W72
// 027   ----------------------------------------
        BYTE                   Gs2
        BYTE   W72
// 028   ----------------------------------------
        BYTE                   Cs3
        BYTE   W72
// 029   ----------------------------------------
        BYTE                   An2
        BYTE   W72
// 030   ----------------------------------------
        BYTE                   Bn2
        BYTE   W72
// 031   ----------------------------------------
        BYTE           TIE     Cs3
        BYTE   W72
// 032   ----------------------------------------
        BYTE   W68
        BYTE   W03
        BYTE           EOT
        BYTE   W01
// 033   ----------------------------------------
        BYTE   W72
// 034   ----------------------------------------
        BYTE   W12
        BYTE           N11     En4   v080
        BYTE   W12
        BYTE                   Ds4
        BYTE   W12
        BYTE           N32     Cs4   v080   gtp3
        BYTE   W36
// 035   ----------------------------------------
        BYTE           N68     Bn3   v080   gtp3
        BYTE   W72
// 036   ----------------------------------------
        BYTE   W12
        BYTE           N11     Cs4
        BYTE   W12
        BYTE                   Ds4
        BYTE   W12
        BYTE                   Gs3
        BYTE   W12
        BYTE                   Cs3
        BYTE   W12
        BYTE                   Ds3
        BYTE   W12
// 037   ----------------------------------------
        BYTE           N68     An3   v080   gtp3
        BYTE   W72
// 038   ----------------------------------------
        BYTE   W12
        BYTE           N11     Bn3
        BYTE   W12
        BYTE                   Ds4
        BYTE   W12
        BYTE           N32     Cs4   v080   gtp3
        BYTE   W36
// 039   ----------------------------------------
        BYTE                   Cs3   v096
        BYTE   W36
        BYTE                   An2   v080
        BYTE   W36
// 040   ----------------------------------------
        BYTE                   Bn2
        BYTE   W36
        BYTE                   Bn2
        BYTE   W36
// 041   ----------------------------------------
        BYTE   W72
// 042   ----------------------------------------
        BYTE   W12
        BYTE           N11     En4
        BYTE   W12
        BYTE                   Ds4
        BYTE   W12
        BYTE                   Cs4
        BYTE   W12
        BYTE                   Bn3
        BYTE   W12
        BYTE                   Gs3
        BYTE   W12
// 043   ----------------------------------------
        BYTE           N68     Bn3   v080   gtp3
        BYTE   W72
// 044   ----------------------------------------
        BYTE   W12
        BYTE           N11     Cs4
        BYTE   W12
        BYTE                   Ds4
        BYTE   W12
        BYTE                   Gs3
        BYTE   W12
        BYTE                   Fs3
        BYTE   W12
        BYTE                   En3
        BYTE   W12
// 045   ----------------------------------------
        BYTE           N68     An2   v080   gtp3
        BYTE   W72
// 046   ----------------------------------------
        BYTE                   Bn2
        BYTE   W72
// 047   ----------------------------------------
        BYTE                   Cs3
        BYTE   W72
// 048   ----------------------------------------
        BYTE           N32     Cs3   v080   gtp3
        BYTE   W36
        BYTE           N16     Ds4   v084
        BYTE   W36
// 049   ----------------------------------------
        BYTE           N11     Gs3   v115
        BYTE   W12
        BYTE           N17     Cs4
        BYTE   W18
        BYTE           N05
        BYTE   W06
        BYTE           N23
        BYTE   W24
        BYTE           N11     Cs4   v096
        BYTE   W12
// 050   ----------------------------------------
        BYTE                   Fs3
        BYTE   W12
        BYTE           N17     Bn3   v115
        BYTE   W18
        BYTE           N05     Cs4
        BYTE   W06
        BYTE           N32     Bn3   v115   gtp3
        BYTE   W36
// 051   ----------------------------------------
        BYTE           N11     Fs3
        BYTE   W12
        BYTE           N17     Bn3
        BYTE   W18
        BYTE           N05
        BYTE   W06
        BYTE           N11
        BYTE   W12
        BYTE           N17     Fs3
        BYTE   W18
        BYTE           N05     En3
        BYTE   W06
// 052   ----------------------------------------
        BYTE           N23     Ds3
        BYTE   W24
        BYTE           N05     Cs3
        BYTE   W06
        BYTE                   Ds3
        BYTE   W06
        BYTE           N32     En3   v115   gtp3
        BYTE   W36
// 053   ----------------------------------------
        BYTE           N11     Gs3
        BYTE   W12
        BYTE           N17     Cs4
        BYTE   W18
        BYTE           N05
        BYTE   W06
        BYTE           N11
        BYTE   W12
        BYTE           N23     Gs3
        BYTE   W24
// 054   ----------------------------------------
        BYTE           N11     Fs3
        BYTE   W12
        BYTE           N17     Bn3
        BYTE   W18
        BYTE           N05     Cs4
        BYTE   W06
        BYTE           N32     Bn3   v115   gtp3
        BYTE   W36
// 055   ----------------------------------------
        BYTE   PATT
         POIN2  HeritorsOfArcadia_1_23
// 056   ----------------------------------------
        BYTE           N11     Gs3   v115
        BYTE   W12
        BYTE                   Cs4   v106
        BYTE   W12
        BYTE           N44     Cs4   v097   gtp3
        BYTE   W48
// 057   ----------------------------------------
        BYTE           N11     Dn3   v049
        BYTE   W12
        BYTE                   An3
        BYTE   W12
        BYTE                   En4
        BYTE   W12
        BYTE           N32     Dn4   v049   gtp3
        BYTE   W36
// 058   ----------------------------------------
        BYTE           N11     Cs3
        BYTE   W12
        BYTE                   Gs3
        BYTE   W12
        BYTE                   Ds4
        BYTE   W12
        BYTE           N32     Cs4   v049   gtp3
        BYTE   W36
// 059   ----------------------------------------
        BYTE           N11     Cn3
        BYTE   W12
        BYTE                   Gn3
        BYTE   W12
        BYTE                   Dn4
        BYTE   W12
        BYTE           N32     Cn4   v049   gtp3
        BYTE   W36
// 060   ----------------------------------------
        BYTE           N11     Bn2
        BYTE   W12
        BYTE                   Fs3
        BYTE   W12
        BYTE                   Cs4
        BYTE   W12
        BYTE           N32     Bn3   v049   gtp3
        BYTE   W36
// 061   ----------------------------------------
HeritorsOfArcadia_3_LOOP:
        BYTE           N11     As2   v049
        BYTE   W12
        BYTE                   Fn3
        BYTE   W12
        BYTE                   Cn4
        BYTE   W12
        BYTE           N32     As3   v049   gtp3
        BYTE   W36
// 062   ----------------------------------------
        BYTE   PATT
         POIN2  HeritorsOfArcadia_1_62
// 063   ----------------------------------------
        BYTE           N68     Ds3   v049   gtp3
        BYTE   W72
// 064   ----------------------------------------
        BYTE           N32     En3   v049   gtp3
        BYTE   W36
        BYTE           N11     An2   v064
        BYTE   W12
        BYTE                   En3   v069
        BYTE   W12
        BYTE                   An3   v074
        BYTE   W12
// 065   ----------------------------------------
        BYTE           N68     Cs3   v092   gtp3
        BYTE   W72
// 066   ----------------------------------------
        BYTE                   Bn2   v084
        BYTE   W72
// 067   ----------------------------------------
        BYTE                   Gn2   v096
        BYTE   W72
// 068   ----------------------------------------
        BYTE                   An2   v080
        BYTE   W72
// 069   ----------------------------------------
        BYTE                   Dn3
        BYTE   W72
// 070   ----------------------------------------
        BYTE                   En3
        BYTE   W72
// 071   ----------------------------------------
        BYTE           N32     Dn3   v080   gtp3
        BYTE   W36
        BYTE                   En3
        BYTE   W36
// 072   ----------------------------------------
        BYTE           N68     Gn3   v080   gtp3
        BYTE   W72
// 073   ----------------------------------------
        BYTE           N32     Fn3   v080   gtp3
        BYTE   W72
// 074   ----------------------------------------
        BYTE           N68     As2   v049   gtp3
        BYTE   W72
// 075   ----------------------------------------
        BYTE                   As2
        BYTE   W72
// 076   ----------------------------------------
        BYTE                   An2
        BYTE   W72
// 077   ----------------------------------------
        BYTE                   Dn3
        BYTE   W72
// 078   ----------------------------------------
        BYTE                   As2
        BYTE   W72
// 079   ----------------------------------------
        BYTE                   As2
        BYTE   W72
// 080   ----------------------------------------
        BYTE           N32     Dn3   v049   gtp3
        BYTE   W36
        BYTE                   En3   v060
        BYTE   W36
// 081   ----------------------------------------
        BYTE           N68     Gn3   v072   gtp3
        BYTE   W72
// 082   ----------------------------------------
        BYTE           N32     Fn3   v096   gtp3
        BYTE   W72
// 083   ----------------------------------------
        BYTE           N11     Dn3   v120
        BYTE   W12
        BYTE           N17
        BYTE   W18
        BYTE           N05
        BYTE   W06
        BYTE           N32     Dn3   v120   gtp3
        BYTE   W36
// 084   ----------------------------------------
HeritorsOfArcadia_3_84:
        BYTE           N11     En3   v120
        BYTE   W12
        BYTE           N17
        BYTE   W18
        BYTE           N05
        BYTE   W06
        BYTE           N32     En3   v120   gtp3
        BYTE   W36
        BYTE   PEND
// 085   ----------------------------------------
        BYTE           N11     Cn3
        BYTE   W12
        BYTE                   Cn3
        BYTE   W12
        BYTE                   Cn3
        BYTE   W12
        BYTE                   Cn3
        BYTE   W12
        BYTE           N17
        BYTE   W18
        BYTE           N05
        BYTE   W06
// 086   ----------------------------------------
HeritorsOfArcadia_3_86:
        BYTE           N23     Fn3   v120
        BYTE   W24
        BYTE           N05
        BYTE   W06
        BYTE                   Fn3
        BYTE   W06
        BYTE           N32     Fn3   v120   gtp3
        BYTE   W36
        BYTE   PEND
// 087   ----------------------------------------
        BYTE           N11     Dn3   v096
        BYTE   W12
        BYTE           N17     Dn3   v120
        BYTE   W18
        BYTE           N05
        BYTE   W06
        BYTE           N11
        BYTE   W12
        BYTE           N23
        BYTE   W24
// 088   ----------------------------------------
        BYTE   PATT
         POIN2  HeritorsOfArcadia_3_84
// 089   ----------------------------------------
        BYTE           N11     Cn3   v120
        BYTE   W12
        BYTE                   Cn3
        BYTE   W12
        BYTE                   Cn3
        BYTE   W12
        BYTE                   Cs3
        BYTE   W12
        BYTE                   Cs3
        BYTE   W12
        BYTE                   Cs3
        BYTE   W12
// 090   ----------------------------------------
        BYTE                   Gn3
        BYTE   W12
        BYTE           N17
        BYTE   W18
        BYTE           N05
        BYTE   W06
        BYTE           N32     Fn3   v120   gtp3
        BYTE   W36
// 091   ----------------------------------------
        BYTE           N11     Dn3
        BYTE   W12
        BYTE                   Dn3
        BYTE   W12
        BYTE                   Dn3
        BYTE   W12
        BYTE           N23
        BYTE   W24
        BYTE           N11
        BYTE   W12
// 092   ----------------------------------------
        BYTE   PATT
         POIN2  HeritorsOfArcadia_3_84
// 093   ----------------------------------------
        BYTE           N11     Cn3   v120
        BYTE   W12
        BYTE           N17
        BYTE   W18
        BYTE           N05
        BYTE   W06
        BYTE           N11
        BYTE   W12
        BYTE           N17
        BYTE   W18
        BYTE           N05
        BYTE   W06
// 094   ----------------------------------------
        BYTE   PATT
         POIN2  HeritorsOfArcadia_3_86
// 095   ----------------------------------------
        BYTE           N11     Dn3   v120
        BYTE   W12
        BYTE           N17
        BYTE   W18
        BYTE           N05
        BYTE   W06
        BYTE           N11     Dn3   v096
        BYTE   W12
        BYTE           N23     Dn3   v120
        BYTE   W24
// 096   ----------------------------------------
        BYTE           N11     En3
        BYTE   W12
        BYTE           N17
        BYTE   W18
        BYTE           N05
        BYTE   W06
        BYTE           N11     Cn3
        BYTE   W12
        BYTE           N05     Fn3   v110
        BYTE   W06
        BYTE                   Gn3
        BYTE   W06
        BYTE                   An3
        BYTE   W06
        BYTE                   As3
        BYTE   W06
// 097   ----------------------------------------
        BYTE           N11     Cn4   v120
        BYTE   W12
        BYTE                   Cn4
        BYTE   W12
        BYTE                   Cn4
        BYTE   W12
        BYTE                   As3
        BYTE   W12
        BYTE                   An3
        BYTE   W12
        BYTE                   Gn3
        BYTE   W12
// 098   ----------------------------------------
        BYTE                   An3
        BYTE   W12
        BYTE                   Dn4
        BYTE   W12
        BYTE           TIE
        BYTE   W48
// 099   ----------------------------------------
        BYTE   W68
        BYTE   W03
        BYTE           EOT
        BYTE   W01
// 100   ----------------------------------------
        BYTE   W72
// 101   ----------------------------------------
        BYTE   W72
// 102   ----------------------------------------
        BYTE   W72
// 103   ----------------------------------------
        BYTE   W72
// 104   ----------------------------------------
        BYTE   W72
// 105   ----------------------------------------
        BYTE   W72
// 106   ----------------------------------------
        BYTE   W68
        BYTE   W03
        BYTE   GoTo
         POIN2  HeritorsOfArcadia_3_LOOP
        BYTE   FINE

//****************** Track 4 (Midi-Chn.4) ******************//

HeritorsOfArcadia_4:
        BYTE   KEYSH   HeritorsOfArcadia_key+0
// 000   ----------------------------------------
        BYTE           VOICE   4
        BYTE           VOL     42
        BYTE   W72
// 001   ----------------------------------------
        BYTE   W72
// 002   ----------------------------------------
        BYTE   W72
// 003   ----------------------------------------
        BYTE   W72
// 004   ----------------------------------------
        BYTE   W72
// 005   ----------------------------------------
        BYTE   W72
// 006   ----------------------------------------
        BYTE   W72
// 007   ----------------------------------------
        BYTE   W72
// 008   ----------------------------------------
        BYTE   W72
// 009   ----------------------------------------
        BYTE           N11     Cs3   v049
        BYTE   W12
        BYTE           N05     Gs2
        BYTE   W06
        BYTE           N11     Cs3
        BYTE   W12
        BYTE           N05     Gs2
        BYTE   W06
        BYTE           N11     Ds3
        BYTE   W12
        BYTE           N23     Cs3
        BYTE   W24
// 010   ----------------------------------------
        BYTE           N11     An2
        BYTE   W12
        BYTE           N05     En2
        BYTE   W06
        BYTE           N11     An2
        BYTE   W12
        BYTE           N05     En2
        BYTE   W06
        BYTE           N11     Fs3
        BYTE   W12
        BYTE                   En3
        BYTE   W12
        BYTE                   Ds3
        BYTE   W12
// 011   ----------------------------------------
HeritorsOfArcadia_4_11:
        BYTE           N11     Gs2   v049
        BYTE   W12
        BYTE           N05     Ds2
        BYTE   W06
        BYTE           N11     Gs2
        BYTE   W12
        BYTE           N05     Ds2
        BYTE   W06
        BYTE           N32     Gs2   v049   gtp3
        BYTE   W36
        BYTE   PEND
// 012   ----------------------------------------
        BYTE           N11
        BYTE   W12
        BYTE           N05
        BYTE   W06
        BYTE                   Bn2
        BYTE   W06
        BYTE                   Fs3
        BYTE   W06
        BYTE                   Gs2
        BYTE   W06
        BYTE                   En3
        BYTE   W06
        BYTE                   Fs3
        BYTE   W06
        BYTE                   En3
        BYTE   W06
        BYTE                   Ds3
        BYTE   W06
        BYTE                   Cs3
        BYTE   W06
        BYTE                   Gs2
        BYTE   W06
// 013   ----------------------------------------
        BYTE           N11     Fs2
        BYTE   W12
        BYTE           N05     Cs2
        BYTE   W06
        BYTE           N11     Fs2
        BYTE   W12
        BYTE           N05     Cs2
        BYTE   W06
        BYTE           N32     Cs3   v049   gtp3
        BYTE   W36
// 014   ----------------------------------------
        BYTE   PATT
         POIN2  HeritorsOfArcadia_4_11
// 015   ----------------------------------------
        BYTE           N11     Cs3   v049
        BYTE   W12
        BYTE           N05     Gs2
        BYTE   W06
        BYTE                   Cs3
        BYTE   W06
        BYTE                   Fs3
        BYTE   W06
        BYTE                   Gs2
        BYTE   W06
        BYTE                   En3
        BYTE   W06
        BYTE                   Fs3
        BYTE   W06
        BYTE                   Ds3
        BYTE   W06
        BYTE                   En3
        BYTE   W06
        BYTE                   Cs3
        BYTE   W06
        BYTE                   Ds3
        BYTE   W06
// 016   ----------------------------------------
        BYTE   W72
// 017   ----------------------------------------
HeritorsOfArcadia_4_17:
        BYTE   W36
        BYTE           N32     Cs4   v049   gtp3
        BYTE   W36
        BYTE   PEND
// 018   ----------------------------------------
HeritorsOfArcadia_4_18:
        BYTE   W36
        BYTE           N32     Bn3   v049   gtp3
        BYTE   W36
        BYTE   PEND
// 019   ----------------------------------------
        BYTE   PATT
         POIN2  HeritorsOfArcadia_4_18
// 020   ----------------------------------------
        BYTE           N32     En4   v049   gtp3
        BYTE   W36
        BYTE                   Cs4
        BYTE   W36
// 021   ----------------------------------------
        BYTE   PATT
         POIN2  HeritorsOfArcadia_4_17
// 022   ----------------------------------------
        BYTE   PATT
         POIN2  HeritorsOfArcadia_4_18
// 023   ----------------------------------------
        BYTE   W36
        BYTE           N32     Cn4   v049   gtp3
        BYTE   W36
// 024   ----------------------------------------
        BYTE                   En4
        BYTE   W36
        BYTE                   Cs4   v033
        BYTE   W36
// 025   ----------------------------------------
        BYTE   W72
// 026   ----------------------------------------
        BYTE   W72
// 027   ----------------------------------------
        BYTE   W72
// 028   ----------------------------------------
        BYTE   W72
// 029   ----------------------------------------
        BYTE   W72
// 030   ----------------------------------------
        BYTE   W72
// 031   ----------------------------------------
        BYTE   W72
// 032   ----------------------------------------
        BYTE                   Ds4   v017
        BYTE   W72
// 033   ----------------------------------------
HeritorsOfArcadia_4_33:
        BYTE           N11     Cs3   v080
        BYTE   W12
        BYTE           N05     Gs2
        BYTE   W06
        BYTE           N11     Cs3
        BYTE   W12
        BYTE           N05     Gs2
        BYTE   W06
        BYTE           N11     Ds3
        BYTE   W12
        BYTE           N23     Cs3
        BYTE   W24
        BYTE   PEND
// 034   ----------------------------------------
HeritorsOfArcadia_4_34:
        BYTE           N11     Cs3   v080
        BYTE   W12
        BYTE           N05     En2
        BYTE   W06
        BYTE           N11     An2
        BYTE   W12
        BYTE           N05     En2
        BYTE   W06
        BYTE           N11     Fs3
        BYTE   W12
        BYTE                   En3
        BYTE   W12
        BYTE                   Ds3
        BYTE   W12
        BYTE   PEND
// 035   ----------------------------------------
HeritorsOfArcadia_4_35:
        BYTE           N11     Fs3   v080
        BYTE   W12
        BYTE           N05     Ds2
        BYTE   W06
        BYTE           N11     Gs2
        BYTE   W12
        BYTE           N05     Ds2
        BYTE   W06
        BYTE           N32     Ds3   v080   gtp3
        BYTE   W36
        BYTE   PEND
// 036   ----------------------------------------
HeritorsOfArcadia_4_36:
        BYTE           N11     Cs3   v080
        BYTE   W12
        BYTE           N05     Gs2
        BYTE   W06
        BYTE                   Bn2
        BYTE   W06
        BYTE                   Fs3
        BYTE   W06
        BYTE                   Gs2
        BYTE   W06
        BYTE                   En3
        BYTE   W06
        BYTE                   Fs3
        BYTE   W06
        BYTE                   En3
        BYTE   W06
        BYTE                   Ds3
        BYTE   W06
        BYTE                   Cs3
        BYTE   W06
        BYTE                   Gs2
        BYTE   W06
        BYTE   PEND
// 037   ----------------------------------------
HeritorsOfArcadia_4_37:
        BYTE           N11     Cs3   v080
        BYTE   W12
        BYTE           N05
        BYTE   W06
        BYTE           N11     Gs2
        BYTE   W12
        BYTE           N05     En2
        BYTE   W06
        BYTE           N11     Fs2
        BYTE   W12
        BYTE           N23     Gs2
        BYTE   W24
        BYTE   PEND
// 038   ----------------------------------------
HeritorsOfArcadia_4_38:
        BYTE           N11     Fs3   v080
        BYTE   W12
        BYTE           N05     Ds3
        BYTE   W06
        BYTE                   Fs2
        BYTE   W06
        BYTE                   Fs3
        BYTE   W06
        BYTE                   Gs2
        BYTE   W06
        BYTE           N11     Ds3
        BYTE   W12
        BYTE                   Ds3
        BYTE   W12
        BYTE                   Fs3
        BYTE   W12
        BYTE   PEND
// 039   ----------------------------------------
HeritorsOfArcadia_4_39:
        BYTE           N11     Cs3   v080
        BYTE   W12
        BYTE           N05     En2
        BYTE   W06
        BYTE           N11     An2
        BYTE   W12
        BYTE           N05     En2
        BYTE   W06
        BYTE           N11     Bn2
        BYTE   W12
        BYTE                   An2
        BYTE   W12
        BYTE                   Gs2
        BYTE   W12
        BYTE   PEND
// 040   ----------------------------------------
        BYTE                   Bn2
        BYTE   W12
        BYTE           N05     Gs2
        BYTE   W06
        BYTE           N11     Bn2
        BYTE   W12
        BYTE           N05     Gs2
        BYTE   W06
        BYTE                   Ds3
        BYTE   W06
        BYTE                   En3
        BYTE   W06
        BYTE                   Ds3
        BYTE   W06
        BYTE                   Bn2
        BYTE   W06
        BYTE                   Gs2
        BYTE   W06
        BYTE                   Fs2
        BYTE   W06
// 041   ----------------------------------------
        BYTE   PATT
         POIN2  HeritorsOfArcadia_4_33
// 042   ----------------------------------------
        BYTE   PATT
         POIN2  HeritorsOfArcadia_4_34
// 043   ----------------------------------------
        BYTE   PATT
         POIN2  HeritorsOfArcadia_4_35
// 044   ----------------------------------------
        BYTE   PATT
         POIN2  HeritorsOfArcadia_4_36
// 045   ----------------------------------------
        BYTE   PATT
         POIN2  HeritorsOfArcadia_4_37
// 046   ----------------------------------------
        BYTE   PATT
         POIN2  HeritorsOfArcadia_4_38
// 047   ----------------------------------------
        BYTE   PATT
         POIN2  HeritorsOfArcadia_4_39
// 048   ----------------------------------------
        BYTE           N11     En3   v080
        BYTE   W12
        BYTE           N05     Gs3
        BYTE   W06
        BYTE                   Bn2
        BYTE   W06
        BYTE                   Ds3
        BYTE   W06
        BYTE                   Gs2
        BYTE   W42
// 049   ----------------------------------------
        BYTE   W72
// 050   ----------------------------------------
        BYTE   W72
// 051   ----------------------------------------
        BYTE   W72
// 052   ----------------------------------------
        BYTE   W72
// 053   ----------------------------------------
        BYTE   W72
// 054   ----------------------------------------
        BYTE   W72
// 055   ----------------------------------------
        BYTE   W72
// 056   ----------------------------------------
        BYTE   W72
// 057   ----------------------------------------
        BYTE   W72
// 058   ----------------------------------------
        BYTE   W72
// 059   ----------------------------------------
        BYTE   W72
// 060   ----------------------------------------
        BYTE   W60
        BYTE           N11     Dn3   v096
        BYTE   W12
// 061   ----------------------------------------
HeritorsOfArcadia_4_LOOP:
        BYTE           N01     Gn3   v080
        BYTE   W02
        BYTE           N32     An3   v096   gtp1
        BYTE   W32
        BYTE   W02
        BYTE           N01     Gn3   v080
        BYTE   W02
        BYTE           N09     An3   v096
        BYTE   W10
        BYTE           N11     Gn3
        BYTE   W12
        BYTE                   Fn3
        BYTE   W12
// 062   ----------------------------------------
        BYTE           N32     En3   v096   gtp3
        BYTE   W36
        BYTE                   Fn3
        BYTE   W36
// 063   ----------------------------------------
        BYTE                   Gn3
        BYTE   W36
        BYTE           N11     Dn4
        BYTE   W12
        BYTE                   Cn4
        BYTE   W12
        BYTE                   As3
        BYTE   W12
// 064   ----------------------------------------
        BYTE           N32     An3   v096   gtp3
        BYTE   W36
        BYTE           N11     Cs4   v101
        BYTE   W12
        BYTE                   Dn4   v103
        BYTE   W12
        BYTE                   En4   v106
        BYTE   W12
// 065   ----------------------------------------
        BYTE           N32     Cs4   v110   gtp3
        BYTE   W36
        BYTE                   Cs4   v096
        BYTE   W36
// 066   ----------------------------------------
        BYTE           N44     Bn3   v096   gtp3
        BYTE   W48
        BYTE           N01     Gs3
        BYTE   W02
        BYTE           N09     An3   v115
        BYTE   W10
        BYTE           N11     Gs3
        BYTE   W12
// 067   ----------------------------------------
        BYTE           N44     Gn3   v096   gtp3
        BYTE   W48
        BYTE           N01     Dn3
        BYTE   W01
        BYTE           N02     Cs3
        BYTE   W02
        BYTE                   Cn3
        BYTE   W03
        BYTE           N05     Bn2   v115
        BYTE   W06
        BYTE           N11     Bn2   v096
        BYTE   W12
// 068   ----------------------------------------
        BYTE           N17     Bn2   v115
        BYTE   W18
        BYTE           N05     Fs3   v096
        BYTE   W06
        BYTE                   Cs3
        BYTE   W06
        BYTE                   En3
        BYTE   W06
        BYTE                   En3
        BYTE   W06
        BYTE                   An2
        BYTE   W06
        BYTE                   Dn3
        BYTE   W06
        BYTE                   Fs2
        BYTE   W06
        BYTE                   Cs2
        BYTE   W06
        BYTE                   En2
        BYTE   W06
// 069   ----------------------------------------
        BYTE                   Dn2
        BYTE   W06
        BYTE                   Gn2
        BYTE   W06
        BYTE                   An2
        BYTE   W06
        BYTE                   As2
        BYTE   W06
        BYTE                   Cn3
        BYTE   W06
        BYTE                   An3
        BYTE   W06
        BYTE                   As3
        BYTE   W06
        BYTE                   Cn4
        BYTE   W06
        BYTE                   An3
        BYTE   W06
        BYTE                   Gn3
        BYTE   W06
        BYTE                   Fn3
        BYTE   W06
        BYTE                   En3
        BYTE   W06
// 070   ----------------------------------------
        BYTE                   En3
        BYTE   W06
        BYTE           N11     Fn3
        BYTE   W12
        BYTE           N01
        BYTE   W02
        BYTE           N09     Gn3
        BYTE   W10
        BYTE           N05     Fn3
        BYTE   W06
        BYTE                   En3
        BYTE   W06
        BYTE                   Fn3
        BYTE   W06
        BYTE           N23     Dn3
        BYTE   W24
// 071   ----------------------------------------
        BYTE   W12
        BYTE           N05
        BYTE   W06
        BYTE           N11     Fn3
        BYTE   W12
        BYTE           N05     Dn3
        BYTE   W06
        BYTE                   En3
        BYTE   W06
        BYTE                   Gn3
        BYTE   W06
        BYTE                   En3
        BYTE   W06
        BYTE                   Cn3
        BYTE   W06
        BYTE           N11     Gn2
        BYTE   W12
// 072   ----------------------------------------
        BYTE           N05
        BYTE   W06
        BYTE           N11     Cn3
        BYTE   W12
        BYTE                   En3
        BYTE   W12
        BYTE           N05     Gn3
        BYTE   W06
        BYTE           N01
        BYTE   W02
        BYTE           N15     An3
        BYTE   W16
        BYTE           N11     Gn3
        BYTE   W12
        BYTE           N02     An3
        BYTE   W03
        BYTE                   Gn3
        BYTE   W03
// 073   ----------------------------------------
        BYTE           N32     Fn3   v096   gtp3
        BYTE   W72
// 074   ----------------------------------------
        BYTE   W72
// 075   ----------------------------------------
        BYTE   W72
// 076   ----------------------------------------
        BYTE   W72
// 077   ----------------------------------------
        BYTE   W72
// 078   ----------------------------------------
        BYTE   W72
// 079   ----------------------------------------
        BYTE   W72
// 080   ----------------------------------------
        BYTE   W72
// 081   ----------------------------------------
        BYTE   W72
// 082   ----------------------------------------
        BYTE                   Cn4
        BYTE   W72
// 083   ----------------------------------------
        BYTE           N11     As2
        BYTE   W12
        BYTE           N05     Fn2
        BYTE   W06
        BYTE                   An2
        BYTE   W06
        BYTE                   Dn3
        BYTE   W06
        BYTE                   Fn2
        BYTE   W06
        BYTE                   An2
        BYTE   W06
        BYTE                   Cn3
        BYTE   W06
        BYTE                   Dn3
        BYTE   W06
        BYTE                   An2
        BYTE   W06
        BYTE                   Fn2
        BYTE   W06
        BYTE                   An2
        BYTE   W06
// 084   ----------------------------------------
HeritorsOfArcadia_4_84:
        BYTE           N11     Cn3   v096
        BYTE   W12
        BYTE           N05     An2
        BYTE   W06
        BYTE                   Cn3
        BYTE   W06
        BYTE                   En3
        BYTE   W06
        BYTE                   An2
        BYTE   W06
        BYTE                   En3
        BYTE   W06
        BYTE                   Cn3
        BYTE   W06
        BYTE                   As2
        BYTE   W06
        BYTE                   An2
        BYTE   W06
        BYTE                   Gn2
        BYTE   W06
        BYTE                   En2
        BYTE   W06
        BYTE   PEND
// 085   ----------------------------------------
        BYTE           N11     Gn2
        BYTE   W12
        BYTE           N05     En2
        BYTE   W06
        BYTE                   Gn2
        BYTE   W06
        BYTE                   Cn3
        BYTE   W06
        BYTE                   En2
        BYTE   W06
        BYTE                   Gn2
        BYTE   W06
        BYTE                   Cn3
        BYTE   W06
        BYTE                   Gn3
        BYTE   W06
        BYTE                   Fn3
        BYTE   W06
        BYTE                   En3
        BYTE   W06
        BYTE                   Cn3
        BYTE   W06
// 086   ----------------------------------------
        BYTE           N11     An2
        BYTE   W12
        BYTE           N05
        BYTE   W06
        BYTE           N11     Dn3
        BYTE   W12
        BYTE           N05     An2
        BYTE   W06
        BYTE                   Dn3
        BYTE   W06
        BYTE                   En3
        BYTE   W06
        BYTE                   En3
        BYTE   W06
        BYTE                   Fn3
        BYTE   W06
        BYTE                   En3
        BYTE   W06
        BYTE                   Cn3
        BYTE   W06
// 087   ----------------------------------------
        BYTE           N11     Fn2
        BYTE   W12
        BYTE           N05
        BYTE   W06
        BYTE                   An2
        BYTE   W06
        BYTE                   Dn3
        BYTE   W06
        BYTE                   Fn2
        BYTE   W06
        BYTE           N11     An2
        BYTE   W12
        BYTE           N05     Dn3
        BYTE   W06
        BYTE                   An2
        BYTE   W06
        BYTE                   Fn2
        BYTE   W06
        BYTE                   An2
        BYTE   W06
// 088   ----------------------------------------
        BYTE   PATT
         POIN2  HeritorsOfArcadia_4_84
// 089   ----------------------------------------
        BYTE           N11     An2   v096
        BYTE   W12
        BYTE           N05     Cn3
        BYTE   W06
        BYTE                   En3
        BYTE   W06
        BYTE                   Cn3
        BYTE   W06
        BYTE                   An2
        BYTE   W06
        BYTE           N11     Cs3
        BYTE   W12
        BYTE           N05     An3
        BYTE   W06
        BYTE                   As3
        BYTE   W06
        BYTE                   An3
        BYTE   W06
        BYTE                   En3
        BYTE   W06
// 090   ----------------------------------------
        BYTE           N11     An3
        BYTE   W12
        BYTE           N05
        BYTE   W06
        BYTE                   Dn4
        BYTE   W06
        BYTE                   Fn4
        BYTE   W06
        BYTE                   An3
        BYTE   W06
        BYTE                   Fn4
        BYTE   W06
        BYTE                   Gn4
        BYTE   W06
        BYTE                   En4
        BYTE   W06
        BYTE                   Fn4
        BYTE   W06
        BYTE                   Dn4
        BYTE   W06
        BYTE                   An3
        BYTE   W06
// 091   ----------------------------------------
HeritorsOfArcadia_4_91:
        BYTE           N11     Fn3   v096
        BYTE   W12
        BYTE           N05
        BYTE   W06
        BYTE                   An3
        BYTE   W06
        BYTE                   Dn4
        BYTE   W06
        BYTE                   Fn3
        BYTE   W06
        BYTE           N11     An3
        BYTE   W12
        BYTE           N05     Dn4
        BYTE   W06
        BYTE                   An3
        BYTE   W06
        BYTE                   Fn3
        BYTE   W06
        BYTE                   An3
        BYTE   W06
        BYTE   PEND
// 092   ----------------------------------------
HeritorsOfArcadia_4_92:
        BYTE           N11     Cn4   v096
        BYTE   W12
        BYTE           N05     An3
        BYTE   W06
        BYTE                   Cn4
        BYTE   W06
        BYTE                   En4
        BYTE   W06
        BYTE                   An3
        BYTE   W06
        BYTE                   En4
        BYTE   W06
        BYTE                   Cn4
        BYTE   W06
        BYTE                   As3
        BYTE   W06
        BYTE                   An3
        BYTE   W06
        BYTE                   Gn3
        BYTE   W06
        BYTE                   En3
        BYTE   W06
        BYTE   PEND
// 093   ----------------------------------------
        BYTE           N11     Gn3
        BYTE   W12
        BYTE           N05     En3
        BYTE   W06
        BYTE                   Gn3
        BYTE   W06
        BYTE                   Cn4
        BYTE   W06
        BYTE                   En3
        BYTE   W06
        BYTE                   Gn3
        BYTE   W06
        BYTE                   Cn4
        BYTE   W06
        BYTE                   Gn4
        BYTE   W06
        BYTE                   Fn4
        BYTE   W06
        BYTE                   En4
        BYTE   W06
        BYTE                   Cn4
        BYTE   W06
// 094   ----------------------------------------
        BYTE           N11     An3
        BYTE   W12
        BYTE           N05
        BYTE   W06
        BYTE           N11     Dn4
        BYTE   W12
        BYTE           N05     An3
        BYTE   W06
        BYTE                   Dn4
        BYTE   W06
        BYTE                   En4
        BYTE   W06
        BYTE                   Fn4
        BYTE   W06
        BYTE                   En4
        BYTE   W06
        BYTE                   Dn4
        BYTE   W06
        BYTE                   An3
        BYTE   W06
// 095   ----------------------------------------
        BYTE   PATT
         POIN2  HeritorsOfArcadia_4_91
// 096   ----------------------------------------
        BYTE   PATT
         POIN2  HeritorsOfArcadia_4_92
// 097   ----------------------------------------
        BYTE           N11     An3   v096
        BYTE   W12
        BYTE           N05     Cn4
        BYTE   W06
        BYTE                   En4
        BYTE   W06
        BYTE                   Cn4
        BYTE   W06
        BYTE                   An3
        BYTE   W06
        BYTE           N11     Cs4
        BYTE   W12
        BYTE           N05     An4
        BYTE   W06
        BYTE                   As4
        BYTE   W06
        BYTE                   An4
        BYTE   W06
        BYTE                   En4
        BYTE   W06
// 098   ----------------------------------------
        BYTE           N11     Dn3
        BYTE   W12
        BYTE           N05     An2
        BYTE   W06
        BYTE                   Cn3
        BYTE   W06
        BYTE                   Dn3
        BYTE   W06
        BYTE                   En3
        BYTE   W06
        BYTE                   Fn3
        BYTE   W06
        BYTE                   Gn3
        BYTE   W06
        BYTE                   An3
        BYTE   W06
        BYTE                   Fn3
        BYTE   W06
        BYTE                   En3
        BYTE   W06
        BYTE                   Dn3
        BYTE   W06
// 099   ----------------------------------------
HeritorsOfArcadia_4_99:
        BYTE           N32     An3   v076   gtp3
        BYTE   W36
        BYTE                   Cn3
        BYTE   W36
        BYTE   PEND
// 100   ----------------------------------------
        BYTE   PATT
         POIN2  HeritorsOfArcadia_4_99
// 101   ----------------------------------------
        BYTE           N32     An3   v076   gtp3
        BYTE   W36
        BYTE                   Cn4
        BYTE   W36
// 102   ----------------------------------------
        BYTE                   Gn3
        BYTE   W36
        BYTE                   Fn3
        BYTE   W36
// 103   ----------------------------------------
        BYTE   PATT
         POIN2  HeritorsOfArcadia_4_99
// 104   ----------------------------------------
        BYTE   PATT
         POIN2  HeritorsOfArcadia_4_99
// 105   ----------------------------------------
        BYTE           N68     En3   v076   gtp3
        BYTE   W72
// 106   ----------------------------------------
        BYTE           N60
        BYTE   W60
        BYTE           N11     Dn3   v096
        BYTE   W11
        BYTE   GoTo
         POIN2  HeritorsOfArcadia_4_LOOP
        BYTE   FINE

//****************** Track 5 (Midi-Chn.5) ******************//

HeritorsOfArcadia_5:
        BYTE   KEYSH   HeritorsOfArcadia_key+0
// 000   ----------------------------------------
        BYTE           VOICE   105
        BYTE           VOL     35
        BYTE           PAN     c_v-23
        BYTE           N68     Ds2   v016   gtp3
        BYTE   W72
// 001   ----------------------------------------
        BYTE                   Cs2   v049
        BYTE   W72
// 002   ----------------------------------------
        BYTE                   An1
        BYTE   W72
// 003   ----------------------------------------
        BYTE                   Gs1
        BYTE   W72
// 004   ----------------------------------------
        BYTE                   Gs1
        BYTE   W72
// 005   ----------------------------------------
        BYTE                   Fs1
        BYTE   W72
// 006   ----------------------------------------
        BYTE                   Gs1
        BYTE   W72
// 007   ----------------------------------------
        BYTE                   An1
        BYTE   W72
// 008   ----------------------------------------
        BYTE                   Bn1
        BYTE   W72
// 009   ----------------------------------------
        BYTE                   Cs2   v064
        BYTE   W72
// 010   ----------------------------------------
        BYTE                   An1
        BYTE   W72
// 011   ----------------------------------------
        BYTE                   Gs1
        BYTE   W72
// 012   ----------------------------------------
        BYTE                   Gs1
        BYTE   W72
// 013   ----------------------------------------
        BYTE                   Fs1
        BYTE   W72
// 014   ----------------------------------------
        BYTE                   Gs1
        BYTE   W72
// 015   ----------------------------------------
        BYTE                   An1
        BYTE   W72
// 016   ----------------------------------------
        BYTE   W72
// 017   ----------------------------------------
HeritorsOfArcadia_5_17:
        BYTE           N11     An1   v096
        BYTE   W12
        BYTE           N17
        BYTE   W18
        BYTE           N05
        BYTE   W06
        BYTE           N11     Ds2
        BYTE   W12
        BYTE           N23     Cs2
        BYTE   W24
        BYTE   PEND
// 018   ----------------------------------------
        BYTE           N11     Bn1
        BYTE   W12
        BYTE           N05     Cs2
        BYTE   W06
        BYTE           N11     Bn1
        BYTE   W12
        BYTE           N05
        BYTE   W06
        BYTE                   En1
        BYTE   W06
        BYTE                   Gs1
        BYTE   W06
        BYTE                   Bn1
        BYTE   W06
        BYTE                   Ds2
        BYTE   W06
        BYTE                   Bn1
        BYTE   W06
        BYTE                   An1
        BYTE   W06
// 019   ----------------------------------------
        BYTE           N11     Gs1
        BYTE   W12
        BYTE           N17
        BYTE   W18
        BYTE           N05
        BYTE   W06
        BYTE           N11
        BYTE   W12
        BYTE           N23
        BYTE   W24
// 020   ----------------------------------------
        BYTE           N11     Cs2
        BYTE   W12
        BYTE           N05     Ds2
        BYTE   W06
        BYTE           N11     Gs1
        BYTE   W12
        BYTE           N05
        BYTE   W06
        BYTE                   En2
        BYTE   W06
        BYTE                   Fs2
        BYTE   W06
        BYTE                   En2
        BYTE   W06
        BYTE                   Ds2
        BYTE   W06
        BYTE                   Bn1
        BYTE   W06
        BYTE                   Gs1
        BYTE   W06
// 021   ----------------------------------------
        BYTE   PATT
         POIN2  HeritorsOfArcadia_5_17
// 022   ----------------------------------------
        BYTE           N11     Bn1   v096
        BYTE   W12
        BYTE           N05     Cs2
        BYTE   W06
        BYTE           N11     Bn1
        BYTE   W12
        BYTE           N05
        BYTE   W06
        BYTE           N11     Fs2
        BYTE   W12
        BYTE           N05     En2
        BYTE   W06
        BYTE                   Bn1
        BYTE   W06
        BYTE                   Fs1
        BYTE   W06
        BYTE                   Bn1
        BYTE   W06
// 023   ----------------------------------------
        BYTE           N11     Gs1
        BYTE   W12
        BYTE           N05     Bn1
        BYTE   W06
        BYTE                   Ds2
        BYTE   W06
        BYTE                   Bn1
        BYTE   W06
        BYTE                   Gs1
        BYTE   W06
        BYTE           N11     Cn2
        BYTE   W12
        BYTE           N05     Gs2
        BYTE   W06
        BYTE                   An2
        BYTE   W06
        BYTE                   Gs2
        BYTE   W06
        BYTE                   Ds2
        BYTE   W06
// 024   ----------------------------------------
        BYTE           N23     Gs1
        BYTE   W30
        BYTE           N05     Gs1   v090
        BYTE   W06
        BYTE           N11     Cs2   v088
        BYTE   W12
        BYTE                   Gs1   v086
        BYTE   W12
        BYTE                   En1   v083
        BYTE   W12
// 025   ----------------------------------------
        BYTE   W72
// 026   ----------------------------------------
        BYTE   W72
// 027   ----------------------------------------
        BYTE   W72
// 028   ----------------------------------------
        BYTE   W72
// 029   ----------------------------------------
        BYTE   W72
// 030   ----------------------------------------
        BYTE   W72
// 031   ----------------------------------------
        BYTE   W72
// 032   ----------------------------------------
        BYTE   W72
// 033   ----------------------------------------
        BYTE           N23     Cs2   v080
        BYTE   W24
        BYTE           N11     Cs2   v096
        BYTE   W12
        BYTE                   Cs2
        BYTE   W12
        BYTE           N05
        BYTE   W06
        BYTE           N17
        BYTE   W18
// 034   ----------------------------------------
HeritorsOfArcadia_5_34:
        BYTE           N56     An1   v096   gtp3
        BYTE   W60
        BYTE           N11
        BYTE   W12
        BYTE   PEND
// 035   ----------------------------------------
HeritorsOfArcadia_5_35:
        BYTE           N23     Gs1   v080
        BYTE   W24
        BYTE           N11
        BYTE   W12
        BYTE                   Gs1
        BYTE   W12
        BYTE                   Gs1
        BYTE   W12
        BYTE                   Gs1
        BYTE   W12
        BYTE   PEND
// 036   ----------------------------------------
        BYTE           N68     Gs1   v080   gtp3
        BYTE   W72
// 037   ----------------------------------------
HeritorsOfArcadia_5_37:
        BYTE           N32     Fs1   v080   gtp3
        BYTE   W36
        BYTE           N11
        BYTE   W12
        BYTE                   Fs1
        BYTE   W12
        BYTE                   Fs1
        BYTE   W12
        BYTE   PEND
// 038   ----------------------------------------
HeritorsOfArcadia_5_38:
        BYTE           N44     Gs1   v080   gtp3
        BYTE   W48
        BYTE           N11
        BYTE   W12
        BYTE                   Gs1
        BYTE   W12
        BYTE   PEND
// 039   ----------------------------------------
        BYTE           N68     An1   v080   gtp3
        BYTE   W72
// 040   ----------------------------------------
        BYTE                   Bn1
        BYTE   W72
// 041   ----------------------------------------
        BYTE           N23     Cs2
        BYTE   W24
        BYTE           N11     Cs2   v096
        BYTE   W12
        BYTE                   Cs2
        BYTE   W12
        BYTE                   Cs2
        BYTE   W12
        BYTE                   Cs2
        BYTE   W12
// 042   ----------------------------------------
        BYTE   PATT
         POIN2  HeritorsOfArcadia_5_34
// 043   ----------------------------------------
        BYTE   PATT
         POIN2  HeritorsOfArcadia_5_35
// 044   ----------------------------------------
        BYTE           N68     Gs1   v080   gtp3
        BYTE   W72
// 045   ----------------------------------------
        BYTE   PATT
         POIN2  HeritorsOfArcadia_5_37
// 046   ----------------------------------------
        BYTE   PATT
         POIN2  HeritorsOfArcadia_5_38
// 047   ----------------------------------------
        BYTE           N68     An1   v080   gtp3
        BYTE   W72
// 048   ----------------------------------------
        BYTE   W72
// 049   ----------------------------------------
        BYTE           N11     An1   v115
        BYTE   W12
        BYTE           N17
        BYTE   W18
        BYTE           N05
        BYTE   W06
        BYTE           N23
        BYTE   W24
        BYTE           N11
        BYTE   W12
// 050   ----------------------------------------
HeritorsOfArcadia_5_50:
        BYTE           N11     Bn1   v115
        BYTE   W12
        BYTE           N17
        BYTE   W18
        BYTE           N05
        BYTE   W06
        BYTE           N32     Bn1   v115   gtp3
        BYTE   W36
        BYTE   PEND
// 051   ----------------------------------------
        BYTE           N11     Gs1
        BYTE   W12
        BYTE           N17
        BYTE   W18
        BYTE           N05
        BYTE   W06
        BYTE           N11
        BYTE   W12
        BYTE           N17
        BYTE   W18
        BYTE           N05
        BYTE   W06
// 052   ----------------------------------------
        BYTE           N23     Cs2
        BYTE   W24
        BYTE           N05
        BYTE   W06
        BYTE                   Cs2
        BYTE   W06
        BYTE           N32     Cs2   v115   gtp3
        BYTE   W36
// 053   ----------------------------------------
        BYTE           N11     An1
        BYTE   W12
        BYTE           N17
        BYTE   W18
        BYTE           N05
        BYTE   W06
        BYTE           N11
        BYTE   W12
        BYTE           N23
        BYTE   W24
// 054   ----------------------------------------
        BYTE   PATT
         POIN2  HeritorsOfArcadia_5_50
// 055   ----------------------------------------
        BYTE           N11     Gs1   v096
        BYTE   W12
        BYTE                   Gs1
        BYTE   W12
        BYTE                   Gs1
        BYTE   W12
        BYTE                   Gs1
        BYTE   W12
        BYTE                   Gs1
        BYTE   W12
        BYTE                   Gs1
        BYTE   W12
// 056   ----------------------------------------
        BYTE                   Cs2   v115
        BYTE   W12
        BYTE                   Cs2   v106
        BYTE   W12
        BYTE           N44     Cs2   v097   gtp3
        BYTE   W48
// 057   ----------------------------------------
        BYTE   W72
// 058   ----------------------------------------
        BYTE   W72
// 059   ----------------------------------------
        BYTE   W72
// 060   ----------------------------------------
        BYTE   W72
// 061   ----------------------------------------
HeritorsOfArcadia_5_LOOP:
        BYTE   W72
// 062   ----------------------------------------
        BYTE   W72
// 063   ----------------------------------------
        BYTE   W72
// 064   ----------------------------------------
        BYTE   W36
        BYTE           N11     En2   v064
        BYTE   W12
        BYTE                   Dn3   v069
        BYTE   W12
        BYTE                   En3   v074
        BYTE   W12
// 065   ----------------------------------------
        BYTE           N68     Fs2   v080   gtp3
        BYTE   W72
// 066   ----------------------------------------
        BYTE                   En2
        BYTE   W72
// 067   ----------------------------------------
        BYTE                   Gn2
        BYTE   W72
// 068   ----------------------------------------
        BYTE                   Fs2
        BYTE   W72
// 069   ----------------------------------------
        BYTE                   As1
        BYTE   W72
// 070   ----------------------------------------
        BYTE                   Cn2
        BYTE   W72
// 071   ----------------------------------------
        BYTE           N32     As1   v080   gtp3
        BYTE   W36
        BYTE                   Cn2
        BYTE   W36
// 072   ----------------------------------------
        BYTE           N68     Dn2   v080   gtp3
        BYTE   W72
// 073   ----------------------------------------
        BYTE           N32     Dn2   v080   gtp3
        BYTE   W72
// 074   ----------------------------------------
        BYTE   W72
// 075   ----------------------------------------
        BYTE   W72
// 076   ----------------------------------------
        BYTE   W72
// 077   ----------------------------------------
        BYTE   W72
// 078   ----------------------------------------
        BYTE   W72
// 079   ----------------------------------------
        BYTE   W72
// 080   ----------------------------------------
        BYTE                   As1   v064
        BYTE   W36
        BYTE                   Cn2   v072
        BYTE   W36
// 081   ----------------------------------------
        BYTE           N44     Dn2   v080   gtp3
        BYTE   W48
        BYTE           N11     Cn2   v090
        BYTE   W12
        BYTE                   En2   v093
        BYTE   W12
// 082   ----------------------------------------
        BYTE           N32     Dn2   v096   gtp3
        BYTE   W72
// 083   ----------------------------------------
        BYTE           N68     As1   v096   gtp3
        BYTE   W72
// 084   ----------------------------------------
        BYTE                   Cn2
        BYTE   W72
// 085   ----------------------------------------
        BYTE                   An1
        BYTE   W72
// 086   ----------------------------------------
        BYTE                   Dn2
        BYTE   W72
// 087   ----------------------------------------
        BYTE                   As1
        BYTE   W72
// 088   ----------------------------------------
        BYTE                   Cn2
        BYTE   W72
// 089   ----------------------------------------
        BYTE           N32     An1   v096   gtp3
        BYTE   W36
        BYTE                   Cs2
        BYTE   W36
// 090   ----------------------------------------
        BYTE           N68     Dn2   v096   gtp3
        BYTE   W72
// 091   ----------------------------------------
        BYTE                   As1
        BYTE   W72
// 092   ----------------------------------------
        BYTE                   Cn2
        BYTE   W72
// 093   ----------------------------------------
        BYTE                   An1
        BYTE   W72
// 094   ----------------------------------------
        BYTE                   Dn2
        BYTE   W72
// 095   ----------------------------------------
        BYTE                   As1
        BYTE   W72
// 096   ----------------------------------------
        BYTE                   Cn2
        BYTE   W72
// 097   ----------------------------------------
        BYTE                   An1
        BYTE   W72
// 098   ----------------------------------------
        BYTE                   Dn2
        BYTE   W72
// 099   ----------------------------------------
        BYTE                   As1   v064
        BYTE   W72
// 100   ----------------------------------------
        BYTE                   Cn2
        BYTE   W72
// 101   ----------------------------------------
        BYTE           TIE     Gn1
        BYTE   W72
// 102   ----------------------------------------
        BYTE   W68
        BYTE   W03
        BYTE           EOT
        BYTE   W01
// 103   ----------------------------------------
        BYTE           N68     As1   v064   gtp3
        BYTE   W72
// 104   ----------------------------------------
        BYTE                   Cn2
        BYTE   W72
// 105   ----------------------------------------
        BYTE                   Cn2
        BYTE   W72
// 106   ----------------------------------------
        BYTE                   Dn2
        BYTE   W68
        BYTE   W03
        BYTE   GoTo
         POIN2  HeritorsOfArcadia_5_LOOP
        BYTE   FINE

//****************** Track 6 (Midi-Chn.6) ******************//

HeritorsOfArcadia_6:
        BYTE   KEYSH   HeritorsOfArcadia_key+0
// 000   ----------------------------------------
        BYTE           VOICE   18
        BYTE           VOL     61
        BYTE   W72
// 001   ----------------------------------------
        BYTE   W72
// 002   ----------------------------------------
        BYTE   W72
// 003   ----------------------------------------
        BYTE   W72
// 004   ----------------------------------------
        BYTE   W72
// 005   ----------------------------------------
        BYTE   W72
// 006   ----------------------------------------
        BYTE   W72
// 007   ----------------------------------------
        BYTE   W72
// 008   ----------------------------------------
        BYTE   W72
// 009   ----------------------------------------
        BYTE   W72
// 010   ----------------------------------------
        BYTE   W72
// 011   ----------------------------------------
        BYTE   W72
// 012   ----------------------------------------
        BYTE   W72
// 013   ----------------------------------------
        BYTE   W72
// 014   ----------------------------------------
        BYTE   W72
// 015   ----------------------------------------
        BYTE   W72
// 016   ----------------------------------------
        BYTE   W72
// 017   ----------------------------------------
        BYTE           N68     An0   v096   gtp3
        BYTE   W72
// 018   ----------------------------------------
        BYTE                   Bn0
        BYTE   W72
// 019   ----------------------------------------
        BYTE                   Gs0
        BYTE   W72
// 020   ----------------------------------------
        BYTE                   Cs1
        BYTE   W72
// 021   ----------------------------------------
        BYTE                   An0
        BYTE   W72
// 022   ----------------------------------------
        BYTE                   Bn0
        BYTE   W72
// 023   ----------------------------------------
        BYTE                   Gs0
        BYTE   W72
// 024   ----------------------------------------
        BYTE                   Cs1
        BYTE   W72
// 025   ----------------------------------------
        BYTE   W72
// 026   ----------------------------------------
        BYTE   W72
// 027   ----------------------------------------
        BYTE   W72
// 028   ----------------------------------------
        BYTE   W72
// 029   ----------------------------------------
        BYTE   W72
// 030   ----------------------------------------
        BYTE   W72
// 031   ----------------------------------------
        BYTE   W72
// 032   ----------------------------------------
        BYTE   W72
// 033   ----------------------------------------
        BYTE                   Cs1   v080
        BYTE   W72
// 034   ----------------------------------------
        BYTE                   An0
        BYTE   W72
// 035   ----------------------------------------
        BYTE                   Gs0
        BYTE   W72
// 036   ----------------------------------------
        BYTE                   Gs0
        BYTE   W72
// 037   ----------------------------------------
        BYTE                   Fs0
        BYTE   W72
// 038   ----------------------------------------
        BYTE                   Gs0
        BYTE   W72
// 039   ----------------------------------------
        BYTE                   An0
        BYTE   W72
// 040   ----------------------------------------
        BYTE                   Bn0
        BYTE   W72
// 041   ----------------------------------------
        BYTE                   Cs1
        BYTE   W72
// 042   ----------------------------------------
        BYTE                   An0
        BYTE   W72
// 043   ----------------------------------------
        BYTE                   Gs0
        BYTE   W72
// 044   ----------------------------------------
        BYTE                   Gs0
        BYTE   W72
// 045   ----------------------------------------
        BYTE                   Fs0
        BYTE   W72
// 046   ----------------------------------------
        BYTE                   Gs0
        BYTE   W72
// 047   ----------------------------------------
        BYTE                   An0
        BYTE   W72
// 048   ----------------------------------------
        BYTE   W72
// 049   ----------------------------------------
        BYTE                   An0   v096
        BYTE   W72
// 050   ----------------------------------------
        BYTE                   Bn0
        BYTE   W72
// 051   ----------------------------------------
        BYTE                   Gs0
        BYTE   W72
// 052   ----------------------------------------
        BYTE                   Cs1
        BYTE   W72
// 053   ----------------------------------------
        BYTE                   An0
        BYTE   W72
// 054   ----------------------------------------
        BYTE                   Bn0
        BYTE   W72
// 055   ----------------------------------------
        BYTE                   Gs0
        BYTE   W72
// 056   ----------------------------------------
        BYTE                   Cs1
        BYTE   W72
// 057   ----------------------------------------
        BYTE   W72
// 058   ----------------------------------------
        BYTE   W72
// 059   ----------------------------------------
        BYTE   W72
// 060   ----------------------------------------
        BYTE   W72
// 061   ----------------------------------------
HeritorsOfArcadia_6_LOOP:
        BYTE   W72
// 062   ----------------------------------------
        BYTE   W72
// 063   ----------------------------------------
        BYTE   W72
// 064   ----------------------------------------
        BYTE   W36
        BYTE           N11     An2   v064
        BYTE   W12
        BYTE                   En2   v069
        BYTE   W12
        BYTE                   An1   v074
        BYTE   W12
// 065   ----------------------------------------
        BYTE           N68     Dn1   v080   gtp3
        BYTE   W72
// 066   ----------------------------------------
        BYTE                   Cs1
        BYTE   W72
// 067   ----------------------------------------
        BYTE                   Cn1
        BYTE   W72
// 068   ----------------------------------------
        BYTE                   Bn0
        BYTE   W72
// 069   ----------------------------------------
        BYTE                   As0
        BYTE   W72
// 070   ----------------------------------------
        BYTE                   Cn1
        BYTE   W72
// 071   ----------------------------------------
        BYTE           N32     As0   v080   gtp3
        BYTE   W36
        BYTE                   Cn1
        BYTE   W36
// 072   ----------------------------------------
        BYTE           N68     Dn1   v080   gtp3
        BYTE   W72
// 073   ----------------------------------------
        BYTE           N24
        BYTE   W72
// 074   ----------------------------------------
        BYTE   W72
// 075   ----------------------------------------
        BYTE   W72
// 076   ----------------------------------------
        BYTE   W72
// 077   ----------------------------------------
        BYTE   W72
// 078   ----------------------------------------
        BYTE   W72
// 079   ----------------------------------------
        BYTE   W72
// 080   ----------------------------------------
        BYTE           N32     As0   v064   gtp3
        BYTE   W36
        BYTE                   Cn1   v072
        BYTE   W36
// 081   ----------------------------------------
        BYTE           TIE     Dn1   v080
        BYTE   W72
// 082   ----------------------------------------
        BYTE   W32
        BYTE   W03
        BYTE           EOT
        BYTE   W36
        BYTE   W01
// 083   ----------------------------------------
        BYTE           N68     As0   v096   gtp3
        BYTE   W72
// 084   ----------------------------------------
        BYTE                   Cn1
        BYTE   W72
// 085   ----------------------------------------
        BYTE                   An0
        BYTE   W72
// 086   ----------------------------------------
        BYTE                   Dn1
        BYTE   W72
// 087   ----------------------------------------
        BYTE                   As0
        BYTE   W72
// 088   ----------------------------------------
        BYTE                   Cn1
        BYTE   W72
// 089   ----------------------------------------
        BYTE           N32     An0   v096   gtp3
        BYTE   W36
        BYTE                   Cs1
        BYTE   W36
// 090   ----------------------------------------
        BYTE           N68     Dn1   v096   gtp3
        BYTE   W72
// 091   ----------------------------------------
        BYTE                   As0
        BYTE   W72
// 092   ----------------------------------------
        BYTE                   Cn1
        BYTE   W72
// 093   ----------------------------------------
        BYTE                   An0
        BYTE   W72
// 094   ----------------------------------------
        BYTE                   Dn1
        BYTE   W72
// 095   ----------------------------------------
        BYTE                   As0
        BYTE   W72
// 096   ----------------------------------------
        BYTE                   Cn1
        BYTE   W72
// 097   ----------------------------------------
        BYTE                   An0
        BYTE   W72
// 098   ----------------------------------------
        BYTE                   Dn1
        BYTE   W72
// 099   ----------------------------------------
        BYTE   W72
// 100   ----------------------------------------
        BYTE   W72
// 101   ----------------------------------------
        BYTE   W72
// 102   ----------------------------------------
        BYTE   W72
// 103   ----------------------------------------
        BYTE   W72
// 104   ----------------------------------------
        BYTE   W72
// 105   ----------------------------------------
        BYTE   W72
// 106   ----------------------------------------
        BYTE   W68
        BYTE   W03
        BYTE   GoTo
         POIN2  HeritorsOfArcadia_6_LOOP
        BYTE   FINE


//********************** End of Song ***********************//

        ALIGN 4
HeritorsOfArcadia:
        BYTE   7                       // Num Tracks
        BYTE   0                       // Unknown
        BYTE   HeritorsOfArcadia_pri   // Priority
        BYTE   HeritorsOfArcadia_rev   // Reverb

        POIN2   HeritorsOfArcadia_grp  

        POIN2   HeritorsOfArcadia_0
        POIN2   HeritorsOfArcadia_1
        POIN2   HeritorsOfArcadia_2
        POIN2   HeritorsOfArcadia_3
        POIN2   HeritorsOfArcadia_4
        POIN2   HeritorsOfArcadia_5
        POIN2   HeritorsOfArcadia_6

        
