        .include "MPlayDef.s"

        .equ    MilasDivineProtection_1_grp, voicegroup000
        .equ    MilasDivineProtection_1_pri, 0
        .equ    MilasDivineProtection_1_rev, 0
        .equ    MilasDivineProtection_1_key, 0

        .section .rodata
        .global MilasDivineProtection_1
        .align  2

@****************** Track 0 (Midi-Chn.0) ******************@

MilasDivineProtection_1_0:
        .byte   KEYSH , MilasDivineProtection_1_key+0
@ 000   ----------------------------------------
        .byte   TEMPO , 158/2
        .byte           VOICE , 76
        .byte           VOL   , 47
        .byte           PAN   , c_v+14
        .byte   W96
@ 001   ----------------------------------------
MilasDivineProtection_1_0_LOOP:
        .byte           N96   , As3 , v064
        .byte           TIE   , Fn4 , v111
        .byte   W96
@ 002   ----------------------------------------
        .byte   W12
        .byte           EOT
        .byte           N05   , Bn3
        .byte           N05   , Ds4
        .byte   W06
        .byte                   Cs4
        .byte           N05   , Fn4
        .byte   W06
        .byte                   Ds4
        .byte           N10   , Fs4
        .byte   W12
        .byte           N05   , Cs4
        .byte           N05   , Fn4
        .byte   W06
        .byte                   Ds4
        .byte           N06   , Fs4
        .byte   W06
        .byte           N05   , En4
        .byte           N10   , Gs4
        .byte   W12
        .byte           N05   , Ds4
        .byte           N05   , Fs4
        .byte   W06
        .byte                   En4
        .byte           N05   , Gs4
        .byte   W06
        .byte                   Fs4
        .byte           N10   , As4
        .byte   W12
        .byte           N05   , Gs4
        .byte           N05   , Bn4
        .byte   W06
        .byte                   En4
        .byte           N05   , Gs4
        .byte   W06
@ 003   ----------------------------------------
MilasDivineProtection_1_0_3:
        .byte           N96   , As4 , v111
        .byte           N84   , Fn4 , v081
        .byte   W96
        .byte   PEND
@ 004   ----------------------------------------
        .byte   W12
        .byte           N05   , En4 , v111
        .byte           N05   , Gs4
        .byte   W06
        .byte                   Fs4
        .byte           N05   , As4
        .byte   W06
        .byte                   Gs4
        .byte           N10   , Bn4
        .byte   W12
        .byte           N05   , Fs4
        .byte           N05   , As4
        .byte   W06
        .byte                   Gs4
        .byte           N05   , Bn4
        .byte   W06
        .byte                   As4
        .byte           N10   , Cs5
        .byte   W12
        .byte           N05   , Gs4
        .byte           N05   , Bn4
        .byte   W06
        .byte                   As4
        .byte           N05   , Cs5
        .byte   W06
        .byte                   Bn4
        .byte           N10   , Ds5
        .byte   W12
        .byte           N05   , Cs5
        .byte           N05   , En5
        .byte   W06
        .byte                   Fs4
        .byte           N05   , Bn4
        .byte   W06
@ 005   ----------------------------------------
        .byte   PATT
         .word  MilasDivineProtection_1_0_3
@ 006   ----------------------------------------
        .byte   W09
        .byte           N02   , Fs3 , v111
        .byte   W03
        .byte           N05   , Fn4
        .byte   W06
        .byte                   As3
        .byte   W06
        .byte           N10   , Fn4
        .byte   W12
        .byte           N05   , As3
        .byte   W06
        .byte                   Fn4
        .byte   W06
        .byte           N10   , As3
        .byte   W12
        .byte           N05   , Fn4
        .byte   W06
        .byte                   As3
        .byte   W06
        .byte           N10   , Fn4
        .byte   W12
        .byte           N05   , As3
        .byte   W06
        .byte                   Fn4
        .byte   W06
@ 007   ----------------------------------------
        .byte           N10   , As3
        .byte   W12
        .byte           N05   , Fn4
        .byte   W06
        .byte                   As3
        .byte   W06
        .byte           N10   , Fn4
        .byte   W12
        .byte           N05   , As3
        .byte   W06
        .byte                   Fn4
        .byte   W06
        .byte           N10   , As3
        .byte   W12
        .byte           N05   , Fn4
        .byte   W06
        .byte                   As3
        .byte   W06
        .byte           N10   , Fn4
        .byte   W12
        .byte           N05   , As3
        .byte   W06
        .byte                   Fn4
        .byte   W06
@ 008   ----------------------------------------
        .byte           N10   , Bn3
        .byte   W12
        .byte           N05   , Fn4
        .byte   W06
        .byte                   Bn3
        .byte   W06
        .byte           N10   , Fn4
        .byte   W12
        .byte           N05   , Bn3
        .byte   W06
        .byte                   Fn4
        .byte   W06
        .byte           N10   , Bn3
        .byte   W12
        .byte           N05   , Fn4
        .byte   W06
        .byte                   Bn3
        .byte   W06
        .byte           N10   , Fn4
        .byte   W12
        .byte           N05   , Bn3
        .byte   W06
        .byte                   Fn4
        .byte   W06
@ 009   ----------------------------------------
        .byte   W96
@ 010   ----------------------------------------
        .byte   W96
@ 011   ----------------------------------------
        .byte   W96
@ 012   ----------------------------------------
        .byte   W96
@ 013   ----------------------------------------
        .byte   W96
@ 014   ----------------------------------------
        .byte   W96
@ 015   ----------------------------------------
        .byte   W96
@ 016   ----------------------------------------
        .byte   W96
@ 017   ----------------------------------------
        .byte   W96
@ 018   ----------------------------------------
        .byte   W96
@ 019   ----------------------------------------
        .byte   W96
@ 020   ----------------------------------------
        .byte   W96
@ 021   ----------------------------------------
        .byte   W96
@ 022   ----------------------------------------
        .byte   W96
@ 023   ----------------------------------------
        .byte   W96
@ 024   ----------------------------------------
        .byte           N16   , As3
        .byte   W18
        .byte                   As4
        .byte   W18
        .byte           N10   , Fn4
        .byte   W12
        .byte           N21   , As3
        .byte   W24
        .byte                   As4
        .byte   W24
@ 025   ----------------------------------------
        .byte           N16   , Bn3
        .byte   W18
        .byte                   Bn4
        .byte   W18
        .byte           N10   , Fs4
        .byte   W12
        .byte           N21   , Bn3
        .byte   W24
        .byte                   Bn4
        .byte   W24
@ 026   ----------------------------------------
        .byte           N16   , Cn4
        .byte   W18
        .byte                   Cn5
        .byte   W18
        .byte           N10   , Gn4
        .byte   W12
        .byte           N21   , Cn4
        .byte   W24
        .byte                   Cn5
        .byte   W24
@ 027   ----------------------------------------
        .byte           N16   , Cs4
        .byte   W18
        .byte                   Cs5
        .byte   W18
        .byte           N10   , Gs4
        .byte   W12
        .byte           N21   , Cs4
        .byte   W24
        .byte                   Cs5
        .byte   W24
@ 028   ----------------------------------------
        .byte   GOTO
         .word  MilasDivineProtection_1_0_LOOP
        .byte   W96
@ 029   ----------------------------------------
        .byte   W96
@ 030   ----------------------------------------
        .byte   W96
@ 031   ----------------------------------------
        .byte   W96
@ 032   ----------------------------------------
        .byte   W96
@ 033   ----------------------------------------
        .byte   W96
@ 034   ----------------------------------------
        .byte   W96
@ 035   ----------------------------------------
        .byte   W96
@ 036   ----------------------------------------
        .byte   W96
@ 037   ----------------------------------------
        .byte   W96
@ 038   ----------------------------------------
        .byte   W96
@ 039   ----------------------------------------
        .byte   W96
@ 040   ----------------------------------------
        .byte   W96
@ 041   ----------------------------------------
        .byte   W96
@ 042   ----------------------------------------
        .byte   W96
@ 043   ----------------------------------------
        .byte   W96
@ 044   ----------------------------------------
        .byte   W96
@ 045   ----------------------------------------
        .byte   W96
@ 046   ----------------------------------------
        .byte   W96
@ 047   ----------------------------------------
        .byte   W96
@ 048   ----------------------------------------
        .byte   W96
@ 049   ----------------------------------------
        .byte   W96
@ 050   ----------------------------------------
        .byte   W96
@ 051   ----------------------------------------
        .byte   W96
@ 052   ----------------------------------------
        .byte   W96
@ 053   ----------------------------------------
        .byte   W96
@ 054   ----------------------------------------
        .byte   W96
@ 055   ----------------------------------------
        .byte   FINE

@****************** Track 1 (Midi-Chn.1) ******************@

MilasDivineProtection_1_1:
        .byte   KEYSH , MilasDivineProtection_1_key+0
@ 000   ----------------------------------------
        .byte           VOICE , 46
        .byte           VOL   , 42
        .byte           PAN   , c_v-14
        .byte   W96
@ 001   ----------------------------------------
MilasDivineProtection_1_1_LOOP:
        .byte   W48
        .byte           N06   , As3 , v064
        .byte   W06
        .byte                   Bn3
        .byte   W06
        .byte           N12   , Cs4
        .byte   W12
        .byte                   As3
        .byte   W12
        .byte                   Fs3
        .byte   W12
@ 002   ----------------------------------------
        .byte                   Gs3
        .byte   W12
        .byte                   Ds3
        .byte   W12
        .byte                   Fn3
        .byte   W12
        .byte                   Cs3
        .byte   W12
        .byte                   Ds3
        .byte   W12
        .byte                   As2
        .byte   W12
        .byte                   Cs3
        .byte   W12
        .byte                   Gs2
        .byte   W12
@ 003   ----------------------------------------
MilasDivineProtection_1_1_3:
        .byte   W48
        .byte           N06   , As3 , v064
        .byte   W06
        .byte                   Cn4
        .byte   W06
        .byte           N12   , Cs4
        .byte   W12
        .byte                   As3
        .byte   W12
        .byte                   Fs3
        .byte   W12
        .byte   PEND
@ 004   ----------------------------------------
        .byte                   Gs3
        .byte   W12
        .byte                   Ds3
        .byte   W12
        .byte                   Fn3
        .byte   W12
        .byte                   Cs3
        .byte   W12
        .byte                   Ds3
        .byte   W12
        .byte                   As2
        .byte   W12
        .byte                   Cs3
        .byte   W12
        .byte                   Fn3
        .byte   W12
@ 005   ----------------------------------------
        .byte   PATT
         .word  MilasDivineProtection_1_1_3
@ 006   ----------------------------------------
        .byte           N12   , Gs3 , v064
        .byte   W12
        .byte                   Ds3
        .byte   W12
        .byte                   Fn3
        .byte   W12
        .byte                   Cs3
        .byte   W12
        .byte                   Ds3
        .byte   W12
        .byte                   As2
        .byte   W12
        .byte                   Cs3
        .byte   W12
        .byte                   Gs2 , v081
        .byte   W12
@ 007   ----------------------------------------
        .byte           N15   , As2
        .byte   W18
        .byte           N16   , As3
        .byte   W18
        .byte           N10   , Fn3
        .byte   W12
        .byte           N21   , As2
        .byte   W24
        .byte                   As3
        .byte   W24
@ 008   ----------------------------------------
        .byte           N16   , Bn2
        .byte   W18
        .byte                   Bn3
        .byte   W18
        .byte           N10   , Fs3
        .byte   W12
        .byte           N21   , Bn2
        .byte   W24
        .byte                   Bn3
        .byte   W24
@ 009   ----------------------------------------
        .byte   W96
@ 010   ----------------------------------------
        .byte   W96
@ 011   ----------------------------------------
        .byte   W96
@ 012   ----------------------------------------
        .byte   W96
@ 013   ----------------------------------------
        .byte   W96
@ 014   ----------------------------------------
        .byte   W96
@ 015   ----------------------------------------
        .byte   W96
@ 016   ----------------------------------------
        .byte   W96
@ 017   ----------------------------------------
        .byte   W96
@ 018   ----------------------------------------
        .byte   W96
@ 019   ----------------------------------------
        .byte   W96
@ 020   ----------------------------------------
MilasDivineProtection_1_1_20:
        .byte           N16   , As2 , v100
        .byte   W18
        .byte                   As3
        .byte   W18
        .byte           N10   , Fn3
        .byte   W12
        .byte           N21   , As2
        .byte   W24
        .byte                   As3
        .byte   W24
        .byte   PEND
@ 021   ----------------------------------------
MilasDivineProtection_1_1_21:
        .byte           N16   , Bn2 , v100
        .byte   W18
        .byte                   Bn3
        .byte   W18
        .byte           N10   , Fs3
        .byte   W12
        .byte           N21   , Bn2
        .byte   W24
        .byte                   Bn3
        .byte   W24
        .byte   PEND
@ 022   ----------------------------------------
MilasDivineProtection_1_1_22:
        .byte           N16   , Cn3 , v100
        .byte   W18
        .byte                   Cn4
        .byte   W18
        .byte           N10   , Gn3
        .byte   W12
        .byte           N21   , Cn3
        .byte   W24
        .byte                   Cn4
        .byte   W24
        .byte   PEND
@ 023   ----------------------------------------
MilasDivineProtection_1_1_23:
        .byte           N16   , Cs3 , v100
        .byte   W18
        .byte                   Cs4
        .byte   W18
        .byte           N10   , Gs3
        .byte   W12
        .byte           N21   , Cs3
        .byte   W24
        .byte                   Cs4
        .byte   W24
        .byte   PEND
@ 024   ----------------------------------------
        .byte   PATT
         .word  MilasDivineProtection_1_1_20
@ 025   ----------------------------------------
        .byte   PATT
         .word  MilasDivineProtection_1_1_21
@ 026   ----------------------------------------
        .byte   PATT
         .word  MilasDivineProtection_1_1_22
@ 027   ----------------------------------------
        .byte   PATT
         .word  MilasDivineProtection_1_1_23
@ 028   ----------------------------------------
        .byte   GOTO
         .word  MilasDivineProtection_1_1_LOOP
        .byte   W96
@ 029   ----------------------------------------
        .byte   W96
@ 030   ----------------------------------------
        .byte   W96
@ 031   ----------------------------------------
        .byte   W96
@ 032   ----------------------------------------
        .byte   W96
@ 033   ----------------------------------------
        .byte   W96
@ 034   ----------------------------------------
        .byte   W96
@ 035   ----------------------------------------
        .byte   W96
@ 036   ----------------------------------------
        .byte   W96
@ 037   ----------------------------------------
        .byte   W96
@ 038   ----------------------------------------
        .byte   W96
@ 039   ----------------------------------------
        .byte   W96
@ 040   ----------------------------------------
        .byte   W96
@ 041   ----------------------------------------
        .byte   W96
@ 042   ----------------------------------------
        .byte   W96
@ 043   ----------------------------------------
        .byte   W96
@ 044   ----------------------------------------
        .byte   W96
@ 045   ----------------------------------------
        .byte   W96
@ 046   ----------------------------------------
        .byte   W96
@ 047   ----------------------------------------
        .byte   W96
@ 048   ----------------------------------------
        .byte   W96
@ 049   ----------------------------------------
        .byte   W96
@ 050   ----------------------------------------
        .byte   W96
@ 051   ----------------------------------------
        .byte   W96
@ 052   ----------------------------------------
        .byte   W96
@ 053   ----------------------------------------
        .byte   W96
@ 054   ----------------------------------------
        .byte   W96
@ 055   ----------------------------------------
        .byte   FINE

@****************** Track 2 (Midi-Chn.2) ******************@

MilasDivineProtection_1_2:
        .byte   KEYSH , MilasDivineProtection_1_key+0
@ 000   ----------------------------------------
        .byte           VOICE , 36
        .byte           PAN   , c_v+17
        .byte           VOL   , 48
        .byte   W96
@ 001   ----------------------------------------
MilasDivineProtection_1_2_LOOP:
        .byte           N10   , As1 , v100
        .byte   W12
        .byte                   As1
        .byte   W12
        .byte                   Fn1
        .byte   W12
        .byte                   As1
        .byte   W12
        .byte           N21
        .byte   W24
        .byte           N10   , Fn1
        .byte   W12
        .byte                   As1
        .byte   W12
@ 002   ----------------------------------------
MilasDivineProtection_1_2_2:
        .byte           N10   , Bn1 , v100
        .byte   W12
        .byte                   Bn1
        .byte   W12
        .byte                   Fs1
        .byte   W12
        .byte                   Bn1
        .byte   W12
        .byte           N20
        .byte   W24
        .byte           N10   , Fs1
        .byte   W12
        .byte                   Bn1
        .byte   W12
        .byte   PEND
@ 003   ----------------------------------------
MilasDivineProtection_1_2_3:
        .byte           N10   , As1 , v100
        .byte   W12
        .byte                   As1
        .byte   W12
        .byte                   Fn1
        .byte   W12
        .byte                   As1
        .byte   W12
        .byte           N21
        .byte   W24
        .byte           N10   , Fn1
        .byte   W12
        .byte                   As1
        .byte   W12
        .byte   PEND
@ 004   ----------------------------------------
        .byte   PATT
         .word  MilasDivineProtection_1_2_2
@ 005   ----------------------------------------
        .byte   PATT
         .word  MilasDivineProtection_1_2_3
@ 006   ----------------------------------------
        .byte   PATT
         .word  MilasDivineProtection_1_2_2
@ 007   ----------------------------------------
        .byte   PATT
         .word  MilasDivineProtection_1_2_3
@ 008   ----------------------------------------
        .byte   PATT
         .word  MilasDivineProtection_1_2_2
@ 009   ----------------------------------------
MilasDivineProtection_1_2_9:
        .byte           N10   , As1 , v100
        .byte   W12
        .byte           N21
        .byte   W24
        .byte           N10
        .byte   W12
        .byte           N21
        .byte   W24
        .byte           N10
        .byte   W12
        .byte           N20
        .byte   W12
        .byte   PEND
@ 010   ----------------------------------------
MilasDivineProtection_1_2_10:
        .byte   W12
        .byte           N10   , As1 , v100
        .byte   W12
        .byte           N21
        .byte   W24
        .byte           N10   , Bn1
        .byte   W12
        .byte                   Bn1
        .byte   W24
        .byte                   Bn1
        .byte   W12
        .byte   PEND
@ 011   ----------------------------------------
        .byte   PATT
         .word  MilasDivineProtection_1_2_9
@ 012   ----------------------------------------
        .byte   PATT
         .word  MilasDivineProtection_1_2_10
@ 013   ----------------------------------------
        .byte   W96
@ 014   ----------------------------------------
        .byte   PATT
         .word  MilasDivineProtection_1_2_3
@ 015   ----------------------------------------
        .byte   PATT
         .word  MilasDivineProtection_1_2_2
@ 016   ----------------------------------------
        .byte   PATT
         .word  MilasDivineProtection_1_2_3
@ 017   ----------------------------------------
        .byte   PATT
         .word  MilasDivineProtection_1_2_2
@ 018   ----------------------------------------
        .byte   PATT
         .word  MilasDivineProtection_1_2_3
@ 019   ----------------------------------------
        .byte   PATT
         .word  MilasDivineProtection_1_2_2
@ 020   ----------------------------------------
        .byte   PATT
         .word  MilasDivineProtection_1_2_3
@ 021   ----------------------------------------
        .byte   PATT
         .word  MilasDivineProtection_1_2_2
@ 022   ----------------------------------------
MilasDivineProtection_1_2_22:
        .byte           N10   , Cn2 , v100
        .byte   W12
        .byte                   Cn2
        .byte   W12
        .byte                   Gn1
        .byte   W12
        .byte                   Cn2
        .byte   W12
        .byte           N21
        .byte   W24
        .byte           N10   , Gn1
        .byte   W12
        .byte                   Cn2
        .byte   W12
        .byte   PEND
@ 023   ----------------------------------------
MilasDivineProtection_1_2_23:
        .byte           N10   , Cs2 , v100
        .byte   W12
        .byte                   Cs2
        .byte   W12
        .byte                   Gs1
        .byte   W12
        .byte                   Cs2
        .byte   W12
        .byte           N21
        .byte   W24
        .byte           N10   , Gs1
        .byte   W12
        .byte                   Cs2
        .byte   W12
        .byte   PEND
@ 024   ----------------------------------------
        .byte   PATT
         .word  MilasDivineProtection_1_2_3
@ 025   ----------------------------------------
        .byte   PATT
         .word  MilasDivineProtection_1_2_2
@ 026   ----------------------------------------
        .byte   PATT
         .word  MilasDivineProtection_1_2_22
@ 027   ----------------------------------------
        .byte   PATT
         .word  MilasDivineProtection_1_2_23
@ 028   ----------------------------------------
        .byte   GOTO
         .word  MilasDivineProtection_1_2_LOOP
        .byte   W96
@ 029   ----------------------------------------
        .byte   W96
@ 030   ----------------------------------------
        .byte   W96
@ 031   ----------------------------------------
        .byte   W96
@ 032   ----------------------------------------
        .byte   W96
@ 033   ----------------------------------------
        .byte   W96
@ 034   ----------------------------------------
        .byte   W96
@ 035   ----------------------------------------
        .byte   W96
@ 036   ----------------------------------------
        .byte   W96
@ 037   ----------------------------------------
        .byte   W96
@ 038   ----------------------------------------
        .byte   W96
@ 039   ----------------------------------------
        .byte   W96
@ 040   ----------------------------------------
        .byte   W96
@ 041   ----------------------------------------
        .byte   W96
@ 042   ----------------------------------------
        .byte   W96
@ 043   ----------------------------------------
        .byte   W96
@ 044   ----------------------------------------
        .byte   W96
@ 045   ----------------------------------------
        .byte   W96
@ 046   ----------------------------------------
        .byte   W96
@ 047   ----------------------------------------
        .byte   W96
@ 048   ----------------------------------------
        .byte   W96
@ 049   ----------------------------------------
        .byte   W96
@ 050   ----------------------------------------
        .byte   W96
@ 051   ----------------------------------------
        .byte   W96
@ 052   ----------------------------------------
        .byte   W96
@ 053   ----------------------------------------
        .byte   W96
@ 054   ----------------------------------------
        .byte   W96
@ 055   ----------------------------------------
        .byte   FINE

@****************** Track 3 (Midi-Chn.3) ******************@

MilasDivineProtection_1_3:
        .byte   KEYSH , MilasDivineProtection_1_key+0
@ 000   ----------------------------------------
        .byte           VOICE , 63
        .byte           PAN   , c_v+34
        .byte           VOL   , 44
        .byte   W96
@ 001   ----------------------------------------
MilasDivineProtection_1_3_LOOP:
        .byte   W96
@ 002   ----------------------------------------
        .byte   W96
@ 003   ----------------------------------------
        .byte   W96
@ 004   ----------------------------------------
        .byte   W96
@ 005   ----------------------------------------
        .byte   W96
@ 006   ----------------------------------------
        .byte   W96
@ 007   ----------------------------------------
        .byte   W96
@ 008   ----------------------------------------
        .byte   W96
@ 009   ----------------------------------------
MilasDivineProtection_1_3_9:
        .byte           N10   , Fn3 , v100
        .byte           N10   , As3
        .byte   W12
        .byte                   Fn3
        .byte           N10   , As3
        .byte   W24
        .byte                   Fn3
        .byte           N10   , As3
        .byte   W12
        .byte                   Fn3
        .byte           N10   , As3
        .byte   W24
        .byte                   Fn3
        .byte           N10   , As3
        .byte   W12
        .byte                   Fn3
        .byte           N10   , As3
        .byte   W12
        .byte   PEND
@ 010   ----------------------------------------
MilasDivineProtection_1_3_10:
        .byte   W12
        .byte           N10   , Fn3 , v100
        .byte           N10   , As3
        .byte   W12
        .byte                   Fn3
        .byte           N10   , As3
        .byte   W24
        .byte                   Fs3
        .byte           N10   , Bn3
        .byte   W12
        .byte                   Fs3
        .byte           N10   , Bn3
        .byte   W24
        .byte                   Fs3
        .byte           N10   , Bn3
        .byte   W12
        .byte   PEND
@ 011   ----------------------------------------
        .byte   PATT
         .word  MilasDivineProtection_1_3_9
@ 012   ----------------------------------------
        .byte   PATT
         .word  MilasDivineProtection_1_3_10
@ 013   ----------------------------------------
        .byte   W96
@ 014   ----------------------------------------
        .byte   W96
@ 015   ----------------------------------------
        .byte   W96
@ 016   ----------------------------------------
        .byte   W96
@ 017   ----------------------------------------
        .byte   W96
@ 018   ----------------------------------------
        .byte   W96
@ 019   ----------------------------------------
        .byte   W96
@ 020   ----------------------------------------
        .byte   PATT
         .word  MilasDivineProtection_1_1_20
@ 021   ----------------------------------------
        .byte   PATT
         .word  MilasDivineProtection_1_1_21
@ 022   ----------------------------------------
        .byte   PATT
         .word  MilasDivineProtection_1_1_22
@ 023   ----------------------------------------
        .byte   PATT
         .word  MilasDivineProtection_1_1_23
@ 024   ----------------------------------------
        .byte   PATT
         .word  MilasDivineProtection_1_1_20
@ 025   ----------------------------------------
        .byte   PATT
         .word  MilasDivineProtection_1_1_21
@ 026   ----------------------------------------
        .byte   PATT
         .word  MilasDivineProtection_1_1_22
@ 027   ----------------------------------------
        .byte   PATT
         .word  MilasDivineProtection_1_1_23
@ 028   ----------------------------------------
        .byte   GOTO
         .word  MilasDivineProtection_1_3_LOOP
        .byte   W96
@ 029   ----------------------------------------
        .byte   W96
@ 030   ----------------------------------------
        .byte   W96
@ 031   ----------------------------------------
        .byte   W96
@ 032   ----------------------------------------
        .byte   W96
@ 033   ----------------------------------------
        .byte   W96
@ 034   ----------------------------------------
        .byte   W96
@ 035   ----------------------------------------
        .byte   W96
@ 036   ----------------------------------------
        .byte   W96
@ 037   ----------------------------------------
        .byte   W96
@ 038   ----------------------------------------
        .byte   W96
@ 039   ----------------------------------------
        .byte   W96
@ 040   ----------------------------------------
        .byte   W96
@ 041   ----------------------------------------
        .byte   W96
@ 042   ----------------------------------------
        .byte   W96
@ 043   ----------------------------------------
        .byte   W96
@ 044   ----------------------------------------
        .byte   W96
@ 045   ----------------------------------------
        .byte   W96
@ 046   ----------------------------------------
        .byte   W96
@ 047   ----------------------------------------
        .byte   W96
@ 048   ----------------------------------------
        .byte   W96
@ 049   ----------------------------------------
        .byte   W96
@ 050   ----------------------------------------
        .byte   W96
@ 051   ----------------------------------------
        .byte   W96
@ 052   ----------------------------------------
        .byte   W96
@ 053   ----------------------------------------
        .byte   W96
@ 054   ----------------------------------------
        .byte   W96
@ 055   ----------------------------------------
        .byte   FINE

@****************** Track 4 (Midi-Chn.4) ******************@

MilasDivineProtection_1_4:
        .byte   KEYSH , MilasDivineProtection_1_key+0
@ 000   ----------------------------------------
        .byte           VOICE , 49
        .byte           VOL   , 43
        .byte   W96
@ 001   ----------------------------------------
MilasDivineProtection_1_4_LOOP:
        .byte   W96
@ 002   ----------------------------------------
        .byte   W96
@ 003   ----------------------------------------
        .byte   W96
@ 004   ----------------------------------------
        .byte   W96
@ 005   ----------------------------------------
        .byte   W96
@ 006   ----------------------------------------
        .byte   W08
        .byte           BEND  , c_v-14
        .byte   W02
        .byte                   c_v-9
        .byte   W01
        .byte                   c_v-3
        .byte   W02
        .byte                   c_v+2
        .byte   W08
        .byte                   c_v+1
        .byte   W72
        .byte   W03
@ 007   ----------------------------------------
        .byte   W96
@ 008   ----------------------------------------
        .byte   W96
@ 009   ----------------------------------------
        .byte   W96
@ 010   ----------------------------------------
        .byte   W96
@ 011   ----------------------------------------
        .byte   W96
@ 012   ----------------------------------------
        .byte   W76
        .byte           VOL   , 35
        .byte   W03
        .byte                   36
        .byte   W17
@ 013   ----------------------------------------
        .byte   W72
        .byte           N10   , As3 , v102
        .byte   W06
        .byte                   Cn4 , v107
        .byte   W06
        .byte                   Cs4 , v112
        .byte   W06
        .byte                   Ds4 , v117
        .byte   W06
@ 014   ----------------------------------------
        .byte           N84   , Fn4 , v125 , gtp2
        .byte                   As3 , v100
        .byte           N84   , Cs4 , v100 , gtp2
        .byte   W96
@ 015   ----------------------------------------
        .byte           N10   , As3
        .byte           N16   , Fn4 , v126
        .byte   W18
        .byte           N10   , Bn3 , v100
        .byte           N16   , Fs4 , v126
        .byte   W18
        .byte           N10   , Gs3 , v100
        .byte           N10   , Ds4 , v126
        .byte   W12
        .byte                   As3 , v100
        .byte           N16   , Fn4 , v127
        .byte   W18
        .byte           N10   , Fs3 , v100
        .byte           N16   , Cs4 , v127
        .byte   W18
        .byte           N10   , Gs3 , v100
        .byte           N10   , Ds4 , v127
        .byte   W12
@ 016   ----------------------------------------
        .byte                   Fs3 , v100
        .byte           N16   , Cn4 , v123
        .byte   W18
        .byte           N10   , Gs3 , v100
        .byte           N16   , Cs4 , v123
        .byte   W18
        .byte           N10   , Fn3 , v100
        .byte           N10   , As3 , v123
        .byte   W12
        .byte                   Gs3 , v100
        .byte           N16   , Cn4 , v123
        .byte   W18
        .byte           N10   , Ds3 , v100
        .byte           N16   , Gs3 , v123
        .byte   W18
        .byte           N10   , Fn3 , v100
        .byte           N10   , As3 , v123
        .byte   W12
@ 017   ----------------------------------------
        .byte                   Cs3
        .byte           N16   , Fs3
        .byte   W18
        .byte           N10   , Ds3
        .byte           N16   , Gs3
        .byte   W18
        .byte           N10   , Cn3
        .byte           N10   , Fn3
        .byte   W12
        .byte                   Cs3
        .byte           N16   , Fs3
        .byte   W18
        .byte           N10   , As2
        .byte           N16   , Ds3
        .byte   W18
        .byte           N10   , Cn3
        .byte           N10   , Fn3
        .byte   W12
@ 018   ----------------------------------------
        .byte   W96
@ 019   ----------------------------------------
        .byte   W96
@ 020   ----------------------------------------
        .byte   W96
@ 021   ----------------------------------------
        .byte   W96
@ 022   ----------------------------------------
        .byte   W96
@ 023   ----------------------------------------
        .byte   W96
@ 024   ----------------------------------------
        .byte   W96
@ 025   ----------------------------------------
        .byte   W96
@ 026   ----------------------------------------
        .byte   W96
@ 027   ----------------------------------------
        .byte   W96
@ 028   ----------------------------------------
        .byte           VOL   , 43
        .byte           BEND  , c_v+0
        .byte   GOTO
         .word  MilasDivineProtection_1_4_LOOP
        .byte   W96
@ 029   ----------------------------------------
        .byte   W96
@ 030   ----------------------------------------
        .byte   W96
@ 031   ----------------------------------------
        .byte   W96
@ 032   ----------------------------------------
        .byte   W96
@ 033   ----------------------------------------
        .byte   W96
@ 034   ----------------------------------------
        .byte   W96
@ 035   ----------------------------------------
        .byte   W96
@ 036   ----------------------------------------
        .byte   W96
@ 037   ----------------------------------------
        .byte   W96
@ 038   ----------------------------------------
        .byte   W96
@ 039   ----------------------------------------
        .byte   W96
@ 040   ----------------------------------------
        .byte   W96
@ 041   ----------------------------------------
        .byte   W96
@ 042   ----------------------------------------
        .byte   W96
@ 043   ----------------------------------------
        .byte   W96
@ 044   ----------------------------------------
        .byte   W96
@ 045   ----------------------------------------
        .byte   W96
@ 046   ----------------------------------------
        .byte   W96
@ 047   ----------------------------------------
        .byte   W96
@ 048   ----------------------------------------
        .byte   W96
@ 049   ----------------------------------------
        .byte   W96
@ 050   ----------------------------------------
        .byte   W96
@ 051   ----------------------------------------
        .byte   W96
@ 052   ----------------------------------------
        .byte   W96
@ 053   ----------------------------------------
        .byte   W96
@ 054   ----------------------------------------
        .byte   W96
@ 055   ----------------------------------------
        .byte   FINE

@****************** Track 5 (Midi-Chn.5) ******************@

MilasDivineProtection_1_5:
        .byte   KEYSH , MilasDivineProtection_1_key+0
@ 000   ----------------------------------------
        .byte           VOICE , 52
        .byte           VOL   , 37
        .byte   W96
@ 001   ----------------------------------------
MilasDivineProtection_1_5_LOOP:
        .byte   W96
@ 002   ----------------------------------------
        .byte   W96
@ 003   ----------------------------------------
        .byte   W96
@ 004   ----------------------------------------
        .byte   W96
@ 005   ----------------------------------------
        .byte   W96
@ 006   ----------------------------------------
        .byte   W96
@ 007   ----------------------------------------
        .byte   W96
@ 008   ----------------------------------------
        .byte   W96
@ 009   ----------------------------------------
        .byte   W96
@ 010   ----------------------------------------
        .byte   W96
@ 011   ----------------------------------------
        .byte   W96
@ 012   ----------------------------------------
        .byte   W96
@ 013   ----------------------------------------
        .byte   W96
@ 014   ----------------------------------------
        .byte           N92   , Cs3 , v100 , gtp3
        .byte                   Fn3
        .byte           N96   , Fn4 , v102
        .byte   W96
@ 015   ----------------------------------------
        .byte           N92   , Ds3 , v100 , gtp3
        .byte                   Fs3
        .byte           N16   , Fn4 , v126
        .byte   W18
        .byte                   Fs4
        .byte   W18
        .byte           N10   , Ds4
        .byte   W12
        .byte           N16   , Fn4 , v127
        .byte   W18
        .byte                   Cs4
        .byte   W18
        .byte           N10   , Ds4
        .byte   W12
@ 016   ----------------------------------------
MilasDivineProtection_1_5_16:
        .byte           N92   , Cs3 , v100 , gtp3
        .byte                   Fn3
        .byte   W96
        .byte   PEND
@ 017   ----------------------------------------
MilasDivineProtection_1_5_17:
        .byte           N92   , Ds3 , v100 , gtp3
        .byte                   Fs3
        .byte   W96
        .byte   PEND
@ 018   ----------------------------------------
        .byte   PATT
         .word  MilasDivineProtection_1_5_16
@ 019   ----------------------------------------
        .byte   PATT
         .word  MilasDivineProtection_1_5_17
@ 020   ----------------------------------------
        .byte   PATT
         .word  MilasDivineProtection_1_5_16
@ 021   ----------------------------------------
        .byte           N92   , Fs3 , v100 , gtp3
        .byte           N84   , Dn3 , v100 , gtp2
        .byte   W96
@ 022   ----------------------------------------
        .byte           N92   , Ds3 , v100 , gtp3
        .byte                   Gn3
        .byte   W96
@ 023   ----------------------------------------
        .byte                   En3
        .byte           N92   , Gs3 , v100 , gtp3
        .byte   W96
@ 024   ----------------------------------------
        .byte                   Cs3
        .byte           N92   , As4 , v065 , gtp3
        .byte                   Fn3 , v100
        .byte   W96
@ 025   ----------------------------------------
        .byte           N84   , Dn3 , v100 , gtp2
        .byte           N92   , Bn4 , v068 , gtp3
        .byte                   Fs3 , v100
        .byte   W96
@ 026   ----------------------------------------
        .byte                   Ds3
        .byte           N92   , Cn5 , v066 , gtp3
        .byte                   Gn3 , v100
        .byte   W96
@ 027   ----------------------------------------
        .byte                   Gs3
        .byte           N92   , Cs5 , v063 , gtp3
        .byte                   En3 , v100
        .byte   W96
@ 028   ----------------------------------------
        .byte   GOTO
         .word  MilasDivineProtection_1_5_LOOP
        .byte   W96
@ 029   ----------------------------------------
        .byte   W96
@ 030   ----------------------------------------
        .byte   W96
@ 031   ----------------------------------------
        .byte   W96
@ 032   ----------------------------------------
        .byte   W96
@ 033   ----------------------------------------
        .byte   W96
@ 034   ----------------------------------------
        .byte   W96
@ 035   ----------------------------------------
        .byte   W96
@ 036   ----------------------------------------
        .byte   W96
@ 037   ----------------------------------------
        .byte   W96
@ 038   ----------------------------------------
        .byte   W96
@ 039   ----------------------------------------
        .byte   W96
@ 040   ----------------------------------------
        .byte   W96
@ 041   ----------------------------------------
        .byte   W96
@ 042   ----------------------------------------
        .byte   W96
@ 043   ----------------------------------------
        .byte   W96
@ 044   ----------------------------------------
        .byte   W96
@ 045   ----------------------------------------
        .byte   W96
@ 046   ----------------------------------------
        .byte   W96
@ 047   ----------------------------------------
        .byte   W96
@ 048   ----------------------------------------
        .byte   W96
@ 049   ----------------------------------------
        .byte   W96
@ 050   ----------------------------------------
        .byte   W96
@ 051   ----------------------------------------
        .byte   W96
@ 052   ----------------------------------------
        .byte   W96
@ 053   ----------------------------------------
        .byte   W96
@ 054   ----------------------------------------
        .byte   W96
@ 055   ----------------------------------------
        .byte   FINE

@****************** Track 6 (Midi-Chn.6) ******************@

MilasDivineProtection_1_6:
        .byte   KEYSH , MilasDivineProtection_1_key+0
@ 000   ----------------------------------------
        .byte           VOICE , 17
        .byte           VOL   , 32
        .byte           PAN   , c_v-23
        .byte   W84
        .byte           VOL   , 30
        .byte   W12
@ 001   ----------------------------------------
MilasDivineProtection_1_6_LOOP:
        .byte           N10   , As1 , v100
        .byte   W12
        .byte                   As1
        .byte   W12
        .byte                   Fn1
        .byte   W12
        .byte                   As1
        .byte   W12
        .byte           N21
        .byte   W24
        .byte           N10   , Fn1
        .byte   W12
        .byte                   As1
        .byte   W12
@ 002   ----------------------------------------
        .byte   PATT
         .word  MilasDivineProtection_1_2_2
@ 003   ----------------------------------------
        .byte   PATT
         .word  MilasDivineProtection_1_2_3
@ 004   ----------------------------------------
        .byte   PATT
         .word  MilasDivineProtection_1_2_2
@ 005   ----------------------------------------
        .byte   PATT
         .word  MilasDivineProtection_1_2_3
@ 006   ----------------------------------------
        .byte   PATT
         .word  MilasDivineProtection_1_2_2
@ 007   ----------------------------------------
        .byte   PATT
         .word  MilasDivineProtection_1_2_3
@ 008   ----------------------------------------
        .byte   PATT
         .word  MilasDivineProtection_1_2_2
@ 009   ----------------------------------------
        .byte   PATT
         .word  MilasDivineProtection_1_2_9
@ 010   ----------------------------------------
        .byte   PATT
         .word  MilasDivineProtection_1_2_10
@ 011   ----------------------------------------
        .byte   PATT
         .word  MilasDivineProtection_1_2_9
@ 012   ----------------------------------------
        .byte   PATT
         .word  MilasDivineProtection_1_2_10
@ 013   ----------------------------------------
        .byte   W96
@ 014   ----------------------------------------
        .byte   PATT
         .word  MilasDivineProtection_1_2_3
@ 015   ----------------------------------------
        .byte   PATT
         .word  MilasDivineProtection_1_2_2
@ 016   ----------------------------------------
        .byte   PATT
         .word  MilasDivineProtection_1_2_3
@ 017   ----------------------------------------
        .byte   PATT
         .word  MilasDivineProtection_1_2_2
@ 018   ----------------------------------------
        .byte   PATT
         .word  MilasDivineProtection_1_2_3
@ 019   ----------------------------------------
        .byte   PATT
         .word  MilasDivineProtection_1_2_2
@ 020   ----------------------------------------
        .byte   PATT
         .word  MilasDivineProtection_1_2_3
@ 021   ----------------------------------------
        .byte   PATT
         .word  MilasDivineProtection_1_2_2
@ 022   ----------------------------------------
        .byte   PATT
         .word  MilasDivineProtection_1_2_22
@ 023   ----------------------------------------
        .byte   PATT
         .word  MilasDivineProtection_1_2_23
@ 024   ----------------------------------------
        .byte   PATT
         .word  MilasDivineProtection_1_2_3
@ 025   ----------------------------------------
        .byte   PATT
         .word  MilasDivineProtection_1_2_2
@ 026   ----------------------------------------
        .byte   PATT
         .word  MilasDivineProtection_1_2_22
@ 027   ----------------------------------------
        .byte   PATT
         .word  MilasDivineProtection_1_2_23
@ 028   ----------------------------------------
        .byte   GOTO
         .word  MilasDivineProtection_1_6_LOOP
        .byte   W96
@ 029   ----------------------------------------
        .byte   W96
@ 030   ----------------------------------------
        .byte   W96
@ 031   ----------------------------------------
        .byte   W96
@ 032   ----------------------------------------
        .byte   W96
@ 033   ----------------------------------------
        .byte   W96
@ 034   ----------------------------------------
        .byte   W96
@ 035   ----------------------------------------
        .byte   W96
@ 036   ----------------------------------------
        .byte   W96
@ 037   ----------------------------------------
        .byte   W96
@ 038   ----------------------------------------
        .byte   W96
@ 039   ----------------------------------------
        .byte   W96
@ 040   ----------------------------------------
        .byte   W96
@ 041   ----------------------------------------
        .byte   W96
@ 042   ----------------------------------------
        .byte   W96
@ 043   ----------------------------------------
        .byte   W96
@ 044   ----------------------------------------
        .byte   W96
@ 045   ----------------------------------------
        .byte   W96
@ 046   ----------------------------------------
        .byte   W96
@ 047   ----------------------------------------
        .byte   W96
@ 048   ----------------------------------------
        .byte   W96
@ 049   ----------------------------------------
        .byte   W96
@ 050   ----------------------------------------
        .byte   W96
@ 051   ----------------------------------------
        .byte   W96
@ 052   ----------------------------------------
        .byte   W96
@ 053   ----------------------------------------
        .byte   W96
@ 054   ----------------------------------------
        .byte   W96
@ 055   ----------------------------------------
        .byte   FINE

@****************** Track 7 (Midi-Chn.7) ******************@

MilasDivineProtection_1_7:
        .byte   KEYSH , MilasDivineProtection_1_key+0
@ 000   ----------------------------------------
        .byte           VOICE , 61
        .byte           VOL   , 47
        .byte   W32
        .byte           PAN   , c_v-33
        .byte   W64
@ 001   ----------------------------------------
MilasDivineProtection_1_7_LOOP:
        .byte   W96
@ 002   ----------------------------------------
        .byte   W96
@ 003   ----------------------------------------
        .byte   W96
@ 004   ----------------------------------------
        .byte   W96
@ 005   ----------------------------------------
        .byte   W96
@ 006   ----------------------------------------
        .byte   W08
        .byte           BEND  , c_v-14
        .byte   W01
        .byte           N02   , Fs2 , v070
        .byte   W01
        .byte           BEND  , c_v-9
        .byte   W01
        .byte                   c_v-3
        .byte   W01
        .byte           N05   , Fn3
        .byte   W01
        .byte           BEND  , c_v+2
        .byte   W05
        .byte           N05   , As2
        .byte   W03
        .byte           BEND  , c_v+1
        .byte   W03
        .byte           N10   , Fn3
        .byte   W12
        .byte           N05   , As2
        .byte   W06
        .byte                   Fn3
        .byte   W06
        .byte           N10   , As2
        .byte   W12
        .byte           N05   , Fn3
        .byte   W06
        .byte                   As2
        .byte   W06
        .byte           N10   , Fn3
        .byte   W12
        .byte           N05   , As2
        .byte   W06
        .byte                   Fn3
        .byte   W06
@ 007   ----------------------------------------
        .byte           PAN   , c_v+56
        .byte           N10   , As2
        .byte   W12
        .byte           N05   , Fn3
        .byte   W06
        .byte                   As2
        .byte   W06
        .byte           N10   , Fn3
        .byte   W12
        .byte           N05   , As2
        .byte   W06
        .byte                   Fn3
        .byte   W06
        .byte           N10   , As2
        .byte   W12
        .byte           N05   , Fn3
        .byte   W06
        .byte                   As2
        .byte   W06
        .byte           N10   , Fn3
        .byte   W12
        .byte           N05   , As2
        .byte   W06
        .byte                   Fn3
        .byte   W06
@ 008   ----------------------------------------
        .byte           N10   , Bn2
        .byte   W01
        .byte           PAN   , c_v-2
        .byte   W11
        .byte           N05   , Fn3
        .byte   W06
        .byte                   Bn2
        .byte   W06
        .byte           N10   , Fn3
        .byte   W12
        .byte           N05   , Bn2
        .byte   W06
        .byte                   Fn3
        .byte   W06
        .byte           N10   , Bn2
        .byte   W12
        .byte           N05   , Fn3
        .byte   W06
        .byte                   Bn2
        .byte   W06
        .byte           N10   , Fn3
        .byte   W12
        .byte           N05   , Bn2
        .byte   W06
        .byte                   Fn3
        .byte   W06
@ 009   ----------------------------------------
        .byte   W96
@ 010   ----------------------------------------
        .byte   W72
        .byte                   Bn3 , v077
        .byte   W06
        .byte                   Cs4 , v080
        .byte   W06
        .byte                   Ds4 , v084
        .byte   W06
        .byte                   En4 , v087
        .byte   W06
@ 011   ----------------------------------------
        .byte           N10   , Fn4 , v090
        .byte           N10   , As4
        .byte   W12
        .byte                   Fn4 , v100
        .byte           N10   , As4
        .byte   W24
        .byte                   Fn4
        .byte           N10   , As4
        .byte   W12
        .byte                   Fn4
        .byte           N10   , As4
        .byte   W24
        .byte                   Fn4
        .byte           N10   , As4
        .byte   W12
        .byte                   Fn4
        .byte           N10   , As4
        .byte   W12
@ 012   ----------------------------------------
        .byte   W12
        .byte                   Fn4
        .byte           N10   , As4
        .byte   W12
        .byte                   Fn4
        .byte           N10   , As4
        .byte   W24
        .byte                   Fs4
        .byte           N10   , Bn4
        .byte   W12
        .byte                   Fs4
        .byte           N10   , Bn4
        .byte   W24
        .byte                   Fs4
        .byte           N10   , Bn4
        .byte   W12
@ 013   ----------------------------------------
        .byte   W96
@ 014   ----------------------------------------
        .byte   W96
@ 015   ----------------------------------------
        .byte   W96
@ 016   ----------------------------------------
        .byte   W96
@ 017   ----------------------------------------
        .byte   W96
@ 018   ----------------------------------------
        .byte                   Gs2 , v084
        .byte           N16   , Cs3
        .byte   W18
        .byte           N10   , As2
        .byte           N16   , Ds3
        .byte   W18
        .byte           N10   , Fn2
        .byte           N10   , Cn3
        .byte   W12
        .byte                   As2
        .byte           N16   , Cs3
        .byte   W18
        .byte           N10   , Fn2
        .byte           N16   , As2
        .byte   W18
        .byte           N10   , Gn2
        .byte           N10   , Cn3
        .byte   W12
@ 019   ----------------------------------------
        .byte                   Cs2
        .byte           N16   , Gs2
        .byte   W18
        .byte           N10   , Ds2
        .byte           N16   , As2
        .byte   W18
        .byte           N10   , Cn2
        .byte           N10   , Fs2
        .byte   W12
        .byte                   Cs2
        .byte           N16   , Gs2
        .byte   W18
        .byte           N10   , As1
        .byte           N16   , Fn2
        .byte   W18
        .byte           N10   , Cn2
        .byte           N10   , Fs2
        .byte   W12
@ 020   ----------------------------------------
        .byte   W96
@ 021   ----------------------------------------
        .byte   W96
@ 022   ----------------------------------------
        .byte   W96
@ 023   ----------------------------------------
        .byte   W96
@ 024   ----------------------------------------
        .byte           N90   , As3 , v065
        .byte   W96
@ 025   ----------------------------------------
        .byte                   Bn3 , v068
        .byte   W96
@ 026   ----------------------------------------
        .byte                   Cn4 , v066
        .byte   W96
@ 027   ----------------------------------------
        .byte                   Cs4 , v063
        .byte   W96
@ 028   ----------------------------------------
        .byte           PAN   , c_v-33
        .byte           BEND  , c_v+0
        .byte   GOTO
         .word  MilasDivineProtection_1_7_LOOP
        .byte   W96
@ 029   ----------------------------------------
        .byte   W96
@ 030   ----------------------------------------
        .byte   W96
@ 031   ----------------------------------------
        .byte   W96
@ 032   ----------------------------------------
        .byte   W96
@ 033   ----------------------------------------
        .byte   W96
@ 034   ----------------------------------------
        .byte   W96
@ 035   ----------------------------------------
        .byte   W96
@ 036   ----------------------------------------
        .byte   W96
@ 037   ----------------------------------------
        .byte   W96
@ 038   ----------------------------------------
        .byte   W96
@ 039   ----------------------------------------
        .byte   W96
@ 040   ----------------------------------------
        .byte   W96
@ 041   ----------------------------------------
        .byte   W96
@ 042   ----------------------------------------
        .byte   W96
@ 043   ----------------------------------------
        .byte   W96
@ 044   ----------------------------------------
        .byte   W96
@ 045   ----------------------------------------
        .byte   W96
@ 046   ----------------------------------------
        .byte   W96
@ 047   ----------------------------------------
        .byte   W96
@ 048   ----------------------------------------
        .byte   W96
@ 049   ----------------------------------------
        .byte   W96
@ 050   ----------------------------------------
        .byte   W96
@ 051   ----------------------------------------
        .byte   W96
@ 052   ----------------------------------------
        .byte   W96
@ 053   ----------------------------------------
        .byte   W96
@ 054   ----------------------------------------
        .byte   W96
@ 055   ----------------------------------------
        .byte   FINE

@****************** Track 8 (Midi-Chn.8) ******************@

MilasDivineProtection_1_8:
        .byte   KEYSH , MilasDivineProtection_1_key+0
@ 000   ----------------------------------------
        .byte           VOICE , 124
        .byte           VOL   , 52
        .byte           N12   , Cn1 , v120
        .byte           N12   , Gn1 , v082
        .byte           N06   , Fs1 , v088
        .byte   W24
        .byte           N12   , Cn1 , v120
        .byte           N12   , Gn1 , v082
        .byte           N06   , Fs1 , v088
        .byte   W24
        .byte           N12   , Cn1 , v120
        .byte           N12   , Gn1 , v082
        .byte           N06   , Fs1 , v088
        .byte   W24
        .byte           N12   , Cn1 , v120
        .byte           N24   , As1 , v082
        .byte           N06   , Cn2
        .byte           N06   , Dn1 , v096
        .byte   W06
        .byte                   An1 , v082
        .byte           N06   , Dn1 , v088
        .byte   W06
        .byte                   Gn1 , v082
        .byte           N06   , Dn1 , v088
        .byte   W06
        .byte                   Dn1
        .byte   W06
@ 001   ----------------------------------------
MilasDivineProtection_1_8_LOOP:
        .byte           N12   , Cn1 , v120
        .byte   W12
        .byte           N06   , Gs2 , v082
        .byte   W12
        .byte           N12   , As1
        .byte           N24   , Dn1 , v098
        .byte   W12
        .byte           N06   , Cn1 , v120
        .byte   W12
        .byte                   Cn1
        .byte           N06   , Gs2 , v082
        .byte   W12
        .byte                   Fs1
        .byte   W12
        .byte                   Cn1 , v120
        .byte           N24   , As1 , v082
        .byte           N24   , Dn1 , v098
        .byte   W24
@ 002   ----------------------------------------
MilasDivineProtection_1_8_2:
        .byte           N12   , Cn1 , v120
        .byte   W12
        .byte           N06   , Gs2 , v082
        .byte   W12
        .byte           N12   , As1
        .byte           N24   , Dn1 , v098
        .byte   W12
        .byte           N06   , Cn1 , v120
        .byte   W12
        .byte                   Cn1
        .byte           N06   , Gs2 , v082
        .byte   W12
        .byte                   Fs1
        .byte   W12
        .byte                   Cn1 , v120
        .byte           N24   , As1 , v082
        .byte           N24   , Dn1 , v098
        .byte           N06   , Gs2 , v082
        .byte   W24
        .byte   PEND
@ 003   ----------------------------------------
MilasDivineProtection_1_8_3:
        .byte           N12   , Cn1 , v120
        .byte   W12
        .byte           N06   , Gs2 , v082
        .byte   W12
        .byte           N12   , As1
        .byte           N24   , Dn1 , v098
        .byte   W12
        .byte           N06   , Cn1 , v120
        .byte   W12
        .byte                   Cn1
        .byte           N06   , Gs2 , v082
        .byte   W12
        .byte                   Fs1 , v088
        .byte   W12
        .byte                   Cn1 , v120
        .byte           N24   , As1 , v082
        .byte           N24   , Dn1 , v098
        .byte   W24
        .byte   PEND
@ 004   ----------------------------------------
MilasDivineProtection_1_8_4:
        .byte           N12   , Cn1 , v120
        .byte   W12
        .byte           N06   , Gs2 , v082
        .byte   W12
        .byte           N12   , Dn1 , v098
        .byte           N12   , As1 , v082
        .byte   W12
        .byte           N06   , Cn1 , v120
        .byte           N12   , Dn1 , v098
        .byte   W12
        .byte           N06   , Cn1 , v120
        .byte           N06   , Gs2 , v082
        .byte   W12
        .byte                   Dn1 , v112
        .byte           N06   , Fs1 , v088
        .byte   W06
        .byte                   Dn1 , v098
        .byte   W06
        .byte                   Cn1 , v120
        .byte           N24   , As1 , v082
        .byte           N06   , Dn1 , v112
        .byte           N06   , Gs2 , v082
        .byte   W06
        .byte                   Dn1 , v098
        .byte   W06
        .byte                   Dn1 , v112
        .byte   W06
        .byte                   Dn1 , v098
        .byte   W06
        .byte   PEND
@ 005   ----------------------------------------
        .byte           N12   , Cn1 , v120
        .byte   W12
        .byte           N06   , Gs2 , v082
        .byte   W12
        .byte           N12   , As1
        .byte           N24   , Dn1 , v098
        .byte   W12
        .byte           N06   , Cn1 , v120
        .byte   W12
        .byte                   Cn1
        .byte           N06   , Gs2 , v082
        .byte   W12
        .byte                   Fs1
        .byte   W12
        .byte                   Cn1 , v120
        .byte           N24   , As1 , v082
        .byte           N24   , Dn1 , v098
        .byte   W24
@ 006   ----------------------------------------
        .byte   PATT
         .word  MilasDivineProtection_1_8_2
@ 007   ----------------------------------------
        .byte   PATT
         .word  MilasDivineProtection_1_8_3
@ 008   ----------------------------------------
        .byte   PATT
         .word  MilasDivineProtection_1_8_4
@ 009   ----------------------------------------
        .byte           N06   , Cn1 , v120
        .byte           N06   , Dn1 , v096
        .byte           N12   , Ds1 , v112
        .byte   W12
        .byte                   Cn1 , v120
        .byte           N06   , Dn1 , v082
        .byte           N24   , Dn2
        .byte   W24
        .byte           N06   , Cn1 , v120
        .byte           N06   , Dn1 , v096
        .byte           N12   , Ds1 , v112
        .byte   W12
        .byte                   Cn1 , v120
        .byte           N06   , Dn1 , v082
        .byte           N24   , Dn2
        .byte   W24
        .byte           N06   , Cn1 , v120
        .byte           N06   , Dn1 , v096
        .byte           N12   , Ds1 , v112
        .byte   W12
        .byte                   Cn1 , v120
        .byte           N06   , Dn1 , v082
        .byte           N12   , Dn2
        .byte   W12
@ 010   ----------------------------------------
        .byte   W12
        .byte           N06   , Dn1 , v096
        .byte           N06   , Cn1 , v120
        .byte           N12   , Ds1 , v112
        .byte   W12
        .byte           N24   , Dn2 , v088
        .byte           N06   , Dn1 , v082
        .byte           N12   , Cn1 , v120
        .byte   W24
        .byte           N06   , Dn1 , v082
        .byte           N06   , Cn1 , v120
        .byte           N12   , Ds1 , v112
        .byte           N12   , Ds2 , v088
        .byte   W12
        .byte                   Dn2
        .byte           N06   , Dn1 , v082
        .byte           N12   , Cn1 , v120
        .byte   W12
        .byte           N24   , Ds2 , v082
        .byte           N24   , As1
        .byte           N06   , Dn1 , v096
        .byte           N12   , Ds1 , v112
        .byte   W24
@ 011   ----------------------------------------
        .byte           N06   , Cn1 , v120
        .byte           N06   , Dn1 , v096
        .byte           N12   , Ds1 , v112
        .byte           N24   , Cs2 , v088
        .byte   W12
        .byte           N12   , Cn1 , v120
        .byte           N06   , Dn1 , v082
        .byte           N24   , Dn2
        .byte   W24
        .byte           N06   , Cn1 , v120
        .byte           N06   , Dn1 , v096
        .byte           N12   , Ds1 , v112
        .byte   W12
        .byte                   Cn1 , v120
        .byte           N06   , Dn1 , v082
        .byte           N24   , Dn2
        .byte   W24
        .byte           N06   , Cn1 , v120
        .byte           N06   , Dn1 , v096
        .byte           N12   , Ds1 , v112
        .byte   W12
        .byte                   Cn1 , v120
        .byte           N06   , Dn1 , v082
        .byte           N12   , Dn2
        .byte   W12
@ 012   ----------------------------------------
        .byte   W12
        .byte           N06   , Cn1 , v120
        .byte           N06   , Dn1 , v096
        .byte           N12   , Ds1 , v112
        .byte   W12
        .byte                   Cn1 , v120
        .byte           N06   , Dn1 , v082
        .byte           N24   , Dn2 , v088
        .byte   W24
        .byte           N06   , Cn2 , v082
        .byte           N06   , Dn1 , v098
        .byte           N06   , Cn1 , v120
        .byte           N12   , Ds1 , v112
        .byte           N12   , Ds2 , v082
        .byte   W12
        .byte           N06   , Bn1
        .byte           N06   , Dn1 , v088
        .byte           N12   , Cn1 , v120
        .byte           N12   , Dn2 , v088
        .byte   W12
        .byte           N06   , Gn1 , v082
        .byte           N06   , Dn1 , v098
        .byte           N12   , Ds1 , v112
        .byte           N24   , Ds2 , v082
        .byte   W24
@ 013   ----------------------------------------
        .byte           N12   , Ds1 , v112
        .byte           N12   , Cn1 , v120
        .byte           N12   , Gn1 , v088
        .byte           N06   , Fs1
        .byte           N24   , Dn2 , v082
        .byte   W12
        .byte           N12   , Ds1 , v088
        .byte   W12
        .byte                   Ds1 , v112
        .byte           N12   , Cn1 , v120
        .byte           N12   , Gn1 , v088
        .byte           N06   , Fs1
        .byte   W12
        .byte           N12   , Ds1
        .byte   W12
        .byte                   Ds1 , v112
        .byte           N12   , Cn1 , v120
        .byte           N12   , Gn1 , v088
        .byte           N06   , Fs1
        .byte   W12
        .byte           N12   , Ds1
        .byte   W12
        .byte                   Ds1 , v112
        .byte           N12   , Cn1 , v120
        .byte           N24   , As1 , v082
        .byte           N06   , Cn2 , v088
        .byte   W06
        .byte                   Cn2
        .byte   W06
        .byte           N12   , Ds1
        .byte           N06   , Bn1
        .byte   W06
        .byte                   Bn1
        .byte   W06
@ 014   ----------------------------------------
MilasDivineProtection_1_8_14:
        .byte           N12   , Cn1 , v120
        .byte           N06   , Dn3 , v088
        .byte           N12   , Dn1 , v096
        .byte   W12
        .byte           N06   , Gs2 , v088
        .byte   W06
        .byte                   Dn3
        .byte           N06   , Cn1
        .byte   W06
        .byte           N12   , As1 , v082
        .byte           N06   , Ds3 , v088
        .byte           N12   , Ds1
        .byte   W12
        .byte           N06   , Dn3
        .byte           N12   , Dn1 , v098
        .byte   W12
        .byte           N06   , Cn1 , v120
        .byte           N06   , Gs2 , v088
        .byte   W12
        .byte                   Dn3
        .byte           N12   , Dn1
        .byte   W12
        .byte           N06   , Cn1 , v120
        .byte           N12   , As1 , v082
        .byte           N06   , Ds3 , v088
        .byte           N24   , Ds1 , v112
        .byte   W12
        .byte           N06   , Dn3 , v088
        .byte   W12
        .byte   PEND
@ 015   ----------------------------------------
MilasDivineProtection_1_8_15:
        .byte           N12   , Cn1 , v120
        .byte           N06   , Dn3 , v088
        .byte           N12   , Dn1 , v096
        .byte   W12
        .byte           N06   , Gs2 , v088
        .byte   W06
        .byte                   Dn3
        .byte           N06   , Cn1
        .byte   W06
        .byte           N12   , As1 , v082
        .byte           N06   , Ds3 , v088
        .byte           N12   , Ds1
        .byte   W12
        .byte           N06   , Dn3
        .byte           N12   , Dn1 , v098
        .byte   W12
        .byte           N06   , Cn1 , v120
        .byte           N06   , Gs2 , v088
        .byte   W12
        .byte                   Dn3
        .byte           N12   , Dn1
        .byte   W12
        .byte           N06   , Cn1 , v120
        .byte           N12   , As1 , v082
        .byte           N06   , Ds3 , v088
        .byte           N12   , Ds1 , v112
        .byte           N06   , Gs2 , v088
        .byte   W12
        .byte                   Dn3
        .byte           N12   , Ds1
        .byte   W12
        .byte   PEND
@ 016   ----------------------------------------
        .byte   PATT
         .word  MilasDivineProtection_1_8_14
@ 017   ----------------------------------------
        .byte   PATT
         .word  MilasDivineProtection_1_8_15
@ 018   ----------------------------------------
        .byte   PATT
         .word  MilasDivineProtection_1_8_14
@ 019   ----------------------------------------
MilasDivineProtection_1_8_19:
        .byte           N12   , Cn1 , v120
        .byte           N06   , Dn3 , v088
        .byte   W12
        .byte           N12   , Ds1 , v112
        .byte           N06   , Gs2 , v088
        .byte   W06
        .byte                   Dn3
        .byte           N06   , Cn1
        .byte   W06
        .byte           N12   , As1 , v082
        .byte           N06   , Ds3 , v088
        .byte   W12
        .byte                   Dn3
        .byte           N12   , Dn1 , v098
        .byte           N12   , Ds1 , v112
        .byte           N12   , As1 , v088
        .byte   W12
        .byte           N06   , Cn1 , v120
        .byte           N06   , Gs2 , v088
        .byte   W12
        .byte                   Dn3
        .byte           N12   , Dn1
        .byte           N06   , Ds1 , v112
        .byte   W12
        .byte                   Cn1 , v120
        .byte           N12   , As1 , v082
        .byte           N06   , Ds3 , v088
        .byte           N12   , Ds1 , v112
        .byte           N06   , Gs2 , v088
        .byte   W12
        .byte                   Dn3
        .byte           N12   , Ds1
        .byte           N06   , Gs2
        .byte   W12
        .byte   PEND
@ 020   ----------------------------------------
        .byte   PATT
         .word  MilasDivineProtection_1_8_14
@ 021   ----------------------------------------
        .byte   PATT
         .word  MilasDivineProtection_1_8_15
@ 022   ----------------------------------------
        .byte   PATT
         .word  MilasDivineProtection_1_8_14
@ 023   ----------------------------------------
        .byte   PATT
         .word  MilasDivineProtection_1_8_19
@ 024   ----------------------------------------
        .byte   PATT
         .word  MilasDivineProtection_1_8_14
@ 025   ----------------------------------------
        .byte   PATT
         .word  MilasDivineProtection_1_8_15
@ 026   ----------------------------------------
        .byte   PATT
         .word  MilasDivineProtection_1_8_14
@ 027   ----------------------------------------
        .byte           N12   , Cn1 , v120
        .byte           N06   , Dn3 , v088
        .byte   W12
        .byte           N12   , Ds1 , v112
        .byte           N06   , Gs2 , v088
        .byte   W06
        .byte                   Dn3
        .byte           N06   , Cn1
        .byte   W06
        .byte           N12   , As1 , v082
        .byte           N06   , Ds3 , v088
        .byte   W12
        .byte                   Dn3
        .byte           N12   , Dn1 , v098
        .byte           N12   , Ds1 , v112
        .byte           N12   , As1 , v088
        .byte   W12
        .byte           N03   , Cn2 , v082
        .byte           N06   , Cn1 , v120
        .byte   W06
        .byte           N03   , Cn2 , v082
        .byte   W06
        .byte                   Cn2
        .byte           N12   , Dn1 , v088
        .byte           N06   , Ds1 , v112
        .byte   W06
        .byte           N03   , Cn2 , v082
        .byte   W06
        .byte                   Bn1
        .byte           N06   , Cn1 , v120
        .byte           N12   , Ds1 , v112
        .byte           N12   , Gn2 , v088
        .byte   W06
        .byte           N03   , Bn1 , v082
        .byte   W06
        .byte                   Bn1
        .byte           N12   , Ds1 , v088
        .byte           N12   , Gn2 , v072
        .byte   W06
        .byte           N01   , DnM2 , v082
        .byte           N03   , Bn1
        .byte   W06
@ 028   ----------------------------------------
        .byte   GOTO
         .word  MilasDivineProtection_1_8_LOOP
        .byte   W96
@ 029   ----------------------------------------
        .byte   W96
@ 030   ----------------------------------------
        .byte   W96
@ 031   ----------------------------------------
        .byte   W96
@ 032   ----------------------------------------
        .byte   W96
@ 033   ----------------------------------------
        .byte   W96
@ 034   ----------------------------------------
        .byte   W96
@ 035   ----------------------------------------
        .byte   W96
@ 036   ----------------------------------------
        .byte   W96
@ 037   ----------------------------------------
        .byte   W96
@ 038   ----------------------------------------
        .byte   W96
@ 039   ----------------------------------------
        .byte   W96
@ 040   ----------------------------------------
        .byte   W96
@ 041   ----------------------------------------
        .byte   W96
@ 042   ----------------------------------------
        .byte   W96
@ 043   ----------------------------------------
        .byte   W96
@ 044   ----------------------------------------
        .byte   W96
@ 045   ----------------------------------------
        .byte   W96
@ 046   ----------------------------------------
        .byte   W96
@ 047   ----------------------------------------
        .byte   W96
@ 048   ----------------------------------------
        .byte   W96
@ 049   ----------------------------------------
        .byte   W96
@ 050   ----------------------------------------
        .byte   W96
@ 051   ----------------------------------------
        .byte   W96
@ 052   ----------------------------------------
        .byte   W96
@ 053   ----------------------------------------
        .byte   W96
@ 054   ----------------------------------------
        .byte   W96
@ 055   ----------------------------------------
        .byte   FINE


@********************** End of Song ***********************@

        .align  2
MilasDivineProtection_1:
        .byte   9                       @ Num Tracks
        .byte   0                       @ Unknown
        .byte   MilasDivineProtection_1_pri @ Priority
        .byte   MilasDivineProtection_1_rev @ Reverb

        .word   MilasDivineProtection_1_grp

        .word   MilasDivineProtection_1_0
        .word   MilasDivineProtection_1_1
        .word   MilasDivineProtection_1_2
        .word   MilasDivineProtection_1_3
        .word   MilasDivineProtection_1_4
        .word   MilasDivineProtection_1_5
        .word   MilasDivineProtection_1_6
        .word   MilasDivineProtection_1_7
        .word   MilasDivineProtection_1_8

        .end
