        .include "MPlayDef.s"

        .equ    Omen_grp, voicegroup000
        .equ    Omen_pri, 0
        .equ    Omen_rev, 0
        .equ    Omen_key, 0

        .section .rodata
        .global Omen
        .align  2

@****************** Track 0 (Midi-Chn.0) ******************@

Omen_0:
        .byte   KEYSH , Omen_key+0
@ 000   ----------------------------------------
        .byte   TEMPO , 126/2
Omen_0_LOOP:
        .byte           VOICE , 52
        .byte           VOL   , 54
        .byte           PAN   , c_v+12
        .byte           TIE   , Gn3 , v126
        .byte   W96
@ 001   ----------------------------------------
        .byte   W96
@ 002   ----------------------------------------
        .byte           EOT
        .byte           TIE   , Fs3
        .byte   W96
@ 003   ----------------------------------------
        .byte   W96
@ 004   ----------------------------------------
        .byte           EOT
        .byte           TIE   , En3
        .byte   W96
@ 005   ----------------------------------------
        .byte   W96
@ 006   ----------------------------------------
        .byte           EOT
        .byte           TIE   , Dn3
        .byte   W96
@ 007   ----------------------------------------
        .byte   W96
@ 008   ----------------------------------------
        .byte           EOT
        .byte           N48   , Gn3
        .byte   W48
        .byte                   Dn4
        .byte   W48
@ 009   ----------------------------------------
        .byte           N96   , Gn3
        .byte   W96
@ 010   ----------------------------------------
        .byte           N48   , Bn3
        .byte   W48
        .byte           N24   , An3
        .byte   W24
        .byte                   Gn3
        .byte   W24
@ 011   ----------------------------------------
        .byte           N96   , Fs3
        .byte   W96
@ 012   ----------------------------------------
        .byte           N48   , En3
        .byte   W48
        .byte                   Dn4
        .byte   W48
@ 013   ----------------------------------------
        .byte           N96   , En4
        .byte   W96
@ 014   ----------------------------------------
        .byte                   Fs3
        .byte   W96
@ 015   ----------------------------------------
        .byte   W48
        .byte           N48   , Dn3
        .byte   W48
@ 016   ----------------------------------------
        .byte           TIE   , Bn3
        .byte   W96
@ 017   ----------------------------------------
Omen_0_17:
        .byte   W48
        .byte           EOT   , Bn3
        .byte           N18   , Bn3 , v126
        .byte   W18
        .byte                   An3
        .byte   W18
        .byte           N12   , Gn3
        .byte   W12
        .byte   PEND
@ 018   ----------------------------------------
Omen_0_18:
        .byte           N48   , Fs3 , v126
        .byte   W48
        .byte                   Gn3
        .byte   W48
        .byte   PEND
@ 019   ----------------------------------------
Omen_0_19:
        .byte           N48   , An3 , v126
        .byte   W48
        .byte                   Dn4
        .byte   W48
        .byte   PEND
@ 020   ----------------------------------------
        .byte           TIE   , An3
        .byte   W96
@ 021   ----------------------------------------
        .byte   W48
        .byte           EOT
        .byte           N18   , Bn3
        .byte   W18
        .byte                   An3
        .byte   W18
        .byte           N12   , Gn3
        .byte   W12
@ 022   ----------------------------------------
        .byte           N96   , Fs3
        .byte   W96
@ 023   ----------------------------------------
        .byte           N48   , Gn3
        .byte   W48
        .byte                   Dn3
        .byte   W48
@ 024   ----------------------------------------
        .byte           TIE   , Bn3
        .byte   W96
@ 025   ----------------------------------------
        .byte   PATT
         .word  Omen_0_17
@ 026   ----------------------------------------
        .byte   PATT
         .word  Omen_0_18
@ 027   ----------------------------------------
        .byte   PATT
         .word  Omen_0_19
@ 028   ----------------------------------------
Omen_0_28:
        .byte           N24   , En4 , v126
        .byte   W24
        .byte                   Fs4
        .byte   W24
        .byte           N96   , Dn4
        .byte   W48
        .byte   PEND
@ 029   ----------------------------------------
Omen_0_29:
        .byte   W48
        .byte           N48   , Bn3 , v126
        .byte   W48
        .byte   PEND
@ 030   ----------------------------------------
        .byte           TIE   , En4
        .byte   W96
@ 031   ----------------------------------------
        .byte   W96
@ 032   ----------------------------------------
Omen_0_32:
        .byte           EOT   , En4
        .byte   W24
        .byte           N24   , En4 , v126
        .byte   W24
        .byte                   Dn4
        .byte   W24
        .byte                   An3
        .byte   W24
        .byte   PEND
@ 033   ----------------------------------------
Omen_0_33:
        .byte           N48   , Bn3 , v126
        .byte   W48
        .byte           N24   , Gn3
        .byte   W24
        .byte                   An3
        .byte   W24
        .byte   PEND
@ 034   ----------------------------------------
Omen_0_34:
        .byte           N48   , Bn3 , v126
        .byte   W48
        .byte                   Gn4
        .byte   W48
        .byte   PEND
@ 035   ----------------------------------------
Omen_0_35:
        .byte           N48   , Fs4 , v126
        .byte   W48
        .byte                   Dn4
        .byte   W48
        .byte   PEND
@ 036   ----------------------------------------
Omen_0_36:
        .byte   W24
        .byte           N24   , En4 , v126
        .byte   W24
        .byte                   Dn4
        .byte   W24
        .byte                   An3
        .byte   W24
        .byte   PEND
@ 037   ----------------------------------------
        .byte   PATT
         .word  Omen_0_33
@ 038   ----------------------------------------
Omen_0_38:
        .byte           N48   , Bn3 , v126
        .byte   W48
        .byte                   En4
        .byte   W48
        .byte   PEND
@ 039   ----------------------------------------
Omen_0_39:
        .byte           N48   , Ds4 , v126
        .byte   W48
        .byte                   Bn3
        .byte   W48
        .byte   PEND
@ 040   ----------------------------------------
Omen_0_40:
        .byte           N48   , An3 , v126
        .byte   W48
        .byte           N96   , Gn3
        .byte   W48
        .byte   PEND
@ 041   ----------------------------------------
Omen_0_41:
        .byte   W48
        .byte           N18   , En3 , v126
        .byte   W18
        .byte                   Fs3
        .byte   W18
        .byte           N12   , Gn3
        .byte   W12
        .byte   PEND
@ 042   ----------------------------------------
Omen_0_42:
        .byte           N48   , An3 , v126
        .byte   W48
        .byte                   Gn3
        .byte   W48
        .byte   PEND
@ 043   ----------------------------------------
Omen_0_43:
        .byte           N48   , Fs3 , v126
        .byte   W48
        .byte                   Dn3
        .byte   W48
        .byte   PEND
@ 044   ----------------------------------------
        .byte   PATT
         .word  Omen_0_40
@ 045   ----------------------------------------
        .byte   PATT
         .word  Omen_0_41
@ 046   ----------------------------------------
        .byte           N48   , An3 , v126
        .byte   W48
        .byte                   Dn4
        .byte           N48   , An3
        .byte   W48
@ 047   ----------------------------------------
        .byte           N96   , Fs4
        .byte           N96   , Dn4
        .byte   W96
@ 048   ----------------------------------------
        .byte   GOTO
         .word  Omen_0_LOOP
        .byte   FINE

@****************** Track 1 (Midi-Chn.1) ******************@

Omen_1:
        .byte   KEYSH , Omen_key+0
@ 000   ----------------------------------------
Omen_1_LOOP:
        .byte           VOICE , 42
        .byte           PAN   , c_v-32
        .byte           VOL   , 60
        .byte           N18   , Gn1 , v126
        .byte   W18
        .byte           N06
        .byte   W30
        .byte           N12
        .byte   W12
        .byte                   Gn1
        .byte   W36
@ 001   ----------------------------------------
Omen_1_1:
        .byte           N18   , Gn1 , v126
        .byte   W18
        .byte           N06
        .byte   W30
        .byte           N12
        .byte   W12
        .byte                   Gn1
        .byte   W36
        .byte   PEND
@ 002   ----------------------------------------
        .byte   PATT
         .word  Omen_1_1
@ 003   ----------------------------------------
        .byte   PATT
         .word  Omen_1_1
@ 004   ----------------------------------------
        .byte   PATT
         .word  Omen_1_1
@ 005   ----------------------------------------
        .byte   PATT
         .word  Omen_1_1
@ 006   ----------------------------------------
        .byte   PATT
         .word  Omen_1_1
@ 007   ----------------------------------------
        .byte   PATT
         .word  Omen_1_1
@ 008   ----------------------------------------
        .byte   PATT
         .word  Omen_1_1
@ 009   ----------------------------------------
        .byte   PATT
         .word  Omen_1_1
@ 010   ----------------------------------------
        .byte   PATT
         .word  Omen_1_1
@ 011   ----------------------------------------
        .byte   PATT
         .word  Omen_1_1
@ 012   ----------------------------------------
        .byte   PATT
         .word  Omen_1_1
@ 013   ----------------------------------------
        .byte   PATT
         .word  Omen_1_1
@ 014   ----------------------------------------
        .byte   PATT
         .word  Omen_1_1
@ 015   ----------------------------------------
        .byte   W48
        .byte           N48   , Dn2 , v126
        .byte   W48
@ 016   ----------------------------------------
        .byte           TIE   , Bn2
        .byte   W96
@ 017   ----------------------------------------
Omen_1_17:
        .byte   W48
        .byte           EOT   , Bn2
        .byte           N18   , Bn2 , v126
        .byte   W18
        .byte                   An2
        .byte   W18
        .byte           N12   , Gn2
        .byte   W12
        .byte   PEND
@ 018   ----------------------------------------
Omen_1_18:
        .byte           N48   , Fs2 , v126
        .byte   W48
        .byte                   Gn2
        .byte   W48
        .byte   PEND
@ 019   ----------------------------------------
Omen_1_19:
        .byte           N48   , An2 , v126
        .byte   W48
        .byte                   Dn3
        .byte   W48
        .byte   PEND
@ 020   ----------------------------------------
        .byte           TIE   , An2
        .byte   W96
@ 021   ----------------------------------------
        .byte   W48
        .byte           EOT
        .byte           N18   , Bn2
        .byte   W18
        .byte                   An2
        .byte   W18
        .byte           N12   , Gn2
        .byte   W12
@ 022   ----------------------------------------
        .byte           N96   , Fs2
        .byte   W96
@ 023   ----------------------------------------
        .byte           N48   , Gn2
        .byte   W48
        .byte                   Dn2
        .byte   W48
@ 024   ----------------------------------------
        .byte           TIE   , Bn2
        .byte   W96
@ 025   ----------------------------------------
        .byte   PATT
         .word  Omen_1_17
@ 026   ----------------------------------------
        .byte   PATT
         .word  Omen_1_18
@ 027   ----------------------------------------
        .byte   PATT
         .word  Omen_1_19
@ 028   ----------------------------------------
        .byte           N24   , En3 , v126
        .byte   W24
        .byte                   Fs3
        .byte   W24
        .byte           N96   , Dn3
        .byte   W48
@ 029   ----------------------------------------
        .byte   W48
        .byte           N48   , Bn2
        .byte   W48
@ 030   ----------------------------------------
        .byte           TIE   , En3
        .byte   W96
@ 031   ----------------------------------------
        .byte   W96
@ 032   ----------------------------------------
        .byte           EOT
        .byte   W24
        .byte           N24
        .byte   W24
        .byte                   Dn3
        .byte   W24
        .byte                   An2
        .byte   W24
@ 033   ----------------------------------------
Omen_1_33:
        .byte           N48   , Bn2 , v126
        .byte   W48
        .byte           N24   , Gn2
        .byte   W24
        .byte                   An2
        .byte   W24
        .byte   PEND
@ 034   ----------------------------------------
        .byte           N48   , Bn2
        .byte   W48
        .byte                   Gn3
        .byte   W48
@ 035   ----------------------------------------
        .byte   PATT
         .word  Omen_0_43
@ 036   ----------------------------------------
        .byte   W24
        .byte           N24   , En3 , v126
        .byte   W24
        .byte                   Dn3
        .byte   W24
        .byte                   An2
        .byte   W24
@ 037   ----------------------------------------
        .byte   PATT
         .word  Omen_1_33
@ 038   ----------------------------------------
        .byte           N48   , Bn2 , v126
        .byte   W48
        .byte                   En3
        .byte   W48
@ 039   ----------------------------------------
        .byte                   Ds3
        .byte   W48
        .byte                   Bn2
        .byte   W48
@ 040   ----------------------------------------
        .byte                   An2
        .byte   W48
        .byte           N96   , Gn2
        .byte   W48
@ 041   ----------------------------------------
        .byte   W48
        .byte           N18   , En2
        .byte   W18
        .byte                   Fs2
        .byte   W18
        .byte           N12   , Gn2
        .byte   W12
@ 042   ----------------------------------------
        .byte           N48   , An2
        .byte   W48
        .byte                   Gn2
        .byte   W48
@ 043   ----------------------------------------
        .byte                   Dn2
        .byte   W48
        .byte                   Bn1
        .byte   W48
@ 044   ----------------------------------------
        .byte                   Fs2
        .byte   W48
        .byte           N96   , En2
        .byte   W48
@ 045   ----------------------------------------
        .byte   W48
        .byte           N18   , Cn2
        .byte   W18
        .byte                   Dn2
        .byte   W18
        .byte           N12   , En2
        .byte   W12
@ 046   ----------------------------------------
        .byte           N48   , Fs2
        .byte   W48
        .byte           TIE   , Dn3
        .byte   W48
@ 047   ----------------------------------------
        .byte   W96
@ 048   ----------------------------------------
        .byte           EOT
        .byte   GOTO
         .word  Omen_1_LOOP
        .byte   FINE

@****************** Track 2 (Midi-Chn.2) ******************@

Omen_2:
        .byte   KEYSH , Omen_key+0
@ 000   ----------------------------------------
Omen_2_LOOP:
        .byte           VOICE , 106
        .byte           PAN   , c_v+27
        .byte           VOL   , 62
        .byte           N18   , Gn3 , v126
        .byte   W18
        .byte           N06
        .byte   W30
        .byte           N12
        .byte   W12
        .byte                   Gn3
        .byte   W36
@ 001   ----------------------------------------
        .byte           N18
        .byte   W18
        .byte           N06
        .byte   W30
        .byte           N12
        .byte   W12
        .byte                   Gn3
        .byte   W36
@ 002   ----------------------------------------
Omen_2_2:
        .byte           N18   , Dn3 , v126
        .byte   W18
        .byte           N06
        .byte   W30
        .byte           N12
        .byte   W12
        .byte                   Dn3
        .byte   W36
        .byte   PEND
@ 003   ----------------------------------------
        .byte   PATT
         .word  Omen_2_2
@ 004   ----------------------------------------
Omen_2_4:
        .byte           N18   , En3 , v126
        .byte   W18
        .byte           N06
        .byte   W30
        .byte           N12
        .byte   W12
        .byte                   En3
        .byte   W36
        .byte   PEND
@ 005   ----------------------------------------
        .byte   PATT
         .word  Omen_2_4
@ 006   ----------------------------------------
        .byte   PATT
         .word  Omen_2_2
@ 007   ----------------------------------------
        .byte   PATT
         .word  Omen_2_2
@ 008   ----------------------------------------
Omen_2_8:
        .byte           N12   , Gn3 , v126
        .byte   W12
        .byte           N06   , Fs3
        .byte   W06
        .byte                   Gn3
        .byte   W30
        .byte           N12
        .byte   W12
        .byte                   Gn3
        .byte   W36
        .byte   PEND
@ 009   ----------------------------------------
        .byte   PATT
         .word  Omen_2_8
@ 010   ----------------------------------------
        .byte   PATT
         .word  Omen_2_2
@ 011   ----------------------------------------
        .byte   PATT
         .word  Omen_2_2
@ 012   ----------------------------------------
        .byte   PATT
         .word  Omen_2_4
@ 013   ----------------------------------------
        .byte   PATT
         .word  Omen_2_4
@ 014   ----------------------------------------
        .byte           N18   , Fs3 , v126
        .byte   W18
        .byte           N06
        .byte   W30
        .byte           N12
        .byte   W12
        .byte                   Fs3
        .byte   W36
@ 015   ----------------------------------------
        .byte           N18   , Gn3
        .byte   W18
        .byte           N12
        .byte   W12
        .byte                   Dn4
        .byte   W66
@ 016   ----------------------------------------
        .byte   W96
@ 017   ----------------------------------------
        .byte   W96
@ 018   ----------------------------------------
        .byte   W96
@ 019   ----------------------------------------
        .byte   W96
@ 020   ----------------------------------------
        .byte   W96
@ 021   ----------------------------------------
        .byte   W96
@ 022   ----------------------------------------
        .byte   W96
@ 023   ----------------------------------------
        .byte   W96
@ 024   ----------------------------------------
        .byte           TIE   , Bn3
        .byte   W96
@ 025   ----------------------------------------
        .byte   PATT
         .word  Omen_0_17
@ 026   ----------------------------------------
        .byte   PATT
         .word  Omen_0_18
@ 027   ----------------------------------------
        .byte   PATT
         .word  Omen_0_19
@ 028   ----------------------------------------
        .byte   PATT
         .word  Omen_0_28
@ 029   ----------------------------------------
        .byte   PATT
         .word  Omen_0_29
@ 030   ----------------------------------------
        .byte           TIE   , En4 , v126
        .byte   W96
@ 031   ----------------------------------------
        .byte   W96
@ 032   ----------------------------------------
        .byte   PATT
         .word  Omen_0_32
@ 033   ----------------------------------------
        .byte   PATT
         .word  Omen_0_33
@ 034   ----------------------------------------
        .byte   PATT
         .word  Omen_0_34
@ 035   ----------------------------------------
        .byte   PATT
         .word  Omen_0_35
@ 036   ----------------------------------------
        .byte   PATT
         .word  Omen_0_36
@ 037   ----------------------------------------
        .byte   PATT
         .word  Omen_0_33
@ 038   ----------------------------------------
        .byte   PATT
         .word  Omen_0_38
@ 039   ----------------------------------------
        .byte   PATT
         .word  Omen_0_39
@ 040   ----------------------------------------
        .byte   PATT
         .word  Omen_0_40
@ 041   ----------------------------------------
        .byte   PATT
         .word  Omen_0_41
@ 042   ----------------------------------------
        .byte   PATT
         .word  Omen_0_42
@ 043   ----------------------------------------
        .byte   PATT
         .word  Omen_0_43
@ 044   ----------------------------------------
        .byte   PATT
         .word  Omen_0_40
@ 045   ----------------------------------------
        .byte   PATT
         .word  Omen_0_41
@ 046   ----------------------------------------
        .byte           TIE   , An3 , v126
        .byte   W96
@ 047   ----------------------------------------
        .byte   W96
@ 048   ----------------------------------------
        .byte           EOT
        .byte   GOTO
         .word  Omen_2_LOOP
        .byte   FINE

@****************** Track 3 (Midi-Chn.3) ******************@

Omen_3:
        .byte   KEYSH , Omen_key+0
@ 000   ----------------------------------------
Omen_3_LOOP:
        .byte           VOICE , 41
        .byte           VOL   , 39
        .byte           PAN   , c_v-11
        .byte           TIE   , Gn3 , v126
        .byte           TIE   , Bn2
        .byte   W96
@ 001   ----------------------------------------
        .byte   W96
@ 002   ----------------------------------------
        .byte           EOT
        .byte           EOT   , Gn3
        .byte           TIE   , Dn3
        .byte           TIE   , An2
        .byte   W96
@ 003   ----------------------------------------
        .byte   W96
@ 004   ----------------------------------------
Omen_3_4:
        .byte           EOT   , An2
        .byte                   Dn3
        .byte           TIE   , Cn3 , v126
        .byte           TIE   , Gn2
        .byte   W96
        .byte   PEND
@ 005   ----------------------------------------
        .byte   W96
@ 006   ----------------------------------------
Omen_3_6:
        .byte           EOT   , Gn2
        .byte                   Cn3
        .byte           TIE   , An2 , v126
        .byte           TIE   , Fs2
        .byte   W96
        .byte   PEND
@ 007   ----------------------------------------
        .byte   W96
@ 008   ----------------------------------------
        .byte           EOT
        .byte           EOT   , An2
        .byte           TIE   , Bn2
        .byte           TIE   , En3
        .byte   W96
@ 009   ----------------------------------------
        .byte   W96
@ 010   ----------------------------------------
        .byte           EOT
        .byte           EOT   , Bn2
        .byte           TIE   , Dn3
        .byte           TIE   , An2
        .byte   W96
@ 011   ----------------------------------------
        .byte   W96
@ 012   ----------------------------------------
        .byte   PATT
         .word  Omen_3_4
@ 013   ----------------------------------------
        .byte   W96
@ 014   ----------------------------------------
        .byte   PATT
         .word  Omen_3_6
@ 015   ----------------------------------------
        .byte   W96
@ 016   ----------------------------------------
Omen_3_16:
        .byte           EOT   , Fs2
        .byte                   An2
        .byte           TIE   , En3 , v126
        .byte           TIE   , Bn2
        .byte   W96
        .byte   PEND
@ 017   ----------------------------------------
        .byte   W96
@ 018   ----------------------------------------
Omen_3_18:
        .byte           EOT   , Bn2
        .byte                   En3
        .byte           TIE   , Dn3 , v126
        .byte           TIE   , An2
        .byte   W96
        .byte   PEND
@ 019   ----------------------------------------
        .byte   W96
@ 020   ----------------------------------------
Omen_3_20:
        .byte           EOT   , An2
        .byte                   Dn3
        .byte           TIE   , Gn2 , v126
        .byte           TIE   , Cn3
        .byte   W96
        .byte   PEND
@ 021   ----------------------------------------
        .byte   W96
@ 022   ----------------------------------------
        .byte           EOT
        .byte           EOT   , Gn2
        .byte           TIE   , Fs2
        .byte           TIE   , Bn2
        .byte   W96
@ 023   ----------------------------------------
        .byte   W96
@ 024   ----------------------------------------
        .byte           EOT
        .byte           EOT   , Fs2
        .byte           TIE   , En3
        .byte           TIE   , Bn2
        .byte   W96
@ 025   ----------------------------------------
        .byte   W96
@ 026   ----------------------------------------
        .byte   PATT
         .word  Omen_3_18
@ 027   ----------------------------------------
        .byte   W96
@ 028   ----------------------------------------
        .byte   PATT
         .word  Omen_3_4
@ 029   ----------------------------------------
        .byte   W96
@ 030   ----------------------------------------
        .byte   PATT
         .word  Omen_3_6
@ 031   ----------------------------------------
        .byte   W96
@ 032   ----------------------------------------
        .byte   PATT
         .word  Omen_3_16
@ 033   ----------------------------------------
        .byte   W96
@ 034   ----------------------------------------
        .byte   PATT
         .word  Omen_3_18
@ 035   ----------------------------------------
        .byte   W96
@ 036   ----------------------------------------
        .byte   PATT
         .word  Omen_3_20
@ 037   ----------------------------------------
        .byte   W96
@ 038   ----------------------------------------
Omen_3_38:
        .byte           EOT   , Cn3
        .byte                   Gn2
        .byte           TIE   , An2 , v126
        .byte           TIE   , Fs2
        .byte   W96
        .byte   PEND
@ 039   ----------------------------------------
        .byte   W96
@ 040   ----------------------------------------
        .byte   PATT
         .word  Omen_3_16
@ 041   ----------------------------------------
        .byte   W96
@ 042   ----------------------------------------
        .byte           EOT   , Bn2
        .byte                   En3
        .byte           TIE   , An2 , v126
        .byte           TIE   , Dn3
        .byte   W96
@ 043   ----------------------------------------
        .byte   W96
@ 044   ----------------------------------------
        .byte           EOT
        .byte           EOT   , An2
        .byte           TIE   , Gn2
        .byte           TIE   , Cn3
        .byte   W96
@ 045   ----------------------------------------
        .byte   W96
@ 046   ----------------------------------------
        .byte   PATT
         .word  Omen_3_38
@ 047   ----------------------------------------
        .byte   W96
@ 048   ----------------------------------------
        .byte           EOT   , Fs2
        .byte                   An2
        .byte   GOTO
         .word  Omen_3_LOOP
        .byte   FINE

@****************** Track 4 (Midi-Chn.4) ******************@

Omen_4:
        .byte   KEYSH , Omen_key+0
@ 000   ----------------------------------------
Omen_4_LOOP:
        .byte           VOICE , 109
        .byte           VOL   , 44
        .byte           PAN   , c_v+34
        .byte           TIE   , En1 , v126
        .byte   W96
@ 001   ----------------------------------------
        .byte   W96
@ 002   ----------------------------------------
Omen_4_2:
        .byte           EOT   , En1
        .byte           TIE   , Dn1 , v126
        .byte   W96
        .byte   PEND
@ 003   ----------------------------------------
        .byte   W96
@ 004   ----------------------------------------
Omen_4_4:
        .byte           EOT   , Dn1
        .byte           TIE   , Cn1 , v126
        .byte   W96
        .byte   PEND
@ 005   ----------------------------------------
        .byte   W96
@ 006   ----------------------------------------
Omen_4_6:
        .byte           EOT   , Cn1
        .byte           TIE   , Dn1 , v126
        .byte   W96
        .byte   PEND
@ 007   ----------------------------------------
        .byte   W96
@ 008   ----------------------------------------
Omen_4_8:
        .byte           EOT   , Dn1
        .byte           TIE   , En1 , v126
        .byte   W96
        .byte   PEND
@ 009   ----------------------------------------
        .byte   W96
@ 010   ----------------------------------------
        .byte   PATT
         .word  Omen_4_2
@ 011   ----------------------------------------
        .byte   W96
@ 012   ----------------------------------------
        .byte   PATT
         .word  Omen_4_4
@ 013   ----------------------------------------
        .byte   W96
@ 014   ----------------------------------------
        .byte   PATT
         .word  Omen_4_6
@ 015   ----------------------------------------
        .byte   W96
@ 016   ----------------------------------------
        .byte   PATT
         .word  Omen_4_8
@ 017   ----------------------------------------
        .byte   W96
@ 018   ----------------------------------------
        .byte   PATT
         .word  Omen_4_2
@ 019   ----------------------------------------
        .byte   W96
@ 020   ----------------------------------------
        .byte   PATT
         .word  Omen_4_4
@ 021   ----------------------------------------
        .byte   W96
@ 022   ----------------------------------------
        .byte   PATT
         .word  Omen_4_6
@ 023   ----------------------------------------
        .byte   W96
@ 024   ----------------------------------------
        .byte   PATT
         .word  Omen_4_8
@ 025   ----------------------------------------
        .byte   W96
@ 026   ----------------------------------------
        .byte   PATT
         .word  Omen_4_2
@ 027   ----------------------------------------
        .byte   W96
@ 028   ----------------------------------------
        .byte   PATT
         .word  Omen_4_4
@ 029   ----------------------------------------
        .byte   W96
@ 030   ----------------------------------------
        .byte   PATT
         .word  Omen_4_6
@ 031   ----------------------------------------
        .byte   W96
@ 032   ----------------------------------------
        .byte           EOT   , Dn1
        .byte   W96
@ 033   ----------------------------------------
        .byte   W96
@ 034   ----------------------------------------
        .byte   W96
@ 035   ----------------------------------------
        .byte   W96
@ 036   ----------------------------------------
        .byte   W96
@ 037   ----------------------------------------
        .byte   W96
@ 038   ----------------------------------------
        .byte   W96
@ 039   ----------------------------------------
        .byte   W96
@ 040   ----------------------------------------
        .byte           TIE   , En1 , v126
        .byte   W96
@ 041   ----------------------------------------
        .byte   W96
@ 042   ----------------------------------------
        .byte           EOT
        .byte           TIE   , Gn1
        .byte   W96
@ 043   ----------------------------------------
        .byte   W96
@ 044   ----------------------------------------
        .byte           EOT
        .byte           TIE   , Cn1
        .byte   W96
@ 045   ----------------------------------------
        .byte   W96
@ 046   ----------------------------------------
        .byte   PATT
         .word  Omen_4_6
@ 047   ----------------------------------------
        .byte   W96
@ 048   ----------------------------------------
        .byte           EOT   , Dn1
        .byte   GOTO
         .word  Omen_4_LOOP
        .byte   FINE

@****************** Track 5 (Midi-Chn.5) ******************@

Omen_5:
        .byte   KEYSH , Omen_key+0
@ 000   ----------------------------------------
Omen_5_LOOP:
        .byte           VOICE , 91
        .byte           VOL   , 41
        .byte           PAN   , c_v-29
        .byte           N96   , Gn2 , v126
        .byte   W96
@ 001   ----------------------------------------
        .byte   W96
@ 002   ----------------------------------------
        .byte                   Gn1
        .byte   W96
@ 003   ----------------------------------------
        .byte   W96
@ 004   ----------------------------------------
        .byte                   Gn1
        .byte   W96
@ 005   ----------------------------------------
        .byte   W96
@ 006   ----------------------------------------
        .byte                   Gn1
        .byte   W96
@ 007   ----------------------------------------
        .byte   W96
@ 008   ----------------------------------------
        .byte                   Gn2
        .byte   W96
@ 009   ----------------------------------------
        .byte   W96
@ 010   ----------------------------------------
        .byte                   Gn1
        .byte   W96
@ 011   ----------------------------------------
        .byte   W96
@ 012   ----------------------------------------
        .byte                   Gn1
        .byte   W96
@ 013   ----------------------------------------
        .byte   W96
@ 014   ----------------------------------------
        .byte                   Gn1
        .byte   W96
@ 015   ----------------------------------------
        .byte   W96
@ 016   ----------------------------------------
        .byte                   Gn1
        .byte   W96
@ 017   ----------------------------------------
        .byte   W96
@ 018   ----------------------------------------
        .byte                   Gn1
        .byte   W96
@ 019   ----------------------------------------
        .byte   W96
@ 020   ----------------------------------------
        .byte                   Gn1
        .byte   W96
@ 021   ----------------------------------------
        .byte   W96
@ 022   ----------------------------------------
        .byte                   Gn1
        .byte   W96
@ 023   ----------------------------------------
        .byte   W96
@ 024   ----------------------------------------
        .byte                   Gn1
        .byte   W96
@ 025   ----------------------------------------
        .byte   W96
@ 026   ----------------------------------------
        .byte                   Gn1
        .byte   W96
@ 027   ----------------------------------------
        .byte   W96
@ 028   ----------------------------------------
        .byte                   Gn1
        .byte   W96
@ 029   ----------------------------------------
        .byte   W96
@ 030   ----------------------------------------
        .byte                   Gn1
        .byte   W96
@ 031   ----------------------------------------
        .byte   W96
@ 032   ----------------------------------------
        .byte                   Gn2
        .byte   W96
@ 033   ----------------------------------------
        .byte   W96
@ 034   ----------------------------------------
        .byte   W96
@ 035   ----------------------------------------
        .byte   W96
@ 036   ----------------------------------------
        .byte   W96
@ 037   ----------------------------------------
        .byte   W96
@ 038   ----------------------------------------
        .byte   W96
@ 039   ----------------------------------------
        .byte   W96
@ 040   ----------------------------------------
        .byte                   Gn2
        .byte   W96
@ 041   ----------------------------------------
        .byte                   Gn1
        .byte   W96
@ 042   ----------------------------------------
        .byte                   Gn1
        .byte   W96
@ 043   ----------------------------------------
        .byte                   Gn1
        .byte   W96
@ 044   ----------------------------------------
        .byte                   Gn1
        .byte   W96
@ 045   ----------------------------------------
        .byte                   Gn1
        .byte   W96
@ 046   ----------------------------------------
        .byte           N48
        .byte   W48
        .byte                   Gn1
        .byte   W48
@ 047   ----------------------------------------
        .byte           N96
        .byte   W96
@ 048   ----------------------------------------
        .byte   GOTO
         .word  Omen_5_LOOP
        .byte   FINE

@****************** Track 6 (Midi-Chn.6) ******************@

Omen_6:
        .byte   KEYSH , Omen_key+0
@ 000   ----------------------------------------
Omen_6_LOOP:
        .byte           VOICE , 117
        .byte           VOL   , 50
        .byte           PAN   , c_v-8
        .byte           N06   , Bn0 , v126
        .byte   W06
        .byte           N12
        .byte   W12
        .byte                   Bn0
        .byte   W12
        .byte                   Bn0
        .byte   W12
        .byte           N06
        .byte   W06
        .byte           N12
        .byte   W12
        .byte                   Bn0
        .byte   W24
        .byte           N06
        .byte   W06
        .byte                   Bn0
        .byte   W06
@ 001   ----------------------------------------
Omen_6_1:
        .byte           N06   , Bn0 , v126
        .byte   W06
        .byte           N12
        .byte   W12
        .byte                   Bn0
        .byte   W12
        .byte                   Bn0
        .byte   W12
        .byte           N06
        .byte   W06
        .byte           N12
        .byte   W12
        .byte                   Bn0
        .byte   W36
        .byte   PEND
@ 002   ----------------------------------------
Omen_6_2:
        .byte           N06   , Bn0 , v126
        .byte   W06
        .byte           N12
        .byte   W12
        .byte                   Bn0
        .byte   W12
        .byte                   Bn0
        .byte   W12
        .byte           N06
        .byte   W06
        .byte           N12
        .byte   W12
        .byte                   Bn0
        .byte   W24
        .byte           N06
        .byte   W06
        .byte                   Bn0
        .byte   W06
        .byte   PEND
@ 003   ----------------------------------------
        .byte   PATT
         .word  Omen_6_1
@ 004   ----------------------------------------
        .byte   PATT
         .word  Omen_6_2
@ 005   ----------------------------------------
        .byte   PATT
         .word  Omen_6_1
@ 006   ----------------------------------------
        .byte   PATT
         .word  Omen_6_2
@ 007   ----------------------------------------
        .byte   PATT
         .word  Omen_6_1
@ 008   ----------------------------------------
        .byte   PATT
         .word  Omen_6_2
@ 009   ----------------------------------------
        .byte   PATT
         .word  Omen_6_1
@ 010   ----------------------------------------
        .byte   PATT
         .word  Omen_6_2
@ 011   ----------------------------------------
        .byte   PATT
         .word  Omen_6_1
@ 012   ----------------------------------------
        .byte   PATT
         .word  Omen_6_2
@ 013   ----------------------------------------
        .byte   PATT
         .word  Omen_6_1
@ 014   ----------------------------------------
        .byte   PATT
         .word  Omen_6_2
@ 015   ----------------------------------------
        .byte   PATT
         .word  Omen_6_1
@ 016   ----------------------------------------
        .byte   PATT
         .word  Omen_6_2
@ 017   ----------------------------------------
        .byte   PATT
         .word  Omen_6_1
@ 018   ----------------------------------------
        .byte   PATT
         .word  Omen_6_2
@ 019   ----------------------------------------
        .byte   PATT
         .word  Omen_6_1
@ 020   ----------------------------------------
        .byte   PATT
         .word  Omen_6_2
@ 021   ----------------------------------------
        .byte   PATT
         .word  Omen_6_1
@ 022   ----------------------------------------
        .byte   PATT
         .word  Omen_6_2
@ 023   ----------------------------------------
        .byte   PATT
         .word  Omen_6_1
@ 024   ----------------------------------------
        .byte   PATT
         .word  Omen_6_2
@ 025   ----------------------------------------
        .byte   PATT
         .word  Omen_6_1
@ 026   ----------------------------------------
        .byte   PATT
         .word  Omen_6_2
@ 027   ----------------------------------------
        .byte   PATT
         .word  Omen_6_1
@ 028   ----------------------------------------
        .byte   PATT
         .word  Omen_6_2
@ 029   ----------------------------------------
        .byte   PATT
         .word  Omen_6_1
@ 030   ----------------------------------------
        .byte   PATT
         .word  Omen_6_2
@ 031   ----------------------------------------
        .byte   PATT
         .word  Omen_6_1
@ 032   ----------------------------------------
        .byte   PATT
         .word  Omen_6_2
@ 033   ----------------------------------------
        .byte   PATT
         .word  Omen_6_1
@ 034   ----------------------------------------
        .byte   PATT
         .word  Omen_6_2
@ 035   ----------------------------------------
        .byte   PATT
         .word  Omen_6_1
@ 036   ----------------------------------------
        .byte   PATT
         .word  Omen_6_2
@ 037   ----------------------------------------
        .byte   PATT
         .word  Omen_6_1
@ 038   ----------------------------------------
        .byte   PATT
         .word  Omen_6_2
@ 039   ----------------------------------------
        .byte   PATT
         .word  Omen_6_1
@ 040   ----------------------------------------
        .byte   PATT
         .word  Omen_6_2
@ 041   ----------------------------------------
        .byte   PATT
         .word  Omen_6_1
@ 042   ----------------------------------------
        .byte   PATT
         .word  Omen_6_2
@ 043   ----------------------------------------
        .byte   PATT
         .word  Omen_6_1
@ 044   ----------------------------------------
        .byte   PATT
         .word  Omen_6_2
@ 045   ----------------------------------------
        .byte   PATT
         .word  Omen_6_1
@ 046   ----------------------------------------
        .byte   PATT
         .word  Omen_6_2
@ 047   ----------------------------------------
        .byte   PATT
         .word  Omen_6_1
@ 048   ----------------------------------------
        .byte   GOTO
         .word  Omen_6_LOOP
        .byte   FINE


@********************** End of Song ***********************@

        .align  2
Omen:
        .byte   7                       @ Num Tracks
        .byte   0                       @ Unknown
        .byte   Omen_pri                @ Priority
        .byte   Omen_rev                @ Reverb

        .word   Omen_grp               

        .word   Omen_0
        .word   Omen_1
        .word   Omen_2
        .word   Omen_3
        .word   Omen_4
        .word   Omen_5
        .word   Omen_6

        .end
