//Event file generated from Sappy .s format.
        #include "MPlayDef.event"

        #define    PinnacleOfFalseBelief_2_grp  voicegroup000
        #define    PinnacleOfFalseBelief_2_pri  0
        #define    PinnacleOfFalseBelief_2_rev  0
        #define    PinnacleOfFalseBelief_2_key  0

        // .rodata
        // PinnacleOfFalseBelief_2
        ALIGN 4

//****************** Track 0 (Midi-Chn.0) ******************//

PinnacleOfFalseBelief_2_0:
        BYTE   KEYSH   PinnacleOfFalseBelief_2_key+0
// 000   ----------------------------------------
        BYTE   TEMPO   120/2
        BYTE           VOICE   19
        BYTE           VOL     49
        BYTE           PAN     c_v+36
        BYTE           TIE     En1   v100
        BYTE   W96
// 001   ----------------------------------------
        BYTE   W96
// 002   ----------------------------------------
        BYTE   W96
// 003   ----------------------------------------
        BYTE   W96
// 004   ----------------------------------------
        BYTE   W96
// 005   ----------------------------------------
        BYTE   W90
        BYTE           EOT
        BYTE   W06
// 006   ----------------------------------------
        BYTE           TIE
        BYTE   W96
// 007   ----------------------------------------
        BYTE   W96
// 008   ----------------------------------------
        BYTE   W96
// 009   ----------------------------------------
        BYTE   W96
// 010   ----------------------------------------
        BYTE           EOT
        BYTE           N05     Fs3
        BYTE   W06
        BYTE                   Gn3
        BYTE   W06
        BYTE                   En3
        BYTE   W06
        BYTE                   An3
        BYTE   W06
        BYTE                   Fs3
        BYTE   W06
        BYTE                   Gn3
        BYTE   W06
        BYTE                   En3
        BYTE   W06
        BYTE                   An3
        BYTE   W06
        BYTE                   Fs3
        BYTE   W06
        BYTE                   Gn3
        BYTE   W06
        BYTE                   Bn3
        BYTE   W06
        BYTE                   Gn3
        BYTE   W06
        BYTE                   Fs3
        BYTE   W06
        BYTE                   Gn3
        BYTE   W06
        BYTE                   En3
        BYTE   W06
        BYTE                   An3
        BYTE   W06
// 011   ----------------------------------------
PinnacleOfFalseBelief_2_0_11:
        BYTE           N05     Fs3   v100
        BYTE   W06
        BYTE                   Gn3
        BYTE   W06
        BYTE                   En3
        BYTE   W06
        BYTE                   An3
        BYTE   W06
        BYTE                   Fs3
        BYTE   W06
        BYTE                   Gn3
        BYTE   W06
        BYTE                   En3
        BYTE   W06
        BYTE                   An3
        BYTE   W06
        BYTE                   Fs3
        BYTE   W06
        BYTE                   Gn3
        BYTE   W06
        BYTE                   Bn3
        BYTE   W06
        BYTE                   Gn3
        BYTE   W06
        BYTE                   Fs3
        BYTE   W06
        BYTE                   Gn3
        BYTE   W06
        BYTE                   En3
        BYTE   W06
        BYTE                   An3
        BYTE   W06
        BYTE   PEND
// 012   ----------------------------------------
        BYTE   PATT
         POIN2  PinnacleOfFalseBelief_2_0_11
// 013   ----------------------------------------
        BYTE   PATT
         POIN2  PinnacleOfFalseBelief_2_0_11
// 014   ----------------------------------------
PinnacleOfFalseBelief_2_0_LOOP:
        BYTE           N05     Fs3   v100
        BYTE   W06
        BYTE                   Gn3
        BYTE   W06
        BYTE                   En3
        BYTE   W06
        BYTE                   An3
        BYTE   W06
        BYTE                   Fs3
        BYTE   W06
        BYTE                   Gn3
        BYTE   W06
        BYTE                   En3
        BYTE   W06
        BYTE                   An3
        BYTE   W06
        BYTE                   Fs3
        BYTE   W06
        BYTE                   Gn3
        BYTE   W06
        BYTE                   Bn3
        BYTE   W06
        BYTE                   Gn3
        BYTE   W06
        BYTE                   Fs3
        BYTE   W06
        BYTE                   Gn3
        BYTE   W06
        BYTE                   En3
        BYTE   W06
        BYTE                   An3
        BYTE   W06
// 015   ----------------------------------------
        BYTE   PATT
         POIN2  PinnacleOfFalseBelief_2_0_11
// 016   ----------------------------------------
        BYTE   PATT
         POIN2  PinnacleOfFalseBelief_2_0_11
// 017   ----------------------------------------
        BYTE   PATT
         POIN2  PinnacleOfFalseBelief_2_0_11
// 018   ----------------------------------------
        BYTE   PATT
         POIN2  PinnacleOfFalseBelief_2_0_11
// 019   ----------------------------------------
        BYTE   PATT
         POIN2  PinnacleOfFalseBelief_2_0_11
// 020   ----------------------------------------
        BYTE   PATT
         POIN2  PinnacleOfFalseBelief_2_0_11
// 021   ----------------------------------------
        BYTE   PATT
         POIN2  PinnacleOfFalseBelief_2_0_11
// 022   ----------------------------------------
PinnacleOfFalseBelief_2_0_22:
        BYTE           N05     En3   v100
        BYTE   W06
        BYTE                   Fs3
        BYTE   W06
        BYTE                   Gn3
        BYTE   W06
        BYTE                   An3
        BYTE   W06
        BYTE                   Gn3
        BYTE   W06
        BYTE                   Fs3
        BYTE   W06
        BYTE                   En3
        BYTE   W06
        BYTE                   Fs3
        BYTE   W06
        BYTE                   Gn3
        BYTE   W06
        BYTE                   An3
        BYTE   W06
        BYTE                   Gn3
        BYTE   W06
        BYTE                   Fs3
        BYTE   W06
        BYTE                   En3
        BYTE   W06
        BYTE                   Fs3
        BYTE   W06
        BYTE                   Gn3
        BYTE   W12
        BYTE   PEND
// 023   ----------------------------------------
        BYTE   PATT
         POIN2  PinnacleOfFalseBelief_2_0_22
// 024   ----------------------------------------
PinnacleOfFalseBelief_2_0_24:
        BYTE           N05     En3   v100
        BYTE           N05     Gn3
        BYTE   W06
        BYTE                   Fs3
        BYTE           N05     An3
        BYTE   W06
        BYTE                   Gn3
        BYTE           N05     Bn3
        BYTE   W06
        BYTE                   An3
        BYTE           N05     Cn4
        BYTE   W06
        BYTE                   Gn3
        BYTE           N05     Bn3
        BYTE   W06
        BYTE                   Fs3
        BYTE           N05     An3
        BYTE   W06
        BYTE                   En3
        BYTE           N05     Gn3
        BYTE   W06
        BYTE                   Fs3
        BYTE           N05     An3
        BYTE   W06
        BYTE                   Gn3
        BYTE           N05     Bn3
        BYTE   W06
        BYTE                   An3
        BYTE           N05     Cn4
        BYTE   W06
        BYTE                   Gn3
        BYTE           N05     Bn3
        BYTE   W06
        BYTE                   Fs3
        BYTE           N05     An3
        BYTE   W06
        BYTE                   En3
        BYTE           N05     Gn3
        BYTE   W06
        BYTE                   Fs3
        BYTE           N05     An3
        BYTE   W06
        BYTE                   Gn3
        BYTE           N05     Bn3
        BYTE   W12
        BYTE   PEND
// 025   ----------------------------------------
        BYTE   PATT
         POIN2  PinnacleOfFalseBelief_2_0_24
// 026   ----------------------------------------
        BYTE           N05     Gn3   v100
        BYTE           N05     Gn4
        BYTE           N05     En3
        BYTE   W06
        BYTE                   An3
        BYTE           N05     An4
        BYTE           N05     Fs3
        BYTE   W06
        BYTE                   Bn3
        BYTE           N05     Bn4
        BYTE           N05     Gn3
        BYTE   W06
        BYTE                   Cn4
        BYTE           N05     Cn5
        BYTE           N05     An3
        BYTE   W06
        BYTE                   Bn3
        BYTE           N05     Bn4
        BYTE           N05     Gn3
        BYTE   W06
        BYTE                   An3
        BYTE           N05     An4
        BYTE           N05     Fs3
        BYTE   W06
        BYTE                   Gn3
        BYTE           N05     Gn4
        BYTE           N05     En3
        BYTE   W06
        BYTE                   An3
        BYTE           N05     An4
        BYTE           N05     Fs3
        BYTE   W06
        BYTE                   Bn3
        BYTE           N05     Bn4
        BYTE           N05     Gn3
        BYTE   W06
        BYTE                   Cn4
        BYTE           N05     Cn5
        BYTE           N05     An3
        BYTE   W06
        BYTE                   Bn3
        BYTE           N05     Bn4
        BYTE           N05     Gn3
        BYTE   W06
        BYTE                   An3
        BYTE           N05     An4
        BYTE           N05     Fs3
        BYTE   W06
        BYTE                   Gn3
        BYTE           N05     Gn4
        BYTE           N05     En3
        BYTE   W06
        BYTE                   An3
        BYTE           N05     An4
        BYTE           N05     Fs3
        BYTE   W06
        BYTE                   Bn3
        BYTE           N05     Bn4
        BYTE           N05     Gn3
        BYTE   W12
// 027   ----------------------------------------
        BYTE           N07
        BYTE           N07     Gn4
        BYTE           N07     En3
        BYTE   W08
        BYTE                   An3
        BYTE           N07     An4
        BYTE           N07     Fs3
        BYTE   W08
        BYTE                   Bn3
        BYTE           N07     Bn4
        BYTE           N07     Gn3
        BYTE   W08
        BYTE                   Cn4
        BYTE           N07     Cn5
        BYTE           N07     An3
        BYTE   W08
        BYTE                   Bn3
        BYTE           N07     Bn4
        BYTE           N07     Gn3
        BYTE   W08
        BYTE                   An3
        BYTE           N07     An4
        BYTE           N07     Fs3
        BYTE   W08
        BYTE                   Gn3
        BYTE           N07     Gn4
        BYTE           N07     En3
        BYTE   W08
        BYTE                   An3
        BYTE           N07     An4
        BYTE           N07     Fs3
        BYTE   W08
        BYTE                   Bn3
        BYTE           N07     Bn4
        BYTE           N07     Gn3
        BYTE   W08
        BYTE                   Cn4
        BYTE           N07     Cn5
        BYTE           N07     An3
        BYTE   W08
        BYTE                   Bn3
        BYTE           N07     Bn4
        BYTE           N07     Gn3
        BYTE   W08
        BYTE                   An3
        BYTE           N07     An4
        BYTE           N07     Fs3
        BYTE   W08
// 028   ----------------------------------------
        BYTE                   Gn3
        BYTE           N07     Gn4
        BYTE           N07     En3
        BYTE   W08
        BYTE                   An3
        BYTE           N07     An4
        BYTE           N07     Fs3
        BYTE   W08
        BYTE                   Bn3
        BYTE           N07     Bn4
        BYTE           N07     Gn3
        BYTE   W08
        BYTE           N05     Fs3
        BYTE   W06
        BYTE                   Gn3
        BYTE   W06
        BYTE                   En3
        BYTE   W06
        BYTE                   An3
        BYTE   W06
        BYTE                   Fs3
        BYTE   W06
        BYTE                   Gn3
        BYTE   W06
        BYTE                   En3
        BYTE   W06
        BYTE                   An3
        BYTE   W06
        BYTE                   Fs3
        BYTE   W06
        BYTE                   Gn3
        BYTE   W06
        BYTE                   Bn3
        BYTE   W06
        BYTE                   Gn3
        BYTE   W06
// 029   ----------------------------------------
PinnacleOfFalseBelief_2_0_29:
        BYTE           N05     Fs3   v100
        BYTE   W06
        BYTE                   Gn3
        BYTE   W06
        BYTE                   En3
        BYTE   W06
        BYTE                   An3
        BYTE   W06
        BYTE                   Fs3
        BYTE   W06
        BYTE                   Gn3
        BYTE   W06
        BYTE                   En3
        BYTE   W06
        BYTE                   An3
        BYTE   W06
        BYTE                   Fs3
        BYTE   W06
        BYTE                   Gn3
        BYTE   W06
        BYTE                   En3
        BYTE   W06
        BYTE                   An3
        BYTE   W06
        BYTE                   Fs3
        BYTE   W06
        BYTE                   Gn3
        BYTE   W06
        BYTE                   Bn3
        BYTE   W06
        BYTE                   Gn3
        BYTE   W06
        BYTE   PEND
// 030   ----------------------------------------
        BYTE   PATT
         POIN2  PinnacleOfFalseBelief_2_0_29
// 031   ----------------------------------------
        BYTE   PATT
         POIN2  PinnacleOfFalseBelief_2_0_29
// 032   ----------------------------------------
        BYTE           N05     Fs3   v100
        BYTE   W06
        BYTE                   Gn3
        BYTE   W06
        BYTE                   En3
        BYTE   W06
        BYTE                   An3
        BYTE   W06
        BYTE   GoTo
         POIN2  PinnacleOfFalseBelief_2_0_LOOP
        BYTE   FINE

//****************** Track 1 (Midi-Chn.1) ******************//

PinnacleOfFalseBelief_2_1:
        BYTE   KEYSH   PinnacleOfFalseBelief_2_key+0
// 000   ----------------------------------------
        BYTE           VOICE   19
        BYTE           PAN     c_v-19
        BYTE           VOL     58
        BYTE           TIE     En2   v100
        BYTE   W96
// 001   ----------------------------------------
        BYTE   W96
// 002   ----------------------------------------
        BYTE   W96
// 003   ----------------------------------------
        BYTE   W96
// 004   ----------------------------------------
        BYTE   W96
// 005   ----------------------------------------
        BYTE   W90
        BYTE           EOT
        BYTE   W06
// 006   ----------------------------------------
        BYTE           TIE     En2   v064
        BYTE   W96
// 007   ----------------------------------------
        BYTE   W96
// 008   ----------------------------------------
        BYTE   W96
// 009   ----------------------------------------
        BYTE   W96
// 010   ----------------------------------------
        BYTE   W96
// 011   ----------------------------------------
        BYTE   W48
        BYTE           EOT
        BYTE   W48
// 012   ----------------------------------------
        BYTE   W96
// 013   ----------------------------------------
        BYTE   W96
// 014   ----------------------------------------
PinnacleOfFalseBelief_2_1_LOOP:
        BYTE           N92     En2   v100   gtp3
        BYTE   W96
// 015   ----------------------------------------
        BYTE                   Cn2
        BYTE   W96
// 016   ----------------------------------------
        BYTE                   As1
        BYTE   W96
// 017   ----------------------------------------
        BYTE                   Bn1
        BYTE   W96
// 018   ----------------------------------------
PinnacleOfFalseBelief_2_1_18:
        BYTE           N08     En2   v100
        BYTE   W18
        BYTE           N06
        BYTE   W18
        BYTE           N08
        BYTE   W18
        BYTE           N06
        BYTE   W18
        BYTE                   En2
        BYTE   W24
        BYTE   PEND
// 019   ----------------------------------------
PinnacleOfFalseBelief_2_1_19:
        BYTE           N08     Cn2   v100
        BYTE   W18
        BYTE           N06
        BYTE   W18
        BYTE           N08
        BYTE   W18
        BYTE           N06
        BYTE   W18
        BYTE                   Cn2
        BYTE   W24
        BYTE   PEND
// 020   ----------------------------------------
        BYTE           N09     As1
        BYTE   W18
        BYTE           N06
        BYTE   W18
        BYTE           N09
        BYTE   W18
        BYTE           N06
        BYTE   W18
        BYTE                   As1
        BYTE   W24
// 021   ----------------------------------------
        BYTE           N08     Bn1
        BYTE   W18
        BYTE           N06
        BYTE   W18
        BYTE           N08
        BYTE   W18
        BYTE           N06
        BYTE   W18
        BYTE                   Bn1
        BYTE   W24
// 022   ----------------------------------------
        BYTE   PATT
         POIN2  PinnacleOfFalseBelief_2_1_19
// 023   ----------------------------------------
        BYTE           N08     Dn2   v100
        BYTE   W18
        BYTE           N06
        BYTE   W18
        BYTE           N08
        BYTE   W18
        BYTE           N06
        BYTE   W18
        BYTE                   Dn2
        BYTE   W24
// 024   ----------------------------------------
        BYTE   PATT
         POIN2  PinnacleOfFalseBelief_2_1_18
// 025   ----------------------------------------
        BYTE   PATT
         POIN2  PinnacleOfFalseBelief_2_1_18
// 026   ----------------------------------------
        BYTE           N08     Fn2   v100
        BYTE   W18
        BYTE           N06
        BYTE   W18
        BYTE           N08
        BYTE   W18
        BYTE           N06
        BYTE   W18
        BYTE                   Fn2
        BYTE   W24
// 027   ----------------------------------------
        BYTE           N08
        BYTE   W24
        BYTE           N12
        BYTE   W24
        BYTE           N14
        BYTE   W24
        BYTE           N18
        BYTE   W24
// 028   ----------------------------------------
        BYTE           N24
        BYTE   W24
        BYTE           N92     En2   v100   gtp3
        BYTE   W72
// 029   ----------------------------------------
        BYTE   W24
        BYTE                   Cn2
        BYTE   W72
// 030   ----------------------------------------
        BYTE   W24
        BYTE                   An1
        BYTE   W72
// 031   ----------------------------------------
        BYTE   W24
        BYTE                   Bn1
        BYTE   W72
// 032   ----------------------------------------
        BYTE   W24
        BYTE   GoTo
         POIN2  PinnacleOfFalseBelief_2_1_LOOP
        BYTE   FINE

//****************** Track 2 (Midi-Chn.2) ******************//

PinnacleOfFalseBelief_2_2:
        BYTE   KEYSH   PinnacleOfFalseBelief_2_key+0
// 000   ----------------------------------------
        BYTE           VOICE   49
        BYTE           PAN     c_v-34
        BYTE           VOL     53
        BYTE   W96
// 001   ----------------------------------------
        BYTE   W96
// 002   ----------------------------------------
        BYTE   W96
// 003   ----------------------------------------
        BYTE   W96
// 004   ----------------------------------------
        BYTE   W96
// 005   ----------------------------------------
        BYTE   W96
// 006   ----------------------------------------
        BYTE           TIE     En1   v100
        BYTE   W96
// 007   ----------------------------------------
        BYTE   W96
// 008   ----------------------------------------
        BYTE   W96
// 009   ----------------------------------------
        BYTE   W96
// 010   ----------------------------------------
        BYTE   W96
// 011   ----------------------------------------
        BYTE   W96
// 012   ----------------------------------------
        BYTE   W96
// 013   ----------------------------------------
        BYTE   W96
// 014   ----------------------------------------
        BYTE           EOT
PinnacleOfFalseBelief_2_2_LOOP:
        BYTE           N92     Bn4   v078   gtp3
        BYTE           TIE     En4
        BYTE           N92     Gn4   v078   gtp3
        BYTE   W96
// 015   ----------------------------------------
        BYTE                   Cn5
        BYTE           N92     An4   v078   gtp3
        BYTE   W96
// 016   ----------------------------------------
        BYTE                   As4
        BYTE           N84     Gn4   v078   gtp2
        BYTE   W92
        BYTE   W03
        BYTE           EOT     En4
        BYTE   W01
// 017   ----------------------------------------
        BYTE           N92     Bn4   v078   gtp3
        BYTE                   Fs4
        BYTE           N44     En4   v078   gtp3
        BYTE   W48
        BYTE                   Ds4
        BYTE   W48
// 018   ----------------------------------------
        BYTE           TIE     En3
        BYTE           N92     Gn3   v078   gtp3
        BYTE           N92     Bn2   v078   gtp1
        BYTE   W96
// 019   ----------------------------------------
        BYTE           N92     An3   v078   gtp3
        BYTE           N92     Cn3   v078   gtp1
        BYTE   W96
// 020   ----------------------------------------
        BYTE           N84     Gn3   v078   gtp2
        BYTE           N92     As2   v078   gtp1
        BYTE   W92
        BYTE   W03
        BYTE           EOT     En3
        BYTE   W01
// 021   ----------------------------------------
        BYTE           N92     Fs3   v078   gtp3
        BYTE           N44     En3   v078   gtp3
        BYTE           N92     Bn2   v078   gtp1
        BYTE   W48
        BYTE           N44     Ds3   v078   gtp3
        BYTE   W48
// 022   ----------------------------------------
        BYTE           N92     Gn4
        BYTE           N92     En4
        BYTE   W96
// 023   ----------------------------------------
        BYTE                   An4
        BYTE           N92     Fs4
        BYTE   W96
// 024   ----------------------------------------
        BYTE           TIE     Bn4
        BYTE           TIE     Gn4
        BYTE   W96
// 025   ----------------------------------------
        BYTE   W92
        BYTE           EOT     Bn4
        BYTE                   Gn4
        BYTE   W04
// 026   ----------------------------------------
        BYTE           TIE     Cn5
        BYTE           TIE     An4
        BYTE   W96
// 027   ----------------------------------------
        BYTE   W96
// 028   ----------------------------------------
        BYTE   W21
        BYTE           EOT
        BYTE           EOT     Cn5
        BYTE   W72
        BYTE   W03
// 029   ----------------------------------------
        BYTE   W96
// 030   ----------------------------------------
        BYTE   W96
// 031   ----------------------------------------
        BYTE   W96
// 032   ----------------------------------------
        BYTE   W24
        BYTE   GoTo
         POIN2  PinnacleOfFalseBelief_2_2_LOOP
        BYTE   FINE

//****************** Track 3 (Midi-Chn.3) ******************//

PinnacleOfFalseBelief_2_3:
        BYTE   KEYSH   PinnacleOfFalseBelief_2_key+0
// 000   ----------------------------------------
        BYTE           VOICE   95
        BYTE           VOL     46
        BYTE           PAN     c_v+34
        BYTE   W96
// 001   ----------------------------------------
        BYTE   W96
// 002   ----------------------------------------
        BYTE   W96
// 003   ----------------------------------------
        BYTE   W96
// 004   ----------------------------------------
        BYTE   W96
// 005   ----------------------------------------
        BYTE   W96
// 006   ----------------------------------------
        BYTE           TIE     En1   v100
        BYTE   W96
// 007   ----------------------------------------
        BYTE   W96
// 008   ----------------------------------------
        BYTE   W96
// 009   ----------------------------------------
        BYTE   W96
// 010   ----------------------------------------
        BYTE                   Bn1
        BYTE   W96
// 011   ----------------------------------------
        BYTE           EOT     En1
        BYTE           TIE     Fs2
        BYTE   W24
        BYTE           EOT     Bn1
        BYTE   W72
// 012   ----------------------------------------
        BYTE           TIE     Dn2
        BYTE   W24
        BYTE           EOT     Fs2
        BYTE   W72
// 013   ----------------------------------------
        BYTE           N96     Ds2
        BYTE   W06
        BYTE           EOT     Dn2
        BYTE   W90
// 014   ----------------------------------------
PinnacleOfFalseBelief_2_3_LOOP:
        BYTE           N92     Bn2   v078   gtp3
        BYTE           TIE     En2
        BYTE           N92     Gn2   v078   gtp3
        BYTE   W96
// 015   ----------------------------------------
        BYTE                   Cn3
        BYTE           N92     An2   v078   gtp3
        BYTE   W96
// 016   ----------------------------------------
        BYTE                   As2
        BYTE           N84     Gn2   v078   gtp2
        BYTE   W92
        BYTE   W03
        BYTE           EOT     En2
        BYTE   W01
// 017   ----------------------------------------
        BYTE           N92     Bn2   v078   gtp3
        BYTE                   Fs2
        BYTE           N44     En2   v078   gtp3
        BYTE   W48
        BYTE                   Ds2
        BYTE   W48
// 018   ----------------------------------------
        BYTE   W96
// 019   ----------------------------------------
        BYTE   W96
// 020   ----------------------------------------
        BYTE   W96
// 021   ----------------------------------------
        BYTE   W96
// 022   ----------------------------------------
        BYTE           N92     Cn4
        BYTE           N92     En4
        BYTE   W96
// 023   ----------------------------------------
        BYTE                   Dn4
        BYTE           N92     Fs4
        BYTE   W96
// 024   ----------------------------------------
        BYTE           TIE     En4
        BYTE           TIE     Gn4
        BYTE   W96
// 025   ----------------------------------------
        BYTE   W92
        BYTE           EOT     En4
        BYTE                   Gn4
        BYTE   W04
// 026   ----------------------------------------
        BYTE           TIE     An4
        BYTE           TIE     Fn4
        BYTE   W96
// 027   ----------------------------------------
        BYTE   W96
// 028   ----------------------------------------
        BYTE   W21
        BYTE           EOT
        BYTE           EOT     An4
        BYTE   W72
        BYTE   W03
// 029   ----------------------------------------
        BYTE   W96
// 030   ----------------------------------------
        BYTE   W96
// 031   ----------------------------------------
        BYTE   W96
// 032   ----------------------------------------
        BYTE   W24
        BYTE   GoTo
         POIN2  PinnacleOfFalseBelief_2_3_LOOP
        BYTE   FINE

//****************** Track 4 (Midi-Chn.4) ******************//

PinnacleOfFalseBelief_2_4:
        BYTE   KEYSH   PinnacleOfFalseBelief_2_key+0
// 000   ----------------------------------------
        BYTE           VOICE   14
        BYTE           VOL     52
        BYTE           PAN     c_v-20
        BYTE   W96
// 001   ----------------------------------------
        BYTE   W96
// 002   ----------------------------------------
        BYTE   W48
        BYTE           N72     As3   v100
        BYTE           N96     As2
        BYTE   W48
// 003   ----------------------------------------
        BYTE   W48
        BYTE           N72     Cs4
        BYTE           N96     Cs3
        BYTE   W48
// 004   ----------------------------------------
        BYTE   W48
        BYTE                   Fs2
        BYTE           N96     Fs3
        BYTE   W48
// 005   ----------------------------------------
        BYTE   W48
        BYTE           VOICE   47
        BYTE   W12
        BYTE           N12     Cn3   v080
        BYTE   W12
        BYTE                   Cn3
        BYTE   W12
        BYTE           N06
        BYTE   W06
        BYTE                   Cn3
        BYTE   W06
// 006   ----------------------------------------
PinnacleOfFalseBelief_2_4_6:
        BYTE           N36     Fs2   v080
        BYTE   W60
        BYTE           N12     Cn3
        BYTE   W12
        BYTE                   Cn3
        BYTE   W12
        BYTE           N06
        BYTE   W06
        BYTE                   Cn3
        BYTE   W06
        BYTE   PEND
// 007   ----------------------------------------
        BYTE           N36     Fs2
        BYTE   W96
// 008   ----------------------------------------
        BYTE   W96
// 009   ----------------------------------------
PinnacleOfFalseBelief_2_4_9:
        BYTE   W60
        BYTE           N12     Cn3   v080
        BYTE   W12
        BYTE                   Cn3
        BYTE   W12
        BYTE           N06
        BYTE   W06
        BYTE                   Cn3
        BYTE   W06
        BYTE   PEND
// 010   ----------------------------------------
        BYTE   PATT
         POIN2  PinnacleOfFalseBelief_2_4_6
// 011   ----------------------------------------
        BYTE           N36     Fs2   v080
        BYTE   W96
// 012   ----------------------------------------
        BYTE   W96
// 013   ----------------------------------------
        BYTE   PATT
         POIN2  PinnacleOfFalseBelief_2_4_9
// 014   ----------------------------------------
PinnacleOfFalseBelief_2_4_LOOP:
        BYTE           N36     Fs2   v080
        BYTE   W60
        BYTE           N12     Cn3
        BYTE   W12
        BYTE                   Cn3
        BYTE   W12
        BYTE           N06
        BYTE   W06
        BYTE                   Cn3
        BYTE   W06
// 015   ----------------------------------------
        BYTE   PATT
         POIN2  PinnacleOfFalseBelief_2_4_6
// 016   ----------------------------------------
        BYTE   PATT
         POIN2  PinnacleOfFalseBelief_2_4_6
// 017   ----------------------------------------
        BYTE   PATT
         POIN2  PinnacleOfFalseBelief_2_4_6
// 018   ----------------------------------------
        BYTE   PATT
         POIN2  PinnacleOfFalseBelief_2_4_6
// 019   ----------------------------------------
        BYTE   PATT
         POIN2  PinnacleOfFalseBelief_2_4_6
// 020   ----------------------------------------
        BYTE   PATT
         POIN2  PinnacleOfFalseBelief_2_4_6
// 021   ----------------------------------------
        BYTE   W96
// 022   ----------------------------------------
        BYTE   W96
// 023   ----------------------------------------
        BYTE   W96
// 024   ----------------------------------------
        BYTE   W96
// 025   ----------------------------------------
        BYTE   W96
// 026   ----------------------------------------
        BYTE   W96
// 027   ----------------------------------------
        BYTE   W96
// 028   ----------------------------------------
        BYTE   W96
// 029   ----------------------------------------
        BYTE   W96
// 030   ----------------------------------------
        BYTE   W96
// 031   ----------------------------------------
        BYTE   W84
        BYTE           N12     Cn3   v080
        BYTE   W12
// 032   ----------------------------------------
        BYTE                   Cn3
        BYTE   W12
        BYTE           N06
        BYTE   W06
        BYTE                   Cn3
        BYTE   W06
        BYTE   GoTo
         POIN2  PinnacleOfFalseBelief_2_4_LOOP
        BYTE   FINE

//****************** Track 5 (Midi-Chn.5) ******************//

PinnacleOfFalseBelief_2_5:
        BYTE   KEYSH   PinnacleOfFalseBelief_2_key+0
// 000   ----------------------------------------
        BYTE           VOICE   91
        BYTE           VOL     45
        BYTE           PAN     c_v+20
        BYTE   W96
// 001   ----------------------------------------
        BYTE   W96
// 002   ----------------------------------------
        BYTE   W48
        BYTE           N90     As2   v100
        BYTE   W48
// 003   ----------------------------------------
        BYTE   W48
        BYTE                   Cs3
        BYTE   W48
// 004   ----------------------------------------
        BYTE   W48
        BYTE           TIE     Fs2
        BYTE   W48
// 005   ----------------------------------------
        BYTE   W90
        BYTE           EOT
        BYTE   W06
// 006   ----------------------------------------
        BYTE   W96
// 007   ----------------------------------------
        BYTE   W96
// 008   ----------------------------------------
        BYTE           TIE     Bn2
        BYTE   W96
// 009   ----------------------------------------
        BYTE                   En3
        BYTE   W96
// 010   ----------------------------------------
        BYTE   W24
        BYTE           EOT     Bn2
        BYTE   W24
        BYTE                   En3
        BYTE   W48
// 011   ----------------------------------------
        BYTE   W96
// 012   ----------------------------------------
        BYTE   W96
// 013   ----------------------------------------
        BYTE   W96
// 014   ----------------------------------------
PinnacleOfFalseBelief_2_5_LOOP:
        BYTE   W96
// 015   ----------------------------------------
        BYTE   W96
// 016   ----------------------------------------
        BYTE   W96
// 017   ----------------------------------------
        BYTE   W96
// 018   ----------------------------------------
        BYTE   W96
// 019   ----------------------------------------
        BYTE   W96
// 020   ----------------------------------------
        BYTE   W96
// 021   ----------------------------------------
        BYTE   W96
// 022   ----------------------------------------
        BYTE   W96
// 023   ----------------------------------------
        BYTE   W96
// 024   ----------------------------------------
        BYTE   W96
// 025   ----------------------------------------
        BYTE   W96
// 026   ----------------------------------------
        BYTE   W96
// 027   ----------------------------------------
        BYTE   W96
// 028   ----------------------------------------
        BYTE   W96
// 029   ----------------------------------------
        BYTE   W96
// 030   ----------------------------------------
        BYTE   W96
// 031   ----------------------------------------
        BYTE   W96
// 032   ----------------------------------------
        BYTE   W24
        BYTE   GoTo
         POIN2  PinnacleOfFalseBelief_2_5_LOOP
        BYTE   FINE

//****************** Track 6 (Midi-Chn.6) ******************//

PinnacleOfFalseBelief_2_6:
        BYTE   KEYSH   PinnacleOfFalseBelief_2_key+0
// 000   ----------------------------------------
        BYTE           VOICE   0
        BYTE           PAN     c_v-11
        BYTE           VOL     53
        BYTE   W96
// 001   ----------------------------------------
        BYTE   W96
// 002   ----------------------------------------
        BYTE   W96
// 003   ----------------------------------------
        BYTE   W96
// 004   ----------------------------------------
        BYTE   W96
// 005   ----------------------------------------
        BYTE   W96
// 006   ----------------------------------------
        BYTE           N24     En2   v080
        BYTE           N24     En1
        BYTE           N24     Gn1
        BYTE           N24     Bn1
        BYTE   W96
// 007   ----------------------------------------
        BYTE   W96
// 008   ----------------------------------------
        BYTE   W96
// 009   ----------------------------------------
        BYTE   W96
// 010   ----------------------------------------
        BYTE   W96
// 011   ----------------------------------------
        BYTE   W96
// 012   ----------------------------------------
        BYTE   W96
// 013   ----------------------------------------
        BYTE   W96
// 014   ----------------------------------------
PinnacleOfFalseBelief_2_6_LOOP:
        BYTE   W96
// 015   ----------------------------------------
        BYTE   W96
// 016   ----------------------------------------
        BYTE   W96
// 017   ----------------------------------------
        BYTE   W96
// 018   ----------------------------------------
        BYTE           N30     En3   v080
        BYTE           N30     Bn2
        BYTE           N30     Gn2
        BYTE           N30     En2
        BYTE   W48
        BYTE           N04     Bn1
        BYTE   W06
        BYTE                   En2
        BYTE   W06
        BYTE                   Gn2
        BYTE   W06
        BYTE                   Bn2
        BYTE   W06
        BYTE           N06     En3
        BYTE   W06
        BYTE           N04     Bn2
        BYTE   W06
        BYTE                   Gn2
        BYTE   W06
        BYTE                   En2
        BYTE   W06
// 019   ----------------------------------------
        BYTE           N30     Cn3
        BYTE           N30     An2
        BYTE           N30     Cn2
        BYTE           N30     En2
        BYTE   W48
        BYTE           N04     An1
        BYTE   W06
        BYTE                   Cn2
        BYTE   W06
        BYTE                   En2
        BYTE   W06
        BYTE                   An2
        BYTE   W06
        BYTE           N06     Cn3
        BYTE   W06
        BYTE           N04     An2
        BYTE   W06
        BYTE                   En2
        BYTE   W06
        BYTE                   Cn2
        BYTE   W06
// 020   ----------------------------------------
        BYTE           N30     As2
        BYTE           N30     Gn2
        BYTE           N30     En2
        BYTE           N30     As1
        BYTE   W48
        BYTE           N04     Gn1
        BYTE   W06
        BYTE                   As1
        BYTE   W06
        BYTE                   En2
        BYTE   W06
        BYTE                   Gn2
        BYTE   W06
        BYTE           N06     As2
        BYTE   W06
        BYTE           N04     Gn2
        BYTE   W06
        BYTE                   En2
        BYTE   W06
        BYTE                   As1
        BYTE   W06
// 021   ----------------------------------------
        BYTE           N09     Bn1
        BYTE           N09     En2
        BYTE   W18
        BYTE           N06     Fs2
        BYTE           N06     En2
        BYTE           N06     Bn1
        BYTE   W18
        BYTE           N09     En2
        BYTE           N09     Fs2
        BYTE           N09     Bn2
        BYTE   W18
        BYTE           N06     En2
        BYTE           N06     Fs2
        BYTE           N06     Bn2
        BYTE   W18
        BYTE           N18
        BYTE           N18     Fs2
        BYTE           N18     Ds2
        BYTE   W24
// 022   ----------------------------------------
        BYTE           N09     En2
        BYTE           N09     Cn2
        BYTE           N09     An2
        BYTE   W18
        BYTE           N06     Cn2
        BYTE           N06     En2
        BYTE           N06     Cn3
        BYTE   W18
        BYTE           N08     Cn2
        BYTE           N09     En2
        BYTE           N09     An2
        BYTE   W18
        BYTE           N06     Cn2
        BYTE           N06     En2
        BYTE           N06     Cn3
        BYTE   W18
        BYTE                   Cn2
        BYTE           N06     En2
        BYTE           N06     An2
        BYTE   W12
        BYTE                   En2
        BYTE           N06     Cn3
        BYTE           N06     Cn2
        BYTE   W12
// 023   ----------------------------------------
        BYTE           N09     Fs2
        BYTE           N09     Dn2
        BYTE           N09     Bn2
        BYTE   W18
        BYTE           N06     Dn2
        BYTE           N06     Fs2
        BYTE           N06     Dn3
        BYTE   W18
        BYTE           N09     Fs2
        BYTE           N09     Dn2
        BYTE           N09     Bn2
        BYTE   W18
        BYTE           N06     Dn2
        BYTE           N06     Fs2
        BYTE           N06     Dn3
        BYTE   W18
        BYTE                   Dn2
        BYTE           N06     Fs2
        BYTE           N06     Bn2
        BYTE   W12
        BYTE                   Dn2
        BYTE           N06     Fs2
        BYTE           N06     Dn3
        BYTE   W12
// 024   ----------------------------------------
        BYTE           N09     En3
        BYTE           N09     En2
        BYTE           N09     Gn2
        BYTE   W18
        BYTE           N06     En2
        BYTE           N06     Gn2
        BYTE           N06     Bn2
        BYTE   W18
        BYTE           N09     En3
        BYTE           N09     En2
        BYTE           N09     Gn2
        BYTE   W18
        BYTE           N06     En2
        BYTE           N06     Gn2
        BYTE           N06     Bn2
        BYTE   W18
        BYTE                   En2
        BYTE           N06     En3
        BYTE           N06     Gn2
        BYTE   W12
        BYTE                   En2
        BYTE           N06     Gn2
        BYTE           N06     Bn2
        BYTE   W12
// 025   ----------------------------------------
        BYTE           N09     En2
        BYTE           N09     En3
        BYTE           N09     Gn2
        BYTE   W18
        BYTE           N06     En2
        BYTE           N06     Bn2
        BYTE           N06     Gn2
        BYTE   W18
        BYTE           N09     En2
        BYTE           N09     En3
        BYTE           N09     Gn2
        BYTE   W18
        BYTE           N06     En2
        BYTE           N06     Bn2
        BYTE           N06     Gn2
        BYTE   W18
        BYTE                   En2
        BYTE           N06     En3
        BYTE           N06     Gn2
        BYTE   W12
        BYTE                   En2
        BYTE           N06     Bn2
        BYTE           N06     Gn2
        BYTE   W12
// 026   ----------------------------------------
        BYTE           N09     An2
        BYTE           N09     Fn2
        BYTE           N09     Cn3
        BYTE   W18
        BYTE           N06     Fn2
        BYTE           N06     An2
        BYTE           N06     Cn3
        BYTE   W18
        BYTE           N09     An2
        BYTE           N09     Fn2
        BYTE           N09     Cn3
        BYTE   W18
        BYTE           N06     Fn2
        BYTE           N06     An2
        BYTE           N06     Cn3
        BYTE   W18
        BYTE                   Fn2
        BYTE           N06     An2
        BYTE           N06     Cn3
        BYTE   W24
// 027   ----------------------------------------
        BYTE           N09     Fn2
        BYTE           N09     Cn3
        BYTE           N09     An2
        BYTE   W24
        BYTE           N12     Fn2
        BYTE           N12     An2
        BYTE           N12     Cn3
        BYTE   W24
        BYTE           N15     Fn2
        BYTE           N15     An2
        BYTE           N15     Cn3
        BYTE   W24
        BYTE           N18     Fn2
        BYTE           N18     Cn3
        BYTE           N18     An2
        BYTE   W24
// 028   ----------------------------------------
        BYTE           N24     Fn2
        BYTE           N24     Cn3
        BYTE           N24     An2
        BYTE   W24
        BYTE                   En2   v100
        BYTE           N24     En3
        BYTE           N24     Bn2
        BYTE           N24     Gn2
        BYTE   W72
// 029   ----------------------------------------
        BYTE   W24
        BYTE                   Cn3
        BYTE           N24     Cn2
        BYTE           N24     En2
        BYTE           N24     An2
        BYTE   W72
// 030   ----------------------------------------
        BYTE   W24
        BYTE                   An2
        BYTE           N24     An1
        BYTE           N24     Cn2
        BYTE           N24     En2
        BYTE   W72
// 031   ----------------------------------------
        BYTE   W24
        BYTE                   Bn2
        BYTE           N24     Bn1
        BYTE           N24     Fs2
        BYTE           N24     En2
        BYTE   W48
        BYTE                   Ds2
        BYTE           N24     Fs2
        BYTE           N24     Bn2
        BYTE           N24     Bn1
        BYTE   W24
// 032   ----------------------------------------
        BYTE   W24
        BYTE   GoTo
         POIN2  PinnacleOfFalseBelief_2_6_LOOP
        BYTE   FINE

//****************** Track 7 (Midi-Chn.7) ******************//

PinnacleOfFalseBelief_2_7:
        BYTE   KEYSH   PinnacleOfFalseBelief_2_key+0
// 000   ----------------------------------------
        BYTE           VOICE   124
        BYTE           VOL     61
        BYTE   W96
// 001   ----------------------------------------
        BYTE   W96
// 002   ----------------------------------------
        BYTE   W96
// 003   ----------------------------------------
        BYTE   W96
// 004   ----------------------------------------
        BYTE   W96
// 005   ----------------------------------------
        BYTE   W96
// 006   ----------------------------------------
        BYTE   W96
// 007   ----------------------------------------
        BYTE   W96
// 008   ----------------------------------------
        BYTE           N03     Fs2   v016
        BYTE   W06
        BYTE                   Fs2   v032
        BYTE   W06
        BYTE                   Fs2   v048
        BYTE   W06
        BYTE                   Fs2   v064
        BYTE   W06
        BYTE                   Fs2   v080
        BYTE   W06
        BYTE                   Fs2   v056
        BYTE   W06
        BYTE                   Fs2   v040
        BYTE   W06
        BYTE                   Fs2   v024
        BYTE   W54
// 009   ----------------------------------------
        BYTE   W96
// 010   ----------------------------------------
        BYTE   W96
// 011   ----------------------------------------
        BYTE   W96
// 012   ----------------------------------------
        BYTE   W96
// 013   ----------------------------------------
        BYTE   W48
        BYTE           N08     Cn2   v080
        BYTE   W18
        BYTE                   An1
        BYTE   W18
        BYTE                   Gn1
        BYTE   W12
// 014   ----------------------------------------
PinnacleOfFalseBelief_2_7_LOOP:
        BYTE           N08     Cn1   v112
        BYTE   W96
// 015   ----------------------------------------
        BYTE                   Cn1
        BYTE   W96
// 016   ----------------------------------------
        BYTE                   Cn1
        BYTE   W96
// 017   ----------------------------------------
PinnacleOfFalseBelief_2_7_17:
        BYTE           N08     Cn1   v112
        BYTE   W48
        BYTE                   Cn1
        BYTE   W48
        BYTE   PEND
// 018   ----------------------------------------
        BYTE   PATT
         POIN2  PinnacleOfFalseBelief_2_7_17
// 019   ----------------------------------------
        BYTE   PATT
         POIN2  PinnacleOfFalseBelief_2_7_17
// 020   ----------------------------------------
        BYTE   PATT
         POIN2  PinnacleOfFalseBelief_2_7_17
// 021   ----------------------------------------
        BYTE           N06     Cn2   v080
        BYTE           N06     Cn1   v112
        BYTE   W18
        BYTE                   Cn2   v080
        BYTE   W18
        BYTE                   Cn2
        BYTE   W18
        BYTE                   Cn2
        BYTE   W18
        BYTE                   Bn1
        BYTE   W12
        BYTE                   An1
        BYTE           N06     En1   v096
        BYTE   W12
// 022   ----------------------------------------
PinnacleOfFalseBelief_2_7_22:
        BYTE           N06     Cn1   v112
        BYTE   W12
        BYTE                   As1   v080
        BYTE   W12
        BYTE                   Cn1   v112
        BYTE   W12
        BYTE                   As1   v080
        BYTE   W12
        BYTE                   Cn1   v112
        BYTE   W12
        BYTE                   As1   v080
        BYTE   W12
        BYTE                   Cn1   v112
        BYTE   W12
        BYTE                   En1   v096
        BYTE   W12
        BYTE   PEND
// 023   ----------------------------------------
PinnacleOfFalseBelief_2_7_23:
        BYTE           N06     Cn1   v112
        BYTE   W12
        BYTE                   As1   v080
        BYTE   W12
        BYTE                   Cn1   v112
        BYTE   W12
        BYTE                   As1   v080
        BYTE   W12
        BYTE                   Cn1   v112
        BYTE   W12
        BYTE                   As1   v080
        BYTE   W12
        BYTE                   Cn1   v112
        BYTE           N06     En1   v096
        BYTE   W06
        BYTE                   En1
        BYTE   W06
        BYTE                   En1
        BYTE   W06
        BYTE                   En1
        BYTE   W06
        BYTE   PEND
// 024   ----------------------------------------
        BYTE   PATT
         POIN2  PinnacleOfFalseBelief_2_7_22
// 025   ----------------------------------------
        BYTE   PATT
         POIN2  PinnacleOfFalseBelief_2_7_23
// 026   ----------------------------------------
        BYTE           N06     En1   v096
        BYTE   W18
        BYTE                   En1
        BYTE   W18
        BYTE                   En1
        BYTE   W18
        BYTE                   En1
        BYTE   W18
        BYTE                   En1
        BYTE           N24     Cs2   v080
        BYTE   W12
        BYTE           N06     En1   v097
        BYTE   W12
// 027   ----------------------------------------
        BYTE                   En1   v096
        BYTE   W24
        BYTE                   En1
        BYTE   W24
        BYTE                   En1
        BYTE   W24
        BYTE                   En1
        BYTE   W24
// 028   ----------------------------------------
        BYTE                   En1
        BYTE           N24     Cs2   v080
        BYTE   W96
// 029   ----------------------------------------
        BYTE   W96
// 030   ----------------------------------------
        BYTE   W96
// 031   ----------------------------------------
        BYTE   W96
// 032   ----------------------------------------
        BYTE   W24
        BYTE   GoTo
         POIN2  PinnacleOfFalseBelief_2_7_LOOP
        BYTE   FINE


//********************** End of Song ***********************//

        ALIGN 4
PinnacleOfFalseBelief_2:
        BYTE   8                       // Num Tracks
        BYTE   0                       // Unknown
        BYTE   PinnacleOfFalseBelief_2_pri // Priority
        BYTE   PinnacleOfFalseBelief_2_rev // Reverb

        POIN2   PinnacleOfFalseBelief_2_grp

        POIN2   PinnacleOfFalseBelief_2_0
        POIN2   PinnacleOfFalseBelief_2_1
        POIN2   PinnacleOfFalseBelief_2_2
        POIN2   PinnacleOfFalseBelief_2_3
        POIN2   PinnacleOfFalseBelief_2_4
        POIN2   PinnacleOfFalseBelief_2_5
        POIN2   PinnacleOfFalseBelief_2_6
        POIN2   PinnacleOfFalseBelief_2_7

        
