//Event file generated from Sappy .s format.
        #include "MPlayDef.event"

        #define    ReaptheWildWind_Slow_grp  voicegroup000
        #define    ReaptheWildWind_Slow_pri  0
        #define    ReaptheWildWind_Slow_rev  0
        #define    ReaptheWildWind_Slow_key  0

        // .rodata
        // ReaptheWildWind_Slow
        ALIGN 4

//****************** Track 0 (Midi-Chn.0) ******************//

ReaptheWildWind_Slow_0:
        BYTE   KEYSH   ReaptheWildWind_Slow_key+0
// 000   ----------------------------------------
        BYTE   TEMPO   120/2
        BYTE           VOICE   2
        BYTE           VOL     62
        BYTE           N24     As0   v127
        BYTE           BEND    c_v+59
        BYTE   W01
        BYTE                   c_v+54
        BYTE   W01
        BYTE                   c_v+49
        BYTE   W01
        BYTE                   c_v+43
        BYTE   W01
        BYTE                   c_v+38
        BYTE   W01
        BYTE                   c_v+33
        BYTE   W01
        BYTE                   c_v+27
        BYTE   W01
        BYTE                   c_v+22
        BYTE   W01
        BYTE                   c_v+17
        BYTE   W01
        BYTE                   c_v+11
        BYTE   W01
        BYTE                   c_v+6
        BYTE   W01
        BYTE                   c_v+1
        BYTE   W01
        BYTE                   c_v-5
        BYTE   W01
        BYTE                   c_v-10
        BYTE   W01
        BYTE                   c_v-15
        BYTE   W01
        BYTE                   c_v-21
        BYTE   W01
        BYTE                   c_v-26
        BYTE   W01
        BYTE                   c_v-31
        BYTE   W01
        BYTE                   c_v-37
        BYTE   W01
        BYTE                   c_v-42
        BYTE   W01
        BYTE                   c_v-47
        BYTE   W01
        BYTE                   c_v-53
        BYTE   W01
        BYTE                   c_v-58
        BYTE   W01
        BYTE                   c_v-63
        BYTE   W01
        BYTE                   c_v+0
        BYTE           N24     Fs0   v100
        BYTE   W24
        BYTE           N06
        BYTE   W12
        BYTE           N24
        BYTE   W24
        BYTE           N06     Fs1
        BYTE   W12
        BYTE           N03     Fs0
        BYTE   W12
        BYTE           N06     Fs1
        BYTE   W06
        BYTE                   Cs1
        BYTE   W06
// 001   ----------------------------------------
ReaptheWildWind_Slow_0_1:
        BYTE           N24     Fs0   v100
        BYTE   W24
        BYTE           N06
        BYTE   W12
        BYTE           N24
        BYTE   W24
        BYTE           N06     Fs1
        BYTE   W12
        BYTE           N03     Fs0
        BYTE   W12
        BYTE           N06     Fs1
        BYTE   W06
        BYTE                   Cs1
        BYTE   W06
        BYTE   PEND
// 002   ----------------------------------------
        BYTE   PATT
         POIN2  ReaptheWildWind_Slow_0_1
// 003   ----------------------------------------
        BYTE   PATT
         POIN2  ReaptheWildWind_Slow_0_1
// 004   ----------------------------------------
        BYTE   PATT
         POIN2  ReaptheWildWind_Slow_0_1
// 005   ----------------------------------------
        BYTE   PATT
         POIN2  ReaptheWildWind_Slow_0_1
// 006   ----------------------------------------
        BYTE   PATT
         POIN2  ReaptheWildWind_Slow_0_1
// 007   ----------------------------------------
ReaptheWildWind_Slow_0_7:
        BYTE           N24     Fs0   v100
        BYTE   W24
        BYTE           N06
        BYTE   W12
        BYTE           N24
        BYTE   W24
        BYTE           N06     Fs1
        BYTE   W12
        BYTE           N24     Gs0
        BYTE   W12
        BYTE           BEND    c_v-54
        BYTE   W01
        BYTE                   c_v-43
        BYTE   W01
        BYTE                   c_v-33
        BYTE   W01
        BYTE                   c_v-22
        BYTE   W01
        BYTE                   c_v-11
        BYTE   W01
        BYTE                   c_v-1
        BYTE   W01
        BYTE                   c_v+10
        BYTE   W01
        BYTE                   c_v+21
        BYTE   W01
        BYTE                   c_v+31
        BYTE   W01
        BYTE                   c_v+42
        BYTE   W01
        BYTE                   c_v+53
        BYTE   W01
        BYTE                   c_v+63
        BYTE   W01
        BYTE   PEND
// 008   ----------------------------------------
        BYTE                   c_v+0
        BYTE           N24     Ds1
        BYTE   W24
        BYTE           N06
        BYTE   W12
        BYTE           N24
        BYTE   W24
        BYTE           N06     Ds2
        BYTE   W12
        BYTE           N03     Ds1
        BYTE   W12
        BYTE           N06     Ds2
        BYTE   W12
// 009   ----------------------------------------
ReaptheWildWind_Slow_0_9:
        BYTE           N24     Ds1   v100
        BYTE   W24
        BYTE           N06
        BYTE   W12
        BYTE           N24
        BYTE   W24
        BYTE           N06     Ds2
        BYTE   W12
        BYTE           N24     Cs1
        BYTE           BEND    c_v+59
        BYTE   W01
        BYTE                   c_v+54
        BYTE   W01
        BYTE                   c_v+49
        BYTE   W01
        BYTE                   c_v+43
        BYTE   W01
        BYTE                   c_v+38
        BYTE   W01
        BYTE                   c_v+33
        BYTE   W01
        BYTE                   c_v+27
        BYTE   W01
        BYTE                   c_v+22
        BYTE   W01
        BYTE                   c_v+17
        BYTE   W01
        BYTE                   c_v+11
        BYTE   W01
        BYTE                   c_v+6
        BYTE   W01
        BYTE                   c_v+1
        BYTE   W01
        BYTE                   c_v-5
        BYTE   W01
        BYTE                   c_v-10
        BYTE   W01
        BYTE                   c_v-15
        BYTE   W01
        BYTE                   c_v-21
        BYTE   W01
        BYTE                   c_v-26
        BYTE   W01
        BYTE                   c_v-31
        BYTE   W01
        BYTE                   c_v-37
        BYTE   W01
        BYTE                   c_v-42
        BYTE   W01
        BYTE                   c_v-47
        BYTE   W01
        BYTE                   c_v-53
        BYTE   W01
        BYTE                   c_v-58
        BYTE   W01
        BYTE                   c_v-63
        BYTE   W01
        BYTE   PEND
// 010   ----------------------------------------
ReaptheWildWind_Slow_0_10:
        BYTE           BEND    c_v+0
        BYTE           N24     Fs0   v100
        BYTE   W24
        BYTE           N06
        BYTE   W12
        BYTE           N24
        BYTE   W24
        BYTE           N06     Fs1
        BYTE   W12
        BYTE           N03     Fs0
        BYTE   W12
        BYTE           N06     Fs1
        BYTE   W06
        BYTE                   Cs1
        BYTE   W06
        BYTE   PEND
// 011   ----------------------------------------
        BYTE   PATT
         POIN2  ReaptheWildWind_Slow_0_7
// 012   ----------------------------------------
        BYTE           BEND    c_v+0
        BYTE           N24     Ds1   v100
        BYTE   W24
        BYTE           N06
        BYTE   W12
        BYTE           N01
        BYTE   W24
        BYTE           N06     Ds2
        BYTE   W12
        BYTE           N03     Ds1
        BYTE   W12
        BYTE           N06     Ds2
        BYTE   W12
// 013   ----------------------------------------
        BYTE   PATT
         POIN2  ReaptheWildWind_Slow_0_9
// 014   ----------------------------------------
        BYTE   PATT
         POIN2  ReaptheWildWind_Slow_0_10
// 015   ----------------------------------------
        BYTE   PATT
         POIN2  ReaptheWildWind_Slow_0_7
// 016   ----------------------------------------
ReaptheWildWind_Slow_0_16:
        BYTE           BEND    c_v+0
        BYTE           N24     Ds1   v100
        BYTE   W24
        BYTE           N06     As0
        BYTE   W12
        BYTE           N24     Ds1
        BYTE   W24
        BYTE           N12
        BYTE   W12
        BYTE           N24
        BYTE   W24
        BYTE   PEND
// 017   ----------------------------------------
ReaptheWildWind_Slow_0_17:
        BYTE           N24     As0   v100
        BYTE   W24
        BYTE           N06     Fn0
        BYTE   W12
        BYTE           N24     As0
        BYTE   W24
        BYTE           N12
        BYTE   W12
        BYTE           N24
        BYTE   W24
        BYTE   PEND
// 018   ----------------------------------------
ReaptheWildWind_Slow_0_18:
        BYTE           N24     Bn0   v100
        BYTE   W24
        BYTE           N12
        BYTE   W12
        BYTE           N24     Cs1
        BYTE   W24
        BYTE           N12
        BYTE   W12
        BYTE                   Cs1
        BYTE   W12
        BYTE                   Cs1
        BYTE   W12
        BYTE   PEND
// 019   ----------------------------------------
ReaptheWildWind_Slow_0_19:
        BYTE           N24     Ds1   v100
        BYTE   W24
        BYTE           N12
        BYTE   W12
        BYTE           N24     Fn1
        BYTE   W24
        BYTE           N12     Fs1
        BYTE   W12
        BYTE           N24     Gs1
        BYTE   W12
        BYTE           BEND    c_v-5
        BYTE   W01
        BYTE                   c_v-10
        BYTE   W01
        BYTE                   c_v-15
        BYTE   W01
        BYTE                   c_v-21
        BYTE   W01
        BYTE                   c_v-26
        BYTE   W01
        BYTE                   c_v-31
        BYTE   W01
        BYTE                   c_v-37
        BYTE   W01
        BYTE                   c_v-42
        BYTE   W01
        BYTE                   c_v-47
        BYTE   W01
        BYTE                   c_v-53
        BYTE   W01
        BYTE                   c_v-58
        BYTE   W01
        BYTE                   c_v-63
        BYTE   W01
        BYTE   PEND
// 020   ----------------------------------------
        BYTE   PATT
         POIN2  ReaptheWildWind_Slow_0_16
// 021   ----------------------------------------
        BYTE   PATT
         POIN2  ReaptheWildWind_Slow_0_17
// 022   ----------------------------------------
        BYTE   PATT
         POIN2  ReaptheWildWind_Slow_0_18
// 023   ----------------------------------------
        BYTE   PATT
         POIN2  ReaptheWildWind_Slow_0_19
// 024   ----------------------------------------
        BYTE   PATT
         POIN2  ReaptheWildWind_Slow_0_16
// 025   ----------------------------------------
        BYTE   PATT
         POIN2  ReaptheWildWind_Slow_0_17
// 026   ----------------------------------------
        BYTE   PATT
         POIN2  ReaptheWildWind_Slow_0_18
// 027   ----------------------------------------
        BYTE           N24     Ds1   v100
        BYTE   W24
        BYTE           N12
        BYTE   W12
        BYTE           TIE     Cs1
        BYTE   W60
// 028   ----------------------------------------
        BYTE   W96
// 029   ----------------------------------------
        BYTE           EOT
        BYTE   W48
ReaptheWildWind_Slow_0_LOOP:
        BYTE           N24     Fs0   v100
        BYTE   W24
        BYTE           N06
        BYTE   W12
        BYTE           N24
        BYTE   W12
// 030   ----------------------------------------
ReaptheWildWind_Slow_0_30:
        BYTE   W12
        BYTE           N06     Fs1   v100
        BYTE   W12
        BYTE           N03     Fs0
        BYTE   W12
        BYTE           N06     Fs1
        BYTE   W06
        BYTE                   Cs1
        BYTE   W06
        BYTE           N24     Fs0
        BYTE   W24
        BYTE           N06
        BYTE   W12
        BYTE           N24
        BYTE   W12
        BYTE   PEND
// 031   ----------------------------------------
        BYTE   PATT
         POIN2  ReaptheWildWind_Slow_0_30
// 032   ----------------------------------------
        BYTE   PATT
         POIN2  ReaptheWildWind_Slow_0_30
// 033   ----------------------------------------
        BYTE   PATT
         POIN2  ReaptheWildWind_Slow_0_30
// 034   ----------------------------------------
        BYTE   PATT
         POIN2  ReaptheWildWind_Slow_0_30
// 035   ----------------------------------------
        BYTE   PATT
         POIN2  ReaptheWildWind_Slow_0_30
// 036   ----------------------------------------
        BYTE   PATT
         POIN2  ReaptheWildWind_Slow_0_30
// 037   ----------------------------------------
ReaptheWildWind_Slow_0_37:
        BYTE   W12
        BYTE           N06     Fs1   v100
        BYTE   W12
        BYTE           N24     Gs0
        BYTE   W12
        BYTE           BEND    c_v-54
        BYTE   W01
        BYTE                   c_v-43
        BYTE   W01
        BYTE                   c_v-33
        BYTE   W01
        BYTE                   c_v-22
        BYTE   W01
        BYTE                   c_v-11
        BYTE   W01
        BYTE                   c_v-1
        BYTE   W01
        BYTE                   c_v+10
        BYTE   W01
        BYTE                   c_v+21
        BYTE   W01
        BYTE                   c_v+31
        BYTE   W01
        BYTE                   c_v+42
        BYTE   W01
        BYTE                   c_v+53
        BYTE   W01
        BYTE                   c_v+63
        BYTE   W01
        BYTE                   c_v+0
        BYTE           N24     Ds1
        BYTE   W24
        BYTE           N06
        BYTE   W12
        BYTE           N24
        BYTE   W12
        BYTE   PEND
// 038   ----------------------------------------
ReaptheWildWind_Slow_0_38:
        BYTE   W12
        BYTE           N06     Ds2   v100
        BYTE   W12
        BYTE           N03     Ds1
        BYTE   W12
        BYTE           N06     Ds2
        BYTE   W12
        BYTE           N24     Ds1
        BYTE   W24
        BYTE           N06
        BYTE   W12
        BYTE           N24
        BYTE   W12
        BYTE   PEND
// 039   ----------------------------------------
ReaptheWildWind_Slow_0_39:
        BYTE   W12
        BYTE           N06     Ds2   v100
        BYTE   W12
        BYTE           N24     Cs1
        BYTE           BEND    c_v+59
        BYTE   W01
        BYTE                   c_v+54
        BYTE   W01
        BYTE                   c_v+49
        BYTE   W01
        BYTE                   c_v+43
        BYTE   W01
        BYTE                   c_v+38
        BYTE   W01
        BYTE                   c_v+33
        BYTE   W01
        BYTE                   c_v+27
        BYTE   W01
        BYTE                   c_v+22
        BYTE   W01
        BYTE                   c_v+17
        BYTE   W01
        BYTE                   c_v+11
        BYTE   W01
        BYTE                   c_v+6
        BYTE   W01
        BYTE                   c_v+1
        BYTE   W01
        BYTE                   c_v-5
        BYTE   W01
        BYTE                   c_v-10
        BYTE   W01
        BYTE                   c_v-15
        BYTE   W01
        BYTE                   c_v-21
        BYTE   W01
        BYTE                   c_v-26
        BYTE   W01
        BYTE                   c_v-31
        BYTE   W01
        BYTE                   c_v-37
        BYTE   W01
        BYTE                   c_v-42
        BYTE   W01
        BYTE                   c_v-47
        BYTE   W01
        BYTE                   c_v-53
        BYTE   W01
        BYTE                   c_v-58
        BYTE   W01
        BYTE                   c_v-63
        BYTE   W01
        BYTE                   c_v+0
        BYTE           N24     Fs0
        BYTE   W24
        BYTE           N06
        BYTE   W12
        BYTE           N24
        BYTE   W12
        BYTE   PEND
// 040   ----------------------------------------
        BYTE   PATT
         POIN2  ReaptheWildWind_Slow_0_30
// 041   ----------------------------------------
        BYTE   W12
        BYTE           N06     Fs1   v100
        BYTE   W12
        BYTE           N24     Gs0
        BYTE   W12
        BYTE           BEND    c_v-54
        BYTE   W01
        BYTE                   c_v-43
        BYTE   W01
        BYTE                   c_v-33
        BYTE   W01
        BYTE                   c_v-22
        BYTE   W01
        BYTE                   c_v-11
        BYTE   W01
        BYTE                   c_v-1
        BYTE   W01
        BYTE                   c_v+10
        BYTE   W01
        BYTE                   c_v+21
        BYTE   W01
        BYTE                   c_v+31
        BYTE   W01
        BYTE                   c_v+42
        BYTE   W01
        BYTE                   c_v+53
        BYTE   W01
        BYTE                   c_v+63
        BYTE   W01
        BYTE                   c_v+0
        BYTE           N24     Ds1
        BYTE   W24
        BYTE           N06     As0
        BYTE   W12
        BYTE           N24     Ds1
        BYTE   W12
// 042   ----------------------------------------
ReaptheWildWind_Slow_0_42:
        BYTE   W12
        BYTE           N12     Ds1   v100
        BYTE   W12
        BYTE           N24
        BYTE   W24
        BYTE                   As0
        BYTE   W24
        BYTE           N06     Fn0
        BYTE   W12
        BYTE           N24     As0
        BYTE   W12
        BYTE   PEND
// 043   ----------------------------------------
ReaptheWildWind_Slow_0_43:
        BYTE   W12
        BYTE           N12     As0   v100
        BYTE   W12
        BYTE           N24
        BYTE   W24
        BYTE                   Bn0
        BYTE   W24
        BYTE           N12
        BYTE   W12
        BYTE           N24     Cs1
        BYTE   W12
        BYTE   PEND
// 044   ----------------------------------------
ReaptheWildWind_Slow_0_44:
        BYTE   W12
        BYTE           N12     Cs1   v100
        BYTE   W12
        BYTE                   Cs1
        BYTE   W12
        BYTE                   Cs1
        BYTE   W12
        BYTE           N24     Ds1
        BYTE   W24
        BYTE           N12
        BYTE   W12
        BYTE           N24     Fn1
        BYTE   W12
        BYTE   PEND
// 045   ----------------------------------------
ReaptheWildWind_Slow_0_45:
        BYTE   W12
        BYTE           N12     Fs1   v100
        BYTE   W12
        BYTE           N24     Gs1
        BYTE   W12
        BYTE           BEND    c_v-5
        BYTE   W01
        BYTE                   c_v-10
        BYTE   W01
        BYTE                   c_v-15
        BYTE   W01
        BYTE                   c_v-21
        BYTE   W01
        BYTE                   c_v-26
        BYTE   W01
        BYTE                   c_v-31
        BYTE   W01
        BYTE                   c_v-37
        BYTE   W01
        BYTE                   c_v-42
        BYTE   W01
        BYTE                   c_v-47
        BYTE   W01
        BYTE                   c_v-53
        BYTE   W01
        BYTE                   c_v-58
        BYTE   W01
        BYTE                   c_v-63
        BYTE   W01
        BYTE                   c_v+0
        BYTE           N24     Ds1
        BYTE   W24
        BYTE           N06     As0
        BYTE   W12
        BYTE           N24     Ds1
        BYTE   W12
        BYTE   PEND
// 046   ----------------------------------------
        BYTE   PATT
         POIN2  ReaptheWildWind_Slow_0_42
// 047   ----------------------------------------
        BYTE   PATT
         POIN2  ReaptheWildWind_Slow_0_43
// 048   ----------------------------------------
        BYTE   PATT
         POIN2  ReaptheWildWind_Slow_0_44
// 049   ----------------------------------------
        BYTE   PATT
         POIN2  ReaptheWildWind_Slow_0_45
// 050   ----------------------------------------
        BYTE   PATT
         POIN2  ReaptheWildWind_Slow_0_42
// 051   ----------------------------------------
        BYTE   W12
        BYTE           N12     As0   v100
        BYTE   W12
        BYTE           N24
        BYTE   W24
        BYTE                   Gs0
        BYTE   W24
        BYTE           N06
        BYTE   W12
        BYTE           N12
        BYTE   W12
// 052   ----------------------------------------
ReaptheWildWind_Slow_0_52:
        BYTE           N06     Gs0   v100
        BYTE   W12
        BYTE           N12
        BYTE   W12
        BYTE           N06
        BYTE   W12
        BYTE           N12
        BYTE   W12
        BYTE                   Ds1
        BYTE   W12
        BYTE                   Ds1
        BYTE   W12
        BYTE           N06
        BYTE   W12
        BYTE           N12
        BYTE   W12
        BYTE   PEND
// 053   ----------------------------------------
        BYTE           N06
        BYTE   W12
        BYTE           N12
        BYTE   W12
        BYTE           N06
        BYTE   W12
        BYTE           N12
        BYTE   W12
        BYTE                   Gs0
        BYTE   W12
        BYTE                   Gs0
        BYTE   W12
        BYTE           N06
        BYTE   W12
        BYTE           N12
        BYTE   W12
// 054   ----------------------------------------
        BYTE           N06
        BYTE   W12
        BYTE           N12
        BYTE   W12
        BYTE           N06
        BYTE   W12
        BYTE           N12
        BYTE   W12
        BYTE                   Fs0
        BYTE   W12
        BYTE                   Fs0
        BYTE   W12
        BYTE           N06
        BYTE   W12
        BYTE           N12
        BYTE   W12
// 055   ----------------------------------------
        BYTE           N06
        BYTE   W12
        BYTE           N12
        BYTE   W12
        BYTE           N06
        BYTE   W12
        BYTE           N12
        BYTE   W12
        BYTE           N24     Gs0
        BYTE   W24
        BYTE           N06
        BYTE   W12
        BYTE           N12
        BYTE   W12
// 056   ----------------------------------------
        BYTE   PATT
         POIN2  ReaptheWildWind_Slow_0_52
// 057   ----------------------------------------
        BYTE           N06     Ds1   v100
        BYTE   W12
        BYTE           N12
        BYTE   W12
        BYTE           N06
        BYTE   W12
        BYTE           N12
        BYTE   W12
        BYTE           N24     Cs1
        BYTE   W24
        BYTE           N12
        BYTE   W12
        BYTE                   Cs1
        BYTE   W12
// 058   ----------------------------------------
ReaptheWildWind_Slow_0_58:
        BYTE           N12     Cs1   v100
        BYTE   W12
        BYTE                   Cs1
        BYTE   W12
        BYTE                   Cs1
        BYTE   W12
        BYTE                   Cs1
        BYTE   W12
        BYTE           N24
        BYTE   W24
        BYTE           N12
        BYTE   W12
        BYTE                   Cs1
        BYTE   W12
        BYTE   PEND
// 059   ----------------------------------------
        BYTE   PATT
         POIN2  ReaptheWildWind_Slow_0_58
// 060   ----------------------------------------
        BYTE   PATT
         POIN2  ReaptheWildWind_Slow_0_58
// 061   ----------------------------------------
        BYTE           N12     Cs1   v100
        BYTE   W12
        BYTE                   Cs1
        BYTE   W12
        BYTE           N24
        BYTE   W24
        BYTE                   Fs0
        BYTE   W24
        BYTE           N06
        BYTE   W12
        BYTE           N24
        BYTE   W12
// 062   ----------------------------------------
        BYTE   PATT
         POIN2  ReaptheWildWind_Slow_0_30
// 063   ----------------------------------------
        BYTE   PATT
         POIN2  ReaptheWildWind_Slow_0_30
// 064   ----------------------------------------
        BYTE   PATT
         POIN2  ReaptheWildWind_Slow_0_30
// 065   ----------------------------------------
        BYTE   PATT
         POIN2  ReaptheWildWind_Slow_0_30
// 066   ----------------------------------------
        BYTE   PATT
         POIN2  ReaptheWildWind_Slow_0_30
// 067   ----------------------------------------
        BYTE   PATT
         POIN2  ReaptheWildWind_Slow_0_30
// 068   ----------------------------------------
        BYTE   PATT
         POIN2  ReaptheWildWind_Slow_0_30
// 069   ----------------------------------------
        BYTE   PATT
         POIN2  ReaptheWildWind_Slow_0_37
// 070   ----------------------------------------
        BYTE   PATT
         POIN2  ReaptheWildWind_Slow_0_38
// 071   ----------------------------------------
        BYTE   PATT
         POIN2  ReaptheWildWind_Slow_0_39
// 072   ----------------------------------------
        BYTE   PATT
         POIN2  ReaptheWildWind_Slow_0_30
// 073   ----------------------------------------
        BYTE   PATT
         POIN2  ReaptheWildWind_Slow_0_37
// 074   ----------------------------------------
        BYTE   PATT
         POIN2  ReaptheWildWind_Slow_0_38
// 075   ----------------------------------------
        BYTE   PATT
         POIN2  ReaptheWildWind_Slow_0_39
// 076   ----------------------------------------
        BYTE   PATT
         POIN2  ReaptheWildWind_Slow_0_30
// 077   ----------------------------------------
        BYTE   W12
        BYTE           N06     Fs1   v100
        BYTE   W12
        BYTE           N03     Fs0
        BYTE   W12
        BYTE           N06     Fs1
        BYTE   W12
        BYTE           N24     Fs0
        BYTE   W24
        BYTE           N06
        BYTE   W12
        BYTE           N24
        BYTE   W12
// 078   ----------------------------------------
        BYTE   PATT
         POIN2  ReaptheWildWind_Slow_0_30
// 079   ----------------------------------------
        BYTE   PATT
         POIN2  ReaptheWildWind_Slow_0_30
// 080   ----------------------------------------
        BYTE   PATT
         POIN2  ReaptheWildWind_Slow_0_30
// 081   ----------------------------------------
        BYTE   PATT
         POIN2  ReaptheWildWind_Slow_0_30
// 082   ----------------------------------------
        BYTE   PATT
         POIN2  ReaptheWildWind_Slow_0_30
// 083   ----------------------------------------
        BYTE   PATT
         POIN2  ReaptheWildWind_Slow_0_30
// 084   ----------------------------------------
        BYTE   PATT
         POIN2  ReaptheWildWind_Slow_0_30
// 085   ----------------------------------------
        BYTE   PATT
         POIN2  ReaptheWildWind_Slow_0_37
// 086   ----------------------------------------
        BYTE   PATT
         POIN2  ReaptheWildWind_Slow_0_38
// 087   ----------------------------------------
        BYTE   PATT
         POIN2  ReaptheWildWind_Slow_0_39
// 088   ----------------------------------------
        BYTE   W12
        BYTE           N06     Fs1   v100
        BYTE   W12
        BYTE           N03     Fs0
        BYTE   W12
        BYTE           N06     Fs1
        BYTE   W06
        BYTE                   Cs1
        BYTE   W06
        BYTE           N24     Fs0
        BYTE   W24
        BYTE           N06
        BYTE   W12
        BYTE           N12
        BYTE   W12
// 089   ----------------------------------------
        BYTE                   Fs1
        BYTE   W18
        BYTE                   Fs1
        BYTE   W18
        BYTE                   Fs1
        BYTE   W12
        BYTE           N24     Cs1
        BYTE   W24
        BYTE           N06     Cs0
        BYTE   W12
        BYTE           N24     Cs1
        BYTE   W12
// 090   ----------------------------------------
ReaptheWildWind_Slow_0_90:
        BYTE   W12
        BYTE           N12     Cs1   v100
        BYTE   W12
        BYTE                   Fs0
        BYTE   W12
        BYTE                   Gs0
        BYTE   W12
        BYTE           N24     Cs1
        BYTE   W24
        BYTE           N06     Cs0
        BYTE   W12
        BYTE           N24     Cs1
        BYTE   W12
        BYTE   PEND
// 091   ----------------------------------------
        BYTE   PATT
         POIN2  ReaptheWildWind_Slow_0_90
// 092   ----------------------------------------
        BYTE   PATT
         POIN2  ReaptheWildWind_Slow_0_90
// 093   ----------------------------------------
        BYTE   W12
        BYTE           N12     Fs0   v100
        BYTE   W12
        BYTE                   Gs0
        BYTE   W12
        BYTE                   Fs0
        BYTE   W12
        BYTE           N24     Cs1
        BYTE   W24
        BYTE           N06     Cs0
        BYTE   W12
        BYTE           N24     Cs1
        BYTE   W12
// 094   ----------------------------------------
        BYTE   PATT
         POIN2  ReaptheWildWind_Slow_0_90
// 095   ----------------------------------------
        BYTE   PATT
         POIN2  ReaptheWildWind_Slow_0_90
// 096   ----------------------------------------
        BYTE   PATT
         POIN2  ReaptheWildWind_Slow_0_90
// 097   ----------------------------------------
        BYTE   W12
        BYTE           N12     Fs0   v100
        BYTE   W12
        BYTE                   Gs0
        BYTE   W12
        BYTE                   Fs0
        BYTE   W12
        BYTE   GoTo
         POIN2  ReaptheWildWind_Slow_0_LOOP
        BYTE   FINE

//****************** Track 1 (Midi-Chn.1) ******************//

ReaptheWildWind_Slow_1:
        BYTE   KEYSH   ReaptheWildWind_Slow_key+0
// 000   ----------------------------------------
        BYTE           VOICE   109
        BYTE           PAN     c_v-14
        BYTE           VOL     33
        BYTE   W24
        BYTE           TIE     As4   v100
        BYTE           TIE     As3
        BYTE   W96
// 001   ----------------------------------------
ReaptheWildWind_Slow_1_1:
        BYTE   W48
        BYTE           EOT     As4
        BYTE                   As3
        BYTE           N24     Gs4   v100
        BYTE           N24     Gs3
        BYTE   W24
        BYTE                   Fs4
        BYTE           N24     Fs3
        BYTE   W24
        BYTE   PEND
// 002   ----------------------------------------
        BYTE           N36     Ds4
        BYTE           N36     Ds3
        BYTE   W36
        BYTE           TIE     Cs4
        BYTE           TIE     Cs3
        BYTE   W60
// 003   ----------------------------------------
        BYTE   W96
// 004   ----------------------------------------
        BYTE           EOT     Cs4
        BYTE                   Cs3
        BYTE           TIE     As4
        BYTE           TIE     As3
        BYTE   W96
// 005   ----------------------------------------
        BYTE   PATT
         POIN2  ReaptheWildWind_Slow_1_1
// 006   ----------------------------------------
        BYTE           N36     Ds4   v100
        BYTE           N36     Ds3
        BYTE   W36
        BYTE                   Fn4
        BYTE           N36     Fn3
        BYTE   W36
        BYTE           N72     Cs4
        BYTE           N72     Cs3
        BYTE   W24
// 007   ----------------------------------------
        BYTE   W48
        BYTE           N24     As3
        BYTE           N24     As2
        BYTE   W24
        BYTE                   Gs3
        BYTE           N24     Gs2
        BYTE   W24
// 008   ----------------------------------------
        BYTE           TIE     Fs3
        BYTE           TIE     Fs2
        BYTE   W96
// 009   ----------------------------------------
        BYTE   W48
        BYTE           EOT     Fs3
        BYTE                   Fs2
        BYTE           N48     Cs4
        BYTE           N48     Cs3
        BYTE   W48
// 010   ----------------------------------------
ReaptheWildWind_Slow_1_10:
        BYTE           TIE     As3   v100
        BYTE           TIE     As2
        BYTE   W96
        BYTE   PEND
// 011   ----------------------------------------
ReaptheWildWind_Slow_1_11:
        BYTE   W48
        BYTE           EOT     As3
        BYTE                   As2
        BYTE           N12     As3   v100
        BYTE           N12     As2
        BYTE   W12
        BYTE           N24     Gs3
        BYTE           N24     Gs2
        BYTE   W24
        BYTE           N12     Fs3
        BYTE           N12     Fs2
        BYTE   W12
        BYTE   PEND
// 012   ----------------------------------------
        BYTE           TIE     Ds3
        BYTE           TIE     Ds2
        BYTE   W96
// 013   ----------------------------------------
        BYTE   W48
        BYTE           EOT
        BYTE           EOT     Ds3
        BYTE           N48     Cs4
        BYTE           N48     Cs3
        BYTE   W48
// 014   ----------------------------------------
        BYTE   PATT
         POIN2  ReaptheWildWind_Slow_1_10
// 015   ----------------------------------------
        BYTE   PATT
         POIN2  ReaptheWildWind_Slow_1_11
// 016   ----------------------------------------
        BYTE           N48     Ds3   v100
        BYTE           N48     Ds2
        BYTE   W96
// 017   ----------------------------------------
        BYTE   W96
// 018   ----------------------------------------
        BYTE   W96
// 019   ----------------------------------------
        BYTE   W96
// 020   ----------------------------------------
        BYTE   W96
// 021   ----------------------------------------
        BYTE   W96
// 022   ----------------------------------------
        BYTE   W96
// 023   ----------------------------------------
        BYTE   W96
// 024   ----------------------------------------
        BYTE   W96
// 025   ----------------------------------------
        BYTE   W96
// 026   ----------------------------------------
        BYTE   W96
// 027   ----------------------------------------
        BYTE   W96
// 028   ----------------------------------------
        BYTE   W48
        BYTE           N96     Fn4
        BYTE           N96     Fn3
        BYTE   W48
// 029   ----------------------------------------
        BYTE   W48
ReaptheWildWind_Slow_1_LOOP:
        BYTE           TIE     As4   v100
        BYTE           TIE     As3
        BYTE   W48
// 030   ----------------------------------------
        BYTE   W96
// 031   ----------------------------------------
ReaptheWildWind_Slow_1_31:
        BYTE           EOT     As4
        BYTE                   As3
        BYTE           N24     Gs4   v100
        BYTE           N24     Gs3
        BYTE   W24
        BYTE                   Fs4
        BYTE           N24     Fs3
        BYTE   W24
        BYTE           N36     Ds4
        BYTE           N36     Ds3
        BYTE   W36
        BYTE           TIE     Cs4
        BYTE           TIE     Cs3
        BYTE   W12
        BYTE   PEND
// 032   ----------------------------------------
        BYTE   W96
// 033   ----------------------------------------
ReaptheWildWind_Slow_1_33:
        BYTE   W48
        BYTE           EOT     Cs4
        BYTE                   Cs3
        BYTE           TIE     As4   v100
        BYTE           TIE     As3
        BYTE   W48
        BYTE   PEND
// 034   ----------------------------------------
        BYTE   W96
// 035   ----------------------------------------
ReaptheWildWind_Slow_1_35:
        BYTE           EOT     As4
        BYTE                   As3
        BYTE           N24     Gs4   v100
        BYTE           N24     Gs3
        BYTE   W24
        BYTE                   Fs4
        BYTE           N24     Fs3
        BYTE   W24
        BYTE           N36     Ds4
        BYTE           N36     Ds3
        BYTE   W36
        BYTE                   Fn4
        BYTE           N36     Fn3
        BYTE   W12
        BYTE   PEND
// 036   ----------------------------------------
ReaptheWildWind_Slow_1_36:
        BYTE   W24
        BYTE           N72     Cs4   v100
        BYTE           N72     Cs3
        BYTE   W72
        BYTE   PEND
// 037   ----------------------------------------
ReaptheWildWind_Slow_1_37:
        BYTE           N24     As3   v100
        BYTE           N24     As2
        BYTE   W24
        BYTE                   Gs3
        BYTE           N24     Gs2
        BYTE   W24
        BYTE           TIE     Fs3
        BYTE           TIE     Fs2
        BYTE   W48
        BYTE   PEND
// 038   ----------------------------------------
        BYTE   W96
// 039   ----------------------------------------
ReaptheWildWind_Slow_1_39:
        BYTE           EOT     Fs3
        BYTE                   Fs2
        BYTE           N48     Cs4   v100
        BYTE           N48     Cs3
        BYTE   W48
        BYTE           TIE     As3
        BYTE           TIE     As2
        BYTE   W48
        BYTE   PEND
// 040   ----------------------------------------
        BYTE   W96
// 041   ----------------------------------------
        BYTE           EOT     As3
        BYTE                   As2
        BYTE           N12     As3
        BYTE           N12     As2
        BYTE   W12
        BYTE           N24     Gs3
        BYTE           N24     Gs2
        BYTE   W24
        BYTE           N12     Fs3
        BYTE           N12     Fs2
        BYTE   W12
        BYTE           N48     Ds3
        BYTE           N48     Ds2
        BYTE   W48
// 042   ----------------------------------------
        BYTE   W96
// 043   ----------------------------------------
        BYTE   W96
// 044   ----------------------------------------
        BYTE   W96
// 045   ----------------------------------------
        BYTE   W96
// 046   ----------------------------------------
        BYTE   W96
// 047   ----------------------------------------
        BYTE   W96
// 048   ----------------------------------------
        BYTE   W96
// 049   ----------------------------------------
        BYTE   W96
// 050   ----------------------------------------
        BYTE   W96
// 051   ----------------------------------------
        BYTE   W96
// 052   ----------------------------------------
        BYTE   W96
// 053   ----------------------------------------
        BYTE   W96
// 054   ----------------------------------------
        BYTE   W96
// 055   ----------------------------------------
        BYTE   W96
// 056   ----------------------------------------
        BYTE   W96
// 057   ----------------------------------------
        BYTE   W96
// 058   ----------------------------------------
        BYTE   W96
// 059   ----------------------------------------
        BYTE   W96
// 060   ----------------------------------------
        BYTE   W48
        BYTE           N96     Fn4
        BYTE   W48
// 061   ----------------------------------------
        BYTE   W48
        BYTE                   As4
        BYTE   W48
// 062   ----------------------------------------
        BYTE   W48
        BYTE           N48     As3
        BYTE           N48     As4
        BYTE   W48
// 063   ----------------------------------------
        BYTE           N24     Gs4
        BYTE           N24     Gs3
        BYTE   W24
        BYTE                   Fs4
        BYTE           N24     Fs3
        BYTE   W24
        BYTE           N36     Ds4
        BYTE           N36     Ds3
        BYTE   W36
        BYTE           TIE     Cs4
        BYTE           TIE     Cs3
        BYTE   W12
// 064   ----------------------------------------
        BYTE   W96
// 065   ----------------------------------------
        BYTE   PATT
         POIN2  ReaptheWildWind_Slow_1_33
// 066   ----------------------------------------
        BYTE   W96
// 067   ----------------------------------------
        BYTE   PATT
         POIN2  ReaptheWildWind_Slow_1_35
// 068   ----------------------------------------
        BYTE   PATT
         POIN2  ReaptheWildWind_Slow_1_36
// 069   ----------------------------------------
        BYTE   PATT
         POIN2  ReaptheWildWind_Slow_1_37
// 070   ----------------------------------------
        BYTE   W96
// 071   ----------------------------------------
        BYTE   PATT
         POIN2  ReaptheWildWind_Slow_1_39
// 072   ----------------------------------------
        BYTE   W96
// 073   ----------------------------------------
        BYTE           EOT     As3
        BYTE                   As2
        BYTE           N12     As3   v100
        BYTE           N12     As2
        BYTE   W12
        BYTE           N24     Gs3
        BYTE           N24     Gs2
        BYTE   W24
        BYTE           N12     Fs3
        BYTE           N12     Fs2
        BYTE   W12
        BYTE           N96     Ds3
        BYTE           N96     Ds2
        BYTE   W48
// 074   ----------------------------------------
        BYTE   W48
        BYTE           N48     Ds4
        BYTE           N48     Ds3
        BYTE   W48
// 075   ----------------------------------------
        BYTE                   Fn4
        BYTE           N48     Fn3
        BYTE   W48
        BYTE           TIE     Cs4
        BYTE           TIE     Cs3
        BYTE   W48
// 076   ----------------------------------------
        BYTE   W96
// 077   ----------------------------------------
        BYTE   PATT
         POIN2  ReaptheWildWind_Slow_1_33
// 078   ----------------------------------------
        BYTE   W96
// 079   ----------------------------------------
        BYTE   PATT
         POIN2  ReaptheWildWind_Slow_1_31
// 080   ----------------------------------------
        BYTE   W96
// 081   ----------------------------------------
        BYTE   PATT
         POIN2  ReaptheWildWind_Slow_1_33
// 082   ----------------------------------------
        BYTE   W96
// 083   ----------------------------------------
        BYTE   PATT
         POIN2  ReaptheWildWind_Slow_1_35
// 084   ----------------------------------------
        BYTE   PATT
         POIN2  ReaptheWildWind_Slow_1_36
// 085   ----------------------------------------
        BYTE   PATT
         POIN2  ReaptheWildWind_Slow_1_37
// 086   ----------------------------------------
        BYTE   W96
// 087   ----------------------------------------
        BYTE   PATT
         POIN2  ReaptheWildWind_Slow_1_39
// 088   ----------------------------------------
        BYTE   W96
// 089   ----------------------------------------
        BYTE           EOT     As3
        BYTE                   As2
        BYTE           N18     As3   v100
        BYTE           N18     As2
        BYTE   W18
        BYTE                   Gs2
        BYTE           N18     Gs3
        BYTE   W18
        BYTE           N12     Fs3
        BYTE           N12     Fs2
        BYTE   W12
        BYTE           N96     Cs4   v072
        BYTE           N96     Cs3
        BYTE   W48
// 090   ----------------------------------------
ReaptheWildWind_Slow_1_90:
        BYTE   W48
        BYTE           N96     Cs4   v080
        BYTE           N96     Cs3
        BYTE   W48
        BYTE   PEND
// 091   ----------------------------------------
ReaptheWildWind_Slow_1_91:
        BYTE   W48
        BYTE           N96     Cs4   v088
        BYTE           N96     Cs3
        BYTE   W48
        BYTE   PEND
// 092   ----------------------------------------
ReaptheWildWind_Slow_1_92:
        BYTE   W48
        BYTE           N96     Cs4   v096
        BYTE           N96     Cs3
        BYTE   W48
        BYTE   PEND
// 093   ----------------------------------------
        BYTE   W48
        BYTE                   Cs4   v072
        BYTE           N96     Cs3
        BYTE   W48
// 094   ----------------------------------------
        BYTE   PATT
         POIN2  ReaptheWildWind_Slow_1_90
// 095   ----------------------------------------
        BYTE   PATT
         POIN2  ReaptheWildWind_Slow_1_91
// 096   ----------------------------------------
        BYTE   PATT
         POIN2  ReaptheWildWind_Slow_1_92
// 097   ----------------------------------------
        BYTE   W48
        BYTE   GoTo
         POIN2  ReaptheWildWind_Slow_1_LOOP
        BYTE   FINE

//****************** Track 2 (Midi-Chn.2) ******************//

ReaptheWildWind_Slow_2:
        BYTE   KEYSH   ReaptheWildWind_Slow_key+0
// 000   ----------------------------------------
        BYTE           VOICE   24
        BYTE           VOL     43
        BYTE           PAN     c_v+33
        BYTE   W96
        BYTE   W24
// 001   ----------------------------------------
        BYTE   W96
// 002   ----------------------------------------
        BYTE   W96
// 003   ----------------------------------------
        BYTE   W96
// 004   ----------------------------------------
        BYTE   W96
// 005   ----------------------------------------
        BYTE   W96
// 006   ----------------------------------------
        BYTE   W96
// 007   ----------------------------------------
        BYTE   W96
// 008   ----------------------------------------
        BYTE   W96
// 009   ----------------------------------------
        BYTE   W96
// 010   ----------------------------------------
        BYTE   W96
// 011   ----------------------------------------
        BYTE   W96
// 012   ----------------------------------------
ReaptheWildWind_Slow_2_12:
        BYTE           N12     As4   v100
        BYTE   W12
        BYTE                   Fs4
        BYTE   W12
        BYTE                   Cs4
        BYTE   W12
        BYTE                   As3
        BYTE   W12
        BYTE                   As4
        BYTE   W12
        BYTE                   Fs4
        BYTE   W12
        BYTE                   Cs4
        BYTE   W12
        BYTE                   As3
        BYTE   W12
        BYTE   PEND
// 013   ----------------------------------------
        BYTE   PATT
         POIN2  ReaptheWildWind_Slow_2_12
// 014   ----------------------------------------
        BYTE   PATT
         POIN2  ReaptheWildWind_Slow_2_12
// 015   ----------------------------------------
        BYTE   PATT
         POIN2  ReaptheWildWind_Slow_2_12
// 016   ----------------------------------------
ReaptheWildWind_Slow_2_16:
        BYTE           N12     As4   v100
        BYTE   W12
        BYTE                   Fs4
        BYTE   W12
        BYTE                   Ds4
        BYTE   W12
        BYTE                   As3
        BYTE   W12
        BYTE                   As4
        BYTE   W12
        BYTE                   As3
        BYTE   W12
        BYTE                   Ds4
        BYTE   W12
        BYTE                   As3
        BYTE   W12
        BYTE   PEND
// 017   ----------------------------------------
ReaptheWildWind_Slow_2_17:
        BYTE           N12     Cs4   v100
        BYTE   W12
        BYTE                   Cn4
        BYTE   W12
        BYTE                   As3
        BYTE   W12
        BYTE           N24     Fn3
        BYTE   W24
        BYTE           N12     Cs3
        BYTE   W12
        BYTE           N24     As2
        BYTE   W24
        BYTE   PEND
// 018   ----------------------------------------
ReaptheWildWind_Slow_2_18:
        BYTE           N24     Bn2   v100
        BYTE   W24
        BYTE           N12     Fs3
        BYTE   W12
        BYTE           N24     Fn3
        BYTE   W24
        BYTE           N36     Cs3
        BYTE   W36
        BYTE   PEND
// 019   ----------------------------------------
ReaptheWildWind_Slow_2_19:
        BYTE           N24     Bn2   v100
        BYTE   W24
        BYTE           N12     Fs3
        BYTE   W12
        BYTE           N24     Fn3
        BYTE   W24
        BYTE           N12     Fs3
        BYTE   W12
        BYTE           N24     Gs3
        BYTE   W24
        BYTE   PEND
// 020   ----------------------------------------
        BYTE   PATT
         POIN2  ReaptheWildWind_Slow_2_16
// 021   ----------------------------------------
        BYTE   PATT
         POIN2  ReaptheWildWind_Slow_2_17
// 022   ----------------------------------------
        BYTE   PATT
         POIN2  ReaptheWildWind_Slow_2_18
// 023   ----------------------------------------
        BYTE   PATT
         POIN2  ReaptheWildWind_Slow_2_19
// 024   ----------------------------------------
        BYTE   PATT
         POIN2  ReaptheWildWind_Slow_2_16
// 025   ----------------------------------------
        BYTE           N12     Cs4   v100
        BYTE   W12
        BYTE                   As3
        BYTE   W12
        BYTE                   Fn3
        BYTE   W12
        BYTE           N24     Cs3
        BYTE   W24
        BYTE           N12     Fn3
        BYTE   W12
        BYTE           N24     Cs3
        BYTE   W24
// 026   ----------------------------------------
        BYTE   PATT
         POIN2  ReaptheWildWind_Slow_2_18
// 027   ----------------------------------------
        BYTE           N24     Bn2   v100
        BYTE   W24
        BYTE           N12     Fs3
        BYTE   W12
        BYTE           TIE     Fn3
        BYTE   W60
// 028   ----------------------------------------
        BYTE   W96
// 029   ----------------------------------------
        BYTE           EOT
        BYTE   W48
ReaptheWildWind_Slow_2_LOOP:
        BYTE           N12     As4   v100
        BYTE   W12
        BYTE                   Fs4
        BYTE   W12
        BYTE                   Cs4
        BYTE   W12
        BYTE                   As3
        BYTE   W12
// 030   ----------------------------------------
        BYTE   PATT
         POIN2  ReaptheWildWind_Slow_2_12
// 031   ----------------------------------------
        BYTE   PATT
         POIN2  ReaptheWildWind_Slow_2_12
// 032   ----------------------------------------
        BYTE   PATT
         POIN2  ReaptheWildWind_Slow_2_12
// 033   ----------------------------------------
        BYTE   PATT
         POIN2  ReaptheWildWind_Slow_2_12
// 034   ----------------------------------------
        BYTE   PATT
         POIN2  ReaptheWildWind_Slow_2_12
// 035   ----------------------------------------
        BYTE   PATT
         POIN2  ReaptheWildWind_Slow_2_12
// 036   ----------------------------------------
        BYTE   PATT
         POIN2  ReaptheWildWind_Slow_2_12
// 037   ----------------------------------------
        BYTE   PATT
         POIN2  ReaptheWildWind_Slow_2_12
// 038   ----------------------------------------
        BYTE   PATT
         POIN2  ReaptheWildWind_Slow_2_12
// 039   ----------------------------------------
        BYTE   PATT
         POIN2  ReaptheWildWind_Slow_2_12
// 040   ----------------------------------------
        BYTE   PATT
         POIN2  ReaptheWildWind_Slow_2_12
// 041   ----------------------------------------
        BYTE           N12     As4   v100
        BYTE   W12
        BYTE                   Fs4
        BYTE   W12
        BYTE                   Cs4
        BYTE   W12
        BYTE                   As3
        BYTE   W12
        BYTE                   As4
        BYTE   W12
        BYTE                   Fs4
        BYTE   W12
        BYTE                   Ds4
        BYTE   W12
        BYTE                   As3
        BYTE   W12
// 042   ----------------------------------------
ReaptheWildWind_Slow_2_42:
        BYTE           N12     As4   v100
        BYTE   W12
        BYTE                   As3
        BYTE   W12
        BYTE                   Ds4
        BYTE   W12
        BYTE                   As3
        BYTE   W12
        BYTE                   Cs4
        BYTE   W12
        BYTE                   Cn4
        BYTE   W12
        BYTE                   As3
        BYTE   W12
        BYTE           N24     Fn3
        BYTE   W12
        BYTE   PEND
// 043   ----------------------------------------
ReaptheWildWind_Slow_2_43:
        BYTE   W12
        BYTE           N12     Cs3   v100
        BYTE   W12
        BYTE           N24     As2
        BYTE   W24
        BYTE                   Bn2
        BYTE   W24
        BYTE           N12     Fs3
        BYTE   W12
        BYTE           N24     Fn3
        BYTE   W12
        BYTE   PEND
// 044   ----------------------------------------
ReaptheWildWind_Slow_2_44:
        BYTE   W12
        BYTE           N36     Cs3   v100
        BYTE   W36
        BYTE           N24     Bn2
        BYTE   W24
        BYTE           N12     Fs3
        BYTE   W12
        BYTE           N24     Fn3
        BYTE   W12
        BYTE   PEND
// 045   ----------------------------------------
ReaptheWildWind_Slow_2_45:
        BYTE   W12
        BYTE           N12     Fs3   v100
        BYTE   W12
        BYTE           N24     Gs3
        BYTE   W24
        BYTE           N12     As4
        BYTE   W12
        BYTE                   Fs4
        BYTE   W12
        BYTE                   Ds4
        BYTE   W12
        BYTE                   As3
        BYTE   W12
        BYTE   PEND
// 046   ----------------------------------------
        BYTE   PATT
         POIN2  ReaptheWildWind_Slow_2_42
// 047   ----------------------------------------
        BYTE   PATT
         POIN2  ReaptheWildWind_Slow_2_43
// 048   ----------------------------------------
        BYTE   PATT
         POIN2  ReaptheWildWind_Slow_2_44
// 049   ----------------------------------------
        BYTE   PATT
         POIN2  ReaptheWildWind_Slow_2_45
// 050   ----------------------------------------
        BYTE           N12     As4   v100
        BYTE   W12
        BYTE                   As3
        BYTE   W12
        BYTE                   Ds4
        BYTE   W12
        BYTE                   As3
        BYTE   W12
        BYTE                   Cs4
        BYTE   W12
        BYTE                   As3
        BYTE   W12
        BYTE                   Fn3
        BYTE   W12
        BYTE           N24     Cs3
        BYTE   W12
// 051   ----------------------------------------
        BYTE   W12
        BYTE           N12     Fn3
        BYTE   W12
        BYTE           N24     Cs3
        BYTE   W24
        BYTE           N72     Gs3   v127
        BYTE           N72     Gs2
        BYTE           N72     Gs1
        BYTE   W48
// 052   ----------------------------------------
ReaptheWildWind_Slow_2_52:
        BYTE   W24
        BYTE           N24     Fn3   v127
        BYTE           N24     Fn2
        BYTE           N24     Fn1
        BYTE   W24
        BYTE           N72     Ds3
        BYTE           N72     Ds2
        BYTE           N72     Ds1
        BYTE   W48
        BYTE   PEND
// 053   ----------------------------------------
        BYTE   W24
        BYTE           N24     As3
        BYTE           N24     As2
        BYTE           N24     As1
        BYTE   W24
        BYTE           N72     Gs3
        BYTE           N72     Gs2
        BYTE           N72     Gs1
        BYTE   W48
// 054   ----------------------------------------
        BYTE   W24
        BYTE           N24     Fn3
        BYTE           N24     Fn2
        BYTE           N24     Fn1
        BYTE   W24
        BYTE           N36     Fs3
        BYTE           N96     Fs2
        BYTE           N96     Fs1
        BYTE   W36
        BYTE           N24     Fn3
        BYTE   W12
// 055   ----------------------------------------
        BYTE   W12
        BYTE           N36     Cs3
        BYTE   W36
        BYTE           N72     Gs3
        BYTE           N72     Gs2
        BYTE           N72     Gs1
        BYTE   W48
// 056   ----------------------------------------
        BYTE   PATT
         POIN2  ReaptheWildWind_Slow_2_52
// 057   ----------------------------------------
        BYTE   W24
        BYTE           N24     As3   v127
        BYTE           N24     As2
        BYTE           N24     As1
        BYTE   W24
        BYTE           N96     Cs3
        BYTE           N96     Fs3
        BYTE   W48
// 058   ----------------------------------------
        BYTE   W48
        BYTE                   Gs3
        BYTE           N96     Cs3
        BYTE   W48
// 059   ----------------------------------------
        BYTE   W48
        BYTE                   As3
        BYTE   W48
// 060   ----------------------------------------
        BYTE   W48
        BYTE                   Gs3
        BYTE   W48
// 061   ----------------------------------------
ReaptheWildWind_Slow_2_61:
        BYTE   W48
        BYTE           N12     As4   v100
        BYTE   W12
        BYTE                   Fs4
        BYTE   W12
        BYTE                   Cs4
        BYTE   W12
        BYTE                   As3
        BYTE   W12
        BYTE   PEND
// 062   ----------------------------------------
        BYTE   PATT
         POIN2  ReaptheWildWind_Slow_2_12
// 063   ----------------------------------------
        BYTE   PATT
         POIN2  ReaptheWildWind_Slow_2_12
// 064   ----------------------------------------
        BYTE   PATT
         POIN2  ReaptheWildWind_Slow_2_12
// 065   ----------------------------------------
        BYTE           N12     As4   v100
        BYTE   W12
        BYTE                   Fs4
        BYTE   W12
        BYTE                   Cs4
        BYTE   W12
        BYTE                   As3
        BYTE   W60
// 066   ----------------------------------------
        BYTE   W96
// 067   ----------------------------------------
        BYTE   W96
// 068   ----------------------------------------
        BYTE   W96
// 069   ----------------------------------------
        BYTE   W96
// 070   ----------------------------------------
        BYTE   W96
// 071   ----------------------------------------
        BYTE   W96
// 072   ----------------------------------------
        BYTE   W96
// 073   ----------------------------------------
        BYTE   W96
// 074   ----------------------------------------
        BYTE   W96
// 075   ----------------------------------------
        BYTE   W96
// 076   ----------------------------------------
        BYTE   W96
// 077   ----------------------------------------
        BYTE   PATT
         POIN2  ReaptheWildWind_Slow_2_61
// 078   ----------------------------------------
        BYTE   PATT
         POIN2  ReaptheWildWind_Slow_2_12
// 079   ----------------------------------------
        BYTE   PATT
         POIN2  ReaptheWildWind_Slow_2_12
// 080   ----------------------------------------
        BYTE   PATT
         POIN2  ReaptheWildWind_Slow_2_12
// 081   ----------------------------------------
        BYTE   PATT
         POIN2  ReaptheWildWind_Slow_2_12
// 082   ----------------------------------------
        BYTE   PATT
         POIN2  ReaptheWildWind_Slow_2_12
// 083   ----------------------------------------
        BYTE   PATT
         POIN2  ReaptheWildWind_Slow_2_12
// 084   ----------------------------------------
        BYTE   PATT
         POIN2  ReaptheWildWind_Slow_2_12
// 085   ----------------------------------------
        BYTE   PATT
         POIN2  ReaptheWildWind_Slow_2_12
// 086   ----------------------------------------
        BYTE   PATT
         POIN2  ReaptheWildWind_Slow_2_12
// 087   ----------------------------------------
        BYTE   PATT
         POIN2  ReaptheWildWind_Slow_2_12
// 088   ----------------------------------------
        BYTE   PATT
         POIN2  ReaptheWildWind_Slow_2_12
// 089   ----------------------------------------
ReaptheWildWind_Slow_2_89:
        BYTE           N18     As4   v127
        BYTE           N18     As3
        BYTE           N18     As2
        BYTE   W18
        BYTE                   Gs4
        BYTE           N18     Gs3
        BYTE           N18     Gs2
        BYTE   W18
        BYTE           N12     Fs4
        BYTE           N12     Fs3
        BYTE           N12     Fs2
        BYTE   W12
        BYTE           N96
        BYTE           N96     Cs3
        BYTE           N96     Fs3
        BYTE           N96     Fn3
        BYTE   W48
        BYTE   PEND
// 090   ----------------------------------------
ReaptheWildWind_Slow_2_90:
        BYTE   W48
        BYTE           N96     Gs3   v127
        BYTE           N96     Fn3
        BYTE           N96     Gs2
        BYTE           N96     Cs3
        BYTE   W48
        BYTE   PEND
// 091   ----------------------------------------
ReaptheWildWind_Slow_2_91:
        BYTE   W48
        BYTE           N96     Cs3   v127
        BYTE           N96     Fs2
        BYTE           N96     Fn3
        BYTE           N96     As3
        BYTE   W48
        BYTE   PEND
// 092   ----------------------------------------
ReaptheWildWind_Slow_2_92:
        BYTE   W48
        BYTE           N48     Gs3   v127
        BYTE           N48     Cs3
        BYTE           N48     Gs2
        BYTE           N48     Fn3
        BYTE   W48
        BYTE   PEND
// 093   ----------------------------------------
        BYTE   PATT
         POIN2  ReaptheWildWind_Slow_2_89
// 094   ----------------------------------------
        BYTE   PATT
         POIN2  ReaptheWildWind_Slow_2_90
// 095   ----------------------------------------
        BYTE   PATT
         POIN2  ReaptheWildWind_Slow_2_91
// 096   ----------------------------------------
        BYTE   PATT
         POIN2  ReaptheWildWind_Slow_2_92
// 097   ----------------------------------------
        BYTE           N18     As4   v127
        BYTE           N18     As3
        BYTE           N18     As2
        BYTE   W18
        BYTE                   Gs4
        BYTE           N18     Gs3
        BYTE           N18     Gs2
        BYTE   W18
        BYTE           N12     Fs4
        BYTE           N12     Fs3
        BYTE           N12     Fs2
        BYTE   W12
        BYTE   GoTo
         POIN2  ReaptheWildWind_Slow_2_LOOP
        BYTE   FINE

//****************** Track 3 (Midi-Chn.3) ******************//

ReaptheWildWind_Slow_3:
        BYTE   KEYSH   ReaptheWildWind_Slow_key+0
// 000   ----------------------------------------
        BYTE           VOICE   0
        BYTE           VOL     37
        BYTE           PAN     c_v-33
        BYTE   W24
        BYTE           N24     Fs2   v100
        BYTE   W24
        BYTE                   Gs2
        BYTE   W24
        BYTE                   Fs2
        BYTE   W24
        BYTE                   Gs2
        BYTE   W24
// 001   ----------------------------------------
ReaptheWildWind_Slow_3_1:
        BYTE           N24     Fs2   v100
        BYTE   W24
        BYTE                   Gs2
        BYTE   W24
        BYTE                   Fs2
        BYTE   W24
        BYTE                   Gs2
        BYTE   W24
        BYTE   PEND
// 002   ----------------------------------------
        BYTE   PATT
         POIN2  ReaptheWildWind_Slow_3_1
// 003   ----------------------------------------
        BYTE   PATT
         POIN2  ReaptheWildWind_Slow_3_1
// 004   ----------------------------------------
        BYTE   PATT
         POIN2  ReaptheWildWind_Slow_3_1
// 005   ----------------------------------------
        BYTE   PATT
         POIN2  ReaptheWildWind_Slow_3_1
// 006   ----------------------------------------
        BYTE   PATT
         POIN2  ReaptheWildWind_Slow_3_1
// 007   ----------------------------------------
        BYTE   PATT
         POIN2  ReaptheWildWind_Slow_3_1
// 008   ----------------------------------------
ReaptheWildWind_Slow_3_8:
        BYTE           N48     Ds2   v100
        BYTE   W48
        BYTE                   Ds2
        BYTE   W48
        BYTE   PEND
// 009   ----------------------------------------
        BYTE   PATT
         POIN2  ReaptheWildWind_Slow_3_8
// 010   ----------------------------------------
        BYTE   PATT
         POIN2  ReaptheWildWind_Slow_3_1
// 011   ----------------------------------------
        BYTE   PATT
         POIN2  ReaptheWildWind_Slow_3_1
// 012   ----------------------------------------
        BYTE   PATT
         POIN2  ReaptheWildWind_Slow_3_8
// 013   ----------------------------------------
        BYTE   PATT
         POIN2  ReaptheWildWind_Slow_3_8
// 014   ----------------------------------------
        BYTE   PATT
         POIN2  ReaptheWildWind_Slow_3_1
// 015   ----------------------------------------
        BYTE   PATT
         POIN2  ReaptheWildWind_Slow_3_1
// 016   ----------------------------------------
        BYTE   W96
// 017   ----------------------------------------
        BYTE   W96
// 018   ----------------------------------------
        BYTE   W96
// 019   ----------------------------------------
        BYTE   W96
// 020   ----------------------------------------
        BYTE   W96
// 021   ----------------------------------------
        BYTE   W96
// 022   ----------------------------------------
        BYTE   W96
// 023   ----------------------------------------
        BYTE   W96
// 024   ----------------------------------------
        BYTE   W96
// 025   ----------------------------------------
        BYTE   W96
// 026   ----------------------------------------
        BYTE   W96
// 027   ----------------------------------------
        BYTE   W96
// 028   ----------------------------------------
        BYTE   W96
// 029   ----------------------------------------
        BYTE   W48
ReaptheWildWind_Slow_3_LOOP:
        BYTE           N24     Fs2   v100
        BYTE   W24
        BYTE                   Gs2
        BYTE   W24
// 030   ----------------------------------------
        BYTE   PATT
         POIN2  ReaptheWildWind_Slow_3_1
// 031   ----------------------------------------
        BYTE   PATT
         POIN2  ReaptheWildWind_Slow_3_1
// 032   ----------------------------------------
        BYTE   PATT
         POIN2  ReaptheWildWind_Slow_3_1
// 033   ----------------------------------------
        BYTE   PATT
         POIN2  ReaptheWildWind_Slow_3_1
// 034   ----------------------------------------
        BYTE   PATT
         POIN2  ReaptheWildWind_Slow_3_1
// 035   ----------------------------------------
        BYTE   PATT
         POIN2  ReaptheWildWind_Slow_3_1
// 036   ----------------------------------------
        BYTE   PATT
         POIN2  ReaptheWildWind_Slow_3_1
// 037   ----------------------------------------
ReaptheWildWind_Slow_3_37:
        BYTE           N24     Fs2   v100
        BYTE   W24
        BYTE                   Gs2
        BYTE   W24
        BYTE           N48     Ds2
        BYTE   W48
        BYTE   PEND
// 038   ----------------------------------------
        BYTE   PATT
         POIN2  ReaptheWildWind_Slow_3_8
// 039   ----------------------------------------
ReaptheWildWind_Slow_3_39:
        BYTE           N48     Ds2   v100
        BYTE   W48
        BYTE           N24     Fs2
        BYTE   W24
        BYTE                   Gs2
        BYTE   W24
        BYTE   PEND
// 040   ----------------------------------------
        BYTE   PATT
         POIN2  ReaptheWildWind_Slow_3_1
// 041   ----------------------------------------
        BYTE           N24     Fs2   v100
        BYTE   W24
        BYTE                   Gs2
        BYTE   W72
// 042   ----------------------------------------
        BYTE   W96
// 043   ----------------------------------------
        BYTE   W96
// 044   ----------------------------------------
        BYTE   W96
// 045   ----------------------------------------
        BYTE   W96
// 046   ----------------------------------------
        BYTE   W96
// 047   ----------------------------------------
        BYTE   W96
// 048   ----------------------------------------
        BYTE   W96
// 049   ----------------------------------------
        BYTE   W96
// 050   ----------------------------------------
        BYTE   W96
// 051   ----------------------------------------
        BYTE   W96
// 052   ----------------------------------------
        BYTE   W96
// 053   ----------------------------------------
        BYTE   W96
// 054   ----------------------------------------
        BYTE   W96
// 055   ----------------------------------------
        BYTE   W96
// 056   ----------------------------------------
        BYTE   W96
// 057   ----------------------------------------
        BYTE   W96
// 058   ----------------------------------------
        BYTE   W96
// 059   ----------------------------------------
        BYTE   W96
// 060   ----------------------------------------
        BYTE   W96
// 061   ----------------------------------------
        BYTE   W96
// 062   ----------------------------------------
        BYTE   W48
        BYTE                   Fs2
        BYTE   W24
        BYTE                   Gs2
        BYTE   W24
// 063   ----------------------------------------
        BYTE   PATT
         POIN2  ReaptheWildWind_Slow_3_1
// 064   ----------------------------------------
        BYTE   PATT
         POIN2  ReaptheWildWind_Slow_3_1
// 065   ----------------------------------------
        BYTE   PATT
         POIN2  ReaptheWildWind_Slow_3_1
// 066   ----------------------------------------
        BYTE   PATT
         POIN2  ReaptheWildWind_Slow_3_1
// 067   ----------------------------------------
        BYTE   PATT
         POIN2  ReaptheWildWind_Slow_3_1
// 068   ----------------------------------------
        BYTE   PATT
         POIN2  ReaptheWildWind_Slow_3_1
// 069   ----------------------------------------
        BYTE   PATT
         POIN2  ReaptheWildWind_Slow_3_37
// 070   ----------------------------------------
        BYTE   PATT
         POIN2  ReaptheWildWind_Slow_3_8
// 071   ----------------------------------------
        BYTE   PATT
         POIN2  ReaptheWildWind_Slow_3_39
// 072   ----------------------------------------
        BYTE   PATT
         POIN2  ReaptheWildWind_Slow_3_1
// 073   ----------------------------------------
        BYTE   PATT
         POIN2  ReaptheWildWind_Slow_3_37
// 074   ----------------------------------------
        BYTE   PATT
         POIN2  ReaptheWildWind_Slow_3_8
// 075   ----------------------------------------
        BYTE   PATT
         POIN2  ReaptheWildWind_Slow_3_39
// 076   ----------------------------------------
        BYTE   PATT
         POIN2  ReaptheWildWind_Slow_3_1
// 077   ----------------------------------------
        BYTE   PATT
         POIN2  ReaptheWildWind_Slow_3_1
// 078   ----------------------------------------
        BYTE   PATT
         POIN2  ReaptheWildWind_Slow_3_1
// 079   ----------------------------------------
        BYTE   PATT
         POIN2  ReaptheWildWind_Slow_3_1
// 080   ----------------------------------------
        BYTE   PATT
         POIN2  ReaptheWildWind_Slow_3_1
// 081   ----------------------------------------
        BYTE   PATT
         POIN2  ReaptheWildWind_Slow_3_1
// 082   ----------------------------------------
        BYTE   PATT
         POIN2  ReaptheWildWind_Slow_3_1
// 083   ----------------------------------------
        BYTE   PATT
         POIN2  ReaptheWildWind_Slow_3_1
// 084   ----------------------------------------
        BYTE   PATT
         POIN2  ReaptheWildWind_Slow_3_1
// 085   ----------------------------------------
        BYTE   PATT
         POIN2  ReaptheWildWind_Slow_3_37
// 086   ----------------------------------------
        BYTE   PATT
         POIN2  ReaptheWildWind_Slow_3_8
// 087   ----------------------------------------
        BYTE   PATT
         POIN2  ReaptheWildWind_Slow_3_39
// 088   ----------------------------------------
        BYTE   PATT
         POIN2  ReaptheWildWind_Slow_3_1
// 089   ----------------------------------------
        BYTE   W96
// 090   ----------------------------------------
        BYTE   W96
// 091   ----------------------------------------
        BYTE   W96
// 092   ----------------------------------------
        BYTE   W96
// 093   ----------------------------------------
        BYTE   W96
// 094   ----------------------------------------
        BYTE   W96
// 095   ----------------------------------------
        BYTE   W96
// 096   ----------------------------------------
        BYTE   W96
// 097   ----------------------------------------
        BYTE   W48
        BYTE   GoTo
         POIN2  ReaptheWildWind_Slow_3_LOOP
        BYTE   FINE

//****************** Track 4 (Midi-Chn.4) ******************//

ReaptheWildWind_Slow_4:
        BYTE   KEYSH   ReaptheWildWind_Slow_key+0
// 000   ----------------------------------------
        BYTE           VOICE   69
        BYTE           VOL     53
        BYTE           PAN     c_v+8
        BYTE   W96
        BYTE   W24
// 001   ----------------------------------------
        BYTE   W96
// 002   ----------------------------------------
        BYTE   W96
// 003   ----------------------------------------
        BYTE   W96
// 004   ----------------------------------------
        BYTE   W96
// 005   ----------------------------------------
        BYTE   W96
// 006   ----------------------------------------
        BYTE   W96
// 007   ----------------------------------------
        BYTE   W96
// 008   ----------------------------------------
        BYTE   W48
        BYTE           N48     Ds3   v100
        BYTE   W48
// 009   ----------------------------------------
ReaptheWildWind_Slow_4_9:
        BYTE           N48     Fs3   v100
        BYTE   W48
        BYTE           N60     Cs4
        BYTE   W48
        BYTE   PEND
// 010   ----------------------------------------
        BYTE   W12
        BYTE           TIE     As3
        BYTE   W84
// 011   ----------------------------------------
        BYTE   W96
// 012   ----------------------------------------
        BYTE           EOT
        BYTE   W48
        BYTE           N48     Ds3
        BYTE   W48
// 013   ----------------------------------------
        BYTE   PATT
         POIN2  ReaptheWildWind_Slow_4_9
// 014   ----------------------------------------
        BYTE   W12
        BYTE           TIE     As3   v100
        BYTE   W84
// 015   ----------------------------------------
        BYTE   W72
        BYTE           EOT
        BYTE   W12
        BYTE           N06
        BYTE   W12
// 016   ----------------------------------------
        BYTE           N24
        BYTE   W24
        BYTE           N06     Bn3
        BYTE   W12
        BYTE           N36     As3
        BYTE   W48
        BYTE           N12
        BYTE   W12
// 017   ----------------------------------------
        BYTE           N24
        BYTE   W24
        BYTE           N06     Bn3
        BYTE   W12
        BYTE           N36     As3
        BYTE   W60
// 018   ----------------------------------------
        BYTE   W96
// 019   ----------------------------------------
        BYTE   W84
        BYTE           N06
        BYTE   W12
// 020   ----------------------------------------
        BYTE           N12
        BYTE   W12
        BYTE                   As3
        BYTE   W12
        BYTE           N06     Bn3
        BYTE   W12
        BYTE           N36     As3
        BYTE   W36
        BYTE           N24     Fs3
        BYTE   W24
// 021   ----------------------------------------
        BYTE           N12     As3
        BYTE   W12
        BYTE           N24     Fn3
        BYTE   W24
        BYTE                   Fn3
        BYTE   W24
        BYTE           N36
        BYTE   W36
// 022   ----------------------------------------
        BYTE   W96
// 023   ----------------------------------------
        BYTE   W72
        BYTE           N24     Ds4
        BYTE   W24
// 024   ----------------------------------------
        BYTE           N12
        BYTE   W12
        BYTE                   Ds4
        BYTE   W12
        BYTE                   Fn4
        BYTE   W12
        BYTE           N24     Ds4
        BYTE   W24
        BYTE                   As3
        BYTE   W24
        BYTE           N12     Gs3
        BYTE   W12
// 025   ----------------------------------------
        BYTE           N24
        BYTE   W24
        BYTE                   As3
        BYTE   W24
        BYTE           N12     Fn3
        BYTE   W12
        BYTE           N36     Ds3
        BYTE   W36
// 026   ----------------------------------------
        BYTE   W96
// 027   ----------------------------------------
        BYTE           N24     Bn3
        BYTE   W24
        BYTE           N12     Ds3
        BYTE   W12
        BYTE           N84     Fn3
        BYTE   W60
// 028   ----------------------------------------
        BYTE   W24
        BYTE           N12     Ds3
        BYTE   W12
        BYTE           TIE     Cs3
        BYTE   W60
// 029   ----------------------------------------
        BYTE   W48
        BYTE           EOT
ReaptheWildWind_Slow_4_LOOP:
        BYTE   W12
        BYTE           N06     Fs3   v100
        BYTE   W12
        BYTE                   Fs3
        BYTE   W12
        BYTE                   Fs3
        BYTE   W12
// 030   ----------------------------------------
ReaptheWildWind_Slow_4_30:
        BYTE           N24     Fs3   v100
        BYTE   W24
        BYTE           N12     Cs3
        BYTE   W24
        BYTE                   Cs3
        BYTE   W12
        BYTE                   Fs3
        BYTE   W12
        BYTE                   Fs3
        BYTE   W12
        BYTE           N36
        BYTE   W12
        BYTE   PEND
// 031   ----------------------------------------
ReaptheWildWind_Slow_4_31:
        BYTE   W24
        BYTE           N12     Cs3   v100
        BYTE   W36
        BYTE           N06     Fs3
        BYTE   W12
        BYTE                   Fs3
        BYTE   W12
        BYTE                   Fs3
        BYTE   W12
        BYTE   PEND
// 032   ----------------------------------------
ReaptheWildWind_Slow_4_32:
        BYTE           N24     Fs3   v100
        BYTE   W24
        BYTE           N12     Cs3
        BYTE   W24
        BYTE                   Cs3
        BYTE   W12
        BYTE                   Fs3
        BYTE   W12
        BYTE                   Fs3
        BYTE   W12
        BYTE           N24
        BYTE   W12
        BYTE   PEND
// 033   ----------------------------------------
ReaptheWildWind_Slow_4_33:
        BYTE   W12
        BYTE           N06     Gs3   v100
        BYTE   W12
        BYTE           N24     Fs3
        BYTE   W36
        BYTE           N06
        BYTE   W12
        BYTE                   Fs3
        BYTE   W12
        BYTE                   Fs3
        BYTE   W12
        BYTE   PEND
// 034   ----------------------------------------
ReaptheWildWind_Slow_4_34:
        BYTE           N24     Fs3   v100
        BYTE   W24
        BYTE           N12     Cs3
        BYTE   W24
        BYTE                   Fs3
        BYTE   W12
        BYTE                   Fs3
        BYTE   W12
        BYTE                   Fs3
        BYTE   W12
        BYTE           N24
        BYTE   W12
        BYTE   PEND
// 035   ----------------------------------------
ReaptheWildWind_Slow_4_35:
        BYTE   W12
        BYTE           N12     Cs3   v100
        BYTE   W48
        BYTE           N06     Fs3
        BYTE   W12
        BYTE                   Fs3
        BYTE   W12
        BYTE                   Fs3
        BYTE   W12
        BYTE   PEND
// 036   ----------------------------------------
ReaptheWildWind_Slow_4_36:
        BYTE           N06     Fs3   v100
        BYTE   W12
        BYTE                   Fs3
        BYTE   W12
        BYTE           N12     Cs3
        BYTE   W24
        BYTE                   Cs3
        BYTE   W12
        BYTE                   Fs3
        BYTE   W12
        BYTE                   Fs3
        BYTE   W12
        BYTE                   Fs3
        BYTE   W12
        BYTE   PEND
// 037   ----------------------------------------
ReaptheWildWind_Slow_4_37:
        BYTE   W12
        BYTE           N12     Fs3   v100
        BYTE   W12
        BYTE                   Fs3
        BYTE   W12
        BYTE           N06     Fn3
        BYTE   W06
        BYTE                   En3
        BYTE   W06
        BYTE           N48     Ds3
        BYTE   W48
        BYTE   PEND
// 038   ----------------------------------------
ReaptheWildWind_Slow_4_38:
        BYTE           N48     Ds3   v100
        BYTE   W48
        BYTE                   Fs3
        BYTE   W48
        BYTE   PEND
// 039   ----------------------------------------
ReaptheWildWind_Slow_4_39:
        BYTE           N60     Cs4   v100
        BYTE   W60
        BYTE           TIE     As3
        BYTE   W36
        BYTE   PEND
// 040   ----------------------------------------
        BYTE   W96
// 041   ----------------------------------------
        BYTE   W24
        BYTE           EOT
        BYTE   W12
        BYTE           N06
        BYTE   W12
        BYTE           N24
        BYTE   W24
        BYTE           N06     Bn3
        BYTE   W12
        BYTE           N36     As3
        BYTE   W12
// 042   ----------------------------------------
        BYTE   W36
        BYTE           N12
        BYTE   W12
        BYTE           N24
        BYTE   W24
        BYTE           N06     Bn3
        BYTE   W12
        BYTE           N36     As3
        BYTE   W12
// 043   ----------------------------------------
        BYTE   W96
// 044   ----------------------------------------
        BYTE   W96
// 045   ----------------------------------------
        BYTE   W36
        BYTE           N06
        BYTE   W12
        BYTE           N12
        BYTE   W12
        BYTE                   As3
        BYTE   W12
        BYTE           N06     Bn3
        BYTE   W12
        BYTE           N36     As3
        BYTE   W12
// 046   ----------------------------------------
        BYTE   W24
        BYTE           N24     Fs3
        BYTE   W24
        BYTE           N12     As3
        BYTE   W12
        BYTE           N24     Fn3
        BYTE   W24
        BYTE                   Fn3
        BYTE   W12
// 047   ----------------------------------------
        BYTE   W12
        BYTE           N36
        BYTE   W84
// 048   ----------------------------------------
        BYTE   W96
// 049   ----------------------------------------
        BYTE           N48     Ds4
        BYTE   W48
        BYTE           N12
        BYTE   W12
        BYTE                   Ds4
        BYTE   W12
        BYTE                   Fn4
        BYTE   W12
        BYTE           N24     Ds4
        BYTE   W12
// 050   ----------------------------------------
        BYTE   W12
        BYTE                   As3
        BYTE   W24
        BYTE           N12     Gs3
        BYTE   W12
        BYTE           N24
        BYTE   W24
        BYTE                   As3
        BYTE   W24
// 051   ----------------------------------------
        BYTE           N12     Fn3
        BYTE   W12
        BYTE           N36     Ds3
        BYTE   W84
// 052   ----------------------------------------
        BYTE   W96
// 053   ----------------------------------------
        BYTE   W96
// 054   ----------------------------------------
        BYTE   W96
// 055   ----------------------------------------
        BYTE   W96
// 056   ----------------------------------------
        BYTE   W96
// 057   ----------------------------------------
        BYTE   W60
        BYTE           N12     Fs3
        BYTE   W12
        BYTE                   Fs3
        BYTE   W12
        BYTE                   Fs3
        BYTE   W12
// 058   ----------------------------------------
        BYTE                   Fs3
        BYTE   W12
        BYTE                   Fs3
        BYTE   W12
        BYTE                   Fn3
        BYTE   W12
        BYTE                   Fs3
        BYTE   W24
        BYTE                   Fs3
        BYTE   W12
        BYTE                   Gs3
        BYTE   W12
        BYTE           N60
        BYTE   W12
// 059   ----------------------------------------
        BYTE   W60
        BYTE           N12     Bn3
        BYTE   W12
        BYTE                   Bn3
        BYTE   W12
        BYTE                   As3
        BYTE   W12
// 060   ----------------------------------------
        BYTE           N24     Bn3
        BYTE   W24
        BYTE           N12
        BYTE   W12
        BYTE                   As3
        BYTE   W12
        BYTE           N24     Bn3
        BYTE   W24
        BYTE           N12     As3
        BYTE   W12
        BYTE           N24     Bn3
        BYTE   W12
// 061   ----------------------------------------
        BYTE   W12
        BYTE           N12
        BYTE   W12
        BYTE           TIE     Cs4
        BYTE   W36
        BYTE           N06     Fs3
        BYTE   W12
        BYTE                   Fs3
        BYTE   W12
        BYTE                   Fs3
        BYTE   W12
// 062   ----------------------------------------
        BYTE           N24
        BYTE   W24
        BYTE           N12     Cs3
        BYTE   W24
        BYTE           EOT     Cs4
        BYTE           N12     Cs3
        BYTE   W12
        BYTE                   Fs3
        BYTE   W12
        BYTE                   Fs3
        BYTE   W12
        BYTE           N36
        BYTE   W12
// 063   ----------------------------------------
        BYTE   PATT
         POIN2  ReaptheWildWind_Slow_4_31
// 064   ----------------------------------------
        BYTE   PATT
         POIN2  ReaptheWildWind_Slow_4_32
// 065   ----------------------------------------
        BYTE   PATT
         POIN2  ReaptheWildWind_Slow_4_33
// 066   ----------------------------------------
        BYTE   PATT
         POIN2  ReaptheWildWind_Slow_4_34
// 067   ----------------------------------------
        BYTE   PATT
         POIN2  ReaptheWildWind_Slow_4_35
// 068   ----------------------------------------
        BYTE   PATT
         POIN2  ReaptheWildWind_Slow_4_36
// 069   ----------------------------------------
        BYTE   PATT
         POIN2  ReaptheWildWind_Slow_4_37
// 070   ----------------------------------------
        BYTE   PATT
         POIN2  ReaptheWildWind_Slow_4_38
// 071   ----------------------------------------
        BYTE   PATT
         POIN2  ReaptheWildWind_Slow_4_39
// 072   ----------------------------------------
        BYTE   W96
// 073   ----------------------------------------
        BYTE   W48
        BYTE           EOT     As3
        BYTE   W48
// 074   ----------------------------------------
        BYTE   PATT
         POIN2  ReaptheWildWind_Slow_4_38
// 075   ----------------------------------------
        BYTE           N60     Ds4   v100
        BYTE   W60
        BYTE           TIE     As3
        BYTE   W36
// 076   ----------------------------------------
        BYTE   W96
// 077   ----------------------------------------
        BYTE   W48
        BYTE           EOT
        BYTE   W12
        BYTE           N06     Fs3
        BYTE   W12
        BYTE                   Fs3
        BYTE   W12
        BYTE                   Fs3
        BYTE   W12
// 078   ----------------------------------------
        BYTE   PATT
         POIN2  ReaptheWildWind_Slow_4_30
// 079   ----------------------------------------
        BYTE   PATT
         POIN2  ReaptheWildWind_Slow_4_31
// 080   ----------------------------------------
        BYTE   PATT
         POIN2  ReaptheWildWind_Slow_4_32
// 081   ----------------------------------------
        BYTE   PATT
         POIN2  ReaptheWildWind_Slow_4_33
// 082   ----------------------------------------
        BYTE   PATT
         POIN2  ReaptheWildWind_Slow_4_34
// 083   ----------------------------------------
        BYTE   PATT
         POIN2  ReaptheWildWind_Slow_4_35
// 084   ----------------------------------------
        BYTE   PATT
         POIN2  ReaptheWildWind_Slow_4_36
// 085   ----------------------------------------
        BYTE   PATT
         POIN2  ReaptheWildWind_Slow_4_37
// 086   ----------------------------------------
        BYTE   PATT
         POIN2  ReaptheWildWind_Slow_4_38
// 087   ----------------------------------------
        BYTE   PATT
         POIN2  ReaptheWildWind_Slow_4_39
// 088   ----------------------------------------
        BYTE   W96
// 089   ----------------------------------------
        BYTE           EOT     As3
        BYTE   W96
// 090   ----------------------------------------
        BYTE   W96
// 091   ----------------------------------------
        BYTE   W96
// 092   ----------------------------------------
        BYTE   W96
// 093   ----------------------------------------
        BYTE   W96
// 094   ----------------------------------------
        BYTE   W96
// 095   ----------------------------------------
        BYTE   W96
// 096   ----------------------------------------
        BYTE   W96
// 097   ----------------------------------------
        BYTE   W48
        BYTE   GoTo
         POIN2  ReaptheWildWind_Slow_4_LOOP
        BYTE   FINE

//****************** Track 5 (Midi-Chn.5) ******************//

ReaptheWildWind_Slow_5:
        BYTE   KEYSH   ReaptheWildWind_Slow_key+0
// 000   ----------------------------------------
        BYTE           VOICE   66
        BYTE           VOL     45
        BYTE           PAN     c_v-4
        BYTE   W96
        BYTE   W24
// 001   ----------------------------------------
        BYTE   W96
// 002   ----------------------------------------
        BYTE   W96
// 003   ----------------------------------------
        BYTE   W96
// 004   ----------------------------------------
        BYTE   W96
// 005   ----------------------------------------
        BYTE   W96
// 006   ----------------------------------------
        BYTE   W96
// 007   ----------------------------------------
        BYTE   W96
// 008   ----------------------------------------
        BYTE   W96
// 009   ----------------------------------------
        BYTE   W96
// 010   ----------------------------------------
        BYTE   W96
// 011   ----------------------------------------
        BYTE   W96
// 012   ----------------------------------------
        BYTE   W96
// 013   ----------------------------------------
        BYTE   W96
// 014   ----------------------------------------
        BYTE   W96
// 015   ----------------------------------------
        BYTE   W96
// 016   ----------------------------------------
        BYTE   W96
// 017   ----------------------------------------
        BYTE   W96
// 018   ----------------------------------------
ReaptheWildWind_Slow_5_18:
        BYTE           N24     Bn2   v100
        BYTE   W24
        BYTE           N12     Cs3
        BYTE   W12
        BYTE           N36     Bn2
        BYTE   W60
        BYTE   PEND
// 019   ----------------------------------------
        BYTE   PATT
         POIN2  ReaptheWildWind_Slow_5_18
// 020   ----------------------------------------
        BYTE   W96
// 021   ----------------------------------------
        BYTE   W96
// 022   ----------------------------------------
        BYTE   PATT
         POIN2  ReaptheWildWind_Slow_5_18
// 023   ----------------------------------------
        BYTE   PATT
         POIN2  ReaptheWildWind_Slow_5_18
// 024   ----------------------------------------
        BYTE   W96
// 025   ----------------------------------------
        BYTE   W96
// 026   ----------------------------------------
        BYTE   PATT
         POIN2  ReaptheWildWind_Slow_5_18
// 027   ----------------------------------------
        BYTE   W96
// 028   ----------------------------------------
        BYTE   W96
// 029   ----------------------------------------
        BYTE   W48
ReaptheWildWind_Slow_5_LOOP:
        BYTE   W48
// 030   ----------------------------------------
        BYTE   W96
// 031   ----------------------------------------
        BYTE   W96
// 032   ----------------------------------------
        BYTE   W96
// 033   ----------------------------------------
        BYTE   W96
// 034   ----------------------------------------
        BYTE   W96
// 035   ----------------------------------------
        BYTE   W96
// 036   ----------------------------------------
        BYTE   W96
// 037   ----------------------------------------
        BYTE   W96
// 038   ----------------------------------------
        BYTE   PATT
         POIN2  ReaptheWildWind_Slow_4_38
// 039   ----------------------------------------
        BYTE   PATT
         POIN2  ReaptheWildWind_Slow_4_39
// 040   ----------------------------------------
        BYTE   W96
// 041   ----------------------------------------
        BYTE   W36
        BYTE           EOT     As3
        BYTE   W60
// 042   ----------------------------------------
        BYTE   W96
// 043   ----------------------------------------
ReaptheWildWind_Slow_5_43:
        BYTE   W48
        BYTE           N24     Bn2   v100
        BYTE   W24
        BYTE           N12     Cs3
        BYTE   W12
        BYTE           N36     Bn2
        BYTE   W12
        BYTE   PEND
// 044   ----------------------------------------
        BYTE   PATT
         POIN2  ReaptheWildWind_Slow_5_43
// 045   ----------------------------------------
        BYTE   W96
// 046   ----------------------------------------
        BYTE   W96
// 047   ----------------------------------------
        BYTE   PATT
         POIN2  ReaptheWildWind_Slow_5_43
// 048   ----------------------------------------
        BYTE   PATT
         POIN2  ReaptheWildWind_Slow_5_43
// 049   ----------------------------------------
        BYTE   W96
// 050   ----------------------------------------
        BYTE   W96
// 051   ----------------------------------------
ReaptheWildWind_Slow_5_51:
        BYTE   W48
        BYTE           N72     Gs2   v100
        BYTE   W48
        BYTE   PEND
// 052   ----------------------------------------
        BYTE   W24
        BYTE           N24     Fn2
        BYTE   W24
        BYTE           N72     Ds2
        BYTE   W48
// 053   ----------------------------------------
        BYTE   W24
        BYTE           N24     As2
        BYTE   W24
        BYTE           N72     Gs2
        BYTE   W48
// 054   ----------------------------------------
        BYTE   W24
        BYTE           N24     Fn2
        BYTE   W24
        BYTE           N96     Cs2
        BYTE   W48
// 055   ----------------------------------------
        BYTE   PATT
         POIN2  ReaptheWildWind_Slow_5_51
// 056   ----------------------------------------
        BYTE   W24
        BYTE           N24     Fn2   v100
        BYTE   W24
        BYTE           N96     Ds2
        BYTE   W48
// 057   ----------------------------------------
        BYTE   W96
// 058   ----------------------------------------
        BYTE   W96
// 059   ----------------------------------------
        BYTE   W60
        BYTE           N12     Ds3
        BYTE           N12     Fs2
        BYTE   W12
        BYTE                   Ds3
        BYTE           N12     Fs2
        BYTE   W12
        BYTE                   Cs3
        BYTE           N12     Fn2
        BYTE   W12
// 060   ----------------------------------------
        BYTE           N24     Ds3
        BYTE           N24     Fs2
        BYTE   W24
        BYTE           N12     Ds3
        BYTE           N12     Fs2
        BYTE   W12
        BYTE                   Cs3
        BYTE           N12     Fn2
        BYTE   W12
        BYTE           N24     Ds3
        BYTE           N24     Fs2
        BYTE   W24
        BYTE           N12     Cs3
        BYTE           N12     Fn2
        BYTE   W12
        BYTE           N24     Ds3
        BYTE           N24     Fs2
        BYTE   W12
// 061   ----------------------------------------
        BYTE   W12
        BYTE           N12     Ds3
        BYTE           N12     Fs2
        BYTE   W12
        BYTE           TIE     Fn3
        BYTE           TIE     As2
        BYTE   W72
// 062   ----------------------------------------
        BYTE   W48
        BYTE           EOT     Fn3
        BYTE                   As2
        BYTE   W48
// 063   ----------------------------------------
        BYTE   W96
// 064   ----------------------------------------
        BYTE   W96
// 065   ----------------------------------------
        BYTE   W96
// 066   ----------------------------------------
        BYTE   W96
// 067   ----------------------------------------
        BYTE   W96
// 068   ----------------------------------------
        BYTE   W96
// 069   ----------------------------------------
        BYTE   W96
// 070   ----------------------------------------
ReaptheWildWind_Slow_5_70:
        BYTE           N48     Ds2   v100
        BYTE   W48
        BYTE                   Fs2
        BYTE   W48
        BYTE   PEND
// 071   ----------------------------------------
        BYTE           N60     Cs3
        BYTE   W60
        BYTE           TIE     As2
        BYTE   W36
// 072   ----------------------------------------
        BYTE   W96
// 073   ----------------------------------------
        BYTE   W48
        BYTE           EOT
        BYTE   W48
// 074   ----------------------------------------
        BYTE   PATT
         POIN2  ReaptheWildWind_Slow_5_70
// 075   ----------------------------------------
        BYTE           N60     Ds3   v100
        BYTE   W60
        BYTE           TIE     As2
        BYTE   W36
// 076   ----------------------------------------
        BYTE   W96
// 077   ----------------------------------------
        BYTE   W48
        BYTE           EOT
        BYTE   W48
// 078   ----------------------------------------
        BYTE   W96
// 079   ----------------------------------------
        BYTE   W96
// 080   ----------------------------------------
        BYTE   W96
// 081   ----------------------------------------
        BYTE   W96
// 082   ----------------------------------------
        BYTE   W96
// 083   ----------------------------------------
        BYTE   W96
// 084   ----------------------------------------
        BYTE   W96
// 085   ----------------------------------------
        BYTE   W96
// 086   ----------------------------------------
        BYTE           N48     Ds2
        BYTE           N48     Ds3
        BYTE   W48
        BYTE                   Fs2
        BYTE           N48     Fs3
        BYTE   W48
// 087   ----------------------------------------
        BYTE           N60     Cs3
        BYTE           N60     Cs4
        BYTE   W60
        BYTE           TIE     As2
        BYTE           TIE     As3
        BYTE   W36
// 088   ----------------------------------------
        BYTE   W96
// 089   ----------------------------------------
        BYTE           EOT     As2
        BYTE                   As3
        BYTE   W96
// 090   ----------------------------------------
        BYTE   W96
// 091   ----------------------------------------
        BYTE   W96
// 092   ----------------------------------------
        BYTE   W96
// 093   ----------------------------------------
        BYTE   W96
// 094   ----------------------------------------
        BYTE   W96
// 095   ----------------------------------------
        BYTE   W96
// 096   ----------------------------------------
        BYTE   W96
// 097   ----------------------------------------
        BYTE   W48
        BYTE   GoTo
         POIN2  ReaptheWildWind_Slow_5_LOOP
        BYTE   FINE

//****************** Track 6 (Midi-Chn.6) ******************//

ReaptheWildWind_Slow_6:
        BYTE   KEYSH   ReaptheWildWind_Slow_key+0
// 000   ----------------------------------------
        BYTE           VOICE   20
        BYTE           PAN     c_v-47
        BYTE           VOL     35
        BYTE   W96
        BYTE   W24
// 001   ----------------------------------------
        BYTE   W96
// 002   ----------------------------------------
        BYTE   W96
// 003   ----------------------------------------
        BYTE   W96
// 004   ----------------------------------------
        BYTE   W96
// 005   ----------------------------------------
        BYTE   W96
// 006   ----------------------------------------
        BYTE   W96
// 007   ----------------------------------------
        BYTE   W96
// 008   ----------------------------------------
        BYTE   W96
// 009   ----------------------------------------
        BYTE   W96
// 010   ----------------------------------------
        BYTE   W96
// 011   ----------------------------------------
        BYTE   W96
// 012   ----------------------------------------
        BYTE   W96
// 013   ----------------------------------------
        BYTE   W96
// 014   ----------------------------------------
        BYTE   W96
// 015   ----------------------------------------
        BYTE   W96
// 016   ----------------------------------------
        BYTE   W96
// 017   ----------------------------------------
        BYTE   W96
// 018   ----------------------------------------
        BYTE   W96
// 019   ----------------------------------------
        BYTE   W96
// 020   ----------------------------------------
        BYTE   W96
// 021   ----------------------------------------
        BYTE   W96
// 022   ----------------------------------------
        BYTE   W96
// 023   ----------------------------------------
        BYTE   W96
// 024   ----------------------------------------
        BYTE   W96
// 025   ----------------------------------------
        BYTE   W96
// 026   ----------------------------------------
        BYTE   W96
// 027   ----------------------------------------
        BYTE   W96
// 028   ----------------------------------------
        BYTE   W96
// 029   ----------------------------------------
        BYTE   W48
ReaptheWildWind_Slow_6_LOOP:
        BYTE   W48
// 030   ----------------------------------------
        BYTE   W96
// 031   ----------------------------------------
        BYTE   W96
// 032   ----------------------------------------
        BYTE   W96
// 033   ----------------------------------------
        BYTE   W96
// 034   ----------------------------------------
        BYTE   W96
// 035   ----------------------------------------
        BYTE   W96
// 036   ----------------------------------------
        BYTE   W96
// 037   ----------------------------------------
        BYTE   W96
// 038   ----------------------------------------
        BYTE   W96
// 039   ----------------------------------------
        BYTE   W96
// 040   ----------------------------------------
        BYTE   W96
// 041   ----------------------------------------
        BYTE   W96
// 042   ----------------------------------------
        BYTE   W96
// 043   ----------------------------------------
        BYTE   W96
// 044   ----------------------------------------
        BYTE   W96
// 045   ----------------------------------------
        BYTE   W96
// 046   ----------------------------------------
        BYTE   W96
// 047   ----------------------------------------
        BYTE   W96
// 048   ----------------------------------------
        BYTE   W96
// 049   ----------------------------------------
        BYTE   W96
// 050   ----------------------------------------
        BYTE   W96
// 051   ----------------------------------------
        BYTE   W96
// 052   ----------------------------------------
        BYTE   W96
// 053   ----------------------------------------
        BYTE   W96
// 054   ----------------------------------------
        BYTE   W96
// 055   ----------------------------------------
        BYTE   W96
// 056   ----------------------------------------
        BYTE   W96
// 057   ----------------------------------------
        BYTE   W96
// 058   ----------------------------------------
        BYTE   W96
// 059   ----------------------------------------
        BYTE   W96
// 060   ----------------------------------------
        BYTE   W96
// 061   ----------------------------------------
        BYTE   W96
// 062   ----------------------------------------
        BYTE   W96
// 063   ----------------------------------------
        BYTE   W96
// 064   ----------------------------------------
        BYTE   W96
// 065   ----------------------------------------
        BYTE   W96
// 066   ----------------------------------------
        BYTE   W96
// 067   ----------------------------------------
        BYTE   W96
// 068   ----------------------------------------
        BYTE   W96
// 069   ----------------------------------------
        BYTE   W96
// 070   ----------------------------------------
        BYTE   W96
// 071   ----------------------------------------
        BYTE   W96
// 072   ----------------------------------------
        BYTE   W96
// 073   ----------------------------------------
        BYTE   W96
// 074   ----------------------------------------
        BYTE   W96
// 075   ----------------------------------------
        BYTE   W96
// 076   ----------------------------------------
        BYTE   W96
// 077   ----------------------------------------
        BYTE   W96
// 078   ----------------------------------------
        BYTE   W96
// 079   ----------------------------------------
        BYTE   W96
// 080   ----------------------------------------
        BYTE   W96
// 081   ----------------------------------------
        BYTE   W96
// 082   ----------------------------------------
        BYTE   W96
// 083   ----------------------------------------
        BYTE   W96
// 084   ----------------------------------------
        BYTE   W96
// 085   ----------------------------------------
        BYTE   W96
// 086   ----------------------------------------
        BYTE   W96
// 087   ----------------------------------------
        BYTE   W96
// 088   ----------------------------------------
        BYTE   W96
// 089   ----------------------------------------
ReaptheWildWind_Slow_6_89:
        BYTE   W84
        BYTE           N36     As4   v100
        BYTE   W12
        BYTE   PEND
// 090   ----------------------------------------
ReaptheWildWind_Slow_6_90:
        BYTE   W24
        BYTE           N12     Gs4   v100
        BYTE   W60
        BYTE           N36     Bn4
        BYTE   W12
        BYTE   PEND
// 091   ----------------------------------------
ReaptheWildWind_Slow_6_91:
        BYTE   W24
        BYTE           N12     Gs4   v100
        BYTE   W60
        BYTE           N36     As4
        BYTE   W12
        BYTE   PEND
// 092   ----------------------------------------
ReaptheWildWind_Slow_6_92:
        BYTE   W24
        BYTE           N12     Gs4   v100
        BYTE   W48
        BYTE           N06
        BYTE   W12
        BYTE           N60     Cs5
        BYTE   W12
        BYTE   PEND
// 093   ----------------------------------------
        BYTE   PATT
         POIN2  ReaptheWildWind_Slow_6_89
// 094   ----------------------------------------
        BYTE   PATT
         POIN2  ReaptheWildWind_Slow_6_90
// 095   ----------------------------------------
        BYTE   PATT
         POIN2  ReaptheWildWind_Slow_6_91
// 096   ----------------------------------------
        BYTE   PATT
         POIN2  ReaptheWildWind_Slow_6_92
// 097   ----------------------------------------
        BYTE   W48
        BYTE   GoTo
         POIN2  ReaptheWildWind_Slow_6_LOOP
        BYTE   FINE

//****************** Track 7 (Midi-Chn.7) ******************//

ReaptheWildWind_Slow_7:
        BYTE   KEYSH   ReaptheWildWind_Slow_key+0
// 000   ----------------------------------------
        BYTE           VOICE   117
        BYTE           PAN     c_v+48
        BYTE           VOL     50
        BYTE   W96
        BYTE   W24
// 001   ----------------------------------------
        BYTE   W96
// 002   ----------------------------------------
        BYTE   W96
// 003   ----------------------------------------
        BYTE   W96
// 004   ----------------------------------------
        BYTE   W96
// 005   ----------------------------------------
        BYTE   W96
// 006   ----------------------------------------
        BYTE   W96
// 007   ----------------------------------------
        BYTE   W96
// 008   ----------------------------------------
        BYTE   W96
// 009   ----------------------------------------
        BYTE   W96
// 010   ----------------------------------------
        BYTE   W96
// 011   ----------------------------------------
        BYTE   W96
// 012   ----------------------------------------
        BYTE   W96
// 013   ----------------------------------------
        BYTE   W96
// 014   ----------------------------------------
        BYTE   W96
// 015   ----------------------------------------
        BYTE   W96
// 016   ----------------------------------------
        BYTE   W96
// 017   ----------------------------------------
        BYTE   W96
// 018   ----------------------------------------
        BYTE   W96
// 019   ----------------------------------------
        BYTE   W96
// 020   ----------------------------------------
        BYTE   W96
// 021   ----------------------------------------
        BYTE   W96
// 022   ----------------------------------------
        BYTE   W96
// 023   ----------------------------------------
        BYTE   W96
// 024   ----------------------------------------
        BYTE   W96
// 025   ----------------------------------------
        BYTE   W96
// 026   ----------------------------------------
        BYTE   W96
// 027   ----------------------------------------
        BYTE   W96
// 028   ----------------------------------------
        BYTE   W96
// 029   ----------------------------------------
        BYTE   W48
ReaptheWildWind_Slow_7_LOOP:
        BYTE   W48
// 030   ----------------------------------------
        BYTE   W96
// 031   ----------------------------------------
        BYTE   W96
// 032   ----------------------------------------
        BYTE   W96
// 033   ----------------------------------------
        BYTE   W96
// 034   ----------------------------------------
        BYTE   W96
// 035   ----------------------------------------
        BYTE   W96
// 036   ----------------------------------------
        BYTE   W96
// 037   ----------------------------------------
        BYTE   W96
// 038   ----------------------------------------
        BYTE   W96
// 039   ----------------------------------------
        BYTE   W96
// 040   ----------------------------------------
        BYTE   W96
// 041   ----------------------------------------
        BYTE   W96
// 042   ----------------------------------------
        BYTE   W96
// 043   ----------------------------------------
        BYTE   W96
// 044   ----------------------------------------
        BYTE   W96
// 045   ----------------------------------------
        BYTE   W96
// 046   ----------------------------------------
        BYTE   W96
// 047   ----------------------------------------
        BYTE   W96
// 048   ----------------------------------------
        BYTE   W96
// 049   ----------------------------------------
        BYTE   W96
// 050   ----------------------------------------
        BYTE   W96
// 051   ----------------------------------------
        BYTE   W72
        BYTE           N12     Cn1   v100
        BYTE   W12
        BYTE                   Cn1
        BYTE   W12
// 052   ----------------------------------------
ReaptheWildWind_Slow_7_52:
        BYTE           N12     Cn1   v100
        BYTE   W12
        BYTE                   Cn1
        BYTE   W12
        BYTE                   Cn1
        BYTE   W12
        BYTE           N06
        BYTE   W06
        BYTE                   Cn1
        BYTE   W06
        BYTE           N12
        BYTE   W12
        BYTE                   Cn1
        BYTE   W12
        BYTE                   Cn1
        BYTE   W12
        BYTE                   Cn1
        BYTE   W12
        BYTE   PEND
// 053   ----------------------------------------
        BYTE   PATT
         POIN2  ReaptheWildWind_Slow_7_52
// 054   ----------------------------------------
        BYTE   PATT
         POIN2  ReaptheWildWind_Slow_7_52
// 055   ----------------------------------------
        BYTE           N12     Cn1   v100
        BYTE   W12
        BYTE                   Cn1
        BYTE   W12
        BYTE                   Cn1
        BYTE   W12
        BYTE                   Cn1
        BYTE   W36
        BYTE                   Cn1
        BYTE   W12
        BYTE                   Cn1
        BYTE   W12
// 056   ----------------------------------------
        BYTE   PATT
         POIN2  ReaptheWildWind_Slow_7_52
// 057   ----------------------------------------
ReaptheWildWind_Slow_7_57:
        BYTE           N12     Cn1   v100
        BYTE   W12
        BYTE                   Cn1
        BYTE   W60
        BYTE                   Cn1
        BYTE   W12
        BYTE                   Cn1
        BYTE   W12
        BYTE   PEND
// 058   ----------------------------------------
        BYTE   PATT
         POIN2  ReaptheWildWind_Slow_7_57
// 059   ----------------------------------------
        BYTE   PATT
         POIN2  ReaptheWildWind_Slow_7_57
// 060   ----------------------------------------
        BYTE           N12     Cn1   v100
        BYTE   W12
        BYTE                   Cn1
        BYTE   W84
// 061   ----------------------------------------
        BYTE   W96
// 062   ----------------------------------------
        BYTE   W96
// 063   ----------------------------------------
        BYTE   W96
// 064   ----------------------------------------
        BYTE   W96
// 065   ----------------------------------------
        BYTE   W96
// 066   ----------------------------------------
        BYTE   W96
// 067   ----------------------------------------
        BYTE   W96
// 068   ----------------------------------------
        BYTE   W96
// 069   ----------------------------------------
        BYTE   W96
// 070   ----------------------------------------
        BYTE   W96
// 071   ----------------------------------------
        BYTE   W96
// 072   ----------------------------------------
        BYTE   W96
// 073   ----------------------------------------
        BYTE   W96
// 074   ----------------------------------------
        BYTE   W96
// 075   ----------------------------------------
        BYTE   W96
// 076   ----------------------------------------
        BYTE   W96
// 077   ----------------------------------------
        BYTE   W96
// 078   ----------------------------------------
        BYTE   W96
// 079   ----------------------------------------
        BYTE   W96
// 080   ----------------------------------------
        BYTE   W96
// 081   ----------------------------------------
        BYTE   W96
// 082   ----------------------------------------
        BYTE   W96
// 083   ----------------------------------------
        BYTE   W96
// 084   ----------------------------------------
        BYTE   W96
// 085   ----------------------------------------
        BYTE   W96
// 086   ----------------------------------------
        BYTE   W96
// 087   ----------------------------------------
        BYTE   W96
// 088   ----------------------------------------
        BYTE   W96
// 089   ----------------------------------------
        BYTE   W96
// 090   ----------------------------------------
        BYTE   W96
// 091   ----------------------------------------
        BYTE   W96
// 092   ----------------------------------------
        BYTE   W96
// 093   ----------------------------------------
        BYTE   W96
// 094   ----------------------------------------
        BYTE   W96
// 095   ----------------------------------------
        BYTE   W96
// 096   ----------------------------------------
        BYTE   W96
// 097   ----------------------------------------
        BYTE   W48
        BYTE   GoTo
         POIN2  ReaptheWildWind_Slow_7_LOOP
        BYTE   FINE

//****************** Track 8 (Midi-Chn.8) ******************//

ReaptheWildWind_Slow_8:
        BYTE   KEYSH   ReaptheWildWind_Slow_key+0
// 000   ----------------------------------------
        BYTE           VOICE   122
        BYTE           VOL     59
        BYTE           N03     Dn1   v100
        BYTE           N12     Bn0
        BYTE   W03
        BYTE           N09     Dn1
        BYTE   W21
        BYTE           N12     Bn0
        BYTE           N96     An2
        BYTE   W24
        BYTE           N12     Bn0
        BYTE           N12     Dn1
        BYTE   W24
        BYTE                   Bn0
        BYTE   W24
        BYTE                   Bn0
        BYTE           N12     Dn1
        BYTE   W24
// 001   ----------------------------------------
ReaptheWildWind_Slow_8_1:
        BYTE           N12     Bn0   v100
        BYTE   W24
        BYTE                   Bn0
        BYTE           N12     Dn1
        BYTE   W24
        BYTE                   Bn0
        BYTE   W24
        BYTE                   Bn0
        BYTE           N12     Dn1
        BYTE   W24
        BYTE   PEND
// 002   ----------------------------------------
        BYTE   PATT
         POIN2  ReaptheWildWind_Slow_8_1
// 003   ----------------------------------------
        BYTE   PATT
         POIN2  ReaptheWildWind_Slow_8_1
// 004   ----------------------------------------
        BYTE   PATT
         POIN2  ReaptheWildWind_Slow_8_1
// 005   ----------------------------------------
        BYTE   PATT
         POIN2  ReaptheWildWind_Slow_8_1
// 006   ----------------------------------------
        BYTE   PATT
         POIN2  ReaptheWildWind_Slow_8_1
// 007   ----------------------------------------
        BYTE   PATT
         POIN2  ReaptheWildWind_Slow_8_1
// 008   ----------------------------------------
        BYTE   PATT
         POIN2  ReaptheWildWind_Slow_8_1
// 009   ----------------------------------------
        BYTE   PATT
         POIN2  ReaptheWildWind_Slow_8_1
// 010   ----------------------------------------
        BYTE   PATT
         POIN2  ReaptheWildWind_Slow_8_1
// 011   ----------------------------------------
        BYTE   PATT
         POIN2  ReaptheWildWind_Slow_8_1
// 012   ----------------------------------------
        BYTE   PATT
         POIN2  ReaptheWildWind_Slow_8_1
// 013   ----------------------------------------
        BYTE           N12     Bn0   v100
        BYTE   W24
        BYTE                   Bn0
        BYTE           N12     Dn1
        BYTE   W24
        BYTE                   Bn0
        BYTE   W24
        BYTE           N06     Dn1
        BYTE           N12     Bn0
        BYTE   W12
        BYTE           N06     Dn1
        BYTE   W06
        BYTE                   Dn1
        BYTE   W06
// 014   ----------------------------------------
        BYTE           N12     Bn0
        BYTE           N96     An2
        BYTE   W24
        BYTE           N12     Bn0
        BYTE           N12     Dn1
        BYTE   W24
        BYTE                   Bn0
        BYTE   W24
        BYTE                   Bn0
        BYTE           N12     Dn1
        BYTE   W24
// 015   ----------------------------------------
        BYTE   PATT
         POIN2  ReaptheWildWind_Slow_8_1
// 016   ----------------------------------------
        BYTE           N12     Bn0   v100
        BYTE           N96     An2
        BYTE   W24
        BYTE           N12     Dn1
        BYTE   W12
        BYTE                   Bn0
        BYTE   W24
        BYTE                   Bn0
        BYTE   W12
        BYTE                   Dn1
        BYTE   W24
// 017   ----------------------------------------
ReaptheWildWind_Slow_8_17:
        BYTE           N12     Bn0   v100
        BYTE   W24
        BYTE                   Dn1
        BYTE   W12
        BYTE                   Bn0
        BYTE   W24
        BYTE                   Bn0
        BYTE   W12
        BYTE                   Dn1
        BYTE   W24
        BYTE   PEND
// 018   ----------------------------------------
ReaptheWildWind_Slow_8_18:
        BYTE           N12     Bn0   v100
        BYTE   W24
        BYTE                   Dn1
        BYTE   W12
        BYTE                   Bn0
        BYTE   W24
        BYTE                   Bn0
        BYTE   W12
        BYTE                   Dn1
        BYTE           N24     Ds2
        BYTE   W24
        BYTE   PEND
// 019   ----------------------------------------
ReaptheWildWind_Slow_8_19:
        BYTE           N12     Bn0   v100
        BYTE   W24
        BYTE                   Dn1
        BYTE   W12
        BYTE                   Bn0
        BYTE   W24
        BYTE                   Bn0
        BYTE           N12     Ds2
        BYTE   W12
        BYTE                   Dn1
        BYTE           N12     Ds2
        BYTE   W24
        BYTE   PEND
// 020   ----------------------------------------
        BYTE   PATT
         POIN2  ReaptheWildWind_Slow_8_17
// 021   ----------------------------------------
        BYTE   PATT
         POIN2  ReaptheWildWind_Slow_8_17
// 022   ----------------------------------------
        BYTE   PATT
         POIN2  ReaptheWildWind_Slow_8_18
// 023   ----------------------------------------
        BYTE   PATT
         POIN2  ReaptheWildWind_Slow_8_19
// 024   ----------------------------------------
        BYTE   PATT
         POIN2  ReaptheWildWind_Slow_8_17
// 025   ----------------------------------------
        BYTE   PATT
         POIN2  ReaptheWildWind_Slow_8_17
// 026   ----------------------------------------
        BYTE   PATT
         POIN2  ReaptheWildWind_Slow_8_18
// 027   ----------------------------------------
ReaptheWildWind_Slow_8_27:
        BYTE           N12     Bn0   v100
        BYTE   W24
        BYTE                   Dn1
        BYTE   W12
        BYTE                   Bn0
        BYTE           N60     An2
        BYTE   W24
        BYTE           N12     Bn0
        BYTE   W12
        BYTE                   Dn1
        BYTE   W24
        BYTE   PEND
// 028   ----------------------------------------
        BYTE   PATT
         POIN2  ReaptheWildWind_Slow_8_27
// 029   ----------------------------------------
        BYTE           N12     Bn0   v100
        BYTE   W12
        BYTE                   Dn1
        BYTE   W12
        BYTE           N06
        BYTE           N12     Bn0
        BYTE   W12
        BYTE           N06     Dn1
        BYTE   W06
        BYTE                   Dn1
        BYTE   W06
ReaptheWildWind_Slow_8_LOOP:
        BYTE           N12     Bn0   v100
        BYTE           N96     An2
        BYTE   W24
        BYTE           N12     Bn0
        BYTE           N12     Dn1
        BYTE   W24
// 030   ----------------------------------------
        BYTE   PATT
         POIN2  ReaptheWildWind_Slow_8_1
// 031   ----------------------------------------
        BYTE   PATT
         POIN2  ReaptheWildWind_Slow_8_1
// 032   ----------------------------------------
        BYTE   PATT
         POIN2  ReaptheWildWind_Slow_8_1
// 033   ----------------------------------------
        BYTE   PATT
         POIN2  ReaptheWildWind_Slow_8_1
// 034   ----------------------------------------
        BYTE   PATT
         POIN2  ReaptheWildWind_Slow_8_1
// 035   ----------------------------------------
        BYTE   PATT
         POIN2  ReaptheWildWind_Slow_8_1
// 036   ----------------------------------------
ReaptheWildWind_Slow_8_36:
        BYTE           N12     Bn0   v100
        BYTE   W24
        BYTE                   Bn0
        BYTE           N12     Dn1
        BYTE   W24
        BYTE                   Bn0
        BYTE   W12
        BYTE                   Bn0   v030
        BYTE           N12     Dn1
        BYTE   W12
        BYTE                   Bn0   v041
        BYTE           N12     Dn1
        BYTE   W12
        BYTE                   Dn1   v053
        BYTE           N12     Bn0
        BYTE   W12
        BYTE   PEND
// 037   ----------------------------------------
ReaptheWildWind_Slow_8_37:
        BYTE           N12     Bn0   v065
        BYTE           N12     Dn1
        BYTE   W12
        BYTE                   Dn1   v076
        BYTE           N12     Bn0
        BYTE   W12
        BYTE                   Bn0   v088
        BYTE           N12     Dn1
        BYTE   W12
        BYTE                   Dn1   v100
        BYTE           N12     Bn0
        BYTE   W12
        BYTE                   Bn0
        BYTE           N96     An2
        BYTE   W24
        BYTE           N12     Bn0
        BYTE           N12     Dn1
        BYTE   W24
        BYTE   PEND
// 038   ----------------------------------------
        BYTE   PATT
         POIN2  ReaptheWildWind_Slow_8_1
// 039   ----------------------------------------
ReaptheWildWind_Slow_8_39:
        BYTE           N12     Bn0   v100
        BYTE   W24
        BYTE           N06     Dn1
        BYTE           N12     Bn0
        BYTE   W12
        BYTE           N06     Dn1
        BYTE   W06
        BYTE                   Dn1
        BYTE   W06
        BYTE           N12     Bn0
        BYTE           N96     An2
        BYTE   W24
        BYTE           N12     Bn0
        BYTE           N12     Dn1
        BYTE   W24
        BYTE   PEND
// 040   ----------------------------------------
        BYTE   PATT
         POIN2  ReaptheWildWind_Slow_8_1
// 041   ----------------------------------------
        BYTE           N12     Bn0   v100
        BYTE   W24
        BYTE                   Bn0
        BYTE           N12     Dn1
        BYTE   W24
        BYTE                   Bn0
        BYTE           N96     An2
        BYTE   W24
        BYTE           N12     Dn1
        BYTE   W12
        BYTE                   Bn0
        BYTE   W12
// 042   ----------------------------------------
ReaptheWildWind_Slow_8_42:
        BYTE   W12
        BYTE           N12     Bn0   v100
        BYTE   W12
        BYTE                   Dn1
        BYTE   W24
        BYTE                   Bn0
        BYTE   W24
        BYTE                   Dn1
        BYTE   W12
        BYTE                   Bn0
        BYTE   W12
        BYTE   PEND
// 043   ----------------------------------------
        BYTE   PATT
         POIN2  ReaptheWildWind_Slow_8_42
// 044   ----------------------------------------
ReaptheWildWind_Slow_8_44:
        BYTE   W12
        BYTE           N12     Bn0   v100
        BYTE   W12
        BYTE                   Dn1
        BYTE           N24     Ds2
        BYTE   W24
        BYTE           N12     Bn0
        BYTE   W24
        BYTE                   Dn1
        BYTE   W12
        BYTE                   Bn0
        BYTE   W12
        BYTE   PEND
// 045   ----------------------------------------
ReaptheWildWind_Slow_8_45:
        BYTE   W12
        BYTE           N12     Bn0   v100
        BYTE           N12     Ds2
        BYTE   W12
        BYTE                   Dn1
        BYTE           N12     Ds2
        BYTE   W24
        BYTE                   Bn0
        BYTE   W24
        BYTE                   Dn1
        BYTE   W12
        BYTE                   Bn0
        BYTE   W12
        BYTE   PEND
// 046   ----------------------------------------
        BYTE   PATT
         POIN2  ReaptheWildWind_Slow_8_42
// 047   ----------------------------------------
        BYTE   PATT
         POIN2  ReaptheWildWind_Slow_8_42
// 048   ----------------------------------------
        BYTE   PATT
         POIN2  ReaptheWildWind_Slow_8_44
// 049   ----------------------------------------
        BYTE   PATT
         POIN2  ReaptheWildWind_Slow_8_45
// 050   ----------------------------------------
        BYTE   PATT
         POIN2  ReaptheWildWind_Slow_8_42
// 051   ----------------------------------------
        BYTE   W12
        BYTE           N12     Bn0   v100
        BYTE   W12
        BYTE                   Dn1
        BYTE   W24
        BYTE                   Bn0
        BYTE           N96     An2
        BYTE   W24
        BYTE           N12     Bn0
        BYTE           N12     Dn1
        BYTE   W24
// 052   ----------------------------------------
        BYTE   PATT
         POIN2  ReaptheWildWind_Slow_8_1
// 053   ----------------------------------------
        BYTE   PATT
         POIN2  ReaptheWildWind_Slow_8_1
// 054   ----------------------------------------
        BYTE   PATT
         POIN2  ReaptheWildWind_Slow_8_1
// 055   ----------------------------------------
        BYTE           N12     Bn0   v100
        BYTE   W12
        BYTE                   Dn1
        BYTE   W12
        BYTE                   Bn0
        BYTE           N12     Dn1
        BYTE   W12
        BYTE                   Dn1
        BYTE   W12
        BYTE                   Bn0
        BYTE           N96     An2
        BYTE   W24
        BYTE           N12     Bn0
        BYTE           N12     Dn1
        BYTE   W24
// 056   ----------------------------------------
        BYTE   PATT
         POIN2  ReaptheWildWind_Slow_8_1
// 057   ----------------------------------------
ReaptheWildWind_Slow_8_57:
        BYTE           N12     Bn0   v100
        BYTE   W24
        BYTE           N06     Dn1
        BYTE           N12     Bn0
        BYTE   W06
        BYTE           N06     Dn1
        BYTE   W06
        BYTE                   Dn1
        BYTE   W06
        BYTE                   Dn1
        BYTE   W06
        BYTE           N12     Bn0
        BYTE           N24     An2
        BYTE   W24
        BYTE           N12     Bn0
        BYTE           N12     Dn1
        BYTE   W24
        BYTE   PEND
// 058   ----------------------------------------
        BYTE   PATT
         POIN2  ReaptheWildWind_Slow_8_57
// 059   ----------------------------------------
        BYTE   PATT
         POIN2  ReaptheWildWind_Slow_8_57
// 060   ----------------------------------------
        BYTE           N12     Bn0   v100
        BYTE   W24
        BYTE           N06     Dn1
        BYTE           N12     Bn0
        BYTE   W06
        BYTE           N06     Dn1
        BYTE   W06
        BYTE                   Dn1
        BYTE   W06
        BYTE                   Dn1
        BYTE   W06
        BYTE           N12     Bn0
        BYTE           N24     An2
        BYTE   W24
        BYTE           N06     Dn1
        BYTE           N12     Bn0
        BYTE   W06
        BYTE           N06     Dn1
        BYTE   W06
        BYTE                   Dn1
        BYTE   W12
// 061   ----------------------------------------
        BYTE           N12     Bn0
        BYTE   W06
        BYTE           N06     Dn1
        BYTE   W06
        BYTE                   Dn1
        BYTE   W12
        BYTE                   Dn1
        BYTE           N12     Bn0
        BYTE   W06
        BYTE           N06     Dn1
        BYTE   W06
        BYTE                   Dn1
        BYTE   W06
        BYTE                   Dn1
        BYTE   W06
        BYTE           N12     Bn0
        BYTE           N24     An2
        BYTE   W24
        BYTE           N12     Bn0
        BYTE           N12     Dn1
        BYTE   W24
// 062   ----------------------------------------
        BYTE   PATT
         POIN2  ReaptheWildWind_Slow_8_1
// 063   ----------------------------------------
        BYTE   PATT
         POIN2  ReaptheWildWind_Slow_8_1
// 064   ----------------------------------------
        BYTE   PATT
         POIN2  ReaptheWildWind_Slow_8_1
// 065   ----------------------------------------
        BYTE   PATT
         POIN2  ReaptheWildWind_Slow_8_1
// 066   ----------------------------------------
        BYTE   PATT
         POIN2  ReaptheWildWind_Slow_8_1
// 067   ----------------------------------------
        BYTE   PATT
         POIN2  ReaptheWildWind_Slow_8_1
// 068   ----------------------------------------
        BYTE           N12     Bn0   v100
        BYTE   W24
        BYTE                   Bn0
        BYTE           N12     Dn1
        BYTE   W24
        BYTE                   Bn0
        BYTE   W12
        BYTE           N06     Dn1
        BYTE   W06
        BYTE                   Dn1
        BYTE   W06
        BYTE                   Dn1
        BYTE           N12     Bn0
        BYTE   W12
        BYTE           N06     An1
        BYTE   W06
        BYTE                   An1
        BYTE   W06
// 069   ----------------------------------------
        BYTE                   An1
        BYTE           N12     Bn0
        BYTE   W12
        BYTE           N06     Gn1
        BYTE   W06
        BYTE                   Gn1
        BYTE   W06
        BYTE                   Gn1
        BYTE           N12     Bn0
        BYTE   W12
        BYTE           N06     Fn1
        BYTE   W12
        BYTE           N12     Bn0
        BYTE           N96     An2
        BYTE   W24
        BYTE           N12     Bn0
        BYTE           N12     Dn1
        BYTE   W24
// 070   ----------------------------------------
        BYTE   PATT
         POIN2  ReaptheWildWind_Slow_8_1
// 071   ----------------------------------------
ReaptheWildWind_Slow_8_71:
        BYTE           N12     Bn0   v100
        BYTE   W24
        BYTE                   Bn0
        BYTE           N12     Dn1
        BYTE   W24
        BYTE                   Bn0
        BYTE           N96     An2
        BYTE   W24
        BYTE           N12     Bn0
        BYTE           N12     Dn1
        BYTE   W24
        BYTE   PEND
// 072   ----------------------------------------
        BYTE   PATT
         POIN2  ReaptheWildWind_Slow_8_1
// 073   ----------------------------------------
        BYTE   PATT
         POIN2  ReaptheWildWind_Slow_8_39
// 074   ----------------------------------------
        BYTE   PATT
         POIN2  ReaptheWildWind_Slow_8_36
// 075   ----------------------------------------
        BYTE   PATT
         POIN2  ReaptheWildWind_Slow_8_37
// 076   ----------------------------------------
        BYTE   PATT
         POIN2  ReaptheWildWind_Slow_8_1
// 077   ----------------------------------------
        BYTE   PATT
         POIN2  ReaptheWildWind_Slow_8_71
// 078   ----------------------------------------
        BYTE   PATT
         POIN2  ReaptheWildWind_Slow_8_1
// 079   ----------------------------------------
        BYTE   PATT
         POIN2  ReaptheWildWind_Slow_8_1
// 080   ----------------------------------------
        BYTE   PATT
         POIN2  ReaptheWildWind_Slow_8_1
// 081   ----------------------------------------
        BYTE   PATT
         POIN2  ReaptheWildWind_Slow_8_1
// 082   ----------------------------------------
        BYTE   PATT
         POIN2  ReaptheWildWind_Slow_8_1
// 083   ----------------------------------------
        BYTE   PATT
         POIN2  ReaptheWildWind_Slow_8_1
// 084   ----------------------------------------
        BYTE   PATT
         POIN2  ReaptheWildWind_Slow_8_36
// 085   ----------------------------------------
        BYTE   PATT
         POIN2  ReaptheWildWind_Slow_8_37
// 086   ----------------------------------------
        BYTE   PATT
         POIN2  ReaptheWildWind_Slow_8_1
// 087   ----------------------------------------
        BYTE   PATT
         POIN2  ReaptheWildWind_Slow_8_39
// 088   ----------------------------------------
        BYTE   PATT
         POIN2  ReaptheWildWind_Slow_8_1
// 089   ----------------------------------------
        BYTE           N03     Dn1   v100
        BYTE           N12     Bn0
        BYTE   W03
        BYTE           N03     Dn1
        BYTE   W15
        BYTE                   Dn1
        BYTE           N12     Bn0
        BYTE   W03
        BYTE           N03     Dn1
        BYTE   W15
        BYTE                   Dn1
        BYTE           N12     Bn0
        BYTE   W03
        BYTE           N03     Dn1
        BYTE   W09
        BYTE           N12     Bn0
        BYTE           N24     An2
        BYTE   W24
        BYTE           N12     Dn1
        BYTE   W12
        BYTE                   Bn0
        BYTE   W12
// 090   ----------------------------------------
ReaptheWildWind_Slow_8_90:
        BYTE   W12
        BYTE           N12     Bn0   v100
        BYTE   W12
        BYTE                   Dn1
        BYTE   W24
        BYTE                   Bn0
        BYTE           N24     An2
        BYTE   W24
        BYTE           N12     Dn1
        BYTE   W12
        BYTE                   Bn0
        BYTE   W12
        BYTE   PEND
// 091   ----------------------------------------
        BYTE   PATT
         POIN2  ReaptheWildWind_Slow_8_90
// 092   ----------------------------------------
        BYTE   PATT
         POIN2  ReaptheWildWind_Slow_8_90
// 093   ----------------------------------------
        BYTE           N06     Dn1   v100
        BYTE           N12     Bn0
        BYTE   W06
        BYTE           N06     Dn1
        BYTE   W06
        BYTE                   Dn1
        BYTE   W12
        BYTE                   Dn1
        BYTE           N12     Bn0
        BYTE   W06
        BYTE           N06     Dn1
        BYTE   W06
        BYTE                   Dn1
        BYTE   W06
        BYTE                   Dn1
        BYTE   W06
        BYTE           N12     Bn0
        BYTE           N24     An2
        BYTE   W24
        BYTE           N12     Dn1
        BYTE   W12
        BYTE                   Bn0
        BYTE   W12
// 094   ----------------------------------------
        BYTE   PATT
         POIN2  ReaptheWildWind_Slow_8_90
// 095   ----------------------------------------
        BYTE   PATT
         POIN2  ReaptheWildWind_Slow_8_90
// 096   ----------------------------------------
        BYTE   PATT
         POIN2  ReaptheWildWind_Slow_8_90
// 097   ----------------------------------------
        BYTE           N06     Dn1   v100
        BYTE           N12     Bn0
        BYTE   W06
        BYTE           N06     Dn1
        BYTE   W06
        BYTE                   Dn1
        BYTE   W12
        BYTE                   Dn1
        BYTE           N12     Bn0
        BYTE   W06
        BYTE           N06     Dn1
        BYTE   W06
        BYTE                   Dn1
        BYTE   W06
        BYTE                   Dn1
        BYTE   W06
        BYTE   GoTo
         POIN2  ReaptheWildWind_Slow_8_LOOP
        BYTE   FINE


//********************** End of Song ***********************//

        ALIGN 4
ReaptheWildWind_Slow:
        BYTE   9                       // Num Tracks
        BYTE   0                       // Unknown
        BYTE   ReaptheWildWind_Slow_pri // Priority
        BYTE   ReaptheWildWind_Slow_rev // Reverb

        POIN2   ReaptheWildWind_Slow_grp

        POIN2   ReaptheWildWind_Slow_0
        POIN2   ReaptheWildWind_Slow_1
        POIN2   ReaptheWildWind_Slow_2
        POIN2   ReaptheWildWind_Slow_3
        POIN2   ReaptheWildWind_Slow_4
        POIN2   ReaptheWildWind_Slow_5
        POIN2   ReaptheWildWind_Slow_6
        POIN2   ReaptheWildWind_Slow_7
        POIN2   ReaptheWildWind_Slow_8

        
