//Event file generated from Sappy .s format.
        #include "MPlayDef.event"

        #define    Records_Medley_grp  voicegroup000
        #define    Records_Medley_pri  0
        #define    Records_Medley_rev  0
        #define    Records_Medley_key  0

        // .rodata
        // Records_Medley
        ALIGN 4

//****************** Track 0 (Midi-Chn.0) ******************//

Records_Medley_0:
        BYTE   KEYSH   Records_Medley_key+0
// 000   ----------------------------------------
        BYTE   TEMPO   70/2
        BYTE           VOICE   49
        BYTE           PAN     c_v+40
        BYTE           VOL     40
        BYTE           N92     Gn2   v100   gtp3
        BYTE   W96
// 001   ----------------------------------------
        BYTE                   Cn3
        BYTE           N92     Cn2   v100   gtp3
        BYTE   W96
// 002   ----------------------------------------
        BYTE           N84     An2   v100   gtp2
        BYTE                   An1
        BYTE   W96
// 003   ----------------------------------------
        BYTE           N92     Dn3   v100   gtp3
        BYTE                   Dn2
        BYTE   W96
// 004   ----------------------------------------
        BYTE                   Gn2
        BYTE           N92     Gn1   v100   gtp3
        BYTE   W96
// 005   ----------------------------------------
        BYTE                   Gs2
        BYTE           N92     Gs1   v100   gtp3
        BYTE   W96
// 006   ----------------------------------------
        BYTE           N42     An1   v100   gtp1
        BYTE                   An2
        BYTE   W48
        BYTE           N44     Dn3   v100   gtp3
        BYTE                   Dn2
        BYTE   W48
// 007   ----------------------------------------
        BYTE           N84     Gn1   v100   gtp2
        BYTE           N68     Gn2   v100   gtp3
        BYTE   W72
        BYTE           N21     Gs2
        BYTE   W08
        BYTE           VOL     41
        BYTE   W16
// 008   ----------------------------------------
        BYTE           N44     Cn2   v100   gtp3
        BYTE                   Cn3
        BYTE           N44     An2   v100   gtp3
        BYTE   W48
        BYTE                   Dn3
        BYTE           N44     Dn2   v100   gtp3
        BYTE                   An2
        BYTE   W48
// 009   ----------------------------------------
        BYTE                   Bn2
        BYTE           N44     Bn1   v100   gtp3
        BYTE           N42     Fs2   v100   gtp1
        BYTE   W48
        BYTE           N44     En2   v100   gtp3
        BYTE                   En3
        BYTE   W48
// 010   ----------------------------------------
        BYTE                   Cn3
        BYTE           N44     Cn2   v100   gtp3
        BYTE   W48
        BYTE                   Dn3
        BYTE           N44     Dn2   v100   gtp3
        BYTE   W48
// 011   ----------------------------------------
        BYTE           N92     Gn1   v100   gtp3
        BYTE                   Gn2
        BYTE           N84     Bn2   v100   gtp2
        BYTE   W96
// 012   ----------------------------------------
        BYTE           N44     Cn3   v100   gtp3
        BYTE                   Cn2
        BYTE           N44     An2   v100   gtp3
        BYTE   W48
        BYTE                   An2
        BYTE           N44     Dn2   v100   gtp3
        BYTE                   Dn3
        BYTE   W48
// 013   ----------------------------------------
        BYTE                   Dn3
        BYTE           N44     Bn1   v100   gtp3
        BYTE                   Bn2
        BYTE   W48
        BYTE                   En2
        BYTE           N44     Gn2   v100   gtp3
        BYTE                   En3
        BYTE   W48
// 014   ----------------------------------------
        BYTE           N48     Cn3
        BYTE           N96     Gn2
        BYTE           N48     Cn2
        BYTE   W48
        BYTE                   Gn1
        BYTE           N48     Cs3
        BYTE   W48
// 015   ----------------------------------------
        BYTE   TEMPO   60/2
        BYTE           N96     Dn2
        BYTE           N96     Dn3
        BYTE   W48
        BYTE   TEMPO   50/2
        BYTE   W48
// 016   ----------------------------------------
        BYTE   TEMPO   140/2
        BYTE           TIE     Gn2
        BYTE           TIE     Gn3
        BYTE   W96
// 017   ----------------------------------------
        BYTE   W56
        BYTE   W02
        BYTE           EOT
        BYTE           EOT     Gn2
        BYTE   W14
        BYTE           N21     Bn3   v120
        BYTE           N21     Gn2
        BYTE   W24
// 018   ----------------------------------------
Records_Medley_0_18:
        BYTE           N21     Cn2   v100
        BYTE   W24
        BYTE                   Dn2
        BYTE   W24
        BYTE                   En2
        BYTE   W24
        BYTE                   Dn2
        BYTE   W24
        BYTE   PEND
// 019   ----------------------------------------
        BYTE   PATT
         POIN2  Records_Medley_0_18
// 020   ----------------------------------------
        BYTE   PATT
         POIN2  Records_Medley_0_18
// 021   ----------------------------------------
        BYTE   PATT
         POIN2  Records_Medley_0_18
// 022   ----------------------------------------
        BYTE   PATT
         POIN2  Records_Medley_0_18
// 023   ----------------------------------------
        BYTE   PATT
         POIN2  Records_Medley_0_18
// 024   ----------------------------------------
        BYTE   PATT
         POIN2  Records_Medley_0_18
// 025   ----------------------------------------
        BYTE   PATT
         POIN2  Records_Medley_0_18
// 026   ----------------------------------------
Records_Medley_0_26:
        BYTE           N21     Fs2   v100
        BYTE   W24
        BYTE                   Fs2
        BYTE   W24
        BYTE                   Fs2
        BYTE   W24
        BYTE                   Fs2
        BYTE   W24
        BYTE   PEND
// 027   ----------------------------------------
Records_Medley_0_27:
        BYTE           N21     Gn2   v100
        BYTE   W24
        BYTE                   Gn2
        BYTE   W24
        BYTE                   Gn2
        BYTE   W24
        BYTE                   Gn2
        BYTE   W24
        BYTE   PEND
// 028   ----------------------------------------
        BYTE   PATT
         POIN2  Records_Medley_0_26
// 029   ----------------------------------------
        BYTE   PATT
         POIN2  Records_Medley_0_27
// 030   ----------------------------------------
        BYTE   PATT
         POIN2  Records_Medley_0_18
// 031   ----------------------------------------
        BYTE   PATT
         POIN2  Records_Medley_0_18
// 032   ----------------------------------------
        BYTE   PATT
         POIN2  Records_Medley_0_18
// 033   ----------------------------------------
        BYTE   PATT
         POIN2  Records_Medley_0_18
// 034   ----------------------------------------
        BYTE   PATT
         POIN2  Records_Medley_0_18
// 035   ----------------------------------------
        BYTE   PATT
         POIN2  Records_Medley_0_18
// 036   ----------------------------------------
Records_Medley_0_36:
        BYTE           N21     Cn2   v100
        BYTE   W24
        BYTE                   Cn2
        BYTE   W24
        BYTE                   Cn2
        BYTE   W24
        BYTE                   Cn2
        BYTE   W24
        BYTE   PEND
// 037   ----------------------------------------
        BYTE                   Dn2
        BYTE   W72
        BYTE                   Cn2
        BYTE   W24
// 038   ----------------------------------------
        BYTE                   En2
        BYTE   W24
        BYTE                   En2
        BYTE   W24
        BYTE                   An2
        BYTE   W24
        BYTE                   Gn2
        BYTE   W24
// 039   ----------------------------------------
        BYTE                   Dn2
        BYTE   W24
        BYTE                   Dn2
        BYTE   W24
        BYTE                   Gn2
        BYTE   W24
        BYTE                   Gn2
        BYTE   W24
// 040   ----------------------------------------
        BYTE                   En2
        BYTE   W24
        BYTE                   En2
        BYTE   W24
        BYTE                   An2
        BYTE   W24
        BYTE                   An2
        BYTE   W24
// 041   ----------------------------------------
        BYTE                   Fn2
        BYTE   W24
        BYTE                   Fn2
        BYTE   W24
        BYTE                   Fs2
        BYTE   W24
        BYTE                   Fs2
        BYTE   W24
// 042   ----------------------------------------
        BYTE                   Gn2
        BYTE   W24
        BYTE                   Gn2
        BYTE   W24
        BYTE                   Fn2
        BYTE   W24
        BYTE                   Fn2
        BYTE   W24
// 043   ----------------------------------------
        BYTE                   En2
        BYTE   W24
        BYTE                   En2
        BYTE   W24
        BYTE                   Dn2
        BYTE   W24
        BYTE                   Dn2
        BYTE   W24
// 044   ----------------------------------------
        BYTE                   En2
        BYTE   W24
        BYTE                   En2
        BYTE   W24
        BYTE                   Fs2
        BYTE   W24
        BYTE                   Fs2
        BYTE   W24
// 045   ----------------------------------------
        BYTE                   Dn2
        BYTE   W24
        BYTE                   Cn2
        BYTE   W24
        BYTE                   Bn1
        BYTE   W24
        BYTE                   An1
        BYTE   W24
// 046   ----------------------------------------
        BYTE   PATT
         POIN2  Records_Medley_0_18
// 047   ----------------------------------------
        BYTE   PATT
         POIN2  Records_Medley_0_18
// 048   ----------------------------------------
        BYTE   PATT
         POIN2  Records_Medley_0_18
// 049   ----------------------------------------
        BYTE   PATT
         POIN2  Records_Medley_0_18
// 050   ----------------------------------------
        BYTE   PATT
         POIN2  Records_Medley_0_18
// 051   ----------------------------------------
        BYTE   PATT
         POIN2  Records_Medley_0_18
// 052   ----------------------------------------
        BYTE   W96
// 053   ----------------------------------------
        BYTE   W96
// 054   ----------------------------------------
        BYTE   W96
// 055   ----------------------------------------
        BYTE   W60
        BYTE   TEMPO   130/2
        BYTE   W12
        BYTE   TEMPO   126/2
        BYTE   W12
        BYTE   TEMPO   120/2
        BYTE   W12
// 056   ----------------------------------------
        BYTE   TEMPO   136/2
        BYTE           N64     Fn2   v100
        BYTE           N42     Dn3   v100   gtp1
        BYTE   W48
        BYTE           N21     An3
        BYTE   W24
// 057   ----------------------------------------
        BYTE           N64     An2
        BYTE           N42     En3   v100   gtp1
        BYTE   W48
        BYTE           N21     Cn3
        BYTE   W24
// 058   ----------------------------------------
        BYTE                   Dn2
        BYTE           N21     An2
        BYTE   W24
        BYTE                   En2
        BYTE           N21     En3
        BYTE   W24
        BYTE                   Fn2
        BYTE           N21     Fn3
        BYTE   W24
// 059   ----------------------------------------
        BYTE                   An2
        BYTE           N21     En3
        BYTE   W24
        BYTE                   Fn2
        BYTE           N21     Dn3
        BYTE   W24
        BYTE                   En2
        BYTE           N21     Cn3
        BYTE   W24
// 060   ----------------------------------------
        BYTE           N64     Dn2
        BYTE           N42     As2   v100   gtp1
        BYTE   W48
        BYTE           N21     An3
        BYTE   W24
// 061   ----------------------------------------
        BYTE           N64     Gn2
        BYTE           N42     Gn3   v100   gtp1
        BYTE   W48
        BYTE           N21     Fn3
        BYTE   W24
// 062   ----------------------------------------
        BYTE                   Gn2
        BYTE           N21     En3
        BYTE   W24
        BYTE                   An2
        BYTE           N21     Fn3
        BYTE   W24
        BYTE                   As2
        BYTE           N21     Gn3
        BYTE   W24
// 063   ----------------------------------------
        BYTE                   As2
        BYTE           N21     Fn3
        BYTE   W24
        BYTE                   Gn2
        BYTE           N21     En3
        BYTE   W24
        BYTE                   Fn2
        BYTE           N21     Dn3
        BYTE   W24
// 064   ----------------------------------------
        BYTE           N64     En2
        BYTE           N42     Cn3   v100   gtp1
        BYTE   W48
        BYTE           N21     Dn3
        BYTE   W24
// 065   ----------------------------------------
        BYTE           N64     Gn2
        BYTE           N42     En3   v100   gtp1
        BYTE   W48
        BYTE           N21     Fn3
        BYTE   W24
// 066   ----------------------------------------
        BYTE           N64     As2
        BYTE           N42     Gn3   v100   gtp1
        BYTE   W48
        BYTE           N21     An3
        BYTE   W24
// 067   ----------------------------------------
        BYTE           N64     Cn3
        BYTE           N42     As3   v100   gtp1
        BYTE   W48
        BYTE           N21     Cn4
        BYTE   W24
// 068   ----------------------------------------
        BYTE           TIE     An3
        BYTE           TIE     Fn3
        BYTE           TIE     Cn3
        BYTE   W07
        BYTE           VOL     36
        BYTE   W64
        BYTE   W01
// 069   ----------------------------------------
Records_Medley_0_69:
        BYTE   W36
        BYTE   W01
        BYTE           VOL     35
        BYTE   W01
        BYTE                   34
        BYTE   W02
        BYTE                   33
        BYTE   W03
        BYTE                   32
        BYTE   W01
        BYTE                   31
        BYTE   W02
        BYTE                   30
        BYTE   W03
        BYTE                   29
        BYTE   W01
        BYTE                   28
        BYTE   W02
        BYTE                   27
        BYTE   W01
        BYTE                   26
        BYTE   W03
        BYTE                   25
        BYTE   W02
        BYTE                   24
        BYTE   W01
        BYTE                   23
        BYTE   W03
        BYTE                   22
        BYTE   W02
        BYTE                   21
        BYTE   W03
        BYTE                   20
        BYTE   W01
        BYTE                   19
        BYTE   W02
        BYTE                   18
        BYTE   W01
        BYTE                   17
        BYTE   W01
        BYTE   PEND
// 070   ----------------------------------------
        BYTE   W02
        BYTE                   16
        BYTE   W02
        BYTE                   15
        BYTE   W01
        BYTE                   14
        BYTE   W03
        BYTE                   13
        BYTE   W02
        BYTE                   12
        BYTE   W01
        BYTE                   11
        BYTE   W02
        BYTE                   10
        BYTE   W01
        BYTE           EOT     An3
        BYTE                   Cn3
        BYTE                   Fn3
        BYTE   W02
        BYTE           VOL     9
        BYTE   W01
        BYTE                   8
        BYTE   W02
        BYTE                   7
        BYTE   W03
        BYTE                   6
        BYTE   W16
        BYTE                   35
        BYTE   W02
        BYTE                   38
        BYTE   W08
        BYTE           N21     Gn3   v100
        BYTE   W24
// 071   ----------------------------------------
        BYTE           N42     Fn3   v100   gtp1
        BYTE   W48
        BYTE           N21     En3
        BYTE   W24
// 072   ----------------------------------------
Records_Medley_0_72:
        BYTE           N64     Ds2   v100
        BYTE           N42     Dn3   v100   gtp1
        BYTE   W48
        BYTE           N21     Cn3
        BYTE   W24
        BYTE   PEND
// 073   ----------------------------------------
Records_Medley_0_73:
        BYTE           N64     Gn2   v100
        BYTE           N42     Dn3   v100   gtp1
        BYTE   W48
        BYTE           N21     Ds3
        BYTE   W24
        BYTE   PEND
// 074   ----------------------------------------
Records_Medley_0_74:
        BYTE           N42     Fn3   v100   gtp1
        BYTE           N64     As2
        BYTE   W48
        BYTE           N42     Gn3   v100   gtp1
        BYTE   W24
        BYTE   PEND
// 075   ----------------------------------------
        BYTE           N21     Cn3
        BYTE   W24
        BYTE           N42     As2   v100   gtp1
        BYTE           N21     Fn3
        BYTE   W24
        BYTE                   Ds3
        BYTE   W24
// 076   ----------------------------------------
        BYTE           N64     Fn2
        BYTE           N42     Dn3   v100   gtp1
        BYTE   W48
        BYTE           N21     Cn3
        BYTE   W24
// 077   ----------------------------------------
        BYTE           N64     An2
        BYTE           N42     Dn3   v100   gtp1
        BYTE   W48
        BYTE           N21     Ds3
        BYTE   W24
// 078   ----------------------------------------
        BYTE           N42     Fn3   v100   gtp1
        BYTE           N64     Dn3
        BYTE   W48
        BYTE           N42     Gn3   v100   gtp1
        BYTE   W24
// 079   ----------------------------------------
        BYTE   W24
        BYTE                   Cn3
        BYTE           N21     Fn3
        BYTE   W24
        BYTE                   Ds3
        BYTE   W24
// 080   ----------------------------------------
        BYTE   PATT
         POIN2  Records_Medley_0_72
// 081   ----------------------------------------
        BYTE   PATT
         POIN2  Records_Medley_0_73
// 082   ----------------------------------------
        BYTE   PATT
         POIN2  Records_Medley_0_74
// 083   ----------------------------------------
        BYTE   W24
        BYTE           N64     As2   v100
        BYTE           N21     Fn3
        BYTE   W24
        BYTE                   Ds3
        BYTE   W24
// 084   ----------------------------------------
        BYTE           TIE     Bn2
        BYTE           TIE     Dn3
        BYTE   W72
// 085   ----------------------------------------
        BYTE   W64
        BYTE           EOT     Bn2
        BYTE                   Dn3
        BYTE   W08
// 086   ----------------------------------------
        BYTE           N64     Dn2
        BYTE           N42     Bn2   v100   gtp1
        BYTE   W48
        BYTE           N21     Gn2
        BYTE   W24
// 087   ----------------------------------------
        BYTE           N64     Bn2
        BYTE   W24
        BYTE   TEMPO   126/2
        BYTE   W12
        BYTE   TEMPO   110/2
        BYTE   W12
        BYTE   TEMPO   100/2
        BYTE   W12
        BYTE   TEMPO   80/2
        BYTE   W12
// 088   ----------------------------------------
        BYTE   TEMPO   140/2
        BYTE   W96
// 089   ----------------------------------------
        BYTE   W96
// 090   ----------------------------------------
        BYTE   W96
// 091   ----------------------------------------
        BYTE   W96
// 092   ----------------------------------------
        BYTE   W96
// 093   ----------------------------------------
        BYTE   W96
// 094   ----------------------------------------
Records_Medley_0_94:
        BYTE   W12
        BYTE           N05     Dn3   v116
        BYTE           N05     Bn3
        BYTE   W06
        BYTE                   Fs3
        BYTE           N05     Cs4
        BYTE   W06
        BYTE                   Bn3
        BYTE           N08     Dn4
        BYTE   W12
        BYTE           N05     Dn3
        BYTE           N05     Bn3
        BYTE   W06
        BYTE                   Fs3
        BYTE           N05     Cs4
        BYTE   W06
        BYTE           N42     Bn3   v117   gtp1
        BYTE                   Dn4
        BYTE   W48
        BYTE   PEND
// 095   ----------------------------------------
Records_Medley_0_95:
        BYTE   W12
        BYTE           N05     Cs3   v118
        BYTE           N05     Bn3
        BYTE   W06
        BYTE                   En3
        BYTE           N05     Cs4
        BYTE   W06
        BYTE           N09     An3
        BYTE           N08     Dn4
        BYTE   W12
        BYTE           N05     Cs3   v119
        BYTE           N05     Bn3
        BYTE   W06
        BYTE                   En3
        BYTE           N05     Cs4
        BYTE   W06
        BYTE           N21     An3
        BYTE           N21     Dn4
        BYTE   W24
        BYTE                   Bn3
        BYTE           N21     En4
        BYTE   W24
        BYTE   PEND
// 096   ----------------------------------------
Records_Medley_0_96:
        BYTE           N42     Fs3   v100   gtp1
        BYTE   W48
        BYTE                   An3
        BYTE   W48
        BYTE   PEND
// 097   ----------------------------------------
Records_Medley_0_97:
        BYTE           N42     Dn4   v100   gtp1
        BYTE   W48
        BYTE           N21     Cs4
        BYTE   W24
        BYTE                   Dn4
        BYTE   W24
        BYTE   PEND
// 098   ----------------------------------------
Records_Medley_0_98:
        BYTE           N42     Bn3   v100   gtp1
        BYTE   W48
        BYTE                   An3
        BYTE   W48
        BYTE   PEND
// 099   ----------------------------------------
Records_Medley_0_99:
        BYTE           N21     Gn3   v100
        BYTE   W24
        BYTE                   Fs3
        BYTE   W24
        BYTE                   En3
        BYTE   W24
        BYTE                   An3
        BYTE   W24
        BYTE   PEND
// 100   ----------------------------------------
        BYTE   W96
// 101   ----------------------------------------
        BYTE   W96
// 102   ----------------------------------------
        BYTE   W96
// 103   ----------------------------------------
        BYTE   W96
// 104   ----------------------------------------
        BYTE   W96
// 105   ----------------------------------------
        BYTE   W96
// 106   ----------------------------------------
        BYTE   W96
// 107   ----------------------------------------
        BYTE   W96
// 108   ----------------------------------------
        BYTE   W96
// 109   ----------------------------------------
        BYTE   W96
// 110   ----------------------------------------
        BYTE   W96
// 111   ----------------------------------------
        BYTE   W96
// 112   ----------------------------------------
Records_Medley_0_112:
        BYTE           N42     Dn3   v100   gtp1
        BYTE                   Bn2
        BYTE   W48
        BYTE                   Bn3
        BYTE           N42     Gn3   v100   gtp1
        BYTE   W48
        BYTE   PEND
// 113   ----------------------------------------
Records_Medley_0_113:
        BYTE           N42     Bn3   v100   gtp1
        BYTE                   Cn3
        BYTE   W48
        BYTE           N21     En3
        BYTE           N21     An3
        BYTE   W24
        BYTE                   Cn3
        BYTE           N21     Gn3
        BYTE   W24
        BYTE   PEND
// 114   ----------------------------------------
Records_Medley_0_114:
        BYTE           N32     Dn3   v100
        BYTE           N32     Gn3
        BYTE   W36
        BYTE           N10     An2
        BYTE           N10     Fs3
        BYTE   W12
        BYTE           N32     An2
        BYTE           N32     Fs3
        BYTE   W36
        BYTE           N10     Gn3
        BYTE           N10     Cn4
        BYTE   W12
        BYTE   PEND
// 115   ----------------------------------------
Records_Medley_0_115:
        BYTE           N32     Gn3   v100
        BYTE           N32     Cn4
        BYTE   W36
        BYTE           N10     Dn3
        BYTE           N10     Bn3
        BYTE   W12
        BYTE           N42     Dn3   v100   gtp1
        BYTE                   Bn3
        BYTE   W48
        BYTE   PEND
// 116   ----------------------------------------
Records_Medley_0_116:
        BYTE           N56     Gn2   v100   gtp2
        BYTE                   Dn3
        BYTE   W60
        BYTE           N10     Gn2
        BYTE           N10     Dn3
        BYTE   W12
        BYTE                   Bn2
        BYTE           N10     Gn3
        BYTE   W12
        BYTE                   Dn3
        BYTE           N10     Bn3
        BYTE   W12
        BYTE   PEND
// 117   ----------------------------------------
Records_Medley_0_117:
        BYTE           N42     Gn3   v100   gtp1
        BYTE                   Dn4
        BYTE   W48
        BYTE           N21     En3
        BYTE           N21     Cn4
        BYTE   W24
        BYTE                   En3
        BYTE           N21     Bn3
        BYTE   W24
        BYTE   PEND
// 118   ----------------------------------------
Records_Medley_0_118:
        BYTE           N32     En3   v100
        BYTE           N32     Bn3
        BYTE   W36
        BYTE           N10     En3
        BYTE           N10     An3
        BYTE   W12
        BYTE           N32     En3
        BYTE           N32     An3
        BYTE   W36
        BYTE           N10     Dn3
        BYTE           N10     Gn3
        BYTE   W12
        BYTE   PEND
// 119   ----------------------------------------
Records_Medley_0_119:
        BYTE           N32     Dn3   v100
        BYTE           N32     Gn3
        BYTE   W36
        BYTE           N10     Dn3
        BYTE           N10     Fs3
        BYTE   W12
        BYTE           N42     Dn3   v100   gtp1
        BYTE                   Fs3
        BYTE   W48
        BYTE   PEND
// 120   ----------------------------------------
        BYTE   W96
// 121   ----------------------------------------
        BYTE   W96
// 122   ----------------------------------------
        BYTE   W96
// 123   ----------------------------------------
        BYTE   W96
// 124   ----------------------------------------
        BYTE   W96
// 125   ----------------------------------------
        BYTE   W96
// 126   ----------------------------------------
        BYTE   PATT
         POIN2  Records_Medley_0_94
// 127   ----------------------------------------
        BYTE   PATT
         POIN2  Records_Medley_0_95
// 128   ----------------------------------------
        BYTE   PATT
         POIN2  Records_Medley_0_96
// 129   ----------------------------------------
        BYTE   PATT
         POIN2  Records_Medley_0_97
// 130   ----------------------------------------
        BYTE   PATT
         POIN2  Records_Medley_0_98
// 131   ----------------------------------------
        BYTE   PATT
         POIN2  Records_Medley_0_99
// 132   ----------------------------------------
        BYTE   W96
// 133   ----------------------------------------
        BYTE   W96
// 134   ----------------------------------------
        BYTE   W96
// 135   ----------------------------------------
        BYTE   W96
// 136   ----------------------------------------
        BYTE   W96
// 137   ----------------------------------------
        BYTE   W96
// 138   ----------------------------------------
        BYTE   W96
// 139   ----------------------------------------
        BYTE   W96
// 140   ----------------------------------------
        BYTE   W96
// 141   ----------------------------------------
        BYTE   W96
// 142   ----------------------------------------
        BYTE   W96
// 143   ----------------------------------------
        BYTE   W96
// 144   ----------------------------------------
Records_Medley_0_144:
        BYTE           N32     Cn4   v100
        BYTE           N32     Fs4
        BYTE   W36
        BYTE           N10     Cn4
        BYTE           N10     Gn4
        BYTE   W12
        BYTE           N68     Gn3   v100   gtp1
        BYTE                   En4
        BYTE   W48
        BYTE   PEND
// 145   ----------------------------------------
Records_Medley_0_145:
        BYTE   W24
        BYTE           N21     Gn3   v100
        BYTE           N21     En4
        BYTE   W24
        BYTE                   Cn4
        BYTE           N21     An4
        BYTE   W24
        BYTE                   Cn4
        BYTE           N21     Gn4
        BYTE   W24
        BYTE   PEND
// 146   ----------------------------------------
        BYTE   PATT
         POIN2  Records_Medley_0_144
// 147   ----------------------------------------
        BYTE   PATT
         POIN2  Records_Medley_0_145
// 148   ----------------------------------------
Records_Medley_0_148:
        BYTE           N32     An3   v100
        BYTE           N32     Fs4
        BYTE   W36
        BYTE           N10     Bn3
        BYTE           N10     Gn4
        BYTE   W12
        BYTE           N68     Gn3   v100   gtp1
        BYTE                   En4
        BYTE   W48
        BYTE   PEND
// 149   ----------------------------------------
        BYTE   W24
        BYTE           N21     Gn3
        BYTE           N21     En4
        BYTE   W24
        BYTE                   An3
        BYTE           N21     Fs4
        BYTE   W24
        BYTE                   Bn3
        BYTE           N21     Gn4
        BYTE   W24
// 150   ----------------------------------------
        BYTE   PATT
         POIN2  Records_Medley_0_148
// 151   ----------------------------------------
        BYTE   W24
        BYTE           N21     An3   v100
        BYTE           N21     Fs4
        BYTE   W24
        BYTE                   Bn3
        BYTE           N21     Gn4
        BYTE   W24
        BYTE                   Cn4
        BYTE           N21     An4
        BYTE   W24
// 152   ----------------------------------------
        BYTE   W96
// 153   ----------------------------------------
        BYTE   W96
// 154   ----------------------------------------
        BYTE   W96
// 155   ----------------------------------------
        BYTE   W96
// 156   ----------------------------------------
        BYTE   W96
// 157   ----------------------------------------
        BYTE   W96
// 158   ----------------------------------------
        BYTE   W96
// 159   ----------------------------------------
        BYTE   W96
// 160   ----------------------------------------
        BYTE   W96
// 161   ----------------------------------------
        BYTE   W96
// 162   ----------------------------------------
        BYTE   W96
// 163   ----------------------------------------
        BYTE   W96
// 164   ----------------------------------------
        BYTE   W96
// 165   ----------------------------------------
        BYTE   W96
// 166   ----------------------------------------
        BYTE   W96
// 167   ----------------------------------------
        BYTE   W96
// 168   ----------------------------------------
        BYTE   W96
// 169   ----------------------------------------
        BYTE   W96
// 170   ----------------------------------------
        BYTE   W96
// 171   ----------------------------------------
        BYTE   W96
// 172   ----------------------------------------
        BYTE   W96
// 173   ----------------------------------------
        BYTE   W96
// 174   ----------------------------------------
        BYTE   W96
// 175   ----------------------------------------
        BYTE   W96
// 176   ----------------------------------------
        BYTE   TEMPO   144/2
        BYTE   W96
// 177   ----------------------------------------
        BYTE   W96
// 178   ----------------------------------------
        BYTE   TEMPO   146/2
        BYTE   W96
// 179   ----------------------------------------
        BYTE   W96
// 180   ----------------------------------------
Records_Medley_0_180:
        BYTE           N07     En4   v100
        BYTE   W16
        BYTE                   Gn4
        BYTE   W08
        BYTE                   Fs4
        BYTE   W08
        BYTE                   Gn4
        BYTE   W08
        BYTE                   Fs4
        BYTE   W08
        BYTE                   En4
        BYTE   W16
        BYTE                   Gn4
        BYTE   W08
        BYTE                   Fs4
        BYTE   W08
        BYTE                   Gn4
        BYTE   W08
        BYTE                   Fs4
        BYTE   W08
        BYTE   PEND
// 181   ----------------------------------------
Records_Medley_0_181:
        BYTE           N07     En4   v100
        BYTE   W16
        BYTE                   Gn4
        BYTE   W08
        BYTE                   Fs4
        BYTE   W08
        BYTE                   Gn4
        BYTE   W08
        BYTE                   Fs4
        BYTE   W08
        BYTE                   En4
        BYTE   W08
        BYTE                   Fs4
        BYTE   W08
        BYTE                   Gn4
        BYTE   W08
        BYTE                   An4
        BYTE   W08
        BYTE                   Gn4
        BYTE   W08
        BYTE                   Fs4
        BYTE   W08
        BYTE   PEND
// 182   ----------------------------------------
        BYTE   PATT
         POIN2  Records_Medley_0_180
// 183   ----------------------------------------
        BYTE   PATT
         POIN2  Records_Medley_0_181
// 184   ----------------------------------------
        BYTE   W96
// 185   ----------------------------------------
        BYTE   W96
// 186   ----------------------------------------
        BYTE   W96
// 187   ----------------------------------------
        BYTE   W96
// 188   ----------------------------------------
        BYTE   W96
// 189   ----------------------------------------
        BYTE   W96
// 190   ----------------------------------------
        BYTE   W96
// 191   ----------------------------------------
        BYTE   W96
// 192   ----------------------------------------
        BYTE   W96
// 193   ----------------------------------------
        BYTE   W96
// 194   ----------------------------------------
        BYTE   W96
// 195   ----------------------------------------
        BYTE   W96
// 196   ----------------------------------------
        BYTE   W96
// 197   ----------------------------------------
        BYTE   W96
// 198   ----------------------------------------
        BYTE   W96
// 199   ----------------------------------------
        BYTE           N03     Fs3   v100
        BYTE   W04
        BYTE                   Gn3
        BYTE   W04
        BYTE                   An3
        BYTE   W04
        BYTE                   Bn3
        BYTE   W04
        BYTE                   Gn3
        BYTE   W04
        BYTE                   An3
        BYTE   W04
        BYTE                   Bn3
        BYTE   W04
        BYTE                   Cn4
        BYTE   W04
        BYTE                   An3
        BYTE   W04
        BYTE                   Bn3
        BYTE   W04
        BYTE                   Cn4
        BYTE   W04
        BYTE                   Dn4
        BYTE   W04
        BYTE                   Bn3
        BYTE   W04
        BYTE                   Cn4
        BYTE   W04
        BYTE                   Dn4
        BYTE   W04
        BYTE                   En4
        BYTE   W04
        BYTE                   Cn4
        BYTE   W04
        BYTE                   Dn4
        BYTE   W04
        BYTE                   En4
        BYTE   W04
        BYTE                   Fs4
        BYTE   W04
        BYTE                   Dn4
        BYTE   W04
        BYTE                   En4
        BYTE   W04
        BYTE                   Fs4
        BYTE   W04
        BYTE                   An4
        BYTE   W04
// 200   ----------------------------------------
        BYTE   PATT
         POIN2  Records_Medley_0_180
// 201   ----------------------------------------
        BYTE   PATT
         POIN2  Records_Medley_0_181
// 202   ----------------------------------------
        BYTE   PATT
         POIN2  Records_Medley_0_180
// 203   ----------------------------------------
        BYTE   PATT
         POIN2  Records_Medley_0_181
// 204   ----------------------------------------
Records_Medley_0_204:
        BYTE           N07     En5   v100
        BYTE   W16
        BYTE                   Gn5
        BYTE   W08
        BYTE                   Fs5
        BYTE   W08
        BYTE                   Gn5
        BYTE   W08
        BYTE                   Fs5
        BYTE   W08
        BYTE                   En5
        BYTE   W16
        BYTE                   Gn5
        BYTE   W08
        BYTE                   Fs5
        BYTE   W08
        BYTE                   Gn5
        BYTE   W08
        BYTE                   Fs5
        BYTE   W08
        BYTE   PEND
// 205   ----------------------------------------
Records_Medley_0_205:
        BYTE           N07     En5   v100
        BYTE   W16
        BYTE                   Gn5
        BYTE   W08
        BYTE                   Fs5
        BYTE   W08
        BYTE                   Gn5
        BYTE   W08
        BYTE                   Fs5
        BYTE   W08
        BYTE                   En5
        BYTE   W08
        BYTE                   Fs5
        BYTE   W08
        BYTE                   Gn5
        BYTE   W08
        BYTE                   An5
        BYTE   W08
        BYTE                   Gn5
        BYTE   W08
        BYTE                   Fs5
        BYTE   W08
        BYTE   PEND
// 206   ----------------------------------------
        BYTE   PATT
         POIN2  Records_Medley_0_204
// 207   ----------------------------------------
        BYTE   PATT
         POIN2  Records_Medley_0_205
// 208   ----------------------------------------
        BYTE   W96
// 209   ----------------------------------------
        BYTE   W96
// 210   ----------------------------------------
        BYTE           VOL     34
        BYTE   W07
        BYTE                   33
        BYTE   W06
        BYTE                   32
        BYTE   W06
        BYTE                   30
        BYTE   W06
        BYTE                   29
        BYTE   W06
        BYTE                   28
        BYTE   W06
        BYTE                   26
        BYTE   W06
        BYTE                   24
        BYTE   W06
        BYTE                   22
        BYTE   W06
        BYTE                   21
        BYTE   W06
        BYTE                   18
        BYTE   W06
        BYTE                   16
        BYTE   W06
        BYTE                   14
        BYTE   W06
        BYTE                   11
        BYTE   W06
        BYTE                   8
        BYTE   W06
        BYTE                   5
        BYTE   W05
// 211   ----------------------------------------
        BYTE   W01
        BYTE                   2
        BYTE   W92
        BYTE   W02
        BYTE                   39
        BYTE   W01
// 212   ----------------------------------------
Records_Medley_0_212:
        BYTE           N07     En4   v121
        BYTE   W16
        BYTE                   Gn4
        BYTE   W08
        BYTE                   Fs4
        BYTE   W08
        BYTE                   Gn4
        BYTE   W08
        BYTE                   Fs4
        BYTE   W08
        BYTE                   En4
        BYTE   W16
        BYTE                   Gn4
        BYTE   W08
        BYTE                   Fs4
        BYTE   W08
        BYTE                   Gn4
        BYTE   W08
        BYTE                   Fs4
        BYTE   W08
        BYTE   PEND
// 213   ----------------------------------------
        BYTE                   En4
        BYTE   W16
        BYTE                   Gn4
        BYTE   W08
        BYTE                   Fs4
        BYTE   W08
        BYTE                   Gn4
        BYTE   W08
        BYTE                   Fs4
        BYTE   W08
        BYTE                   En4
        BYTE   W08
        BYTE                   Fs4
        BYTE   W08
        BYTE                   Gn4
        BYTE   W08
        BYTE                   An4
        BYTE   W08
        BYTE                   Gn4
        BYTE   W08
        BYTE                   Fs4
        BYTE   W08
// 214   ----------------------------------------
        BYTE   PATT
         POIN2  Records_Medley_0_212
// 215   ----------------------------------------
        BYTE           N07     En4   v121
        BYTE   W16
        BYTE                   Gn4
        BYTE   W08
        BYTE                   Fs4
        BYTE   W08
        BYTE                   Gn4
        BYTE   W08
        BYTE                   Fs4
        BYTE   W08
        BYTE   TEMPO   126/2
        BYTE           N21     En4
        BYTE   W24
        BYTE   TEMPO   110/2
        BYTE                   Ds4
        BYTE   W24
// 216   ----------------------------------------
        BYTE   TEMPO   128/2
        BYTE           N48     Cn4   v100
        BYTE           N48     En4
        BYTE   W48
        BYTE                   Dn4
        BYTE           N48     Fs4
        BYTE   W48
// 217   ----------------------------------------
        BYTE                   En4
        BYTE           N48     Gn4
        BYTE   W48
        BYTE                   Fs4
        BYTE           N48     An4
        BYTE   W48
// 218   ----------------------------------------
        BYTE           N44     Dn4   v100   gtp3
        BYTE                   Fs4
        BYTE   W48
        BYTE                   En4
        BYTE           N44     Gn4   v100   gtp3
        BYTE   W48
// 219   ----------------------------------------
        BYTE                   Fs4
        BYTE           N44     An4   v100   gtp3
        BYTE   W48
        BYTE           N14     Fs4
        BYTE           N14     Bn4
        BYTE   W16
        BYTE                   Fs4
        BYTE           N14     Cn5
        BYTE   W16
        BYTE                   Fs4
        BYTE           N14     Dn5
        BYTE   W16
// 220   ----------------------------------------
        BYTE           N44     Gn4   v100   gtp3
        BYTE                   Cn5
        BYTE   W48
        BYTE           N68     Ds4   v100   gtp3
        BYTE                   As4
        BYTE   W48
// 221   ----------------------------------------
        BYTE   TEMPO   116/2
        BYTE   W24
        BYTE           N23     Gn4
        BYTE           N23     As4
        BYTE   W24
        BYTE   TEMPO   106/2
        BYTE                   Gn4
        BYTE           N23     Ds5
        BYTE   W24
        BYTE   TEMPO   90/2
        BYTE                   Gn4
        BYTE           N23     Gn5
        BYTE   W24
// 222   ----------------------------------------
        BYTE   TEMPO   40/2
        BYTE           N96     An4
        BYTE           N96     Dn4
        BYTE           N96     Fs5
        BYTE   W72
        BYTE   TEMPO   100/2
        BYTE   W24
// 223   ----------------------------------------
        BYTE   W48
        BYTE   FINE

//****************** Track 1 (Midi-Chn.1) ******************//

Records_Medley_1:
        BYTE   KEYSH   Records_Medley_key+0
// 000   ----------------------------------------
        BYTE           VOICE   41
        BYTE           PAN     c_v-39
        BYTE           VOL     40
        BYTE           N44     Dn3   v096   gtp3
        BYTE                   Bn2   v100
        BYTE   W48
        BYTE           N23     Dn3
        BYTE           N23     Gn3
        BYTE   W24
        BYTE                   Bn3
        BYTE           N23     Gn3
        BYTE           N23     Dn3
        BYTE   W24
// 001   ----------------------------------------
        BYTE           N44     Gn3   v100   gtp3
        BYTE                   Bn3
        BYTE   W48
        BYTE                   En3
        BYTE           N44     Cn3   v100   gtp3
        BYTE                   Gn2
        BYTE   W48
// 002   ----------------------------------------
        BYTE           N56     Cn3   v100   gtp2
        BYTE                   En3
        BYTE   W60
        BYTE           N10     Dn3
        BYTE           N10     Fs3
        BYTE   W12
        BYTE                   En3
        BYTE           N10     Gn3
        BYTE   W12
        BYTE                   Fs3
        BYTE           N10     An3
        BYTE   W12
// 003   ----------------------------------------
        BYTE           N44     Cn3   v100   gtp3
        BYTE                   Gn3
        BYTE           N44     An2   v100   gtp3
        BYTE   W48
        BYTE                   Fs3
        BYTE           N44     An2   v100   gtp3
        BYTE                   Cn3
        BYTE   W48
// 004   ----------------------------------------
        BYTE                   Gn2
        BYTE           N44     Dn3   v100   gtp3
        BYTE   W48
        BYTE           N23     Bn2
        BYTE           N23     Gn3
        BYTE   W24
        BYTE                   Bn3
        BYTE           N23     Bn2
        BYTE           N23     Dn3
        BYTE   W24
// 005   ----------------------------------------
        BYTE           N44     Dn4   v100   gtp3
        BYTE                   Dn3
        BYTE           N44     Bn3   v100   gtp3
        BYTE   W48
        BYTE           N23     Cn3
        BYTE           N23     Cn4
        BYTE           N21     En3
        BYTE           N23     Gs3
        BYTE   W24
        BYTE                   Bn2
        BYTE           N23     Dn3
        BYTE           N21     En3
        BYTE           N23     Bn3
        BYTE   W24
// 006   ----------------------------------------
        BYTE           N56     En3   v100   gtp2
        BYTE                   Cn3
        BYTE           N42     Gn2   v100   gtp1
        BYTE   W60
        BYTE           N10     Fs3
        BYTE           N10     Cn3
        BYTE           N10     An2
        BYTE   W12
        BYTE                   Gn3
        BYTE           N10     Bn2
        BYTE   W12
        BYTE                   An3
        BYTE           N10     En3
        BYTE           N10     Cn3
        BYTE   W12
// 007   ----------------------------------------
        BYTE           N64     Gn3
        BYTE           N64     Bn2
        BYTE           N64     Dn3
        BYTE   W72
        BYTE           N21     Gs2
        BYTE           N23     Bn2
        BYTE           N21     Dn3
        BYTE           N23     Fs3
        BYTE   W08
        BYTE           VOL     41
        BYTE   W16
// 008   ----------------------------------------
        BYTE           N84     An2   v100   gtp2
        BYTE           N23     En3
        BYTE   W24
        BYTE           N32     Cn3   v100   gtp3
        BYTE                   Cn4
        BYTE           N32     Gn3   v100   gtp3
        BYTE   W36
        BYTE           N11     An3
        BYTE           N10     Fs3
        BYTE           N11     Dn3
        BYTE   W12
        BYTE                   Gn3
        BYTE           N10     Bn2
        BYTE           N11     Dn3
        BYTE   W12
        BYTE                   Dn3
        BYTE           N10     Bn2
        BYTE           N11     Fs3
        BYTE   W12
// 009   ----------------------------------------
        BYTE           N32     Bn2
        BYTE           N32     Fs3   v100   gtp3
        BYTE           N32     Bn3
        BYTE           N32     Dn4   v100   gtp3
        BYTE   W36
        BYTE           N11     Bn3
        BYTE           N10     Fs3
        BYTE           N11     Dn3
        BYTE   W12
        BYTE           N17     Gn3
        BYTE           N17     Bn2
        BYTE           N16     En3
        BYTE   W24
        BYTE           N11     Gn3
        BYTE           N10     En3
        BYTE           N11     Bn2
        BYTE   W12
        BYTE           N10     Dn3
        BYTE           N11     Bn2
        BYTE           N11     Fs3
        BYTE   W12
// 010   ----------------------------------------
        BYTE           N23     En3
        BYTE           N42     Gn2   v100   gtp1
        BYTE           N23     Cn3
        BYTE   W24
        BYTE           N32     Gn3   v100   gtp3
        BYTE                   En4
        BYTE   W36
        BYTE           N11     Dn4
        BYTE           N10     An3
        BYTE           N11     Fs3
        BYTE   W12
        BYTE                   Cn4
        BYTE           N10     An2
        BYTE           N11     Fs3
        BYTE   W12
        BYTE                   An3
        BYTE           N10     Cn3
        BYTE           N11     Dn3
        BYTE   W12
// 011   ----------------------------------------
        BYTE           N92     Bn3   v100   gtp3
        BYTE                   Dn3
        BYTE           N92     Bn2   v100   gtp3
        BYTE   W96
// 012   ----------------------------------------
        BYTE           N23     Cn3
        BYTE           N23     An2
        BYTE           N23     En3
        BYTE   W24
        BYTE           N32     Cn4   v100   gtp3
        BYTE                   Cn3
        BYTE           N32     Gn3   v100   gtp3
        BYTE   W36
        BYTE           N11     Dn3
        BYTE           N11     An2
        BYTE           N10     Fs3
        BYTE           N11     An3
        BYTE   W12
        BYTE                   Dn3
        BYTE           N11     Bn2
        BYTE           N11     Gn3
        BYTE   W12
        BYTE                   Dn3
        BYTE           N11     An2
        BYTE           N10     Bn2
        BYTE           N11     Fs3
        BYTE   W12
// 013   ----------------------------------------
        BYTE           N32     Dn4   v100   gtp3
        BYTE                   Bn3
        BYTE           N32     Fs3   v100   gtp3
        BYTE           N42     An2   v100   gtp1
        BYTE   W36
        BYTE           N11     Bn3
        BYTE           N11     Dn3
        BYTE           N11     Fs3
        BYTE   W12
        BYTE           N17     Gn3
        BYTE           N17     Gn4
        BYTE           N17     En4
        BYTE           N21     Bn2
        BYTE   W24
        BYTE           N10     En3
        BYTE           N11     Gn4
        BYTE           N10     Bn2
        BYTE           N11     Bn3
        BYTE           N10     Dn3
        BYTE           N11     Gn3
        BYTE   W12
        BYTE                   Gn3
        BYTE           N10     Dn3
        BYTE           N11     Fs4
        BYTE           N10     An2
        BYTE           N11     Bn3
        BYTE   W12
// 014   ----------------------------------------
        BYTE           N60     Gn3
        BYTE           N60     Cn4
        BYTE           N60     En4
        BYTE           N48     Cn3
        BYTE   W48
        BYTE           N42     Cs3   v100   gtp1
        BYTE   W12
        BYTE           N12     An3
        BYTE           N12     Cs4
        BYTE           N12     Fs4
        BYTE   W12
        BYTE                   Gn3
        BYTE           N12     Bn3
        BYTE           N12     Gn4
        BYTE   W12
        BYTE                   Cs4
        BYTE           N12     An4
        BYTE           N12     Fs3
        BYTE   W12
// 015   ----------------------------------------
        BYTE           N48     An3
        BYTE           N48     Gn4
        BYTE           N48     Dn4
        BYTE           N42     Dn3   v100   gtp1
        BYTE   W48
        BYTE           N48     Cn4
        BYTE           N48     An3
        BYTE           N42     Fs3   v100   gtp1
        BYTE           N48     Fs4
        BYTE   W48
// 016   ----------------------------------------
        BYTE           TIE     Gn3
        BYTE           TIE     Gn4
        BYTE           TIE     Bn3
        BYTE   W96
// 017   ----------------------------------------
        BYTE   W56
        BYTE   W03
        BYTE           EOT     Gn3
        BYTE                   Bn3
        BYTE                   Gn4
        BYTE   W13
        BYTE           N21     Gn3   v120
        BYTE           N21     Bn3
        BYTE   W24
// 018   ----------------------------------------
Records_Medley_1_18:
        BYTE           N21     En3   v100
        BYTE   W24
        BYTE                   Fn3
        BYTE   W24
        BYTE                   Gn3
        BYTE   W24
        BYTE                   Fn3
        BYTE   W24
        BYTE   PEND
// 019   ----------------------------------------
        BYTE   PATT
         POIN2  Records_Medley_1_18
// 020   ----------------------------------------
        BYTE   PATT
         POIN2  Records_Medley_1_18
// 021   ----------------------------------------
        BYTE   PATT
         POIN2  Records_Medley_1_18
// 022   ----------------------------------------
        BYTE   PATT
         POIN2  Records_Medley_1_18
// 023   ----------------------------------------
        BYTE   PATT
         POIN2  Records_Medley_1_18
// 024   ----------------------------------------
        BYTE   PATT
         POIN2  Records_Medley_1_18
// 025   ----------------------------------------
        BYTE   PATT
         POIN2  Records_Medley_1_18
// 026   ----------------------------------------
Records_Medley_1_26:
        BYTE           N21     Dn3   v100
        BYTE   W24
        BYTE                   Dn3
        BYTE   W24
        BYTE                   Dn3
        BYTE   W24
        BYTE                   Dn3
        BYTE   W24
        BYTE   PEND
// 027   ----------------------------------------
        BYTE   PATT
         POIN2  Records_Medley_1_26
// 028   ----------------------------------------
        BYTE   PATT
         POIN2  Records_Medley_1_26
// 029   ----------------------------------------
        BYTE   PATT
         POIN2  Records_Medley_1_26
// 030   ----------------------------------------
        BYTE   PATT
         POIN2  Records_Medley_1_18
// 031   ----------------------------------------
        BYTE   PATT
         POIN2  Records_Medley_1_18
// 032   ----------------------------------------
        BYTE   PATT
         POIN2  Records_Medley_1_18
// 033   ----------------------------------------
        BYTE   PATT
         POIN2  Records_Medley_1_18
// 034   ----------------------------------------
        BYTE   PATT
         POIN2  Records_Medley_1_18
// 035   ----------------------------------------
        BYTE   PATT
         POIN2  Records_Medley_1_18
// 036   ----------------------------------------
        BYTE           N21     En3   v100
        BYTE   W24
        BYTE                   En3
        BYTE   W24
        BYTE                   Ds3
        BYTE   W24
        BYTE                   Ds3
        BYTE   W24
// 037   ----------------------------------------
        BYTE                   Bn3
        BYTE           N21     Gn3
        BYTE   W96
// 038   ----------------------------------------
        BYTE                   Gn3
        BYTE   W24
        BYTE                   Gn3
        BYTE   W24
        BYTE                   En4
        BYTE   W24
        BYTE                   Dn4
        BYTE   W24
// 039   ----------------------------------------
        BYTE                   An3
        BYTE   W24
        BYTE                   An3
        BYTE   W24
        BYTE                   Bn3
        BYTE   W24
        BYTE                   Bn3
        BYTE   W24
// 040   ----------------------------------------
        BYTE                   Gn3
        BYTE           N21     Bn3
        BYTE   W24
        BYTE                   Bn3
        BYTE           N21     Gn3
        BYTE   W24
        BYTE                   Cn4
        BYTE           N21     En4
        BYTE   W24
        BYTE                   Cn4
        BYTE           N21     En4
        BYTE   W24
// 041   ----------------------------------------
        BYTE                   Cn4
        BYTE           N21     An3
        BYTE   W24
        BYTE                   Cn4
        BYTE           N21     An3
        BYTE   W24
        BYTE                   Cn4
        BYTE           N21     An3
        BYTE   W24
        BYTE                   Cn4
        BYTE           N21     An3
        BYTE   W24
// 042   ----------------------------------------
        BYTE                   Dn4
        BYTE   W24
        BYTE                   Dn4
        BYTE   W24
        BYTE                   Dn4
        BYTE   W24
        BYTE                   Dn4
        BYTE   W24
// 043   ----------------------------------------
        BYTE                   En4
        BYTE           N21     Cn4
        BYTE   W24
        BYTE                   Cn4
        BYTE           N21     En4
        BYTE   W24
        BYTE                   En4
        BYTE           N21     Bn3
        BYTE   W24
        BYTE                   Bn3
        BYTE           N21     Fn4
        BYTE           N21     Fn3
        BYTE   W24
// 044   ----------------------------------------
        BYTE                   En4
        BYTE           N21     Cn4
        BYTE   W24
        BYTE                   Cn4
        BYTE           N21     En4
        BYTE   W24
        BYTE                   Cn4
        BYTE           N21     An3
        BYTE   W24
        BYTE                   Cn4
        BYTE           N21     An3
        BYTE   W24
// 045   ----------------------------------------
        BYTE                   Gn3
        BYTE           N21     Bn3
        BYTE   W24
        BYTE                   Fn3
        BYTE           N21     An3
        BYTE   W24
        BYTE                   En3
        BYTE           N21     Gn3
        BYTE   W24
        BYTE                   Dn3
        BYTE           N21     Fn3
        BYTE   W24
// 046   ----------------------------------------
        BYTE   PATT
         POIN2  Records_Medley_1_18
// 047   ----------------------------------------
        BYTE   PATT
         POIN2  Records_Medley_1_18
// 048   ----------------------------------------
        BYTE   PATT
         POIN2  Records_Medley_1_18
// 049   ----------------------------------------
        BYTE   PATT
         POIN2  Records_Medley_1_18
// 050   ----------------------------------------
        BYTE   PATT
         POIN2  Records_Medley_1_18
// 051   ----------------------------------------
        BYTE   PATT
         POIN2  Records_Medley_1_18
// 052   ----------------------------------------
        BYTE           N21     Cn3   v100
        BYTE           N21     En3
        BYTE   W24
        BYTE                   Cn3
        BYTE           N21     En3
        BYTE   W24
        BYTE                   Cn3
        BYTE           N21     Ds3
        BYTE   W24
        BYTE                   Cn3
        BYTE           N21     Ds3
        BYTE   W24
// 053   ----------------------------------------
        BYTE                   As2
        BYTE           N21     Dn3
        BYTE   W24
        BYTE                   As2
        BYTE           N21     Dn3
        BYTE   W24
        BYTE                   As2
        BYTE           N21     Cs3
        BYTE   W24
        BYTE                   As2
        BYTE           N21     Cs3
        BYTE   W24
// 054   ----------------------------------------
        BYTE                   An2
        BYTE           N21     Cn3
        BYTE   W24
        BYTE                   An2
        BYTE           N21     Cn3
        BYTE   W24
        BYTE                   Bn2
        BYTE           N21     Gn2
        BYTE   W24
        BYTE                   Bn2
        BYTE           N21     Gn2
        BYTE   W24
// 055   ----------------------------------------
        BYTE                   As2
        BYTE           N21     Gn2
        BYTE   W24
        BYTE                   As2
        BYTE           N21     Gn2
        BYTE   W24
        BYTE                   Fs2
        BYTE           N21     An2
        BYTE   W24
        BYTE                   Fs2
        BYTE           N21     An2
        BYTE   W24
// 056   ----------------------------------------
        BYTE           N64     Fn3
        BYTE           N42     Dn4   v100   gtp1
        BYTE   W48
        BYTE           N21     An4
        BYTE   W24
// 057   ----------------------------------------
        BYTE           N64     An3
        BYTE           N42     En4   v100   gtp1
        BYTE   W48
        BYTE           N21     Cn4
        BYTE   W24
// 058   ----------------------------------------
        BYTE                   Dn3
        BYTE           N21     An3
        BYTE   W24
        BYTE                   En3
        BYTE           N21     En4
        BYTE   W24
        BYTE                   Fn3
        BYTE           N21     Fn4
        BYTE   W24
// 059   ----------------------------------------
        BYTE                   An3
        BYTE           N21     En4
        BYTE   W24
        BYTE                   Fn3
        BYTE           N21     Dn4
        BYTE   W24
        BYTE                   En3
        BYTE           N21     Cn4
        BYTE   W24
// 060   ----------------------------------------
        BYTE           N64     Dn3
        BYTE           N42     As3   v100   gtp1
        BYTE   W48
        BYTE           N21     An4
        BYTE   W24
// 061   ----------------------------------------
        BYTE           N64     Gn3
        BYTE           N42     Gn4   v100   gtp1
        BYTE   W48
        BYTE           N21     Fn4
        BYTE   W24
// 062   ----------------------------------------
        BYTE                   Gn3
        BYTE           N21     En4
        BYTE   W24
        BYTE                   An3
        BYTE           N21     Fn4
        BYTE   W24
        BYTE                   As3
        BYTE           N21     Gn4
        BYTE   W24
// 063   ----------------------------------------
        BYTE                   As3
        BYTE           N21     Fn4
        BYTE   W24
        BYTE                   Gn3
        BYTE           N21     En4
        BYTE   W24
        BYTE                   Fn3
        BYTE           N21     Dn4
        BYTE   W24
// 064   ----------------------------------------
        BYTE           N64     En3
        BYTE           N42     Cn4   v100   gtp1
        BYTE   W48
        BYTE           N21     Dn4
        BYTE   W24
// 065   ----------------------------------------
        BYTE           N64     Gn3
        BYTE           N42     En4   v100   gtp1
        BYTE   W48
        BYTE           N21     Fn4
        BYTE   W24
// 066   ----------------------------------------
        BYTE           N64     As3
        BYTE           N42     Gn4   v100   gtp1
        BYTE   W48
        BYTE           N21     An4
        BYTE   W24
// 067   ----------------------------------------
        BYTE           N64     Cn4
        BYTE           N42     As4   v100   gtp1
        BYTE   W48
        BYTE           N21     Cn5
        BYTE   W24
// 068   ----------------------------------------
        BYTE           TIE     An4
        BYTE           TIE     Fn4
        BYTE           TIE     Cn4
        BYTE   W07
        BYTE           VOL     36
        BYTE   W64
        BYTE   W01
// 069   ----------------------------------------
        BYTE   PATT
         POIN2  Records_Medley_0_69
// 070   ----------------------------------------
        BYTE   W02
        BYTE           VOL     16
        BYTE   W02
        BYTE                   15
        BYTE   W01
        BYTE                   14
        BYTE   W03
        BYTE                   13
        BYTE   W02
        BYTE                   12
        BYTE   W01
        BYTE                   11
        BYTE   W02
        BYTE                   10
        BYTE   W01
        BYTE           EOT     An4
        BYTE                   Cn4
        BYTE                   Fn4
        BYTE   W02
        BYTE           VOL     9
        BYTE   W01
        BYTE                   8
        BYTE   W02
        BYTE                   7
        BYTE   W03
        BYTE                   6
        BYTE   W16
        BYTE                   35
        BYTE   W02
        BYTE                   38
        BYTE   W08
        BYTE           N21     Gn4   v100
        BYTE   W24
// 071   ----------------------------------------
        BYTE           N42     Fn4   v100   gtp1
        BYTE   W48
        BYTE           N21     En4
        BYTE   W24
// 072   ----------------------------------------
Records_Medley_1_72:
        BYTE           N64     Ds3   v100
        BYTE           N42     Dn4   v100   gtp1
        BYTE   W48
        BYTE           N21     Cn4
        BYTE   W24
        BYTE   PEND
// 073   ----------------------------------------
Records_Medley_1_73:
        BYTE           N64     Gn3   v100
        BYTE           N42     Dn4   v100   gtp1
        BYTE   W48
        BYTE           N21     Ds4
        BYTE   W24
        BYTE   PEND
// 074   ----------------------------------------
Records_Medley_1_74:
        BYTE           N64     As3   v100
        BYTE           N64     Fn4
        BYTE   W48
        BYTE           N42     Gn4   v100   gtp1
        BYTE   W24
        BYTE   PEND
// 075   ----------------------------------------
        BYTE           N21     Cn4
        BYTE   W24
        BYTE           N42     As3   v100   gtp1
        BYTE           N21     Fn4
        BYTE   W24
        BYTE                   Ds4
        BYTE   W24
// 076   ----------------------------------------
        BYTE           N64     Fn3
        BYTE           N42     Dn4   v100   gtp1
        BYTE   W48
        BYTE           N21     Cn4
        BYTE   W24
// 077   ----------------------------------------
        BYTE           N64     An3
        BYTE           N42     Dn4   v100   gtp1
        BYTE   W48
        BYTE           N21     Ds4
        BYTE   W24
// 078   ----------------------------------------
        BYTE           N64     Dn4
        BYTE           N64     Fn4
        BYTE   W48
        BYTE           N42     Gn4   v100   gtp1
        BYTE   W24
// 079   ----------------------------------------
        BYTE   W24
        BYTE                   Cn4
        BYTE           N21     Fn4
        BYTE   W24
        BYTE                   Ds4
        BYTE   W24
// 080   ----------------------------------------
        BYTE   PATT
         POIN2  Records_Medley_1_72
// 081   ----------------------------------------
        BYTE   PATT
         POIN2  Records_Medley_1_73
// 082   ----------------------------------------
        BYTE   PATT
         POIN2  Records_Medley_1_74
// 083   ----------------------------------------
        BYTE   W24
        BYTE           N64     As3   v100
        BYTE           N21     Fn4
        BYTE   W24
        BYTE                   Ds4
        BYTE   W24
// 084   ----------------------------------------
        BYTE           TIE     Bn3
        BYTE           TIE     Dn4
        BYTE   W72
// 085   ----------------------------------------
        BYTE   W64
        BYTE           EOT     Bn3
        BYTE                   Dn4
        BYTE   W08
// 086   ----------------------------------------
        BYTE           N64     Dn3
        BYTE           N42     Bn3   v100   gtp1
        BYTE   W48
        BYTE           N21     Gn3
        BYTE   W24
// 087   ----------------------------------------
        BYTE           N64     Bn3
        BYTE   W72
// 088   ----------------------------------------
Records_Medley_1_88:
        BYTE           N42     Fs3   v100   gtp1
        BYTE                   An3
        BYTE   W48
        BYTE           N21     Gn3
        BYTE           N21     Bn3
        BYTE   W24
        BYTE                   An3
        BYTE           N21     Cn4
        BYTE   W24
        BYTE   PEND
// 089   ----------------------------------------
Records_Medley_1_89:
        BYTE           N32     An3   v100
        BYTE           N32     Cn4
        BYTE   W36
        BYTE           N10     Gn3
        BYTE           N10     Bn3
        BYTE   W12
        BYTE           N42     Gn3   v100   gtp1
        BYTE                   Bn3
        BYTE   W48
        BYTE   PEND
// 090   ----------------------------------------
Records_Medley_1_90:
        BYTE           N42     Gn3   v100   gtp1
        BYTE                   Bn3
        BYTE   W48
        BYTE           N21     An3
        BYTE           N21     Cs4
        BYTE   W24
        BYTE                   Bn3
        BYTE           N21     Dn4
        BYTE   W24
        BYTE   PEND
// 091   ----------------------------------------
Records_Medley_1_91:
        BYTE           N32     Bn3   v100
        BYTE           N32     Dn4
        BYTE   W36
        BYTE           N10     Cs4
        BYTE           N10     An3
        BYTE   W12
        BYTE           N42     Cs4   v100   gtp1
        BYTE                   An3
        BYTE   W48
        BYTE   PEND
// 092   ----------------------------------------
Records_Medley_1_92:
        BYTE           N42     An3   v100   gtp1
        BYTE                   Cs4
        BYTE   W48
        BYTE           N21     Bn3
        BYTE           N21     Dn4
        BYTE   W24
        BYTE                   Cs4
        BYTE           N21     En4
        BYTE   W24
        BYTE   PEND
// 093   ----------------------------------------
Records_Medley_1_93:
        BYTE           N32     Cs4   v100
        BYTE           N32     En4
        BYTE   W36
        BYTE           N10     Dn4
        BYTE           N10     Fs4
        BYTE   W12
        BYTE           N42     Fs3   v100   gtp1
        BYTE                   Bn3
        BYTE           N42     Dn4   v100   gtp1
        BYTE   W48
        BYTE   PEND
// 094   ----------------------------------------
        BYTE   W96
// 095   ----------------------------------------
        BYTE   W96
// 096   ----------------------------------------
        BYTE                   An2   v127
        BYTE           N42     Fs3   v127   gtp1
        BYTE           VOL     41
        BYTE   W48
        BYTE           N42     Cs3   v127   gtp1
        BYTE                   An3
        BYTE   W48
// 097   ----------------------------------------
Records_Medley_1_97:
        BYTE           N42     Fs3   v127   gtp1
        BYTE                   Dn4
        BYTE   W48
        BYTE           N21     Fs3
        BYTE           N21     Cs4
        BYTE   W24
        BYTE                   Fs3
        BYTE           N21     Dn4
        BYTE   W24
        BYTE   PEND
// 098   ----------------------------------------
Records_Medley_1_98:
        BYTE           N42     Gn3   v127   gtp1
        BYTE                   Bn3
        BYTE   W48
        BYTE                   Dn3
        BYTE           N42     An3   v127   gtp1
        BYTE   W48
        BYTE   PEND
// 099   ----------------------------------------
Records_Medley_1_99:
        BYTE           N21     En3   v127
        BYTE           N21     Gn3
        BYTE   W24
        BYTE                   An2
        BYTE           N21     Fs3
        BYTE   W24
        BYTE                   An2
        BYTE           N21     En3
        BYTE   W24
        BYTE                   Cs3
        BYTE           N21     An3
        BYTE   W24
        BYTE   PEND
// 100   ----------------------------------------
Records_Medley_1_100:
        BYTE           N42     An2   v127   gtp1
        BYTE                   Fs3
        BYTE   W48
        BYTE                   En3
        BYTE           N42     An3   v127   gtp1
        BYTE   W48
        BYTE   PEND
// 101   ----------------------------------------
Records_Medley_1_101:
        BYTE           N42     Dn3   v127   gtp1
        BYTE                   Gn3
        BYTE   W48
        BYTE           N21     As2
        BYTE           N21     Fs3
        BYTE   W24
        BYTE                   As2
        BYTE           N21     En3
        BYTE   W24
        BYTE   PEND
// 102   ----------------------------------------
Records_Medley_1_102:
        BYTE           N42     Fs3   v127   gtp1
        BYTE                   Cn3
        BYTE           N42     An2   v127   gtp1
        BYTE   W48
        BYTE           N16     Cn3
        BYTE           N16     En3
        BYTE   W18
        BYTE                   Cn3
        BYTE           N16     Fs3
        BYTE   W18
        BYTE           N10     Cn3
        BYTE           N10     En3
        BYTE   W12
        BYTE   PEND
// 103   ----------------------------------------
Records_Medley_1_103:
        BYTE           N42     Bn2   v127   gtp1
        BYTE                   En3
        BYTE   W48
        BYTE                   Bn2
        BYTE           N42     Ds3   v127   gtp1
        BYTE   W48
        BYTE   PEND
// 104   ----------------------------------------
        BYTE   PATT
         POIN2  Records_Medley_0_112
// 105   ----------------------------------------
        BYTE           N42     En3   v100   gtp1
        BYTE                   Bn3
        BYTE   W48
        BYTE           N21     En3
        BYTE           N21     An3
        BYTE   W24
        BYTE                   Gn3
        BYTE           N21     En3
        BYTE   W24
// 106   ----------------------------------------
        BYTE   PATT
         POIN2  Records_Medley_0_114
// 107   ----------------------------------------
        BYTE   PATT
         POIN2  Records_Medley_0_115
// 108   ----------------------------------------
        BYTE   PATT
         POIN2  Records_Medley_0_116
// 109   ----------------------------------------
        BYTE   PATT
         POIN2  Records_Medley_0_117
// 110   ----------------------------------------
        BYTE   PATT
         POIN2  Records_Medley_0_118
// 111   ----------------------------------------
        BYTE   PATT
         POIN2  Records_Medley_0_119
// 112   ----------------------------------------
        BYTE   W96
// 113   ----------------------------------------
        BYTE   W96
// 114   ----------------------------------------
        BYTE   W96
// 115   ----------------------------------------
        BYTE   W96
// 116   ----------------------------------------
        BYTE   W96
// 117   ----------------------------------------
        BYTE   W96
// 118   ----------------------------------------
        BYTE   W96
// 119   ----------------------------------------
        BYTE   W96
// 120   ----------------------------------------
        BYTE   PATT
         POIN2  Records_Medley_1_88
// 121   ----------------------------------------
        BYTE   PATT
         POIN2  Records_Medley_1_89
// 122   ----------------------------------------
        BYTE   PATT
         POIN2  Records_Medley_1_90
// 123   ----------------------------------------
        BYTE   PATT
         POIN2  Records_Medley_1_91
// 124   ----------------------------------------
        BYTE   PATT
         POIN2  Records_Medley_1_92
// 125   ----------------------------------------
        BYTE   PATT
         POIN2  Records_Medley_1_93
// 126   ----------------------------------------
        BYTE   W96
// 127   ----------------------------------------
        BYTE   W96
// 128   ----------------------------------------
        BYTE           N42     An2   v127   gtp1
        BYTE                   Fs3
        BYTE   W48
        BYTE                   Cs3
        BYTE           N42     An3   v127   gtp1
        BYTE   W48
// 129   ----------------------------------------
        BYTE   PATT
         POIN2  Records_Medley_1_97
// 130   ----------------------------------------
        BYTE   PATT
         POIN2  Records_Medley_1_98
// 131   ----------------------------------------
        BYTE   PATT
         POIN2  Records_Medley_1_99
// 132   ----------------------------------------
        BYTE   PATT
         POIN2  Records_Medley_1_100
// 133   ----------------------------------------
        BYTE   PATT
         POIN2  Records_Medley_1_101
// 134   ----------------------------------------
        BYTE   PATT
         POIN2  Records_Medley_1_102
// 135   ----------------------------------------
        BYTE   PATT
         POIN2  Records_Medley_1_103
// 136   ----------------------------------------
        BYTE           N14     En2   v100
        BYTE   W08
        BYTE                   Gn2
        BYTE   W08
        BYTE                   Bn2
        BYTE   W08
        BYTE                   En3
        BYTE   W08
        BYTE                   Gn3
        BYTE   W08
        BYTE                   Bn3
        BYTE   W08
        BYTE                   En4
        BYTE   W08
        BYTE                   Gn4
        BYTE   W08
        BYTE                   Bn4
        BYTE   W08
        BYTE                   En5
        BYTE   W08
        BYTE                   Gn5
        BYTE   W08
        BYTE                   Bn5
        BYTE   W08
// 137   ----------------------------------------
        BYTE                   Gn5
        BYTE   W08
        BYTE                   En5
        BYTE   W08
        BYTE                   Bn4
        BYTE   W08
        BYTE                   Gn4
        BYTE   W08
        BYTE                   En4
        BYTE   W08
        BYTE                   Bn3
        BYTE   W08
        BYTE                   Gn3
        BYTE   W08
        BYTE                   En3
        BYTE   W08
        BYTE                   Bn2
        BYTE   W08
        BYTE                   Gn2
        BYTE   W08
        BYTE                   En2
        BYTE   W08
        BYTE                   Bn1
        BYTE   W08
// 138   ----------------------------------------
        BYTE                   Dn2
        BYTE   W08
        BYTE                   Fs2
        BYTE   W08
        BYTE                   An2
        BYTE   W08
        BYTE                   Dn3
        BYTE   W08
        BYTE                   Fs3
        BYTE   W08
        BYTE                   An3
        BYTE   W08
        BYTE                   Dn4
        BYTE   W08
        BYTE                   Fs4
        BYTE   W08
        BYTE                   An4
        BYTE   W08
        BYTE                   Dn5
        BYTE   W08
        BYTE                   Fs5
        BYTE   W08
        BYTE                   An5
        BYTE   W08
// 139   ----------------------------------------
        BYTE                   Fs5
        BYTE   W08
        BYTE                   Dn5
        BYTE   W08
        BYTE                   An4
        BYTE   W08
        BYTE                   Fs4
        BYTE   W08
        BYTE                   Dn4
        BYTE   W08
        BYTE                   An3
        BYTE   W08
        BYTE                   Fs3
        BYTE   W08
        BYTE                   Dn3
        BYTE   W08
        BYTE                   An2
        BYTE   W08
        BYTE                   Fs2
        BYTE   W08
        BYTE                   Dn2
        BYTE   W08
        BYTE                   An1
        BYTE   W08
// 140   ----------------------------------------
        BYTE                   Cn2
        BYTE   W08
        BYTE                   En2
        BYTE   W08
        BYTE                   Gn2
        BYTE   W08
        BYTE                   Cn3
        BYTE   W08
        BYTE                   En3
        BYTE   W08
        BYTE                   Gn3
        BYTE   W08
        BYTE                   Cn4
        BYTE   W08
        BYTE                   En4
        BYTE   W08
        BYTE                   Gn4
        BYTE   W08
        BYTE                   Cn5
        BYTE   W08
        BYTE                   En5
        BYTE   W08
        BYTE                   Gn5
        BYTE   W08
// 141   ----------------------------------------
        BYTE                   En5
        BYTE   W08
        BYTE                   Cn5
        BYTE   W08
        BYTE                   Gn4
        BYTE   W08
        BYTE                   En4
        BYTE   W08
        BYTE                   Cn4
        BYTE   W08
        BYTE                   Gn3
        BYTE   W08
        BYTE                   En3
        BYTE   W08
        BYTE                   Cn3
        BYTE   W08
        BYTE                   Gn2
        BYTE   W08
        BYTE                   En2
        BYTE   W08
        BYTE                   Cn2
        BYTE   W08
        BYTE                   Gn1
        BYTE   W08
// 142   ----------------------------------------
        BYTE                   Bn1
        BYTE   W08
        BYTE                   Ds2
        BYTE   W08
        BYTE                   Fs2
        BYTE   W08
        BYTE                   Bn2
        BYTE   W08
        BYTE                   Ds3
        BYTE   W08
        BYTE                   Fs3
        BYTE   W08
        BYTE                   Bn3
        BYTE   W08
        BYTE                   Ds4
        BYTE   W08
        BYTE                   Fs4
        BYTE   W08
        BYTE                   Bn4
        BYTE   W08
        BYTE                   Ds5
        BYTE   W08
        BYTE                   Fs5
        BYTE   W08
// 143   ----------------------------------------
        BYTE                   Bn5
        BYTE   W08
        BYTE                   Fs5
        BYTE   W08
        BYTE                   Ds5
        BYTE   W08
        BYTE                   Bn4
        BYTE   W08
        BYTE                   Fs4
        BYTE   W08
        BYTE                   Ds4
        BYTE   W08
        BYTE                   Bn3
        BYTE   W08
        BYTE                   Fs3
        BYTE   W08
        BYTE                   Ds3
        BYTE   W08
        BYTE                   Bn2
        BYTE   W08
        BYTE                   Fs2
        BYTE   W08
        BYTE                   Ds2
        BYTE   W08
// 144   ----------------------------------------
        BYTE           N07     En3   v120
        BYTE   W08
        BYTE                   Gn3   v114
        BYTE   W08
        BYTE                   En3
        BYTE   W08
        BYTE                   Gn3
        BYTE   W08
        BYTE                   En3
        BYTE   W08
        BYTE                   Cn3
        BYTE   W08
        BYTE                   En3
        BYTE   W08
        BYTE                   Gn3
        BYTE   W08
        BYTE                   En3
        BYTE   W08
        BYTE                   Gn3
        BYTE   W08
        BYTE                   En3
        BYTE   W08
        BYTE                   Cn3
        BYTE   W08
// 145   ----------------------------------------
Records_Medley_1_145:
        BYTE           N07     En3   v114
        BYTE   W08
        BYTE                   Gn3
        BYTE   W08
        BYTE                   En3
        BYTE   W08
        BYTE                   Gn3
        BYTE   W08
        BYTE                   En3
        BYTE   W08
        BYTE                   Cn3
        BYTE   W08
        BYTE                   En3
        BYTE   W08
        BYTE                   Gn3
        BYTE   W08
        BYTE                   En3
        BYTE   W08
        BYTE                   Gn3
        BYTE   W08
        BYTE                   En3
        BYTE   W08
        BYTE                   Cn3
        BYTE   W08
        BYTE   PEND
// 146   ----------------------------------------
        BYTE   PATT
         POIN2  Records_Medley_1_145
// 147   ----------------------------------------
        BYTE   PATT
         POIN2  Records_Medley_1_145
// 148   ----------------------------------------
Records_Medley_1_148:
        BYTE           N07     En3   v114
        BYTE   W08
        BYTE                   Gn3
        BYTE   W08
        BYTE                   En3
        BYTE   W08
        BYTE                   Fs3
        BYTE   W08
        BYTE                   Dn3
        BYTE   W08
        BYTE                   An2
        BYTE   W08
        BYTE                   En3
        BYTE   W08
        BYTE                   Gn3
        BYTE   W08
        BYTE                   En3
        BYTE   W08
        BYTE                   Fs3
        BYTE   W08
        BYTE                   Dn3
        BYTE   W08
        BYTE                   An2
        BYTE   W08
        BYTE   PEND
// 149   ----------------------------------------
        BYTE   PATT
         POIN2  Records_Medley_1_148
// 150   ----------------------------------------
        BYTE   PATT
         POIN2  Records_Medley_1_148
// 151   ----------------------------------------
        BYTE           N07     En3   v114
        BYTE   W08
        BYTE                   Gn3
        BYTE   W08
        BYTE                   En3
        BYTE   W08
        BYTE                   Fs3
        BYTE   W08
        BYTE                   Dn3
        BYTE   W08
        BYTE                   An2
        BYTE   W08
        BYTE           N42     Fs2   v114   gtp1
        BYTE   W08
        BYTE                   An2
        BYTE   W08
        BYTE           N32     Dn3
        BYTE   W08
        BYTE                   Fs3
        BYTE   W08
        BYTE           N21     An3
        BYTE   W08
        BYTE           N14     Dn4
        BYTE   W08
// 152   ----------------------------------------
Records_Medley_1_152:
        BYTE           N07     Bn3   v114
        BYTE   W08
        BYTE                   Gn3
        BYTE   W08
        BYTE                   Bn3
        BYTE   W08
        BYTE                   En4
        BYTE   W08
        BYTE                   Bn3
        BYTE   W08
        BYTE                   En4
        BYTE   W08
        BYTE                   Bn3
        BYTE   W08
        BYTE                   Gn3
        BYTE   W08
        BYTE                   Bn3
        BYTE   W08
        BYTE                   Gn3
        BYTE   W08
        BYTE                   En3
        BYTE   W08
        BYTE                   Gn3
        BYTE   W08
        BYTE   PEND
// 153   ----------------------------------------
Records_Medley_1_153:
        BYTE           N07     An3   v114
        BYTE   W08
        BYTE                   Fs3
        BYTE   W08
        BYTE                   An3
        BYTE   W08
        BYTE                   Fs3
        BYTE   W08
        BYTE                   Dn3
        BYTE   W08
        BYTE                   An2
        BYTE   W08
        BYTE                   An3
        BYTE   W08
        BYTE                   Fs3
        BYTE   W08
        BYTE                   An3
        BYTE   W08
        BYTE                   Fs3
        BYTE   W08
        BYTE                   Dn3
        BYTE   W08
        BYTE                   An2
        BYTE   W08
        BYTE   PEND
// 154   ----------------------------------------
Records_Medley_1_154:
        BYTE           N07     Bn3   v114
        BYTE   W08
        BYTE                   Gn3
        BYTE   W08
        BYTE                   Bn3
        BYTE   W08
        BYTE                   Gn3
        BYTE   W08
        BYTE                   En3
        BYTE   W08
        BYTE                   Bn2
        BYTE   W08
        BYTE                   Bn3
        BYTE   W08
        BYTE                   Gn3
        BYTE   W08
        BYTE                   Bn3
        BYTE   W08
        BYTE                   Gn3
        BYTE   W08
        BYTE                   En3
        BYTE   W08
        BYTE                   Bn2
        BYTE   W08
        BYTE   PEND
// 155   ----------------------------------------
Records_Medley_1_155:
        BYTE           N07     An3   v114
        BYTE   W08
        BYTE                   Fs3
        BYTE   W08
        BYTE                   An3
        BYTE   W08
        BYTE                   Fs3
        BYTE   W08
        BYTE                   Dn3
        BYTE   W08
        BYTE                   An2
        BYTE   W08
        BYTE           N42     Fs2   v114   gtp1
        BYTE   W08
        BYTE           N21     An2
        BYTE   W08
        BYTE                   Dn3
        BYTE   W08
        BYTE           N14     Fs3
        BYTE   W08
        BYTE                   An3
        BYTE   W08
        BYTE                   Dn4
        BYTE   W08
        BYTE   PEND
// 156   ----------------------------------------
        BYTE   PATT
         POIN2  Records_Medley_1_152
// 157   ----------------------------------------
        BYTE   PATT
         POIN2  Records_Medley_1_153
// 158   ----------------------------------------
        BYTE   PATT
         POIN2  Records_Medley_1_154
// 159   ----------------------------------------
        BYTE   PATT
         POIN2  Records_Medley_1_155
// 160   ----------------------------------------
Records_Medley_1_160:
        BYTE           N07     Bn3   v114
        BYTE   W08
        BYTE                   Gn3
        BYTE   W08
        BYTE                   Bn3
        BYTE   W08
        BYTE                   Cn4
        BYTE   W08
        BYTE                   Gn3
        BYTE   W08
        BYTE                   Cn4
        BYTE   W08
        BYTE                   Bn3
        BYTE   W08
        BYTE                   Gn3
        BYTE   W08
        BYTE                   Bn3
        BYTE   W08
        BYTE                   An3
        BYTE   W08
        BYTE                   Fs3
        BYTE   W08
        BYTE                   An3
        BYTE   W08
        BYTE   PEND
// 161   ----------------------------------------
        BYTE   PATT
         POIN2  Records_Medley_1_154
// 162   ----------------------------------------
        BYTE   PATT
         POIN2  Records_Medley_1_153
// 163   ----------------------------------------
        BYTE           N07     Bn3   v114
        BYTE   W08
        BYTE                   Gn3
        BYTE   W08
        BYTE                   Bn3
        BYTE   W08
        BYTE                   Gn3
        BYTE   W08
        BYTE                   En3
        BYTE   W08
        BYTE                   Bn2
        BYTE   W08
        BYTE           N42     Gn2   v114   gtp1
        BYTE   W08
        BYTE           N32     Bn2
        BYTE   W08
        BYTE           N21     En3
        BYTE   W08
        BYTE                   Gn3
        BYTE   W08
        BYTE           N14     Bn3
        BYTE   W08
        BYTE                   En4
        BYTE   W08
// 164   ----------------------------------------
        BYTE   PATT
         POIN2  Records_Medley_1_160
// 165   ----------------------------------------
        BYTE   PATT
         POIN2  Records_Medley_1_154
// 166   ----------------------------------------
        BYTE   PATT
         POIN2  Records_Medley_1_153
// 167   ----------------------------------------
        BYTE           N07     An3   v114
        BYTE   W08
        BYTE                   Fs3
        BYTE   W08
        BYTE                   An3
        BYTE   W08
        BYTE                   Fs3
        BYTE   W08
        BYTE                   Dn3
        BYTE   W08
        BYTE                   An2
        BYTE   W08
        BYTE           N42     Fs2   v114   gtp1
        BYTE   W08
        BYTE           N32     An2
        BYTE   W08
        BYTE           N21     Dn3
        BYTE   W08
        BYTE                   Fs3
        BYTE   W08
        BYTE           N14     An3
        BYTE   W08
        BYTE                   Cn4
        BYTE   W08
// 168   ----------------------------------------
Records_Medley_1_168:
        BYTE           N07     Bn3   v114
        BYTE   W08
        BYTE                   Gn3
        BYTE   W08
        BYTE                   Bn3
        BYTE   W08
        BYTE                   Gn3
        BYTE   W08
        BYTE                   An3
        BYTE   W08
        BYTE                   Bn3
        BYTE   W08
        BYTE                   Bn3
        BYTE   W08
        BYTE                   Gn3
        BYTE   W08
        BYTE                   Bn3
        BYTE   W08
        BYTE                   Gn3
        BYTE   W08
        BYTE                   En3
        BYTE   W08
        BYTE                   Bn2
        BYTE   W08
        BYTE   PEND
// 169   ----------------------------------------
Records_Medley_1_169:
        BYTE           N07     An3   v114
        BYTE   W08
        BYTE                   Fs3
        BYTE   W08
        BYTE                   An3
        BYTE   W08
        BYTE                   Fs3
        BYTE   W08
        BYTE                   Gn3
        BYTE   W08
        BYTE                   An3
        BYTE   W08
        BYTE                   An3
        BYTE   W08
        BYTE                   Fs3
        BYTE   W08
        BYTE                   An3
        BYTE   W08
        BYTE                   Fs3
        BYTE   W08
        BYTE                   Dn3
        BYTE   W08
        BYTE                   An2
        BYTE   W08
        BYTE   PEND
// 170   ----------------------------------------
        BYTE   PATT
         POIN2  Records_Medley_1_168
// 171   ----------------------------------------
        BYTE   PATT
         POIN2  Records_Medley_1_169
// 172   ----------------------------------------
        BYTE   PATT
         POIN2  Records_Medley_1_168
// 173   ----------------------------------------
        BYTE           N07     An3   v114
        BYTE   W08
        BYTE                   Fs3
        BYTE   W08
        BYTE                   An3
        BYTE   W08
        BYTE                   Fs3
        BYTE   W08
        BYTE                   Gn3
        BYTE   W08
        BYTE                   An3
        BYTE   W08
        BYTE                   An3
        BYTE   W08
        BYTE                   Fs3
        BYTE   W08
        BYTE                   An3
        BYTE   W08
        BYTE                   Fs3   v115
        BYTE   W08
        BYTE                   Dn3
        BYTE   W08
        BYTE                   An2
        BYTE   W08
// 174   ----------------------------------------
        BYTE                   Bn3
        BYTE   W08
        BYTE                   Gn3
        BYTE   W08
        BYTE                   En3
        BYTE   W08
        BYTE                   Bn3
        BYTE   W08
        BYTE                   Gn3
        BYTE   W08
        BYTE                   En3
        BYTE   W08
        BYTE                   An3
        BYTE   W08
        BYTE                   Fs3
        BYTE   W08
        BYTE                   Dn3
        BYTE   W08
        BYTE                   An3
        BYTE   W08
        BYTE                   Fs3
        BYTE   W08
        BYTE                   Dn3
        BYTE   W08
// 175   ----------------------------------------
        BYTE                   Gn3
        BYTE   W08
        BYTE                   En3
        BYTE   W08
        BYTE                   Cn3
        BYTE   W08
        BYTE                   Gn3
        BYTE   W08
        BYTE                   En3
        BYTE   W08
        BYTE                   Cn3
        BYTE   W08
        BYTE           N42     Fs1   v115   gtp1
        BYTE   W08
        BYTE                   An1
        BYTE   W08
        BYTE           N32     Dn2
        BYTE   W08
        BYTE           N21     Fs2
        BYTE   W08
        BYTE           N14     An2
        BYTE   W08
        BYTE                   Dn3
        BYTE   W08
// 176   ----------------------------------------
        BYTE           N84     Bn2   v115   gtp2
        BYTE           TIE     En4
        BYTE   W96
// 177   ----------------------------------------
        BYTE           N96     An2   v100
        BYTE   W42
        BYTE   W01
        BYTE           EOT     En4
        BYTE   W05
        BYTE           N14
        BYTE   W16
        BYTE                   Dn4
        BYTE   W16
        BYTE                   An3
        BYTE   W16
// 178   ----------------------------------------
        BYTE                   Gn2
        BYTE           N92     Bn3   v100   gtp2
        BYTE   W16
        BYTE           N14     Fs2
        BYTE   W16
        BYTE                   Gn2
        BYTE   W16
        BYTE                   An2
        BYTE   W16
        BYTE                   Bn2
        BYTE   W16
        BYTE           N15     Dn3
        BYTE   W16
// 179   ----------------------------------------
        BYTE           N14     Fs3
        BYTE           N14     Bn3
        BYTE   W16
        BYTE                   Dn3
        BYTE           N14     An3
        BYTE   W16
        BYTE                   An2
        BYTE           N14     Gn3
        BYTE   W16
        BYTE                   Dn3
        BYTE           N14     An3
        BYTE   W16
        BYTE                   An2
        BYTE           N14     Fs3
        BYTE   W16
        BYTE                   Fs2
        BYTE           N14     Dn3
        BYTE   W16
// 180   ----------------------------------------
        BYTE           TIE     En3
        BYTE           TIE     Bn2
        BYTE   W96
// 181   ----------------------------------------
        BYTE           N92     Fs3   v100   gtp3
        BYTE   W96
// 182   ----------------------------------------
        BYTE                   Gn3
        BYTE   W96
// 183   ----------------------------------------
        BYTE           N14     En4
        BYTE   W16
        BYTE                   Dn4
        BYTE   W16
        BYTE                   An3
        BYTE   W16
        BYTE                   Bn3
        BYTE   W16
        BYTE                   An3
        BYTE   W16
        BYTE                   Dn3
        BYTE   W15
        BYTE           EOT     En3
        BYTE   W01
// 184   ----------------------------------------
        BYTE           TIE
        BYTE   W96
// 185   ----------------------------------------
        BYTE   W92
        BYTE   W03
        BYTE           EOT     Bn2
        BYTE                   En3
        BYTE   W01
// 186   ----------------------------------------
        BYTE   W96
// 187   ----------------------------------------
        BYTE   W96
// 188   ----------------------------------------
        BYTE   W96
// 189   ----------------------------------------
        BYTE   W96
// 190   ----------------------------------------
        BYTE   W96
// 191   ----------------------------------------
        BYTE   W96
// 192   ----------------------------------------
        BYTE   W96
// 193   ----------------------------------------
        BYTE   W96
// 194   ----------------------------------------
        BYTE   W96
// 195   ----------------------------------------
        BYTE   W96
// 196   ----------------------------------------
        BYTE   W96
// 197   ----------------------------------------
        BYTE   W96
// 198   ----------------------------------------
        BYTE   W96
// 199   ----------------------------------------
        BYTE           N14     Fs3
        BYTE   W16
        BYTE                   Gn3
        BYTE   W16
        BYTE                   An3
        BYTE   W16
        BYTE                   Bn3
        BYTE   W16
        BYTE                   Cn4
        BYTE   W16
        BYTE                   Dn4
        BYTE   W16
// 200   ----------------------------------------
        BYTE           N84     En4   v100   gtp2
        BYTE   W96
// 201   ----------------------------------------
        BYTE                   Dn4
        BYTE   W96
// 202   ----------------------------------------
        BYTE                   Dn4
        BYTE   W96
// 203   ----------------------------------------
        BYTE                   Dn4
        BYTE   W96
// 204   ----------------------------------------
        BYTE                   En4
        BYTE   W96
// 205   ----------------------------------------
        BYTE                   Fs4
        BYTE   W96
// 206   ----------------------------------------
        BYTE                   Gn4
        BYTE   W96
// 207   ----------------------------------------
        BYTE           N42     An4   v100   gtp1
        BYTE   W48
        BYTE           N14     Bn4
        BYTE   W16
        BYTE                   An4
        BYTE   W16
        BYTE                   Bn4
        BYTE   W16
// 208   ----------------------------------------
        BYTE           TIE     En5
        BYTE   W96
// 209   ----------------------------------------
        BYTE   W42
        BYTE   W01
        BYTE           EOT
        BYTE   W05
        BYTE           N14
        BYTE   W16
        BYTE                   Dn5
        BYTE   W16
        BYTE                   An4
        BYTE   W16
// 210   ----------------------------------------
        BYTE                   Gn3
        BYTE           N92     Bn4   v100   gtp2
        BYTE   W16
        BYTE           N14     Fs3
        BYTE   W16
        BYTE                   Gn3
        BYTE   W16
        BYTE                   An3
        BYTE   W16
        BYTE                   Bn3
        BYTE   W16
        BYTE           N15     Dn4
        BYTE   W16
// 211   ----------------------------------------
        BYTE           N14     Fs4
        BYTE           N14     Bn4
        BYTE   W16
        BYTE                   Dn4
        BYTE           N14     An4
        BYTE   W16
        BYTE                   An3
        BYTE           N14     Gn4
        BYTE   W16
        BYTE                   Dn4
        BYTE           N14     An4
        BYTE   W16
        BYTE                   An3
        BYTE           N14     Fs4
        BYTE   W16
        BYTE                   Fs3
        BYTE           N14     Dn4
        BYTE   W16
// 212   ----------------------------------------
        BYTE           TIE     En4
        BYTE           TIE     Bn3
        BYTE   W96
// 213   ----------------------------------------
        BYTE           N92     Fs4   v100   gtp3
        BYTE   W96
// 214   ----------------------------------------
        BYTE                   Gn4
        BYTE   W96
// 215   ----------------------------------------
        BYTE   W92
        BYTE   W03
        BYTE           EOT     En4
        BYTE   W01
// 216   ----------------------------------------
        BYTE                   Bn3
        BYTE           TIE     En4
        BYTE           TIE     Gn3
        BYTE           TIE     Cn4
        BYTE   W96
// 217   ----------------------------------------
        BYTE   W96
// 218   ----------------------------------------
        BYTE                   Dn4
        BYTE           TIE     An3
        BYTE           TIE     Fs4
        BYTE   W01
        BYTE           EOT     En4
        BYTE                   Gn3
        BYTE                   Cn4
        BYTE   W92
        BYTE   W03
// 219   ----------------------------------------
        BYTE   W96
// 220   ----------------------------------------
        BYTE                   An3
        BYTE                   Fs4
        BYTE                   Dn4
        BYTE           TIE     As3
        BYTE           TIE     Gn4
        BYTE           TIE     Ds4
        BYTE   W96
// 221   ----------------------------------------
        BYTE   W96
// 222   ----------------------------------------
        BYTE           N96     Fs4
        BYTE           N96     An3
        BYTE           N96     Dn4
        BYTE   W01
        BYTE           EOT     Gn4
        BYTE                   Ds4
        BYTE                   As3
        BYTE   W92
        BYTE   W03
// 223   ----------------------------------------
        BYTE   W48
        BYTE   FINE

//****************** Track 2 (Midi-Chn.2) ******************//

Records_Medley_2:
        BYTE   KEYSH   Records_Medley_key+0
// 000   ----------------------------------------
        BYTE           VOICE   61
        BYTE           VOL     37
        BYTE   W96
// 001   ----------------------------------------
        BYTE   W96
// 002   ----------------------------------------
        BYTE   W96
// 003   ----------------------------------------
        BYTE   W96
// 004   ----------------------------------------
        BYTE   W96
// 005   ----------------------------------------
        BYTE   W96
// 006   ----------------------------------------
        BYTE   W96
// 007   ----------------------------------------
        BYTE   W96
// 008   ----------------------------------------
        BYTE   W96
// 009   ----------------------------------------
        BYTE   W96
// 010   ----------------------------------------
        BYTE   W96
// 011   ----------------------------------------
        BYTE   W96
// 012   ----------------------------------------
        BYTE   W96
// 013   ----------------------------------------
        BYTE   W96
// 014   ----------------------------------------
        BYTE   W96
// 015   ----------------------------------------
        BYTE   W96
// 016   ----------------------------------------
        BYTE           N42     Gn3   v100   gtp1
        BYTE                   Cn4
        BYTE   W48
        BYTE                   Gn3
        BYTE           N42     Bn3   v100   gtp1
        BYTE   W48
// 017   ----------------------------------------
        BYTE           N32     Cn4
        BYTE           N32     Gn3
        BYTE   W36
        BYTE           N05     Dn3
        BYTE           N05     Dn4
        BYTE   W06
        BYTE                   Dn3
        BYTE           N05     Cn4
        BYTE   W06
        BYTE           N10     Dn3
        BYTE           N10     Bn3
        BYTE   W24
        BYTE           N21     Dn3
        BYTE           N21     Gn3
        BYTE   W24
// 018   ----------------------------------------
        BYTE   W92
        BYTE   W01
        BYTE           VOL     32
        BYTE   W03
// 019   ----------------------------------------
Records_Medley_2_19:
        BYTE   W24
        BYTE           N03     Gn3   v109
        BYTE   W08
        BYTE                   Gn3
        BYTE   W08
        BYTE                   Gn3
        BYTE   W08
        BYTE                   Gn4
        BYTE   W08
        BYTE                   Gn3
        BYTE   W08
        BYTE                   Gn3
        BYTE   W08
        BYTE                   Gn3
        BYTE   W08
        BYTE                   Gn3
        BYTE   W08
        BYTE           N04
        BYTE   W08
        BYTE   PEND
// 020   ----------------------------------------
        BYTE   W96
// 021   ----------------------------------------
        BYTE   W96
// 022   ----------------------------------------
        BYTE   W96
// 023   ----------------------------------------
        BYTE   PATT
         POIN2  Records_Medley_2_19
// 024   ----------------------------------------
        BYTE   W48
        BYTE           VOL     31
        BYTE   W48
// 025   ----------------------------------------
        BYTE   W96
// 026   ----------------------------------------
        BYTE   W96
// 027   ----------------------------------------
        BYTE   W96
// 028   ----------------------------------------
        BYTE   W96
// 029   ----------------------------------------
        BYTE   W96
// 030   ----------------------------------------
        BYTE   W96
// 031   ----------------------------------------
        BYTE   PATT
         POIN2  Records_Medley_2_19
// 032   ----------------------------------------
        BYTE   W12
        BYTE           VOL     33
        BYTE   W84
// 033   ----------------------------------------
        BYTE   W96
// 034   ----------------------------------------
        BYTE   W96
// 035   ----------------------------------------
        BYTE   PATT
         POIN2  Records_Medley_2_19
// 036   ----------------------------------------
        BYTE   W96
// 037   ----------------------------------------
        BYTE   W96
// 038   ----------------------------------------
        BYTE   W96
// 039   ----------------------------------------
        BYTE   W96
// 040   ----------------------------------------
        BYTE   W96
// 041   ----------------------------------------
        BYTE   W96
// 042   ----------------------------------------
        BYTE   W96
// 043   ----------------------------------------
        BYTE   W96
// 044   ----------------------------------------
        BYTE   W96
// 045   ----------------------------------------
        BYTE   W96
// 046   ----------------------------------------
        BYTE   W96
// 047   ----------------------------------------
        BYTE   PATT
         POIN2  Records_Medley_2_19
// 048   ----------------------------------------
        BYTE   W12
        BYTE           VOL     32
        BYTE   W84
// 049   ----------------------------------------
        BYTE   W96
// 050   ----------------------------------------
        BYTE   W96
// 051   ----------------------------------------
        BYTE   PATT
         POIN2  Records_Medley_2_19
// 052   ----------------------------------------
        BYTE   W96
// 053   ----------------------------------------
        BYTE   W96
// 054   ----------------------------------------
        BYTE   W96
// 055   ----------------------------------------
        BYTE   W96
// 056   ----------------------------------------
        BYTE   W72
// 057   ----------------------------------------
        BYTE   W72
// 058   ----------------------------------------
        BYTE   W72
// 059   ----------------------------------------
        BYTE   W72
// 060   ----------------------------------------
        BYTE   W72
// 061   ----------------------------------------
        BYTE   W72
// 062   ----------------------------------------
        BYTE   W72
// 063   ----------------------------------------
        BYTE   W72
// 064   ----------------------------------------
        BYTE   W72
// 065   ----------------------------------------
        BYTE   W72
// 066   ----------------------------------------
        BYTE   W72
// 067   ----------------------------------------
        BYTE   W72
// 068   ----------------------------------------
        BYTE   W72
// 069   ----------------------------------------
        BYTE   W72
// 070   ----------------------------------------
        BYTE   W72
// 071   ----------------------------------------
        BYTE   W72
// 072   ----------------------------------------
        BYTE   W72
// 073   ----------------------------------------
        BYTE   W72
// 074   ----------------------------------------
        BYTE   W72
// 075   ----------------------------------------
        BYTE   W72
// 076   ----------------------------------------
        BYTE   W72
// 077   ----------------------------------------
        BYTE   W72
// 078   ----------------------------------------
        BYTE   W72
// 079   ----------------------------------------
        BYTE   W72
// 080   ----------------------------------------
        BYTE   W72
// 081   ----------------------------------------
        BYTE   W72
// 082   ----------------------------------------
        BYTE   W72
// 083   ----------------------------------------
        BYTE   W72
// 084   ----------------------------------------
        BYTE   W72
// 085   ----------------------------------------
        BYTE   W72
// 086   ----------------------------------------
        BYTE   W72
// 087   ----------------------------------------
        BYTE   W48
        BYTE           N24     Gn2   v100
        BYTE           N24     Cn3
        BYTE           N24     En3
        BYTE           N24     Gn3
        BYTE   W24
// 088   ----------------------------------------
        BYTE           VOL     34
        BYTE           N21     Dn1
        BYTE   W24
        BYTE                   Dn1
        BYTE   W24
        BYTE                   Fs1
        BYTE   W24
        BYTE                   An1
        BYTE   W24
// 089   ----------------------------------------
Records_Medley_2_89:
        BYTE           N21     Gn1   v100
        BYTE   W24
        BYTE                   Gn1
        BYTE   W24
        BYTE                   Gn1
        BYTE   W24
        BYTE                   Fs1
        BYTE   W24
        BYTE   PEND
// 090   ----------------------------------------
Records_Medley_2_90:
        BYTE           N21     En1   v100
        BYTE   W24
        BYTE                   En1
        BYTE   W24
        BYTE                   En1
        BYTE   W24
        BYTE                   En1
        BYTE   W24
        BYTE   PEND
// 091   ----------------------------------------
Records_Medley_2_91:
        BYTE           N21     An1   v100
        BYTE   W24
        BYTE                   An1
        BYTE   W24
        BYTE                   An1
        BYTE   W24
        BYTE                   Gn1
        BYTE   W24
        BYTE   PEND
// 092   ----------------------------------------
Records_Medley_2_92:
        BYTE           N21     Fs1   v100
        BYTE   W24
        BYTE                   Fs1
        BYTE   W24
        BYTE                   Fs1
        BYTE   W24
        BYTE                   Fs1
        BYTE   W24
        BYTE   PEND
// 093   ----------------------------------------
Records_Medley_2_93:
        BYTE           N21     Bn1   v100
        BYTE   W24
        BYTE                   Bn1
        BYTE   W24
        BYTE                   Bn1
        BYTE   W24
        BYTE                   An1
        BYTE   W24
        BYTE   PEND
// 094   ----------------------------------------
Records_Medley_2_94:
        BYTE           N64     Gn1   v100
        BYTE   W72
        BYTE           N21
        BYTE   W24
        BYTE   PEND
// 095   ----------------------------------------
Records_Medley_2_95:
        BYTE           N64     An1   v100
        BYTE   W72
        BYTE           N21
        BYTE   W24
        BYTE   PEND
// 096   ----------------------------------------
Records_Medley_2_96:
        BYTE           N21     Dn2   v100
        BYTE   W24
        BYTE                   Dn2
        BYTE   W24
        BYTE                   Cs2
        BYTE   W24
        BYTE                   Cs2
        BYTE   W24
        BYTE   PEND
// 097   ----------------------------------------
Records_Medley_2_97:
        BYTE           N21     Bn1   v100
        BYTE   W24
        BYTE                   Bn1
        BYTE   W24
        BYTE                   An1
        BYTE   W24
        BYTE                   An1
        BYTE   W24
        BYTE   PEND
// 098   ----------------------------------------
Records_Medley_2_98:
        BYTE           N21     Gn1   v100
        BYTE   W24
        BYTE                   Gn1
        BYTE   W24
        BYTE                   Fs1
        BYTE   W24
        BYTE                   Fs1
        BYTE   W24
        BYTE   PEND
// 099   ----------------------------------------
Records_Medley_2_99:
        BYTE           N21     En1   v100
        BYTE   W24
        BYTE                   En1
        BYTE   W24
        BYTE                   An1
        BYTE   W24
        BYTE                   An1
        BYTE   W24
        BYTE   PEND
// 100   ----------------------------------------
        BYTE   PATT
         POIN2  Records_Medley_2_96
// 101   ----------------------------------------
Records_Medley_2_101:
        BYTE           N21     Bn1   v100
        BYTE   W24
        BYTE                   Bn1
        BYTE   W24
        BYTE                   As1
        BYTE   W24
        BYTE                   As1
        BYTE   W24
        BYTE   PEND
// 102   ----------------------------------------
Records_Medley_2_102:
        BYTE           N21     An1   v100
        BYTE   W24
        BYTE                   An1
        BYTE   W24
        BYTE                   An1
        BYTE   W24
        BYTE                   An1
        BYTE   W24
        BYTE   PEND
// 103   ----------------------------------------
Records_Medley_2_103:
        BYTE           N21     Bn1   v100
        BYTE   W24
        BYTE                   Bn1
        BYTE   W24
        BYTE                   Bn1
        BYTE   W24
        BYTE                   Bn1
        BYTE   W24
        BYTE   PEND
// 104   ----------------------------------------
Records_Medley_2_104:
        BYTE           N21     Gn1   v100
        BYTE   W24
        BYTE                   Gn1
        BYTE   W24
        BYTE                   Gn1
        BYTE   W24
        BYTE                   Gn1
        BYTE   W24
        BYTE   PEND
// 105   ----------------------------------------
Records_Medley_2_105:
        BYTE           N21     Cn1   v100
        BYTE   W24
        BYTE                   Cn1
        BYTE   W24
        BYTE                   Cn1
        BYTE   W24
        BYTE                   Cn1
        BYTE   W24
        BYTE   PEND
// 106   ----------------------------------------
Records_Medley_2_106:
        BYTE           N21     Dn1   v100
        BYTE   W24
        BYTE                   Dn1
        BYTE   W24
        BYTE                   Dn1
        BYTE   W24
        BYTE                   Dn1
        BYTE   W24
        BYTE   PEND
// 107   ----------------------------------------
        BYTE   PATT
         POIN2  Records_Medley_2_104
// 108   ----------------------------------------
        BYTE   PATT
         POIN2  Records_Medley_2_104
// 109   ----------------------------------------
        BYTE   PATT
         POIN2  Records_Medley_2_105
// 110   ----------------------------------------
Records_Medley_2_110:
        BYTE           N21     Cs1   v100
        BYTE   W24
        BYTE                   Cs1
        BYTE   W24
        BYTE                   Cs1
        BYTE   W24
        BYTE                   Cs1
        BYTE   W24
        BYTE   PEND
// 111   ----------------------------------------
        BYTE   PATT
         POIN2  Records_Medley_2_106
// 112   ----------------------------------------
        BYTE   PATT
         POIN2  Records_Medley_2_104
// 113   ----------------------------------------
        BYTE   PATT
         POIN2  Records_Medley_2_105
// 114   ----------------------------------------
        BYTE   PATT
         POIN2  Records_Medley_2_106
// 115   ----------------------------------------
        BYTE   PATT
         POIN2  Records_Medley_2_104
// 116   ----------------------------------------
        BYTE   PATT
         POIN2  Records_Medley_2_104
// 117   ----------------------------------------
        BYTE   PATT
         POIN2  Records_Medley_2_105
// 118   ----------------------------------------
        BYTE   PATT
         POIN2  Records_Medley_2_110
// 119   ----------------------------------------
        BYTE   PATT
         POIN2  Records_Medley_2_106
// 120   ----------------------------------------
Records_Medley_2_120:
        BYTE           N21     Dn1   v100
        BYTE           N21     Dn2
        BYTE   W24
        BYTE                   Dn1
        BYTE   W24
        BYTE                   Fs1
        BYTE   W24
        BYTE                   An1
        BYTE   W24
        BYTE   PEND
// 121   ----------------------------------------
        BYTE   PATT
         POIN2  Records_Medley_2_89
// 122   ----------------------------------------
        BYTE   PATT
         POIN2  Records_Medley_2_90
// 123   ----------------------------------------
        BYTE   PATT
         POIN2  Records_Medley_2_91
// 124   ----------------------------------------
        BYTE   PATT
         POIN2  Records_Medley_2_92
// 125   ----------------------------------------
        BYTE   PATT
         POIN2  Records_Medley_2_93
// 126   ----------------------------------------
        BYTE   PATT
         POIN2  Records_Medley_2_94
// 127   ----------------------------------------
        BYTE   PATT
         POIN2  Records_Medley_2_95
// 128   ----------------------------------------
        BYTE   PATT
         POIN2  Records_Medley_2_96
// 129   ----------------------------------------
        BYTE   PATT
         POIN2  Records_Medley_2_97
// 130   ----------------------------------------
        BYTE   PATT
         POIN2  Records_Medley_2_98
// 131   ----------------------------------------
        BYTE   PATT
         POIN2  Records_Medley_2_99
// 132   ----------------------------------------
        BYTE   PATT
         POIN2  Records_Medley_2_96
// 133   ----------------------------------------
        BYTE   PATT
         POIN2  Records_Medley_2_101
// 134   ----------------------------------------
        BYTE   PATT
         POIN2  Records_Medley_2_102
// 135   ----------------------------------------
        BYTE   PATT
         POIN2  Records_Medley_2_103
// 136   ----------------------------------------
        BYTE   W96
// 137   ----------------------------------------
        BYTE   W96
// 138   ----------------------------------------
        BYTE   W96
// 139   ----------------------------------------
        BYTE   W96
// 140   ----------------------------------------
        BYTE   W96
// 141   ----------------------------------------
        BYTE   W96
// 142   ----------------------------------------
        BYTE   W96
// 143   ----------------------------------------
        BYTE   W96
// 144   ----------------------------------------
        BYTE   W96
// 145   ----------------------------------------
        BYTE   W96
// 146   ----------------------------------------
        BYTE   W96
// 147   ----------------------------------------
        BYTE   W96
// 148   ----------------------------------------
        BYTE   W96
// 149   ----------------------------------------
        BYTE   W96
// 150   ----------------------------------------
        BYTE   W96
// 151   ----------------------------------------
        BYTE   W96
// 152   ----------------------------------------
        BYTE   W96
// 153   ----------------------------------------
        BYTE   W96
// 154   ----------------------------------------
        BYTE   W96
// 155   ----------------------------------------
        BYTE   W96
// 156   ----------------------------------------
        BYTE   W96
// 157   ----------------------------------------
        BYTE   W96
// 158   ----------------------------------------
        BYTE   W96
// 159   ----------------------------------------
        BYTE   W96
// 160   ----------------------------------------
        BYTE   W96
// 161   ----------------------------------------
        BYTE   W96
// 162   ----------------------------------------
        BYTE   W96
// 163   ----------------------------------------
        BYTE   W96
// 164   ----------------------------------------
        BYTE   W96
// 165   ----------------------------------------
        BYTE   W96
// 166   ----------------------------------------
        BYTE   W96
// 167   ----------------------------------------
        BYTE   W96
// 168   ----------------------------------------
        BYTE   W96
// 169   ----------------------------------------
        BYTE   W96
// 170   ----------------------------------------
        BYTE   W96
// 171   ----------------------------------------
        BYTE   W96
// 172   ----------------------------------------
        BYTE   W96
// 173   ----------------------------------------
        BYTE   W96
// 174   ----------------------------------------
        BYTE   W96
// 175   ----------------------------------------
        BYTE   W96
// 176   ----------------------------------------
        BYTE   W96
// 177   ----------------------------------------
        BYTE   W96
// 178   ----------------------------------------
        BYTE   W96
// 179   ----------------------------------------
        BYTE   W96
// 180   ----------------------------------------
        BYTE           TIE     En3   v100
        BYTE   W96
// 181   ----------------------------------------
        BYTE           N92     Fs3   v100   gtp2
        BYTE   W92
        BYTE   W03
        BYTE           EOT     En3
        BYTE   W01
// 182   ----------------------------------------
        BYTE           N92     Gn3   v100   gtp3
        BYTE           TIE     En4
        BYTE   W96
// 183   ----------------------------------------
        BYTE           N92     An3   v100   gtp3
        BYTE   W84
        BYTE   W02
        BYTE           EOT     En4
        BYTE   W10
// 184   ----------------------------------------
        BYTE   W96
// 185   ----------------------------------------
        BYTE   W96
// 186   ----------------------------------------
        BYTE   W96
// 187   ----------------------------------------
        BYTE   W96
// 188   ----------------------------------------
        BYTE   W96
// 189   ----------------------------------------
        BYTE   W96
// 190   ----------------------------------------
        BYTE   W96
// 191   ----------------------------------------
        BYTE   W96
// 192   ----------------------------------------
        BYTE   W96
// 193   ----------------------------------------
        BYTE   W96
// 194   ----------------------------------------
        BYTE   W96
// 195   ----------------------------------------
        BYTE   W96
// 196   ----------------------------------------
        BYTE   W96
// 197   ----------------------------------------
        BYTE   W96
// 198   ----------------------------------------
        BYTE   W96
// 199   ----------------------------------------
        BYTE           N14     Bn2
        BYTE           N14     Fs3
        BYTE   W16
        BYTE                   Cn3
        BYTE           N14     Gn3
        BYTE   W16
        BYTE                   Dn3
        BYTE           N14     An3
        BYTE   W16
        BYTE                   En3
        BYTE           N14     Bn3
        BYTE   W16
        BYTE                   Fs3
        BYTE           N14     Cn4
        BYTE   W16
        BYTE                   Gn3
        BYTE           N14     Dn4
        BYTE   W16
// 200   ----------------------------------------
        BYTE           N42     En4   v119   gtp1
        BYTE   W48
        BYTE           N14     Gn3
        BYTE   W16
        BYTE                   An3
        BYTE   W16
        BYTE                   Bn3
        BYTE   W16
// 201   ----------------------------------------
Records_Medley_2_201:
        BYTE           N42     Dn4   v119   gtp1
        BYTE   W48
        BYTE           N14     Fs3
        BYTE   W16
        BYTE                   Gn3
        BYTE   W16
        BYTE                   An3
        BYTE   W16
        BYTE   PEND
// 202   ----------------------------------------
        BYTE           N42     Dn4   v119   gtp1
        BYTE   W48
        BYTE           N14     En3
        BYTE   W16
        BYTE                   Fs3
        BYTE   W16
        BYTE                   Gn3
        BYTE   W16
// 203   ----------------------------------------
        BYTE   PATT
         POIN2  Records_Medley_2_201
// 204   ----------------------------------------
Records_Medley_2_204:
        BYTE           N30     En4   v119
        BYTE   W16
        BYTE           N07     En3
        BYTE   W08
        BYTE                   Fs3
        BYTE   W08
        BYTE                   Gn3
        BYTE   W08
        BYTE                   Fs3
        BYTE   W08
        BYTE           N14     En3
        BYTE   W16
        BYTE                   Fs3
        BYTE   W16
        BYTE                   Gn3
        BYTE   W16
        BYTE   PEND
// 205   ----------------------------------------
        BYTE   PATT
         POIN2  Records_Medley_2_204
// 206   ----------------------------------------
        BYTE   PATT
         POIN2  Records_Medley_2_204
// 207   ----------------------------------------
        BYTE   PATT
         POIN2  Records_Medley_2_204
// 208   ----------------------------------------
        BYTE           TIE     En4   v119
        BYTE   W96
// 209   ----------------------------------------
        BYTE   W24
        BYTE   W01
        BYTE           VOL     33
        BYTE   W42
        BYTE                   32
        BYTE   W18
        BYTE                   31
        BYTE   W06
        BYTE                   30
        BYTE   W05
// 210   ----------------------------------------
        BYTE   W07
        BYTE                   29
        BYTE   W06
        BYTE                   28
        BYTE   W06
        BYTE                   27
        BYTE   W06
        BYTE                   25
        BYTE   W06
        BYTE                   24
        BYTE   W06
        BYTE                   23
        BYTE   W06
        BYTE                   21
        BYTE   W06
        BYTE                   20
        BYTE   W06
        BYTE                   18
        BYTE   W06
        BYTE                   16
        BYTE   W06
        BYTE                   14
        BYTE   W06
        BYTE                   12
        BYTE   W06
        BYTE                   10
        BYTE   W06
        BYTE                   7
        BYTE   W06
        BYTE           EOT
        BYTE           VOL     5
        BYTE   W05
// 211   ----------------------------------------
        BYTE   W01
        BYTE                   2
        BYTE   W92
        BYTE   W03
// 212   ----------------------------------------
        BYTE   W96
// 213   ----------------------------------------
        BYTE   W96
// 214   ----------------------------------------
        BYTE   W72
        BYTE   W02
        BYTE                   34
        BYTE   W22
// 215   ----------------------------------------
        BYTE   W96
// 216   ----------------------------------------
        BYTE   W96
// 217   ----------------------------------------
        BYTE   W96
// 218   ----------------------------------------
        BYTE   W96
// 219   ----------------------------------------
        BYTE   W96
// 220   ----------------------------------------
        BYTE   W96
// 221   ----------------------------------------
        BYTE   W96
// 222   ----------------------------------------
        BYTE   W96
// 223   ----------------------------------------
        BYTE   W48
        BYTE   FINE

//****************** Track 3 (Midi-Chn.3) ******************//

Records_Medley_3:
        BYTE   KEYSH   Records_Medley_key+0
// 000   ----------------------------------------
        BYTE           VOICE   52
        BYTE           VOL     46
        BYTE           PAN     c_v-11
        BYTE   W96
// 001   ----------------------------------------
        BYTE   W96
// 002   ----------------------------------------
        BYTE   W96
// 003   ----------------------------------------
        BYTE   W96
// 004   ----------------------------------------
        BYTE   W96
// 005   ----------------------------------------
        BYTE   W96
// 006   ----------------------------------------
        BYTE   W96
// 007   ----------------------------------------
        BYTE   W96
// 008   ----------------------------------------
        BYTE   W96
// 009   ----------------------------------------
        BYTE   W96
// 010   ----------------------------------------
        BYTE   W96
// 011   ----------------------------------------
        BYTE   W96
// 012   ----------------------------------------
        BYTE   W96
// 013   ----------------------------------------
        BYTE   W96
// 014   ----------------------------------------
        BYTE   W96
// 015   ----------------------------------------
        BYTE   W96
// 016   ----------------------------------------
        BYTE   W96
// 017   ----------------------------------------
        BYTE   W96
// 018   ----------------------------------------
        BYTE   W96
// 019   ----------------------------------------
        BYTE   W96
// 020   ----------------------------------------
        BYTE   W96
// 021   ----------------------------------------
        BYTE   W96
// 022   ----------------------------------------
        BYTE   W96
// 023   ----------------------------------------
        BYTE   W96
// 024   ----------------------------------------
        BYTE   W96
// 025   ----------------------------------------
        BYTE   W72
        BYTE   W03
        BYTE           VOL     33
        BYTE   W21
// 026   ----------------------------------------
Records_Medley_3_26:
        BYTE           N42     Fs3   v100   gtp1
        BYTE   W48
        BYTE                   Dn4
        BYTE   W48
        BYTE   PEND
// 027   ----------------------------------------
        BYTE                   Gn3
        BYTE   W48
        BYTE                   Dn4
        BYTE   W48
// 028   ----------------------------------------
        BYTE   PATT
         POIN2  Records_Medley_3_26
// 029   ----------------------------------------
        BYTE           N84     Gn4   v100   gtp2
        BYTE   W96
// 030   ----------------------------------------
Records_Medley_3_30:
        BYTE           N84     Gn3   v100   gtp2
        BYTE                   Cn4
        BYTE   W72
        BYTE   W03
        BYTE           N02     Dn4
        BYTE   W03
        BYTE                   En4
        BYTE   W03
        BYTE                   Fn4
        BYTE   W03
        BYTE                   Gn4
        BYTE   W03
        BYTE                   An4
        BYTE   W03
        BYTE                   Bn4
        BYTE   W03
        BYTE           N92     Cn5   v100   gtp2
        BYTE   W03
        BYTE   PEND
// 031   ----------------------------------------
Records_Medley_3_31:
        BYTE           N92     Gn3   v100   gtp3
        BYTE           N92     Cn4   v100   gtp2
        BYTE   W96
        BYTE   PEND
// 032   ----------------------------------------
        BYTE           N84     Cn4   v100   gtp2
        BYTE           N92     En3   v100   gtp2
        BYTE                   Gn3
        BYTE   W96
// 033   ----------------------------------------
        BYTE                   En4
        BYTE           N92     Cn3   v100   gtp2
        BYTE                   Gn3
        BYTE   W96
// 034   ----------------------------------------
        BYTE   PATT
         POIN2  Records_Medley_3_30
// 035   ----------------------------------------
        BYTE   PATT
         POIN2  Records_Medley_3_31
// 036   ----------------------------------------
        BYTE           N84     Cn4   v100   gtp2
        BYTE           N42     En3   v100   gtp1
        BYTE   W48
        BYTE                   Ds3
        BYTE   W48
// 037   ----------------------------------------
        BYTE           N10     Gn3
        BYTE           N10     Bn3
        BYTE           N10     Dn3
        BYTE   W96
// 038   ----------------------------------------
        BYTE           VOL     40
        BYTE           N48     En2   v097
        BYTE           N42     Dn4   v100   gtp1
        BYTE                   Gn4
        BYTE   W48
        BYTE           N24     En2   v094
        BYTE           N42     En4   v100   gtp1
        BYTE                   An4
        BYTE   W24
        BYTE           N24     Dn2   v095
        BYTE   W21
        BYTE           N48     An2   v090
        BYTE   W03
// 039   ----------------------------------------
        BYTE           N08     Dn3   v094
        BYTE           N42     Fn4   v100   gtp1
        BYTE                   An4
        BYTE   W24
        BYTE           N07     Dn3   v093
        BYTE   W24
        BYTE           N42     Bn4   v100   gtp1
        BYTE           N48     Dn2   v090
        BYTE           N42     Gn4   v100   gtp1
        BYTE           N09     Gn2   v094
        BYTE   W23
        BYTE           N08     Gn2   v092
        BYTE   W23
        BYTE           N48     Bn2   v097
        BYTE   W02
// 040   ----------------------------------------
        BYTE           N42     Gn4   v100   gtp1
        BYTE                   Bn4
        BYTE   W48
        BYTE                   Cn5
        BYTE           N42     An4   v100   gtp1
        BYTE           N48     En2   v094
        BYTE   W44
        BYTE   W01
        BYTE           N96     Cn3   v090
        BYTE   W03
// 041   ----------------------------------------
        BYTE           N08     Fn3   v094
        BYTE           N42     Fn4   v100   gtp1
        BYTE                   Cn5
        BYTE   W24
        BYTE           N07     Fn3   v093
        BYTE   W24
        BYTE           N09     Ds3   v094
        BYTE           N42     Fs4   v100   gtp1
        BYTE                   Cn5
        BYTE   W23
        BYTE           N08     Ds3   v092
        BYTE   W23
        BYTE           N96     Dn2   v097
        BYTE   W02
// 042   ----------------------------------------
        BYTE           N42     Gn4   v100   gtp1
        BYTE                   Dn5
        BYTE   W48
        BYTE                   Fn4
        BYTE           N42     Dn5   v100   gtp1
        BYTE   W44
        BYTE   W01
        BYTE           N72     En2   v090
        BYTE   W03
// 043   ----------------------------------------
        BYTE           N64     En5   v100
        BYTE           N64     An4
        BYTE           N08     An2   v094
        BYTE   W24
        BYTE           N07     An2   v093
        BYTE   W24
        BYTE           N09     An2   v094
        BYTE   W23
        BYTE           N08     Bn2   v092
        BYTE   W01
        BYTE           N24     Fn2   v090
        BYTE           N21     Fn4   v100
        BYTE           N21     Fn5
        BYTE   W22
        BYTE           N48     En2   v097
        BYTE   W02
// 044   ----------------------------------------
        BYTE           N42     An4   v100   gtp1
        BYTE                   En5
        BYTE   W48
        BYTE                   Cn5
        BYTE           N42     Fs4   v100   gtp1
        BYTE           N48     Cn3   v094
        BYTE   W42
        BYTE   W01
        BYTE           VOL     39
        BYTE   W05
// 045   ----------------------------------------
        BYTE           N21     Gn3   v100
        BYTE           N21     Gn4
        BYTE           N21     Dn3
        BYTE   W04
        BYTE           VOL     38
        BYTE   W07
        BYTE                   37
        BYTE   W08
        BYTE                   36
        BYTE   W05
        BYTE           N24     Cn3   v090
        BYTE           N21     Fn4   v100
        BYTE           N07     Fn3   v093
        BYTE   W01
        BYTE           VOL     35
        BYTE   W07
        BYTE                   34
        BYTE   W09
        BYTE                   33
        BYTE   W07
        BYTE           N24     Bn2   v090
        BYTE           N21     En4   v100
        BYTE           N09     En3   v094
        BYTE   W01
        BYTE           VOL     32
        BYTE   W06
        BYTE                   31
        BYTE   W07
        BYTE                   30
        BYTE   W08
        BYTE                   29
        BYTE   W01
        BYTE           N08     Dn3   v092
        BYTE   W01
        BYTE           N24     An2   v090
        BYTE           N21     Dn4   v100
        BYTE   W07
        BYTE           VOL     28
        BYTE   W04
        BYTE                   27
        BYTE   W09
        BYTE                   26
        BYTE   W04
// 046   ----------------------------------------
        BYTE   W96
// 047   ----------------------------------------
        BYTE   W96
// 048   ----------------------------------------
        BYTE   W96
// 049   ----------------------------------------
        BYTE   W96
// 050   ----------------------------------------
        BYTE   W96
// 051   ----------------------------------------
        BYTE   W96
// 052   ----------------------------------------
        BYTE   W96
// 053   ----------------------------------------
        BYTE   W96
// 054   ----------------------------------------
        BYTE   W96
// 055   ----------------------------------------
        BYTE   W96
// 056   ----------------------------------------
        BYTE   W72
// 057   ----------------------------------------
        BYTE   W72
// 058   ----------------------------------------
        BYTE   W72
// 059   ----------------------------------------
        BYTE   W72
// 060   ----------------------------------------
        BYTE   W72
// 061   ----------------------------------------
        BYTE   W72
// 062   ----------------------------------------
        BYTE   W72
// 063   ----------------------------------------
        BYTE   W72
// 064   ----------------------------------------
        BYTE   W72
// 065   ----------------------------------------
        BYTE   W72
// 066   ----------------------------------------
        BYTE   W72
// 067   ----------------------------------------
        BYTE   W72
// 068   ----------------------------------------
        BYTE   W72
// 069   ----------------------------------------
        BYTE   W72
// 070   ----------------------------------------
        BYTE   W72
// 071   ----------------------------------------
        BYTE   W72
// 072   ----------------------------------------
        BYTE   W72
// 073   ----------------------------------------
        BYTE   W72
// 074   ----------------------------------------
        BYTE   W72
// 075   ----------------------------------------
        BYTE   W72
// 076   ----------------------------------------
        BYTE   W72
// 077   ----------------------------------------
        BYTE   W72
// 078   ----------------------------------------
        BYTE   W72
// 079   ----------------------------------------
        BYTE   W72
// 080   ----------------------------------------
        BYTE   W72
// 081   ----------------------------------------
        BYTE   W72
// 082   ----------------------------------------
        BYTE   W72
// 083   ----------------------------------------
        BYTE   W72
// 084   ----------------------------------------
        BYTE   W72
// 085   ----------------------------------------
        BYTE   W72
// 086   ----------------------------------------
        BYTE   W72
// 087   ----------------------------------------
        BYTE   W72
// 088   ----------------------------------------
        BYTE                   42
        BYTE           N21     Dn1
        BYTE           N21     Dn2
        BYTE   W24
        BYTE                   Dn1
        BYTE   W24
        BYTE                   Fs1
        BYTE   W24
        BYTE                   An1
        BYTE   W24
// 089   ----------------------------------------
        BYTE   PATT
         POIN2  Records_Medley_2_89
// 090   ----------------------------------------
        BYTE   PATT
         POIN2  Records_Medley_2_90
// 091   ----------------------------------------
        BYTE   PATT
         POIN2  Records_Medley_2_91
// 092   ----------------------------------------
        BYTE   PATT
         POIN2  Records_Medley_2_92
// 093   ----------------------------------------
        BYTE   PATT
         POIN2  Records_Medley_2_93
// 094   ----------------------------------------
        BYTE   PATT
         POIN2  Records_Medley_2_94
// 095   ----------------------------------------
        BYTE   PATT
         POIN2  Records_Medley_2_95
// 096   ----------------------------------------
        BYTE   PATT
         POIN2  Records_Medley_2_96
// 097   ----------------------------------------
        BYTE   PATT
         POIN2  Records_Medley_2_97
// 098   ----------------------------------------
        BYTE   PATT
         POIN2  Records_Medley_2_98
// 099   ----------------------------------------
        BYTE   PATT
         POIN2  Records_Medley_2_99
// 100   ----------------------------------------
        BYTE   PATT
         POIN2  Records_Medley_2_96
// 101   ----------------------------------------
        BYTE   PATT
         POIN2  Records_Medley_2_101
// 102   ----------------------------------------
        BYTE   PATT
         POIN2  Records_Medley_2_102
// 103   ----------------------------------------
        BYTE   PATT
         POIN2  Records_Medley_2_103
// 104   ----------------------------------------
Records_Medley_3_104:
        BYTE           N18     Gn1   v100
        BYTE   W24
        BYTE           N06
        BYTE   W08
        BYTE                   Gn1
        BYTE   W08
        BYTE                   Gn1
        BYTE   W08
        BYTE           N18
        BYTE   W24
        BYTE           N06
        BYTE   W08
        BYTE                   Gn1
        BYTE   W08
        BYTE                   Gn1
        BYTE   W08
        BYTE   PEND
// 105   ----------------------------------------
Records_Medley_3_105:
        BYTE           N17     Cn1   v100
        BYTE   W24
        BYTE           N06
        BYTE   W08
        BYTE                   Cn1
        BYTE   W08
        BYTE                   Cn1
        BYTE   W08
        BYTE           N17
        BYTE   W24
        BYTE           N06
        BYTE   W08
        BYTE                   Cn1
        BYTE   W08
        BYTE                   Cn1
        BYTE   W08
        BYTE   PEND
// 106   ----------------------------------------
Records_Medley_3_106:
        BYTE           N17     Dn1   v100
        BYTE   W24
        BYTE           N05
        BYTE   W08
        BYTE                   Dn1
        BYTE   W08
        BYTE                   Dn1
        BYTE   W08
        BYTE           N17
        BYTE   W24
        BYTE           N05
        BYTE   W08
        BYTE                   Dn1
        BYTE   W08
        BYTE                   Dn1
        BYTE   W08
        BYTE   PEND
// 107   ----------------------------------------
Records_Medley_3_107:
        BYTE           N17     Gn1   v100
        BYTE   W24
        BYTE           N05
        BYTE   W08
        BYTE                   Gn1
        BYTE   W08
        BYTE                   Gn1
        BYTE   W08
        BYTE           N17
        BYTE   W24
        BYTE           N05
        BYTE   W08
        BYTE                   Gn1
        BYTE   W08
        BYTE                   Gn1
        BYTE   W08
        BYTE   PEND
// 108   ----------------------------------------
        BYTE   PATT
         POIN2  Records_Medley_3_107
// 109   ----------------------------------------
        BYTE   PATT
         POIN2  Records_Medley_3_105
// 110   ----------------------------------------
Records_Medley_3_110:
        BYTE           N18     Cs1   v100
        BYTE   W24
        BYTE           N06
        BYTE   W08
        BYTE                   Cs1
        BYTE   W08
        BYTE                   Cs1
        BYTE   W08
        BYTE           N18
        BYTE   W24
        BYTE           N06
        BYTE   W08
        BYTE                   Cs1
        BYTE   W08
        BYTE                   Cs1
        BYTE   W08
        BYTE   PEND
// 111   ----------------------------------------
        BYTE   PATT
         POIN2  Records_Medley_3_106
// 112   ----------------------------------------
        BYTE   PATT
         POIN2  Records_Medley_3_104
// 113   ----------------------------------------
        BYTE   PATT
         POIN2  Records_Medley_3_105
// 114   ----------------------------------------
        BYTE   PATT
         POIN2  Records_Medley_3_106
// 115   ----------------------------------------
        BYTE   PATT
         POIN2  Records_Medley_3_107
// 116   ----------------------------------------
        BYTE   PATT
         POIN2  Records_Medley_3_107
// 117   ----------------------------------------
        BYTE   PATT
         POIN2  Records_Medley_3_105
// 118   ----------------------------------------
        BYTE   PATT
         POIN2  Records_Medley_3_110
// 119   ----------------------------------------
        BYTE   PATT
         POIN2  Records_Medley_3_106
// 120   ----------------------------------------
        BYTE   PATT
         POIN2  Records_Medley_2_120
// 121   ----------------------------------------
        BYTE   PATT
         POIN2  Records_Medley_2_89
// 122   ----------------------------------------
        BYTE   PATT
         POIN2  Records_Medley_2_90
// 123   ----------------------------------------
        BYTE   PATT
         POIN2  Records_Medley_2_91
// 124   ----------------------------------------
        BYTE   PATT
         POIN2  Records_Medley_2_92
// 125   ----------------------------------------
        BYTE   PATT
         POIN2  Records_Medley_2_93
// 126   ----------------------------------------
        BYTE   PATT
         POIN2  Records_Medley_2_94
// 127   ----------------------------------------
        BYTE   PATT
         POIN2  Records_Medley_2_95
// 128   ----------------------------------------
        BYTE   PATT
         POIN2  Records_Medley_2_96
// 129   ----------------------------------------
        BYTE   PATT
         POIN2  Records_Medley_2_97
// 130   ----------------------------------------
        BYTE   PATT
         POIN2  Records_Medley_2_98
// 131   ----------------------------------------
        BYTE   PATT
         POIN2  Records_Medley_2_99
// 132   ----------------------------------------
        BYTE   PATT
         POIN2  Records_Medley_2_96
// 133   ----------------------------------------
        BYTE   PATT
         POIN2  Records_Medley_2_101
// 134   ----------------------------------------
        BYTE   PATT
         POIN2  Records_Medley_2_102
// 135   ----------------------------------------
        BYTE   PATT
         POIN2  Records_Medley_2_103
// 136   ----------------------------------------
Records_Medley_3_136:
        BYTE           N32     En3   v100
        BYTE           N32     Gn2
        BYTE   W36
        BYTE           N10     En3
        BYTE           N10     Gn2
        BYTE   W12
        BYTE           N64     Gn3
        BYTE           N64     Bn3
        BYTE   W48
        BYTE   PEND
// 137   ----------------------------------------
Records_Medley_3_137:
        BYTE   W24
        BYTE           N07     Bn2   v100
        BYTE           N07     An3
        BYTE   W08
        BYTE                   Bn2
        BYTE           N07     Bn3
        BYTE   W08
        BYTE                   Bn2
        BYTE           N07     An3
        BYTE   W08
        BYTE           N21     Bn2
        BYTE           N21     Gn3
        BYTE   W24
        BYTE                   An2
        BYTE           N21     Fs3
        BYTE   W24
        BYTE   PEND
// 138   ----------------------------------------
        BYTE   PATT
         POIN2  Records_Medley_3_136
// 139   ----------------------------------------
        BYTE   PATT
         POIN2  Records_Medley_3_137
// 140   ----------------------------------------
        BYTE   PATT
         POIN2  Records_Medley_3_136
// 141   ----------------------------------------
        BYTE   PATT
         POIN2  Records_Medley_3_137
// 142   ----------------------------------------
        BYTE           N32     Fs2   v100
        BYTE           N32     En3
        BYTE   W36
        BYTE           N10     Fs2
        BYTE           N10     En3
        BYTE   W12
        BYTE           N64     Ds3
        BYTE           N64     Bn3
        BYTE   W48
// 143   ----------------------------------------
Records_Medley_3_143:
        BYTE   W24
        BYTE           N21     Bn2   v100
        BYTE           N21     An3
        BYTE   W24
        BYTE                   Cs3
        BYTE           N21     Gn3
        BYTE   W24
        BYTE                   Ds3
        BYTE           N21     Fs3
        BYTE   W24
        BYTE   PEND
// 144   ----------------------------------------
Records_Medley_3_144:
        BYTE           N32     Cn3   v100
        BYTE           N32     Fs3
        BYTE   W36
        BYTE           N10     Cn3
        BYTE           N10     Gn3
        BYTE   W12
        BYTE           N68     Gn2   v100   gtp1
        BYTE                   En3
        BYTE   W48
        BYTE   PEND
// 145   ----------------------------------------
Records_Medley_3_145:
        BYTE   W24
        BYTE           N21     Gn2   v100
        BYTE           N21     En3
        BYTE   W24
        BYTE                   Cn3
        BYTE           N21     An3
        BYTE   W24
        BYTE                   Cn3
        BYTE           N21     Gn3
        BYTE   W24
        BYTE   PEND
// 146   ----------------------------------------
        BYTE   PATT
         POIN2  Records_Medley_3_144
// 147   ----------------------------------------
        BYTE   PATT
         POIN2  Records_Medley_3_145
// 148   ----------------------------------------
Records_Medley_3_148:
        BYTE           N32     An2   v100
        BYTE           N32     Fs3
        BYTE   W36
        BYTE           N10     Bn2
        BYTE           N10     Gn3
        BYTE   W12
        BYTE           N68     Gn2   v100   gtp1
        BYTE                   En3
        BYTE   W48
        BYTE   PEND
// 149   ----------------------------------------
        BYTE   W24
        BYTE           N21     Gn2
        BYTE           N21     En3
        BYTE   W24
        BYTE                   An2
        BYTE           N21     Fs3
        BYTE   W24
        BYTE                   Bn2
        BYTE           N21     Gn3
        BYTE   W24
// 150   ----------------------------------------
        BYTE   PATT
         POIN2  Records_Medley_3_148
// 151   ----------------------------------------
        BYTE   W24
        BYTE           N21     An2   v100
        BYTE           N21     Fs3
        BYTE   W24
        BYTE                   Bn2
        BYTE           N21     Gn3
        BYTE   W24
        BYTE                   Cn3
        BYTE           N21     An3
        BYTE   W24
// 152   ----------------------------------------
Records_Medley_3_152:
        BYTE           N21     En3   v123
        BYTE           N21     Bn3
        BYTE   W24
        BYTE                   Gn3
        BYTE           N21     En4
        BYTE   W24
        BYTE                   En3
        BYTE           N21     Bn3
        BYTE   W24
        BYTE                   Bn2
        BYTE           N21     Gn3
        BYTE   W24
        BYTE   PEND
// 153   ----------------------------------------
Records_Medley_3_153:
        BYTE           N42     Dn3   v123   gtp1
        BYTE                   An3
        BYTE   W48
        BYTE                   Fs3
        BYTE           N42     Cn4   v123   gtp1
        BYTE   W48
        BYTE   PEND
// 154   ----------------------------------------
Records_Medley_3_154:
        BYTE           N42     En3   v123   gtp1
        BYTE                   Bn3
        BYTE   W48
        BYTE                   Gn2
        BYTE           N42     En3   v123   gtp1
        BYTE   W48
        BYTE   PEND
// 155   ----------------------------------------
Records_Medley_3_155:
        BYTE           N84     Fs3   v123   gtp2
        BYTE                   An2
        BYTE           N84     Dn3   v123   gtp2
        BYTE   W96
        BYTE   PEND
// 156   ----------------------------------------
        BYTE   PATT
         POIN2  Records_Medley_3_152
// 157   ----------------------------------------
        BYTE   PATT
         POIN2  Records_Medley_3_153
// 158   ----------------------------------------
        BYTE   PATT
         POIN2  Records_Medley_3_154
// 159   ----------------------------------------
        BYTE   PATT
         POIN2  Records_Medley_3_155
// 160   ----------------------------------------
        BYTE           N21     En3   v123
        BYTE           N21     Bn3
        BYTE   W24
        BYTE                   An3
        BYTE           N21     Cn4
        BYTE   W24
        BYTE                   En3
        BYTE           N21     Bn3
        BYTE   W24
        BYTE                   En3
        BYTE           N21     An3
        BYTE   W24
// 161   ----------------------------------------
        BYTE           N42     En3   v123   gtp1
        BYTE                   Bn3
        BYTE   W48
        BYTE                   Gn3
        BYTE           N42     En4   v123   gtp1
        BYTE   W48
// 162   ----------------------------------------
        BYTE                   Fs3
        BYTE           N42     Dn4   v123   gtp1
        BYTE   W48
        BYTE                   Dn3
        BYTE           N42     An3   v123   gtp1
        BYTE   W48
// 163   ----------------------------------------
        BYTE           N84     En3   v123   gtp2
        BYTE                   Bn3
        BYTE   W96
// 164   ----------------------------------------
        BYTE           N21     En3   v124
        BYTE           N21     Bn3
        BYTE   W24
        BYTE                   An3
        BYTE           N21     Cn4
        BYTE   W24
        BYTE                   En3
        BYTE           N21     Bn3
        BYTE   W24
        BYTE                   En3
        BYTE           N21     An3
        BYTE   W24
// 165   ----------------------------------------
        BYTE           N42     En3   v124   gtp1
        BYTE                   Bn3
        BYTE   W48
        BYTE                   Gn3
        BYTE           N42     En4   v124   gtp1
        BYTE   W48
// 166   ----------------------------------------
        BYTE                   An3
        BYTE           N42     Fs4   v124   gtp1
        BYTE   W48
        BYTE                   Fs3
        BYTE           N42     Dn4   v124   gtp1
        BYTE   W48
// 167   ----------------------------------------
        BYTE                   Dn3
        BYTE           N42     An3   v124   gtp1
        BYTE   W48
        BYTE           N21     Dn3
        BYTE           N21     Bn3
        BYTE   W24
        BYTE                   Fs3
        BYTE           N21     Cn4
        BYTE   W24
// 168   ----------------------------------------
Records_Medley_3_168:
        BYTE           N42     En3   v124   gtp1
        BYTE                   Bn3
        BYTE   W48
        BYTE                   En3
        BYTE           N42     Gn3   v124   gtp1
        BYTE   W48
        BYTE   PEND
// 169   ----------------------------------------
        BYTE                   Dn3
        BYTE           N42     An3   v124   gtp1
        BYTE   W48
        BYTE           N21     Fs3
        BYTE           N21     Bn3
        BYTE   W24
        BYTE                   Fs3
        BYTE           N21     Cn4
        BYTE   W24
// 170   ----------------------------------------
        BYTE   PATT
         POIN2  Records_Medley_3_168
// 171   ----------------------------------------
        BYTE           N84     Dn3   v124   gtp2
        BYTE                   Fs2
        BYTE           N84     An3   v124   gtp2
        BYTE   W96
// 172   ----------------------------------------
        BYTE           N42     En3   v124   gtp1
        BYTE                   Gn2
        BYTE           N42     Bn3   v124   gtp1
        BYTE   W48
        BYTE                   En3
        BYTE           N42     Cn3   v124   gtp1
        BYTE                   Gn3
        BYTE   W48
// 173   ----------------------------------------
        BYTE                   Dn3
        BYTE           N42     Fs2   v124   gtp1
        BYTE                   An3
        BYTE   W48
        BYTE           N21     Bn3
        BYTE           N21     Dn3
        BYTE           N21     Fs3
        BYTE   W24
        BYTE                   Cn4
        BYTE           N21     Dn3
        BYTE           N21     Fs3
        BYTE   W24
// 174   ----------------------------------------
        BYTE           N42     Bn3   v124   gtp1
        BYTE                   Bn2
        BYTE           N42     Dn3   v124   gtp1
        BYTE   W48
        BYTE                   An3
        BYTE           N42     An2   v124   gtp1
        BYTE                   Cn3
        BYTE   W48
// 175   ----------------------------------------
        BYTE                   Gn3
        BYTE           N42     Gn2   v124   gtp1
        BYTE                   Bn2
        BYTE   W48
        BYTE                   Fs3
        BYTE           N42     Fs2   v124   gtp1
        BYTE                   An2
        BYTE   W48
// 176   ----------------------------------------
Records_Medley_3_176:
        BYTE           TIE     Bn2   v100
        BYTE           TIE     En3
        BYTE   W96
        BYTE   PEND
// 177   ----------------------------------------
        BYTE   W92
        BYTE   W03
        BYTE           EOT     Bn2
        BYTE   W01
// 178   ----------------------------------------
        BYTE           N92     Cn3   v100   gtp2
        BYTE   W96
// 179   ----------------------------------------
Records_Medley_3_179:
        BYTE           N92     Dn3   v100   gtp3
        BYTE   W84
        BYTE   W02
        BYTE           EOT     En3
        BYTE   W10
        BYTE   PEND
// 180   ----------------------------------------
        BYTE           TIE
        BYTE   W96
// 181   ----------------------------------------
        BYTE           N92     Fs3   v100   gtp2
        BYTE   W96
// 182   ----------------------------------------
        BYTE                   Gn3
        BYTE   W96
// 183   ----------------------------------------
        BYTE                   An3
        BYTE   W48
        BYTE           N21     Bn3
        BYTE   W24
        BYTE                   Dn4
        BYTE   W14
        BYTE           EOT     En3
        BYTE   W05
        BYTE           VOL     39
        BYTE   W01
        BYTE                   38
        BYTE   W04
// 184   ----------------------------------------
        BYTE           N84     En3   v093   gtp2
        BYTE           N92     Bn3   v093   gtp3
        BYTE           N84     En4   v093   gtp2
        BYTE   W11
        BYTE           VOL     37
        BYTE   W20
        BYTE                   36
        BYTE   W56
        BYTE   W03
        BYTE                   35
        BYTE   W06
// 185   ----------------------------------------
        BYTE           N92     An3   v100   gtp3
        BYTE           N84     Fs4   v100   gtp2
        BYTE   W03
        BYTE           VOL     34
        BYTE   W92
        BYTE   W01
// 186   ----------------------------------------
        BYTE           N92     Cn4   v100   gtp3
        BYTE           N84     Gn4   v100   gtp2
        BYTE                   Cn3
        BYTE   W96
// 187   ----------------------------------------
        BYTE           N92     Dn4   v100   gtp3
        BYTE           N84     Dn3   v100   gtp2
        BYTE                   Fs4
        BYTE   W96
// 188   ----------------------------------------
        BYTE                   En3
        BYTE           N92     Bn3   v100   gtp3
        BYTE           N84     En4   v100   gtp2
        BYTE   W96
// 189   ----------------------------------------
        BYTE                   Dn3
        BYTE           N92     An3   v100   gtp3
        BYTE           N84     Dn4   v100   gtp2
        BYTE   W96
// 190   ----------------------------------------
        BYTE           N92     Gn3   v100   gtp3
        BYTE           N84     Cn4   v100   gtp2
        BYTE                   Cn3
        BYTE   W96
// 191   ----------------------------------------
        BYTE           N92     An3   v100   gtp3
        BYTE           N84     Bn3   v100   gtp2
        BYTE                   Ds3
        BYTE           N84     Bn2   v100   gtp2
        BYTE   W96
// 192   ----------------------------------------
        BYTE                   Cn4
        BYTE           N84     Cn3   v100   gtp2
        BYTE           N92     Gn3   v100   gtp3
        BYTE   W96
// 193   ----------------------------------------
        BYTE           N84     Dn4   v100   gtp2
        BYTE                   Cn3
        BYTE           N92     Gn3   v100   gtp3
        BYTE   W96
// 194   ----------------------------------------
        BYTE           N84     Cn4   v100   gtp2
        BYTE                   Bn2
        BYTE           N92     En3   v100   gtp3
        BYTE   W96
// 195   ----------------------------------------
        BYTE           N84     Bn3   v100   gtp2
        BYTE                   Dn3
        BYTE           N92     Fs3   v100   gtp3
        BYTE   W96
// 196   ----------------------------------------
        BYTE           N84     Cn3   v100   gtp2
        BYTE                   Cn4
        BYTE           N92     En3   v100   gtp3
        BYTE   W96
// 197   ----------------------------------------
        BYTE                   Dn3
        BYTE           N84     Bn3   v100   gtp2
        BYTE   W96
// 198   ----------------------------------------
        BYTE                   An3
        BYTE           N84     Bn2   v100   gtp2
        BYTE           N92     Ds3   v100   gtp3
        BYTE   W96
// 199   ----------------------------------------
        BYTE           N48     Bn3
        BYTE           N90     Fs3
        BYTE   W48
        BYTE           N21     Cn4
        BYTE   W24
        BYTE                   Dn4
        BYTE   W24
// 200   ----------------------------------------
        BYTE           N92     En4   v100   gtp3
        BYTE           N90     Bn3
        BYTE   W96
// 201   ----------------------------------------
        BYTE           N92     Fs4   v100   gtp3
        BYTE           N84     Dn4   v100   gtp2
        BYTE   W96
// 202   ----------------------------------------
        BYTE                   An3
        BYTE           N92     Gn4   v100   gtp3
        BYTE   W96
// 203   ----------------------------------------
        BYTE           N84     Bn3   v100   gtp2
        BYTE           N92     Fs4   v100   gtp3
        BYTE   W96
// 204   ----------------------------------------
        BYTE                   Gn3
        BYTE           N92     En4   v100   gtp3
        BYTE   W96
// 205   ----------------------------------------
        BYTE                   Fs3
        BYTE           N92     Dn4   v100   gtp3
        BYTE   W96
// 206   ----------------------------------------
        BYTE                   En3
        BYTE           N92     An3   v100   gtp3
        BYTE   W96
// 207   ----------------------------------------
        BYTE                   Dn3
        BYTE           N92     Bn3   v100   gtp3
        BYTE   W96
// 208   ----------------------------------------
        BYTE   PATT
         POIN2  Records_Medley_3_176
// 209   ----------------------------------------
        BYTE   W92
        BYTE   W03
        BYTE           EOT     Bn2
        BYTE   W01
// 210   ----------------------------------------
        BYTE           N92     Cn3   v100   gtp2
        BYTE   W96
// 211   ----------------------------------------
        BYTE   PATT
         POIN2  Records_Medley_3_179
// 212   ----------------------------------------
        BYTE           TIE     En3   v100
        BYTE   W96
// 213   ----------------------------------------
        BYTE           N92     Fs3   v100   gtp2
        BYTE   W96
// 214   ----------------------------------------
        BYTE                   Gn3
        BYTE   W08
        BYTE           VOL     33
        BYTE   W36
        BYTE   W01
        BYTE                   32
        BYTE   W24
        BYTE                   31
        BYTE   W24
        BYTE   W03
// 215   ----------------------------------------
        BYTE           N92     An3   v100   gtp3
        BYTE   W11
        BYTE           VOL     30
        BYTE   W36
        BYTE   W01
        BYTE                   29
        BYTE   W36
        BYTE                   28
        BYTE   W11
        BYTE           EOT     En3
        BYTE   W01
// 216   ----------------------------------------
        BYTE   W96
// 217   ----------------------------------------
        BYTE   W96
// 218   ----------------------------------------
        BYTE   W96
// 219   ----------------------------------------
        BYTE   W96
// 220   ----------------------------------------
        BYTE   W96
// 221   ----------------------------------------
        BYTE   W96
// 222   ----------------------------------------
        BYTE   W96
// 223   ----------------------------------------
        BYTE   W48
        BYTE   FINE

//****************** Track 4 (Midi-Chn.4) ******************//

Records_Medley_4:
        BYTE   KEYSH   Records_Medley_key+0
// 000   ----------------------------------------
        BYTE           VOICE   7
        BYTE           VOL     45
        BYTE   W96
// 001   ----------------------------------------
        BYTE   W96
// 002   ----------------------------------------
        BYTE   W96
// 003   ----------------------------------------
        BYTE   W96
// 004   ----------------------------------------
        BYTE   W96
// 005   ----------------------------------------
        BYTE   W96
// 006   ----------------------------------------
        BYTE   W96
// 007   ----------------------------------------
        BYTE   W96
// 008   ----------------------------------------
        BYTE   W96
// 009   ----------------------------------------
        BYTE   W96
// 010   ----------------------------------------
        BYTE   W96
// 011   ----------------------------------------
        BYTE   W96
// 012   ----------------------------------------
        BYTE   W96
// 013   ----------------------------------------
        BYTE   W96
// 014   ----------------------------------------
        BYTE   W96
// 015   ----------------------------------------
        BYTE   W96
// 016   ----------------------------------------
        BYTE   W96
// 017   ----------------------------------------
        BYTE   W96
// 018   ----------------------------------------
        BYTE   W96
// 019   ----------------------------------------
        BYTE   W96
// 020   ----------------------------------------
        BYTE   W96
// 021   ----------------------------------------
        BYTE   W96
// 022   ----------------------------------------
        BYTE   W96
// 023   ----------------------------------------
        BYTE   W96
// 024   ----------------------------------------
        BYTE   W96
// 025   ----------------------------------------
        BYTE   W96
// 026   ----------------------------------------
        BYTE   W96
// 027   ----------------------------------------
        BYTE   W96
// 028   ----------------------------------------
        BYTE   W96
// 029   ----------------------------------------
        BYTE   W96
// 030   ----------------------------------------
Records_Medley_4_30:
        BYTE           N07     Gn3   v100
        BYTE   W08
        BYTE                   Cn4
        BYTE   W08
        BYTE                   Gn3
        BYTE   W08
        BYTE                   Cn4
        BYTE   W08
        BYTE                   Gn3
        BYTE   W08
        BYTE                   Cn4
        BYTE   W08
        BYTE                   Gn3
        BYTE   W08
        BYTE                   Cn4
        BYTE   W08
        BYTE                   Gn3
        BYTE   W08
        BYTE                   Cn4
        BYTE   W08
        BYTE                   Gn3
        BYTE   W08
        BYTE                   Cn4
        BYTE   W08
        BYTE   PEND
// 031   ----------------------------------------
        BYTE   PATT
         POIN2  Records_Medley_4_30
// 032   ----------------------------------------
        BYTE   PATT
         POIN2  Records_Medley_4_30
// 033   ----------------------------------------
        BYTE   PATT
         POIN2  Records_Medley_4_30
// 034   ----------------------------------------
        BYTE   PATT
         POIN2  Records_Medley_4_30
// 035   ----------------------------------------
        BYTE   PATT
         POIN2  Records_Medley_4_30
// 036   ----------------------------------------
        BYTE   PATT
         POIN2  Records_Medley_4_30
// 037   ----------------------------------------
        BYTE           N10     Dn4   v100
        BYTE           N10     Gn3
        BYTE           N10     Bn3
        BYTE   W96
// 038   ----------------------------------------
        BYTE   W96
// 039   ----------------------------------------
        BYTE   W96
// 040   ----------------------------------------
        BYTE   W96
// 041   ----------------------------------------
        BYTE   W96
// 042   ----------------------------------------
        BYTE   W96
// 043   ----------------------------------------
        BYTE   W96
// 044   ----------------------------------------
        BYTE   W96
// 045   ----------------------------------------
        BYTE   W96
// 046   ----------------------------------------
        BYTE   W96
// 047   ----------------------------------------
        BYTE   W96
// 048   ----------------------------------------
        BYTE   W96
// 049   ----------------------------------------
        BYTE   W96
// 050   ----------------------------------------
        BYTE   W96
// 051   ----------------------------------------
        BYTE   W96
// 052   ----------------------------------------
        BYTE   W96
// 053   ----------------------------------------
        BYTE   W96
// 054   ----------------------------------------
        BYTE   W96
// 055   ----------------------------------------
        BYTE   W96
// 056   ----------------------------------------
        BYTE           VOICE   46
        BYTE           N21     Dn3   v122
        BYTE   W12
        BYTE                   Fn3
        BYTE   W12
        BYTE                   An3
        BYTE   W12
        BYTE                   Cn4
        BYTE   W12
        BYTE                   En4
        BYTE   W12
        BYTE                   Fn4
        BYTE   W12
// 057   ----------------------------------------
Records_Medley_4_57:
        BYTE           N21     Dn3   v122
        BYTE   W12
        BYTE                   Fn3
        BYTE   W12
        BYTE                   An3
        BYTE   W12
        BYTE                   Cn4
        BYTE   W12
        BYTE                   En4
        BYTE   W12
        BYTE                   Fn4
        BYTE   W12
        BYTE   PEND
// 058   ----------------------------------------
        BYTE   PATT
         POIN2  Records_Medley_4_57
// 059   ----------------------------------------
        BYTE   PATT
         POIN2  Records_Medley_4_57
// 060   ----------------------------------------
Records_Medley_4_60:
        BYTE           N21     Gn3   v122
        BYTE   W12
        BYTE                   As3
        BYTE   W12
        BYTE                   Dn4
        BYTE   W12
        BYTE                   Gn4
        BYTE   W12
        BYTE                   As4
        BYTE   W12
        BYTE                   Dn5
        BYTE   W12
        BYTE   PEND
// 061   ----------------------------------------
        BYTE   PATT
         POIN2  Records_Medley_4_60
// 062   ----------------------------------------
        BYTE   PATT
         POIN2  Records_Medley_4_60
// 063   ----------------------------------------
        BYTE   PATT
         POIN2  Records_Medley_4_60
// 064   ----------------------------------------
Records_Medley_4_64:
        BYTE           N21     Cn3   v122
        BYTE   W12
        BYTE                   En3
        BYTE   W12
        BYTE                   Gn3
        BYTE   W12
        BYTE                   As3
        BYTE   W12
        BYTE                   Cn4
        BYTE   W12
        BYTE                   En4
        BYTE   W12
        BYTE   PEND
// 065   ----------------------------------------
        BYTE   PATT
         POIN2  Records_Medley_4_64
// 066   ----------------------------------------
        BYTE   PATT
         POIN2  Records_Medley_4_64
// 067   ----------------------------------------
        BYTE   PATT
         POIN2  Records_Medley_4_64
// 068   ----------------------------------------
        BYTE           N21     Fn3   v122
        BYTE   W12
        BYTE                   An3
        BYTE   W12
        BYTE                   Cn4
        BYTE   W12
        BYTE                   En4
        BYTE   W12
        BYTE                   Fn4
        BYTE   W12
        BYTE                   An4   v123
        BYTE   W12
// 069   ----------------------------------------
Records_Medley_4_69:
        BYTE           N21     Fn3   v123
        BYTE   W12
        BYTE                   An3
        BYTE   W12
        BYTE                   Cn4
        BYTE   W12
        BYTE                   En4
        BYTE   W12
        BYTE                   Fn4
        BYTE   W12
        BYTE                   An4
        BYTE   W12
        BYTE   PEND
// 070   ----------------------------------------
        BYTE   PATT
         POIN2  Records_Medley_4_69
// 071   ----------------------------------------
        BYTE   PATT
         POIN2  Records_Medley_4_69
// 072   ----------------------------------------
Records_Medley_4_72:
        BYTE           N21     Ds3   v123
        BYTE   W12
        BYTE                   Gn3
        BYTE   W12
        BYTE                   As3
        BYTE   W12
        BYTE                   Ds4
        BYTE   W12
        BYTE                   Gn4
        BYTE   W12
        BYTE                   As4
        BYTE   W12
        BYTE   PEND
// 073   ----------------------------------------
        BYTE   PATT
         POIN2  Records_Medley_4_72
// 074   ----------------------------------------
        BYTE           N21     Ds3   v123
        BYTE   W12
        BYTE                   Gn3
        BYTE   W12
        BYTE                   As3
        BYTE   W12
        BYTE                   Ds4
        BYTE   W12
        BYTE                   Gn4
        BYTE   W12
        BYTE                   As4   v121
        BYTE   W12
// 075   ----------------------------------------
        BYTE                   Ds3
        BYTE   W12
        BYTE                   Gn3
        BYTE   W12
        BYTE                   As3
        BYTE   W12
        BYTE                   Ds4
        BYTE   W12
        BYTE                   Gn4
        BYTE   W12
        BYTE                   As4
        BYTE   W12
// 076   ----------------------------------------
Records_Medley_4_76:
        BYTE           N21     Dn3   v121
        BYTE   W12
        BYTE                   Fn3
        BYTE   W12
        BYTE                   An3
        BYTE   W12
        BYTE                   Cn4
        BYTE   W12
        BYTE                   Fn4
        BYTE   W12
        BYTE                   An4
        BYTE   W12
        BYTE   PEND
// 077   ----------------------------------------
        BYTE   PATT
         POIN2  Records_Medley_4_76
// 078   ----------------------------------------
        BYTE   PATT
         POIN2  Records_Medley_4_76
// 079   ----------------------------------------
        BYTE   PATT
         POIN2  Records_Medley_4_76
// 080   ----------------------------------------
Records_Medley_4_80:
        BYTE           N21     Cn3   v121
        BYTE   W12
        BYTE                   Ds3
        BYTE   W12
        BYTE                   Gn3
        BYTE   W12
        BYTE                   As3
        BYTE   W12
        BYTE                   Cn4
        BYTE   W12
        BYTE                   Ds4
        BYTE   W12
        BYTE   PEND
// 081   ----------------------------------------
        BYTE   PATT
         POIN2  Records_Medley_4_80
// 082   ----------------------------------------
        BYTE   PATT
         POIN2  Records_Medley_4_80
// 083   ----------------------------------------
        BYTE   PATT
         POIN2  Records_Medley_4_80
// 084   ----------------------------------------
Records_Medley_4_84:
        BYTE           N21     Bn2   v121
        BYTE   W12
        BYTE                   Dn3
        BYTE   W12
        BYTE                   Gn3
        BYTE   W12
        BYTE                   Bn3
        BYTE   W12
        BYTE                   Gn3
        BYTE   W12
        BYTE                   Dn3
        BYTE   W12
        BYTE   PEND
// 085   ----------------------------------------
        BYTE   PATT
         POIN2  Records_Medley_4_84
// 086   ----------------------------------------
        BYTE   PATT
         POIN2  Records_Medley_4_84
// 087   ----------------------------------------
        BYTE           N21     Bn2   v121
        BYTE   W12
        BYTE                   Dn3
        BYTE   W12
        BYTE                   Gn3
        BYTE   W12
        BYTE                   An3
        BYTE   W12
        BYTE                   En4
        BYTE   W24
// 088   ----------------------------------------
        BYTE           VOICE   7
        BYTE   W96
// 089   ----------------------------------------
        BYTE   W96
// 090   ----------------------------------------
        BYTE   W96
// 091   ----------------------------------------
        BYTE   W96
// 092   ----------------------------------------
        BYTE   W96
// 093   ----------------------------------------
        BYTE   W96
// 094   ----------------------------------------
        BYTE   PATT
         POIN2  Records_Medley_0_94
// 095   ----------------------------------------
        BYTE   PATT
         POIN2  Records_Medley_0_95
// 096   ----------------------------------------
        BYTE   PATT
         POIN2  Records_Medley_0_96
// 097   ----------------------------------------
        BYTE   PATT
         POIN2  Records_Medley_0_97
// 098   ----------------------------------------
        BYTE   PATT
         POIN2  Records_Medley_0_98
// 099   ----------------------------------------
        BYTE   PATT
         POIN2  Records_Medley_0_99
// 100   ----------------------------------------
        BYTE   W96
// 101   ----------------------------------------
        BYTE   W96
// 102   ----------------------------------------
        BYTE   W96
// 103   ----------------------------------------
        BYTE   W96
// 104   ----------------------------------------
        BYTE   PATT
         POIN2  Records_Medley_0_112
// 105   ----------------------------------------
        BYTE   PATT
         POIN2  Records_Medley_0_113
// 106   ----------------------------------------
        BYTE   PATT
         POIN2  Records_Medley_0_114
// 107   ----------------------------------------
        BYTE   PATT
         POIN2  Records_Medley_0_115
// 108   ----------------------------------------
        BYTE   PATT
         POIN2  Records_Medley_0_116
// 109   ----------------------------------------
        BYTE   PATT
         POIN2  Records_Medley_0_117
// 110   ----------------------------------------
        BYTE   PATT
         POIN2  Records_Medley_0_118
// 111   ----------------------------------------
        BYTE   PATT
         POIN2  Records_Medley_0_119
// 112   ----------------------------------------
        BYTE   PATT
         POIN2  Records_Medley_0_112
// 113   ----------------------------------------
        BYTE   PATT
         POIN2  Records_Medley_0_113
// 114   ----------------------------------------
        BYTE   PATT
         POIN2  Records_Medley_0_114
// 115   ----------------------------------------
        BYTE   PATT
         POIN2  Records_Medley_0_115
// 116   ----------------------------------------
        BYTE   PATT
         POIN2  Records_Medley_0_116
// 117   ----------------------------------------
        BYTE   PATT
         POIN2  Records_Medley_0_117
// 118   ----------------------------------------
        BYTE   PATT
         POIN2  Records_Medley_0_118
// 119   ----------------------------------------
        BYTE   PATT
         POIN2  Records_Medley_0_119
// 120   ----------------------------------------
        BYTE   W96
// 121   ----------------------------------------
        BYTE   W96
// 122   ----------------------------------------
        BYTE   W96
// 123   ----------------------------------------
        BYTE   W96
// 124   ----------------------------------------
        BYTE   W96
// 125   ----------------------------------------
        BYTE   W96
// 126   ----------------------------------------
        BYTE   PATT
         POIN2  Records_Medley_0_94
// 127   ----------------------------------------
        BYTE   PATT
         POIN2  Records_Medley_0_95
// 128   ----------------------------------------
        BYTE   PATT
         POIN2  Records_Medley_0_96
// 129   ----------------------------------------
        BYTE   PATT
         POIN2  Records_Medley_0_97
// 130   ----------------------------------------
        BYTE   PATT
         POIN2  Records_Medley_0_98
// 131   ----------------------------------------
        BYTE   PATT
         POIN2  Records_Medley_0_99
// 132   ----------------------------------------
        BYTE   W96
// 133   ----------------------------------------
        BYTE   W96
// 134   ----------------------------------------
        BYTE   W96
// 135   ----------------------------------------
        BYTE   W96
// 136   ----------------------------------------
Records_Medley_4_136:
        BYTE           N21     En1   v100
        BYTE   W24
        BYTE                   En2
        BYTE   W24
        BYTE                   En1
        BYTE   W24
        BYTE                   En2
        BYTE   W24
        BYTE   PEND
// 137   ----------------------------------------
        BYTE   PATT
         POIN2  Records_Medley_4_136
// 138   ----------------------------------------
Records_Medley_4_138:
        BYTE           N21     Dn1   v100
        BYTE   W24
        BYTE                   Dn2
        BYTE   W24
        BYTE                   Dn1
        BYTE   W24
        BYTE                   Dn2
        BYTE   W24
        BYTE   PEND
// 139   ----------------------------------------
        BYTE   PATT
         POIN2  Records_Medley_4_138
// 140   ----------------------------------------
Records_Medley_4_140:
        BYTE           N21     Cn1   v100
        BYTE   W24
        BYTE                   Cn2
        BYTE   W24
        BYTE                   Cn1
        BYTE   W24
        BYTE                   Cn2
        BYTE   W24
        BYTE   PEND
// 141   ----------------------------------------
        BYTE   PATT
         POIN2  Records_Medley_4_140
// 142   ----------------------------------------
Records_Medley_4_142:
        BYTE           N21     Bn0   v100
        BYTE   W24
        BYTE                   Bn1
        BYTE   W24
        BYTE                   Bn0
        BYTE   W24
        BYTE                   Bn1
        BYTE   W24
        BYTE   PEND
// 143   ----------------------------------------
        BYTE   PATT
         POIN2  Records_Medley_4_142
// 144   ----------------------------------------
        BYTE   PATT
         POIN2  Records_Medley_0_36
// 145   ----------------------------------------
        BYTE   PATT
         POIN2  Records_Medley_0_36
// 146   ----------------------------------------
        BYTE   PATT
         POIN2  Records_Medley_0_36
// 147   ----------------------------------------
        BYTE   PATT
         POIN2  Records_Medley_0_36
// 148   ----------------------------------------
Records_Medley_4_148:
        BYTE           N21     Dn2   v100
        BYTE   W24
        BYTE                   Dn2
        BYTE   W24
        BYTE                   Dn2
        BYTE   W24
        BYTE                   Dn2
        BYTE   W24
        BYTE   PEND
// 149   ----------------------------------------
        BYTE   PATT
         POIN2  Records_Medley_4_148
// 150   ----------------------------------------
        BYTE   PATT
         POIN2  Records_Medley_4_148
// 151   ----------------------------------------
        BYTE   PATT
         POIN2  Records_Medley_4_148
// 152   ----------------------------------------
Records_Medley_4_152:
        BYTE           N21     En2   v100
        BYTE   W24
        BYTE                   En2
        BYTE   W24
        BYTE                   En2
        BYTE   W24
        BYTE                   En2
        BYTE   W24
        BYTE   PEND
// 153   ----------------------------------------
        BYTE   PATT
         POIN2  Records_Medley_4_152
// 154   ----------------------------------------
        BYTE   PATT
         POIN2  Records_Medley_4_152
// 155   ----------------------------------------
        BYTE   PATT
         POIN2  Records_Medley_4_152
// 156   ----------------------------------------
        BYTE   PATT
         POIN2  Records_Medley_4_152
// 157   ----------------------------------------
        BYTE   PATT
         POIN2  Records_Medley_4_152
// 158   ----------------------------------------
        BYTE   PATT
         POIN2  Records_Medley_4_152
// 159   ----------------------------------------
        BYTE   PATT
         POIN2  Records_Medley_4_152
// 160   ----------------------------------------
        BYTE   PATT
         POIN2  Records_Medley_4_152
// 161   ----------------------------------------
        BYTE   PATT
         POIN2  Records_Medley_4_152
// 162   ----------------------------------------
        BYTE   PATT
         POIN2  Records_Medley_4_152
// 163   ----------------------------------------
        BYTE   PATT
         POIN2  Records_Medley_4_152
// 164   ----------------------------------------
        BYTE   PATT
         POIN2  Records_Medley_4_152
// 165   ----------------------------------------
        BYTE   PATT
         POIN2  Records_Medley_4_152
// 166   ----------------------------------------
        BYTE   PATT
         POIN2  Records_Medley_4_148
// 167   ----------------------------------------
        BYTE   PATT
         POIN2  Records_Medley_4_148
// 168   ----------------------------------------
        BYTE   PATT
         POIN2  Records_Medley_0_36
// 169   ----------------------------------------
        BYTE   PATT
         POIN2  Records_Medley_0_36
// 170   ----------------------------------------
        BYTE   PATT
         POIN2  Records_Medley_0_36
// 171   ----------------------------------------
        BYTE   PATT
         POIN2  Records_Medley_0_36
// 172   ----------------------------------------
        BYTE   PATT
         POIN2  Records_Medley_0_36
// 173   ----------------------------------------
        BYTE   PATT
         POIN2  Records_Medley_0_36
// 174   ----------------------------------------
        BYTE   PATT
         POIN2  Records_Medley_2_103
// 175   ----------------------------------------
        BYTE   PATT
         POIN2  Records_Medley_2_103
// 176   ----------------------------------------
        BYTE   W96
// 177   ----------------------------------------
        BYTE   W96
// 178   ----------------------------------------
        BYTE   W96
// 179   ----------------------------------------
        BYTE   W96
// 180   ----------------------------------------
        BYTE   W96
// 181   ----------------------------------------
        BYTE   W96
// 182   ----------------------------------------
        BYTE   W96
// 183   ----------------------------------------
        BYTE   W96
// 184   ----------------------------------------
        BYTE   W96
// 185   ----------------------------------------
        BYTE   W96
// 186   ----------------------------------------
        BYTE   W96
// 187   ----------------------------------------
        BYTE   W96
// 188   ----------------------------------------
        BYTE   W96
// 189   ----------------------------------------
        BYTE   W96
// 190   ----------------------------------------
        BYTE   W96
// 191   ----------------------------------------
        BYTE   W96
// 192   ----------------------------------------
        BYTE   W96
// 193   ----------------------------------------
        BYTE   W96
// 194   ----------------------------------------
        BYTE   W96
// 195   ----------------------------------------
        BYTE   W96
// 196   ----------------------------------------
        BYTE   W96
// 197   ----------------------------------------
        BYTE   W96
// 198   ----------------------------------------
        BYTE   W96
// 199   ----------------------------------------
        BYTE   W96
// 200   ----------------------------------------
        BYTE   W96
// 201   ----------------------------------------
        BYTE   W96
// 202   ----------------------------------------
        BYTE   W96
// 203   ----------------------------------------
        BYTE   W96
// 204   ----------------------------------------
        BYTE   W96
// 205   ----------------------------------------
        BYTE   W96
// 206   ----------------------------------------
        BYTE   W96
// 207   ----------------------------------------
        BYTE   W96
// 208   ----------------------------------------
        BYTE   W96
// 209   ----------------------------------------
        BYTE   W96
// 210   ----------------------------------------
        BYTE   W96
// 211   ----------------------------------------
        BYTE   W96
// 212   ----------------------------------------
        BYTE   W96
// 213   ----------------------------------------
        BYTE   W96
// 214   ----------------------------------------
        BYTE   W96
// 215   ----------------------------------------
        BYTE   W96
// 216   ----------------------------------------
        BYTE   W96
// 217   ----------------------------------------
        BYTE   W96
// 218   ----------------------------------------
        BYTE   W96
// 219   ----------------------------------------
        BYTE   W96
// 220   ----------------------------------------
        BYTE   W96
// 221   ----------------------------------------
        BYTE   W96
// 222   ----------------------------------------
        BYTE   W96
// 223   ----------------------------------------
        BYTE   W48
        BYTE   FINE

//****************** Track 5 (Midi-Chn.5) ******************//

Records_Medley_5:
        BYTE   KEYSH   Records_Medley_key+0
// 000   ----------------------------------------
        BYTE           VOICE   66
        BYTE           PAN     c_v-13
        BYTE           VOL     45
        BYTE   W96
// 001   ----------------------------------------
        BYTE   W96
// 002   ----------------------------------------
        BYTE   W96
// 003   ----------------------------------------
        BYTE   W96
// 004   ----------------------------------------
        BYTE   W96
// 005   ----------------------------------------
        BYTE   W96
// 006   ----------------------------------------
        BYTE   W96
// 007   ----------------------------------------
        BYTE   W96
// 008   ----------------------------------------
        BYTE   W96
// 009   ----------------------------------------
        BYTE   W96
// 010   ----------------------------------------
        BYTE   W96
// 011   ----------------------------------------
        BYTE   W96
// 012   ----------------------------------------
        BYTE   W96
// 013   ----------------------------------------
        BYTE   W96
// 014   ----------------------------------------
        BYTE   W96
// 015   ----------------------------------------
        BYTE   W96
// 016   ----------------------------------------
        BYTE           N10     Gn1   v100
        BYTE           N17     Gn2
        BYTE   W24
        BYTE           N10     Gn1
        BYTE           N17     Gn2
        BYTE   W24
        BYTE           N10     Gn1
        BYTE           N17     Gn2
        BYTE   W24
        BYTE           N10     Gn1
        BYTE           N17     Gn2
        BYTE   W24
// 017   ----------------------------------------
        BYTE           N10     Gn1
        BYTE           N17     Gn2
        BYTE   W24
        BYTE           N10     Gn1
        BYTE           N17     Gn2
        BYTE   W24
        BYTE           N10     Gn1
        BYTE           N17     Gn2
        BYTE   W24
        BYTE           N10     Gn1
        BYTE           N21     Gn2
        BYTE   W24
// 018   ----------------------------------------
        BYTE   W96
// 019   ----------------------------------------
        BYTE   W96
// 020   ----------------------------------------
        BYTE   W96
// 021   ----------------------------------------
        BYTE   W96
// 022   ----------------------------------------
        BYTE   W96
// 023   ----------------------------------------
        BYTE   W96
// 024   ----------------------------------------
        BYTE   W96
// 025   ----------------------------------------
        BYTE   W96
// 026   ----------------------------------------
        BYTE   W96
// 027   ----------------------------------------
        BYTE   W96
// 028   ----------------------------------------
        BYTE   W96
// 029   ----------------------------------------
        BYTE   W96
// 030   ----------------------------------------
        BYTE   W96
// 031   ----------------------------------------
        BYTE   W96
// 032   ----------------------------------------
        BYTE   W96
// 033   ----------------------------------------
        BYTE   W96
// 034   ----------------------------------------
        BYTE   W96
// 035   ----------------------------------------
        BYTE   W96
// 036   ----------------------------------------
        BYTE   W96
// 037   ----------------------------------------
        BYTE   W96
// 038   ----------------------------------------
Records_Medley_5_38:
        BYTE           N42     Gn3   v100   gtp1
        BYTE   W48
        BYTE           N21     En4
        BYTE   W24
        BYTE           N10     Dn4
        BYTE   W12
        BYTE                   Cn4
        BYTE   W12
        BYTE   PEND
// 039   ----------------------------------------
Records_Medley_5_39:
        BYTE           N42     An3   v100   gtp1
        BYTE   W48
        BYTE           N10     Bn3
        BYTE   W12
        BYTE                   Cn4
        BYTE   W12
        BYTE                   Dn4
        BYTE   W12
        BYTE                   Bn3
        BYTE   W12
        BYTE   PEND
// 040   ----------------------------------------
Records_Medley_5_40:
        BYTE           N21     Gn3   v100
        BYTE   W24
        BYTE           N10     An3
        BYTE   W12
        BYTE                   Bn3
        BYTE   W12
        BYTE           N42     En4   v100   gtp1
        BYTE           N10     Cn4
        BYTE   W12
        BYTE                   Gn3
        BYTE   W12
        BYTE                   Fn3
        BYTE   W12
        BYTE                   Gn3
        BYTE   W12
        BYTE   PEND
// 041   ----------------------------------------
Records_Medley_5_41:
        BYTE           N10     An3   v100
        BYTE   W12
        BYTE                   Bn3
        BYTE   W12
        BYTE                   Cn4
        BYTE   W12
        BYTE                   An3
        BYTE   W12
        BYTE                   An3
        BYTE   W12
        BYTE                   Bn3
        BYTE   W12
        BYTE                   Cn4
        BYTE   W12
        BYTE                   An3
        BYTE   W12
        BYTE   PEND
// 042   ----------------------------------------
Records_Medley_5_42:
        BYTE           N42     Bn3   v100   gtp1
        BYTE                   Dn4
        BYTE   W48
        BYTE           N10     Bn3
        BYTE   W12
        BYTE                   Cn4
        BYTE   W12
        BYTE                   Dn4
        BYTE   W12
        BYTE                   Bn3
        BYTE           N10     Gn3
        BYTE   W12
        BYTE   PEND
// 043   ----------------------------------------
Records_Medley_5_43:
        BYTE           N64     En4   v100
        BYTE   W72
        BYTE           N21     Fn4
        BYTE   W24
        BYTE   PEND
// 044   ----------------------------------------
Records_Medley_5_44:
        BYTE           N21     En4   v100
        BYTE   W24
        BYTE           N10     Dn4
        BYTE   W12
        BYTE                   Cn4
        BYTE   W12
        BYTE           N21     An3
        BYTE   W24
        BYTE           N10     Bn3
        BYTE   W12
        BYTE                   Cn4
        BYTE   W12
        BYTE   PEND
// 045   ----------------------------------------
Records_Medley_5_45:
        BYTE           N21     Bn3   v100
        BYTE   W24
        BYTE                   An3
        BYTE   W24
        BYTE                   Gn3
        BYTE   W24
        BYTE                   Fn3
        BYTE   W24
        BYTE   PEND
// 046   ----------------------------------------
Records_Medley_5_46:
        BYTE           N07     Gn3   v100
        BYTE   W08
        BYTE                   An3
        BYTE   W08
        BYTE                   Bn3
        BYTE   W08
        BYTE           N21     Cn4
        BYTE   W24
        BYTE                   Dn4
        BYTE   W24
        BYTE           N14     En4
        BYTE   W16
        BYTE           N07     Fn4
        BYTE   W08
        BYTE   PEND
// 047   ----------------------------------------
        BYTE           N84     Gn4   v100   gtp2
        BYTE   W96
// 048   ----------------------------------------
        BYTE   PATT
         POIN2  Records_Medley_5_46
// 049   ----------------------------------------
Records_Medley_5_49:
        BYTE           N42     En4   v100   gtp1
        BYTE   W48
        BYTE                   Cn4
        BYTE   W48
        BYTE   PEND
// 050   ----------------------------------------
        BYTE   PATT
         POIN2  Records_Medley_5_46
// 051   ----------------------------------------
        BYTE           N84     Gn4   v100   gtp2
        BYTE   W96
// 052   ----------------------------------------
Records_Medley_5_52:
        BYTE           N07     Gn3   v100
        BYTE   W08
        BYTE                   An3
        BYTE   W08
        BYTE                   Bn3
        BYTE   W08
        BYTE           N21     Cn4
        BYTE   W24
        BYTE           N07     Gn3
        BYTE   W08
        BYTE                   An3
        BYTE   W08
        BYTE                   Bn3
        BYTE   W08
        BYTE           N21     Cn4
        BYTE   W24
        BYTE   PEND
// 053   ----------------------------------------
Records_Medley_5_53:
        BYTE           N07     Gn3   v100
        BYTE   W08
        BYTE                   An3
        BYTE   W08
        BYTE                   As3
        BYTE   W08
        BYTE           N10     Cn4
        BYTE   W12
        BYTE                   As3
        BYTE   W12
        BYTE                   An3
        BYTE   W12
        BYTE                   Gn3
        BYTE   W12
        BYTE                   Fn3
        BYTE   W12
        BYTE                   En3
        BYTE   W12
        BYTE   PEND
// 054   ----------------------------------------
Records_Medley_5_54:
        BYTE           N07     Fn3   v100
        BYTE   W08
        BYTE                   En3
        BYTE   W08
        BYTE                   Fn3
        BYTE   W08
        BYTE           N32     An3   v100   gtp2
        BYTE   W36
        BYTE           N10     Gn3
        BYTE   W12
        BYTE                   Dn3
        BYTE   W12
        BYTE                   En3
        BYTE   W12
        BYTE   PEND
// 055   ----------------------------------------
        BYTE           N42     Fn3   v100   gtp1
        BYTE   W48
        BYTE           N10
        BYTE   W12
        BYTE                   En3   v098
        BYTE   W12
        BYTE                   Dn3   v096
        BYTE   W12
        BYTE                   Cs3   v094
        BYTE   W12
// 056   ----------------------------------------
        BYTE   W60
        BYTE           VOL     44
        BYTE   W03
        BYTE                   45
        BYTE   W09
// 057   ----------------------------------------
        BYTE   W72
// 058   ----------------------------------------
        BYTE   W72
// 059   ----------------------------------------
        BYTE   W72
// 060   ----------------------------------------
        BYTE   W72
// 061   ----------------------------------------
        BYTE   W72
// 062   ----------------------------------------
        BYTE   W72
// 063   ----------------------------------------
        BYTE   W72
// 064   ----------------------------------------
        BYTE   W72
// 065   ----------------------------------------
        BYTE   W72
// 066   ----------------------------------------
        BYTE   W72
// 067   ----------------------------------------
        BYTE   W72
// 068   ----------------------------------------
        BYTE   W72
// 069   ----------------------------------------
        BYTE   W72
// 070   ----------------------------------------
        BYTE   W72
// 071   ----------------------------------------
        BYTE   W72
// 072   ----------------------------------------
        BYTE   W72
// 073   ----------------------------------------
        BYTE   W72
// 074   ----------------------------------------
        BYTE   W72
// 075   ----------------------------------------
        BYTE   W72
// 076   ----------------------------------------
        BYTE   W72
// 077   ----------------------------------------
        BYTE   W72
// 078   ----------------------------------------
        BYTE   W72
// 079   ----------------------------------------
        BYTE   W72
// 080   ----------------------------------------
        BYTE   W72
// 081   ----------------------------------------
        BYTE   W72
// 082   ----------------------------------------
        BYTE   W72
// 083   ----------------------------------------
        BYTE   W72
// 084   ----------------------------------------
        BYTE   W72
// 085   ----------------------------------------
        BYTE   W72
// 086   ----------------------------------------
        BYTE   W72
// 087   ----------------------------------------
        BYTE   W72
// 088   ----------------------------------------
        BYTE   PATT
         POIN2  Records_Medley_1_88
// 089   ----------------------------------------
        BYTE   PATT
         POIN2  Records_Medley_1_89
// 090   ----------------------------------------
        BYTE   PATT
         POIN2  Records_Medley_1_90
// 091   ----------------------------------------
        BYTE   PATT
         POIN2  Records_Medley_1_91
// 092   ----------------------------------------
        BYTE   PATT
         POIN2  Records_Medley_1_92
// 093   ----------------------------------------
        BYTE   PATT
         POIN2  Records_Medley_1_93
// 094   ----------------------------------------
        BYTE   W96
// 095   ----------------------------------------
        BYTE   W96
// 096   ----------------------------------------
        BYTE   W96
// 097   ----------------------------------------
        BYTE   W96
// 098   ----------------------------------------
        BYTE   W96
// 099   ----------------------------------------
        BYTE   W96
// 100   ----------------------------------------
        BYTE   W96
// 101   ----------------------------------------
        BYTE   W96
// 102   ----------------------------------------
        BYTE   W96
// 103   ----------------------------------------
        BYTE   W96
// 104   ----------------------------------------
        BYTE           N20     Gn1   v100
        BYTE   W24
        BYTE           N21
        BYTE   W24
        BYTE                   Gn1
        BYTE   W24
        BYTE                   Gn1
        BYTE   W24
// 105   ----------------------------------------
        BYTE   PATT
         POIN2  Records_Medley_2_105
// 106   ----------------------------------------
        BYTE   PATT
         POIN2  Records_Medley_2_106
// 107   ----------------------------------------
        BYTE   PATT
         POIN2  Records_Medley_2_104
// 108   ----------------------------------------
        BYTE   PATT
         POIN2  Records_Medley_2_104
// 109   ----------------------------------------
        BYTE   PATT
         POIN2  Records_Medley_2_105
// 110   ----------------------------------------
        BYTE   PATT
         POIN2  Records_Medley_2_110
// 111   ----------------------------------------
        BYTE   PATT
         POIN2  Records_Medley_2_106
// 112   ----------------------------------------
        BYTE   PATT
         POIN2  Records_Medley_2_104
// 113   ----------------------------------------
        BYTE   PATT
         POIN2  Records_Medley_2_105
// 114   ----------------------------------------
        BYTE   PATT
         POIN2  Records_Medley_2_106
// 115   ----------------------------------------
        BYTE   PATT
         POIN2  Records_Medley_2_104
// 116   ----------------------------------------
        BYTE   PATT
         POIN2  Records_Medley_2_104
// 117   ----------------------------------------
        BYTE   PATT
         POIN2  Records_Medley_2_105
// 118   ----------------------------------------
        BYTE           N21     Cs1   v100
        BYTE   W24
        BYTE                   Cs1
        BYTE   W24
        BYTE                   Cs1
        BYTE   W24
        BYTE                   Cs1
        BYTE   W20
        BYTE           VOL     47
        BYTE   W04
// 119   ----------------------------------------
        BYTE           N22     Dn1
        BYTE   W24
        BYTE                   Dn1
        BYTE   W24
        BYTE                   Dn1
        BYTE   W24
        BYTE                   Cn1
        BYTE   W24
// 120   ----------------------------------------
        BYTE   PATT
         POIN2  Records_Medley_1_88
// 121   ----------------------------------------
        BYTE   PATT
         POIN2  Records_Medley_1_89
// 122   ----------------------------------------
        BYTE   PATT
         POIN2  Records_Medley_1_90
// 123   ----------------------------------------
        BYTE   PATT
         POIN2  Records_Medley_1_91
// 124   ----------------------------------------
        BYTE   PATT
         POIN2  Records_Medley_1_92
// 125   ----------------------------------------
        BYTE   PATT
         POIN2  Records_Medley_1_93
// 126   ----------------------------------------
        BYTE   W96
// 127   ----------------------------------------
        BYTE   W96
// 128   ----------------------------------------
        BYTE   W96
// 129   ----------------------------------------
        BYTE   W96
// 130   ----------------------------------------
        BYTE   W96
// 131   ----------------------------------------
        BYTE   W96
// 132   ----------------------------------------
        BYTE   W96
// 133   ----------------------------------------
        BYTE   W96
// 134   ----------------------------------------
        BYTE   W96
// 135   ----------------------------------------
        BYTE   W96
// 136   ----------------------------------------
        BYTE           VOL     45
        BYTE           N21     En1   v100
        BYTE   W24
        BYTE                   En2
        BYTE   W24
        BYTE                   En1
        BYTE   W24
        BYTE                   En2
        BYTE   W24
// 137   ----------------------------------------
        BYTE   PATT
         POIN2  Records_Medley_4_136
// 138   ----------------------------------------
        BYTE   PATT
         POIN2  Records_Medley_4_138
// 139   ----------------------------------------
        BYTE   PATT
         POIN2  Records_Medley_4_138
// 140   ----------------------------------------
        BYTE   PATT
         POIN2  Records_Medley_4_140
// 141   ----------------------------------------
        BYTE   PATT
         POIN2  Records_Medley_4_140
// 142   ----------------------------------------
        BYTE   PATT
         POIN2  Records_Medley_4_142
// 143   ----------------------------------------
        BYTE   PATT
         POIN2  Records_Medley_4_142
// 144   ----------------------------------------
        BYTE   PATT
         POIN2  Records_Medley_0_36
// 145   ----------------------------------------
        BYTE   PATT
         POIN2  Records_Medley_0_36
// 146   ----------------------------------------
        BYTE   PATT
         POIN2  Records_Medley_0_36
// 147   ----------------------------------------
        BYTE   PATT
         POIN2  Records_Medley_0_36
// 148   ----------------------------------------
        BYTE   PATT
         POIN2  Records_Medley_4_148
// 149   ----------------------------------------
        BYTE   PATT
         POIN2  Records_Medley_4_148
// 150   ----------------------------------------
        BYTE   PATT
         POIN2  Records_Medley_4_148
// 151   ----------------------------------------
        BYTE   PATT
         POIN2  Records_Medley_4_148
// 152   ----------------------------------------
        BYTE   PATT
         POIN2  Records_Medley_4_152
// 153   ----------------------------------------
        BYTE   PATT
         POIN2  Records_Medley_4_152
// 154   ----------------------------------------
        BYTE   PATT
         POIN2  Records_Medley_4_152
// 155   ----------------------------------------
        BYTE   PATT
         POIN2  Records_Medley_4_152
// 156   ----------------------------------------
        BYTE   PATT
         POIN2  Records_Medley_4_152
// 157   ----------------------------------------
        BYTE   PATT
         POIN2  Records_Medley_4_152
// 158   ----------------------------------------
        BYTE   PATT
         POIN2  Records_Medley_4_152
// 159   ----------------------------------------
        BYTE   PATT
         POIN2  Records_Medley_4_152
// 160   ----------------------------------------
        BYTE   PATT
         POIN2  Records_Medley_4_152
// 161   ----------------------------------------
        BYTE   PATT
         POIN2  Records_Medley_4_152
// 162   ----------------------------------------
        BYTE   PATT
         POIN2  Records_Medley_4_152
// 163   ----------------------------------------
        BYTE   PATT
         POIN2  Records_Medley_4_152
// 164   ----------------------------------------
        BYTE   PATT
         POIN2  Records_Medley_4_152
// 165   ----------------------------------------
        BYTE   PATT
         POIN2  Records_Medley_4_152
// 166   ----------------------------------------
        BYTE   PATT
         POIN2  Records_Medley_4_148
// 167   ----------------------------------------
        BYTE   PATT
         POIN2  Records_Medley_4_148
// 168   ----------------------------------------
        BYTE   PATT
         POIN2  Records_Medley_0_36
// 169   ----------------------------------------
        BYTE   PATT
         POIN2  Records_Medley_0_36
// 170   ----------------------------------------
        BYTE   PATT
         POIN2  Records_Medley_0_36
// 171   ----------------------------------------
        BYTE   PATT
         POIN2  Records_Medley_0_36
// 172   ----------------------------------------
        BYTE   PATT
         POIN2  Records_Medley_0_36
// 173   ----------------------------------------
        BYTE   PATT
         POIN2  Records_Medley_0_36
// 174   ----------------------------------------
        BYTE   PATT
         POIN2  Records_Medley_2_103
// 175   ----------------------------------------
        BYTE   PATT
         POIN2  Records_Medley_2_103
// 176   ----------------------------------------
Records_Medley_5_176:
        BYTE           N07     En2   v100
        BYTE   W16
        BYTE                   En2
        BYTE   W08
        BYTE                   En2
        BYTE   W16
        BYTE                   En2
        BYTE   W08
        BYTE                   En2
        BYTE   W16
        BYTE                   En2
        BYTE   W08
        BYTE                   En2
        BYTE   W16
        BYTE                   En2
        BYTE   W08
        BYTE   PEND
// 177   ----------------------------------------
Records_Medley_5_177:
        BYTE           N07     Dn2   v100
        BYTE   W16
        BYTE                   Dn2
        BYTE   W08
        BYTE                   Dn2
        BYTE   W16
        BYTE                   Dn2
        BYTE   W08
        BYTE                   Dn2
        BYTE   W16
        BYTE                   Dn2
        BYTE   W08
        BYTE                   Dn2
        BYTE   W16
        BYTE                   Dn2
        BYTE   W08
        BYTE   PEND
// 178   ----------------------------------------
Records_Medley_5_178:
        BYTE           N07     Cn2   v100
        BYTE   W16
        BYTE                   Cn2
        BYTE   W08
        BYTE                   Cn2
        BYTE   W16
        BYTE                   Cn2
        BYTE   W08
        BYTE                   Cn2
        BYTE   W16
        BYTE                   Cn2
        BYTE   W08
        BYTE                   Cn2
        BYTE   W16
        BYTE                   Cn2
        BYTE   W08
        BYTE   PEND
// 179   ----------------------------------------
Records_Medley_5_179:
        BYTE           N07     Bn1   v100
        BYTE   W16
        BYTE                   Bn1
        BYTE   W08
        BYTE                   Bn1
        BYTE   W16
        BYTE                   Bn1
        BYTE   W08
        BYTE                   Bn1
        BYTE   W16
        BYTE                   Bn1
        BYTE   W08
        BYTE                   Bn1
        BYTE   W16
        BYTE                   Bn1
        BYTE   W08
        BYTE   PEND
// 180   ----------------------------------------
        BYTE   PATT
         POIN2  Records_Medley_5_176
// 181   ----------------------------------------
        BYTE   PATT
         POIN2  Records_Medley_5_177
// 182   ----------------------------------------
        BYTE   PATT
         POIN2  Records_Medley_5_178
// 183   ----------------------------------------
        BYTE   PATT
         POIN2  Records_Medley_5_179
// 184   ----------------------------------------
        BYTE   PATT
         POIN2  Records_Medley_5_176
// 185   ----------------------------------------
        BYTE   PATT
         POIN2  Records_Medley_5_177
// 186   ----------------------------------------
        BYTE   PATT
         POIN2  Records_Medley_5_178
// 187   ----------------------------------------
        BYTE   PATT
         POIN2  Records_Medley_5_179
// 188   ----------------------------------------
        BYTE   PATT
         POIN2  Records_Medley_5_176
// 189   ----------------------------------------
        BYTE   PATT
         POIN2  Records_Medley_5_177
// 190   ----------------------------------------
        BYTE   PATT
         POIN2  Records_Medley_5_178
// 191   ----------------------------------------
        BYTE   PATT
         POIN2  Records_Medley_5_179
// 192   ----------------------------------------
Records_Medley_5_192:
        BYTE           N07     Cn2   v100
        BYTE   W16
        BYTE                   Cn2
        BYTE   W08
        BYTE                   Cn2
        BYTE   W08
        BYTE                   Cn2
        BYTE   W08
        BYTE                   Cn2
        BYTE   W08
        BYTE                   Cn2
        BYTE   W16
        BYTE                   Cn2
        BYTE   W08
        BYTE                   Cn2
        BYTE   W08
        BYTE                   Cn2
        BYTE   W08
        BYTE                   Cn2
        BYTE   W08
        BYTE   PEND
// 193   ----------------------------------------
Records_Medley_5_193:
        BYTE           N07     Cn2   v100
        BYTE   W16
        BYTE                   Cn2
        BYTE   W08
        BYTE                   Cn2
        BYTE   W08
        BYTE                   Cn2
        BYTE   W08
        BYTE                   Cn2
        BYTE   W08
        BYTE           N14
        BYTE   W16
        BYTE                   Cn2
        BYTE   W16
        BYTE                   Cn2
        BYTE   W16
        BYTE   PEND
// 194   ----------------------------------------
Records_Medley_5_194:
        BYTE           N07     Bn1   v100
        BYTE   W16
        BYTE                   Bn1
        BYTE   W08
        BYTE                   Bn1
        BYTE   W08
        BYTE                   Bn1
        BYTE   W08
        BYTE                   Bn1
        BYTE   W08
        BYTE                   Bn1
        BYTE   W16
        BYTE                   Bn1
        BYTE   W08
        BYTE                   Bn1
        BYTE   W08
        BYTE                   Bn1
        BYTE   W08
        BYTE                   Bn1
        BYTE   W08
        BYTE   PEND
// 195   ----------------------------------------
        BYTE                   Bn1
        BYTE   W16
        BYTE                   Bn1
        BYTE   W08
        BYTE                   Bn1
        BYTE   W08
        BYTE                   Bn1
        BYTE   W08
        BYTE                   Bn1
        BYTE   W08
        BYTE           N14
        BYTE   W16
        BYTE                   Bn1
        BYTE   W16
        BYTE                   Bn1
        BYTE   W16
// 196   ----------------------------------------
        BYTE   PATT
         POIN2  Records_Medley_5_192
// 197   ----------------------------------------
        BYTE   PATT
         POIN2  Records_Medley_5_193
// 198   ----------------------------------------
        BYTE   PATT
         POIN2  Records_Medley_5_194
// 199   ----------------------------------------
        BYTE           N14     Bn1   v100
        BYTE   W16
        BYTE                   Bn1
        BYTE   W16
        BYTE                   Bn1
        BYTE   W16
        BYTE                   Bn1
        BYTE   W16
        BYTE                   Bn1
        BYTE   W16
        BYTE                   Bn1
        BYTE   W16
// 200   ----------------------------------------
Records_Medley_5_200:
        BYTE           N21     En2   v100
        BYTE   W24
        BYTE           N07
        BYTE   W08
        BYTE                   En2
        BYTE   W08
        BYTE                   En2
        BYTE   W08
        BYTE           N14
        BYTE   W16
        BYTE                   En2
        BYTE   W16
        BYTE                   En2
        BYTE   W16
        BYTE   PEND
// 201   ----------------------------------------
Records_Medley_5_201:
        BYTE           N21     Dn2   v100
        BYTE   W24
        BYTE           N07
        BYTE   W08
        BYTE                   Dn2
        BYTE   W08
        BYTE                   Dn2
        BYTE   W08
        BYTE           N14
        BYTE   W16
        BYTE                   Dn2
        BYTE   W16
        BYTE                   Dn2
        BYTE   W16
        BYTE   PEND
// 202   ----------------------------------------
Records_Medley_5_202:
        BYTE           N21     Cn2   v100
        BYTE   W24
        BYTE           N07
        BYTE   W08
        BYTE                   Cn2
        BYTE   W08
        BYTE                   Cn2
        BYTE   W08
        BYTE           N14
        BYTE   W16
        BYTE                   Cn2
        BYTE   W16
        BYTE                   Cn2
        BYTE   W16
        BYTE   PEND
// 203   ----------------------------------------
Records_Medley_5_203:
        BYTE           N21     Bn1   v100
        BYTE   W24
        BYTE           N07
        BYTE   W08
        BYTE                   Bn1
        BYTE   W08
        BYTE                   Bn1
        BYTE   W08
        BYTE           N14
        BYTE   W16
        BYTE                   Bn1
        BYTE   W16
        BYTE                   Bn1
        BYTE   W16
        BYTE   PEND
// 204   ----------------------------------------
        BYTE   PATT
         POIN2  Records_Medley_5_200
// 205   ----------------------------------------
        BYTE   PATT
         POIN2  Records_Medley_5_201
// 206   ----------------------------------------
        BYTE   PATT
         POIN2  Records_Medley_5_202
// 207   ----------------------------------------
        BYTE   PATT
         POIN2  Records_Medley_5_203
// 208   ----------------------------------------
        BYTE   PATT
         POIN2  Records_Medley_5_176
// 209   ----------------------------------------
        BYTE   PATT
         POIN2  Records_Medley_5_177
// 210   ----------------------------------------
        BYTE   PATT
         POIN2  Records_Medley_5_178
// 211   ----------------------------------------
        BYTE   PATT
         POIN2  Records_Medley_5_179
// 212   ----------------------------------------
        BYTE   PATT
         POIN2  Records_Medley_5_176
// 213   ----------------------------------------
        BYTE   PATT
         POIN2  Records_Medley_5_177
// 214   ----------------------------------------
        BYTE   PATT
         POIN2  Records_Medley_5_178
// 215   ----------------------------------------
        BYTE   PATT
         POIN2  Records_Medley_5_179
// 216   ----------------------------------------
Records_Medley_5_216:
        BYTE           N19     Cn2   v100
        BYTE   W24
        BYTE           N10
        BYTE   W12
        BYTE                   Cn2
        BYTE   W12
        BYTE           N19
        BYTE   W24
        BYTE           N10
        BYTE   W12
        BYTE                   Cn2
        BYTE   W12
        BYTE   PEND
// 217   ----------------------------------------
        BYTE   PATT
         POIN2  Records_Medley_5_216
// 218   ----------------------------------------
Records_Medley_5_218:
        BYTE           N19     Dn2   v100
        BYTE   W24
        BYTE           N10
        BYTE   W12
        BYTE                   Dn2
        BYTE   W12
        BYTE           N19
        BYTE   W24
        BYTE           N10
        BYTE   W12
        BYTE                   Dn2
        BYTE   W12
        BYTE   PEND
// 219   ----------------------------------------
        BYTE   PATT
         POIN2  Records_Medley_5_218
// 220   ----------------------------------------
Records_Medley_5_220:
        BYTE           N19     Ds2   v100
        BYTE   W24
        BYTE           N10
        BYTE   W12
        BYTE                   Ds2
        BYTE   W12
        BYTE           N19
        BYTE   W24
        BYTE           N10
        BYTE   W12
        BYTE                   Ds2
        BYTE   W12
        BYTE   PEND
// 221   ----------------------------------------
        BYTE   PATT
         POIN2  Records_Medley_5_220
// 222   ----------------------------------------
        BYTE           N96     Dn2   v100
        BYTE   W96
// 223   ----------------------------------------
        BYTE   W48
        BYTE   FINE

//****************** Track 6 (Midi-Chn.6) ******************//

Records_Medley_6:
        BYTE   KEYSH   Records_Medley_key+0
// 000   ----------------------------------------
        BYTE           VOICE   58
        BYTE           VOL     42
        BYTE           PAN     c_v+9
        BYTE   W96
// 001   ----------------------------------------
        BYTE   W96
// 002   ----------------------------------------
        BYTE   W96
// 003   ----------------------------------------
        BYTE   W96
// 004   ----------------------------------------
        BYTE   W96
// 005   ----------------------------------------
        BYTE   W96
// 006   ----------------------------------------
        BYTE   W96
// 007   ----------------------------------------
        BYTE   W96
// 008   ----------------------------------------
        BYTE   W96
// 009   ----------------------------------------
        BYTE   W96
// 010   ----------------------------------------
        BYTE   W96
// 011   ----------------------------------------
        BYTE   W96
// 012   ----------------------------------------
        BYTE   W96
// 013   ----------------------------------------
        BYTE   W96
// 014   ----------------------------------------
        BYTE   W96
// 015   ----------------------------------------
        BYTE   W96
// 016   ----------------------------------------
        BYTE   W96
// 017   ----------------------------------------
        BYTE   W96
// 018   ----------------------------------------
        BYTE   W96
// 019   ----------------------------------------
        BYTE   W96
// 020   ----------------------------------------
        BYTE   W96
// 021   ----------------------------------------
        BYTE   W96
// 022   ----------------------------------------
        BYTE   W96
// 023   ----------------------------------------
        BYTE   W96
// 024   ----------------------------------------
        BYTE   W96
// 025   ----------------------------------------
        BYTE   W96
// 026   ----------------------------------------
        BYTE   W96
// 027   ----------------------------------------
        BYTE   W96
// 028   ----------------------------------------
        BYTE   W96
// 029   ----------------------------------------
        BYTE   W96
// 030   ----------------------------------------
        BYTE   W96
// 031   ----------------------------------------
        BYTE   W96
// 032   ----------------------------------------
        BYTE   W96
// 033   ----------------------------------------
        BYTE   W96
// 034   ----------------------------------------
        BYTE   W96
// 035   ----------------------------------------
        BYTE   W96
// 036   ----------------------------------------
        BYTE   W96
// 037   ----------------------------------------
        BYTE   W78
        BYTE           VOL     40
        BYTE   W18
// 038   ----------------------------------------
        BYTE           N21     Gn2   v101
        BYTE           N21     Bn2
        BYTE   W03
        BYTE           VOL     39
        BYTE   W21
        BYTE           N21     Gn2
        BYTE           N21     Bn2
        BYTE   W24
        BYTE                   An2
        BYTE           N21     Cn3
        BYTE   W24
        BYTE           N04
        BYTE           N05     An2
        BYTE   W11
        BYTE           VOL     40
        BYTE   W06
        BYTE           N04
        BYTE           N06     Cn3
        BYTE   W07
// 039   ----------------------------------------
        BYTE           N21     Dn3   v100
        BYTE           N21     Fn3
        BYTE   W24
        BYTE                   Fn3
        BYTE           N21     Dn3
        BYTE   W24
        BYTE           N04     Gn2   v101
        BYTE           N05     Bn2
        BYTE   W17
        BYTE           N06
        BYTE           N05     Gn2
        BYTE   W07
        BYTE                   Bn2
        BYTE           N04     Gn2
        BYTE   W17
        BYTE           N05     Bn2
        BYTE           N04     Gn2
        BYTE   W07
// 040   ----------------------------------------
        BYTE           N21     Gn3
        BYTE           N21     En3
        BYTE   W24
        BYTE                   Gn3
        BYTE           N21     En3
        BYTE   W24
        BYTE                   An2
        BYTE           N21     Cn3
        BYTE   W24
        BYTE           N05
        BYTE           N05     An2
        BYTE   W15
        BYTE           N03
        BYTE           N05     Cn3
        BYTE   W09
// 041   ----------------------------------------
        BYTE           N21     An3   v100
        BYTE           N21     Fn3
        BYTE   W24
        BYTE                   An3
        BYTE           N21     Fn3
        BYTE   W24
        BYTE                   Fs3
        BYTE           N21     An3
        BYTE   W24
        BYTE                   Fs3
        BYTE           N21     An3
        BYTE   W24
// 042   ----------------------------------------
        BYTE                   Bn2   v101
        BYTE           N21     Gn2
        BYTE   W24
        BYTE                   Bn2
        BYTE           N21     Gn2
        BYTE   W24
        BYTE                   Bn2
        BYTE           N21     Fn2
        BYTE   W24
        BYTE           N05     Bn2
        BYTE           N05     Fs2
        BYTE   W17
        BYTE           N04
        BYTE           N05     Bn2
        BYTE   W07
// 043   ----------------------------------------
        BYTE           N21     Cn3   v100
        BYTE           N21     An2
        BYTE   W24
        BYTE           N24     An2   v101
        BYTE           N24     Cn3
        BYTE   W24
        BYTE                   An2
        BYTE           N24     En3
        BYTE   W24
        BYTE           N21     Fn3   v100
        BYTE           N21     Cn3
        BYTE   W24
// 044   ----------------------------------------
        BYTE                   Cn3   v101
        BYTE           N21     An2
        BYTE   W24
        BYTE                   Cn3
        BYTE           N21     An2
        BYTE   W24
        BYTE           N04     An3
        BYTE           N05     Ds3
        BYTE   W15
        BYTE           N04
        BYTE           N06     An3
        BYTE   W09
        BYTE           N05
        BYTE           N05     Ds3
        BYTE   W15
        BYTE           N03
        BYTE           N05     An3
        BYTE   W09
// 045   ----------------------------------------
        BYTE           N24     Gn3
        BYTE           N24     Bn3
        BYTE           VOL     39
        BYTE   W09
        BYTE                   38
        BYTE   W09
        BYTE                   37
        BYTE   W06
        BYTE           N21     An3
        BYTE           N21     Fn3
        BYTE   W01
        BYTE           VOL     36
        BYTE   W09
        BYTE                   35
        BYTE   W09
        BYTE                   34
        BYTE   W05
        BYTE           N04     En3
        BYTE           N05     Gn3
        BYTE   W03
        BYTE           VOL     33
        BYTE   W09
        BYTE                   32
        BYTE   W04
        BYTE           N06
        BYTE           N05     En3
        BYTE   W05
        BYTE           VOL     31
        BYTE   W03
        BYTE           N21     Fn3
        BYTE           N21     Dn3
        BYTE   W04
        BYTE           VOL     30
        BYTE   W09
        BYTE                   29
        BYTE   W09
        BYTE                   28
        BYTE   W02
// 046   ----------------------------------------
        BYTE   W96
// 047   ----------------------------------------
        BYTE   W96
// 048   ----------------------------------------
        BYTE   W40
        BYTE   W01
        BYTE                   38
        BYTE   W54
        BYTE   W01
// 049   ----------------------------------------
        BYTE   W96
// 050   ----------------------------------------
        BYTE   W96
// 051   ----------------------------------------
        BYTE   W96
// 052   ----------------------------------------
        BYTE   W96
// 053   ----------------------------------------
        BYTE   W96
// 054   ----------------------------------------
        BYTE   W96
// 055   ----------------------------------------
        BYTE   W96
// 056   ----------------------------------------
        BYTE   W72
// 057   ----------------------------------------
        BYTE   W72
// 058   ----------------------------------------
        BYTE   W72
// 059   ----------------------------------------
        BYTE   W72
// 060   ----------------------------------------
        BYTE   W72
// 061   ----------------------------------------
        BYTE   W72
// 062   ----------------------------------------
        BYTE   W72
// 063   ----------------------------------------
        BYTE   W72
// 064   ----------------------------------------
        BYTE   W72
// 065   ----------------------------------------
        BYTE   W72
// 066   ----------------------------------------
        BYTE   W72
// 067   ----------------------------------------
        BYTE   W72
// 068   ----------------------------------------
        BYTE   W72
// 069   ----------------------------------------
        BYTE   W72
// 070   ----------------------------------------
        BYTE   W72
// 071   ----------------------------------------
        BYTE   W72
// 072   ----------------------------------------
        BYTE   W72
// 073   ----------------------------------------
        BYTE   W72
// 074   ----------------------------------------
        BYTE   W72
// 075   ----------------------------------------
        BYTE   W72
// 076   ----------------------------------------
        BYTE   W72
// 077   ----------------------------------------
        BYTE   W72
// 078   ----------------------------------------
        BYTE   W72
// 079   ----------------------------------------
        BYTE   W72
// 080   ----------------------------------------
        BYTE   W72
// 081   ----------------------------------------
        BYTE   W72
// 082   ----------------------------------------
        BYTE   W72
// 083   ----------------------------------------
        BYTE   W72
// 084   ----------------------------------------
        BYTE   W72
// 085   ----------------------------------------
        BYTE   W72
// 086   ----------------------------------------
        BYTE   W72
// 087   ----------------------------------------
        BYTE   W72
// 088   ----------------------------------------
Records_Medley_6_88:
        BYTE           N84     Dn3   v100   gtp2
        BYTE                   An2
        BYTE   W96
        BYTE   PEND
// 089   ----------------------------------------
Records_Medley_6_89:
        BYTE           N84     Gn2   v100   gtp2
        BYTE                   Dn3
        BYTE           N84     Bn2   v100   gtp2
        BYTE   W96
        BYTE   PEND
// 090   ----------------------------------------
        BYTE   PATT
         POIN2  Records_Medley_6_89
// 091   ----------------------------------------
Records_Medley_6_91:
        BYTE           N84     En3   v100   gtp2
        BYTE                   An2
        BYTE           N84     Cs3   v100   gtp2
        BYTE                   En2
        BYTE   W96
        BYTE   PEND
// 092   ----------------------------------------
Records_Medley_6_92:
        BYTE           N84     Cs3   v100   gtp2
        BYTE                   Fs3
        BYTE           N84     An2   v100   gtp2
        BYTE   W96
        BYTE   PEND
// 093   ----------------------------------------
Records_Medley_6_93:
        BYTE           N84     Fs2   v100   gtp2
        BYTE                   Bn2
        BYTE           N84     Dn3   v100   gtp2
        BYTE                   Fs3
        BYTE   W96
        BYTE   PEND
// 094   ----------------------------------------
Records_Medley_6_94:
        BYTE           N84     Dn3   v100   gtp2
        BYTE                   Gn3
        BYTE           N84     Gn2   v100   gtp2
        BYTE                   Bn2
        BYTE   W96
        BYTE   PEND
// 095   ----------------------------------------
        BYTE                   Cs3
        BYTE           N84     An3   v100   gtp2
        BYTE                   An2
        BYTE           N84     En3   v100   gtp2
        BYTE   W84
        BYTE   W03
        BYTE           VOL     40
        BYTE   W09
// 096   ----------------------------------------
Records_Medley_6_96:
        BYTE           N42     Dn3   v100   gtp1
        BYTE                   An2
        BYTE           N42     An3   v100   gtp1
        BYTE   W48
        BYTE                   Cs3
        BYTE           N42     An2   v100   gtp1
        BYTE                   An3
        BYTE   W48
        BYTE   PEND
// 097   ----------------------------------------
Records_Medley_6_97:
        BYTE           N42     Bn2   v100   gtp1
        BYTE                   Dn3
        BYTE           N42     Gn3   v100   gtp1
        BYTE   W48
        BYTE                   Cs3
        BYTE           N42     Fs3   v100   gtp1
        BYTE                   An2
        BYTE   W48
        BYTE   PEND
// 098   ----------------------------------------
        BYTE   PATT
         POIN2  Records_Medley_6_97
// 099   ----------------------------------------
Records_Medley_6_99:
        BYTE           N42     En3   v100   gtp1
        BYTE                   Gn2
        BYTE           N42     Bn2   v100   gtp1
        BYTE   W48
        BYTE                   An2
        BYTE           N42     Cs3   v100   gtp1
        BYTE                   An3
        BYTE   W48
        BYTE   PEND
// 100   ----------------------------------------
        BYTE   PATT
         POIN2  Records_Medley_6_96
// 101   ----------------------------------------
Records_Medley_6_101:
        BYTE           N42     Bn2   v100   gtp1
        BYTE                   Dn3
        BYTE           N42     Gn3   v100   gtp1
        BYTE   W48
        BYTE                   Fs3
        BYTE           N42     As2   v100   gtp1
        BYTE                   Cs3
        BYTE   W48
        BYTE   PEND
// 102   ----------------------------------------
Records_Medley_6_102:
        BYTE           N84     Fs3   v100   gtp2
        BYTE                   Cn3
        BYTE           N84     An2   v100   gtp2
        BYTE   W96
        BYTE   PEND
// 103   ----------------------------------------
Records_Medley_6_103:
        BYTE           N42     Bn2   v100   gtp1
        BYTE                   Gn2
        BYTE           N42     En3   v100   gtp1
        BYTE   W48
        BYTE                   Bn2
        BYTE           N42     Fs2   v100   gtp1
        BYTE                   Ds3
        BYTE   W48
        BYTE   PEND
// 104   ----------------------------------------
Records_Medley_6_104:
        BYTE           N90     Dn3   v100   gtp1
        BYTE                   Bn2
        BYTE           N92     Gn2   v100   gtp3
        BYTE   W96
        BYTE   PEND
// 105   ----------------------------------------
Records_Medley_6_105:
        BYTE           N92     En3   v100   gtp1
        BYTE                   Gn2
        BYTE           N92     Cn3   v100   gtp1
        BYTE   W96
        BYTE   PEND
// 106   ----------------------------------------
Records_Medley_6_106:
        BYTE           N92     Dn3   v100   gtp1
        BYTE           N92     Fs3
        BYTE           N92     An2   v100   gtp1
        BYTE   W96
        BYTE   PEND
// 107   ----------------------------------------
Records_Medley_6_107:
        BYTE           N92     Bn2   v100   gtp3
        BYTE                   Gn3
        BYTE           N92     Dn3   v100   gtp3
        BYTE   W96
        BYTE   PEND
// 108   ----------------------------------------
        BYTE   PATT
         POIN2  Records_Medley_6_104
// 109   ----------------------------------------
        BYTE   PATT
         POIN2  Records_Medley_6_105
// 110   ----------------------------------------
Records_Medley_6_110:
        BYTE           N92     En3   v100   gtp3
        BYTE                   Gn2
        BYTE           N92     Cs3   v100   gtp3
        BYTE                   Gn3
        BYTE   W96
        BYTE   PEND
// 111   ----------------------------------------
Records_Medley_6_111:
        BYTE           N92     Fs3   v100   gtp3
        BYTE                   An2
        BYTE           N92     An3   v100   gtp3
        BYTE                   Dn3
        BYTE   W96
        BYTE   PEND
// 112   ----------------------------------------
        BYTE   PATT
         POIN2  Records_Medley_6_104
// 113   ----------------------------------------
        BYTE   PATT
         POIN2  Records_Medley_6_105
// 114   ----------------------------------------
        BYTE   PATT
         POIN2  Records_Medley_6_106
// 115   ----------------------------------------
        BYTE   PATT
         POIN2  Records_Medley_6_107
// 116   ----------------------------------------
        BYTE   PATT
         POIN2  Records_Medley_6_104
// 117   ----------------------------------------
        BYTE   PATT
         POIN2  Records_Medley_6_105
// 118   ----------------------------------------
        BYTE   PATT
         POIN2  Records_Medley_6_110
// 119   ----------------------------------------
        BYTE   PATT
         POIN2  Records_Medley_6_111
// 120   ----------------------------------------
        BYTE   PATT
         POIN2  Records_Medley_6_88
// 121   ----------------------------------------
        BYTE   PATT
         POIN2  Records_Medley_6_89
// 122   ----------------------------------------
        BYTE   PATT
         POIN2  Records_Medley_6_89
// 123   ----------------------------------------
        BYTE   PATT
         POIN2  Records_Medley_6_91
// 124   ----------------------------------------
        BYTE   PATT
         POIN2  Records_Medley_6_92
// 125   ----------------------------------------
        BYTE   PATT
         POIN2  Records_Medley_6_93
// 126   ----------------------------------------
        BYTE   PATT
         POIN2  Records_Medley_6_94
// 127   ----------------------------------------
        BYTE           N84     Cs3   v100   gtp2
        BYTE                   An3
        BYTE           N84     An2   v100   gtp2
        BYTE                   En3
        BYTE   W96
// 128   ----------------------------------------
        BYTE   PATT
         POIN2  Records_Medley_6_96
// 129   ----------------------------------------
        BYTE   PATT
         POIN2  Records_Medley_6_97
// 130   ----------------------------------------
        BYTE   PATT
         POIN2  Records_Medley_6_97
// 131   ----------------------------------------
        BYTE   PATT
         POIN2  Records_Medley_6_99
// 132   ----------------------------------------
        BYTE   PATT
         POIN2  Records_Medley_6_96
// 133   ----------------------------------------
        BYTE   PATT
         POIN2  Records_Medley_6_101
// 134   ----------------------------------------
        BYTE   PATT
         POIN2  Records_Medley_6_102
// 135   ----------------------------------------
        BYTE   PATT
         POIN2  Records_Medley_6_103
// 136   ----------------------------------------
        BYTE   W96
// 137   ----------------------------------------
        BYTE   W96
// 138   ----------------------------------------
        BYTE   W96
// 139   ----------------------------------------
        BYTE   W96
// 140   ----------------------------------------
        BYTE   W96
// 141   ----------------------------------------
        BYTE   W96
// 142   ----------------------------------------
        BYTE   W96
// 143   ----------------------------------------
        BYTE   W96
// 144   ----------------------------------------
        BYTE   W96
// 145   ----------------------------------------
        BYTE   W96
// 146   ----------------------------------------
        BYTE   W96
// 147   ----------------------------------------
        BYTE   W96
// 148   ----------------------------------------
        BYTE   W96
// 149   ----------------------------------------
        BYTE   W96
// 150   ----------------------------------------
        BYTE   W96
// 151   ----------------------------------------
        BYTE   W96
// 152   ----------------------------------------
        BYTE   W96
// 153   ----------------------------------------
        BYTE   W96
// 154   ----------------------------------------
        BYTE   W96
// 155   ----------------------------------------
        BYTE   W96
// 156   ----------------------------------------
        BYTE   W96
// 157   ----------------------------------------
        BYTE   W96
// 158   ----------------------------------------
        BYTE   W96
// 159   ----------------------------------------
        BYTE   W96
// 160   ----------------------------------------
        BYTE   W96
// 161   ----------------------------------------
        BYTE   W96
// 162   ----------------------------------------
        BYTE   W96
// 163   ----------------------------------------
        BYTE   W96
// 164   ----------------------------------------
        BYTE   W96
// 165   ----------------------------------------
        BYTE   W96
// 166   ----------------------------------------
        BYTE   W96
// 167   ----------------------------------------
        BYTE   W96
// 168   ----------------------------------------
        BYTE   W96
// 169   ----------------------------------------
        BYTE   W96
// 170   ----------------------------------------
        BYTE   W96
// 171   ----------------------------------------
        BYTE   W96
// 172   ----------------------------------------
        BYTE   W96
// 173   ----------------------------------------
        BYTE   W96
// 174   ----------------------------------------
        BYTE   W96
// 175   ----------------------------------------
        BYTE   W84
        BYTE   W01
        BYTE           VOL     41
        BYTE   W11
// 176   ----------------------------------------
Records_Medley_6_176:
        BYTE           N07     Bn2   v100
        BYTE           N07     En3
        BYTE   W16
        BYTE                   Gn3
        BYTE           N07     Bn2
        BYTE   W08
        BYTE                   Fs3
        BYTE           N07     Bn2
        BYTE   W08
        BYTE                   Gn3
        BYTE           N07     Bn2
        BYTE   W08
        BYTE                   Fs3
        BYTE           N07     Bn2
        BYTE   W08
        BYTE                   Bn2
        BYTE           N07     En3
        BYTE   W16
        BYTE                   Gn3
        BYTE           N07     Bn2
        BYTE   W08
        BYTE                   Bn2
        BYTE           N07     Fs3
        BYTE   W08
        BYTE                   Gn3
        BYTE           N07     Bn2
        BYTE   W08
        BYTE                   Bn2
        BYTE           N07     Fs3
        BYTE   W08
        BYTE   PEND
// 177   ----------------------------------------
Records_Medley_6_177:
        BYTE           N07     An2   v100
        BYTE           N07     En3
        BYTE   W16
        BYTE                   An2
        BYTE           N07     Gn3
        BYTE   W08
        BYTE                   An2
        BYTE           N07     Fs3
        BYTE   W08
        BYTE                   An2
        BYTE           N07     Gn3
        BYTE   W08
        BYTE                   An2
        BYTE           N07     Fs3
        BYTE   W08
        BYTE                   An2
        BYTE           N07     En3
        BYTE   W08
        BYTE                   Bn2
        BYTE           N07     Fs3
        BYTE   W08
        BYTE                   Cn3
        BYTE           N07     Gn3
        BYTE   W08
        BYTE                   Dn3
        BYTE           N07     An3
        BYTE   W08
        BYTE                   Cn3
        BYTE           N07     Gn3
        BYTE   W08
        BYTE                   Bn2
        BYTE           N07     Fs3
        BYTE   W08
        BYTE   PEND
// 178   ----------------------------------------
Records_Medley_6_178:
        BYTE           N07     En3   v100
        BYTE           N07     Gn2
        BYTE           N07     Bn2
        BYTE   W16
        BYTE                   Bn2
        BYTE           N07     Gn2
        BYTE           N07     Gn3
        BYTE   W08
        BYTE                   Bn2
        BYTE           N07     Gn2
        BYTE           N07     Fs3
        BYTE   W08
        BYTE                   Bn2
        BYTE           N07     Gn2
        BYTE           N07     Gn3
        BYTE   W08
        BYTE                   Bn2
        BYTE           N07     Gn2
        BYTE           N07     Fs3
        BYTE   W08
        BYTE                   En3
        BYTE           N07     Gn2
        BYTE           N07     Bn2
        BYTE   W16
        BYTE                   Bn2
        BYTE           N07     Gn2
        BYTE           N07     Gn3
        BYTE   W08
        BYTE                   Fs3
        BYTE           N07     Gn2
        BYTE           N07     Bn2
        BYTE   W08
        BYTE                   Bn2
        BYTE           N07     Gn2
        BYTE           N07     Gn3
        BYTE   W08
        BYTE                   Fs3
        BYTE           N07     Gn2
        BYTE           N07     Bn2
        BYTE   W08
        BYTE   PEND
// 179   ----------------------------------------
Records_Medley_6_179:
        BYTE           N07     En3   v100
        BYTE           N07     Fs2
        BYTE           N07     An2
        BYTE   W16
        BYTE                   Gn3
        BYTE           N07     Fs2
        BYTE           N07     An2
        BYTE   W08
        BYTE                   Fs3
        BYTE           N07     Fs2
        BYTE           N07     An2
        BYTE   W08
        BYTE                   Gn3
        BYTE           N07     Fs2
        BYTE           N07     An2
        BYTE   W08
        BYTE                   Fs3
        BYTE           N07     Fs2
        BYTE           N07     An2
        BYTE   W08
        BYTE                   En3
        BYTE           N07     Fs2
        BYTE           N07     An2
        BYTE   W08
        BYTE                   Fs3
        BYTE           N07     Gn2
        BYTE           N07     Bn2
        BYTE   W08
        BYTE                   Gn3
        BYTE           N07     An2
        BYTE           N07     Cn3
        BYTE   W08
        BYTE                   An3
        BYTE           N07     Bn2
        BYTE           N07     Dn3
        BYTE   W08
        BYTE                   Gn3
        BYTE           N07     Cn3
        BYTE           N07     Gn2
        BYTE   W08
        BYTE                   Fs3
        BYTE           N07     Bn2
        BYTE           N07     Fs2
        BYTE   W08
        BYTE   PEND
// 180   ----------------------------------------
        BYTE   PATT
         POIN2  Records_Medley_6_176
// 181   ----------------------------------------
        BYTE   PATT
         POIN2  Records_Medley_6_177
// 182   ----------------------------------------
        BYTE   PATT
         POIN2  Records_Medley_6_178
// 183   ----------------------------------------
        BYTE   PATT
         POIN2  Records_Medley_6_179
// 184   ----------------------------------------
        BYTE   PATT
         POIN2  Records_Medley_6_176
// 185   ----------------------------------------
        BYTE   PATT
         POIN2  Records_Medley_6_177
// 186   ----------------------------------------
        BYTE   PATT
         POIN2  Records_Medley_6_178
// 187   ----------------------------------------
        BYTE   PATT
         POIN2  Records_Medley_6_179
// 188   ----------------------------------------
        BYTE   PATT
         POIN2  Records_Medley_6_176
// 189   ----------------------------------------
        BYTE   PATT
         POIN2  Records_Medley_6_177
// 190   ----------------------------------------
        BYTE   PATT
         POIN2  Records_Medley_6_178
// 191   ----------------------------------------
        BYTE           N07     En2   v100
        BYTE           N07     An2
        BYTE           N07     Bn2
        BYTE   W16
        BYTE                   En2
        BYTE           N07     An2
        BYTE           N07     En3
        BYTE   W08
        BYTE                   An2
        BYTE           N07     Ds3
        BYTE           N07     En2
        BYTE   W08
        BYTE                   En2
        BYTE           N07     Bn2
        BYTE           N07     En3
        BYTE   W08
        BYTE                   En2
        BYTE           N07     Ds3
        BYTE           N07     Bn2
        BYTE   W08
        BYTE                   En2
        BYTE           N07     An2
        BYTE           N07     Bn2
        BYTE   W16
        BYTE                   En2
        BYTE           N07     An2
        BYTE           N07     En3
        BYTE   W08
        BYTE                   An2
        BYTE           N07     Ds3
        BYTE           N07     En2
        BYTE   W08
        BYTE                   En2
        BYTE           N07     En3
        BYTE           N07     Bn2
        BYTE   W08
        BYTE                   En2
        BYTE           N07     Ds3
        BYTE           N07     Bn2
        BYTE   W08
// 192   ----------------------------------------
Records_Medley_6_192:
        BYTE           N07     En3   v100
        BYTE           N07     Gn2
        BYTE   W16
        BYTE                   En3
        BYTE           N07     Gn2
        BYTE   W08
        BYTE                   En3
        BYTE           N07     Gn2
        BYTE   W08
        BYTE                   Gn2
        BYTE           N07     En3
        BYTE   W08
        BYTE                   En3
        BYTE           N07     Gn2
        BYTE   W08
        BYTE                   Gn2
        BYTE           N07     En3
        BYTE   W16
        BYTE                   Gn2
        BYTE           N07     En3
        BYTE   W08
        BYTE                   Gn2
        BYTE           N07     En3
        BYTE   W08
        BYTE                   Gn2
        BYTE           N07     En3
        BYTE   W08
        BYTE                   Gn2
        BYTE           N07     En3
        BYTE   W08
        BYTE   PEND
// 193   ----------------------------------------
        BYTE   PATT
         POIN2  Records_Medley_6_192
// 194   ----------------------------------------
        BYTE           N07     Ds3   v100
        BYTE           N07     Fs2
        BYTE           N07     Bn3
        BYTE   W16
        BYTE                   Fs2
        BYTE           N07     Bn3
        BYTE           N07     Ds3
        BYTE   W08
        BYTE                   Ds3
        BYTE           N07     Bn3
        BYTE           N07     Fs2
        BYTE   W08
        BYTE                   Ds3
        BYTE           N07     Bn3
        BYTE           N07     Fs2
        BYTE   W08
        BYTE                   Ds3
        BYTE           N07     Bn3
        BYTE           N07     Fs2
        BYTE   W08
        BYTE                   Ds3
        BYTE           N07     Fs2
        BYTE           N07     Bn3
        BYTE   W16
        BYTE                   Fs2
        BYTE           N07     Bn3
        BYTE           N07     Ds3
        BYTE   W08
        BYTE                   Ds3
        BYTE           N07     Bn3
        BYTE           N07     Fs2
        BYTE   W08
        BYTE                   Ds3
        BYTE           N07     Bn3
        BYTE           N07     Fs2
        BYTE   W08
        BYTE                   Ds3
        BYTE           N07     Bn3
        BYTE           N07     Fs2
        BYTE   W08
// 195   ----------------------------------------
        BYTE                   Ds3
        BYTE           N07     Fs2
        BYTE           N07     Fs3
        BYTE   W16
        BYTE                   Fs2
        BYTE           N07     Ds3
        BYTE           N07     Fs3
        BYTE   W08
        BYTE                   Ds3
        BYTE           N07     Fs2
        BYTE           N07     Fs3
        BYTE   W08
        BYTE                   Ds3
        BYTE           N07     Fs2
        BYTE           N07     Fs3
        BYTE   W08
        BYTE                   Ds3
        BYTE           N07     Fs2
        BYTE           N07     Fs3
        BYTE   W08
        BYTE                   Fs2
        BYTE           N07     Dn3
        BYTE           N07     Fs3
        BYTE   W16
        BYTE                   Fs2
        BYTE           N07     Dn3
        BYTE           N07     Fs3
        BYTE   W08
        BYTE                   Fs2
        BYTE           N07     Dn3
        BYTE           N07     Fs3
        BYTE   W08
        BYTE                   Fs2
        BYTE           N07     Dn3
        BYTE           N07     Fs3
        BYTE   W08
        BYTE                   Fs2
        BYTE           N07     Dn3
        BYTE           N07     Fs3
        BYTE   W08
// 196   ----------------------------------------
        BYTE   PATT
         POIN2  Records_Medley_6_192
// 197   ----------------------------------------
        BYTE           N07     Gn2   v100
        BYTE           N07     En3
        BYTE           N07     Gn3
        BYTE   W16
        BYTE                   Gn2
        BYTE           N07     En3
        BYTE           N07     Gn3
        BYTE   W08
        BYTE                   Gn2
        BYTE           N07     En3
        BYTE           N07     Gn3
        BYTE   W08
        BYTE                   En3
        BYTE           N07     Gn2
        BYTE           N07     Gn3
        BYTE   W08
        BYTE                   Gn2
        BYTE           N07     En3
        BYTE           N07     Gn3
        BYTE   W08
        BYTE                   En3
        BYTE           N07     Gn2
        BYTE           N07     Gn3
        BYTE   W16
        BYTE                   En3
        BYTE           N07     Gn2
        BYTE           N07     Gn3
        BYTE   W08
        BYTE                   Gn2
        BYTE           N07     Gn3
        BYTE           N07     En3
        BYTE   W08
        BYTE                   En3
        BYTE           N07     Gn3
        BYTE           N07     Gn2
        BYTE   W08
        BYTE                   En3
        BYTE           N07     Gn3
        BYTE           N07     Gn2
        BYTE   W08
// 198   ----------------------------------------
Records_Medley_6_198:
        BYTE           N07     Fs2   v100
        BYTE           N07     Ds3
        BYTE   W16
        BYTE                   Fs2
        BYTE           N07     Ds3
        BYTE   W08
        BYTE                   Fs2
        BYTE           N07     Ds3
        BYTE   W08
        BYTE                   Fs2
        BYTE           N07     Ds3
        BYTE   W08
        BYTE                   Fs2
        BYTE           N07     Ds3
        BYTE   W08
        BYTE                   Fs2
        BYTE           N07     Ds3
        BYTE   W16
        BYTE                   Fs2
        BYTE           N07     Ds3
        BYTE   W08
        BYTE                   Fs2
        BYTE           N07     Ds3
        BYTE   W08
        BYTE                   Fs2
        BYTE           N07     Ds3
        BYTE   W08
        BYTE                   Fs2
        BYTE           N07     Ds3
        BYTE   W08
        BYTE   PEND
// 199   ----------------------------------------
        BYTE   PATT
         POIN2  Records_Medley_6_198
// 200   ----------------------------------------
        BYTE   PATT
         POIN2  Records_Medley_6_176
// 201   ----------------------------------------
        BYTE   PATT
         POIN2  Records_Medley_6_177
// 202   ----------------------------------------
        BYTE   PATT
         POIN2  Records_Medley_6_178
// 203   ----------------------------------------
        BYTE   PATT
         POIN2  Records_Medley_6_179
// 204   ----------------------------------------
        BYTE   PATT
         POIN2  Records_Medley_6_176
// 205   ----------------------------------------
        BYTE   PATT
         POIN2  Records_Medley_6_177
// 206   ----------------------------------------
        BYTE   PATT
         POIN2  Records_Medley_6_178
// 207   ----------------------------------------
        BYTE   PATT
         POIN2  Records_Medley_6_179
// 208   ----------------------------------------
        BYTE           N07     Bn2   v113
        BYTE           N07     En3
        BYTE   W16
        BYTE                   Gn3
        BYTE           N07     Bn2
        BYTE   W08
        BYTE                   Fs3
        BYTE           N07     Bn2
        BYTE   W08
        BYTE                   Gn3
        BYTE           N07     Bn2
        BYTE   W08
        BYTE                   Fs3
        BYTE           N07     Bn2
        BYTE   W08
        BYTE                   Bn2
        BYTE           N07     En3
        BYTE   W16
        BYTE                   Gn3
        BYTE           N07     Bn2
        BYTE   W08
        BYTE                   Bn2
        BYTE           N07     Fs3
        BYTE   W08
        BYTE                   Gn3
        BYTE           N07     Bn2
        BYTE   W08
        BYTE                   Bn2
        BYTE           N07     Fs3
        BYTE   W08
// 209   ----------------------------------------
        BYTE                   An2
        BYTE           N07     En3
        BYTE   W16
        BYTE                   An2
        BYTE           N07     Gn3
        BYTE   W08
        BYTE                   An2
        BYTE           N07     Fs3
        BYTE   W08
        BYTE                   An2
        BYTE           N07     Gn3
        BYTE   W08
        BYTE                   An2
        BYTE           N07     Fs3
        BYTE   W08
        BYTE                   An2
        BYTE           N07     En3
        BYTE   W08
        BYTE                   Bn2
        BYTE           N07     Fs3
        BYTE   W08
        BYTE                   Cn3
        BYTE           N07     Gn3
        BYTE   W08
        BYTE                   Dn3
        BYTE           N07     An3
        BYTE   W08
        BYTE                   Cn3
        BYTE           N07     Gn3
        BYTE   W08
        BYTE                   Bn2
        BYTE           N07     Fs3
        BYTE   W08
// 210   ----------------------------------------
        BYTE                   En3
        BYTE           N07     Gn2
        BYTE           N07     Bn2
        BYTE   W16
        BYTE                   Bn2
        BYTE           N07     Gn2
        BYTE           N07     Gn3
        BYTE   W08
        BYTE                   Bn2
        BYTE           N07     Gn2
        BYTE           N07     Fs3
        BYTE   W08
        BYTE                   Bn2
        BYTE           N07     Gn2
        BYTE           N07     Gn3
        BYTE   W08
        BYTE                   Bn2
        BYTE           N07     Gn2
        BYTE           N07     Fs3
        BYTE   W08
        BYTE                   En3
        BYTE           N07     Gn2
        BYTE           N07     Bn2
        BYTE   W16
        BYTE                   Bn2
        BYTE           N07     Gn2
        BYTE           N07     Gn3
        BYTE   W08
        BYTE                   Fs3
        BYTE           N07     Gn2
        BYTE           N07     Bn2
        BYTE   W08
        BYTE                   Bn2
        BYTE           N07     Gn2
        BYTE           N07     Gn3
        BYTE   W08
        BYTE                   Fs3
        BYTE           N07     Gn2
        BYTE           N07     Bn2
        BYTE   W08
// 211   ----------------------------------------
        BYTE                   En3
        BYTE           N07     Fs2
        BYTE           N07     An2
        BYTE   W16
        BYTE                   Gn3
        BYTE           N07     Fs2
        BYTE           N07     An2
        BYTE   W08
        BYTE                   Fs3
        BYTE           N07     Fs2
        BYTE           N07     An2
        BYTE   W08
        BYTE                   Gn3
        BYTE           N07     Fs2
        BYTE           N07     An2
        BYTE   W08
        BYTE                   Fs3
        BYTE           N07     Fs2
        BYTE           N07     An2
        BYTE   W08
        BYTE                   En3
        BYTE           N07     Fs2
        BYTE           N07     An2
        BYTE   W08
        BYTE                   Fs3
        BYTE           N07     Gn2
        BYTE           N07     Bn2
        BYTE   W08
        BYTE                   Gn3
        BYTE           N07     An2
        BYTE           N07     Cn3
        BYTE   W08
        BYTE                   An3
        BYTE           N07     Bn2
        BYTE           N07     Dn3
        BYTE   W08
        BYTE                   Gn3
        BYTE           N07     Cn3
        BYTE           N07     Gn2
        BYTE   W08
        BYTE                   Fs3   v111
        BYTE           N07     Bn2
        BYTE           N07     Fs2
        BYTE   W08
// 212   ----------------------------------------
        BYTE                   Bn2
        BYTE           N07     En3
        BYTE   W16
        BYTE                   Gn3
        BYTE           N07     Bn2
        BYTE   W08
        BYTE                   Fs3
        BYTE           N07     Bn2
        BYTE   W08
        BYTE                   Gn3
        BYTE           N07     Bn2
        BYTE   W08
        BYTE                   Fs3
        BYTE           N07     Bn2
        BYTE   W08
        BYTE                   Bn2
        BYTE           N07     En3
        BYTE   W16
        BYTE                   Gn3
        BYTE           N07     Bn2
        BYTE   W08
        BYTE                   Bn2
        BYTE           N07     Fs3
        BYTE   W08
        BYTE                   Gn3
        BYTE           N07     Bn2
        BYTE   W08
        BYTE                   Bn2
        BYTE           N07     Fs3
        BYTE   W08
// 213   ----------------------------------------
        BYTE                   An2
        BYTE           N07     En3
        BYTE   W16
        BYTE                   An2
        BYTE           N07     Gn3
        BYTE   W08
        BYTE                   An2
        BYTE           N07     Fs3
        BYTE   W08
        BYTE                   An2
        BYTE           N07     Gn3
        BYTE   W08
        BYTE                   An2
        BYTE           N07     Fs3
        BYTE   W08
        BYTE                   An2
        BYTE           N07     En3
        BYTE   W08
        BYTE                   Bn2
        BYTE           N07     Fs3
        BYTE   W08
        BYTE                   Cn3
        BYTE           N07     Gn3
        BYTE   W08
        BYTE                   Dn3
        BYTE           N07     An3
        BYTE   W08
        BYTE                   Cn3
        BYTE           N07     Gn3
        BYTE   W08
        BYTE                   Bn2
        BYTE           N07     Fs3
        BYTE   W08
// 214   ----------------------------------------
        BYTE                   En3
        BYTE           N07     Gn2
        BYTE           N07     Bn2
        BYTE   W16
        BYTE                   Bn2
        BYTE           N07     Gn2
        BYTE           N07     Gn3
        BYTE   W08
        BYTE                   Bn2
        BYTE           N07     Gn2
        BYTE           N07     Fs3
        BYTE   W08
        BYTE                   Bn2
        BYTE           N07     Gn2
        BYTE           N07     Gn3
        BYTE   W08
        BYTE                   Bn2
        BYTE           N07     Gn2
        BYTE           N07     Fs3
        BYTE   W08
        BYTE                   En3
        BYTE           N07     Gn2
        BYTE           N07     Bn2
        BYTE   W16
        BYTE                   Bn2
        BYTE           N07     Gn2
        BYTE           N07     Gn3
        BYTE   W08
        BYTE                   Fs3
        BYTE           N07     Gn2
        BYTE           N07     Bn2
        BYTE   W08
        BYTE                   Bn2
        BYTE           N07     Gn2
        BYTE           N07     Gn3
        BYTE   W08
        BYTE                   Fs3
        BYTE           N07     Gn2
        BYTE           N07     Bn2
        BYTE   W08
// 215   ----------------------------------------
        BYTE                   En3
        BYTE           N07     Fs2
        BYTE           N07     An2
        BYTE   W16
        BYTE                   Gn3
        BYTE           N07     Fs2
        BYTE           N07     An2
        BYTE   W08
        BYTE                   Fs3
        BYTE           N07     Fs2
        BYTE           N07     An2
        BYTE   W08
        BYTE                   Gn3
        BYTE           N07     Fs2
        BYTE           N07     An2
        BYTE   W08
        BYTE                   Fs3
        BYTE           N07     Fs2
        BYTE           N07     An2
        BYTE   W08
        BYTE           N21     Bn2
        BYTE           N21     En2
        BYTE           N21     En3
        BYTE   W24
        BYTE                   Ds3
        BYTE           N21     Ds2
        BYTE           N21     Bn2
        BYTE   W24
// 216   ----------------------------------------
        BYTE           N19     Cn2   v114
        BYTE   W24
        BYTE           N10     Cn2   v118
        BYTE   W12
        BYTE                   Cn2
        BYTE   W12
        BYTE           N19
        BYTE   W24
        BYTE           N10
        BYTE   W12
        BYTE                   Cn2
        BYTE   W12
// 217   ----------------------------------------
        BYTE           N19
        BYTE   W24
        BYTE           N10
        BYTE   W12
        BYTE                   Cn2
        BYTE   W12
        BYTE           N19
        BYTE   W24
        BYTE           N10
        BYTE   W12
        BYTE                   Cn2
        BYTE   W12
// 218   ----------------------------------------
Records_Medley_6_218:
        BYTE           N19     Dn2   v118
        BYTE   W24
        BYTE           N10
        BYTE   W12
        BYTE                   Dn2
        BYTE   W12
        BYTE           N19
        BYTE   W24
        BYTE           N10
        BYTE   W12
        BYTE                   Dn2
        BYTE   W12
        BYTE   PEND
// 219   ----------------------------------------
        BYTE   PATT
         POIN2  Records_Medley_6_218
// 220   ----------------------------------------
Records_Medley_6_220:
        BYTE           N19     Ds2   v118
        BYTE   W24
        BYTE           N10
        BYTE   W12
        BYTE                   Ds2
        BYTE   W12
        BYTE           N19
        BYTE   W24
        BYTE           N10
        BYTE   W12
        BYTE                   Ds2
        BYTE   W12
        BYTE   PEND
// 221   ----------------------------------------
        BYTE   PATT
         POIN2  Records_Medley_6_220
// 222   ----------------------------------------
        BYTE           N96     Dn2   v118
        BYTE   W96
// 223   ----------------------------------------
        BYTE   W48
        BYTE   FINE

//****************** Track 7 (Midi-Chn.7) ******************//

Records_Medley_7:
        BYTE   KEYSH   Records_Medley_key+0
// 000   ----------------------------------------
        BYTE           VOICE   124
        BYTE           VOL     42
        BYTE   W96
// 001   ----------------------------------------
        BYTE   W96
// 002   ----------------------------------------
        BYTE   W96
// 003   ----------------------------------------
        BYTE   W96
// 004   ----------------------------------------
        BYTE   W96
// 005   ----------------------------------------
        BYTE   W96
// 006   ----------------------------------------
        BYTE   W96
// 007   ----------------------------------------
        BYTE   W96
// 008   ----------------------------------------
        BYTE   W96
// 009   ----------------------------------------
        BYTE   W96
// 010   ----------------------------------------
        BYTE   W96
// 011   ----------------------------------------
        BYTE   W96
// 012   ----------------------------------------
        BYTE   W96
// 013   ----------------------------------------
        BYTE   W96
// 014   ----------------------------------------
        BYTE   W96
// 015   ----------------------------------------
        BYTE   W96
// 016   ----------------------------------------
        BYTE           N24     Gn1   v100
        BYTE           N06     Dn1
        BYTE   W24
        BYTE                   Dn1
        BYTE   W09
        BYTE                   Dn1
        BYTE   W06
        BYTE                   Dn1
        BYTE   W09
        BYTE                   Dn1
        BYTE   W24
        BYTE                   Dn1
        BYTE   W09
        BYTE                   Dn1
        BYTE   W06
        BYTE                   Dn1
        BYTE   W09
// 017   ----------------------------------------
        BYTE                   Dn1
        BYTE   W24
        BYTE                   Dn1
        BYTE   W09
        BYTE                   Dn1
        BYTE   W06
        BYTE                   Dn1
        BYTE   W09
        BYTE                   Dn1
        BYTE   W24
        BYTE           N01     Fs1
        BYTE           N06     Dn1
        BYTE           N24     An2
        BYTE   W24
// 018   ----------------------------------------
Records_Medley_7_18:
        BYTE           N01     Fs1   v100
        BYTE           N24     Cs2
        BYTE           N06     Cn1
        BYTE   W08
        BYTE           N01     Fs1
        BYTE   W07
        BYTE           N06     Cn1
        BYTE   W01
        BYTE           N01     Fs1
        BYTE   W08
        BYTE                   Fs1
        BYTE           N06     Cn1
        BYTE           N06     Dn1
        BYTE   W03
        BYTE           N01     Fs1
        BYTE   W03
        BYTE                   Fs1
        BYTE   W03
        BYTE                   Fs1
        BYTE   W03
        BYTE                   Fs1
        BYTE   W03
        BYTE                   Fs1
        BYTE   W03
        BYTE                   Fs1
        BYTE   W03
        BYTE                   Fs1
        BYTE   W03
        BYTE                   Fs1
        BYTE           N06     Cn1
        BYTE   W08
        BYTE           N01     Fs1
        BYTE   W07
        BYTE           N06     Cn1
        BYTE   W01
        BYTE           N01     Fs1
        BYTE   W08
        BYTE                   Fs1
        BYTE           N06     Cn1
        BYTE           N06     Dn1
        BYTE   W03
        BYTE           N01     Fs1
        BYTE   W03
        BYTE                   Fs1
        BYTE   W03
        BYTE                   Fs1
        BYTE   W03
        BYTE                   Fs1
        BYTE   W03
        BYTE                   Fs1
        BYTE   W03
        BYTE                   Fs1
        BYTE   W03
        BYTE                   Fs1
        BYTE   W03
        BYTE   PEND
// 019   ----------------------------------------
Records_Medley_7_19:
        BYTE           N01     Fs1   v100
        BYTE           N06     Cn1
        BYTE   W08
        BYTE           N01     Fs1
        BYTE   W07
        BYTE           N06     Cn1
        BYTE   W01
        BYTE           N01     Fs1
        BYTE   W08
        BYTE                   Fs1
        BYTE           N06     Cn1
        BYTE           N06     Dn1
        BYTE   W03
        BYTE           N01     Fs1
        BYTE   W03
        BYTE                   Fs1
        BYTE   W03
        BYTE                   Fs1
        BYTE   W03
        BYTE                   Fs1
        BYTE   W03
        BYTE                   Fs1
        BYTE   W03
        BYTE                   Fs1
        BYTE   W03
        BYTE                   Fs1
        BYTE   W03
        BYTE                   Fs1
        BYTE           N06     Cn1
        BYTE   W08
        BYTE           N01     Fs1
        BYTE   W01
        BYTE           N06     Cn1
        BYTE   W06
        BYTE                   Cn1
        BYTE   W01
        BYTE           N01     Fs1
        BYTE   W08
        BYTE                   Fs1
        BYTE           N06     Cn1
        BYTE           N06     Dn1
        BYTE   W03
        BYTE           N01     Fs1
        BYTE   W03
        BYTE                   Fs1
        BYTE   W03
        BYTE                   Fs1
        BYTE           N06     Cn1
        BYTE   W03
        BYTE           N01     Fs1
        BYTE   W03
        BYTE                   Fs1
        BYTE           N06     Cn1
        BYTE           N06     Dn1
        BYTE   W03
        BYTE           N01     Fs1
        BYTE   W03
        BYTE                   Fs1
        BYTE   W03
        BYTE   PEND
// 020   ----------------------------------------
        BYTE   PATT
         POIN2  Records_Medley_7_18
// 021   ----------------------------------------
        BYTE   PATT
         POIN2  Records_Medley_7_19
// 022   ----------------------------------------
        BYTE   PATT
         POIN2  Records_Medley_7_18
// 023   ----------------------------------------
        BYTE   PATT
         POIN2  Records_Medley_7_19
// 024   ----------------------------------------
        BYTE   PATT
         POIN2  Records_Medley_7_18
// 025   ----------------------------------------
        BYTE   PATT
         POIN2  Records_Medley_7_19
// 026   ----------------------------------------
        BYTE   PATT
         POIN2  Records_Medley_7_18
// 027   ----------------------------------------
        BYTE   PATT
         POIN2  Records_Medley_7_19
// 028   ----------------------------------------
        BYTE   PATT
         POIN2  Records_Medley_7_18
// 029   ----------------------------------------
        BYTE   PATT
         POIN2  Records_Medley_7_19
// 030   ----------------------------------------
        BYTE   PATT
         POIN2  Records_Medley_7_18
// 031   ----------------------------------------
        BYTE   PATT
         POIN2  Records_Medley_7_19
// 032   ----------------------------------------
        BYTE   PATT
         POIN2  Records_Medley_7_18
// 033   ----------------------------------------
        BYTE   PATT
         POIN2  Records_Medley_7_19
// 034   ----------------------------------------
        BYTE   PATT
         POIN2  Records_Medley_7_18
// 035   ----------------------------------------
        BYTE   PATT
         POIN2  Records_Medley_7_19
// 036   ----------------------------------------
        BYTE   PATT
         POIN2  Records_Medley_7_18
// 037   ----------------------------------------
        BYTE           N01     Fs1   v100
        BYTE           N06     Cn1
        BYTE   W32
        BYTE   W01
        BYTE           N01     Fs1
        BYTE   W03
        BYTE                   Fs1
        BYTE   W03
        BYTE                   Fs1
        BYTE   W03
        BYTE                   Fs1
        BYTE   W03
        BYTE                   Fs1
        BYTE   W03
        BYTE                   Fs1
        BYTE           N44     Cs0   v127   gtp3
        BYTE           N06     Cn1   v100
        BYTE   W08
        BYTE           N01     Fs1
        BYTE   W01
        BYTE           N06     Cn1
        BYTE   W06
        BYTE                   Cn1
        BYTE   W01
        BYTE           N01     Fs1
        BYTE   W08
        BYTE                   Fs1
        BYTE           N06     Cn1
        BYTE           N06     Dn1
        BYTE   W03
        BYTE           N01     Fs1
        BYTE   W03
        BYTE                   Fs1
        BYTE   W03
        BYTE                   Fs1
        BYTE           N06     Cn1
        BYTE   W03
        BYTE           N01     Fs1
        BYTE   W03
        BYTE                   Fs1
        BYTE           N06     Cn1
        BYTE           N06     Dn1
        BYTE   W03
        BYTE           N01     Fs1
        BYTE   W03
        BYTE                   Fs1
        BYTE   W03
// 038   ----------------------------------------
        BYTE   PATT
         POIN2  Records_Medley_7_18
// 039   ----------------------------------------
        BYTE   PATT
         POIN2  Records_Medley_7_19
// 040   ----------------------------------------
        BYTE   PATT
         POIN2  Records_Medley_7_18
// 041   ----------------------------------------
        BYTE   PATT
         POIN2  Records_Medley_7_19
// 042   ----------------------------------------
        BYTE   PATT
         POIN2  Records_Medley_7_18
// 043   ----------------------------------------
        BYTE   PATT
         POIN2  Records_Medley_7_19
// 044   ----------------------------------------
        BYTE   PATT
         POIN2  Records_Medley_7_18
// 045   ----------------------------------------
        BYTE           N01     Fs1   v100
        BYTE           N92     Cs0   v123   gtp3
        BYTE           N06     Cn1   v100
        BYTE   W24
        BYTE           N01     Fs1
        BYTE           N06     Cn1
        BYTE           N06     Dn1
        BYTE   W24
        BYTE           N01     Fs1
        BYTE           N06     Cn1
        BYTE   W15
        BYTE                   Cn1
        BYTE   W01
        BYTE           N01     Fs1
        BYTE   W08
        BYTE                   Fs1
        BYTE           N24     Cs2
        BYTE           N06     Cn1
        BYTE           N06     Dn1
        BYTE   W03
        BYTE           N01     Fs1
        BYTE   W06
        BYTE                   Fs1
        BYTE           N06     Cn1
        BYTE   W06
        BYTE           N01     Fs1
        BYTE           N06     Cn1
        BYTE           N06     Dn1
        BYTE   W09
// 046   ----------------------------------------
        BYTE   PATT
         POIN2  Records_Medley_7_18
// 047   ----------------------------------------
        BYTE   PATT
         POIN2  Records_Medley_7_19
// 048   ----------------------------------------
        BYTE   PATT
         POIN2  Records_Medley_7_18
// 049   ----------------------------------------
        BYTE   PATT
         POIN2  Records_Medley_7_19
// 050   ----------------------------------------
        BYTE   PATT
         POIN2  Records_Medley_7_18
// 051   ----------------------------------------
        BYTE   PATT
         POIN2  Records_Medley_7_19
// 052   ----------------------------------------
        BYTE   PATT
         POIN2  Records_Medley_7_18
// 053   ----------------------------------------
Records_Medley_7_53:
        BYTE           N01     Fs1   v100
        BYTE           N06     Cn1
        BYTE   W08
        BYTE           N01     Fs1
        BYTE   W07
        BYTE           N06     Cn1
        BYTE   W01
        BYTE           N01     Fs1
        BYTE   W08
        BYTE                   Fs1
        BYTE           N06     Cn1
        BYTE           N06     Dn1
        BYTE   W03
        BYTE           N01     Fs1
        BYTE   W03
        BYTE                   Fs1
        BYTE   W03
        BYTE                   Fs1
        BYTE   W03
        BYTE                   Fs1
        BYTE   W03
        BYTE                   Fs1
        BYTE   W03
        BYTE                   Fs1
        BYTE   W03
        BYTE                   Fs1
        BYTE   W03
        BYTE                   Fs1
        BYTE           N06     Cn1
        BYTE   W08
        BYTE           N01     Fs1
        BYTE   W07
        BYTE           N06     Cn1
        BYTE   W01
        BYTE           N01     Fs1
        BYTE   W08
        BYTE                   Fs1
        BYTE           N06     Cn1
        BYTE           N06     Dn1
        BYTE   W03
        BYTE           N01     Fs1
        BYTE   W03
        BYTE                   Fs1
        BYTE   W03
        BYTE                   Fs1
        BYTE   W03
        BYTE                   Fs1
        BYTE   W03
        BYTE                   Fs1
        BYTE   W03
        BYTE                   Fs1
        BYTE   W03
        BYTE                   Fs1
        BYTE   W03
        BYTE   PEND
// 054   ----------------------------------------
        BYTE   PATT
         POIN2  Records_Medley_7_53
// 055   ----------------------------------------
        BYTE           N01     Fs1   v100
        BYTE           N92     Cs0   v127   gtp3
        BYTE           N06     Cn1   v100
        BYTE   W08
        BYTE           N01     Fs1
        BYTE   W07
        BYTE           N06     Cn1
        BYTE   W01
        BYTE           N01     Fs1
        BYTE   W04
        BYTE           VOL     41
        BYTE   W01
        BYTE                   42
        BYTE   W03
        BYTE           N01
        BYTE           N06     Cn1
        BYTE           N06     Dn1
        BYTE           VOL     41
        BYTE   W03
        BYTE           N01     Fs1
        BYTE   W03
        BYTE                   Fs1
        BYTE           VOL     40
        BYTE   W03
        BYTE           N01
        BYTE   W03
        BYTE                   Fs1
        BYTE   W02
        BYTE           VOL     39
        BYTE   W01
        BYTE           N01
        BYTE   W03
        BYTE                   Fs1
        BYTE   W03
        BYTE                   Fs1
        BYTE   W02
        BYTE           VOL     38
        BYTE   W01
        BYTE           N01
        BYTE           N24     Cs2
        BYTE           N06     Cn1
        BYTE   W08
        BYTE           N01     Fs1
        BYTE   W01
        BYTE           VOL     37
        BYTE   W06
        BYTE           N06     Cn1
        BYTE   W01
        BYTE           N01     Fs1
        BYTE   W04
        BYTE           VOL     36
        BYTE   W01
        BYTE                   37
        BYTE   W02
        BYTE                   36
        BYTE   W01
        BYTE                   38
        BYTE           N01
        BYTE           N06     Cn1
        BYTE           N06     Dn1
        BYTE   W03
        BYTE           N01     Fs1
        BYTE           VOL     36
        BYTE   W03
        BYTE           N01
        BYTE           VOL     35
        BYTE   W03
        BYTE           N01
        BYTE   W03
        BYTE                   Fs1
        BYTE           N06     Dn1
        BYTE   W03
        BYTE           N01     Fs1
        BYTE   W02
        BYTE           VOL     34
        BYTE   W01
        BYTE                   35
        BYTE           N01
        BYTE   W02
        BYTE           VOL     34
        BYTE   W01
        BYTE           N01
        BYTE   W03
// 056   ----------------------------------------
        BYTE   W68
        BYTE   W01
        BYTE           VOL     43
        BYTE   W03
// 057   ----------------------------------------
        BYTE   W72
// 058   ----------------------------------------
        BYTE   W72
// 059   ----------------------------------------
        BYTE   W72
// 060   ----------------------------------------
        BYTE   W72
// 061   ----------------------------------------
        BYTE   W72
// 062   ----------------------------------------
        BYTE   W72
// 063   ----------------------------------------
        BYTE   W72
// 064   ----------------------------------------
        BYTE   W72
// 065   ----------------------------------------
        BYTE   W72
// 066   ----------------------------------------
        BYTE   W72
// 067   ----------------------------------------
        BYTE   W72
// 068   ----------------------------------------
        BYTE   W72
// 069   ----------------------------------------
        BYTE   W72
// 070   ----------------------------------------
        BYTE   W72
// 071   ----------------------------------------
        BYTE   W72
// 072   ----------------------------------------
        BYTE   W72
// 073   ----------------------------------------
        BYTE   W72
// 074   ----------------------------------------
        BYTE   W72
// 075   ----------------------------------------
        BYTE   W72
// 076   ----------------------------------------
        BYTE   W72
// 077   ----------------------------------------
        BYTE   W72
// 078   ----------------------------------------
        BYTE   W72
// 079   ----------------------------------------
        BYTE   W72
// 080   ----------------------------------------
        BYTE   W72
// 081   ----------------------------------------
        BYTE   W72
// 082   ----------------------------------------
        BYTE   W72
// 083   ----------------------------------------
        BYTE   W72
// 084   ----------------------------------------
        BYTE   W72
// 085   ----------------------------------------
        BYTE   W72
// 086   ----------------------------------------
        BYTE   W72
// 087   ----------------------------------------
        BYTE           N06     Dn1
        BYTE   W24
        BYTE                   Dn1
        BYTE   W24
        BYTE                   Dn1
        BYTE   W12
        BYTE                   Dn1
        BYTE   W12
// 088   ----------------------------------------
Records_Medley_7_88:
        BYTE           N01     Fs1   v100
        BYTE           N24     Cs2
        BYTE           N06     Cn1
        BYTE   W24
        BYTE           N01     Fs1
        BYTE           N06     Cn1
        BYTE   W08
        BYTE           N01     Fs1
        BYTE   W08
        BYTE                   Fs1
        BYTE   W08
        BYTE                   Fs1
        BYTE           N06     Cn1
        BYTE   W16
        BYTE           N01     Fs1
        BYTE   W08
        BYTE                   Fs1
        BYTE           N24     Ds2
        BYTE           N06     Cn1
        BYTE   W04
        BYTE           N01     Fs1
        BYTE   W04
        BYTE                   Fs1
        BYTE   W04
        BYTE                   Fs1
        BYTE   W04
        BYTE                   Fs1
        BYTE   W04
        BYTE                   Fs1
        BYTE   W04
        BYTE   PEND
// 089   ----------------------------------------
Records_Medley_7_89:
        BYTE           N01     Fs1   v100
        BYTE           N06     Cn1
        BYTE   W24
        BYTE           N01     Fs1
        BYTE           N06     Cn1
        BYTE   W08
        BYTE           N01     Fs1
        BYTE   W08
        BYTE                   Fs1
        BYTE   W08
        BYTE                   Fs1
        BYTE           N06     Cn1
        BYTE   W16
        BYTE           N01     Fs1
        BYTE   W08
        BYTE                   Fs1
        BYTE           N24     Ds2
        BYTE           N06     Cn1
        BYTE   W04
        BYTE           N01     Fs1
        BYTE   W04
        BYTE                   Fs1
        BYTE   W04
        BYTE                   Fs1
        BYTE   W04
        BYTE                   Fs1
        BYTE   W04
        BYTE                   Fs1
        BYTE   W04
        BYTE   PEND
// 090   ----------------------------------------
        BYTE   PATT
         POIN2  Records_Medley_7_88
// 091   ----------------------------------------
        BYTE   PATT
         POIN2  Records_Medley_7_89
// 092   ----------------------------------------
        BYTE   PATT
         POIN2  Records_Medley_7_88
// 093   ----------------------------------------
        BYTE   PATT
         POIN2  Records_Medley_7_89
// 094   ----------------------------------------
Records_Medley_7_94:
        BYTE           N24     Cs2   v100
        BYTE           N06     Cn1
        BYTE   W72
        BYTE                   Cn1
        BYTE   W24
        BYTE   PEND
// 095   ----------------------------------------
Records_Medley_7_95:
        BYTE           N24     Cs2   v100
        BYTE           N06     Cn1
        BYTE   W60
        BYTE   W03
        BYTE                   Cn1
        BYTE   W09
        BYTE           N24     Cs2
        BYTE           N06     Dn1
        BYTE   W24
        BYTE   PEND
// 096   ----------------------------------------
Records_Medley_7_96:
        BYTE           N01     Fs1   v100
        BYTE           N24     Ds2
        BYTE           N06     Cn1
        BYTE   W24
        BYTE           N01     Fs1
        BYTE           N06     Cn1
        BYTE   W08
        BYTE           N01     Fs1
        BYTE   W08
        BYTE                   Fs1
        BYTE   W08
        BYTE                   Fs1
        BYTE           N24     Ds2
        BYTE           N06     Cn1
        BYTE   W16
        BYTE           N01     Fs1
        BYTE   W08
        BYTE                   Fs1
        BYTE           N24     Ds2
        BYTE           N06     Cn1
        BYTE   W04
        BYTE           N01     Fs1
        BYTE   W04
        BYTE                   Fs1
        BYTE   W04
        BYTE                   Fs1
        BYTE   W04
        BYTE                   Fs1
        BYTE   W04
        BYTE                   Fs1
        BYTE   W04
        BYTE   PEND
// 097   ----------------------------------------
        BYTE   PATT
         POIN2  Records_Medley_7_96
// 098   ----------------------------------------
        BYTE   PATT
         POIN2  Records_Medley_7_96
// 099   ----------------------------------------
        BYTE   PATT
         POIN2  Records_Medley_7_96
// 100   ----------------------------------------
        BYTE   PATT
         POIN2  Records_Medley_7_96
// 101   ----------------------------------------
        BYTE   PATT
         POIN2  Records_Medley_7_96
// 102   ----------------------------------------
        BYTE   PATT
         POIN2  Records_Medley_7_96
// 103   ----------------------------------------
        BYTE   PATT
         POIN2  Records_Medley_7_96
// 104   ----------------------------------------
Records_Medley_7_104:
        BYTE           N01     Fs1   v100
        BYTE           N24     Cs2
        BYTE           N06     Cn1
        BYTE   W24
        BYTE           N01     Fs1
        BYTE           N06     Cn1
        BYTE   W08
        BYTE           N01     Fs1
        BYTE   W08
        BYTE                   Fs1
        BYTE   W08
        BYTE                   Fs1
        BYTE           N06     Cn1
        BYTE   W16
        BYTE           N01     Fs1
        BYTE   W08
        BYTE                   Fs1
        BYTE           N06     Cn1
        BYTE   W08
        BYTE           N01     Fs1
        BYTE   W08
        BYTE                   Fs1
        BYTE   W08
        BYTE   PEND
// 105   ----------------------------------------
Records_Medley_7_105:
        BYTE           N01     Fs1   v100
        BYTE           N06     Cn1
        BYTE   W24
        BYTE           N01     Fs1
        BYTE           N06     Cn1
        BYTE   W08
        BYTE           N01     Fs1
        BYTE   W08
        BYTE                   Fs1
        BYTE   W08
        BYTE                   Fs1
        BYTE           N06     Cn1
        BYTE   W16
        BYTE           N01     Fs1
        BYTE   W08
        BYTE                   Fs1
        BYTE           N06     Cn1
        BYTE   W08
        BYTE           N01     Fs1
        BYTE   W08
        BYTE                   Fs1
        BYTE   W08
        BYTE   PEND
// 106   ----------------------------------------
        BYTE   PATT
         POIN2  Records_Medley_7_105
// 107   ----------------------------------------
        BYTE   PATT
         POIN2  Records_Medley_7_105
// 108   ----------------------------------------
        BYTE           N01     Fs1   v100
        BYTE           N24     Ds2
        BYTE           N06     Cn1
        BYTE   W24
        BYTE           N01     Fs1
        BYTE           N06     Cn1
        BYTE   W08
        BYTE           N01     Fs1
        BYTE   W08
        BYTE                   Fs1
        BYTE   W08
        BYTE                   Fs1
        BYTE           N06     Cn1
        BYTE   W16
        BYTE           N01     Fs1
        BYTE   W08
        BYTE                   Fs1
        BYTE           N06     Cn1
        BYTE   W08
        BYTE           N01     Fs1
        BYTE   W08
        BYTE                   Fs1
        BYTE   W08
// 109   ----------------------------------------
        BYTE   PATT
         POIN2  Records_Medley_7_105
// 110   ----------------------------------------
        BYTE   PATT
         POIN2  Records_Medley_7_105
// 111   ----------------------------------------
        BYTE   PATT
         POIN2  Records_Medley_7_105
// 112   ----------------------------------------
        BYTE   PATT
         POIN2  Records_Medley_7_104
// 113   ----------------------------------------
        BYTE   PATT
         POIN2  Records_Medley_7_105
// 114   ----------------------------------------
        BYTE   PATT
         POIN2  Records_Medley_7_105
// 115   ----------------------------------------
        BYTE   PATT
         POIN2  Records_Medley_7_105
// 116   ----------------------------------------
        BYTE   PATT
         POIN2  Records_Medley_7_105
// 117   ----------------------------------------
        BYTE   PATT
         POIN2  Records_Medley_7_105
// 118   ----------------------------------------
        BYTE   PATT
         POIN2  Records_Medley_7_105
// 119   ----------------------------------------
        BYTE           N01     Fs1   v100
        BYTE           N06     Cn1
        BYTE   W24
        BYTE           N01     Fs1
        BYTE           N06     Cn1
        BYTE   W08
        BYTE           N01     Fs1
        BYTE   W08
        BYTE                   Fs1
        BYTE   W08
        BYTE                   Fs1
        BYTE           N06     Cn1
        BYTE   W08
        BYTE           N01     Fs1
        BYTE   W08
        BYTE                   Fs1
        BYTE   W08
        BYTE                   Fs1
        BYTE           N06     Cn1
        BYTE   W08
        BYTE           N01     Fs1
        BYTE   W08
        BYTE                   Fs1
        BYTE   W08
// 120   ----------------------------------------
        BYTE   PATT
         POIN2  Records_Medley_7_88
// 121   ----------------------------------------
        BYTE   PATT
         POIN2  Records_Medley_7_89
// 122   ----------------------------------------
        BYTE   PATT
         POIN2  Records_Medley_7_88
// 123   ----------------------------------------
        BYTE   PATT
         POIN2  Records_Medley_7_89
// 124   ----------------------------------------
        BYTE   PATT
         POIN2  Records_Medley_7_88
// 125   ----------------------------------------
        BYTE   PATT
         POIN2  Records_Medley_7_89
// 126   ----------------------------------------
        BYTE   PATT
         POIN2  Records_Medley_7_94
// 127   ----------------------------------------
        BYTE   PATT
         POIN2  Records_Medley_7_95
// 128   ----------------------------------------
        BYTE   PATT
         POIN2  Records_Medley_7_96
// 129   ----------------------------------------
        BYTE   PATT
         POIN2  Records_Medley_7_96
// 130   ----------------------------------------
        BYTE   PATT
         POIN2  Records_Medley_7_96
// 131   ----------------------------------------
        BYTE   PATT
         POIN2  Records_Medley_7_96
// 132   ----------------------------------------
        BYTE   PATT
         POIN2  Records_Medley_7_96
// 133   ----------------------------------------
        BYTE   PATT
         POIN2  Records_Medley_7_96
// 134   ----------------------------------------
        BYTE   PATT
         POIN2  Records_Medley_7_96
// 135   ----------------------------------------
        BYTE   PATT
         POIN2  Records_Medley_7_96
// 136   ----------------------------------------
        BYTE           N01     Fs1   v100
        BYTE           N24     Cs2
        BYTE           N06     Cn1
        BYTE   W16
        BYTE           N01     Fs1
        BYTE   W08
        BYTE                   Fs1
        BYTE           N06     Dn1
        BYTE   W16
        BYTE           N01     Fs1
        BYTE   W08
        BYTE                   Fs1
        BYTE           N06     Cn1
        BYTE   W16
        BYTE           N01     Fs1
        BYTE   W08
        BYTE                   Fs1
        BYTE           N06     Dn1
        BYTE   W16
        BYTE           N01     Fs1
        BYTE   W08
// 137   ----------------------------------------
Records_Medley_7_137:
        BYTE           N01     Fs1   v100
        BYTE           N06     Cn1
        BYTE   W16
        BYTE           N01     Fs1
        BYTE   W08
        BYTE                   Fs1
        BYTE           N06     Dn1
        BYTE   W16
        BYTE           N01     Fs1
        BYTE   W08
        BYTE                   Fs1
        BYTE           N06     Cn1
        BYTE   W16
        BYTE           N01     Fs1
        BYTE   W08
        BYTE                   Fs1
        BYTE           N06     Dn1
        BYTE   W16
        BYTE           N01     Fs1
        BYTE   W08
        BYTE   PEND
// 138   ----------------------------------------
        BYTE   PATT
         POIN2  Records_Medley_7_137
// 139   ----------------------------------------
        BYTE   PATT
         POIN2  Records_Medley_7_137
// 140   ----------------------------------------
        BYTE   PATT
         POIN2  Records_Medley_7_137
// 141   ----------------------------------------
        BYTE   PATT
         POIN2  Records_Medley_7_137
// 142   ----------------------------------------
        BYTE   PATT
         POIN2  Records_Medley_7_137
// 143   ----------------------------------------
        BYTE           N01     Fs1   v100
        BYTE           N06     Cn1
        BYTE   W16
        BYTE           N01     Fs1
        BYTE   W08
        BYTE                   Fs1
        BYTE           N24     Ds2
        BYTE           N06     Dn1
        BYTE   W16
        BYTE           N01     Fs1
        BYTE   W08
        BYTE                   Fs1
        BYTE           N24     Ds2
        BYTE           N06     Cn1
        BYTE   W16
        BYTE           N01     Fs1
        BYTE   W08
        BYTE                   Fs1
        BYTE           N24     Ds2
        BYTE           N06     Dn1
        BYTE   W16
        BYTE           N01     Fs1
        BYTE   W08
// 144   ----------------------------------------
Records_Medley_7_144:
        BYTE           N01     Fs1   v100
        BYTE           N24     Ds2
        BYTE           N06     Cn1
        BYTE   W16
        BYTE           N01     Fs1
        BYTE   W08
        BYTE                   Fs1
        BYTE           N06     Dn1
        BYTE   W16
        BYTE           N01     Fs1
        BYTE   W08
        BYTE                   Fs1
        BYTE           N24     Ds2
        BYTE           N06     Cn1
        BYTE   W16
        BYTE           N01     Fs1
        BYTE   W08
        BYTE                   Fs1
        BYTE           N06     Dn1
        BYTE   W16
        BYTE           N01     Fs1
        BYTE   W08
        BYTE   PEND
// 145   ----------------------------------------
        BYTE   PATT
         POIN2  Records_Medley_7_144
// 146   ----------------------------------------
        BYTE   PATT
         POIN2  Records_Medley_7_144
// 147   ----------------------------------------
        BYTE   PATT
         POIN2  Records_Medley_7_144
// 148   ----------------------------------------
        BYTE           N01     Fs1   v100
        BYTE           N24     Cs2
        BYTE           N06     Cn1
        BYTE   W16
        BYTE           N01     Fs1
        BYTE   W08
        BYTE                   Fs1
        BYTE           N06     Dn1
        BYTE   W16
        BYTE           N01     Fs1
        BYTE   W08
        BYTE                   Fs1
        BYTE           N24     Ds2
        BYTE           N06     Cn1
        BYTE   W16
        BYTE           N01     Fs1
        BYTE   W08
        BYTE                   Fs1
        BYTE           N06     Dn1
        BYTE   W16
        BYTE           N01     Fs1
        BYTE   W08
// 149   ----------------------------------------
        BYTE   PATT
         POIN2  Records_Medley_7_144
// 150   ----------------------------------------
        BYTE   PATT
         POIN2  Records_Medley_7_144
// 151   ----------------------------------------
        BYTE           N01     Fs1   v100
        BYTE           N24     Ds2
        BYTE           N06     Cn1
        BYTE   W16
        BYTE           N01     Fs1
        BYTE   W08
        BYTE                   Fs1
        BYTE           N06     Dn1
        BYTE   W16
        BYTE           N01     Fs1
        BYTE   W08
        BYTE                   Fs1
        BYTE           N24     Ds2
        BYTE           N06     Cn1
        BYTE   W08
        BYTE           N01     Fs1
        BYTE   W08
        BYTE                   Fs1
        BYTE   W08
        BYTE                   Fs1
        BYTE           N24     Ds2
        BYTE           N06     Dn1
        BYTE   W08
        BYTE           N01     Fs1
        BYTE   W07
        BYTE           N06     Dn1
        BYTE   W01
        BYTE           N01     Fs1
        BYTE   W08
// 152   ----------------------------------------
        BYTE                   Fs1
        BYTE           N24     Cs2
        BYTE           N06     Cn1
        BYTE   W24
        BYTE           N01     Fs1
        BYTE           N06     Cn1
        BYTE   W24
        BYTE           N01     Fs1
        BYTE           N06     Cn1
        BYTE   W24
        BYTE           N01     Fs1
        BYTE           N06     Cn1
        BYTE   W24
// 153   ----------------------------------------
Records_Medley_7_153:
        BYTE           N01     Fs1   v100
        BYTE           N24     Ds2
        BYTE           N06     Cn1
        BYTE   W24
        BYTE           N01     Fs1
        BYTE           N06     Cn1
        BYTE   W24
        BYTE           N01     Fs1
        BYTE           N06     Cn1
        BYTE   W24
        BYTE           N01     Fs1
        BYTE           N06     Dn1
        BYTE   W24
        BYTE   PEND
// 154   ----------------------------------------
Records_Medley_7_154:
        BYTE           N01     Fs1   v100
        BYTE           N24     Ds2
        BYTE           N06     Cn1
        BYTE   W24
        BYTE           N01     Fs1
        BYTE           N06     Cn1
        BYTE   W24
        BYTE           N01     Fs1
        BYTE           N06     Cn1
        BYTE   W24
        BYTE           N01     Fs1
        BYTE           N06     Cn1
        BYTE   W24
        BYTE   PEND
// 155   ----------------------------------------
        BYTE   PATT
         POIN2  Records_Medley_7_153
// 156   ----------------------------------------
        BYTE   PATT
         POIN2  Records_Medley_7_154
// 157   ----------------------------------------
        BYTE   PATT
         POIN2  Records_Medley_7_153
// 158   ----------------------------------------
        BYTE   PATT
         POIN2  Records_Medley_7_154
// 159   ----------------------------------------
        BYTE   PATT
         POIN2  Records_Medley_7_153
// 160   ----------------------------------------
Records_Medley_7_160:
        BYTE           N01     Fs1   v100
        BYTE           N24     Cs2
        BYTE           N06     Cn1
        BYTE   W24
        BYTE           N01     Fs1
        BYTE           N06     Cn1
        BYTE   W24
        BYTE           N01     Fs1
        BYTE           N06     Cn1
        BYTE   W24
        BYTE           N01     Fs1
        BYTE           N06     Dn1
        BYTE   W24
        BYTE   PEND
// 161   ----------------------------------------
        BYTE   PATT
         POIN2  Records_Medley_7_153
// 162   ----------------------------------------
        BYTE   PATT
         POIN2  Records_Medley_7_153
// 163   ----------------------------------------
        BYTE   PATT
         POIN2  Records_Medley_7_153
// 164   ----------------------------------------
        BYTE   PATT
         POIN2  Records_Medley_7_160
// 165   ----------------------------------------
        BYTE   PATT
         POIN2  Records_Medley_7_153
// 166   ----------------------------------------
        BYTE   PATT
         POIN2  Records_Medley_7_153
// 167   ----------------------------------------
        BYTE   PATT
         POIN2  Records_Medley_7_153
// 168   ----------------------------------------
        BYTE   PATT
         POIN2  Records_Medley_7_160
// 169   ----------------------------------------
        BYTE   PATT
         POIN2  Records_Medley_7_153
// 170   ----------------------------------------
        BYTE   PATT
         POIN2  Records_Medley_7_153
// 171   ----------------------------------------
        BYTE   PATT
         POIN2  Records_Medley_7_153
// 172   ----------------------------------------
        BYTE   PATT
         POIN2  Records_Medley_7_160
// 173   ----------------------------------------
        BYTE   PATT
         POIN2  Records_Medley_7_153
// 174   ----------------------------------------
        BYTE           N24     Ds2   v100
        BYTE           N06     Cn1
        BYTE   W24
        BYTE           N01     Fs1
        BYTE           N06     Cn1
        BYTE           N06     Dn1
        BYTE   W24
        BYTE           N24     Ds2
        BYTE           N06     Cn1
        BYTE   W24
        BYTE           N01     Fs1
        BYTE           N06     Dn1
        BYTE   W24
// 175   ----------------------------------------
        BYTE           N24     Ds2
        BYTE           N06     Cn1
        BYTE   W24
        BYTE                   Cn1
        BYTE           N06     Dn1
        BYTE   W24
        BYTE           N24     Ds2
        BYTE           N06     Cn1
        BYTE           N06     Dn1
        BYTE   W15
        BYTE                   Dn1
        BYTE   W09
        BYTE           N24     Cs2
        BYTE           N06     Cn1
        BYTE           N06     Dn1
        BYTE   W09
        BYTE                   Dn1
        BYTE   W06
        BYTE                   Dn1
        BYTE   W09
// 176   ----------------------------------------
Records_Medley_7_176:
        BYTE           N24     Cs2   v100
        BYTE           N06     Cn1
        BYTE   W16
        BYTE           N01     Fs1
        BYTE   W08
        BYTE                   Fs1
        BYTE           N06     Dn1
        BYTE   W08
        BYTE           N01     Fs1
        BYTE   W08
        BYTE                   Fs1
        BYTE   W08
        BYTE                   Fs1
        BYTE           N06     Cn1
        BYTE   W16
        BYTE           N01     Fs1
        BYTE   W08
        BYTE                   Fs1
        BYTE           N06     Dn1
        BYTE   W08
        BYTE           N01     Fs1
        BYTE   W08
        BYTE                   Fs1
        BYTE   W08
        BYTE   PEND
// 177   ----------------------------------------
Records_Medley_7_177:
        BYTE           N01     Fs1   v100
        BYTE           N06     Cn1
        BYTE   W16
        BYTE           N01     Fs1
        BYTE   W08
        BYTE                   Fs1
        BYTE           N06     Dn1
        BYTE   W08
        BYTE           N01     Fs1
        BYTE   W08
        BYTE                   Fs1
        BYTE   W08
        BYTE                   Fs1
        BYTE           N06     Cn1
        BYTE   W16
        BYTE           N01     Fs1
        BYTE   W08
        BYTE                   Fs1
        BYTE           N06     Dn1
        BYTE   W08
        BYTE           N01     Fs1
        BYTE   W08
        BYTE                   Fs1
        BYTE   W08
        BYTE   PEND
// 178   ----------------------------------------
        BYTE   PATT
         POIN2  Records_Medley_7_177
// 179   ----------------------------------------
Records_Medley_7_179:
        BYTE           N01     Fs1   v100
        BYTE           N06     Cn1
        BYTE   W16
        BYTE           N01     Fs1
        BYTE   W08
        BYTE                   Fs1
        BYTE           N06     Dn1
        BYTE   W08
        BYTE           N01     Fs1
        BYTE   W08
        BYTE                   Fs1
        BYTE   W08
        BYTE                   Fs1
        BYTE           N06     Cn1
        BYTE   W16
        BYTE           N01     Fs1
        BYTE   W08
        BYTE           N06     Dn1
        BYTE           N08     Dn2
        BYTE   W08
        BYTE                   Bn1
        BYTE   W08
        BYTE                   Gn1
        BYTE   W08
        BYTE   PEND
// 180   ----------------------------------------
        BYTE   PATT
         POIN2  Records_Medley_7_176
// 181   ----------------------------------------
        BYTE   PATT
         POIN2  Records_Medley_7_177
// 182   ----------------------------------------
        BYTE   PATT
         POIN2  Records_Medley_7_177
// 183   ----------------------------------------
        BYTE   PATT
         POIN2  Records_Medley_7_179
// 184   ----------------------------------------
        BYTE   PATT
         POIN2  Records_Medley_7_176
// 185   ----------------------------------------
        BYTE   PATT
         POIN2  Records_Medley_7_177
// 186   ----------------------------------------
        BYTE   PATT
         POIN2  Records_Medley_7_177
// 187   ----------------------------------------
        BYTE   PATT
         POIN2  Records_Medley_7_177
// 188   ----------------------------------------
        BYTE   PATT
         POIN2  Records_Medley_7_177
// 189   ----------------------------------------
        BYTE   PATT
         POIN2  Records_Medley_7_177
// 190   ----------------------------------------
        BYTE   PATT
         POIN2  Records_Medley_7_177
// 191   ----------------------------------------
        BYTE   PATT
         POIN2  Records_Medley_7_179
// 192   ----------------------------------------
        BYTE   PATT
         POIN2  Records_Medley_7_176
// 193   ----------------------------------------
        BYTE   PATT
         POIN2  Records_Medley_7_177
// 194   ----------------------------------------
        BYTE   PATT
         POIN2  Records_Medley_7_177
// 195   ----------------------------------------
        BYTE   PATT
         POIN2  Records_Medley_7_177
// 196   ----------------------------------------
        BYTE   PATT
         POIN2  Records_Medley_7_177
// 197   ----------------------------------------
        BYTE   PATT
         POIN2  Records_Medley_7_177
// 198   ----------------------------------------
        BYTE   PATT
         POIN2  Records_Medley_7_177
// 199   ----------------------------------------
        BYTE           N06     Cn1   v100
        BYTE           N16     Dn2
        BYTE   W16
        BYTE                   Bn1
        BYTE   W16
        BYTE           N14     Gn1
        BYTE   W16
        BYTE           N06     Cn1
        BYTE           N16     Dn2
        BYTE   W16
        BYTE                   Bn1
        BYTE   W08
        BYTE           N01     DnM2
        BYTE           N06     Dn1
        BYTE   W08
        BYTE           N14     Gn1
        BYTE   W16
// 200   ----------------------------------------
        BYTE   PATT
         POIN2  Records_Medley_7_176
// 201   ----------------------------------------
        BYTE   PATT
         POIN2  Records_Medley_7_177
// 202   ----------------------------------------
        BYTE   PATT
         POIN2  Records_Medley_7_177
// 203   ----------------------------------------
        BYTE           N01     Fs1   v100
        BYTE           N06     Cn1
        BYTE           N16     Dn2
        BYTE   W16
        BYTE           N01     Fs1
        BYTE           N16     Bn1
        BYTE   W08
        BYTE           N01     Fs1
        BYTE   W08
        BYTE                   Fs1
        BYTE           N16     Gn1
        BYTE   W08
        BYTE           N01     Fs1
        BYTE   W08
        BYTE                   Fs1
        BYTE           N06     Cn1
        BYTE           N16     Dn2
        BYTE   W16
        BYTE           N01     Fs1
        BYTE           N16     Bn1
        BYTE   W08
        BYTE           N01     DnM2
        BYTE           N01     Fs1
        BYTE           N06     Dn1
        BYTE   W08
        BYTE           N01     Fs1
        BYTE           N16     Gn1
        BYTE   W08
        BYTE           N01     Fs1
        BYTE   W08
// 204   ----------------------------------------
        BYTE   PATT
         POIN2  Records_Medley_7_177
// 205   ----------------------------------------
        BYTE   PATT
         POIN2  Records_Medley_7_177
// 206   ----------------------------------------
        BYTE   PATT
         POIN2  Records_Medley_7_177
// 207   ----------------------------------------
        BYTE           N24     Cs2   v100
        BYTE           N06     Cn1
        BYTE           N16     Dn2
        BYTE   W16
        BYTE                   Bn1
        BYTE   W16
        BYTE                   Gn1
        BYTE   W16
        BYTE           N06     Cn1
        BYTE           N16     Dn2
        BYTE   W16
        BYTE                   Bn1
        BYTE   W02
        BYTE           N24     Cs2
        BYTE   W06
        BYTE           N01     DnM2
        BYTE           N06     Dn1
        BYTE   W08
        BYTE           N16     Gn1
        BYTE   W16
// 208   ----------------------------------------
        BYTE   PATT
         POIN2  Records_Medley_7_176
// 209   ----------------------------------------
        BYTE   PATT
         POIN2  Records_Medley_7_177
// 210   ----------------------------------------
        BYTE   PATT
         POIN2  Records_Medley_7_177
// 211   ----------------------------------------
        BYTE           N01     Fs1   v100
        BYTE           N06     Cn1
        BYTE   W16
        BYTE           N01     Fs1
        BYTE   W08
        BYTE                   Fs1
        BYTE           N06     Dn1
        BYTE   W08
        BYTE           N01     Fs1
        BYTE   W08
        BYTE                   Fs1
        BYTE   W08
        BYTE                   Fs1
        BYTE           N06     Cn1
        BYTE   W16
        BYTE           N01     Fs1
        BYTE   W08
        BYTE                   Fs1
        BYTE           N06     Dn1
        BYTE           N08     Dn2
        BYTE   W08
        BYTE           N01     Fs1
        BYTE           N08     Bn1
        BYTE   W08
        BYTE           N01     Fs1
        BYTE           N08     Gn1
        BYTE   W08
// 212   ----------------------------------------
        BYTE   PATT
         POIN2  Records_Medley_7_176
// 213   ----------------------------------------
        BYTE   PATT
         POIN2  Records_Medley_7_177
// 214   ----------------------------------------
        BYTE   PATT
         POIN2  Records_Medley_7_177
// 215   ----------------------------------------
        BYTE           N01     Fs1   v100
        BYTE           N06     Cn1
        BYTE   W16
        BYTE           N01     Fs1
        BYTE   W08
        BYTE                   Fs1
        BYTE           N06     Dn1
        BYTE   W08
        BYTE           N01     Fs1
        BYTE   W08
        BYTE                   Fs1
        BYTE   W08
        BYTE                   Fs1
        BYTE           N06     Cn1
        BYTE   W16
        BYTE           N01     Fs1
        BYTE   W08
        BYTE           N24     Cs2
        BYTE           N06     Dn1
        BYTE           N08     Dn2
        BYTE   W08
        BYTE           N01     Fs1
        BYTE           N08     Bn1
        BYTE   W08
        BYTE           N01     Fs1
        BYTE           N08     Gn1
        BYTE   W08
// 216   ----------------------------------------
Records_Medley_7_216:
        BYTE           N06     Dn1   v100
        BYTE   W24
        BYTE                   Dn1
        BYTE   W12
        BYTE                   Dn1
        BYTE   W12
        BYTE                   Dn1
        BYTE   W24
        BYTE                   Dn1
        BYTE   W12
        BYTE                   Dn1
        BYTE   W12
        BYTE   PEND
// 217   ----------------------------------------
        BYTE   PATT
         POIN2  Records_Medley_7_216
// 218   ----------------------------------------
        BYTE   PATT
         POIN2  Records_Medley_7_216
// 219   ----------------------------------------
        BYTE   PATT
         POIN2  Records_Medley_7_216
// 220   ----------------------------------------
        BYTE   PATT
         POIN2  Records_Medley_7_216
// 221   ----------------------------------------
        BYTE   PATT
         POIN2  Records_Medley_7_216
// 222   ----------------------------------------
        BYTE           N48     An2   v111
        BYTE           N06     Dn1   v100
        BYTE   W96
// 223   ----------------------------------------
        BYTE   W48
        BYTE   FINE

//****************** Track 8 (Midi-Chn.8) ******************//

Records_Medley_8:
        BYTE   KEYSH   Records_Medley_key+0
// 000   ----------------------------------------
        BYTE           VOICE   56
        BYTE           PAN     c_v+18
        BYTE           VOL     52
        BYTE   W96
// 001   ----------------------------------------
        BYTE   W96
// 002   ----------------------------------------
        BYTE   W96
// 003   ----------------------------------------
        BYTE   W96
// 004   ----------------------------------------
        BYTE   W96
// 005   ----------------------------------------
        BYTE   W96
// 006   ----------------------------------------
        BYTE   W96
// 007   ----------------------------------------
        BYTE   W96
// 008   ----------------------------------------
        BYTE   W96
// 009   ----------------------------------------
        BYTE   W96
// 010   ----------------------------------------
        BYTE   W96
// 011   ----------------------------------------
        BYTE   W96
// 012   ----------------------------------------
        BYTE   W96
// 013   ----------------------------------------
        BYTE   W96
// 014   ----------------------------------------
        BYTE   W96
// 015   ----------------------------------------
        BYTE   W96
// 016   ----------------------------------------
        BYTE   W96
// 017   ----------------------------------------
        BYTE   W96
// 018   ----------------------------------------
        BYTE   PATT
         POIN2  Records_Medley_5_46
// 019   ----------------------------------------
        BYTE           N84     Gn4   v100   gtp2
        BYTE   W96
// 020   ----------------------------------------
        BYTE   PATT
         POIN2  Records_Medley_5_46
// 021   ----------------------------------------
        BYTE   PATT
         POIN2  Records_Medley_5_49
// 022   ----------------------------------------
        BYTE   PATT
         POIN2  Records_Medley_5_46
// 023   ----------------------------------------
        BYTE           N84     Gn4   v100   gtp2
        BYTE   W96
// 024   ----------------------------------------
        BYTE   PATT
         POIN2  Records_Medley_5_46
// 025   ----------------------------------------
        BYTE           N42     En4   v100   gtp1
        BYTE   W48
        BYTE           N21     Dn4
        BYTE   W24
        BYTE                   Cn4
        BYTE   W24
// 026   ----------------------------------------
Records_Medley_8_26:
        BYTE           N07     An3   v100
        BYTE   W08
        BYTE                   Bn3
        BYTE   W08
        BYTE                   Cn4
        BYTE   W08
        BYTE           N21     Dn4
        BYTE   W24
        BYTE                   Cn4
        BYTE   W24
        BYTE           N14     Bn3
        BYTE   W16
        BYTE           N07     An3
        BYTE   W08
        BYTE   PEND
// 027   ----------------------------------------
        BYTE           N42     Bn3   v100   gtp1
        BYTE   W48
        BYTE                   Gn3
        BYTE   W48
// 028   ----------------------------------------
        BYTE   PATT
         POIN2  Records_Medley_8_26
// 029   ----------------------------------------
        BYTE           N84     Dn4   v100   gtp2
        BYTE   W96
// 030   ----------------------------------------
        BYTE   PATT
         POIN2  Records_Medley_5_46
// 031   ----------------------------------------
        BYTE           N84     Gn4   v100   gtp2
        BYTE   W96
// 032   ----------------------------------------
        BYTE   PATT
         POIN2  Records_Medley_5_46
// 033   ----------------------------------------
        BYTE   PATT
         POIN2  Records_Medley_5_49
// 034   ----------------------------------------
        BYTE   PATT
         POIN2  Records_Medley_5_46
// 035   ----------------------------------------
        BYTE           N84     Gn4   v100   gtp2
        BYTE   W96
// 036   ----------------------------------------
        BYTE   PATT
         POIN2  Records_Medley_5_52
// 037   ----------------------------------------
        BYTE           N32     Bn3   v100   gtp3
        BYTE   W40
        BYTE           N02     Gn3
        BYTE   W04
        BYTE                   Gn3
        BYTE   W04
        BYTE           N21
        BYTE   W24
        BYTE                   Gn3
        BYTE   W24
// 038   ----------------------------------------
        BYTE   PATT
         POIN2  Records_Medley_5_38
// 039   ----------------------------------------
        BYTE   PATT
         POIN2  Records_Medley_5_39
// 040   ----------------------------------------
        BYTE   PATT
         POIN2  Records_Medley_5_40
// 041   ----------------------------------------
        BYTE   PATT
         POIN2  Records_Medley_5_41
// 042   ----------------------------------------
        BYTE   PATT
         POIN2  Records_Medley_5_42
// 043   ----------------------------------------
        BYTE   PATT
         POIN2  Records_Medley_5_43
// 044   ----------------------------------------
        BYTE   PATT
         POIN2  Records_Medley_5_44
// 045   ----------------------------------------
        BYTE   PATT
         POIN2  Records_Medley_5_45
// 046   ----------------------------------------
        BYTE   PATT
         POIN2  Records_Medley_5_46
// 047   ----------------------------------------
        BYTE           N84     Gn4   v100   gtp2
        BYTE   W96
// 048   ----------------------------------------
        BYTE   PATT
         POIN2  Records_Medley_5_46
// 049   ----------------------------------------
        BYTE   PATT
         POIN2  Records_Medley_5_49
// 050   ----------------------------------------
        BYTE   PATT
         POIN2  Records_Medley_5_46
// 051   ----------------------------------------
        BYTE           N84     Gn4   v100   gtp2
        BYTE   W96
// 052   ----------------------------------------
        BYTE   PATT
         POIN2  Records_Medley_5_52
// 053   ----------------------------------------
        BYTE   PATT
         POIN2  Records_Medley_5_53
// 054   ----------------------------------------
        BYTE   PATT
         POIN2  Records_Medley_5_54
// 055   ----------------------------------------
        BYTE           N42     Fn3   v100   gtp1
        BYTE   W48
        BYTE           N10
        BYTE   W12
        BYTE                   En3   v097
        BYTE   W12
        BYTE                   Dn3   v095
        BYTE   W12
        BYTE                   Cs3   v093
        BYTE   W12
// 056   ----------------------------------------
        BYTE   W48
        BYTE   W01
        BYTE           VOL     51
        BYTE   W03
        BYTE                   52
        BYTE   W20
// 057   ----------------------------------------
        BYTE   W72
// 058   ----------------------------------------
        BYTE   W72
// 059   ----------------------------------------
        BYTE   W72
// 060   ----------------------------------------
        BYTE   W72
// 061   ----------------------------------------
        BYTE   W72
// 062   ----------------------------------------
        BYTE   W72
// 063   ----------------------------------------
        BYTE   W72
// 064   ----------------------------------------
        BYTE   W72
// 065   ----------------------------------------
        BYTE   W72
// 066   ----------------------------------------
        BYTE   W72
// 067   ----------------------------------------
        BYTE   W72
// 068   ----------------------------------------
        BYTE   W72
// 069   ----------------------------------------
        BYTE   W72
// 070   ----------------------------------------
        BYTE   W72
// 071   ----------------------------------------
        BYTE   W72
// 072   ----------------------------------------
        BYTE   W72
// 073   ----------------------------------------
        BYTE   W72
// 074   ----------------------------------------
        BYTE   W72
// 075   ----------------------------------------
        BYTE   W72
// 076   ----------------------------------------
        BYTE   W72
// 077   ----------------------------------------
        BYTE   W72
// 078   ----------------------------------------
        BYTE   W72
// 079   ----------------------------------------
        BYTE   W72
// 080   ----------------------------------------
        BYTE   W72
// 081   ----------------------------------------
        BYTE   W72
// 082   ----------------------------------------
        BYTE   W72
// 083   ----------------------------------------
        BYTE   W72
// 084   ----------------------------------------
        BYTE   W72
// 085   ----------------------------------------
        BYTE   W72
// 086   ----------------------------------------
        BYTE   W72
// 087   ----------------------------------------
        BYTE   W72
// 088   ----------------------------------------
        BYTE                   54
        BYTE   W96
// 089   ----------------------------------------
        BYTE   W96
// 090   ----------------------------------------
        BYTE   W96
// 091   ----------------------------------------
        BYTE   W96
// 092   ----------------------------------------
        BYTE   W96
// 093   ----------------------------------------
        BYTE   W96
// 094   ----------------------------------------
        BYTE   W96
// 095   ----------------------------------------
        BYTE   W96
// 096   ----------------------------------------
        BYTE   W96
// 097   ----------------------------------------
        BYTE   W96
// 098   ----------------------------------------
        BYTE   W96
// 099   ----------------------------------------
        BYTE   W96
// 100   ----------------------------------------
        BYTE   W96
// 101   ----------------------------------------
        BYTE   W96
// 102   ----------------------------------------
        BYTE   W96
// 103   ----------------------------------------
Records_Medley_8_103:
        BYTE   W24
        BYTE           N06     Bn2   v100
        BYTE   W08
        BYTE                   Bn2
        BYTE   W08
        BYTE                   Bn2
        BYTE   W08
        BYTE                   Bn3
        BYTE   W08
        BYTE                   Bn2
        BYTE   W08
        BYTE                   Bn2
        BYTE   W08
        BYTE                   Bn2
        BYTE   W08
        BYTE                   Bn2
        BYTE   W08
        BYTE                   Bn2
        BYTE   W08
        BYTE   PEND
// 104   ----------------------------------------
        BYTE           VOL     49
        BYTE   W02
        BYTE                   42
        BYTE   W92
        BYTE   W02
// 105   ----------------------------------------
        BYTE   W96
// 106   ----------------------------------------
        BYTE   W96
// 107   ----------------------------------------
        BYTE   W96
// 108   ----------------------------------------
        BYTE   W96
// 109   ----------------------------------------
        BYTE   W96
// 110   ----------------------------------------
        BYTE   W96
// 111   ----------------------------------------
        BYTE   W96
// 112   ----------------------------------------
        BYTE   W96
// 113   ----------------------------------------
        BYTE   W96
// 114   ----------------------------------------
        BYTE   W96
// 115   ----------------------------------------
        BYTE   W96
// 116   ----------------------------------------
        BYTE   W96
// 117   ----------------------------------------
        BYTE   W96
// 118   ----------------------------------------
        BYTE   W96
// 119   ----------------------------------------
        BYTE   W96
// 120   ----------------------------------------
        BYTE   W12
        BYTE                   54
        BYTE   W84
// 121   ----------------------------------------
        BYTE   W96
// 122   ----------------------------------------
        BYTE   W96
// 123   ----------------------------------------
        BYTE   W96
// 124   ----------------------------------------
        BYTE   W96
// 125   ----------------------------------------
        BYTE   W24
        BYTE           N06     An3
        BYTE   W08
        BYTE                   An3
        BYTE   W08
        BYTE                   An3
        BYTE   W08
        BYTE                   An4
        BYTE   W08
        BYTE                   An3
        BYTE   W08
        BYTE                   An3
        BYTE   W08
        BYTE                   An3
        BYTE   W08
        BYTE                   An3
        BYTE   W08
        BYTE                   An3
        BYTE   W08
// 126   ----------------------------------------
        BYTE           N21     Gn3   v123
        BYTE   W96
// 127   ----------------------------------------
        BYTE           N24     An3   v120
        BYTE   W72
        BYTE           N12     An3   v125
        BYTE   W24
// 128   ----------------------------------------
        BYTE   W96
// 129   ----------------------------------------
        BYTE   W96
// 130   ----------------------------------------
        BYTE   W96
// 131   ----------------------------------------
        BYTE   W96
// 132   ----------------------------------------
        BYTE   W96
// 133   ----------------------------------------
        BYTE   W96
// 134   ----------------------------------------
        BYTE   W96
// 135   ----------------------------------------
        BYTE   PATT
         POIN2  Records_Medley_8_103
// 136   ----------------------------------------
        BYTE   PATT
         POIN2  Records_Medley_3_136
// 137   ----------------------------------------
        BYTE   PATT
         POIN2  Records_Medley_3_137
// 138   ----------------------------------------
        BYTE   PATT
         POIN2  Records_Medley_3_136
// 139   ----------------------------------------
        BYTE   PATT
         POIN2  Records_Medley_3_137
// 140   ----------------------------------------
        BYTE   PATT
         POIN2  Records_Medley_3_136
// 141   ----------------------------------------
        BYTE   PATT
         POIN2  Records_Medley_3_137
// 142   ----------------------------------------
        BYTE   PATT
         POIN2  Records_Medley_3_136
// 143   ----------------------------------------
        BYTE   PATT
         POIN2  Records_Medley_3_143
// 144   ----------------------------------------
        BYTE   W96
// 145   ----------------------------------------
        BYTE   W96
// 146   ----------------------------------------
        BYTE   W96
// 147   ----------------------------------------
        BYTE   W96
// 148   ----------------------------------------
        BYTE   W96
// 149   ----------------------------------------
        BYTE   W96
// 150   ----------------------------------------
        BYTE   W96
// 151   ----------------------------------------
        BYTE   W96
// 152   ----------------------------------------
        BYTE   W96
// 153   ----------------------------------------
        BYTE   W96
// 154   ----------------------------------------
        BYTE   W96
// 155   ----------------------------------------
        BYTE   W96
// 156   ----------------------------------------
        BYTE   W96
// 157   ----------------------------------------
        BYTE   W96
// 158   ----------------------------------------
        BYTE   W96
// 159   ----------------------------------------
        BYTE   W96
// 160   ----------------------------------------
        BYTE   W96
// 161   ----------------------------------------
        BYTE   W96
// 162   ----------------------------------------
        BYTE   W96
// 163   ----------------------------------------
        BYTE   W96
// 164   ----------------------------------------
        BYTE   W96
// 165   ----------------------------------------
        BYTE   W96
// 166   ----------------------------------------
        BYTE   W96
// 167   ----------------------------------------
        BYTE   W96
// 168   ----------------------------------------
        BYTE   W96
// 169   ----------------------------------------
        BYTE   W96
// 170   ----------------------------------------
        BYTE   W96
// 171   ----------------------------------------
        BYTE   W96
// 172   ----------------------------------------
        BYTE   W96
// 173   ----------------------------------------
        BYTE   W96
// 174   ----------------------------------------
        BYTE   W96
// 175   ----------------------------------------
        BYTE   W96
// 176   ----------------------------------------
        BYTE   W96
// 177   ----------------------------------------
        BYTE   W96
// 178   ----------------------------------------
        BYTE   W96
// 179   ----------------------------------------
        BYTE   W96
// 180   ----------------------------------------
        BYTE   W96
// 181   ----------------------------------------
        BYTE   W96
// 182   ----------------------------------------
        BYTE   W96
// 183   ----------------------------------------
        BYTE   W96
// 184   ----------------------------------------
Records_Medley_8_184:
        BYTE   W24
        BYTE           N21     En4   v100
        BYTE   W24
        BYTE                   Dn4
        BYTE   W24
        BYTE                   An3
        BYTE   W24
        BYTE   PEND
// 185   ----------------------------------------
Records_Medley_8_185:
        BYTE           N42     Bn3   v100   gtp1
        BYTE   W48
        BYTE           N21     Gn3
        BYTE   W24
        BYTE                   An3
        BYTE   W24
        BYTE   PEND
// 186   ----------------------------------------
        BYTE           N42     Bn3   v100   gtp1
        BYTE   W48
        BYTE                   Gn4
        BYTE   W48
// 187   ----------------------------------------
        BYTE                   Fs4
        BYTE   W48
        BYTE                   Dn4
        BYTE   W48
// 188   ----------------------------------------
        BYTE   PATT
         POIN2  Records_Medley_8_184
// 189   ----------------------------------------
        BYTE   PATT
         POIN2  Records_Medley_8_185
// 190   ----------------------------------------
        BYTE           N42     Bn3   v100   gtp1
        BYTE   W48
        BYTE                   En4
        BYTE   W48
// 191   ----------------------------------------
        BYTE                   Ds4
        BYTE   W48
        BYTE                   Bn3
        BYTE   W48
// 192   ----------------------------------------
Records_Medley_8_192:
        BYTE           N42     An3   v100   gtp1
        BYTE   W48
        BYTE           N84     Gn3   v100   gtp2
        BYTE   W48
        BYTE   PEND
// 193   ----------------------------------------
Records_Medley_8_193:
        BYTE   W48
        BYTE           N14     En3   v100
        BYTE   W16
        BYTE                   Fs3
        BYTE   W16
        BYTE                   Gn3
        BYTE   W16
        BYTE   PEND
// 194   ----------------------------------------
        BYTE           N42     An3   v100   gtp1
        BYTE   W48
        BYTE                   Gn3
        BYTE   W48
// 195   ----------------------------------------
        BYTE                   Fs3
        BYTE   W48
        BYTE                   Dn3
        BYTE   W48
// 196   ----------------------------------------
        BYTE   PATT
         POIN2  Records_Medley_8_192
// 197   ----------------------------------------
        BYTE   PATT
         POIN2  Records_Medley_8_193
// 198   ----------------------------------------
        BYTE           N42     Fs3   v100   gtp1
        BYTE   W48
        BYTE                   En3
        BYTE   W48
// 199   ----------------------------------------
        BYTE   W96
// 200   ----------------------------------------
Records_Medley_8_200:
        BYTE           N07     En4   v100
        BYTE   W08
        BYTE                   Fs4
        BYTE   W08
        BYTE                   Gn4
        BYTE   W08
        BYTE           N21     An4
        BYTE   W24
        BYTE                   Bn4
        BYTE   W24
        BYTE           N07     Cn5
        BYTE   W16
        BYTE                   Dn5
        BYTE   W08
        BYTE   PEND
// 201   ----------------------------------------
        BYTE           N84     Dn5   v100   gtp2
        BYTE   W96
// 202   ----------------------------------------
        BYTE           N07     Cn4
        BYTE           N07     En4
        BYTE   W08
        BYTE                   Gn3
        BYTE           N07     Fs4
        BYTE   W08
        BYTE                   En3
        BYTE           N07     Gn4
        BYTE   W08
        BYTE                   En4
        BYTE           N21     An4
        BYTE   W08
        BYTE           N07     Cn4
        BYTE   W08
        BYTE                   Gn3
        BYTE   W08
        BYTE                   Gn4
        BYTE           N21     Dn5
        BYTE   W08
        BYTE           N07     Fs4
        BYTE   W08
        BYTE                   En4
        BYTE   W08
        BYTE                   Dn4
        BYTE           N07     An4
        BYTE   W08
        BYTE                   Bn3
        BYTE   W08
        BYTE                   Gn3
        BYTE           N07     Cn5
        BYTE   W08
// 203   ----------------------------------------
        BYTE           N21     Dn3
        BYTE           N42     Bn4   v100   gtp1
        BYTE   W24
        BYTE           N21     Fs3
        BYTE   W24
        BYTE                   Gn3
        BYTE           N42     Gn4   v100   gtp1
        BYTE   W24
        BYTE           N21     An3
        BYTE   W24
// 204   ----------------------------------------
        BYTE   PATT
         POIN2  Records_Medley_8_200
// 205   ----------------------------------------
        BYTE           N84     Dn5   v100   gtp2
        BYTE   W96
// 206   ----------------------------------------
        BYTE           N07     En4
        BYTE   W08
        BYTE                   Fs4
        BYTE   W08
        BYTE                   Gn4
        BYTE   W08
        BYTE           N21     An4
        BYTE   W24
        BYTE           N07     Dn4
        BYTE   W08
        BYTE                   En4
        BYTE   W08
        BYTE                   Fs4
        BYTE   W08
        BYTE           N21     Gn4
        BYTE   W24
// 207   ----------------------------------------
        BYTE           N07     Bn3
        BYTE   W08
        BYTE                   An3
        BYTE   W08
        BYTE                   Bn3
        BYTE   W08
        BYTE                   Cn4
        BYTE   W08
        BYTE                   Dn4
        BYTE   W08
        BYTE                   Cn4
        BYTE   W08
        BYTE                   Dn4
        BYTE   W08
        BYTE                   Cn4
        BYTE   W08
        BYTE                   Dn4
        BYTE   W08
        BYTE                   En4
        BYTE   W08
        BYTE                   Dn4
        BYTE   W08
        BYTE                   An3
        BYTE   W08
// 208   ----------------------------------------
        BYTE           TIE     En3
        BYTE   W96
// 209   ----------------------------------------
        BYTE   W84
        BYTE   W02
        BYTE           EOT
        BYTE   W10
// 210   ----------------------------------------
        BYTE           TIE     En4
        BYTE   W96
// 211   ----------------------------------------
        BYTE   W84
        BYTE   W02
        BYTE           EOT
        BYTE   W10
// 212   ----------------------------------------
        BYTE   W96
// 213   ----------------------------------------
        BYTE   W96
// 214   ----------------------------------------
        BYTE   W96
// 215   ----------------------------------------
        BYTE   W96
// 216   ----------------------------------------
        BYTE   W96
// 217   ----------------------------------------
        BYTE   W96
// 218   ----------------------------------------
        BYTE   W96
// 219   ----------------------------------------
        BYTE   W96
// 220   ----------------------------------------
        BYTE   W96
// 221   ----------------------------------------
        BYTE   W96
// 222   ----------------------------------------
        BYTE   W96
// 223   ----------------------------------------
        BYTE   W48
        BYTE   FINE


//********************** End of Song ***********************//

        ALIGN 4
Records_Medley:
        BYTE   9                       // Num Tracks
        BYTE   0                       // Unknown
        BYTE   Records_Medley_pri      // Priority
        BYTE   Records_Medley_rev      // Reverb

        POIN2   Records_Medley_grp     

        POIN2   Records_Medley_0
        POIN2   Records_Medley_1
        POIN2   Records_Medley_2
        POIN2   Records_Medley_3
        POIN2   Records_Medley_4
        POIN2   Records_Medley_5
        POIN2   Records_Medley_6
        POIN2   Records_Medley_7
        POIN2   Records_Medley_8

        
