//Event file generated from Sappy .s format.
        #include "MPlayDef.event"

        #define    RecruitmentTheme_grp  voicegroup000
        #define    RecruitmentTheme_pri  0
        #define    RecruitmentTheme_rev  0
        #define    RecruitmentTheme_key  0

        // .rodata
        // RecruitmentTheme
        ALIGN 4

//****************** Track 0 (Midi-Chn.0) ******************//

RecruitmentTheme_0:
        BYTE   KEYSH   RecruitmentTheme_key+0
// 000   ----------------------------------------
        BYTE   TEMPO   186/2
RecruitmentTheme_0_LOOP:
        BYTE           VOICE   105
        BYTE           VOL     60
        BYTE           PAN     c_v+37
        BYTE           N42     Bn3   v094   gtp1
        BYTE   W48
        BYTE           N64     Cn4
        BYTE   W48
// 001   ----------------------------------------
        BYTE   W24
        BYTE           N21     Bn3
        BYTE   W24
        BYTE                   Cn4
        BYTE   W24
        BYTE                   Dn4
        BYTE   W24
// 002   ----------------------------------------
        BYTE           N42     En4   v094   gtp1
        BYTE   W48
        BYTE           N21     Dn4
        BYTE   W24
        BYTE                   Cn4
        BYTE   W24
// 003   ----------------------------------------
        BYTE           N42     Bn3   v094   gtp1
        BYTE   W48
        BYTE           N21     En3
        BYTE   W24
        BYTE                   Gs3
        BYTE   W24
// 004   ----------------------------------------
RecruitmentTheme_0_4:
        BYTE           N21     Bn3   v094
        BYTE   W24
        BYTE                   Cn4
        BYTE   W24
        BYTE           N64     En3
        BYTE   W48
        BYTE   PEND
// 005   ----------------------------------------
        BYTE   W24
        BYTE           N21     Bn3
        BYTE   W24
        BYTE                   Cn4
        BYTE   W24
        BYTE                   En3
        BYTE   W24
// 006   ----------------------------------------
        BYTE   PATT
         POIN2  RecruitmentTheme_0_4
// 007   ----------------------------------------
        BYTE   W24
        BYTE           N21     Dn3   v094
        BYTE   W24
        BYTE                   Gn3
        BYTE   W24
        BYTE                   Fn3
        BYTE   W24
// 008   ----------------------------------------
        BYTE           TIE     En3
        BYTE   W96
// 009   ----------------------------------------
        BYTE   W56
        BYTE   W01
        BYTE           EOT
        BYTE   W15
        BYTE           N21
        BYTE   W24
// 010   ----------------------------------------
RecruitmentTheme_0_10:
        BYTE           N42     En3   v094   gtp1
        BYTE   W48
        BYTE           N64     Fn3
        BYTE   W48
        BYTE   PEND
// 011   ----------------------------------------
RecruitmentTheme_0_11:
        BYTE   W24
        BYTE           N21     Dn3   v094
        BYTE   W24
        BYTE                   Gn3
        BYTE   W24
        BYTE                   Bn3
        BYTE   W24
        BYTE   PEND
// 012   ----------------------------------------
        BYTE                   Bn3
        BYTE   W24
        BYTE                   Cn4
        BYTE   W24
        BYTE           TIE     En3
        BYTE   W48
// 013   ----------------------------------------
        BYTE   W64
        BYTE           EOT
        BYTE   W08
        BYTE           N21
        BYTE   W24
// 014   ----------------------------------------
        BYTE   PATT
         POIN2  RecruitmentTheme_0_10
// 015   ----------------------------------------
        BYTE   PATT
         POIN2  RecruitmentTheme_0_11
// 016   ----------------------------------------
        BYTE           N21     Bn3   v094
        BYTE   W24
        BYTE                   Cn4
        BYTE   W24
        BYTE           N64     En4
        BYTE   W48
// 017   ----------------------------------------
        BYTE   W24
        BYTE           N21     Dn4
        BYTE   W24
        BYTE                   Cn4
        BYTE   W24
        BYTE                   Bn3
        BYTE   W24
// 018   ----------------------------------------
        BYTE           N32
        BYTE   W36
        BYTE           TIE     An3
        BYTE   W60
// 019   ----------------------------------------
        BYTE   W36
        BYTE   W02
        BYTE           EOT
        BYTE   W10
        BYTE           N42     Gn3   v094   gtp1
        BYTE   W48
// 020   ----------------------------------------
        BYTE           TIE     An3
        BYTE   W96
// 021   ----------------------------------------
        BYTE   W20
        BYTE           EOT
        BYTE   W76
// 022   ----------------------------------------
        BYTE   GoTo
         POIN2  RecruitmentTheme_0_LOOP
        BYTE   FINE

//****************** Track 1 (Midi-Chn.1) ******************//

RecruitmentTheme_1:
        BYTE   KEYSH   RecruitmentTheme_key+0
// 000   ----------------------------------------
RecruitmentTheme_1_LOOP:
        BYTE           VOICE   86
        BYTE           VOL     48
        BYTE           PAN     c_v-19
        BYTE   W96
// 001   ----------------------------------------
        BYTE   W96
// 002   ----------------------------------------
        BYTE   W96
// 003   ----------------------------------------
        BYTE   W96
// 004   ----------------------------------------
        BYTE   W96
// 005   ----------------------------------------
        BYTE   W96
// 006   ----------------------------------------
        BYTE   W96
// 007   ----------------------------------------
        BYTE   W96
// 008   ----------------------------------------
        BYTE   W96
// 009   ----------------------------------------
        BYTE   W72
        BYTE           N21     En4   v064
        BYTE   W24
// 010   ----------------------------------------
RecruitmentTheme_1_10:
        BYTE           N42     En4   v064   gtp1
        BYTE   W48
        BYTE           N64     Fn4
        BYTE   W48
        BYTE   PEND
// 011   ----------------------------------------
RecruitmentTheme_1_11:
        BYTE   W24
        BYTE           N21     Dn4   v064
        BYTE   W24
        BYTE                   Gn4
        BYTE   W24
        BYTE                   Bn4
        BYTE   W24
        BYTE   PEND
// 012   ----------------------------------------
        BYTE                   Bn4
        BYTE   W24
        BYTE                   Cn5
        BYTE   W24
        BYTE           TIE     En4
        BYTE   W48
// 013   ----------------------------------------
        BYTE   W64
        BYTE           EOT
        BYTE   W08
        BYTE           N21
        BYTE   W24
// 014   ----------------------------------------
        BYTE   PATT
         POIN2  RecruitmentTheme_1_10
// 015   ----------------------------------------
        BYTE   PATT
         POIN2  RecruitmentTheme_1_11
// 016   ----------------------------------------
        BYTE           N21     Bn4   v064
        BYTE   W24
        BYTE                   Cn5
        BYTE   W24
        BYTE           N64     En5
        BYTE   W48
// 017   ----------------------------------------
        BYTE   W24
        BYTE           N21     Dn5
        BYTE   W24
        BYTE                   Cn5
        BYTE   W24
        BYTE                   Bn4
        BYTE   W24
// 018   ----------------------------------------
        BYTE           N32
        BYTE   W36
        BYTE           TIE     An4
        BYTE   W60
// 019   ----------------------------------------
        BYTE   W36
        BYTE   W02
        BYTE           EOT
        BYTE   W10
        BYTE           N42     Gn4   v064   gtp1
        BYTE   W48
// 020   ----------------------------------------
        BYTE           N92     Dn4   v064   gtp3
        BYTE           TIE     An4
        BYTE   W96
// 021   ----------------------------------------
        BYTE           N17     Cs4
        BYTE   W18
        BYTE           EOT     An4
        BYTE   W78
// 022   ----------------------------------------
        BYTE   GoTo
         POIN2  RecruitmentTheme_1_LOOP
        BYTE   FINE

//****************** Track 2 (Midi-Chn.3) ******************//

RecruitmentTheme_2:
        BYTE   KEYSH   RecruitmentTheme_key+0
// 000   ----------------------------------------
RecruitmentTheme_2_LOOP:
        BYTE           VOICE   60
        BYTE           PAN     c_v+17
        BYTE           VOL     39
        BYTE           N10     An3   v064
        BYTE   W12
        BYTE                   Cn4
        BYTE   W12
        BYTE                   En4
        BYTE   W12
        BYTE                   An4
        BYTE   W12
        BYTE                   An3
        BYTE   W12
        BYTE                   Cn4
        BYTE   W12
        BYTE                   En4
        BYTE   W12
        BYTE                   An4
        BYTE   W12
// 001   ----------------------------------------
RecruitmentTheme_2_1:
        BYTE           N10     Gn3   v064
        BYTE   W12
        BYTE                   Cn4
        BYTE   W12
        BYTE                   En4
        BYTE   W12
        BYTE                   Gn4
        BYTE   W12
        BYTE                   Gn3
        BYTE   W12
        BYTE                   Cn4
        BYTE   W12
        BYTE                   En4
        BYTE   W12
        BYTE                   Gn4
        BYTE   W12
        BYTE   PEND
// 002   ----------------------------------------
RecruitmentTheme_2_2:
        BYTE           N10     Fs3   v064
        BYTE   W12
        BYTE                   An3
        BYTE   W12
        BYTE                   Dn4
        BYTE   W12
        BYTE                   Fs4
        BYTE   W12
        BYTE                   Fs3
        BYTE   W12
        BYTE                   An3
        BYTE   W12
        BYTE                   Dn4
        BYTE   W12
        BYTE                   Fs4
        BYTE   W12
        BYTE   PEND
// 003   ----------------------------------------
RecruitmentTheme_2_3:
        BYTE           N10     En3   v064
        BYTE   W12
        BYTE                   Gs3
        BYTE   W12
        BYTE                   Bn3
        BYTE   W12
        BYTE                   En4
        BYTE   W12
        BYTE                   En3
        BYTE   W12
        BYTE                   Gs3
        BYTE   W12
        BYTE                   Bn3
        BYTE   W12
        BYTE                   En4
        BYTE   W12
        BYTE   PEND
// 004   ----------------------------------------
        BYTE                   An3
        BYTE   W12
        BYTE                   Cn4
        BYTE   W12
        BYTE                   En4
        BYTE   W12
        BYTE                   An4
        BYTE   W12
        BYTE                   An3
        BYTE   W12
        BYTE                   Cn4
        BYTE   W12
        BYTE                   En4
        BYTE   W12
        BYTE                   An4
        BYTE   W12
// 005   ----------------------------------------
        BYTE   PATT
         POIN2  RecruitmentTheme_2_1
// 006   ----------------------------------------
        BYTE   PATT
         POIN2  RecruitmentTheme_2_2
// 007   ----------------------------------------
        BYTE           N10     Fn3   v064
        BYTE   W12
        BYTE                   An3
        BYTE   W12
        BYTE                   Dn4
        BYTE   W12
        BYTE                   Fn4
        BYTE   W12
        BYTE                   Fn3
        BYTE   W12
        BYTE                   An3
        BYTE   W12
        BYTE                   Dn4
        BYTE   W12
        BYTE                   Fn4
        BYTE   W12
// 008   ----------------------------------------
        BYTE   PATT
         POIN2  RecruitmentTheme_2_3
// 009   ----------------------------------------
        BYTE           N21     Dn4   v064
        BYTE   W96
// 010   ----------------------------------------
RecruitmentTheme_2_10:
        BYTE           N10     Dn3   v064
        BYTE   W12
        BYTE                   Fn3
        BYTE   W12
        BYTE                   An3
        BYTE   W12
        BYTE                   Dn4
        BYTE   W12
        BYTE                   Dn3
        BYTE   W12
        BYTE                   Fn3
        BYTE   W12
        BYTE                   An3
        BYTE   W12
        BYTE                   Dn4
        BYTE   W12
        BYTE   PEND
// 011   ----------------------------------------
RecruitmentTheme_2_11:
        BYTE           N10     Dn3   v064
        BYTE   W12
        BYTE                   Gn3
        BYTE   W12
        BYTE                   Bn3
        BYTE   W12
        BYTE                   Dn4
        BYTE   W12
        BYTE                   Dn3
        BYTE   W12
        BYTE                   Gn3
        BYTE   W12
        BYTE                   Bn3
        BYTE   W12
        BYTE                   Dn4
        BYTE   W12
        BYTE   PEND
// 012   ----------------------------------------
RecruitmentTheme_2_12:
        BYTE           N10     En3   v064
        BYTE   W12
        BYTE                   An3
        BYTE   W12
        BYTE                   Cn4
        BYTE   W12
        BYTE                   En4
        BYTE   W12
        BYTE                   En3
        BYTE   W12
        BYTE                   An3
        BYTE   W12
        BYTE                   Cn4
        BYTE   W12
        BYTE                   En4
        BYTE   W12
        BYTE   PEND
// 013   ----------------------------------------
        BYTE   PATT
         POIN2  RecruitmentTheme_2_12
// 014   ----------------------------------------
        BYTE   PATT
         POIN2  RecruitmentTheme_2_10
// 015   ----------------------------------------
        BYTE   PATT
         POIN2  RecruitmentTheme_2_11
// 016   ----------------------------------------
        BYTE   PATT
         POIN2  RecruitmentTheme_2_12
// 017   ----------------------------------------
        BYTE           N10     An3   v064
        BYTE   W12
        BYTE                   Cn4
        BYTE   W12
        BYTE                   En4
        BYTE   W12
        BYTE                   An4
        BYTE   W12
        BYTE                   Gn4
        BYTE   W12
        BYTE                   En4
        BYTE   W12
        BYTE                   Cn4
        BYTE   W12
        BYTE                   En3
        BYTE   W12
// 018   ----------------------------------------
        BYTE                   Cn3
        BYTE   W12
        BYTE                   Fn3
        BYTE   W12
        BYTE                   An3
        BYTE   W12
        BYTE                   Cn4
        BYTE   W12
        BYTE                   Cn3
        BYTE   W12
        BYTE                   Fn3
        BYTE   W12
        BYTE                   An3
        BYTE   W12
        BYTE                   Cn4
        BYTE   W12
// 019   ----------------------------------------
        BYTE                   Bn2
        BYTE   W12
        BYTE                   Dn3
        BYTE   W12
        BYTE                   Gn3
        BYTE   W12
        BYTE                   Bn3
        BYTE   W12
        BYTE                   Bn2
        BYTE   W12
        BYTE                   Dn3
        BYTE   W12
        BYTE                   Gn3
        BYTE   W12
        BYTE                   Bn3
        BYTE   W12
// 020   ----------------------------------------
        BYTE                   An2
        BYTE   W12
        BYTE                   Cn3
        BYTE   W12
        BYTE                   En3
        BYTE   W12
        BYTE                   An3
        BYTE   W12
        BYTE                   An2
        BYTE   W12
        BYTE                   Cn3
        BYTE   W12
        BYTE                   En3
        BYTE   W12
        BYTE                   Gn3
        BYTE   W12
// 021   ----------------------------------------
        BYTE                   An3
        BYTE   W96
// 022   ----------------------------------------
        BYTE   GoTo
         POIN2  RecruitmentTheme_2_LOOP
        BYTE   FINE

//****************** Track 3 (Midi-Chn.4) ******************//

RecruitmentTheme_3:
        BYTE   KEYSH   RecruitmentTheme_key+0
// 000   ----------------------------------------
RecruitmentTheme_3_LOOP:
        BYTE           VOICE   63
        BYTE           PAN     c_v-1
        BYTE           VOL     64
        BYTE   W96
// 001   ----------------------------------------
        BYTE   W96
// 002   ----------------------------------------
        BYTE   W96
// 003   ----------------------------------------
        BYTE   W96
// 004   ----------------------------------------
        BYTE   W96
// 005   ----------------------------------------
        BYTE   W96
// 006   ----------------------------------------
        BYTE   W96
// 007   ----------------------------------------
        BYTE   W96
// 008   ----------------------------------------
        BYTE   W96
// 009   ----------------------------------------
        BYTE   W96
// 010   ----------------------------------------
RecruitmentTheme_3_10:
        BYTE           N10     Bn3   v064
        BYTE   W12
        BYTE                   An3
        BYTE   W12
        BYTE                   Bn3
        BYTE   W12
        BYTE           N32     Cn4
        BYTE   W60
        BYTE   PEND
// 011   ----------------------------------------
        BYTE           N10     Bn3
        BYTE   W12
        BYTE                   An3
        BYTE   W12
        BYTE                   Gn3
        BYTE   W12
        BYTE           N32     Bn3
        BYTE   W60
// 012   ----------------------------------------
        BYTE   PATT
         POIN2  RecruitmentTheme_3_10
// 013   ----------------------------------------
        BYTE           N10     Dn4   v064
        BYTE   W12
        BYTE                   En4
        BYTE   W12
        BYTE                   Dn4
        BYTE   W12
        BYTE                   Cn4
        BYTE   W12
        BYTE                   Bn3
        BYTE   W12
        BYTE                   An3
        BYTE   W12
        BYTE                   Gn3
        BYTE   W12
        BYTE                   Bn3
        BYTE   W12
// 014   ----------------------------------------
RecruitmentTheme_3_14:
        BYTE           N10     Bn3   v064
        BYTE   W12
        BYTE                   An3
        BYTE   W12
        BYTE                   Bn3
        BYTE   W12
        BYTE           N32     En4
        BYTE   W60
        BYTE   PEND
// 015   ----------------------------------------
        BYTE   PATT
         POIN2  RecruitmentTheme_3_14
// 016   ----------------------------------------
        BYTE   PATT
         POIN2  RecruitmentTheme_3_14
// 017   ----------------------------------------
        BYTE           N10     Dn4   v064
        BYTE   W12
        BYTE                   En4
        BYTE   W12
        BYTE                   Dn4
        BYTE   W12
        BYTE                   Cn4
        BYTE   W12
        BYTE                   Dn4
        BYTE   W12
        BYTE                   Cn4
        BYTE   W12
        BYTE                   Bn3
        BYTE   W12
        BYTE                   An3
        BYTE   W12
// 018   ----------------------------------------
RecruitmentTheme_3_18:
        BYTE           N10     Cn4   v064
        BYTE   W12
        BYTE                   Bn3
        BYTE   W12
        BYTE                   An3
        BYTE   W12
        BYTE           N32     En3
        BYTE   W60
        BYTE   PEND
// 019   ----------------------------------------
        BYTE   PATT
         POIN2  RecruitmentTheme_3_18
// 020   ----------------------------------------
        BYTE           N10     Cn4   v064
        BYTE   W12
        BYTE                   Bn3
        BYTE   W12
        BYTE                   An3
        BYTE   W12
        BYTE           N21     Gn3
        BYTE   W24
        BYTE                   Bn3
        BYTE   W24
        BYTE           N10     Gn3
        BYTE   W12
// 021   ----------------------------------------
        BYTE           N12     An3
        BYTE   W96
// 022   ----------------------------------------
        BYTE   GoTo
         POIN2  RecruitmentTheme_3_LOOP
        BYTE   FINE

//****************** Track 4 (Midi-Chn.5) ******************//

RecruitmentTheme_4:
        BYTE   KEYSH   RecruitmentTheme_key+0
// 000   ----------------------------------------
RecruitmentTheme_4_LOOP:
        BYTE           VOICE   87
        BYTE           VOL     61
        BYTE           N21     An1   v114
        BYTE   W36
        BYTE           N10
        BYTE   W36
        BYTE                   An1
        BYTE   W24
// 001   ----------------------------------------
        BYTE           N21     Gn1
        BYTE   W36
        BYTE           N10
        BYTE   W36
        BYTE                   Gn1
        BYTE   W24
// 002   ----------------------------------------
        BYTE           N21     Fs1
        BYTE   W36
        BYTE           N10
        BYTE   W36
        BYTE                   Fs1
        BYTE   W24
// 003   ----------------------------------------
        BYTE           N21     Gs1
        BYTE   W36
        BYTE           N10
        BYTE   W36
        BYTE                   Gs1
        BYTE   W24
// 004   ----------------------------------------
        BYTE           N21     An1
        BYTE   W36
        BYTE           N10
        BYTE   W24
        BYTE                   An1
        BYTE   W24
        BYTE                   An1
        BYTE   W12
// 005   ----------------------------------------
        BYTE           N21     Gn1
        BYTE   W36
        BYTE           N10
        BYTE   W24
        BYTE                   Gn1
        BYTE   W24
        BYTE                   Gn1
        BYTE   W12
// 006   ----------------------------------------
        BYTE           N21     Fs1
        BYTE   W36
        BYTE           N10
        BYTE   W24
        BYTE                   Fs1
        BYTE   W24
        BYTE                   Fs1
        BYTE   W12
// 007   ----------------------------------------
        BYTE           N21     Fn1
        BYTE   W36
        BYTE           N10
        BYTE   W24
        BYTE                   Fn1
        BYTE   W24
        BYTE                   Fn1
        BYTE   W12
// 008   ----------------------------------------
        BYTE           N21     En1
        BYTE   W36
        BYTE           N10
        BYTE   W24
        BYTE                   En1
        BYTE   W24
        BYTE                   En1
        BYTE   W12
// 009   ----------------------------------------
        BYTE                   En1
        BYTE   W72
        BYTE           N21
        BYTE   W24
// 010   ----------------------------------------
        BYTE                   Fn1
        BYTE   W36
        BYTE           N42     Fn1   v114   gtp1
        BYTE   W60
// 011   ----------------------------------------
        BYTE           N21     Gn1
        BYTE   W36
        BYTE           N42     Gn1   v114   gtp1
        BYTE   W60
// 012   ----------------------------------------
        BYTE           N21     An1
        BYTE   W36
        BYTE           N42     An1   v114   gtp1
        BYTE   W60
// 013   ----------------------------------------
        BYTE           N21
        BYTE   W36
        BYTE                   An1
        BYTE   W36
        BYTE                   Gn1
        BYTE   W24
// 014   ----------------------------------------
RecruitmentTheme_4_14:
        BYTE           N21     Dn1   v114
        BYTE   W36
        BYTE                   Dn1
        BYTE   W36
        BYTE           N10
        BYTE   W24
        BYTE   PEND
// 015   ----------------------------------------
        BYTE           N21     En1
        BYTE   W36
        BYTE                   En1
        BYTE   W36
        BYTE           N10     Gs1
        BYTE   W24
// 016   ----------------------------------------
        BYTE           N21     An1
        BYTE   W36
        BYTE                   An1
        BYTE   W36
        BYTE                   En1
        BYTE   W24
// 017   ----------------------------------------
        BYTE                   Gn1
        BYTE   W36
        BYTE                   Gn1
        BYTE   W36
        BYTE                   En1
        BYTE   W24
// 018   ----------------------------------------
        BYTE   PATT
         POIN2  RecruitmentTheme_4_14
// 019   ----------------------------------------
        BYTE           N21     En1   v114
        BYTE   W36
        BYTE                   Gn1
        BYTE   W36
        BYTE           N10     Bn1
        BYTE   W24
// 020   ----------------------------------------
        BYTE           N21     An1
        BYTE   W36
        BYTE                   Gn1
        BYTE   W24
        BYTE           N10
        BYTE   W24
        BYTE                   Gn1
        BYTE   W12
// 021   ----------------------------------------
        BYTE           N21     An1
        BYTE   W96
// 022   ----------------------------------------
        BYTE   GoTo
         POIN2  RecruitmentTheme_4_LOOP
        BYTE   FINE

//****************** Track 5 (Midi-Chn.6) ******************//

RecruitmentTheme_5:
        BYTE   KEYSH   RecruitmentTheme_key+0
// 000   ----------------------------------------
RecruitmentTheme_5_LOOP:
        BYTE           VOICE   124
        BYTE           VOL     55
        BYTE           N12     Cn1   v110
        BYTE           N24     Fs3
        BYTE           N36     As2
        BYTE           N12     Ds4   v101
        BYTE   W36
        BYTE           N24     Fs3   v110
        BYTE           N12     Ds4   v101
        BYTE   W36
        BYTE                   Cn1   v110
        BYTE           N24     Fn3
        BYTE   W24
// 001   ----------------------------------------
        BYTE           N12     Cn1
        BYTE           N24     Fs3
        BYTE           N12     Ds4   v101
        BYTE   W36
        BYTE           N24     Fs3   v110
        BYTE           N06     Ds4   v101
        BYTE   W24
        BYTE           N12
        BYTE   W12
        BYTE                   Cn1   v110
        BYTE           N24     Fn3
        BYTE           N06     Ds1   v104
        BYTE   W24
// 002   ----------------------------------------
        BYTE           N12     Cn1   v110
        BYTE           N24     Fs3
        BYTE           N12     Ds4   v101
        BYTE   W36
        BYTE           N24     Fs3   v110
        BYTE           N12     Ds4   v101
        BYTE   W36
        BYTE                   Cn1   v110
        BYTE           N24     Fn3
        BYTE   W24
// 003   ----------------------------------------
        BYTE           N12     Cn1
        BYTE           N24     Fs3
        BYTE           N12     Ds4   v101
        BYTE   W36
        BYTE           N24     Fs3   v110
        BYTE           N06     Ds4   v101
        BYTE   W24
        BYTE           N12
        BYTE   W12
        BYTE                   Ds1   v110
        BYTE           N12     Cn1
        BYTE           N24     Fn3
        BYTE   W24
// 004   ----------------------------------------
        BYTE           N12     Cn1
        BYTE           N24     Fs3
        BYTE           N36     As2
        BYTE           N12     Ds4   v101
        BYTE   W36
        BYTE                   Cn1   v110
        BYTE           N24     Fs3
        BYTE           N12     Ds4   v101
        BYTE   W24
        BYTE                   Fs3   v110
        BYTE   W12
        BYTE                   Cn1
        BYTE           N24     Fn3
        BYTE   W24
// 005   ----------------------------------------
        BYTE           N12     Cn1
        BYTE           N24     Fs3
        BYTE           N12     Ds4   v101
        BYTE   W36
        BYTE                   Cn1   v110
        BYTE           N24     Fs3
        BYTE           N06     Ds4   v101
        BYTE   W24
        BYTE           N12     Fs3   v110
        BYTE           N12     Ds4   v101
        BYTE   W12
        BYTE           N09     Cn1   v110
        BYTE           N24     Fn3
        BYTE           N06     Ds1   v104
        BYTE   W12
        BYTE           N09     Cn1   v110
        BYTE   W12
// 006   ----------------------------------------
        BYTE           N12
        BYTE           N24     Fs3
        BYTE           N12     Ds4   v101
        BYTE   W36
        BYTE                   Cn1   v110
        BYTE           N24     Fs3
        BYTE           N12     Ds4   v101
        BYTE   W24
        BYTE                   Fs3   v110
        BYTE   W12
        BYTE                   Cn1
        BYTE           N24     Fn3
        BYTE   W24
// 007   ----------------------------------------
        BYTE           N12     Cn1
        BYTE           N24     Fs3
        BYTE           N12     Ds4   v101
        BYTE   W36
        BYTE                   Cn1   v110
        BYTE           N24     Fs3
        BYTE           N06     Ds4   v101
        BYTE   W24
        BYTE           N12     Fs3   v110
        BYTE           N12     Ds4   v101
        BYTE   W12
        BYTE           N09     Cn1   v110
        BYTE           N24     Fn3
        BYTE           N12     Ds1   v104
        BYTE   W12
        BYTE           N09     Cn1   v110
        BYTE   W12
// 008   ----------------------------------------
        BYTE           N12
        BYTE           N24     Fs3
        BYTE           N12     Cn3
        BYTE           N12     Ds4   v101
        BYTE   W24
        BYTE           N06     Cn1   v110
        BYTE           N06     Ds1
        BYTE           N12     Cs3
        BYTE   W12
        BYTE           N06     Cn1
        BYTE           N06     Ds1
        BYTE           N24     Fs3
        BYTE           N12     Cs3
        BYTE   W12
        BYTE           N06     Cn1
        BYTE           N06     Ds1
        BYTE   W12
        BYTE                   Cn1
        BYTE           N06     Ds1
        BYTE           N12     Fs3
        BYTE           N12     Cn3
        BYTE   W12
        BYTE           N06     Cn1
        BYTE           N06     Ds1
        BYTE           N24     Fn3
        BYTE           N12     Cs3
        BYTE   W12
        BYTE           N06     Cn1
        BYTE           N06     Ds1
        BYTE           N12     Cs3
        BYTE   W12
// 009   ----------------------------------------
        BYTE                   Cn1
        BYTE           N12     Dn1
        BYTE           N24     Fs3
        BYTE           N36     As2
        BYTE           N12     Cn3
        BYTE   W24
        BYTE                   Cn1
        BYTE   W12
        BYTE                   Cn3
        BYTE   W12
        BYTE           N09     Cn1
        BYTE   W12
        BYTE           N12
        BYTE   W12
        BYTE                   Dn1
        BYTE   W24
// 010   ----------------------------------------
RecruitmentTheme_5_10:
        BYTE           N12     Cn1   v110
        BYTE           N09     As3   v090
        BYTE           N09     En3   v095
        BYTE   W12
        BYTE                   Cs4   v101
        BYTE           N09     As3   v090
        BYTE   W12
        BYTE           N12     Dn1   v110
        BYTE           N09     As3   v090
        BYTE   W12
        BYTE                   Cn1   v110
        BYTE           N09     En3   v095
        BYTE           N24     Fn3   v110
        BYTE           N09     As3   v090
        BYTE   W12
        BYTE           N12     Cn1   v110
        BYTE           N09     Cs4   v101
        BYTE           N09     En3   v095
        BYTE   W24
        BYTE           N12     Dn1   v110
        BYTE           N09     Ds3   v095
        BYTE   W12
        BYTE                   Cn1   v110
        BYTE   W12
        BYTE   PEND
// 011   ----------------------------------------
RecruitmentTheme_5_11:
        BYTE           N12     Cn1   v110
        BYTE           N09     As3   v090
        BYTE           N09     En3   v095
        BYTE   W12
        BYTE                   Cs4   v101
        BYTE           N09     As3   v090
        BYTE           N09     En3   v095
        BYTE   W12
        BYTE           N12     Dn1   v110
        BYTE           N09     As3   v090
        BYTE   W12
        BYTE                   Cn1   v110
        BYTE           N09     En3   v095
        BYTE           N24     Fn3   v110
        BYTE           N09     As3   v090
        BYTE   W12
        BYTE           N12     Cn1   v110
        BYTE           N09     Cs4   v101
        BYTE           N09     En3   v095
        BYTE   W24
        BYTE           N12     Dn1   v110
        BYTE           N18     Dn4   v101
        BYTE           N09     Ds3   v095
        BYTE           N24     Fs3   v110
        BYTE   W12
        BYTE           N09     Cn1
        BYTE   W12
        BYTE   PEND
// 012   ----------------------------------------
        BYTE   PATT
         POIN2  RecruitmentTheme_5_10
// 013   ----------------------------------------
        BYTE           N12     Cn1   v110
        BYTE           N09     As3   v090
        BYTE           N09     En3   v095
        BYTE   W12
        BYTE                   Cs4   v101
        BYTE           N09     As3   v090
        BYTE           N09     En3   v095
        BYTE   W12
        BYTE           N12     Dn1   v110
        BYTE           N09     As3   v090
        BYTE   W12
        BYTE                   Cn1   v110
        BYTE           N09     As3   v090
        BYTE           N09     En3   v095
        BYTE           N24     Fn3   v110
        BYTE   W12
        BYTE           N12     Cn1
        BYTE           N09     Cs4   v101
        BYTE           N09     As3   v090
        BYTE           N09     En3   v095
        BYTE   W12
        BYTE                   As3   v090
        BYTE   W12
        BYTE           N12     Dn1   v110
        BYTE           N18     Dn4   v101
        BYTE           N09     As3   v090
        BYTE           N09     Ds3   v095
        BYTE           N24     Fs3   v110
        BYTE   W12
        BYTE           N09     Cn1
        BYTE           N09     As3   v090
        BYTE   W12
// 014   ----------------------------------------
        BYTE   PATT
         POIN2  RecruitmentTheme_5_10
// 015   ----------------------------------------
        BYTE   PATT
         POIN2  RecruitmentTheme_5_11
// 016   ----------------------------------------
        BYTE   PATT
         POIN2  RecruitmentTheme_5_10
// 017   ----------------------------------------
        BYTE           N12     Cn1   v110
        BYTE           N09     As3   v090
        BYTE           N09     En3   v095
        BYTE   W12
        BYTE                   Cs4   v101
        BYTE           N09     As3   v090
        BYTE           N09     En3   v095
        BYTE   W12
        BYTE           N12     Dn1   v110
        BYTE           N09     As3   v090
        BYTE   W12
        BYTE                   Cn1   v110
        BYTE           N09     As3   v090
        BYTE           N09     En3   v095
        BYTE           N24     Fn3   v110
        BYTE   W12
        BYTE           N12     Cn1
        BYTE           N09     Cs4   v101
        BYTE           N09     As3   v090
        BYTE           N09     En3   v095
        BYTE   W12
        BYTE           N12     Cn2   v110
        BYTE           N09     As3   v090
        BYTE   W12
        BYTE           N12     Dn1   v110
        BYTE           N18     Dn4   v101
        BYTE           N09     As3   v090
        BYTE           N09     Ds3   v095
        BYTE           N24     Fs3   v110
        BYTE   W12
        BYTE           N12     Bn1
        BYTE           N09     Cn1
        BYTE           N09     As3   v090
        BYTE   W12
// 018   ----------------------------------------
        BYTE           N12     Cn1   v110
        BYTE           N24     Cs2
        BYTE           N09     As3   v090
        BYTE           N09     En3   v095
        BYTE   W12
        BYTE                   Cs4   v101
        BYTE           N09     As3   v090
        BYTE   W12
        BYTE           N12     Dn1   v110
        BYTE           N09     As3   v090
        BYTE   W12
        BYTE                   Cn1   v110
        BYTE           N09     En3   v095
        BYTE           N24     Fs3   v110
        BYTE           N09     As3   v090
        BYTE   W12
        BYTE           N12     Cn1   v110
        BYTE           N09     Cs4   v101
        BYTE           N09     En3   v095
        BYTE   W24
        BYTE           N12     Dn1   v110
        BYTE           N09     Ds3   v095
        BYTE   W12
        BYTE                   Cn1   v110
        BYTE   W12
// 019   ----------------------------------------
        BYTE           N12
        BYTE           N09     As3   v090
        BYTE           N09     En3   v095
        BYTE   W12
        BYTE                   Cs4   v101
        BYTE           N09     As3   v090
        BYTE           N09     En3   v095
        BYTE   W12
        BYTE           N12     Dn1   v110
        BYTE           N09     As3   v090
        BYTE   W12
        BYTE                   Cn1   v110
        BYTE           N09     En3   v095
        BYTE           N24     Fs3   v110
        BYTE           N09     As3   v090
        BYTE   W12
        BYTE           N12     Cn1   v110
        BYTE           N09     Cs4   v101
        BYTE           N09     En3   v095
        BYTE   W24
        BYTE           N12     Dn1   v110
        BYTE           N18     Dn4   v101
        BYTE           N09     Ds3   v095
        BYTE           N24     Fs3   v110
        BYTE   W12
        BYTE           N09     Cn1
        BYTE   W12
// 020   ----------------------------------------
        BYTE           N12
        BYTE           N09     As3   v090
        BYTE           N09     En3   v095
        BYTE   W12
        BYTE                   Cs4   v101
        BYTE           N09     As3   v090
        BYTE   W12
        BYTE           N12     Dn1   v110
        BYTE           N09     As3   v090
        BYTE   W12
        BYTE                   Cn1   v110
        BYTE           N09     En3   v095
        BYTE           N24     Fs3   v110
        BYTE           N09     As3   v090
        BYTE   W12
        BYTE           N12     Cn1   v110
        BYTE           N09     Cs4   v101
        BYTE           N09     En3   v095
        BYTE   W12
        BYTE           N06     Ds1   v110
        BYTE   W12
        BYTE           N12     Dn1
        BYTE           N09     Ds3   v095
        BYTE           N24     Fs3   v110
        BYTE   W12
        BYTE           N09     Cn1
        BYTE   W12
// 021   ----------------------------------------
        BYTE           N06     Ds1
        BYTE           N12     Cn1
        BYTE           N12     Cn2
        BYTE           N09     En3   v095
        BYTE           N24     Fs3   v110
        BYTE   W12
        BYTE           N06     Ds1
        BYTE           N09     Cs4   v101
        BYTE           N09     En3   v095
        BYTE   W12
        BYTE           N12     Cn1   v110
        BYTE           N06     Ds1
        BYTE           N12     Cn2
        BYTE   W12
        BYTE           N06     Ds1
        BYTE           N09     En3   v095
        BYTE           N09     Fs3   v110
        BYTE   W12
        BYTE                   Cn1
        BYTE           N06     Ds1
        BYTE           N12     Cn2
        BYTE           N09     Cs4   v101
        BYTE           N09     En3   v095
        BYTE           N24     Fs3   v110
        BYTE   W12
        BYTE           N12     Cn1
        BYTE           N06     Ds1
        BYTE           N12     Bn1
        BYTE   W12
        BYTE           N06     Ds1
        BYTE           N12     Gn1
        BYTE           N18     Dn4   v101
        BYTE           N09     Ds3   v095
        BYTE           N24     Fn3   v110
        BYTE   W12
        BYTE           N06     Ds1
        BYTE   W12
// 022   ----------------------------------------
        BYTE   GoTo
         POIN2  RecruitmentTheme_5_LOOP
        BYTE   FINE

//****************** Track 6 (Midi-Chn.7) ******************//

RecruitmentTheme_6:
        BYTE   KEYSH   RecruitmentTheme_key+0
// 000   ----------------------------------------
RecruitmentTheme_6_LOOP:
        BYTE           VOICE   109
        BYTE           VOL     44
        BYTE           PAN     c_v-35
        BYTE           N21     An3   v064
        BYTE           N21     Cn4
        BYTE   W36
        BYTE           N10     An3
        BYTE           N10     Cn4
        BYTE   W24
        BYTE                   Cn4
        BYTE           N10     An3
        BYTE   W24
        BYTE                   An3
        BYTE           N10     Cn4
        BYTE   W12
// 001   ----------------------------------------
        BYTE           N21     Gn3
        BYTE           N21     Cn4
        BYTE   W36
        BYTE           N10     Gn3
        BYTE           N10     Cn4
        BYTE   W24
        BYTE                   Gn3
        BYTE           N10     Cn4
        BYTE   W24
        BYTE                   Gn3
        BYTE           N10     Cn4
        BYTE   W12
// 002   ----------------------------------------
RecruitmentTheme_6_2:
        BYTE           N21     An3   v064
        BYTE           N21     Fs3
        BYTE   W36
        BYTE           N10     An3
        BYTE           N10     Fs3
        BYTE   W24
        BYTE                   An3
        BYTE           N10     Fs3
        BYTE   W24
        BYTE                   An3
        BYTE           N10     Fs3
        BYTE   W12
        BYTE   PEND
// 003   ----------------------------------------
        BYTE           N21     Bn3
        BYTE           N21     Gs3
        BYTE   W36
        BYTE           N10     Bn3
        BYTE           N10     Gs3
        BYTE   W24
        BYTE                   Bn3
        BYTE           N10     Gs3
        BYTE   W24
        BYTE                   Bn3
        BYTE           N10     Gs3
        BYTE   W12
// 004   ----------------------------------------
        BYTE           N21     Cn4
        BYTE           N21     An3
        BYTE   W36
        BYTE           N10     Cn4
        BYTE           N10     An3
        BYTE   W24
        BYTE                   Cn4
        BYTE           N10     An3
        BYTE   W24
        BYTE                   Cn4
        BYTE           N10     An3
        BYTE   W12
// 005   ----------------------------------------
        BYTE           N21     Cn4
        BYTE           N21     Gn3
        BYTE   W36
        BYTE           N10     Cn4
        BYTE           N10     Gn3
        BYTE   W24
        BYTE                   Cn4
        BYTE           N10     Gn3
        BYTE   W24
        BYTE                   Cn4
        BYTE           N10     Gn3
        BYTE   W12
// 006   ----------------------------------------
        BYTE   PATT
         POIN2  RecruitmentTheme_6_2
// 007   ----------------------------------------
        BYTE           N21     An3   v064
        BYTE           N21     Fn3
        BYTE   W36
        BYTE           N10     An3
        BYTE           N10     Fn3
        BYTE   W24
        BYTE                   An3
        BYTE           N10     Fn3
        BYTE   W24
        BYTE                   An3
        BYTE           N10     Fn3
        BYTE   W12
// 008   ----------------------------------------
        BYTE           N21     Bn3
        BYTE           N21     Gs3
        BYTE   W36
        BYTE           N10
        BYTE           N10     Bn3
        BYTE   W24
        BYTE                   Gs3
        BYTE           N10     Bn3
        BYTE   W24
        BYTE                   Gs3
        BYTE           N10     Bn3
        BYTE   W12
// 009   ----------------------------------------
        BYTE                   Gs3
        BYTE           N10     Dn4
        BYTE   W96
// 010   ----------------------------------------
RecruitmentTheme_6_10:
        BYTE           N10     Fn3   v064
        BYTE           N10     An3
        BYTE   W36
        BYTE                   Fn3
        BYTE           N10     An3
        BYTE   W24
        BYTE                   Fn3
        BYTE           N10     An3
        BYTE   W24
        BYTE                   Fn3
        BYTE           N10     An3
        BYTE   W12
        BYTE   PEND
// 011   ----------------------------------------
RecruitmentTheme_6_11:
        BYTE           N10     Bn3   v064
        BYTE           N10     Gn3
        BYTE   W36
        BYTE                   Bn3
        BYTE           N10     Gn3
        BYTE   W24
        BYTE                   Bn3
        BYTE           N10     Gn3
        BYTE   W24
        BYTE                   Bn3
        BYTE           N10     Gn3
        BYTE   W12
        BYTE   PEND
// 012   ----------------------------------------
RecruitmentTheme_6_12:
        BYTE           N10     Cn4   v064
        BYTE           N10     An3
        BYTE   W36
        BYTE                   An3
        BYTE           N10     Cn4
        BYTE   W24
        BYTE                   An3
        BYTE           N10     Cn4
        BYTE   W24
        BYTE                   An3
        BYTE           N10     Cn4
        BYTE   W12
        BYTE   PEND
// 013   ----------------------------------------
RecruitmentTheme_6_13:
        BYTE           N10     Bn3   v064
        BYTE           N10     Gn3
        BYTE   W36
        BYTE                   Gn3
        BYTE           N10     Bn3
        BYTE   W24
        BYTE                   Bn3
        BYTE           N10     Gn3
        BYTE   W24
        BYTE                   Bn3
        BYTE           N10     Gn3
        BYTE   W12
        BYTE   PEND
// 014   ----------------------------------------
        BYTE   PATT
         POIN2  RecruitmentTheme_6_10
// 015   ----------------------------------------
        BYTE   PATT
         POIN2  RecruitmentTheme_6_11
// 016   ----------------------------------------
        BYTE   PATT
         POIN2  RecruitmentTheme_6_12
// 017   ----------------------------------------
        BYTE   PATT
         POIN2  RecruitmentTheme_6_13
// 018   ----------------------------------------
        BYTE           N10     An3   v064
        BYTE           N10     Fn3
        BYTE   W36
        BYTE                   An3
        BYTE           N10     Fn3
        BYTE   W24
        BYTE                   An3
        BYTE           N10     Fn3
        BYTE   W24
        BYTE                   An3
        BYTE           N10     Fn3
        BYTE   W12
// 019   ----------------------------------------
        BYTE                   Gn3
        BYTE           N10     Bn3
        BYTE   W36
        BYTE                   Gn3
        BYTE           N10     Bn3
        BYTE   W24
        BYTE                   Gn3
        BYTE           N10     Bn3
        BYTE   W24
        BYTE                   Gn3
        BYTE           N10     Bn3
        BYTE   W12
// 020   ----------------------------------------
        BYTE                   An3
        BYTE           N10     Dn4
        BYTE   W36
        BYTE                   An3
        BYTE           N10     Dn4
        BYTE   W24
        BYTE                   Dn4
        BYTE           N10     An3
        BYTE   W24
        BYTE                   Dn4
        BYTE           N10     An3
        BYTE   W12
// 021   ----------------------------------------
        BYTE                   An3
        BYTE           N10     Cs4
        BYTE   W96
// 022   ----------------------------------------
        BYTE   GoTo
         POIN2  RecruitmentTheme_6_LOOP
        BYTE   FINE


//********************** End of Song ***********************//

        ALIGN 4
RecruitmentTheme:
        BYTE   7                       // Num Tracks
        BYTE   0                       // Unknown
        BYTE   RecruitmentTheme_pri    // Priority
        BYTE   RecruitmentTheme_rev    // Reverb

        POIN2   RecruitmentTheme_grp   

        POIN2   RecruitmentTheme_0
        POIN2   RecruitmentTheme_1
        POIN2   RecruitmentTheme_2
        POIN2   RecruitmentTheme_3
        POIN2   RecruitmentTheme_4
        POIN2   RecruitmentTheme_5
        POIN2   RecruitmentTheme_6

        
