//Event file generated from Sappy .s format.
        #include "MPlayDef.event"

        #define    SacrificeAndTheSaint_grp  voicegroup000
        #define    SacrificeAndTheSaint_pri  0
        #define    SacrificeAndTheSaint_rev  0
        #define    SacrificeAndTheSaint_key  0

        // .rodata
        // SacrificeAndTheSaint
        ALIGN 4

//****************** Track 0 (Midi-Chn.0) ******************//

SacrificeAndTheSaint_0:
        BYTE   KEYSH   SacrificeAndTheSaint_key+0
// 000   ----------------------------------------
        BYTE   TEMPO   180/2
SacrificeAndTheSaint_0_LOOP:
        BYTE           VOICE   39
        BYTE           VOL     51
        BYTE           PAN     c_v-4
        BYTE           N36     An1   v112
        BYTE   W36
        BYTE                   An1   v092
        BYTE   W36
        BYTE           N24     An1   v102
        BYTE   W24
// 001   ----------------------------------------
SacrificeAndTheSaint_0_1:
        BYTE           N36     Fn1   v112
        BYTE   W36
        BYTE                   Fn1   v092
        BYTE   W36
        BYTE           N24     Fn1   v102
        BYTE   W24
        BYTE   PEND
// 002   ----------------------------------------
SacrificeAndTheSaint_0_2:
        BYTE           N36     Dn1   v112
        BYTE   W36
        BYTE                   Dn1   v092
        BYTE   W36
        BYTE           N24     Dn1   v102
        BYTE   W24
        BYTE   PEND
// 003   ----------------------------------------
SacrificeAndTheSaint_0_3:
        BYTE           N36     En1   v112
        BYTE   W36
        BYTE           N24     En1   v092
        BYTE   W24
        BYTE           N12     En1   v102
        BYTE   W12
        BYTE                   Fn1   v112
        BYTE   W12
        BYTE                   An0   v121
        BYTE   W12
        BYTE                   En1   v112
        BYTE   W12
        BYTE                   Cn1
        BYTE   W12
        BYTE   PEND
// 004   ----------------------------------------
        BYTE           N36     An1
        BYTE   W36
        BYTE                   An1   v092
        BYTE   W36
        BYTE           N24     An1   v102
        BYTE   W24
// 005   ----------------------------------------
        BYTE   PATT
         POIN2  SacrificeAndTheSaint_0_1
// 006   ----------------------------------------
        BYTE   PATT
         POIN2  SacrificeAndTheSaint_0_2
// 007   ----------------------------------------
        BYTE   PATT
         POIN2  SacrificeAndTheSaint_0_3
// 008   ----------------------------------------
SacrificeAndTheSaint_0_8:
        BYTE           N36     An1   v096
        BYTE   W36
        BYTE                   An1   v076
        BYTE   W36
        BYTE           N24     An1   v086
        BYTE   W24
        BYTE   PEND
// 009   ----------------------------------------
        BYTE   PATT
         POIN2  SacrificeAndTheSaint_0_8
// 010   ----------------------------------------
        BYTE   PATT
         POIN2  SacrificeAndTheSaint_0_8
// 011   ----------------------------------------
        BYTE   PATT
         POIN2  SacrificeAndTheSaint_0_8
// 012   ----------------------------------------
SacrificeAndTheSaint_0_12:
        BYTE           N36     Gn1   v096
        BYTE   W36
        BYTE                   Gn1   v076
        BYTE   W36
        BYTE           N24     Gn1   v086
        BYTE   W24
        BYTE   PEND
// 013   ----------------------------------------
        BYTE   PATT
         POIN2  SacrificeAndTheSaint_0_12
// 014   ----------------------------------------
        BYTE           N36     En1   v096
        BYTE   W36
        BYTE                   En1   v076
        BYTE   W36
        BYTE           N24     En1   v086
        BYTE   W24
// 015   ----------------------------------------
        BYTE           N36     En1   v096
        BYTE   W36
        BYTE                   Dn1   v076
        BYTE   W36
        BYTE           N24     As1   v086
        BYTE   W24
// 016   ----------------------------------------
SacrificeAndTheSaint_0_16:
        BYTE           N36     An1   v104
        BYTE   W36
        BYTE                   An1   v080
        BYTE   W36
        BYTE           N24     Gn1   v088
        BYTE   W24
        BYTE   PEND
// 017   ----------------------------------------
SacrificeAndTheSaint_0_17:
        BYTE           N36     Gn1   v104
        BYTE   W36
        BYTE                   Gn1   v080
        BYTE   W36
        BYTE           N24     Gn1   v088
        BYTE   W24
        BYTE   PEND
// 018   ----------------------------------------
SacrificeAndTheSaint_0_18:
        BYTE           N36     Dn1   v104
        BYTE   W36
        BYTE                   Dn1   v080
        BYTE   W36
        BYTE           N24     Dn1   v088
        BYTE   W24
        BYTE   PEND
// 019   ----------------------------------------
        BYTE           N36     En1   v104
        BYTE   W36
        BYTE           N12     En1   v088
        BYTE   W12
        BYTE           N24     En1   v096
        BYTE   W24
        BYTE           N12     En1   v080
        BYTE   W12
        BYTE                   En1   v104
        BYTE   W12
        BYTE                   Dn1   v080
        BYTE   W12
        BYTE                   Dn1   v096
        BYTE   W12
// 020   ----------------------------------------
SacrificeAndTheSaint_0_20:
        BYTE           N36     An1   v104
        BYTE   W36
        BYTE                   An1   v080
        BYTE   W36
        BYTE           N24     An1   v088
        BYTE   W24
        BYTE   PEND
// 021   ----------------------------------------
SacrificeAndTheSaint_0_21:
        BYTE           N36     Fn1   v104
        BYTE   W36
        BYTE                   Fn1   v080
        BYTE   W36
        BYTE           N24     Fn1   v088
        BYTE   W24
        BYTE   PEND
// 022   ----------------------------------------
        BYTE   PATT
         POIN2  SacrificeAndTheSaint_0_18
// 023   ----------------------------------------
        BYTE           N36     En1   v104
        BYTE   W36
        BYTE           N12     En1   v088
        BYTE   W12
        BYTE           N24     En1   v096
        BYTE   W24
        BYTE           N12     En1   v080
        BYTE   W12
        BYTE                   En1   v104
        BYTE   W12
        BYTE                   En1   v080
        BYTE   W12
        BYTE                   En1   v096
        BYTE   W12
// 024   ----------------------------------------
        BYTE           N36     An1
        BYTE   W36
        BYTE                   An1   v076
        BYTE   W36
        BYTE           N24     Gn1   v086
        BYTE   W24
// 025   ----------------------------------------
        BYTE   PATT
         POIN2  SacrificeAndTheSaint_0_12
// 026   ----------------------------------------
        BYTE   PATT
         POIN2  SacrificeAndTheSaint_0_8
// 027   ----------------------------------------
        BYTE   PATT
         POIN2  SacrificeAndTheSaint_0_8
// 028   ----------------------------------------
        BYTE           N36     Gn1   v096
        BYTE   W36
        BYTE                   Gn1   v076
        BYTE   W36
        BYTE           N12     Fn1   v086
        BYTE   W12
        BYTE                   En1   v096
        BYTE   W12
// 029   ----------------------------------------
SacrificeAndTheSaint_0_29:
        BYTE           N36     Fn1   v096
        BYTE   W36
        BYTE                   Fn1   v076
        BYTE   W36
        BYTE           N24     Fn1   v086
        BYTE   W24
        BYTE   PEND
// 030   ----------------------------------------
        BYTE   PATT
         POIN2  SacrificeAndTheSaint_0_29
// 031   ----------------------------------------
        BYTE           N36     En1   v096
        BYTE   W36
        BYTE           N12     An0   v091
        BYTE   W12
        BYTE           N24     Cn1   v096
        BYTE   W24
        BYTE                   An0   v076
        BYTE   W24
// 032   ----------------------------------------
SacrificeAndTheSaint_0_32:
        BYTE           N72     Dn1   v104
        BYTE   W72
        BYTE           N12
        BYTE   W12
        BYTE                   Dn1   v080
        BYTE   W12
        BYTE   PEND
// 033   ----------------------------------------
SacrificeAndTheSaint_0_33:
        BYTE           N24     Dn1   v104
        BYTE   W24
        BYTE           N12     Dn1   v080
        BYTE   W12
        BYTE                   En1   v104
        BYTE   W12
        BYTE           N24     Fn1   v088
        BYTE   W24
        BYTE                   An1   v104
        BYTE   W24
        BYTE   PEND
// 034   ----------------------------------------
        BYTE           N72     Gn1
        BYTE   W72
        BYTE           N12     Ds1
        BYTE   W12
        BYTE                   Ds1   v080
        BYTE   W12
// 035   ----------------------------------------
SacrificeAndTheSaint_0_35:
        BYTE           N36     Ds1   v104
        BYTE   W36
        BYTE                   Ds1   v080
        BYTE   W36
        BYTE           N24     Ds1   v088
        BYTE   W24
        BYTE   PEND
// 036   ----------------------------------------
        BYTE   PATT
         POIN2  SacrificeAndTheSaint_0_32
// 037   ----------------------------------------
        BYTE   PATT
         POIN2  SacrificeAndTheSaint_0_33
// 038   ----------------------------------------
        BYTE           N36     Cn1   v104
        BYTE   W36
        BYTE                   Cn2   v080
        BYTE   W36
        BYTE           N24     Cn2   v088
        BYTE   W24
// 039   ----------------------------------------
        BYTE           N36     Cn2   v104
        BYTE   W36
        BYTE                   Cn2   v080
        BYTE   W36
        BYTE           N24     Gn1   v088
        BYTE   W24
// 040   ----------------------------------------
        BYTE           N72     Fn1   v104
        BYTE   W72
        BYTE           N12     As1
        BYTE   W12
        BYTE                   As1   v088
        BYTE   W12
// 041   ----------------------------------------
        BYTE           N48     As1   v104
        BYTE   W48
        BYTE                   An1   v096
        BYTE   W48
// 042   ----------------------------------------
        BYTE           N72     Gn1   v104
        BYTE   W72
        BYTE           N12
        BYTE   W12
        BYTE                   Gn1   v088
        BYTE   W12
// 043   ----------------------------------------
        BYTE           N48     Gn1   v104
        BYTE   W48
        BYTE                   Gn1   v096
        BYTE   W48
// 044   ----------------------------------------
        BYTE   PATT
         POIN2  SacrificeAndTheSaint_0_17
// 045   ----------------------------------------
        BYTE   PATT
         POIN2  SacrificeAndTheSaint_0_17
// 046   ----------------------------------------
        BYTE           N36     Fs1   v104
        BYTE   W36
        BYTE                   Fs1   v080
        BYTE   W36
        BYTE           N24     Fs1   v088
        BYTE   W24
// 047   ----------------------------------------
        BYTE           N48     Fs1   v096
        BYTE   W48
        BYTE           N24     Gn1   v088
        BYTE   W24
        BYTE                   An1   v080
        BYTE   W24
// 048   ----------------------------------------
        BYTE   W96
// 049   ----------------------------------------
        BYTE   W96
// 050   ----------------------------------------
        BYTE   W48
        BYTE           N12     Gn1   v048
        BYTE   W24
        BYTE                   Gn1   v052
        BYTE   W24
// 051   ----------------------------------------
        BYTE                   Gn1   v056
        BYTE   W12
        BYTE                   Fn1   v064
        BYTE   W36
        BYTE                   Fn1
        BYTE   W24
        BYTE                   Fn1
        BYTE   W12
        BYTE                   Gn1   v068
        BYTE   W12
// 052   ----------------------------------------
SacrificeAndTheSaint_0_52:
        BYTE           N12     An1   v072
        BYTE   W12
        BYTE                   An1   v048
        BYTE   W12
        BYTE                   Gn1   v072
        BYTE   W12
        BYTE                   An1
        BYTE   W24
        BYTE                   An1
        BYTE   W12
        BYTE                   Cn2
        BYTE   W12
        BYTE                   Gn1
        BYTE   W12
        BYTE   PEND
// 053   ----------------------------------------
        BYTE                   An1
        BYTE   W12
        BYTE                   An1   v048
        BYTE   W12
        BYTE                   Gn1   v072
        BYTE   W12
        BYTE                   An1
        BYTE   W24
        BYTE                   An1
        BYTE   W12
        BYTE                   As0
        BYTE   W12
        BYTE                   Gn1
        BYTE   W12
// 054   ----------------------------------------
        BYTE   PATT
         POIN2  SacrificeAndTheSaint_0_52
// 055   ----------------------------------------
        BYTE           N12     An1   v072
        BYTE   W12
        BYTE                   An1   v048
        BYTE   W12
        BYTE                   Gn1   v072
        BYTE   W12
        BYTE                   An1
        BYTE   W24
        BYTE                   An1
        BYTE   W12
        BYTE                   As0
        BYTE   W12
        BYTE                   Fn1
        BYTE   W12
// 056   ----------------------------------------
        BYTE                   Gn1   v080
        BYTE   W12
        BYTE                   Gn1   v056
        BYTE   W12
        BYTE                   Fn1   v080
        BYTE   W12
        BYTE                   Gn1
        BYTE   W24
        BYTE                   Gn1
        BYTE   W12
        BYTE                   As1
        BYTE   W12
        BYTE                   Fn1
        BYTE   W12
// 057   ----------------------------------------
        BYTE                   Gn1
        BYTE   W12
        BYTE                   Gn1   v056
        BYTE   W12
        BYTE                   Fn1   v080
        BYTE   W12
        BYTE                   Gn1
        BYTE   W24
        BYTE                   Gn1
        BYTE   W12
        BYTE                   An0
        BYTE   W12
        BYTE                   Fn1
        BYTE   W12
// 058   ----------------------------------------
        BYTE                   Gn1
        BYTE   W12
        BYTE                   Gn1
        BYTE   W12
        BYTE                   Fn1
        BYTE   W12
        BYTE                   Gn1
        BYTE   W24
        BYTE                   Gn1
        BYTE   W12
        BYTE                   As1
        BYTE   W12
        BYTE                   Fn1
        BYTE   W12
// 059   ----------------------------------------
        BYTE                   Gn1
        BYTE   W12
        BYTE                   Gn1   v056
        BYTE   W12
        BYTE                   Fn1   v080
        BYTE   W12
        BYTE                   Gn1
        BYTE   W24
        BYTE                   Gn1
        BYTE   W12
        BYTE                   An0
        BYTE   W12
        BYTE                   Gn1
        BYTE   W12
// 060   ----------------------------------------
        BYTE                   An1
        BYTE   W12
        BYTE                   An1   v056
        BYTE   W12
        BYTE                   Gn1   v080
        BYTE   W12
        BYTE                   An1
        BYTE   W24
        BYTE                   An1
        BYTE   W12
        BYTE                   Cn2
        BYTE   W12
        BYTE                   Gn1
        BYTE   W12
// 061   ----------------------------------------
        BYTE                   An1
        BYTE   W12
        BYTE                   An1   v056
        BYTE   W12
        BYTE                   Gn1   v080
        BYTE   W12
        BYTE                   An1
        BYTE   W24
        BYTE                   An1
        BYTE   W12
        BYTE                   As0
        BYTE   W12
        BYTE                   Gn1
        BYTE   W12
// 062   ----------------------------------------
        BYTE                   An1
        BYTE   W12
        BYTE                   An1
        BYTE   W12
        BYTE                   Gn1
        BYTE   W12
        BYTE                   An1
        BYTE   W24
        BYTE                   An1
        BYTE   W12
        BYTE                   Cn2
        BYTE   W12
        BYTE                   Gn1
        BYTE   W12
// 063   ----------------------------------------
        BYTE                   An1
        BYTE   W12
        BYTE                   An1   v056
        BYTE   W12
        BYTE                   Gn1   v080
        BYTE   W12
        BYTE                   An1
        BYTE   W24
        BYTE                   An1
        BYTE   W12
        BYTE                   As0
        BYTE   W12
        BYTE                   Fn1
        BYTE   W12
// 064   ----------------------------------------
        BYTE           N72     Cn1   v104
        BYTE   W72
        BYTE           N12
        BYTE   W12
        BYTE                   Cn1   v080
        BYTE   W12
// 065   ----------------------------------------
        BYTE           N48     Cn2   v104
        BYTE           N48     Cn1
        BYTE   W48
        BYTE           N12     Cn2
        BYTE   W12
        BYTE                   As1   v088
        BYTE   W12
        BYTE                   An1   v104
        BYTE   W12
        BYTE                   Gn1   v088
        BYTE   W12
// 066   ----------------------------------------
        BYTE   PATT
         POIN2  SacrificeAndTheSaint_0_20
// 067   ----------------------------------------
        BYTE   PATT
         POIN2  SacrificeAndTheSaint_0_20
// 068   ----------------------------------------
        BYTE   PATT
         POIN2  SacrificeAndTheSaint_0_20
// 069   ----------------------------------------
        BYTE   PATT
         POIN2  SacrificeAndTheSaint_0_16
// 070   ----------------------------------------
        BYTE   PATT
         POIN2  SacrificeAndTheSaint_0_21
// 071   ----------------------------------------
        BYTE   PATT
         POIN2  SacrificeAndTheSaint_0_21
// 072   ----------------------------------------
        BYTE   PATT
         POIN2  SacrificeAndTheSaint_0_21
// 073   ----------------------------------------
        BYTE   PATT
         POIN2  SacrificeAndTheSaint_0_21
// 074   ----------------------------------------
        BYTE   PATT
         POIN2  SacrificeAndTheSaint_0_35
// 075   ----------------------------------------
SacrificeAndTheSaint_0_75:
        BYTE           N36     As1   v104
        BYTE   W36
        BYTE                   As1   v080
        BYTE   W36
        BYTE           N24     As1   v088
        BYTE   W24
        BYTE   PEND
// 076   ----------------------------------------
        BYTE           N36     Gs1   v104
        BYTE   W36
        BYTE                   Gs1   v080
        BYTE   W36
        BYTE           N24     Gs1   v088
        BYTE   W24
// 077   ----------------------------------------
        BYTE           N36     Cs2   v104
        BYTE   W36
        BYTE                   Cs2   v080
        BYTE   W36
        BYTE           N24     Cs2   v088
        BYTE   W24
// 078   ----------------------------------------
SacrificeAndTheSaint_0_78:
        BYTE           N36     Fs2   v104
        BYTE   W36
        BYTE                   Fs2   v080
        BYTE   W36
        BYTE           N24     Fs2   v088
        BYTE   W24
        BYTE   PEND
// 079   ----------------------------------------
        BYTE   PATT
         POIN2  SacrificeAndTheSaint_0_78
// 080   ----------------------------------------
SacrificeAndTheSaint_0_80:
        BYTE           N36     Ds2   v104
        BYTE   W36
        BYTE                   Ds2   v080
        BYTE   W36
        BYTE           N24     Ds2   v088
        BYTE   W24
        BYTE   PEND
// 081   ----------------------------------------
        BYTE   PATT
         POIN2  SacrificeAndTheSaint_0_80
// 082   ----------------------------------------
        BYTE           N48     Cs2   v104
        BYTE   W48
        BYTE           N24     As1   v088
        BYTE   W24
        BYTE           N12     As1   v096
        BYTE   W12
        BYTE                   As1   v080
        BYTE   W12
// 083   ----------------------------------------
        BYTE           N36     Ds1   v104
        BYTE   W36
        BYTE                   Ds1   v088
        BYTE   W36
        BYTE           N12     Ds1   v096
        BYTE   W12
        BYTE                   Ds1   v080
        BYTE   W12
// 084   ----------------------------------------
SacrificeAndTheSaint_0_84:
        BYTE           N12     Gs1   v104
        BYTE   W12
        BYTE           N06     Ds1   v096
        BYTE   W12
        BYTE                   Ds1
        BYTE   W12
        BYTE           N12     Gs1   v080
        BYTE   W12
        BYTE           N06     Ds1   v096
        BYTE   W12
        BYTE                   Ds1
        BYTE   W12
        BYTE           N12     Gs1   v088
        BYTE   W12
        BYTE           N06     Ds1   v096
        BYTE   W12
        BYTE   PEND
// 085   ----------------------------------------
SacrificeAndTheSaint_0_85:
        BYTE           N06     Ds1   v096
        BYTE   W12
        BYTE           N12     Gs1
        BYTE   W12
        BYTE           N06     Ds1
        BYTE   W12
        BYTE                   Ds1
        BYTE   W12
        BYTE           N12     Gs1   v104
        BYTE   W12
        BYTE                   Ds1   v096
        BYTE   W12
        BYTE                   Gs1   v080
        BYTE   W12
        BYTE                   Gs1   v096
        BYTE   W12
        BYTE   PEND
// 086   ----------------------------------------
SacrificeAndTheSaint_0_86:
        BYTE           N12     Fs1   v104
        BYTE   W12
        BYTE           N06     Cs1   v096
        BYTE   W12
        BYTE                   Cs1
        BYTE   W12
        BYTE           N12     Fs1   v080
        BYTE   W12
        BYTE           N06     Cs1   v096
        BYTE   W12
        BYTE                   Cs1
        BYTE   W12
        BYTE           N12     Fs1   v088
        BYTE   W12
        BYTE           N06     Cs1   v096
        BYTE   W12
        BYTE   PEND
// 087   ----------------------------------------
SacrificeAndTheSaint_0_87:
        BYTE           N06     Cs1   v096
        BYTE   W12
        BYTE           N12     Fs1
        BYTE   W12
        BYTE           N06     Cs1
        BYTE   W12
        BYTE                   Cs1
        BYTE   W12
        BYTE           N12     Fs1   v104
        BYTE   W12
        BYTE                   Cs1   v096
        BYTE   W12
        BYTE                   Fs1   v080
        BYTE   W12
        BYTE                   Fs1   v096
        BYTE   W12
        BYTE   PEND
// 088   ----------------------------------------
SacrificeAndTheSaint_0_88:
        BYTE           N12     Cs1   v104
        BYTE   W12
        BYTE           N06     Gs0   v096
        BYTE   W12
        BYTE                   Gs0
        BYTE   W12
        BYTE           N12     Cs1   v080
        BYTE   W12
        BYTE           N06     Gs0   v096
        BYTE   W12
        BYTE                   Gs0
        BYTE   W12
        BYTE           N12     Cs1   v088
        BYTE   W12
        BYTE           N06     Gs0   v096
        BYTE   W12
        BYTE   PEND
// 089   ----------------------------------------
SacrificeAndTheSaint_0_89:
        BYTE           N06     Gs0   v096
        BYTE   W12
        BYTE           N12     Cs1
        BYTE   W12
        BYTE           N06     Gs0
        BYTE   W12
        BYTE                   Gs0
        BYTE   W12
        BYTE           N12     Cs1   v104
        BYTE   W12
        BYTE                   Gs0   v096
        BYTE   W12
        BYTE                   Cs1   v080
        BYTE   W12
        BYTE                   Cs1   v096
        BYTE   W12
        BYTE   PEND
// 090   ----------------------------------------
        BYTE                   En1   v104
        BYTE   W12
        BYTE           N06     Bn0   v096
        BYTE   W12
        BYTE                   Bn0
        BYTE   W12
        BYTE           N12     En1   v080
        BYTE   W12
        BYTE           N06     Bn0   v096
        BYTE   W12
        BYTE                   Bn0
        BYTE   W12
        BYTE           N12     En1   v088
        BYTE   W12
        BYTE           N06     Bn0   v096
        BYTE   W12
// 091   ----------------------------------------
        BYTE                   Bn0
        BYTE   W12
        BYTE           N12     En1
        BYTE   W12
        BYTE           N06     Bn0
        BYTE   W12
        BYTE                   Bn0
        BYTE   W12
        BYTE           N12     En1   v104
        BYTE   W12
        BYTE                   Bn0   v096
        BYTE   W12
        BYTE                   Ds1   v080
        BYTE   W12
        BYTE                   Ds1   v096
        BYTE   W12
// 092   ----------------------------------------
        BYTE   PATT
         POIN2  SacrificeAndTheSaint_0_84
// 093   ----------------------------------------
        BYTE   PATT
         POIN2  SacrificeAndTheSaint_0_85
// 094   ----------------------------------------
        BYTE   PATT
         POIN2  SacrificeAndTheSaint_0_86
// 095   ----------------------------------------
        BYTE   PATT
         POIN2  SacrificeAndTheSaint_0_87
// 096   ----------------------------------------
        BYTE   PATT
         POIN2  SacrificeAndTheSaint_0_88
// 097   ----------------------------------------
        BYTE   PATT
         POIN2  SacrificeAndTheSaint_0_89
// 098   ----------------------------------------
        BYTE           N36     En1   v096
        BYTE   W36
        BYTE                   Cs2
        BYTE   W36
        BYTE           N24     Bn1
        BYTE   W24
// 099   ----------------------------------------
        BYTE           N36     As1
        BYTE   W36
        BYTE                   Fs1
        BYTE   W36
        BYTE           N24     Cs1
        BYTE   W24
// 100   ----------------------------------------
SacrificeAndTheSaint_0_100:
        BYTE           N36     Ds2   v096
        BYTE           N36     Gs1
        BYTE   W36
        BYTE                   Ds2   v076
        BYTE           N36     Gs1
        BYTE   W36
        BYTE           N24     Ds2   v086
        BYTE           N24     Gs1
        BYTE   W24
        BYTE   PEND
// 101   ----------------------------------------
        BYTE   PATT
         POIN2  SacrificeAndTheSaint_0_100
// 102   ----------------------------------------
        BYTE   PATT
         POIN2  SacrificeAndTheSaint_0_100
// 103   ----------------------------------------
        BYTE   PATT
         POIN2  SacrificeAndTheSaint_0_100
// 104   ----------------------------------------
        BYTE   PATT
         POIN2  SacrificeAndTheSaint_0_100
// 105   ----------------------------------------
        BYTE   PATT
         POIN2  SacrificeAndTheSaint_0_100
// 106   ----------------------------------------
        BYTE   PATT
         POIN2  SacrificeAndTheSaint_0_100
// 107   ----------------------------------------
        BYTE   PATT
         POIN2  SacrificeAndTheSaint_0_100
// 108   ----------------------------------------
        BYTE   PATT
         POIN2  SacrificeAndTheSaint_0_20
// 109   ----------------------------------------
        BYTE   PATT
         POIN2  SacrificeAndTheSaint_0_20
// 110   ----------------------------------------
        BYTE   PATT
         POIN2  SacrificeAndTheSaint_0_20
// 111   ----------------------------------------
        BYTE   PATT
         POIN2  SacrificeAndTheSaint_0_20
// 112   ----------------------------------------
        BYTE   PATT
         POIN2  SacrificeAndTheSaint_0_20
// 113   ----------------------------------------
        BYTE   PATT
         POIN2  SacrificeAndTheSaint_0_20
// 114   ----------------------------------------
        BYTE   PATT
         POIN2  SacrificeAndTheSaint_0_75
// 115   ----------------------------------------
        BYTE           N36     Dn2   v104
        BYTE   W36
        BYTE                   Dn2   v080
        BYTE   W36
        BYTE           N24     Dn2   v088
        BYTE   W24
// 116   ----------------------------------------
SacrificeAndTheSaint_0_116:
        BYTE           N36     Cn2   v104
        BYTE   W36
        BYTE                   Cn2   v080
        BYTE   W36
        BYTE           N24     Cn2   v088
        BYTE   W24
        BYTE   PEND
// 117   ----------------------------------------
        BYTE   PATT
         POIN2  SacrificeAndTheSaint_0_116
// 118   ----------------------------------------
        BYTE           N36     As1   v104
        BYTE   W36
        BYTE                   As1   v080
        BYTE   W36
        BYTE           N12     As1   v092
        BYTE   W12
        BYTE                   As1   v084
        BYTE   W12
// 119   ----------------------------------------
        BYTE                   En1   v080
        BYTE           N12     Cn2
        BYTE   W36
        BYTE                   Bn1
        BYTE   W36
        BYTE                   Gn1
        BYTE   W24
// 120   ----------------------------------------
        BYTE   GoTo
         POIN2  SacrificeAndTheSaint_0_LOOP
        BYTE   FINE

//****************** Track 1 (Midi-Chn.1) ******************//

SacrificeAndTheSaint_1:
        BYTE   KEYSH   SacrificeAndTheSaint_key+0
// 000   ----------------------------------------
SacrificeAndTheSaint_1_LOOP:
        BYTE           VOICE   124
        BYTE           VOL     59
        BYTE           PAN     c_v+5
        BYTE           N12     Cn1   v120
        BYTE           N48     An2   v096
        BYTE           N12     En3   v088
        BYTE   W36
        BYTE                   Cn1   v080
        BYTE   W36
        BYTE           N24     Dn1   v104
        BYTE           N12     En3   v088
        BYTE   W24
// 001   ----------------------------------------
SacrificeAndTheSaint_1_1:
        BYTE           N24     Ds1   v096
        BYTE           N24     Gn2   v080
        BYTE           N12     Cn1   v120
        BYTE           N12     Dn3   v088
        BYTE   W36
        BYTE                   Cn1   v080
        BYTE   W24
        BYTE                   Ds3   v088
        BYTE   W12
        BYTE                   Dn3
        BYTE   W12
        BYTE                   En3
        BYTE   W12
        BYTE   PEND
// 002   ----------------------------------------
SacrificeAndTheSaint_1_2:
        BYTE           N12     Cn1   v120
        BYTE           N12     En3   v088
        BYTE   W36
        BYTE                   Cn1   v080
        BYTE   W36
        BYTE           N24     Dn1   v104
        BYTE           N12     En3   v088
        BYTE   W24
        BYTE   PEND
// 003   ----------------------------------------
SacrificeAndTheSaint_1_3:
        BYTE           N12     Cn1   v120
        BYTE           N24     Ds1   v096
        BYTE           N24     Gn2   v080
        BYTE           N12     Dn3   v088
        BYTE   W36
        BYTE                   Cn1   v080
        BYTE   W24
        BYTE                   Ds3   v088
        BYTE   W12
        BYTE                   Dn3
        BYTE           N12     Cn1   v100
        BYTE   W12
        BYTE                   En3   v088
        BYTE   W12
        BYTE                   En3
        BYTE           N72     Fn2   v064
        BYTE           N12     Cn1   v100
        BYTE   W12
        BYTE                   Ds3   v088
        BYTE   W12
        BYTE   PEND
// 004   ----------------------------------------
        BYTE   PATT
         POIN2  SacrificeAndTheSaint_1_2
// 005   ----------------------------------------
        BYTE   PATT
         POIN2  SacrificeAndTheSaint_1_1
// 006   ----------------------------------------
        BYTE   PATT
         POIN2  SacrificeAndTheSaint_1_2
// 007   ----------------------------------------
        BYTE   PATT
         POIN2  SacrificeAndTheSaint_1_3
// 008   ----------------------------------------
SacrificeAndTheSaint_1_8:
        BYTE           N12     Cn1   v120
        BYTE           N12     En3   v088
        BYTE   W36
        BYTE                   Cn1   v080
        BYTE   W36
        BYTE           N24     Dn1   v104
        BYTE           N12     Ds3   v088
        BYTE   W24
        BYTE   PEND
// 009   ----------------------------------------
        BYTE           N24     Ds1   v096
        BYTE           N24     Gn2   v080
        BYTE           N12     Dn3   v088
        BYTE           N12     Cn1   v112
        BYTE   W36
        BYTE                   Cn1   v080
        BYTE   W36
        BYTE                   Ds3   v088
        BYTE   W24
// 010   ----------------------------------------
        BYTE   PATT
         POIN2  SacrificeAndTheSaint_1_8
// 011   ----------------------------------------
        BYTE           N24     Ds1   v096
        BYTE           N24     Gn2   v080
        BYTE           N12     Dn3   v088
        BYTE           N12     Cn1   v112
        BYTE   W36
        BYTE                   Cn1   v080
        BYTE   W24
        BYTE                   Ds3   v088
        BYTE   W12
        BYTE                   Dn3
        BYTE   W12
        BYTE                   Ds3
        BYTE   W12
// 012   ----------------------------------------
SacrificeAndTheSaint_1_12:
        BYTE           N12     En3   v088
        BYTE           N12     Cn1   v120
        BYTE   W36
        BYTE                   Cn1   v080
        BYTE   W36
        BYTE                   Ds3   v088
        BYTE           N24     Dn1   v104
        BYTE   W24
        BYTE   PEND
// 013   ----------------------------------------
        BYTE           N12     Dn3   v088
        BYTE           N24     Gn2   v080
        BYTE           N24     Ds1   v096
        BYTE           N12     Cn1   v112
        BYTE   W36
        BYTE                   Cn1   v080
        BYTE   W36
        BYTE                   Ds3   v088
        BYTE   W24
// 014   ----------------------------------------
        BYTE   PATT
         POIN2  SacrificeAndTheSaint_1_12
// 015   ----------------------------------------
        BYTE           N12     Dn3   v088
        BYTE           N24     Gn2   v080
        BYTE           N24     Ds1   v096
        BYTE           N12     Cn1   v112
        BYTE   W36
        BYTE                   Cn1   v080
        BYTE   W24
        BYTE                   Ds3   v088
        BYTE   W12
        BYTE                   Dn3
        BYTE           N12     An2   v064
        BYTE   W12
        BYTE                   Ds3   v088
        BYTE           N12     Cn1   v120
        BYTE   W12
// 016   ----------------------------------------
SacrificeAndTheSaint_1_16:
        BYTE           N12     En3   v088
        BYTE           N48     An2   v096
        BYTE           N12     Cn1   v120
        BYTE   W24
        BYTE                   As1   v056
        BYTE           N12     Dn1   v104
        BYTE   W12
        BYTE                   Dn3   v088
        BYTE           N12     Dn1   v104
        BYTE           N06     Cn1   v099
        BYTE   W12
        BYTE           N24     Ds1   v096
        BYTE           N06     Cn1   v112
        BYTE   W24
        BYTE           N12     Ds3   v088
        BYTE           N12     As1   v080
        BYTE           N12     Dn1   v104
        BYTE           N06     Cn1   v098
        BYTE   W12
        BYTE           N12     Dn3   v088
        BYTE           N12     Dn1   v104
        BYTE   W12
        BYTE   PEND
// 017   ----------------------------------------
SacrificeAndTheSaint_1_17:
        BYTE           N12     Cn1   v120
        BYTE   W12
        BYTE                   En3   v088
        BYTE   W12
        BYTE                   Ds3
        BYTE           N12     As1   v080
        BYTE           N12     Dn1   v104
        BYTE   W12
        BYTE                   Dn1
        BYTE           N06     Cn1   v099
        BYTE   W12
        BYTE           N24     Ds1   v096
        BYTE           N06     Cn1   v112
        BYTE   W24
        BYTE           N12     As1   v080
        BYTE           N12     Dn1   v104
        BYTE           N06     Cn1   v098
        BYTE   W12
        BYTE           N12     Dn1   v104
        BYTE   W12
        BYTE   PEND
// 018   ----------------------------------------
SacrificeAndTheSaint_1_18:
        BYTE           N12     Cn1   v120
        BYTE   W12
        BYTE                   Ds3   v088
        BYTE   W12
        BYTE                   Dn3
        BYTE           N12     Dn1   v104
        BYTE           N12     As1   v080
        BYTE   W12
        BYTE                   Dn1   v104
        BYTE           N06     Cn1   v099
        BYTE   W12
        BYTE           N24     Ds1   v096
        BYTE           N12     En3   v088
        BYTE           N06     Cn1   v112
        BYTE   W24
        BYTE           N12     As1   v080
        BYTE           N12     Dn1   v104
        BYTE           N06     Cn1   v098
        BYTE   W12
        BYTE           N12     Dn1   v104
        BYTE   W12
        BYTE   PEND
// 019   ----------------------------------------
        BYTE                   Cn1   v120
        BYTE   W12
        BYTE                   En3   v088
        BYTE   W12
        BYTE                   As1   v080
        BYTE           N12     Dn1   v104
        BYTE           N12     Ds3   v088
        BYTE   W12
        BYTE                   Ds1   v096
        BYTE           N12     En3   v088
        BYTE           N06     Cn1   v099
        BYTE   W12
        BYTE           N12     Ds3   v088
        BYTE           N06     Cn1   v098
        BYTE   W12
        BYTE                   Ds1   v096
        BYTE   W12
        BYTE           N24     As1   v080
        BYTE           N12     Ds1   v096
        BYTE           N06     Cn1   v098
        BYTE   W12
        BYTE           N12     En3   v088
        BYTE   W12
        BYTE           N06     Ds1   v096
        BYTE           N12     As1   v080
        BYTE           N12     Ds3   v088
        BYTE           N06     Cn1   v098
        BYTE   W12
        BYTE                   Ds1   v096
        BYTE           N12     As1   v080
        BYTE           N12     En3   v088
        BYTE           N06     Cn1   v098
        BYTE   W12
// 020   ----------------------------------------
SacrificeAndTheSaint_1_20:
        BYTE           N12     En3   v088
        BYTE           N12     Cn1   v120
        BYTE           N36     An2   v096
        BYTE   W24
        BYTE           N12     As1   v056
        BYTE           N12     Dn1   v104
        BYTE   W12
        BYTE                   Dn3   v088
        BYTE           N12     Dn1   v104
        BYTE           N06     Cn1   v099
        BYTE   W12
        BYTE           N24     Ds1   v096
        BYTE           N06     Cn1   v112
        BYTE   W24
        BYTE           N12     Ds3   v088
        BYTE           N12     As1   v080
        BYTE           N12     Dn1   v104
        BYTE           N06     Cn1   v098
        BYTE   W12
        BYTE           N12     Dn3   v088
        BYTE           N12     Dn1   v104
        BYTE   W12
        BYTE   PEND
// 021   ----------------------------------------
        BYTE   PATT
         POIN2  SacrificeAndTheSaint_1_17
// 022   ----------------------------------------
        BYTE   PATT
         POIN2  SacrificeAndTheSaint_1_18
// 023   ----------------------------------------
        BYTE           N24     Cn1   v120
        BYTE   W12
        BYTE           N12     En3   v088
        BYTE   W12
        BYTE                   As1   v080
        BYTE           N12     Dn1   v104
        BYTE           N12     Ds3   v088
        BYTE   W12
        BYTE                   Ds1   v096
        BYTE           N12     En3   v088
        BYTE           N06     Cn1   v098
        BYTE   W12
        BYTE           N12     Ds3   v088
        BYTE           N06     Cn1   v099
        BYTE   W12
        BYTE                   Ds1   v096
        BYTE   W12
        BYTE           N24     As1   v080
        BYTE           N12     Ds1   v096
        BYTE           N06     Cn1   v098
        BYTE   W12
        BYTE           N12     En3   v088
        BYTE   W12
        BYTE           N06     Ds1   v096
        BYTE           N12     As1   v080
        BYTE           N12     Ds3   v088
        BYTE           N06     Cn1   v098
        BYTE   W12
        BYTE                   Ds1   v096
        BYTE           N12     As1   v080
        BYTE           N12     En3   v088
        BYTE           N06     Cn1   v098
        BYTE   W12
// 024   ----------------------------------------
        BYTE   PATT
         POIN2  SacrificeAndTheSaint_1_20
// 025   ----------------------------------------
        BYTE   PATT
         POIN2  SacrificeAndTheSaint_1_17
// 026   ----------------------------------------
        BYTE   PATT
         POIN2  SacrificeAndTheSaint_1_18
// 027   ----------------------------------------
SacrificeAndTheSaint_1_27:
        BYTE           N12     Cn1   v120
        BYTE   W12
        BYTE                   En3   v088
        BYTE   W12
        BYTE                   Ds3
        BYTE           N12     As1   v080
        BYTE           N12     Dn1   v112
        BYTE   W12
        BYTE                   En3   v088
        BYTE           N12     Dn1   v104
        BYTE           N06     Cn1   v099
        BYTE   W12
        BYTE           N24     Ds1   v096
        BYTE           N12     En3   v088
        BYTE           N12     Dn1   v120
        BYTE           N06     Cn1   v112
        BYTE   W12
        BYTE           N12     Dn1   v096
        BYTE   W12
        BYTE                   Ds3   v088
        BYTE           N12     As1   v080
        BYTE           N12     Dn1   v112
        BYTE           N06     Cn1   v098
        BYTE   W12
        BYTE           N12     Dn3   v088
        BYTE           N12     Dn1   v104
        BYTE   W12
        BYTE   PEND
// 028   ----------------------------------------
        BYTE   PATT
         POIN2  SacrificeAndTheSaint_1_16
// 029   ----------------------------------------
        BYTE   PATT
         POIN2  SacrificeAndTheSaint_1_17
// 030   ----------------------------------------
        BYTE   PATT
         POIN2  SacrificeAndTheSaint_1_18
// 031   ----------------------------------------
        BYTE   PATT
         POIN2  SacrificeAndTheSaint_1_27
// 032   ----------------------------------------
        BYTE           N12     Cn1   v120
        BYTE           N36     An2   v096
        BYTE   W24
        BYTE           N12     As1   v056
        BYTE           N12     Dn1   v104
        BYTE   W12
        BYTE                   Dn1
        BYTE           N06     Cn1   v099
        BYTE           N12     Gs2   v080
        BYTE   W12
        BYTE           N24     Ds1   v096
        BYTE           N06     Cn1   v112
        BYTE   W24
        BYTE           N12     As1   v080
        BYTE           N12     Dn1   v104
        BYTE           N06     Cn1   v098
        BYTE           N12     Gs2   v080
        BYTE   W12
        BYTE                   Dn1   v104
        BYTE   W12
// 033   ----------------------------------------
SacrificeAndTheSaint_1_33:
        BYTE           N12     Cn1   v120
        BYTE   W24
        BYTE                   As1   v080
        BYTE           N12     Dn1   v104
        BYTE   W12
        BYTE                   Dn1
        BYTE           N06     Cn1   v099
        BYTE           N12     Gs2   v080
        BYTE   W12
        BYTE           N24     Ds1   v096
        BYTE           N06     Cn1   v112
        BYTE   W24
        BYTE           N12     As1   v080
        BYTE           N12     Dn1   v104
        BYTE           N06     Cn1   v098
        BYTE           N12     Gs2   v080
        BYTE   W12
        BYTE                   Dn1   v104
        BYTE   W12
        BYTE   PEND
// 034   ----------------------------------------
SacrificeAndTheSaint_1_34:
        BYTE           N12     Cn1   v120
        BYTE   W24
        BYTE                   Dn1   v104
        BYTE           N12     As1   v080
        BYTE   W12
        BYTE                   Dn1   v104
        BYTE           N06     Cn1   v099
        BYTE           N12     Gs2   v080
        BYTE   W12
        BYTE           N24     Ds1   v096
        BYTE           N06     Cn1   v112
        BYTE   W24
        BYTE           N12     As1   v080
        BYTE           N12     Dn1   v104
        BYTE           N06     Cn1   v098
        BYTE           N12     Gs2   v080
        BYTE   W12
        BYTE                   Dn1   v104
        BYTE   W12
        BYTE   PEND
// 035   ----------------------------------------
SacrificeAndTheSaint_1_35:
        BYTE           N12     Cn1   v120
        BYTE   W24
        BYTE                   As1   v080
        BYTE           N12     Dn1   v112
        BYTE   W12
        BYTE                   Dn1   v104
        BYTE           N06     Cn1   v099
        BYTE           N12     Gs2   v080
        BYTE   W12
        BYTE           N24     Ds1   v096
        BYTE           N12     Dn1   v120
        BYTE           N06     Cn1   v112
        BYTE   W12
        BYTE           N12     Dn1   v096
        BYTE   W12
        BYTE                   As1   v080
        BYTE           N12     Dn1   v112
        BYTE           N06     Cn1   v098
        BYTE           N12     Gs2   v080
        BYTE   W12
        BYTE                   Dn1   v104
        BYTE   W12
        BYTE   PEND
// 036   ----------------------------------------
SacrificeAndTheSaint_1_36:
        BYTE           N12     Cn1   v120
        BYTE   W24
        BYTE                   As1   v056
        BYTE           N12     Dn1   v104
        BYTE   W12
        BYTE                   Dn1
        BYTE           N06     Cn1   v099
        BYTE           N12     Gs2   v080
        BYTE   W12
        BYTE           N24     Ds1   v096
        BYTE           N06     Cn1   v112
        BYTE   W24
        BYTE           N12     As1   v080
        BYTE           N12     Dn1   v104
        BYTE           N06     Cn1   v098
        BYTE           N12     Gs2   v080
        BYTE   W12
        BYTE                   Dn1   v104
        BYTE   W12
        BYTE   PEND
// 037   ----------------------------------------
        BYTE   PATT
         POIN2  SacrificeAndTheSaint_1_33
// 038   ----------------------------------------
        BYTE   PATT
         POIN2  SacrificeAndTheSaint_1_34
// 039   ----------------------------------------
        BYTE   PATT
         POIN2  SacrificeAndTheSaint_1_35
// 040   ----------------------------------------
        BYTE   PATT
         POIN2  SacrificeAndTheSaint_1_36
// 041   ----------------------------------------
        BYTE   PATT
         POIN2  SacrificeAndTheSaint_1_33
// 042   ----------------------------------------
        BYTE   PATT
         POIN2  SacrificeAndTheSaint_1_34
// 043   ----------------------------------------
        BYTE   PATT
         POIN2  SacrificeAndTheSaint_1_35
// 044   ----------------------------------------
        BYTE   PATT
         POIN2  SacrificeAndTheSaint_1_36
// 045   ----------------------------------------
        BYTE   PATT
         POIN2  SacrificeAndTheSaint_1_33
// 046   ----------------------------------------
        BYTE           N12     Cn1   v120
        BYTE   W24
        BYTE                   Dn1   v104
        BYTE           N12     As1   v080
        BYTE   W12
        BYTE                   Dn1   v104
        BYTE           N06     Cn1   v099
        BYTE           N12     Gs2   v080
        BYTE   W12
        BYTE           N24     Ds1   v096
        BYTE           N06     Cn1   v112
        BYTE   W24
        BYTE           N12     As1   v072
        BYTE           N12     Dn1   v104
        BYTE           N06     Cn1   v098
        BYTE           N12     Gs2   v080
        BYTE   W12
        BYTE                   Dn1   v104
        BYTE   W12
// 047   ----------------------------------------
        BYTE                   Cn1   v120
        BYTE   W24
        BYTE                   As1   v064
        BYTE           N12     Dn1   v112
        BYTE   W12
        BYTE                   Dn1   v104
        BYTE           N06     Cn1   v099
        BYTE           N12     Gs2   v104
        BYTE   W12
        BYTE           N24     Ds1   v096
        BYTE           N12     Dn1   v120
        BYTE           N06     Cn1   v112
        BYTE   W12
        BYTE           N12     Dn1   v096
        BYTE           N12     Gs2   v104
        BYTE   W12
        BYTE                   As1   v056
        BYTE           N12     Dn1   v112
        BYTE           N06     Cn1   v098
        BYTE   W12
        BYTE           N12     Dn1   v104
        BYTE           N12     Gs2
        BYTE   W12
// 048   ----------------------------------------
        BYTE                   Ds1   v088
        BYTE           N12     Cn1   v120
        BYTE           N24     Fs3   v097
        BYTE   W12
        BYTE           N12     Ds1   v064
        BYTE   W12
        BYTE                   Ds1   v040
        BYTE           N12     Gs2   v064
        BYTE   W12
        BYTE                   Ds1   v080
        BYTE           N06     Cn1   v098
        BYTE           N24     Fs3   v097
        BYTE   W24
        BYTE           N12     Ds1   v064
        BYTE           N12     Gs2   v056
        BYTE   W12
        BYTE           N24     Ds2   v072
        BYTE           N06     Cn1   v098
        BYTE           N24     Fn3   v097
        BYTE   W24
// 049   ----------------------------------------
        BYTE           N12     Ds1   v092
        BYTE           N12     Cn1   v120
        BYTE           N24     Fs3   v097
        BYTE   W12
        BYTE           N12     Ds1   v068
        BYTE   W12
        BYTE                   Ds1   v044
        BYTE           N12     Gs2   v068
        BYTE   W12
        BYTE                   Ds1   v084
        BYTE           N06     Cn1   v098
        BYTE           N24     Fs3   v097
        BYTE   W24
        BYTE           N12     Ds1   v068
        BYTE           N12     Gs2
        BYTE   W12
        BYTE           N06     Cn1   v098
        BYTE           N24     Fn3   v097
        BYTE   W24
// 050   ----------------------------------------
        BYTE           N12     Ds1   v096
        BYTE           N12     Cn1   v120
        BYTE           N24     Fs3   v097
        BYTE   W12
        BYTE           N12     Ds1   v072
        BYTE   W12
        BYTE                   Ds1   v048
        BYTE           N12     Gs2   v072
        BYTE   W12
        BYTE                   Ds1   v088
        BYTE           N06     Cn1   v098
        BYTE           N24     Fs3   v097
        BYTE   W24
        BYTE           N12     Ds1   v072
        BYTE           N12     Gs2   v064
        BYTE   W12
        BYTE           N24     Ds2   v080
        BYTE           N06     Cn1   v098
        BYTE           N24     Fn3   v097
        BYTE   W24
// 051   ----------------------------------------
        BYTE           N12     Ds1   v100
        BYTE           N12     Cn1   v120
        BYTE           N24     Fs3   v097
        BYTE   W12
        BYTE           N12     Ds1   v076
        BYTE   W12
        BYTE                   Ds1   v052
        BYTE           N12     Gs2   v076
        BYTE   W12
        BYTE                   Ds1   v092
        BYTE           N06     Cn1   v098
        BYTE           N24     Fs3   v097
        BYTE   W24
        BYTE           N12     Ds1   v076
        BYTE           N12     Gs2
        BYTE   W12
        BYTE                   Ds1   v092
        BYTE           N06     Cn1   v098
        BYTE           N24     Fn3   v097
        BYTE   W12
        BYTE           N12     Ds1   v076
        BYTE   W12
// 052   ----------------------------------------
SacrificeAndTheSaint_1_52:
        BYTE           N12     Ds1   v104
        BYTE           N12     Cn1   v120
        BYTE           N24     Fs3   v097
        BYTE   W12
        BYTE           N12     Ds1   v080
        BYTE   W12
        BYTE                   Gs2
        BYTE           N12     Ds1   v056
        BYTE   W12
        BYTE                   Ds1   v096
        BYTE           N06     Cn1   v098
        BYTE           N24     Fs3   v097
        BYTE   W24
        BYTE           N12     Ds1   v080
        BYTE           N12     Gs2   v072
        BYTE   W12
        BYTE           N24     Ds2   v088
        BYTE           N06     Cn1   v098
        BYTE           N24     Fn3   v097
        BYTE   W24
        BYTE   PEND
// 053   ----------------------------------------
        BYTE           N12     Ds1   v104
        BYTE           N12     Cn1   v120
        BYTE           N24     Fs3   v097
        BYTE   W12
        BYTE           N12     Ds1   v080
        BYTE   W12
        BYTE                   Gs2
        BYTE           N12     Ds1   v056
        BYTE   W12
        BYTE                   Ds1   v096
        BYTE           N06     Cn1   v098
        BYTE           N24     Fs3   v097
        BYTE   W24
        BYTE           N12     Ds1   v080
        BYTE           N12     Gs2
        BYTE   W12
        BYTE           N06     Cn1   v098
        BYTE           N24     Fn3   v097
        BYTE   W24
// 054   ----------------------------------------
        BYTE   PATT
         POIN2  SacrificeAndTheSaint_1_52
// 055   ----------------------------------------
        BYTE           N12     Ds1   v104
        BYTE           N12     Cn1   v120
        BYTE           N24     Fs3   v097
        BYTE   W12
        BYTE           N12     Ds1   v080
        BYTE   W12
        BYTE                   Gs2
        BYTE           N12     Ds1   v056
        BYTE   W12
        BYTE                   Ds1   v096
        BYTE           N06     Cn1   v098
        BYTE           N24     Fs3   v097
        BYTE   W24
        BYTE           N12     Ds1   v080
        BYTE           N12     Gs2
        BYTE   W12
        BYTE                   Ds1   v096
        BYTE           N06     Cn1   v098
        BYTE   W12
        BYTE           N12     Ds1   v080
        BYTE   W12
// 056   ----------------------------------------
SacrificeAndTheSaint_1_56:
        BYTE           N12     Ds1   v104
        BYTE           N12     Cn1   v120
        BYTE   W12
        BYTE                   Ds1   v080
        BYTE   W12
        BYTE                   Gs2
        BYTE           N12     Ds1   v056
        BYTE   W12
        BYTE                   Ds1   v096
        BYTE           N06     Cn1   v098
        BYTE   W24
        BYTE           N12     Ds1   v080
        BYTE           N12     Gs2   v072
        BYTE   W12
        BYTE           N24     Ds2   v088
        BYTE           N06     Cn1   v098
        BYTE   W24
        BYTE   PEND
// 057   ----------------------------------------
SacrificeAndTheSaint_1_57:
        BYTE           N12     Ds1   v104
        BYTE           N12     Cn1   v120
        BYTE   W12
        BYTE                   Ds1   v080
        BYTE   W12
        BYTE                   Gs2
        BYTE           N12     Ds1   v056
        BYTE   W12
        BYTE                   Ds1   v096
        BYTE           N06     Cn1   v098
        BYTE   W24
        BYTE           N12     Ds1   v080
        BYTE           N12     Gs2
        BYTE   W12
        BYTE           N06     Cn1   v098
        BYTE   W24
        BYTE   PEND
// 058   ----------------------------------------
        BYTE   PATT
         POIN2  SacrificeAndTheSaint_1_56
// 059   ----------------------------------------
        BYTE           N12     Ds1   v104
        BYTE           N12     Cn1   v120
        BYTE   W12
        BYTE                   Ds1   v080
        BYTE   W12
        BYTE                   Gs2
        BYTE           N12     Ds1   v056
        BYTE   W12
        BYTE                   Ds1   v096
        BYTE           N06     Cn1   v098
        BYTE   W24
        BYTE           N12     Ds1   v080
        BYTE           N12     Gs2
        BYTE   W12
        BYTE                   Ds1   v096
        BYTE           N06     Cn1   v100
        BYTE   W12
        BYTE           N12     Ds1   v080
        BYTE   W12
// 060   ----------------------------------------
        BYTE   PATT
         POIN2  SacrificeAndTheSaint_1_56
// 061   ----------------------------------------
        BYTE   PATT
         POIN2  SacrificeAndTheSaint_1_57
// 062   ----------------------------------------
        BYTE   PATT
         POIN2  SacrificeAndTheSaint_1_56
// 063   ----------------------------------------
        BYTE           N12     Ds1   v104
        BYTE           N12     Cn1   v120
        BYTE   W12
        BYTE                   Ds1   v080
        BYTE   W12
        BYTE                   Gs2
        BYTE           N12     Ds1   v056
        BYTE   W12
        BYTE                   Ds1   v096
        BYTE           N06     Cn1   v098
        BYTE   W24
        BYTE           N12     Ds1   v080
        BYTE           N12     Gs2
        BYTE   W12
        BYTE                   Ds1   v096
        BYTE           N06     Cn1   v098
        BYTE   W12
        BYTE           N12     Ds1   v080
        BYTE   W12
// 064   ----------------------------------------
        BYTE           N24     Ds1   v096
        BYTE           N12     Cn1   v120
        BYTE           N36     An2   v104
        BYTE   W36
        BYTE           N06     Cn1   v098
        BYTE           N36     An2   v088
        BYTE   W12
        BYTE           N12     Ds1   v096
        BYTE   W12
        BYTE                   Ds1   v072
        BYTE   W12
        BYTE                   Ds1   v096
        BYTE           N12     As1   v104
        BYTE           N06     Cn1   v098
        BYTE   W12
        BYTE           N12     Ds1   v072
        BYTE   W12
// 065   ----------------------------------------
        BYTE                   Ds1   v096
        BYTE           N12     Cn1   v120
        BYTE           N36     An2   v080
        BYTE   W12
        BYTE           N12     Ds1   v072
        BYTE   W12
        BYTE                   Ds1   v096
        BYTE           N12     As1   v080
        BYTE   W12
        BYTE                   Ds1   v072
        BYTE           N12     Ds3   v088
        BYTE           N06     Cn1   v098
        BYTE   W12
        BYTE           N12     Ds1   v096
        BYTE           N12     En3   v088
        BYTE   W12
        BYTE                   Ds1   v072
        BYTE           N12     Dn3   v088
        BYTE   W12
        BYTE                   Ds1   v096
        BYTE           N12     As1   v080
        BYTE           N12     En3   v088
        BYTE           N06     Cn1   v098
        BYTE   W12
        BYTE           N12     Ds1   v072
        BYTE           N12     Dn3   v088
        BYTE   W12
// 066   ----------------------------------------
SacrificeAndTheSaint_1_66:
        BYTE           N12     En3   v088
        BYTE           N12     Cn1   v120
        BYTE   W24
        BYTE                   As1   v064
        BYTE           N12     Dn1   v104
        BYTE   W12
        BYTE                   Dn3   v088
        BYTE           N12     Dn1   v104
        BYTE           N06     Cn1   v100
        BYTE   W12
        BYTE           N24     Ds1   v096
        BYTE           N06     Cn1   v098
        BYTE   W24
        BYTE           N12     Ds3   v088
        BYTE           N12     As1   v080
        BYTE           N12     Dn1   v104
        BYTE           N06     Cn1   v098
        BYTE   W12
        BYTE           N12     Dn3   v088
        BYTE           N12     Dn1   v104
        BYTE   W12
        BYTE   PEND
// 067   ----------------------------------------
SacrificeAndTheSaint_1_67:
        BYTE           N12     Cn1   v120
        BYTE   W12
        BYTE                   En3   v088
        BYTE   W12
        BYTE                   Ds3
        BYTE           N12     As1   v064
        BYTE           N12     Dn1   v104
        BYTE   W12
        BYTE                   Dn1
        BYTE           N06     Cn1   v100
        BYTE   W12
        BYTE           N24     Ds1   v096
        BYTE           N06     Cn1   v098
        BYTE   W24
        BYTE           N12     As1   v080
        BYTE           N12     Dn1   v104
        BYTE           N06     Cn1   v098
        BYTE   W12
        BYTE           N12     Dn1   v104
        BYTE   W12
        BYTE   PEND
// 068   ----------------------------------------
SacrificeAndTheSaint_1_68:
        BYTE           N12     Cn1   v120
        BYTE   W12
        BYTE                   Ds3   v088
        BYTE   W12
        BYTE                   Dn3
        BYTE           N12     Dn1   v104
        BYTE           N12     As1   v064
        BYTE   W12
        BYTE                   Dn1   v104
        BYTE           N06     Cn1   v100
        BYTE   W12
        BYTE           N24     Ds1   v096
        BYTE           N12     En3   v088
        BYTE           N06     Cn1   v098
        BYTE   W24
        BYTE           N12     As1   v080
        BYTE           N12     Dn1   v104
        BYTE           N06     Cn1   v098
        BYTE   W12
        BYTE           N12     Dn1   v104
        BYTE   W12
        BYTE   PEND
// 069   ----------------------------------------
SacrificeAndTheSaint_1_69:
        BYTE           N12     Cn1   v120
        BYTE   W12
        BYTE                   En3   v088
        BYTE   W12
        BYTE                   Ds3
        BYTE           N12     As1   v064
        BYTE           N12     Dn1   v112
        BYTE   W12
        BYTE                   En3   v088
        BYTE           N12     Dn1   v104
        BYTE           N06     Cn1   v100
        BYTE   W12
        BYTE           N24     Ds1   v096
        BYTE           N12     En3   v088
        BYTE           N12     Dn1   v120
        BYTE           N06     Cn1   v098
        BYTE   W12
        BYTE           N12     Dn1   v096
        BYTE   W12
        BYTE                   Ds3   v088
        BYTE           N12     As1   v080
        BYTE           N12     Dn1   v112
        BYTE           N06     Cn1   v098
        BYTE   W12
        BYTE           N12     Dn3   v088
        BYTE           N12     Dn1   v104
        BYTE   W12
        BYTE   PEND
// 070   ----------------------------------------
        BYTE                   En3   v088
        BYTE           N12     Cn1   v120
        BYTE   W24
        BYTE                   As1   v056
        BYTE           N12     Dn1   v104
        BYTE   W12
        BYTE                   Dn3   v088
        BYTE           N12     Dn1   v104
        BYTE           N06     Cn1   v100
        BYTE   W12
        BYTE           N24     Ds1   v096
        BYTE           N06     Cn1   v098
        BYTE   W24
        BYTE           N12     Ds3   v088
        BYTE           N12     As1   v080
        BYTE           N12     Dn1   v104
        BYTE           N06     Cn1   v098
        BYTE   W12
        BYTE           N12     Dn3   v088
        BYTE           N12     Dn1   v104
        BYTE   W12
// 071   ----------------------------------------
        BYTE   PATT
         POIN2  SacrificeAndTheSaint_1_67
// 072   ----------------------------------------
        BYTE   PATT
         POIN2  SacrificeAndTheSaint_1_68
// 073   ----------------------------------------
        BYTE   PATT
         POIN2  SacrificeAndTheSaint_1_69
// 074   ----------------------------------------
        BYTE   PATT
         POIN2  SacrificeAndTheSaint_1_66
// 075   ----------------------------------------
        BYTE   PATT
         POIN2  SacrificeAndTheSaint_1_67
// 076   ----------------------------------------
        BYTE   PATT
         POIN2  SacrificeAndTheSaint_1_68
// 077   ----------------------------------------
        BYTE   PATT
         POIN2  SacrificeAndTheSaint_1_69
// 078   ----------------------------------------
        BYTE   PATT
         POIN2  SacrificeAndTheSaint_1_66
// 079   ----------------------------------------
        BYTE   PATT
         POIN2  SacrificeAndTheSaint_1_67
// 080   ----------------------------------------
        BYTE   PATT
         POIN2  SacrificeAndTheSaint_1_68
// 081   ----------------------------------------
SacrificeAndTheSaint_1_81:
        BYTE           N12     Cn1   v120
        BYTE   W24
        BYTE                   As1   v064
        BYTE           N12     Dn1   v112
        BYTE   W12
        BYTE                   Dn1   v104
        BYTE           N06     Cn1   v100
        BYTE   W12
        BYTE           N24     Ds1   v096
        BYTE           N12     Dn1   v120
        BYTE           N06     Cn1   v098
        BYTE   W12
        BYTE           N12     Dn1   v096
        BYTE   W12
        BYTE                   As1   v080
        BYTE           N12     Dn1   v112
        BYTE           N06     Cn1   v098
        BYTE   W12
        BYTE           N12     Dn1   v104
        BYTE   W12
        BYTE   PEND
// 082   ----------------------------------------
        BYTE                   Cn1   v120
        BYTE   W24
        BYTE                   Dn1   v104
        BYTE           N12     As1   v064
        BYTE   W12
        BYTE                   Dn1   v104
        BYTE           N06     Cn1   v100
        BYTE   W12
        BYTE           N24     Ds1   v096
        BYTE           N06     Cn1   v100
        BYTE   W24
        BYTE           N12     As1   v080
        BYTE           N12     Dn1   v104
        BYTE           N06     Cn1   v098
        BYTE   W12
        BYTE           N12     Dn1   v104
        BYTE   W12
// 083   ----------------------------------------
        BYTE   PATT
         POIN2  SacrificeAndTheSaint_1_81
// 084   ----------------------------------------
SacrificeAndTheSaint_1_84:
        BYTE           N12     Cn1   v120
        BYTE   W12
        BYTE                   Ds4   v088
        BYTE   W12
        BYTE                   Dn1   v104
        BYTE   W12
        BYTE           N06     Gs2   v088
        BYTE           N06     Cn1   v096
        BYTE           N12     Dn1   v080
        BYTE   W12
        BYTE           N06     Gs2   v064
        BYTE           N12     Cn1   v096
        BYTE           N24     Ds1   v088
        BYTE           N12     Ds4
        BYTE   W24
        BYTE           N06     Gs2
        BYTE           N12     Cn1   v096
        BYTE           N12     Dn1   v104
        BYTE   W12
        BYTE           N06     Gs2   v064
        BYTE           N12     Dn1   v080
        BYTE   W12
        BYTE   PEND
// 085   ----------------------------------------
SacrificeAndTheSaint_1_85:
        BYTE           N12     Cn1   v120
        BYTE   W12
        BYTE           N06     Gs2   v088
        BYTE           N12     As1
        BYTE           N12     Cn1   v096
        BYTE           N12     Ds4   v088
        BYTE   W12
        BYTE           N06     Gs2   v064
        BYTE           N12     Dn1   v088
        BYTE   W12
        BYTE           N06     Cn1   v096
        BYTE           N12     Dn1   v080
        BYTE   W12
        BYTE           N06     Gs2   v088
        BYTE           N12     Cn1   v096
        BYTE           N24     Ds1   v088
        BYTE           N12     Ds4
        BYTE   W12
        BYTE           N06     Gs2   v072
        BYTE   W12
        BYTE                   Gs2   v088
        BYTE           N12     Cn1   v096
        BYTE           N12     Dn1   v088
        BYTE           N12     Ds4
        BYTE   W12
        BYTE           N06     Gs2
        BYTE           N12     Dn1   v080
        BYTE   W12
        BYTE   PEND
// 086   ----------------------------------------
        BYTE   PATT
         POIN2  SacrificeAndTheSaint_1_84
// 087   ----------------------------------------
        BYTE   PATT
         POIN2  SacrificeAndTheSaint_1_85
// 088   ----------------------------------------
        BYTE   PATT
         POIN2  SacrificeAndTheSaint_1_84
// 089   ----------------------------------------
        BYTE   PATT
         POIN2  SacrificeAndTheSaint_1_85
// 090   ----------------------------------------
        BYTE   PATT
         POIN2  SacrificeAndTheSaint_1_84
// 091   ----------------------------------------
        BYTE   PATT
         POIN2  SacrificeAndTheSaint_1_85
// 092   ----------------------------------------
        BYTE   PATT
         POIN2  SacrificeAndTheSaint_1_84
// 093   ----------------------------------------
        BYTE   PATT
         POIN2  SacrificeAndTheSaint_1_85
// 094   ----------------------------------------
        BYTE   PATT
         POIN2  SacrificeAndTheSaint_1_84
// 095   ----------------------------------------
        BYTE   PATT
         POIN2  SacrificeAndTheSaint_1_85
// 096   ----------------------------------------
        BYTE   PATT
         POIN2  SacrificeAndTheSaint_1_84
// 097   ----------------------------------------
        BYTE   PATT
         POIN2  SacrificeAndTheSaint_1_85
// 098   ----------------------------------------
        BYTE   PATT
         POIN2  SacrificeAndTheSaint_1_84
// 099   ----------------------------------------
        BYTE   PATT
         POIN2  SacrificeAndTheSaint_1_85
// 100   ----------------------------------------
SacrificeAndTheSaint_1_100:
        BYTE           N12     Cn1   v120
        BYTE   W72
        BYTE           N06     Cn1   v096
        BYTE   W24
        BYTE   PEND
// 101   ----------------------------------------
        BYTE   PATT
         POIN2  SacrificeAndTheSaint_1_100
// 102   ----------------------------------------
        BYTE   PATT
         POIN2  SacrificeAndTheSaint_1_100
// 103   ----------------------------------------
        BYTE           N12     Cn1   v120
        BYTE   W36
        BYTE           N06     Dn3   v088
        BYTE   W12
        BYTE                   Ds3
        BYTE   W24
        BYTE                   Cn1   v096
        BYTE           N06     Ds3   v088
        BYTE   W24
// 104   ----------------------------------------
        BYTE           N12     Cn1   v120
        BYTE   W12
        BYTE                   Ds4   v088
        BYTE   W24
        BYTE           N06     Dn1
        BYTE   W12
        BYTE           N12     Ds4
        BYTE   W24
        BYTE           N06     Cn1   v096
        BYTE           N06     Dn1   v088
        BYTE   W24
// 105   ----------------------------------------
        BYTE           N12     Cn1   v120
        BYTE   W12
        BYTE                   Ds4   v088
        BYTE   W24
        BYTE           N06     Dn1
        BYTE   W12
        BYTE           N12     Ds4
        BYTE   W24
        BYTE                   Ds4
        BYTE           N06     Cn1   v096
        BYTE   W24
// 106   ----------------------------------------
        BYTE           N12     Cn1   v120
        BYTE   W12
        BYTE                   Ds4   v088
        BYTE   W24
        BYTE           N06     Dn1
        BYTE   W12
        BYTE           N12     Ds4
        BYTE   W24
        BYTE           N06     Dn1
        BYTE           N06     Cn1   v096
        BYTE   W24
// 107   ----------------------------------------
        BYTE           N12     Cn1   v120
        BYTE   W12
        BYTE                   Ds4   v088
        BYTE   W24
        BYTE           N06     Dn1
        BYTE           N06     Dn3
        BYTE   W12
        BYTE           N12     Ds4
        BYTE           N06     Ds3
        BYTE   W24
        BYTE           N12     Ds4
        BYTE           N06     Cn1   v096
        BYTE           N06     Ds3   v088
        BYTE   W24
// 108   ----------------------------------------
        BYTE           N12     En3
        BYTE           N12     Cn1   v120
        BYTE           N36     An2   v096
        BYTE   W12
        BYTE           N12     Ds4   v088
        BYTE   W12
        BYTE                   As1   v056
        BYTE           N12     Dn1   v104
        BYTE   W12
        BYTE                   Dn3   v088
        BYTE           N12     Dn1   v104
        BYTE           N06     Cn1   v099
        BYTE   W12
        BYTE           N24     Ds1   v096
        BYTE           N06     Cn1   v112
        BYTE           N12     Ds4   v088
        BYTE   W24
        BYTE                   Ds3
        BYTE           N12     As1   v080
        BYTE           N12     Dn1   v104
        BYTE           N06     Cn1   v098
        BYTE   W12
        BYTE           N12     Dn3   v088
        BYTE           N12     Dn1   v104
        BYTE   W12
// 109   ----------------------------------------
SacrificeAndTheSaint_1_109:
        BYTE           N12     Cn1   v120
        BYTE   W12
        BYTE                   En3   v088
        BYTE           N12     Ds4
        BYTE   W12
        BYTE                   Ds3
        BYTE           N12     As1   v080
        BYTE           N12     Dn1   v104
        BYTE   W12
        BYTE                   Dn1
        BYTE           N06     Cn1   v099
        BYTE   W12
        BYTE           N24     Ds1   v096
        BYTE           N06     Cn1   v112
        BYTE           N12     Ds4   v088
        BYTE   W24
        BYTE                   As1   v080
        BYTE           N12     Dn1   v104
        BYTE           N06     Cn1   v098
        BYTE           N12     Ds4   v088
        BYTE   W12
        BYTE                   Dn1   v104
        BYTE   W12
        BYTE   PEND
// 110   ----------------------------------------
SacrificeAndTheSaint_1_110:
        BYTE           N12     Cn1   v120
        BYTE   W12
        BYTE                   Ds3   v088
        BYTE           N12     Ds4
        BYTE   W12
        BYTE                   Dn3
        BYTE           N12     Dn1   v104
        BYTE           N12     As1   v080
        BYTE   W12
        BYTE                   Dn1   v104
        BYTE           N06     Cn1   v099
        BYTE   W12
        BYTE           N24     Ds1   v096
        BYTE           N12     En3   v088
        BYTE           N06     Cn1   v112
        BYTE           N12     Ds4   v088
        BYTE   W24
        BYTE                   As1   v080
        BYTE           N12     Dn1   v104
        BYTE           N06     Cn1   v098
        BYTE   W12
        BYTE           N12     Dn1   v104
        BYTE   W12
        BYTE   PEND
// 111   ----------------------------------------
SacrificeAndTheSaint_1_111:
        BYTE           N12     Cn1   v120
        BYTE   W12
        BYTE                   En3   v088
        BYTE           N12     Ds4
        BYTE   W12
        BYTE                   Ds3
        BYTE           N12     As1   v080
        BYTE           N12     Dn1   v112
        BYTE   W12
        BYTE                   En3   v088
        BYTE           N12     Dn1   v104
        BYTE           N06     Cn1   v099
        BYTE   W12
        BYTE           N24     Ds1   v096
        BYTE           N12     En3   v088
        BYTE           N12     Dn1   v120
        BYTE           N06     Cn1   v112
        BYTE           N12     Ds4   v088
        BYTE   W12
        BYTE                   Dn1   v096
        BYTE   W12
        BYTE                   Ds3   v088
        BYTE           N12     As1   v080
        BYTE           N12     Dn1   v112
        BYTE           N06     Cn1   v098
        BYTE           N12     Ds4   v088
        BYTE   W12
        BYTE                   Dn3
        BYTE           N12     Dn1   v104
        BYTE   W12
        BYTE   PEND
// 112   ----------------------------------------
        BYTE                   En3   v088
        BYTE           N12     Cn1   v120
        BYTE   W12
        BYTE                   Ds4   v088
        BYTE   W12
        BYTE                   As1   v056
        BYTE           N12     Dn1   v104
        BYTE   W12
        BYTE                   Dn3   v088
        BYTE           N12     Dn1   v104
        BYTE           N06     Cn1   v099
        BYTE   W12
        BYTE           N24     Ds1   v096
        BYTE           N06     Cn1   v112
        BYTE           N12     Ds4   v088
        BYTE   W24
        BYTE                   Ds3
        BYTE           N12     As1   v080
        BYTE           N12     Dn1   v104
        BYTE           N06     Cn1   v098
        BYTE   W12
        BYTE           N12     Dn3   v088
        BYTE           N12     Dn1   v104
        BYTE   W12
// 113   ----------------------------------------
        BYTE   PATT
         POIN2  SacrificeAndTheSaint_1_109
// 114   ----------------------------------------
        BYTE   PATT
         POIN2  SacrificeAndTheSaint_1_110
// 115   ----------------------------------------
        BYTE   PATT
         POIN2  SacrificeAndTheSaint_1_111
// 116   ----------------------------------------
        BYTE           N48     An2   v104
        BYTE           N12     Cn1   v120
        BYTE   W12
        BYTE                   Ds4   v088
        BYTE   W24
        BYTE                   Cn1   v096
        BYTE   W12
        BYTE                   Ds4   v088
        BYTE   W24
        BYTE           N06     Dn1
        BYTE   W12
        BYTE                   Dn1
        BYTE   W12
// 117   ----------------------------------------
        BYTE           N12     Cn1   v120
        BYTE           N06     Ds1   v088
        BYTE   W12
        BYTE           N12     Ds4
        BYTE   W24
        BYTE                   Cn1   v096
        BYTE   W12
        BYTE                   Ds4   v088
        BYTE   W24
        BYTE           N06     Dn1
        BYTE           N12     Ds4
        BYTE   W12
        BYTE           N06     Dn1
        BYTE   W12
// 118   ----------------------------------------
        BYTE           N12     Cn1   v120
        BYTE   W12
        BYTE                   Ds4   v088
        BYTE   W24
        BYTE                   Cn1   v096
        BYTE   W12
        BYTE                   Ds4   v088
        BYTE   W24
        BYTE           N06     Dn1
        BYTE   W12
        BYTE                   Dn1
        BYTE   W12
// 119   ----------------------------------------
        BYTE           N12     Cn1   v120
        BYTE           N06     Ds1   v088
        BYTE           N24     Fn3   v112
        BYTE   W12
        BYTE           N12     Ds4   v088
        BYTE   W24
        BYTE                   Cn1   v096
        BYTE           N06     Ds1   v088
        BYTE           N24     Fn3   v116
        BYTE   W12
        BYTE           N12     Ds4   v088
        BYTE   W12
        BYTE           N06     Ds1
        BYTE   W12
        BYTE                   Dn1
        BYTE           N06     Ds1
        BYTE           N12     Ds4
        BYTE           N24     Fs3   v108
        BYTE   W12
        BYTE           N06     Dn1   v088
        BYTE           N06     Ds1
        BYTE           N12     Ds4   v072
        BYTE   W12
// 120   ----------------------------------------
        BYTE   GoTo
         POIN2  SacrificeAndTheSaint_1_LOOP
        BYTE   FINE

//****************** Track 2 (Midi-Chn.2) ******************//

SacrificeAndTheSaint_2:
        BYTE   KEYSH   SacrificeAndTheSaint_key+0
// 000   ----------------------------------------
SacrificeAndTheSaint_2_LOOP:
        BYTE           VOICE   41
        BYTE           VOL     32
        BYTE           PAN     c_v-32
        BYTE   W12
        BYTE           N12     An3   v096
        BYTE           N12     En4
        BYTE   W12
        BYTE                   An3   v080
        BYTE           N12     En4
        BYTE   W24
        BYTE                   Gn3   v096
        BYTE           N12     Dn4
        BYTE   W12
        BYTE                   Gn3   v080
        BYTE           N12     Dn4
        BYTE   W24
        BYTE                   An3   v096
        BYTE           N12     En4
        BYTE   W12
// 001   ----------------------------------------
SacrificeAndTheSaint_2_1:
        BYTE   W12
        BYTE           N12     Fn4   v096
        BYTE           N12     As3
        BYTE   W12
        BYTE                   Fn4   v080
        BYTE           N12     As3
        BYTE   W24
        BYTE                   En4   v096
        BYTE           N12     An3
        BYTE   W12
        BYTE                   En4   v080
        BYTE           N12     An3
        BYTE   W24
        BYTE                   Fn4   v096
        BYTE           N12     As3
        BYTE   W12
        BYTE   PEND
// 002   ----------------------------------------
SacrificeAndTheSaint_2_2:
        BYTE   W12
        BYTE           N12     An4   v096
        BYTE           N12     Dn4
        BYTE   W12
        BYTE                   An4   v080
        BYTE           N12     Dn4
        BYTE   W24
        BYTE                   Gn4   v096
        BYTE           N12     Cn4
        BYTE   W12
        BYTE                   Gn4   v080
        BYTE           N12     Cn4
        BYTE   W24
        BYTE                   An4   v096
        BYTE           N12     Dn4
        BYTE   W12
        BYTE   PEND
// 003   ----------------------------------------
SacrificeAndTheSaint_2_3:
        BYTE   W12
        BYTE           N12     En4   v096
        BYTE           N12     As4
        BYTE   W12
        BYTE                   En4   v080
        BYTE           N12     As4
        BYTE   W24
        BYTE                   An4   v096
        BYTE           N12     Dn4
        BYTE   W12
        BYTE                   An4   v080
        BYTE           N12     Dn4
        BYTE   W24
        BYTE                   As4   v096
        BYTE           N12     En4
        BYTE   W24
        BYTE                   Cn5
        BYTE           N12     En4
        BYTE   W12
        BYTE   PEND
// 004   ----------------------------------------
        BYTE   W12
        BYTE                   En4
        BYTE           N12     An3
        BYTE   W12
        BYTE                   En4   v080
        BYTE           N12     An3
        BYTE   W24
        BYTE                   Dn4   v096
        BYTE           N12     Gn3
        BYTE   W12
        BYTE                   Dn4   v080
        BYTE           N12     Gn3
        BYTE   W24
        BYTE                   En4   v096
        BYTE           N12     An3
        BYTE   W12
// 005   ----------------------------------------
        BYTE   PATT
         POIN2  SacrificeAndTheSaint_2_1
// 006   ----------------------------------------
        BYTE   PATT
         POIN2  SacrificeAndTheSaint_2_2
// 007   ----------------------------------------
        BYTE   PATT
         POIN2  SacrificeAndTheSaint_2_3
// 008   ----------------------------------------
SacrificeAndTheSaint_2_8:
        BYTE   W12
        BYTE           N12     Fn4   v096
        BYTE           N12     Dn5
        BYTE   W12
        BYTE                   Fn4   v080
        BYTE           N12     Dn5
        BYTE   W24
        BYTE                   En4   v096
        BYTE           N12     Cn5
        BYTE   W12
        BYTE                   En4   v080
        BYTE           N12     Cn5
        BYTE   W24
        BYTE                   Dn4   v096
        BYTE           N12     An4
        BYTE   W12
        BYTE   PEND
// 009   ----------------------------------------
SacrificeAndTheSaint_2_9:
        BYTE   W12
        BYTE           N12     En4   v096
        BYTE           N12     As4
        BYTE   W24
        BYTE                   Cn4
        BYTE           N12     Gn4
        BYTE   W24
        BYTE                   Dn4
        BYTE           N12     An4
        BYTE   W24
        BYTE                   Fn4
        BYTE           N12     An3
        BYTE   W12
        BYTE   PEND
// 010   ----------------------------------------
SacrificeAndTheSaint_2_10:
        BYTE   W12
        BYTE           N12     En4   v096
        BYTE           N12     Gn3
        BYTE   W12
        BYTE                   En4   v080
        BYTE           N12     Gn3
        BYTE   W24
        BYTE                   Dn4   v096
        BYTE           N12     Fn3
        BYTE   W12
        BYTE                   Dn4   v080
        BYTE           N12     Fn3
        BYTE   W24
        BYTE                   Fn4   v096
        BYTE           N12     An3
        BYTE   W12
        BYTE   PEND
// 011   ----------------------------------------
SacrificeAndTheSaint_2_11:
        BYTE   W12
        BYTE           N12     As3   v096
        BYTE           N12     Gn4
        BYTE   W24
        BYTE                   Cn4
        BYTE           N12     An4
        BYTE   W24
        BYTE                   Dn4
        BYTE           N12     As4
        BYTE   W24
        BYTE                   As3
        BYTE           N12     Gn4
        BYTE   W12
        BYTE   PEND
// 012   ----------------------------------------
        BYTE   PATT
         POIN2  SacrificeAndTheSaint_2_8
// 013   ----------------------------------------
        BYTE   PATT
         POIN2  SacrificeAndTheSaint_2_9
// 014   ----------------------------------------
        BYTE   PATT
         POIN2  SacrificeAndTheSaint_2_10
// 015   ----------------------------------------
        BYTE   PATT
         POIN2  SacrificeAndTheSaint_2_11
// 016   ----------------------------------------
        BYTE   W12
        BYTE           N12     En4   v104
        BYTE   W12
        BYTE                   En4   v088
        BYTE   W24
        BYTE                   Dn4   v104
        BYTE   W12
        BYTE                   Dn4   v088
        BYTE   W24
        BYTE                   En4   v104
        BYTE   W12
// 017   ----------------------------------------
        BYTE   W12
        BYTE                   Fn4   v112
        BYTE   W12
        BYTE                   Fn4   v088
        BYTE   W24
        BYTE                   En4   v112
        BYTE   W12
        BYTE                   En4   v088
        BYTE   W24
        BYTE                   Fn4   v112
        BYTE   W12
// 018   ----------------------------------------
        BYTE   W12
        BYTE                   An4
        BYTE   W12
        BYTE                   An4   v088
        BYTE   W24
        BYTE                   Gn4   v112
        BYTE   W12
        BYTE                   Gn4   v088
        BYTE   W24
        BYTE                   An4   v112
        BYTE   W12
// 019   ----------------------------------------
        BYTE   W12
        BYTE                   As4
        BYTE   W12
        BYTE                   As4   v088
        BYTE   W24
        BYTE                   An4   v112
        BYTE   W12
        BYTE                   An4   v088
        BYTE   W24
        BYTE                   As4   v112
        BYTE   W24
        BYTE                   Cn5
        BYTE   W12
// 020   ----------------------------------------
        BYTE   W12
        BYTE                   En4   v104
        BYTE   W12
        BYTE                   En4   v080
        BYTE   W24
        BYTE                   Dn4   v104
        BYTE   W12
        BYTE                   Dn4   v080
        BYTE   W24
        BYTE                   En4   v104
        BYTE   W12
// 021   ----------------------------------------
        BYTE   W12
        BYTE                   Fn4
        BYTE   W12
        BYTE                   Fn4   v080
        BYTE   W24
        BYTE                   En4   v104
        BYTE   W12
        BYTE                   En4   v080
        BYTE   W24
        BYTE                   Fn4   v104
        BYTE   W12
// 022   ----------------------------------------
        BYTE   W12
        BYTE                   An4
        BYTE   W12
        BYTE                   An4   v080
        BYTE   W24
        BYTE                   Gn4   v104
        BYTE   W12
        BYTE                   Gn4   v080
        BYTE   W24
        BYTE                   An4   v104
        BYTE   W12
// 023   ----------------------------------------
        BYTE   W12
        BYTE                   As4
        BYTE   W12
        BYTE                   As4   v080
        BYTE   W24
        BYTE                   An4   v104
        BYTE   W12
        BYTE                   An4   v080
        BYTE   W24
        BYTE                   As4   v104
        BYTE   W24
        BYTE                   Cn5
        BYTE   W12
// 024   ----------------------------------------
        BYTE   W12
        BYTE                   Dn5
        BYTE   W12
        BYTE                   Dn5   v088
        BYTE   W24
        BYTE                   Cn5   v104
        BYTE   W12
        BYTE                   Cn5   v088
        BYTE   W24
        BYTE                   An4   v104
        BYTE   W12
// 025   ----------------------------------------
        BYTE   W12
        BYTE                   Cn5
        BYTE   W24
        BYTE                   Gn4   v096
        BYTE   W24
        BYTE                   An4   v104
        BYTE   W24
        BYTE                   Fn4   v096
        BYTE   W12
// 026   ----------------------------------------
        BYTE   W12
        BYTE                   En4   v104
        BYTE   W12
        BYTE                   En4   v088
        BYTE   W24
        BYTE                   Dn4   v104
        BYTE   W12
        BYTE                   Dn4   v088
        BYTE   W24
        BYTE                   Fn4   v104
        BYTE   W12
// 027   ----------------------------------------
        BYTE   W12
        BYTE                   Gn4
        BYTE   W24
        BYTE                   An4   v096
        BYTE   W24
        BYTE                   As4   v104
        BYTE   W24
        BYTE                   Gn4   v096
        BYTE   W12
// 028   ----------------------------------------
        BYTE           N72     Gn4   v112
        BYTE   W72
        BYTE           N12     Fn4
        BYTE   W12
        BYTE                   En4   v096
        BYTE   W12
// 029   ----------------------------------------
        BYTE           N72     Fn4   v112
        BYTE   W72
        BYTE           N24     Fn4   v096
        BYTE   W24
// 030   ----------------------------------------
        BYTE           N96     Fn4   v104
        BYTE   W96
// 031   ----------------------------------------
        BYTE           N36     En4
        BYTE   W36
        BYTE           N12     An3
        BYTE   W12
        BYTE           N24     Cn4
        BYTE   W24
        BYTE                   An3
        BYTE   W24
// 032   ----------------------------------------
        BYTE                   Dn4
        BYTE   W24
        BYTE           N12
        BYTE   W12
        BYTE                   En4
        BYTE   W12
        BYTE           N18     Fn4
        BYTE   W24
        BYTE           N12     Dn4
        BYTE   W12
        BYTE                   En4
        BYTE   W12
// 033   ----------------------------------------
        BYTE           N96     Fn4
        BYTE   W96
// 034   ----------------------------------------
        BYTE   W48
        BYTE           N24     Ds4
        BYTE   W24
        BYTE                   Fn4
        BYTE   W24
// 035   ----------------------------------------
        BYTE           N48     Gn4
        BYTE   W48
        BYTE                   An4
        BYTE   W48
// 036   ----------------------------------------
        BYTE   W24
        BYTE           N12     Dn4
        BYTE   W12
        BYTE                   En4
        BYTE   W12
        BYTE           N24     Fn4
        BYTE   W24
        BYTE           N12     Dn4
        BYTE   W12
        BYTE                   En4
        BYTE   W12
// 037   ----------------------------------------
        BYTE           N96     Fn4
        BYTE   W96
// 038   ----------------------------------------
        BYTE   W28
        BYTE           N36     Gn4
        BYTE   W36
        BYTE           N32     Fn4
        BYTE   W32
// 039   ----------------------------------------
        BYTE                   Ds4
        BYTE   W32
        BYTE                   Dn4
        BYTE   W32
        BYTE                   Cn4
        BYTE   W32
// 040   ----------------------------------------
        BYTE                   An3
        BYTE   W32
        BYTE                   Cn4
        BYTE   W32
        BYTE                   Dn4
        BYTE   W32
// 041   ----------------------------------------
        BYTE           N96     Fn4
        BYTE   W96
// 042   ----------------------------------------
        BYTE           N32     Gn3
        BYTE   W32
        BYTE                   Cn4
        BYTE   W32
        BYTE                   Dn4
        BYTE   W32
// 043   ----------------------------------------
        BYTE           N48     Fn4
        BYTE   W48
        BYTE                   Ds4
        BYTE   W48
// 044   ----------------------------------------
        BYTE           TIE     Dn4
        BYTE   W96
// 045   ----------------------------------------
        BYTE   W96
// 046   ----------------------------------------
        BYTE           EOT
        BYTE           N96     Dn4   v080
        BYTE   W96
// 047   ----------------------------------------
        BYTE                   Dn4   v064
        BYTE   W96
// 048   ----------------------------------------
        BYTE           N48     Gn3   v048
        BYTE   W48
        BYTE                   Dn4
        BYTE   W48
// 049   ----------------------------------------
        BYTE                   Dn4
        BYTE   W48
        BYTE           N24     Cn4   v056
        BYTE   W24
        BYTE                   As3
        BYTE   W24
// 050   ----------------------------------------
        BYTE           N36
        BYTE   W36
        BYTE           N12     An3
        BYTE   W12
        BYTE           N24
        BYTE   W24
        BYTE                   Ds4   v064
        BYTE   W24
// 051   ----------------------------------------
        BYTE           N36
        BYTE   W36
        BYTE           N12     Fn4
        BYTE   W12
        BYTE           N48     Dn4
        BYTE   W48
// 052   ----------------------------------------
        BYTE                   An3
        BYTE   W60
        BYTE           N12
        BYTE   W12
        BYTE                   Cn4
        BYTE   W12
        BYTE                   En4
        BYTE   W12
// 053   ----------------------------------------
        BYTE           N48     Gn4
        BYTE   W48
        BYTE           N24     Fn4
        BYTE   W24
        BYTE                   En4
        BYTE   W24
// 054   ----------------------------------------
        BYTE           N36
        BYTE   W36
        BYTE           N12     Dn4
        BYTE   W12
        BYTE           N24
        BYTE   W24
        BYTE                   Cn4
        BYTE   W24
// 055   ----------------------------------------
        BYTE           N48
        BYTE   W48
        BYTE           N24     As3   v072
        BYTE   W24
        BYTE                   An3
        BYTE   W24
// 056   ----------------------------------------
        BYTE           N48     Gn3
        BYTE           N48     Gn2
        BYTE   W48
        BYTE                   Dn3   v080
        BYTE           N48     Dn4
        BYTE   W48
// 057   ----------------------------------------
        BYTE                   Dn4
        BYTE           N48     Dn3
        BYTE   W48
        BYTE           N24     Cn4
        BYTE           N24     Cn3
        BYTE   W24
        BYTE                   As3
        BYTE           N24     As2
        BYTE   W24
// 058   ----------------------------------------
        BYTE           N36     As3
        BYTE           N36     As2
        BYTE   W36
        BYTE           N12     An3
        BYTE           N12     An2
        BYTE   W12
        BYTE           N24     An3
        BYTE           N24     An2
        BYTE   W24
        BYTE                   Ds3
        BYTE           N24     Ds4
        BYTE   W24
// 059   ----------------------------------------
        BYTE           N36
        BYTE           N36     Ds3
        BYTE   W36
        BYTE           N12     Fn4
        BYTE           N12     Fn3
        BYTE   W12
        BYTE           N48     Dn4
        BYTE           N48     Dn3
        BYTE   W48
// 060   ----------------------------------------
        BYTE                   An3
        BYTE           N48     An2
        BYTE   W60
        BYTE           N12
        BYTE           N12     An3
        BYTE   W12
        BYTE                   Cn3
        BYTE           N12     Cn4
        BYTE   W12
        BYTE                   En3
        BYTE           N12     En4
        BYTE   W12
// 061   ----------------------------------------
        BYTE           N48     Gn4
        BYTE           N48     Gn3
        BYTE   W48
        BYTE           N24     Fn4
        BYTE           N24     Fn3
        BYTE   W24
        BYTE                   En4
        BYTE           N24     En3
        BYTE   W24
// 062   ----------------------------------------
        BYTE           N36     En4
        BYTE           N36     En3
        BYTE   W36
        BYTE           N12     Dn3
        BYTE           N12     Dn4
        BYTE   W12
        BYTE           TIE
        BYTE           TIE     Dn3
        BYTE   W48
// 063   ----------------------------------------
        BYTE   W96
// 064   ----------------------------------------
        BYTE           EOT
        BYTE           EOT     Dn4
        BYTE           N36     An3   v104
        BYTE           N36     Cn4
        BYTE   W36
        BYTE           N12     Gn3
        BYTE           N12     Cn4
        BYTE   W12
        BYTE           N48     Gn3
        BYTE           N48     Cn4
        BYTE   W48
// 065   ----------------------------------------
        BYTE   W12
        BYTE           N12     Fn4
        BYTE   W12
        BYTE                   En4
        BYTE   W12
        BYTE                   Dn4
        BYTE   W12
        BYTE                   Cn4
        BYTE   W12
        BYTE                   As3
        BYTE   W12
        BYTE                   An3
        BYTE   W12
        BYTE                   Gn3
        BYTE   W12
// 066   ----------------------------------------
SacrificeAndTheSaint_2_66:
        BYTE           N24     An3   v104
        BYTE   W24
        BYTE                   Dn4
        BYTE   W24
        BYTE                   An3
        BYTE   W24
        BYTE                   Fn3
        BYTE   W24
        BYTE   PEND
// 067   ----------------------------------------
SacrificeAndTheSaint_2_67:
        BYTE           N48     Gn3   v104
        BYTE   W48
        BYTE                   As3
        BYTE   W48
        BYTE   PEND
// 068   ----------------------------------------
        BYTE                   An3
        BYTE   W48
        BYTE                   Dn3
        BYTE   W48
// 069   ----------------------------------------
        BYTE           N96     En3
        BYTE   W96
// 070   ----------------------------------------
        BYTE   PATT
         POIN2  SacrificeAndTheSaint_2_66
// 071   ----------------------------------------
        BYTE   PATT
         POIN2  SacrificeAndTheSaint_2_67
// 072   ----------------------------------------
        BYTE           N48     An3   v104
        BYTE   W48
        BYTE           TIE     Dn4
        BYTE   W48
// 073   ----------------------------------------
        BYTE   W96
// 074   ----------------------------------------
        BYTE           EOT
        BYTE           N24     Gs3
        BYTE   W24
        BYTE                   Cn4
        BYTE   W24
        BYTE                   Gs3
        BYTE   W24
        BYTE                   Ds3
        BYTE   W24
// 075   ----------------------------------------
        BYTE           N48     Fn3
        BYTE   W48
        BYTE                   Cn4
        BYTE   W48
// 076   ----------------------------------------
        BYTE           N96     As3
        BYTE   W96
// 077   ----------------------------------------
        BYTE                   Fn4
        BYTE   W96
// 078   ----------------------------------------
        BYTE           N24     Fn4   v112
        BYTE   W24
        BYTE                   Fs4
        BYTE   W24
        BYTE           TIE     Ds4
        BYTE   W48
// 079   ----------------------------------------
        BYTE   W96
// 080   ----------------------------------------
        BYTE   W96
// 081   ----------------------------------------
        BYTE           EOT
        BYTE           TIE     Gs4   v104
        BYTE   W96
// 082   ----------------------------------------
        BYTE   W96
// 083   ----------------------------------------
        BYTE           EOT
        BYTE           N96     As4   v112
        BYTE   W96
// 084   ----------------------------------------
SacrificeAndTheSaint_2_84:
        BYTE   W24
        BYTE           N24     Ds4   v104
        BYTE   W24
        BYTE                   En4
        BYTE   W24
        BYTE                   Cs4
        BYTE   W24
        BYTE   PEND
// 085   ----------------------------------------
SacrificeAndTheSaint_2_85:
        BYTE           N24     Ds4   v104
        BYTE   W24
        BYTE                   Bn3
        BYTE   W24
        BYTE                   Cs4
        BYTE   W24
        BYTE                   As3
        BYTE   W24
        BYTE   PEND
// 086   ----------------------------------------
        BYTE           N48     Bn3
        BYTE   W48
        BYTE                   An4
        BYTE   W48
// 087   ----------------------------------------
SacrificeAndTheSaint_2_87:
        BYTE           N48     Fs4   v104
        BYTE   W48
        BYTE                   Cs4
        BYTE   W48
        BYTE   PEND
// 088   ----------------------------------------
SacrificeAndTheSaint_2_88:
        BYTE           N72     As3   v104
        BYTE   W72
        BYTE           N24     Bn3
        BYTE   W24
        BYTE   PEND
// 089   ----------------------------------------
        BYTE           TIE     Gs3
        BYTE   W96
// 090   ----------------------------------------
        BYTE   W48
        BYTE           EOT
        BYTE           N24     As3
        BYTE           N24     Cs3
        BYTE   W24
        BYTE                   Bn3
        BYTE           N24     Ds3
        BYTE   W24
// 091   ----------------------------------------
        BYTE           N48     En3
        BYTE           N48     Cs4
        BYTE   W48
        BYTE                   Fs3
        BYTE           N48     Ds4
        BYTE   W48
// 092   ----------------------------------------
        BYTE   PATT
         POIN2  SacrificeAndTheSaint_2_84
// 093   ----------------------------------------
        BYTE   PATT
         POIN2  SacrificeAndTheSaint_2_85
// 094   ----------------------------------------
        BYTE           N48     Bn3   v104
        BYTE   W48
        BYTE                   Gs4
        BYTE   W48
// 095   ----------------------------------------
        BYTE   PATT
         POIN2  SacrificeAndTheSaint_2_87
// 096   ----------------------------------------
        BYTE   PATT
         POIN2  SacrificeAndTheSaint_2_88
// 097   ----------------------------------------
        BYTE           N96     Gs3   v104
        BYTE   W96
// 098   ----------------------------------------
        BYTE   W36
        BYTE           N36     En3
        BYTE           N36     Cs4
        BYTE   W36
        BYTE           N24     Ds3
        BYTE           N24     Bn3
        BYTE   W24
// 099   ----------------------------------------
        BYTE           N36     As3
        BYTE           N36     Cs3
        BYTE   W36
        BYTE                   Fs3
        BYTE           N36     As2
        BYTE   W36
        BYTE           N24     Cs3
        BYTE           N24     As2
        BYTE   W24
// 100   ----------------------------------------
        BYTE           N12     Gs3   v080
        BYTE   W12
        BYTE                   Ds4
        BYTE           N12     Gs3
        BYTE   W12
        BYTE                   Ds4   v064
        BYTE           N12     Gs3
        BYTE   W24
        BYTE                   Cs4   v080
        BYTE           N12     Fs3
        BYTE   W12
        BYTE                   Cs4   v064
        BYTE           N12     Fs3
        BYTE   W24
        BYTE                   Ds4   v080
        BYTE           N12     Gs3
        BYTE   W12
// 101   ----------------------------------------
        BYTE   W12
        BYTE                   As3
        BYTE           N12     En4
        BYTE   W12
        BYTE                   As3   v064
        BYTE           N12     En4
        BYTE   W24
        BYTE                   Ds4   v080
        BYTE           N12     Gs3
        BYTE   W12
        BYTE                   Ds4   v064
        BYTE           N12     Gs3
        BYTE   W24
        BYTE                   As3   v080
        BYTE           N12     En4
        BYTE   W12
// 102   ----------------------------------------
        BYTE   W12
        BYTE                   Gs4
        BYTE           N12     Cs4
        BYTE   W12
        BYTE                   Gs4   v064
        BYTE           N12     Cs4
        BYTE   W24
        BYTE                   Fs4   v080
        BYTE           N12     Bn3
        BYTE   W12
        BYTE                   Fs4   v064
        BYTE           N12     Bn3
        BYTE   W24
        BYTE                   Gs4   v080
        BYTE           N12     Cs4
        BYTE   W12
// 103   ----------------------------------------
        BYTE   W12
        BYTE                   As4
        BYTE           N12     Ds4
        BYTE   W12
        BYTE                   As4   v064
        BYTE           N12     Ds4
        BYTE   W24
        BYTE                   Gs4   v080
        BYTE           N12     Cs4
        BYTE   W12
        BYTE                   Gs4   v064
        BYTE           N12     Cs4
        BYTE   W24
        BYTE                   As4   v080
        BYTE           N12     Ds4
        BYTE   W12
// 104   ----------------------------------------
        BYTE   W12
        BYTE                   Bn4
        BYTE           N12     Ds4
        BYTE   W12
        BYTE                   Bn4   v064
        BYTE           N12     Ds4
        BYTE   W24
        BYTE                   As4   v080
        BYTE           N12     Ds4
        BYTE   W12
        BYTE                   As4   v064
        BYTE           N12     Ds4
        BYTE   W24
        BYTE                   Gs4   v072
        BYTE           N12     Cs4   v088
        BYTE   W12
// 105   ----------------------------------------
        BYTE   W12
        BYTE                   As4   v072
        BYTE           N12     Ds4
        BYTE   W24
        BYTE                   Fs4
        BYTE           N12     Bn3
        BYTE   W24
        BYTE                   Gs4
        BYTE           N12     Cs4
        BYTE   W24
        BYTE                   En4
        BYTE           N12     As3
        BYTE   W12
// 106   ----------------------------------------
        BYTE   W12
        BYTE                   Ds4   v080
        BYTE           N12     Gs3
        BYTE   W12
        BYTE                   Ds4   v064
        BYTE           N12     Gs3
        BYTE   W24
        BYTE                   Cs4   v080
        BYTE           N12     Fs3
        BYTE   W12
        BYTE                   Cs4   v064
        BYTE           N12     Fs3
        BYTE   W24
        BYTE                   Ds4   v073
        BYTE           N12     Gs3
        BYTE   W12
// 107   ----------------------------------------
        BYTE   W12
        BYTE                   En4
        BYTE           N12     As3
        BYTE   W24
        BYTE                   Fs4
        BYTE           N12     Bn3
        BYTE   W24
        BYTE                   Gs4
        BYTE           N12     Cs4
        BYTE   W24
        BYTE                   Ds4   v064
        BYTE           N12     Gs3
        BYTE   W12
// 108   ----------------------------------------
        BYTE           N48     Dn4   v080
        BYTE           N48     An3
        BYTE   W60
        BYTE           N12     Dn3   v104
        BYTE   W12
        BYTE           N08
        BYTE   W08
        BYTE                   Fn3
        BYTE   W08
        BYTE                   An3
        BYTE   W08
// 109   ----------------------------------------
        BYTE           N36     Cn4
        BYTE   W36
        BYTE                   As3
        BYTE   W36
        BYTE           N24     An3
        BYTE   W24
// 110   ----------------------------------------
        BYTE           N36
        BYTE   W36
        BYTE           N12     Gn3
        BYTE   W12
        BYTE           N24
        BYTE   W24
        BYTE                   Dn4
        BYTE   W24
// 111   ----------------------------------------
        BYTE           N36
        BYTE   W36
        BYTE           N12     En4
        BYTE   W12
        BYTE           N48     Cn4
        BYTE   W48
// 112   ----------------------------------------
        BYTE                   An3
        BYTE   W60
        BYTE           N12
        BYTE   W12
        BYTE                   Cn4
        BYTE   W12
        BYTE                   En4
        BYTE   W12
// 113   ----------------------------------------
        BYTE           N48     Gn4
        BYTE   W48
        BYTE           N24     Fn4
        BYTE   W24
        BYTE                   En4
        BYTE   W24
// 114   ----------------------------------------
        BYTE           N36
        BYTE   W36
        BYTE           N12     Dn4
        BYTE   W12
        BYTE           N24
        BYTE   W24
        BYTE                   Cn4
        BYTE   W24
// 115   ----------------------------------------
        BYTE           N48
        BYTE   W48
        BYTE                   Bn3
        BYTE   W48
// 116   ----------------------------------------
        BYTE           N36     Bn3   v096
        BYTE   W36
        BYTE           N12     Cn4
        BYTE   W12
        BYTE           TIE     An3
        BYTE   W48
// 117   ----------------------------------------
        BYTE   W96
// 118   ----------------------------------------
        BYTE           EOT
        BYTE           N96     An3   v080
        BYTE   W96
// 119   ----------------------------------------
        BYTE           N48     An3   v064
        BYTE   W96
// 120   ----------------------------------------
        BYTE   GoTo
         POIN2  SacrificeAndTheSaint_2_LOOP
        BYTE   FINE

//****************** Track 3 (Midi-Chn.3) ******************//

SacrificeAndTheSaint_3:
        BYTE   KEYSH   SacrificeAndTheSaint_key+0
// 000   ----------------------------------------
SacrificeAndTheSaint_3_LOOP:
        BYTE           VOICE   109
        BYTE           VOL     41
        BYTE           PAN     c_v-42
        BYTE           N96     An3   v048
        BYTE           N96     Dn3
        BYTE   W96
// 001   ----------------------------------------
SacrificeAndTheSaint_3_1:
        BYTE           N96     As2   v048
        BYTE           N96     Gn3
        BYTE   W96
        BYTE   PEND
// 002   ----------------------------------------
SacrificeAndTheSaint_3_2:
        BYTE           N96     Dn3   v048
        BYTE           N96     Gn2
        BYTE   W96
        BYTE   PEND
// 003   ----------------------------------------
        BYTE           N72     En3
        BYTE           N72     An2
        BYTE   W72
        BYTE           N24     Fn3
        BYTE           N24     As2
        BYTE   W24
        BYTE                   Gn3
        BYTE           N24     Cn3
        BYTE   W24
// 004   ----------------------------------------
        BYTE           N96     An3
        BYTE           N96     Dn3
        BYTE   W96
// 005   ----------------------------------------
        BYTE   PATT
         POIN2  SacrificeAndTheSaint_3_1
// 006   ----------------------------------------
        BYTE   PATT
         POIN2  SacrificeAndTheSaint_3_2
// 007   ----------------------------------------
        BYTE           N72     En3   v048
        BYTE           N72     An2
        BYTE   W72
        BYTE           N24     As2
        BYTE           N24     Fn3
        BYTE   W24
        BYTE                   Gn3   v056
        BYTE           N24     Cn3
        BYTE   W24
// 008   ----------------------------------------
        BYTE           N36     Dn3   v064
        BYTE           N36     An3
        BYTE   W36
        BYTE                   Dn3   v048
        BYTE           N36     An3
        BYTE   W36
        BYTE           N24     Dn3   v056
        BYTE           N24     An3
        BYTE   W24
// 009   ----------------------------------------
        BYTE           N36     An3   v068
        BYTE           N36     Dn3
        BYTE   W36
        BYTE                   An3   v052
        BYTE           N36     Dn3
        BYTE   W36
        BYTE           N24     An3   v060
        BYTE           N24     Dn3
        BYTE   W24
// 010   ----------------------------------------
SacrificeAndTheSaint_3_10:
        BYTE           N36     An3   v072
        BYTE           N36     Dn3
        BYTE   W36
        BYTE                   An3   v056
        BYTE           N36     Dn3
        BYTE   W36
        BYTE           N24     An3   v064
        BYTE           N24     Dn3
        BYTE   W24
        BYTE   PEND
// 011   ----------------------------------------
        BYTE   PATT
         POIN2  SacrificeAndTheSaint_3_10
// 012   ----------------------------------------
        BYTE           N36     Gn3   v080
        BYTE           N36     As2
        BYTE           N36     Cn3
        BYTE   W36
        BYTE                   As2   v064
        BYTE           N36     Gn3
        BYTE           N36     Cn3
        BYTE   W36
        BYTE           N24     Gn3   v072
        BYTE           N24     As2
        BYTE           N24     Cn3
        BYTE   W24
// 013   ----------------------------------------
        BYTE           N36     Gn3   v080
        BYTE           N36     As2
        BYTE           N36     Cn3
        BYTE   W36
        BYTE                   Gn3   v064
        BYTE           N36     As2
        BYTE           N36     Cn3
        BYTE   W36
        BYTE           N24     Gn3   v072
        BYTE           N24     As2
        BYTE           N24     Cn3
        BYTE   W24
// 014   ----------------------------------------
        BYTE           N36     En3   v080
        BYTE           N36     As2
        BYTE           N36     Gn3
        BYTE   W36
        BYTE                   En3   v064
        BYTE           N36     As2
        BYTE           N36     Gn3
        BYTE   W36
        BYTE           N24     As2   v072
        BYTE           N24     En3
        BYTE           N24     Gn3
        BYTE   W23
        BYTE           VOICE   101
        BYTE   W01
// 015   ----------------------------------------
        BYTE           N36     An2   v096
        BYTE   W36
        BYTE                   Dn3
        BYTE           N36     An2
        BYTE   W36
        BYTE           N24     Gn3
        BYTE           N24     Dn3
        BYTE   W24
// 016   ----------------------------------------
        BYTE           N72     An3   v112
        BYTE           N72     Dn3
        BYTE   W72
        BYTE           N24     Gn3   v088
        BYTE           N24     Dn3
        BYTE   W24
// 017   ----------------------------------------
        BYTE           N96     As2   v104
        BYTE           N96     Gn3
        BYTE   W96
// 018   ----------------------------------------
        BYTE                   Dn3   v088
        BYTE           N96     Gn2
        BYTE   W96
// 019   ----------------------------------------
        BYTE           N84     An2   v096
        BYTE           N60     En3
        BYTE   W84
        BYTE           N12     An2   v104
        BYTE           N12     En2
        BYTE   W12
        BYTE                   As2   v088
        BYTE           N12     En3
        BYTE           N12     As3
        BYTE   W12
        BYTE                   Fn3   v096
        BYTE           N12     Dn4
        BYTE   W12
// 020   ----------------------------------------
        BYTE           N72     Dn3   v112
        BYTE           N72     An3
        BYTE           N72     Cn4
        BYTE   W72
        BYTE           N24     Dn3   v088
        BYTE           N24     Fn3
        BYTE   W24
// 021   ----------------------------------------
        BYTE           N96     Fn3   v104
        BYTE           N96     As2
        BYTE   W96
// 022   ----------------------------------------
        BYTE                   Dn3   v080
        BYTE           N96     Gn2
        BYTE   W96
// 023   ----------------------------------------
        BYTE           N60     En3   v096
        BYTE           N84     An2
        BYTE   W84
        BYTE           N12     An2   v104
        BYTE   W12
        BYTE                   An2   v088
        BYTE           N12     En3
        BYTE   W12
        BYTE                   En3   v096
        BYTE           N12     As3
        BYTE   W12
// 024   ----------------------------------------
        BYTE           N72     Dn3   v112
        BYTE           N72     An3
        BYTE   W72
        BYTE           N24     Dn3   v088
        BYTE           N24     Gn3
        BYTE   W24
// 025   ----------------------------------------
        BYTE           N72     Gn3   v104
        BYTE           N72     Dn3
        BYTE   W72
        BYTE           N24     Gn3   v080
        BYTE           N24     Dn3
        BYTE   W24
// 026   ----------------------------------------
        BYTE           TIE     An3   v096
        BYTE           TIE     Dn3
        BYTE   W96
// 027   ----------------------------------------
        BYTE   W60
        BYTE           EOT
        BYTE   W12
        BYTE                   An3
        BYTE   W24
// 028   ----------------------------------------
        BYTE           N72     Gn3
        BYTE           N72     Dn3
        BYTE   W72
        BYTE           N12     As2
        BYTE           N12     Fn3
        BYTE   W12
        BYTE                   En3   v080
        BYTE   W12
// 029   ----------------------------------------
        BYTE           N72     Fn3   v096
        BYTE           N72     As2
        BYTE   W72
        BYTE           N24     Fn3   v080
        BYTE           N24     As2
        BYTE   W24
// 030   ----------------------------------------
        BYTE           N96     Fn3   v088
        BYTE           N96     Gn2
        BYTE   W96
// 031   ----------------------------------------
        BYTE           N36     En3
        BYTE           N36     An2
        BYTE   W36
        BYTE           N12
        BYTE   W12
        BYTE           N24
        BYTE           N24     Cn3
        BYTE   W24
        BYTE                   An2
        BYTE   W24
// 032   ----------------------------------------
        BYTE           N72     Dn3   v080
        BYTE           N72     Dn2   v104
        BYTE   W72
        BYTE           N12     An2   v088
        BYTE           N12     Dn3
        BYTE   W12
        BYTE                   An2   v072
        BYTE           N12     Dn3
        BYTE   W12
// 033   ----------------------------------------
        BYTE           N24     Dn3   v096
        BYTE           N24     An2
        BYTE   W24
        BYTE           N12     Dn3   v064
        BYTE           N12     An2   v088
        BYTE   W12
        BYTE                   En3   v080
        BYTE           N12     As2
        BYTE   W12
        BYTE           N24     Fn3   v064
        BYTE           N24     Cn3   v080
        BYTE   W24
        BYTE                   An3
        BYTE           N24     Fn3
        BYTE   W24
// 034   ----------------------------------------
        BYTE           N72     Gn3
        BYTE           N72     As2
        BYTE   W72
        BYTE           N12     Ds3   v096
        BYTE           N12     As2
        BYTE   W12
        BYTE                   Ds3   v064
        BYTE           N12     As2
        BYTE   W12
// 035   ----------------------------------------
        BYTE           N36     Ds3   v096
        BYTE           N36     As2
        BYTE   W36
        BYTE                   Ds3   v088
        BYTE           N36     An2
        BYTE   W36
        BYTE           N24     Ds3   v080
        BYTE           N24     Gn2
        BYTE   W24
// 036   ----------------------------------------
        BYTE           N72     Dn3   v064
        BYTE           N72     Dn2
        BYTE   W72
        BYTE           N12     Dn3   v096
        BYTE           N12     An2
        BYTE   W12
        BYTE                   Dn3   v080
        BYTE           N12     An2
        BYTE   W12
// 037   ----------------------------------------
        BYTE           N24     Dn3   v104
        BYTE           N24     An2
        BYTE   W24
        BYTE           N12     Dn3   v064
        BYTE           N12     An2   v088
        BYTE   W12
        BYTE                   En3
        BYTE           N12     As2
        BYTE   W12
        BYTE           N24     Fn3   v072
        BYTE           N24     Cn3
        BYTE   W24
        BYTE                   An3   v080
        BYTE           N24     Fn3
        BYTE   W24
// 038   ----------------------------------------
        BYTE           N36     Cn3   v096
        BYTE           N36     Ds2
        BYTE   W36
        BYTE                   Gn3   v080
        BYTE   W36
        BYTE           N24     Fn3   v088
        BYTE   W24
// 039   ----------------------------------------
        BYTE           N36     Ds3   v096
        BYTE   W36
        BYTE                   Dn3   v080
        BYTE   W36
        BYTE           N24     Cn3   v088
        BYTE   W24
// 040   ----------------------------------------
        BYTE           N72     As2   v048
        BYTE           N72     Fn3
        BYTE   W72
        BYTE           N12     As3   v104
        BYTE           N12     Fn3
        BYTE   W12
        BYTE                   As3   v096
        BYTE           N12     Fn3
        BYTE   W12
// 041   ----------------------------------------
        BYTE           N48     As3   v088
        BYTE           N48     Ds3
        BYTE   W48
        BYTE                   An3   v064
        BYTE           N48     Dn3
        BYTE   W48
// 042   ----------------------------------------
        BYTE           N72     Gn3
        BYTE           N72     Gn2
        BYTE   W72
        BYTE           N12     An2   v096
        BYTE   W12
        BYTE                   An2   v080
        BYTE   W12
// 043   ----------------------------------------
        BYTE           N48     As2
        BYTE   W48
        BYTE                   Dn3   v072
        BYTE           N48     As2
        BYTE   W48
// 044   ----------------------------------------
        BYTE           N36     Dn3   v104
        BYTE   W36
        BYTE                   An2   v088
        BYTE   W36
        BYTE           N24     Gn2   v096
        BYTE   W24
// 045   ----------------------------------------
        BYTE           N36     Dn2   v104
        BYTE   W36
        BYTE                   Gn2   v088
        BYTE   W36
        BYTE           N24     An2   v096
        BYTE   W24
// 046   ----------------------------------------
        BYTE           N36     Dn3   v104
        BYTE   W36
        BYTE                   Dn3   v080
        BYTE   W36
        BYTE           N24     Dn3   v088
        BYTE   W24
// 047   ----------------------------------------
        BYTE           N48     Dn3   v072
        BYTE   W48
        BYTE           N12     Fs2   v088
        BYTE           N12     An2
        BYTE   W12
        BYTE                   Gn2   v080
        BYTE           N12     As2
        BYTE   W12
        BYTE                   An2   v104
        BYTE           N12     Cn3
        BYTE   W12
        BYTE                   An2   v096
        BYTE           N12     Dn3
        BYTE   W12
// 048   ----------------------------------------
        BYTE           N36     Gn3   v048
        BYTE   W36
        BYTE                   Fn3
        BYTE   W36
        BYTE           N24     Dn3   v064
        BYTE   W24
// 049   ----------------------------------------
        BYTE           N36     Ds3   v048
        BYTE   W36
        BYTE                   Dn3   v056
        BYTE   W36
        BYTE           N24     As2
        BYTE   W24
// 050   ----------------------------------------
        BYTE           N36     Cn3
        BYTE   W36
        BYTE                   As2
        BYTE   W36
        BYTE           N24     An2   v064
        BYTE   W24
// 051   ----------------------------------------
        BYTE           N36     Gn2
        BYTE   W36
        BYTE           N12
        BYTE   W12
        BYTE                   As2
        BYTE   W12
        BYTE                   Cn3
        BYTE   W12
        BYTE                   Dn3
        BYTE   W12
        BYTE                   Fn3
        BYTE   W12
// 052   ----------------------------------------
        BYTE           N36     An3
        BYTE   W36
        BYTE                   Gn3
        BYTE   W36
        BYTE           N24     Dn3
        BYTE   W24
// 053   ----------------------------------------
        BYTE           N36     Fn3
        BYTE   W36
        BYTE                   Ds3
        BYTE   W36
        BYTE           N24     Cn3
        BYTE   W24
// 054   ----------------------------------------
        BYTE           N48     Gn2
        BYTE   W48
        BYTE                   Gn3
        BYTE   W48
// 055   ----------------------------------------
        BYTE                   An3
        BYTE   W48
        BYTE           N24     Ds3   v072
        BYTE   W24
        BYTE                   Dn3
        BYTE   W24
// 056   ----------------------------------------
        BYTE           N48     Gn2   v088
        BYTE           N48     Gn1
        BYTE   W48
        BYTE                   Dn2   v096
        BYTE           N48     Dn3
        BYTE   W48
// 057   ----------------------------------------
        BYTE                   Dn3
        BYTE           N48     Dn2
        BYTE   W48
        BYTE           N24     Cn3
        BYTE           N24     Cn2
        BYTE   W24
        BYTE                   As2
        BYTE           N24     As1
        BYTE   W24
// 058   ----------------------------------------
        BYTE           N36     As2
        BYTE           N36     As1
        BYTE   W36
        BYTE           N12     An2
        BYTE           N12     An1
        BYTE   W12
        BYTE           N24     An2
        BYTE           N24     An1
        BYTE   W24
        BYTE                   Ds2
        BYTE           N24     Ds3
        BYTE   W24
// 059   ----------------------------------------
        BYTE           N36
        BYTE           N36     Ds2
        BYTE   W36
        BYTE           N12     Fn3
        BYTE           N12     Fn2
        BYTE   W12
        BYTE           N48     Dn3
        BYTE           N48     Dn2
        BYTE   W48
// 060   ----------------------------------------
        BYTE                   An2
        BYTE           N48     An1
        BYTE   W60
        BYTE           N12
        BYTE           N12     An2
        BYTE   W12
        BYTE                   Cn2
        BYTE           N12     Cn3
        BYTE   W12
        BYTE                   En2
        BYTE           N12     En3
        BYTE   W12
// 061   ----------------------------------------
        BYTE           N48     Gn3
        BYTE           N48     Gn2
        BYTE   W48
        BYTE           N24     Fn3
        BYTE           N24     Fn2
        BYTE   W24
        BYTE                   En3
        BYTE           N24     En2
        BYTE   W24
// 062   ----------------------------------------
        BYTE           N36     En3
        BYTE           N36     En2
        BYTE   W36
        BYTE           N12     Dn2
        BYTE           N12     Dn3
        BYTE   W12
        BYTE           TIE
        BYTE           TIE     Dn2
        BYTE   W48
// 063   ----------------------------------------
        BYTE   W96
// 064   ----------------------------------------
        BYTE           EOT
        BYTE           EOT     Dn3
        BYTE           N96     Cn2   v112
        BYTE           N96     Gn2
        BYTE   W96
// 065   ----------------------------------------
        BYTE   W44
        BYTE   W03
        BYTE           VOICE   19
        BYTE   W01
        BYTE           N12     Cn2   v088
        BYTE           N12     Cn3
        BYTE   W12
        BYTE                   As1   v072
        BYTE           N12     As2
        BYTE   W12
        BYTE                   An1   v088
        BYTE           N12     An2
        BYTE   W12
        BYTE                   Gn1   v072
        BYTE           N12     Gn2
        BYTE   W12
// 066   ----------------------------------------
SacrificeAndTheSaint_3_66:
        BYTE           N36     An2   v080
        BYTE           N36     Dn2
        BYTE   W36
        BYTE                   An2   v064
        BYTE           N36     Dn2
        BYTE   W36
        BYTE           N24     An2   v072
        BYTE           N24     Dn2
        BYTE   W24
        BYTE   PEND
// 067   ----------------------------------------
        BYTE   PATT
         POIN2  SacrificeAndTheSaint_3_66
// 068   ----------------------------------------
        BYTE           N36     An2   v080
        BYTE           N36     Dn2
        BYTE   W36
        BYTE                   An2   v064
        BYTE           N36     Dn2
        BYTE   W36
        BYTE           N24     Dn2   v072
        BYTE           N24     An2
        BYTE   W24
// 069   ----------------------------------------
        BYTE           N36     An2   v080
        BYTE           N36     Dn2
        BYTE   W36
        BYTE                   An2   v064
        BYTE           N36     Dn2
        BYTE   W36
        BYTE           N24     Cn2   v072
        BYTE           N24     An2
        BYTE   W24
// 070   ----------------------------------------
SacrificeAndTheSaint_3_70:
        BYTE           N36     An2   v080
        BYTE           N36     As1
        BYTE           N36     Fn2
        BYTE   W36
        BYTE                   An2   v064
        BYTE           N36     As1
        BYTE           N36     Fn2
        BYTE   W36
        BYTE           N24     An2   v072
        BYTE           N24     As1
        BYTE           N24     Fn2
        BYTE   W24
        BYTE   PEND
// 071   ----------------------------------------
        BYTE   PATT
         POIN2  SacrificeAndTheSaint_3_70
// 072   ----------------------------------------
        BYTE   PATT
         POIN2  SacrificeAndTheSaint_3_70
// 073   ----------------------------------------
        BYTE   PATT
         POIN2  SacrificeAndTheSaint_3_70
// 074   ----------------------------------------
        BYTE           N36     Gs2   v080
        BYTE           N36     Ds2
        BYTE           N36     Gs1
        BYTE   W36
        BYTE                   Gs2   v064
        BYTE           N36     Ds2
        BYTE           N36     Gs1
        BYTE   W36
        BYTE           N24     Gs2   v072
        BYTE           N24     Ds2
        BYTE           N24     Gs1
        BYTE   W24
// 075   ----------------------------------------
        BYTE           N36     Gs2   v080
        BYTE           N36     Ds2
        BYTE           N36     Cn3
        BYTE   W36
        BYTE                   Gs2   v064
        BYTE           N36     Ds2
        BYTE           N36     Cn3
        BYTE   W36
        BYTE           N24     Gs2   v072
        BYTE           N24     Ds2
        BYTE           N24     Cn3
        BYTE   W24
// 076   ----------------------------------------
        BYTE           N36     Fs2   v080
        BYTE           N36     Cs2
        BYTE           N36     Fs1
        BYTE   W36
        BYTE                   Fs2   v064
        BYTE           N36     Cs2
        BYTE           N36     Fs1
        BYTE   W36
        BYTE           N24     Fs1   v072
        BYTE           N24     Cs2
        BYTE           N24     Fs2
        BYTE   W24
// 077   ----------------------------------------
        BYTE           N36     Fs2   v080
        BYTE           N36     Cs2
        BYTE           N36     As2
        BYTE   W36
        BYTE                   Fs2   v064
        BYTE           N36     Cs2
        BYTE           N36     As2
        BYTE   W36
        BYTE           N24     Cs2   v072
        BYTE           N24     Fs2
        BYTE           N24     As2
        BYTE   W24
// 078   ----------------------------------------
        BYTE           N36     Bn2   v080
        BYTE           N36     Fs2
        BYTE           N36     Bn1
        BYTE   W36
        BYTE                   Bn2   v064
        BYTE           N36     Fs2
        BYTE           N36     Bn1
        BYTE   W36
        BYTE           N24     Bn1   v072
        BYTE           N24     Fs2
        BYTE           N24     Bn2
        BYTE   W24
// 079   ----------------------------------------
        BYTE           N36     Bn2   v079
        BYTE           N36     Fs2
        BYTE           N36     Ds3
        BYTE   W36
        BYTE                   Bn2   v064
        BYTE           N36     Fs2
        BYTE           N36     Ds3
        BYTE   W36
        BYTE           N24     Fs2   v072
        BYTE           N24     Bn2
        BYTE           N24     Ds3
        BYTE   W24
// 080   ----------------------------------------
        BYTE           N36     Gs2   v080
        BYTE           N36     Ds2
        BYTE           N36     Cs3
        BYTE   W36
        BYTE                   Gs2   v064
        BYTE           N36     Ds2
        BYTE           N36     Cs3
        BYTE   W36
        BYTE           N24     Gs2   v072
        BYTE           N24     Ds2
        BYTE           N24     Cs3
        BYTE   W24
// 081   ----------------------------------------
SacrificeAndTheSaint_3_81:
        BYTE           N36     Gs2   v080
        BYTE           N36     Ds2
        BYTE           N36     As1
        BYTE   W36
        BYTE                   Gs2   v064
        BYTE           N36     Ds2
        BYTE           N36     As1
        BYTE   W36
        BYTE           N24     Gs2   v072
        BYTE           N24     Ds2
        BYTE           N24     As1
        BYTE   W24
        BYTE   PEND
// 082   ----------------------------------------
        BYTE   PATT
         POIN2  SacrificeAndTheSaint_3_81
// 083   ----------------------------------------
        BYTE           N36     Ds2   v088
        BYTE           N36     As2
        BYTE           N36     As1
        BYTE   W36
        BYTE                   Ds2   v080
        BYTE           N36     As2
        BYTE           N36     As1
        BYTE   W36
        BYTE           N12     Ds2   v088
        BYTE           N12     As2
        BYTE           N12     As1
        BYTE   W12
        BYTE                   Ds2   v072
        BYTE           N12     As2
        BYTE           N12     As1
        BYTE   W11
        BYTE           VOICE   101
        BYTE   W01
// 084   ----------------------------------------
        BYTE           N36     Gs2   v096
        BYTE           N36     Gs1
        BYTE   W36
        BYTE                   Gs3   v072
        BYTE           N36     Ds3
        BYTE           N36     Gs2
        BYTE   W36
        BYTE                   Ds3   v080
        BYTE           N36     Gs3
        BYTE           N36     Gs2
        BYTE   W24
// 085   ----------------------------------------
SacrificeAndTheSaint_3_85:
        BYTE   W12
        BYTE           N36     Ds3   v088
        BYTE           N36     Gs3
        BYTE           N36     Gs2
        BYTE   W36
        BYTE           N24     Gs3   v096
        BYTE           N24     Ds3
        BYTE           N24     Gs2
        BYTE   W24
        BYTE                   Gs3   v072
        BYTE           N24     Ds3
        BYTE           N24     Gs2
        BYTE   W24
        BYTE   PEND
// 086   ----------------------------------------
SacrificeAndTheSaint_3_86:
        BYTE           N36     Fs2   v096
        BYTE           N36     Fs1
        BYTE   W36
        BYTE                   Fs2   v072
        BYTE           N36     Fs3
        BYTE           N36     Cs3
        BYTE   W36
        BYTE                   Fs2   v080
        BYTE           N36     Fs3
        BYTE           N36     Cs3
        BYTE   W24
        BYTE   PEND
// 087   ----------------------------------------
SacrificeAndTheSaint_3_87:
        BYTE   W12
        BYTE           N36     Fs2   v088
        BYTE           N36     Fs3
        BYTE           N36     Cs3
        BYTE   W36
        BYTE           N24     Fs2   v096
        BYTE           N24     Fs3
        BYTE           N24     Cs3
        BYTE   W24
        BYTE                   Fs2   v072
        BYTE           N24     Fs3
        BYTE           N24     Cs3
        BYTE   W24
        BYTE   PEND
// 088   ----------------------------------------
SacrificeAndTheSaint_3_88:
        BYTE           N24     Cs2   v096
        BYTE           N24     Cs1
        BYTE   W24
        BYTE           N12     Gs2   v088
        BYTE           N12     Gs1
        BYTE   W12
        BYTE                   As2   v096
        BYTE           N12     As1
        BYTE   W12
        BYTE           N24     Bn2   v104
        BYTE           N24     Bn1
        BYTE   W24
        BYTE           N12     Gs2   v096
        BYTE           N12     Gs1
        BYTE   W12
        BYTE                   As2   v104
        BYTE           N12     As1
        BYTE   W12
        BYTE   PEND
// 089   ----------------------------------------
SacrificeAndTheSaint_3_89:
        BYTE           N48     Bn2   v112
        BYTE           N48     Bn1
        BYTE   W48
        BYTE           N24     Cs3   v096
        BYTE           N24     Gs2
        BYTE           N24     Cs2
        BYTE   W24
        BYTE                   Cs3   v072
        BYTE           N24     Gs2
        BYTE           N24     Cs2
        BYTE   W24
        BYTE   PEND
// 090   ----------------------------------------
        BYTE           N36     Ds2   v096
        BYTE           N36     Ds3
        BYTE   W36
        BYTE           N12     Ds2
        BYTE           N12     Ds3
        BYTE   W12
        BYTE           N24     As2   v111
        BYTE           N24     As1
        BYTE   W24
        BYTE                   Bn2   v087
        BYTE           N24     Bn1
        BYTE   W24
// 091   ----------------------------------------
        BYTE           N48     Cs2   v099
        BYTE           N48     Cs3
        BYTE   W48
        BYTE           N24     Ds3   v111
        BYTE           N24     Ds2
        BYTE   W24
        BYTE           N12     Ds3   v080
        BYTE           N12     Ds2
        BYTE   W12
        BYTE                   Ds3   v072
        BYTE           N12     Ds2
        BYTE   W12
// 092   ----------------------------------------
        BYTE           N36     Gs2   v096
        BYTE           N36     Gs1
        BYTE   W36
        BYTE                   Ds3   v072
        BYTE           N36     Gs3
        BYTE           N36     Gs2
        BYTE   W36
        BYTE                   Ds3   v080
        BYTE           N36     Gs3
        BYTE           N36     Gs2
        BYTE   W24
// 093   ----------------------------------------
        BYTE   PATT
         POIN2  SacrificeAndTheSaint_3_85
// 094   ----------------------------------------
        BYTE   PATT
         POIN2  SacrificeAndTheSaint_3_86
// 095   ----------------------------------------
        BYTE   PATT
         POIN2  SacrificeAndTheSaint_3_87
// 096   ----------------------------------------
        BYTE   PATT
         POIN2  SacrificeAndTheSaint_3_88
// 097   ----------------------------------------
        BYTE   PATT
         POIN2  SacrificeAndTheSaint_3_89
// 098   ----------------------------------------
        BYTE           N36     Ds3   v096
        BYTE           N36     Ds2
        BYTE   W36
        BYTE                   Cs3   v104
        BYTE           N36     Cs2
        BYTE   W36
        BYTE           N24     Bn1
        BYTE           N24     Bn2
        BYTE   W24
// 099   ----------------------------------------
        BYTE           N36     As2
        BYTE           N36     As1
        BYTE   W36
        BYTE                   Fs2
        BYTE           N36     Fs1
        BYTE   W36
        BYTE           N24     Cs2
        BYTE           N24     Fs1
        BYTE   W23
        BYTE           VOICE   109
        BYTE   W01
// 100   ----------------------------------------
        BYTE           N48     Gs2   v096
        BYTE           N48     Gs1   v104
        BYTE           N96     Ds2
        BYTE   W48
        BYTE           N48     Ds3   v096
        BYTE   W48
// 101   ----------------------------------------
        BYTE                   Ds3
        BYTE   W48
        BYTE           N24     Cs3
        BYTE   W24
        BYTE                   Bn2
        BYTE   W24
// 102   ----------------------------------------
        BYTE           N36
        BYTE   W36
        BYTE           N12     As2
        BYTE   W12
        BYTE           N24
        BYTE   W24
        BYTE                   En3
        BYTE   W24
// 103   ----------------------------------------
        BYTE           N36
        BYTE   W36
        BYTE           N12     Fs3
        BYTE   W12
        BYTE           N48     Ds3
        BYTE   W48
// 104   ----------------------------------------
        BYTE                   Gs3   v072
        BYTE   W60
        BYTE           N12
        BYTE   W12
        BYTE                   Bn3
        BYTE   W12
        BYTE                   Ds4
        BYTE   W12
// 105   ----------------------------------------
        BYTE           N48     Fs4
        BYTE   W48
        BYTE           N24     En4
        BYTE   W24
        BYTE                   Ds4
        BYTE   W24
// 106   ----------------------------------------
        BYTE           N36
        BYTE   W36
        BYTE           N12     Cs4
        BYTE   W12
        BYTE           N24
        BYTE   W24
        BYTE                   Bn3
        BYTE   W24
// 107   ----------------------------------------
        BYTE           N48
        BYTE   W48
        BYTE                   Cs4
        BYTE   W48
// 108   ----------------------------------------
SacrificeAndTheSaint_3_108:
        BYTE           N36     En3   v080
        BYTE           N36     An2
        BYTE   W36
        BYTE                   En3   v056
        BYTE           N36     An2
        BYTE   W36
        BYTE           N24     En3   v064
        BYTE           N24     An2
        BYTE   W24
        BYTE   PEND
// 109   ----------------------------------------
        BYTE   PATT
         POIN2  SacrificeAndTheSaint_3_108
// 110   ----------------------------------------
        BYTE   PATT
         POIN2  SacrificeAndTheSaint_3_108
// 111   ----------------------------------------
        BYTE   PATT
         POIN2  SacrificeAndTheSaint_3_108
// 112   ----------------------------------------
SacrificeAndTheSaint_3_112:
        BYTE           N36     En3   v072
        BYTE           N36     An2
        BYTE   W36
        BYTE                   En3   v048
        BYTE           N36     An2
        BYTE   W36
        BYTE           N24     En3   v056
        BYTE           N24     An2
        BYTE   W24
        BYTE   PEND
// 113   ----------------------------------------
        BYTE   PATT
         POIN2  SacrificeAndTheSaint_3_112
// 114   ----------------------------------------
        BYTE           N96     As2   v064
        BYTE           N96     Fn3
        BYTE           N96     An3
        BYTE   W96
// 115   ----------------------------------------
        BYTE           N48     Cn4
        BYTE           N96     Gn2
        BYTE           N96     Dn3
        BYTE   W48
        BYTE           N48     Bn3
        BYTE   W48
// 116   ----------------------------------------
        BYTE           N96     An3
        BYTE           N96     Gn2
        BYTE           N96     Cn3
        BYTE   W96
// 117   ----------------------------------------
        BYTE                   An2   v056
        BYTE           N96     Dn3
        BYTE           N96     Gn3
        BYTE   W96
// 118   ----------------------------------------
        BYTE                   As2
        BYTE           N96     Fn3
        BYTE   W96
// 119   ----------------------------------------
        BYTE                   Dn3
        BYTE           N48     An2
        BYTE   W48
        BYTE                   Gn3
        BYTE   W48
// 120   ----------------------------------------
        BYTE   GoTo
         POIN2  SacrificeAndTheSaint_3_LOOP
        BYTE   FINE

//****************** Track 4 (Midi-Chn.4) ******************//

SacrificeAndTheSaint_4:
        BYTE   KEYSH   SacrificeAndTheSaint_key+0
// 000   ----------------------------------------
SacrificeAndTheSaint_4_LOOP:
        BYTE           VOICE   58
        BYTE           VOL     45
        BYTE   W96
// 001   ----------------------------------------
        BYTE   W96
// 002   ----------------------------------------
        BYTE   W96
// 003   ----------------------------------------
        BYTE   W96
        BYTE   W24
// 004   ----------------------------------------
        BYTE   W96
// 005   ----------------------------------------
        BYTE   W96
// 006   ----------------------------------------
        BYTE   W96
// 007   ----------------------------------------
        BYTE   W96
        BYTE   W24
// 008   ----------------------------------------
        BYTE           N11     An3   v072
        BYTE           N11     En3
        BYTE   W12
        BYTE           N12     An3   v064
        BYTE           N12     En3
        BYTE   W24
        BYTE           N11     An3   v072
        BYTE           N11     En3   v056
        BYTE   W12
        BYTE           N12     An3   v064
        BYTE           N12     En3
        BYTE   W24
        BYTE           N11
        BYTE   W12
        BYTE                   En3
        BYTE   W12
// 009   ----------------------------------------
        BYTE                   An3   v080
        BYTE           N11     En3
        BYTE   W12
        BYTE           N12     An3   v064
        BYTE           N12     En3
        BYTE   W24
        BYTE           N11     An3   v080
        BYTE           N11     En3
        BYTE   W12
        BYTE           N12     An3   v064
        BYTE           N12     En3
        BYTE   W24
        BYTE           N11     En3   v072
        BYTE   W12
        BYTE                   En3   v064
        BYTE   W12
// 010   ----------------------------------------
        BYTE                   An3   v088
        BYTE           N11     Dn3
        BYTE   W12
        BYTE           N12     An3   v064
        BYTE           N12     Dn3
        BYTE   W24
        BYTE           N11     An3   v072
        BYTE           N11     Dn3
        BYTE   W12
        BYTE           N12     An3   v064
        BYTE           N12     Dn3
        BYTE   W24
        BYTE           N11     Dn3   v080
        BYTE   W12
        BYTE                   Dn3   v064
        BYTE   W12
// 011   ----------------------------------------
        BYTE                   An3   v088
        BYTE           N11     Dn3
        BYTE   W12
        BYTE           N12     An3   v064
        BYTE           N12     Dn3
        BYTE   W24
        BYTE           N11     An3   v072
        BYTE           N11     Dn3
        BYTE   W12
        BYTE           N12     An3
        BYTE           N12     Dn3
        BYTE   W24
        BYTE           N11     Dn3   v080
        BYTE   W12
        BYTE                   Dn3   v064
        BYTE   W12
// 012   ----------------------------------------
        BYTE                   Gn3   v096
        BYTE           N11     Cn3
        BYTE   W12
        BYTE                   Gn3   v064
        BYTE           N11     Cn3
        BYTE   W24
        BYTE                   Gn3   v080
        BYTE           N11     Cn3
        BYTE   W12
        BYTE           N12     Gn3   v064
        BYTE           N12     Cn3
        BYTE   W24
        BYTE           N11     Cn3   v088
        BYTE   W12
        BYTE                   Cn3   v064
        BYTE   W12
// 013   ----------------------------------------
        BYTE                   Gn3   v096
        BYTE           N11     Cn3
        BYTE   W12
        BYTE           N12     Gn3   v064
        BYTE           N12     Cn3
        BYTE   W24
        BYTE           N11     Gn3
        BYTE           N11     Cn3
        BYTE   W12
        BYTE           N12     Gn3   v080
        BYTE           N12     Cn3
        BYTE   W24
        BYTE           N11     Cn3   v088
        BYTE   W12
        BYTE                   Cn3   v064
        BYTE   W12
// 014   ----------------------------------------
        BYTE           N18     Gn3   v096
        BYTE           N18     As2
        BYTE           N18     En3
        BYTE   W36
        BYTE           N12     Gn3   v072
        BYTE           N12     As2
        BYTE           N12     En3
        BYTE   W36
        BYTE                   Gn3   v080
        BYTE           N12     As2
        BYTE           N12     En3
        BYTE   W24
// 015   ----------------------------------------
        BYTE           N18     Gn3   v104
        BYTE           N18     En3
        BYTE           N18     An2
        BYTE   W36
        BYTE           N24     Gn3   v080
        BYTE           N24     En3
        BYTE           N24     An2
        BYTE   W36
        BYTE           N12     En3   v104
        BYTE           N12     An2   v096
        BYTE   W23
        BYTE           VOICE   73
        BYTE   W01
// 016   ----------------------------------------
        BYTE   W12
        BYTE           N12     En5   v084
        BYTE           N12     An4
        BYTE   W12
        BYTE                   En5   v068
        BYTE           N12     An4
        BYTE   W24
        BYTE                   Dn5   v084
        BYTE           N12     Gn4
        BYTE   W12
        BYTE                   Dn5   v068
        BYTE           N12     Gn4
        BYTE   W24
        BYTE                   En5   v084
        BYTE           N12     An4
        BYTE   W12
// 017   ----------------------------------------
SacrificeAndTheSaint_4_17:
        BYTE   W12
        BYTE           N12     Fn5   v084
        BYTE           N12     As4
        BYTE   W12
        BYTE                   Fn5   v068
        BYTE           N12     As4
        BYTE   W24
        BYTE                   En5   v084
        BYTE           N12     An4
        BYTE   W12
        BYTE                   En5   v068
        BYTE           N12     An4
        BYTE   W24
        BYTE                   Fn5   v084
        BYTE           N12     As4
        BYTE   W12
        BYTE   PEND
// 018   ----------------------------------------
SacrificeAndTheSaint_4_18:
        BYTE   W12
        BYTE           N12     An5   v084
        BYTE           N12     Dn5
        BYTE   W12
        BYTE                   An5   v068
        BYTE           N12     Dn5
        BYTE   W24
        BYTE                   Gn5   v084
        BYTE           N12     Cn5
        BYTE   W12
        BYTE                   Gn5   v068
        BYTE           N12     Cn5
        BYTE   W24
        BYTE                   An5   v084
        BYTE           N12     Dn5
        BYTE   W12
        BYTE   PEND
// 019   ----------------------------------------
SacrificeAndTheSaint_4_19:
        BYTE   W12
        BYTE           N12     As5   v084
        BYTE           N12     En5
        BYTE   W12
        BYTE                   As5   v068
        BYTE           N12     En5
        BYTE   W24
        BYTE                   An5   v084
        BYTE           N12     Cn5
        BYTE   W12
        BYTE                   An5   v068
        BYTE           N12     Cn5
        BYTE   W24
        BYTE                   As5   v084
        BYTE           N12     En5
        BYTE   W24
        BYTE                   Cn6
        BYTE           N12     En5
        BYTE   W12
        BYTE   PEND
// 020   ----------------------------------------
        BYTE   W12
        BYTE                   En5
        BYTE           N12     An4
        BYTE   W12
        BYTE                   An4   v068
        BYTE           N12     En5
        BYTE   W24
        BYTE                   Dn5   v084
        BYTE           N12     Gn4
        BYTE   W12
        BYTE                   Dn5   v068
        BYTE           N12     Gn4
        BYTE   W24
        BYTE                   En5   v084
        BYTE           N12     An4
        BYTE   W12
// 021   ----------------------------------------
        BYTE   PATT
         POIN2  SacrificeAndTheSaint_4_17
// 022   ----------------------------------------
        BYTE   PATT
         POIN2  SacrificeAndTheSaint_4_18
// 023   ----------------------------------------
        BYTE   PATT
         POIN2  SacrificeAndTheSaint_4_19
// 024   ----------------------------------------
SacrificeAndTheSaint_4_24:
        BYTE   W12
        BYTE           N12     Fn5   v096
        BYTE           N12     Dn6
        BYTE   W12
        BYTE                   Fn5   v080
        BYTE           N12     Dn6
        BYTE   W24
        BYTE                   En5   v096
        BYTE           N12     Cn6
        BYTE   W12
        BYTE                   En5   v080
        BYTE           N12     Cn6
        BYTE   W24
        BYTE                   Dn5   v096
        BYTE           N12     An5
        BYTE   W12
        BYTE   PEND
// 025   ----------------------------------------
SacrificeAndTheSaint_4_25:
        BYTE   W12
        BYTE           N12     As5   v096
        BYTE           N12     En5
        BYTE   W24
        BYTE                   Gn5   v088
        BYTE           N12     Cn5
        BYTE   W24
        BYTE                   An5   v096
        BYTE           N12     Dn5
        BYTE   W24
        BYTE                   Fn5   v088
        BYTE           N12     An4
        BYTE   W12
        BYTE   PEND
// 026   ----------------------------------------
SacrificeAndTheSaint_4_26:
        BYTE   W12
        BYTE           N12     En5   v096
        BYTE           N12     Gn4
        BYTE   W12
        BYTE                   En5   v080
        BYTE           N12     Gn4
        BYTE   W24
        BYTE                   Dn5   v096
        BYTE           N12     Fn4
        BYTE   W12
        BYTE                   Dn5   v080
        BYTE           N12     Fn4
        BYTE   W24
        BYTE                   Fn5   v096
        BYTE           N12     An4
        BYTE   W12
        BYTE   PEND
// 027   ----------------------------------------
SacrificeAndTheSaint_4_27:
        BYTE   W12
        BYTE           N12     Gn5   v096
        BYTE           N12     As4
        BYTE   W24
        BYTE                   An5   v088
        BYTE           N12     Cn5
        BYTE   W24
        BYTE                   As5   v096
        BYTE           N12     Dn5
        BYTE   W24
        BYTE                   Gn5   v088
        BYTE           N12     As4
        BYTE   W12
        BYTE   PEND
// 028   ----------------------------------------
        BYTE   PATT
         POIN2  SacrificeAndTheSaint_4_24
// 029   ----------------------------------------
        BYTE   PATT
         POIN2  SacrificeAndTheSaint_4_25
// 030   ----------------------------------------
        BYTE   PATT
         POIN2  SacrificeAndTheSaint_4_26
// 031   ----------------------------------------
        BYTE   PATT
         POIN2  SacrificeAndTheSaint_4_27
// 032   ----------------------------------------
        BYTE   W24
        BYTE           N12     Dn5   v096
        BYTE   W12
        BYTE                   En5
        BYTE   W12
        BYTE           N18     Fn5
        BYTE   W24
        BYTE           N12     Dn5
        BYTE   W12
        BYTE                   En5
        BYTE   W12
// 033   ----------------------------------------
        BYTE           N96     Fn5
        BYTE   W96
// 034   ----------------------------------------
        BYTE   W48
        BYTE           N24     Ds5
        BYTE   W24
        BYTE                   Fn5
        BYTE   W24
// 035   ----------------------------------------
        BYTE           N48     Gn5
        BYTE   W48
        BYTE                   An5
        BYTE   W48
// 036   ----------------------------------------
        BYTE   W24
        BYTE           N12     Dn5
        BYTE   W12
        BYTE                   En5
        BYTE   W12
        BYTE           N24     Fn5
        BYTE   W24
        BYTE           N12     Dn5
        BYTE   W12
        BYTE                   En5
        BYTE   W12
// 037   ----------------------------------------
        BYTE           N96     Fn5
        BYTE   W96
// 038   ----------------------------------------
        BYTE   W28
        BYTE           N24     Gn5
        BYTE   W24
        BYTE           N06     Fn5
        BYTE   W06
        BYTE                   Gn5
        BYTE   W06
        BYTE           N32     Fn5
        BYTE   W32
// 039   ----------------------------------------
        BYTE                   Ds5
        BYTE   W32
        BYTE                   Dn5
        BYTE   W32
        BYTE                   Cn5
        BYTE   W32
// 040   ----------------------------------------
        BYTE                   An4
        BYTE   W32
        BYTE                   Cn5
        BYTE   W32
        BYTE                   Dn5
        BYTE   W32
// 041   ----------------------------------------
        BYTE           N96     Fn5
        BYTE   W96
// 042   ----------------------------------------
        BYTE           N32     Gn4
        BYTE   W32
        BYTE                   Cn5
        BYTE   W32
        BYTE                   Dn5
        BYTE   W32
// 043   ----------------------------------------
        BYTE           N48     Fn5
        BYTE   W48
        BYTE                   Ds5
        BYTE   W48
// 044   ----------------------------------------
        BYTE           TIE     Dn5
        BYTE   W96
// 045   ----------------------------------------
        BYTE   W96
// 046   ----------------------------------------
        BYTE           EOT
        BYTE           N96     Dn5   v080
        BYTE   W96
// 047   ----------------------------------------
        BYTE                   Dn5   v064
        BYTE   W96
// 048   ----------------------------------------
SacrificeAndTheSaint_4_48:
        BYTE           N48     Gn4   v076
        BYTE   W48
        BYTE                   Dn5   v100
        BYTE   W48
        BYTE   PEND
// 049   ----------------------------------------
SacrificeAndTheSaint_4_49:
        BYTE           N48     Dn5   v100
        BYTE   W48
        BYTE           N24     Cn5
        BYTE   W24
        BYTE                   As4
        BYTE   W24
        BYTE   PEND
// 050   ----------------------------------------
SacrificeAndTheSaint_4_50:
        BYTE           N36     As4   v100
        BYTE   W36
        BYTE           N12     An4
        BYTE   W12
        BYTE           N24
        BYTE   W24
        BYTE                   Ds5
        BYTE   W24
        BYTE   PEND
// 051   ----------------------------------------
SacrificeAndTheSaint_4_51:
        BYTE           N36     Ds5   v100
        BYTE   W36
        BYTE           N12     Fn5
        BYTE   W12
        BYTE           N48     Dn5
        BYTE   W48
        BYTE   PEND
// 052   ----------------------------------------
SacrificeAndTheSaint_4_52:
        BYTE           N48     An4   v100
        BYTE   W60
        BYTE           N12
        BYTE   W12
        BYTE                   Cn5
        BYTE   W12
        BYTE                   En5
        BYTE   W12
        BYTE   PEND
// 053   ----------------------------------------
SacrificeAndTheSaint_4_53:
        BYTE           N48     Gn5   v100
        BYTE   W48
        BYTE           N24     Fn5
        BYTE   W24
        BYTE                   En5
        BYTE   W24
        BYTE   PEND
// 054   ----------------------------------------
        BYTE           N36
        BYTE   W36
        BYTE           N12     Dn5
        BYTE   W12
        BYTE           N24
        BYTE   W24
        BYTE                   Cn5
        BYTE   W24
// 055   ----------------------------------------
        BYTE           N48
        BYTE   W48
        BYTE           N24     As4
        BYTE   W24
        BYTE                   An4
        BYTE   W24
// 056   ----------------------------------------
        BYTE   PATT
         POIN2  SacrificeAndTheSaint_4_48
// 057   ----------------------------------------
        BYTE   PATT
         POIN2  SacrificeAndTheSaint_4_49
// 058   ----------------------------------------
        BYTE   PATT
         POIN2  SacrificeAndTheSaint_4_50
// 059   ----------------------------------------
        BYTE   PATT
         POIN2  SacrificeAndTheSaint_4_51
// 060   ----------------------------------------
        BYTE   PATT
         POIN2  SacrificeAndTheSaint_4_52
// 061   ----------------------------------------
        BYTE   PATT
         POIN2  SacrificeAndTheSaint_4_53
// 062   ----------------------------------------
        BYTE           N36     En5   v100
        BYTE   W36
        BYTE           N12     Dn5
        BYTE   W12
        BYTE           TIE
        BYTE   W48
// 063   ----------------------------------------
        BYTE   W96
// 064   ----------------------------------------
        BYTE           EOT
        BYTE           N36     Cn5   v112
        BYTE           N36     An5
        BYTE   W36
        BYTE           N12     Cn5
        BYTE           N12     Gn5
        BYTE   W12
        BYTE           N48     Cn5
        BYTE           N48     Gn5
        BYTE   W48
// 065   ----------------------------------------
        BYTE   W12
        BYTE           N12     Fn5   v096
        BYTE   W12
        BYTE                   En5
        BYTE   W12
        BYTE                   Dn5
        BYTE   W12
        BYTE                   Cn5
        BYTE   W12
        BYTE                   As4
        BYTE   W12
        BYTE                   An4
        BYTE   W12
        BYTE                   Gn4
        BYTE   W12
// 066   ----------------------------------------
SacrificeAndTheSaint_4_66:
        BYTE           N24     An4   v096
        BYTE   W24
        BYTE                   Dn5
        BYTE   W24
        BYTE                   An4
        BYTE   W24
        BYTE                   Fn4
        BYTE   W24
        BYTE   PEND
// 067   ----------------------------------------
SacrificeAndTheSaint_4_67:
        BYTE           N48     Gn4   v096
        BYTE   W48
        BYTE                   As4
        BYTE   W48
        BYTE   PEND
// 068   ----------------------------------------
        BYTE                   An4
        BYTE   W48
        BYTE                   Dn4
        BYTE   W48
// 069   ----------------------------------------
        BYTE           N96     En4
        BYTE   W96
// 070   ----------------------------------------
        BYTE   PATT
         POIN2  SacrificeAndTheSaint_4_66
// 071   ----------------------------------------
        BYTE   PATT
         POIN2  SacrificeAndTheSaint_4_67
// 072   ----------------------------------------
        BYTE           N48     An4   v096
        BYTE   W48
        BYTE           TIE     Dn5
        BYTE   W48
// 073   ----------------------------------------
        BYTE   W96
// 074   ----------------------------------------
        BYTE           EOT
        BYTE           N24     Gs4
        BYTE   W24
        BYTE                   Cn5
        BYTE   W24
        BYTE                   Gs4
        BYTE   W24
        BYTE                   Ds4
        BYTE   W24
// 075   ----------------------------------------
        BYTE           N48     Fn4
        BYTE   W48
        BYTE                   Cn5
        BYTE   W48
// 076   ----------------------------------------
        BYTE           N96     As4
        BYTE   W96
// 077   ----------------------------------------
        BYTE                   Fn5
        BYTE   W96
// 078   ----------------------------------------
        BYTE           N24
        BYTE   W24
        BYTE                   Fs5
        BYTE   W24
        BYTE           TIE     Ds5   v088
        BYTE   W48
// 079   ----------------------------------------
        BYTE   W96
// 080   ----------------------------------------
        BYTE   W96
// 081   ----------------------------------------
        BYTE           EOT
        BYTE           TIE     Gs5
        BYTE           TIE     Cs5
        BYTE   W96
// 082   ----------------------------------------
        BYTE   W96
// 083   ----------------------------------------
        BYTE           EOT
        BYTE           EOT     Gs5
        BYTE           N96     As5   v096
        BYTE           N96     Ds5
        BYTE   W96
// 084   ----------------------------------------
SacrificeAndTheSaint_4_84:
        BYTE   W24
        BYTE           N24     Ds5   v096
        BYTE   W24
        BYTE                   En5
        BYTE   W24
        BYTE                   Cs5
        BYTE   W24
        BYTE   PEND
// 085   ----------------------------------------
SacrificeAndTheSaint_4_85:
        BYTE           N24     Ds5   v096
        BYTE   W24
        BYTE                   Bn4
        BYTE   W24
        BYTE                   Cs5
        BYTE   W24
        BYTE                   As4
        BYTE   W24
        BYTE   PEND
// 086   ----------------------------------------
        BYTE           N48     Bn4
        BYTE   W48
        BYTE                   An5
        BYTE   W48
// 087   ----------------------------------------
SacrificeAndTheSaint_4_87:
        BYTE           N48     Fs5   v096
        BYTE   W48
        BYTE                   Cs5
        BYTE   W48
        BYTE   PEND
// 088   ----------------------------------------
SacrificeAndTheSaint_4_88:
        BYTE           N72     As4   v096
        BYTE   W72
        BYTE           N24     Bn4
        BYTE   W24
        BYTE   PEND
// 089   ----------------------------------------
        BYTE           TIE     Gs4
        BYTE   W96
// 090   ----------------------------------------
        BYTE   W48
        BYTE           EOT
        BYTE           N24     As4
        BYTE           N24     Cs4
        BYTE   W24
        BYTE                   Bn4
        BYTE           N24     Ds4
        BYTE   W24
// 091   ----------------------------------------
        BYTE           N48     En4
        BYTE           N48     Cs5
        BYTE   W48
        BYTE                   Fs4
        BYTE           N48     Ds5
        BYTE   W48
// 092   ----------------------------------------
        BYTE   PATT
         POIN2  SacrificeAndTheSaint_4_84
// 093   ----------------------------------------
        BYTE   PATT
         POIN2  SacrificeAndTheSaint_4_85
// 094   ----------------------------------------
        BYTE           N48     Bn4   v096
        BYTE   W48
        BYTE                   Gs5
        BYTE   W48
// 095   ----------------------------------------
        BYTE   PATT
         POIN2  SacrificeAndTheSaint_4_87
// 096   ----------------------------------------
        BYTE   PATT
         POIN2  SacrificeAndTheSaint_4_88
// 097   ----------------------------------------
        BYTE           N96     Gs4   v096
        BYTE   W96
// 098   ----------------------------------------
        BYTE   W36
        BYTE           N36     En4
        BYTE           N36     Cs5
        BYTE   W36
        BYTE           N24     Ds4
        BYTE           N24     Bn4
        BYTE   W24
// 099   ----------------------------------------
        BYTE           N36     As4
        BYTE           N36     Cs4
        BYTE   W36
        BYTE                   Fs4
        BYTE           N36     As3
        BYTE   W36
        BYTE           N24     Cs4
        BYTE           N24     As3
        BYTE   W24
// 100   ----------------------------------------
        BYTE           N96     Ds4   v064
        BYTE   W96
// 101   ----------------------------------------
        BYTE   W96
// 102   ----------------------------------------
        BYTE   W96
// 103   ----------------------------------------
        BYTE   W96
// 104   ----------------------------------------
        BYTE           N48     Gs4   v072
        BYTE   W60
        BYTE           N12
        BYTE   W12
        BYTE                   As4
        BYTE   W12
        BYTE                   Ds5
        BYTE   W12
// 105   ----------------------------------------
        BYTE           N48     Fs5
        BYTE   W48
        BYTE           N24     En5
        BYTE   W24
        BYTE                   Ds5
        BYTE   W24
// 106   ----------------------------------------
        BYTE           N36
        BYTE   W36
        BYTE           N12     Cs5
        BYTE   W12
        BYTE           N24
        BYTE   W24
        BYTE                   Bn4
        BYTE   W24
// 107   ----------------------------------------
        BYTE           N48
        BYTE   W48
        BYTE                   Cs5
        BYTE   W48
// 108   ----------------------------------------
        BYTE                   Dn5   v080
        BYTE           N48     An4
        BYTE   W60
        BYTE           N12     Dn4   v104
        BYTE   W12
        BYTE           N08
        BYTE   W08
        BYTE                   Fn4
        BYTE   W08
        BYTE                   An4
        BYTE   W08
// 109   ----------------------------------------
        BYTE           N36     Cn5
        BYTE   W36
        BYTE                   As4
        BYTE   W36
        BYTE           N24     An4
        BYTE   W24
// 110   ----------------------------------------
        BYTE           N36
        BYTE   W36
        BYTE           N12     Gn4
        BYTE   W12
        BYTE           N24
        BYTE   W24
        BYTE                   Dn5
        BYTE   W24
// 111   ----------------------------------------
        BYTE           N36
        BYTE   W36
        BYTE           N12     En5
        BYTE   W12
        BYTE           N48     Cn5
        BYTE   W48
// 112   ----------------------------------------
        BYTE                   An4
        BYTE   W60
        BYTE           N12
        BYTE   W12
        BYTE                   Cn5
        BYTE   W12
        BYTE                   En5
        BYTE   W12
// 113   ----------------------------------------
        BYTE           N48     Gn5
        BYTE   W48
        BYTE           N24     Fn5
        BYTE   W24
        BYTE                   En5
        BYTE   W24
// 114   ----------------------------------------
        BYTE           N36     En5   v096
        BYTE   W36
        BYTE           N12     Dn5
        BYTE   W12
        BYTE           N24
        BYTE   W24
        BYTE                   Cn5
        BYTE   W24
// 115   ----------------------------------------
        BYTE           N48
        BYTE   W48
        BYTE                   Bn4
        BYTE   W48
// 116   ----------------------------------------
        BYTE           N36     Bn4   v088
        BYTE   W36
        BYTE           N12     Cn5
        BYTE   W12
        BYTE           TIE     An4
        BYTE   W48
// 117   ----------------------------------------
        BYTE   W96
// 118   ----------------------------------------
        BYTE           EOT
        BYTE           N96     An4   v072
        BYTE   W96
// 119   ----------------------------------------
        BYTE           N48     An4   v056
        BYTE   W96
// 120   ----------------------------------------
        BYTE           VOICE   58
        BYTE   GoTo
         POIN2  SacrificeAndTheSaint_4_LOOP
        BYTE   FINE

//****************** Track 5 (Midi-Chn.5) ******************//

SacrificeAndTheSaint_5:
        BYTE   KEYSH   SacrificeAndTheSaint_key+0
// 000   ----------------------------------------
SacrificeAndTheSaint_5_LOOP:
        BYTE           VOICE   6
        BYTE           VOL     41
        BYTE           PAN     c_v+31
        BYTE   W96
// 001   ----------------------------------------
        BYTE   W96
// 002   ----------------------------------------
        BYTE   W96
// 003   ----------------------------------------
        BYTE   W96
        BYTE   W24
// 004   ----------------------------------------
        BYTE   W96
// 005   ----------------------------------------
        BYTE   W96
// 006   ----------------------------------------
        BYTE   W96
// 007   ----------------------------------------
        BYTE   W96
        BYTE   W24
// 008   ----------------------------------------
        BYTE   W96
// 009   ----------------------------------------
        BYTE   W96
// 010   ----------------------------------------
        BYTE   W96
// 011   ----------------------------------------
        BYTE   W96
// 012   ----------------------------------------
        BYTE   W84
        BYTE           N12     Dn3   v048
        BYTE           N12     An3
        BYTE   W12
// 013   ----------------------------------------
        BYTE   W12
        BYTE                   En3   v052
        BYTE           N12     As3
        BYTE   W24
        BYTE                   Cn3   v056
        BYTE           N12     Gn3
        BYTE   W24
        BYTE                   Dn3   v060
        BYTE           N12     An3
        BYTE   W24
        BYTE                   Fn3   v072
        BYTE   W12
// 014   ----------------------------------------
        BYTE                   Gn3   v080
        BYTE   W12
        BYTE                   En3
        BYTE   W12
        BYTE                   Fn3
        BYTE   W12
        BYTE                   Cn3
        BYTE   W12
        BYTE                   Dn3
        BYTE   W12
        BYTE                   An2
        BYTE   W12
        BYTE                   Cn3
        BYTE   W12
        BYTE                   Gn2
        BYTE   W12
// 015   ----------------------------------------
        BYTE                   An2   v092
        BYTE   W12
        BYTE                   As2   v080
        BYTE   W12
        BYTE                   An2   v084
        BYTE   W12
        BYTE                   Gn2   v072
        BYTE   W12
        BYTE                   An2   v088
        BYTE   W12
        BYTE                   Dn3   v104
        BYTE   W12
        BYTE                   Gn3
        BYTE   W12
        BYTE                   En3
        BYTE   W12
// 016   ----------------------------------------
        BYTE           N48     Dn3
        BYTE   W72
        BYTE           N24     Gn3
        BYTE   W24
// 017   ----------------------------------------
        BYTE           N48
        BYTE   W96
// 018   ----------------------------------------
SacrificeAndTheSaint_5_18:
        BYTE           N48     Dn3   v104
        BYTE   W72
        BYTE           N24
        BYTE   W24
        BYTE   PEND
// 019   ----------------------------------------
        BYTE           N48     En3
        BYTE   W48
        BYTE           N24     An2   v080
        BYTE   W36
        BYTE           N12     An2   v104
        BYTE   W12
        BYTE                   Dn3
        BYTE   W12
        BYTE                   Cn4
        BYTE   W12
// 020   ----------------------------------------
SacrificeAndTheSaint_5_20:
        BYTE           N48     An3   v104
        BYTE   W72
        BYTE           N24     Gn3
        BYTE   W24
        BYTE   PEND
// 021   ----------------------------------------
        BYTE           N48
        BYTE   W96
// 022   ----------------------------------------
        BYTE   PATT
         POIN2  SacrificeAndTheSaint_5_18
// 023   ----------------------------------------
        BYTE           N48     En3   v104
        BYTE   W48
        BYTE           N24     An2   v080
        BYTE   W24
        BYTE           N12     An2   v104
        BYTE   W12
        BYTE                   En3
        BYTE   W12
        BYTE                   Cn3
        BYTE   W12
        BYTE                   As3
        BYTE   W12
// 024   ----------------------------------------
        BYTE   PATT
         POIN2  SacrificeAndTheSaint_5_20
// 025   ----------------------------------------
        BYTE           N48     Gn3   v104
        BYTE   W72
        BYTE           N24
        BYTE   W24
// 026   ----------------------------------------
        BYTE   PATT
         POIN2  SacrificeAndTheSaint_5_20
// 027   ----------------------------------------
        BYTE           N48     Gn3   v104
        BYTE   W48
        BYTE           N24     Dn3
        BYTE   W24
        BYTE           N12     Fn3
        BYTE   W12
        BYTE                   Dn3
        BYTE   W12
// 028   ----------------------------------------
        BYTE                   Gn3
        BYTE   W12
        BYTE                   En3
        BYTE   W12
        BYTE                   Fn3
        BYTE   W12
        BYTE                   Cn3
        BYTE   W12
        BYTE                   Dn3
        BYTE   W12
        BYTE                   An2
        BYTE   W12
        BYTE                   Cn3
        BYTE   W12
        BYTE                   Gn2
        BYTE   W12
// 029   ----------------------------------------
        BYTE                   As2
        BYTE   W12
        BYTE                   Cn3
        BYTE   W12
        BYTE                   An2
        BYTE   W12
        BYTE                   Gn2
        BYTE   W12
        BYTE           N48     An2
        BYTE   W48
// 030   ----------------------------------------
        BYTE   W96
// 031   ----------------------------------------
        BYTE   W36
        BYTE           N12     An2   v076
        BYTE   W12
        BYTE           N24     Cn3
        BYTE   W24
        BYTE           N12     An2
        BYTE   W12
        BYTE                   An2
        BYTE   W12
// 032   ----------------------------------------
        BYTE           N48     Dn3   v080
        BYTE   W72
        BYTE           N12
        BYTE   W12
        BYTE                   Dn3   v064
        BYTE   W12
// 033   ----------------------------------------
        BYTE                   Dn3   v088
        BYTE   W24
        BYTE                   Dn3
        BYTE   W12
        BYTE                   En3   v064
        BYTE   W12
        BYTE                   Fn3   v096
        BYTE   W24
        BYTE                   An3
        BYTE   W24
// 034   ----------------------------------------
        BYTE           N06     Ds3   v080
        BYTE           N18     Gn3   v104
        BYTE   W06
        BYTE           N06     As2   v080
        BYTE   W06
        BYTE                   Gn2
        BYTE   W06
        BYTE                   Ds3
        BYTE   W06
        BYTE                   As2
        BYTE   W06
        BYTE                   Gn2
        BYTE   W06
        BYTE                   Ds3
        BYTE   W06
        BYTE                   As2
        BYTE   W06
        BYTE                   Gn2
        BYTE   W06
        BYTE                   Ds3
        BYTE   W06
        BYTE                   As2
        BYTE   W06
        BYTE                   Gn2
        BYTE   W06
        BYTE           N12     Ds3   v104
        BYTE   W12
        BYTE                   Ds3   v088
        BYTE   W12
// 035   ----------------------------------------
        BYTE                   Ds3   v104
        BYTE   W36
        BYTE                   Ds3   v088
        BYTE   W36
        BYTE                   Ds3   v096
        BYTE   W24
// 036   ----------------------------------------
        BYTE           N06     An2   v080
        BYTE           N18     Dn3   v112
        BYTE   W06
        BYTE           N06     Fn2   v080
        BYTE   W06
        BYTE                   Dn2
        BYTE   W06
        BYTE                   An2
        BYTE   W06
        BYTE                   Fn2
        BYTE   W06
        BYTE                   Dn2
        BYTE   W06
        BYTE                   An2
        BYTE   W06
        BYTE                   Fn2
        BYTE   W06
        BYTE                   Dn2
        BYTE   W06
        BYTE                   An2
        BYTE   W06
        BYTE                   Fn2
        BYTE   W06
        BYTE                   Dn2
        BYTE   W06
        BYTE           N12     Dn3   v088
        BYTE   W12
        BYTE                   Dn3   v080
        BYTE   W12
// 037   ----------------------------------------
        BYTE                   Dn3   v096
        BYTE   W24
        BYTE                   Dn3   v088
        BYTE   W12
        BYTE                   En3   v072
        BYTE   W12
        BYTE                   Fn3   v096
        BYTE   W24
        BYTE                   An3
        BYTE   W24
// 038   ----------------------------------------
        BYTE           N24     Gn2   v112
        BYTE   W24
        BYTE           N04     Cn3   v088
        BYTE   W04
        BYTE                   Ds3   v080
        BYTE   W04
        BYTE                   Gn3
        BYTE   W04
        BYTE           N12     Cn4   v112
        BYTE   W36
        BYTE                   Cn4   v096
        BYTE   W24
// 039   ----------------------------------------
        BYTE                   Cn4   v104
        BYTE   W36
        BYTE                   Cn4
        BYTE   W12
        BYTE                   An2
        BYTE   W12
        BYTE                   Cn3   v088
        BYTE   W12
        BYTE                   Ds3   v096
        BYTE   W12
        BYTE                   Gn3   v080
        BYTE   W12
// 040   ----------------------------------------
        BYTE           N06     Cn3
        BYTE           N18     Fn3   v104
        BYTE   W06
        BYTE           N06     An2   v080
        BYTE   W06
        BYTE                   Fn2
        BYTE   W06
        BYTE                   Cn3
        BYTE   W06
        BYTE                   An2
        BYTE   W06
        BYTE                   Fn2
        BYTE   W06
        BYTE                   Cn3
        BYTE   W06
        BYTE                   An2
        BYTE   W06
        BYTE                   Fn2
        BYTE   W06
        BYTE                   Dn3
        BYTE   W06
        BYTE                   An2
        BYTE   W06
        BYTE                   Fn2
        BYTE   W06
        BYTE           N12     As3   v096
        BYTE   W12
        BYTE                   As3   v080
        BYTE   W12
// 041   ----------------------------------------
        BYTE                   As3   v104
        BYTE   W12
        BYTE                   As2   v088
        BYTE   W12
        BYTE                   Dn3   v096
        BYTE   W12
        BYTE                   Fn3   v080
        BYTE   W12
        BYTE                   An3   v104
        BYTE   W12
        BYTE                   An2   v088
        BYTE   W12
        BYTE                   Dn3   v096
        BYTE   W12
        BYTE                   Fn3   v080
        BYTE   W12
// 042   ----------------------------------------
        BYTE           N18     Gn2   v104
        BYTE   W72
        BYTE           N12     An2   v096
        BYTE   W12
        BYTE                   An2   v080
        BYTE   W12
// 043   ----------------------------------------
        BYTE           N24     As2   v104
        BYTE   W24
        BYTE                   Cn3
        BYTE   W24
        BYTE                   Dn3
        BYTE   W24
        BYTE                   Fn3
        BYTE   W24
// 044   ----------------------------------------
        BYTE           N11     Gn3
        BYTE   W12
        BYTE                   Gn3
        BYTE   W24
        BYTE                   Gn3
        BYTE   W12
        BYTE                   Gn3
        BYTE   W24
        BYTE                   Gn3
        BYTE   W12
        BYTE                   Gn3
        BYTE   W12
// 045   ----------------------------------------
        BYTE   W12
        BYTE                   Gn3
        BYTE   W12
        BYTE                   Gn3
        BYTE   W24
        BYTE                   Gn3
        BYTE   W12
        BYTE                   Gn3
        BYTE   W24
        BYTE                   Gn3
        BYTE   W12
// 046   ----------------------------------------
        BYTE                   Fs3
        BYTE   W12
        BYTE                   Fs3
        BYTE   W24
        BYTE                   Fs3
        BYTE   W12
        BYTE                   Fs3
        BYTE   W24
        BYTE                   Fs3
        BYTE   W12
        BYTE                   Fs3
        BYTE   W12
// 047   ----------------------------------------
        BYTE   W12
        BYTE                   Fs3
        BYTE   W12
        BYTE                   Fs3
        BYTE   W24
        BYTE                   Fs3
        BYTE   W12
        BYTE                   Fs3
        BYTE   W24
        BYTE                   Fs3
        BYTE   W12
// 048   ----------------------------------------
        BYTE   W96
// 049   ----------------------------------------
        BYTE   W96
// 050   ----------------------------------------
        BYTE   W96
// 051   ----------------------------------------
        BYTE   W96
// 052   ----------------------------------------
        BYTE   W96
// 053   ----------------------------------------
        BYTE   W96
// 054   ----------------------------------------
        BYTE   W96
// 055   ----------------------------------------
        BYTE   W48
        BYTE           N12     An2   v072
        BYTE   W12
        BYTE                   As2   v064
        BYTE   W12
        BYTE                   Cn3   v088
        BYTE   W12
        BYTE                   Dn3   v080
        BYTE   W12
// 056   ----------------------------------------
        BYTE           N36     Ds3
        BYTE   W96
// 057   ----------------------------------------
        BYTE   W96
// 058   ----------------------------------------
        BYTE   W96
// 059   ----------------------------------------
        BYTE   W48
        BYTE           N12     As2
        BYTE   W12
        BYTE                   Cn3
        BYTE   W12
        BYTE                   Dn3
        BYTE   W12
        BYTE                   Fn3
        BYTE   W12
// 060   ----------------------------------------
        BYTE           N36
        BYTE   W96
// 061   ----------------------------------------
        BYTE   W96
// 062   ----------------------------------------
        BYTE   W96
// 063   ----------------------------------------
        BYTE   W96
// 064   ----------------------------------------
        BYTE   W96
// 065   ----------------------------------------
        BYTE   W96
// 066   ----------------------------------------
        BYTE   W96
// 067   ----------------------------------------
        BYTE   W96
// 068   ----------------------------------------
        BYTE   W96
// 069   ----------------------------------------
        BYTE   W96
// 070   ----------------------------------------
        BYTE   W96
// 071   ----------------------------------------
        BYTE   W96
// 072   ----------------------------------------
        BYTE   W96
// 073   ----------------------------------------
        BYTE   W96
// 074   ----------------------------------------
        BYTE   W96
// 075   ----------------------------------------
        BYTE   W96
// 076   ----------------------------------------
        BYTE   W96
// 077   ----------------------------------------
        BYTE   W96
// 078   ----------------------------------------
        BYTE   W96
// 079   ----------------------------------------
        BYTE   W96
// 080   ----------------------------------------
        BYTE   W96
// 081   ----------------------------------------
        BYTE   W96
// 082   ----------------------------------------
        BYTE   W96
// 083   ----------------------------------------
        BYTE   W92
        BYTE   W03
        BYTE           VOICE   56
        BYTE   W01
// 084   ----------------------------------------
SacrificeAndTheSaint_5_84:
        BYTE   W36
        BYTE           N12     Ds4   v104
        BYTE           N12     Gs4
        BYTE   W36
        BYTE                   Ds4
        BYTE           N12     Gs4
        BYTE   W24
        BYTE   PEND
// 085   ----------------------------------------
SacrificeAndTheSaint_5_85:
        BYTE   W12
        BYTE           N12     Ds4   v104
        BYTE           N12     Gs4
        BYTE   W36
        BYTE                   Ds4
        BYTE           N12     Gs4
        BYTE   W24
        BYTE                   Ds4
        BYTE           N12     Gs4
        BYTE   W12
        BYTE                   Gs4   v080
        BYTE           N12     Ds4
        BYTE   W12
        BYTE   PEND
// 086   ----------------------------------------
SacrificeAndTheSaint_5_86:
        BYTE   W36
        BYTE           N12     Cs4   v104
        BYTE           N12     Fs4
        BYTE   W36
        BYTE                   Cs4
        BYTE           N12     Fs4
        BYTE   W24
        BYTE   PEND
// 087   ----------------------------------------
SacrificeAndTheSaint_5_87:
        BYTE   W12
        BYTE           N12     Cs4   v104
        BYTE           N12     Fs4
        BYTE   W36
        BYTE                   Cs4
        BYTE           N12     Fs4
        BYTE   W24
        BYTE                   Cs4
        BYTE           N12     Fs4
        BYTE   W12
        BYTE                   Fs4   v080
        BYTE           N12     Cs4
        BYTE   W12
        BYTE   PEND
// 088   ----------------------------------------
        BYTE   W24
        BYTE           N11     Gs3   v104
        BYTE           N11     Gs2
        BYTE   W12
        BYTE                   As3
        BYTE           N11     As2
        BYTE   W12
        BYTE           N12     Bn3
        BYTE           N12     Bn2
        BYTE   W24
        BYTE           N11     Gs3
        BYTE           N11     Gs2
        BYTE   W12
        BYTE                   As3
        BYTE           N11     As2
        BYTE   W12
// 089   ----------------------------------------
        BYTE                   Bn3
        BYTE           N11     Bn2
        BYTE   W12
        BYTE           N12     Cs3   v080
        BYTE           N12     Gs3
        BYTE   W36
        BYTE                   Gs3   v104
        BYTE           N12     Cs3
        BYTE   W24
        BYTE                   Gs3
        BYTE           N12     Cs3
        BYTE   W24
// 090   ----------------------------------------
        BYTE           N24     Gs3
        BYTE           N24     Ds3
        BYTE   W48
        BYTE           N12     As3
        BYTE           N12     As2
        BYTE   W24
        BYTE                   Bn3
        BYTE           N12     Bn2
        BYTE   W24
// 091   ----------------------------------------
        BYTE                   Cs4
        BYTE           N12     Cs3
        BYTE   W48
        BYTE           N36     Ds4
        BYTE           N36     Ds3
        BYTE   W48
// 092   ----------------------------------------
        BYTE   PATT
         POIN2  SacrificeAndTheSaint_5_84
// 093   ----------------------------------------
        BYTE   PATT
         POIN2  SacrificeAndTheSaint_5_85
// 094   ----------------------------------------
        BYTE   PATT
         POIN2  SacrificeAndTheSaint_5_86
// 095   ----------------------------------------
        BYTE   PATT
         POIN2  SacrificeAndTheSaint_5_87
// 096   ----------------------------------------
        BYTE   W24
        BYTE           N11     Gs3   v104
        BYTE           N11     Gs2
        BYTE   W12
        BYTE                   As3
        BYTE           N11     As2
        BYTE   W12
        BYTE           N12     Bn3
        BYTE           N12     Bn2
        BYTE   W24
        BYTE           N11     Gs3
        BYTE           N11     Gs2
        BYTE   W12
        BYTE                   As2
        BYTE           N11     As3
        BYTE   W12
// 097   ----------------------------------------
        BYTE                   Bn3
        BYTE           N11     Bn2
        BYTE   W24
        BYTE           N12     Gs3   v080
        BYTE           N12     Cs3
        BYTE   W24
        BYTE                   Cs3   v104
        BYTE           N12     Gs3
        BYTE   W24
        BYTE                   Cs3
        BYTE           N12     Gs3
        BYTE   W24
// 098   ----------------------------------------
        BYTE           N24     Ds3   v112
        BYTE           N24     Gs3
        BYTE   W36
        BYTE           N12     Cs4   v104
        BYTE           N12     Cs3
        BYTE   W36
        BYTE                   Bn3
        BYTE           N12     En3
        BYTE   W24
// 099   ----------------------------------------
        BYTE           N24     As3
        BYTE           N24     Ds3
        BYTE   W36
        BYTE                   Fs3
        BYTE           N24     Fs2
        BYTE   W36
        BYTE                   En2
        BYTE           N21     Cs3
        BYTE   W23
        BYTE           VOICE   102
        BYTE   W01
// 100   ----------------------------------------
        BYTE           N44     Gs2   v080   gtp1
        BYTE           N48     Ds2   v088
        BYTE   W48
        BYTE           N36     Ds3   v072
        BYTE           N36     Gs2
        BYTE   W48
// 101   ----------------------------------------
        BYTE           N48     Ds3   v088
        BYTE           N48     Gs2
        BYTE   W48
        BYTE           N24     Cs3   v080
        BYTE           N24     Fs2
        BYTE   W24
        BYTE           N21     Bn2
        BYTE           N21     En2
        BYTE   W24
// 102   ----------------------------------------
        BYTE           N36     Bn2
        BYTE           N36     En2
        BYTE   W36
        BYTE           N09     As2
        BYTE           N09     Ds2
        BYTE   W12
        BYTE           N21     As2
        BYTE           N21     Ds2
        BYTE   W24
        BYTE                   En3
        BYTE           N21     Bn2
        BYTE   W24
// 103   ----------------------------------------
        BYTE           N36     En3
        BYTE           N36     Bn2
        BYTE   W36
        BYTE           N09     Fs3
        BYTE           N09     Cs3
        BYTE   W12
        BYTE           N48     As2
        BYTE           N06     Ds3
        BYTE   W06
        BYTE                   En3
        BYTE   W06
        BYTE           N36     Ds3
        BYTE   W36
// 104   ----------------------------------------
        BYTE           N48     Gs2
        BYTE   W60
        BYTE           N12
        BYTE   W12
        BYTE                   Bn2
        BYTE   W12
        BYTE                   Ds3
        BYTE   W12
// 105   ----------------------------------------
        BYTE           N48     Fs3
        BYTE   W48
        BYTE           N24     En3
        BYTE   W24
        BYTE                   Ds3
        BYTE   W24
// 106   ----------------------------------------
        BYTE           N36
        BYTE   W36
        BYTE           N12     Cs3
        BYTE   W12
        BYTE           N24
        BYTE   W24
        BYTE                   Bn2
        BYTE   W24
// 107   ----------------------------------------
        BYTE           N48
        BYTE   W48
        BYTE                   Cs3
        BYTE   W48
// 108   ----------------------------------------
        BYTE                   Dn3   v104
        BYTE   W60
        BYTE           N12     Dn2
        BYTE   W12
        BYTE           N08
        BYTE   W08
        BYTE                   Fn2
        BYTE   W08
        BYTE                   An2
        BYTE   W08
// 109   ----------------------------------------
        BYTE           N36     Cn3
        BYTE   W36
        BYTE                   As2
        BYTE   W36
        BYTE           N24     An2
        BYTE   W24
// 110   ----------------------------------------
        BYTE           N36
        BYTE   W36
        BYTE           N12     Gn2
        BYTE   W12
        BYTE           N24
        BYTE   W24
        BYTE                   Dn3
        BYTE   W24
// 111   ----------------------------------------
        BYTE           N36
        BYTE   W36
        BYTE           N12     En3
        BYTE   W12
        BYTE           N48     Cn3
        BYTE   W48
// 112   ----------------------------------------
        BYTE                   An2
        BYTE   W60
        BYTE           N12
        BYTE   W12
        BYTE                   Cn3
        BYTE   W12
        BYTE                   En3
        BYTE   W12
// 113   ----------------------------------------
        BYTE           N48     Gn3   v096
        BYTE   W48
        BYTE           N24     Fn3
        BYTE   W24
        BYTE                   En3
        BYTE   W24
// 114   ----------------------------------------
        BYTE           N36
        BYTE   W36
        BYTE           N12     Dn3
        BYTE   W12
        BYTE           N24
        BYTE   W24
        BYTE                   Cn3
        BYTE   W24
// 115   ----------------------------------------
        BYTE           N48
        BYTE   W48
        BYTE                   Bn2
        BYTE   W48
// 116   ----------------------------------------
        BYTE           N36     Bn2   v088
        BYTE   W36
        BYTE           N12     Cn3
        BYTE   W12
        BYTE           TIE     An2
        BYTE   W48
// 117   ----------------------------------------
        BYTE   W96
// 118   ----------------------------------------
        BYTE   W72
        BYTE           EOT
        BYTE           N12     An2   v096
        BYTE   W12
        BYTE                   An2   v080
        BYTE   W12
// 119   ----------------------------------------
        BYTE                   Cn3   v096
        BYTE           N12     En2
        BYTE   W36
        BYTE                   Bn2
        BYTE           N12     Dn2
        BYTE   W36
        BYTE                   Gn2
        BYTE           N12     Gn1
        BYTE   W24
// 120   ----------------------------------------
        BYTE           VOICE   6
        BYTE   GoTo
         POIN2  SacrificeAndTheSaint_5_LOOP
        BYTE   FINE

//****************** Track 6 (Midi-Chn.6) ******************//

SacrificeAndTheSaint_6:
        BYTE   KEYSH   SacrificeAndTheSaint_key+0
// 000   ----------------------------------------
SacrificeAndTheSaint_6_LOOP:
        BYTE           VOICE   47
        BYTE           VOL     54
        BYTE           PAN     c_v-16
        BYTE           N48     An2   v096
        BYTE   W96
// 001   ----------------------------------------
        BYTE           N24     Fn3
        BYTE   W96
// 002   ----------------------------------------
        BYTE           N48     Dn2
        BYTE   W96
// 003   ----------------------------------------
SacrificeAndTheSaint_6_3:
        BYTE           N24     En3   v096
        BYTE   W60
        BYTE           N12     En2
        BYTE   W12
        BYTE                   Fn2
        BYTE   W12
        BYTE                   En2
        BYTE   W12
        BYTE                   Dn2
        BYTE   W12
        BYTE                   As1
        BYTE   W12
        BYTE   PEND
// 004   ----------------------------------------
        BYTE           N48     An2
        BYTE   W96
// 005   ----------------------------------------
        BYTE           N24     Fn3
        BYTE   W96
// 006   ----------------------------------------
        BYTE           N48     Dn2
        BYTE   W96
// 007   ----------------------------------------
        BYTE   PATT
         POIN2  SacrificeAndTheSaint_6_3
// 008   ----------------------------------------
SacrificeAndTheSaint_6_8:
        BYTE           N48     An2   v096
        BYTE   W72
        BYTE           N24     Gn2
        BYTE   W24
        BYTE   PEND
// 009   ----------------------------------------
        BYTE   PATT
         POIN2  SacrificeAndTheSaint_6_8
// 010   ----------------------------------------
        BYTE   PATT
         POIN2  SacrificeAndTheSaint_6_8
// 011   ----------------------------------------
        BYTE           N48     An2   v096
        BYTE   W72
        BYTE           N24     Fn2
        BYTE   W24
// 012   ----------------------------------------
SacrificeAndTheSaint_6_12:
        BYTE           N48     Gn2   v096
        BYTE   W72
        BYTE           N24     En2
        BYTE   W24
        BYTE   PEND
// 013   ----------------------------------------
        BYTE   PATT
         POIN2  SacrificeAndTheSaint_6_12
// 014   ----------------------------------------
        BYTE           N48     Gn2   v096
        BYTE   W72
        BYTE           N24     Fn2
        BYTE   W24
// 015   ----------------------------------------
        BYTE           N36     An2
        BYTE   W36
        BYTE                   As2
        BYTE   W36
        BYTE           N24     En2
        BYTE   W24
// 016   ----------------------------------------
SacrificeAndTheSaint_6_16:
        BYTE           N24     Dn2   v104
        BYTE   W24
        BYTE           N12     An2   v080
        BYTE   W12
        BYTE                   An2   v092
        BYTE   W12
        BYTE                   An2   v104
        BYTE   W12
        BYTE                   Fn2   v080
        BYTE   W12
        BYTE                   An2   v092
        BYTE   W12
        BYTE                   An2   v104
        BYTE   W12
        BYTE   PEND
// 017   ----------------------------------------
        BYTE   PATT
         POIN2  SacrificeAndTheSaint_6_16
// 018   ----------------------------------------
        BYTE   PATT
         POIN2  SacrificeAndTheSaint_6_16
// 019   ----------------------------------------
        BYTE           N24     En2   v104
        BYTE   W24
        BYTE           N12     An2
        BYTE   W12
        BYTE                   En2
        BYTE   W12
        BYTE                   An2   v096
        BYTE   W12
        BYTE                   An2   v080
        BYTE   W12
        BYTE                   An2   v104
        BYTE   W12
        BYTE                   An2   v088
        BYTE   W12
        BYTE                   An2   v112
        BYTE   W12
        BYTE                   An2   v096
        BYTE   W12
// 020   ----------------------------------------
        BYTE   PATT
         POIN2  SacrificeAndTheSaint_6_16
// 021   ----------------------------------------
        BYTE   PATT
         POIN2  SacrificeAndTheSaint_6_16
// 022   ----------------------------------------
        BYTE   PATT
         POIN2  SacrificeAndTheSaint_6_16
// 023   ----------------------------------------
        BYTE           N24     En2   v104
        BYTE   W24
        BYTE           N12     An2   v088
        BYTE   W12
        BYTE                   En2   v104
        BYTE   W12
        BYTE                   An2   v096
        BYTE   W12
        BYTE                   An2   v080
        BYTE   W12
        BYTE                   An2   v104
        BYTE   W12
        BYTE                   An2   v088
        BYTE   W12
        BYTE                   An2   v112
        BYTE   W12
        BYTE                   An2   v096
        BYTE   W12
// 024   ----------------------------------------
        BYTE           N24     Dn2   v104
        BYTE   W24
        BYTE           N12     An2   v080
        BYTE   W12
        BYTE                   An2   v092
        BYTE   W12
        BYTE                   An2   v104
        BYTE   W12
        BYTE                   Fn2   v080
        BYTE   W12
        BYTE                   Gn2   v092
        BYTE   W12
        BYTE                   Gn2   v104
        BYTE   W12
// 025   ----------------------------------------
SacrificeAndTheSaint_6_25:
        BYTE           N24     Dn2   v104
        BYTE   W24
        BYTE           N12     Gn2   v080
        BYTE   W12
        BYTE                   Gn2   v092
        BYTE   W12
        BYTE                   Gn2   v104
        BYTE   W12
        BYTE                   Fn2   v080
        BYTE   W12
        BYTE                   Gn2   v092
        BYTE   W12
        BYTE                   Gn2   v104
        BYTE   W12
        BYTE   PEND
// 026   ----------------------------------------
        BYTE   PATT
         POIN2  SacrificeAndTheSaint_6_16
// 027   ----------------------------------------
        BYTE   PATT
         POIN2  SacrificeAndTheSaint_6_16
// 028   ----------------------------------------
        BYTE           N24     Dn2   v104
        BYTE   W24
        BYTE           N12     As2   v080
        BYTE   W12
        BYTE                   As2   v092
        BYTE   W12
        BYTE                   As2   v104
        BYTE   W12
        BYTE                   Gn2   v080
        BYTE   W12
        BYTE                   As2   v092
        BYTE   W12
        BYTE                   As2   v104
        BYTE   W12
// 029   ----------------------------------------
        BYTE           N24     Dn2
        BYTE   W24
        BYTE           N12     As2   v080
        BYTE   W12
        BYTE                   As2   v092
        BYTE   W12
        BYTE                   As2   v104
        BYTE   W12
        BYTE                   Fn2   v080
        BYTE   W12
        BYTE                   As2   v092
        BYTE   W12
        BYTE                   As2   v104
        BYTE   W12
// 030   ----------------------------------------
        BYTE   PATT
         POIN2  SacrificeAndTheSaint_6_25
// 031   ----------------------------------------
        BYTE   PATT
         POIN2  SacrificeAndTheSaint_6_16
// 032   ----------------------------------------
SacrificeAndTheSaint_6_32:
        BYTE           N24     Dn2   v104
        BYTE   W36
        BYTE                   Dn2
        BYTE   W36
        BYTE                   An2
        BYTE   W24
        BYTE   PEND
// 033   ----------------------------------------
        BYTE   PATT
         POIN2  SacrificeAndTheSaint_6_32
// 034   ----------------------------------------
        BYTE           N24     Ds2   v104
        BYTE   W36
        BYTE                   Ds2
        BYTE   W36
        BYTE                   As2
        BYTE   W24
// 035   ----------------------------------------
        BYTE                   Ds2
        BYTE   W24
        BYTE           N12     As2
        BYTE   W12
        BYTE                   As2   v080
        BYTE   W12
        BYTE                   As2   v104
        BYTE   W12
        BYTE                   As2   v080
        BYTE   W12
        BYTE                   As2   v104
        BYTE   W12
        BYTE                   As2   v080
        BYTE   W12
// 036   ----------------------------------------
        BYTE   PATT
         POIN2  SacrificeAndTheSaint_6_32
// 037   ----------------------------------------
        BYTE   PATT
         POIN2  SacrificeAndTheSaint_6_32
// 038   ----------------------------------------
        BYTE           N24     En2   v104
        BYTE   W36
        BYTE                   En2
        BYTE   W36
        BYTE                   Cn3
        BYTE   W24
// 039   ----------------------------------------
        BYTE                   En2
        BYTE   W24
        BYTE           N12     Cn3
        BYTE   W12
        BYTE                   Cn3   v080
        BYTE   W12
        BYTE                   Cn3   v104
        BYTE   W12
        BYTE                   Cn3   v080
        BYTE   W12
        BYTE                   Cn3   v104
        BYTE   W12
        BYTE                   Cn3   v080
        BYTE   W12
// 040   ----------------------------------------
SacrificeAndTheSaint_6_40:
        BYTE           N24     Fn2   v104
        BYTE   W36
        BYTE                   Fn2
        BYTE   W36
        BYTE                   As2
        BYTE   W24
        BYTE   PEND
// 041   ----------------------------------------
        BYTE                   Fn2
        BYTE   W36
        BYTE                   Fn2
        BYTE   W36
        BYTE                   An2
        BYTE   W24
// 042   ----------------------------------------
        BYTE                   Dn2
        BYTE   W36
        BYTE                   Dn2
        BYTE   W36
        BYTE                   Gn2
        BYTE   W24
// 043   ----------------------------------------
        BYTE                   Dn2
        BYTE   W24
        BYTE           N12     As2
        BYTE   W12
        BYTE                   As2   v080
        BYTE   W12
        BYTE                   As2   v104
        BYTE   W12
        BYTE                   As2   v080
        BYTE   W12
        BYTE                   As2   v104
        BYTE   W12
        BYTE                   As2   v080
        BYTE   W12
// 044   ----------------------------------------
SacrificeAndTheSaint_6_44:
        BYTE           N24     Dn3   v120
        BYTE   W36
        BYTE                   Dn3   v104
        BYTE   W36
        BYTE                   Dn3   v112
        BYTE   W24
        BYTE   PEND
// 045   ----------------------------------------
        BYTE   W12
        BYTE                   Dn3   v104
        BYTE   W36
        BYTE                   Dn3   v112
        BYTE   W24
        BYTE                   An2   v104
        BYTE   W24
// 046   ----------------------------------------
        BYTE   PATT
         POIN2  SacrificeAndTheSaint_6_44
// 047   ----------------------------------------
        BYTE   W12
        BYTE           N12     Dn3   v104
        BYTE   W12
        BYTE                   An2   v088
        BYTE   W12
        BYTE                   An2   v064
        BYTE   W12
        BYTE                   Dn3   v100
        BYTE   W12
        BYTE                   An2   v064
        BYTE   W12
        BYTE                   An2   v088
        BYTE   W12
        BYTE                   An2   v064
        BYTE   W12
// 048   ----------------------------------------
        BYTE           N24     An2   v080
        BYTE   W96
// 049   ----------------------------------------
        BYTE   W96
// 050   ----------------------------------------
        BYTE   W96
// 051   ----------------------------------------
        BYTE   W48
        BYTE           N12     An2   v048
        BYTE   W12
        BYTE                   An2
        BYTE   W12
        BYTE                   An2   v072
        BYTE   W12
        BYTE                   An2   v056
        BYTE   W12
// 052   ----------------------------------------
        BYTE           N24     An2   v080
        BYTE   W48
        BYTE           N12     An2   v056
        BYTE   W12
        BYTE                   An2   v040
        BYTE   W12
        BYTE                   An2   v064
        BYTE   W12
        BYTE                   An2   v048
        BYTE   W12
// 053   ----------------------------------------
        BYTE                   An2   v072
        BYTE   W12
        BYTE                   An2   v056
        BYTE   W12
        BYTE                   An2   v080
        BYTE   W12
        BYTE                   An2   v064
        BYTE   W12
        BYTE                   An2   v088
        BYTE   W12
        BYTE                   An2   v072
        BYTE   W12
        BYTE                   An2   v096
        BYTE   W12
        BYTE                   An2   v080
        BYTE   W12
// 054   ----------------------------------------
        BYTE           N24     An2   v104
        BYTE   W48
        BYTE                   An2   v095
        BYTE   W48
// 055   ----------------------------------------
        BYTE                   An2   v104
        BYTE   W48
        BYTE           N12     An2   v088
        BYTE   W12
        BYTE                   An2   v072
        BYTE   W12
        BYTE                   An2   v088
        BYTE   W12
        BYTE                   An2   v072
        BYTE   W12
// 056   ----------------------------------------
SacrificeAndTheSaint_6_56:
        BYTE           N24     Gn2   v112
        BYTE   W48
        BYTE                   Gn2   v095
        BYTE   W48
        BYTE   PEND
// 057   ----------------------------------------
        BYTE   PATT
         POIN2  SacrificeAndTheSaint_6_56
// 058   ----------------------------------------
        BYTE   PATT
         POIN2  SacrificeAndTheSaint_6_56
// 059   ----------------------------------------
        BYTE           N24     Gn2   v112
        BYTE   W48
        BYTE           N12     Gn2   v088
        BYTE   W12
        BYTE                   Gn2   v072
        BYTE   W12
        BYTE                   Gn2   v088
        BYTE   W12
        BYTE                   Gn2   v072
        BYTE   W12
// 060   ----------------------------------------
SacrificeAndTheSaint_6_60:
        BYTE           N24     An2   v112
        BYTE   W48
        BYTE                   An2   v095
        BYTE   W48
        BYTE   PEND
// 061   ----------------------------------------
        BYTE   PATT
         POIN2  SacrificeAndTheSaint_6_60
// 062   ----------------------------------------
        BYTE   PATT
         POIN2  SacrificeAndTheSaint_6_60
// 063   ----------------------------------------
        BYTE           N24     An2   v112
        BYTE   W48
        BYTE           N12     Gn2   v096
        BYTE   W12
        BYTE                   Gn2   v080
        BYTE   W12
        BYTE                   Gn2   v104
        BYTE   W12
        BYTE                   Gn2   v088
        BYTE   W12
// 064   ----------------------------------------
        BYTE           N24     Cn3   v104
        BYTE   W36
        BYTE           N12     As2   v080
        BYTE   W12
        BYTE           N24     As2   v096
        BYTE   W24
        BYTE           N12     As2   v088
        BYTE   W12
        BYTE                   As2   v080
        BYTE   W12
// 065   ----------------------------------------
        BYTE           N24     As2   v104
        BYTE   W48
        BYTE           N12     An2   v080
        BYTE   W12
        BYTE                   En2
        BYTE   W12
        BYTE                   Fn2
        BYTE   W12
        BYTE                   As1
        BYTE   W12
// 066   ----------------------------------------
        BYTE   PATT
         POIN2  SacrificeAndTheSaint_6_32
// 067   ----------------------------------------
        BYTE   PATT
         POIN2  SacrificeAndTheSaint_6_32
// 068   ----------------------------------------
        BYTE   PATT
         POIN2  SacrificeAndTheSaint_6_32
// 069   ----------------------------------------
        BYTE   PATT
         POIN2  SacrificeAndTheSaint_6_32
// 070   ----------------------------------------
        BYTE   PATT
         POIN2  SacrificeAndTheSaint_6_40
// 071   ----------------------------------------
        BYTE   PATT
         POIN2  SacrificeAndTheSaint_6_40
// 072   ----------------------------------------
        BYTE   PATT
         POIN2  SacrificeAndTheSaint_6_40
// 073   ----------------------------------------
        BYTE   PATT
         POIN2  SacrificeAndTheSaint_6_40
// 074   ----------------------------------------
SacrificeAndTheSaint_6_74:
        BYTE           N24     Ds2   v104
        BYTE   W36
        BYTE                   Ds2
        BYTE   W36
        BYTE                   Gs2
        BYTE   W24
        BYTE   PEND
// 075   ----------------------------------------
        BYTE   PATT
         POIN2  SacrificeAndTheSaint_6_74
// 076   ----------------------------------------
        BYTE           N24     Cs2   v104
        BYTE   W36
        BYTE                   Cs2
        BYTE   W36
        BYTE                   Fs2
        BYTE   W24
// 077   ----------------------------------------
        BYTE                   Cs2
        BYTE   W36
        BYTE                   Cs2
        BYTE   W36
        BYTE                   Gs2
        BYTE   W24
// 078   ----------------------------------------
SacrificeAndTheSaint_6_78:
        BYTE           N24     Fs2   v112
        BYTE   W36
        BYTE                   Fs2
        BYTE   W36
        BYTE                   Bn2
        BYTE   W24
        BYTE   PEND
// 079   ----------------------------------------
        BYTE   PATT
         POIN2  SacrificeAndTheSaint_6_78
// 080   ----------------------------------------
SacrificeAndTheSaint_6_80:
        BYTE           N24     Ds2   v112
        BYTE   W36
        BYTE                   Ds2
        BYTE   W36
        BYTE                   Gs2
        BYTE   W24
        BYTE   PEND
// 081   ----------------------------------------
        BYTE   PATT
         POIN2  SacrificeAndTheSaint_6_80
// 082   ----------------------------------------
        BYTE           N24     Ds2   v111
        BYTE   W36
        BYTE                   Ds2
        BYTE   W36
        BYTE                   Gs2
        BYTE   W24
// 083   ----------------------------------------
        BYTE                   As2
        BYTE   W36
        BYTE                   As2
        BYTE   W24
        BYTE           N12     Fn2   v104
        BYTE   W12
        BYTE                   Fn2   v096
        BYTE   W12
        BYTE                   Fn2   v111
        BYTE   W12
// 084   ----------------------------------------
        BYTE           N24     Ds2   v099
        BYTE   W96
// 085   ----------------------------------------
SacrificeAndTheSaint_6_85:
        BYTE   W48
        BYTE           N24     Gs2   v100
        BYTE   W24
        BYTE                   Ds2
        BYTE   W24
        BYTE   PEND
// 086   ----------------------------------------
        BYTE   W96
// 087   ----------------------------------------
SacrificeAndTheSaint_6_87:
        BYTE   W48
        BYTE           N24     Fs2   v100
        BYTE   W24
        BYTE                   Cs2
        BYTE   W24
        BYTE   PEND
// 088   ----------------------------------------
        BYTE   W96
// 089   ----------------------------------------
SacrificeAndTheSaint_6_89:
        BYTE   W48
        BYTE           N24     Cs3   v088
        BYTE   W24
        BYTE                   Cs3   v104
        BYTE   W24
        BYTE   PEND
// 090   ----------------------------------------
        BYTE           N36     Gs2   v112
        BYTE   W36
        BYTE                   Cn3   v080
        BYTE   W36
        BYTE                   Cn3   v088
        BYTE   W24
// 091   ----------------------------------------
        BYTE   W12
        BYTE                   Cn3   v096
        BYTE   W36
        BYTE           N12     As2   v112
        BYTE   W12
        BYTE                   As2   v088
        BYTE   W12
        BYTE                   As2   v104
        BYTE   W12
        BYTE                   As2   v088
        BYTE   W12
// 092   ----------------------------------------
        BYTE   W96
// 093   ----------------------------------------
        BYTE   PATT
         POIN2  SacrificeAndTheSaint_6_85
// 094   ----------------------------------------
        BYTE   W96
// 095   ----------------------------------------
        BYTE   PATT
         POIN2  SacrificeAndTheSaint_6_87
// 096   ----------------------------------------
        BYTE   W96
// 097   ----------------------------------------
        BYTE   PATT
         POIN2  SacrificeAndTheSaint_6_89
// 098   ----------------------------------------
        BYTE           N36     Gs2   v112
        BYTE   W36
        BYTE           N24     Cs3   v100
        BYTE   W36
        BYTE                   Bn2
        BYTE   W24
// 099   ----------------------------------------
        BYTE                   As2
        BYTE   W36
        BYTE                   Ds2
        BYTE   W36
        BYTE                   Fs2
        BYTE   W24
// 100   ----------------------------------------
        BYTE                   Gs2
        BYTE   W96
// 101   ----------------------------------------
        BYTE   W96
// 102   ----------------------------------------
        BYTE   W96
// 103   ----------------------------------------
        BYTE   W96
// 104   ----------------------------------------
        BYTE   W96
// 105   ----------------------------------------
        BYTE   W96
// 106   ----------------------------------------
        BYTE   W96
// 107   ----------------------------------------
        BYTE   W96
// 108   ----------------------------------------
        BYTE           N48     Dn3   v104
        BYTE   W96
// 109   ----------------------------------------
        BYTE   W96
// 110   ----------------------------------------
        BYTE   W96
// 111   ----------------------------------------
        BYTE   W96
// 112   ----------------------------------------
        BYTE   W96
// 113   ----------------------------------------
        BYTE   W96
// 114   ----------------------------------------
        BYTE   W96
// 115   ----------------------------------------
        BYTE   W96
// 116   ----------------------------------------
        BYTE   W96
// 117   ----------------------------------------
        BYTE   W96
// 118   ----------------------------------------
        BYTE   W96
// 119   ----------------------------------------
        BYTE           N24     Dn2   v096
        BYTE   W36
        BYTE                   Ds2
        BYTE   W36
        BYTE                   Gn2
        BYTE   W24
// 120   ----------------------------------------
        BYTE   GoTo
         POIN2  SacrificeAndTheSaint_6_LOOP
        BYTE   FINE

//****************** Track 7 (Midi-Chn.7) ******************//

SacrificeAndTheSaint_7:
        BYTE   KEYSH   SacrificeAndTheSaint_key+0
// 000   ----------------------------------------
SacrificeAndTheSaint_7_LOOP:
        BYTE           VOICE   36
        BYTE           VOL     32
        BYTE           PAN     c_v+42
        BYTE           N06     Gn2   v064
        BYTE   W12
        BYTE           N12     Dn3   v080
        BYTE   W12
        BYTE                   Dn3   v064
        BYTE   W12
        BYTE           N06     Gn2
        BYTE   W12
        BYTE           N12     Dn3   v080
        BYTE   W12
        BYTE                   Dn3   v064
        BYTE   W12
        BYTE                   Fn3   v080
        BYTE   W12
        BYTE           N06     Fn2   v064
        BYTE   W12
// 001   ----------------------------------------
SacrificeAndTheSaint_7_1:
        BYTE           N06     Gn2   v064
        BYTE   W12
        BYTE           N12     Dn3   v080
        BYTE   W12
        BYTE                   Dn3   v064
        BYTE   W12
        BYTE           N06     Gn2
        BYTE   W12
        BYTE           N12     Dn3   v080
        BYTE   W12
        BYTE                   Dn3   v064
        BYTE   W12
        BYTE                   Dn2   v080
        BYTE   W12
        BYTE           N06     Fn2   v064
        BYTE   W12
        BYTE   PEND
// 002   ----------------------------------------
SacrificeAndTheSaint_7_2:
        BYTE           N06     Gn2   v064
        BYTE   W12
        BYTE           N12     Dn3   v080
        BYTE   W12
        BYTE                   Dn3   v064
        BYTE   W12
        BYTE           N06     Gn2
        BYTE   W12
        BYTE           N12     Dn3   v080
        BYTE   W12
        BYTE                   Dn3   v064
        BYTE   W12
        BYTE                   Fn3   v080
        BYTE   W12
        BYTE           N06     Fn2   v064
        BYTE   W12
        BYTE   PEND
// 003   ----------------------------------------
        BYTE                   Gn2
        BYTE   W12
        BYTE           N12     Dn3   v080
        BYTE   W12
        BYTE                   Dn3   v064
        BYTE   W12
        BYTE           N06     Gn2
        BYTE   W12
        BYTE           N12     Dn3   v080
        BYTE   W12
        BYTE                   Dn3   v064
        BYTE   W12
        BYTE                   Dn2   v080
        BYTE   W12
        BYTE                   Dn3
        BYTE   W12
        BYTE                   Cn3   v064
        BYTE   W12
        BYTE           N06     An2
        BYTE   W12
// 004   ----------------------------------------
        BYTE   PATT
         POIN2  SacrificeAndTheSaint_7_2
// 005   ----------------------------------------
        BYTE   PATT
         POIN2  SacrificeAndTheSaint_7_1
// 006   ----------------------------------------
        BYTE   PATT
         POIN2  SacrificeAndTheSaint_7_2
// 007   ----------------------------------------
        BYTE           N06     Gn2   v064
        BYTE   W12
        BYTE           N12     Dn3   v080
        BYTE   W12
        BYTE                   Dn3   v064
        BYTE   W12
        BYTE           N06     Gn2
        BYTE   W12
        BYTE           N12     Dn3   v080
        BYTE   W12
        BYTE                   Dn3   v064
        BYTE   W12
        BYTE                   Dn2   v080
        BYTE   W12
        BYTE                   Dn3   v064
        BYTE   W12
        BYTE                   Cn3
        BYTE   W12
        BYTE           N06     An2
        BYTE   W12
// 008   ----------------------------------------
SacrificeAndTheSaint_7_8:
        BYTE           N06     Gn2   v072
        BYTE   W12
        BYTE           N12     Dn3   v088
        BYTE   W12
        BYTE                   Dn3   v072
        BYTE   W12
        BYTE           N06     Gn2
        BYTE   W12
        BYTE           N12     Dn3   v088
        BYTE   W12
        BYTE                   Dn3   v072
        BYTE   W12
        BYTE                   Fn3   v088
        BYTE   W12
        BYTE           N06     Fn2   v072
        BYTE   W12
        BYTE   PEND
// 009   ----------------------------------------
SacrificeAndTheSaint_7_9:
        BYTE           N06     Gn2   v072
        BYTE   W12
        BYTE           N12     Dn3   v088
        BYTE   W12
        BYTE                   Dn3   v072
        BYTE   W12
        BYTE           N06     Gn2
        BYTE   W12
        BYTE           N12     Dn3   v088
        BYTE   W12
        BYTE                   Dn3   v072
        BYTE   W12
        BYTE                   Dn2   v088
        BYTE   W12
        BYTE           N06     Fn2   v072
        BYTE   W12
        BYTE   PEND
// 010   ----------------------------------------
        BYTE   PATT
         POIN2  SacrificeAndTheSaint_7_8
// 011   ----------------------------------------
        BYTE   PATT
         POIN2  SacrificeAndTheSaint_7_9
// 012   ----------------------------------------
        BYTE   PATT
         POIN2  SacrificeAndTheSaint_7_8
// 013   ----------------------------------------
        BYTE   PATT
         POIN2  SacrificeAndTheSaint_7_9
// 014   ----------------------------------------
        BYTE   PATT
         POIN2  SacrificeAndTheSaint_7_8
// 015   ----------------------------------------
        BYTE   PATT
         POIN2  SacrificeAndTheSaint_7_9
// 016   ----------------------------------------
        BYTE   W96
// 017   ----------------------------------------
        BYTE   W96
// 018   ----------------------------------------
        BYTE   W96
// 019   ----------------------------------------
        BYTE   W96
        BYTE   W24
// 020   ----------------------------------------
        BYTE   W96
// 021   ----------------------------------------
        BYTE   W96
// 022   ----------------------------------------
        BYTE   W96
// 023   ----------------------------------------
        BYTE   W96
        BYTE   W24
// 024   ----------------------------------------
        BYTE   W96
// 025   ----------------------------------------
        BYTE   W96
// 026   ----------------------------------------
        BYTE   W96
// 027   ----------------------------------------
        BYTE   W96
// 028   ----------------------------------------
        BYTE   W96
// 029   ----------------------------------------
        BYTE   W96
// 030   ----------------------------------------
        BYTE   W96
// 031   ----------------------------------------
        BYTE   W96
// 032   ----------------------------------------
        BYTE           VOICE   52
        BYTE           N72     Dn3   v080
        BYTE           N72     An2
        BYTE   W72
        BYTE           TIE     Dn3   v064
        BYTE           TIE     An2
        BYTE   W24
// 033   ----------------------------------------
        BYTE   W96
// 034   ----------------------------------------
        BYTE           EOT
        BYTE           EOT     Dn3
        BYTE           N72     Ds3   v080
        BYTE           N72     Gn2
        BYTE   W72
        BYTE           TIE     Ds3   v064
        BYTE           TIE     Gn2
        BYTE   W24
// 035   ----------------------------------------
        BYTE   W96
// 036   ----------------------------------------
        BYTE           EOT
        BYTE           EOT     Ds3
        BYTE           N72     Fn3   v080
        BYTE           N72     Cn3
        BYTE           N72     Fn2
        BYTE   W72
        BYTE           TIE     Fn3   v064
        BYTE           TIE     Cn3
        BYTE           TIE     Fn2
        BYTE   W24
// 037   ----------------------------------------
        BYTE   W96
// 038   ----------------------------------------
        BYTE           EOT
        BYTE           EOT     Cn3
        BYTE                   Fn3
        BYTE           N36     Gn2   v072
        BYTE           N36     Ds3
        BYTE           N36     Cn3
        BYTE           N96     Gn3
        BYTE   W36
        BYTE           N36     Ds3   v064
        BYTE           N36     Cn3
        BYTE   W36
        BYTE           N24     Ds3   v056
        BYTE           N24     Cn3
        BYTE   W24
// 039   ----------------------------------------
        BYTE           N96     Gn3   v048
        BYTE           N96     Ds3
        BYTE           N96     Cn3
        BYTE   W96
// 040   ----------------------------------------
        BYTE           N72     Fn3   v072
        BYTE           N72     Dn3
        BYTE           N72     An2
        BYTE   W72
        BYTE           N24     Fn3   v064
        BYTE           N24     Dn3
        BYTE           N24     An2
        BYTE   W24
// 041   ----------------------------------------
        BYTE           N96     Fn3   v056
        BYTE           N96     Dn3
        BYTE           N96     An2
        BYTE   W96
// 042   ----------------------------------------
        BYTE           N72     Fn3   v064
        BYTE           N72     Dn3
        BYTE           N72     Cn3
        BYTE           N72     Gn2
        BYTE   W72
        BYTE           N24     Fn3   v056
        BYTE           N24     Dn3
        BYTE           N24     Cn3
        BYTE           N24     Gn2
        BYTE   W24
// 043   ----------------------------------------
        BYTE           N96     Fn3   v048
        BYTE           N96     Dn3
        BYTE           N96     Cn3
        BYTE           N96     Gn2
        BYTE   W96
// 044   ----------------------------------------
        BYTE                   Dn3   v064
        BYTE           N96     Gn2
        BYTE           N96     Dn2
        BYTE   W96
// 045   ----------------------------------------
        BYTE                   Dn3
        BYTE           N96     An2
        BYTE           N96     Gn2
        BYTE           N96     Dn2
        BYTE   W96
// 046   ----------------------------------------
        BYTE           TIE     An2   v060
        BYTE           TIE     Fs2
        BYTE           TIE     Dn3
        BYTE           TIE     Dn2
        BYTE   W96
// 047   ----------------------------------------
        BYTE   W72
        BYTE           EOT     Dn3
        BYTE   W06
        BYTE                   An2
        BYTE   W06
        BYTE                   Fs2
        BYTE   W06
        BYTE                   Dn2
        BYTE   W06
// 048   ----------------------------------------
        BYTE   W96
// 049   ----------------------------------------
        BYTE   W96
// 050   ----------------------------------------
        BYTE   W96
// 051   ----------------------------------------
        BYTE   W96
// 052   ----------------------------------------
        BYTE   W96
// 053   ----------------------------------------
        BYTE   W96
// 054   ----------------------------------------
        BYTE   W96
// 055   ----------------------------------------
        BYTE   W96
// 056   ----------------------------------------
        BYTE   W96
// 057   ----------------------------------------
        BYTE   W96
// 058   ----------------------------------------
        BYTE   W96
// 059   ----------------------------------------
        BYTE   W96
// 060   ----------------------------------------
        BYTE   W96
// 061   ----------------------------------------
        BYTE   W96
// 062   ----------------------------------------
        BYTE   W96
// 063   ----------------------------------------
        BYTE   W96
// 064   ----------------------------------------
        BYTE   W96
// 065   ----------------------------------------
        BYTE   W96
// 066   ----------------------------------------
        BYTE   W96
// 067   ----------------------------------------
        BYTE   W96
// 068   ----------------------------------------
        BYTE   W96
// 069   ----------------------------------------
        BYTE   W96
// 070   ----------------------------------------
        BYTE   W96
// 071   ----------------------------------------
        BYTE   W96
// 072   ----------------------------------------
        BYTE   W96
// 073   ----------------------------------------
        BYTE   W96
// 074   ----------------------------------------
        BYTE   W96
// 075   ----------------------------------------
        BYTE   W96
// 076   ----------------------------------------
        BYTE   W96
// 077   ----------------------------------------
        BYTE   W96
// 078   ----------------------------------------
        BYTE           N24     Fn3   v092
        BYTE   W24
        BYTE                   Fs3
        BYTE   W24
        BYTE           TIE     Ds3   v100
        BYTE   W48
// 079   ----------------------------------------
        BYTE   W96
// 080   ----------------------------------------
        BYTE   W96
// 081   ----------------------------------------
        BYTE           EOT
        BYTE           TIE     Gs3   v104
        BYTE   W96
// 082   ----------------------------------------
        BYTE   W96
// 083   ----------------------------------------
        BYTE           EOT
        BYTE           N96     As2
        BYTE           N96     Ds3
        BYTE   W96
// 084   ----------------------------------------
        BYTE   W96
// 085   ----------------------------------------
        BYTE   W96
// 086   ----------------------------------------
        BYTE   W96
// 087   ----------------------------------------
        BYTE   W96
// 088   ----------------------------------------
        BYTE   W96
// 089   ----------------------------------------
        BYTE   W96
// 090   ----------------------------------------
        BYTE   W96
// 091   ----------------------------------------
        BYTE   W96
// 092   ----------------------------------------
        BYTE   W96
// 093   ----------------------------------------
        BYTE   W96
// 094   ----------------------------------------
        BYTE   W96
// 095   ----------------------------------------
        BYTE   W96
// 096   ----------------------------------------
        BYTE   W96
// 097   ----------------------------------------
        BYTE   W96
// 098   ----------------------------------------
        BYTE   W96
// 099   ----------------------------------------
        BYTE   W96
// 100   ----------------------------------------
        BYTE   W96
// 101   ----------------------------------------
        BYTE   W96
// 102   ----------------------------------------
        BYTE   W96
// 103   ----------------------------------------
        BYTE   W92
        BYTE   W03
        BYTE           VOICE   36
        BYTE   W01
// 104   ----------------------------------------
        BYTE   W96
// 105   ----------------------------------------
        BYTE   W96
// 106   ----------------------------------------
        BYTE   W96
// 107   ----------------------------------------
        BYTE   W96
// 108   ----------------------------------------
        BYTE   PATT
         POIN2  SacrificeAndTheSaint_7_8
// 109   ----------------------------------------
        BYTE   PATT
         POIN2  SacrificeAndTheSaint_7_9
// 110   ----------------------------------------
        BYTE   PATT
         POIN2  SacrificeAndTheSaint_7_8
// 111   ----------------------------------------
        BYTE   PATT
         POIN2  SacrificeAndTheSaint_7_9
// 112   ----------------------------------------
        BYTE   PATT
         POIN2  SacrificeAndTheSaint_7_8
// 113   ----------------------------------------
        BYTE   PATT
         POIN2  SacrificeAndTheSaint_7_9
// 114   ----------------------------------------
        BYTE   PATT
         POIN2  SacrificeAndTheSaint_7_8
// 115   ----------------------------------------
        BYTE   PATT
         POIN2  SacrificeAndTheSaint_7_9
// 116   ----------------------------------------
        BYTE   PATT
         POIN2  SacrificeAndTheSaint_7_8
// 117   ----------------------------------------
        BYTE   PATT
         POIN2  SacrificeAndTheSaint_7_9
// 118   ----------------------------------------
        BYTE   PATT
         POIN2  SacrificeAndTheSaint_7_8
// 119   ----------------------------------------
        BYTE   PATT
         POIN2  SacrificeAndTheSaint_7_9
// 120   ----------------------------------------
        BYTE   GoTo
         POIN2  SacrificeAndTheSaint_7_LOOP
        BYTE   FINE


//********************** End of Song ***********************//

        ALIGN 4
SacrificeAndTheSaint:
        BYTE   8                       // Num Tracks
        BYTE   0                       // Unknown
        BYTE   SacrificeAndTheSaint_pri // Priority
        BYTE   SacrificeAndTheSaint_rev // Reverb

        POIN2   SacrificeAndTheSaint_grp

        POIN2   SacrificeAndTheSaint_0
        POIN2   SacrificeAndTheSaint_1
        POIN2   SacrificeAndTheSaint_2
        POIN2   SacrificeAndTheSaint_3
        POIN2   SacrificeAndTheSaint_4
        POIN2   SacrificeAndTheSaint_5
        POIN2   SacrificeAndTheSaint_6
        POIN2   SacrificeAndTheSaint_7

        
