//Event file generated from Sappy .s format.
        #include "MPlayDef.event"

        #define    SecondArmageddon_grp  voicegroup000
        #define    SecondArmageddon_pri  0
        #define    SecondArmageddon_rev  0
        #define    SecondArmageddon_key  0

        // .rodata
        // SecondArmageddon
        ALIGN 4

//****************** Track 0 (Midi-Chn.0) ******************//

SecondArmageddon_0:
        BYTE   KEYSH   SecondArmageddon_key+0
// 000   ----------------------------------------
        BYTE   TEMPO   140/2
        BYTE           VOICE   55
        BYTE           VOL     48
        BYTE           N05     Cn3   v080
        BYTE   W06
        BYTE                   Cn3   v110
        BYTE   W06
        BYTE           N10
        BYTE   W84
// 001   ----------------------------------------
        BYTE   W24
SecondArmageddon_0_LOOP:
        BYTE   W72
// 002   ----------------------------------------
        BYTE   W96
// 003   ----------------------------------------
        BYTE   W96
// 004   ----------------------------------------
        BYTE   W96
// 005   ----------------------------------------
        BYTE   W96
// 006   ----------------------------------------
        BYTE   W96
// 007   ----------------------------------------
        BYTE   W72
        BYTE           N05     Cn3   v110
        BYTE   W05
        BYTE           N18
        BYTE   W19
// 008   ----------------------------------------
        BYTE   W12
        BYTE           N05
        BYTE   W05
        BYTE           N18
        BYTE   W78
        BYTE   W01
// 009   ----------------------------------------
        BYTE   W96
// 010   ----------------------------------------
        BYTE   W96
// 011   ----------------------------------------
        BYTE   W96
// 012   ----------------------------------------
        BYTE   W96
// 013   ----------------------------------------
        BYTE   W96
// 014   ----------------------------------------
        BYTE   W96
// 015   ----------------------------------------
        BYTE   W96
// 016   ----------------------------------------
        BYTE   W96
// 017   ----------------------------------------
        BYTE   W96
// 018   ----------------------------------------
        BYTE   W96
// 019   ----------------------------------------
        BYTE   W96
// 020   ----------------------------------------
        BYTE   W96
// 021   ----------------------------------------
        BYTE   W96
// 022   ----------------------------------------
        BYTE   W96
// 023   ----------------------------------------
        BYTE   W96
// 024   ----------------------------------------
        BYTE   W96
// 025   ----------------------------------------
        BYTE   W96
// 026   ----------------------------------------
        BYTE   W96
// 027   ----------------------------------------
        BYTE   W96
// 028   ----------------------------------------
        BYTE   W96
// 029   ----------------------------------------
        BYTE   W96
// 030   ----------------------------------------
        BYTE   W96
// 031   ----------------------------------------
        BYTE   W96
// 032   ----------------------------------------
        BYTE   W96
// 033   ----------------------------------------
        BYTE   W96
// 034   ----------------------------------------
        BYTE   W96
// 035   ----------------------------------------
        BYTE   W96
// 036   ----------------------------------------
        BYTE   W96
// 037   ----------------------------------------
        BYTE   W96
// 038   ----------------------------------------
        BYTE   W96
// 039   ----------------------------------------
        BYTE   W72
        BYTE           N05
        BYTE   W06
        BYTE           N18
        BYTE   W18
// 040   ----------------------------------------
        BYTE   W12
        BYTE           N05
        BYTE   W06
        BYTE           N18
        BYTE   W78
// 041   ----------------------------------------
        BYTE   W24
        BYTE   GoTo
         POIN2  SecondArmageddon_0_LOOP
        BYTE   FINE

//****************** Track 1 (Midi-Chn.1) ******************//

SecondArmageddon_1:
        BYTE   KEYSH   SecondArmageddon_key+0
// 000   ----------------------------------------
        BYTE           VOICE   2
        BYTE           VOL     64
        BYTE           N05     Dn0   v080
        BYTE   W06
        BYTE                   Dn0   v084
        BYTE   W06
        BYTE           N10
        BYTE   W12
        BYTE           N17     Gs0   v076
        BYTE   W18
        BYTE           N05
        BYTE   W12
        BYTE                   Gs1   v067
        BYTE   W06
        BYTE                   Ds1   v071
        BYTE   W06
        BYTE                   Gn0   v063
        BYTE   W06
        BYTE           N17     Gs0   v076
        BYTE   W18
        BYTE           N05
        BYTE   W06
// 001   ----------------------------------------
        BYTE   W06
        BYTE                   Gs1   v067
        BYTE   W06
        BYTE                   Ds1   v071
        BYTE   W06
        BYTE                   Gn0   v063
        BYTE   W06
SecondArmageddon_1_LOOP:
        BYTE           N17     Gs0   v076
        BYTE   W18
        BYTE           N05
        BYTE   W12
        BYTE                   Gs1   v067
        BYTE   W06
        BYTE                   Ds1   v071
        BYTE   W06
        BYTE                   Gn0   v063
        BYTE   W06
        BYTE           N17     Gs0   v076
        BYTE   W18
        BYTE           N05
        BYTE   W06
// 002   ----------------------------------------
SecondArmageddon_1_2:
        BYTE   W06
        BYTE           N05     Gs1   v067
        BYTE   W06
        BYTE                   Ds1   v071
        BYTE   W06
        BYTE                   Gn0   v063
        BYTE   W06
        BYTE           N17     Gs0   v076
        BYTE   W18
        BYTE           N05
        BYTE   W12
        BYTE                   Gs1   v067
        BYTE   W06
        BYTE                   Ds1   v071
        BYTE   W06
        BYTE                   Gn0   v063
        BYTE   W06
        BYTE           N17     Gs0   v076
        BYTE   W18
        BYTE           N05
        BYTE   W06
        BYTE   PEND
// 003   ----------------------------------------
        BYTE   PATT
         POIN2  SecondArmageddon_1_2
// 004   ----------------------------------------
        BYTE   W06
        BYTE           N05     Gs1   v067
        BYTE   W06
        BYTE                   Ds1   v071
        BYTE   W06
        BYTE                   Gn0   v063
        BYTE   W06
        BYTE           N11     Gs1   v076
        BYTE   W12
        BYTE           N05     Gs2   v067
        BYTE   W06
        BYTE                   Gs1   v076
        BYTE   W06
        BYTE                   Gs1
        BYTE   W06
        BYTE                   Gs1
        BYTE   W06
        BYTE                   Gs2   v067
        BYTE   W06
        BYTE                   Gs1   v076
        BYTE   W06
        BYTE           N11     Gn1
        BYTE   W12
        BYTE           N05     Gn2   v067
        BYTE   W06
        BYTE                   Gn1   v076
        BYTE   W06
// 005   ----------------------------------------
        BYTE                   Gn1
        BYTE   W06
        BYTE                   Gn1
        BYTE   W06
        BYTE                   Gn2   v067
        BYTE   W06
        BYTE                   Gn1   v076
        BYTE   W06
        BYTE           N11     Fs1
        BYTE   W12
        BYTE           N05     Fs2   v067
        BYTE   W06
        BYTE                   Fs1   v076
        BYTE   W06
        BYTE                   Fs1
        BYTE   W06
        BYTE                   Fs1
        BYTE   W06
        BYTE                   Fs2   v067
        BYTE   W06
        BYTE                   Fs1   v076
        BYTE   W06
        BYTE           N11     Fn1
        BYTE   W12
        BYTE           N05     Fn2   v067
        BYTE   W06
        BYTE                   Fn1   v076
        BYTE   W06
// 006   ----------------------------------------
        BYTE                   Fn1
        BYTE   W06
        BYTE                   Fn1
        BYTE   W06
        BYTE                   Fn2   v067
        BYTE   W06
        BYTE                   Fn1   v076
        BYTE   W06
        BYTE           N11     En1
        BYTE   W12
        BYTE           N05     En2   v071
        BYTE   W06
        BYTE                   En1   v076
        BYTE   W06
        BYTE                   En1
        BYTE   W06
        BYTE                   En1
        BYTE   W06
        BYTE                   En2   v071
        BYTE   W06
        BYTE                   En1   v076
        BYTE   W06
        BYTE           N11     Ds1
        BYTE   W12
        BYTE           N05     Ds2   v071
        BYTE   W06
        BYTE                   Ds1   v076
        BYTE   W06
// 007   ----------------------------------------
        BYTE                   Ds1
        BYTE   W06
        BYTE                   Ds1
        BYTE   W06
        BYTE                   Ds2   v071
        BYTE   W06
        BYTE                   Ds1   v076
        BYTE   W06
        BYTE           N11     Cs1
        BYTE   W12
        BYTE           N05     Cs2   v071
        BYTE   W06
        BYTE                   Cs1   v076
        BYTE   W06
        BYTE                   Cs1
        BYTE   W06
        BYTE                   Cs1
        BYTE   W06
        BYTE                   Cs2   v071
        BYTE   W06
        BYTE                   Cs1   v076
        BYTE   W06
        BYTE                   Ds1   v084
        BYTE   W06
        BYTE                   Ds1
        BYTE   W18
// 008   ----------------------------------------
        BYTE   W12
        BYTE                   Ds1
        BYTE   W06
        BYTE                   Ds1
        BYTE   W06
        BYTE                   En1   v076
        BYTE   W06
        BYTE                   En1
        BYTE   W06
        BYTE                   En2
        BYTE   W06
        BYTE                   En1
        BYTE   W06
        BYTE                   En1
        BYTE   W06
        BYTE                   En2
        BYTE   W06
        BYTE                   En1
        BYTE   W06
        BYTE                   En2
        BYTE   W06
        BYTE                   En1
        BYTE   W06
        BYTE                   En2
        BYTE   W06
        BYTE                   En1
        BYTE   W06
        BYTE                   En1
        BYTE   W06
// 009   ----------------------------------------
SecondArmageddon_1_9:
        BYTE           N05     En1   v076
        BYTE   W06
        BYTE                   En1
        BYTE   W06
        BYTE                   En2
        BYTE   W06
        BYTE                   En1
        BYTE   W06
        BYTE                   Ds1
        BYTE   W06
        BYTE                   Ds1
        BYTE   W06
        BYTE                   Ds2
        BYTE   W06
        BYTE                   Ds1
        BYTE   W06
        BYTE                   Ds1
        BYTE   W06
        BYTE                   Ds2
        BYTE   W06
        BYTE                   Ds1
        BYTE   W06
        BYTE                   Ds2
        BYTE   W06
        BYTE                   Ds1
        BYTE   W06
        BYTE                   Ds2
        BYTE   W06
        BYTE                   Ds1
        BYTE   W06
        BYTE                   Ds1
        BYTE   W06
        BYTE   PEND
// 010   ----------------------------------------
SecondArmageddon_1_10:
        BYTE           N05     Ds1   v076
        BYTE   W06
        BYTE                   Ds1
        BYTE   W06
        BYTE                   Ds2
        BYTE   W06
        BYTE                   Ds1
        BYTE   W06
        BYTE                   En1
        BYTE   W06
        BYTE                   En1
        BYTE   W06
        BYTE                   En2
        BYTE   W06
        BYTE                   En1
        BYTE   W06
        BYTE                   En1
        BYTE   W06
        BYTE                   En2
        BYTE   W06
        BYTE                   En1
        BYTE   W06
        BYTE                   En2
        BYTE   W06
        BYTE                   En1
        BYTE   W06
        BYTE                   En2
        BYTE   W06
        BYTE                   En1
        BYTE   W06
        BYTE                   En1
        BYTE   W06
        BYTE   PEND
// 011   ----------------------------------------
        BYTE   PATT
         POIN2  SecondArmageddon_1_9
// 012   ----------------------------------------
SecondArmageddon_1_12:
        BYTE           N05     Ds1   v076
        BYTE   W06
        BYTE                   Ds1
        BYTE   W06
        BYTE                   Ds2
        BYTE   W06
        BYTE                   Ds1
        BYTE   W06
        BYTE                   Cs1
        BYTE   W06
        BYTE                   Cs1
        BYTE   W06
        BYTE                   Cs2
        BYTE   W06
        BYTE                   Cs1
        BYTE   W06
        BYTE                   Cs1
        BYTE   W06
        BYTE                   Cs2
        BYTE   W06
        BYTE                   Cs1
        BYTE   W06
        BYTE                   Cs2
        BYTE   W06
        BYTE                   Cs1
        BYTE   W06
        BYTE                   Cs2
        BYTE   W06
        BYTE                   Cs1
        BYTE   W06
        BYTE                   Cs1
        BYTE   W06
        BYTE   PEND
// 013   ----------------------------------------
        BYTE                   Cs1
        BYTE   W06
        BYTE                   Cs1
        BYTE   W06
        BYTE                   Cs2
        BYTE   W06
        BYTE                   Cs1
        BYTE   W06
        BYTE                   Ds1
        BYTE   W06
        BYTE                   Ds1
        BYTE   W06
        BYTE                   Ds2
        BYTE   W06
        BYTE                   Ds1
        BYTE   W06
        BYTE                   Ds1
        BYTE   W06
        BYTE                   Ds2
        BYTE   W06
        BYTE                   Ds1
        BYTE   W06
        BYTE                   Ds2
        BYTE   W06
        BYTE                   Ds1
        BYTE   W06
        BYTE                   Ds2
        BYTE   W06
        BYTE                   Ds1
        BYTE   W06
        BYTE                   Ds1
        BYTE   W06
// 014   ----------------------------------------
        BYTE                   Ds1
        BYTE   W06
        BYTE                   Ds1
        BYTE   W06
        BYTE                   Ds2
        BYTE   W06
        BYTE                   Ds1
        BYTE   W06
        BYTE                   Gs1
        BYTE   W06
        BYTE                   Gs1
        BYTE   W06
        BYTE                   Gs2
        BYTE   W06
        BYTE                   Gs1
        BYTE   W06
        BYTE                   Gs1
        BYTE   W06
        BYTE                   Gs1
        BYTE   W06
        BYTE                   Gs2
        BYTE   W06
        BYTE                   Gs1
        BYTE   W06
        BYTE                   Gn2
        BYTE   W06
        BYTE                   Gn1
        BYTE   W06
        BYTE                   Gn2
        BYTE   W06
        BYTE                   Gn1
        BYTE   W06
// 015   ----------------------------------------
        BYTE                   Gn1
        BYTE   W06
        BYTE                   Gn1
        BYTE   W06
        BYTE                   Gn2
        BYTE   W06
        BYTE                   Gn1
        BYTE   W06
        BYTE                   Fs1
        BYTE   W06
        BYTE                   Fs1
        BYTE   W06
        BYTE                   Fs2
        BYTE   W06
        BYTE                   Fs1
        BYTE   W06
        BYTE                   Fs1
        BYTE   W06
        BYTE                   Fs2
        BYTE   W06
        BYTE                   Fs1
        BYTE   W06
        BYTE                   Fn2
        BYTE   W06
        BYTE                   Fn1
        BYTE   W06
        BYTE                   Fn2
        BYTE   W06
        BYTE                   Fn1
        BYTE   W06
        BYTE                   Fn1
        BYTE   W06
// 016   ----------------------------------------
        BYTE                   Fn2
        BYTE   W06
        BYTE                   Fn1
        BYTE   W06
        BYTE                   Fn2
        BYTE   W06
        BYTE                   Fn1
        BYTE   W06
        BYTE                   En1
        BYTE   W06
        BYTE                   En1
        BYTE   W06
        BYTE                   En2
        BYTE   W06
        BYTE                   En1
        BYTE   W06
        BYTE                   En1
        BYTE   W06
        BYTE                   En2
        BYTE   W06
        BYTE                   En1
        BYTE   W06
        BYTE                   En2
        BYTE   W06
        BYTE                   En1
        BYTE   W06
        BYTE                   En2
        BYTE   W06
        BYTE                   En1
        BYTE   W06
        BYTE                   En1
        BYTE   W06
// 017   ----------------------------------------
        BYTE   PATT
         POIN2  SecondArmageddon_1_9
// 018   ----------------------------------------
        BYTE   PATT
         POIN2  SecondArmageddon_1_10
// 019   ----------------------------------------
        BYTE   PATT
         POIN2  SecondArmageddon_1_9
// 020   ----------------------------------------
        BYTE           N05     Ds1   v076
        BYTE   W06
        BYTE                   Ds1
        BYTE   W06
        BYTE                   Ds2
        BYTE   W06
        BYTE                   Ds1
        BYTE   W06
        BYTE                   As1
        BYTE   W06
        BYTE                   As1
        BYTE   W06
        BYTE                   As2
        BYTE   W06
        BYTE                   As1
        BYTE   W06
        BYTE                   As1
        BYTE   W06
        BYTE                   As2
        BYTE   W06
        BYTE                   As1
        BYTE   W06
        BYTE                   As2
        BYTE   W06
        BYTE                   As1
        BYTE   W06
        BYTE                   As2
        BYTE   W06
        BYTE                   As1
        BYTE   W06
        BYTE                   As1
        BYTE   W06
// 021   ----------------------------------------
        BYTE                   As1
        BYTE   W06
        BYTE                   As1
        BYTE   W06
        BYTE                   As2
        BYTE   W06
        BYTE                   As1
        BYTE   W06
        BYTE                   Cs1
        BYTE   W06
        BYTE                   Cs1
        BYTE   W06
        BYTE                   Cs2
        BYTE   W06
        BYTE                   Cs1
        BYTE   W06
        BYTE                   Cs1
        BYTE   W06
        BYTE                   Cs2
        BYTE   W06
        BYTE                   Cs1
        BYTE   W06
        BYTE                   Ds2
        BYTE   W06
        BYTE                   Ds1
        BYTE   W06
        BYTE                   Ds2
        BYTE   W06
        BYTE                   Ds1
        BYTE   W06
        BYTE                   Ds1
        BYTE   W06
// 022   ----------------------------------------
        BYTE                   Ds2
        BYTE   W06
        BYTE                   Ds1
        BYTE   W06
        BYTE                   Ds2
        BYTE   W06
        BYTE                   Ds1
        BYTE   W06
        BYTE                   En1
        BYTE   W06
        BYTE                   En1
        BYTE   W06
        BYTE                   En2
        BYTE   W06
        BYTE                   En1
        BYTE   W06
        BYTE                   En1
        BYTE   W06
        BYTE                   En2
        BYTE   W06
        BYTE                   En1
        BYTE   W06
        BYTE                   En2
        BYTE   W06
        BYTE                   Fs1
        BYTE   W06
        BYTE                   Fs1
        BYTE   W06
        BYTE                   Fs2
        BYTE   W06
        BYTE                   Fs1
        BYTE   W06
// 023   ----------------------------------------
        BYTE                   Fs1
        BYTE   W06
        BYTE                   Fs2
        BYTE   W06
        BYTE                   Fs1
        BYTE   W06
        BYTE                   Fs1
        BYTE   W06
        BYTE                   Gs1
        BYTE   W06
        BYTE                   Gs1
        BYTE   W06
        BYTE                   Gs2
        BYTE   W06
        BYTE                   Gs1
        BYTE   W06
        BYTE                   Gs1
        BYTE   W06
        BYTE                   Gs2
        BYTE   W06
        BYTE                   Gs1
        BYTE   W06
        BYTE                   Gs2
        BYTE   W06
        BYTE                   Gs1
        BYTE   W06
        BYTE                   Gs2
        BYTE   W06
        BYTE                   Gs1
        BYTE   W06
        BYTE                   Gs1
        BYTE   W06
// 024   ----------------------------------------
        BYTE                   Fs2
        BYTE   W06
        BYTE                   Fs1
        BYTE   W06
        BYTE                   Fs2
        BYTE   W06
        BYTE                   Fs1
        BYTE   W06
        BYTE                   En1
        BYTE   W06
        BYTE                   En1
        BYTE   W06
        BYTE                   En2
        BYTE   W06
        BYTE                   En1
        BYTE   W06
        BYTE                   En1
        BYTE   W06
        BYTE                   En2
        BYTE   W06
        BYTE                   En1
        BYTE   W06
        BYTE                   En2
        BYTE   W06
        BYTE                   En1
        BYTE   W06
        BYTE                   En2
        BYTE   W06
        BYTE                   En1
        BYTE   W06
        BYTE                   En1
        BYTE   W06
// 025   ----------------------------------------
        BYTE   PATT
         POIN2  SecondArmageddon_1_9
// 026   ----------------------------------------
        BYTE   PATT
         POIN2  SecondArmageddon_1_10
// 027   ----------------------------------------
SecondArmageddon_1_27:
        BYTE           N05     En1   v076
        BYTE   W06
        BYTE                   En2
        BYTE   W06
        BYTE                   En1
        BYTE   W06
        BYTE                   En1
        BYTE   W06
        BYTE                   Ds1
        BYTE   W06
        BYTE                   Ds1
        BYTE   W06
        BYTE                   Ds2
        BYTE   W06
        BYTE                   Ds1
        BYTE   W06
        BYTE                   Ds1
        BYTE   W06
        BYTE                   Ds2
        BYTE   W06
        BYTE                   Ds1
        BYTE   W06
        BYTE                   Ds2
        BYTE   W06
        BYTE                   Ds1
        BYTE   W06
        BYTE                   Ds2
        BYTE   W06
        BYTE                   Ds1
        BYTE   W06
        BYTE                   Ds1
        BYTE   W06
        BYTE   PEND
// 028   ----------------------------------------
SecondArmageddon_1_28:
        BYTE           N05     Ds2   v076
        BYTE   W06
        BYTE                   Ds1
        BYTE   W06
        BYTE                   Ds2
        BYTE   W06
        BYTE                   Ds1
        BYTE   W06
        BYTE                   En1
        BYTE   W06
        BYTE                   En1
        BYTE   W06
        BYTE                   En2
        BYTE   W06
        BYTE                   En1
        BYTE   W06
        BYTE                   En1
        BYTE   W06
        BYTE                   En2
        BYTE   W06
        BYTE                   En1
        BYTE   W06
        BYTE                   En2
        BYTE   W06
        BYTE                   En1
        BYTE   W06
        BYTE                   En2
        BYTE   W06
        BYTE                   En1
        BYTE   W06
        BYTE                   En1
        BYTE   W06
        BYTE   PEND
// 029   ----------------------------------------
        BYTE   PATT
         POIN2  SecondArmageddon_1_9
// 030   ----------------------------------------
        BYTE   PATT
         POIN2  SecondArmageddon_1_12
// 031   ----------------------------------------
        BYTE           N05     Cs1   v076
        BYTE   W06
        BYTE                   Cs2
        BYTE   W06
        BYTE                   Cs1
        BYTE   W06
        BYTE                   Cs1
        BYTE   W06
        BYTE                   Ds1
        BYTE   W06
        BYTE                   Ds1
        BYTE   W06
        BYTE                   Ds2
        BYTE   W06
        BYTE                   Ds1
        BYTE   W06
        BYTE                   Ds1
        BYTE   W06
        BYTE                   Ds2
        BYTE   W06
        BYTE                   Ds1
        BYTE   W06
        BYTE                   Ds2
        BYTE   W06
        BYTE                   Ds1
        BYTE   W06
        BYTE                   Ds2
        BYTE   W06
        BYTE                   Ds1
        BYTE   W06
        BYTE                   Ds1
        BYTE   W06
// 032   ----------------------------------------
        BYTE   PATT
         POIN2  SecondArmageddon_1_28
// 033   ----------------------------------------
        BYTE   PATT
         POIN2  SecondArmageddon_1_9
// 034   ----------------------------------------
        BYTE   PATT
         POIN2  SecondArmageddon_1_10
// 035   ----------------------------------------
        BYTE   PATT
         POIN2  SecondArmageddon_1_27
// 036   ----------------------------------------
        BYTE   PATT
         POIN2  SecondArmageddon_1_28
// 037   ----------------------------------------
        BYTE   PATT
         POIN2  SecondArmageddon_1_9
// 038   ----------------------------------------
        BYTE           N05     Ds1   v076
        BYTE   W06
        BYTE                   Ds1
        BYTE   W06
        BYTE                   Ds2
        BYTE   W06
        BYTE                   Ds1
        BYTE   W06
        BYTE                   Cn1   v080
        BYTE   W06
        BYTE                   Cn1
        BYTE   W06
        BYTE                   Cn2   v076
        BYTE   W06
        BYTE                   Cn1   v080
        BYTE   W06
        BYTE                   Cn1
        BYTE   W06
        BYTE                   Cn2   v076
        BYTE   W06
        BYTE                   Cn1   v080
        BYTE   W06
        BYTE                   Cn2   v076
        BYTE   W06
        BYTE                   Cn1   v080
        BYTE   W06
        BYTE                   Cn2   v076
        BYTE   W06
        BYTE                   Cn1   v080
        BYTE   W06
        BYTE                   Cn1
        BYTE   W06
// 039   ----------------------------------------
        BYTE                   Cn1
        BYTE   W06
        BYTE                   Cn2   v076
        BYTE   W06
        BYTE                   Cn1   v080
        BYTE   W06
        BYTE                   Cn1
        BYTE   W06
        BYTE                   Cs1   v076
        BYTE   W06
        BYTE                   Cs1
        BYTE   W06
        BYTE                   Cs2
        BYTE   W06
        BYTE                   Cs1
        BYTE   W06
        BYTE                   Cs1
        BYTE   W06
        BYTE                   Cs2
        BYTE   W06
        BYTE                   Cs1
        BYTE   W06
        BYTE                   Cs2
        BYTE   W06
        BYTE                   Ds1
        BYTE   W06
        BYTE                   Ds2
        BYTE   W06
        BYTE                   Ds1
        BYTE   W06
        BYTE                   Ds1
        BYTE   W06
// 040   ----------------------------------------
        BYTE                   Ds2
        BYTE   W06
        BYTE                   Ds1
        BYTE   W06
        BYTE                   Ds2
        BYTE   W06
        BYTE                   Ds1
        BYTE   W06
        BYTE           N17     Gs0
        BYTE   W18
        BYTE           N05
        BYTE   W12
        BYTE                   Gs1   v067
        BYTE   W06
        BYTE                   Ds1   v071
        BYTE   W06
        BYTE                   Gn0   v063
        BYTE   W06
        BYTE           N17     Gs0   v076
        BYTE   W18
        BYTE           N05
        BYTE   W06
// 041   ----------------------------------------
        BYTE   W06
        BYTE                   Gs1   v067
        BYTE   W06
        BYTE                   Ds1   v071
        BYTE   W06
        BYTE                   Gn0   v063
        BYTE   W06
        BYTE   GoTo
         POIN2  SecondArmageddon_1_LOOP
        BYTE   FINE

//****************** Track 2 (Midi-Chn.2) ******************//

SecondArmageddon_2:
        BYTE   KEYSH   SecondArmageddon_key+0
// 000   ----------------------------------------
        BYTE           VOICE   56
        BYTE           VOL     66
        BYTE   W24
        BYTE           N80     Ds4   v076   gtp3
        BYTE   W72
// 001   ----------------------------------------
        BYTE   W12
        BYTE           N05     As3
        BYTE   W06
        BYTE                   Bn3
        BYTE   W06
SecondArmageddon_2_LOOP:
        BYTE           N80     Cs4   v076   gtp3
        BYTE   W72
// 002   ----------------------------------------
        BYTE   W12
        BYTE           N05     As3
        BYTE   W06
        BYTE                   Bn3
        BYTE   W06
        BYTE           N80     As3   v076   gtp3
        BYTE   W72
// 003   ----------------------------------------
        BYTE   W12
        BYTE           N05     Bn3
        BYTE   W06
        BYTE                   Cs4
        BYTE   W06
        BYTE           N68     Bn3   v076   gtp3
        BYTE   W72
// 004   ----------------------------------------
        BYTE           N23     Cs4
        BYTE   W24
        BYTE           N32     Gs4
        BYTE   W32
        BYTE   W01
        BYTE           N02     Dn4   v084
        BYTE   W03
        BYTE           N05     Ds4
        BYTE   W06
        BYTE                   Cs4   v076
        BYTE   W06
        BYTE           N32     Bn3   v076   gtp3
        BYTE   W24
// 005   ----------------------------------------
        BYTE   W12
        BYTE           N05     As3
        BYTE   W06
        BYTE                   Bn3
        BYTE   W06
        BYTE           N17     Cs4
        BYTE   W18
        BYTE                   As3
        BYTE   W18
        BYTE           N11     Bn3
        BYTE   W12
        BYTE           N17     As3
        BYTE   W18
        BYTE                   Gs3
        BYTE   W06
// 006   ----------------------------------------
        BYTE   W12
        BYTE           N05
        BYTE   W06
        BYTE                   As3
        BYTE   W06
        BYTE           N32     Bn3   v076   gtp3
        BYTE   W36
        BYTE           N05     As3
        BYTE   W06
        BYTE                   Gs3
        BYTE   W06
        BYTE           N23     As3
        BYTE   W24
// 007   ----------------------------------------
        BYTE                   Fs3
        BYTE   W24
        BYTE           N44     Gs3   v076   gtp3
        BYTE   W48
        BYTE           N05     Fs4   v084
        BYTE   W06
        BYTE                   Fs4
        BYTE   W18
// 008   ----------------------------------------
        BYTE   W12
        BYTE                   Fs4
        BYTE   W06
        BYTE                   Fs4
        BYTE   W06
        BYTE           VOICE   75
        BYTE           N17     Bn3   v076
        BYTE   W18
        BYTE                   Cs4
        BYTE   W18
        BYTE           N05     Fs3
        BYTE   W06
        BYTE                   Gn3
        BYTE   W06
        BYTE           N17     Gs3
        BYTE   W18
        BYTE                   Bn3
        BYTE   W06
// 009   ----------------------------------------
SecondArmageddon_2_9:
        BYTE   W12
        BYTE           N11     Cs4   v076
        BYTE   W12
        BYTE           N44     Ds4   v076   gtp3
        BYTE   W48
        BYTE           N23     As3
        BYTE   W24
        BYTE   PEND
// 010   ----------------------------------------
SecondArmageddon_2_10:
        BYTE           N23     Fs3   v076
        BYTE   W24
        BYTE           N17     Bn3
        BYTE   W18
        BYTE                   Cs4
        BYTE   W18
        BYTE           N05     Fs3
        BYTE   W06
        BYTE                   Gn3
        BYTE   W06
        BYTE           N17     Gs3
        BYTE   W18
        BYTE                   Bn3
        BYTE   W06
        BYTE   PEND
// 011   ----------------------------------------
SecondArmageddon_2_11:
        BYTE   W12
        BYTE           N11     Cs4   v076
        BYTE   W12
        BYTE           N44     Ds4   v076   gtp3
        BYTE   W48
        BYTE           N23     Fs4
        BYTE   W24
        BYTE   PEND
// 012   ----------------------------------------
        BYTE                   Ds4
        BYTE   W24
        BYTE           N32     Cs4   v076   gtp3
        BYTE   W36
        BYTE           N05     Bn3
        BYTE   W06
        BYTE                   As3
        BYTE   W06
        BYTE                   Gs3
        BYTE   W14
        BYTE           N15     Fs4   v071
        BYTE   W10
// 013   ----------------------------------------
        BYTE   W06
        BYTE           N17
        BYTE   W18
        BYTE           N32     Ds4   v076   gtp3
        BYTE   W36
        BYTE           N05     Cs4
        BYTE   W06
        BYTE                   Ds4
        BYTE   W06
        BYTE           N23     Fs3
        BYTE   W24
// 014   ----------------------------------------
        BYTE                   Cs4
        BYTE   W24
        BYTE           TIE     Bn3
        BYTE   W72
// 015   ----------------------------------------
        BYTE   W96
// 016   ----------------------------------------
        BYTE   W14
        BYTE           EOT
        BYTE   W10
        BYTE           N17
        BYTE   W18
        BYTE                   Cs4
        BYTE   W18
        BYTE           N05     Fs3
        BYTE   W06
        BYTE                   Gn3
        BYTE   W06
        BYTE           N17     Gs3
        BYTE   W18
        BYTE                   Bn3
        BYTE   W06
// 017   ----------------------------------------
        BYTE   PATT
         POIN2  SecondArmageddon_2_9
// 018   ----------------------------------------
        BYTE   PATT
         POIN2  SecondArmageddon_2_10
// 019   ----------------------------------------
        BYTE   PATT
         POIN2  SecondArmageddon_2_11
// 020   ----------------------------------------
        BYTE           N23     Ds4   v076
        BYTE   W24
        BYTE           N32     Gs4   v076   gtp3
        BYTE   W36
        BYTE           N05     Fs4
        BYTE   W06
        BYTE                   Gs4
        BYTE   W06
        BYTE           N15     Ds4
        BYTE   W16
        BYTE                   Cs4
        BYTE   W08
// 021   ----------------------------------------
        BYTE   W08
        BYTE                   Fs4
        BYTE   W16
        BYTE           N32     Ds4   v076   gtp3
        BYTE   W36
        BYTE           N05     Cs4
        BYTE   W06
        BYTE                   Ds4
        BYTE   W06
        BYTE           N22     As3
        BYTE   W24
// 022   ----------------------------------------
        BYTE                   Fs3
        BYTE   W24
        BYTE           TIE     Gs3
        BYTE   W72
// 023   ----------------------------------------
        BYTE   W96
// 024   ----------------------------------------
        BYTE   W04
        BYTE           EOT
        BYTE   W20
        BYTE           VOICE   20
        BYTE           N44     Ds4   v076   gtp3
        BYTE   W48
        BYTE           N23     Gs4   v080
        BYTE   W24
// 025   ----------------------------------------
SecondArmageddon_2_25:
        BYTE           N23     Ds4   v076
        BYTE   W24
        BYTE           N44     Cs4   v076   gtp3
        BYTE   W48
        BYTE                   As3   v080
        BYTE   W24
        BYTE   PEND
// 026   ----------------------------------------
SecondArmageddon_2_26:
        BYTE   W24
        BYTE           N44     Bn3   v071   gtp3
        BYTE   W48
        BYTE           N23     Fs4   v080
        BYTE   W24
        BYTE   PEND
// 027   ----------------------------------------
SecondArmageddon_2_27:
        BYTE           N11     En4   v076
        BYTE   W12
        BYTE                   Ds4
        BYTE   W12
        BYTE           N44     Ds4   v080   gtp3
        BYTE   W48
        BYTE           N23     Cs4   v076
        BYTE   W24
        BYTE   PEND
// 028   ----------------------------------------
        BYTE                   As3   v080
        BYTE   W24
        BYTE           N68     Bn3   v071   gtp3
        BYTE   W72
// 029   ----------------------------------------
        BYTE           N11     Cs4   v080
        BYTE   W12
        BYTE                   Bn3   v076
        BYTE   W12
        BYTE           N44     As3   v076   gtp3
        BYTE   W48
        BYTE                   Fs3
        BYTE   W24
// 030   ----------------------------------------
SecondArmageddon_2_30:
        BYTE   W24
        BYTE           N92     Gs3   v076   gtp3
        BYTE   W72
        BYTE   PEND
// 031   ----------------------------------------
        BYTE   W24
        BYTE           N80     As3   v076   gtp1
        BYTE   W72
// 032   ----------------------------------------
        BYTE   W24
        BYTE           N44     Ds4   v076   gtp3
        BYTE   W48
        BYTE           N23     Gs4   v080
        BYTE   W24
// 033   ----------------------------------------
        BYTE   PATT
         POIN2  SecondArmageddon_2_25
// 034   ----------------------------------------
        BYTE   PATT
         POIN2  SecondArmageddon_2_26
// 035   ----------------------------------------
        BYTE   PATT
         POIN2  SecondArmageddon_2_27
// 036   ----------------------------------------
        BYTE           N23     As3   v080
        BYTE   W24
        BYTE           N68     Bn3   v076   gtp3
        BYTE   W72
// 037   ----------------------------------------
        BYTE           N11     Cs4
        BYTE   W12
        BYTE                   Bn3
        BYTE   W12
        BYTE           N44     As3   v076   gtp3
        BYTE   W48
        BYTE                   Fs3
        BYTE   W24
// 038   ----------------------------------------
SecondArmageddon_2_38:
        BYTE   W24
        BYTE           N92     Ds4   v076   gtp3
        BYTE   W72
        BYTE   PEND
// 039   ----------------------------------------
        BYTE   W24
        BYTE           N44     En4   v080   gtp3
        BYTE   W48
        BYTE                   Fs4
        BYTE   W24
// 040   ----------------------------------------
        BYTE   W24
        BYTE           VOICE   56
        BYTE           N80     Ds4   v076   gtp3
        BYTE   W72
// 041   ----------------------------------------
        BYTE   W12
        BYTE           N05     As3
        BYTE   W06
        BYTE                   Bn3
        BYTE   W06
        BYTE   GoTo
         POIN2  SecondArmageddon_2_LOOP
        BYTE   FINE

//****************** Track 3 (Midi-Chn.3) ******************//

SecondArmageddon_3:
        BYTE   KEYSH   SecondArmageddon_key+0
// 000   ----------------------------------------
        BYTE           VOICE   61
        BYTE           VOL     51
        BYTE   W24
        BYTE                   48
        BYTE           PAN     c_v+25
        BYTE           N80     Bn3   v076   gtp3
        BYTE   W72
// 001   ----------------------------------------
        BYTE   W12
        BYTE           N05     As3
        BYTE   W06
        BYTE                   Bn3
        BYTE   W06
SecondArmageddon_3_LOOP:
        BYTE           N80     Gs3   v076   gtp3
        BYTE   W72
// 002   ----------------------------------------
        BYTE   W12
        BYTE           N05
        BYTE   W06
        BYTE                   Gs3
        BYTE   W06
        BYTE           N80     Ds3   v076   gtp3
        BYTE   W72
// 003   ----------------------------------------
        BYTE   W12
        BYTE           N05
        BYTE   W06
        BYTE                   Gs3
        BYTE   W06
        BYTE           N68     Gs3   v076   gtp3
        BYTE   W72
// 004   ----------------------------------------
        BYTE           N23
        BYTE   W24
        BYTE           N32     Ds4   v076   gtp3
        BYTE   W36
        BYTE           N05     Bn3
        BYTE   W06
        BYTE                   Gs3
        BYTE   W06
        BYTE           N32     Gn3   v076   gtp3
        BYTE   W24
// 005   ----------------------------------------
        BYTE   W12
        BYTE           N05
        BYTE   W06
        BYTE                   Gn3
        BYTE   W06
        BYTE           N17     Fs3
        BYTE   W18
        BYTE                   Fs3
        BYTE   W18
        BYTE           N11
        BYTE   W12
        BYTE           N17     Fn3
        BYTE   W18
        BYTE                   Ds3
        BYTE   W06
// 006   ----------------------------------------
        BYTE   W12
        BYTE           N05     Fn3
        BYTE   W06
        BYTE                   Fs3
        BYTE   W06
        BYTE           N32     Gs3   v076   gtp3
        BYTE   W36
        BYTE           N05     Fs3
        BYTE   W06
        BYTE                   En3
        BYTE   W06
        BYTE           N23     Fs3
        BYTE   W24
// 007   ----------------------------------------
        BYTE                   Cs3
        BYTE   W24
        BYTE           N44     En3   v076   gtp3
        BYTE   W48
        BYTE           N05     Gn3   v084
        BYTE   W06
        BYTE                   Gn3
        BYTE   W18
// 008   ----------------------------------------
        BYTE   W12
        BYTE                   Gn3
        BYTE   W06
        BYTE                   Gn3
        BYTE   W06
        BYTE           VOL     50
        BYTE           VOICE   7
        BYTE           N04     En4   v076
        BYTE           PAN     c_v+42
        BYTE   W01
        BYTE                   c_v+41
        BYTE   W01
        BYTE                   c_v+40
        BYTE   W01
        BYTE                   c_v+39
        BYTE   W02
        BYTE                   c_v+38
        BYTE   W01
        BYTE                   c_v+37
        BYTE           N04     Gs4
        BYTE   W01
        BYTE           PAN     c_v+36
        BYTE   W01
        BYTE                   c_v+35
        BYTE   W01
        BYTE                   c_v+34
        BYTE   W01
        BYTE                   c_v+33
        BYTE   W01
        BYTE                   c_v+32
        BYTE   W01
        BYTE           N04     Bn4
        BYTE           PAN     c_v+31
        BYTE   W01
        BYTE                   c_v+30
        BYTE   W02
        BYTE                   c_v+29
        BYTE   W01
        BYTE                   c_v+28
        BYTE   W01
        BYTE                   c_v+27
        BYTE   W01
        BYTE                   c_v+26
        BYTE           N04     Ds4
        BYTE   W01
        BYTE           PAN     c_v+25
        BYTE   W01
        BYTE                   c_v+24
        BYTE   W01
        BYTE                   c_v+23
        BYTE   W01
        BYTE                   c_v+22
        BYTE   W02
        BYTE                   c_v+21
        BYTE           N04     En4
        BYTE   W01
        BYTE           PAN     c_v+20
        BYTE   W01
        BYTE                   c_v+19
        BYTE   W01
        BYTE                   c_v+18
        BYTE   W01
        BYTE                   c_v+17
        BYTE   W01
        BYTE                   c_v+16
        BYTE   W01
        BYTE           N04     Gs4
        BYTE           PAN     c_v+15
        BYTE   W01
        BYTE                   c_v+14
        BYTE   W01
        BYTE                   c_v+13
        BYTE   W02
        BYTE                   c_v+12
        BYTE   W01
        BYTE                   c_v+11
        BYTE   W01
        BYTE                   c_v+10
        BYTE           N04     Bn4
        BYTE   W01
        BYTE           PAN     c_v+9
        BYTE   W01
        BYTE                   c_v+8
        BYTE   W01
        BYTE                   c_v+7
        BYTE   W01
        BYTE                   c_v+6
        BYTE   W01
        BYTE                   c_v+5
        BYTE   W01
        BYTE           N04     Ds4
        BYTE           PAN     c_v+4
        BYTE   W02
        BYTE                   c_v+3
        BYTE   W01
        BYTE                   c_v+2
        BYTE   W01
        BYTE                   c_v+1
        BYTE   W01
        BYTE                   c_v+0
        BYTE   W01
        BYTE           N04     En4
        BYTE           PAN     c_v-1
        BYTE   W01
        BYTE                   c_v-2
        BYTE   W01
        BYTE                   c_v-3
        BYTE   W01
        BYTE                   c_v-4
        BYTE   W02
        BYTE                   c_v-5
        BYTE   W01
        BYTE                   c_v-6
        BYTE           N04     Gs4
        BYTE   W01
        BYTE           PAN     c_v-7
        BYTE   W01
        BYTE                   c_v-8
        BYTE   W01
        BYTE                   c_v-9
        BYTE   W01
        BYTE                   c_v-10
        BYTE   W01
        BYTE                   c_v-11
        BYTE   W01
        BYTE           N04     Bn4
        BYTE           PAN     c_v-12
        BYTE   W01
        BYTE                   c_v-13
        BYTE   W02
        BYTE                   c_v-14
        BYTE   W01
        BYTE                   c_v-15
        BYTE   W01
        BYTE                   c_v-16
        BYTE   W01
        BYTE                   c_v-17
        BYTE           N04     Gs4
        BYTE   W01
        BYTE           PAN     c_v-18
        BYTE   W01
        BYTE                   c_v-19
        BYTE   W01
        BYTE                   c_v-20
        BYTE   W01
        BYTE                   c_v-21
        BYTE   W02
// 009   ----------------------------------------
SecondArmageddon_3_9:
        BYTE           PAN     c_v-22
        BYTE           N04     Ds4   v076
        BYTE   W01
        BYTE           PAN     c_v-23
        BYTE   W01
        BYTE                   c_v-24
        BYTE   W01
        BYTE                   c_v-25
        BYTE   W01
        BYTE                   c_v-26
        BYTE   W01
        BYTE                   c_v-27
        BYTE   W01
        BYTE           N04     Bn4
        BYTE           PAN     c_v-28
        BYTE   W01
        BYTE                   c_v-29
        BYTE   W01
        BYTE                   c_v-30
        BYTE   W02
        BYTE                   c_v-31
        BYTE   W01
        BYTE                   c_v-32
        BYTE   W01
        BYTE                   c_v-33
        BYTE           N04     Gs4
        BYTE   W01
        BYTE           PAN     c_v-34
        BYTE   W01
        BYTE                   c_v-35
        BYTE   W01
        BYTE                   c_v-36
        BYTE   W01
        BYTE                   c_v-37
        BYTE   W01
        BYTE                   c_v-38
        BYTE   W01
        BYTE           N04     Bn4
        BYTE           PAN     c_v-39
        BYTE   W02
        BYTE                   c_v-40
        BYTE   W01
        BYTE                   c_v-41
        BYTE   W01
        BYTE                   c_v-42
        BYTE   W01
        BYTE                   c_v-43
        BYTE   W01
        BYTE           N04     Ds4
        BYTE           PAN     c_v-42
        BYTE   W01
        BYTE                   c_v-41
        BYTE   W01
        BYTE                   c_v-40
        BYTE   W01
        BYTE                   c_v-39
        BYTE   W02
        BYTE                   c_v-38
        BYTE   W01
        BYTE                   c_v-37
        BYTE           N04     Fs4
        BYTE   W01
        BYTE           PAN     c_v-36
        BYTE   W01
        BYTE                   c_v-35
        BYTE   W01
        BYTE                   c_v-34
        BYTE   W01
        BYTE                   c_v-33
        BYTE   W01
        BYTE                   c_v-32
        BYTE   W01
        BYTE           N04     As4
        BYTE           PAN     c_v-31
        BYTE   W01
        BYTE                   c_v-30
        BYTE   W02
        BYTE                   c_v-29
        BYTE   W01
        BYTE                   c_v-28
        BYTE   W01
        BYTE                   c_v-27
        BYTE   W01
        BYTE                   c_v-26
        BYTE           N04     Cs5
        BYTE   W01
        BYTE           PAN     c_v-25
        BYTE   W01
        BYTE                   c_v-24
        BYTE   W01
        BYTE                   c_v-23
        BYTE   W01
        BYTE                   c_v-22
        BYTE   W01
        BYTE                   c_v-21
        BYTE   W01
        BYTE           N04     Ds4
        BYTE   W01
        BYTE           PAN     c_v-20
        BYTE   W01
        BYTE                   c_v-19
        BYTE   W01
        BYTE                   c_v-18
        BYTE   W01
        BYTE                   c_v-17
        BYTE   W01
        BYTE                   c_v-16
        BYTE   W01
        BYTE           N04     Fs4
        BYTE           PAN     c_v-15
        BYTE   W01
        BYTE                   c_v-14
        BYTE   W01
        BYTE                   c_v-13
        BYTE   W02
        BYTE                   c_v-12
        BYTE   W01
        BYTE                   c_v-11
        BYTE   W01
        BYTE                   c_v-10
        BYTE           N04     As4
        BYTE   W01
        BYTE           PAN     c_v-9
        BYTE   W01
        BYTE                   c_v-8
        BYTE   W01
        BYTE                   c_v-7
        BYTE   W01
        BYTE                   c_v-6
        BYTE   W01
        BYTE                   c_v-5
        BYTE   W01
        BYTE           N04     Cs5
        BYTE           PAN     c_v-4
        BYTE   W02
        BYTE                   c_v-3
        BYTE   W01
        BYTE                   c_v-2
        BYTE   W01
        BYTE                   c_v-1
        BYTE   W01
        BYTE                   c_v+0
        BYTE   W01
        BYTE           N04     Ds4
        BYTE           PAN     c_v+1
        BYTE   W01
        BYTE                   c_v+2
        BYTE   W01
        BYTE                   c_v+3
        BYTE   W01
        BYTE                   c_v+4
        BYTE   W02
        BYTE                   c_v+5
        BYTE   W01
        BYTE                   c_v+6
        BYTE           N04     Fs4
        BYTE   W01
        BYTE           PAN     c_v+7
        BYTE   W01
        BYTE                   c_v+8
        BYTE   W01
        BYTE                   c_v+9
        BYTE   W01
        BYTE                   c_v+10
        BYTE   W01
        BYTE                   c_v+11
        BYTE   W01
        BYTE           N04     As4
        BYTE           PAN     c_v+12
        BYTE   W01
        BYTE                   c_v+13
        BYTE   W02
        BYTE                   c_v+14
        BYTE   W01
        BYTE                   c_v+15
        BYTE   W01
        BYTE                   c_v+16
        BYTE   W01
        BYTE                   c_v+17
        BYTE           N04     Fs4
        BYTE   W01
        BYTE           PAN     c_v+18
        BYTE   W01
        BYTE                   c_v+19
        BYTE   W01
        BYTE                   c_v+20
        BYTE   W01
        BYTE                   c_v+21
        BYTE   W01
        BYTE                   c_v+22
        BYTE   W01
        BYTE   PEND
// 010   ----------------------------------------
SecondArmageddon_3_10:
        BYTE           N04     Cs5   v076
        BYTE   W01
        BYTE           PAN     c_v+23
        BYTE   W01
        BYTE                   c_v+24
        BYTE   W01
        BYTE                   c_v+25
        BYTE   W01
        BYTE                   c_v+26
        BYTE   W01
        BYTE                   c_v+27
        BYTE   W01
        BYTE           N04     As4
        BYTE           PAN     c_v+28
        BYTE   W01
        BYTE                   c_v+29
        BYTE   W01
        BYTE                   c_v+30
        BYTE   W02
        BYTE                   c_v+31
        BYTE   W01
        BYTE                   c_v+32
        BYTE   W01
        BYTE                   c_v+33
        BYTE           N04     Fs4
        BYTE   W01
        BYTE           PAN     c_v+34
        BYTE   W01
        BYTE                   c_v+35
        BYTE   W01
        BYTE                   c_v+36
        BYTE   W01
        BYTE                   c_v+37
        BYTE   W01
        BYTE                   c_v+38
        BYTE   W01
        BYTE           N04     As4
        BYTE           PAN     c_v+39
        BYTE   W02
        BYTE                   c_v+40
        BYTE   W01
        BYTE                   c_v+41
        BYTE   W01
        BYTE                   c_v+42
        BYTE   W01
        BYTE                   c_v+43
        BYTE   W01
        BYTE           N04     En4
        BYTE           PAN     c_v+42
        BYTE   W01
        BYTE                   c_v+41
        BYTE   W01
        BYTE                   c_v+40
        BYTE   W01
        BYTE                   c_v+39
        BYTE   W02
        BYTE                   c_v+38
        BYTE   W01
        BYTE                   c_v+37
        BYTE           N04     Gs4
        BYTE   W01
        BYTE           PAN     c_v+36
        BYTE   W01
        BYTE                   c_v+35
        BYTE   W01
        BYTE                   c_v+34
        BYTE   W01
        BYTE                   c_v+33
        BYTE   W01
        BYTE                   c_v+32
        BYTE   W01
        BYTE           N04     Bn4
        BYTE           PAN     c_v+31
        BYTE   W01
        BYTE                   c_v+30
        BYTE   W02
        BYTE                   c_v+29
        BYTE   W01
        BYTE                   c_v+28
        BYTE   W01
        BYTE                   c_v+27
        BYTE   W01
        BYTE                   c_v+26
        BYTE           N04     Ds4
        BYTE   W01
        BYTE           PAN     c_v+25
        BYTE   W01
        BYTE                   c_v+24
        BYTE   W01
        BYTE                   c_v+23
        BYTE   W01
        BYTE                   c_v+22
        BYTE   W02
        BYTE                   c_v+21
        BYTE           N04     En4
        BYTE   W01
        BYTE           PAN     c_v+20
        BYTE   W01
        BYTE                   c_v+19
        BYTE   W01
        BYTE                   c_v+18
        BYTE   W01
        BYTE                   c_v+17
        BYTE   W01
        BYTE                   c_v+16
        BYTE   W01
        BYTE           N04     Gs4
        BYTE           PAN     c_v+15
        BYTE   W01
        BYTE                   c_v+14
        BYTE   W01
        BYTE                   c_v+13
        BYTE   W02
        BYTE                   c_v+12
        BYTE   W01
        BYTE                   c_v+11
        BYTE   W01
        BYTE                   c_v+10
        BYTE           N04     Bn4
        BYTE   W01
        BYTE           PAN     c_v+9
        BYTE   W01
        BYTE                   c_v+8
        BYTE   W01
        BYTE                   c_v+7
        BYTE   W01
        BYTE                   c_v+6
        BYTE   W01
        BYTE                   c_v+5
        BYTE   W01
        BYTE           N04     Ds4
        BYTE           PAN     c_v+4
        BYTE   W02
        BYTE                   c_v+3
        BYTE   W01
        BYTE                   c_v+2
        BYTE   W01
        BYTE                   c_v+1
        BYTE   W01
        BYTE                   c_v+0
        BYTE   W01
        BYTE           N04     En4
        BYTE           PAN     c_v-1
        BYTE   W01
        BYTE                   c_v-2
        BYTE   W01
        BYTE                   c_v-3
        BYTE   W01
        BYTE                   c_v-4
        BYTE   W02
        BYTE                   c_v-5
        BYTE   W01
        BYTE                   c_v-6
        BYTE           N04     Gs4
        BYTE   W01
        BYTE           PAN     c_v-7
        BYTE   W01
        BYTE                   c_v-8
        BYTE   W01
        BYTE                   c_v-9
        BYTE   W01
        BYTE                   c_v-10
        BYTE   W01
        BYTE                   c_v-11
        BYTE   W01
        BYTE           N04     Bn4
        BYTE           PAN     c_v-12
        BYTE   W01
        BYTE                   c_v-13
        BYTE   W02
        BYTE                   c_v-14
        BYTE   W01
        BYTE                   c_v-15
        BYTE   W01
        BYTE                   c_v-16
        BYTE   W01
        BYTE                   c_v-17
        BYTE           N04     Gs4
        BYTE   W01
        BYTE           PAN     c_v-18
        BYTE   W01
        BYTE                   c_v-19
        BYTE   W01
        BYTE                   c_v-20
        BYTE   W01
        BYTE                   c_v-21
        BYTE   W02
        BYTE   PEND
// 011   ----------------------------------------
        BYTE   PATT
         POIN2  SecondArmageddon_3_9
// 012   ----------------------------------------
        BYTE           N04     Cs5   v076
        BYTE   W01
        BYTE           PAN     c_v+23
        BYTE   W01
        BYTE                   c_v+24
        BYTE   W01
        BYTE                   c_v+25
        BYTE   W01
        BYTE                   c_v+26
        BYTE   W01
        BYTE                   c_v+27
        BYTE   W01
        BYTE           N04     As4
        BYTE           PAN     c_v+28
        BYTE   W01
        BYTE                   c_v+29
        BYTE   W01
        BYTE                   c_v+30
        BYTE   W02
        BYTE                   c_v+31
        BYTE   W01
        BYTE                   c_v+32
        BYTE   W01
        BYTE                   c_v+33
        BYTE           N04     Fs4
        BYTE   W01
        BYTE           PAN     c_v+34
        BYTE   W01
        BYTE                   c_v+35
        BYTE   W01
        BYTE                   c_v+36
        BYTE   W01
        BYTE                   c_v+37
        BYTE   W01
        BYTE                   c_v+38
        BYTE   W01
        BYTE           N04     As4
        BYTE           PAN     c_v+39
        BYTE   W02
        BYTE                   c_v+40
        BYTE   W01
        BYTE                   c_v+41
        BYTE   W01
        BYTE                   c_v+42
        BYTE   W01
        BYTE                   c_v+43
        BYTE   W01
        BYTE                   c_v+0
        BYTE           N04     Cs4
        BYTE   W01
        BYTE           PAN     c_v-1
        BYTE   W02
        BYTE                   c_v-2
        BYTE   W02
        BYTE                   c_v-3
        BYTE   W01
        BYTE           N04     En4
        BYTE   W01
        BYTE           PAN     c_v-4
        BYTE   W03
        BYTE                   c_v-5
        BYTE   W02
        BYTE                   c_v-6
        BYTE           N04     Gs4
        BYTE   W02
        BYTE           PAN     c_v-7
        BYTE   W02
        BYTE                   c_v-8
        BYTE   W02
        BYTE           N04     Bn4
        BYTE           PAN     c_v-9
        BYTE   W03
        BYTE                   c_v-10
        BYTE   W02
        BYTE                   c_v-11
        BYTE   W01
        BYTE           N04     Cs4
        BYTE   W01
        BYTE           PAN     c_v-12
        BYTE   W02
        BYTE                   c_v-13
        BYTE   W03
        BYTE                   c_v-14
        BYTE           N04     En4
        BYTE   W02
        BYTE           PAN     c_v-15
        BYTE   W02
        BYTE                   c_v-16
        BYTE   W02
        BYTE           N04     Gs4
        BYTE           PAN     c_v-17
        BYTE   W03
        BYTE                   c_v-18
        BYTE   W02
        BYTE                   c_v-19
        BYTE   W01
        BYTE           N04     Bn4
        BYTE   W01
        BYTE           PAN     c_v-20
        BYTE   W02
        BYTE                   c_v-21
        BYTE   W03
        BYTE                   c_v-22
        BYTE           N04     Cs4
        BYTE   W02
        BYTE           PAN     c_v-23
        BYTE   W02
        BYTE                   c_v-24
        BYTE   W02
        BYTE           N04     En4
        BYTE           PAN     c_v-25
        BYTE   W02
        BYTE                   c_v-26
        BYTE   W03
        BYTE                   c_v-27
        BYTE   W01
        BYTE           N04     Bn4
        BYTE   W01
        BYTE           PAN     c_v-28
        BYTE   W02
        BYTE                   c_v-29
        BYTE   W02
        BYTE                   c_v-30
        BYTE   W01
        BYTE           N04     Gs4
        BYTE   W02
        BYTE           PAN     c_v-31
        BYTE   W02
        BYTE                   c_v-32
        BYTE   W02
// 013   ----------------------------------------
        BYTE           N04     Ds4
        BYTE           PAN     c_v-33
        BYTE   W02
        BYTE                   c_v-34
        BYTE   W03
        BYTE                   c_v-35
        BYTE   W01
        BYTE           N04     Bn4
        BYTE   W01
        BYTE           PAN     c_v-36
        BYTE   W02
        BYTE                   c_v-37
        BYTE   W02
        BYTE                   c_v-38
        BYTE   W01
        BYTE           N04     Gs4
        BYTE   W01
        BYTE           PAN     c_v-39
        BYTE   W03
        BYTE                   c_v-40
        BYTE   W02
        BYTE                   c_v-41
        BYTE           N04     Bn4
        BYTE   W02
        BYTE           PAN     c_v-42
        BYTE   W02
        BYTE                   c_v-43
        BYTE   W02
        BYTE           N04     Ds4
        BYTE           PAN     c_v-42
        BYTE   W01
        BYTE                   c_v-41
        BYTE   W01
        BYTE                   c_v-40
        BYTE   W01
        BYTE                   c_v-39
        BYTE   W02
        BYTE                   c_v-38
        BYTE   W01
        BYTE                   c_v-37
        BYTE           N04     Fs4
        BYTE   W01
        BYTE           PAN     c_v-36
        BYTE   W01
        BYTE                   c_v-35
        BYTE   W01
        BYTE                   c_v-34
        BYTE   W01
        BYTE                   c_v-33
        BYTE   W01
        BYTE                   c_v-32
        BYTE   W01
        BYTE           N04     As4
        BYTE           PAN     c_v-31
        BYTE   W01
        BYTE                   c_v-30
        BYTE   W02
        BYTE                   c_v-29
        BYTE   W01
        BYTE                   c_v-28
        BYTE   W01
        BYTE                   c_v-27
        BYTE   W01
        BYTE                   c_v-26
        BYTE           N04     Cs5
        BYTE   W01
        BYTE           PAN     c_v-25
        BYTE   W01
        BYTE                   c_v-24
        BYTE   W01
        BYTE                   c_v-23
        BYTE   W01
        BYTE                   c_v-22
        BYTE   W01
        BYTE                   c_v-21
        BYTE   W01
        BYTE           N04     Ds4
        BYTE   W01
        BYTE           PAN     c_v-20
        BYTE   W01
        BYTE                   c_v-19
        BYTE   W01
        BYTE                   c_v-18
        BYTE   W01
        BYTE                   c_v-17
        BYTE   W01
        BYTE                   c_v-16
        BYTE   W01
        BYTE           N04     Fs4
        BYTE           PAN     c_v-15
        BYTE   W01
        BYTE                   c_v-14
        BYTE   W01
        BYTE                   c_v-13
        BYTE   W02
        BYTE                   c_v-12
        BYTE   W01
        BYTE                   c_v-11
        BYTE   W01
        BYTE                   c_v-10
        BYTE           N04     As4
        BYTE   W01
        BYTE           PAN     c_v-9
        BYTE   W01
        BYTE                   c_v-8
        BYTE   W01
        BYTE                   c_v-7
        BYTE   W01
        BYTE                   c_v-6
        BYTE   W01
        BYTE                   c_v-5
        BYTE   W01
        BYTE           N04     Cs5
        BYTE           PAN     c_v-4
        BYTE   W02
        BYTE                   c_v-3
        BYTE   W01
        BYTE                   c_v-2
        BYTE   W01
        BYTE                   c_v-1
        BYTE   W01
        BYTE                   c_v+0
        BYTE   W01
        BYTE           N04     Ds4
        BYTE           PAN     c_v+1
        BYTE   W01
        BYTE                   c_v+2
        BYTE   W01
        BYTE                   c_v+3
        BYTE   W01
        BYTE                   c_v+4
        BYTE   W02
        BYTE                   c_v+5
        BYTE   W01
        BYTE                   c_v+6
        BYTE           N04     Fs4
        BYTE   W01
        BYTE           PAN     c_v+7
        BYTE   W01
        BYTE                   c_v+8
        BYTE   W01
        BYTE                   c_v+9
        BYTE   W01
        BYTE                   c_v+10
        BYTE   W01
        BYTE                   c_v+11
        BYTE   W01
        BYTE           N04     As4
        BYTE           PAN     c_v+12
        BYTE   W01
        BYTE                   c_v+13
        BYTE   W02
        BYTE                   c_v+14
        BYTE   W01
        BYTE                   c_v+15
        BYTE   W01
        BYTE                   c_v+16
        BYTE   W01
        BYTE                   c_v+17
        BYTE           N04     Fs4
        BYTE   W01
        BYTE           PAN     c_v+18
        BYTE   W01
        BYTE                   c_v+19
        BYTE   W01
        BYTE                   c_v+20
        BYTE   W01
        BYTE                   c_v+21
        BYTE   W01
        BYTE                   c_v+22
        BYTE   W01
// 014   ----------------------------------------
        BYTE           N04     Cs5
        BYTE   W01
        BYTE           PAN     c_v+23
        BYTE   W01
        BYTE                   c_v+24
        BYTE   W01
        BYTE                   c_v+25
        BYTE   W01
        BYTE                   c_v+26
        BYTE   W01
        BYTE                   c_v+27
        BYTE   W01
        BYTE           N04     As4
        BYTE           PAN     c_v+28
        BYTE   W01
        BYTE                   c_v+29
        BYTE   W01
        BYTE                   c_v+30
        BYTE   W02
        BYTE                   c_v+31
        BYTE   W01
        BYTE                   c_v+32
        BYTE   W01
        BYTE                   c_v+33
        BYTE           N04     Fs4
        BYTE   W01
        BYTE           PAN     c_v+34
        BYTE   W01
        BYTE                   c_v+35
        BYTE   W01
        BYTE                   c_v+36
        BYTE   W01
        BYTE                   c_v+37
        BYTE   W01
        BYTE                   c_v+38
        BYTE   W01
        BYTE           N04     As4
        BYTE           PAN     c_v+39
        BYTE   W02
        BYTE                   c_v+40
        BYTE   W01
        BYTE                   c_v+41
        BYTE   W01
        BYTE                   c_v+42
        BYTE   W01
        BYTE                   c_v+43
        BYTE   W01
        BYTE           N04     Ds4
        BYTE           PAN     c_v+42
        BYTE   W01
        BYTE                   c_v+41
        BYTE   W01
        BYTE                   c_v+40
        BYTE   W01
        BYTE                   c_v+39
        BYTE   W02
        BYTE                   c_v+38
        BYTE   W01
        BYTE                   c_v+37
        BYTE           N04     Gs4
        BYTE   W01
        BYTE           PAN     c_v+36
        BYTE   W01
        BYTE                   c_v+35
        BYTE   W01
        BYTE                   c_v+34
        BYTE   W01
        BYTE                   c_v+33
        BYTE   W01
        BYTE                   c_v+32
        BYTE   W01
        BYTE           N04     Bn4
        BYTE           PAN     c_v+31
        BYTE   W01
        BYTE                   c_v+30
        BYTE   W02
        BYTE                   c_v+29
        BYTE   W01
        BYTE                   c_v+28
        BYTE   W01
        BYTE                   c_v+27
        BYTE   W01
        BYTE                   c_v+26
        BYTE           N04     Gs4
        BYTE   W01
        BYTE           PAN     c_v+25
        BYTE   W01
        BYTE                   c_v+24
        BYTE   W01
        BYTE                   c_v+23
        BYTE   W01
        BYTE                   c_v+22
        BYTE   W02
        BYTE                   c_v+21
        BYTE           N04     Ds4
        BYTE   W01
        BYTE           PAN     c_v+20
        BYTE   W01
        BYTE                   c_v+19
        BYTE   W01
        BYTE                   c_v+18
        BYTE   W01
        BYTE                   c_v+17
        BYTE   W01
        BYTE                   c_v+16
        BYTE   W01
        BYTE           N04     Gs4
        BYTE           PAN     c_v+15
        BYTE   W01
        BYTE                   c_v+14
        BYTE   W01
        BYTE                   c_v+13
        BYTE   W02
        BYTE                   c_v+12
        BYTE   W01
        BYTE                   c_v+11
        BYTE   W01
        BYTE                   c_v+10
        BYTE           N04     Bn4
        BYTE   W01
        BYTE           PAN     c_v+9
        BYTE   W01
        BYTE                   c_v+8
        BYTE   W01
        BYTE                   c_v+7
        BYTE   W01
        BYTE                   c_v+6
        BYTE   W01
        BYTE                   c_v+5
        BYTE   W01
        BYTE           N04     Gs4
        BYTE           PAN     c_v+4
        BYTE   W02
        BYTE                   c_v+3
        BYTE   W01
        BYTE                   c_v+2
        BYTE   W01
        BYTE                   c_v+1
        BYTE   W01
        BYTE                   c_v+0
        BYTE   W01
        BYTE           N04     Ds4
        BYTE           PAN     c_v-1
        BYTE   W01
        BYTE                   c_v-2
        BYTE   W01
        BYTE                   c_v-3
        BYTE   W01
        BYTE                   c_v-4
        BYTE   W02
        BYTE                   c_v-5
        BYTE   W01
        BYTE                   c_v-6
        BYTE           N04     Gn4
        BYTE   W01
        BYTE           PAN     c_v-7
        BYTE   W01
        BYTE                   c_v-8
        BYTE   W01
        BYTE                   c_v-9
        BYTE   W01
        BYTE                   c_v-10
        BYTE   W01
        BYTE                   c_v-11
        BYTE   W01
        BYTE           N04     Bn4
        BYTE           PAN     c_v-12
        BYTE   W01
        BYTE                   c_v-13
        BYTE   W02
        BYTE                   c_v-14
        BYTE   W01
        BYTE                   c_v-15
        BYTE   W01
        BYTE                   c_v-16
        BYTE   W01
        BYTE                   c_v-17
        BYTE           N04     Gn4
        BYTE   W01
        BYTE           PAN     c_v-18
        BYTE   W01
        BYTE                   c_v-19
        BYTE   W01
        BYTE                   c_v-20
        BYTE   W01
        BYTE                   c_v-21
        BYTE   W02
// 015   ----------------------------------------
        BYTE                   c_v-22
        BYTE           N04     Ds4
        BYTE   W01
        BYTE           PAN     c_v-23
        BYTE   W01
        BYTE                   c_v-24
        BYTE   W01
        BYTE                   c_v-25
        BYTE   W01
        BYTE                   c_v-26
        BYTE   W01
        BYTE                   c_v-27
        BYTE   W01
        BYTE           N04     Gn4
        BYTE           PAN     c_v-28
        BYTE   W01
        BYTE                   c_v-29
        BYTE   W01
        BYTE                   c_v-30
        BYTE   W02
        BYTE                   c_v-31
        BYTE   W01
        BYTE                   c_v-32
        BYTE   W01
        BYTE                   c_v-33
        BYTE           N04     Bn4
        BYTE   W01
        BYTE           PAN     c_v-34
        BYTE   W01
        BYTE                   c_v-35
        BYTE   W01
        BYTE                   c_v-36
        BYTE   W01
        BYTE                   c_v-37
        BYTE   W01
        BYTE                   c_v-38
        BYTE   W01
        BYTE           N04     Gn4
        BYTE           PAN     c_v-39
        BYTE   W02
        BYTE                   c_v-40
        BYTE   W01
        BYTE                   c_v-41
        BYTE   W01
        BYTE                   c_v-42
        BYTE   W01
        BYTE                   c_v-43
        BYTE   W01
        BYTE           N04     Ds4
        BYTE           PAN     c_v-42
        BYTE   W01
        BYTE                   c_v-41
        BYTE   W01
        BYTE                   c_v-40
        BYTE   W01
        BYTE                   c_v-39
        BYTE   W02
        BYTE                   c_v-38
        BYTE   W01
        BYTE                   c_v-37
        BYTE           N04     Fs4
        BYTE   W01
        BYTE           PAN     c_v-36
        BYTE   W01
        BYTE                   c_v-35
        BYTE   W01
        BYTE                   c_v-34
        BYTE   W01
        BYTE                   c_v-33
        BYTE   W01
        BYTE                   c_v-32
        BYTE   W01
        BYTE           N04     Bn4
        BYTE           PAN     c_v-31
        BYTE   W01
        BYTE                   c_v-30
        BYTE   W02
        BYTE                   c_v-29
        BYTE   W01
        BYTE                   c_v-28
        BYTE   W01
        BYTE                   c_v-27
        BYTE   W01
        BYTE                   c_v-26
        BYTE           N04     Fs4
        BYTE   W01
        BYTE           PAN     c_v-25
        BYTE   W01
        BYTE                   c_v-24
        BYTE   W01
        BYTE                   c_v-23
        BYTE   W01
        BYTE                   c_v-22
        BYTE   W01
        BYTE                   c_v-21
        BYTE   W01
        BYTE           N04     Ds4
        BYTE   W01
        BYTE           PAN     c_v-20
        BYTE   W01
        BYTE                   c_v-19
        BYTE   W01
        BYTE                   c_v-18
        BYTE   W01
        BYTE                   c_v-17
        BYTE   W01
        BYTE                   c_v-16
        BYTE   W01
        BYTE           N04     Fs4
        BYTE           PAN     c_v-15
        BYTE   W01
        BYTE                   c_v-14
        BYTE   W01
        BYTE                   c_v-13
        BYTE   W02
        BYTE                   c_v-12
        BYTE   W01
        BYTE                   c_v-11
        BYTE   W01
        BYTE                   c_v-10
        BYTE           N04     Bn4
        BYTE   W01
        BYTE           PAN     c_v-9
        BYTE   W01
        BYTE                   c_v-8
        BYTE   W01
        BYTE                   c_v-7
        BYTE   W01
        BYTE                   c_v-6
        BYTE   W01
        BYTE                   c_v-5
        BYTE   W01
        BYTE           N04     Fs4
        BYTE           PAN     c_v-4
        BYTE   W02
        BYTE                   c_v-3
        BYTE   W01
        BYTE                   c_v-2
        BYTE   W01
        BYTE                   c_v-1
        BYTE   W01
        BYTE                   c_v+0
        BYTE   W01
        BYTE           N04     Ds4
        BYTE           PAN     c_v+1
        BYTE   W01
        BYTE                   c_v+2
        BYTE   W01
        BYTE                   c_v+3
        BYTE   W01
        BYTE                   c_v+4
        BYTE   W02
        BYTE                   c_v+5
        BYTE   W01
        BYTE                   c_v+6
        BYTE           N04     Fn4
        BYTE   W01
        BYTE           PAN     c_v+7
        BYTE   W01
        BYTE                   c_v+8
        BYTE   W01
        BYTE                   c_v+9
        BYTE   W01
        BYTE                   c_v+10
        BYTE   W01
        BYTE                   c_v+11
        BYTE   W01
        BYTE           N04     Bn4
        BYTE           PAN     c_v+12
        BYTE   W01
        BYTE                   c_v+13
        BYTE   W02
        BYTE                   c_v+14
        BYTE   W01
        BYTE                   c_v+15
        BYTE   W01
        BYTE                   c_v+16
        BYTE   W01
        BYTE                   c_v+17
        BYTE           N04     Fn4
        BYTE   W01
        BYTE           PAN     c_v+18
        BYTE   W01
        BYTE                   c_v+19
        BYTE   W01
        BYTE                   c_v+20
        BYTE   W01
        BYTE                   c_v+21
        BYTE   W01
        BYTE                   c_v+22
        BYTE   W01
// 016   ----------------------------------------
        BYTE           N04     Ds4
        BYTE   W01
        BYTE           PAN     c_v+23
        BYTE   W01
        BYTE                   c_v+24
        BYTE   W01
        BYTE                   c_v+25
        BYTE   W01
        BYTE                   c_v+26
        BYTE   W01
        BYTE                   c_v+27
        BYTE   W01
        BYTE           N04     Fn4
        BYTE           PAN     c_v+28
        BYTE   W01
        BYTE                   c_v+29
        BYTE   W01
        BYTE                   c_v+30
        BYTE   W02
        BYTE                   c_v+31
        BYTE   W01
        BYTE                   c_v+32
        BYTE   W01
        BYTE                   c_v+33
        BYTE           N04     Bn4
        BYTE   W01
        BYTE           PAN     c_v+34
        BYTE   W01
        BYTE                   c_v+35
        BYTE   W01
        BYTE                   c_v+36
        BYTE   W01
        BYTE                   c_v+37
        BYTE   W01
        BYTE                   c_v+38
        BYTE   W01
        BYTE           N04     Fn4
        BYTE           PAN     c_v+39
        BYTE   W02
        BYTE                   c_v+40
        BYTE   W01
        BYTE                   c_v+41
        BYTE   W01
        BYTE                   c_v+42
        BYTE   W01
        BYTE                   c_v+43
        BYTE   W01
        BYTE           N04     En4
        BYTE           PAN     c_v+42
        BYTE   W01
        BYTE                   c_v+41
        BYTE   W01
        BYTE                   c_v+40
        BYTE   W01
        BYTE                   c_v+39
        BYTE   W02
        BYTE                   c_v+38
        BYTE   W01
        BYTE                   c_v+37
        BYTE           N04     Gs4
        BYTE   W01
        BYTE           PAN     c_v+36
        BYTE   W01
        BYTE                   c_v+35
        BYTE   W01
        BYTE                   c_v+34
        BYTE   W01
        BYTE                   c_v+33
        BYTE   W01
        BYTE                   c_v+32
        BYTE   W01
        BYTE           N04     Bn4
        BYTE           PAN     c_v+31
        BYTE   W01
        BYTE                   c_v+30
        BYTE   W02
        BYTE                   c_v+29
        BYTE   W01
        BYTE                   c_v+28
        BYTE   W01
        BYTE                   c_v+27
        BYTE   W01
        BYTE                   c_v+26
        BYTE           N04     Ds4
        BYTE   W01
        BYTE           PAN     c_v+25
        BYTE   W01
        BYTE                   c_v+24
        BYTE   W01
        BYTE                   c_v+23
        BYTE   W01
        BYTE                   c_v+22
        BYTE   W02
        BYTE                   c_v+21
        BYTE           N04     En4
        BYTE   W01
        BYTE           PAN     c_v+20
        BYTE   W01
        BYTE                   c_v+19
        BYTE   W01
        BYTE                   c_v+18
        BYTE   W01
        BYTE                   c_v+17
        BYTE   W01
        BYTE                   c_v+16
        BYTE   W01
        BYTE           N04     Gs4
        BYTE           PAN     c_v+15
        BYTE   W01
        BYTE                   c_v+14
        BYTE   W01
        BYTE                   c_v+13
        BYTE   W02
        BYTE                   c_v+12
        BYTE   W01
        BYTE                   c_v+11
        BYTE   W01
        BYTE                   c_v+10
        BYTE           N04     Bn4
        BYTE   W01
        BYTE           PAN     c_v+9
        BYTE   W01
        BYTE                   c_v+8
        BYTE   W01
        BYTE                   c_v+7
        BYTE   W01
        BYTE                   c_v+6
        BYTE   W01
        BYTE                   c_v+5
        BYTE   W01
        BYTE           N04     Ds4
        BYTE           PAN     c_v+4
        BYTE   W02
        BYTE                   c_v+3
        BYTE   W01
        BYTE                   c_v+2
        BYTE   W01
        BYTE                   c_v+1
        BYTE   W01
        BYTE                   c_v+0
        BYTE   W01
        BYTE           N04     En4
        BYTE           PAN     c_v-1
        BYTE   W01
        BYTE                   c_v-2
        BYTE   W01
        BYTE                   c_v-3
        BYTE   W01
        BYTE                   c_v-4
        BYTE   W02
        BYTE                   c_v-5
        BYTE   W01
        BYTE                   c_v-6
        BYTE           N04     Gs4
        BYTE   W01
        BYTE           PAN     c_v-7
        BYTE   W01
        BYTE                   c_v-8
        BYTE   W01
        BYTE                   c_v-9
        BYTE   W01
        BYTE                   c_v-10
        BYTE   W01
        BYTE                   c_v-11
        BYTE   W01
        BYTE           N04     Bn4
        BYTE           PAN     c_v-12
        BYTE   W01
        BYTE                   c_v-13
        BYTE   W02
        BYTE                   c_v-14
        BYTE   W01
        BYTE                   c_v-15
        BYTE   W01
        BYTE                   c_v-16
        BYTE   W01
        BYTE                   c_v-17
        BYTE           N04     Gs4
        BYTE   W01
        BYTE           PAN     c_v-18
        BYTE   W01
        BYTE                   c_v-19
        BYTE   W01
        BYTE                   c_v-20
        BYTE   W01
        BYTE                   c_v-21
        BYTE   W02
// 017   ----------------------------------------
        BYTE   PATT
         POIN2  SecondArmageddon_3_9
// 018   ----------------------------------------
        BYTE   PATT
         POIN2  SecondArmageddon_3_10
// 019   ----------------------------------------
        BYTE   PATT
         POIN2  SecondArmageddon_3_9
// 020   ----------------------------------------
        BYTE           N04     Cs5   v076
        BYTE   W01
        BYTE           PAN     c_v+23
        BYTE   W01
        BYTE                   c_v+24
        BYTE   W01
        BYTE                   c_v+25
        BYTE   W01
        BYTE                   c_v+26
        BYTE   W01
        BYTE                   c_v+27
        BYTE   W01
        BYTE           N04     As4
        BYTE           PAN     c_v+28
        BYTE   W01
        BYTE                   c_v+29
        BYTE   W01
        BYTE                   c_v+30
        BYTE   W02
        BYTE                   c_v+31
        BYTE   W01
        BYTE                   c_v+32
        BYTE   W01
        BYTE                   c_v+33
        BYTE           N04     Fs4
        BYTE   W01
        BYTE           PAN     c_v+34
        BYTE   W01
        BYTE                   c_v+35
        BYTE   W01
        BYTE                   c_v+36
        BYTE   W01
        BYTE                   c_v+37
        BYTE   W01
        BYTE                   c_v+38
        BYTE   W01
        BYTE           N04     As4
        BYTE           PAN     c_v+39
        BYTE   W02
        BYTE                   c_v+40
        BYTE   W01
        BYTE                   c_v+41
        BYTE   W01
        BYTE                   c_v+42
        BYTE   W01
        BYTE                   c_v+43
        BYTE   W01
        BYTE                   c_v+0
        BYTE           N04     Cs4
        BYTE   W01
        BYTE           PAN     c_v-1
        BYTE   W02
        BYTE                   c_v-2
        BYTE   W02
        BYTE                   c_v-3
        BYTE   W01
        BYTE           N04     Fn4
        BYTE   W01
        BYTE           PAN     c_v-4
        BYTE   W03
        BYTE                   c_v-5
        BYTE   W02
        BYTE                   c_v-6
        BYTE           N04     As4
        BYTE   W02
        BYTE           PAN     c_v-7
        BYTE   W02
        BYTE                   c_v-8
        BYTE   W02
        BYTE           N04     Cs5
        BYTE           PAN     c_v-9
        BYTE   W03
        BYTE                   c_v-10
        BYTE   W02
        BYTE                   c_v-11
        BYTE   W01
        BYTE           N04     Cs4
        BYTE   W01
        BYTE           PAN     c_v-12
        BYTE   W02
        BYTE                   c_v-13
        BYTE   W03
        BYTE                   c_v-14
        BYTE           N04     Fn4
        BYTE   W02
        BYTE           PAN     c_v-15
        BYTE   W02
        BYTE                   c_v-16
        BYTE   W02
        BYTE           N04     As4
        BYTE           PAN     c_v-17
        BYTE   W03
        BYTE                   c_v-18
        BYTE   W02
        BYTE                   c_v-19
        BYTE   W01
        BYTE           N04     Cs5
        BYTE   W01
        BYTE           PAN     c_v-20
        BYTE   W02
        BYTE                   c_v-21
        BYTE   W03
        BYTE                   c_v-22
        BYTE           N04     Cs4
        BYTE   W02
        BYTE           PAN     c_v-23
        BYTE   W02
        BYTE                   c_v-24
        BYTE   W02
        BYTE           N04     Fn4
        BYTE           PAN     c_v-25
        BYTE   W02
        BYTE                   c_v-26
        BYTE   W03
        BYTE                   c_v-27
        BYTE   W01
        BYTE           N04     As4
        BYTE   W01
        BYTE           PAN     c_v-28
        BYTE   W02
        BYTE                   c_v-29
        BYTE   W02
        BYTE                   c_v-30
        BYTE   W01
        BYTE           N04     Fn4
        BYTE   W02
        BYTE           PAN     c_v-31
        BYTE   W02
        BYTE                   c_v-32
        BYTE   W02
// 021   ----------------------------------------
        BYTE           N04     Cs5
        BYTE           PAN     c_v-33
        BYTE   W02
        BYTE                   c_v-34
        BYTE   W03
        BYTE                   c_v-35
        BYTE   W01
        BYTE           N04     Gs4
        BYTE   W01
        BYTE           PAN     c_v-36
        BYTE   W02
        BYTE                   c_v-37
        BYTE   W02
        BYTE                   c_v-38
        BYTE   W01
        BYTE           N04     Fn4
        BYTE   W01
        BYTE           PAN     c_v-39
        BYTE   W03
        BYTE                   c_v-40
        BYTE   W02
        BYTE                   c_v-41
        BYTE           N04     Gs4
        BYTE   W02
        BYTE           PAN     c_v-42
        BYTE   W02
        BYTE                   c_v-43
        BYTE   W02
        BYTE           N04     Cs4
        BYTE           PAN     c_v-42
        BYTE   W01
        BYTE                   c_v-41
        BYTE   W01
        BYTE                   c_v-40
        BYTE   W01
        BYTE                   c_v-39
        BYTE   W02
        BYTE                   c_v-38
        BYTE   W01
        BYTE                   c_v-37
        BYTE           N04     En4
        BYTE   W01
        BYTE           PAN     c_v-36
        BYTE   W01
        BYTE                   c_v-35
        BYTE   W01
        BYTE                   c_v-34
        BYTE   W01
        BYTE                   c_v-33
        BYTE   W01
        BYTE                   c_v-32
        BYTE   W01
        BYTE           N04     Gs4
        BYTE           PAN     c_v-31
        BYTE   W01
        BYTE                   c_v-30
        BYTE   W02
        BYTE                   c_v-29
        BYTE   W01
        BYTE                   c_v-28
        BYTE   W01
        BYTE                   c_v-27
        BYTE   W01
        BYTE                   c_v-26
        BYTE           N04     Bn4
        BYTE   W01
        BYTE           PAN     c_v-25
        BYTE   W01
        BYTE                   c_v-24
        BYTE   W01
        BYTE                   c_v-23
        BYTE   W01
        BYTE                   c_v-22
        BYTE   W01
        BYTE                   c_v-21
        BYTE   W01
        BYTE           N04     Cs4
        BYTE   W01
        BYTE           PAN     c_v-20
        BYTE   W01
        BYTE                   c_v-19
        BYTE   W01
        BYTE                   c_v-18
        BYTE   W01
        BYTE                   c_v-17
        BYTE   W01
        BYTE                   c_v-16
        BYTE   W01
        BYTE           N04     En4
        BYTE           PAN     c_v-15
        BYTE   W01
        BYTE                   c_v-14
        BYTE   W01
        BYTE                   c_v-13
        BYTE   W02
        BYTE                   c_v-12
        BYTE   W01
        BYTE                   c_v-11
        BYTE   W01
        BYTE                   c_v-10
        BYTE           N04     Gs4
        BYTE   W01
        BYTE           PAN     c_v-9
        BYTE   W01
        BYTE                   c_v-8
        BYTE   W01
        BYTE                   c_v-7
        BYTE   W01
        BYTE                   c_v-6
        BYTE   W01
        BYTE                   c_v-5
        BYTE   W01
        BYTE           N04     Bn4
        BYTE           PAN     c_v-4
        BYTE   W02
        BYTE                   c_v-3
        BYTE   W01
        BYTE                   c_v-2
        BYTE   W01
        BYTE                   c_v-1
        BYTE   W01
        BYTE                   c_v+0
        BYTE   W01
        BYTE           N04     Ds4
        BYTE           PAN     c_v+1
        BYTE   W01
        BYTE                   c_v+2
        BYTE   W01
        BYTE                   c_v+3
        BYTE   W01
        BYTE                   c_v+4
        BYTE   W02
        BYTE                   c_v+5
        BYTE   W01
        BYTE                   c_v+6
        BYTE           N04     Fs4
        BYTE   W01
        BYTE           PAN     c_v+7
        BYTE   W01
        BYTE                   c_v+8
        BYTE   W01
        BYTE                   c_v+9
        BYTE   W01
        BYTE                   c_v+10
        BYTE   W01
        BYTE                   c_v+11
        BYTE   W01
        BYTE           N04     As4
        BYTE           PAN     c_v+12
        BYTE   W01
        BYTE                   c_v+13
        BYTE   W02
        BYTE                   c_v+14
        BYTE   W01
        BYTE                   c_v+15
        BYTE   W01
        BYTE                   c_v+16
        BYTE   W01
        BYTE                   c_v+17
        BYTE           N04     Fs4
        BYTE   W01
        BYTE           PAN     c_v+18
        BYTE   W01
        BYTE                   c_v+19
        BYTE   W01
        BYTE                   c_v+20
        BYTE   W01
        BYTE                   c_v+21
        BYTE   W01
        BYTE                   c_v+22
        BYTE   W01
// 022   ----------------------------------------
        BYTE           N04     Ds4
        BYTE   W01
        BYTE           PAN     c_v+23
        BYTE   W01
        BYTE                   c_v+24
        BYTE   W01
        BYTE                   c_v+25
        BYTE   W01
        BYTE                   c_v+26
        BYTE   W01
        BYTE                   c_v+27
        BYTE   W01
        BYTE           N04     As4
        BYTE           PAN     c_v+28
        BYTE   W01
        BYTE                   c_v+29
        BYTE   W01
        BYTE                   c_v+30
        BYTE   W02
        BYTE                   c_v+31
        BYTE   W01
        BYTE                   c_v+32
        BYTE   W01
        BYTE                   c_v+33
        BYTE           N04     Fs4
        BYTE   W01
        BYTE           PAN     c_v+34
        BYTE   W01
        BYTE                   c_v+35
        BYTE   W01
        BYTE                   c_v+36
        BYTE   W01
        BYTE                   c_v+37
        BYTE   W01
        BYTE                   c_v+38
        BYTE   W01
        BYTE           N04     As4
        BYTE           PAN     c_v+39
        BYTE   W02
        BYTE                   c_v+40
        BYTE   W01
        BYTE                   c_v+41
        BYTE   W01
        BYTE                   c_v+42
        BYTE   W01
        BYTE                   c_v+43
        BYTE   W01
        BYTE           N04     En4
        BYTE           PAN     c_v+42
        BYTE   W01
        BYTE                   c_v+41
        BYTE   W01
        BYTE                   c_v+40
        BYTE   W01
        BYTE                   c_v+39
        BYTE   W02
        BYTE                   c_v+38
        BYTE   W01
        BYTE                   c_v+37
        BYTE           N04     Gs4
        BYTE   W01
        BYTE           PAN     c_v+36
        BYTE   W01
        BYTE                   c_v+35
        BYTE   W01
        BYTE                   c_v+34
        BYTE   W01
        BYTE                   c_v+33
        BYTE   W01
        BYTE                   c_v+32
        BYTE   W01
        BYTE           N04     Bn4
        BYTE           PAN     c_v+31
        BYTE   W01
        BYTE                   c_v+30
        BYTE   W02
        BYTE                   c_v+29
        BYTE   W01
        BYTE                   c_v+28
        BYTE   W01
        BYTE                   c_v+27
        BYTE   W01
        BYTE                   c_v+26
        BYTE           N04     Gs4
        BYTE   W01
        BYTE           PAN     c_v+25
        BYTE   W01
        BYTE                   c_v+24
        BYTE   W01
        BYTE                   c_v+23
        BYTE   W01
        BYTE                   c_v+22
        BYTE   W02
        BYTE                   c_v+21
        BYTE           N04     En4
        BYTE   W01
        BYTE           PAN     c_v+20
        BYTE   W01
        BYTE                   c_v+19
        BYTE   W01
        BYTE                   c_v+18
        BYTE   W01
        BYTE                   c_v+17
        BYTE   W01
        BYTE                   c_v+16
        BYTE   W01
        BYTE           N04     Gs4
        BYTE           PAN     c_v+15
        BYTE   W01
        BYTE                   c_v+14
        BYTE   W01
        BYTE                   c_v+13
        BYTE   W02
        BYTE                   c_v+12
        BYTE   W01
        BYTE                   c_v+11
        BYTE   W01
        BYTE                   c_v+10
        BYTE           N04     Bn4
        BYTE   W01
        BYTE           PAN     c_v+9
        BYTE   W01
        BYTE                   c_v+8
        BYTE   W01
        BYTE                   c_v+7
        BYTE   W01
        BYTE                   c_v+6
        BYTE   W01
        BYTE                   c_v+5
        BYTE   W01
        BYTE           N04     Gs4
        BYTE           PAN     c_v+4
        BYTE   W02
        BYTE                   c_v+3
        BYTE   W01
        BYTE                   c_v+2
        BYTE   W01
        BYTE                   c_v+1
        BYTE   W01
        BYTE                   c_v+0
        BYTE   W01
        BYTE           N04     Fs4
        BYTE           PAN     c_v-1
        BYTE   W01
        BYTE                   c_v-2
        BYTE   W01
        BYTE                   c_v-3
        BYTE   W01
        BYTE                   c_v-4
        BYTE   W02
        BYTE                   c_v-5
        BYTE   W01
        BYTE                   c_v-6
        BYTE           N04     As4
        BYTE   W01
        BYTE           PAN     c_v-7
        BYTE   W01
        BYTE                   c_v-8
        BYTE   W01
        BYTE                   c_v-9
        BYTE   W01
        BYTE                   c_v-10
        BYTE   W01
        BYTE                   c_v-11
        BYTE   W01
        BYTE           N04     Cs5
        BYTE           PAN     c_v-12
        BYTE   W01
        BYTE                   c_v-13
        BYTE   W02
        BYTE                   c_v-14
        BYTE   W01
        BYTE                   c_v-15
        BYTE   W01
        BYTE                   c_v-16
        BYTE   W01
        BYTE                   c_v-17
        BYTE           N04     As4
        BYTE   W01
        BYTE           PAN     c_v-18
        BYTE   W01
        BYTE                   c_v-19
        BYTE   W01
        BYTE                   c_v-20
        BYTE   W01
        BYTE                   c_v-21
        BYTE   W02
// 023   ----------------------------------------
        BYTE                   c_v-22
        BYTE           N04     Fs4
        BYTE   W01
        BYTE           PAN     c_v-23
        BYTE   W01
        BYTE                   c_v-24
        BYTE   W01
        BYTE                   c_v-25
        BYTE   W01
        BYTE                   c_v-26
        BYTE   W01
        BYTE                   c_v-27
        BYTE   W01
        BYTE           N04     As4
        BYTE           PAN     c_v-28
        BYTE   W01
        BYTE                   c_v-29
        BYTE   W01
        BYTE                   c_v-30
        BYTE   W02
        BYTE                   c_v-31
        BYTE   W01
        BYTE                   c_v-32
        BYTE   W01
        BYTE                   c_v-33
        BYTE           N04     Cs5
        BYTE   W01
        BYTE           PAN     c_v-34
        BYTE   W01
        BYTE                   c_v-35
        BYTE   W01
        BYTE                   c_v-36
        BYTE   W01
        BYTE                   c_v-37
        BYTE   W01
        BYTE                   c_v-38
        BYTE   W01
        BYTE           N04     As4
        BYTE           PAN     c_v-39
        BYTE   W02
        BYTE                   c_v-40
        BYTE   W01
        BYTE                   c_v-41
        BYTE   W01
        BYTE                   c_v-42
        BYTE   W01
        BYTE                   c_v-43
        BYTE   W01
        BYTE           N04     Ds4
        BYTE           PAN     c_v-42
        BYTE   W01
        BYTE                   c_v-41
        BYTE   W01
        BYTE                   c_v-40
        BYTE   W01
        BYTE                   c_v-39
        BYTE   W02
        BYTE                   c_v-38
        BYTE   W01
        BYTE                   c_v-37
        BYTE           N04     Gs4
        BYTE   W01
        BYTE           PAN     c_v-36
        BYTE   W01
        BYTE                   c_v-35
        BYTE   W01
        BYTE                   c_v-34
        BYTE   W01
        BYTE                   c_v-33
        BYTE   W01
        BYTE                   c_v-32
        BYTE   W01
        BYTE           N04     Bn4
        BYTE           PAN     c_v-31
        BYTE   W01
        BYTE                   c_v-30
        BYTE   W02
        BYTE                   c_v-29
        BYTE   W01
        BYTE                   c_v-28
        BYTE   W01
        BYTE                   c_v-27
        BYTE   W01
        BYTE                   c_v-26
        BYTE           N04     Gs4
        BYTE   W01
        BYTE           PAN     c_v-25
        BYTE   W01
        BYTE                   c_v-24
        BYTE   W01
        BYTE                   c_v-23
        BYTE   W01
        BYTE                   c_v-22
        BYTE   W01
        BYTE                   c_v-21
        BYTE   W01
        BYTE           N04     Ds4
        BYTE   W01
        BYTE           PAN     c_v-20
        BYTE   W01
        BYTE                   c_v-19
        BYTE   W01
        BYTE                   c_v-18
        BYTE   W01
        BYTE                   c_v-17
        BYTE   W01
        BYTE                   c_v-16
        BYTE   W01
        BYTE           N04     Bn4
        BYTE           PAN     c_v-15
        BYTE   W01
        BYTE                   c_v-14
        BYTE   W01
        BYTE                   c_v-13
        BYTE   W02
        BYTE                   c_v-12
        BYTE   W01
        BYTE                   c_v-11
        BYTE   W01
        BYTE                   c_v-10
        BYTE           N04     Gs4
        BYTE   W01
        BYTE           PAN     c_v-9
        BYTE   W01
        BYTE                   c_v-8
        BYTE   W01
        BYTE                   c_v-7
        BYTE   W01
        BYTE                   c_v-6
        BYTE   W01
        BYTE                   c_v-5
        BYTE   W01
        BYTE           N04     Bn4
        BYTE           PAN     c_v-4
        BYTE   W02
        BYTE                   c_v-3
        BYTE   W01
        BYTE                   c_v-2
        BYTE   W01
        BYTE                   c_v-1
        BYTE   W01
        BYTE                   c_v+0
        BYTE   W01
        BYTE           N04     Ds4
        BYTE           PAN     c_v+1
        BYTE   W01
        BYTE                   c_v+2
        BYTE   W01
        BYTE                   c_v+3
        BYTE   W01
        BYTE                   c_v+4
        BYTE   W02
        BYTE                   c_v+5
        BYTE   W01
        BYTE                   c_v+6
        BYTE           N04     Bn4
        BYTE   W01
        BYTE           PAN     c_v+7
        BYTE   W01
        BYTE                   c_v+8
        BYTE   W01
        BYTE                   c_v+9
        BYTE   W01
        BYTE                   c_v+10
        BYTE   W01
        BYTE                   c_v+11
        BYTE   W01
        BYTE           N04     Gs4
        BYTE           PAN     c_v+12
        BYTE   W01
        BYTE                   c_v+13
        BYTE   W02
        BYTE                   c_v+14
        BYTE   W01
        BYTE                   c_v+15
        BYTE   W01
        BYTE                   c_v+16
        BYTE   W01
        BYTE                   c_v+17
        BYTE           N04     Ds4
        BYTE   W01
        BYTE           PAN     c_v+18
        BYTE   W01
        BYTE                   c_v+19
        BYTE   W01
        BYTE                   c_v+20
        BYTE   W01
        BYTE                   c_v+21
        BYTE   W01
        BYTE                   c_v+22
        BYTE   W01
// 024   ----------------------------------------
        BYTE           N04     Gs4   v071
        BYTE   W01
        BYTE           PAN     c_v+23
        BYTE   W01
        BYTE                   c_v+24
        BYTE   W01
        BYTE                   c_v+25
        BYTE   W01
        BYTE                   c_v+26
        BYTE   W01
        BYTE                   c_v+27
        BYTE   W01
        BYTE           N04     Bn4
        BYTE           PAN     c_v+28
        BYTE   W01
        BYTE                   c_v+29
        BYTE   W01
        BYTE                   c_v+30
        BYTE   W02
        BYTE                   c_v+31
        BYTE   W01
        BYTE                   c_v+32
        BYTE   W01
        BYTE                   c_v+33
        BYTE           N04     Fs4
        BYTE   W01
        BYTE           PAN     c_v+34
        BYTE   W01
        BYTE                   c_v+35
        BYTE   W01
        BYTE                   c_v+36
        BYTE   W01
        BYTE                   c_v+37
        BYTE   W01
        BYTE                   c_v+38
        BYTE   W01
        BYTE           N04     Ds4
        BYTE           PAN     c_v+39
        BYTE   W02
        BYTE                   c_v+40
        BYTE   W01
        BYTE                   c_v+41
        BYTE   W01
        BYTE                   c_v+42
        BYTE   W01
        BYTE                   c_v+43
        BYTE   W01
        BYTE           VOICE   5
        BYTE           VOL     48
        BYTE           N03     Ds5   v080
        BYTE           PAN     c_v-1
        BYTE   W02
        BYTE                   c_v-2
        BYTE   W02
        BYTE                   c_v-3
        BYTE   W02
        BYTE           N03     Ds5   v076
        BYTE           PAN     c_v-4
        BYTE   W02
        BYTE                   c_v-5
        BYTE   W02
        BYTE                   c_v-6
        BYTE   W02
        BYTE                   c_v-7
        BYTE   W02
        BYTE                   c_v-8
        BYTE   W02
        BYTE                   c_v-9
        BYTE   W02
        BYTE           N03
        BYTE           PAN     c_v-10
        BYTE   W02
        BYTE                   c_v-11
        BYTE   W02
        BYTE                   c_v-12
        BYTE   W02
        BYTE                   c_v-13
        BYTE   W02
        BYTE                   c_v-14
        BYTE   W02
        BYTE                   c_v-15
        BYTE   W02
        BYTE                   c_v-16
        BYTE   W02
        BYTE                   c_v-17
        BYTE   W02
        BYTE                   c_v-18
        BYTE   W02
        BYTE                   c_v-19
        BYTE   W02
        BYTE                   c_v-20
        BYTE   W02
        BYTE                   c_v-21
        BYTE   W02
        BYTE                   c_v-22
        BYTE   W02
        BYTE                   c_v-23
        BYTE   W02
        BYTE                   c_v-24
        BYTE   W02
        BYTE                   c_v-25
        BYTE   W01
        BYTE                   c_v-26
        BYTE   W02
        BYTE                   c_v-27
        BYTE   W02
        BYTE                   c_v-28
        BYTE   W01
        BYTE           N03
        BYTE   W01
        BYTE           PAN     c_v-29
        BYTE   W02
        BYTE                   c_v-30
        BYTE   W02
        BYTE                   c_v-31
        BYTE   W02
        BYTE                   c_v-32
        BYTE   W02
        BYTE                   c_v-33
        BYTE   W02
        BYTE                   c_v-34
        BYTE   W01
        BYTE           N03
        BYTE   W01
        BYTE           PAN     c_v-35
        BYTE   W02
        BYTE                   c_v-36
        BYTE   W02
        BYTE                   c_v-37
        BYTE   W01
// 025   ----------------------------------------
SecondArmageddon_3_25:
        BYTE   W01
        BYTE           PAN     c_v-38
        BYTE   W02
        BYTE                   c_v-39
        BYTE   W02
        BYTE                   c_v-40
        BYTE   W02
        BYTE                   c_v-41
        BYTE   W02
        BYTE                   c_v-42
        BYTE   W02
        BYTE                   c_v-43
        BYTE   W02
        BYTE                   c_v-44
        BYTE   W02
        BYTE                   c_v-45
        BYTE   W02
        BYTE                   c_v-46
        BYTE   W01
        BYTE           N03     Ds5   v076
        BYTE   W01
        BYTE           PAN     c_v-47
        BYTE   W02
        BYTE                   c_v-48
        BYTE   W02
        BYTE                   c_v-49
        BYTE   W01
        BYTE           N03     Cs5   v080
        BYTE           PAN     c_v-1
        BYTE   W02
        BYTE                   c_v-2
        BYTE   W02
        BYTE                   c_v-3
        BYTE   W02
        BYTE           N03     Cs5   v076
        BYTE           PAN     c_v-4
        BYTE   W02
        BYTE                   c_v-5
        BYTE   W02
        BYTE                   c_v-6
        BYTE   W02
        BYTE                   c_v-7
        BYTE   W02
        BYTE                   c_v-8
        BYTE   W02
        BYTE                   c_v-9
        BYTE   W02
        BYTE           N03
        BYTE           PAN     c_v-10
        BYTE   W02
        BYTE                   c_v-11
        BYTE   W02
        BYTE                   c_v-12
        BYTE   W02
        BYTE                   c_v-13
        BYTE   W02
        BYTE                   c_v-14
        BYTE   W02
        BYTE                   c_v-15
        BYTE   W02
        BYTE                   c_v-16
        BYTE   W02
        BYTE                   c_v-17
        BYTE   W02
        BYTE                   c_v-18
        BYTE   W02
        BYTE                   c_v-19
        BYTE   W02
        BYTE                   c_v-20
        BYTE   W02
        BYTE                   c_v-21
        BYTE   W02
        BYTE                   c_v-22
        BYTE   W02
        BYTE                   c_v-23
        BYTE   W02
        BYTE                   c_v-24
        BYTE   W02
        BYTE                   c_v-25
        BYTE   W01
        BYTE                   c_v-26
        BYTE   W02
        BYTE                   c_v-27
        BYTE   W02
        BYTE                   c_v-28
        BYTE   W01
        BYTE           N03
        BYTE   W01
        BYTE           PAN     c_v-29
        BYTE   W02
        BYTE                   c_v-30
        BYTE   W02
        BYTE                   c_v-31
        BYTE   W02
        BYTE                   c_v-32
        BYTE   W02
        BYTE                   c_v-33
        BYTE   W02
        BYTE                   c_v-34
        BYTE   W01
        BYTE           N03
        BYTE   W01
        BYTE           PAN     c_v-35
        BYTE   W02
        BYTE                   c_v-36
        BYTE   W02
        BYTE                   c_v-37
        BYTE   W01
        BYTE   PEND
// 026   ----------------------------------------
SecondArmageddon_3_26:
        BYTE   W01
        BYTE           PAN     c_v-38
        BYTE   W02
        BYTE                   c_v-39
        BYTE   W02
        BYTE                   c_v-40
        BYTE   W02
        BYTE                   c_v-41
        BYTE   W02
        BYTE                   c_v-42
        BYTE   W02
        BYTE                   c_v-43
        BYTE   W02
        BYTE                   c_v-44
        BYTE   W02
        BYTE                   c_v-45
        BYTE   W02
        BYTE                   c_v-46
        BYTE   W01
        BYTE           N03     Cs5   v076
        BYTE   W01
        BYTE           PAN     c_v-47
        BYTE   W02
        BYTE                   c_v-48
        BYTE   W02
        BYTE                   c_v-49
        BYTE   W01
        BYTE           N03     Ds5   v080
        BYTE           PAN     c_v-1
        BYTE   W02
        BYTE                   c_v-2
        BYTE   W02
        BYTE                   c_v-3
        BYTE   W02
        BYTE           N03     Ds5   v076
        BYTE           PAN     c_v-4
        BYTE   W02
        BYTE                   c_v-5
        BYTE   W02
        BYTE                   c_v-6
        BYTE   W02
        BYTE                   c_v-7
        BYTE   W02
        BYTE                   c_v-8
        BYTE   W02
        BYTE                   c_v-9
        BYTE   W02
        BYTE           N03
        BYTE           PAN     c_v-10
        BYTE   W02
        BYTE                   c_v-11
        BYTE   W02
        BYTE                   c_v-12
        BYTE   W02
        BYTE                   c_v-13
        BYTE   W02
        BYTE                   c_v-14
        BYTE   W02
        BYTE                   c_v-15
        BYTE   W02
        BYTE                   c_v-16
        BYTE   W02
        BYTE                   c_v-17
        BYTE   W02
        BYTE                   c_v-18
        BYTE   W02
        BYTE                   c_v-19
        BYTE   W02
        BYTE                   c_v-20
        BYTE   W02
        BYTE                   c_v-21
        BYTE   W02
        BYTE                   c_v-22
        BYTE   W02
        BYTE                   c_v-23
        BYTE   W02
        BYTE                   c_v-24
        BYTE   W02
        BYTE                   c_v-25
        BYTE   W01
        BYTE                   c_v-26
        BYTE   W02
        BYTE                   c_v-27
        BYTE   W02
        BYTE                   c_v-28
        BYTE   W01
        BYTE           N03
        BYTE   W01
        BYTE           PAN     c_v-29
        BYTE   W02
        BYTE                   c_v-30
        BYTE   W02
        BYTE                   c_v-31
        BYTE   W02
        BYTE                   c_v-32
        BYTE   W02
        BYTE                   c_v-33
        BYTE   W02
        BYTE                   c_v-34
        BYTE   W01
        BYTE           N03
        BYTE   W01
        BYTE           PAN     c_v-35
        BYTE   W02
        BYTE                   c_v-36
        BYTE   W02
        BYTE                   c_v-37
        BYTE   W01
        BYTE   PEND
// 027   ----------------------------------------
        BYTE   PATT
         POIN2  SecondArmageddon_3_25
// 028   ----------------------------------------
        BYTE   PATT
         POIN2  SecondArmageddon_3_26
// 029   ----------------------------------------
        BYTE   PATT
         POIN2  SecondArmageddon_3_25
// 030   ----------------------------------------
        BYTE   PATT
         POIN2  SecondArmageddon_3_26
// 031   ----------------------------------------
        BYTE   PATT
         POIN2  SecondArmageddon_3_25
// 032   ----------------------------------------
        BYTE   W01
        BYTE           PAN     c_v-38
        BYTE   W02
        BYTE                   c_v-39
        BYTE   W02
        BYTE                   c_v-40
        BYTE   W01
        BYTE           N03     Cs5   v076
        BYTE   W01
        BYTE           PAN     c_v-41
        BYTE   W02
        BYTE                   c_v-42
        BYTE   W02
        BYTE                   c_v-43
        BYTE   W02
        BYTE                   c_v-44
        BYTE   W02
        BYTE                   c_v-45
        BYTE   W02
        BYTE                   c_v-46
        BYTE   W01
        BYTE           N03
        BYTE   W01
        BYTE           PAN     c_v-47
        BYTE   W02
        BYTE                   c_v-48
        BYTE   W02
        BYTE                   c_v-49
        BYTE   W01
        BYTE           N03     Ds5   v080
        BYTE           PAN     c_v-1
        BYTE   W02
        BYTE                   c_v-2
        BYTE   W02
        BYTE                   c_v-3
        BYTE   W02
        BYTE           N03     Ds5   v076
        BYTE           PAN     c_v-4
        BYTE   W02
        BYTE                   c_v-5
        BYTE   W02
        BYTE                   c_v-6
        BYTE   W02
        BYTE                   c_v-7
        BYTE   W02
        BYTE                   c_v-8
        BYTE   W02
        BYTE                   c_v-9
        BYTE   W02
        BYTE           N03
        BYTE           PAN     c_v-10
        BYTE   W02
        BYTE                   c_v-11
        BYTE   W02
        BYTE                   c_v-12
        BYTE   W02
        BYTE                   c_v-13
        BYTE   W02
        BYTE                   c_v-14
        BYTE   W02
        BYTE                   c_v-15
        BYTE   W02
        BYTE                   c_v-16
        BYTE   W02
        BYTE                   c_v-17
        BYTE   W02
        BYTE                   c_v-18
        BYTE   W02
        BYTE                   c_v-19
        BYTE   W02
        BYTE                   c_v-20
        BYTE   W02
        BYTE                   c_v-21
        BYTE   W02
        BYTE                   c_v-22
        BYTE   W02
        BYTE                   c_v-23
        BYTE   W02
        BYTE                   c_v-24
        BYTE   W02
        BYTE                   c_v-25
        BYTE   W01
        BYTE                   c_v-26
        BYTE   W02
        BYTE                   c_v-27
        BYTE   W02
        BYTE                   c_v-28
        BYTE   W01
        BYTE           N03
        BYTE   W01
        BYTE           PAN     c_v-29
        BYTE   W02
        BYTE                   c_v-30
        BYTE   W02
        BYTE                   c_v-31
        BYTE   W02
        BYTE                   c_v-32
        BYTE   W02
        BYTE                   c_v-33
        BYTE   W02
        BYTE                   c_v-34
        BYTE   W01
        BYTE           N03
        BYTE   W01
        BYTE           PAN     c_v-35
        BYTE   W02
        BYTE                   c_v-36
        BYTE   W02
        BYTE                   c_v-37
        BYTE   W01
// 033   ----------------------------------------
        BYTE   PATT
         POIN2  SecondArmageddon_3_25
// 034   ----------------------------------------
        BYTE   PATT
         POIN2  SecondArmageddon_3_26
// 035   ----------------------------------------
        BYTE   PATT
         POIN2  SecondArmageddon_3_25
// 036   ----------------------------------------
        BYTE   PATT
         POIN2  SecondArmageddon_3_26
// 037   ----------------------------------------
        BYTE   PATT
         POIN2  SecondArmageddon_3_25
// 038   ----------------------------------------
        BYTE   PATT
         POIN2  SecondArmageddon_3_26
// 039   ----------------------------------------
        BYTE   W01
        BYTE           PAN     c_v-38
        BYTE   W02
        BYTE                   c_v-39
        BYTE   W02
        BYTE                   c_v-40
        BYTE   W02
        BYTE                   c_v-41
        BYTE   W02
        BYTE                   c_v-42
        BYTE   W02
        BYTE                   c_v-43
        BYTE   W02
        BYTE                   c_v-44
        BYTE   W02
        BYTE                   c_v-45
        BYTE   W02
        BYTE                   c_v-46
        BYTE   W01
        BYTE           N03     Ds5   v076
        BYTE   W01
        BYTE           PAN     c_v-47
        BYTE   W02
        BYTE                   c_v-48
        BYTE   W02
        BYTE                   c_v-49
        BYTE   W01
        BYTE           N03     Ds5   v080
        BYTE           PAN     c_v-1
        BYTE   W02
        BYTE                   c_v-2
        BYTE   W02
        BYTE                   c_v-3
        BYTE   W02
        BYTE           N03     Bn4
        BYTE           PAN     c_v-4
        BYTE   W02
        BYTE                   c_v-5
        BYTE   W02
        BYTE                   c_v-6
        BYTE   W02
        BYTE           N03     Gs4
        BYTE           PAN     c_v-7
        BYTE   W02
        BYTE                   c_v-8
        BYTE   W02
        BYTE                   c_v-9
        BYTE   W02
        BYTE           N03     Ds5
        BYTE           PAN     c_v-10
        BYTE   W02
        BYTE                   c_v-11
        BYTE   W02
        BYTE                   c_v-12
        BYTE   W02
        BYTE                   c_v-13
        BYTE           N03     Bn4
        BYTE   W02
        BYTE           PAN     c_v-14
        BYTE   W02
        BYTE                   c_v-15
        BYTE   W02
        BYTE                   c_v-16
        BYTE           N03     Gs4
        BYTE   W02
        BYTE           PAN     c_v-17
        BYTE   W02
        BYTE                   c_v-18
        BYTE   W02
        BYTE                   c_v-19
        BYTE           N03     En4
        BYTE   W02
        BYTE           PAN     c_v-20
        BYTE   W02
        BYTE                   c_v-21
        BYTE   W02
        BYTE                   c_v-22
        BYTE           N03     Ds5
        BYTE   W02
        BYTE           PAN     c_v-23
        BYTE   W02
        BYTE                   c_v-24
        BYTE   W02
        BYTE                   c_v-25
        BYTE           N03     Cs5
        BYTE   W01
        BYTE           PAN     c_v-26
        BYTE   W02
        BYTE                   c_v-27
        BYTE   W02
        BYTE                   c_v-28
        BYTE   W01
        BYTE           N03     As4
        BYTE   W01
        BYTE           PAN     c_v-29
        BYTE   W02
        BYTE                   c_v-30
        BYTE   W02
        BYTE                   c_v-31
        BYTE   W01
        BYTE           N03     Fs4
        BYTE   W01
        BYTE           PAN     c_v-32
        BYTE   W02
        BYTE                   c_v-33
        BYTE   W02
        BYTE                   c_v-34
        BYTE   W01
        BYTE           N03     Cs5
        BYTE   W01
        BYTE           PAN     c_v-35
        BYTE   W02
        BYTE                   c_v-36
        BYTE   W02
        BYTE                   c_v-37
        BYTE   W01
// 040   ----------------------------------------
        BYTE           N03     As4
        BYTE   W01
        BYTE           PAN     c_v-38
        BYTE   W02
        BYTE                   c_v-39
        BYTE   W02
        BYTE                   c_v-40
        BYTE   W01
        BYTE           N03     Fs4   v084
        BYTE   W01
        BYTE           PAN     c_v-41
        BYTE   W02
        BYTE                   c_v-42
        BYTE   W02
        BYTE                   c_v-43
        BYTE   W01
        BYTE           N03     Ds4
        BYTE   W01
        BYTE           PAN     c_v-44
        BYTE   W02
        BYTE                   c_v-45
        BYTE   W02
        BYTE                   c_v-46
        BYTE   W01
        BYTE           N03     As4
        BYTE   W01
        BYTE           PAN     c_v-47
        BYTE   W02
        BYTE                   c_v-48
        BYTE   W02
        BYTE                   c_v-49
        BYTE   W01
        BYTE           VOICE   61
        BYTE           PAN     c_v+25
        BYTE           N80     Bn3   v076   gtp3
        BYTE   W72
// 041   ----------------------------------------
        BYTE   W12
        BYTE           N05     As3
        BYTE   W06
        BYTE                   Bn3
        BYTE   W06
        BYTE   GoTo
         POIN2  SecondArmageddon_3_LOOP
        BYTE   FINE

//****************** Track 4 (Midi-Chn.4) ******************//

SecondArmageddon_4:
        BYTE   KEYSH   SecondArmageddon_key+0
// 000   ----------------------------------------
        BYTE           VOICE   56
        BYTE           VOL     51
        BYTE   W24
        BYTE                   48
        BYTE           PAN     c_v-25
        BYTE           N80     Fs3   v076   gtp3
        BYTE   W72
// 001   ----------------------------------------
        BYTE   W12
        BYTE           N05
        BYTE   W06
        BYTE                   Fs3
        BYTE   W06
SecondArmageddon_4_LOOP:
        BYTE           N80     Fn3   v076   gtp3
        BYTE   W72
// 002   ----------------------------------------
        BYTE   W12
        BYTE           N05
        BYTE   W06
        BYTE                   Fn3
        BYTE   W06
        BYTE           N80     Fs3   v076   gtp3
        BYTE   W72
// 003   ----------------------------------------
        BYTE   W12
        BYTE           N05
        BYTE   W06
        BYTE                   Fs3
        BYTE   W06
        BYTE           N68     Fn3   v076   gtp3
        BYTE   W72
// 004   ----------------------------------------
        BYTE           N23
        BYTE   W24
        BYTE           N32     Bn3   v076   gtp3
        BYTE   W36
        BYTE           N05     Gs3
        BYTE   W06
        BYTE                   Ds3
        BYTE   W06
        BYTE           N32     Ds3   v076   gtp3
        BYTE   W24
// 005   ----------------------------------------
        BYTE   W12
        BYTE           N05
        BYTE   W06
        BYTE                   Ds3
        BYTE   W06
        BYTE           N17
        BYTE   W18
        BYTE                   Ds3
        BYTE   W18
        BYTE           N11
        BYTE   W12
        BYTE           N17
        BYTE   W18
        BYTE                   Bn2
        BYTE   W06
// 006   ----------------------------------------
        BYTE   W12
        BYTE           N05     Ds3
        BYTE   W06
        BYTE                   Ds3
        BYTE   W06
        BYTE           N32     En3   v076   gtp3
        BYTE   W36
        BYTE           N05     Bn2
        BYTE   W06
        BYTE                   Bn2
        BYTE   W06
        BYTE           N23     Ds3
        BYTE   W24
// 007   ----------------------------------------
        BYTE                   As2
        BYTE   W24
        BYTE           N44     Bn2   v076   gtp3
        BYTE   W48
        BYTE           N05     As3   v084
        BYTE   W06
        BYTE                   As3
        BYTE   W18
// 008   ----------------------------------------
        BYTE   W12
        BYTE                   As3
        BYTE   W06
        BYTE                   As3
        BYTE   W06
        BYTE           PAN     c_v-14
        BYTE           VOICE   110
        BYTE           N92     En2   v076   gtp3
        BYTE   W72
// 009   ----------------------------------------
SecondArmageddon_4_9:
        BYTE   W24
        BYTE           N92     Ds2   v076   gtp3
        BYTE   W72
        BYTE   PEND
// 010   ----------------------------------------
SecondArmageddon_4_10:
        BYTE   W24
        BYTE           N92     En2   v076   gtp3
        BYTE   W72
        BYTE   PEND
// 011   ----------------------------------------
        BYTE   PATT
         POIN2  SecondArmageddon_4_9
// 012   ----------------------------------------
        BYTE   PATT
         POIN2  SecondArmageddon_4_10
// 013   ----------------------------------------
        BYTE   W24
        BYTE           N44     Ds2   v076   gtp3
        BYTE   W48
        BYTE                   Ds2
        BYTE   W24
// 014   ----------------------------------------
        BYTE   W24
        BYTE                   Gs2
        BYTE   W48
        BYTE                   Gn2
        BYTE   W24
// 015   ----------------------------------------
        BYTE   W24
        BYTE                   Fs2
        BYTE   W48
        BYTE                   Fn2
        BYTE   W24
// 016   ----------------------------------------
        BYTE   PATT
         POIN2  SecondArmageddon_4_10
// 017   ----------------------------------------
        BYTE   PATT
         POIN2  SecondArmageddon_4_9
// 018   ----------------------------------------
        BYTE   PATT
         POIN2  SecondArmageddon_4_10
// 019   ----------------------------------------
        BYTE   PATT
         POIN2  SecondArmageddon_4_9
// 020   ----------------------------------------
        BYTE   W24
        BYTE           N92     Fn2   v076   gtp3
        BYTE   W72
// 021   ----------------------------------------
        BYTE   W24
        BYTE           N44     Bn2   v076   gtp3
        BYTE   W48
        BYTE                   As2
        BYTE   W24
// 022   ----------------------------------------
        BYTE   W24
        BYTE                   En2
        BYTE   W48
        BYTE                   Fs2
        BYTE   W24
// 023   ----------------------------------------
        BYTE   W24
        BYTE           N68     Gs2   v076   gtp3
        BYTE   W72
// 024   ----------------------------------------
        BYTE           N23     Fs2
        BYTE   W24
        BYTE           VOICE   5
        BYTE           N03     Bn4   v080
        BYTE           PAN     c_v+1
        BYTE   W02
        BYTE                   c_v+2
        BYTE   W02
        BYTE                   c_v+3
        BYTE   W02
        BYTE           N03     Bn4   v076
        BYTE           PAN     c_v+4
        BYTE   W02
        BYTE                   c_v+5
        BYTE   W02
        BYTE                   c_v+6
        BYTE   W02
        BYTE                   c_v+7
        BYTE   W02
        BYTE                   c_v+8
        BYTE   W02
        BYTE                   c_v+9
        BYTE   W02
        BYTE           N03
        BYTE           PAN     c_v+10
        BYTE   W02
        BYTE                   c_v+11
        BYTE   W02
        BYTE                   c_v+12
        BYTE   W02
        BYTE                   c_v+13
        BYTE   W02
        BYTE                   c_v+14
        BYTE   W02
        BYTE                   c_v+15
        BYTE   W02
        BYTE                   c_v+16
        BYTE   W02
        BYTE                   c_v+17
        BYTE   W02
        BYTE                   c_v+18
        BYTE   W02
        BYTE                   c_v+19
        BYTE   W02
        BYTE                   c_v+20
        BYTE   W02
        BYTE                   c_v+21
        BYTE   W02
        BYTE                   c_v+22
        BYTE   W02
        BYTE                   c_v+23
        BYTE   W02
        BYTE                   c_v+24
        BYTE   W01
        BYTE                   c_v+25
        BYTE   W02
        BYTE                   c_v+26
        BYTE   W02
        BYTE                   c_v+27
        BYTE   W02
        BYTE                   c_v+28
        BYTE   W01
        BYTE           N03
        BYTE   W01
        BYTE           PAN     c_v+29
        BYTE   W02
        BYTE                   c_v+30
        BYTE   W02
        BYTE                   c_v+31
        BYTE   W02
        BYTE                   c_v+32
        BYTE   W02
        BYTE                   c_v+33
        BYTE   W02
        BYTE                   c_v+34
        BYTE   W01
        BYTE           N03
        BYTE   W01
        BYTE           PAN     c_v+35
        BYTE   W02
        BYTE                   c_v+36
        BYTE   W02
        BYTE                   c_v+37
        BYTE   W01
// 025   ----------------------------------------
SecondArmageddon_4_25:
        BYTE   W01
        BYTE           PAN     c_v+38
        BYTE   W02
        BYTE                   c_v+39
        BYTE   W02
        BYTE                   c_v+40
        BYTE   W02
        BYTE                   c_v+41
        BYTE   W02
        BYTE                   c_v+42
        BYTE   W02
        BYTE                   c_v+43
        BYTE   W02
        BYTE                   c_v+44
        BYTE   W02
        BYTE                   c_v+45
        BYTE   W02
        BYTE                   c_v+46
        BYTE   W01
        BYTE           N03     Bn4   v076
        BYTE   W01
        BYTE           PAN     c_v+47
        BYTE   W02
        BYTE                   c_v+48
        BYTE   W02
        BYTE                   c_v+49
        BYTE   W01
        BYTE           N03     As4   v080
        BYTE           PAN     c_v+1
        BYTE   W02
        BYTE                   c_v+2
        BYTE   W02
        BYTE                   c_v+3
        BYTE   W02
        BYTE           N03     As4   v076
        BYTE           PAN     c_v+4
        BYTE   W02
        BYTE                   c_v+5
        BYTE   W02
        BYTE                   c_v+6
        BYTE   W02
        BYTE                   c_v+7
        BYTE   W02
        BYTE                   c_v+8
        BYTE   W02
        BYTE                   c_v+9
        BYTE   W02
        BYTE           N03
        BYTE           PAN     c_v+10
        BYTE   W02
        BYTE                   c_v+11
        BYTE   W02
        BYTE                   c_v+12
        BYTE   W02
        BYTE                   c_v+13
        BYTE   W02
        BYTE                   c_v+14
        BYTE   W02
        BYTE                   c_v+15
        BYTE   W02
        BYTE                   c_v+16
        BYTE   W02
        BYTE                   c_v+17
        BYTE   W02
        BYTE                   c_v+18
        BYTE   W02
        BYTE                   c_v+19
        BYTE   W02
        BYTE                   c_v+20
        BYTE   W02
        BYTE                   c_v+21
        BYTE   W02
        BYTE                   c_v+22
        BYTE   W02
        BYTE                   c_v+23
        BYTE   W02
        BYTE                   c_v+24
        BYTE   W01
        BYTE                   c_v+25
        BYTE   W02
        BYTE                   c_v+26
        BYTE   W02
        BYTE                   c_v+27
        BYTE   W02
        BYTE                   c_v+28
        BYTE   W01
        BYTE           N03     Fs4
        BYTE   W01
        BYTE           PAN     c_v+29
        BYTE   W02
        BYTE                   c_v+30
        BYTE   W02
        BYTE                   c_v+31
        BYTE   W02
        BYTE                   c_v+32
        BYTE   W02
        BYTE                   c_v+33
        BYTE   W02
        BYTE                   c_v+34
        BYTE   W01
        BYTE           N03
        BYTE   W01
        BYTE           PAN     c_v+35
        BYTE   W02
        BYTE                   c_v+36
        BYTE   W02
        BYTE                   c_v+37
        BYTE   W01
        BYTE   PEND
// 026   ----------------------------------------
SecondArmageddon_4_26:
        BYTE   W01
        BYTE           PAN     c_v+38
        BYTE   W02
        BYTE                   c_v+39
        BYTE   W02
        BYTE                   c_v+40
        BYTE   W02
        BYTE                   c_v+41
        BYTE   W02
        BYTE                   c_v+42
        BYTE   W02
        BYTE                   c_v+43
        BYTE   W02
        BYTE                   c_v+44
        BYTE   W02
        BYTE                   c_v+45
        BYTE   W02
        BYTE                   c_v+46
        BYTE   W01
        BYTE           N03     Fs4   v076
        BYTE   W01
        BYTE           PAN     c_v+47
        BYTE   W02
        BYTE                   c_v+48
        BYTE   W02
        BYTE                   c_v+49
        BYTE   W01
        BYTE           N03     Bn4   v080
        BYTE           PAN     c_v+1
        BYTE   W02
        BYTE                   c_v+2
        BYTE   W02
        BYTE                   c_v+3
        BYTE   W02
        BYTE           N03     Bn4   v076
        BYTE           PAN     c_v+4
        BYTE   W02
        BYTE                   c_v+5
        BYTE   W02
        BYTE                   c_v+6
        BYTE   W02
        BYTE                   c_v+7
        BYTE   W02
        BYTE                   c_v+8
        BYTE   W02
        BYTE                   c_v+9
        BYTE   W02
        BYTE           N03
        BYTE           PAN     c_v+10
        BYTE   W02
        BYTE                   c_v+11
        BYTE   W02
        BYTE                   c_v+12
        BYTE   W02
        BYTE                   c_v+13
        BYTE   W02
        BYTE                   c_v+14
        BYTE   W02
        BYTE                   c_v+15
        BYTE   W02
        BYTE                   c_v+16
        BYTE   W02
        BYTE                   c_v+17
        BYTE   W02
        BYTE                   c_v+18
        BYTE   W02
        BYTE                   c_v+19
        BYTE   W02
        BYTE                   c_v+20
        BYTE   W02
        BYTE                   c_v+21
        BYTE   W02
        BYTE                   c_v+22
        BYTE   W02
        BYTE                   c_v+23
        BYTE   W02
        BYTE                   c_v+24
        BYTE   W01
        BYTE                   c_v+25
        BYTE   W02
        BYTE                   c_v+26
        BYTE   W02
        BYTE                   c_v+27
        BYTE   W02
        BYTE                   c_v+28
        BYTE   W01
        BYTE           N03
        BYTE   W01
        BYTE           PAN     c_v+29
        BYTE   W02
        BYTE                   c_v+30
        BYTE   W02
        BYTE                   c_v+31
        BYTE   W02
        BYTE                   c_v+32
        BYTE   W02
        BYTE                   c_v+33
        BYTE   W02
        BYTE                   c_v+34
        BYTE   W01
        BYTE           N03
        BYTE   W01
        BYTE           PAN     c_v+35
        BYTE   W02
        BYTE                   c_v+36
        BYTE   W02
        BYTE                   c_v+37
        BYTE   W01
        BYTE   PEND
// 027   ----------------------------------------
        BYTE   PATT
         POIN2  SecondArmageddon_4_25
// 028   ----------------------------------------
        BYTE   PATT
         POIN2  SecondArmageddon_4_26
// 029   ----------------------------------------
SecondArmageddon_4_29:
        BYTE   W01
        BYTE           PAN     c_v+38
        BYTE   W02
        BYTE                   c_v+39
        BYTE   W02
        BYTE                   c_v+40
        BYTE   W02
        BYTE                   c_v+41
        BYTE   W02
        BYTE                   c_v+42
        BYTE   W02
        BYTE                   c_v+43
        BYTE   W02
        BYTE                   c_v+44
        BYTE   W02
        BYTE                   c_v+45
        BYTE   W02
        BYTE                   c_v+46
        BYTE   W01
        BYTE           N03     Bn4   v076
        BYTE   W01
        BYTE           PAN     c_v+47
        BYTE   W02
        BYTE                   c_v+48
        BYTE   W02
        BYTE                   c_v+49
        BYTE   W01
        BYTE           N03     Fs4   v080
        BYTE           PAN     c_v+1
        BYTE   W02
        BYTE                   c_v+2
        BYTE   W02
        BYTE                   c_v+3
        BYTE   W02
        BYTE           N03     Fs4   v076
        BYTE           PAN     c_v+4
        BYTE   W02
        BYTE                   c_v+5
        BYTE   W02
        BYTE                   c_v+6
        BYTE   W02
        BYTE                   c_v+7
        BYTE   W02
        BYTE                   c_v+8
        BYTE   W02
        BYTE                   c_v+9
        BYTE   W02
        BYTE           N03
        BYTE           PAN     c_v+10
        BYTE   W02
        BYTE                   c_v+11
        BYTE   W02
        BYTE                   c_v+12
        BYTE   W02
        BYTE                   c_v+13
        BYTE   W02
        BYTE                   c_v+14
        BYTE   W02
        BYTE                   c_v+15
        BYTE   W02
        BYTE                   c_v+16
        BYTE   W02
        BYTE                   c_v+17
        BYTE   W02
        BYTE                   c_v+18
        BYTE   W02
        BYTE                   c_v+19
        BYTE   W02
        BYTE                   c_v+20
        BYTE   W02
        BYTE                   c_v+21
        BYTE   W02
        BYTE                   c_v+22
        BYTE   W02
        BYTE                   c_v+23
        BYTE   W02
        BYTE                   c_v+24
        BYTE   W01
        BYTE                   c_v+25
        BYTE   W02
        BYTE                   c_v+26
        BYTE   W02
        BYTE                   c_v+27
        BYTE   W02
        BYTE                   c_v+28
        BYTE   W01
        BYTE           N03     As4
        BYTE   W01
        BYTE           PAN     c_v+29
        BYTE   W02
        BYTE                   c_v+30
        BYTE   W02
        BYTE                   c_v+31
        BYTE   W02
        BYTE                   c_v+32
        BYTE   W02
        BYTE                   c_v+33
        BYTE   W02
        BYTE                   c_v+34
        BYTE   W01
        BYTE           N03
        BYTE   W01
        BYTE           PAN     c_v+35
        BYTE   W02
        BYTE                   c_v+36
        BYTE   W02
        BYTE                   c_v+37
        BYTE   W01
        BYTE   PEND
// 030   ----------------------------------------
        BYTE   W01
        BYTE                   c_v+38
        BYTE   W02
        BYTE                   c_v+39
        BYTE   W02
        BYTE                   c_v+40
        BYTE   W02
        BYTE                   c_v+41
        BYTE   W02
        BYTE                   c_v+42
        BYTE   W02
        BYTE                   c_v+43
        BYTE   W02
        BYTE                   c_v+44
        BYTE   W02
        BYTE                   c_v+45
        BYTE   W02
        BYTE                   c_v+46
        BYTE   W01
        BYTE           N03
        BYTE   W01
        BYTE           PAN     c_v+47
        BYTE   W02
        BYTE                   c_v+48
        BYTE   W02
        BYTE                   c_v+49
        BYTE   W01
        BYTE           N03     Bn4   v080
        BYTE           PAN     c_v+1
        BYTE   W02
        BYTE                   c_v+2
        BYTE   W02
        BYTE                   c_v+3
        BYTE   W02
        BYTE           N03     Bn4   v076
        BYTE           PAN     c_v+4
        BYTE   W02
        BYTE                   c_v+5
        BYTE   W02
        BYTE                   c_v+6
        BYTE   W02
        BYTE                   c_v+7
        BYTE   W02
        BYTE                   c_v+8
        BYTE   W02
        BYTE                   c_v+9
        BYTE   W02
        BYTE           N03
        BYTE           PAN     c_v+10
        BYTE   W02
        BYTE                   c_v+11
        BYTE   W02
        BYTE                   c_v+12
        BYTE   W02
        BYTE                   c_v+13
        BYTE   W02
        BYTE                   c_v+14
        BYTE   W02
        BYTE                   c_v+15
        BYTE   W02
        BYTE                   c_v+16
        BYTE   W02
        BYTE                   c_v+17
        BYTE   W02
        BYTE                   c_v+18
        BYTE   W02
        BYTE                   c_v+19
        BYTE   W02
        BYTE                   c_v+20
        BYTE   W02
        BYTE                   c_v+21
        BYTE   W02
        BYTE                   c_v+22
        BYTE   W02
        BYTE                   c_v+23
        BYTE   W02
        BYTE                   c_v+24
        BYTE   W01
        BYTE                   c_v+25
        BYTE   W02
        BYTE                   c_v+26
        BYTE   W02
        BYTE                   c_v+27
        BYTE   W02
        BYTE                   c_v+28
        BYTE   W01
        BYTE           N03
        BYTE   W01
        BYTE           PAN     c_v+29
        BYTE   W02
        BYTE                   c_v+30
        BYTE   W02
        BYTE                   c_v+31
        BYTE   W02
        BYTE                   c_v+32
        BYTE   W02
        BYTE                   c_v+33
        BYTE   W02
        BYTE                   c_v+34
        BYTE   W01
        BYTE           N03
        BYTE   W01
        BYTE           PAN     c_v+35
        BYTE   W02
        BYTE                   c_v+36
        BYTE   W02
        BYTE                   c_v+37
        BYTE   W01
// 031   ----------------------------------------
        BYTE   PATT
         POIN2  SecondArmageddon_4_25
// 032   ----------------------------------------
        BYTE   W01
        BYTE           PAN     c_v+38
        BYTE   W02
        BYTE                   c_v+39
        BYTE   W02
        BYTE                   c_v+40
        BYTE   W01
        BYTE           N03     Fs4   v076
        BYTE   W01
        BYTE           PAN     c_v+41
        BYTE   W02
        BYTE                   c_v+42
        BYTE   W02
        BYTE                   c_v+43
        BYTE   W02
        BYTE                   c_v+44
        BYTE   W02
        BYTE                   c_v+45
        BYTE   W02
        BYTE                   c_v+46
        BYTE   W01
        BYTE           N03
        BYTE   W01
        BYTE           PAN     c_v+47
        BYTE   W02
        BYTE                   c_v+48
        BYTE   W02
        BYTE                   c_v+49
        BYTE   W01
        BYTE           N03     Bn4   v080
        BYTE           PAN     c_v+1
        BYTE   W02
        BYTE                   c_v+2
        BYTE   W02
        BYTE                   c_v+3
        BYTE   W02
        BYTE           N03     Bn4   v076
        BYTE           PAN     c_v+4
        BYTE   W02
        BYTE                   c_v+5
        BYTE   W02
        BYTE                   c_v+6
        BYTE   W02
        BYTE                   c_v+7
        BYTE   W02
        BYTE                   c_v+8
        BYTE   W02
        BYTE                   c_v+9
        BYTE   W02
        BYTE           N03
        BYTE           PAN     c_v+10
        BYTE   W02
        BYTE                   c_v+11
        BYTE   W02
        BYTE                   c_v+12
        BYTE   W02
        BYTE                   c_v+13
        BYTE   W02
        BYTE                   c_v+14
        BYTE   W02
        BYTE                   c_v+15
        BYTE   W02
        BYTE                   c_v+16
        BYTE   W02
        BYTE                   c_v+17
        BYTE   W02
        BYTE                   c_v+18
        BYTE   W02
        BYTE                   c_v+19
        BYTE   W02
        BYTE                   c_v+20
        BYTE   W02
        BYTE                   c_v+21
        BYTE   W02
        BYTE                   c_v+22
        BYTE   W02
        BYTE                   c_v+23
        BYTE   W02
        BYTE                   c_v+24
        BYTE   W01
        BYTE                   c_v+25
        BYTE   W02
        BYTE                   c_v+26
        BYTE   W02
        BYTE                   c_v+27
        BYTE   W02
        BYTE                   c_v+28
        BYTE   W01
        BYTE           N03
        BYTE   W01
        BYTE           PAN     c_v+29
        BYTE   W02
        BYTE                   c_v+30
        BYTE   W02
        BYTE                   c_v+31
        BYTE   W02
        BYTE                   c_v+32
        BYTE   W02
        BYTE                   c_v+33
        BYTE   W02
        BYTE                   c_v+34
        BYTE   W01
        BYTE           N03
        BYTE   W01
        BYTE           PAN     c_v+35
        BYTE   W02
        BYTE                   c_v+36
        BYTE   W02
        BYTE                   c_v+37
        BYTE   W01
// 033   ----------------------------------------
        BYTE   PATT
         POIN2  SecondArmageddon_4_25
// 034   ----------------------------------------
        BYTE   PATT
         POIN2  SecondArmageddon_4_26
// 035   ----------------------------------------
        BYTE   PATT
         POIN2  SecondArmageddon_4_25
// 036   ----------------------------------------
        BYTE   PATT
         POIN2  SecondArmageddon_4_26
// 037   ----------------------------------------
        BYTE   PATT
         POIN2  SecondArmageddon_4_29
// 038   ----------------------------------------
        BYTE   W01
        BYTE           PAN     c_v+38
        BYTE   W02
        BYTE                   c_v+39
        BYTE   W02
        BYTE                   c_v+40
        BYTE   W02
        BYTE                   c_v+41
        BYTE   W02
        BYTE                   c_v+42
        BYTE   W02
        BYTE                   c_v+43
        BYTE   W02
        BYTE                   c_v+44
        BYTE   W02
        BYTE                   c_v+45
        BYTE   W02
        BYTE                   c_v+46
        BYTE   W01
        BYTE           N03     As4   v076
        BYTE   W01
        BYTE           PAN     c_v+47
        BYTE   W02
        BYTE                   c_v+48
        BYTE   W02
        BYTE                   c_v+49
        BYTE   W01
        BYTE           N03     Gn4   v080
        BYTE           PAN     c_v+1
        BYTE   W02
        BYTE                   c_v+2
        BYTE   W02
        BYTE                   c_v+3
        BYTE   W02
        BYTE           N03     Gn4   v076
        BYTE           PAN     c_v+4
        BYTE   W02
        BYTE                   c_v+5
        BYTE   W02
        BYTE                   c_v+6
        BYTE   W02
        BYTE                   c_v+7
        BYTE   W02
        BYTE                   c_v+8
        BYTE   W02
        BYTE                   c_v+9
        BYTE   W02
        BYTE           N03
        BYTE           PAN     c_v+10
        BYTE   W02
        BYTE                   c_v+11
        BYTE   W02
        BYTE                   c_v+12
        BYTE   W02
        BYTE                   c_v+13
        BYTE   W02
        BYTE                   c_v+14
        BYTE   W02
        BYTE                   c_v+15
        BYTE   W02
        BYTE                   c_v+16
        BYTE   W02
        BYTE                   c_v+17
        BYTE   W02
        BYTE                   c_v+18
        BYTE   W02
        BYTE                   c_v+19
        BYTE   W02
        BYTE                   c_v+20
        BYTE   W02
        BYTE                   c_v+21
        BYTE   W02
        BYTE                   c_v+22
        BYTE   W02
        BYTE                   c_v+23
        BYTE   W02
        BYTE                   c_v+24
        BYTE   W01
        BYTE                   c_v+25
        BYTE   W02
        BYTE                   c_v+26
        BYTE   W02
        BYTE                   c_v+27
        BYTE   W02
        BYTE                   c_v+28
        BYTE   W01
        BYTE           N03
        BYTE   W01
        BYTE           PAN     c_v+29
        BYTE   W02
        BYTE                   c_v+30
        BYTE   W02
        BYTE                   c_v+31
        BYTE   W02
        BYTE                   c_v+32
        BYTE   W02
        BYTE                   c_v+33
        BYTE   W02
        BYTE                   c_v+34
        BYTE   W01
        BYTE           N03
        BYTE   W01
        BYTE           PAN     c_v+35
        BYTE   W02
        BYTE                   c_v+36
        BYTE   W02
        BYTE                   c_v+37
        BYTE   W01
// 039   ----------------------------------------
        BYTE   W01
        BYTE                   c_v+38
        BYTE   W02
        BYTE                   c_v+39
        BYTE   W02
        BYTE                   c_v+40
        BYTE   W02
        BYTE                   c_v+41
        BYTE   W02
        BYTE                   c_v+42
        BYTE   W02
        BYTE                   c_v+43
        BYTE   W02
        BYTE                   c_v+44
        BYTE   W02
        BYTE                   c_v+45
        BYTE   W02
        BYTE                   c_v+46
        BYTE   W01
        BYTE           N03
        BYTE   W01
        BYTE           PAN     c_v+47
        BYTE   W02
        BYTE                   c_v+48
        BYTE   W02
        BYTE                   c_v+49
        BYTE   W01
        BYTE           N03     Bn4   v080
        BYTE           PAN     c_v+1
        BYTE   W02
        BYTE                   c_v+2
        BYTE   W02
        BYTE                   c_v+3
        BYTE   W02
        BYTE           N03     Gs4
        BYTE           PAN     c_v+4
        BYTE   W02
        BYTE                   c_v+5
        BYTE   W02
        BYTE                   c_v+6
        BYTE   W02
        BYTE           N03     Ds5
        BYTE           PAN     c_v+7
        BYTE   W02
        BYTE                   c_v+8
        BYTE   W02
        BYTE                   c_v+9
        BYTE   W02
        BYTE           N03     Bn4
        BYTE           PAN     c_v+10
        BYTE   W02
        BYTE                   c_v+11
        BYTE   W02
        BYTE                   c_v+12
        BYTE   W02
        BYTE                   c_v+13
        BYTE           N03     Gs4
        BYTE   W02
        BYTE           PAN     c_v+14
        BYTE   W02
        BYTE                   c_v+15
        BYTE   W02
        BYTE                   c_v+16
        BYTE           N03     En4
        BYTE   W02
        BYTE           PAN     c_v+17
        BYTE   W02
        BYTE                   c_v+18
        BYTE   W02
        BYTE                   c_v+19
        BYTE           N03     Bn4
        BYTE   W02
        BYTE           PAN     c_v+20
        BYTE   W02
        BYTE                   c_v+21
        BYTE   W02
        BYTE                   c_v+22
        BYTE           N03     Gs4
        BYTE   W02
        BYTE           PAN     c_v+23
        BYTE   W02
        BYTE                   c_v+24
        BYTE   W01
        BYTE                   c_v+25
        BYTE   W01
        BYTE           N03     Fs4
        BYTE   W01
        BYTE           PAN     c_v+26
        BYTE   W02
        BYTE                   c_v+27
        BYTE   W02
        BYTE                   c_v+28
        BYTE   W01
        BYTE           N03     Cs5
        BYTE   W01
        BYTE           PAN     c_v+29
        BYTE   W02
        BYTE                   c_v+30
        BYTE   W02
        BYTE                   c_v+31
        BYTE   W01
        BYTE           N03     As4
        BYTE   W01
        BYTE           PAN     c_v+32
        BYTE   W02
        BYTE                   c_v+33
        BYTE   W02
        BYTE                   c_v+34
        BYTE   W01
        BYTE           N03     Fs4
        BYTE   W01
        BYTE           PAN     c_v+35
        BYTE   W02
        BYTE                   c_v+36
        BYTE   W02
        BYTE                   c_v+37
        BYTE   W01
// 040   ----------------------------------------
        BYTE           N03     Cs5
        BYTE   W01
        BYTE           PAN     c_v+38
        BYTE   W02
        BYTE                   c_v+39
        BYTE   W02
        BYTE                   c_v+40
        BYTE   W01
        BYTE           N03     As4   v084
        BYTE   W01
        BYTE           PAN     c_v+41
        BYTE   W02
        BYTE                   c_v+42
        BYTE   W02
        BYTE                   c_v+43
        BYTE   W01
        BYTE           N03     Fs4
        BYTE   W01
        BYTE           PAN     c_v+44
        BYTE   W02
        BYTE                   c_v+45
        BYTE   W02
        BYTE                   c_v+46
        BYTE   W01
        BYTE           N03     Cs5
        BYTE   W01
        BYTE           PAN     c_v+47
        BYTE   W02
        BYTE                   c_v+48
        BYTE   W02
        BYTE                   c_v+49
        BYTE   W01
        BYTE           VOICE   56
        BYTE           PAN     c_v-25
        BYTE           N80     Fs3   v076   gtp3
        BYTE   W72
// 041   ----------------------------------------
        BYTE   W12
        BYTE           N05
        BYTE   W06
        BYTE                   Fs3
        BYTE   W06
        BYTE   GoTo
         POIN2  SecondArmageddon_4_LOOP
        BYTE   FINE

//****************** Track 5 (Midi-Chn.5) ******************//

SecondArmageddon_5:
        BYTE   KEYSH   SecondArmageddon_key+0
// 000   ----------------------------------------
        BYTE           VOICE   11
        BYTE           VOL     42
        BYTE   W24
        BYTE   W01
        BYTE                   41
        BYTE           PAN     c_v+49
        BYTE           N23     Gs3   v076
        BYTE   W24
        BYTE                   Gs3
        BYTE   W24
        BYTE                   Gs3
        BYTE   W23
// 001   ----------------------------------------
        BYTE   W01
        BYTE                   Gs3
        BYTE   W23
SecondArmageddon_5_LOOP:
        BYTE   W01
        BYTE           N23     Gs3   v076
        BYTE   W24
        BYTE                   Gs3
        BYTE   W24
        BYTE                   Gs3
        BYTE   W23
// 002   ----------------------------------------
SecondArmageddon_5_2:
        BYTE   W01
        BYTE           N23     Gs3   v076
        BYTE   W24
        BYTE                   Gs3
        BYTE   W24
        BYTE                   Gs3
        BYTE   W24
        BYTE                   Gs3
        BYTE   W23
        BYTE   PEND
// 003   ----------------------------------------
        BYTE   PATT
         POIN2  SecondArmageddon_5_2
// 004   ----------------------------------------
        BYTE   W01
        BYTE           N22     Gs3   v076
        BYTE   W23
        BYTE           VOL     40
        BYTE           PAN     c_v-34
        BYTE           VOICE   110
        BYTE           TIE     Ds3
        BYTE   W72
// 005   ----------------------------------------
        BYTE   W96
// 006   ----------------------------------------
        BYTE   W23
        BYTE           EOT
        BYTE   W01
        BYTE           N44     En3   v076   gtp3
        BYTE   W48
        BYTE                   Ds3
        BYTE   W24
// 007   ----------------------------------------
        BYTE   W24
        BYTE                   Cs3
        BYTE   W48
        BYTE           VOICE   7
        BYTE           N05     Cs4
        BYTE   W06
        BYTE                   Cs4
        BYTE   W18
// 008   ----------------------------------------
        BYTE   W12
        BYTE                   Cs4
        BYTE   W06
        BYTE                   Cs4
        BYTE   W06
        BYTE           VOICE   110
        BYTE           N92     Gs3   v076   gtp3
        BYTE   W72
// 009   ----------------------------------------
SecondArmageddon_5_9:
        BYTE   W24
        BYTE           N92     Fs3   v076   gtp3
        BYTE   W72
        BYTE   PEND
// 010   ----------------------------------------
        BYTE   PATT
         POIN2  SecondArmageddon_2_30
// 011   ----------------------------------------
        BYTE   PATT
         POIN2  SecondArmageddon_5_9
// 012   ----------------------------------------
        BYTE   PATT
         POIN2  SecondArmageddon_2_30
// 013   ----------------------------------------
        BYTE   W24
        BYTE           N44     Fs3   v076   gtp3
        BYTE   W48
        BYTE                   As3
        BYTE   W24
// 014   ----------------------------------------
SecondArmageddon_5_14:
        BYTE   W24
        BYTE           N44     Bn3   v076   gtp3
        BYTE   W48
        BYTE                   Bn3
        BYTE   W24
        BYTE   PEND
// 015   ----------------------------------------
        BYTE   PATT
         POIN2  SecondArmageddon_5_14
// 016   ----------------------------------------
        BYTE   PATT
         POIN2  SecondArmageddon_2_30
// 017   ----------------------------------------
        BYTE   PATT
         POIN2  SecondArmageddon_5_9
// 018   ----------------------------------------
        BYTE   PATT
         POIN2  SecondArmageddon_2_30
// 019   ----------------------------------------
        BYTE   PATT
         POIN2  SecondArmageddon_5_9
// 020   ----------------------------------------
SecondArmageddon_5_20:
        BYTE   W24
        BYTE           N92     As3   v076   gtp3
        BYTE   W72
        BYTE   PEND
// 021   ----------------------------------------
SecondArmageddon_5_21:
        BYTE   W24
        BYTE           N44     Cs4   v076   gtp3
        BYTE   W48
        BYTE                   Cs4
        BYTE   W24
        BYTE   PEND
// 022   ----------------------------------------
        BYTE   PATT
         POIN2  SecondArmageddon_5_14
// 023   ----------------------------------------
        BYTE   W24
        BYTE           N68     Bn3   v076   gtp3
        BYTE   W72
// 024   ----------------------------------------
        BYTE           N23
        BYTE   W24
        BYTE           N92     Gs3   v076   gtp3
        BYTE   W72
// 025   ----------------------------------------
        BYTE   PATT
         POIN2  SecondArmageddon_5_9
// 026   ----------------------------------------
        BYTE   PATT
         POIN2  SecondArmageddon_2_30
// 027   ----------------------------------------
        BYTE   PATT
         POIN2  SecondArmageddon_5_9
// 028   ----------------------------------------
        BYTE   PATT
         POIN2  SecondArmageddon_2_30
// 029   ----------------------------------------
        BYTE   PATT
         POIN2  SecondArmageddon_5_9
// 030   ----------------------------------------
        BYTE   W24
        BYTE           N92     En3   v076   gtp3
        BYTE   W72
// 031   ----------------------------------------
        BYTE   PATT
         POIN2  SecondArmageddon_5_9
// 032   ----------------------------------------
        BYTE   PATT
         POIN2  SecondArmageddon_2_30
// 033   ----------------------------------------
        BYTE   PATT
         POIN2  SecondArmageddon_5_9
// 034   ----------------------------------------
        BYTE   PATT
         POIN2  SecondArmageddon_2_30
// 035   ----------------------------------------
        BYTE   PATT
         POIN2  SecondArmageddon_5_9
// 036   ----------------------------------------
        BYTE   PATT
         POIN2  SecondArmageddon_2_30
// 037   ----------------------------------------
        BYTE   PATT
         POIN2  SecondArmageddon_5_9
// 038   ----------------------------------------
        BYTE   W24
        BYTE           N92     Gn3   v076   gtp3
        BYTE   W72
// 039   ----------------------------------------
        BYTE   W24
        BYTE           N44     Gs3   v080   gtp3
        BYTE   W48
        BYTE                   As3
        BYTE   W24
// 040   ----------------------------------------
        BYTE   W24
        BYTE   W01
        BYTE           VOICE   11
        BYTE           VOL     41
        BYTE           PAN     c_v+49
        BYTE           N23     Gs3   v076
        BYTE   W24
        BYTE                   Gs3
        BYTE   W24
        BYTE                   Gs3
        BYTE   W23
// 041   ----------------------------------------
        BYTE   W01
        BYTE                   Gs3
        BYTE   W23
        BYTE   GoTo
         POIN2  SecondArmageddon_5_LOOP
        BYTE   FINE

//****************** Track 6 (Midi-Chn.6) ******************//

SecondArmageddon_6:
        BYTE   KEYSH   SecondArmageddon_key+0
// 000   ----------------------------------------
        BYTE           VOICE   11
        BYTE           VOL     43
        BYTE   W24
        BYTE                   42
        BYTE           PAN     c_v-49
        BYTE           N23     Gs4   v076
        BYTE   W24
        BYTE                   Gs4
        BYTE   W24
        BYTE                   Gs4
        BYTE   W24
// 001   ----------------------------------------
        BYTE                   Gs4
        BYTE   W24
SecondArmageddon_6_LOOP:
        BYTE           N23     Gs4   v076
        BYTE   W24
        BYTE                   Gs4
        BYTE   W24
        BYTE                   Gs4
        BYTE   W24
// 002   ----------------------------------------
SecondArmageddon_6_2:
        BYTE           N23     Gs4   v076
        BYTE   W24
        BYTE                   Gs4
        BYTE   W24
        BYTE                   Gs4
        BYTE   W24
        BYTE                   Gs4
        BYTE   W24
        BYTE   PEND
// 003   ----------------------------------------
        BYTE   PATT
         POIN2  SecondArmageddon_6_2
// 004   ----------------------------------------
        BYTE           N23     Gs4   v076
        BYTE   W24
        BYTE           VOL     41
        BYTE           PAN     c_v+34
        BYTE           VOICE   110
        BYTE           TIE     Bn3
        BYTE   W72
// 005   ----------------------------------------
        BYTE   W96
// 006   ----------------------------------------
        BYTE   W23
        BYTE           EOT
        BYTE   W01
        BYTE           N44     Gs3   v076   gtp3
        BYTE   W48
        BYTE                   Fs3
        BYTE   W24
// 007   ----------------------------------------
        BYTE   W24
        BYTE                   Gs3
        BYTE   W48
        BYTE           VOICE   7
        BYTE           N05     Ds4
        BYTE   W06
        BYTE                   Ds4
        BYTE   W18
// 008   ----------------------------------------
        BYTE   W12
        BYTE                   Ds4
        BYTE   W06
        BYTE                   Ds4
        BYTE   W06
        BYTE           VOICE   110
        BYTE           N92     Ds4   v076   gtp3
        BYTE   W72
// 009   ----------------------------------------
SecondArmageddon_6_9:
        BYTE   W24
        BYTE           N92     Cs4   v076   gtp3
        BYTE   W72
        BYTE   PEND
// 010   ----------------------------------------
        BYTE   PATT
         POIN2  SecondArmageddon_2_38
// 011   ----------------------------------------
        BYTE   PATT
         POIN2  SecondArmageddon_6_9
// 012   ----------------------------------------
SecondArmageddon_6_12:
        BYTE   W24
        BYTE           N92     Bn3   v076   gtp3
        BYTE   W72
        BYTE   PEND
// 013   ----------------------------------------
        BYTE   PATT
         POIN2  SecondArmageddon_5_21
// 014   ----------------------------------------
SecondArmageddon_6_14:
        BYTE   W24
        BYTE           N44     Ds4   v076   gtp3
        BYTE   W48
        BYTE                   Ds4
        BYTE   W24
        BYTE   PEND
// 015   ----------------------------------------
        BYTE   PATT
         POIN2  SecondArmageddon_6_14
// 016   ----------------------------------------
        BYTE   PATT
         POIN2  SecondArmageddon_2_38
// 017   ----------------------------------------
        BYTE   PATT
         POIN2  SecondArmageddon_6_9
// 018   ----------------------------------------
        BYTE   PATT
         POIN2  SecondArmageddon_2_38
// 019   ----------------------------------------
        BYTE   PATT
         POIN2  SecondArmageddon_6_9
// 020   ----------------------------------------
        BYTE   PATT
         POIN2  SecondArmageddon_6_9
// 021   ----------------------------------------
        BYTE   W24
        BYTE           N44     En4   v076   gtp3
        BYTE   W48
        BYTE                   Ds4
        BYTE   W24
// 022   ----------------------------------------
        BYTE   PATT
         POIN2  SecondArmageddon_6_14
// 023   ----------------------------------------
        BYTE   W24
        BYTE           N68     Ds4   v076   gtp3
        BYTE   W72
// 024   ----------------------------------------
        BYTE           N23
        BYTE   W24
        BYTE           N92     Bn3   v076   gtp3
        BYTE   W72
// 025   ----------------------------------------
        BYTE   PATT
         POIN2  SecondArmageddon_5_20
// 026   ----------------------------------------
        BYTE   PATT
         POIN2  SecondArmageddon_6_12
// 027   ----------------------------------------
        BYTE   PATT
         POIN2  SecondArmageddon_5_20
// 028   ----------------------------------------
        BYTE   PATT
         POIN2  SecondArmageddon_6_12
// 029   ----------------------------------------
        BYTE   PATT
         POIN2  SecondArmageddon_5_20
// 030   ----------------------------------------
        BYTE   PATT
         POIN2  SecondArmageddon_6_12
// 031   ----------------------------------------
        BYTE   PATT
         POIN2  SecondArmageddon_6_9
// 032   ----------------------------------------
        BYTE   PATT
         POIN2  SecondArmageddon_6_12
// 033   ----------------------------------------
        BYTE   PATT
         POIN2  SecondArmageddon_5_20
// 034   ----------------------------------------
        BYTE   PATT
         POIN2  SecondArmageddon_6_12
// 035   ----------------------------------------
        BYTE   PATT
         POIN2  SecondArmageddon_5_20
// 036   ----------------------------------------
        BYTE   PATT
         POIN2  SecondArmageddon_6_12
// 037   ----------------------------------------
        BYTE   PATT
         POIN2  SecondArmageddon_5_20
// 038   ----------------------------------------
        BYTE   PATT
         POIN2  SecondArmageddon_5_20
// 039   ----------------------------------------
        BYTE   W24
        BYTE           N44     Bn3   v080   gtp3
        BYTE   W48
        BYTE                   Cs4
        BYTE   W24
// 040   ----------------------------------------
        BYTE   W24
        BYTE           VOICE   11
        BYTE           VOL     42
        BYTE           PAN     c_v-49
        BYTE           N23     Gs4   v076
        BYTE   W24
        BYTE                   Gs4
        BYTE   W24
        BYTE                   Gs4
        BYTE   W24
// 041   ----------------------------------------
        BYTE                   Gs4
        BYTE   W24
        BYTE   GoTo
         POIN2  SecondArmageddon_6_LOOP
        BYTE   FINE

//****************** Track 7 (Midi-Chn.7) ******************//

SecondArmageddon_7:
        BYTE   KEYSH   SecondArmageddon_key+0
// 000   ----------------------------------------
        BYTE           VOICE   124
        BYTE           VOL     61
        BYTE           N01     Dn1   v076
        BYTE   W02
        BYTE           N03     Dn1   v080
        BYTE   W04
        BYTE           N05     Dn1   v084
        BYTE   W06
        BYTE           N10
        BYTE   W12
        BYTE           N11     Cn1   v076
        BYTE   W12
        BYTE                   Dn1
        BYTE   W12
        BYTE                   Cn1
        BYTE   W12
        BYTE                   Dn1
        BYTE   W12
        BYTE                   Cn1
        BYTE   W12
        BYTE                   Dn1
        BYTE   W12
// 001   ----------------------------------------
        BYTE                   Cn1
        BYTE   W12
        BYTE                   Dn1
        BYTE   W12
SecondArmageddon_7_LOOP:
        BYTE           N11     Cn1   v076
        BYTE   W12
        BYTE                   Dn1
        BYTE   W12
        BYTE                   Cn1
        BYTE   W12
        BYTE                   Dn1
        BYTE   W12
        BYTE                   Cn1
        BYTE   W12
        BYTE                   Dn1
        BYTE   W12
// 002   ----------------------------------------
        BYTE                   Cn1
        BYTE   W12
        BYTE                   Dn1
        BYTE   W12
        BYTE                   Cn1
        BYTE   W12
        BYTE                   Dn1
        BYTE   W12
        BYTE                   Cn1
        BYTE   W12
        BYTE                   Dn1
        BYTE   W12
        BYTE                   Cn1
        BYTE   W12
        BYTE                   Dn1
        BYTE   W12
// 003   ----------------------------------------
        BYTE                   Cn1
        BYTE   W12
        BYTE                   Dn1
        BYTE   W12
        BYTE                   Cn1
        BYTE   W12
        BYTE                   Dn1
        BYTE   W12
        BYTE           N05     Cn1
        BYTE   W06
        BYTE                   Cn1   v071
        BYTE   W06
        BYTE           N11     Dn1   v076
        BYTE   W12
        BYTE           N05     Cn1   v080
        BYTE   W06
        BYTE                   Cn1   v071
        BYTE   W06
        BYTE                   Dn1
        BYTE   W06
        BYTE                   Cn1   v067
        BYTE   W06
// 004   ----------------------------------------
        BYTE                   Cn1   v071
        BYTE   W06
        BYTE                   Cn1   v067
        BYTE   W06
        BYTE           N11     Dn1   v080
        BYTE   W12
        BYTE                   Cn1   v076
        BYTE   W12
        BYTE                   Dn1
        BYTE   W12
        BYTE           N05     Cn1
        BYTE   W06
        BYTE                   Cn1
        BYTE   W06
        BYTE           N11     Dn1
        BYTE   W12
        BYTE                   Cn1
        BYTE   W12
        BYTE                   Dn1
        BYTE   W12
// 005   ----------------------------------------
        BYTE           N05     Cn1
        BYTE   W06
        BYTE                   Cn1
        BYTE   W06
        BYTE           N11     Dn1
        BYTE   W12
        BYTE                   Cn1
        BYTE   W12
        BYTE                   Dn1
        BYTE   W12
        BYTE           N05     Cn1
        BYTE   W06
        BYTE                   Cn1
        BYTE   W06
        BYTE           N11     Dn1
        BYTE   W12
        BYTE           N05     Cn1
        BYTE   W06
        BYTE                   Cn1
        BYTE   W06
        BYTE                   Dn1
        BYTE   W06
        BYTE                   Cn1
        BYTE   W06
// 006   ----------------------------------------
        BYTE                   Cn1
        BYTE   W06
        BYTE                   Cn1
        BYTE   W06
        BYTE           N11     Dn1
        BYTE   W12
        BYTE                   Cn1
        BYTE   W12
        BYTE                   Dn1
        BYTE   W12
        BYTE           N05     Cn1
        BYTE   W06
        BYTE                   Cn1
        BYTE   W06
        BYTE           N11     Dn1
        BYTE   W12
        BYTE           N05     Cn1
        BYTE   W06
        BYTE                   Cn1   v071
        BYTE   W06
        BYTE           N11     Dn1   v076
        BYTE   W12
// 007   ----------------------------------------
        BYTE                   Cn1
        BYTE   W12
        BYTE                   Dn1
        BYTE   W12
        BYTE                   Cn1
        BYTE   W12
        BYTE           N05     Dn1
        BYTE   W06
        BYTE                   Cn1
        BYTE   W06
        BYTE                   Dn1   v071
        BYTE   W06
        BYTE           N11     Dn1   v076
        BYTE   W12
        BYTE           N05     Dn1   v080
        BYTE   W06
        BYTE                   Dn1
        BYTE   W06
        BYTE                   Dn1
        BYTE   W06
        BYTE                   Dn1   v050
        BYTE   W06
        BYTE                   Dn1
        BYTE   W06
// 008   ----------------------------------------
        BYTE                   Dn1   v057
        BYTE   W06
        BYTE                   Dn1
        BYTE   W06
        BYTE                   Dn1   v080
        BYTE   W06
        BYTE                   Dn1
        BYTE   W06
        BYTE           N11     Cn1   v076
        BYTE   W12
        BYTE                   Dn1
        BYTE   W12
        BYTE                   Cn1
        BYTE   W12
        BYTE                   Dn1
        BYTE   W12
        BYTE                   Cn1
        BYTE   W12
        BYTE                   Dn1
        BYTE   W12
// 009   ----------------------------------------
SecondArmageddon_7_9:
        BYTE           N11     Cn1   v076
        BYTE   W12
        BYTE                   Dn1
        BYTE   W12
        BYTE                   Cn1
        BYTE   W12
        BYTE                   Dn1
        BYTE   W12
        BYTE                   Cn1
        BYTE   W12
        BYTE                   Dn1
        BYTE   W12
        BYTE                   Cn1
        BYTE   W12
        BYTE           N05     Dn1
        BYTE   W06
        BYTE                   Cn1   v067
        BYTE   W06
        BYTE   PEND
// 010   ----------------------------------------
SecondArmageddon_7_10:
        BYTE           N05     Cn1   v071
        BYTE   W06
        BYTE                   Cn1   v067
        BYTE   W06
        BYTE           N11     Dn1   v076
        BYTE   W12
        BYTE                   Cn1
        BYTE   W12
        BYTE                   Dn1
        BYTE   W12
        BYTE                   Cn1
        BYTE   W12
        BYTE                   Dn1
        BYTE   W12
        BYTE                   Cn1
        BYTE   W12
        BYTE                   Dn1
        BYTE   W12
        BYTE   PEND
// 011   ----------------------------------------
        BYTE   PATT
         POIN2  SecondArmageddon_7_9
// 012   ----------------------------------------
        BYTE   PATT
         POIN2  SecondArmageddon_7_10
// 013   ----------------------------------------
        BYTE   PATT
         POIN2  SecondArmageddon_7_9
// 014   ----------------------------------------
        BYTE   PATT
         POIN2  SecondArmageddon_7_10
// 015   ----------------------------------------
        BYTE   PATT
         POIN2  SecondArmageddon_7_9
// 016   ----------------------------------------
        BYTE           N05     Dn1   v071
        BYTE   W06
        BYTE                   Dn1
        BYTE   W06
        BYTE                   Cn1   v076
        BYTE   W06
        BYTE                   Dn1   v067
        BYTE   W06
        BYTE           N11     Cn1   v076
        BYTE   W12
        BYTE                   Dn1
        BYTE   W12
        BYTE                   Cn1
        BYTE   W12
        BYTE                   Dn1
        BYTE   W12
        BYTE                   Cn1
        BYTE   W12
        BYTE                   Dn1
        BYTE   W12
// 017   ----------------------------------------
        BYTE   PATT
         POIN2  SecondArmageddon_7_9
// 018   ----------------------------------------
        BYTE   PATT
         POIN2  SecondArmageddon_7_10
// 019   ----------------------------------------
        BYTE   PATT
         POIN2  SecondArmageddon_7_9
// 020   ----------------------------------------
        BYTE   PATT
         POIN2  SecondArmageddon_7_10
// 021   ----------------------------------------
        BYTE   PATT
         POIN2  SecondArmageddon_7_9
// 022   ----------------------------------------
        BYTE   PATT
         POIN2  SecondArmageddon_7_10
// 023   ----------------------------------------
        BYTE   PATT
         POIN2  SecondArmageddon_7_9
// 024   ----------------------------------------
        BYTE           N05     Dn1   v071
        BYTE   W06
        BYTE                   Dn1
        BYTE   W06
        BYTE                   Cn1   v076
        BYTE   W06
        BYTE                   Dn1   v071
        BYTE   W06
        BYTE           N11     Cn1   v076
        BYTE   W12
        BYTE                   Dn1
        BYTE   W12
        BYTE                   Cn1
        BYTE   W12
        BYTE                   Dn1
        BYTE   W12
        BYTE                   Cn1
        BYTE   W12
        BYTE                   Dn1
        BYTE   W12
// 025   ----------------------------------------
        BYTE   PATT
         POIN2  SecondArmageddon_7_9
// 026   ----------------------------------------
        BYTE   PATT
         POIN2  SecondArmageddon_7_10
// 027   ----------------------------------------
        BYTE   PATT
         POIN2  SecondArmageddon_7_9
// 028   ----------------------------------------
        BYTE   PATT
         POIN2  SecondArmageddon_7_10
// 029   ----------------------------------------
        BYTE   PATT
         POIN2  SecondArmageddon_7_9
// 030   ----------------------------------------
        BYTE   PATT
         POIN2  SecondArmageddon_7_10
// 031   ----------------------------------------
        BYTE   PATT
         POIN2  SecondArmageddon_7_9
// 032   ----------------------------------------
        BYTE   PATT
         POIN2  SecondArmageddon_7_10
// 033   ----------------------------------------
        BYTE   PATT
         POIN2  SecondArmageddon_7_9
// 034   ----------------------------------------
        BYTE   PATT
         POIN2  SecondArmageddon_7_10
// 035   ----------------------------------------
        BYTE   PATT
         POIN2  SecondArmageddon_7_9
// 036   ----------------------------------------
        BYTE   PATT
         POIN2  SecondArmageddon_7_10
// 037   ----------------------------------------
        BYTE   PATT
         POIN2  SecondArmageddon_7_9
// 038   ----------------------------------------
        BYTE   PATT
         POIN2  SecondArmageddon_7_10
// 039   ----------------------------------------
        BYTE           N11     Cn1   v076
        BYTE   W12
        BYTE                   Dn1
        BYTE   W12
        BYTE                   Cn1
        BYTE   W12
        BYTE                   Dn1
        BYTE   W12
        BYTE                   Cn1
        BYTE   W12
        BYTE                   Dn1
        BYTE   W12
        BYTE                   Cn1
        BYTE   W12
        BYTE           N05     Dn1
        BYTE   W06
        BYTE                   Cn1   v071
        BYTE   W06
// 040   ----------------------------------------
        BYTE                   Dn1   v067
        BYTE   W06
        BYTE                   Dn1   v071
        BYTE   W06
        BYTE                   Dn1   v076
        BYTE   W06
        BYTE                   Dn1   v080
        BYTE   W06
        BYTE           N11     Cn1   v076
        BYTE   W12
        BYTE                   Dn1
        BYTE   W12
        BYTE                   Cn1
        BYTE   W12
        BYTE                   Dn1
        BYTE   W12
        BYTE                   Cn1
        BYTE   W12
        BYTE                   Dn1
        BYTE   W12
// 041   ----------------------------------------
        BYTE                   Cn1
        BYTE   W12
        BYTE                   Dn1
        BYTE   W12
        BYTE   GoTo
         POIN2  SecondArmageddon_7_LOOP
        BYTE   FINE


//********************** End of Song ***********************//

        ALIGN 4
SecondArmageddon:
        BYTE   8                       // Num Tracks
        BYTE   0                       // Unknown
        BYTE   SecondArmageddon_pri    // Priority
        BYTE   SecondArmageddon_rev    // Reverb

        POIN2   SecondArmageddon_grp   

        POIN2   SecondArmageddon_0
        POIN2   SecondArmageddon_1
        POIN2   SecondArmageddon_2
        POIN2   SecondArmageddon_3
        POIN2   SecondArmageddon_4
        POIN2   SecondArmageddon_5
        POIN2   SecondArmageddon_6
        POIN2   SecondArmageddon_7

        
