//Event file generated from Sappy .s format.
	#include "MPlayDef.event"

	#define	something0_grp  voicegroup000
	#define	something0_pri  0
	#define	something0_rev  0
	#define	something0_mvl  85
	#define	something0_key  0
	#define	something0_tbs  1
	#define	something0_exg  0
	#define	something0_cmp  1

	// .rodata
	//	something0
	ALIGN 4

//**************** Track 1 (Midi-Chn.1) ****************//

something0_1:
	BYTE	KEYSH   something0_key+0
// 000   ----------------------------------------
	BYTE	TEMPO   120*something0_tbs/2
	BYTE		VOICE   121
	BYTE		VOL     98*something0_mvl/mxv
	BYTE		N06     Cn1   v116
	BYTE	W12
	BYTE		        AsM1  v080
	BYTE	W12
	BYTE		        Cn1   v116
	BYTE	W24
	BYTE		N06   
	BYTE	W24
	BYTE		N06   
	BYTE	W24
// 001   ----------------------------------------
something0_1_001:
	BYTE		N06     Cn1   v116
	BYTE	W12
	BYTE		        AsM1  v080
	BYTE	W12
	BYTE		        Cn1   v116
	BYTE	W24
	BYTE		N06   
	BYTE	W24
	BYTE		N06   
	BYTE	W24
	BYTE	PEND
// 002   ----------------------------------------
	BYTE	PATT
	 POIN2	something0_1_001
// 003   ----------------------------------------
	BYTE		N06     Cn1   v116
	BYTE	W12
	BYTE		        AsM1  v080
	BYTE	W12
	BYTE		        Cn1   v116
	BYTE	W12
	BYTE		        AsM1  v080
	BYTE	W12
	BYTE		        Cn1   v116
	BYTE	W12
	BYTE		        AsM1  v080
	BYTE	W12
	BYTE		        Cn1   v116
	BYTE		N06     Dn1   v080
	BYTE	W06
	BYTE		N06   
	BYTE	W06
	BYTE		        AsM1
	BYTE		N06     Dn1 
	BYTE	W06
	BYTE		N06   
	BYTE	W06
// 004   ----------------------------------------
something0_1_004:
	BYTE		N06     Cn1   v116
	BYTE	W12
	BYTE		        Ds2   v064
	BYTE	W12
	BYTE		        GnM1  v080
	BYTE		N06     Cn1   v116
	BYTE	W06
	BYTE		        GnM1  v080
	BYTE	W06
	BYTE		        Ds2   v064
	BYTE	W06
	BYTE		        GsM1  v080
	BYTE	W06
	BYTE		        Cn1   v116
	BYTE	W12
	BYTE		        Ds2   v064
	BYTE	W12
	BYTE		        Cn1   v116
	BYTE	W12
	BYTE		        Ds2   v064
	BYTE	W12
	BYTE	PEND
// 005   ----------------------------------------
something0_1_005:
	BYTE		N06     Cn1   v116
	BYTE	W12
	BYTE		        GsM1  v080
	BYTE		N06     Ds2   v064
	BYTE	W06
	BYTE		        GsM1  v080
	BYTE	W06
	BYTE		        GnM1
	BYTE		N06     Cn1   v116
	BYTE	W06
	BYTE		        GnM1  v080
	BYTE	W06
	BYTE		        Ds2   v064
	BYTE	W06
	BYTE		        GsM1  v080
	BYTE	W06
	BYTE		        Cn1   v116
	BYTE	W12
	BYTE		        Ds2   v064
	BYTE	W12
	BYTE		        Cn1   v116
	BYTE	W12
	BYTE		        Ds2   v064
	BYTE	W12
	BYTE	PEND
// 006   ----------------------------------------
	BYTE	PATT
	 POIN2	something0_1_004
// 007   ----------------------------------------
something0_1_007:
	BYTE		N06     Cn1   v116
	BYTE	W12
	BYTE		        GsM1  v080
	BYTE		N06     Ds2   v064
	BYTE	W06
	BYTE		        GsM1  v080
	BYTE	W06
	BYTE		        GnM1
	BYTE		N06     Cn1   v116
	BYTE	W06
	BYTE		        GnM1  v080
	BYTE	W06
	BYTE		        Ds2   v064
	BYTE	W06
	BYTE		        GsM1  v080
	BYTE	W06
	BYTE		        Cn1   v116
	BYTE	W12
	BYTE		        Ds2   v064
	BYTE	W12
	BYTE		        Cn1   v116
	BYTE		N06     Dn1   v080
	BYTE	W06
	BYTE		N06   
	BYTE	W06
	BYTE		N06   
	BYTE		N06     Ds2   v064
	BYTE	W06
	BYTE		        Dn1   v080
	BYTE	W06
	BYTE	PEND
something0_1_B1:
// 008   ----------------------------------------
something0_1_008:
	BYTE		N06     DsM1  v080
	BYTE		N06     Cn1   v116
	BYTE	W06
	BYTE		        DsM1  v080
	BYTE	W06
	BYTE		        Ds2   v064
	BYTE	W06
	BYTE		        EnM1  v080
	BYTE	W06
	BYTE		        GnM1
	BYTE		N06     Cn1   v116
	BYTE		N06     Ds1   v080
	BYTE	W06
	BYTE		        DsM1
	BYTE		N06     GnM1
	BYTE	W06
	BYTE		        EnM1
	BYTE		N06     Ds2   v064
	BYTE	W06
	BYTE		        GsM1  v080
	BYTE		N06     Ds1 
	BYTE	W06
	BYTE		        EnM1
	BYTE		N06     Cn1   v116
	BYTE	W06
	BYTE		        EnM1  v080
	BYTE	W06
	BYTE		N06   
	BYTE		N06     Ds2   v064
	BYTE	W12
	BYTE		        EnM1  v080
	BYTE		N06     Cn1   v116
	BYTE	W06
	BYTE		        EnM1  v080
	BYTE	W06
	BYTE		N06   
	BYTE		N06     Ds2   v064
	BYTE	W12
	BYTE	PEND
// 009   ----------------------------------------
something0_1_009:
	BYTE		N06     Cn1   v116
	BYTE	W12
	BYTE		        GsM1  v080
	BYTE		N06     Ds2   v064
	BYTE	W06
	BYTE		        GsM1  v080
	BYTE	W06
	BYTE		        GnM1
	BYTE		N06     Cn1   v116
	BYTE		N06     Ds1   v080
	BYTE	W06
	BYTE		        GnM1
	BYTE	W06
	BYTE		        Ds2   v064
	BYTE	W06
	BYTE		        GsM1  v080
	BYTE		N06     Ds1 
	BYTE	W06
	BYTE		        Cn1   v116
	BYTE	W12
	BYTE		        Ds2   v064
	BYTE	W12
	BYTE		        Cn1   v116
	BYTE	W12
	BYTE		        Ds2   v064
	BYTE	W12
	BYTE	PEND
// 010   ----------------------------------------
	BYTE	PATT
	 POIN2	something0_1_008
// 011   ----------------------------------------
something0_1_011:
	BYTE		N06     Cn1   v116
	BYTE	W12
	BYTE		        GsM1  v080
	BYTE		N06     Ds2   v064
	BYTE	W06
	BYTE		        GsM1  v080
	BYTE	W06
	BYTE		        GnM1
	BYTE		N06     Cn1   v116
	BYTE		N06     Ds1   v080
	BYTE	W06
	BYTE		        GnM1
	BYTE	W06
	BYTE		        Ds2   v064
	BYTE	W06
	BYTE		        GsM1  v080
	BYTE		N06     Ds1 
	BYTE	W06
	BYTE		        Cn1   v116
	BYTE	W12
	BYTE		        Ds2   v064
	BYTE	W12
	BYTE		        Cn1   v116
	BYTE		N06     Dn1   v080
	BYTE	W06
	BYTE		N06   
	BYTE	W06
	BYTE		N06   
	BYTE		N06     Ds2   v064
	BYTE	W06
	BYTE		        Dn1   v080
	BYTE	W06
	BYTE	PEND
// 012   ----------------------------------------
	BYTE	PATT
	 POIN2	something0_1_008
// 013   ----------------------------------------
	BYTE	PATT
	 POIN2	something0_1_009
// 014   ----------------------------------------
	BYTE	PATT
	 POIN2	something0_1_008
// 015   ----------------------------------------
	BYTE	PATT
	 POIN2	something0_1_011
// 016   ----------------------------------------
	BYTE	PATT
	 POIN2	something0_1_008
// 017   ----------------------------------------
	BYTE	PATT
	 POIN2	something0_1_009
// 018   ----------------------------------------
	BYTE	PATT
	 POIN2	something0_1_008
// 019   ----------------------------------------
	BYTE	PATT
	 POIN2	something0_1_011
// 020   ----------------------------------------
	BYTE	PATT
	 POIN2	something0_1_008
// 021   ----------------------------------------
	BYTE	PATT
	 POIN2	something0_1_009
// 022   ----------------------------------------
	BYTE	PATT
	 POIN2	something0_1_008
// 023   ----------------------------------------
	BYTE	PATT
	 POIN2	something0_1_011
// 024   ----------------------------------------
	BYTE	PATT
	 POIN2	something0_1_004
// 025   ----------------------------------------
	BYTE	PATT
	 POIN2	something0_1_005
// 026   ----------------------------------------
	BYTE	PATT
	 POIN2	something0_1_004
// 027   ----------------------------------------
	BYTE	PATT
	 POIN2	something0_1_007
	BYTE	GoTo
	 POIN2	something0_1_B1
something0_1_B2:
// 028   ----------------------------------------
	BYTE	FINE

//**************** Track 2 (Midi-Chn.2) ****************//

something0_2:
	BYTE		VOL     127*something0_mvl/mxv
	BYTE	KEYSH   something0_key+0
// 000   ----------------------------------------
	BYTE		VOICE   38
	BYTE	W96
// 001   ----------------------------------------
	BYTE	W96
// 002   ----------------------------------------
	BYTE	W96
// 003   ----------------------------------------
	BYTE	W96
// 004   ----------------------------------------
something0_2_004:
	BYTE		N18     En1   v116
	BYTE	W24
	BYTE		N12   
	BYTE	W12
	BYTE		N06     Dn1 
	BYTE	W06
	BYTE		        En1 
	BYTE	W30
	BYTE		N24     Dn1 
	BYTE	W24
	BYTE	PEND
// 005   ----------------------------------------
something0_2_005:
	BYTE		N18     Bn0   v116
	BYTE	W24
	BYTE		N12   
	BYTE	W12
	BYTE		N06     An0 
	BYTE		N06     Dn1 
	BYTE	W06
	BYTE		        Bn0 
	BYTE	W30
	BYTE		N06   
	BYTE	W12
	BYTE		        An0 
	BYTE	W12
	BYTE	PEND
// 006   ----------------------------------------
something0_2_006:
	BYTE		N18     Gn0   v116
	BYTE	W36
	BYTE		N06   
	BYTE	W12
	BYTE		N24     An0 
	BYTE	W36
	BYTE		N06   
	BYTE	W12
	BYTE	PEND
// 007   ----------------------------------------
something0_2_007:
	BYTE		N06     Bn0   v116
	BYTE	W12
	BYTE		        Dn1 
	BYTE	W12
	BYTE		N24     Bn0 
	BYTE	W48
	BYTE		N24   
	BYTE	W24
	BYTE	PEND
something0_2_B1:
// 008   ----------------------------------------
	BYTE	PATT
	 POIN2	something0_2_004
// 009   ----------------------------------------
	BYTE	PATT
	 POIN2	something0_2_005
// 010   ----------------------------------------
	BYTE	PATT
	 POIN2	something0_2_006
// 011   ----------------------------------------
	BYTE	PATT
	 POIN2	something0_2_007
// 012   ----------------------------------------
	BYTE	PATT
	 POIN2	something0_2_004
// 013   ----------------------------------------
	BYTE	PATT
	 POIN2	something0_2_005
// 014   ----------------------------------------
	BYTE	PATT
	 POIN2	something0_2_006
// 015   ----------------------------------------
	BYTE	PATT
	 POIN2	something0_2_007
// 016   ----------------------------------------
	BYTE	PATT
	 POIN2	something0_2_004
// 017   ----------------------------------------
	BYTE	PATT
	 POIN2	something0_2_005
// 018   ----------------------------------------
	BYTE	PATT
	 POIN2	something0_2_006
// 019   ----------------------------------------
	BYTE	PATT
	 POIN2	something0_2_007
// 020   ----------------------------------------
	BYTE	PATT
	 POIN2	something0_2_004
// 021   ----------------------------------------
	BYTE	PATT
	 POIN2	something0_2_005
// 022   ----------------------------------------
	BYTE	PATT
	 POIN2	something0_2_006
// 023   ----------------------------------------
	BYTE	PATT
	 POIN2	something0_2_007
// 024   ----------------------------------------
	BYTE	W96
// 025   ----------------------------------------
	BYTE	W96
// 026   ----------------------------------------
	BYTE	W96
// 027   ----------------------------------------
	BYTE	W96
	BYTE	GoTo
	 POIN2	something0_2_B1
something0_2_B2:
// 028   ----------------------------------------
	BYTE	FINE

//**************** Track 3 (Midi-Chn.3) ****************//

something0_3:
	BYTE	KEYSH   something0_key+0
// 000   ----------------------------------------
	BYTE		VOICE   18
	BYTE		VOL     84*something0_mvl/mxv
	BYTE		PAN     c_v-32
	BYTE		N36     En2   v080
	BYTE	W36
	BYTE		        Bn1 
	BYTE	W36
	BYTE		N24     En1 
	BYTE	W24
// 001   ----------------------------------------
something0_3_001:
	BYTE		N36     En2   v080
	BYTE	W36
	BYTE		        Bn1 
	BYTE	W36
	BYTE		N24     En1 
	BYTE	W24
	BYTE	PEND
// 002   ----------------------------------------
something0_3_002:
	BYTE		N36     Dn2   v080
	BYTE	W36
	BYTE		        An1 
	BYTE	W36
	BYTE		N24     Dn2 
	BYTE	W24
	BYTE	PEND
// 003   ----------------------------------------
	BYTE	PATT
	 POIN2	something0_3_001
// 004   ----------------------------------------
	BYTE	PATT
	 POIN2	something0_3_001
// 005   ----------------------------------------
	BYTE	PATT
	 POIN2	something0_3_001
// 006   ----------------------------------------
	BYTE	PATT
	 POIN2	something0_3_002
// 007   ----------------------------------------
	BYTE	PATT
	 POIN2	something0_3_001
something0_3_B1:
// 008   ----------------------------------------
	BYTE	PATT
	 POIN2	something0_3_001
// 009   ----------------------------------------
	BYTE	PATT
	 POIN2	something0_3_001
// 010   ----------------------------------------
	BYTE	PATT
	 POIN2	something0_3_002
// 011   ----------------------------------------
	BYTE	PATT
	 POIN2	something0_3_001
// 012   ----------------------------------------
	BYTE	PATT
	 POIN2	something0_3_001
// 013   ----------------------------------------
	BYTE	PATT
	 POIN2	something0_3_001
// 014   ----------------------------------------
	BYTE	PATT
	 POIN2	something0_3_002
// 015   ----------------------------------------
	BYTE	PATT
	 POIN2	something0_3_001
// 016   ----------------------------------------
	BYTE	PATT
	 POIN2	something0_3_001
// 017   ----------------------------------------
	BYTE	PATT
	 POIN2	something0_3_001
// 018   ----------------------------------------
	BYTE	PATT
	 POIN2	something0_3_002
// 019   ----------------------------------------
	BYTE	PATT
	 POIN2	something0_3_001
// 020   ----------------------------------------
	BYTE	PATT
	 POIN2	something0_3_001
// 021   ----------------------------------------
	BYTE	PATT
	 POIN2	something0_3_001
// 022   ----------------------------------------
	BYTE	PATT
	 POIN2	something0_3_002
// 023   ----------------------------------------
	BYTE	PATT
	 POIN2	something0_3_001
// 024   ----------------------------------------
	BYTE	PATT
	 POIN2	something0_3_001
// 025   ----------------------------------------
	BYTE	PATT
	 POIN2	something0_3_001
// 026   ----------------------------------------
	BYTE	PATT
	 POIN2	something0_3_002
// 027   ----------------------------------------
	BYTE	PATT
	 POIN2	something0_3_001
	BYTE	GoTo
	 POIN2	something0_3_B1
something0_3_B2:
// 028   ----------------------------------------
	BYTE	FINE

//**************** Track 4 (Midi-Chn.4) ****************//

something0_4:
	BYTE	KEYSH   something0_key+0
// 000   ----------------------------------------
	BYTE		VOICE   91
	BYTE		VOL     59*something0_mvl/mxv
	BYTE		PAN     c_v+23
	BYTE		N96     Bn2   v080
	BYTE		N96     Gn3 
	BYTE	W96
// 001   ----------------------------------------
something0_4_001:
	BYTE		N96     Bn2   v080
	BYTE		N96     Fn3 
	BYTE		N96     An3 
	BYTE	W96
	BYTE	PEND
// 002   ----------------------------------------
	BYTE		        Cn3 
	BYTE		N96     En3 
	BYTE	W96
// 003   ----------------------------------------
	BYTE		        An2 
	BYTE		N96     Dn3 
	BYTE	W96
// 004   ----------------------------------------
	BYTE		        Bn2 
	BYTE		N96     Gn3 
	BYTE	W96
// 005   ----------------------------------------
	BYTE	PATT
	 POIN2	something0_4_001
// 006   ----------------------------------------
	BYTE		N96     Cn3   v080
	BYTE		N96     En3 
	BYTE	W96
// 007   ----------------------------------------
	BYTE		        An2 
	BYTE		N96     Dn3 
	BYTE	W96
something0_4_B1:
// 008   ----------------------------------------
	BYTE		N96     Bn2   v080
	BYTE		N96     Gn3 
	BYTE	W96
// 009   ----------------------------------------
	BYTE	PATT
	 POIN2	something0_4_001
// 010   ----------------------------------------
	BYTE		N96     Cn3   v080
	BYTE		N96     En3 
	BYTE	W96
// 011   ----------------------------------------
	BYTE		        An2 
	BYTE		N96     Dn3 
	BYTE	W96
// 012   ----------------------------------------
	BYTE		        Bn2 
	BYTE		N96     Gn3 
	BYTE	W96
// 013   ----------------------------------------
	BYTE	PATT
	 POIN2	something0_4_001
// 014   ----------------------------------------
	BYTE		N96     Cn3   v080
	BYTE		N96     En3 
	BYTE	W96
// 015   ----------------------------------------
	BYTE		        An2 
	BYTE		N96     Dn3 
	BYTE	W96
// 016   ----------------------------------------
	BYTE		        Bn2 
	BYTE		N96     Gn3 
	BYTE	W96
// 017   ----------------------------------------
	BYTE	PATT
	 POIN2	something0_4_001
// 018   ----------------------------------------
	BYTE		N96     Cn3   v080
	BYTE		N96     En3 
	BYTE	W96
// 019   ----------------------------------------
	BYTE		        An2 
	BYTE		N96     Dn3 
	BYTE	W96
// 020   ----------------------------------------
	BYTE		        Bn2 
	BYTE		N96     Gn3 
	BYTE	W96
// 021   ----------------------------------------
	BYTE	PATT
	 POIN2	something0_4_001
// 022   ----------------------------------------
	BYTE		N96     Cn3   v080
	BYTE		N96     En3 
	BYTE	W96
// 023   ----------------------------------------
	BYTE		        An2 
	BYTE		N96     Dn3 
	BYTE	W96
// 024   ----------------------------------------
	BYTE		        Bn2 
	BYTE		N96     Gn3 
	BYTE	W96
// 025   ----------------------------------------
	BYTE	PATT
	 POIN2	something0_4_001
// 026   ----------------------------------------
	BYTE		N96     Cn3   v080
	BYTE		N96     En3 
	BYTE	W96
// 027   ----------------------------------------
	BYTE		        An2 
	BYTE		N96     Dn3 
	BYTE	W96
	BYTE	GoTo
	 POIN2	something0_4_B1
something0_4_B2:
// 028   ----------------------------------------
	BYTE	FINE

//**************** Track 5 (Midi-Chn.5) ****************//

something0_5:
	BYTE	KEYSH   something0_key+0
// 000   ----------------------------------------
	BYTE		VOICE   55
	BYTE		VOL     110*something0_mvl/mxv
	BYTE	W96
// 001   ----------------------------------------
	BYTE	W96
// 002   ----------------------------------------
	BYTE	W96
// 003   ----------------------------------------
	BYTE	W96
// 004   ----------------------------------------
	BYTE		N48     Cn3   v080
	BYTE	W96
// 005   ----------------------------------------
	BYTE	W96
// 006   ----------------------------------------
	BYTE	W96
// 007   ----------------------------------------
	BYTE	W96
something0_5_B1:
// 008   ----------------------------------------
	BYTE		N48     Cn3   v080
	BYTE	W96
// 009   ----------------------------------------
	BYTE	W96
// 010   ----------------------------------------
	BYTE	W96
// 011   ----------------------------------------
	BYTE	W96
// 012   ----------------------------------------
	BYTE	W96
// 013   ----------------------------------------
	BYTE	W96
// 014   ----------------------------------------
	BYTE	W96
// 015   ----------------------------------------
	BYTE	W96
// 016   ----------------------------------------
	BYTE	W96
// 017   ----------------------------------------
	BYTE	W96
// 018   ----------------------------------------
	BYTE	W96
// 019   ----------------------------------------
	BYTE	W96
// 020   ----------------------------------------
	BYTE		N48   
	BYTE	W96
// 021   ----------------------------------------
	BYTE	W96
// 022   ----------------------------------------
	BYTE	W96
// 023   ----------------------------------------
	BYTE	W96
// 024   ----------------------------------------
	BYTE	W96
// 025   ----------------------------------------
	BYTE	W96
// 026   ----------------------------------------
	BYTE	W96
// 027   ----------------------------------------
	BYTE	W96
	BYTE	GoTo
	 POIN2	something0_5_B1
something0_5_B2:
// 028   ----------------------------------------
	BYTE	FINE

//**************** Track 6 (Midi-Chn.6) ****************//

something0_6:
	BYTE	KEYSH   something0_key+0
// 000   ----------------------------------------
	BYTE		VOICE   108
	BYTE		VOL     50*something0_mvl/mxv
	BYTE		PAN     c_v+37
	BYTE	W96
// 001   ----------------------------------------
	BYTE	W96
// 002   ----------------------------------------
	BYTE	W96
// 003   ----------------------------------------
	BYTE	W96
// 004   ----------------------------------------
	BYTE	W96
// 005   ----------------------------------------
	BYTE	W96
// 006   ----------------------------------------
	BYTE	W96
// 007   ----------------------------------------
	BYTE	W96
something0_6_B1:
// 008   ----------------------------------------
	BYTE	W96
// 009   ----------------------------------------
	BYTE	W96
// 010   ----------------------------------------
	BYTE	W96
// 011   ----------------------------------------
	BYTE	W96
// 012   ----------------------------------------
something0_6_012:
	BYTE		N72     En5   v080
	BYTE	W72
	BYTE		N24     Dn5 
	BYTE	W24
	BYTE	PEND
// 013   ----------------------------------------
something0_6_013:
	BYTE		N72     Bn4   v080
	BYTE	W72
	BYTE		N24     An4 
	BYTE	W24
	BYTE	PEND
// 014   ----------------------------------------
something0_6_014:
	BYTE		N72     Gn4   v080
	BYTE	W72
	BYTE		N24     An4 
	BYTE	W24
	BYTE	PEND
// 015   ----------------------------------------
	BYTE		N96     En4 
	BYTE	W96
// 016   ----------------------------------------
	BYTE	PATT
	 POIN2	something0_6_012
// 017   ----------------------------------------
	BYTE	PATT
	 POIN2	something0_6_013
// 018   ----------------------------------------
	BYTE	PATT
	 POIN2	something0_6_014
// 019   ----------------------------------------
	BYTE		N96     En4   v080
	BYTE	W96
// 020   ----------------------------------------
	BYTE	PATT
	 POIN2	something0_6_012
// 021   ----------------------------------------
	BYTE	PATT
	 POIN2	something0_6_013
// 022   ----------------------------------------
	BYTE	PATT
	 POIN2	something0_6_014
// 023   ----------------------------------------
	BYTE		N96     En4   v080
	BYTE	W96
// 024   ----------------------------------------
	BYTE	W96
// 025   ----------------------------------------
	BYTE	W96
// 026   ----------------------------------------
	BYTE	W96
// 027   ----------------------------------------
	BYTE	W96
	BYTE	GoTo
	 POIN2	something0_6_B1
something0_6_B2:
// 028   ----------------------------------------
	BYTE	FINE

//**************** Track 7 (Midi-Chn.7) ****************//

something0_7:
	BYTE	KEYSH   something0_key+0
// 000   ----------------------------------------
	BYTE		VOICE   67
	BYTE		VOL     70*something0_mvl/mxv
	BYTE	W96
// 001   ----------------------------------------
	BYTE	W96
// 002   ----------------------------------------
	BYTE	W96
// 003   ----------------------------------------
	BYTE	W96
// 004   ----------------------------------------
	BYTE	W96
// 005   ----------------------------------------
	BYTE	W96
// 006   ----------------------------------------
	BYTE	W96
// 007   ----------------------------------------
	BYTE	W96
something0_7_B1:
// 008   ----------------------------------------
	BYTE	W96
// 009   ----------------------------------------
	BYTE	W96
// 010   ----------------------------------------
	BYTE	W96
// 011   ----------------------------------------
	BYTE	W96
// 012   ----------------------------------------
	BYTE	W96
// 013   ----------------------------------------
	BYTE	W96
// 014   ----------------------------------------
	BYTE	W96
// 015   ----------------------------------------
	BYTE	W96
// 016   ----------------------------------------
	BYTE	W96
// 017   ----------------------------------------
	BYTE	W96
// 018   ----------------------------------------
	BYTE	W96
// 019   ----------------------------------------
	BYTE	W96
// 020   ----------------------------------------
something0_7_020:
	BYTE		N72     En3   v080
	BYTE	W72
	BYTE		N08     Bn3 
	BYTE	W08
	BYTE		        Gn3 
	BYTE	W08
	BYTE		N18     An3 
	BYTE	W08
	BYTE	PEND
// 021   ----------------------------------------
	BYTE	W12
	BYTE		N60     Bn3 
	BYTE	W84
// 022   ----------------------------------------
something0_7_022:
	BYTE		N48     En3   v080
	BYTE	W60
	BYTE		N06   
	BYTE	W12
	BYTE		        Gn3 
	BYTE	W08
	BYTE		N08     An3 
	BYTE	W08
	BYTE		N80     En3 
	BYTE	W08
	BYTE	PEND
// 023   ----------------------------------------
	BYTE	W96
// 024   ----------------------------------------
	BYTE	PATT
	 POIN2	something0_7_020
// 025   ----------------------------------------
	BYTE	W12
	BYTE		N60     Bn3   v080
	BYTE	W84
// 026   ----------------------------------------
	BYTE	PATT
	 POIN2	something0_7_022
// 027   ----------------------------------------
	BYTE	W96
	BYTE	GoTo
	 POIN2	something0_7_B1
something0_7_B2:
// 028   ----------------------------------------
	BYTE	FINE

//******************************************************//
	ALIGN 4

something0:
	BYTE	7	// NumTrks
	BYTE	0	// NumBlks
	BYTE	something0_pri	// Priority
	BYTE	something0_rev	// Reverb.

	POIN2	something0_grp

	POIN2	something0_1
	POIN2	something0_2
	POIN2	something0_3
	POIN2	something0_4
	POIN2	something0_5
	POIN2	something0_6
	POIN2	something0_7

	
