//Event file generated from Sappy .s format.
        #include "MPlayDef.event"

        #define    song43_grp  voicegroup000
        #define    song43_pri  0
        #define    song43_rev  0
        #define    song43_key  0

        // .rodata
        // song43
        ALIGN 4

//****************** Track 0 (Midi-Chn.0) ******************//

song43_0:
        BYTE   KEYSH   song43_key+0
// 000   ----------------------------------------
        BYTE   TEMPO   122/2
song43_0_LOOP:
        BYTE           VOICE   49
        BYTE           VOL     45
        BYTE           PAN     c_v-23
        BYTE           N48     Ds3   v120
        BYTE   W48
        BYTE           N24     Gs3
        BYTE   W24
        BYTE           N21     Cn4   v116
        BYTE   W24
// 001   ----------------------------------------
        BYTE           N48     Cn4   v112
        BYTE   W48
        BYTE           N44     Fn3   v120
        BYTE   W48
// 002   ----------------------------------------
        BYTE           N60
        BYTE   W60
        BYTE           N12     Gn3
        BYTE   W12
        BYTE                   Gs3
        BYTE   W12
        BYTE                   As3
        BYTE   W12
// 003   ----------------------------------------
        BYTE           N48     Gs3
        BYTE   W48
        BYTE           N44     Gn3
        BYTE   W48
// 004   ----------------------------------------
        BYTE           N48     Ds3
        BYTE   W48
        BYTE           N24     Gs3
        BYTE   W24
        BYTE                   Cn4
        BYTE   W24
// 005   ----------------------------------------
        BYTE           N48     Ds4   v108
        BYTE   W48
        BYTE           N24     Cs4   v116
        BYTE   W24
        BYTE                   Cn4   v120
        BYTE   W24
// 006   ----------------------------------------
        BYTE           N56     Fn3
        BYTE   W60
        BYTE           N12     Gn3
        BYTE   W12
        BYTE                   Gs3
        BYTE   W12
        BYTE           N09     As3
        BYTE   W12
// 007   ----------------------------------------
        BYTE           N72
        BYTE   W96
// 008   ----------------------------------------
        BYTE           VOICE   51
        BYTE           PAN     c_v-20
        BYTE   W48
        BYTE           TIE     Cn4   v056
        BYTE   W48
// 009   ----------------------------------------
        BYTE   W96
// 010   ----------------------------------------
        BYTE           EOT
        BYTE           N24     Cs4   v076
        BYTE   W30
        BYTE           N06     As3   v084
        BYTE   W06
        BYTE                   Cn4
        BYTE   W06
        BYTE                   Cs4
        BYTE   W06
        BYTE           N24
        BYTE   W30
        BYTE           N06
        BYTE   W06
        BYTE                   Ds4
        BYTE   W06
        BYTE                   Fn4
        BYTE   W06
// 011   ----------------------------------------
        BYTE           N24     Fn4   v088
        BYTE   W30
        BYTE           N06     Fn4   v084
        BYTE   W06
        BYTE                   Gn4
        BYTE   W06
        BYTE                   Gs4
        BYTE   W06
        BYTE           N24     Gs4   v096
        BYTE   W24
        BYTE                   Gn4
        BYTE   W24
// 012   ----------------------------------------
        BYTE           N72     Gs4   v076
        BYTE   W72
        BYTE           N24     Gn4
        BYTE   W24
// 013   ----------------------------------------
        BYTE           N72     Fn4
        BYTE   W78
        BYTE           N06     Cs4
        BYTE   W06
        BYTE                   Ds4
        BYTE   W06
        BYTE                   Fn4
        BYTE   W06
// 014   ----------------------------------------
        BYTE           N30
        BYTE   W30
        BYTE           N06     Gn4
        BYTE   W06
        BYTE                   Gs4
        BYTE   W06
        BYTE                   As4
        BYTE   W06
        BYTE           N24     As4   v080
        BYTE   W30
        BYTE           N06     As4   v076
        BYTE   W06
        BYTE                   Cn5
        BYTE   W06
        BYTE                   Cs5
        BYTE   W06
// 015   ----------------------------------------
        BYTE           N96     Cn5   v072
        BYTE   W72
        BYTE   W02
        BYTE           VOL     44
        BYTE   W01
        BYTE                   42
        BYTE   W01
        BYTE                   41
        BYTE   W01
        BYTE                   40
        BYTE   W01
        BYTE                   39
        BYTE   W01
        BYTE                   37
        BYTE   W01
        BYTE                   35
        BYTE   W01
        BYTE                   34
        BYTE   W01
        BYTE                   33
        BYTE   W01
        BYTE                   32
        BYTE   W01
        BYTE                   29
        BYTE   W01
        BYTE                   28
        BYTE   W01
        BYTE                   27
        BYTE   W01
        BYTE                   24
        BYTE   W01
        BYTE                   23
        BYTE   W01
        BYTE                   20
        BYTE   W01
        BYTE                   18
        BYTE   W01
        BYTE                   17
        BYTE   W01
        BYTE                   13
        BYTE   W01
        BYTE                   11
        BYTE   W01
        BYTE                   7
        BYTE   W01
        BYTE                   0
        BYTE   W01
// 016   ----------------------------------------
        BYTE   W96
// 017   ----------------------------------------
        BYTE   W96
// 018   ----------------------------------------
        BYTE   W96
// 019   ----------------------------------------
        BYTE                   45
        BYTE   W96
// 020   ----------------------------------------
        BYTE           N36     Cs4   v088
        BYTE   W36
        BYTE           N06     Cn4
        BYTE   W06
        BYTE                   Cs4
        BYTE   W06
        BYTE           N48     Ds4
        BYTE   W48
// 021   ----------------------------------------
        BYTE   W12
        BYTE           N12
        BYTE   W12
        BYTE                   Cs4
        BYTE   W12
        BYTE                   Cn4
        BYTE   W12
        BYTE                   As3
        BYTE   W12
        BYTE                   Gs3
        BYTE   W12
        BYTE                   Cn4
        BYTE   W12
        BYTE                   Ds4
        BYTE   W12
// 022   ----------------------------------------
        BYTE           N36     Fn4
        BYTE   W36
        BYTE           N06     Cs4
        BYTE   W06
        BYTE                   Ds4
        BYTE   W06
        BYTE           N32     Fn4
        BYTE   W36
        BYTE           N06
        BYTE   W06
        BYTE                   Gn4
        BYTE   W06
// 023   ----------------------------------------
        BYTE           N36     Gs4   v080
        BYTE   W36
        BYTE           N06     Gn4   v088
        BYTE   W06
        BYTE                   Gs4
        BYTE   W06
        BYTE           N48     As4   v072
        BYTE   W48
// 024   ----------------------------------------
        BYTE   W96
// 025   ----------------------------------------
        BYTE   W96
// 026   ----------------------------------------
        BYTE   W96
// 027   ----------------------------------------
        BYTE   W96
// 028   ----------------------------------------
        BYTE   W96
// 029   ----------------------------------------
        BYTE   W96
// 030   ----------------------------------------
        BYTE   W96
// 031   ----------------------------------------
        BYTE   W96
// 032   ----------------------------------------
        BYTE           TIE     Gs3
        BYTE   W96
// 033   ----------------------------------------
        BYTE   W96
// 034   ----------------------------------------
        BYTE   W96
// 035   ----------------------------------------
        BYTE   W68
        BYTE   W01
        BYTE           EOT
        BYTE   W03
        BYTE           N06     Cs4   v088
        BYTE   W06
        BYTE                   Ds4
        BYTE   W06
        BYTE                   Fn4
        BYTE   W06
        BYTE                   Gn4
        BYTE   W06
// 036   ----------------------------------------
        BYTE           TIE     Gs4   v068
        BYTE   W96
// 037   ----------------------------------------
        BYTE   W96
// 038   ----------------------------------------
        BYTE   W48
        BYTE           EOT
        BYTE           N48     Gn4
        BYTE   W48
// 039   ----------------------------------------
        BYTE           N72     Gs4
        BYTE   W96
// 040   ----------------------------------------
        BYTE           VOICE   49
        BYTE           PAN     c_v-23
        BYTE   GoTo
         POIN2  song43_0_LOOP
        BYTE   FINE

//****************** Track 1 (Midi-Chn.1) ******************//

song43_1:
        BYTE   KEYSH   song43_key+0
// 000   ----------------------------------------
song43_1_LOOP:
        BYTE           VOICE   33
        BYTE           VOL     43
        BYTE           N92     Gs1   v127
        BYTE   W96
// 001   ----------------------------------------
song43_1_1:
        BYTE           N44     Cs2   v127
        BYTE   W48
        BYTE           N21
        BYTE   W24
        BYTE           N24     Cn2
        BYTE   W24
        BYTE   PEND
// 002   ----------------------------------------
song43_1_2:
        BYTE           N56     As1   v127
        BYTE   W60
        BYTE           N09
        BYTE   W12
        BYTE           N12     Cn2
        BYTE   W12
        BYTE                   Cs2
        BYTE   W12
        BYTE   PEND
// 003   ----------------------------------------
song43_1_3:
        BYTE           N21     Ds2   v127
        BYTE   W24
        BYTE                   Ds2
        BYTE   W24
        BYTE           N24     Ds3
        BYTE   W24
        BYTE                   Ds2
        BYTE   W24
        BYTE   PEND
// 004   ----------------------------------------
song43_1_4:
        BYTE           N68     Gs1   v127
        BYTE   W72
        BYTE           N21
        BYTE   W24
        BYTE   PEND
// 005   ----------------------------------------
song43_1_5:
        BYTE           N68     Cs2   v127
        BYTE   W72
        BYTE           N21     Cn2
        BYTE   W24
        BYTE   PEND
// 006   ----------------------------------------
        BYTE           N44     As1
        BYTE   W48
        BYTE           N21     Fn1
        BYTE   W24
        BYTE           N24     As1
        BYTE   W24
// 007   ----------------------------------------
        BYTE           N48     Ds2
        BYTE   W60
        BYTE           N06
        BYTE   W12
        BYTE           N12     Fn2
        BYTE   W12
        BYTE                   Gn2
        BYTE   W12
// 008   ----------------------------------------
        BYTE           N42     Gs2
        BYTE   W48
        BYTE           N18     Gs1
        BYTE   W24
        BYTE           N24     Cn2
        BYTE   W24
// 009   ----------------------------------------
        BYTE           N54     Cs2
        BYTE   W60
        BYTE           N06     Gs1
        BYTE   W12
        BYTE           N12     Cs2
        BYTE   W12
        BYTE                   Cn2
        BYTE   W12
// 010   ----------------------------------------
        BYTE           N42     As1
        BYTE   W48
        BYTE           N18     Cn2
        BYTE   W24
        BYTE           N24     Cs2
        BYTE   W24
// 011   ----------------------------------------
        BYTE           N48     Ds2
        BYTE   W60
        BYTE           N06     Fn2
        BYTE   W12
        BYTE           N12     Ds2
        BYTE   W12
        BYTE                   Cs2
        BYTE   W12
// 012   ----------------------------------------
        BYTE           N54     Cn2
        BYTE   W60
        BYTE           N06     Gs1
        BYTE   W12
        BYTE           N12     As1
        BYTE   W12
        BYTE                   Cn2
        BYTE   W12
// 013   ----------------------------------------
        BYTE           N66     Cs2
        BYTE   W72
        BYTE           N06
        BYTE   W12
        BYTE           N12     Cn2
        BYTE   W12
// 014   ----------------------------------------
        BYTE           N32     As1
        BYTE   W36
        BYTE           N06     Cn2
        BYTE   W06
        BYTE                   Cs2
        BYTE   W06
        BYTE           N42     Ds2
        BYTE   W48
// 015   ----------------------------------------
        BYTE           N48     Gs1
        BYTE   W48
        BYTE           N12
        BYTE   W24
        BYTE                   Gs2   v108
        BYTE   W12
        BYTE           N06     As2   v104
        BYTE   W06
        BYTE                   Cn3   v088
        BYTE   W06
// 016   ----------------------------------------
        BYTE           N48     Cs3   v096
        BYTE   W48
        BYTE           N12     Ds3
        BYTE   W12
        BYTE                   Cs3
        BYTE   W12
        BYTE                   Cn3
        BYTE   W12
        BYTE                   As2
        BYTE   W12
// 017   ----------------------------------------
        BYTE           N24     Gs2
        BYTE   W24
        BYTE                   Gn2
        BYTE   W24
        BYTE                   Fn2
        BYTE   W24
        BYTE                   Ds2
        BYTE   W24
// 018   ----------------------------------------
        BYTE           N48     Cs2
        BYTE   W48
        BYTE                   Ds2
        BYTE   W48
// 019   ----------------------------------------
        BYTE           N24     Cn2
        BYTE   W48
        BYTE           N21     Fn2   v116
        BYTE   W24
        BYTE           N24     Ds2
        BYTE   W24
// 020   ----------------------------------------
        BYTE           N18     Cs2   v127
        BYTE   W24
        BYTE                   Cs2
        BYTE   W24
        BYTE           N24     Ds2
        BYTE   W24
        BYTE           N18
        BYTE   W24
// 021   ----------------------------------------
        BYTE           N24     Cn2
        BYTE   W24
        BYTE           N18
        BYTE   W24
        BYTE           N24     Fn2
        BYTE   W24
        BYTE           N06
        BYTE   W12
        BYTE           N12     Ds2
        BYTE   W12
// 022   ----------------------------------------
        BYTE           N18     Cs2
        BYTE   W24
        BYTE           N24     As1
        BYTE   W24
        BYTE                   Cn2
        BYTE   W24
        BYTE                   Dn2
        BYTE   W24
// 023   ----------------------------------------
        BYTE                   Ds2
        BYTE   W24
        BYTE                   Ds3
        BYTE   W24
        BYTE           N06     As2
        BYTE   W12
        BYTE           N12     As1
        BYTE   W12
        BYTE                   Ds2
        BYTE   W12
        BYTE                   Gn1
        BYTE   W12
// 024   ----------------------------------------
        BYTE           N92     Gs1
        BYTE   W96
// 025   ----------------------------------------
        BYTE   PATT
         POIN2  song43_1_1
// 026   ----------------------------------------
        BYTE   PATT
         POIN2  song43_1_2
// 027   ----------------------------------------
        BYTE   PATT
         POIN2  song43_1_3
// 028   ----------------------------------------
        BYTE   PATT
         POIN2  song43_1_4
// 029   ----------------------------------------
        BYTE   PATT
         POIN2  song43_1_5
// 030   ----------------------------------------
        BYTE           N44     As1   v127
        BYTE   W48
        BYTE           N21     Ds2
        BYTE   W24
        BYTE           N24     As1
        BYTE   W24
// 031   ----------------------------------------
        BYTE           N84     Gs1
        BYTE   W96
// 032   ----------------------------------------
        BYTE           N18     Gs2
        BYTE   W24
        BYTE                   Gs2
        BYTE   W24
        BYTE           N24     Gs1
        BYTE   W24
        BYTE                   Gs2
        BYTE   W24
// 033   ----------------------------------------
        BYTE                   Fs2
        BYTE   W24
        BYTE           N18
        BYTE   W24
        BYTE           N24     Fs1
        BYTE   W24
        BYTE                   Fs2
        BYTE   W24
// 034   ----------------------------------------
        BYTE                   Fn2
        BYTE   W24
        BYTE           N18
        BYTE   W24
        BYTE           N24     Ds2
        BYTE   W24
        BYTE                   Fn2
        BYTE   W24
// 035   ----------------------------------------
        BYTE                   Fs2
        BYTE   W24
        BYTE                   Fs1
        BYTE   W24
        BYTE                   Cs2
        BYTE   W24
        BYTE                   Fs2
        BYTE   W24
// 036   ----------------------------------------
        BYTE                   Fn2
        BYTE   W24
        BYTE                   Fn1
        BYTE   W24
        BYTE                   Fn2
        BYTE   W24
        BYTE           N06
        BYTE   W12
        BYTE           N12     Gn2
        BYTE   W12
// 037   ----------------------------------------
        BYTE           N18     Gs2
        BYTE   W24
        BYTE           N24     Gs1
        BYTE   W24
        BYTE                   As1
        BYTE   W24
        BYTE                   Cn2
        BYTE   W24
// 038   ----------------------------------------
        BYTE                   Cs2
        BYTE   W24
        BYTE           N06
        BYTE   W12
        BYTE                   Cn2
        BYTE   W06
        BYTE                   Cs2
        BYTE   W06
        BYTE           N18     Ds2
        BYTE   W24
        BYTE                   Ds2
        BYTE   W24
// 039   ----------------------------------------
        BYTE           N24     Gs1
        BYTE   W24
        BYTE           N18
        BYTE   W36
        BYTE           N06     Ds2
        BYTE   W12
        BYTE           N12     As1
        BYTE   W12
        BYTE                   Ds2
        BYTE   W12
// 040   ----------------------------------------
        BYTE   GoTo
         POIN2  song43_1_LOOP
        BYTE   FINE

//****************** Track 2 (Midi-Chn.2) ******************//

song43_2:
        BYTE   KEYSH   song43_key+0
// 000   ----------------------------------------
song43_2_LOOP:
        BYTE   W96
// 001   ----------------------------------------
        BYTE   W96
// 002   ----------------------------------------
        BYTE   W96
// 003   ----------------------------------------
        BYTE   W96
// 004   ----------------------------------------
        BYTE           VOICE   62
        BYTE           VOL     45
        BYTE           PAN     c_v-5
        BYTE   W96
// 005   ----------------------------------------
        BYTE   W96
// 006   ----------------------------------------
        BYTE   W96
// 007   ----------------------------------------
        BYTE   W24
        BYTE           N18     Fn3   v080
        BYTE           N18     Gs3   v108
        BYTE   W18
        BYTE           N06     Gs3   v028
        BYTE   W06
        BYTE           N18     Ds3   v080
        BYTE           N18     Gn3   v108
        BYTE   W18
        BYTE           N06     Gn3   v028
        BYTE   W06
        BYTE           N18     Cs3   v080
        BYTE           N18     Fn3   v108
        BYTE   W18
        BYTE           N06     Fn3   v028
        BYTE   W06
// 008   ----------------------------------------
        BYTE           N42     Cn3   v088
        BYTE           N42     Ds3   v108
        BYTE   W42
        BYTE           N06     Ds3   v028
        BYTE   W06
        BYTE           N18     Ds3   v088
        BYTE           N18     Gs3   v108
        BYTE   W18
        BYTE           N06     Gs3   v028
        BYTE   W06
        BYTE           N18     Gs3   v088
        BYTE           N18     Cn4   v108
        BYTE   W18
        BYTE           N06     Cn4   v028
        BYTE   W06
// 009   ----------------------------------------
        BYTE           N42     Gs3   v072
        BYTE           N42     Cn4   v092
        BYTE   W42
        BYTE           N06     Cn4   v028
        BYTE   W06
        BYTE           N36     Cs3   v088
        BYTE           N36     Fn3   v108
        BYTE   W36
        BYTE   W03
        BYTE           N06     Fn3   v028
        BYTE   W09
// 010   ----------------------------------------
        BYTE           N54     Cs3   v088
        BYTE           N54     Fn3   v108
        BYTE   W54
        BYTE           N06     Fn3   v028
        BYTE   W06
        BYTE                   Ds3   v088
        BYTE           N06     Gn3   v108
        BYTE   W06
        BYTE                   Gn3   v028
        BYTE   W06
        BYTE                   Fn3   v088
        BYTE           N06     Gs3   v108
        BYTE   W06
        BYTE                   Gs3   v028
        BYTE   W06
        BYTE                   Gn3   v088
        BYTE           N06     As3   v108
        BYTE   W06
        BYTE                   As3   v028
        BYTE   W06
// 011   ----------------------------------------
        BYTE           N42     Fn3   v088
        BYTE           N42     Gs3   v108
        BYTE   W42
        BYTE           N06     Gs3   v028
        BYTE   W06
        BYTE           N36     Ds3   v088
        BYTE           N36     Gn3   v108
        BYTE   W36
        BYTE   W03
        BYTE           N06     Gn3   v028
        BYTE   W09
// 012   ----------------------------------------
        BYTE           N42     Cn3   v088
        BYTE           N42     Ds3   v108
        BYTE   W42
        BYTE           N06     Ds3   v028
        BYTE   W06
        BYTE           N18     Ds3   v088
        BYTE           N18     Gs3   v108
        BYTE   W18
        BYTE           N06     Gs3   v028
        BYTE   W06
        BYTE           N18     Gs3   v076
        BYTE           N18     Cn4   v096
        BYTE   W18
        BYTE           N06     Cn4   v028
        BYTE   W06
// 013   ----------------------------------------
        BYTE           N42     Cn4   v076
        BYTE           N42     Ds4   v096
        BYTE   W42
        BYTE           N06     Ds4   v028
        BYTE   W06
        BYTE           N18     As3   v076
        BYTE           N18     Cs4   v096
        BYTE   W18
        BYTE           N06     Cs4   v028
        BYTE   W06
        BYTE           N18     Gs3   v076
        BYTE           N18     Cn4   v096
        BYTE   W18
        BYTE           N06     Cn4   v028
        BYTE   W06
// 014   ----------------------------------------
        BYTE           N48     Cs3   v088
        BYTE           N48     Fn3   v108
        BYTE   W48
        BYTE   W03
        BYTE           N06     Fn3   v028
        BYTE   W09
        BYTE                   Ds3   v088
        BYTE           N06     Gn3   v108
        BYTE   W06
        BYTE                   Gn3   v028
        BYTE   W06
        BYTE                   Fn3   v088
        BYTE           N06     Gs3   v108
        BYTE   W06
        BYTE                   Gs3   v028
        BYTE   W06
        BYTE                   Gn3   v088
        BYTE           N06     As3   v108
        BYTE   W06
        BYTE                   As3   v028
        BYTE   W06
// 015   ----------------------------------------
        BYTE           N72     Ds3   v088
        BYTE           N72     Gs3   v108
        BYTE   W72
        BYTE           VOICE   69
        BYTE           VOL     48
        BYTE           PAN     c_v-6
        BYTE           N12     Gs2   v104
        BYTE   W12
        BYTE                   Gn2
        BYTE   W12
// 016   ----------------------------------------
        BYTE           N24     Fn2
        BYTE   W24
        BYTE           N32     Cs3   v108
        BYTE   W36
        BYTE           N12     As2   v100
        BYTE   W12
        BYTE                   Gs2   v104
        BYTE   W12
        BYTE                   Gn2   v100
        BYTE   W12
// 017   ----------------------------------------
        BYTE           N36     Ds3   v104
        BYTE   W36
        BYTE           N12     Cn3   v096
        BYTE   W12
        BYTE           N24     Gs2   v104
        BYTE   W24
        BYTE           N12
        BYTE   W12
        BYTE                   Gn2
        BYTE   W12
// 018   ----------------------------------------
        BYTE           N24     Fn2
        BYTE   W24
        BYTE           N36     Fn3   v108
        BYTE   W36
        BYTE           N12     Ds3   v104
        BYTE   W12
        BYTE                   Cs3
        BYTE   W12
        BYTE                   As2
        BYTE   W12
// 019   ----------------------------------------
        BYTE           N84     Cn3
        BYTE   W96
// 020   ----------------------------------------
        BYTE           VOICE   48
        BYTE           VOL     45
        BYTE           PAN     c_v+22
        BYTE           N24     Fn2   v116
        BYTE   W24
        BYTE           N32     Cs3
        BYTE   W36
        BYTE           N12     As2
        BYTE   W12
        BYTE                   Gs2
        BYTE   W12
        BYTE                   Gn2
        BYTE   W12
// 021   ----------------------------------------
        BYTE           N36     Ds3
        BYTE   W36
        BYTE           N12     Cn3
        BYTE   W12
        BYTE           N24     Gs3
        BYTE   W24
        BYTE           N12
        BYTE   W12
        BYTE                   Gn3
        BYTE   W12
// 022   ----------------------------------------
        BYTE           N24     Fn3
        BYTE   W24
        BYTE           N36
        BYTE   W36
        BYTE           N12     Gn3
        BYTE   W12
        BYTE                   Gs3
        BYTE   W12
        BYTE                   As3
        BYTE   W12
// 023   ----------------------------------------
        BYTE           N44     Gs3
        BYTE   W48
        BYTE                   Gn3
        BYTE   W48
// 024   ----------------------------------------
        BYTE           VOICE   52
        BYTE           VOL     48
        BYTE           N84     Gs2   v092
        BYTE   W84
        BYTE           N06     As2   v096
        BYTE   W06
        BYTE                   Cn3   v076
        BYTE   W06
// 025   ----------------------------------------
        BYTE           N48     Ds3   v092
        BYTE   W48
        BYTE           N24     Cs3
        BYTE   W24
        BYTE           N12
        BYTE   W12
        BYTE                   Cn3   v068
        BYTE   W12
// 026   ----------------------------------------
        BYTE           N72     As2   v092
        BYTE   W72
        BYTE           N12     Cn3   v080
        BYTE   W12
        BYTE                   Cs3   v076
        BYTE   W12
// 027   ----------------------------------------
        BYTE           N48     Ds3   v064
        BYTE   W96
// 028   ----------------------------------------
        BYTE   W96
// 029   ----------------------------------------
        BYTE   W96
// 030   ----------------------------------------
        BYTE           VOICE   62
        BYTE           VOL     41
        BYTE           PAN     c_v-5
        BYTE   W96
// 031   ----------------------------------------
        BYTE   W24
        BYTE           N18     As2   v116
        BYTE   W18
        BYTE           N06     As2   v028
        BYTE   W06
        BYTE           N18     Cn3   v116
        BYTE   W18
        BYTE           N06     Cn3   v028
        BYTE   W06
        BYTE           N18     Cs3   v116
        BYTE   W18
        BYTE           N06     Cs3   v028
        BYTE   W06
// 032   ----------------------------------------
        BYTE           N42     Ds3   v116
        BYTE   W42
        BYTE           N06     Ds3   v028
        BYTE   W06
        BYTE           N18     Gs3   v112
        BYTE   W18
        BYTE           N06     Gs3   v028
        BYTE   W06
        BYTE           N18     Cn4   v100
        BYTE   W18
        BYTE           N06     Cn4   v028
        BYTE   W06
// 033   ----------------------------------------
        BYTE           N30     Cn4   v100
        BYTE   W30
        BYTE           N06     Cn4   v028
        BYTE   W06
        BYTE                   Cs4   v100
        BYTE   W06
        BYTE                   Cs4   v028
        BYTE   W06
        BYTE           N42     As3   v112
        BYTE   W42
        BYTE           N06     As3   v028
        BYTE   W06
// 034   ----------------------------------------
        BYTE   W24
        BYTE           N18     Cn4   v100
        BYTE   W18
        BYTE           N06     Cn4   v028
        BYTE   W06
        BYTE           N18     Gs3   v108
        BYTE   W18
        BYTE           N06     Gs3   v028
        BYTE   W06
        BYTE           N18     Ds3   v116
        BYTE   W18
        BYTE           N06     Ds3   v028
        BYTE   W06
// 035   ----------------------------------------
        BYTE           N30     As3   v108
        BYTE   W30
        BYTE           N06     As3   v028
        BYTE   W06
        BYTE                   Cn4   v100
        BYTE   W06
        BYTE                   Cn4   v028
        BYTE   W06
        BYTE           N42     Gs3   v116
        BYTE   W42
        BYTE           N06     Gs3   v028
        BYTE   W06
// 036   ----------------------------------------
        BYTE   W24
        BYTE           N18     Fn3   v116
        BYTE   W18
        BYTE           N06     Fn3   v028
        BYTE   W06
        BYTE           N18     Fn4   v100
        BYTE   W18
        BYTE           N06     Fn4   v028
        BYTE   W06
        BYTE           N09     Ds4   v100
        BYTE   W12
        BYTE           N12     Cs4
        BYTE   W12
// 037   ----------------------------------------
        BYTE           N42     Ds4
        BYTE   W42
        BYTE           N06     Ds4   v028
        BYTE   W06
        BYTE           N18     Cn4   v100
        BYTE   W18
        BYTE           N06     Cn4   v028
        BYTE   W06
        BYTE           N18     Gs3   v116
        BYTE   W18
        BYTE           N06     Gs3   v028
        BYTE   W06
// 038   ----------------------------------------
        BYTE           N18     Fn3   v116
        BYTE   W18
        BYTE           N06     Fn3   v028
        BYTE   W06
        BYTE           N18     Cs4   v100
        BYTE   W18
        BYTE           N06     Cs4   v028
        BYTE   W06
        BYTE           N18     As3   v116
        BYTE   W18
        BYTE           N06     As3   v028
        BYTE   W06
        BYTE           N18     Gn3   v116
        BYTE   W18
        BYTE           N06     Gn3   v028
        BYTE   W06
// 039   ----------------------------------------
        BYTE           N42     As3   v116
        BYTE   W42
        BYTE           N06     As3   v028
        BYTE   W06
        BYTE           N42     Gs3   v116
        BYTE   W42
        BYTE           N06     Gs3   v028
        BYTE   W06
// 040   ----------------------------------------
        BYTE           VOICE   0
        BYTE           VOL     100
        BYTE           PAN     c_v+0
        BYTE   GoTo
         POIN2  song43_2_LOOP
        BYTE   FINE

//****************** Track 3 (Midi-Chn.3) ******************//

song43_3:
        BYTE   KEYSH   song43_key+0
// 000   ----------------------------------------
song43_3_LOOP:
        BYTE           VOICE   48
        BYTE           VOL     45
        BYTE           PAN     c_v+22
        BYTE           N48     Cn3   v080
        BYTE   W48
        BYTE           N24     Ds3
        BYTE   W24
        BYTE                   Gs3
        BYTE   W24
// 001   ----------------------------------------
        BYTE           N48
        BYTE   W48
        BYTE           N44     Cs3
        BYTE   W48
// 002   ----------------------------------------
        BYTE           N60
        BYTE   W60
        BYTE           N12     Ds3
        BYTE   W12
        BYTE                   Fn3
        BYTE   W12
        BYTE                   Gn3
        BYTE   W12
// 003   ----------------------------------------
        BYTE           N48     Fn3
        BYTE   W48
        BYTE           N24     Ds3
        BYTE   W24
        BYTE                   Cs3
        BYTE   W24
// 004   ----------------------------------------
        BYTE           N48     Cn3
        BYTE   W48
        BYTE           N24     Ds3
        BYTE   W24
        BYTE                   Gs3
        BYTE   W24
// 005   ----------------------------------------
        BYTE           N48     Cn4
        BYTE   W48
        BYTE           N24     As3
        BYTE   W24
        BYTE                   Gs3
        BYTE   W24
// 006   ----------------------------------------
        BYTE           N56     Cs3
        BYTE   W60
        BYTE           N12     Ds3
        BYTE   W12
        BYTE                   Fn3
        BYTE   W12
        BYTE                   Gn3
        BYTE   W12
// 007   ----------------------------------------
        BYTE           N24
        BYTE   W96
// 008   ----------------------------------------
        BYTE           VOICE   50
        BYTE           VOL     43
        BYTE           PAN     c_v+35
        BYTE   W96
// 009   ----------------------------------------
        BYTE           N48     Cs2   v076
        BYTE   W48
        BYTE           N24     Fn2
        BYTE   W24
        BYTE                   Gs2
        BYTE   W24
// 010   ----------------------------------------
        BYTE           N48     Cs3
        BYTE   W48
        BYTE                   Fn2
        BYTE   W48
// 011   ----------------------------------------
        BYTE           N36     Gs2
        BYTE   W36
        BYTE           N06     Gn2
        BYTE   W06
        BYTE                   Gs2
        BYTE   W06
        BYTE           N48     As2
        BYTE   W48
// 012   ----------------------------------------
        BYTE   W48
        BYTE           N24     Gs2
        BYTE   W24
        BYTE                   As2
        BYTE   W24
// 013   ----------------------------------------
        BYTE           N48     Cn3
        BYTE   W48
        BYTE           N24     Cs3
        BYTE   W24
        BYTE                   Ds3
        BYTE   W24
// 014   ----------------------------------------
        BYTE                   Fn3
        BYTE   W24
        BYTE                   As2
        BYTE   W24
        BYTE                   Ds3
        BYTE   W24
        BYTE                   Cs3
        BYTE   W24
// 015   ----------------------------------------
        BYTE                   Cn3
        BYTE   W24
        BYTE                   As2
        BYTE   W24
        BYTE                   Gs2
        BYTE   W24
        BYTE                   Gn2
        BYTE   W24
// 016   ----------------------------------------
        BYTE   W96
// 017   ----------------------------------------
        BYTE   W96
// 018   ----------------------------------------
        BYTE   W96
// 019   ----------------------------------------
        BYTE   W96
// 020   ----------------------------------------
        BYTE           VOICE   61
        BYTE           VOL     45
        BYTE           PAN     c_v-25
        BYTE           N24     Fn2   v104
        BYTE   W24
        BYTE           N32     Cs3
        BYTE   W36
        BYTE           N12     As2
        BYTE   W12
        BYTE                   Gs2
        BYTE   W12
        BYTE                   Gn2
        BYTE   W12
// 021   ----------------------------------------
        BYTE           N36     Ds3
        BYTE   W36
        BYTE           N12     Cn3
        BYTE   W12
        BYTE           N24     Gs3
        BYTE   W24
        BYTE           N12     Fn3
        BYTE   W12
        BYTE                   Ds3
        BYTE   W12
// 022   ----------------------------------------
        BYTE           N24     Cs3
        BYTE   W24
        BYTE                   Cs3
        BYTE   W24
        BYTE           N12     Dn3
        BYTE   W12
        BYTE                   Ds3
        BYTE   W12
        BYTE                   Fn3
        BYTE   W12
        BYTE                   Gn3
        BYTE   W12
// 023   ----------------------------------------
        BYTE           N44     Fn3
        BYTE   W48
        BYTE           N48     Ds3
        BYTE   W48
// 024   ----------------------------------------
        BYTE   W96
// 025   ----------------------------------------
        BYTE   W96
// 026   ----------------------------------------
        BYTE   W96
// 027   ----------------------------------------
song43_3_27:
        BYTE           VOICE   68
        BYTE           VOL     41
        BYTE           PAN     c_v+15
        BYTE   W96
        BYTE   PEND
// 028   ----------------------------------------
song43_3_28:
        BYTE   W30
        BYTE           N06     Ds3   v088
        BYTE   W06
        BYTE                   Fn3
        BYTE   W06
        BYTE                   Gn3
        BYTE   W06
        BYTE           N72     Gs3
        BYTE   W48
        BYTE   PEND
// 029   ----------------------------------------
        BYTE   W30
        BYTE           N06
        BYTE   W06
        BYTE                   As3
        BYTE   W06
        BYTE                   Cn4
        BYTE   W06
        BYTE           N24     Cs4
        BYTE   W24
        BYTE                   Cn4
        BYTE   W24
// 030   ----------------------------------------
        BYTE   W24
        BYTE                   As3
        BYTE   W24
        BYTE                   Ds4
        BYTE   W24
        BYTE                   Cs4
        BYTE   W24
// 031   ----------------------------------------
        BYTE           N84     Cn4
        BYTE   W96
// 032   ----------------------------------------
        BYTE           VOICE   48
        BYTE           VOL     45
        BYTE           PAN     c_v+22
        BYTE           N06     Cn3   v080
        BYTE           N06     Ds3   v116
        BYTE   W06
        BYTE                   Ds3   v028
        BYTE   W06
        BYTE                   Cn3   v068
        BYTE           N06     Ds3   v112
        BYTE   W06
        BYTE                   Ds3   v028
        BYTE   W06
        BYTE                   Cn3   v072
        BYTE           N06     Ds3   v116
        BYTE   W06
        BYTE                   Ds3   v028
        BYTE   W06
        BYTE                   Cn3   v076
        BYTE           N06     Ds3   v116
        BYTE   W06
        BYTE                   Ds3   v028
        BYTE   W06
        BYTE                   Cn3   v064
        BYTE           N06     Ds3   v112
        BYTE   W06
        BYTE                   Ds3   v028
        BYTE   W06
        BYTE                   Cn3   v064
        BYTE           N06     Ds3   v108
        BYTE   W06
        BYTE                   Ds3   v028
        BYTE   W06
        BYTE                   Cn3   v060
        BYTE           N06     Ds3   v100
        BYTE   W06
        BYTE                   Ds3   v028
        BYTE   W06
        BYTE                   Cn3   v060
        BYTE           N06     Ds3   v100
        BYTE   W06
        BYTE                   Ds3   v028
        BYTE   W06
// 033   ----------------------------------------
        BYTE                   As2   v076
        BYTE           N06     Cs3   v112
        BYTE   W06
        BYTE                   Cs3   v028
        BYTE   W06
        BYTE                   As2   v064
        BYTE           N06     Cs3   v092
        BYTE   W06
        BYTE                   Cs3   v028
        BYTE   W06
        BYTE                   As2   v080
        BYTE           N06     Cs3   v112
        BYTE   W06
        BYTE                   Cs3   v028
        BYTE   W06
        BYTE                   As2   v076
        BYTE           N06     Cs3   v112
        BYTE   W06
        BYTE                   Cs3   v028
        BYTE   W06
        BYTE                   As2   v076
        BYTE           N06     Cs3   v112
        BYTE   W06
        BYTE                   Cs3   v028
        BYTE   W06
        BYTE                   As2   v076
        BYTE           N06     Cs3   v112
        BYTE   W06
        BYTE                   Cs3   v028
        BYTE   W06
        BYTE                   As2   v080
        BYTE           N06     Cs3   v108
        BYTE   W06
        BYTE                   Cs3   v028
        BYTE   W06
        BYTE                   As2   v076
        BYTE           N06     Cs3   v112
        BYTE   W06
        BYTE                   Cs3   v028
        BYTE   W06
// 034   ----------------------------------------
        BYTE                   Gs2   v072
        BYTE           N06     Cn3   v104
        BYTE   W06
        BYTE                   Cn3   v028
        BYTE   W06
        BYTE                   Gs2   v084
        BYTE           N06     Cn3   v104
        BYTE   W06
        BYTE                   Cn3   v028
        BYTE   W06
        BYTE                   Gs2   v088
        BYTE           N06     Cn3   v104
        BYTE   W06
        BYTE                   Cn3   v028
        BYTE   W06
        BYTE                   Gs2   v092
        BYTE           N06     Cn3   v104
        BYTE   W06
        BYTE                   Cn3   v028
        BYTE   W06
        BYTE                   Gs2   v088
        BYTE           N06     Cn3   v108
        BYTE   W06
        BYTE                   Cn3   v028
        BYTE   W06
        BYTE                   Gs2   v088
        BYTE           N06     Cn3   v108
        BYTE   W06
        BYTE                   Cn3   v028
        BYTE   W06
        BYTE                   Gs2   v076
        BYTE           N06     Cn3   v104
        BYTE   W06
        BYTE                   Cn3   v028
        BYTE   W06
        BYTE                   Gs2   v084
        BYTE           N06     Cn3   v100
        BYTE   W06
        BYTE                   Cn3   v028
        BYTE   W06
// 035   ----------------------------------------
        BYTE                   Gs2   v072
        BYTE           N06     Cs3   v108
        BYTE   W06
        BYTE                   Cs3   v028
        BYTE   W06
        BYTE                   Gs2   v080
        BYTE           N06     Cs3   v100
        BYTE   W06
        BYTE                   Cs3   v028
        BYTE   W06
        BYTE                   Gs2   v080
        BYTE           N06     Cs3   v108
        BYTE   W06
        BYTE                   Cs3   v028
        BYTE   W06
        BYTE                   Gs2   v084
        BYTE           N06     Cs3   v108
        BYTE   W06
        BYTE                   Cs3   v028
        BYTE   W06
        BYTE                   Gs2   v080
        BYTE           N06     Cs3   v108
        BYTE   W06
        BYTE                   Cs3   v028
        BYTE   W06
        BYTE                   Gs2   v084
        BYTE           N06     Cs3   v100
        BYTE   W06
        BYTE                   Cs3   v028
        BYTE   W06
        BYTE                   Gs2   v076
        BYTE           N06     Cs3   v100
        BYTE   W06
        BYTE                   Cs3   v028
        BYTE   W06
        BYTE                   Gs2   v072
        BYTE           N06     Cs3   v100
        BYTE   W06
        BYTE                   Cs3   v028
        BYTE   W06
// 036   ----------------------------------------
        BYTE                   Gs2   v088
        BYTE           N06     Cs3   v108
        BYTE   W06
        BYTE                   Cs3   v028
        BYTE   W06
        BYTE                   Gs2   v100
        BYTE           N06     Cs3   v116
        BYTE   W06
        BYTE                   Cs3   v028
        BYTE   W06
        BYTE                   Gs2   v100
        BYTE           N06     Cs3   v120
        BYTE   W06
        BYTE                   Cs3   v028
        BYTE   W06
        BYTE                   Gs2   v076
        BYTE           N06     Cs3   v108
        BYTE   W06
        BYTE                   Cs3   v028
        BYTE   W06
        BYTE                   Gs2   v084
        BYTE           N06     Cs3   v116
        BYTE   W06
        BYTE                   Cs3   v028
        BYTE   W06
        BYTE                   Gs2   v076
        BYTE           N06     Cs3   v104
        BYTE   W06
        BYTE                   Cs3   v028
        BYTE   W06
        BYTE                   Gs2   v072
        BYTE           N06     Cs3   v092
        BYTE   W06
        BYTE                   Cs3   v028
        BYTE   W06
        BYTE                   Gs2   v088
        BYTE           N06     Cs3   v104
        BYTE   W06
        BYTE                   Cs3   v028
        BYTE   W06
// 037   ----------------------------------------
        BYTE                   Gs2   v092
        BYTE           N06     Ds3   v084
        BYTE   W06
        BYTE                   Ds3   v028
        BYTE   W06
        BYTE                   Gs2   v084
        BYTE           N06     Ds3   v108
        BYTE   W06
        BYTE                   Ds3   v028
        BYTE   W06
        BYTE                   Gs2   v084
        BYTE           N06     Ds3   v112
        BYTE   W06
        BYTE                   Ds3   v028
        BYTE   W06
        BYTE                   Gs2   v068
        BYTE           N06     Ds3   v112
        BYTE   W06
        BYTE                   Ds3   v028
        BYTE   W06
        BYTE                   Gs2   v072
        BYTE           N06     Ds3   v092
        BYTE   W06
        BYTE                   Ds3   v028
        BYTE   W06
        BYTE                   Gs2   v076
        BYTE           N06     Ds3   v100
        BYTE   W06
        BYTE                   Ds3   v028
        BYTE   W06
        BYTE                   Gs2   v076
        BYTE           N06     Ds3   v100
        BYTE   W06
        BYTE                   Ds3   v028
        BYTE   W06
        BYTE                   Gs2   v064
        BYTE           N06     Ds3   v112
        BYTE   W06
        BYTE                   Ds3   v028
        BYTE   W06
// 038   ----------------------------------------
        BYTE                   Gs2   v084
        BYTE           N06     Cs3   v100
        BYTE   W06
        BYTE                   Cs3   v028
        BYTE   W06
        BYTE                   As2   v072
        BYTE           N06     Cs3   v092
        BYTE   W06
        BYTE                   Cs3   v028
        BYTE   W06
        BYTE                   As2   v092
        BYTE           N06     Cs3
        BYTE   W06
        BYTE                   Cs3   v028
        BYTE   W06
        BYTE                   As2   v068
        BYTE           N06     Cs3   v100
        BYTE   W06
        BYTE                   Cs3   v028
        BYTE   W06
        BYTE                   As2   v072
        BYTE           N06     Ds3   v104
        BYTE   W06
        BYTE                   Ds3   v028
        BYTE   W06
        BYTE                   As2   v080
        BYTE           N06     Ds3   v108
        BYTE   W06
        BYTE                   Ds3   v028
        BYTE   W06
        BYTE                   As2   v076
        BYTE           N06     Ds3   v108
        BYTE   W06
        BYTE                   Ds3   v028
        BYTE   W06
        BYTE                   As2   v080
        BYTE           N06     Ds3   v100
        BYTE   W06
        BYTE                   Ds3   v028
        BYTE   W06
// 039   ----------------------------------------
        BYTE                   Gs2   v060
        BYTE           N06     Cn3   v096
        BYTE   W06
        BYTE                   Cn3   v028
        BYTE   W06
        BYTE                   Gs2   v056
        BYTE           N06     Cn3   v100
        BYTE   W06
        BYTE                   Cn3   v028
        BYTE   W06
        BYTE                   Gs2   v064
        BYTE           N06     Cn3   v104
        BYTE   W06
        BYTE                   Cn3   v028
        BYTE   W06
        BYTE                   Gs2   v060
        BYTE           N06     Cn3   v096
        BYTE   W06
        BYTE                   Cn3   v028
        BYTE   W06
        BYTE                   Gs2   v056
        BYTE           N06     Cn3   v088
        BYTE   W06
        BYTE                   Cn3   v028
        BYTE   W06
        BYTE                   Gs2   v056
        BYTE           N06     Cn3   v088
        BYTE   W06
        BYTE                   Cn3   v028
        BYTE   W06
        BYTE           N04     Cs2   v080
        BYTE   W04
        BYTE                   Ds2
        BYTE   W04
        BYTE                   Fn2
        BYTE   W04
        BYTE                   Gn2
        BYTE   W04
        BYTE                   Gs2
        BYTE   W04
        BYTE                   As2
        BYTE   W04
// 040   ----------------------------------------
        BYTE   GoTo
         POIN2  song43_3_LOOP
        BYTE   FINE

//****************** Track 4 (Midi-Chn.4) ******************//

song43_4:
        BYTE   KEYSH   song43_key+0
// 000   ----------------------------------------
song43_4_LOOP:
        BYTE           VOICE   61
        BYTE           VOL     45
        BYTE           PAN     c_v-25
        BYTE           N96     Gs2   v076
        BYTE           N96     Ds3
        BYTE   W96
// 001   ----------------------------------------
        BYTE           N66     Gs2
        BYTE           N66     Cs3
        BYTE   W72
        BYTE           N06     Cs3   v096
        BYTE   W06
        BYTE                   Ds3   v088
        BYTE   W06
        BYTE                   Fn3
        BYTE   W06
        BYTE                   Gn3   v096
        BYTE   W06
// 002   ----------------------------------------
        BYTE           N18     Fn3   v104
        BYTE           N18     Gs3
        BYTE   W18
        BYTE           N06     Gs3   v028
        BYTE   W06
        BYTE           N18     Ds3   v104
        BYTE           N18     Gn3
        BYTE   W18
        BYTE           N06     Gn3   v028
        BYTE   W06
        BYTE           N18     Cs3   v104
        BYTE           N18     Fn3
        BYTE   W18
        BYTE           N06     Fn3   v028
        BYTE   W06
        BYTE           N18     Cn3   v104
        BYTE           N18     Ds3
        BYTE   W18
        BYTE           N06     Ds3   v028
        BYTE   W06
// 003   ----------------------------------------
        BYTE           N18     Cn3   v104
        BYTE           N18     Ds3
        BYTE   W18
        BYTE           N06     Ds3   v028
        BYTE   W06
        BYTE           N18     As2   v104
        BYTE           N18     Cs3
        BYTE   W18
        BYTE           N06     Cs3   v028
        BYTE   W06
        BYTE           N18     Gs2   v104
        BYTE           N18     Cn3
        BYTE   W18
        BYTE           N06     Cn3   v028
        BYTE   W06
        BYTE           N18     As2   v104
        BYTE           N18     Cs3
        BYTE   W18
        BYTE           N06     Cs3   v028
        BYTE   W06
// 004   ----------------------------------------
        BYTE           N96     Cn3   v076
        BYTE           N96     Ds3
        BYTE   W96
// 005   ----------------------------------------
        BYTE           N24     As2   v088
        BYTE   W24
        BYTE           N18     Cn3   v104
        BYTE   W18
        BYTE           N06     Cn3   v028
        BYTE   W06
        BYTE           N18     Cs3   v104
        BYTE   W18
        BYTE           N06     Cs3   v028
        BYTE   W06
        BYTE           N18     Ds3   v104
        BYTE   W18
        BYTE           N06     Ds3   v028
        BYTE   W06
// 006   ----------------------------------------
        BYTE           N96     As2   v088
        BYTE           N42     Fn3   v104
        BYTE   W42
        BYTE           N06     Fn3   v028
        BYTE   W06
        BYTE           N18     Fn3   v104
        BYTE   W18
        BYTE           N06     Fn3   v028
        BYTE   W06
        BYTE           N18     Ds3   v104
        BYTE   W18
        BYTE           N06     Ds3   v028
        BYTE   W06
// 007   ----------------------------------------
        BYTE           N72     As2   v084
        BYTE           N66     Cs3   v104
        BYTE   W66
        BYTE           N06     Cs3   v028
        BYTE   W06
        BYTE                   Cs3   v104
        BYTE   W06
        BYTE                   Ds3
        BYTE   W06
        BYTE                   Fn3
        BYTE   W06
        BYTE           N05     Gn3
        BYTE   W06
// 008   ----------------------------------------
        BYTE           VOICE   56
        BYTE           VOL     43
        BYTE           PAN     c_v+20
        BYTE           N06     Ds2   v076
        BYTE           N06     Gs2
        BYTE   W12
        BYTE                   Ds2
        BYTE           N06     Gs2
        BYTE   W24
        BYTE                   Ds2
        BYTE           N06     Gs2
        BYTE   W12
        BYTE                   Ds2
        BYTE           N06     Gs2
        BYTE   W12
        BYTE                   Ds2
        BYTE           N06     Gs2
        BYTE   W24
        BYTE                   Ds2
        BYTE           N06     Gs2
        BYTE   W12
// 009   ----------------------------------------
        BYTE                   Fn2
        BYTE           N06     Gs2
        BYTE   W06
        BYTE                   Gs2   v028
        BYTE   W06
        BYTE                   Fn2   v076
        BYTE           N06     Gs2
        BYTE   W06
        BYTE           N18     Gs2   v028
        BYTE   W18
        BYTE           N06     Fn2   v076
        BYTE           N06     Gs2
        BYTE   W06
        BYTE                   Gs2   v028
        BYTE   W06
        BYTE                   Fn2   v076
        BYTE           N06     Gs2
        BYTE   W06
        BYTE                   Gs2   v028
        BYTE   W06
        BYTE                   Fn2   v076
        BYTE           N06     Gs2
        BYTE   W06
        BYTE                   Gs2   v028
        BYTE   W06
        BYTE                   Fn2   v076
        BYTE           N06     As2
        BYTE   W06
        BYTE                   As2   v028
        BYTE   W06
        BYTE                   Fn2   v076
        BYTE           N06     Cn3
        BYTE   W06
        BYTE                   Cn3   v028
        BYTE   W06
// 010   ----------------------------------------
        BYTE                   As2   v076
        BYTE           N06     Cs3
        BYTE   W06
        BYTE                   Cs3   v028
        BYTE   W06
        BYTE                   As2   v076
        BYTE           N06     Cs3
        BYTE   W06
        BYTE           N18     Cs3   v028
        BYTE   W18
        BYTE           N06     As2   v076
        BYTE           N06     Cs3
        BYTE   W06
        BYTE                   Cs3   v028
        BYTE   W06
        BYTE                   Fn2   v076
        BYTE           N06     As2
        BYTE   W06
        BYTE                   As2   v028
        BYTE   W06
        BYTE                   Fn2   v076
        BYTE           N06     As2
        BYTE   W06
        BYTE           N18     As2   v028
        BYTE   W18
        BYTE           N06     Fn2   v076
        BYTE           N06     As2
        BYTE   W06
        BYTE                   As2   v028
        BYTE   W06
// 011   ----------------------------------------
        BYTE                   As2   v076
        BYTE           N06     Ds3
        BYTE   W06
        BYTE                   Ds3   v028
        BYTE   W06
        BYTE                   As2   v076
        BYTE           N06     Ds3
        BYTE   W06
        BYTE           N30     Ds3   v028
        BYTE   W30
        BYTE           N44     As2   v080
        BYTE           N09     Ds3
        BYTE   W12
        BYTE           N12     Fn3
        BYTE   W12
        BYTE                   Ds3
        BYTE   W12
        BYTE           N08     Cs3
        BYTE   W12
// 012   ----------------------------------------
        BYTE           N06     Gs2   v076
        BYTE           N06     Ds3
        BYTE   W06
        BYTE                   Ds3   v028
        BYTE   W06
        BYTE                   Gs2   v076
        BYTE           N06     Ds3
        BYTE   W06
        BYTE           N18     Ds3   v028
        BYTE   W18
        BYTE           N06     Gs2   v076
        BYTE           N06     Ds3
        BYTE   W06
        BYTE                   Ds3   v028
        BYTE   W06
        BYTE                   Gs2   v076
        BYTE           N06     Ds3
        BYTE   W06
        BYTE                   Ds3   v028
        BYTE   W06
        BYTE                   Gs2   v076
        BYTE           N06     Ds3
        BYTE   W06
        BYTE           N18     Ds3   v028
        BYTE   W18
        BYTE           N06     Gs2   v076
        BYTE           N06     Cn3
        BYTE   W06
        BYTE                   Cn3   v028
        BYTE   W06
// 013   ----------------------------------------
        BYTE                   Gs2   v076
        BYTE           N06     Cs3
        BYTE   W06
        BYTE                   Cs3   v028
        BYTE   W06
        BYTE                   Gs2   v076
        BYTE           N06     Cs3
        BYTE   W06
        BYTE           N18     Cs3   v028
        BYTE   W18
        BYTE           N06     Gs2   v076
        BYTE           N06     Cs3
        BYTE   W06
        BYTE                   Cs3   v028
        BYTE   W06
        BYTE                   Gs2   v076
        BYTE           N06     Cs3
        BYTE   W06
        BYTE                   Cs3   v028
        BYTE   W06
        BYTE                   Gs2   v076
        BYTE           N06     Cs3
        BYTE   W06
        BYTE           N18     Cs3   v028
        BYTE   W18
        BYTE           N06     Gs2   v076
        BYTE           N06     Cn3
        BYTE   W06
        BYTE                   Cn3   v028
        BYTE   W06
// 014   ----------------------------------------
        BYTE                   Gs2   v076
        BYTE           N06     Cs3
        BYTE   W06
        BYTE                   Cs3   v028
        BYTE   W06
        BYTE                   Gs2   v076
        BYTE           N06     Cs3
        BYTE   W06
        BYTE           N18     Cs3   v028
        BYTE   W18
        BYTE           N06     Gs2   v076
        BYTE           N06     Cs3
        BYTE   W06
        BYTE                   Cs3   v028
        BYTE   W06
        BYTE                   Gs2   v076
        BYTE           N06     Cs3
        BYTE   W06
        BYTE                   Cs3   v028
        BYTE   W06
        BYTE                   Gs2   v076
        BYTE           N06     Cs3
        BYTE   W06
        BYTE           N18     Cs3   v028
        BYTE   W18
        BYTE           N06     Gs2   v076
        BYTE           N06     Cs3
        BYTE   W06
        BYTE                   Cs3   v028
        BYTE   W06
// 015   ----------------------------------------
        BYTE                   Gs2   v076
        BYTE           N06     Cn3
        BYTE   W06
        BYTE                   Cn3   v028
        BYTE   W06
        BYTE                   Gs2   v076
        BYTE           N06     Cn3
        BYTE   W06
        BYTE           N18     Cn3   v028
        BYTE   W18
        BYTE           N06     Gs2   v076
        BYTE           N06     Cn3
        BYTE   W06
        BYTE                   Cn3   v028
        BYTE   W06
        BYTE                   Gs2   v076
        BYTE           N06     Cn3
        BYTE   W06
        BYTE                   Cn3   v028
        BYTE   W06
        BYTE                   Gs2   v076
        BYTE           N06     Cn3
        BYTE   W06
        BYTE           N30     Cn3   v028
        BYTE   W30
// 016   ----------------------------------------
        BYTE   W96
// 017   ----------------------------------------
        BYTE   W96
// 018   ----------------------------------------
        BYTE   W96
// 019   ----------------------------------------
        BYTE           N06     Gn2   v096
        BYTE           N06     Cn3
        BYTE   W24
        BYTE           N36
        BYTE           N36     Gn3
        BYTE   W36
        BYTE           N06     Cn3
        BYTE           N06     Gn3
        BYTE   W12
        BYTE                   As2
        BYTE           N06     Ds3
        BYTE   W12
        BYTE                   Gn2
        BYTE           N06     Cn3
        BYTE   W12
// 020   ----------------------------------------
        BYTE                   As2   v076
        BYTE           N06     Cs3   v068
        BYTE   W06
        BYTE                   Cs3   v028
        BYTE   W06
        BYTE                   As2   v076
        BYTE           N06     Cs3   v068
        BYTE   W06
        BYTE                   Cs3   v028
        BYTE   W06
        BYTE                   As2   v076
        BYTE           N06     Cs3   v060
        BYTE   W06
        BYTE                   Cs3   v028
        BYTE   W06
        BYTE                   As2   v060
        BYTE           N06     Cs3   v068
        BYTE   W06
        BYTE                   Cs3   v028
        BYTE   W06
        BYTE                   As2   v056
        BYTE           N06     Ds3   v080
        BYTE   W06
        BYTE                   Ds3   v028
        BYTE   W06
        BYTE                   As2   v056
        BYTE           N06     Ds3   v068
        BYTE   W06
        BYTE                   Ds3   v028
        BYTE   W06
        BYTE                   As2   v064
        BYTE           N06     Ds3   v072
        BYTE   W06
        BYTE                   Ds3   v028
        BYTE   W06
        BYTE                   As2   v060
        BYTE           N06     Ds3   v068
        BYTE   W06
        BYTE                   Ds3   v028
        BYTE   W06
// 021   ----------------------------------------
        BYTE                   As2   v060
        BYTE           N06     Ds3   v080
        BYTE   W06
        BYTE                   Ds3   v028
        BYTE   W06
        BYTE                   As2   v060
        BYTE           N06     Ds3   v080
        BYTE   W06
        BYTE                   Ds3   v028
        BYTE   W06
        BYTE                   As2   v060
        BYTE           N06     Ds3   v068
        BYTE   W06
        BYTE                   Ds3   v028
        BYTE   W06
        BYTE                   As2   v068
        BYTE           N06     Ds3   v076
        BYTE   W06
        BYTE                   Ds3   v028
        BYTE   W06
        BYTE                   Cn3   v080
        BYTE           N06     Fn3
        BYTE   W06
        BYTE                   Fn3   v028
        BYTE   W06
        BYTE                   Cn3   v076
        BYTE           N06     Fn3   v064
        BYTE   W06
        BYTE                   Fn3   v028
        BYTE   W06
        BYTE                   Cn3   v068
        BYTE           N06     Fn3
        BYTE   W06
        BYTE                   Fn3   v028
        BYTE   W06
        BYTE                   Cn3   v064
        BYTE           N06     Ds3   v080
        BYTE   W06
        BYTE                   Ds3   v028
        BYTE   W06
// 022   ----------------------------------------
        BYTE                   As2   v060
        BYTE           N06     Cs3   v076
        BYTE   W06
        BYTE                   Cs3   v028
        BYTE   W06
        BYTE                   As2   v056
        BYTE           N06     Cs3   v068
        BYTE   W06
        BYTE                   Cs3   v028
        BYTE   W06
        BYTE                   As2   v048
        BYTE           N06     Cs3   v076
        BYTE   W06
        BYTE                   Cs3   v028
        BYTE   W06
        BYTE                   As2   v060
        BYTE           N06     Cs3
        BYTE   W06
        BYTE                   Cs3   v028
        BYTE   W06
        BYTE                   As2   v052
        BYTE           N06     Dn3   v064
        BYTE   W06
        BYTE                   Dn3   v028
        BYTE   W06
        BYTE                   As2   v056
        BYTE           N06     Dn3   v068
        BYTE   W06
        BYTE                   Dn3   v028
        BYTE   W06
        BYTE                   As2   v056
        BYTE           N06     Dn3   v068
        BYTE   W06
        BYTE                   Dn3   v028
        BYTE   W06
        BYTE                   As2   v044
        BYTE           N06     Dn3   v064
        BYTE   W06
        BYTE                   Dn3   v028
        BYTE   W06
// 023   ----------------------------------------
        BYTE                   As2   v056
        BYTE           N06     Ds3   v076
        BYTE   W06
        BYTE                   Ds3   v028
        BYTE   W06
        BYTE                   As2   v052
        BYTE           N06     Ds3   v076
        BYTE   W06
        BYTE                   Ds3   v028
        BYTE   W06
        BYTE                   As2   v060
        BYTE           N06     Ds3   v072
        BYTE   W06
        BYTE                   Ds3   v028
        BYTE   W06
        BYTE                   As2   v056
        BYTE           N06     Ds3   v072
        BYTE   W06
        BYTE                   Ds3   v028
        BYTE   W06
        BYTE                   As2   v060
        BYTE           N06     Ds3   v080
        BYTE   W06
        BYTE                   Ds3   v028
        BYTE   W06
        BYTE                   As2   v040
        BYTE           N06     Ds3   v072
        BYTE   W06
        BYTE                   Ds3   v028
        BYTE   W06
        BYTE                   As2   v056
        BYTE           N06     Ds3   v072
        BYTE   W06
        BYTE                   Ds3   v028
        BYTE   W06
        BYTE                   As2   v056
        BYTE           N06     Ds3   v072
        BYTE   W06
        BYTE                   Ds3   v028
        BYTE   W06
// 024   ----------------------------------------
        BYTE   W96
// 025   ----------------------------------------
        BYTE   W96
// 026   ----------------------------------------
        BYTE   W96
// 027   ----------------------------------------
        BYTE   W96
// 028   ----------------------------------------
        BYTE   W96
// 029   ----------------------------------------
        BYTE   W96
// 030   ----------------------------------------
        BYTE   W96
// 031   ----------------------------------------
        BYTE   W96
// 032   ----------------------------------------
        BYTE   W96
// 033   ----------------------------------------
        BYTE           VOICE   61
        BYTE           VOL     45
        BYTE           PAN     c_v-25
        BYTE   W96
// 034   ----------------------------------------
        BYTE           N48     Gs2   v092
        BYTE   W48
        BYTE           N06     Gs2   v028
        BYTE   W12
        BYTE                   Gs2   v092
        BYTE   W06
        BYTE                   Gs2   v028
        BYTE   W06
        BYTE                   Cs3   v092
        BYTE   W06
        BYTE                   Cs3   v028
        BYTE   W06
        BYTE                   Ds3   v092
        BYTE   W06
        BYTE                   Ds3   v028
        BYTE   W06
// 035   ----------------------------------------
        BYTE           N72     Gs3   v092
        BYTE   W72
        BYTE   W03
        BYTE           N06     Gs3   v028
        BYTE   W21
// 036   ----------------------------------------
        BYTE           N48     Gs2   v092
        BYTE   W48
        BYTE           N06     Gs2   v028
        BYTE   W12
        BYTE                   Ds3   v092
        BYTE   W06
        BYTE                   Ds3   v028
        BYTE   W06
        BYTE                   Fn3   v092
        BYTE   W06
        BYTE                   Fn3   v028
        BYTE   W06
        BYTE                   Gn3   v092
        BYTE   W06
        BYTE                   Gn3   v028
        BYTE   W06
// 037   ----------------------------------------
        BYTE           N72     Gs3   v092
        BYTE   W72
        BYTE           N06     Gs3   v028
        BYTE   W24
// 038   ----------------------------------------
        BYTE           N30     Cs3   v092
        BYTE           N30     Fn3
        BYTE   W30
        BYTE           N06     Fn3   v028
        BYTE   W06
        BYTE                   Cn3   v092
        BYTE           N06     Ds3
        BYTE   W06
        BYTE                   Cs3
        BYTE           N06     Fn3
        BYTE   W06
        BYTE           N30     Ds3
        BYTE           N30     Gn3
        BYTE   W30
        BYTE           N06     Gn3   v028
        BYTE   W06
        BYTE                   Cs3   v092
        BYTE           N06     Fn3
        BYTE   W06
        BYTE                   Ds3
        BYTE           N06     Gn3
        BYTE   W06
// 039   ----------------------------------------
        BYTE           N72     Ds3
        BYTE           N72     Gs3
        BYTE   W72
        BYTE           N06     Gs3   v028
        BYTE   W24
// 040   ----------------------------------------
        BYTE   GoTo
         POIN2  song43_4_LOOP
        BYTE   FINE

//****************** Track 5 (Midi-Chn.5) ******************//

song43_5:
        BYTE   KEYSH   song43_key+0
// 000   ----------------------------------------
song43_5_LOOP:
        BYTE   W96
// 001   ----------------------------------------
        BYTE   W96
// 002   ----------------------------------------
        BYTE   W96
// 003   ----------------------------------------
        BYTE   PATT
         POIN2  song43_3_27
// 004   ----------------------------------------
        BYTE   PATT
         POIN2  song43_3_28
// 005   ----------------------------------------
        BYTE   W24
        BYTE           N06     Gs3   v028
        BYTE   W06
        BYTE                   Gs3   v088
        BYTE   W06
        BYTE                   As3
        BYTE   W06
        BYTE                   Cn4
        BYTE   W06
        BYTE           N24     Cs4
        BYTE   W24
        BYTE                   Cn4
        BYTE   W24
// 006   ----------------------------------------
        BYTE           N06     Cn4   v028
        BYTE   W24
        BYTE           N24     As3   v088
        BYTE   W24
        BYTE                   Cs4
        BYTE   W24
        BYTE                   Cn4
        BYTE   W24
// 007   ----------------------------------------
        BYTE           N72     As3
        BYTE   W72
        BYTE           N06     As3   v028
        BYTE   W24
// 008   ----------------------------------------
        BYTE   W96
// 009   ----------------------------------------
        BYTE   W96
// 010   ----------------------------------------
        BYTE   W96
// 011   ----------------------------------------
        BYTE   W96
// 012   ----------------------------------------
        BYTE   W96
// 013   ----------------------------------------
        BYTE   W96
// 014   ----------------------------------------
        BYTE   W96
// 015   ----------------------------------------
        BYTE           VOICE   52
        BYTE           VOL     48
        BYTE           PAN     c_v+22
        BYTE   W96
// 016   ----------------------------------------
        BYTE           N96     As2   v072
        BYTE           N96     Fn3   v076
        BYTE   W96
// 017   ----------------------------------------
        BYTE           N48     Gs2   v064
        BYTE           N24     Ds3   v068
        BYTE   W24
        BYTE                   Fn3   v072
        BYTE   W24
        BYTE           N48     Cn3   v068
        BYTE           N24     Gn3   v076
        BYTE   W24
        BYTE                   Gs3
        BYTE   W24
// 018   ----------------------------------------
        BYTE                   Fn3   v080
        BYTE           N24     As3   v092
        BYTE   W24
        BYTE                   Ds3   v068
        BYTE           N24     Gn3   v072
        BYTE   W24
        BYTE                   Cs3
        BYTE           N24     Fn3   v084
        BYTE   W24
        BYTE                   As2   v072
        BYTE           N24     Cs3
        BYTE   W24
// 019   ----------------------------------------
        BYTE           N96     Cn3   v068
        BYTE           N48     Ds3   v080
        BYTE   W48
        BYTE                   Fn3   v084
        BYTE   W48
// 020   ----------------------------------------
        BYTE   PATT
         POIN2  song43_3_27
// 021   ----------------------------------------
        BYTE   W72
        BYTE           N12     Gs4   v096
        BYTE   W12
        BYTE                   Gn4
        BYTE   W12
// 022   ----------------------------------------
        BYTE                   Fn4
        BYTE   W12
        BYTE           N06     Fn4   v028
        BYTE   W12
        BYTE           N36     Fn4   v096
        BYTE   W36
        BYTE           N12     Gn4
        BYTE   W12
        BYTE                   Gs4
        BYTE   W12
        BYTE                   As4
        BYTE   W12
// 023   ----------------------------------------
        BYTE           N44     Gs4
        BYTE   W48
        BYTE           N48     Gn4
        BYTE   W48
// 024   ----------------------------------------
        BYTE           VOICE   50
        BYTE           VOL     46
        BYTE           PAN     c_v+35
        BYTE           N44     Cn2   v080
        BYTE           N42     Ds2   v124
        BYTE   W42
        BYTE           N06     Ds2   v028
        BYTE   W06
        BYTE           N21     Ds2   v080
        BYTE           N18     Gs2   v124
        BYTE   W18
        BYTE           N06     Gs2   v028
        BYTE   W06
        BYTE           N21     Gs2   v080
        BYTE           N18     Cn3   v124
        BYTE   W18
        BYTE           N06     Cn3   v028
        BYTE   W06
// 025   ----------------------------------------
        BYTE           N44     Gs2   v080
        BYTE           N42     Cn3   v124
        BYTE   W42
        BYTE           N06     Cn3   v028
        BYTE   W06
        BYTE           N42     Cs2   v080
        BYTE           N36     Fn2   v124
        BYTE   W36
        BYTE   W03
        BYTE           N06     Fn2   v028
        BYTE   W09
// 026   ----------------------------------------
        BYTE           N56     Cs2   v080
        BYTE           N54     Fn2   v124
        BYTE   W54
        BYTE           N06     Fn2   v028
        BYTE   W06
        BYTE           N09     Ds2   v080
        BYTE           N06     Gn2   v124
        BYTE   W06
        BYTE           N03     Gn2   v028
        BYTE   W06
        BYTE           N09     Fn2   v080
        BYTE           N06     Gs2   v124
        BYTE   W06
        BYTE           N03     Gs2   v028
        BYTE   W06
        BYTE           N09     Gn2   v080
        BYTE           N06     As2   v124
        BYTE   W06
        BYTE           N03     As2   v028
        BYTE   W06
// 027   ----------------------------------------
        BYTE           N44     Fn2   v080
        BYTE           N42     Gs2   v124
        BYTE   W42
        BYTE           N06     Gs2   v028
        BYTE   W06
        BYTE           N21     Ds2   v080
        BYTE           N36     Gn2   v124
        BYTE   W24
        BYTE           N21     Cs2   v080
        BYTE   W15
        BYTE           N06     Gn2   v028
        BYTE   W09
// 028   ----------------------------------------
        BYTE           N44     Cn2   v080
        BYTE           N42     Ds2   v124
        BYTE   W42
        BYTE           N06     Ds2   v028
        BYTE   W06
        BYTE           N21     Ds2   v080
        BYTE           N18     Gs2   v124
        BYTE   W18
        BYTE           N06     Gs2   v028
        BYTE   W06
        BYTE           N21     Gs2   v080
        BYTE           N18     Cn3   v124
        BYTE   W18
        BYTE           N06     Cn3   v028
        BYTE   W06
// 029   ----------------------------------------
        BYTE           N44     Cn3   v080
        BYTE           N42     Ds3   v124
        BYTE   W42
        BYTE           N06     Ds3   v028
        BYTE   W06
        BYTE           N21     As2   v080
        BYTE           N18     Cs3   v124
        BYTE   W18
        BYTE           N06     Cs3   v028
        BYTE   W06
        BYTE           N21     Gs2   v080
        BYTE           N18     Cn3   v124
        BYTE   W18
        BYTE           N06     Cn3   v028
        BYTE   W06
// 030   ----------------------------------------
        BYTE           N54     Cs2   v080
        BYTE           N48     Fn2   v124
        BYTE   W48
        BYTE   W03
        BYTE           N06     Fn2   v028
        BYTE   W09
        BYTE           N09     Ds2   v080
        BYTE           N06     Gn2   v124
        BYTE   W06
        BYTE           N03     Gn2   v028
        BYTE   W06
        BYTE           N09     Fn2   v080
        BYTE           N06     Gs2   v124
        BYTE   W06
        BYTE           N03     Gs2   v028
        BYTE   W06
        BYTE           N09     Gn2   v080
        BYTE           N06     As2   v124
        BYTE   W06
        BYTE           N03     As2   v028
        BYTE   W06
// 031   ----------------------------------------
        BYTE           N80     Ds2   v080
        BYTE           N66     Gs2   v124
        BYTE   W66
        BYTE           N06     Gs2   v028
        BYTE   W30
// 032   ----------------------------------------
        BYTE   W96
// 033   ----------------------------------------
        BYTE   W96
// 034   ----------------------------------------
        BYTE   W96
// 035   ----------------------------------------
        BYTE   W96
// 036   ----------------------------------------
        BYTE   W96
// 037   ----------------------------------------
        BYTE   W96
// 038   ----------------------------------------
        BYTE   W96
// 039   ----------------------------------------
        BYTE   W96
// 040   ----------------------------------------
        BYTE           VOICE   0
        BYTE           VOL     100
        BYTE           PAN     c_v+0
        BYTE   GoTo
         POIN2  song43_5_LOOP
        BYTE   FINE

//****************** Track 6 (Midi-Chn.6) ******************//

song43_6:
        BYTE   KEYSH   song43_key+0
// 000   ----------------------------------------
song43_6_LOOP:
        BYTE           VOL     48
        BYTE           N24     Gs2   v108
        BYTE   W96
// 001   ----------------------------------------
        BYTE   W96
// 002   ----------------------------------------
        BYTE           VOICE   47
        BYTE   W96
// 003   ----------------------------------------
        BYTE   W96
// 004   ----------------------------------------
        BYTE   W96
// 005   ----------------------------------------
        BYTE   W96
// 006   ----------------------------------------
        BYTE   W96
// 007   ----------------------------------------
song43_6_7:
        BYTE   W72
        BYTE           N04     Gs2   v056
        BYTE   W04
        BYTE                   Gs2   v048
        BYTE   W04
        BYTE                   Gs2   v072
        BYTE   W04
        BYTE                   Gs2   v064
        BYTE   W04
        BYTE                   Gs2   v080
        BYTE   W04
        BYTE                   Gs2   v108
        BYTE   W04
        BYTE   PEND
// 008   ----------------------------------------
        BYTE           N24
        BYTE   W96
// 009   ----------------------------------------
        BYTE   W96
// 010   ----------------------------------------
        BYTE   W96
// 011   ----------------------------------------
        BYTE   W72
        BYTE           N04     Ds3   v056
        BYTE   W04
        BYTE                   Ds3   v048
        BYTE   W04
        BYTE                   Ds3   v072
        BYTE   W04
        BYTE                   Ds3   v064
        BYTE   W04
        BYTE                   Ds3   v080
        BYTE   W04
        BYTE                   Ds3   v108
        BYTE   W04
// 012   ----------------------------------------
        BYTE           N24     Gs2
        BYTE   W96
// 013   ----------------------------------------
        BYTE   W96
// 014   ----------------------------------------
        BYTE   W96
// 015   ----------------------------------------
        BYTE   W96
// 016   ----------------------------------------
        BYTE   W96
// 017   ----------------------------------------
        BYTE   W96
// 018   ----------------------------------------
        BYTE   W96
// 019   ----------------------------------------
        BYTE   W72
        BYTE           N06     Cn3   v096
        BYTE   W06
        BYTE                   Cn3   v072
        BYTE   W06
        BYTE                   Cn3   v088
        BYTE   W06
        BYTE                   Cn3   v100
        BYTE   W06
// 020   ----------------------------------------
        BYTE           N24     Cs3   v108
        BYTE   W96
// 021   ----------------------------------------
        BYTE   W96
// 022   ----------------------------------------
        BYTE   W96
// 023   ----------------------------------------
        BYTE   PATT
         POIN2  song43_6_7
// 024   ----------------------------------------
        BYTE           N24     Gs2   v108
        BYTE   W96
// 025   ----------------------------------------
        BYTE   W96
// 026   ----------------------------------------
        BYTE           VOICE   73
        BYTE           VOL     41
        BYTE           PAN     c_v-14
        BYTE   W96
// 027   ----------------------------------------
        BYTE   W48
        BYTE           N24     Fn4   v048
        BYTE   W24
        BYTE                   Gn4   v064
        BYTE   W24
// 028   ----------------------------------------
        BYTE           N72     Gs4   v072
        BYTE   W78
        BYTE           N06
        BYTE   W06
        BYTE                   As4
        BYTE   W06
        BYTE                   Cn5
        BYTE   W06
// 029   ----------------------------------------
        BYTE           N48     Ds5
        BYTE   W48
        BYTE           N30     Cs5
        BYTE   W30
        BYTE           N06
        BYTE   W06
        BYTE                   Cn5
        BYTE   W06
        BYTE                   As4
        BYTE   W06
// 030   ----------------------------------------
        BYTE           N48     Gs4
        BYTE   W48
        BYTE                   Gn4
        BYTE   W48
// 031   ----------------------------------------
        BYTE           N90     Gs4
        BYTE   W96
// 032   ----------------------------------------
        BYTE   W96
// 033   ----------------------------------------
        BYTE   W96
// 034   ----------------------------------------
        BYTE   W96
// 035   ----------------------------------------
        BYTE   W96
// 036   ----------------------------------------
        BYTE   W96
// 037   ----------------------------------------
        BYTE   W96
// 038   ----------------------------------------
        BYTE           VOICE   47
        BYTE           VOL     48
        BYTE           PAN     c_v+0
        BYTE   W96
// 039   ----------------------------------------
        BYTE   PATT
         POIN2  song43_6_7
// 040   ----------------------------------------
        BYTE           VOICE   0
        BYTE   GoTo
         POIN2  song43_6_LOOP
        BYTE   FINE

//****************** Track 7 (Midi-Chn.7) ******************//

song43_7:
        BYTE   KEYSH   song43_key+0
// 000   ----------------------------------------
song43_7_LOOP:
        BYTE           VOICE   127
        BYTE           VOL     45
        BYTE           N06     Dn1   v104
        BYTE           N72     An2   v084
        BYTE   W12
        BYTE           N06     Dn1   v116
        BYTE   W24
        BYTE                   Dn1   v092
        BYTE   W06
        BYTE                   Dn1   v088
        BYTE   W06
        BYTE                   Dn1
        BYTE   W12
        BYTE           N12     Dn1   v116
        BYTE   W24
        BYTE                   Dn1   v072
        BYTE   W12
// 001   ----------------------------------------
        BYTE                   Dn1   v104
        BYTE   W12
        BYTE           N24     Dn1   v116
        BYTE   W24
        BYTE           N12     Dn1   v096
        BYTE   W12
        BYTE                   Dn1   v092
        BYTE   W12
        BYTE           N06
        BYTE   W24
        BYTE                   Dn1   v080
        BYTE   W06
        BYTE                   Dn1
        BYTE   W06
// 002   ----------------------------------------
song43_7_2:
        BYTE           N06     Dn1   v096
        BYTE   W12
        BYTE           N24     Dn1   v084
        BYTE   W24
        BYTE           N06
        BYTE   W06
        BYTE                   Dn1   v068
        BYTE   W06
        BYTE                   Dn1
        BYTE   W12
        BYTE           N12     Dn1   v080
        BYTE   W12
        BYTE           N24     Ds1   v076
        BYTE   W24
        BYTE   PEND
// 003   ----------------------------------------
song43_7_3:
        BYTE           N06     Dn1   v080
        BYTE   W12
        BYTE           N24     Dn1   v088
        BYTE   W24
        BYTE           N06
        BYTE   W12
        BYTE           N12     Dn1   v104
        BYTE   W12
        BYTE                   Dn1   v092
        BYTE   W12
        BYTE           N24     Ds1   v088
        BYTE   W24
        BYTE   PEND
// 004   ----------------------------------------
song43_7_4:
        BYTE           N06     Dn1   v092
        BYTE   W12
        BYTE           N24     Dn1   v104
        BYTE   W24
        BYTE           N06     Dn1   v084
        BYTE   W06
        BYTE                   Dn1   v080
        BYTE   W06
        BYTE           N12     Dn1   v084
        BYTE   W12
        BYTE           N24     Dn1   v092
        BYTE   W24
        BYTE           N12     Dn1   v084
        BYTE   W12
        BYTE   PEND
// 005   ----------------------------------------
song43_7_5:
        BYTE           N06     Dn1   v092
        BYTE   W12
        BYTE           N24     Dn1   v104
        BYTE   W24
        BYTE           N12     Dn1   v092
        BYTE   W12
        BYTE                   Dn1   v100
        BYTE   W12
        BYTE                   Dn1   v088
        BYTE   W12
        BYTE                   Dn1   v084
        BYTE   W12
        BYTE                   Ds1   v104
        BYTE   W12
        BYTE   PEND
// 006   ----------------------------------------
song43_7_6:
        BYTE           N06     Dn1   v096
        BYTE   W12
        BYTE                   Dn1
        BYTE   W24
        BYTE                   Dn1
        BYTE   W06
        BYTE                   Dn1   v084
        BYTE   W06
        BYTE           N12     Dn1   v080
        BYTE   W12
        BYTE                   Dn1   v096
        BYTE   W12
        BYTE                   Dn1   v104
        BYTE   W12
        BYTE           N06     Dn1   v096
        BYTE   W06
        BYTE                   Dn1   v084
        BYTE   W06
        BYTE   PEND
// 007   ----------------------------------------
        BYTE           N12     Dn1   v088
        BYTE   W12
        BYTE                   Dn1   v080
        BYTE   W12
        BYTE           N06
        BYTE   W06
        BYTE                   Dn1
        BYTE   W06
        BYTE           N12     Ds1   v096
        BYTE   W12
        BYTE           N06     Dn1   v084
        BYTE           N48     En2   v116
        BYTE   W12
        BYTE           N12     Ds1   v084
        BYTE   W12
        BYTE           N06     Dn1
        BYTE   W12
        BYTE                   Dn1   v116
        BYTE   W06
        BYTE                   Dn1   v124
        BYTE   W06
// 008   ----------------------------------------
        BYTE           N12     Dn1   v120
        BYTE           N36     An2   v084
        BYTE   W12
        BYTE           N06     Dn1   v088
        BYTE   W24
        BYTE                   Dn1   v072
        BYTE   W06
        BYTE                   Dn1
        BYTE   W06
        BYTE           N12     Dn1   v084
        BYTE   W12
        BYTE           N24     Dn1   v088
        BYTE   W24
        BYTE           N12     Dn1   v080
        BYTE   W12
// 009   ----------------------------------------
        BYTE                   Dn1   v096
        BYTE   W12
        BYTE                   Dn1   v084
        BYTE   W12
        BYTE                   Dn1   v096
        BYTE   W12
        BYTE           N06     Dn1   v084
        BYTE   W06
        BYTE                   Dn1   v060
        BYTE   W06
        BYTE           N12     Dn1   v072
        BYTE   W12
        BYTE           N24     Dn1   v092
        BYTE   W24
        BYTE           N12     Dn1   v080
        BYTE   W12
// 010   ----------------------------------------
        BYTE                   Dn1   v084
        BYTE   W12
        BYTE           N24     Dn1   v080
        BYTE   W24
        BYTE           N06
        BYTE   W24
        BYTE                   Dn1
        BYTE   W12
        BYTE                   Dn1
        BYTE   W12
        BYTE           N12     Dn1   v088
        BYTE   W12
// 011   ----------------------------------------
        BYTE                   Dn1   v084
        BYTE   W12
        BYTE           N24     Dn1   v104
        BYTE   W24
        BYTE           N06     Dn1   v080
        BYTE   W06
        BYTE                   Dn1   v068
        BYTE   W06
        BYTE           N12     Dn1   v080
        BYTE   W12
        BYTE           N06
        BYTE   W12
        BYTE           N24     Ds1   v076
        BYTE   W24
// 012   ----------------------------------------
        BYTE           N06     Dn1   v080
        BYTE   W12
        BYTE           N24     Dn1   v084
        BYTE   W24
        BYTE           N06     Dn1   v076
        BYTE   W06
        BYTE                   Dn1   v080
        BYTE   W06
        BYTE           N12     Dn1   v084
        BYTE   W12
        BYTE           N24     Dn1   v088
        BYTE   W24
        BYTE           N12     Dn1   v080
        BYTE   W12
// 013   ----------------------------------------
        BYTE           N06
        BYTE   W12
        BYTE           N24     Dn1   v092
        BYTE   W24
        BYTE                   Dn1   v084
        BYTE   W24
        BYTE           N12     Dn1   v088
        BYTE   W12
        BYTE                   Dn1   v080
        BYTE   W12
        BYTE                   Dn1   v068
        BYTE   W12
// 014   ----------------------------------------
        BYTE                   Dn1   v084
        BYTE   W12
        BYTE           N06     Dn1   v080
        BYTE   W06
        BYTE                   Dn1
        BYTE   W06
        BYTE                   Dn1
        BYTE   W12
        BYTE           N12     Dn1   v092
        BYTE   W12
        BYTE                   Dn1   v120
        BYTE   W12
        BYTE           N06     Dn1   v080
        BYTE   W06
        BYTE                   Dn1   v092
        BYTE   W06
        BYTE           N24     Ds1   v088
        BYTE   W24
// 015   ----------------------------------------
        BYTE           N06     Dn1   v080
        BYTE   W06
        BYTE                   Dn1
        BYTE   W06
        BYTE           N12     Ds1   v072
        BYTE   W12
        BYTE                   Ds1   v092
        BYTE   W12
        BYTE           N06     Dn1   v080
        BYTE   W12
        BYTE           N12     Dn1   v088
        BYTE   W12
        BYTE           N06     Dn1   v096
        BYTE   W06
        BYTE                   Dn1
        BYTE   W12
        BYTE                   Dn1   v112
        BYTE   W06
        BYTE                   Dn1   v092
        BYTE   W06
        BYTE                   Dn1   v127
        BYTE   W06
// 016   ----------------------------------------
        BYTE           N12     Fs2   v048
        BYTE   W36
        BYTE                   Fs2
        BYTE   W12
        BYTE                   Fs2
        BYTE   W48
// 017   ----------------------------------------
        BYTE                   Fs2
        BYTE   W36
        BYTE                   Fs2
        BYTE   W12
        BYTE                   Fs2
        BYTE   W36
        BYTE                   Fs2
        BYTE   W12
// 018   ----------------------------------------
        BYTE                   Fs2
        BYTE   W48
        BYTE                   Fs2
        BYTE   W36
        BYTE                   Fs2
        BYTE   W12
// 019   ----------------------------------------
        BYTE                   Fs2
        BYTE   W36
        BYTE                   Fs2
        BYTE   W12
        BYTE                   Fs2
        BYTE   W24
        BYTE           N03     Fs2   v040
        BYTE   W03
        BYTE                   Fs2   v032
        BYTE   W03
        BYTE                   Fs2   v028
        BYTE   W03
        BYTE                   Fs2
        BYTE   W03
        BYTE                   Fs2   v024
        BYTE   W03
        BYTE                   Fs2
        BYTE   W03
        BYTE                   Fs2   v020
        BYTE   W03
        BYTE                   Fs2
        BYTE   W03
// 020   ----------------------------------------
        BYTE           N36     An2   v084
        BYTE   W36
        BYTE           N06     Dn1   v080
        BYTE   W06
        BYTE                   Dn1   v060
        BYTE   W06
        BYTE           N36     Dn1   v056
        BYTE   W36
        BYTE           N12     Dn1   v076
        BYTE   W12
// 021   ----------------------------------------
        BYTE                   Dn1   v084
        BYTE   W12
        BYTE           N24     Dn1   v092
        BYTE   W24
        BYTE           N06     Dn1   v076
        BYTE   W06
        BYTE                   Dn1   v092
        BYTE   W06
        BYTE           N12     Dn1   v088
        BYTE   W12
        BYTE           N24     Dn1   v084
        BYTE   W24
        BYTE           N12     Dn1   v088
        BYTE   W12
// 022   ----------------------------------------
        BYTE           N06
        BYTE   W12
        BYTE           N12     Dn1   v100
        BYTE   W12
        BYTE           N06     Dn1   v092
        BYTE   W06
        BYTE                   Dn1
        BYTE   W06
        BYTE                   Dn1   v076
        BYTE   W06
        BYTE                   Dn1   v088
        BYTE   W06
        BYTE           N12     Dn1   v092
        BYTE   W12
        BYTE                   Dn1   v088
        BYTE   W12
        BYTE                   Dn1   v084
        BYTE   W12
        BYTE           N11     Ds1   v088
        BYTE   W12
// 023   ----------------------------------------
        BYTE           N06     Dn1   v092
        BYTE   W06
        BYTE                   Dn1   v104
        BYTE   W06
        BYTE                   Dn1   v084
        BYTE   W06
        BYTE                   Dn1
        BYTE   W06
        BYTE           N12     Dn1   v088
        BYTE   W12
        BYTE           N06
        BYTE   W12
        BYTE           N24     Ds1   v084
        BYTE   W24
        BYTE           N06     Dn1   v088
        BYTE   W06
        BYTE                   Dn1
        BYTE   W06
        BYTE                   Dn1   v096
        BYTE   W06
        BYTE                   Dn1   v108
        BYTE   W06
// 024   ----------------------------------------
        BYTE           N12     Dn1   v104
        BYTE           N36     An2   v084
        BYTE   W12
        BYTE           N06     Dn1   v116
        BYTE   W24
        BYTE                   Dn1   v092
        BYTE   W06
        BYTE                   Dn1   v088
        BYTE   W06
        BYTE                   Dn1
        BYTE   W12
        BYTE           N24     Dn1   v116
        BYTE   W24
        BYTE           N12     Dn1   v072
        BYTE   W12
// 025   ----------------------------------------
song43_7_25:
        BYTE           N06     Dn1   v104
        BYTE   W12
        BYTE           N24     Dn1   v116
        BYTE   W24
        BYTE           N12     Dn1   v096
        BYTE   W12
        BYTE                   Dn1   v092
        BYTE   W12
        BYTE           N06
        BYTE   W24
        BYTE           N12     Dn1   v080
        BYTE   W12
        BYTE   PEND
// 026   ----------------------------------------
        BYTE   PATT
         POIN2  song43_7_2
// 027   ----------------------------------------
        BYTE   PATT
         POIN2  song43_7_3
// 028   ----------------------------------------
        BYTE   PATT
         POIN2  song43_7_4
// 029   ----------------------------------------
        BYTE           N06     Dn1   v092
        BYTE   W12
        BYTE           N24     Dn1   v104
        BYTE   W24
        BYTE           N12     Dn1   v092
        BYTE   W12
        BYTE                   Dn1   v100
        BYTE   W12
        BYTE                   Dn1   v088
        BYTE   W12
        BYTE                   Dn1   v084
        BYTE   W12
        BYTE                   Ds1   v080
        BYTE   W12
// 030   ----------------------------------------
        BYTE   PATT
         POIN2  song43_7_6
// 031   ----------------------------------------
        BYTE           N06     Dn1   v088
        BYTE   W12
        BYTE           N12     Dn1   v080
        BYTE   W12
        BYTE           N06
        BYTE   W12
        BYTE                   Dn1   v084
        BYTE   W06
        BYTE                   Dn1   v080
        BYTE   W06
        BYTE           N12     Dn1   v084
        BYTE   W12
        BYTE                   Ds1
        BYTE   W12
        BYTE           N06     Dn1
        BYTE   W06
        BYTE                   Dn1   v104
        BYTE   W06
        BYTE                   Dn1   v116
        BYTE           N12     An2   v084
        BYTE   W06
        BYTE           N06     Dn1   v124
        BYTE   W06
// 032   ----------------------------------------
        BYTE           N12     Dn1   v104
        BYTE           N36     An2   v084
        BYTE   W12
        BYTE           N06     Dn1   v116
        BYTE   W24
        BYTE           N12     Dn1   v092
        BYTE   W12
        BYTE                   Dn1   v088
        BYTE   W12
        BYTE           N24     Dn1   v116
        BYTE   W24
        BYTE           N12     Dn1   v072
        BYTE   W12
// 033   ----------------------------------------
        BYTE   PATT
         POIN2  song43_7_25
// 034   ----------------------------------------
        BYTE           N06     Dn1   v096
        BYTE   W12
        BYTE           N24     Dn1   v084
        BYTE   W24
        BYTE           N06
        BYTE   W12
        BYTE           N12     Dn1   v068
        BYTE   W12
        BYTE                   Dn1   v080
        BYTE   W12
        BYTE           N24     Ds1   v076
        BYTE   W24
// 035   ----------------------------------------
        BYTE   PATT
         POIN2  song43_7_3
// 036   ----------------------------------------
        BYTE           N06     Dn1   v092
        BYTE   W12
        BYTE           N24     Dn1   v104
        BYTE   W24
        BYTE           N12     Dn1   v084
        BYTE   W12
        BYTE           N06
        BYTE   W12
        BYTE           N24     Dn1   v092
        BYTE   W24
        BYTE           N12     Dn1   v084
        BYTE   W12
// 037   ----------------------------------------
        BYTE   PATT
         POIN2  song43_7_5
// 038   ----------------------------------------
        BYTE           N06     Dn1   v096
        BYTE   W12
        BYTE                   Dn1
        BYTE   W24
        BYTE                   Dn1
        BYTE   W12
        BYTE           N12     Dn1   v080
        BYTE   W12
        BYTE                   Dn1   v096
        BYTE   W12
        BYTE                   Dn1   v104
        BYTE   W12
        BYTE                   Dn1   v096
        BYTE   W12
// 039   ----------------------------------------
        BYTE                   Dn1   v088
        BYTE   W12
        BYTE           N24     Dn1   v080
        BYTE   W24
        BYTE           N12     Ds1   v096
        BYTE   W12
        BYTE           N06     Dn1   v084
        BYTE           N48     En2   v116
        BYTE   W12
        BYTE           N06     Ds1   v084
        BYTE   W12
        BYTE                   Dn1
        BYTE   W06
        BYTE                   Dn1   v104
        BYTE   W06
        BYTE                   Dn1   v116
        BYTE   W06
        BYTE                   Dn1   v124
        BYTE   W06
// 040   ----------------------------------------
        BYTE   GoTo
         POIN2  song43_7_LOOP
        BYTE   FINE


//********************** End of Song ***********************//

        ALIGN 4
song43:
        BYTE   8                       // Num Tracks
        BYTE   0                       // Unknown
        BYTE   song43_pri              // Priority
        BYTE   song43_rev              // Reverb

        POIN2   song43_grp             

        POIN2   song43_0
        POIN2   song43_1
        POIN2   song43_2
        POIN2   song43_3
        POIN2   song43_4
        POIN2   song43_5
        POIN2   song43_6
        POIN2   song43_7

        
