//Event file generated from Sappy .s format.
        #include "MPlayDef.event"

        #define    The_Scions_Dance_in_Purgatory_grp  voicegroup000
        #define    The_Scions_Dance_in_Purgatory_pri  0
        #define    The_Scions_Dance_in_Purgatory_rev  0
        #define    The_Scions_Dance_in_Purgatory_key  0

        // .rodata
        // The_Scions_Dance_in_Purgatory
        ALIGN 4

//****************** Track 0 (Midi-Chn.0) ******************//

The_Scions_Dance_in_Purgatory_0:
        BYTE   KEYSH   The_Scions_Dance_in_Purgatory_key+0
// 000   ----------------------------------------
        BYTE   TEMPO   120/2
        BYTE           VOICE   6
        BYTE           VOL     43
        BYTE           PAN     c_v-29
        BYTE           N12     Gs3   v126
        BYTE           N12     Ds4
        BYTE           N12     Gs4
        BYTE   W12
        BYTE           N03     Ds4
        BYTE   W03
        BYTE                   Dn4
        BYTE   W03
        BYTE                   Ds4
        BYTE   W03
        BYTE           N15     Dn4
        BYTE   W15
        BYTE           N12     Ds4
        BYTE   W12
        BYTE                   En4
        BYTE   W12
        BYTE                   Ds4
        BYTE   W12
        BYTE                   Cs4
        BYTE           N12     Cs3
        BYTE   W12
        BYTE                   Bn3
        BYTE   W12
// 001   ----------------------------------------
The_Scions_Dance_in_Purgatory_0_1:
        BYTE           N12     As3   v126
        BYTE   W12
        BYTE                   Bn3
        BYTE   W12
        BYTE                   Cs4
        BYTE   W12
        BYTE                   Gn3
        BYTE           N12     Gn4
        BYTE   W12
        BYTE                   Gs3
        BYTE           N12     Ds4
        BYTE           N12     Gs4
        BYTE   W12
        BYTE           N06
        BYTE   W06
        BYTE                   Gn4
        BYTE   W06
        BYTE                   En4
        BYTE   W06
        BYTE                   Ds4
        BYTE   W06
        BYTE                   Cs4
        BYTE   W06
        BYTE                   Bn3
        BYTE   W06
        BYTE   PEND
// 002   ----------------------------------------
The_Scions_Dance_in_Purgatory_0_2:
        BYTE           N06     As3   v126
        BYTE   W06
        BYTE                   Gs3
        BYTE   W06
        BYTE                   Fs3
        BYTE   W06
        BYTE                   En3
        BYTE   W06
        BYTE                   Ds3
        BYTE   W06
        BYTE                   Cs3
        BYTE   W06
        BYTE                   Bn3
        BYTE           N06     Fs4
        BYTE           N06     Bn4
        BYTE           N12     Bn2
        BYTE   W06
        BYTE           N06     As4
        BYTE   W06
        BYTE                   Gs4
        BYTE   W06
        BYTE                   Fs4
        BYTE   W06
        BYTE                   En4
        BYTE   W06
        BYTE                   Ds4
        BYTE   W06
        BYTE                   Cs4
        BYTE   W06
        BYTE                   Bn3
        BYTE   W06
        BYTE                   As3
        BYTE   W06
        BYTE                   Gs3
        BYTE   W06
        BYTE   PEND
// 003   ----------------------------------------
The_Scions_Dance_in_Purgatory_0_3:
        BYTE           N06     Fs3   v126
        BYTE   W06
        BYTE                   Cs3
        BYTE   W06
        BYTE                   Ds4
        BYTE           N06     As4
        BYTE           N06     Ds5
        BYTE           N12     Ds3
        BYTE   W06
        BYTE           N06     Cs5
        BYTE   W06
        BYTE                   Bn4
        BYTE           N12     Bn2
        BYTE   W06
        BYTE           N06     As4
        BYTE   W06
        BYTE                   Gs4
        BYTE   W06
        BYTE                   Fs4
        BYTE   W06
        BYTE                   En4
        BYTE   W06
        BYTE                   Ds4
        BYTE   W06
        BYTE                   Cs4
        BYTE   W06
        BYTE                   Bn3
        BYTE   W06
        BYTE                   As3
        BYTE   W06
        BYTE                   Gs3
        BYTE   W06
        BYTE                   Fs3
        BYTE   W06
        BYTE                   En3
        BYTE   W06
        BYTE   PEND
// 004   ----------------------------------------
The_Scions_Dance_in_Purgatory_0_4:
        BYTE           N06     Ds3   v126
        BYTE   W06
        BYTE                   En3
        BYTE   W06
        BYTE                   Fs3
        BYTE   W06
        BYTE                   Gs3
        BYTE   W06
        BYTE                   As3
        BYTE   W06
        BYTE                   Bn3
        BYTE   W06
        BYTE                   Cs4
        BYTE   W06
        BYTE                   Ds4
        BYTE   W06
        BYTE                   En4
        BYTE   W06
        BYTE                   Fs4
        BYTE   W06
        BYTE                   Gs4
        BYTE   W06
        BYTE                   As4
        BYTE   W06
        BYTE                   Bn4
        BYTE           N06     Bn3
        BYTE           N12     Bn2
        BYTE   W06
        BYTE           N06     Cn5
        BYTE           N06     Cn4
        BYTE   W06
        BYTE                   Cs5
        BYTE           N06     Cs4
        BYTE           N12     Cs3
        BYTE   W06
        BYTE           N06     Dn5
        BYTE           N06     Dn4
        BYTE   W06
        BYTE   PEND
// 005   ----------------------------------------
The_Scions_Dance_in_Purgatory_0_5:
        BYTE           N96     Ds4   v126
        BYTE           N96     Bn4
        BYTE           N96     Ds5
        BYTE           N96     Ds2
        BYTE           N96     Ds1
        BYTE   W96
        BYTE   PEND
// 006   ----------------------------------------
The_Scions_Dance_in_Purgatory_0_LOOP:
        BYTE           N12     Fs2   v126
        BYTE           N12     Ds2
        BYTE           N24     Ds1
        BYTE           N24     Ds0
        BYTE   W24
        BYTE           N12     Ds3
        BYTE           N12     Fs2
        BYTE           N12     Ds2
        BYTE           N12     Ds1
        BYTE           N12     Ds0
        BYTE   W18
        BYTE           N06     En2
        BYTE           N06     Ds3
        BYTE           N06     An0
        BYTE           N06     Cs0
        BYTE   W06
        BYTE           N12     Ds1
        BYTE           N12     Ds0
        BYTE   W06
        BYTE           N06     En2
        BYTE           N06     An2
        BYTE           N06     Ds3
        BYTE   W30
        BYTE                   En2
        BYTE           N06     Fs2
        BYTE           N06     Ds3
        BYTE           N24     Ds1
        BYTE           N24     Ds0
        BYTE   W06
        BYTE           N06     En2
        BYTE           N06     Fs2
        BYTE           N06     Ds3
        BYTE   W06
// 007   ----------------------------------------
The_Scions_Dance_in_Purgatory_0_7:
        BYTE   W12
        BYTE           N12     Ds2   v126
        BYTE           N12     Fs2
        BYTE           N12     Ds3
        BYTE           N12     Ds1
        BYTE           N12     Ds0
        BYTE   W18
        BYTE           N06     En2
        BYTE           N06     Ds3
        BYTE           N06     Cs0
        BYTE           N06     An0
        BYTE   W06
        BYTE           N12     En2
        BYTE           N12     Bn2
        BYTE           N12     Ds3
        BYTE           N12     Ds1
        BYTE           N12     Ds0
        BYTE   W48
        BYTE                   Ds2
        BYTE           N12     Ds3
        BYTE           N24     Ds1
        BYTE           N24     Ds0
        BYTE   W12
        BYTE   PEND
// 008   ----------------------------------------
The_Scions_Dance_in_Purgatory_0_8:
        BYTE   W12
        BYTE           N12     Ds2   v126
        BYTE           N12     Fs2
        BYTE           N12     Ds3
        BYTE           N12     Ds1
        BYTE           N12     Ds0
        BYTE   W18
        BYTE           N06     En2
        BYTE           N18     Ds3
        BYTE           N06     Cs0
        BYTE           N06     An0
        BYTE   W06
        BYTE           N12     An2
        BYTE           N12     En2
        BYTE           N12     Ds1
        BYTE           N12     Ds0
        BYTE   W36
        BYTE           N06     En2
        BYTE           N06     Fs2
        BYTE           N06     Ds3
        BYTE           N24     Ds1
        BYTE           N24     Ds0
        BYTE   W06
        BYTE           N06     Ds3
        BYTE           N06     Fs2
        BYTE           N06     En2
        BYTE   W18
        BYTE   PEND
// 009   ----------------------------------------
The_Scions_Dance_in_Purgatory_0_9:
        BYTE           N12     Gs4   v126
        BYTE           N24     Cs2
        BYTE           N24     Cs1
        BYTE   W12
        BYTE           N06     Dn4
        BYTE   W06
        BYTE                   Ds4
        BYTE   W06
        BYTE           N12     Dn4
        BYTE           N12     Gs2
        BYTE   W12
        BYTE                   Ds4
        BYTE           N12     Cs3
        BYTE   W12
        BYTE                   En4
        BYTE           N12     En3
        BYTE   W12
        BYTE                   Ds4
        BYTE           N12     Gs3
        BYTE   W12
        BYTE                   Cs4
        BYTE           N12     Cs5
        BYTE           N24     Cs3
        BYTE           N24     Gs2
        BYTE           N24     Cs2
        BYTE   W12
        BYTE           N06     As4
        BYTE   W06
        BYTE                   Bn4
        BYTE   W06
        BYTE   PEND
// 010   ----------------------------------------
        BYTE           N12     As4
        BYTE   W12
        BYTE                   Bn3
        BYTE           N12     Bn4
        BYTE           N24     Bn2
        BYTE           N24     Fs2
        BYTE           N24     Bn1
        BYTE   W12
        BYTE           N12     Cs5
        BYTE           N12     Cs4
        BYTE   W12
        BYTE                   Gn4
        BYTE           N12     Gn3
        BYTE   W12
        BYTE           N24     Gs3
        BYTE           N24     Gs2
        BYTE           N24     Gs1
        BYTE   W24
        BYTE                   Ds4
        BYTE           N24     Ds3
        BYTE           N08     Gs1
        BYTE   W08
        BYTE                   Ds2
        BYTE   W08
        BYTE                   Gs2
        BYTE   W08
// 011   ----------------------------------------
        BYTE           N24     Gs3
        BYTE           N24     Gs4
        BYTE           N08     Gs1
        BYTE   W08
        BYTE                   Ds2
        BYTE   W08
        BYTE                   Gs2
        BYTE   W08
        BYTE           N12     As3
        BYTE           N12     As4
        BYTE           N24     Fs1
        BYTE           N24     Fs2
        BYTE   W24
        BYTE                   Bn3
        BYTE           N24     Bn4
        BYTE           N08     Fs1
        BYTE   W08
        BYTE                   Cs2
        BYTE   W08
        BYTE                   Fs2
        BYTE   W08
        BYTE           N24     Cs4
        BYTE           N24     Cs5
        BYTE           N08     Fs1
        BYTE   W08
        BYTE                   Cs2
        BYTE   W08
        BYTE                   Fs2
        BYTE   W08
// 012   ----------------------------------------
        BYTE           N24     Ds4
        BYTE           N24     Ds5
        BYTE           N24     En2
        BYTE           N24     En1
        BYTE   W24
        BYTE                   Cs4
        BYTE           N24     Cs5
        BYTE           N08     En1
        BYTE   W08
        BYTE                   Bn1
        BYTE   W08
        BYTE                   En2
        BYTE   W08
        BYTE           N24     Gs3
        BYTE           N24     Gs4
        BYTE           N08     En1
        BYTE   W08
        BYTE                   Bn1
        BYTE   W08
        BYTE                   En2
        BYTE   W08
        BYTE           N72     Cs4
        BYTE           N72     Cs5
        BYTE           N24     Ds2
        BYTE           N24     Ds1
        BYTE   W24
// 013   ----------------------------------------
        BYTE           N08
        BYTE   W08
        BYTE                   As1
        BYTE   W08
        BYTE                   Ds2
        BYTE   W08
        BYTE                   Ds1
        BYTE   W08
        BYTE                   As1
        BYTE   W08
        BYTE                   Ds2
        BYTE   W08
        BYTE           N24     Cs4
        BYTE           N24     Cs5
        BYTE           N24     Cs2
        BYTE           N24     Cs3
        BYTE   W24
        BYTE                   Bn3
        BYTE           N24     Bn4
        BYTE           N08     Cs2
        BYTE   W08
        BYTE                   Gs2
        BYTE   W08
        BYTE                   Cs3
        BYTE   W08
// 014   ----------------------------------------
        BYTE           N24     As3
        BYTE           N24     As4
        BYTE           N08     Cs2
        BYTE   W08
        BYTE                   Gs2
        BYTE   W08
        BYTE                   Cs3
        BYTE   W08
        BYTE           N72     Bn4
        BYTE           N72     Bn3
        BYTE           N24     Bn2
        BYTE           N24     Bn1
        BYTE   W24
        BYTE           N08
        BYTE   W08
        BYTE                   Fs2
        BYTE   W08
        BYTE                   Bn2
        BYTE   W08
        BYTE                   Bn1
        BYTE   W08
        BYTE                   Fs2
        BYTE   W08
        BYTE                   Bn2
        BYTE   W08
// 015   ----------------------------------------
        BYTE   TEMPO   136/2
        BYTE           N24     An4
        BYTE           N24     Gs3
        BYTE           N24     Bn2
        BYTE           N24     Bn1
        BYTE   W24
        BYTE                   Fs4
        BYTE           N24     Fs3
        BYTE           N08     Bn1
        BYTE   W08
        BYTE                   En2
        BYTE   W08
        BYTE                   Bn2
        BYTE   W08
        BYTE           N24     En4
        BYTE           N24     En3
        BYTE           N08     Bn1
        BYTE   W08
        BYTE                   En2
        BYTE   W08
        BYTE                   Bn2
        BYTE   W08
        BYTE           N72     Ds4
        BYTE           N72     Ds3
        BYTE           N24     Gs2
        BYTE           N24     Gs1
        BYTE   W24
// 016   ----------------------------------------
        BYTE           N08
        BYTE   W08
        BYTE                   Ds2
        BYTE   W08
        BYTE                   Gs2
        BYTE   W08
        BYTE                   Gs1
        BYTE   W08
        BYTE                   Ds2
        BYTE   W08
        BYTE                   Gs2
        BYTE   W08
        BYTE           N24     Gs3
        BYTE           N24     Gs2
        BYTE           N24     Gs1
        BYTE   W24
        BYTE                   Ds3
        BYTE           N24     Ds4
        BYTE           N08     Gs1
        BYTE   W08
        BYTE                   Ds2
        BYTE   W08
        BYTE                   Gs2
        BYTE   W08
// 017   ----------------------------------------
        BYTE           N24     Gs3
        BYTE           N24     Gs4
        BYTE           N08     Gs1
        BYTE   W08
        BYTE                   Ds2
        BYTE   W08
        BYTE                   Gs2
        BYTE   W08
        BYTE           N12     As3
        BYTE           N12     As4
        BYTE           N24     Fs2
        BYTE           N24     Gs1
        BYTE   W24
        BYTE                   Bn3
        BYTE           N24     Bn4
        BYTE           N08     Fs1
        BYTE   W08
        BYTE                   Cs2
        BYTE   W08
        BYTE                   Fs2
        BYTE   W08
        BYTE           N24     Cs4
        BYTE           N24     Cs5
        BYTE           N08     Fs1
        BYTE   W08
        BYTE                   Cs2
        BYTE   W08
        BYTE                   Fs2
        BYTE   W08
// 018   ----------------------------------------
        BYTE           N24     Ds5
        BYTE           N24     Ds4
        BYTE           N24     En1
        BYTE           N24     En2
        BYTE   W24
        BYTE                   Cs4
        BYTE           N24     Cs5
        BYTE           N08     En1
        BYTE   W08
        BYTE                   Bn1
        BYTE   W08
        BYTE                   En2
        BYTE   W08
        BYTE           N24     Gs3
        BYTE           N24     Gs4
        BYTE           N08     En1
        BYTE   W08
        BYTE                   Bn1
        BYTE   W08
        BYTE                   En2
        BYTE   W08
        BYTE           N72     As3
        BYTE           N72     Cs5
        BYTE           N24     Ds2
        BYTE           N24     Ds1
        BYTE   W24
// 019   ----------------------------------------
        BYTE           N08
        BYTE   W08
        BYTE                   As1
        BYTE   W08
        BYTE                   Ds2
        BYTE   W08
        BYTE                   Ds1
        BYTE   W08
        BYTE                   As1
        BYTE   W08
        BYTE                   Ds2
        BYTE   W08
        BYTE           N24     Cs5
        BYTE           N24     Cs4
        BYTE           N24     Cs2
        BYTE           N24     Cs3
        BYTE   W24
        BYTE                   Bn3
        BYTE           N24     Bn4
        BYTE           N08     Cs2
        BYTE   W08
        BYTE                   Gs2
        BYTE   W08
        BYTE                   Cs3
        BYTE   W08
// 020   ----------------------------------------
        BYTE           N24     Fs3
        BYTE           N24     Fs4
        BYTE           N08     Cs2
        BYTE   W08
        BYTE                   Gs2
        BYTE   W08
        BYTE                   Cs3
        BYTE   W08
        BYTE           N72     Gs4
        BYTE           N72     Gs3
        BYTE           N24     Bn2
        BYTE           N24     Bn1
        BYTE   W24
        BYTE           N08
        BYTE   W08
        BYTE                   Fs2
        BYTE   W08
        BYTE                   Bn2
        BYTE   W08
        BYTE                   Bn1
        BYTE   W08
        BYTE                   Fs2
        BYTE   W08
        BYTE                   Bn2
        BYTE   W08
// 021   ----------------------------------------
        BYTE           N24     An4
        BYTE           N24     Gs3
        BYTE           N24     Bn1
        BYTE           N24     Bn2
        BYTE   W24
        BYTE                   Fs4
        BYTE           N24     Fs3
        BYTE           N08     Bn1
        BYTE   W08
        BYTE                   En2
        BYTE   W08
        BYTE                   Bn2
        BYTE   W08
        BYTE           N24     En4
        BYTE           N24     En3
        BYTE           N08     Bn1
        BYTE   W08
        BYTE                   En2
        BYTE   W08
        BYTE                   Bn2
        BYTE   W08
        BYTE           N72     Ds4
        BYTE           N72     Ds3
        BYTE           N24     Gs1
        BYTE           N24     Gs2
        BYTE   W24
// 022   ----------------------------------------
        BYTE           N08     Gs1
        BYTE   W08
        BYTE                   Ds2
        BYTE   W08
        BYTE                   Gs2
        BYTE   W08
        BYTE                   Gs1
        BYTE   W08
        BYTE                   Ds2
        BYTE   W08
        BYTE                   Gs2
        BYTE   W08
        BYTE           N72     Fn3
        BYTE           N72     Bn3
        BYTE           N72     Fn4
        BYTE           N24     Fs1
        BYTE           N24     Fs0
        BYTE   W24
        BYTE                   En1
        BYTE           N24     En0
        BYTE   W24
// 023   ----------------------------------------
        BYTE   TEMPO   196/2
        BYTE                   Fs1
        BYTE           N24     Fs0
        BYTE   W24
        BYTE                   Bn2
        BYTE           N24     Fs2
        BYTE           N12     Fs1
        BYTE           N12     Fs0
        BYTE   W12
        BYTE                   Fs1
        BYTE           N12     Fs0
        BYTE   W12
        BYTE                   Fn3
        BYTE   W12
        BYTE                   Gs3
        BYTE           N24     En1
        BYTE           N24     En0
        BYTE   W12
        BYTE           N12     Bn3
        BYTE   W12
        BYTE                   Cs4
        BYTE           N12     Ds1
        BYTE           N12     Ds0
        BYTE   W12
// 024   ----------------------------------------
        BYTE   TEMPO   190/2
        BYTE           N36     Ds4
        BYTE           N36     As3
        BYTE           N36     Gs3
        BYTE           N36     Ds3
        BYTE   W12
        BYTE           N24     En1
        BYTE           N24     En0
        BYTE   W24
        BYTE                   Cs4
        BYTE           N24     Gs3
        BYTE           N24     Cs3
        BYTE           N12     En1
        BYTE           N12     En0
        BYTE   W12
        BYTE                   En1
        BYTE           N12     En0
        BYTE   W12
        BYTE                   Gs3
        BYTE   W12
        BYTE           N24     Cs4
        BYTE           N24     Fs3
        BYTE           N24     Cs3
        BYTE           N24     Fs1
        BYTE           N24     Fs0
        BYTE   W24
// 025   ----------------------------------------
        BYTE                   Bn2
        BYTE           N24     Gs2
        BYTE           N24     En1
        BYTE           N24     En0
        BYTE   W24
        BYTE                   As2
        BYTE           N24     Fs2
        BYTE           N24     Fs1
        BYTE           N24     Fs0
        BYTE   W24
        BYTE           N36     Cs4
        BYTE           N36     Fs4
        BYTE           N36     Cs5
        BYTE           N12     Fs1
        BYTE           N12     Fs0
        BYTE   W12
        BYTE                   Fs1
        BYTE           N12     Fs0
        BYTE   W24
        BYTE           N24     Bn4
        BYTE           N24     Fs4
        BYTE           N24     Cs4
        BYTE           N12     En1
        BYTE           N12     En0
        BYTE   W12
// 026   ----------------------------------------
        BYTE   W12
        BYTE                   Fs4
        BYTE           N12     Ds1
        BYTE           N12     Ds0
        BYTE   W12
        BYTE           N36     En4
        BYTE           N36     Bn3
        BYTE           N36     Bn4
        BYTE   W12
        BYTE           N24     En1
        BYTE           N24     En0
        BYTE   W24
        BYTE           N36     Fs4
        BYTE           N36     Bn4
        BYTE           N36     Fs5
        BYTE           N12     En1
        BYTE           N12     En0
        BYTE   W12
        BYTE                   En1
        BYTE           N12     En0
        BYTE   W24
// 027   ----------------------------------------
        BYTE           N96     Fs4
        BYTE           N96     Bn4
        BYTE           N96     Fs5
        BYTE           N12     En1
        BYTE           N12     En0
        BYTE   W24
        BYTE                   Ds1
        BYTE           N12     Ds0
        BYTE   W24
        BYTE           N24     En1
        BYTE           N24     En0
        BYTE   W24
        BYTE           N12     En1
        BYTE           N12     En0
        BYTE   W12
        BYTE                   En1
        BYTE           N12     En0
        BYTE   W12
// 028   ----------------------------------------
        BYTE                   En1
        BYTE           N12     En0
        BYTE   W24
        BYTE           N36     En4
        BYTE           N36     En3
        BYTE           N72     En2
        BYTE           N72     En1
        BYTE   W36
        BYTE           N24     Cs4
        BYTE           N24     Cs3
        BYTE   W24
        BYTE           N12     Gs3
        BYTE           N12     Gs2
        BYTE   W12
// 029   ----------------------------------------
        BYTE           N36     Cs4
        BYTE           N36     Cs3
        BYTE           N72     Cs2
        BYTE           N72     Cs1
        BYTE   W36
        BYTE           N36     Fs3
        BYTE           N36     Bn3
        BYTE           N36     Fs4
        BYTE   W36
        BYTE           N24     Fs3
        BYTE           N24     Fs4
        BYTE           N24     En2
        BYTE           N24     En1
        BYTE   W24
// 030   ----------------------------------------
        BYTE                   En4
        BYTE           N24     En3
        BYTE   W24
        BYTE                   Ds4
        BYTE           N24     Ds3
        BYTE   W24
        BYTE                   Cs4
        BYTE           N24     Cs3
        BYTE           N24     Cs2
        BYTE           N24     Cs1
        BYTE   W24
        BYTE                   Bn3
        BYTE           N24     Bn2
        BYTE   W24
// 031   ----------------------------------------
        BYTE           N72     As2
        BYTE           N72     As3
        BYTE           N72     As1
        BYTE           N72     As0
        BYTE   W72
        BYTE                   Bn3
        BYTE           N72     Bn2
        BYTE           N72     Bn1
        BYTE           N72     Bn0
        BYTE   W24
// 032   ----------------------------------------
        BYTE   W48
        BYTE                   Cs4
        BYTE           N72     Cs3
        BYTE           N72     Cs2
        BYTE           N72     Cs1
        BYTE   W48
// 033   ----------------------------------------
The_Scions_Dance_in_Purgatory_0_33:
        BYTE   W24
        BYTE           N72     Ds4   v126
        BYTE           N72     Ds3
        BYTE           N72     Ds2
        BYTE           N72     Ds1
        BYTE   W72
        BYTE   PEND
// 034   ----------------------------------------
The_Scions_Dance_in_Purgatory_0_34:
        BYTE           N24     Gs2   v126
        BYTE           N24     Gs3
        BYTE           TIE     Gs1
        BYTE           TIE     Gs0
        BYTE   W24
        BYTE           N24     As3
        BYTE           N24     As2
        BYTE   W24
        BYTE                   Bn3
        BYTE           N24     Bn2
        BYTE   W24
        BYTE   PEND
// 035   ----------------------------------------
The_Scions_Dance_in_Purgatory_0_35:
        BYTE           N24     As2   v126
        BYTE           N24     As3
        BYTE   W24
        BYTE                   Gs2
        BYTE           N24     Gs3
        BYTE   W24
        BYTE                   Fs3
        BYTE           N24     Fs2
        BYTE   W24
        BYTE   PEND
// 036   ----------------------------------------
The_Scions_Dance_in_Purgatory_0_36:
        BYTE           N24     Fn2   v126
        BYTE           N24     Fn3
        BYTE   W24
        BYTE                   Fs2
        BYTE           N24     Fs3
        BYTE   W24
        BYTE                   Gs2
        BYTE           N24     Gs3
        BYTE   W24
        BYTE   PEND
// 037   ----------------------------------------
The_Scions_Dance_in_Purgatory_0_37:
        BYTE           N24     Fn3   v126
        BYTE           N24     Fn4
        BYTE   W24
        BYTE                   Cs3
        BYTE           N24     Cs4
        BYTE   W24
        BYTE                   As2
        BYTE           N24     As3
        BYTE   W24
        BYTE   PEND
// 038   ----------------------------------------
The_Scions_Dance_in_Purgatory_0_38:
        BYTE           EOT     Gs0
        BYTE                   Gs1
        BYTE           TIE     Ds3   v126
        BYTE           TIE     Ds4
        BYTE           N24     Gs2
        BYTE   W24
        BYTE                   As2
        BYTE   W24
        BYTE                   Bn2
        BYTE   W24
        BYTE   PEND
// 039   ----------------------------------------
The_Scions_Dance_in_Purgatory_0_39:
        BYTE           N24     As2   v126
        BYTE   W24
        BYTE                   Gs2
        BYTE   W24
        BYTE                   Fs2
        BYTE   W24
        BYTE   PEND
// 040   ----------------------------------------
The_Scions_Dance_in_Purgatory_0_40:
        BYTE           N24     Fn2   v126
        BYTE   W24
        BYTE                   Fs2
        BYTE   W24
        BYTE                   Gs2
        BYTE   W24
        BYTE   PEND
// 041   ----------------------------------------
The_Scions_Dance_in_Purgatory_0_41:
        BYTE           N24     Fn3   v126
        BYTE   W24
        BYTE                   Cs3
        BYTE   W24
        BYTE                   Gs2
        BYTE   W24
        BYTE   PEND
// 042   ----------------------------------------
The_Scions_Dance_in_Purgatory_0_42:
        BYTE           EOT     Ds4
        BYTE                   Ds3
        BYTE           N24     Gs3   v126
        BYTE           N24     Gs2
        BYTE           TIE     Ds2
        BYTE           TIE     Ds1
        BYTE   W24
        BYTE           N24     As3
        BYTE           N24     As2
        BYTE   W24
        BYTE                   Bn3
        BYTE           N24     Bn2
        BYTE   W24
        BYTE   PEND
// 043   ----------------------------------------
The_Scions_Dance_in_Purgatory_0_43:
        BYTE           N24     As2   v126
        BYTE           N24     As3
        BYTE   W24
        BYTE                   Gs2
        BYTE           N24     Gs3
        BYTE   W24
        BYTE                   Fs2
        BYTE           N24     Fs3
        BYTE   W24
        BYTE   PEND
// 044   ----------------------------------------
        BYTE   PATT
         POIN2  The_Scions_Dance_in_Purgatory_0_36
// 045   ----------------------------------------
The_Scions_Dance_in_Purgatory_0_45:
        BYTE           N24     Fn4   v126
        BYTE           N24     Fn3
        BYTE   W24
        BYTE                   Cs4
        BYTE           N24     Cs3
        BYTE   W24
        BYTE                   Gs3
        BYTE           N24     Gs2
        BYTE   W24
        BYTE   PEND
// 046   ----------------------------------------
The_Scions_Dance_in_Purgatory_0_46:
        BYTE           EOT     Ds1
        BYTE                   Ds2
        BYTE           N72     Ds4   v126
        BYTE           N72     Ds3
        BYTE           N24     Fn1
        BYTE           N24     Fn2
        BYTE   W24
        BYTE                   Bn2
        BYTE   W24
        BYTE                   Bn2
        BYTE   W24
        BYTE   PEND
// 047   ----------------------------------------
The_Scions_Dance_in_Purgatory_0_47:
        BYTE           N72     Cs3   v126
        BYTE           N72     Cs4
        BYTE           N24     Ds2
        BYTE           N24     Ds1
        BYTE   W24
        BYTE                   As2
        BYTE   W24
        BYTE                   As2
        BYTE   W24
        BYTE   PEND
// 048   ----------------------------------------
The_Scions_Dance_in_Purgatory_0_48:
        BYTE           N72     Bn2   v126
        BYTE           N72     Bn3
        BYTE           N24     Cs1
        BYTE           N24     Cs2
        BYTE   W24
        BYTE                   Gs2
        BYTE   W24
        BYTE                   Gs2
        BYTE   W24
        BYTE   PEND
// 049   ----------------------------------------
The_Scions_Dance_in_Purgatory_0_49:
        BYTE           N24     Cn3   v126
        BYTE           N24     Fs3
        BYTE           N24     Cn4
        BYTE           N72     Fn2
        BYTE           N72     Fn1
        BYTE   W24
        BYTE           N24     Fn4
        BYTE           N24     Cn4
        BYTE           N24     Fn3
        BYTE   W24
        BYTE           N96     Gs4
        BYTE           N96     Fn4
        BYTE           N96     Gs3
        BYTE   W24
        BYTE   PEND
// 050   ----------------------------------------
The_Scions_Dance_in_Purgatory_0_50:
        BYTE           N24     Gs2   v126
        BYTE           N24     Fn2
        BYTE   W24
        BYTE                   Fn2
        BYTE           N24     Cn2
        BYTE   W24
        BYTE                   Gs2
        BYTE           N24     Fn2
        BYTE   W24
        BYTE   PEND
// 051   ----------------------------------------
The_Scions_Dance_in_Purgatory_0_51:
        BYTE           N24     Cn4   v126
        BYTE           N24     Gs3
        BYTE   W24
        BYTE                   Gs3
        BYTE           N24     Fn3
        BYTE   W24
        BYTE                   Cn4
        BYTE           N24     Gs3
        BYTE   W24
        BYTE   PEND
// 052   ----------------------------------------
The_Scions_Dance_in_Purgatory_0_52:
        BYTE           N24     Fn4   v126
        BYTE           N24     Fn3
        BYTE   W24
        BYTE                   Bn3
        BYTE           N24     Bn2
        BYTE   W24
        BYTE                   Fn4
        BYTE           N24     Fn3
        BYTE   W24
        BYTE   PEND
// 053   ----------------------------------------
The_Scions_Dance_in_Purgatory_0_53:
        BYTE           N24     Gs4   v126
        BYTE           N24     Gs3
        BYTE           N24     Ds2
        BYTE   W24
        BYTE                   Gn4
        BYTE           N24     Gn3
        BYTE           N24     Ds2
        BYTE   W24
        BYTE                   As4
        BYTE           N24     As3
        BYTE           N24     Ds1
        BYTE   W24
        BYTE   PEND
// 054   ----------------------------------------
        BYTE   TEMPO   200/2
        BYTE           TIE     Bn3
        BYTE           TIE     Ds4
        BYTE           TIE     Gs4
        BYTE           TIE     Bn4
        BYTE           N24     Gs1
        BYTE   W24
        BYTE           N12     Gs2
        BYTE   W12
        BYTE                   Gs2
        BYTE   W12
        BYTE           N24     Ds3
        BYTE   W24
// 055   ----------------------------------------
The_Scions_Dance_in_Purgatory_0_55:
        BYTE           N24     Fs1   v126
        BYTE   W24
        BYTE           N12     Fs2
        BYTE   W12
        BYTE                   Fs2
        BYTE   W12
        BYTE           N24     Cs3
        BYTE   W24
        BYTE   PEND
// 056   ----------------------------------------
The_Scions_Dance_in_Purgatory_0_56:
        BYTE           N24     Fn1   v126
        BYTE   W24
        BYTE           N12     Fn2
        BYTE   W12
        BYTE                   Fn2
        BYTE   W12
        BYTE           N24     Bn2
        BYTE   W24
        BYTE   PEND
// 057   ----------------------------------------
The_Scions_Dance_in_Purgatory_0_57:
        BYTE           N24     Ds1   v126
        BYTE   W24
        BYTE           N12     Ds2
        BYTE   W12
        BYTE                   Ds2
        BYTE   W12
        BYTE           N24     As2
        BYTE   W24
        BYTE   PEND
// 058   ----------------------------------------
The_Scions_Dance_in_Purgatory_0_58:
        BYTE           EOT     Bn4
        BYTE                   Gs4
        BYTE                   Ds4
        BYTE                   Bn3
        BYTE           N08     Cs3   v126
        BYTE           N24     Dn1
        BYTE   W08
        BYTE           N08     En3
        BYTE   W08
        BYTE                   Fs3
        BYTE   W08
        BYTE                   Gs3
        BYTE           N12     Dn2
        BYTE   W08
        BYTE           N08     Bn3
        BYTE   W04
        BYTE           N12     Dn2
        BYTE   W04
        BYTE           N08     Cs4
        BYTE   W08
        BYTE                   Ds4
        BYTE           N24     Gs2
        BYTE   W08
        BYTE           N08     En4
        BYTE   W08
        BYTE                   Fs4
        BYTE   W08
        BYTE   PEND
// 059   ----------------------------------------
The_Scions_Dance_in_Purgatory_0_59:
        BYTE           N08     Gs4   v126
        BYTE           N24     Cs1
        BYTE   W08
        BYTE           N08     En4
        BYTE   W08
        BYTE                   Ds4
        BYTE   W08
        BYTE                   Cs4
        BYTE           N12     Cs2
        BYTE   W08
        BYTE           N08     As3
        BYTE   W04
        BYTE           N12     Cs2
        BYTE   W04
        BYTE           N08     Gs3
        BYTE   W08
        BYTE                   Fs3
        BYTE           N24     Gs2
        BYTE   W08
        BYTE           N08     En3
        BYTE   W08
        BYTE                   Ds3
        BYTE   W08
        BYTE   PEND
// 060   ----------------------------------------
The_Scions_Dance_in_Purgatory_0_60:
        BYTE           N08     An2   v126
        BYTE           N24     Cn2
        BYTE   W08
        BYTE           N08     Cn3
        BYTE   W08
        BYTE                   Cs3
        BYTE   W08
        BYTE                   Fs3
        BYTE           N12     Cn2
        BYTE   W08
        BYTE           N08     Gs3
        BYTE   W04
        BYTE           N12     Cn2
        BYTE   W04
        BYTE           N08     An3
        BYTE   W08
        BYTE                   Cn4
        BYTE           N24     Cn3
        BYTE   W08
        BYTE           N08     Ds4
        BYTE   W08
        BYTE                   En4
        BYTE   W08
        BYTE   PEND
// 061   ----------------------------------------
The_Scions_Dance_in_Purgatory_0_61:
        BYTE           N08     Fs4   v126
        BYTE           N24     Ds1
        BYTE   W08
        BYTE           N08     Gn4
        BYTE   W08
        BYTE                   Gs4
        BYTE   W08
        BYTE                   An4
        BYTE           N12     En2
        BYTE   W08
        BYTE           N08     As4
        BYTE   W04
        BYTE           N12     En2
        BYTE   W04
        BYTE           N08     Bn4
        BYTE   W08
        BYTE                   Gn4
        BYTE           N08     Bn4
        BYTE           N24     Bn2
        BYTE   W08
        BYTE           N08     Gn4
        BYTE           N08     Cs5
        BYTE   W08
        BYTE                   Gn4
        BYTE           N08     Dn5
        BYTE   W08
        BYTE   PEND
// 062   ----------------------------------------
        BYTE   TEMPO   120/2
        BYTE   GoTo
         POIN2  The_Scions_Dance_in_Purgatory_0_LOOP
        BYTE   W72
// 063   ----------------------------------------
        BYTE   W72
// 064   ----------------------------------------
        BYTE   W72
// 065   ----------------------------------------
        BYTE   W72
// 066   ----------------------------------------
        BYTE   W72
// 067   ----------------------------------------
        BYTE   W72
// 068   ----------------------------------------
        BYTE   W72
// 069   ----------------------------------------
        BYTE   W72
// 070   ----------------------------------------
        BYTE   W72
// 071   ----------------------------------------
        BYTE   W72
// 072   ----------------------------------------
        BYTE   W72
// 073   ----------------------------------------
        BYTE   W72
// 074   ----------------------------------------
        BYTE   W72
// 075   ----------------------------------------
        BYTE   W72
// 076   ----------------------------------------
        BYTE   W72
// 077   ----------------------------------------
        BYTE   W72
// 078   ----------------------------------------
        BYTE   W72
// 079   ----------------------------------------
        BYTE   W72
// 080   ----------------------------------------
        BYTE   W72
// 081   ----------------------------------------
        BYTE   W72
// 082   ----------------------------------------
        BYTE   TEMPO   136/2
        BYTE   W72
// 083   ----------------------------------------
        BYTE   W72
// 084   ----------------------------------------
        BYTE   W48
        BYTE   TEMPO   196/2
        BYTE   W24
// 085   ----------------------------------------
        BYTE   W72
// 086   ----------------------------------------
        BYTE   TEMPO   190/2
        BYTE   W72
// 087   ----------------------------------------
        BYTE   W72
// 088   ----------------------------------------
        BYTE   W72
// 089   ----------------------------------------
        BYTE   W72
// 090   ----------------------------------------
        BYTE   W72
// 091   ----------------------------------------
        BYTE   W72
// 092   ----------------------------------------
        BYTE   W72
// 093   ----------------------------------------
        BYTE   W72
// 094   ----------------------------------------
        BYTE   W72
// 095   ----------------------------------------
        BYTE   W72
// 096   ----------------------------------------
        BYTE   W72
// 097   ----------------------------------------
        BYTE   W72
// 098   ----------------------------------------
        BYTE   W72
// 099   ----------------------------------------
        BYTE   W72
// 100   ----------------------------------------
        BYTE   W72
// 101   ----------------------------------------
        BYTE   W72
// 102   ----------------------------------------
        BYTE   W72
// 103   ----------------------------------------
        BYTE   W72
// 104   ----------------------------------------
        BYTE   W72
// 105   ----------------------------------------
        BYTE   W72
// 106   ----------------------------------------
        BYTE   W72
// 107   ----------------------------------------
        BYTE   W72
// 108   ----------------------------------------
        BYTE   W72
// 109   ----------------------------------------
        BYTE   W72
// 110   ----------------------------------------
        BYTE   W72
// 111   ----------------------------------------
        BYTE   W72
// 112   ----------------------------------------
        BYTE   W72
// 113   ----------------------------------------
        BYTE   W72
// 114   ----------------------------------------
        BYTE   W72
// 115   ----------------------------------------
        BYTE   W72
// 116   ----------------------------------------
        BYTE   W72
// 117   ----------------------------------------
        BYTE   W72
// 118   ----------------------------------------
        BYTE   W72
// 119   ----------------------------------------
        BYTE   W48
        BYTE   TEMPO   200/2
        BYTE   W24
// 120   ----------------------------------------
        BYTE   W72
// 121   ----------------------------------------
        BYTE   W72
// 122   ----------------------------------------
        BYTE   W72
// 123   ----------------------------------------
        BYTE   W72
// 124   ----------------------------------------
        BYTE   W72
// 125   ----------------------------------------
        BYTE   W72
// 126   ----------------------------------------
        BYTE   W72
// 127   ----------------------------------------
        BYTE   W72
// 128   ----------------------------------------
        BYTE   W72
// 129   ----------------------------------------
        BYTE   W72
// 130   ----------------------------------------
        BYTE   W72
// 131   ----------------------------------------
        BYTE   W72
// 132   ----------------------------------------
        BYTE   W72
// 133   ----------------------------------------
        BYTE   W72
// 134   ----------------------------------------
        BYTE   W72
// 135   ----------------------------------------
        BYTE   W72
// 136   ----------------------------------------
        BYTE   W72
// 137   ----------------------------------------
        BYTE   W72
// 138   ----------------------------------------
        BYTE   W72
// 139   ----------------------------------------
        BYTE   W72
// 140   ----------------------------------------
        BYTE   W72
// 141   ----------------------------------------
        BYTE   W72
// 142   ----------------------------------------
        BYTE   W72
// 143   ----------------------------------------
        BYTE   W72
// 144   ----------------------------------------
        BYTE   W72
// 145   ----------------------------------------
        BYTE   W72
// 146   ----------------------------------------
        BYTE   W72
// 147   ----------------------------------------
        BYTE   W48
        BYTE   TEMPO   120/2
        BYTE   FINE

//****************** Track 1 (Midi-Chn.1) ******************//

The_Scions_Dance_in_Purgatory_1:
        BYTE   KEYSH   The_Scions_Dance_in_Purgatory_key+0
// 000   ----------------------------------------
        BYTE           VOICE   52
        BYTE           VOL     58
        BYTE           PAN     c_v+39
        BYTE   W96
// 001   ----------------------------------------
        BYTE   W96
// 002   ----------------------------------------
        BYTE   W96
// 003   ----------------------------------------
        BYTE   W96
// 004   ----------------------------------------
        BYTE   W96
// 005   ----------------------------------------
        BYTE   W96
// 006   ----------------------------------------
The_Scions_Dance_in_Purgatory_1_LOOP:
        BYTE   W96
// 007   ----------------------------------------
        BYTE   W96
// 008   ----------------------------------------
        BYTE   W96
// 009   ----------------------------------------
        BYTE   W96
// 010   ----------------------------------------
        BYTE   W72
        BYTE           N24     Ds4   v126
        BYTE           N24     Ds3
        BYTE   W24
// 011   ----------------------------------------
The_Scions_Dance_in_Purgatory_1_11:
        BYTE           N24     Gs3   v126
        BYTE           N24     Gs4
        BYTE   W24
        BYTE           N12     As3
        BYTE           N12     As4
        BYTE   W24
        BYTE           N24     Bn3
        BYTE           N24     Bn4
        BYTE   W24
        BYTE                   Cs4
        BYTE           N24     Cs5
        BYTE   W24
        BYTE   PEND
// 012   ----------------------------------------
        BYTE                   Ds4
        BYTE           N24     Ds5
        BYTE   W24
        BYTE                   Cs4
        BYTE           N24     Cs5
        BYTE   W24
        BYTE                   Gs3
        BYTE           N24     Gs4
        BYTE   W24
        BYTE           N72     Cs4
        BYTE           N72     Cs5
        BYTE   W24
// 013   ----------------------------------------
        BYTE   W48
        BYTE           N24     Cs4
        BYTE           N24     Cs5
        BYTE           N24     Cs3
        BYTE   W24
        BYTE                   Bn3
        BYTE           N24     Bn4
        BYTE   W16
        BYTE           N08     Cs3
        BYTE   W08
// 014   ----------------------------------------
        BYTE           N24     As3
        BYTE           N24     As4
        BYTE   W16
        BYTE           N08     Cs3
        BYTE   W08
        BYTE           N72     Bn4
        BYTE           N72     Bn3
        BYTE           N24     Bn2
        BYTE   W40
        BYTE           N08
        BYTE   W24
        BYTE                   Bn2
        BYTE   W08
// 015   ----------------------------------------
The_Scions_Dance_in_Purgatory_1_15:
        BYTE           N24     An4   v126
        BYTE           N24     Gs3
        BYTE           N24     Bn2
        BYTE   W24
        BYTE                   Fs4
        BYTE           N24     Fs3
        BYTE   W16
        BYTE           N08     Bn2
        BYTE   W08
        BYTE           N24     En4
        BYTE           N24     En3
        BYTE   W16
        BYTE           N08     Bn2
        BYTE   W08
        BYTE           N72     Ds4
        BYTE           N72     Ds3
        BYTE   W24
        BYTE   PEND
// 016   ----------------------------------------
        BYTE   W48
        BYTE           N24     Gs3
        BYTE   W24
        BYTE                   Ds3
        BYTE           N24     Ds4
        BYTE   W24
// 017   ----------------------------------------
        BYTE   PATT
         POIN2  The_Scions_Dance_in_Purgatory_1_11
// 018   ----------------------------------------
        BYTE           N24     Ds5   v126
        BYTE           N24     Ds4
        BYTE   W24
        BYTE                   Cs4
        BYTE           N24     Cs5
        BYTE   W24
        BYTE                   Gs3
        BYTE           N24     Gs4
        BYTE   W24
        BYTE           N72     As3
        BYTE           N72     Cs5
        BYTE   W24
// 019   ----------------------------------------
        BYTE   W48
        BYTE           N24
        BYTE           N24     Cs4
        BYTE           N24     Cs3
        BYTE   W24
        BYTE                   Bn3
        BYTE           N24     Bn4
        BYTE   W16
        BYTE           N08     Cs3
        BYTE   W08
// 020   ----------------------------------------
        BYTE           N24     Fs3
        BYTE           N24     Fs4
        BYTE   W16
        BYTE           N08     Cs3
        BYTE   W08
        BYTE           N72     Gs4
        BYTE           N72     Gs3
        BYTE           N24     Bn2
        BYTE   W40
        BYTE           N08
        BYTE   W24
        BYTE                   Bn2
        BYTE   W08
// 021   ----------------------------------------
        BYTE   PATT
         POIN2  The_Scions_Dance_in_Purgatory_1_15
// 022   ----------------------------------------
        BYTE   W48
        BYTE           N72     Fn3   v126
        BYTE           N72     Bn3
        BYTE           N72     Fn4
        BYTE   W48
// 023   ----------------------------------------
        BYTE   W24
        BYTE           N24     Bn2
        BYTE   W24
        BYTE           N12     Fn3
        BYTE   W12
        BYTE                   Gs3
        BYTE   W12
        BYTE                   Bn3
        BYTE   W12
        BYTE                   Cs4
        BYTE   W12
// 024   ----------------------------------------
        BYTE           N36     Ds4
        BYTE           N36     As3
        BYTE           N36     Gs3
        BYTE           N36     Ds3
        BYTE   W36
        BYTE           N24     Cs4
        BYTE           N24     Gs3
        BYTE           N24     Cs3
        BYTE   W24
        BYTE           N12     Gs3
        BYTE   W12
        BYTE           N24     Cs4
        BYTE           N24     Fs3
        BYTE           N24     Cs3
        BYTE   W24
// 025   ----------------------------------------
        BYTE                   Bn2
        BYTE   W48
        BYTE           N36     Cs4
        BYTE           N36     Fs4
        BYTE           N36     Cs5
        BYTE   W36
        BYTE           N24     Bn4
        BYTE           N24     Fs4
        BYTE           N24     Cs4
        BYTE   W12
// 026   ----------------------------------------
        BYTE   W12
        BYTE           N12     Fs4
        BYTE   W12
        BYTE           N36     En4
        BYTE           N36     Bn3
        BYTE           N36     Bn4
        BYTE   W36
        BYTE                   Fs4
        BYTE           N36     Bn4
        BYTE           N36     Fs5
        BYTE   W36
// 027   ----------------------------------------
        BYTE           N96     Fs4
        BYTE           N96     Bn4
        BYTE           N96     Fs5
        BYTE   W96
// 028   ----------------------------------------
        BYTE   W24
        BYTE           N36     En4
        BYTE           N36     En3
        BYTE   W36
        BYTE           N24     Cs4
        BYTE           N24     Cs3
        BYTE   W24
        BYTE           N12     Gs3
        BYTE   W12
// 029   ----------------------------------------
        BYTE           N36     Cs4
        BYTE           N36     Cs3
        BYTE   W36
        BYTE                   Fs3
        BYTE           N36     Bn3
        BYTE           N36     Fs4
        BYTE   W36
        BYTE           N24     Fs3
        BYTE           N24     Fs4
        BYTE   W24
// 030   ----------------------------------------
        BYTE                   En4
        BYTE           N24     En3
        BYTE   W24
        BYTE                   Ds4
        BYTE           N24     Ds3
        BYTE   W24
        BYTE                   Cs4
        BYTE           N24     Cs3
        BYTE   W24
        BYTE                   Bn3
        BYTE           N24     Bn2
        BYTE   W24
// 031   ----------------------------------------
        BYTE           N72     As3
        BYTE   W72
        BYTE                   Bn3
        BYTE           N72     Bn2
        BYTE   W24
// 032   ----------------------------------------
        BYTE   W48
        BYTE                   Cs4
        BYTE           N72     Cs3
        BYTE   W48
// 033   ----------------------------------------
        BYTE   W24
        BYTE                   Ds4
        BYTE           N72     Ds3
        BYTE   W72
// 034   ----------------------------------------
        BYTE           N24     Gs3
        BYTE   W24
        BYTE                   As3
        BYTE   W24
        BYTE                   Bn3
        BYTE           N24     Bn2
        BYTE   W24
// 035   ----------------------------------------
The_Scions_Dance_in_Purgatory_1_35:
        BYTE           N24     As3   v126
        BYTE   W24
        BYTE                   Gs3
        BYTE   W24
        BYTE                   Fs3
        BYTE   W24
        BYTE   PEND
// 036   ----------------------------------------
The_Scions_Dance_in_Purgatory_1_36:
        BYTE           N24     Fn3   v126
        BYTE   W24
        BYTE                   Fs3
        BYTE   W24
        BYTE                   Gs3
        BYTE   W24
        BYTE   PEND
// 037   ----------------------------------------
        BYTE                   Fn3
        BYTE           N24     Fn4
        BYTE   W24
        BYTE                   Cs3
        BYTE           N24     Cs4
        BYTE   W24
        BYTE                   As3
        BYTE   W24
// 038   ----------------------------------------
        BYTE           TIE     Ds3
        BYTE           TIE     Ds4
        BYTE   W48
        BYTE           N24     Bn2
        BYTE   W24
// 039   ----------------------------------------
        BYTE   W72
// 040   ----------------------------------------
        BYTE   W72
// 041   ----------------------------------------
        BYTE                   Fn3
        BYTE   W24
        BYTE                   Cs3
        BYTE   W48
// 042   ----------------------------------------
        BYTE           EOT     Ds4
        BYTE                   Ds3
        BYTE           N24     Gs3
        BYTE   W24
        BYTE                   As3
        BYTE   W24
        BYTE                   Bn3
        BYTE           N24     Bn2
        BYTE   W24
// 043   ----------------------------------------
        BYTE   PATT
         POIN2  The_Scions_Dance_in_Purgatory_1_35
// 044   ----------------------------------------
        BYTE   PATT
         POIN2  The_Scions_Dance_in_Purgatory_1_36
// 045   ----------------------------------------
        BYTE           N24     Fn4   v126
        BYTE           N24     Fn3
        BYTE   W24
        BYTE                   Cs4
        BYTE           N24     Cs3
        BYTE   W24
        BYTE                   Gs3
        BYTE   W24
// 046   ----------------------------------------
        BYTE           N72     Ds4
        BYTE           N72     Ds3
        BYTE   W24
        BYTE           N24     Bn2
        BYTE   W24
        BYTE                   Bn2
        BYTE   W24
// 047   ----------------------------------------
        BYTE           N72     Cs3
        BYTE           N72     Cs4
        BYTE   W72
// 048   ----------------------------------------
        BYTE                   Bn2
        BYTE           N72     Bn3
        BYTE   W72
// 049   ----------------------------------------
        BYTE           N24     Cn3
        BYTE           N24     Fs3
        BYTE           N24     Cn4
        BYTE   W24
        BYTE                   Fn4
        BYTE           N24     Cn4
        BYTE           N24     Fn3
        BYTE   W24
        BYTE           N96     Gs4
        BYTE           N96     Fn4
        BYTE           N96     Gs3
        BYTE   W24
// 050   ----------------------------------------
        BYTE   W72
// 051   ----------------------------------------
        BYTE   PATT
         POIN2  The_Scions_Dance_in_Purgatory_0_51
// 052   ----------------------------------------
        BYTE   PATT
         POIN2  The_Scions_Dance_in_Purgatory_0_52
// 053   ----------------------------------------
        BYTE           N24     Gs4   v126
        BYTE           N24     Gs3
        BYTE   W24
        BYTE                   Gn4
        BYTE           N24     Gn3
        BYTE   W24
        BYTE                   As4
        BYTE           N24     As3
        BYTE   W24
// 054   ----------------------------------------
        BYTE           TIE     Bn3
        BYTE           TIE     Ds4
        BYTE           TIE     Gs4
        BYTE           TIE     Bn4
        BYTE   W48
        BYTE           N24     Ds3
        BYTE   W24
// 055   ----------------------------------------
        BYTE   W48
        BYTE                   Cs3
        BYTE   W24
// 056   ----------------------------------------
        BYTE   W48
        BYTE                   Bn2
        BYTE   W24
// 057   ----------------------------------------
        BYTE   W72
// 058   ----------------------------------------
        BYTE           EOT     Bn4
        BYTE                   Gs4
        BYTE                   Ds4
        BYTE                   Bn3
        BYTE   W72
// 059   ----------------------------------------
        BYTE   W72
// 060   ----------------------------------------
        BYTE   W72
// 061   ----------------------------------------
        BYTE   W72
// 062   ----------------------------------------
        BYTE   GoTo
         POIN2  The_Scions_Dance_in_Purgatory_1_LOOP
        BYTE   W72
// 063   ----------------------------------------
        BYTE   W72
// 064   ----------------------------------------
        BYTE   W72
// 065   ----------------------------------------
        BYTE   W72
// 066   ----------------------------------------
        BYTE   W72
// 067   ----------------------------------------
        BYTE   W72
// 068   ----------------------------------------
        BYTE   W72
// 069   ----------------------------------------
        BYTE   W72
// 070   ----------------------------------------
        BYTE   W72
// 071   ----------------------------------------
        BYTE   W72
// 072   ----------------------------------------
        BYTE   W72
// 073   ----------------------------------------
        BYTE   W72
// 074   ----------------------------------------
        BYTE   W72
// 075   ----------------------------------------
        BYTE   W72
// 076   ----------------------------------------
        BYTE   W72
// 077   ----------------------------------------
        BYTE   W72
// 078   ----------------------------------------
        BYTE   W72
// 079   ----------------------------------------
        BYTE   W72
// 080   ----------------------------------------
        BYTE   W72
// 081   ----------------------------------------
        BYTE   W72
// 082   ----------------------------------------
        BYTE   W72
// 083   ----------------------------------------
        BYTE   W72
// 084   ----------------------------------------
        BYTE   W72
// 085   ----------------------------------------
        BYTE   W72
// 086   ----------------------------------------
        BYTE   W72
// 087   ----------------------------------------
        BYTE   W72
// 088   ----------------------------------------
        BYTE   W72
// 089   ----------------------------------------
        BYTE   W72
// 090   ----------------------------------------
        BYTE   W72
// 091   ----------------------------------------
        BYTE   W72
// 092   ----------------------------------------
        BYTE   W72
// 093   ----------------------------------------
        BYTE   W72
// 094   ----------------------------------------
        BYTE   W72
// 095   ----------------------------------------
        BYTE   W72
// 096   ----------------------------------------
        BYTE   W72
// 097   ----------------------------------------
        BYTE   W72
// 098   ----------------------------------------
        BYTE   W72
// 099   ----------------------------------------
        BYTE   W72
// 100   ----------------------------------------
        BYTE   W72
// 101   ----------------------------------------
        BYTE   W72
// 102   ----------------------------------------
        BYTE   W72
// 103   ----------------------------------------
        BYTE   W72
// 104   ----------------------------------------
        BYTE   W72
// 105   ----------------------------------------
        BYTE   W72
// 106   ----------------------------------------
        BYTE   W72
// 107   ----------------------------------------
        BYTE   W72
// 108   ----------------------------------------
        BYTE   W72
// 109   ----------------------------------------
        BYTE   W72
// 110   ----------------------------------------
        BYTE   W72
// 111   ----------------------------------------
        BYTE   W72
// 112   ----------------------------------------
        BYTE   W72
// 113   ----------------------------------------
        BYTE   W72
// 114   ----------------------------------------
        BYTE   W72
// 115   ----------------------------------------
        BYTE   W72
// 116   ----------------------------------------
        BYTE   W72
// 117   ----------------------------------------
        BYTE   W72
// 118   ----------------------------------------
        BYTE   W72
// 119   ----------------------------------------
        BYTE   W72
// 120   ----------------------------------------
        BYTE   W72
// 121   ----------------------------------------
        BYTE   W72
// 122   ----------------------------------------
        BYTE   W72
// 123   ----------------------------------------
        BYTE   W72
// 124   ----------------------------------------
        BYTE   W72
// 125   ----------------------------------------
        BYTE   W72
// 126   ----------------------------------------
        BYTE   W72
// 127   ----------------------------------------
        BYTE   W72
// 128   ----------------------------------------
        BYTE   W72
// 129   ----------------------------------------
        BYTE   W72
// 130   ----------------------------------------
        BYTE   W72
// 131   ----------------------------------------
        BYTE   W72
// 132   ----------------------------------------
        BYTE   W72
// 133   ----------------------------------------
        BYTE   W72
// 134   ----------------------------------------
        BYTE   W72
// 135   ----------------------------------------
        BYTE   W72
// 136   ----------------------------------------
        BYTE   W72
// 137   ----------------------------------------
        BYTE   W72
// 138   ----------------------------------------
        BYTE   W72
// 139   ----------------------------------------
        BYTE   W72
// 140   ----------------------------------------
        BYTE   W72
// 141   ----------------------------------------
        BYTE   W72
// 142   ----------------------------------------
        BYTE   W72
// 143   ----------------------------------------
        BYTE   W72
// 144   ----------------------------------------
        BYTE   W72
// 145   ----------------------------------------
        BYTE   W72
// 146   ----------------------------------------
        BYTE   W72
// 147   ----------------------------------------
        BYTE   W48
        BYTE   FINE

//****************** Track 2 (Midi-Chn.3) ******************//

The_Scions_Dance_in_Purgatory_2:
        BYTE   KEYSH   The_Scions_Dance_in_Purgatory_key+0
// 000   ----------------------------------------
        BYTE           VOICE   14
        BYTE           VOL     26
        BYTE           PAN     c_v+21
        BYTE           N12     Gs3   v126
        BYTE           N12     Ds4
        BYTE           N12     Gs4
        BYTE   W12
        BYTE           N03     Ds4
        BYTE   W03
        BYTE                   Dn4
        BYTE   W03
        BYTE                   Ds4
        BYTE   W03
        BYTE           N15     Dn4
        BYTE   W15
        BYTE           N12     Ds4
        BYTE   W12
        BYTE                   En4
        BYTE   W12
        BYTE                   Ds4
        BYTE   W12
        BYTE                   Cs4
        BYTE           N12     Cs3
        BYTE   W12
        BYTE                   Bn3
        BYTE   W12
// 001   ----------------------------------------
        BYTE   PATT
         POIN2  The_Scions_Dance_in_Purgatory_0_1
// 002   ----------------------------------------
        BYTE   PATT
         POIN2  The_Scions_Dance_in_Purgatory_0_2
// 003   ----------------------------------------
        BYTE   PATT
         POIN2  The_Scions_Dance_in_Purgatory_0_3
// 004   ----------------------------------------
        BYTE   PATT
         POIN2  The_Scions_Dance_in_Purgatory_0_4
// 005   ----------------------------------------
        BYTE   PATT
         POIN2  The_Scions_Dance_in_Purgatory_0_5
// 006   ----------------------------------------
The_Scions_Dance_in_Purgatory_2_LOOP:
        BYTE           N12     Fs2   v126
        BYTE           N12     Ds2
        BYTE           N24     Ds1
        BYTE           N24     Ds0
        BYTE   W24
        BYTE           N12     Ds3
        BYTE           N12     Fs2
        BYTE           N12     Ds2
        BYTE           N12     Ds1
        BYTE           N12     Ds0
        BYTE   W18
        BYTE           N06     En2
        BYTE           N06     Ds3
        BYTE           N06     An0
        BYTE           N06     Cs0
        BYTE   W06
        BYTE           N12     Ds1
        BYTE           N12     Ds0
        BYTE   W06
        BYTE           N06     En2
        BYTE           N06     An2
        BYTE           N06     Ds3
        BYTE   W30
        BYTE                   En2
        BYTE           N06     Fs2
        BYTE           N06     Ds3
        BYTE           N24     Ds1
        BYTE           N24     Ds0
        BYTE   W06
        BYTE           N06     En2
        BYTE           N06     Fs2
        BYTE           N06     Ds3
        BYTE   W06
// 007   ----------------------------------------
        BYTE   PATT
         POIN2  The_Scions_Dance_in_Purgatory_0_7
// 008   ----------------------------------------
        BYTE   PATT
         POIN2  The_Scions_Dance_in_Purgatory_0_8
// 009   ----------------------------------------
        BYTE   PATT
         POIN2  The_Scions_Dance_in_Purgatory_0_9
// 010   ----------------------------------------
The_Scions_Dance_in_Purgatory_2_10:
        BYTE           N12     As4   v126
        BYTE   W12
        BYTE                   Bn3
        BYTE           N12     Bn4
        BYTE           N24     Bn2
        BYTE           N24     Fs2
        BYTE           N24     Bn1
        BYTE   W12
        BYTE           N12     Cs5
        BYTE           N12     Cs4
        BYTE   W12
        BYTE                   Gn4
        BYTE           N12     Gn3
        BYTE   W12
        BYTE           N24     Gs2
        BYTE           N24     Gs1
        BYTE           N24     Gn3
        BYTE   W48
        BYTE   PEND
// 011   ----------------------------------------
        BYTE   W96
// 012   ----------------------------------------
        BYTE   W96
// 013   ----------------------------------------
        BYTE   W96
// 014   ----------------------------------------
        BYTE   W96
// 015   ----------------------------------------
        BYTE   W96
// 016   ----------------------------------------
        BYTE   W96
// 017   ----------------------------------------
        BYTE   W96
// 018   ----------------------------------------
        BYTE   W96
// 019   ----------------------------------------
        BYTE   W96
// 020   ----------------------------------------
        BYTE   W96
// 021   ----------------------------------------
        BYTE   W96
// 022   ----------------------------------------
        BYTE   W96
// 023   ----------------------------------------
        BYTE   W96
// 024   ----------------------------------------
        BYTE   W96
// 025   ----------------------------------------
        BYTE   W96
// 026   ----------------------------------------
        BYTE   W96
// 027   ----------------------------------------
        BYTE   W96
// 028   ----------------------------------------
        BYTE   W96
// 029   ----------------------------------------
        BYTE   W96
// 030   ----------------------------------------
        BYTE   W96
// 031   ----------------------------------------
        BYTE   W96
// 032   ----------------------------------------
        BYTE   W96
// 033   ----------------------------------------
        BYTE   W96
// 034   ----------------------------------------
        BYTE   W72
// 035   ----------------------------------------
        BYTE   W72
// 036   ----------------------------------------
        BYTE   W72
// 037   ----------------------------------------
        BYTE   W72
// 038   ----------------------------------------
        BYTE   W72
// 039   ----------------------------------------
        BYTE   W72
// 040   ----------------------------------------
        BYTE   W72
// 041   ----------------------------------------
        BYTE   W72
// 042   ----------------------------------------
        BYTE   W72
// 043   ----------------------------------------
        BYTE   W72
// 044   ----------------------------------------
        BYTE   W72
// 045   ----------------------------------------
        BYTE   W72
// 046   ----------------------------------------
        BYTE   W72
// 047   ----------------------------------------
        BYTE   W72
// 048   ----------------------------------------
        BYTE   W72
// 049   ----------------------------------------
        BYTE   W72
// 050   ----------------------------------------
        BYTE   W72
// 051   ----------------------------------------
        BYTE   W72
// 052   ----------------------------------------
        BYTE   W72
// 053   ----------------------------------------
        BYTE   W72
// 054   ----------------------------------------
        BYTE   W72
// 055   ----------------------------------------
        BYTE   W72
// 056   ----------------------------------------
        BYTE   W72
// 057   ----------------------------------------
        BYTE   W72
// 058   ----------------------------------------
        BYTE   W72
// 059   ----------------------------------------
        BYTE   W72
// 060   ----------------------------------------
        BYTE   W72
// 061   ----------------------------------------
        BYTE   W72
// 062   ----------------------------------------
        BYTE   GoTo
         POIN2  The_Scions_Dance_in_Purgatory_2_LOOP
        BYTE   W72
// 063   ----------------------------------------
        BYTE   W72
// 064   ----------------------------------------
        BYTE   W72
// 065   ----------------------------------------
        BYTE   W72
// 066   ----------------------------------------
        BYTE   W72
// 067   ----------------------------------------
        BYTE   W72
// 068   ----------------------------------------
        BYTE   W72
// 069   ----------------------------------------
        BYTE   W72
// 070   ----------------------------------------
        BYTE   W72
// 071   ----------------------------------------
        BYTE   W72
// 072   ----------------------------------------
        BYTE   W72
// 073   ----------------------------------------
        BYTE   W72
// 074   ----------------------------------------
        BYTE   W72
// 075   ----------------------------------------
        BYTE   W72
// 076   ----------------------------------------
        BYTE   W72
// 077   ----------------------------------------
        BYTE   W72
// 078   ----------------------------------------
        BYTE   W72
// 079   ----------------------------------------
        BYTE   W72
// 080   ----------------------------------------
        BYTE   W72
// 081   ----------------------------------------
        BYTE   W72
// 082   ----------------------------------------
        BYTE   W72
// 083   ----------------------------------------
        BYTE   W72
// 084   ----------------------------------------
        BYTE   W72
// 085   ----------------------------------------
        BYTE   W72
// 086   ----------------------------------------
        BYTE   W72
// 087   ----------------------------------------
        BYTE   W72
// 088   ----------------------------------------
        BYTE   W72
// 089   ----------------------------------------
        BYTE   W72
// 090   ----------------------------------------
        BYTE   W72
// 091   ----------------------------------------
        BYTE   W72
// 092   ----------------------------------------
        BYTE   W72
// 093   ----------------------------------------
        BYTE   W72
// 094   ----------------------------------------
        BYTE   W72
// 095   ----------------------------------------
        BYTE   W72
// 096   ----------------------------------------
        BYTE   W72
// 097   ----------------------------------------
        BYTE   W72
// 098   ----------------------------------------
        BYTE   W72
// 099   ----------------------------------------
        BYTE   W72
// 100   ----------------------------------------
        BYTE   W72
// 101   ----------------------------------------
        BYTE   W72
// 102   ----------------------------------------
        BYTE   W72
// 103   ----------------------------------------
        BYTE   W72
// 104   ----------------------------------------
        BYTE   W72
// 105   ----------------------------------------
        BYTE   W72
// 106   ----------------------------------------
        BYTE   W72
// 107   ----------------------------------------
        BYTE   W72
// 108   ----------------------------------------
        BYTE   W72
// 109   ----------------------------------------
        BYTE   W72
// 110   ----------------------------------------
        BYTE   W72
// 111   ----------------------------------------
        BYTE   W72
// 112   ----------------------------------------
        BYTE   W72
// 113   ----------------------------------------
        BYTE   W72
// 114   ----------------------------------------
        BYTE   W72
// 115   ----------------------------------------
        BYTE   W72
// 116   ----------------------------------------
        BYTE   W72
// 117   ----------------------------------------
        BYTE   W72
// 118   ----------------------------------------
        BYTE   W72
// 119   ----------------------------------------
        BYTE   W72
// 120   ----------------------------------------
        BYTE   W72
// 121   ----------------------------------------
        BYTE   W72
// 122   ----------------------------------------
        BYTE   W72
// 123   ----------------------------------------
        BYTE   W72
// 124   ----------------------------------------
        BYTE   W72
// 125   ----------------------------------------
        BYTE   W72
// 126   ----------------------------------------
        BYTE   W72
// 127   ----------------------------------------
        BYTE   W72
// 128   ----------------------------------------
        BYTE   W72
// 129   ----------------------------------------
        BYTE   W72
// 130   ----------------------------------------
        BYTE   W72
// 131   ----------------------------------------
        BYTE   W72
// 132   ----------------------------------------
        BYTE   W72
// 133   ----------------------------------------
        BYTE   W72
// 134   ----------------------------------------
        BYTE   W72
// 135   ----------------------------------------
        BYTE   W72
// 136   ----------------------------------------
        BYTE   W72
// 137   ----------------------------------------
        BYTE   W72
// 138   ----------------------------------------
        BYTE   W72
// 139   ----------------------------------------
        BYTE   W72
// 140   ----------------------------------------
        BYTE   W72
// 141   ----------------------------------------
        BYTE   W72
// 142   ----------------------------------------
        BYTE   W72
// 143   ----------------------------------------
        BYTE   W72
// 144   ----------------------------------------
        BYTE   W72
// 145   ----------------------------------------
        BYTE   W72
// 146   ----------------------------------------
        BYTE   W72
// 147   ----------------------------------------
        BYTE   W48
        BYTE   FINE

//****************** Track 3 (Midi-Chn.4) ******************//

The_Scions_Dance_in_Purgatory_3:
        BYTE   KEYSH   The_Scions_Dance_in_Purgatory_key+0
// 000   ----------------------------------------
        BYTE           VOICE   19
        BYTE           VOL     58
        BYTE           PAN     c_v+20
        BYTE           N12     Gs3   v126
        BYTE           N12     Ds4
        BYTE           N12     Gs4
        BYTE   W12
        BYTE           N03     Ds4
        BYTE   W03
        BYTE                   Dn4
        BYTE   W03
        BYTE                   Ds4
        BYTE   W03
        BYTE           N15     Dn4
        BYTE   W15
        BYTE           N12     Ds4
        BYTE   W12
        BYTE                   En4
        BYTE   W12
        BYTE                   Ds4
        BYTE   W12
        BYTE                   Cs4
        BYTE           N12     Cs3
        BYTE   W12
        BYTE                   Bn3
        BYTE   W12
// 001   ----------------------------------------
        BYTE   PATT
         POIN2  The_Scions_Dance_in_Purgatory_0_1
// 002   ----------------------------------------
        BYTE   PATT
         POIN2  The_Scions_Dance_in_Purgatory_0_2
// 003   ----------------------------------------
        BYTE   PATT
         POIN2  The_Scions_Dance_in_Purgatory_0_3
// 004   ----------------------------------------
        BYTE   PATT
         POIN2  The_Scions_Dance_in_Purgatory_0_4
// 005   ----------------------------------------
        BYTE   PATT
         POIN2  The_Scions_Dance_in_Purgatory_0_5
// 006   ----------------------------------------
The_Scions_Dance_in_Purgatory_3_LOOP:
        BYTE   W96
// 007   ----------------------------------------
        BYTE   W96
// 008   ----------------------------------------
        BYTE   W96
// 009   ----------------------------------------
        BYTE   W96
// 010   ----------------------------------------
        BYTE   W96
// 011   ----------------------------------------
        BYTE   W96
// 012   ----------------------------------------
        BYTE   W96
// 013   ----------------------------------------
        BYTE   W96
// 014   ----------------------------------------
        BYTE   W96
// 015   ----------------------------------------
        BYTE   W96
// 016   ----------------------------------------
        BYTE   W96
// 017   ----------------------------------------
        BYTE   W96
// 018   ----------------------------------------
        BYTE   W96
// 019   ----------------------------------------
        BYTE   W96
// 020   ----------------------------------------
        BYTE   W96
// 021   ----------------------------------------
        BYTE   W96
// 022   ----------------------------------------
        BYTE   W96
// 023   ----------------------------------------
        BYTE   W96
// 024   ----------------------------------------
        BYTE   W96
// 025   ----------------------------------------
        BYTE   W96
// 026   ----------------------------------------
        BYTE   W96
// 027   ----------------------------------------
        BYTE   W96
// 028   ----------------------------------------
        BYTE   W96
// 029   ----------------------------------------
        BYTE   W96
// 030   ----------------------------------------
        BYTE   W96
// 031   ----------------------------------------
        BYTE   W96
// 032   ----------------------------------------
        BYTE   W96
// 033   ----------------------------------------
        BYTE   W96
// 034   ----------------------------------------
        BYTE   W72
// 035   ----------------------------------------
        BYTE   W72
// 036   ----------------------------------------
        BYTE   W72
// 037   ----------------------------------------
        BYTE   W72
// 038   ----------------------------------------
        BYTE   W72
// 039   ----------------------------------------
        BYTE   W72
// 040   ----------------------------------------
        BYTE   W72
// 041   ----------------------------------------
        BYTE   W72
// 042   ----------------------------------------
        BYTE   W72
// 043   ----------------------------------------
        BYTE   W72
// 044   ----------------------------------------
        BYTE   W72
// 045   ----------------------------------------
        BYTE   W72
// 046   ----------------------------------------
        BYTE   W72
// 047   ----------------------------------------
        BYTE   W72
// 048   ----------------------------------------
        BYTE   W72
// 049   ----------------------------------------
        BYTE   W72
// 050   ----------------------------------------
        BYTE   W72
// 051   ----------------------------------------
        BYTE   W72
// 052   ----------------------------------------
        BYTE   W72
// 053   ----------------------------------------
        BYTE   W72
// 054   ----------------------------------------
        BYTE   W72
// 055   ----------------------------------------
        BYTE   W72
// 056   ----------------------------------------
        BYTE   W72
// 057   ----------------------------------------
        BYTE   W72
// 058   ----------------------------------------
The_Scions_Dance_in_Purgatory_3_58:
        BYTE   W08
        BYTE           N08     En3   v126
        BYTE   W08
        BYTE                   Fs3
        BYTE   W08
        BYTE                   Gs3
        BYTE           N12     Dn2
        BYTE   W08
        BYTE           N08     Bn3
        BYTE   W04
        BYTE           N12     Dn2
        BYTE   W04
        BYTE           N08     Cs4
        BYTE   W08
        BYTE                   Ds4
        BYTE           N24     Gs2
        BYTE   W08
        BYTE           N08     En4
        BYTE   W08
        BYTE                   Fs4
        BYTE   W08
        BYTE   PEND
// 059   ----------------------------------------
        BYTE   PATT
         POIN2  The_Scions_Dance_in_Purgatory_0_59
// 060   ----------------------------------------
        BYTE   PATT
         POIN2  The_Scions_Dance_in_Purgatory_0_60
// 061   ----------------------------------------
        BYTE   PATT
         POIN2  The_Scions_Dance_in_Purgatory_0_61
// 062   ----------------------------------------
        BYTE   GoTo
         POIN2  The_Scions_Dance_in_Purgatory_3_LOOP
        BYTE   W72
// 063   ----------------------------------------
        BYTE   W72
// 064   ----------------------------------------
        BYTE   W72
// 065   ----------------------------------------
        BYTE   W72
// 066   ----------------------------------------
        BYTE   W72
// 067   ----------------------------------------
        BYTE   W72
// 068   ----------------------------------------
        BYTE   W72
// 069   ----------------------------------------
        BYTE   W72
// 070   ----------------------------------------
        BYTE   W72
// 071   ----------------------------------------
        BYTE   W72
// 072   ----------------------------------------
        BYTE   W72
// 073   ----------------------------------------
        BYTE   W72
// 074   ----------------------------------------
        BYTE   W72
// 075   ----------------------------------------
        BYTE   W72
// 076   ----------------------------------------
        BYTE   W72
// 077   ----------------------------------------
        BYTE   W72
// 078   ----------------------------------------
        BYTE   W72
// 079   ----------------------------------------
        BYTE   W72
// 080   ----------------------------------------
        BYTE   W72
// 081   ----------------------------------------
        BYTE   W72
// 082   ----------------------------------------
        BYTE   W72
// 083   ----------------------------------------
        BYTE   W72
// 084   ----------------------------------------
        BYTE   W72
// 085   ----------------------------------------
        BYTE   W72
// 086   ----------------------------------------
        BYTE   W72
// 087   ----------------------------------------
        BYTE   W72
// 088   ----------------------------------------
        BYTE   W72
// 089   ----------------------------------------
        BYTE   W72
// 090   ----------------------------------------
        BYTE   W72
// 091   ----------------------------------------
        BYTE   W72
// 092   ----------------------------------------
        BYTE   W72
// 093   ----------------------------------------
        BYTE   W72
// 094   ----------------------------------------
        BYTE   W72
// 095   ----------------------------------------
        BYTE   W72
// 096   ----------------------------------------
        BYTE   W72
// 097   ----------------------------------------
        BYTE   W72
// 098   ----------------------------------------
        BYTE   W72
// 099   ----------------------------------------
        BYTE   W72
// 100   ----------------------------------------
        BYTE   W72
// 101   ----------------------------------------
        BYTE   W72
// 102   ----------------------------------------
        BYTE   W72
// 103   ----------------------------------------
        BYTE   W72
// 104   ----------------------------------------
        BYTE   W72
// 105   ----------------------------------------
        BYTE   W72
// 106   ----------------------------------------
        BYTE   W72
// 107   ----------------------------------------
        BYTE   W72
// 108   ----------------------------------------
        BYTE   W72
// 109   ----------------------------------------
        BYTE   W72
// 110   ----------------------------------------
        BYTE   W72
// 111   ----------------------------------------
        BYTE   W72
// 112   ----------------------------------------
        BYTE   W72
// 113   ----------------------------------------
        BYTE   W72
// 114   ----------------------------------------
        BYTE   W72
// 115   ----------------------------------------
        BYTE   W72
// 116   ----------------------------------------
        BYTE   W72
// 117   ----------------------------------------
        BYTE   W72
// 118   ----------------------------------------
        BYTE   W72
// 119   ----------------------------------------
        BYTE   W72
// 120   ----------------------------------------
        BYTE   W72
// 121   ----------------------------------------
        BYTE   W72
// 122   ----------------------------------------
        BYTE   W72
// 123   ----------------------------------------
        BYTE   W72
// 124   ----------------------------------------
        BYTE   W72
// 125   ----------------------------------------
        BYTE   W72
// 126   ----------------------------------------
        BYTE   W72
// 127   ----------------------------------------
        BYTE   W72
// 128   ----------------------------------------
        BYTE   W72
// 129   ----------------------------------------
        BYTE   W72
// 130   ----------------------------------------
        BYTE   W72
// 131   ----------------------------------------
        BYTE   W72
// 132   ----------------------------------------
        BYTE   W72
// 133   ----------------------------------------
        BYTE   W72
// 134   ----------------------------------------
        BYTE   W72
// 135   ----------------------------------------
        BYTE   W72
// 136   ----------------------------------------
        BYTE   W72
// 137   ----------------------------------------
        BYTE   W72
// 138   ----------------------------------------
        BYTE   W72
// 139   ----------------------------------------
        BYTE   W72
// 140   ----------------------------------------
        BYTE   W72
// 141   ----------------------------------------
        BYTE   W72
// 142   ----------------------------------------
        BYTE   W72
// 143   ----------------------------------------
        BYTE   W72
// 144   ----------------------------------------
        BYTE   W72
// 145   ----------------------------------------
        BYTE   W72
// 146   ----------------------------------------
        BYTE   W72
// 147   ----------------------------------------
        BYTE   W48
        BYTE   FINE

//****************** Track 4 (Midi-Chn.5) ******************//

The_Scions_Dance_in_Purgatory_4:
        BYTE   KEYSH   The_Scions_Dance_in_Purgatory_key+0
// 000   ----------------------------------------
        BYTE           VOICE   14
        BYTE           VOL     28
        BYTE           PAN     c_v-26
        BYTE           N12     Gs3   v126
        BYTE           N12     Ds4
        BYTE           N12     Gs4
        BYTE   W12
        BYTE           N03     Ds4
        BYTE   W03
        BYTE                   Dn4
        BYTE   W03
        BYTE                   Ds4
        BYTE   W03
        BYTE           N15     Dn4
        BYTE   W15
        BYTE           N12     Ds4
        BYTE   W12
        BYTE                   En4
        BYTE   W12
        BYTE                   Ds4
        BYTE   W12
        BYTE                   Cs4
        BYTE           N12     Cs3
        BYTE   W12
        BYTE                   Bn3
        BYTE   W12
// 001   ----------------------------------------
        BYTE   PATT
         POIN2  The_Scions_Dance_in_Purgatory_0_1
// 002   ----------------------------------------
        BYTE   PATT
         POIN2  The_Scions_Dance_in_Purgatory_0_2
// 003   ----------------------------------------
        BYTE   PATT
         POIN2  The_Scions_Dance_in_Purgatory_0_3
// 004   ----------------------------------------
        BYTE   PATT
         POIN2  The_Scions_Dance_in_Purgatory_0_4
// 005   ----------------------------------------
        BYTE   PATT
         POIN2  The_Scions_Dance_in_Purgatory_0_5
// 006   ----------------------------------------
The_Scions_Dance_in_Purgatory_4_LOOP:
        BYTE           N12     Fs2   v126
        BYTE           N12     Ds2
        BYTE           N24     Ds1
        BYTE           N24     Ds0
        BYTE   W24
        BYTE           N12     Ds3
        BYTE           N12     Fs2
        BYTE           N12     Ds2
        BYTE           N12     Ds1
        BYTE           N12     Ds0
        BYTE   W18
        BYTE           N06     En2
        BYTE           N06     Ds3
        BYTE           N06     An0
        BYTE           N06     Cs0
        BYTE   W06
        BYTE           N12     Ds1
        BYTE           N12     Ds0
        BYTE   W06
        BYTE           N06     En2
        BYTE           N06     An2
        BYTE           N06     Ds3
        BYTE   W30
        BYTE                   En2
        BYTE           N06     Fs2
        BYTE           N06     Ds3
        BYTE           N24     Ds1
        BYTE           N24     Ds0
        BYTE   W06
        BYTE           N06     En2
        BYTE           N06     Fs2
        BYTE           N06     Ds3
        BYTE   W06
// 007   ----------------------------------------
        BYTE   PATT
         POIN2  The_Scions_Dance_in_Purgatory_0_7
// 008   ----------------------------------------
        BYTE   PATT
         POIN2  The_Scions_Dance_in_Purgatory_0_8
// 009   ----------------------------------------
        BYTE   PATT
         POIN2  The_Scions_Dance_in_Purgatory_0_9
// 010   ----------------------------------------
        BYTE   PATT
         POIN2  The_Scions_Dance_in_Purgatory_2_10
// 011   ----------------------------------------
        BYTE   W96
// 012   ----------------------------------------
        BYTE   W96
// 013   ----------------------------------------
        BYTE   W96
// 014   ----------------------------------------
        BYTE   W96
// 015   ----------------------------------------
        BYTE   W96
// 016   ----------------------------------------
        BYTE   W96
// 017   ----------------------------------------
        BYTE   W96
// 018   ----------------------------------------
        BYTE   W96
// 019   ----------------------------------------
        BYTE   W96
// 020   ----------------------------------------
        BYTE   W96
// 021   ----------------------------------------
        BYTE   W96
// 022   ----------------------------------------
        BYTE   W96
// 023   ----------------------------------------
        BYTE   W96
// 024   ----------------------------------------
        BYTE   W96
// 025   ----------------------------------------
        BYTE   W96
// 026   ----------------------------------------
        BYTE   W96
// 027   ----------------------------------------
        BYTE   W96
// 028   ----------------------------------------
        BYTE   W96
// 029   ----------------------------------------
        BYTE   W96
// 030   ----------------------------------------
        BYTE   W96
// 031   ----------------------------------------
        BYTE   W96
// 032   ----------------------------------------
        BYTE   W96
// 033   ----------------------------------------
        BYTE   W96
// 034   ----------------------------------------
        BYTE   W72
// 035   ----------------------------------------
        BYTE   W72
// 036   ----------------------------------------
        BYTE   W72
// 037   ----------------------------------------
        BYTE   W72
// 038   ----------------------------------------
        BYTE   W72
// 039   ----------------------------------------
        BYTE   W72
// 040   ----------------------------------------
        BYTE   W72
// 041   ----------------------------------------
        BYTE   W72
// 042   ----------------------------------------
        BYTE   W72
// 043   ----------------------------------------
        BYTE   W72
// 044   ----------------------------------------
        BYTE   W72
// 045   ----------------------------------------
        BYTE   W72
// 046   ----------------------------------------
        BYTE   W72
// 047   ----------------------------------------
        BYTE   W72
// 048   ----------------------------------------
        BYTE   W72
// 049   ----------------------------------------
        BYTE   W72
// 050   ----------------------------------------
        BYTE   W72
// 051   ----------------------------------------
        BYTE   W72
// 052   ----------------------------------------
        BYTE   W72
// 053   ----------------------------------------
        BYTE   W72
// 054   ----------------------------------------
        BYTE   W72
// 055   ----------------------------------------
        BYTE   W72
// 056   ----------------------------------------
        BYTE   W72
// 057   ----------------------------------------
        BYTE   W72
// 058   ----------------------------------------
        BYTE   W72
// 059   ----------------------------------------
        BYTE   W72
// 060   ----------------------------------------
        BYTE   W72
// 061   ----------------------------------------
        BYTE   W72
// 062   ----------------------------------------
        BYTE   GoTo
         POIN2  The_Scions_Dance_in_Purgatory_4_LOOP
        BYTE   W72
// 063   ----------------------------------------
        BYTE   W72
// 064   ----------------------------------------
        BYTE   W72
// 065   ----------------------------------------
        BYTE   W72
// 066   ----------------------------------------
        BYTE   W72
// 067   ----------------------------------------
        BYTE   W72
// 068   ----------------------------------------
        BYTE   W72
// 069   ----------------------------------------
        BYTE   W72
// 070   ----------------------------------------
        BYTE   W72
// 071   ----------------------------------------
        BYTE   W72
// 072   ----------------------------------------
        BYTE   W72
// 073   ----------------------------------------
        BYTE   W72
// 074   ----------------------------------------
        BYTE   W72
// 075   ----------------------------------------
        BYTE   W72
// 076   ----------------------------------------
        BYTE   W72
// 077   ----------------------------------------
        BYTE   W72
// 078   ----------------------------------------
        BYTE   W72
// 079   ----------------------------------------
        BYTE   W72
// 080   ----------------------------------------
        BYTE   W72
// 081   ----------------------------------------
        BYTE   W72
// 082   ----------------------------------------
        BYTE   W72
// 083   ----------------------------------------
        BYTE   W72
// 084   ----------------------------------------
        BYTE   W72
// 085   ----------------------------------------
        BYTE   W72
// 086   ----------------------------------------
        BYTE   W72
// 087   ----------------------------------------
        BYTE   W72
// 088   ----------------------------------------
        BYTE   W72
// 089   ----------------------------------------
        BYTE   W72
// 090   ----------------------------------------
        BYTE   W72
// 091   ----------------------------------------
        BYTE   W72
// 092   ----------------------------------------
        BYTE   W72
// 093   ----------------------------------------
        BYTE   W72
// 094   ----------------------------------------
        BYTE   W72
// 095   ----------------------------------------
        BYTE   W72
// 096   ----------------------------------------
        BYTE   W72
// 097   ----------------------------------------
        BYTE   W72
// 098   ----------------------------------------
        BYTE   W72
// 099   ----------------------------------------
        BYTE   W72
// 100   ----------------------------------------
        BYTE   W72
// 101   ----------------------------------------
        BYTE   W72
// 102   ----------------------------------------
        BYTE   W72
// 103   ----------------------------------------
        BYTE   W72
// 104   ----------------------------------------
        BYTE   W72
// 105   ----------------------------------------
        BYTE   W72
// 106   ----------------------------------------
        BYTE   W72
// 107   ----------------------------------------
        BYTE   W72
// 108   ----------------------------------------
        BYTE   W72
// 109   ----------------------------------------
        BYTE   W72
// 110   ----------------------------------------
        BYTE   W72
// 111   ----------------------------------------
        BYTE   W72
// 112   ----------------------------------------
        BYTE   W72
// 113   ----------------------------------------
        BYTE   W72
// 114   ----------------------------------------
        BYTE   W72
// 115   ----------------------------------------
        BYTE   W72
// 116   ----------------------------------------
        BYTE   W72
// 117   ----------------------------------------
        BYTE   W72
// 118   ----------------------------------------
        BYTE   W72
// 119   ----------------------------------------
        BYTE   W72
// 120   ----------------------------------------
        BYTE   W72
// 121   ----------------------------------------
        BYTE   W72
// 122   ----------------------------------------
        BYTE   W72
// 123   ----------------------------------------
        BYTE   W72
// 124   ----------------------------------------
        BYTE   W72
// 125   ----------------------------------------
        BYTE   W72
// 126   ----------------------------------------
        BYTE   W72
// 127   ----------------------------------------
        BYTE   W72
// 128   ----------------------------------------
        BYTE   W72
// 129   ----------------------------------------
        BYTE   W72
// 130   ----------------------------------------
        BYTE   W72
// 131   ----------------------------------------
        BYTE   W72
// 132   ----------------------------------------
        BYTE   W72
// 133   ----------------------------------------
        BYTE   W72
// 134   ----------------------------------------
        BYTE   W72
// 135   ----------------------------------------
        BYTE   W72
// 136   ----------------------------------------
        BYTE   W72
// 137   ----------------------------------------
        BYTE   W72
// 138   ----------------------------------------
        BYTE   W72
// 139   ----------------------------------------
        BYTE   W72
// 140   ----------------------------------------
        BYTE   W72
// 141   ----------------------------------------
        BYTE   W72
// 142   ----------------------------------------
        BYTE   W72
// 143   ----------------------------------------
        BYTE   W72
// 144   ----------------------------------------
        BYTE   W72
// 145   ----------------------------------------
        BYTE   W72
// 146   ----------------------------------------
        BYTE   W72
// 147   ----------------------------------------
        BYTE   W48
        BYTE   FINE

//****************** Track 5 (Midi-Chn.6) ******************//

The_Scions_Dance_in_Purgatory_5:
        BYTE   KEYSH   The_Scions_Dance_in_Purgatory_key+0
// 000   ----------------------------------------
        BYTE           VOICE   14
        BYTE           VOL     44
        BYTE           PAN     c_v+21
        BYTE   W96
// 001   ----------------------------------------
        BYTE   W96
// 002   ----------------------------------------
        BYTE   W96
// 003   ----------------------------------------
        BYTE   W96
// 004   ----------------------------------------
        BYTE   W96
// 005   ----------------------------------------
        BYTE   W96
// 006   ----------------------------------------
The_Scions_Dance_in_Purgatory_5_LOOP:
        BYTE   W96
// 007   ----------------------------------------
        BYTE   W96
// 008   ----------------------------------------
        BYTE   W96
// 009   ----------------------------------------
        BYTE   W96
// 010   ----------------------------------------
        BYTE   W96
// 011   ----------------------------------------
        BYTE   W96
// 012   ----------------------------------------
        BYTE   W96
// 013   ----------------------------------------
        BYTE   W96
// 014   ----------------------------------------
        BYTE   W96
// 015   ----------------------------------------
        BYTE   W96
// 016   ----------------------------------------
        BYTE   W96
// 017   ----------------------------------------
        BYTE   W96
// 018   ----------------------------------------
        BYTE   W96
// 019   ----------------------------------------
        BYTE   W96
// 020   ----------------------------------------
        BYTE   W96
// 021   ----------------------------------------
        BYTE   W96
// 022   ----------------------------------------
        BYTE   W96
// 023   ----------------------------------------
        BYTE   W96
// 024   ----------------------------------------
        BYTE   W96
// 025   ----------------------------------------
        BYTE   W96
// 026   ----------------------------------------
        BYTE   W96
// 027   ----------------------------------------
        BYTE   W96
// 028   ----------------------------------------
        BYTE   W96
// 029   ----------------------------------------
        BYTE   W96
// 030   ----------------------------------------
        BYTE   W96
// 031   ----------------------------------------
        BYTE   W96
// 032   ----------------------------------------
        BYTE   W96
// 033   ----------------------------------------
        BYTE   PATT
         POIN2  The_Scions_Dance_in_Purgatory_0_33
// 034   ----------------------------------------
        BYTE   PATT
         POIN2  The_Scions_Dance_in_Purgatory_0_34
// 035   ----------------------------------------
        BYTE   PATT
         POIN2  The_Scions_Dance_in_Purgatory_0_35
// 036   ----------------------------------------
        BYTE   PATT
         POIN2  The_Scions_Dance_in_Purgatory_0_36
// 037   ----------------------------------------
        BYTE   PATT
         POIN2  The_Scions_Dance_in_Purgatory_0_37
// 038   ----------------------------------------
        BYTE   PATT
         POIN2  The_Scions_Dance_in_Purgatory_0_38
// 039   ----------------------------------------
        BYTE   PATT
         POIN2  The_Scions_Dance_in_Purgatory_0_39
// 040   ----------------------------------------
        BYTE   PATT
         POIN2  The_Scions_Dance_in_Purgatory_0_40
// 041   ----------------------------------------
        BYTE   PATT
         POIN2  The_Scions_Dance_in_Purgatory_0_41
// 042   ----------------------------------------
        BYTE   PATT
         POIN2  The_Scions_Dance_in_Purgatory_0_42
// 043   ----------------------------------------
        BYTE   PATT
         POIN2  The_Scions_Dance_in_Purgatory_0_43
// 044   ----------------------------------------
        BYTE   PATT
         POIN2  The_Scions_Dance_in_Purgatory_0_36
// 045   ----------------------------------------
        BYTE   PATT
         POIN2  The_Scions_Dance_in_Purgatory_0_45
// 046   ----------------------------------------
        BYTE   PATT
         POIN2  The_Scions_Dance_in_Purgatory_0_46
// 047   ----------------------------------------
        BYTE   PATT
         POIN2  The_Scions_Dance_in_Purgatory_0_47
// 048   ----------------------------------------
        BYTE   PATT
         POIN2  The_Scions_Dance_in_Purgatory_0_48
// 049   ----------------------------------------
        BYTE   PATT
         POIN2  The_Scions_Dance_in_Purgatory_0_49
// 050   ----------------------------------------
        BYTE   PATT
         POIN2  The_Scions_Dance_in_Purgatory_0_50
// 051   ----------------------------------------
        BYTE   PATT
         POIN2  The_Scions_Dance_in_Purgatory_0_51
// 052   ----------------------------------------
        BYTE   PATT
         POIN2  The_Scions_Dance_in_Purgatory_0_52
// 053   ----------------------------------------
        BYTE   PATT
         POIN2  The_Scions_Dance_in_Purgatory_0_53
// 054   ----------------------------------------
        BYTE           TIE     Bn3   v126
        BYTE           TIE     Ds4
        BYTE           TIE     Gs4
        BYTE           TIE     Bn4
        BYTE           N24     Gs1
        BYTE   W24
        BYTE           N12     Gs2
        BYTE   W12
        BYTE                   Gs2
        BYTE   W12
        BYTE           N24     Ds3
        BYTE   W24
// 055   ----------------------------------------
        BYTE   PATT
         POIN2  The_Scions_Dance_in_Purgatory_0_55
// 056   ----------------------------------------
        BYTE   PATT
         POIN2  The_Scions_Dance_in_Purgatory_0_56
// 057   ----------------------------------------
        BYTE   PATT
         POIN2  The_Scions_Dance_in_Purgatory_0_57
// 058   ----------------------------------------
        BYTE   PATT
         POIN2  The_Scions_Dance_in_Purgatory_0_58
// 059   ----------------------------------------
        BYTE   PATT
         POIN2  The_Scions_Dance_in_Purgatory_0_59
// 060   ----------------------------------------
        BYTE   PATT
         POIN2  The_Scions_Dance_in_Purgatory_0_60
// 061   ----------------------------------------
        BYTE   PATT
         POIN2  The_Scions_Dance_in_Purgatory_0_61
// 062   ----------------------------------------
        BYTE   GoTo
         POIN2  The_Scions_Dance_in_Purgatory_5_LOOP
        BYTE   W72
// 063   ----------------------------------------
        BYTE   W72
// 064   ----------------------------------------
        BYTE   W72
// 065   ----------------------------------------
        BYTE   W72
// 066   ----------------------------------------
        BYTE   W72
// 067   ----------------------------------------
        BYTE   W72
// 068   ----------------------------------------
        BYTE   W72
// 069   ----------------------------------------
        BYTE   W72
// 070   ----------------------------------------
        BYTE   W72
// 071   ----------------------------------------
        BYTE   W72
// 072   ----------------------------------------
        BYTE   W72
// 073   ----------------------------------------
        BYTE   W72
// 074   ----------------------------------------
        BYTE   W72
// 075   ----------------------------------------
        BYTE   W72
// 076   ----------------------------------------
        BYTE   W72
// 077   ----------------------------------------
        BYTE   W72
// 078   ----------------------------------------
        BYTE   W72
// 079   ----------------------------------------
        BYTE   W72
// 080   ----------------------------------------
        BYTE   W72
// 081   ----------------------------------------
        BYTE   W72
// 082   ----------------------------------------
        BYTE   W72
// 083   ----------------------------------------
        BYTE   W72
// 084   ----------------------------------------
        BYTE   W72
// 085   ----------------------------------------
        BYTE   W72
// 086   ----------------------------------------
        BYTE   W72
// 087   ----------------------------------------
        BYTE   W72
// 088   ----------------------------------------
        BYTE   W72
// 089   ----------------------------------------
        BYTE   W72
// 090   ----------------------------------------
        BYTE   W72
// 091   ----------------------------------------
        BYTE   W72
// 092   ----------------------------------------
        BYTE   W72
// 093   ----------------------------------------
        BYTE   W72
// 094   ----------------------------------------
        BYTE   W72
// 095   ----------------------------------------
        BYTE   W72
// 096   ----------------------------------------
        BYTE   W72
// 097   ----------------------------------------
        BYTE   W72
// 098   ----------------------------------------
        BYTE   W72
// 099   ----------------------------------------
        BYTE   W72
// 100   ----------------------------------------
        BYTE   W72
// 101   ----------------------------------------
        BYTE   W72
// 102   ----------------------------------------
        BYTE   W72
// 103   ----------------------------------------
        BYTE   W72
// 104   ----------------------------------------
        BYTE   W72
// 105   ----------------------------------------
        BYTE   W72
// 106   ----------------------------------------
        BYTE   W72
// 107   ----------------------------------------
        BYTE   W72
// 108   ----------------------------------------
        BYTE   W72
// 109   ----------------------------------------
        BYTE   W72
// 110   ----------------------------------------
        BYTE   W72
// 111   ----------------------------------------
        BYTE   W72
// 112   ----------------------------------------
        BYTE   W72
// 113   ----------------------------------------
        BYTE   W72
// 114   ----------------------------------------
        BYTE   W72
// 115   ----------------------------------------
        BYTE   W72
// 116   ----------------------------------------
        BYTE   W72
// 117   ----------------------------------------
        BYTE   W72
// 118   ----------------------------------------
        BYTE   W72
// 119   ----------------------------------------
        BYTE   W72
// 120   ----------------------------------------
        BYTE   W72
// 121   ----------------------------------------
        BYTE   W72
// 122   ----------------------------------------
        BYTE   W72
// 123   ----------------------------------------
        BYTE   W72
// 124   ----------------------------------------
        BYTE   W72
// 125   ----------------------------------------
        BYTE   W72
// 126   ----------------------------------------
        BYTE   W72
// 127   ----------------------------------------
        BYTE   W72
// 128   ----------------------------------------
        BYTE   W72
// 129   ----------------------------------------
        BYTE   W72
// 130   ----------------------------------------
        BYTE   W72
// 131   ----------------------------------------
        BYTE   W72
// 132   ----------------------------------------
        BYTE   W72
// 133   ----------------------------------------
        BYTE   W72
// 134   ----------------------------------------
        BYTE   W72
// 135   ----------------------------------------
        BYTE   W72
// 136   ----------------------------------------
        BYTE   W72
// 137   ----------------------------------------
        BYTE   W72
// 138   ----------------------------------------
        BYTE   W72
// 139   ----------------------------------------
        BYTE   W72
// 140   ----------------------------------------
        BYTE   W72
// 141   ----------------------------------------
        BYTE   W72
// 142   ----------------------------------------
        BYTE   W72
// 143   ----------------------------------------
        BYTE   W72
// 144   ----------------------------------------
        BYTE   W72
// 145   ----------------------------------------
        BYTE   W72
// 146   ----------------------------------------
        BYTE   W72
// 147   ----------------------------------------
        BYTE   W48
        BYTE   FINE

//****************** Track 6 (Midi-Chn.8) ******************//

The_Scions_Dance_in_Purgatory_6:
        BYTE   KEYSH   The_Scions_Dance_in_Purgatory_key+0
// 000   ----------------------------------------
        BYTE           VOICE   0
        BYTE           VOL     50
        BYTE           N12     Gs3   v126
        BYTE           N12     Ds4
        BYTE           N12     Gs4
        BYTE   W12
        BYTE           N03     Ds4
        BYTE   W03
        BYTE                   Dn4
        BYTE   W03
        BYTE                   Ds4
        BYTE   W03
        BYTE           N15     Dn4
        BYTE   W15
        BYTE           N12     Ds4
        BYTE   W12
        BYTE                   En4
        BYTE   W12
        BYTE                   Ds4
        BYTE   W12
        BYTE                   Cs4
        BYTE           N12     Cs3
        BYTE   W12
        BYTE                   Bn3
        BYTE   W12
// 001   ----------------------------------------
        BYTE   PATT
         POIN2  The_Scions_Dance_in_Purgatory_0_1
// 002   ----------------------------------------
        BYTE   PATT
         POIN2  The_Scions_Dance_in_Purgatory_0_2
// 003   ----------------------------------------
        BYTE   PATT
         POIN2  The_Scions_Dance_in_Purgatory_0_3
// 004   ----------------------------------------
        BYTE   PATT
         POIN2  The_Scions_Dance_in_Purgatory_0_4
// 005   ----------------------------------------
        BYTE   PATT
         POIN2  The_Scions_Dance_in_Purgatory_0_5
// 006   ----------------------------------------
The_Scions_Dance_in_Purgatory_6_LOOP:
        BYTE   W96
// 007   ----------------------------------------
        BYTE   W96
// 008   ----------------------------------------
        BYTE   W96
// 009   ----------------------------------------
        BYTE   W96
// 010   ----------------------------------------
        BYTE   W96
// 011   ----------------------------------------
        BYTE   W96
// 012   ----------------------------------------
        BYTE   W96
// 013   ----------------------------------------
        BYTE   W96
// 014   ----------------------------------------
        BYTE   W96
// 015   ----------------------------------------
        BYTE   W96
// 016   ----------------------------------------
        BYTE   W96
// 017   ----------------------------------------
        BYTE   W96
// 018   ----------------------------------------
        BYTE   W96
// 019   ----------------------------------------
        BYTE   W96
// 020   ----------------------------------------
        BYTE   W96
// 021   ----------------------------------------
        BYTE   W96
// 022   ----------------------------------------
        BYTE   W96
// 023   ----------------------------------------
        BYTE   W96
// 024   ----------------------------------------
        BYTE   W96
// 025   ----------------------------------------
        BYTE   W96
// 026   ----------------------------------------
        BYTE   W96
// 027   ----------------------------------------
        BYTE   W96
// 028   ----------------------------------------
        BYTE   W96
// 029   ----------------------------------------
        BYTE   W96
// 030   ----------------------------------------
        BYTE   W96
// 031   ----------------------------------------
        BYTE   W96
// 032   ----------------------------------------
        BYTE   W96
// 033   ----------------------------------------
        BYTE   W96
// 034   ----------------------------------------
        BYTE   W72
// 035   ----------------------------------------
        BYTE   W72
// 036   ----------------------------------------
        BYTE   W72
// 037   ----------------------------------------
        BYTE   W72
// 038   ----------------------------------------
        BYTE   W72
// 039   ----------------------------------------
        BYTE   W72
// 040   ----------------------------------------
        BYTE   W72
// 041   ----------------------------------------
        BYTE   W72
// 042   ----------------------------------------
        BYTE   W72
// 043   ----------------------------------------
        BYTE   W72
// 044   ----------------------------------------
        BYTE   W72
// 045   ----------------------------------------
        BYTE   W72
// 046   ----------------------------------------
        BYTE   W72
// 047   ----------------------------------------
        BYTE   W72
// 048   ----------------------------------------
        BYTE   W72
// 049   ----------------------------------------
        BYTE   W72
// 050   ----------------------------------------
        BYTE   W72
// 051   ----------------------------------------
        BYTE   W72
// 052   ----------------------------------------
        BYTE   W72
// 053   ----------------------------------------
        BYTE   W72
// 054   ----------------------------------------
        BYTE   W72
// 055   ----------------------------------------
        BYTE   W72
// 056   ----------------------------------------
        BYTE   W72
// 057   ----------------------------------------
        BYTE   W72
// 058   ----------------------------------------
        BYTE   PATT
         POIN2  The_Scions_Dance_in_Purgatory_3_58
// 059   ----------------------------------------
        BYTE   PATT
         POIN2  The_Scions_Dance_in_Purgatory_0_59
// 060   ----------------------------------------
        BYTE   PATT
         POIN2  The_Scions_Dance_in_Purgatory_0_60
// 061   ----------------------------------------
        BYTE   PATT
         POIN2  The_Scions_Dance_in_Purgatory_0_61
// 062   ----------------------------------------
        BYTE   GoTo
         POIN2  The_Scions_Dance_in_Purgatory_6_LOOP
        BYTE   W72
// 063   ----------------------------------------
        BYTE   W72
// 064   ----------------------------------------
        BYTE   W72
// 065   ----------------------------------------
        BYTE   W72
// 066   ----------------------------------------
        BYTE   W72
// 067   ----------------------------------------
        BYTE   W72
// 068   ----------------------------------------
        BYTE   W72
// 069   ----------------------------------------
        BYTE   W72
// 070   ----------------------------------------
        BYTE   W72
// 071   ----------------------------------------
        BYTE   W72
// 072   ----------------------------------------
        BYTE   W72
// 073   ----------------------------------------
        BYTE   W72
// 074   ----------------------------------------
        BYTE   W72
// 075   ----------------------------------------
        BYTE   W72
// 076   ----------------------------------------
        BYTE   W72
// 077   ----------------------------------------
        BYTE   W72
// 078   ----------------------------------------
        BYTE   W72
// 079   ----------------------------------------
        BYTE   W72
// 080   ----------------------------------------
        BYTE   W72
// 081   ----------------------------------------
        BYTE   W72
// 082   ----------------------------------------
        BYTE   W72
// 083   ----------------------------------------
        BYTE   W72
// 084   ----------------------------------------
        BYTE   W72
// 085   ----------------------------------------
        BYTE   W72
// 086   ----------------------------------------
        BYTE   W72
// 087   ----------------------------------------
        BYTE   W72
// 088   ----------------------------------------
        BYTE   W72
// 089   ----------------------------------------
        BYTE   W72
// 090   ----------------------------------------
        BYTE   W72
// 091   ----------------------------------------
        BYTE   W72
// 092   ----------------------------------------
        BYTE   W72
// 093   ----------------------------------------
        BYTE   W72
// 094   ----------------------------------------
        BYTE   W72
// 095   ----------------------------------------
        BYTE   W72
// 096   ----------------------------------------
        BYTE   W72
// 097   ----------------------------------------
        BYTE   W72
// 098   ----------------------------------------
        BYTE   W72
// 099   ----------------------------------------
        BYTE   W72
// 100   ----------------------------------------
        BYTE   W72
// 101   ----------------------------------------
        BYTE   W72
// 102   ----------------------------------------
        BYTE   W72
// 103   ----------------------------------------
        BYTE   W72
// 104   ----------------------------------------
        BYTE   W72
// 105   ----------------------------------------
        BYTE   W72
// 106   ----------------------------------------
        BYTE   W72
// 107   ----------------------------------------
        BYTE   W72
// 108   ----------------------------------------
        BYTE   W72
// 109   ----------------------------------------
        BYTE   W72
// 110   ----------------------------------------
        BYTE   W72
// 111   ----------------------------------------
        BYTE   W72
// 112   ----------------------------------------
        BYTE   W72
// 113   ----------------------------------------
        BYTE   W72
// 114   ----------------------------------------
        BYTE   W72
// 115   ----------------------------------------
        BYTE   W72
// 116   ----------------------------------------
        BYTE   W72
// 117   ----------------------------------------
        BYTE   W72
// 118   ----------------------------------------
        BYTE   W72
// 119   ----------------------------------------
        BYTE   W72
// 120   ----------------------------------------
        BYTE   W72
// 121   ----------------------------------------
        BYTE   W72
// 122   ----------------------------------------
        BYTE   W72
// 123   ----------------------------------------
        BYTE   W72
// 124   ----------------------------------------
        BYTE   W72
// 125   ----------------------------------------
        BYTE   W72
// 126   ----------------------------------------
        BYTE   W72
// 127   ----------------------------------------
        BYTE   W72
// 128   ----------------------------------------
        BYTE   W72
// 129   ----------------------------------------
        BYTE   W72
// 130   ----------------------------------------
        BYTE   W72
// 131   ----------------------------------------
        BYTE   W72
// 132   ----------------------------------------
        BYTE   W72
// 133   ----------------------------------------
        BYTE   W72
// 134   ----------------------------------------
        BYTE   W72
// 135   ----------------------------------------
        BYTE   W72
// 136   ----------------------------------------
        BYTE   W72
// 137   ----------------------------------------
        BYTE   W72
// 138   ----------------------------------------
        BYTE   W72
// 139   ----------------------------------------
        BYTE   W72
// 140   ----------------------------------------
        BYTE   W72
// 141   ----------------------------------------
        BYTE   W72
// 142   ----------------------------------------
        BYTE   W72
// 143   ----------------------------------------
        BYTE   W72
// 144   ----------------------------------------
        BYTE   W72
// 145   ----------------------------------------
        BYTE   W72
// 146   ----------------------------------------
        BYTE   W72
// 147   ----------------------------------------
        BYTE   W48
        BYTE   FINE


//********************** End of Song ***********************//

        ALIGN 4
The_Scions_Dance_in_Purgatory:
        BYTE   7                       // Num Tracks
        BYTE   0                       // Unknown
        BYTE   The_Scions_Dance_in_Purgatory_pri // Priority
        BYTE   The_Scions_Dance_in_Purgatory_rev // Reverb

        POIN2   The_Scions_Dance_in_Purgatory_grp

        POIN2   The_Scions_Dance_in_Purgatory_0
        POIN2   The_Scions_Dance_in_Purgatory_1
        POIN2   The_Scions_Dance_in_Purgatory_2
        POIN2   The_Scions_Dance_in_Purgatory_3
        POIN2   The_Scions_Dance_in_Purgatory_4
        POIN2   The_Scions_Dance_in_Purgatory_5
        POIN2   The_Scions_Dance_in_Purgatory_6

        
