//Event file generated from Sappy .s format.
        #include "MPlayDef.event"

        #define    TheDarkGodsTempest_grp  voicegroup000
        #define    TheDarkGodsTempest_pri  0
        #define    TheDarkGodsTempest_rev  0
        #define    TheDarkGodsTempest_key  0

        // .rodata
        // TheDarkGodsTempest
        ALIGN 4

//****************** Track 0 (Midi-Chn.0) ******************//

TheDarkGodsTempest_0:
        BYTE   KEYSH   TheDarkGodsTempest_key+0
// 000   ----------------------------------------
        BYTE   TEMPO   250/2
        BYTE           VOICE   91
        BYTE           VOL     47
        BYTE           PAN     c_v-17
        BYTE   W48
TheDarkGodsTempest_0_LOOP:
        BYTE           TIE     As4   v100
        BYTE   W48
// 001   ----------------------------------------
        BYTE   W66
        BYTE   W01
        BYTE           EOT
        BYTE   W05
        BYTE           TIE     Cs5
        BYTE   W24
// 002   ----------------------------------------
        BYTE   W90
        BYTE   W01
        BYTE           EOT
        BYTE   W05
// 003   ----------------------------------------
        BYTE           TIE     Fs4
        BYTE   W96
// 004   ----------------------------------------
        BYTE   W96
// 005   ----------------------------------------
        BYTE   TEMPO   292/2
        BYTE   W36
        BYTE   W02
        BYTE           EOT
        BYTE   W56
        BYTE   W02
// 006   ----------------------------------------
        BYTE   W96
// 007   ----------------------------------------
        BYTE   W96
// 008   ----------------------------------------
        BYTE   W96
// 009   ----------------------------------------
        BYTE   W48
        BYTE   TEMPO   250/2
        BYTE           TIE     Bn4
        BYTE   W48
// 010   ----------------------------------------
        BYTE   W66
        BYTE   W01
        BYTE           EOT
        BYTE   W05
        BYTE           TIE     Fs5
        BYTE   W24
// 011   ----------------------------------------
        BYTE   W90
        BYTE   W01
        BYTE           EOT
        BYTE   W05
// 012   ----------------------------------------
        BYTE           TIE     Dn5
        BYTE   W96
// 013   ----------------------------------------
        BYTE   W19
        BYTE           EOT
        BYTE   W05
        BYTE           TIE     Ds5
        BYTE   W72
// 014   ----------------------------------------
        BYTE   W42
        BYTE   W01
        BYTE           EOT
        BYTE   W05
        BYTE   TEMPO   280/2
        BYTE   W48
// 015   ----------------------------------------
        BYTE   W96
// 016   ----------------------------------------
        BYTE   W96
// 017   ----------------------------------------
        BYTE   W48
        BYTE           N64     Fn4   v109
        BYTE   W48
// 018   ----------------------------------------
        BYTE   W24
        BYTE                   Gs4   v110
        BYTE   W72
// 019   ----------------------------------------
        BYTE                   An4   v111   gtp1
        BYTE   W72
        BYTE           N68     Ds4   v112   gtp1
        BYTE   W24
// 020   ----------------------------------------
        BYTE   W48
        BYTE           TIE     Fs4   v116
        BYTE   W48
// 021   ----------------------------------------
        BYTE   W96
// 022   ----------------------------------------
        BYTE   W36
        BYTE   W02
        BYTE           EOT
        BYTE   W56
        BYTE   W02
// 023   ----------------------------------------
        BYTE   W96
// 024   ----------------------------------------
        BYTE   W96
// 025   ----------------------------------------
        BYTE   W96
// 026   ----------------------------------------
        BYTE   W96
// 027   ----------------------------------------
        BYTE   W72
        BYTE           TIE     Dn5   v072
        BYTE           TIE     Gs5   v056
        BYTE   W24
// 028   ----------------------------------------
        BYTE   W96
// 029   ----------------------------------------
        BYTE   W36
        BYTE           EOT
        BYTE           EOT     Dn5
        BYTE   W12
        BYTE   TEMPO   250/2
        BYTE   GoTo
         POIN2  TheDarkGodsTempest_0_LOOP
        BYTE   FINE

//****************** Track 1 (Midi-Chn.1) ******************//

TheDarkGodsTempest_1:
        BYTE   KEYSH   TheDarkGodsTempest_key+0
// 000   ----------------------------------------
        BYTE           VOICE   91
        BYTE           VOL     47
        BYTE           PAN     c_v+17
        BYTE   W44
        BYTE           VOL     44
        BYTE   W03
        BYTE                   45
        BYTE   W01
TheDarkGodsTempest_1_LOOP:
        BYTE   W24
        BYTE           TIE     As4   v100
        BYTE   W24
// 001   ----------------------------------------
        BYTE   W90
        BYTE   W01
        BYTE           EOT
        BYTE   W05
// 002   ----------------------------------------
        BYTE           TIE     Cs5
        BYTE   W96
// 003   ----------------------------------------
        BYTE   W19
        BYTE           EOT
        BYTE   W05
        BYTE           TIE     Fs4
        BYTE   W72
// 004   ----------------------------------------
        BYTE   W96
// 005   ----------------------------------------
        BYTE   W48
        BYTE                   En3
        BYTE   W14
        BYTE           EOT     Fs4
        BYTE   W32
        BYTE   W02
// 006   ----------------------------------------
        BYTE   W96
// 007   ----------------------------------------
        BYTE   W96
// 008   ----------------------------------------
        BYTE   W96
// 009   ----------------------------------------
        BYTE   W24
        BYTE                   En3
        BYTE   W48
        BYTE           TIE     Bn4
        BYTE   W24
// 010   ----------------------------------------
        BYTE   W90
        BYTE   W01
        BYTE           EOT
        BYTE   W05
// 011   ----------------------------------------
        BYTE           TIE     Fs5
        BYTE   W96
// 012   ----------------------------------------
        BYTE   W19
        BYTE           EOT
        BYTE   W05
        BYTE           TIE     Dn5
        BYTE   W72
// 013   ----------------------------------------
        BYTE   W42
        BYTE   W01
        BYTE           EOT
        BYTE   W05
        BYTE           TIE     Ds5
        BYTE   W48
// 014   ----------------------------------------
        BYTE   W48
        BYTE                   An2
        BYTE   W19
        BYTE           EOT     Ds5
        BYTE   W28
        BYTE   W01
// 015   ----------------------------------------
        BYTE   W96
// 016   ----------------------------------------
        BYTE   W96
// 017   ----------------------------------------
        BYTE   W60
        BYTE           N64     Fn4
        BYTE   W36
// 018   ----------------------------------------
        BYTE   W36
        BYTE                   Gs4
        BYTE   W60
// 019   ----------------------------------------
        BYTE   W12
        BYTE                   An4   v100   gtp1
        BYTE   W72
        BYTE           N68     Ds4   v100   gtp1
        BYTE   W12
// 020   ----------------------------------------
        BYTE   W60
        BYTE           TIE     Fs4
        BYTE   W36
// 021   ----------------------------------------
        BYTE   W96
// 022   ----------------------------------------
        BYTE   W48
        BYTE   W02
        BYTE           EOT
        BYTE   W44
        BYTE   W02
// 023   ----------------------------------------
        BYTE   W48
        BYTE                   An2
        BYTE   W48
// 024   ----------------------------------------
        BYTE   W96
// 025   ----------------------------------------
        BYTE   W96
// 026   ----------------------------------------
        BYTE   W96
// 027   ----------------------------------------
        BYTE   W78
        BYTE           TIE     Dn5   v072
        BYTE           TIE     Gs5   v056
        BYTE   W18
// 028   ----------------------------------------
        BYTE   W96
// 029   ----------------------------------------
        BYTE   W42
        BYTE           EOT
        BYTE           EOT     Dn5
        BYTE   W06
        BYTE   GoTo
         POIN2  TheDarkGodsTempest_1_LOOP
        BYTE   FINE

//****************** Track 2 (Midi-Chn.2) ******************//

TheDarkGodsTempest_2:
        BYTE   KEYSH   TheDarkGodsTempest_key+0
// 000   ----------------------------------------
        BYTE           VOICE   109
        BYTE           VOL     53
        BYTE           PAN     c_v-45
        BYTE   W32
        BYTE   W02
        BYTE           VOL     45
        BYTE   W02
        BYTE                   46
        BYTE   W03
        BYTE                   47
        BYTE   W03
        BYTE                   48
        BYTE   W01
        BYTE                   49
        BYTE   W05
TheDarkGodsTempest_2_LOOP:
        BYTE           N32     En1   v100
        BYTE   W36
        BYTE                   As1
        BYTE   W12
// 001   ----------------------------------------
TheDarkGodsTempest_2_1:
        BYTE   W24
        BYTE           N21     Fs2   v100
        BYTE   W24
        BYTE                   As1
        BYTE   W24
        BYTE           N32     En1
        BYTE   W24
        BYTE   PEND
// 002   ----------------------------------------
TheDarkGodsTempest_2_2:
        BYTE   W12
        BYTE           N32     As1   v100
        BYTE   W36
        BYTE           N21     Fs2
        BYTE   W24
        BYTE                   As1
        BYTE   W24
        BYTE   PEND
// 003   ----------------------------------------
TheDarkGodsTempest_2_3:
        BYTE           N32     En1   v100
        BYTE   W36
        BYTE                   As1
        BYTE   W36
        BYTE           N21     Fs2
        BYTE   W24
        BYTE   PEND
// 004   ----------------------------------------
TheDarkGodsTempest_2_4:
        BYTE           N21     As1   v100
        BYTE   W24
        BYTE           N32     En1
        BYTE   W36
        BYTE                   As1
        BYTE   W36
        BYTE   PEND
// 005   ----------------------------------------
        BYTE           N21     Fs2
        BYTE   W24
        BYTE                   As1
        BYTE   W24
        BYTE           N42     En1   v100   gtp1
        BYTE   W24
        BYTE           N21     En3
        BYTE           N21     En2
        BYTE   W24
// 006   ----------------------------------------
TheDarkGodsTempest_2_6:
        BYTE           N42     Fs1   v100   gtp1
        BYTE   W24
        BYTE           N21     Fs3
        BYTE           N21     Fs2
        BYTE   W24
        BYTE           N42     En1   v100   gtp1
        BYTE   W24
        BYTE           N21     En3
        BYTE           N21     En2
        BYTE   W24
        BYTE   PEND
// 007   ----------------------------------------
        BYTE   PATT
         POIN2  TheDarkGodsTempest_2_6
// 008   ----------------------------------------
        BYTE   PATT
         POIN2  TheDarkGodsTempest_2_6
// 009   ----------------------------------------
        BYTE           N42     Fs1   v100
        BYTE   W24
        BYTE           N18     Fs2
        BYTE           N18     Fs3
        BYTE   W24
        BYTE           N32     En1
        BYTE   W36
        BYTE                   As1
        BYTE   W12
// 010   ----------------------------------------
        BYTE   PATT
         POIN2  TheDarkGodsTempest_2_1
// 011   ----------------------------------------
        BYTE   PATT
         POIN2  TheDarkGodsTempest_2_2
// 012   ----------------------------------------
        BYTE   PATT
         POIN2  TheDarkGodsTempest_2_3
// 013   ----------------------------------------
        BYTE   PATT
         POIN2  TheDarkGodsTempest_2_4
// 014   ----------------------------------------
        BYTE           N21     Fs2   v100
        BYTE   W24
        BYTE                   As1
        BYTE   W72
// 015   ----------------------------------------
        BYTE   W96
// 016   ----------------------------------------
TheDarkGodsTempest_2_16:
        BYTE           N10     An1   v100
        BYTE   W12
        BYTE                   Cn2
        BYTE   W12
        BYTE                   Bn1
        BYTE   W12
        BYTE                   Cn2
        BYTE   W12
        BYTE                   An1
        BYTE   W12
        BYTE                   Cn2
        BYTE   W12
        BYTE                   Bn1
        BYTE   W12
        BYTE                   Cn2
        BYTE   W12
        BYTE   PEND
// 017   ----------------------------------------
        BYTE   PATT
         POIN2  TheDarkGodsTempest_2_16
// 018   ----------------------------------------
        BYTE   PATT
         POIN2  TheDarkGodsTempest_2_16
// 019   ----------------------------------------
        BYTE   PATT
         POIN2  TheDarkGodsTempest_2_16
// 020   ----------------------------------------
        BYTE   PATT
         POIN2  TheDarkGodsTempest_2_16
// 021   ----------------------------------------
        BYTE   PATT
         POIN2  TheDarkGodsTempest_2_16
// 022   ----------------------------------------
        BYTE           N10     An1   v100
        BYTE   W12
        BYTE                   Cn2
        BYTE   W12
        BYTE                   Bn1
        BYTE   W12
        BYTE                   Cn2
        BYTE   W11
        BYTE           VOL     48
        BYTE   W01
        BYTE           N10     An1
        BYTE   W05
        BYTE           VOL     47
        BYTE   W06
        BYTE                   46
        BYTE   W01
        BYTE           N10     Cn2
        BYTE   W08
        BYTE           VOL     45
        BYTE   W04
        BYTE           N10     Bn1
        BYTE   W03
        BYTE           VOL     44
        BYTE   W09
        BYTE           N10     Cn2
        BYTE           VOL     43
        BYTE   W06
        BYTE                   42
        BYTE   W06
// 023   ----------------------------------------
        BYTE           N10     An1
        BYTE           VOL     41
        BYTE   W09
        BYTE                   40
        BYTE   W03
        BYTE           N10     Cn2
        BYTE   W05
        BYTE           VOL     39
        BYTE   W07
        BYTE           N10     Bn1
        BYTE   W02
        BYTE           VOL     38
        BYTE   W06
        BYTE                   37
        BYTE   W04
        BYTE           N10     Cn2
        BYTE   W02
        BYTE           VOL     36
        BYTE   W08
        BYTE                   34
        BYTE   W02
        BYTE           N10     Bn1
        BYTE   W07
        BYTE           VOL     35
        BYTE   W05
        BYTE           N10     Dn2
        BYTE   W12
        BYTE                   Cs2
        BYTE           VOL     36
        BYTE   W12
        BYTE           N10     Dn2
        BYTE   W12
// 024   ----------------------------------------
        BYTE                   Bn1
        BYTE   W01
        BYTE           VOL     37
        BYTE   W11
        BYTE           N10     Dn2
        BYTE   W07
        BYTE           VOL     38
        BYTE   W05
        BYTE           N10     Cs2
        BYTE   W12
        BYTE                   Dn2
        BYTE           VOL     39
        BYTE   W12
        BYTE           N10     Bn1
        BYTE   W12
        BYTE                   Dn2
        BYTE   W01
        BYTE           VOL     40
        BYTE   W11
        BYTE           N10     Cs2
        BYTE   W06
        BYTE           VOL     41
        BYTE   W06
        BYTE           N10     Dn2
        BYTE   W12
// 025   ----------------------------------------
        BYTE                   Bn1
        BYTE   W07
        BYTE           VOL     42
        BYTE   W05
        BYTE           N10     Dn2
        BYTE   W12
        BYTE                   Cs2
        BYTE           VOL     43
        BYTE   W12
        BYTE           N10     Dn2
        BYTE   W06
        BYTE           VOL     44
        BYTE   W06
        BYTE           N10     Bn1
        BYTE   W12
        BYTE                   Dn2
        BYTE   W07
        BYTE           VOL     45
        BYTE   W05
        BYTE           N10     Cs2
        BYTE   W12
        BYTE                   Dn2
        BYTE           VOL     46
        BYTE   W12
// 026   ----------------------------------------
        BYTE           N10     Bn1
        BYTE   W12
        BYTE                   Dn2
        BYTE   W01
        BYTE           VOL     47
        BYTE   W11
        BYTE           N10     Cs2
        BYTE   W06
        BYTE           VOL     48
        BYTE   W06
        BYTE           N10     Dn2
        BYTE   W10
        BYTE           VOL     49
        BYTE   W02
        BYTE           N10     Bn1
        BYTE   W12
        BYTE                   Dn2
        BYTE   W12
        BYTE                   Cs2
        BYTE           VOL     50
        BYTE   W12
        BYTE           N10     Dn2
        BYTE   W06
        BYTE           VOL     51
        BYTE   W06
// 027   ----------------------------------------
        BYTE           N10     Bn1
        BYTE   W12
        BYTE                   Dn2
        BYTE   W06
        BYTE           VOL     52
        BYTE   W06
        BYTE           N10     Cs2
        BYTE   W12
        BYTE                   Dn2
        BYTE           VOL     53
        BYTE   W12
        BYTE           N10     Bn1
        BYTE   W12
        BYTE                   Dn2
        BYTE   W12
        BYTE                   Cs2
        BYTE   W12
        BYTE                   Dn2
        BYTE   W12
// 028   ----------------------------------------
        BYTE                   Bn1
        BYTE   W12
        BYTE                   Dn2
        BYTE   W12
        BYTE                   Cs2
        BYTE   W12
        BYTE                   Dn2
        BYTE   W12
        BYTE                   Bn1
        BYTE   W12
        BYTE                   Dn2
        BYTE   W12
        BYTE                   Cs2
        BYTE   W12
        BYTE                   Dn2
        BYTE   W12
// 029   ----------------------------------------
        BYTE                   Bn1
        BYTE   W12
        BYTE                   Dn2
        BYTE   W12
        BYTE                   Cs2
        BYTE   W12
        BYTE                   Dn2
        BYTE   W12
        BYTE           VOL     49
        BYTE   GoTo
         POIN2  TheDarkGodsTempest_2_LOOP
        BYTE   FINE

//****************** Track 3 (Midi-Chn.3) ******************//

TheDarkGodsTempest_3:
        BYTE   KEYSH   TheDarkGodsTempest_key+0
// 000   ----------------------------------------
        BYTE           VOICE   6
        BYTE           VOL     39
        BYTE           PAN     c_v-33
        BYTE   W48
TheDarkGodsTempest_3_LOOP:
        BYTE   W48
// 001   ----------------------------------------
        BYTE   W96
// 002   ----------------------------------------
        BYTE   W96
// 003   ----------------------------------------
        BYTE   W96
// 004   ----------------------------------------
        BYTE   W96
// 005   ----------------------------------------
        BYTE   W07
        BYTE           VOL     31
        BYTE   W01
        BYTE                   32
        BYTE   W03
        BYTE                   33
        BYTE   W01
        BYTE                   30
        BYTE   W15
        BYTE                   31
        BYTE   W21
        BYTE           N10     En3   v124
        BYTE   W12
        BYTE                   Gn3
        BYTE   W07
        BYTE           VOL     32
        BYTE   W05
        BYTE           N10     As3
        BYTE   W12
        BYTE                   Gn3
        BYTE   W12
// 006   ----------------------------------------
TheDarkGodsTempest_3_6:
        BYTE           N10     Cs4   v124
        BYTE   W12
        BYTE                   Gn3
        BYTE           VOL     33
        BYTE   W12
        BYTE           N10     Dn4
        BYTE   W12
        BYTE                   Gn3
        BYTE   W12
        BYTE                   En3
        BYTE           VOL     31
        BYTE   W12
        BYTE           N10     Gn3
        BYTE   W07
        BYTE           VOL     32
        BYTE   W05
        BYTE           N10     As3
        BYTE   W12
        BYTE                   Gn3
        BYTE   W12
        BYTE   PEND
// 007   ----------------------------------------
        BYTE   PATT
         POIN2  TheDarkGodsTempest_3_6
// 008   ----------------------------------------
        BYTE   PATT
         POIN2  TheDarkGodsTempest_3_6
// 009   ----------------------------------------
        BYTE           N10     Cs4   v124
        BYTE   W12
        BYTE                   Gn3
        BYTE           VOL     33
        BYTE   W12
        BYTE           N10     Dn4
        BYTE   W12
        BYTE                   Gn3
        BYTE   W60
// 010   ----------------------------------------
        BYTE   W96
// 011   ----------------------------------------
        BYTE   W96
// 012   ----------------------------------------
        BYTE   W96
// 013   ----------------------------------------
        BYTE   W96
// 014   ----------------------------------------
        BYTE   W48
        BYTE                   An2   v100
        BYTE   W12
        BYTE                   Cn3
        BYTE   W12
        BYTE                   Bn2
        BYTE   W12
        BYTE                   Cn3
        BYTE   W12
// 015   ----------------------------------------
TheDarkGodsTempest_3_15:
        BYTE           N10     An2   v100
        BYTE   W12
        BYTE                   Cn3
        BYTE   W12
        BYTE                   Bn2
        BYTE   W12
        BYTE                   Cn3
        BYTE   W12
        BYTE                   An2
        BYTE   W12
        BYTE                   Cn3
        BYTE   W12
        BYTE                   Bn2
        BYTE   W12
        BYTE                   Cn3
        BYTE   W12
        BYTE   PEND
// 016   ----------------------------------------
        BYTE   PATT
         POIN2  TheDarkGodsTempest_3_15
// 017   ----------------------------------------
        BYTE   PATT
         POIN2  TheDarkGodsTempest_3_15
// 018   ----------------------------------------
        BYTE   PATT
         POIN2  TheDarkGodsTempest_3_15
// 019   ----------------------------------------
        BYTE   PATT
         POIN2  TheDarkGodsTempest_3_15
// 020   ----------------------------------------
        BYTE   PATT
         POIN2  TheDarkGodsTempest_3_15
// 021   ----------------------------------------
        BYTE           N10     An2   v100
        BYTE   W12
        BYTE                   Cn3
        BYTE   W12
        BYTE                   Bn2
        BYTE   W12
        BYTE                   Cn3
        BYTE   W12
        BYTE                   En3
        BYTE           N10     An2
        BYTE   W12
        BYTE                   Gn3
        BYTE           N10     Cn3
        BYTE   W12
        BYTE                   Fs3
        BYTE           N10     Bn2
        BYTE   W12
        BYTE                   Gn3
        BYTE           N10     Cn3
        BYTE   W12
// 022   ----------------------------------------
        BYTE                   En3
        BYTE           N10     An2
        BYTE   W12
        BYTE                   Gn3
        BYTE           N10     Cn3
        BYTE   W12
        BYTE                   Fs3
        BYTE           N10     Bn2
        BYTE   W03
        BYTE           VOL     39
        BYTE   W08
        BYTE                   38
        BYTE   W01
        BYTE           N10     Gn3
        BYTE           N10     Cn3
        BYTE   W08
        BYTE           VOL     37
        BYTE   W04
        BYTE           N10     En3
        BYTE           N10     An2
        BYTE   W03
        BYTE           VOL     36
        BYTE   W08
        BYTE                   35
        BYTE   W01
        BYTE           N10     Gn3
        BYTE           N10     Cn3
        BYTE   W05
        BYTE           VOL     34
        BYTE   W07
        BYTE           N10     Fs3
        BYTE           N10     Bn2
        BYTE           VOL     33
        BYTE   W09
        BYTE                   32
        BYTE   W03
        BYTE           N10     Gn3
        BYTE           N10     Cn3
        BYTE   W05
        BYTE           VOL     31
        BYTE   W06
        BYTE                   30
        BYTE   W01
// 023   ----------------------------------------
        BYTE           N10     En3
        BYTE           N10     An2
        BYTE   W06
        BYTE           VOL     29
        BYTE   W06
        BYTE           N10     Gn3
        BYTE           N10     Cn3
        BYTE   W03
        BYTE           VOL     28
        BYTE   W08
        BYTE                   27
        BYTE   W01
        BYTE           N10     Fs3
        BYTE           N10     Bn2
        BYTE   W06
        BYTE           VOL     26
        BYTE   W06
        BYTE           N10     Gn3
        BYTE           N10     Cn3
        BYTE           VOL     25
        BYTE   W08
        BYTE                   24
        BYTE   W22
        BYTE           N10     En3   v127
        BYTE   W12
        BYTE                   Gn3
        BYTE   W11
        BYTE           VOL     25
        BYTE   W01
        BYTE           N12     En3   v095
        BYTE   W06
// 024   ----------------------------------------
        BYTE   W06
        BYTE           N10     An3   v127
        BYTE   W12
        BYTE           N12     En3   v095
        BYTE   W02
        BYTE           VOL     26
        BYTE   W10
        BYTE           N10     Bn3   v127
        BYTE   W12
        BYTE           N12     En3   v095
        BYTE   W03
        BYTE           VOL     27
        BYTE   W09
        BYTE           N10     Cn4   v127
        BYTE   W12
        BYTE           N12     En3   v095
        BYTE   W05
        BYTE           VOL     28
        BYTE   W07
        BYTE           N10     Bn3   v127
        BYTE   W18
// 025   ----------------------------------------
        BYTE   W02
        BYTE           VOL     29
        BYTE   W16
        BYTE           N10     En3
        BYTE   W12
        BYTE                   Gn3
        BYTE   W06
        BYTE           VOL     30
        BYTE   W06
        BYTE           N12     En3   v095
        BYTE   W12
        BYTE           N10     An3   v127
        BYTE   W08
        BYTE           VOL     31
        BYTE   W04
        BYTE           N12     En3   v095
        BYTE   W12
        BYTE           N10     Bn3   v127
        BYTE   W11
        BYTE           VOL     32
        BYTE   W01
        BYTE           N12     En3   v095
        BYTE   W06
// 026   ----------------------------------------
        BYTE   W06
        BYTE           N10     Cn4   v127
        BYTE   W12
        BYTE           N12     En3   v095
        BYTE           VOL     33
        BYTE   W12
        BYTE           N10     Bn3   v127
        BYTE   W23
        BYTE           VOL     34
        BYTE   W13
        BYTE           N10     En3
        BYTE   W12
        BYTE                   Gn3
        BYTE           VOL     35
        BYTE   W12
        BYTE           N12     En3   v095
        BYTE   W06
// 027   ----------------------------------------
        BYTE   W06
        BYTE           N10     An3   v127
        BYTE   W03
        BYTE           VOL     36
        BYTE   W09
        BYTE           N12     En3   v095
        BYTE   W12
        BYTE           N10     Bn3   v127
        BYTE   W05
        BYTE           VOL     37
        BYTE   W07
        BYTE           N12     En3   v095
        BYTE   W12
        BYTE           N10     Cn4   v127
        BYTE   W06
        BYTE           VOL     38
        BYTE   W06
        BYTE           N12     En3   v095
        BYTE   W12
        BYTE           N10     Bn3   v127
        BYTE   W17
        BYTE           VOL     39
        BYTE   W01
// 028   ----------------------------------------
        BYTE   W18
        BYTE           N10     En3
        BYTE   W12
        BYTE                   Gn3
        BYTE   W12
        BYTE           N12     En3   v095
        BYTE   W12
        BYTE           N10     An3   v127
        BYTE   W12
        BYTE           N12     En3   v095
        BYTE   W12
        BYTE           N10     Bn3   v127
        BYTE   W12
        BYTE           N12     En3   v095
        BYTE   W06
// 029   ----------------------------------------
        BYTE   W06
        BYTE           N10     Cn4   v127
        BYTE   W12
        BYTE           N12     En3   v095
        BYTE   W12
        BYTE           N10     Bn3   v127
        BYTE   W18
        BYTE   GoTo
         POIN2  TheDarkGodsTempest_3_LOOP
        BYTE   FINE

//****************** Track 4 (Midi-Chn.4) ******************//

TheDarkGodsTempest_4:
        BYTE   KEYSH   TheDarkGodsTempest_key+0
// 000   ----------------------------------------
        BYTE           VOICE   19
        BYTE           PAN     c_v+31
        BYTE   W48
TheDarkGodsTempest_4_LOOP:
        BYTE   W48
// 001   ----------------------------------------
        BYTE   W96
// 002   ----------------------------------------
        BYTE   W96
// 003   ----------------------------------------
        BYTE   W44
        BYTE   W01
        BYTE           VOL     41
        BYTE   W03
        BYTE                   42
        BYTE   W03
        BYTE                   43
        BYTE   W06
        BYTE                   44
        BYTE   W03
        BYTE                   45
        BYTE   W05
        BYTE                   46
        BYTE   W03
        BYTE                   47
        BYTE   W06
        BYTE                   48
        BYTE   W03
        BYTE                   49
        BYTE   W04
        BYTE                   50
        BYTE   W03
        BYTE                   51
        BYTE   W06
        BYTE                   52
        BYTE   W03
        BYTE                   53
        BYTE   W03
// 004   ----------------------------------------
        BYTE   W02
        BYTE                   54
        BYTE   W92
        BYTE   W02
// 005   ----------------------------------------
        BYTE   W19
        BYTE                   43
        BYTE   W01
        BYTE                   44
        BYTE   W02
        BYTE                   45
        BYTE   W02
        BYTE                   42
        BYTE   W36
        BYTE           N10     En3   v124
        BYTE           VOL     43
        BYTE   W12
        BYTE           N10     Gn3
        BYTE   W07
        BYTE           VOL     44
        BYTE   W05
        BYTE           N10     As3
        BYTE   W12
// 006   ----------------------------------------
TheDarkGodsTempest_4_6:
        BYTE           N10     Gn3   v124
        BYTE   W10
        BYTE           VOL     45
        BYTE   W02
        BYTE           N10     Cs4
        BYTE   W12
        BYTE                   Gn3
        BYTE   W12
        BYTE                   Dn4
        BYTE   W12
        BYTE                   Gn3
        BYTE   W03
        BYTE           VOL     46
        BYTE   W09
        BYTE           N10     En3
        BYTE           VOL     43
        BYTE   W12
        BYTE           N10     Gn3
        BYTE   W07
        BYTE           VOL     44
        BYTE   W05
        BYTE           N10     As3
        BYTE   W12
        BYTE   PEND
// 007   ----------------------------------------
        BYTE   PATT
         POIN2  TheDarkGodsTempest_4_6
// 008   ----------------------------------------
        BYTE   PATT
         POIN2  TheDarkGodsTempest_4_6
// 009   ----------------------------------------
        BYTE           N10     Gn3   v124
        BYTE   W10
        BYTE           VOL     45
        BYTE   W02
        BYTE           N10     Cs4
        BYTE   W12
        BYTE                   Gn3
        BYTE   W12
        BYTE                   Dn4
        BYTE   W12
        BYTE                   Gn3
        BYTE   W03
        BYTE           VOL     46
        BYTE   W44
        BYTE   W01
// 010   ----------------------------------------
        BYTE   W96
// 011   ----------------------------------------
        BYTE   W96
// 012   ----------------------------------------
        BYTE   W96
// 013   ----------------------------------------
        BYTE   W96
// 014   ----------------------------------------
        BYTE   W96
// 015   ----------------------------------------
        BYTE   W96
// 016   ----------------------------------------
        BYTE   W96
// 017   ----------------------------------------
        BYTE   W96
// 018   ----------------------------------------
        BYTE   W96
// 019   ----------------------------------------
        BYTE   W96
// 020   ----------------------------------------
        BYTE   W96
// 021   ----------------------------------------
        BYTE   W96
// 022   ----------------------------------------
        BYTE   W96
// 023   ----------------------------------------
        BYTE   W48
        BYTE                   35
        BYTE   W12
        BYTE           N10     Bn2   v127
        BYTE   W12
        BYTE                   Dn3
        BYTE   W07
        BYTE           VOL     36
        BYTE   W05
        BYTE           N10     Bn2   v100
        BYTE   W12
// 024   ----------------------------------------
        BYTE                   En3   v127
        BYTE   W11
        BYTE           VOL     37
        BYTE   W01
        BYTE           N10     Bn2   v100
        BYTE   W12
        BYTE                   Fs3   v127
        BYTE   W07
        BYTE           VOL     38
        BYTE   W05
        BYTE           N10     Bn2   v100
        BYTE   W12
        BYTE                   Gn3   v127
        BYTE   W02
        BYTE           VOL     39
        BYTE   W10
        BYTE           N10     Bn2   v100
        BYTE   W12
        BYTE                   Fs3   v127
        BYTE   W07
        BYTE           VOL     40
        BYTE   W05
        BYTE           N10     Bn2   v100
        BYTE   W12
// 025   ----------------------------------------
        BYTE   W02
        BYTE           VOL     41
        BYTE   W10
        BYTE           N10     Bn2   v127
        BYTE   W10
        BYTE           VOL     42
        BYTE   W02
        BYTE           N10     Dn3
        BYTE   W12
        BYTE                   Bn2   v100
        BYTE   W12
        BYTE                   En3   v127
        BYTE   W02
        BYTE           VOL     43
        BYTE   W10
        BYTE           N10     Bn2   v100
        BYTE   W10
        BYTE           VOL     44
        BYTE   W02
        BYTE           N10     Fs3   v127
        BYTE   W12
        BYTE                   Bn2   v100
        BYTE   W04
        BYTE           VOL     45
        BYTE   W08
// 026   ----------------------------------------
        BYTE           N10     Gn3   v127
        BYTE   W12
        BYTE                   Bn2   v100
        BYTE   W10
        BYTE           VOL     46
        BYTE   W02
        BYTE           N10     Fs3   v127
        BYTE   W12
        BYTE                   Bn2   v100
        BYTE   W05
        BYTE           VOL     47
        BYTE   W18
        BYTE                   48
        BYTE   W01
        BYTE           N10     Bn2   v127
        BYTE   W12
        BYTE                   Dn3
        BYTE   W12
        BYTE                   Bn2   v100
        BYTE   W05
        BYTE           VOL     49
        BYTE   W07
// 027   ----------------------------------------
        BYTE           N10     En3   v127
        BYTE   W11
        BYTE           VOL     50
        BYTE   W01
        BYTE           N10     Bn2   v100
        BYTE   W12
        BYTE                   Fs3   v127
        BYTE   W07
        BYTE           VOL     51
        BYTE   W05
        BYTE           N10     Bn2   v100
        BYTE   W12
        BYTE                   Gn3   v127
        BYTE   W11
        BYTE           VOL     52
        BYTE   W01
        BYTE           N10     Bn2   v100
        BYTE   W12
        BYTE                   Fs3   v127
        BYTE   W07
        BYTE           VOL     53
        BYTE   W05
        BYTE           N10     Bn2   v100
        BYTE   W12
// 028   ----------------------------------------
        BYTE   W02
        BYTE           VOL     54
        BYTE   W10
        BYTE           N10     Bn2   v127
        BYTE   W12
        BYTE                   Dn3
        BYTE   W12
        BYTE                   Bn2   v100
        BYTE   W12
        BYTE                   En3   v127
        BYTE   W12
        BYTE                   Bn2   v100
        BYTE   W12
        BYTE                   Fs3   v127
        BYTE   W12
        BYTE                   Bn2   v100
        BYTE   W12
// 029   ----------------------------------------
        BYTE                   Gn3   v127
        BYTE   W12
        BYTE                   Bn2   v100
        BYTE   W12
        BYTE                   Fs3   v127
        BYTE   W12
        BYTE                   Bn2   v100
        BYTE   W12
        BYTE           VOL     100
        BYTE   GoTo
         POIN2  TheDarkGodsTempest_4_LOOP
        BYTE   FINE

//****************** Track 5 (Midi-Chn.5) ******************//

TheDarkGodsTempest_5:
        BYTE   KEYSH   TheDarkGodsTempest_key+0
// 000   ----------------------------------------
        BYTE           VOICE   18
        BYTE           VOL     58
        BYTE   W01
        BYTE                   45
        BYTE   W06
        BYTE                   46
        BYTE   W03
        BYTE                   47
        BYTE   W03
        BYTE                   48
        BYTE   W04
        BYTE                   49
        BYTE   W03
        BYTE                   50
        BYTE   W06
        BYTE                   51
        BYTE   W03
        BYTE                   52
        BYTE   W05
        BYTE                   53
        BYTE   W03
        BYTE                   54
        BYTE   W03
        BYTE                   55
        BYTE   W06
        BYTE                   56
        BYTE   W02
TheDarkGodsTempest_5_LOOP:
        BYTE   W01
        BYTE           VOL     57
        BYTE   W44
        BYTE   W03
// 001   ----------------------------------------
        BYTE   W96
// 002   ----------------------------------------
        BYTE   W96
// 003   ----------------------------------------
        BYTE   W96
// 004   ----------------------------------------
        BYTE   W22
        BYTE                   38
        BYTE   W03
        BYTE                   39
        BYTE   W06
        BYTE                   40
        BYTE   W09
        BYTE                   41
        BYTE   W06
        BYTE                   42
        BYTE   W06
        BYTE                   43
        BYTE   W06
        BYTE                   44
        BYTE   W04
        BYTE                   45
        BYTE   W09
        BYTE                   46
        BYTE   W06
        BYTE                   47
        BYTE   W06
        BYTE                   48
        BYTE   W06
        BYTE                   49
        BYTE   W05
        BYTE                   50
        BYTE   W02
// 005   ----------------------------------------
        BYTE   W04
        BYTE                   47
        BYTE   W03
        BYTE                   51
        BYTE   W06
        BYTE                   52
        BYTE   W06
        BYTE                   53
        BYTE   W06
        BYTE                   54
        BYTE   W06
        BYTE                   55
        BYTE   W07
        BYTE                   56
        BYTE   W06
        BYTE                   57
        BYTE   W04
        BYTE           TIE     En1   v100
        BYTE   W02
        BYTE           VOL     58
        BYTE   W44
        BYTE   W02
// 006   ----------------------------------------
        BYTE   W96
// 007   ----------------------------------------
        BYTE   W96
// 008   ----------------------------------------
        BYTE   W42
        BYTE   W01
        BYTE                   39
        BYTE   W06
        BYTE                   40
        BYTE   W07
        BYTE                   41
        BYTE   W06
        BYTE                   42
        BYTE   W05
        BYTE                   43
        BYTE   W06
        BYTE                   44
        BYTE   W04
        BYTE                   45
        BYTE   W08
        BYTE                   46
        BYTE   W06
        BYTE                   47
        BYTE   W04
        BYTE                   48
        BYTE   W01
// 009   ----------------------------------------
        BYTE   W05
        BYTE                   49
        BYTE   W05
        BYTE                   50
        BYTE   W09
        BYTE                   51
        BYTE   W04
        BYTE                   52
        BYTE   W06
        BYTE                   53
        BYTE   W05
        BYTE                   54
        BYTE   W06
        BYTE                   55
        BYTE   W07
        BYTE                   56
        BYTE   W01
        BYTE           EOT
        BYTE           N32
        BYTE   W04
        BYTE           VOL     57
        BYTE   W32
        BYTE           N32     As1
        BYTE   W12
// 010   ----------------------------------------
        BYTE   PATT
         POIN2  TheDarkGodsTempest_2_1
// 011   ----------------------------------------
        BYTE   PATT
         POIN2  TheDarkGodsTempest_2_2
// 012   ----------------------------------------
        BYTE   PATT
         POIN2  TheDarkGodsTempest_2_3
// 013   ----------------------------------------
        BYTE           N21     As1   v100
        BYTE   W24
        BYTE           N32     En1
        BYTE   W01
        BYTE           VOL     39
        BYTE   W06
        BYTE                   40
        BYTE   W09
        BYTE                   41
        BYTE   W06
        BYTE                   42
        BYTE   W06
        BYTE                   43
        BYTE   W06
        BYTE                   44
        BYTE   W02
        BYTE           N32     As1
        BYTE   W02
        BYTE           VOL     45
        BYTE   W09
        BYTE                   46
        BYTE   W06
        BYTE                   47
        BYTE   W06
        BYTE                   48
        BYTE   W06
        BYTE                   49
        BYTE   W05
        BYTE                   50
        BYTE   W02
// 014   ----------------------------------------
        BYTE           N21     Fs2
        BYTE   W07
        BYTE           VOL     51
        BYTE   W06
        BYTE                   52
        BYTE   W06
        BYTE                   53
        BYTE   W05
        BYTE           N21     As1
        BYTE   W01
        BYTE           VOL     54
        BYTE   W06
        BYTE                   55
        BYTE   W07
        BYTE                   56
        BYTE   W06
        BYTE                   57
        BYTE   W04
        BYTE           TIE     An1
        BYTE   W02
        BYTE           VOL     58
        BYTE   W44
        BYTE   W02
// 015   ----------------------------------------
        BYTE   W96
// 016   ----------------------------------------
        BYTE   W96
// 017   ----------------------------------------
        BYTE   W96
// 018   ----------------------------------------
        BYTE   W96
// 019   ----------------------------------------
        BYTE   W96
// 020   ----------------------------------------
        BYTE   W96
// 021   ----------------------------------------
        BYTE   W96
// 022   ----------------------------------------
        BYTE   W96
// 023   ----------------------------------------
        BYTE   W48
        BYTE           EOT
        BYTE           TIE     En1
        BYTE   W48
// 024   ----------------------------------------
        BYTE   W96
// 025   ----------------------------------------
TheDarkGodsTempest_5_25:
        BYTE           EOT     En1
        BYTE           TIE     En1   v100
        BYTE   W96
        BYTE   PEND
// 026   ----------------------------------------
        BYTE   W48
        BYTE           EOT
        BYTE           TIE
        BYTE   W48
// 027   ----------------------------------------
        BYTE   W96
// 028   ----------------------------------------
        BYTE   PATT
         POIN2  TheDarkGodsTempest_5_25
// 029   ----------------------------------------
        BYTE   W48
        BYTE           EOT     En1
        BYTE           VOL     56
        BYTE   GoTo
         POIN2  TheDarkGodsTempest_5_LOOP
        BYTE   FINE

//****************** Track 6 (Midi-Chn.6) ******************//

TheDarkGodsTempest_6:
        BYTE   KEYSH   TheDarkGodsTempest_key+0
// 000   ----------------------------------------
        BYTE           VOICE   14
        BYTE           VOL     59
        BYTE           PAN     c_v-33
        BYTE   W48
TheDarkGodsTempest_6_LOOP:
        BYTE   W48
// 001   ----------------------------------------
        BYTE   W96
// 002   ----------------------------------------
        BYTE   W96
// 003   ----------------------------------------
        BYTE   W96
// 004   ----------------------------------------
        BYTE   W76
        BYTE           VOL     50
        BYTE   W20
// 005   ----------------------------------------
        BYTE   W96
// 006   ----------------------------------------
        BYTE   W96
// 007   ----------------------------------------
        BYTE   W96
// 008   ----------------------------------------
        BYTE   W96
// 009   ----------------------------------------
        BYTE   W96
// 010   ----------------------------------------
        BYTE   W96
// 011   ----------------------------------------
        BYTE   W96
// 012   ----------------------------------------
        BYTE   W96
// 013   ----------------------------------------
        BYTE   W96
// 014   ----------------------------------------
        BYTE   W96
// 015   ----------------------------------------
        BYTE   W96
// 016   ----------------------------------------
        BYTE   W96
// 017   ----------------------------------------
        BYTE   W96
// 018   ----------------------------------------
        BYTE   W96
// 019   ----------------------------------------
        BYTE   W96
// 020   ----------------------------------------
        BYTE   W96
// 021   ----------------------------------------
        BYTE   W96
// 022   ----------------------------------------
        BYTE   W96
// 023   ----------------------------------------
        BYTE   W44
        BYTE   W01
        BYTE                   35
        BYTE   W18
        BYTE                   36
        BYTE   W03
        BYTE           N84     Bn2   v096
        BYTE   W15
        BYTE           VOL     37
        BYTE   W15
// 024   ----------------------------------------
        BYTE   W02
        BYTE                   38
        BYTE   W18
        BYTE                   39
        BYTE   W16
        BYTE                   40
        BYTE   W24
        BYTE   W03
        BYTE                   41
        BYTE   W17
        BYTE                   42
        BYTE   W16
// 025   ----------------------------------------
        BYTE   W02
        BYTE                   43
        BYTE   W16
        BYTE           N84     Bn2   v106
        BYTE           VOL     44
        BYTE   W18
        BYTE                   45
        BYTE   W17
        BYTE                   46
        BYTE   W18
        BYTE                   47
        BYTE   W24
        BYTE   W01
// 026   ----------------------------------------
        BYTE                   48
        BYTE   W18
        BYTE                   49
        BYTE   W17
        BYTE                   50
        BYTE   W18
        BYTE                   51
        BYTE   W13
        BYTE           N84     Bn2   v116
        BYTE   W05
        BYTE           VOL     52
        BYTE   W16
        BYTE                   53
        BYTE   W09
// 027   ----------------------------------------
        BYTE   W17
        BYTE                   54
        BYTE   W18
        BYTE                   55
        BYTE   W18
        BYTE                   56
        BYTE   W16
        BYTE                   57
        BYTE   W18
        BYTE                   58
        BYTE   W09
// 028   ----------------------------------------
        BYTE   W08
        BYTE                   59
        BYTE   W10
        BYTE           N84     Bn2   v126
        BYTE   W78
// 029   ----------------------------------------
        BYTE   W48
        BYTE   GoTo
         POIN2  TheDarkGodsTempest_6_LOOP
        BYTE   FINE

//****************** Track 7 (Midi-Chn.7) ******************//

TheDarkGodsTempest_7:
        BYTE   KEYSH   TheDarkGodsTempest_key+0
// 000   ----------------------------------------
        BYTE           VOICE   124
        BYTE           VOL     48
        BYTE           N03     Dn2   v100
        BYTE           N48     En2   v126
        BYTE           N05     As2   v100
        BYTE   W01
        BYTE           VOL     44
        BYTE   W01
        BYTE                   45
        BYTE   W01
        BYTE                   48
        BYTE           N03     Dn2
        BYTE   W01
        BYTE           VOL     45
        BYTE   W02
        BYTE                   49
        BYTE           N03
        BYTE           N05     As2
        BYTE   W01
        BYTE           VOL     45
        BYTE   W01
        BYTE                   46
        BYTE   W01
        BYTE                   49
        BYTE           N03     Dn2
        BYTE   W01
        BYTE           VOL     46
        BYTE   W01
        BYTE                   47
        BYTE   W01
        BYTE                   50
        BYTE           N03
        BYTE           N05     As2
        BYTE   W01
        BYTE           VOL     47
        BYTE   W02
        BYTE                   50
        BYTE           N03     Dn2
        BYTE   W01
        BYTE           VOL     48
        BYTE   W02
        BYTE                   51
        BYTE           N03
        BYTE           N05     As2
        BYTE   W01
        BYTE           VOL     49
        BYTE   W02
        BYTE                   52
        BYTE           N03     Dn2
        BYTE   W01
        BYTE           VOL     49
        BYTE   W02
        BYTE                   52
        BYTE           N03
        BYTE           N05     As2
        BYTE   W01
        BYTE           VOL     50
        BYTE   W02
        BYTE                   53
        BYTE           N03     Dn2
        BYTE   W01
        BYTE           VOL     51
        BYTE   W02
        BYTE                   53
        BYTE           N03
        BYTE           N05     As2
        BYTE   W01
        BYTE           VOL     52
        BYTE   W02
        BYTE                   54
        BYTE           N03     Dn2
        BYTE   W01
        BYTE           VOL     52
        BYTE   W01
        BYTE                   53
        BYTE   W01
        BYTE                   54
        BYTE           N03
        BYTE           N05     As2
        BYTE   W01
        BYTE           VOL     53
        BYTE   W02
        BYTE                   55
        BYTE           N03     Dn2
        BYTE   W01
        BYTE           VOL     54
        BYTE   W02
        BYTE           N03
        BYTE           N05     As2
        BYTE   W02
        BYTE           VOL     55
        BYTE   W01
        BYTE           N03     Dn2
        BYTE   W02
        BYTE           VOL     56
        BYTE   W01
TheDarkGodsTempest_7_LOOP:
        BYTE           N09     Dn2   v100
        BYTE           N96     An2
        BYTE           N96     As2
        BYTE           N06     En3
        BYTE   W12
        BYTE           N03     Dn2
        BYTE   W24
        BYTE           N09
        BYTE           N06     Ds3
        BYTE   W12
// 001   ----------------------------------------
TheDarkGodsTempest_7_1:
        BYTE           N03     Dn2   v100
        BYTE   W06
        BYTE                   Dn2
        BYTE   W06
        BYTE           N09
        BYTE   W12
        BYTE           N03
        BYTE           N06     En3
        BYTE   W12
        BYTE           N03     Dn2
        BYTE   W12
        BYTE                   Dn2
        BYTE           N06     Ds3
        BYTE   W12
        BYTE           N03     Dn2
        BYTE   W12
        BYTE           N09
        BYTE           N06     En3
        BYTE   W12
        BYTE           N03     Dn2
        BYTE   W12
        BYTE   PEND
// 002   ----------------------------------------
TheDarkGodsTempest_7_2:
        BYTE   W12
        BYTE           N09     Dn2   v100
        BYTE           N06     Ds3
        BYTE   W12
        BYTE           N03     Dn2
        BYTE   W06
        BYTE                   Dn2
        BYTE   W06
        BYTE           N09
        BYTE   W12
        BYTE           N03
        BYTE           N06     En3
        BYTE   W12
        BYTE           N03     Dn2
        BYTE   W12
        BYTE                   Dn2
        BYTE           N06     Ds3
        BYTE   W12
        BYTE           N03     Dn2
        BYTE   W12
        BYTE   PEND
// 003   ----------------------------------------
TheDarkGodsTempest_7_3:
        BYTE           N09     Dn2   v100
        BYTE           N06     En3
        BYTE   W12
        BYTE           N03     Dn2
        BYTE   W24
        BYTE           N09
        BYTE           N06     Ds3
        BYTE   W12
        BYTE           N03     Dn2
        BYTE   W06
        BYTE                   Dn2
        BYTE   W06
        BYTE           N09
        BYTE   W12
        BYTE           N03
        BYTE           N06     En3
        BYTE   W12
        BYTE           N03     Dn2
        BYTE   W12
        BYTE   PEND
// 004   ----------------------------------------
        BYTE                   Dn2
        BYTE           N06     Ds3
        BYTE   W12
        BYTE           N03     Dn2
        BYTE   W10
        BYTE           VOL     38
        BYTE   W02
        BYTE           N09
        BYTE           N05     As2
        BYTE           N06     En3
        BYTE   W04
        BYTE           VOL     39
        BYTE   W02
        BYTE           N05     As2
        BYTE   W04
        BYTE           VOL     40
        BYTE   W02
        BYTE           N03     Dn2
        BYTE           N05     As2
        BYTE   W06
        BYTE                   As2
        BYTE   W01
        BYTE           VOL     41
        BYTE   W05
        BYTE           N05
        BYTE   W01
        BYTE           VOL     42
        BYTE   W05
        BYTE           N05
        BYTE   W01
        BYTE           VOL     43
        BYTE   W04
        BYTE                   44
        BYTE   W01
        BYTE           N09     Dn2
        BYTE           N05     As2
        BYTE           N06     Ds3
        BYTE   W05
        BYTE           VOL     45
        BYTE   W01
        BYTE           N05     As2
        BYTE   W06
        BYTE           N03     Dn2
        BYTE           N05     As2
        BYTE   W02
        BYTE           VOL     46
        BYTE   W04
        BYTE           N03     Dn2
        BYTE           N05     As2
        BYTE   W02
        BYTE           VOL     47
        BYTE   W04
        BYTE           N09     Dn2
        BYTE           N05     As2
        BYTE   W02
        BYTE           VOL     48
        BYTE   W04
        BYTE           N05
        BYTE   W02
        BYTE           VOL     49
        BYTE   W04
// 005   ----------------------------------------
        BYTE           N03     Dn2
        BYTE           N96     An2
        BYTE           N05     As2
        BYTE           N06     En3
        BYTE   W04
        BYTE           VOL     46
        BYTE   W02
        BYTE           N05     As2
        BYTE           VOL     47
        BYTE   W01
        BYTE                   50
        BYTE   W03
        BYTE                   51
        BYTE   W02
        BYTE           N03     Dn2
        BYTE           N05     As2
        BYTE   W04
        BYTE           VOL     52
        BYTE   W02
        BYTE           N05
        BYTE   W04
        BYTE           VOL     53
        BYTE   W02
        BYTE           N03     Dn2
        BYTE           N05     As2
        BYTE           N06     Ds3
        BYTE   W06
        BYTE           N05     As2
        BYTE   W01
        BYTE           VOL     54
        BYTE   W04
        BYTE                   55
        BYTE   W01
        BYTE           N03     Dn2
        BYTE           N05     As2
        BYTE   W05
        BYTE           VOL     56
        BYTE   W01
        BYTE           N05
        BYTE   W05
        BYTE           VOL     57
        BYTE   W01
        BYTE           N03     Dn1
        BYTE           N09     Dn2
        BYTE           N96     As2
        BYTE           N06     En3
        BYTE   W12
        BYTE           N03     Dn2
        BYTE   W12
        BYTE                   Dn1
        BYTE           N03     Cn1
        BYTE           N09     Dn2
        BYTE           N06     Ds3
        BYTE   W12
        BYTE           N03     Dn2
        BYTE   W12
// 006   ----------------------------------------
TheDarkGodsTempest_7_6:
        BYTE           N03     Dn1   v100
        BYTE           N09     Dn2
        BYTE           N06     En3
        BYTE   W12
        BYTE           N03     Dn2
        BYTE   W12
        BYTE                   Dn1
        BYTE           N03     Cn1
        BYTE           N09     Dn2
        BYTE           N06     Ds3
        BYTE   W12
        BYTE           N03     Dn2
        BYTE   W12
        BYTE                   Dn1
        BYTE           N09     Dn2
        BYTE           N06     En3
        BYTE   W12
        BYTE           N03     Dn2
        BYTE   W12
        BYTE                   Dn1
        BYTE           N03     Cn1
        BYTE           N09     Dn2
        BYTE           N06     Ds3
        BYTE   W12
        BYTE           N03     Dn2
        BYTE   W12
        BYTE   PEND
// 007   ----------------------------------------
        BYTE   PATT
         POIN2  TheDarkGodsTempest_7_6
// 008   ----------------------------------------
        BYTE           N03     Dn1   v100
        BYTE           N09     Dn2
        BYTE           N06     En3
        BYTE   W12
        BYTE           N03     Dn2
        BYTE   W12
        BYTE                   Dn1
        BYTE           N03     Cn1
        BYTE           N09     Dn2
        BYTE           N06     Ds3
        BYTE   W12
        BYTE           N03     Dn2
        BYTE   W07
        BYTE           VOL     38
        BYTE   W03
        BYTE                   39
        BYTE   W02
        BYTE           N03
        BYTE           N03     Dn1
        BYTE           N05     As2
        BYTE           N06     En3
        BYTE   W04
        BYTE           VOL     40
        BYTE   W02
        BYTE           N03     Dn2
        BYTE           N05     As2
        BYTE   W05
        BYTE           VOL     41
        BYTE   W01
        BYTE           N03     Dn2
        BYTE           N05     As2
        BYTE   W04
        BYTE           VOL     42
        BYTE   W02
        BYTE           N03     Dn2
        BYTE           N05     As2
        BYTE   W04
        BYTE           VOL     43
        BYTE   W02
        BYTE           N03     Dn1
        BYTE           N03     Dn2
        BYTE           N03     Cn1
        BYTE           N05     As2
        BYTE           N06     Ds3
        BYTE   W02
        BYTE           VOL     44
        BYTE   W04
        BYTE           N03     Dn2
        BYTE           N05     As2
        BYTE   W02
        BYTE           VOL     45
        BYTE   W04
        BYTE           N03     Dn2
        BYTE           N05     As2
        BYTE   W04
        BYTE           VOL     46
        BYTE   W02
        BYTE           N03     Dn2
        BYTE           N05     As2
        BYTE   W04
        BYTE           VOL     47
        BYTE   W02
// 009   ----------------------------------------
        BYTE           N03     Dn2
        BYTE           N03     Dn1
        BYTE           N05     As2
        BYTE           N06     En3
        BYTE   W02
        BYTE           VOL     48
        BYTE   W01
        BYTE           N03     Dn2
        BYTE   W03
        BYTE                   Dn2
        BYTE           N05     As2
        BYTE   W02
        BYTE           VOL     49
        BYTE   W01
        BYTE           N03     Dn2
        BYTE   W03
        BYTE                   Dn2
        BYTE           N05     As2
        BYTE   W03
        BYTE           N03     Dn2
        BYTE   W01
        BYTE           VOL     50
        BYTE   W02
        BYTE           N03
        BYTE           N05     As2
        BYTE   W02
        BYTE           VOL     51
        BYTE   W01
        BYTE           N03     Dn2
        BYTE   W03
        BYTE                   Dn1
        BYTE           N03     Dn2
        BYTE           N03     Cn1
        BYTE           N05     As2
        BYTE           N06     Ds3
        BYTE   W02
        BYTE           VOL     52
        BYTE   W01
        BYTE           N03     Dn2
        BYTE   W03
        BYTE                   Dn2
        BYTE           N05     As2
        BYTE   W01
        BYTE           VOL     53
        BYTE   W02
        BYTE           N03     Dn2
        BYTE   W03
        BYTE                   Dn2
        BYTE           N05     As2
        BYTE   W03
        BYTE           N03     Dn2
        BYTE   W01
        BYTE           VOL     54
        BYTE   W02
        BYTE           N03
        BYTE           N05     As2
        BYTE   W02
        BYTE           VOL     55
        BYTE   W01
        BYTE           N03     Dn2
        BYTE   W03
        BYTE           N96     An2
        BYTE           N09     Dn2
        BYTE           N96     As2
        BYTE           N06     En3
        BYTE   W02
        BYTE           VOL     56
        BYTE   W05
        BYTE                   57
        BYTE   W05
        BYTE           N03     Dn2
        BYTE   W24
        BYTE           N09
        BYTE           N06     Ds3
        BYTE   W12
// 010   ----------------------------------------
        BYTE   PATT
         POIN2  TheDarkGodsTempest_7_1
// 011   ----------------------------------------
        BYTE   PATT
         POIN2  TheDarkGodsTempest_7_2
// 012   ----------------------------------------
        BYTE   PATT
         POIN2  TheDarkGodsTempest_7_3
// 013   ----------------------------------------
        BYTE           N03     Dn2   v100
        BYTE           N06     Ds3
        BYTE   W12
        BYTE           N03     Dn2
        BYTE   W12
        BYTE           N09
        BYTE           N05     As2
        BYTE           N06     En3
        BYTE   W01
        BYTE           VOL     38
        BYTE   W03
        BYTE                   39
        BYTE   W02
        BYTE           N05     As2
        BYTE   W04
        BYTE           VOL     40
        BYTE   W02
        BYTE           N03     Dn2
        BYTE           N05     As2
        BYTE   W06
        BYTE                   As2
        BYTE   W01
        BYTE           VOL     41
        BYTE   W05
        BYTE           N05
        BYTE   W01
        BYTE           VOL     42
        BYTE   W05
        BYTE           N05
        BYTE   W01
        BYTE           VOL     43
        BYTE   W04
        BYTE                   44
        BYTE   W01
        BYTE           N09     Dn2
        BYTE           N05     As2
        BYTE           N06     Ds3
        BYTE   W05
        BYTE           VOL     45
        BYTE   W01
        BYTE           N05     As2
        BYTE   W06
        BYTE           N03     Dn2
        BYTE           N05     As2
        BYTE   W02
        BYTE           VOL     46
        BYTE   W04
        BYTE           N03     Dn2
        BYTE           N05     As2
        BYTE   W02
        BYTE           VOL     47
        BYTE   W04
        BYTE           N09     Dn2
        BYTE           N05     As2
        BYTE   W02
        BYTE           VOL     48
        BYTE   W04
        BYTE           N05
        BYTE   W02
        BYTE           VOL     49
        BYTE   W04
// 014   ----------------------------------------
        BYTE           N03     Dn2
        BYTE           N96     An2
        BYTE           N05     As2
        BYTE           N06     En3
        BYTE   W04
        BYTE           VOL     50
        BYTE   W02
        BYTE           N05     As2
        BYTE   W04
        BYTE           VOL     51
        BYTE   W02
        BYTE           N03     Dn2
        BYTE           N05     As2
        BYTE   W04
        BYTE           VOL     52
        BYTE   W02
        BYTE           N05
        BYTE   W04
        BYTE           VOL     53
        BYTE   W02
        BYTE           N03     Dn2
        BYTE           N05     As2
        BYTE           N06     Ds3
        BYTE   W06
        BYTE           N05     As2
        BYTE   W01
        BYTE           VOL     54
        BYTE   W04
        BYTE                   55
        BYTE   W01
        BYTE           N03     Dn2
        BYTE           N05     As2
        BYTE   W05
        BYTE           VOL     56
        BYTE   W01
        BYTE           N05
        BYTE   W05
        BYTE           VOL     57
        BYTE   W01
        BYTE           N96
        BYTE   W48
// 015   ----------------------------------------
        BYTE   W96
// 016   ----------------------------------------
        BYTE   W96
// 017   ----------------------------------------
        BYTE   W96
// 018   ----------------------------------------
        BYTE   W96
// 019   ----------------------------------------
        BYTE   W96
// 020   ----------------------------------------
        BYTE   W96
// 021   ----------------------------------------
        BYTE   W96
// 022   ----------------------------------------
        BYTE           TIE     En2   v096
        BYTE   W96
// 023   ----------------------------------------
        BYTE   W48
        BYTE           EOT
        BYTE   W48
// 024   ----------------------------------------
        BYTE   W96
// 025   ----------------------------------------
        BYTE   W96
// 026   ----------------------------------------
        BYTE   W96
// 027   ----------------------------------------
        BYTE   W92
        BYTE   W03
        BYTE           VOL     39
        BYTE   W01
// 028   ----------------------------------------
        BYTE           N05     As2   v100
        BYTE   W04
        BYTE           VOL     40
        BYTE   W02
        BYTE           N05
        BYTE   W06
        BYTE           N09     Dn2
        BYTE           N05     As2
        BYTE   W02
        BYTE           VOL     41
        BYTE   W04
        BYTE           N05
        BYTE   W04
        BYTE           VOL     42
        BYTE   W02
        BYTE           N03     Dn2
        BYTE           N05     As2
        BYTE   W05
        BYTE           VOL     43
        BYTE   W01
        BYTE           N05
        BYTE   W05
        BYTE           VOL     44
        BYTE   W01
        BYTE           N05
        BYTE   W06
        BYTE                   As2
        BYTE   W01
        BYTE           VOL     45
        BYTE   W05
        BYTE           N09     Dn2
        BYTE           N05     As2
        BYTE   W05
        BYTE           VOL     46
        BYTE   W01
        BYTE           N05
        BYTE   W06
        BYTE           N03     Dn2
        BYTE           N05     As2
        BYTE   W01
        BYTE           VOL     47
        BYTE   W05
        BYTE           N03     Dn2
        BYTE           N05     As2
        BYTE   W02
        BYTE           VOL     48
        BYTE   W04
        BYTE           N09     Dn2
        BYTE           N05     As2
        BYTE   W04
        BYTE           VOL     49
        BYTE   W02
        BYTE           N05
        BYTE   W06
        BYTE           N03     Dn2
        BYTE           N05     As2
        BYTE   W02
        BYTE           VOL     50
        BYTE   W04
        BYTE           N05
        BYTE   W04
        BYTE           VOL     51
        BYTE   W02
// 029   ----------------------------------------
        BYTE           N03     Dn2
        BYTE           N05     As2
        BYTE   W04
        BYTE           VOL     52
        BYTE   W02
        BYTE           N05
        BYTE   W03
        BYTE           N03     Dn2
        BYTE   W02
        BYTE           VOL     53
        BYTE   W01
        BYTE           N05     As2
        BYTE   W03
        BYTE           N03     Dn2
        BYTE   W03
        BYTE           N05     As2
        BYTE   W03
        BYTE           N03     Dn2
        BYTE   W01
        BYTE           VOL     54
        BYTE   W02
        BYTE           N03
        BYTE           N05     As2
        BYTE   W03
        BYTE           N03     Dn2
        BYTE   W02
        BYTE           VOL     55
        BYTE   W01
        BYTE           N03
        BYTE           N05     As2
        BYTE   W03
        BYTE           N03     Dn2
        BYTE   W03
        BYTE                   Dn2
        BYTE           N05     As2
        BYTE   W01
        BYTE           VOL     56
        BYTE   W02
        BYTE           N03     Dn2
        BYTE   W03
        BYTE                   Dn2
        BYTE           N05     As2
        BYTE   W02
        BYTE           VOL     57
        BYTE   W01
        BYTE           N03     Dn2
        BYTE   W03
        BYTE           VOL     56
        BYTE   GoTo
         POIN2  TheDarkGodsTempest_7_LOOP
        BYTE   FINE

//****************** Track 8 (Midi-Chn.8) ******************//

TheDarkGodsTempest_8:
        BYTE   KEYSH   TheDarkGodsTempest_key+0
// 000   ----------------------------------------
        BYTE           VOICE   109
        BYTE           VOL     35
        BYTE           PAN     c_v+46
        BYTE   W36
        BYTE   W01
        BYTE           VOL     30
        BYTE   W03
        BYTE                   31
        BYTE   W03
        BYTE                   32
        BYTE   W05
TheDarkGodsTempest_8_LOOP:
        BYTE           VOL     33
        BYTE   W03
        BYTE           N32     En2   v100
        BYTE   W36
        BYTE                   As2
        BYTE   W09
// 001   ----------------------------------------
TheDarkGodsTempest_8_1:
        BYTE   W24
        BYTE   W03
        BYTE           N21     Fs3   v100
        BYTE   W24
        BYTE                   As2
        BYTE   W24
        BYTE           N32     En2
        BYTE   W21
        BYTE   PEND
// 002   ----------------------------------------
TheDarkGodsTempest_8_2:
        BYTE   W15
        BYTE           N32     As2   v100
        BYTE   W36
        BYTE           N21     Fs3
        BYTE   W24
        BYTE                   As2
        BYTE   W21
        BYTE   PEND
// 003   ----------------------------------------
TheDarkGodsTempest_8_3:
        BYTE   W03
        BYTE           N32     En2   v100
        BYTE   W36
        BYTE                   As2
        BYTE   W36
        BYTE           N21     Fs3
        BYTE   W21
        BYTE   PEND
// 004   ----------------------------------------
TheDarkGodsTempest_8_4:
        BYTE   W03
        BYTE           N21     As2   v100
        BYTE   W24
        BYTE           N32     En2
        BYTE   W36
        BYTE                   As2
        BYTE   W32
        BYTE   W01
        BYTE   PEND
// 005   ----------------------------------------
        BYTE   W03
        BYTE           N21     Fs3
        BYTE   W24
        BYTE                   As2
        BYTE   W48
        BYTE                   En4
        BYTE           N21     En3
        BYTE   W21
// 006   ----------------------------------------
TheDarkGodsTempest_8_6:
        BYTE   W24
        BYTE   W03
        BYTE           N21     Fs4   v100
        BYTE           N21     Fs3
        BYTE   W48
        BYTE                   En4
        BYTE           N21     En3
        BYTE   W21
        BYTE   PEND
// 007   ----------------------------------------
        BYTE   PATT
         POIN2  TheDarkGodsTempest_8_6
// 008   ----------------------------------------
        BYTE   PATT
         POIN2  TheDarkGodsTempest_8_6
// 009   ----------------------------------------
        BYTE   W24
        BYTE   W03
        BYTE           N21     Fs4   v100
        BYTE           N21     Fs3
        BYTE   W24
        BYTE           N32     En2
        BYTE   W36
        BYTE                   As2
        BYTE   W09
// 010   ----------------------------------------
        BYTE   PATT
         POIN2  TheDarkGodsTempest_8_1
// 011   ----------------------------------------
        BYTE   PATT
         POIN2  TheDarkGodsTempest_8_2
// 012   ----------------------------------------
        BYTE   PATT
         POIN2  TheDarkGodsTempest_8_3
// 013   ----------------------------------------
        BYTE   PATT
         POIN2  TheDarkGodsTempest_8_4
// 014   ----------------------------------------
        BYTE   W03
        BYTE           N21     Fs3   v100
        BYTE   W24
        BYTE                   As2
        BYTE   W68
        BYTE   W01
// 015   ----------------------------------------
        BYTE   W96
// 016   ----------------------------------------
TheDarkGodsTempest_8_16:
        BYTE   W03
        BYTE           N10     An2   v100
        BYTE   W12
        BYTE                   Cn3
        BYTE   W12
        BYTE                   Bn2
        BYTE   W12
        BYTE                   Cn3
        BYTE   W12
        BYTE                   An2
        BYTE   W12
        BYTE                   Cn3
        BYTE   W12
        BYTE                   Bn2
        BYTE   W12
        BYTE                   Cn3
        BYTE   W09
        BYTE   PEND
// 017   ----------------------------------------
        BYTE   PATT
         POIN2  TheDarkGodsTempest_8_16
// 018   ----------------------------------------
        BYTE   PATT
         POIN2  TheDarkGodsTempest_8_16
// 019   ----------------------------------------
        BYTE   PATT
         POIN2  TheDarkGodsTempest_8_16
// 020   ----------------------------------------
        BYTE   PATT
         POIN2  TheDarkGodsTempest_8_16
// 021   ----------------------------------------
        BYTE   PATT
         POIN2  TheDarkGodsTempest_8_16
// 022   ----------------------------------------
        BYTE   W03
        BYTE           N10     An2   v100
        BYTE   W12
        BYTE                   Cn3
        BYTE   W12
        BYTE                   Bn2
        BYTE   W12
        BYTE                   Cn3
        BYTE   W08
        BYTE           VOL     32
        BYTE   W04
        BYTE           N10     An2
        BYTE   W08
        BYTE           VOL     31
        BYTE   W04
        BYTE           N10     Cn3
        BYTE   W05
        BYTE           VOL     30
        BYTE   W07
        BYTE           N10     Bn2
        BYTE   W06
        BYTE           VOL     29
        BYTE   W06
        BYTE           N10     Cn3
        BYTE   W03
        BYTE           VOL     28
        BYTE   W06
// 023   ----------------------------------------
        BYTE   W03
        BYTE           N10     An2
        BYTE   W03
        BYTE           VOL     27
        BYTE   W09
        BYTE           N10     Cn3
        BYTE   W05
        BYTE           VOL     26
        BYTE   W07
        BYTE           N10     Bn2
        BYTE   W02
        BYTE           VOL     25
        BYTE   W10
        BYTE           N08     Cn3
        BYTE   W02
        BYTE           VOL     24
        BYTE   W08
        BYTE                   23
        BYTE   W02
        BYTE           N10     Bn2
        BYTE   W12
        BYTE                   Dn3
        BYTE   W12
        BYTE                   Cs3
        BYTE           VOL     24
        BYTE   W12
        BYTE           N10     Dn3
        BYTE   W09
// 024   ----------------------------------------
        BYTE   W03
        BYTE                   Bn2
        BYTE   W01
        BYTE           VOL     25
        BYTE   W11
        BYTE           N10     Dn3
        BYTE   W12
        BYTE                   Cs3
        BYTE   W12
        BYTE                   Dn3
        BYTE           VOL     26
        BYTE   W12
        BYTE           N10     Bn2
        BYTE   W12
        BYTE                   Dn3
        BYTE   W01
        BYTE           VOL     27
        BYTE   W11
        BYTE           N10     Cs3
        BYTE   W12
        BYTE                   Dn3
        BYTE   W09
// 025   ----------------------------------------
        BYTE   W01
        BYTE           VOL     28
        BYTE   W02
        BYTE           N10     Bn2
        BYTE   W12
        BYTE                   Dn3
        BYTE   W12
        BYTE                   Cs3
        BYTE   W09
        BYTE           VOL     29
        BYTE   W03
        BYTE           N10     Dn3
        BYTE   W12
        BYTE                   Bn2
        BYTE   W10
        BYTE           VOL     30
        BYTE   W02
        BYTE           N10     Dn3
        BYTE   W12
        BYTE                   Cs3
        BYTE   W12
        BYTE                   Dn3
        BYTE   W07
        BYTE           VOL     31
        BYTE   W02
// 026   ----------------------------------------
        BYTE   W03
        BYTE           N10     Bn2
        BYTE   W12
        BYTE                   Dn3
        BYTE   W09
        BYTE           VOL     32
        BYTE   W03
        BYTE           N10     Cs3
        BYTE   W12
        BYTE                   Dn3
        BYTE   W12
        BYTE                   Bn2
        BYTE   W07
        BYTE           VOL     33
        BYTE   W05
        BYTE           N10     Dn3
        BYTE   W12
        BYTE                   Cs3
        BYTE   W12
        BYTE                   Dn3
        BYTE   W06
        BYTE           VOL     34
        BYTE   W03
// 027   ----------------------------------------
        BYTE   W03
        BYTE           N10     Bn2
        BYTE   W12
        BYTE                   Dn3
        BYTE   W06
        BYTE           VOL     35
        BYTE   W06
        BYTE           N10     Cs3
        BYTE   W12
        BYTE                   Dn3
        BYTE   W12
        BYTE                   Bn2
        BYTE   W12
        BYTE                   Dn3
        BYTE   W12
        BYTE                   Cs3
        BYTE   W12
        BYTE                   Dn3
        BYTE   W09
// 028   ----------------------------------------
        BYTE   W03
        BYTE                   Bn2
        BYTE   W12
        BYTE                   Dn3
        BYTE   W12
        BYTE                   Cs3
        BYTE   W12
        BYTE                   Dn3
        BYTE   W12
        BYTE                   Bn2
        BYTE   W12
        BYTE                   Dn3
        BYTE   W12
        BYTE                   Cs3
        BYTE   W12
        BYTE                   Dn3
        BYTE   W09
// 029   ----------------------------------------
        BYTE   W03
        BYTE                   Bn2
        BYTE   W12
        BYTE                   Dn3
        BYTE   W12
        BYTE                   Cs3
        BYTE   W12
        BYTE           N09     Dn3
        BYTE   W09
        BYTE           VOL     33
        BYTE   GoTo
         POIN2  TheDarkGodsTempest_8_LOOP
        BYTE   FINE


//********************** End of Song ***********************//

        ALIGN 4
TheDarkGodsTempest:
        BYTE   9                       // Num Tracks
        BYTE   0                       // Unknown
        BYTE   TheDarkGodsTempest_pri  // Priority
        BYTE   TheDarkGodsTempest_rev  // Reverb

        POIN2   TheDarkGodsTempest_grp 

        POIN2   TheDarkGodsTempest_0
        POIN2   TheDarkGodsTempest_1
        POIN2   TheDarkGodsTempest_2
        POIN2   TheDarkGodsTempest_3
        POIN2   TheDarkGodsTempest_4
        POIN2   TheDarkGodsTempest_5
        POIN2   TheDarkGodsTempest_6
        POIN2   TheDarkGodsTempest_7
        POIN2   TheDarkGodsTempest_8

        
