//Event file generated from Sappy .s format.
        #include "MPlayDef.event"

        #define    TheMadGodsBlessing_grp  voicegroup000
        #define    TheMadGodsBlessing_pri  0
        #define    TheMadGodsBlessing_rev  0
        #define    TheMadGodsBlessing_key  0

        // .rodata
        // TheMadGodsBlessing
        ALIGN 4

//****************** Track 0 (Midi-Chn.0) ******************//

TheMadGodsBlessing_0:
        BYTE   KEYSH   TheMadGodsBlessing_key+0
// 000   ----------------------------------------
        BYTE   TEMPO   90/2
        BYTE           VOICE   10
        BYTE           PAN     c_v+27
        BYTE           VOL     48
        BYTE           N10     Gs3   v100
        BYTE   W24
        BYTE                   Cs4
        BYTE   W24
        BYTE                   Dn4
        BYTE   W24
        BYTE                   Fn4
        BYTE   W24
// 001   ----------------------------------------
        BYTE                   Fn3
        BYTE   W24
        BYTE                   Fs3
        BYTE   W24
        BYTE                   Cn4
        BYTE   W24
        BYTE                   As3
        BYTE   W24
// 002   ----------------------------------------
        BYTE                   En4
        BYTE   W24
        BYTE           N42     Fn4   v100   gtp1
        BYTE   W48
        BYTE           TIE
        BYTE   W24
// 003   ----------------------------------------
        BYTE   W84
        BYTE   W02
        BYTE           EOT
        BYTE   W10
// 004   ----------------------------------------
TheMadGodsBlessing_0_LOOP:
        BYTE   W96
// 005   ----------------------------------------
        BYTE   W96
// 006   ----------------------------------------
        BYTE   W96
// 007   ----------------------------------------
        BYTE   W96
// 008   ----------------------------------------
        BYTE   W96
// 009   ----------------------------------------
        BYTE   W96
// 010   ----------------------------------------
        BYTE   W96
// 011   ----------------------------------------
        BYTE   W96
// 012   ----------------------------------------
        BYTE   W96
// 013   ----------------------------------------
        BYTE   W96
// 014   ----------------------------------------
        BYTE           VOICE   19
        BYTE           N05     Bn2   v084
        BYTE           N05     Fn3
        BYTE           N05     Dn3
        BYTE   W12
        BYTE                   Cs3
        BYTE           N05     En3
        BYTE   W12
        BYTE                   Bn2
        BYTE           N05     Fn3
        BYTE           N05     Dn3
        BYTE   W12
        BYTE                   Cs3
        BYTE           N05     En3
        BYTE   W12
        BYTE                   Bn2
        BYTE           N05     Fn3
        BYTE           N05     Dn3
        BYTE   W12
        BYTE                   Cs3
        BYTE           N05     En3
        BYTE   W12
        BYTE                   Bn2
        BYTE           N05     Fn3
        BYTE           N05     Dn3
        BYTE   W12
        BYTE                   Cs3
        BYTE           N05     En3
        BYTE   W12
// 015   ----------------------------------------
TheMadGodsBlessing_0_15:
        BYTE           N05     Gs3   v084
        BYTE           N05     Bn2
        BYTE           N05     Dn3
        BYTE   W12
        BYTE                   Cs3
        BYTE           N05     Gn3
        BYTE   W12
        BYTE                   Gs3
        BYTE           N05     Bn2
        BYTE           N05     Dn3
        BYTE   W12
        BYTE                   Cs3
        BYTE           N05     Gn3
        BYTE   W12
        BYTE                   Gs3
        BYTE           N05     Bn2
        BYTE           N05     Dn3
        BYTE   W12
        BYTE                   Cs3
        BYTE           N05     Gn3
        BYTE   W12
        BYTE                   Gs3
        BYTE           N05     Bn2
        BYTE           N05     Dn3
        BYTE   W12
        BYTE                   Cs3
        BYTE           N05     Gn3
        BYTE   W12
        BYTE   PEND
// 016   ----------------------------------------
        BYTE   PATT
         POIN2  TheMadGodsBlessing_0_15
// 017   ----------------------------------------
TheMadGodsBlessing_0_17:
        BYTE           N05     Bn2   v084
        BYTE           N05     Fn3
        BYTE           N05     Dn3
        BYTE   W12
        BYTE                   Cs3
        BYTE           N05     En3
        BYTE   W12
        BYTE                   Bn2
        BYTE           N05     Fn3
        BYTE           N05     Dn3
        BYTE   W12
        BYTE                   Cs3
        BYTE           N05     En3
        BYTE   W12
        BYTE                   Bn2
        BYTE           N05     Fn3
        BYTE           N05     Dn3
        BYTE   W12
        BYTE                   Cs3
        BYTE           N05     En3
        BYTE   W12
        BYTE                   Bn2
        BYTE           N05     Fn3
        BYTE           N05     Dn3
        BYTE   W12
        BYTE                   Cs3
        BYTE           N05     En3
        BYTE   W12
        BYTE   PEND
// 018   ----------------------------------------
        BYTE   PATT
         POIN2  TheMadGodsBlessing_0_15
// 019   ----------------------------------------
        BYTE   PATT
         POIN2  TheMadGodsBlessing_0_17
// 020   ----------------------------------------
        BYTE   PATT
         POIN2  TheMadGodsBlessing_0_15
// 021   ----------------------------------------
        BYTE   PATT
         POIN2  TheMadGodsBlessing_0_17
// 022   ----------------------------------------
        BYTE           N10     Gs2   v100
        BYTE   W24
        BYTE                   Cs3
        BYTE   W24
        BYTE           N15     Dn3
        BYTE   W24
        BYTE           N10     Fn3
        BYTE   W24
// 023   ----------------------------------------
        BYTE                   Fn2
        BYTE   W24
        BYTE                   Fs2
        BYTE   W24
        BYTE           N15     Cn3
        BYTE   W24
        BYTE           N10     As2
        BYTE   W24
// 024   ----------------------------------------
        BYTE           N06     Dn2   v068
        BYTE   W06
        BYTE                   Fn2
        BYTE   W06
        BYTE                   Gs2
        BYTE   W06
        BYTE                   Bn2
        BYTE   W06
        BYTE                   Dn3
        BYTE   W06
        BYTE                   Fn3
        BYTE   W06
        BYTE                   Gs2
        BYTE   W06
        BYTE                   Bn2
        BYTE   W06
        BYTE                   Dn2   v084
        BYTE   W06
        BYTE                   Fn2
        BYTE   W06
        BYTE                   Gs2
        BYTE   W06
        BYTE                   Bn2
        BYTE   W06
        BYTE                   Dn3
        BYTE   W06
        BYTE                   Fn3
        BYTE   W06
        BYTE                   Gs2
        BYTE   W06
        BYTE                   Bn2
        BYTE   W06
// 025   ----------------------------------------
        BYTE                   Fn2   v100
        BYTE   W06
        BYTE                   Gs2
        BYTE   W06
        BYTE                   Bn2
        BYTE   W06
        BYTE                   Dn3
        BYTE   W06
        BYTE                   Fn3
        BYTE   W06
        BYTE                   Gs3
        BYTE   W06
        BYTE                   Bn2
        BYTE   W06
        BYTE                   Dn3
        BYTE   W06
        BYTE           N04     Fn4
        BYTE   W06
        BYTE                   Gs4
        BYTE   W06
        BYTE                   Bn4
        BYTE   W06
        BYTE                   Dn5
        BYTE   W06
        BYTE                   Fn5
        BYTE   W06
        BYTE                   Gs5
        BYTE   W06
        BYTE                   Bn4
        BYTE   W06
        BYTE                   Dn5
        BYTE   W06
// 026   ----------------------------------------
        BYTE           VOICE   10
        BYTE   GoTo
         POIN2  TheMadGodsBlessing_0_LOOP
        BYTE   W06
        BYTE   FINE

//****************** Track 1 (Midi-Chn.1) ******************//

TheMadGodsBlessing_1:
        BYTE   KEYSH   TheMadGodsBlessing_key+0
// 000   ----------------------------------------
        BYTE           VOICE   11
        BYTE           PAN     c_v-32
        BYTE           VOL     50
        BYTE   W03
        BYTE           N21     Gs3   v100
        BYTE   W24
        BYTE                   Cs4
        BYTE   W24
        BYTE                   Dn4
        BYTE   W24
        BYTE                   Fn4
        BYTE   W21
// 001   ----------------------------------------
        BYTE   W03
        BYTE                   Fn3
        BYTE   W24
        BYTE                   Fs3
        BYTE   W24
        BYTE                   Cn4
        BYTE   W24
        BYTE                   As3
        BYTE   W21
// 002   ----------------------------------------
        BYTE   W03
        BYTE                   En4
        BYTE   W24
        BYTE           N42     Fn4   v100   gtp1
        BYTE   W48
        BYTE           TIE
        BYTE   W21
// 003   ----------------------------------------
        BYTE   W84
        BYTE   W02
        BYTE           EOT
        BYTE   W10
// 004   ----------------------------------------
TheMadGodsBlessing_1_LOOP:
        BYTE           N10     Fn5   v100
        BYTE   W12
        BYTE                   En5
        BYTE   W12
        BYTE                   Bn4
        BYTE   W12
        BYTE           N54     Dn5   v100   gtp1
        BYTE   W60
// 005   ----------------------------------------
        BYTE           N12     Gs5
        BYTE   W12
        BYTE                   Gn5
        BYTE   W12
        BYTE                   Cn5
        BYTE   W12
        BYTE           N24     Ds5
        BYTE   W48
        BYTE           N10     En5
        BYTE   W12
// 006   ----------------------------------------
        BYTE                   Bn4
        BYTE   W12
        BYTE           N64     Dn5
        BYTE   W72
        BYTE           N10     Fn3
        BYTE   W12
// 007   ----------------------------------------
        BYTE                   Gs3
        BYTE   W12
        BYTE           N68     Bn3   v100   gtp1
        BYTE   W72
        BYTE           N02     Gs4
        BYTE   W03
        BYTE                   An4
        BYTE   W03
        BYTE                   Gs4
        BYTE   W03
        BYTE                   Fs4
        BYTE   W03
// 008   ----------------------------------------
        BYTE           N64     Dn5
        BYTE   W84
        BYTE           N21
        BYTE   W12
// 009   ----------------------------------------
        BYTE   W12
        BYTE                   Fn5
        BYTE   W24
        BYTE           N64     Bn4   v097
        BYTE   W60
// 010   ----------------------------------------
        BYTE   W96
// 011   ----------------------------------------
        BYTE   W96
// 012   ----------------------------------------
        BYTE   W96
// 013   ----------------------------------------
        BYTE   W96
// 014   ----------------------------------------
        BYTE   W96
// 015   ----------------------------------------
        BYTE   W96
// 016   ----------------------------------------
        BYTE   W96
// 017   ----------------------------------------
        BYTE   W96
// 018   ----------------------------------------
        BYTE   W96
// 019   ----------------------------------------
        BYTE   W96
// 020   ----------------------------------------
        BYTE   W96
// 021   ----------------------------------------
        BYTE   W96
// 022   ----------------------------------------
TheMadGodsBlessing_1_22:
        BYTE           N12     Dn4   v100
        BYTE           N12     Dn5
        BYTE   W24
        BYTE                   Dn4
        BYTE           N12     Cs5
        BYTE   W24
        BYTE                   Dn4
        BYTE           N12     Dn5
        BYTE   W24
        BYTE                   Dn4
        BYTE           N12     Cs5
        BYTE   W24
        BYTE   PEND
// 023   ----------------------------------------
        BYTE                   Dn4
        BYTE           N12     Dn5
        BYTE   W24
        BYTE                   Dn4
        BYTE           N12     Ds5
        BYTE   W24
        BYTE                   Dn4
        BYTE           N12     Dn5
        BYTE   W24
        BYTE                   Dn4
        BYTE           N12     Ds5
        BYTE   W24
// 024   ----------------------------------------
        BYTE   PATT
         POIN2  TheMadGodsBlessing_1_22
// 025   ----------------------------------------
        BYTE           N12     Dn4   v100
        BYTE           N12     En5
        BYTE   W24
        BYTE                   Dn4
        BYTE           N12     Ds5
        BYTE   W24
        BYTE                   Dn4
        BYTE           N12     Dn5
        BYTE   W24
        BYTE                   Dn4
        BYTE           N12     Ds5
        BYTE   W24
// 026   ----------------------------------------
        BYTE   GoTo
         POIN2  TheMadGodsBlessing_1_LOOP
        BYTE   W06
        BYTE   FINE

//****************** Track 2 (Midi-Chn.2) ******************//

TheMadGodsBlessing_2:
        BYTE   KEYSH   TheMadGodsBlessing_key+0
// 000   ----------------------------------------
        BYTE           VOICE   14
        BYTE           PAN     c_v+29
        BYTE           VOL     37
        BYTE   W24
        BYTE           N36     Cs3   v112
        BYTE   W72
// 001   ----------------------------------------
TheMadGodsBlessing_2_1:
        BYTE   W24
        BYTE           N36     Fs2   v112
        BYTE   W72
        BYTE   PEND
// 002   ----------------------------------------
        BYTE                   As2
        BYTE   W96
// 003   ----------------------------------------
        BYTE   W92
        BYTE           VOICE   100
        BYTE   W04
// 004   ----------------------------------------
TheMadGodsBlessing_2_LOOP:
        BYTE   W03
        BYTE           N10     Fn4   v100
        BYTE   W12
        BYTE                   En4
        BYTE   W12
        BYTE                   Bn3
        BYTE   W12
        BYTE           N54     Dn4   v100   gtp1
        BYTE   W56
        BYTE   W01
// 005   ----------------------------------------
        BYTE   W03
        BYTE           N10     Gs4
        BYTE   W12
        BYTE                   Gn4
        BYTE   W12
        BYTE                   Cn4
        BYTE   W12
        BYTE           N54     Ds4   v100   gtp1
        BYTE   W48
        BYTE           N10     En4
        BYTE   W09
// 006   ----------------------------------------
        BYTE   W03
        BYTE                   Bn3
        BYTE   W12
        BYTE           N64     Dn4
        BYTE   W72
        BYTE           N10     Fn3
        BYTE   W09
// 007   ----------------------------------------
        BYTE   W03
        BYTE                   Gs3
        BYTE   W12
        BYTE           N68     Bn3   v100   gtp1
        BYTE   W72
        BYTE           N02     Gs3
        BYTE   W03
        BYTE                   An3
        BYTE   W03
        BYTE                   Gs3
        BYTE   W03
// 008   ----------------------------------------
        BYTE                   Fs3
        BYTE   W03
        BYTE           N64     Dn4
        BYTE   W84
        BYTE           N22
        BYTE   W09
// 009   ----------------------------------------
        BYTE   W15
        BYTE           N21     Fn4
        BYTE   W24
        BYTE           N42     Bn3   v100   gtp1
        BYTE   W56
        BYTE   W01
// 010   ----------------------------------------
        BYTE   W96
// 011   ----------------------------------------
        BYTE   W96
// 012   ----------------------------------------
        BYTE   W96
// 013   ----------------------------------------
        BYTE   W96
// 014   ----------------------------------------
        BYTE   W96
// 015   ----------------------------------------
        BYTE   W96
// 016   ----------------------------------------
        BYTE           VOICE   14
        BYTE   W96
// 017   ----------------------------------------
        BYTE   W96
// 018   ----------------------------------------
        BYTE   W96
// 019   ----------------------------------------
        BYTE   W96
// 020   ----------------------------------------
        BYTE   W96
// 021   ----------------------------------------
        BYTE   W96
// 022   ----------------------------------------
        BYTE   W24
        BYTE           N36     Cs3   v112
        BYTE   W72
// 023   ----------------------------------------
        BYTE   PATT
         POIN2  TheMadGodsBlessing_2_1
// 024   ----------------------------------------
        BYTE           N36     As2   v112
        BYTE   W96
// 025   ----------------------------------------
        BYTE           N66     As2   v100
        BYTE   W96
// 026   ----------------------------------------
        BYTE           VOICE   100
        BYTE   GoTo
         POIN2  TheMadGodsBlessing_2_LOOP
        BYTE   W06
        BYTE   FINE

//****************** Track 3 (Midi-Chn.3) ******************//

TheMadGodsBlessing_3:
        BYTE   KEYSH   TheMadGodsBlessing_key+0
// 000   ----------------------------------------
        BYTE           VOICE   54
        BYTE           VOL     47
        BYTE   W96
// 001   ----------------------------------------
        BYTE   W96
// 002   ----------------------------------------
        BYTE   W96
// 003   ----------------------------------------
        BYTE   W96
// 004   ----------------------------------------
TheMadGodsBlessing_3_LOOP:
        BYTE   W96
// 005   ----------------------------------------
        BYTE   W96
// 006   ----------------------------------------
        BYTE   W96
// 007   ----------------------------------------
        BYTE   W96
// 008   ----------------------------------------
        BYTE   W96
// 009   ----------------------------------------
        BYTE   W84
        BYTE   W02
        BYTE           VOL     15
        BYTE   W03
        BYTE                   16
        BYTE   W04
        BYTE                   17
        BYTE   W03
// 010   ----------------------------------------
        BYTE           TIE     An3   v100
        BYTE           PAN     c_v-10
        BYTE           TIE     As3
        BYTE           TIE     As2   v086
        BYTE           VOL     18
        BYTE   W03
        BYTE           PAN     c_v-9
        BYTE           VOL     19
        BYTE   W01
        BYTE           PAN     c_v-8
        BYTE   W03
        BYTE                   c_v-7
        BYTE   W01
        BYTE           VOL     20
        BYTE   W01
        BYTE           PAN     c_v-6
        BYTE   W01
        BYTE                   c_v-5
        BYTE   W01
        BYTE           VOL     21
        BYTE   W02
        BYTE           PAN     c_v-4
        BYTE           BEND    c_v+1
        BYTE   W01
        BYTE           VOL     22
        BYTE   W01
        BYTE           PAN     c_v-3
        BYTE           BEND    c_v+2
        BYTE   W01
        BYTE                   c_v+3
        BYTE   W02
        BYTE           PAN     c_v-2
        BYTE           VOL     23
        BYTE   W01
        BYTE           PAN     c_v-1
        BYTE   W02
        BYTE                   c_v+0
        BYTE           VOL     24
        BYTE   W01
        BYTE           BEND    c_v+2
        BYTE   W02
        BYTE                   c_v+1
        BYTE           PAN     c_v+1
        BYTE           VOL     25
        BYTE   W01
        BYTE           BEND    c_v+0
        BYTE           PAN     c_v+2
        BYTE   W02
        BYTE           BEND    c_v-2
        BYTE           PAN     c_v+3
        BYTE           VOL     26
        BYTE   W01
        BYTE           BEND    c_v-3
        BYTE   W02
        BYTE                   c_v-5
        BYTE           PAN     c_v+4
        BYTE   W01
        BYTE                   c_v+5
        BYTE   W01
        BYTE           VOL     27
        BYTE   W02
        BYTE           BEND    c_v-4
        BYTE           PAN     c_v+6
        BYTE   W01
        BYTE           VOL     28
        BYTE   W01
        BYTE           BEND    c_v-3
        BYTE           PAN     c_v+7
        BYTE   W01
        BYTE                   c_v+8
        BYTE   W01
        BYTE           VOL     29
        BYTE   W02
        BYTE           PAN     c_v+9
        BYTE   W02
        BYTE                   c_v+10
        BYTE           BEND    c_v-2
        BYTE           VOL     30
        BYTE   W01
        BYTE           BEND    c_v+0
        BYTE   W02
        BYTE           PAN     c_v+11
        BYTE           BEND    c_v+1
        BYTE           VOL     31
        BYTE   W01
        BYTE           PAN     c_v+12
        BYTE           BEND    c_v+2
        BYTE   W02
        BYTE           PAN     c_v+13
        BYTE           BEND    c_v+4
        BYTE           VOL     32
        BYTE   W03
        BYTE           PAN     c_v+14
        BYTE   W01
        BYTE                   c_v+15
        BYTE   W01
        BYTE           VOL     33
        BYTE   W01
        BYTE           PAN     c_v+16
        BYTE   W02
        BYTE           VOL     34
        BYTE   W01
        BYTE           PAN     c_v+17
        BYTE   W01
        BYTE                   c_v+18
        BYTE   W01
        BYTE           VOL     35
        BYTE   W02
        BYTE           PAN     c_v+19
        BYTE   W02
        BYTE                   c_v+20
        BYTE           VOL     36
        BYTE   W01
        BYTE           PAN     c_v+21
        BYTE   W02
        BYTE           VOL     37
        BYTE   W01
        BYTE           PAN     c_v+22
        BYTE   W02
        BYTE                   c_v+23
        BYTE           VOL     38
        BYTE   W03
        BYTE           PAN     c_v+24
        BYTE   W01
        BYTE                   c_v+25
        BYTE   W02
        BYTE                   c_v+26
        BYTE   W03
        BYTE                   c_v+27
        BYTE   W01
        BYTE                   c_v+28
        BYTE   W02
        BYTE                   c_v+29
        BYTE   W03
        BYTE                   c_v+30
        BYTE   W01
        BYTE                   c_v+31
        BYTE   W03
        BYTE                   c_v+32
        BYTE   W02
        BYTE                   c_v+33
        BYTE   W01
        BYTE                   c_v+34
        BYTE           BEND    c_v+1
        BYTE   W03
        BYTE           PAN     c_v+35
        BYTE           BEND    c_v+2
        BYTE   W02
// 011   ----------------------------------------
TheMadGodsBlessing_3_11:
        BYTE           PAN     c_v+36
        BYTE           BEND    c_v+4
        BYTE   W01
        BYTE           PAN     c_v+37
        BYTE   W02
        BYTE           BEND    c_v+2
        BYTE   W01
        BYTE           PAN     c_v+38
        BYTE           BEND    c_v+5
        BYTE   W02
        BYTE           PAN     c_v+39
        BYTE           BEND    c_v+7
        BYTE   W01
        BYTE                   c_v+9
        BYTE   W02
        BYTE           PAN     c_v+40
        BYTE           BEND    c_v+11
        BYTE   W01
        BYTE           PAN     c_v+41
        BYTE           BEND    c_v+14
        BYTE   W02
        BYTE           PAN     c_v+42
        BYTE           BEND    c_v+16
        BYTE   W01
        BYTE                   c_v+18
        BYTE   W02
        BYTE           PAN     c_v+43
        BYTE           BEND    c_v+20
        BYTE   W01
        BYTE           PAN     c_v+44
        BYTE           BEND    c_v+23
        BYTE   W02
        BYTE                   c_v+25
        BYTE   W01
        BYTE           PAN     c_v+45
        BYTE           BEND    c_v+27
        BYTE   W05
        BYTE           TIE     Cs4   v083
        BYTE   W01
        BYTE           BEND    c_v+1
        BYTE           PAN     c_v+44
        BYTE   W02
        BYTE                   c_v+43
        BYTE   W01
        BYTE                   c_v+42
        BYTE   W02
        BYTE                   c_v+40
        BYTE   W01
        BYTE                   c_v+39
        BYTE   W02
        BYTE                   c_v+38
        BYTE   W01
        BYTE                   c_v+36
        BYTE   W02
        BYTE                   c_v+35
        BYTE   W01
        BYTE                   c_v+34
        BYTE   W02
        BYTE                   c_v+32
        BYTE   W01
        BYTE                   c_v+31
        BYTE   W02
        BYTE                   c_v+30
        BYTE   W01
        BYTE                   c_v+28
        BYTE   W02
        BYTE                   c_v+27
        BYTE   W01
        BYTE                   c_v+26
        BYTE   W02
        BYTE                   c_v+24
        BYTE   W01
        BYTE                   c_v+23
        BYTE   W02
        BYTE                   c_v+22
        BYTE   W01
        BYTE                   c_v+20
        BYTE   W02
        BYTE                   c_v+19
        BYTE   W01
        BYTE                   c_v+18
        BYTE   W02
        BYTE                   c_v+17
        BYTE   W01
        BYTE                   c_v+15
        BYTE   W02
        BYTE                   c_v+14
        BYTE   W01
        BYTE                   c_v+13
        BYTE   W02
        BYTE                   c_v+11
        BYTE   W01
        BYTE                   c_v+10
        BYTE   W02
        BYTE                   c_v+9
        BYTE   W01
        BYTE                   c_v+7
        BYTE   W02
        BYTE                   c_v+6
        BYTE   W01
        BYTE                   c_v+5
        BYTE   W01
        BYTE           BEND    c_v-1
        BYTE   W01
        BYTE           PAN     c_v+3
        BYTE   W01
        BYTE           BEND    c_v-2
        BYTE           PAN     c_v+2
        BYTE   W01
        BYTE           BEND    c_v-4
        BYTE   W01
        BYTE           PAN     c_v+1
        BYTE           BEND    c_v+0
        BYTE   W01
        BYTE           PAN     c_v-1
        BYTE           BEND    c_v-1
        BYTE   W02
        BYTE           PAN     c_v-2
        BYTE           BEND    c_v-3
        BYTE   W01
        BYTE           PAN     c_v-3
        BYTE           BEND    c_v-4
        BYTE   W02
        BYTE           PAN     c_v-5
        BYTE           BEND    c_v-5
        BYTE   W01
        BYTE           PAN     c_v-6
        BYTE           BEND    c_v-7
        BYTE   W02
        BYTE           PAN     c_v-7
        BYTE           BEND    c_v-8
        BYTE   W01
        BYTE           PAN     c_v-8
        BYTE           BEND    c_v-9
        BYTE   W01
        BYTE           EOT     An3
        BYTE                   As3
        BYTE   W01
        BYTE           PAN     c_v-10
        BYTE           BEND    c_v-11
        BYTE   W01
        BYTE           PAN     c_v-11
        BYTE           BEND    c_v-12
        BYTE   W02
        BYTE           PAN     c_v-12
        BYTE           BEND    c_v-13
        BYTE   W01
        BYTE           PAN     c_v-14
        BYTE           BEND    c_v-14
        BYTE   W02
        BYTE           PAN     c_v-15
        BYTE           BEND    c_v-16
        BYTE   W01
        BYTE           PAN     c_v-16
        BYTE           BEND    c_v-17
        BYTE   W02
        BYTE   PEND
// 012   ----------------------------------------
TheMadGodsBlessing_3_12:
        BYTE           PAN     c_v-18
        BYTE           TIE     As3   v100
        BYTE           TIE     An3
        BYTE           BEND    c_v-18
        BYTE   W01
        BYTE           PAN     c_v-19
        BYTE           BEND    c_v-20
        BYTE   W02
        BYTE           PAN     c_v-20
        BYTE           BEND    c_v-21
        BYTE   W01
        BYTE           PAN     c_v-22
        BYTE           BEND    c_v-22
        BYTE   W02
        BYTE           PAN     c_v-23
        BYTE           BEND    c_v-24
        BYTE   W01
        BYTE           PAN     c_v-24
        BYTE           BEND    c_v-25
        BYTE   W02
        BYTE           PAN     c_v-26
        BYTE           BEND    c_v-26
        BYTE   W01
        BYTE           PAN     c_v-27
        BYTE           BEND    c_v-28
        BYTE   W02
        BYTE           PAN     c_v-28
        BYTE           BEND    c_v-29
        BYTE   W01
        BYTE           PAN     c_v-30
        BYTE           BEND    c_v-30
        BYTE   W02
        BYTE           PAN     c_v-31
        BYTE           BEND    c_v-32
        BYTE   W01
        BYTE           PAN     c_v-32
        BYTE           BEND    c_v-33
        BYTE   W02
        BYTE           PAN     c_v-33
        BYTE           BEND    c_v-34
        BYTE   W01
        BYTE           PAN     c_v-35
        BYTE           BEND    c_v-35
        BYTE   W02
        BYTE           PAN     c_v-36
        BYTE           BEND    c_v-37
        BYTE   W01
        BYTE           PAN     c_v-37
        BYTE           BEND    c_v-38
        BYTE   W02
        BYTE           PAN     c_v-39
        BYTE           BEND    c_v-39
        BYTE   W01
        BYTE           PAN     c_v-40
        BYTE           BEND    c_v-41
        BYTE   W02
        BYTE           PAN     c_v-41
        BYTE           BEND    c_v-42
        BYTE   W01
        BYTE           PAN     c_v-43
        BYTE           BEND    c_v-43
        BYTE   W02
        BYTE           PAN     c_v-44
        BYTE           BEND    c_v-45
        BYTE   W01
        BYTE           PAN     c_v-45
        BYTE           BEND    c_v-46
        BYTE   W02
        BYTE           PAN     c_v-47
        BYTE           BEND    c_v-47
        BYTE   W01
        BYTE           PAN     c_v-48
        BYTE           BEND    c_v-49
        BYTE   W02
        BYTE           PAN     c_v-49
        BYTE           BEND    c_v-47
        BYTE   W01
        BYTE           PAN     c_v-51
        BYTE   W01
        BYTE           BEND    c_v-44
        BYTE   W01
        BYTE           PAN     c_v-52
        BYTE           BEND    c_v-41
        BYTE   W01
        BYTE           PAN     c_v-53
        BYTE   W01
        BYTE           BEND    c_v-39
        BYTE   W01
        BYTE           PAN     c_v-55
        BYTE           BEND    c_v-36
        BYTE   W01
        BYTE           PAN     c_v-56
        BYTE   W01
        BYTE           BEND    c_v-33
        BYTE           PAN     c_v-55
        BYTE   W01
        BYTE           BEND    c_v-31
        BYTE   W01
        BYTE           PAN     c_v-54
        BYTE   W01
        BYTE           BEND    c_v-28
        BYTE           PAN     c_v-53
        BYTE   W01
        BYTE           TIE     Ds4   v086
        BYTE           BEND    c_v-26
        BYTE   W01
        BYTE           PAN     c_v-52
        BYTE   W01
        BYTE           BEND    c_v-23
        BYTE           PAN     c_v-51
        BYTE   W01
        BYTE           BEND    c_v-20
        BYTE   W01
        BYTE           PAN     c_v-49
        BYTE   W01
        BYTE           BEND    c_v-18
        BYTE           PAN     c_v-48
        BYTE   W01
        BYTE           BEND    c_v-15
        BYTE   W01
        BYTE           PAN     c_v-47
        BYTE   W01
        BYTE           BEND    c_v-12
        BYTE           PAN     c_v-46
        BYTE   W01
        BYTE           BEND    c_v-10
        BYTE   W01
        BYTE           PAN     c_v-44
        BYTE   W01
        BYTE           BEND    c_v-7
        BYTE           PAN     c_v-43
        BYTE   W02
        BYTE                   c_v-42
        BYTE   W01
        BYTE                   c_v-41
        BYTE   W02
        BYTE                   c_v-39
        BYTE   W01
        BYTE                   c_v-38
        BYTE   W02
        BYTE                   c_v-37
        BYTE   W01
        BYTE                   c_v-36
        BYTE   W02
        BYTE                   c_v-34
        BYTE   W01
        BYTE                   c_v-33
        BYTE   W02
        BYTE                   c_v-32
        BYTE   W01
        BYTE                   c_v-31
        BYTE   W02
        BYTE                   c_v-29
        BYTE   W01
        BYTE                   c_v-28
        BYTE   W02
        BYTE                   c_v-27
        BYTE   W01
        BYTE                   c_v-26
        BYTE   W02
        BYTE                   c_v-24
        BYTE   W01
        BYTE                   c_v-23
        BYTE   W02
        BYTE                   c_v-22
        BYTE   W01
        BYTE                   c_v-21
        BYTE   W02
        BYTE                   c_v-19
        BYTE   W01
        BYTE                   c_v-18
        BYTE   W02
        BYTE                   c_v-17
        BYTE   W01
        BYTE                   c_v-16
        BYTE   W02
        BYTE                   c_v-14
        BYTE   W01
        BYTE                   c_v-13
        BYTE   W01
        BYTE   PEND
// 013   ----------------------------------------
TheMadGodsBlessing_3_13:
        BYTE   W01
        BYTE           PAN     c_v-12
        BYTE   W01
        BYTE                   c_v-11
        BYTE   W02
        BYTE                   c_v-9
        BYTE   W01
        BYTE                   c_v-8
        BYTE   W02
        BYTE                   c_v-7
        BYTE           BEND    c_v-3
        BYTE   W01
        BYTE           PAN     c_v-6
        BYTE   W01
        BYTE           BEND    c_v-2
        BYTE   W01
        BYTE                   c_v-1
        BYTE           PAN     c_v-4
        BYTE   W01
        BYTE           BEND    c_v+0
        BYTE           PAN     c_v-3
        BYTE   W02
        BYTE           BEND    c_v+1
        BYTE           PAN     c_v-2
        BYTE   W01
        BYTE                   c_v-1
        BYTE   W02
        BYTE           BEND    c_v+2
        BYTE           PAN     c_v+1
        BYTE   W01
        BYTE           BEND    c_v+3
        BYTE           PAN     c_v+2
        BYTE   W02
        BYTE           BEND    c_v+4
        BYTE           PAN     c_v+3
        BYTE   W01
        BYTE           BEND    c_v+5
        BYTE           PAN     c_v+4
        BYTE   W02
        BYTE           BEND    c_v+6
        BYTE           PAN     c_v+6
        BYTE   W01
        BYTE           BEND    c_v+7
        BYTE           PAN     c_v+7
        BYTE   W02
        BYTE                   c_v+8
        BYTE   W01
        BYTE           BEND    c_v+8
        BYTE           PAN     c_v+9
        BYTE   W02
        BYTE           BEND    c_v+9
        BYTE           PAN     c_v+11
        BYTE   W01
        BYTE           BEND    c_v+10
        BYTE           PAN     c_v+12
        BYTE   W02
        BYTE           BEND    c_v+11
        BYTE           PAN     c_v+13
        BYTE   W01
        BYTE           BEND    c_v+12
        BYTE           PAN     c_v+14
        BYTE   W02
        BYTE           BEND    c_v+13
        BYTE           PAN     c_v+16
        BYTE   W01
        BYTE           BEND    c_v+12
        BYTE           PAN     c_v+17
        BYTE   W02
        BYTE                   c_v+18
        BYTE           BEND    c_v+14
        BYTE   W01
        BYTE           PAN     c_v+19
        BYTE   W02
        BYTE                   c_v+21
        BYTE   W01
        BYTE                   c_v+22
        BYTE   W02
        BYTE                   c_v+23
        BYTE           BEND    c_v+13
        BYTE   W01
        BYTE           PAN     c_v+24
        BYTE   W02
        BYTE                   c_v+26
        BYTE   W01
        BYTE           BEND    c_v+15
        BYTE           PAN     c_v+27
        BYTE   W02
        BYTE           BEND    c_v+14
        BYTE           PAN     c_v+28
        BYTE   W01
        BYTE                   c_v+29
        BYTE   W02
        BYTE           BEND    c_v+13
        BYTE           PAN     c_v+31
        BYTE   W01
        BYTE           BEND    c_v+12
        BYTE           PAN     c_v+32
        BYTE   W02
        BYTE           BEND    c_v+11
        BYTE           PAN     c_v+33
        BYTE   W01
        BYTE           BEND    c_v+10
        BYTE           PAN     c_v+34
        BYTE   W02
        BYTE                   c_v+36
        BYTE   W01
        BYTE           BEND    c_v+9
        BYTE           PAN     c_v+37
        BYTE   W02
        BYTE           BEND    c_v+8
        BYTE           PAN     c_v+38
        BYTE   W01
        BYTE           BEND    c_v+7
        BYTE           PAN     c_v+39
        BYTE   W02
        BYTE           BEND    c_v+6
        BYTE           PAN     c_v+41
        BYTE   W01
        BYTE                   c_v+42
        BYTE   W02
        BYTE           BEND    c_v+5
        BYTE           PAN     c_v+43
        BYTE   W01
        BYTE           BEND    c_v+4
        BYTE           PAN     c_v+44
        BYTE   W02
        BYTE           BEND    c_v+3
        BYTE           PAN     c_v+46
        BYTE   W01
        BYTE           BEND    c_v+2
        BYTE           PAN     c_v+47
        BYTE   W03
        BYTE           BEND    c_v+1
        BYTE   W02
        BYTE                   c_v+0
        BYTE   W01
        BYTE                   c_v-1
        BYTE   W02
        BYTE                   c_v-2
        BYTE   W03
        BYTE                   c_v-3
        BYTE           PAN     c_v+45
        BYTE   W01
        BYTE           BEND    c_v-4
        BYTE   W02
        BYTE                   c_v-5
        BYTE           PAN     c_v+44
        BYTE   W01
        BYTE           BEND    c_v-6
        BYTE   W01
        BYTE           PAN     c_v+43
        BYTE   W01
        BYTE                   c_v+42
        BYTE   W01
        BYTE           BEND    c_v-7
        BYTE   W01
        BYTE           PAN     c_v+41
        BYTE   W01
        BYTE           BEND    c_v-8
        BYTE           PAN     c_v+40
        BYTE   W01
        BYTE           VOL     37
        BYTE           BEND    c_v-9
        BYTE   W01
        BYTE           PAN     c_v+39
        BYTE   W01
        BYTE           BEND    c_v-10
        BYTE   W01
        BYTE           VOL     36
        BYTE   W01
        BYTE   PEND
// 014   ----------------------------------------
        BYTE           EOT     An3
        BYTE                   Cs4
        BYTE                   As2
        BYTE                   As3
        BYTE           PAN     c_v+38
        BYTE   W01
        BYTE           BEND    c_v-11
        BYTE           PAN     c_v+37
        BYTE   W01
        BYTE           BEND    c_v-12
        BYTE   W01
        BYTE           PAN     c_v+36
        BYTE           VOL     35
        BYTE   W01
        BYTE           BEND    c_v-13
        BYTE           PAN     c_v+35
        BYTE   W01
        BYTE           BEND    c_v-14
        BYTE   W01
        BYTE                   c_v-13
        BYTE           PAN     c_v+34
        BYTE   W01
        BYTE           BEND    c_v-12
        BYTE           PAN     c_v+33
        BYTE   W01
        BYTE           VOL     34
        BYTE   W02
        BYTE           BEND    c_v-11
        BYTE           PAN     c_v+32
        BYTE   W01
        BYTE           VOL     33
        BYTE   W01
        BYTE           PAN     c_v+31
        BYTE   W01
        BYTE           BEND    c_v-10
        BYTE           PAN     c_v+30
        BYTE   W02
        BYTE           BEND    c_v-9
        BYTE           PAN     c_v+29
        BYTE           VOL     32
        BYTE   W01
        BYTE           PAN     c_v+28
        BYTE   W02
        BYTE           BEND    c_v-8
        BYTE           PAN     c_v+27
        BYTE   W02
        BYTE           VOL     31
        BYTE   W01
        BYTE           BEND    c_v-7
        BYTE           PAN     c_v+26
        BYTE   W01
        BYTE           BEND    c_v-6
        BYTE           PAN     c_v+25
        BYTE   W02
        BYTE                   c_v+24
        BYTE           VOL     30
        BYTE   W01
        BYTE           BEND    c_v-5
        BYTE           PAN     c_v+23
        BYTE   W02
        BYTE                   c_v+22
        BYTE           VOL     29
        BYTE   W01
        BYTE           BEND    c_v-4
        BYTE           PAN     c_v+21
        BYTE   W02
        BYTE           BEND    c_v-3
        BYTE   W01
        BYTE           PAN     c_v+20
        BYTE   W01
        BYTE           VOL     28
        BYTE   W01
        BYTE           BEND    c_v-2
        BYTE           PAN     c_v+19
        BYTE   W01
        BYTE                   c_v+18
        BYTE           BEND    c_v-1
        BYTE   W02
        BYTE           PAN     c_v+17
        BYTE           BEND    c_v-3
        BYTE           VOL     27
        BYTE   W01
        BYTE           PAN     c_v+16
        BYTE           BEND    c_v-5
        BYTE   W02
        BYTE           PAN     c_v+15
        BYTE           BEND    c_v-7
        BYTE           VOL     26
        BYTE   W01
        BYTE           BEND    c_v-8
        BYTE   W02
        BYTE           PAN     c_v+14
        BYTE           BEND    c_v-10
        BYTE   W01
        BYTE           PAN     c_v+13
        BYTE           BEND    c_v-12
        BYTE   W01
        BYTE           VOL     25
        BYTE   W01
        BYTE           PAN     c_v+12
        BYTE           BEND    c_v-14
        BYTE   W01
        BYTE           PAN     c_v+11
        BYTE           BEND    c_v-16
        BYTE   W02
        BYTE           VOL     24
        BYTE           PAN     c_v+10
        BYTE           BEND    c_v-18
        BYTE   W01
        BYTE           VOL     23
        BYTE           PAN     c_v+9
        BYTE           BEND    c_v-20
        BYTE   W02
        BYTE           PAN     c_v+8
        BYTE           BEND    c_v-21
        BYTE   W01
        BYTE           VOL     22
        BYTE           BEND    c_v-23
        BYTE   W02
        BYTE           PAN     c_v+7
        BYTE           BEND    c_v-25
        BYTE   W01
        BYTE           VOL     21
        BYTE           PAN     c_v+6
        BYTE           BEND    c_v-27
        BYTE   W02
        BYTE           VOL     20
        BYTE           PAN     c_v+5
        BYTE           BEND    c_v-29
        BYTE   W01
        BYTE           PAN     c_v+4
        BYTE           BEND    c_v-31
        BYTE   W02
        BYTE           VOL     19
        BYTE           PAN     c_v+3
        BYTE           BEND    c_v-32
        BYTE   W01
        BYTE           VOL     18
        BYTE           PAN     c_v+2
        BYTE           BEND    c_v-34
        BYTE   W02
        BYTE                   c_v-36
        BYTE   W01
        BYTE           VOL     17
        BYTE           BEND    c_v-38
        BYTE   W02
        BYTE           VOL     16
        BYTE           BEND    c_v-40
        BYTE   W01
        BYTE                   c_v-42
        BYTE   W02
        BYTE           VOL     15
        BYTE           BEND    c_v-44
        BYTE   W01
        BYTE                   c_v-45
        BYTE   W02
        BYTE           VOL     14
        BYTE           BEND    c_v-47
        BYTE   W01
        BYTE           VOL     13
        BYTE           BEND    c_v-49
        BYTE   W02
        BYTE                   c_v-51
        BYTE   W01
        BYTE           VOL     12
        BYTE           BEND    c_v-53
        BYTE   W02
        BYTE                   c_v-55
        BYTE   W01
        BYTE           VOL     11
        BYTE           BEND    c_v-56
        BYTE   W02
        BYTE           VOL     10
        BYTE           BEND    c_v-58
        BYTE   W01
        BYTE                   c_v-57
        BYTE   W02
        BYTE           VOL     9
        BYTE           BEND    c_v-59
        BYTE   W01
        BYTE           VOL     8
        BYTE   W02
        BYTE                   7
        BYTE   W03
        BYTE                   6
        BYTE   W03
        BYTE                   5
        BYTE   W01
        BYTE                   4
        BYTE   W02
// 015   ----------------------------------------
        BYTE           EOT     Ds4
        BYTE   W01
        BYTE           VOL     3
        BYTE   W03
        BYTE                   2
        BYTE   W01
        BYTE                   1
        BYTE   W90
        BYTE   W01
// 016   ----------------------------------------
        BYTE   W96
// 017   ----------------------------------------
        BYTE   W96
// 018   ----------------------------------------
        BYTE   W96
// 019   ----------------------------------------
        BYTE   W96
// 020   ----------------------------------------
        BYTE           PAN     c_v-10
        BYTE           TIE     An3   v100
        BYTE           TIE     As2   v086
        BYTE           TIE     As3   v100
        BYTE           VOL     18
        BYTE   W03
        BYTE           PAN     c_v-9
        BYTE           VOL     19
        BYTE   W01
        BYTE           PAN     c_v-8
        BYTE   W03
        BYTE                   c_v-7
        BYTE   W01
        BYTE           VOL     20
        BYTE   W01
        BYTE           PAN     c_v-6
        BYTE   W01
        BYTE                   c_v-5
        BYTE   W01
        BYTE           VOL     21
        BYTE   W02
        BYTE           PAN     c_v-4
        BYTE           BEND    c_v+1
        BYTE   W01
        BYTE           VOL     22
        BYTE   W01
        BYTE           PAN     c_v-3
        BYTE           BEND    c_v+2
        BYTE   W01
        BYTE                   c_v+3
        BYTE   W02
        BYTE           PAN     c_v-2
        BYTE           VOL     23
        BYTE   W01
        BYTE           PAN     c_v-1
        BYTE   W02
        BYTE                   c_v+0
        BYTE           VOL     24
        BYTE   W01
        BYTE           BEND    c_v+2
        BYTE   W02
        BYTE                   c_v+1
        BYTE           PAN     c_v+1
        BYTE           VOL     25
        BYTE   W01
        BYTE           BEND    c_v+0
        BYTE           PAN     c_v+2
        BYTE   W02
        BYTE           BEND    c_v-2
        BYTE           PAN     c_v+3
        BYTE           VOL     26
        BYTE   W01
        BYTE           BEND    c_v-3
        BYTE   W02
        BYTE                   c_v-5
        BYTE           PAN     c_v+4
        BYTE   W01
        BYTE                   c_v+5
        BYTE   W01
        BYTE           VOL     27
        BYTE   W02
        BYTE           BEND    c_v-4
        BYTE           PAN     c_v+6
        BYTE   W01
        BYTE           VOL     28
        BYTE   W01
        BYTE           BEND    c_v-3
        BYTE           PAN     c_v+7
        BYTE   W01
        BYTE                   c_v+8
        BYTE   W01
        BYTE           VOL     29
        BYTE   W02
        BYTE           PAN     c_v+9
        BYTE   W02
        BYTE                   c_v+10
        BYTE           BEND    c_v-2
        BYTE           VOL     30
        BYTE   W01
        BYTE           BEND    c_v+0
        BYTE   W02
        BYTE           PAN     c_v+11
        BYTE           BEND    c_v+1
        BYTE           VOL     31
        BYTE   W01
        BYTE           PAN     c_v+12
        BYTE           BEND    c_v+2
        BYTE   W02
        BYTE           PAN     c_v+13
        BYTE           BEND    c_v+4
        BYTE           VOL     32
        BYTE   W03
        BYTE           PAN     c_v+14
        BYTE   W01
        BYTE                   c_v+15
        BYTE   W01
        BYTE           VOL     33
        BYTE   W01
        BYTE           PAN     c_v+16
        BYTE   W02
        BYTE           VOL     34
        BYTE   W01
        BYTE           PAN     c_v+17
        BYTE   W01
        BYTE                   c_v+18
        BYTE   W01
        BYTE           VOL     35
        BYTE   W02
        BYTE           PAN     c_v+19
        BYTE   W02
        BYTE                   c_v+20
        BYTE           VOL     36
        BYTE   W01
        BYTE           PAN     c_v+21
        BYTE   W02
        BYTE           VOL     37
        BYTE   W01
        BYTE           PAN     c_v+22
        BYTE   W02
        BYTE                   c_v+23
        BYTE           VOL     38
        BYTE   W03
        BYTE           PAN     c_v+24
        BYTE   W01
        BYTE                   c_v+25
        BYTE   W02
        BYTE                   c_v+26
        BYTE   W03
        BYTE                   c_v+27
        BYTE   W01
        BYTE                   c_v+28
        BYTE   W02
        BYTE                   c_v+29
        BYTE   W03
        BYTE                   c_v+30
        BYTE   W01
        BYTE                   c_v+31
        BYTE   W03
        BYTE                   c_v+32
        BYTE   W02
        BYTE                   c_v+33
        BYTE   W01
        BYTE                   c_v+34
        BYTE           BEND    c_v+1
        BYTE   W03
        BYTE           PAN     c_v+35
        BYTE           BEND    c_v+2
        BYTE   W02
// 021   ----------------------------------------
        BYTE   PATT
         POIN2  TheMadGodsBlessing_3_11
// 022   ----------------------------------------
        BYTE   PATT
         POIN2  TheMadGodsBlessing_3_12
// 023   ----------------------------------------
        BYTE   PATT
         POIN2  TheMadGodsBlessing_3_13
// 024   ----------------------------------------
        BYTE           TIE     Fs3   v100
        BYTE           PAN     c_v+38
        BYTE   W01
        BYTE           BEND    c_v-11
        BYTE           PAN     c_v+37
        BYTE   W01
        BYTE           BEND    c_v-12
        BYTE   W01
        BYTE           PAN     c_v+36
        BYTE           VOL     35
        BYTE   W01
        BYTE           BEND    c_v-13
        BYTE           PAN     c_v+35
        BYTE   W01
        BYTE           BEND    c_v-14
        BYTE   W01
        BYTE                   c_v-13
        BYTE           PAN     c_v+34
        BYTE   W01
        BYTE           BEND    c_v-12
        BYTE           PAN     c_v+33
        BYTE   W01
        BYTE           VOL     34
        BYTE   W02
        BYTE           BEND    c_v-11
        BYTE           PAN     c_v+32
        BYTE   W01
        BYTE           VOL     33
        BYTE   W01
        BYTE           PAN     c_v+31
        BYTE   W01
        BYTE           BEND    c_v-10
        BYTE           PAN     c_v+30
        BYTE   W02
        BYTE           BEND    c_v-9
        BYTE           PAN     c_v+29
        BYTE           VOL     32
        BYTE   W01
        BYTE           PAN     c_v+28
        BYTE   W02
        BYTE           BEND    c_v-8
        BYTE           PAN     c_v+27
        BYTE   W02
        BYTE           VOL     31
        BYTE   W01
        BYTE           BEND    c_v-7
        BYTE           PAN     c_v+26
        BYTE   W01
        BYTE           BEND    c_v-6
        BYTE           PAN     c_v+25
        BYTE   W02
        BYTE                   c_v+24
        BYTE           VOL     30
        BYTE   W01
        BYTE           BEND    c_v-5
        BYTE           PAN     c_v+23
        BYTE   W02
        BYTE                   c_v+22
        BYTE           VOL     29
        BYTE   W01
        BYTE           BEND    c_v-4
        BYTE           PAN     c_v+21
        BYTE   W02
        BYTE           BEND    c_v-3
        BYTE   W01
        BYTE           PAN     c_v+20
        BYTE   W01
        BYTE           VOL     28
        BYTE   W01
        BYTE           BEND    c_v-2
        BYTE           PAN     c_v+19
        BYTE   W01
        BYTE                   c_v+18
        BYTE           BEND    c_v-1
        BYTE   W02
        BYTE           PAN     c_v+17
        BYTE           BEND    c_v-3
        BYTE           VOL     27
        BYTE   W01
        BYTE           PAN     c_v+16
        BYTE           BEND    c_v-5
        BYTE   W02
        BYTE           PAN     c_v+15
        BYTE           BEND    c_v-7
        BYTE           VOL     26
        BYTE   W01
        BYTE           BEND    c_v-8
        BYTE   W02
        BYTE           PAN     c_v+14
        BYTE           BEND    c_v-10
        BYTE   W01
        BYTE           PAN     c_v+13
        BYTE           BEND    c_v-12
        BYTE   W01
        BYTE           VOL     25
        BYTE   W01
        BYTE           PAN     c_v+12
        BYTE           BEND    c_v-14
        BYTE   W01
        BYTE           PAN     c_v+11
        BYTE           BEND    c_v-16
        BYTE   W02
        BYTE           VOL     24
        BYTE           PAN     c_v+10
        BYTE           BEND    c_v-18
        BYTE   W01
        BYTE           VOL     23
        BYTE           PAN     c_v+9
        BYTE           BEND    c_v-20
        BYTE   W02
        BYTE           PAN     c_v+8
        BYTE           BEND    c_v-21
        BYTE   W01
        BYTE           VOL     22
        BYTE           BEND    c_v-23
        BYTE   W02
        BYTE           PAN     c_v+7
        BYTE           BEND    c_v-25
        BYTE   W01
        BYTE           VOL     21
        BYTE           PAN     c_v+6
        BYTE           BEND    c_v-27
        BYTE   W02
        BYTE           VOL     20
        BYTE           PAN     c_v+5
        BYTE           BEND    c_v-29
        BYTE   W01
        BYTE           PAN     c_v+4
        BYTE           BEND    c_v-31
        BYTE   W02
        BYTE           VOL     19
        BYTE           PAN     c_v+3
        BYTE           BEND    c_v-32
        BYTE   W01
        BYTE           VOL     18
        BYTE           PAN     c_v+2
        BYTE           BEND    c_v-34
        BYTE   W02
        BYTE                   c_v-36
        BYTE   W01
        BYTE           VOL     17
        BYTE           BEND    c_v-38
        BYTE   W02
        BYTE           VOL     16
        BYTE           BEND    c_v-40
        BYTE   W01
        BYTE                   c_v-42
        BYTE   W02
        BYTE           VOL     15
        BYTE           BEND    c_v-44
        BYTE   W01
        BYTE                   c_v-45
        BYTE   W02
        BYTE           VOL     14
        BYTE           BEND    c_v-47
        BYTE   W01
        BYTE           VOL     13
        BYTE           BEND    c_v-49
        BYTE   W02
        BYTE                   c_v-51
        BYTE   W01
        BYTE           VOL     12
        BYTE           BEND    c_v-53
        BYTE   W02
        BYTE                   c_v-55
        BYTE   W01
        BYTE           VOL     11
        BYTE           BEND    c_v-56
        BYTE   W02
        BYTE           VOL     10
        BYTE           BEND    c_v-58
        BYTE   W01
        BYTE                   c_v-57
        BYTE   W02
        BYTE           VOL     9
        BYTE           BEND    c_v-59
        BYTE   W01
        BYTE           VOL     8
        BYTE   W01
        BYTE           EOT     As2
        BYTE                   Cs4
        BYTE   W01
        BYTE           VOL     7
        BYTE   W03
        BYTE                   6
        BYTE   W03
        BYTE                   5
        BYTE   W01
        BYTE                   4
        BYTE   W02
// 025   ----------------------------------------
        BYTE   W01
        BYTE                   3
        BYTE   W03
        BYTE                   2
        BYTE   W01
        BYTE                   1
        BYTE   W42
        BYTE   W01
        BYTE           EOT     An3
        BYTE                   As3
        BYTE   W24
        BYTE                   Ds4
        BYTE   W24
// 026   ----------------------------------------
        BYTE                   Fs3
        BYTE           VOL     47
        BYTE           PAN     c_v+0
        BYTE           BEND    c_v+0
        BYTE   GoTo
         POIN2  TheMadGodsBlessing_3_LOOP
        BYTE   W06
        BYTE   FINE

//****************** Track 4 (Midi-Chn.4) ******************//

TheMadGodsBlessing_4:
        BYTE   KEYSH   TheMadGodsBlessing_key+0
// 000   ----------------------------------------
        BYTE           VOICE   81
        BYTE           VOL     52
        BYTE           PAN     c_v-47
        BYTE   W96
// 001   ----------------------------------------
        BYTE   W96
// 002   ----------------------------------------
        BYTE   W96
// 003   ----------------------------------------
        BYTE   W96
// 004   ----------------------------------------
TheMadGodsBlessing_4_LOOP:
        BYTE           N02     An2   v100
        BYTE   W03
        BYTE                   An1
        BYTE   W03
        BYTE                   An2
        BYTE   W03
        BYTE                   An1
        BYTE   W03
        BYTE                   An2
        BYTE   W03
        BYTE                   An1
        BYTE   W03
        BYTE                   An2
        BYTE   W03
        BYTE           N03     An1
        BYTE   W03
        BYTE           N02     As2
        BYTE   W03
        BYTE                   As1
        BYTE   W03
        BYTE                   As2
        BYTE   W03
        BYTE                   As1
        BYTE   W03
        BYTE                   As2
        BYTE   W03
        BYTE                   As1
        BYTE   W03
        BYTE                   As2
        BYTE   W03
        BYTE           N03     As1
        BYTE   W03
        BYTE           N02     Cs3
        BYTE   W03
        BYTE                   Cs2
        BYTE   W03
        BYTE                   Cs3
        BYTE   W03
        BYTE                   Cs2
        BYTE   W03
        BYTE                   Cs3
        BYTE   W03
        BYTE                   Cs2
        BYTE   W03
        BYTE                   Cs3
        BYTE   W03
        BYTE           N03     Cs2
        BYTE   W03
        BYTE           N02     Dn3
        BYTE   W03
        BYTE                   Dn2
        BYTE   W03
        BYTE                   Dn3
        BYTE   W03
        BYTE                   Dn2
        BYTE   W03
        BYTE                   Dn3
        BYTE   W03
        BYTE                   Dn2
        BYTE   W03
        BYTE                   Dn3
        BYTE   W03
        BYTE           N03     Dn2
        BYTE   W03
// 005   ----------------------------------------
TheMadGodsBlessing_4_5:
        BYTE           N02     Fn2   v100
        BYTE   W03
        BYTE                   Fn1
        BYTE   W03
        BYTE                   Fn2
        BYTE   W03
        BYTE                   Fn1
        BYTE   W03
        BYTE                   Fn2
        BYTE   W03
        BYTE                   Fn1
        BYTE   W03
        BYTE                   Fn2
        BYTE   W03
        BYTE           N03     Fn1
        BYTE   W03
        BYTE           N02     An2
        BYTE   W03
        BYTE                   An1
        BYTE   W03
        BYTE                   An2
        BYTE   W03
        BYTE                   An1
        BYTE   W03
        BYTE                   An2
        BYTE   W03
        BYTE                   An1
        BYTE   W03
        BYTE                   An2
        BYTE   W03
        BYTE           N03     An1
        BYTE   W03
        BYTE           N02     Gs2
        BYTE   W03
        BYTE                   Gs1
        BYTE   W03
        BYTE                   Gs2
        BYTE   W03
        BYTE                   Gs1
        BYTE   W03
        BYTE                   Gs2
        BYTE   W03
        BYTE                   Gs1
        BYTE   W03
        BYTE                   Gs2
        BYTE   W03
        BYTE           N03     Gs1
        BYTE   W03
        BYTE           N02     Bn2
        BYTE   W03
        BYTE                   Bn1
        BYTE   W03
        BYTE                   Bn2
        BYTE   W03
        BYTE                   Bn1
        BYTE   W03
        BYTE                   Bn2
        BYTE   W03
        BYTE                   Bn1
        BYTE   W03
        BYTE                   Bn2
        BYTE   W03
        BYTE           N03     Bn1
        BYTE   W03
        BYTE   PEND
// 006   ----------------------------------------
TheMadGodsBlessing_4_6:
        BYTE           N02     An2   v100
        BYTE   W03
        BYTE                   An1
        BYTE   W03
        BYTE                   An2
        BYTE   W03
        BYTE                   An1
        BYTE   W03
        BYTE                   An2
        BYTE   W03
        BYTE                   An1
        BYTE   W03
        BYTE                   An2
        BYTE   W03
        BYTE           N03     An1
        BYTE   W03
        BYTE           N02     As2
        BYTE   W03
        BYTE                   As1
        BYTE   W03
        BYTE                   As2
        BYTE   W03
        BYTE                   As1
        BYTE   W03
        BYTE                   As2
        BYTE   W03
        BYTE                   As1
        BYTE   W03
        BYTE                   As2
        BYTE   W03
        BYTE           N03     As1
        BYTE   W03
        BYTE           N02     An2
        BYTE   W03
        BYTE                   An1
        BYTE   W03
        BYTE                   An2
        BYTE   W03
        BYTE                   An1
        BYTE   W03
        BYTE                   An2
        BYTE   W03
        BYTE                   An1
        BYTE   W03
        BYTE                   An2
        BYTE   W03
        BYTE           N03     An1
        BYTE   W03
        BYTE           N02     As2
        BYTE   W03
        BYTE                   As1
        BYTE   W03
        BYTE                   As2
        BYTE   W03
        BYTE                   As1
        BYTE   W03
        BYTE                   As2
        BYTE   W03
        BYTE                   As1
        BYTE   W03
        BYTE                   As2
        BYTE   W03
        BYTE           N03     As1
        BYTE   W03
        BYTE   PEND
// 007   ----------------------------------------
TheMadGodsBlessing_4_7:
        BYTE           N02     Cs3   v100
        BYTE   W03
        BYTE                   Cs2
        BYTE   W03
        BYTE                   Cs3
        BYTE   W03
        BYTE                   Cs2
        BYTE   W03
        BYTE                   Cs3
        BYTE   W03
        BYTE                   Cs2
        BYTE   W03
        BYTE                   Cs3
        BYTE   W03
        BYTE           N03     Cs2
        BYTE   W03
        BYTE           N02     Dn2
        BYTE   W03
        BYTE                   Dn1
        BYTE   W03
        BYTE                   Dn2
        BYTE   W03
        BYTE                   Dn1
        BYTE   W03
        BYTE                   Dn2
        BYTE   W03
        BYTE                   Dn1
        BYTE   W03
        BYTE                   Dn2
        BYTE   W03
        BYTE           N03     Dn1
        BYTE   W03
        BYTE           N02     Fn2
        BYTE   W03
        BYTE                   Fn1
        BYTE   W03
        BYTE                   Fn2
        BYTE   W03
        BYTE                   Fn1
        BYTE   W03
        BYTE                   Fn2
        BYTE   W03
        BYTE                   Fn1
        BYTE   W03
        BYTE                   Fn2
        BYTE   W03
        BYTE           N03     Fn1
        BYTE   W03
        BYTE           N02     An2
        BYTE   W03
        BYTE                   An1
        BYTE   W03
        BYTE                   An2
        BYTE   W03
        BYTE                   An1
        BYTE   W03
        BYTE                   An2
        BYTE   W03
        BYTE                   An1
        BYTE   W03
        BYTE                   An2
        BYTE   W03
        BYTE           N03     An1
        BYTE   W03
        BYTE   PEND
// 008   ----------------------------------------
TheMadGodsBlessing_4_8:
        BYTE           N02     Gs2   v100
        BYTE   W03
        BYTE                   Gs1
        BYTE   W03
        BYTE                   Gs2
        BYTE   W03
        BYTE                   Gs1
        BYTE   W03
        BYTE                   Gs2
        BYTE   W03
        BYTE                   Gs1
        BYTE   W03
        BYTE                   Gs2
        BYTE   W03
        BYTE           N03     Gs1
        BYTE   W03
        BYTE           N02     Bn2
        BYTE   W03
        BYTE                   Bn1
        BYTE   W03
        BYTE                   Bn2
        BYTE   W03
        BYTE                   Bn1
        BYTE   W03
        BYTE                   Bn2
        BYTE   W03
        BYTE                   Bn1
        BYTE   W03
        BYTE                   Bn2
        BYTE   W03
        BYTE           N03     Bn1
        BYTE   W03
        BYTE           N02     An2
        BYTE   W03
        BYTE                   An1
        BYTE   W03
        BYTE                   An2
        BYTE   W03
        BYTE                   An1
        BYTE   W03
        BYTE                   An2
        BYTE   W03
        BYTE                   An1
        BYTE   W03
        BYTE                   An2
        BYTE   W03
        BYTE           N03     An1
        BYTE   W03
        BYTE           N02     As2
        BYTE   W03
        BYTE                   As1
        BYTE   W03
        BYTE                   As2
        BYTE   W03
        BYTE                   As1
        BYTE   W03
        BYTE                   As2
        BYTE   W03
        BYTE                   As1
        BYTE   W03
        BYTE                   As2
        BYTE   W03
        BYTE           N03     As1
        BYTE   W03
        BYTE   PEND
// 009   ----------------------------------------
        BYTE           N02     An2
        BYTE   W03
        BYTE                   An1
        BYTE   W03
        BYTE                   An2
        BYTE   W03
        BYTE                   An1
        BYTE   W03
        BYTE                   An2
        BYTE   W03
        BYTE                   An1
        BYTE   W03
        BYTE                   An2
        BYTE   W03
        BYTE           N03     An1
        BYTE   W03
        BYTE           N02     As2
        BYTE   W03
        BYTE                   As1
        BYTE   W03
        BYTE                   As2
        BYTE   W03
        BYTE                   As1
        BYTE   W03
        BYTE                   As2
        BYTE   W03
        BYTE                   As1
        BYTE   W03
        BYTE                   As2
        BYTE   W03
        BYTE           N03     As1
        BYTE   W03
        BYTE           N02     Cs3
        BYTE   W03
        BYTE                   Cs2
        BYTE   W03
        BYTE                   Cs3
        BYTE   W03
        BYTE                   Cs2
        BYTE   W03
        BYTE                   Cs3
        BYTE   W03
        BYTE                   Cs2
        BYTE   W03
        BYTE                   Cs3
        BYTE   W03
        BYTE           N03     Cs2
        BYTE   W03
        BYTE           N02     Dn3
        BYTE   W03
        BYTE                   Dn2
        BYTE   W03
        BYTE                   Dn3
        BYTE   W03
        BYTE                   Dn2
        BYTE   W03
        BYTE                   Dn3
        BYTE   W03
        BYTE                   Dn2
        BYTE   W03
        BYTE                   Dn3
        BYTE   W03
        BYTE           N03     Dn2
        BYTE   W03
// 010   ----------------------------------------
        BYTE   PATT
         POIN2  TheMadGodsBlessing_4_5
// 011   ----------------------------------------
        BYTE   PATT
         POIN2  TheMadGodsBlessing_4_6
// 012   ----------------------------------------
        BYTE   PATT
         POIN2  TheMadGodsBlessing_4_7
// 013   ----------------------------------------
        BYTE   PATT
         POIN2  TheMadGodsBlessing_4_8
// 014   ----------------------------------------
        BYTE           N21     An1   v100
        BYTE   W24
        BYTE           N20     As1
        BYTE   W24
        BYTE                   Cs2
        BYTE   W24
        BYTE                   Dn2
        BYTE   W24
// 015   ----------------------------------------
TheMadGodsBlessing_4_15:
        BYTE           N20     Fn1   v100
        BYTE   W24
        BYTE                   An1
        BYTE   W24
        BYTE                   Gs1
        BYTE   W24
        BYTE                   Bn1
        BYTE   W24
        BYTE   PEND
// 016   ----------------------------------------
TheMadGodsBlessing_4_16:
        BYTE           N20     An1   v100
        BYTE   W24
        BYTE                   As1
        BYTE   W24
        BYTE                   An1
        BYTE   W24
        BYTE                   As1
        BYTE   W24
        BYTE   PEND
// 017   ----------------------------------------
        BYTE                   Cs2
        BYTE   W24
        BYTE                   Dn1
        BYTE   W24
        BYTE                   Fn1
        BYTE   W24
        BYTE                   An1
        BYTE   W24
// 018   ----------------------------------------
        BYTE                   Gs1
        BYTE   W24
        BYTE                   Bn1
        BYTE   W24
        BYTE                   An1
        BYTE   W24
        BYTE                   As1
        BYTE   W24
// 019   ----------------------------------------
        BYTE                   An1
        BYTE   W24
        BYTE                   As1
        BYTE   W24
        BYTE                   Cs2
        BYTE   W24
        BYTE                   Dn2
        BYTE   W24
// 020   ----------------------------------------
        BYTE   PATT
         POIN2  TheMadGodsBlessing_4_15
// 021   ----------------------------------------
        BYTE   PATT
         POIN2  TheMadGodsBlessing_4_16
// 022   ----------------------------------------
        BYTE           PAN     c_v-32
        BYTE           N03     Gs1   v096
        BYTE   W06
        BYTE                   Gs1   v080
        BYTE   W06
        BYTE                   Gs1   v064
        BYTE   W06
        BYTE                   Gs1   v048
        BYTE   W06
        BYTE                   Cs2   v096
        BYTE   W06
        BYTE                   Cs2   v080
        BYTE   W06
        BYTE                   Cs2   v064
        BYTE   W06
        BYTE                   Cs2   v048
        BYTE   W06
        BYTE                   Dn2   v096
        BYTE   W06
        BYTE                   Dn2   v080
        BYTE   W06
        BYTE                   Dn2   v064
        BYTE   W06
        BYTE                   Dn2   v048
        BYTE   W06
        BYTE                   Fn2   v096
        BYTE   W06
        BYTE                   Fn2   v080
        BYTE   W06
        BYTE                   Fn2   v064
        BYTE   W06
        BYTE                   Fn2   v048
        BYTE   W06
// 023   ----------------------------------------
TheMadGodsBlessing_4_23:
        BYTE           N03     Fn1   v096
        BYTE   W06
        BYTE                   Fn1   v080
        BYTE   W06
        BYTE                   Fn1   v064
        BYTE   W06
        BYTE                   Fn1   v048
        BYTE   W06
        BYTE                   Fs1   v096
        BYTE   W06
        BYTE                   Fs1   v080
        BYTE   W06
        BYTE                   Fs1   v064
        BYTE   W06
        BYTE                   Fs1   v048
        BYTE   W06
        BYTE                   Cn2   v096
        BYTE   W06
        BYTE                   Cn2   v080
        BYTE   W06
        BYTE                   Cn2   v064
        BYTE   W06
        BYTE                   Cn2   v048
        BYTE   W06
        BYTE                   As1   v096
        BYTE   W06
        BYTE                   As1   v080
        BYTE   W06
        BYTE                   As1   v064
        BYTE   W06
        BYTE                   As1   v048
        BYTE   W06
        BYTE   PEND
// 024   ----------------------------------------
TheMadGodsBlessing_4_24:
        BYTE           N06     Dn1   v100
        BYTE   W06
        BYTE                   Fn1
        BYTE   W06
        BYTE                   Gs1
        BYTE   W06
        BYTE                   Bn1
        BYTE   W06
        BYTE                   Dn2
        BYTE   W06
        BYTE                   Fn2
        BYTE   W06
        BYTE                   Gs1
        BYTE   W06
        BYTE                   Bn1
        BYTE   W06
        BYTE                   Dn1
        BYTE   W06
        BYTE                   Fn1
        BYTE   W06
        BYTE                   Gs1
        BYTE   W06
        BYTE                   Bn1
        BYTE   W06
        BYTE                   Dn2
        BYTE   W06
        BYTE                   Fn2
        BYTE   W06
        BYTE                   Gs1
        BYTE   W06
        BYTE                   Bn1
        BYTE   W06
        BYTE   PEND
// 025   ----------------------------------------
TheMadGodsBlessing_4_25:
        BYTE           N06     Fn1   v100
        BYTE   W06
        BYTE                   Gs1
        BYTE   W06
        BYTE                   Bn1
        BYTE   W06
        BYTE                   Dn2
        BYTE   W06
        BYTE                   Fn2
        BYTE   W06
        BYTE                   Gs2
        BYTE   W06
        BYTE                   Bn1
        BYTE   W06
        BYTE                   Dn2
        BYTE   W06
        BYTE                   Fn1
        BYTE   W06
        BYTE                   Gs1
        BYTE   W06
        BYTE                   Bn1
        BYTE   W06
        BYTE                   Dn2
        BYTE   W06
        BYTE                   Fn2
        BYTE   W06
        BYTE                   Gs2
        BYTE   W06
        BYTE                   Bn1
        BYTE   W06
        BYTE                   Dn2
        BYTE   W06
        BYTE   PEND
// 026   ----------------------------------------
        BYTE           PAN     c_v-47
        BYTE   GoTo
         POIN2  TheMadGodsBlessing_4_LOOP
        BYTE   W06
        BYTE   FINE

//****************** Track 5 (Midi-Chn.5) ******************//

TheMadGodsBlessing_5:
        BYTE   KEYSH   TheMadGodsBlessing_key+0
// 000   ----------------------------------------
        BYTE           VOICE   89
        BYTE           VOL     48
        BYTE           PAN     c_v-13
        BYTE           N24     Gs3   v100
        BYTE   W24
        BYTE                   Cs4
        BYTE   W24
        BYTE                   Dn4
        BYTE   W24
        BYTE                   Fn4
        BYTE   W24
// 001   ----------------------------------------
TheMadGodsBlessing_5_1:
        BYTE           N24     Fn3   v100
        BYTE   W24
        BYTE                   Fs3
        BYTE   W24
        BYTE                   Cn4
        BYTE   W24
        BYTE                   As3
        BYTE   W24
        BYTE   PEND
// 002   ----------------------------------------
TheMadGodsBlessing_5_2:
        BYTE           N24     En4   v100
        BYTE           N24     Cn3
        BYTE   W24
        BYTE           N44     Fn4   v100   gtp1
        BYTE                   Bn2
        BYTE   W48
        BYTE           TIE     Fn4
        BYTE           TIE     En2
        BYTE   W24
        BYTE   PEND
// 003   ----------------------------------------
TheMadGodsBlessing_5_3:
        BYTE   W78
        BYTE           EOT     En2
        BYTE                   Fn4
        BYTE   W18
        BYTE   PEND
// 004   ----------------------------------------
TheMadGodsBlessing_5_LOOP:
        BYTE           VOICE   91
        BYTE           N10     Fn3   v100
        BYTE           N10     Fn4
        BYTE   W12
        BYTE                   En3
        BYTE           N10     En4
        BYTE   W12
        BYTE                   Bn2
        BYTE           N10     Bn3
        BYTE   W12
        BYTE           N54     Dn3   v100   gtp1
        BYTE                   Dn4
        BYTE   W60
// 005   ----------------------------------------
        BYTE           N12     Gs3
        BYTE           N12     Gs4
        BYTE   W12
        BYTE                   Gn3
        BYTE           N12     Gn4
        BYTE   W12
        BYTE                   Cn3
        BYTE           N12     Cn4
        BYTE   W12
        BYTE           N44     Ds3   v100   gtp1
        BYTE                   Ds4
        BYTE   W48
        BYTE           N10     En3
        BYTE           N10     En4
        BYTE   W12
// 006   ----------------------------------------
        BYTE                   Bn2
        BYTE           N10     Bn3
        BYTE   W12
        BYTE           N64     Dn3
        BYTE           N64     Dn4
        BYTE   W72
        BYTE           N10     Fn3
        BYTE           N10     Fn2
        BYTE   W12
// 007   ----------------------------------------
        BYTE                   Gs3
        BYTE           N10     Gs2
        BYTE   W12
        BYTE           N68     Bn3   v100   gtp1
        BYTE                   Bn2
        BYTE   W72
        BYTE           N02     Gs2
        BYTE           N02     Gs3
        BYTE   W03
        BYTE                   An2
        BYTE           N02     An3
        BYTE   W03
        BYTE                   Gs2
        BYTE           N02     Gs3
        BYTE   W03
        BYTE                   Fs2
        BYTE           N02     Fs3
        BYTE   W03
// 008   ----------------------------------------
        BYTE           N64     Dn3
        BYTE           N64     Dn4
        BYTE   W84
        BYTE           N21     Dn3
        BYTE           N21     Dn4
        BYTE   W12
// 009   ----------------------------------------
        BYTE   W12
        BYTE                   Fn3
        BYTE           N21     Fn4
        BYTE   W24
        BYTE           N64     Bn2   v097
        BYTE           N64     Bn3
        BYTE   W60
// 010   ----------------------------------------
        BYTE   W96
// 011   ----------------------------------------
        BYTE   W96
// 012   ----------------------------------------
        BYTE   W96
// 013   ----------------------------------------
        BYTE   W96
// 014   ----------------------------------------
        BYTE           VOICE   105
        BYTE           N12     Fn5   v084
        BYTE   W12
        BYTE                   En5
        BYTE   W12
        BYTE                   Bn4
        BYTE   W12
        BYTE           N54     Dn5   v084   gtp1
        BYTE   W60
// 015   ----------------------------------------
        BYTE           N12     Gs5
        BYTE   W12
        BYTE                   Gn5
        BYTE   W12
        BYTE                   Cn5
        BYTE   W12
        BYTE           N44     Ds5   v084   gtp1
        BYTE   W48
        BYTE           N12     En5
        BYTE   W12
// 016   ----------------------------------------
        BYTE                   Bn4
        BYTE   W12
        BYTE           N64     Dn5
        BYTE   W72
        BYTE           N12     Fn4
        BYTE   W12
// 017   ----------------------------------------
        BYTE                   Gs4
        BYTE   W12
        BYTE           N68     Bn4   v084   gtp1
        BYTE   W72
        BYTE           N03     Gs4
        BYTE   W03
        BYTE                   An4
        BYTE   W03
        BYTE                   Gs4
        BYTE   W03
        BYTE                   Fs4
        BYTE   W03
// 018   ----------------------------------------
        BYTE           N64     Dn5
        BYTE   W84
        BYTE           N24
        BYTE   W12
// 019   ----------------------------------------
        BYTE   W12
        BYTE                   Fn5
        BYTE   W24
        BYTE           TIE     Bn4
        BYTE   W60
// 020   ----------------------------------------
        BYTE   W60
        BYTE   W02
        BYTE           EOT
        BYTE   W32
        BYTE   W02
// 021   ----------------------------------------
        BYTE   W96
// 022   ----------------------------------------
        BYTE           VOICE   89
        BYTE           N24     Gs3   v100
        BYTE   W24
        BYTE                   Cs4
        BYTE   W24
        BYTE                   Dn4
        BYTE   W24
        BYTE                   Fn4
        BYTE   W24
// 023   ----------------------------------------
        BYTE   PATT
         POIN2  TheMadGodsBlessing_5_1
// 024   ----------------------------------------
        BYTE   PATT
         POIN2  TheMadGodsBlessing_5_2
// 025   ----------------------------------------
        BYTE   PATT
         POIN2  TheMadGodsBlessing_5_3
// 026   ----------------------------------------
        BYTE           VOICE   91
        BYTE   GoTo
         POIN2  TheMadGodsBlessing_5_LOOP
        BYTE   W06
        BYTE   FINE

//****************** Track 6 (Midi-Chn.6) ******************//

TheMadGodsBlessing_6:
        BYTE   KEYSH   TheMadGodsBlessing_key+0
// 000   ----------------------------------------
        BYTE           VOICE   93
        BYTE           PAN     c_v+18
        BYTE           VOL     52
        BYTE   W96
// 001   ----------------------------------------
        BYTE   W96
// 002   ----------------------------------------
        BYTE   W96
// 003   ----------------------------------------
        BYTE   W96
// 004   ----------------------------------------
TheMadGodsBlessing_6_LOOP:
        BYTE           N24     An1   v100
        BYTE   W24
        BYTE                   As1
        BYTE   W24
        BYTE                   Cs2
        BYTE   W24
        BYTE                   Dn1
        BYTE   W24
// 005   ----------------------------------------
        BYTE                   Fn1
        BYTE   W24
        BYTE                   An1
        BYTE   W24
        BYTE                   Gs1
        BYTE   W24
        BYTE                   Bn1
        BYTE   W24
// 006   ----------------------------------------
        BYTE                   An1
        BYTE   W24
        BYTE           N48     Dn1
        BYTE   W60
        BYTE           N10     Fn0
        BYTE   W12
// 007   ----------------------------------------
        BYTE                   Gs0
        BYTE   W12
        BYTE           N68     Bn0   v100   gtp1
        BYTE   W72
        BYTE           N12     Dn1
        BYTE   W12
// 008   ----------------------------------------
        BYTE           N84     Fn1
        BYTE   W96
// 009   ----------------------------------------
        BYTE   W96
// 010   ----------------------------------------
        BYTE   W96
// 011   ----------------------------------------
        BYTE   W96
// 012   ----------------------------------------
        BYTE   W96
// 013   ----------------------------------------
        BYTE   W96
// 014   ----------------------------------------
        BYTE   W12
        BYTE           VOICE   55
        BYTE           N06     Bn2
        BYTE           N06     Fs2
        BYTE   W06
        BYTE                   Bn2   v064
        BYTE           N06     Fs2
        BYTE   W12
        BYTE                   Bn2   v100
        BYTE           N06     Fn2
        BYTE   W06
        BYTE                   Bn2   v064
        BYTE           N06     Fn2
        BYTE   W12
        BYTE                   Bn2   v100
        BYTE           N06     Fs2
        BYTE   W06
        BYTE                   Bn2   v064
        BYTE           N06     Fs2
        BYTE   W42
// 015   ----------------------------------------
TheMadGodsBlessing_6_15:
        BYTE   W12
        BYTE           N06     Dn3   v100
        BYTE           N06     Gs2
        BYTE   W06
        BYTE                   Dn3   v064
        BYTE           N06     Gs2
        BYTE   W12
        BYTE                   Dn3   v100
        BYTE           N06     Gn2
        BYTE   W06
        BYTE                   Dn3   v064
        BYTE           N06     Gn2
        BYTE   W12
        BYTE                   Dn3   v100
        BYTE           N06     Gs2
        BYTE   W06
        BYTE                   Dn3   v064
        BYTE           N06     Gs2
        BYTE   W42
        BYTE   PEND
// 016   ----------------------------------------
TheMadGodsBlessing_6_16:
        BYTE   W12
        BYTE           N06     Bn2   v100
        BYTE           N06     Fs2
        BYTE   W06
        BYTE                   Bn2   v064
        BYTE           N06     Fs2
        BYTE   W12
        BYTE                   Bn2   v100
        BYTE           N06     Fn2
        BYTE   W06
        BYTE                   Bn2   v064
        BYTE           N06     Fn2
        BYTE   W12
        BYTE                   Bn2   v100
        BYTE           N06     Fs2
        BYTE   W06
        BYTE                   Bn2   v064
        BYTE           N06     Fs2
        BYTE   W42
        BYTE   PEND
// 017   ----------------------------------------
        BYTE   PATT
         POIN2  TheMadGodsBlessing_6_15
// 018   ----------------------------------------
        BYTE   PATT
         POIN2  TheMadGodsBlessing_6_16
// 019   ----------------------------------------
        BYTE   PATT
         POIN2  TheMadGodsBlessing_6_15
// 020   ----------------------------------------
        BYTE   PATT
         POIN2  TheMadGodsBlessing_6_16
// 021   ----------------------------------------
        BYTE   PATT
         POIN2  TheMadGodsBlessing_6_15
// 022   ----------------------------------------
        BYTE   W96
// 023   ----------------------------------------
        BYTE   W96
// 024   ----------------------------------------
        BYTE   W96
// 025   ----------------------------------------
        BYTE   W96
// 026   ----------------------------------------
        BYTE           VOICE   93
        BYTE   GoTo
         POIN2  TheMadGodsBlessing_6_LOOP
        BYTE   W06
        BYTE   FINE

//****************** Track 7 (Midi-Chn.7) ******************//

TheMadGodsBlessing_7:
        BYTE   KEYSH   TheMadGodsBlessing_key+0
// 000   ----------------------------------------
        BYTE           VOICE   18
        BYTE           VOL     66
        BYTE   W48
        BYTE           N42     Cs2   v121
        BYTE   W48
// 001   ----------------------------------------
TheMadGodsBlessing_7_1:
        BYTE   W48
        BYTE           N42     Fs1   v121
        BYTE   W48
        BYTE   PEND
// 002   ----------------------------------------
TheMadGodsBlessing_7_2:
        BYTE           N24     Fn1   v121
        BYTE   W24
        BYTE           TIE     En1
        BYTE   W72
        BYTE   PEND
// 003   ----------------------------------------
        BYTE   W96
// 004   ----------------------------------------
        BYTE           EOT
TheMadGodsBlessing_7_LOOP:
        BYTE   W96
// 005   ----------------------------------------
        BYTE   W96
// 006   ----------------------------------------
        BYTE   W96
// 007   ----------------------------------------
        BYTE   W96
// 008   ----------------------------------------
        BYTE   W96
// 009   ----------------------------------------
TheMadGodsBlessing_7_9:
        BYTE   W24
        BYTE           N42     Dn1   v121   gtp1
        BYTE   W72
        BYTE   PEND
// 010   ----------------------------------------
        BYTE                   Dn1
        BYTE   W72
        BYTE                   Dn1
        BYTE   W24
// 011   ----------------------------------------
        BYTE   W48
        BYTE                   Dn1
        BYTE   W48
// 012   ----------------------------------------
        BYTE   PATT
         POIN2  TheMadGodsBlessing_7_9
// 013   ----------------------------------------
        BYTE           N42     Dn1   v121   gtp1
        BYTE   W72
        BYTE           N36
        BYTE   W24
// 014   ----------------------------------------
        BYTE           N96     Bn1   v100
        BYTE   W96
// 015   ----------------------------------------
        BYTE                   Dn2
        BYTE   W96
// 016   ----------------------------------------
        BYTE                   Bn1
        BYTE   W96
// 017   ----------------------------------------
        BYTE                   Dn2
        BYTE   W96
// 018   ----------------------------------------
        BYTE                   Bn1
        BYTE   W96
// 019   ----------------------------------------
        BYTE                   Dn2
        BYTE   W96
// 020   ----------------------------------------
        BYTE                   Bn1
        BYTE   W96
// 021   ----------------------------------------
        BYTE                   Dn2
        BYTE   W96
// 022   ----------------------------------------
        BYTE   W48
        BYTE           N42     Cs2   v121
        BYTE   W48
// 023   ----------------------------------------
        BYTE   PATT
         POIN2  TheMadGodsBlessing_7_1
// 024   ----------------------------------------
        BYTE   PATT
         POIN2  TheMadGodsBlessing_7_2
// 025   ----------------------------------------
        BYTE   W96
// 026   ----------------------------------------
        BYTE           EOT     En1
        BYTE   GoTo
         POIN2  TheMadGodsBlessing_7_LOOP
        BYTE   W06
        BYTE   FINE

//****************** Track 8 (Midi-Chn.8) ******************//

TheMadGodsBlessing_8:
        BYTE   KEYSH   TheMadGodsBlessing_key+0
// 000   ----------------------------------------
        BYTE           VOICE   123
        BYTE           VOL     56
        BYTE   W96
// 001   ----------------------------------------
        BYTE           N06     Gs4   v016
        BYTE   W06
        BYTE                   Gs4   v032
        BYTE   W06
        BYTE                   Gs4   v048
        BYTE   W06
        BYTE                   Gs4   v064
        BYTE   W06
        BYTE                   Gs4   v096
        BYTE   W06
        BYTE                   Gs4   v080
        BYTE   W06
        BYTE                   Gs4   v064
        BYTE   W06
        BYTE                   Gs4   v048
        BYTE   W06
        BYTE                   Gs4   v032
        BYTE   W06
        BYTE                   Gs4   v016
        BYTE   W18
        BYTE                   Gs4
        BYTE   W06
        BYTE                   Gs4   v032
        BYTE   W06
        BYTE                   Gs4   v048
        BYTE   W06
        BYTE                   Gs4   v064
        BYTE   W06
// 002   ----------------------------------------
TheMadGodsBlessing_8_2:
        BYTE           TIE     En2   v100
        BYTE           N06     Gs4   v096
        BYTE   W06
        BYTE                   Gs4   v080
        BYTE   W06
        BYTE                   Gs4   v064
        BYTE   W06
        BYTE                   Gs4   v048
        BYTE   W06
        BYTE                   Gs4   v032
        BYTE   W06
        BYTE                   Gs4   v016
        BYTE   W18
        BYTE                   Gs4
        BYTE   W06
        BYTE                   Gs4   v032
        BYTE   W06
        BYTE                   Gs4   v048
        BYTE   W06
        BYTE                   Gs4   v064
        BYTE   W06
        BYTE                   Gs4   v096
        BYTE   W06
        BYTE                   Gs4   v080
        BYTE   W06
        BYTE                   Gs4   v064
        BYTE   W06
        BYTE                   Gs4   v048
        BYTE   W06
        BYTE   PEND
// 003   ----------------------------------------
TheMadGodsBlessing_8_3:
        BYTE           N06     Fs2   v016
        BYTE           N06     Gs4   v032
        BYTE   W06
        BYTE                   Fs2
        BYTE           N06     Gs4   v016
        BYTE   W06
        BYTE                   Fs2   v048
        BYTE   W06
        BYTE                   Fs2   v064
        BYTE   W30
        BYTE                   Fs2   v032
        BYTE   W06
        BYTE                   Fs2   v048
        BYTE   W06
        BYTE                   Fs2   v064
        BYTE   W06
        BYTE                   Fs2   v080
        BYTE   W06
        BYTE                   Fs2   v096
        BYTE   W06
        BYTE                   Fs2   v080
        BYTE   W06
        BYTE                   Fs2   v064
        BYTE   W06
        BYTE                   Fs2   v048
        BYTE   W06
        BYTE   PEND
// 004   ----------------------------------------
        BYTE           EOT     En2
TheMadGodsBlessing_8_LOOP:
        BYTE           N48     An2   v100
        BYTE           N12     Cn1   v096
        BYTE   W12
        BYTE                   Cn1   v064
        BYTE   W12
        BYTE                   Cn1   v096
        BYTE   W12
        BYTE                   Cn1   v064
        BYTE   W12
        BYTE                   Cn1   v096
        BYTE   W12
        BYTE                   Cn1   v064
        BYTE   W12
        BYTE                   Cn1   v096
        BYTE   W12
        BYTE                   Cn1   v064
        BYTE   W12
// 005   ----------------------------------------
TheMadGodsBlessing_8_5:
        BYTE           N48     An2   v100
        BYTE           N12     Cn1   v096
        BYTE   W12
        BYTE                   Cn1   v064
        BYTE   W12
        BYTE                   Cn1   v096
        BYTE   W12
        BYTE                   Cn1   v064
        BYTE   W12
        BYTE                   Cn1   v096
        BYTE   W12
        BYTE                   Cn1   v064
        BYTE   W12
        BYTE                   Cn1   v096
        BYTE   W12
        BYTE                   Cn1   v064
        BYTE   W12
        BYTE   PEND
// 006   ----------------------------------------
        BYTE   PATT
         POIN2  TheMadGodsBlessing_8_5
// 007   ----------------------------------------
TheMadGodsBlessing_8_7:
        BYTE           N12     Cn1   v096
        BYTE   W12
        BYTE                   Cn1   v064
        BYTE   W12
        BYTE                   Cn1   v096
        BYTE   W12
        BYTE                   Cn1   v064
        BYTE   W12
        BYTE                   Cn1   v096
        BYTE   W12
        BYTE                   Cn1   v064
        BYTE   W12
        BYTE                   Cn1   v096
        BYTE   W12
        BYTE                   Cn1   v064
        BYTE   W12
        BYTE   PEND
// 008   ----------------------------------------
        BYTE                   Cn1   v096
        BYTE   W12
        BYTE                   Cn1   v064
        BYTE   W12
        BYTE                   Cn1   v096
        BYTE   W12
        BYTE                   Cn1   v064
        BYTE   W12
        BYTE                   Cn1   v096
        BYTE   W12
        BYTE                   Cn1   v064
        BYTE   W12
        BYTE                   Cn1   v096
        BYTE           N24     As2   v100
        BYTE   W12
        BYTE           N12     Cn1   v064
        BYTE   W12
// 009   ----------------------------------------
        BYTE   PATT
         POIN2  TheMadGodsBlessing_8_7
// 010   ----------------------------------------
        BYTE   PATT
         POIN2  TheMadGodsBlessing_8_7
// 011   ----------------------------------------
        BYTE           N12     Cn1   v096
        BYTE   W12
        BYTE                   Cn1   v064
        BYTE   W12
        BYTE                   Cn1   v096
        BYTE   W12
        BYTE                   Cn1   v064
        BYTE   W12
        BYTE                   Cn1   v096
        BYTE   W12
        BYTE                   Cn1   v064
        BYTE   W12
        BYTE                   Cn1   v096
        BYTE           N03     Gn4   v064
        BYTE   W06
        BYTE                   Gn4   v072
        BYTE   W06
        BYTE           N12     Cn1   v064
        BYTE           N03     Gn4   v080
        BYTE   W04
        BYTE                   Gn4   v088
        BYTE   W04
        BYTE                   Gn4   v100
        BYTE   W04
// 012   ----------------------------------------
        BYTE           N12     Cn1   v096
        BYTE           N96     En2   v100
        BYTE           N12     Fs4
        BYTE   W12
        BYTE                   Cn1   v064
        BYTE           N06     Fs4
        BYTE   W12
        BYTE           N12     Cn1   v096
        BYTE           N12     Fs4   v100
        BYTE   W12
        BYTE                   Cn1   v064
        BYTE           N06     Fs4
        BYTE   W12
        BYTE           N12     Cn1   v096
        BYTE   W12
        BYTE                   Cn1   v064
        BYTE   W12
        BYTE                   Cn1   v096
        BYTE   W12
        BYTE                   Cn1   v064
        BYTE   W12
// 013   ----------------------------------------
        BYTE                   Cn1   v096
        BYTE           N06     Gs1
        BYTE   W06
        BYTE                   Gs1   v080
        BYTE   W06
        BYTE           N12     Cn1   v064
        BYTE           N06     Gs1
        BYTE   W06
        BYTE                   Gs1   v048
        BYTE   W06
        BYTE           N12     Cn1   v096
        BYTE           N06     Gs1   v032
        BYTE   W06
        BYTE                   Gs1   v016
        BYTE   W06
        BYTE           N12     Cn1   v064
        BYTE           N06     Gs1   v016
        BYTE   W06
        BYTE                   Gs1   v032
        BYTE   W06
        BYTE           N12     Cn1   v096
        BYTE           N06     Gs1   v048
        BYTE   W06
        BYTE                   Gs1   v064
        BYTE   W06
        BYTE           N12     Cn1
        BYTE           N06     Gs1
        BYTE   W06
        BYTE                   Gs1   v080
        BYTE   W06
        BYTE           N12     Cn1   v096
        BYTE           N06     As1   v064
        BYTE   W06
        BYTE                   Gs1   v080
        BYTE   W06
        BYTE           N12     Cn1   v064
        BYTE           N06     Gs1
        BYTE   W06
        BYTE                   Gs1   v048
        BYTE   W06
// 014   ----------------------------------------
        BYTE                   Cn2   v100
        BYTE           N08     Cn1   v096
        BYTE           N12     Ds1   v100
        BYTE           N24     An2
        BYTE   W12
        BYTE           N08     Cn1   v064
        BYTE   W06
        BYTE           N06     Cn2   v100
        BYTE   W06
        BYTE           N08     Cn1   v096
        BYTE   W12
        BYTE                   Cn1   v064
        BYTE           N06     Bn1   v100
        BYTE   W12
        BYTE           N08     Cn1   v096
        BYTE   W06
        BYTE           N06     Bn1   v100
        BYTE   W06
        BYTE           N08     Cn1   v064
        BYTE           N04     Dn3   v100
        BYTE   W12
        BYTE           N08     Cn1   v096
        BYTE           N06     Gn1   v100
        BYTE           N04     Dn3
        BYTE   W12
        BYTE           N08     Cn1   v064
        BYTE           N06     Gn1   v100
        BYTE           N04     En3
        BYTE   W12
// 015   ----------------------------------------
TheMadGodsBlessing_8_15:
        BYTE           N06     Cn2   v100
        BYTE           N08     Cn1   v096
        BYTE   W12
        BYTE                   Cn1   v064
        BYTE   W06
        BYTE           N06     Cn2   v100
        BYTE   W06
        BYTE           N08     Cn1   v096
        BYTE   W12
        BYTE                   Cn1   v064
        BYTE           N06     Bn1   v100
        BYTE   W12
        BYTE           N08     Cn1   v096
        BYTE   W06
        BYTE           N06     Bn1   v100
        BYTE   W06
        BYTE           N08     Cn1   v064
        BYTE           N04     En3   v100
        BYTE   W12
        BYTE           N08     Cn1   v096
        BYTE           N06     Gn1   v100
        BYTE           N04     Dn3
        BYTE   W12
        BYTE           N08     Cn1   v064
        BYTE           N06     Gn1   v100
        BYTE           N04     En3
        BYTE   W12
        BYTE   PEND
// 016   ----------------------------------------
        BYTE           N06     Cn2
        BYTE           N08     Cn1   v096
        BYTE   W12
        BYTE                   Cn1   v064
        BYTE   W06
        BYTE           N06     Cn2   v100
        BYTE   W06
        BYTE           N08     Cn1   v096
        BYTE   W12
        BYTE                   Cn1   v064
        BYTE           N06     Bn1   v100
        BYTE   W12
        BYTE           N08     Cn1   v096
        BYTE   W06
        BYTE           N06     Bn1   v100
        BYTE   W06
        BYTE           N08     Cn1   v064
        BYTE           N04     Dn3   v100
        BYTE   W12
        BYTE           N08     Cn1   v096
        BYTE           N06     Gn1   v100
        BYTE           N04     Dn3
        BYTE   W12
        BYTE           N08     Cn1   v064
        BYTE           N06     Gn1   v100
        BYTE           N04     En3
        BYTE   W12
// 017   ----------------------------------------
        BYTE           N06     Cn2
        BYTE           N08     Cn1   v096
        BYTE   W12
        BYTE                   Cn1   v064
        BYTE   W06
        BYTE           N06     Cn2   v100
        BYTE   W06
        BYTE           N08     Cn1   v096
        BYTE   W12
        BYTE                   Cn1   v064
        BYTE           N06     Bn1   v100
        BYTE   W12
        BYTE           N08     Cn1   v096
        BYTE           N06     Fs2   v064
        BYTE   W06
        BYTE                   Bn1   v100
        BYTE           N06     Fs2   v048
        BYTE   W06
        BYTE           N08     Cn1   v064
        BYTE           N06     Fs2   v080
        BYTE           N04     Dn3   v100
        BYTE   W06
        BYTE           N06     Fs2   v064
        BYTE   W06
        BYTE           N08     Cn1   v096
        BYTE           N06     Fs2
        BYTE           N06     Gn1   v100
        BYTE           N04     Dn3
        BYTE   W06
        BYTE           N06     Fs2   v080
        BYTE   W06
        BYTE           N08     Cn1   v064
        BYTE           N06     Gn1   v100
        BYTE           N06     Fs2   v088
        BYTE           N04     Dn3   v100
        BYTE   W06
        BYTE           N06     Fs2   v056
        BYTE           N04     Dn3   v100
        BYTE   W06
// 018   ----------------------------------------
        BYTE           N06     Cn2
        BYTE           N08     Cn1   v096
        BYTE           N24     An2   v100
        BYTE   W12
        BYTE           N08     Cn1   v064
        BYTE   W06
        BYTE           N06     Cn2   v100
        BYTE   W06
        BYTE           N08     Cn1   v096
        BYTE   W12
        BYTE                   Cn1   v064
        BYTE           N06     Bn1   v100
        BYTE   W12
        BYTE           N08     Cn1   v096
        BYTE   W06
        BYTE           N06     Bn1   v100
        BYTE   W06
        BYTE           N08     Cn1   v064
        BYTE           N04     Dn3   v100
        BYTE   W12
        BYTE           N08     Cn1   v096
        BYTE           N06     Gn1   v100
        BYTE           N04     Dn3
        BYTE   W12
        BYTE           N08     Cn1   v064
        BYTE           N06     Gn1   v100
        BYTE           N04     En3
        BYTE   W12
// 019   ----------------------------------------
        BYTE   PATT
         POIN2  TheMadGodsBlessing_8_15
// 020   ----------------------------------------
        BYTE           N06     Cn2   v100
        BYTE           N08     Cn1   v096
        BYTE   W12
        BYTE                   Cn1   v064
        BYTE   W06
        BYTE           N06     Cn2   v100
        BYTE   W06
        BYTE           N08     Cn1   v096
        BYTE   W12
        BYTE                   Cn1   v064
        BYTE           N06     Bn1   v100
        BYTE   W12
        BYTE           N08     Cn1   v096
        BYTE   W06
        BYTE           N06     Bn1   v100
        BYTE   W06
        BYTE           N08     Cn1   v064
        BYTE           N04     Dn3   v100
        BYTE   W12
        BYTE           N08     Cn1   v096
        BYTE           N06     Gn1   v100
        BYTE           N04     Dn3
        BYTE   W12
        BYTE           N08     Cn1   v064
        BYTE           N06     Gn1   v100
        BYTE           N12     Cs2
        BYTE           N04     En3
        BYTE   W12
// 021   ----------------------------------------
        BYTE           N06     Cn2
        BYTE           N08     Cn1   v096
        BYTE   W12
        BYTE                   Cn1   v064
        BYTE   W06
        BYTE           N06     Cn2   v100
        BYTE   W06
        BYTE           N08     Cn1   v096
        BYTE   W12
        BYTE                   Cn1   v064
        BYTE           N06     Bn1   v100
        BYTE   W12
        BYTE           N08     Cn1   v096
        BYTE           N06     Fs2   v064
        BYTE   W06
        BYTE                   Bn1   v100
        BYTE           N06     Fs2   v048
        BYTE   W06
        BYTE           N08     Cn1   v064
        BYTE           N06     Fs2   v080
        BYTE           N04     Dn3   v100
        BYTE   W06
        BYTE           N06     Fs2   v064
        BYTE   W06
        BYTE           N08     Cn1   v096
        BYTE           N06     Fs2
        BYTE           N06     Gn1   v100
        BYTE           N04     Dn3
        BYTE   W06
        BYTE           N06     Fs2   v080
        BYTE   W06
        BYTE           N08     Cn1   v064
        BYTE           N06     Gn1   v100
        BYTE           N12     Cs2
        BYTE           N06     Fs2   v088
        BYTE           N04     Dn3   v100
        BYTE   W06
        BYTE           N06     Fs2   v056
        BYTE           N04     Dn3   v100
        BYTE   W06
// 022   ----------------------------------------
        BYTE           N48     As2
        BYTE           N24     Dn4
        BYTE   W84
        BYTE           N04     Cs4
        BYTE   W06
        BYTE                   Cs4
        BYTE   W06
// 023   ----------------------------------------
        BYTE           N06     Gs4   v016
        BYTE           N24     Dn4   v100
        BYTE   W06
        BYTE           N06     Gs4   v032
        BYTE   W06
        BYTE                   Gs4   v048
        BYTE   W06
        BYTE                   Gs4   v064
        BYTE   W06
        BYTE                   Gs4   v096
        BYTE   W06
        BYTE                   Gs4   v080
        BYTE   W06
        BYTE                   Gs4   v064
        BYTE   W06
        BYTE                   Gs4   v048
        BYTE   W06
        BYTE                   Gs4   v032
        BYTE   W06
        BYTE                   Gs4   v016
        BYTE   W18
        BYTE                   Gs4
        BYTE   W06
        BYTE                   Gs4   v032
        BYTE   W06
        BYTE                   Gs4   v048
        BYTE   W06
        BYTE                   Gs4   v064
        BYTE   W06
// 024   ----------------------------------------
        BYTE   PATT
         POIN2  TheMadGodsBlessing_8_2
// 025   ----------------------------------------
        BYTE   PATT
         POIN2  TheMadGodsBlessing_8_3
// 026   ----------------------------------------
        BYTE           EOT     En2
        BYTE   GoTo
         POIN2  TheMadGodsBlessing_8_LOOP
        BYTE   W06
        BYTE   FINE

//***************** Track 9 (Midi-Chn.10) ******************//

TheMadGodsBlessing_9:
        BYTE   KEYSH   TheMadGodsBlessing_key+0
// 000   ----------------------------------------
        BYTE           VOICE   38
        BYTE           PAN     c_v+39
        BYTE           VOL     52
        BYTE   W96
// 001   ----------------------------------------
        BYTE   W96
// 002   ----------------------------------------
        BYTE   W96
// 003   ----------------------------------------
        BYTE   W96
// 004   ----------------------------------------
TheMadGodsBlessing_9_LOOP:
        BYTE           N02     An1   v100
        BYTE   W03
        BYTE                   An0
        BYTE   W03
        BYTE                   An1
        BYTE   W03
        BYTE                   An0
        BYTE   W03
        BYTE                   An1
        BYTE   W03
        BYTE                   An0
        BYTE   W03
        BYTE                   An1
        BYTE   W03
        BYTE           N03     An0
        BYTE   W03
        BYTE           N02     As1
        BYTE   W03
        BYTE                   As0
        BYTE   W03
        BYTE                   As1
        BYTE   W03
        BYTE                   As0
        BYTE   W03
        BYTE                   As1
        BYTE   W03
        BYTE                   As0
        BYTE   W03
        BYTE                   As1
        BYTE   W03
        BYTE           N03     As0
        BYTE   W03
        BYTE           N02     Cs2
        BYTE   W03
        BYTE                   Cs1
        BYTE   W03
        BYTE                   Cs2
        BYTE   W03
        BYTE                   Cs1
        BYTE   W03
        BYTE                   Cs2
        BYTE   W03
        BYTE                   Cs1
        BYTE   W03
        BYTE                   Cs2
        BYTE   W03
        BYTE           N03     Cs1
        BYTE   W03
        BYTE           N02     Dn2
        BYTE   W03
        BYTE                   Dn1
        BYTE   W03
        BYTE                   Dn2
        BYTE   W03
        BYTE                   Dn1
        BYTE   W03
        BYTE                   Dn2
        BYTE   W03
        BYTE                   Dn1
        BYTE   W03
        BYTE                   Dn2
        BYTE   W03
        BYTE           N03     Dn1
        BYTE   W03
// 005   ----------------------------------------
TheMadGodsBlessing_9_5:
        BYTE           N02     Fn1   v100
        BYTE   W03
        BYTE                   Fn0
        BYTE   W03
        BYTE                   Fn1
        BYTE   W03
        BYTE                   Fn0
        BYTE   W03
        BYTE                   Fn1
        BYTE   W03
        BYTE                   Fn0
        BYTE   W03
        BYTE                   Fn1
        BYTE   W03
        BYTE           N03     Fn0
        BYTE   W03
        BYTE           N02     An1
        BYTE   W03
        BYTE                   An0
        BYTE   W03
        BYTE                   An1
        BYTE   W03
        BYTE                   An0
        BYTE   W03
        BYTE                   An1
        BYTE   W03
        BYTE                   An0
        BYTE   W03
        BYTE                   An1
        BYTE   W03
        BYTE           N03     An0
        BYTE   W03
        BYTE           N02     Gs1
        BYTE   W03
        BYTE                   Gs0
        BYTE   W03
        BYTE                   Gs1
        BYTE   W03
        BYTE                   Gs0
        BYTE   W03
        BYTE                   Gs1
        BYTE   W03
        BYTE                   Gs0
        BYTE   W03
        BYTE                   Gs1
        BYTE   W03
        BYTE           N03     Gs0
        BYTE   W03
        BYTE           N02     Bn1
        BYTE   W03
        BYTE                   Bn0
        BYTE   W03
        BYTE                   Bn1
        BYTE   W03
        BYTE                   Bn0
        BYTE   W03
        BYTE                   Bn1
        BYTE   W03
        BYTE                   Bn0
        BYTE   W03
        BYTE                   Bn1
        BYTE   W03
        BYTE           N03     Bn0
        BYTE   W03
        BYTE   PEND
// 006   ----------------------------------------
TheMadGodsBlessing_9_6:
        BYTE           N02     An1   v100
        BYTE   W03
        BYTE                   An0
        BYTE   W03
        BYTE                   An1
        BYTE   W03
        BYTE                   An0
        BYTE   W03
        BYTE                   An1
        BYTE   W03
        BYTE                   An0
        BYTE   W03
        BYTE                   An1
        BYTE   W03
        BYTE           N03     An0
        BYTE   W03
        BYTE           N02     As1
        BYTE   W03
        BYTE                   As0
        BYTE   W03
        BYTE                   As1
        BYTE   W03
        BYTE                   As0
        BYTE   W03
        BYTE                   As1
        BYTE   W03
        BYTE                   As0
        BYTE   W03
        BYTE                   As1
        BYTE   W03
        BYTE           N03     As0
        BYTE   W03
        BYTE           N02     An1
        BYTE   W03
        BYTE                   An0
        BYTE   W03
        BYTE                   An1
        BYTE   W03
        BYTE                   An0
        BYTE   W03
        BYTE                   An1
        BYTE   W03
        BYTE                   An0
        BYTE   W03
        BYTE                   An1
        BYTE   W03
        BYTE           N03     An0
        BYTE   W03
        BYTE           N02     As1
        BYTE   W03
        BYTE                   As0
        BYTE   W03
        BYTE                   As1
        BYTE   W03
        BYTE                   As0
        BYTE   W03
        BYTE                   As1
        BYTE   W03
        BYTE                   As0
        BYTE   W03
        BYTE                   As1
        BYTE   W03
        BYTE           N03     As0
        BYTE   W03
        BYTE   PEND
// 007   ----------------------------------------
TheMadGodsBlessing_9_7:
        BYTE           N02     Cs2   v100
        BYTE   W03
        BYTE                   Cs1
        BYTE   W03
        BYTE                   Cs2
        BYTE   W03
        BYTE                   Cs1
        BYTE   W03
        BYTE                   Cs2
        BYTE   W03
        BYTE                   Cs1
        BYTE   W03
        BYTE                   Cs2
        BYTE   W03
        BYTE           N03     Cs1
        BYTE   W03
        BYTE           N02     Dn1
        BYTE   W03
        BYTE                   Dn0
        BYTE   W03
        BYTE                   Dn1
        BYTE   W03
        BYTE                   Dn0
        BYTE   W03
        BYTE                   Dn1
        BYTE   W03
        BYTE                   Dn0
        BYTE   W03
        BYTE                   Dn1
        BYTE   W03
        BYTE           N03     Dn0
        BYTE   W03
        BYTE           N02     Fn1
        BYTE   W03
        BYTE                   Fn0
        BYTE   W03
        BYTE                   Fn1
        BYTE   W03
        BYTE                   Fn0
        BYTE   W03
        BYTE                   Fn1
        BYTE   W03
        BYTE                   Fn0
        BYTE   W03
        BYTE                   Fn1
        BYTE   W03
        BYTE           N03     Fn0
        BYTE   W03
        BYTE           N02     An1
        BYTE   W03
        BYTE                   An0
        BYTE   W03
        BYTE                   An1
        BYTE   W03
        BYTE                   An0
        BYTE   W03
        BYTE                   An1
        BYTE   W03
        BYTE                   An0
        BYTE   W03
        BYTE                   An1
        BYTE   W03
        BYTE           N03     An0
        BYTE   W03
        BYTE   PEND
// 008   ----------------------------------------
TheMadGodsBlessing_9_8:
        BYTE           N02     Gs1   v100
        BYTE   W03
        BYTE                   Gs0
        BYTE   W03
        BYTE                   Gs1
        BYTE   W03
        BYTE                   Gs0
        BYTE   W03
        BYTE                   Gs1
        BYTE   W03
        BYTE                   Gs0
        BYTE   W03
        BYTE                   Gs1
        BYTE   W03
        BYTE           N03     Gs0
        BYTE   W03
        BYTE           N02     Bn1
        BYTE   W03
        BYTE                   Bn0
        BYTE   W03
        BYTE                   Bn1
        BYTE   W03
        BYTE                   Bn0
        BYTE   W03
        BYTE                   Bn1
        BYTE   W03
        BYTE                   Bn0
        BYTE   W03
        BYTE                   Bn1
        BYTE   W03
        BYTE           N03     Bn0
        BYTE   W03
        BYTE           N02     An1
        BYTE   W03
        BYTE                   An0
        BYTE   W03
        BYTE                   An1
        BYTE   W03
        BYTE                   An0
        BYTE   W03
        BYTE                   An1
        BYTE   W03
        BYTE                   An0
        BYTE   W03
        BYTE                   An1
        BYTE   W03
        BYTE           N03     An0
        BYTE   W03
        BYTE           N02     As1
        BYTE   W03
        BYTE                   As0
        BYTE   W03
        BYTE                   As1
        BYTE   W03
        BYTE                   As0
        BYTE   W03
        BYTE                   As1
        BYTE   W03
        BYTE                   As0
        BYTE   W03
        BYTE                   As1
        BYTE   W03
        BYTE           N03     As0
        BYTE   W03
        BYTE   PEND
// 009   ----------------------------------------
        BYTE           N02     An1
        BYTE   W03
        BYTE                   An0
        BYTE   W03
        BYTE                   An1
        BYTE   W03
        BYTE                   An0
        BYTE   W03
        BYTE                   An1
        BYTE   W03
        BYTE                   An0
        BYTE   W03
        BYTE                   An1
        BYTE   W03
        BYTE           N03     An0
        BYTE   W03
        BYTE           N02     As1
        BYTE   W03
        BYTE                   As0
        BYTE   W03
        BYTE                   As1
        BYTE   W03
        BYTE                   As0
        BYTE   W03
        BYTE                   As1
        BYTE   W03
        BYTE                   As0
        BYTE   W03
        BYTE                   As1
        BYTE   W03
        BYTE           N03     As0
        BYTE   W03
        BYTE           N02     Cs2
        BYTE   W03
        BYTE                   Cs1
        BYTE   W03
        BYTE                   Cs2
        BYTE   W03
        BYTE                   Cs1
        BYTE   W03
        BYTE                   Cs2
        BYTE   W03
        BYTE                   Cs1
        BYTE   W03
        BYTE                   Cs2
        BYTE   W03
        BYTE           N03     Cs1
        BYTE   W03
        BYTE           N02     Dn2
        BYTE   W03
        BYTE                   Dn1
        BYTE   W03
        BYTE                   Dn2
        BYTE   W03
        BYTE                   Dn1
        BYTE   W03
        BYTE                   Dn2
        BYTE   W03
        BYTE                   Dn1
        BYTE   W03
        BYTE                   Dn2
        BYTE   W03
        BYTE           N03     Dn1
        BYTE   W03
// 010   ----------------------------------------
        BYTE   PATT
         POIN2  TheMadGodsBlessing_9_5
// 011   ----------------------------------------
        BYTE   PATT
         POIN2  TheMadGodsBlessing_9_6
// 012   ----------------------------------------
        BYTE   PATT
         POIN2  TheMadGodsBlessing_9_7
// 013   ----------------------------------------
        BYTE   PATT
         POIN2  TheMadGodsBlessing_9_8
// 014   ----------------------------------------
        BYTE           VOICE   94
        BYTE           N24     An2   v121
        BYTE   W24
        BYTE                   As2
        BYTE   W24
        BYTE                   Cs3
        BYTE   W24
        BYTE                   Dn3
        BYTE   W24
// 015   ----------------------------------------
TheMadGodsBlessing_9_15:
        BYTE           N24     Fn2   v121
        BYTE   W24
        BYTE                   An2
        BYTE   W24
        BYTE                   Gs2
        BYTE   W24
        BYTE                   Bn2
        BYTE   W24
        BYTE   PEND
// 016   ----------------------------------------
TheMadGodsBlessing_9_16:
        BYTE           N24     An2   v121
        BYTE   W24
        BYTE                   As2
        BYTE   W24
        BYTE                   An2
        BYTE   W24
        BYTE                   As2
        BYTE   W24
        BYTE   PEND
// 017   ----------------------------------------
        BYTE                   Cs3
        BYTE   W24
        BYTE                   Dn2
        BYTE   W24
        BYTE                   Fn2
        BYTE   W24
        BYTE                   An2
        BYTE   W24
// 018   ----------------------------------------
        BYTE                   Gs2
        BYTE   W24
        BYTE                   Bn2
        BYTE   W24
        BYTE                   An2
        BYTE   W24
        BYTE                   As2
        BYTE   W24
// 019   ----------------------------------------
        BYTE                   An2
        BYTE   W24
        BYTE                   As2
        BYTE   W24
        BYTE                   Cs3
        BYTE   W24
        BYTE                   Dn3
        BYTE   W24
// 020   ----------------------------------------
        BYTE   PATT
         POIN2  TheMadGodsBlessing_9_15
// 021   ----------------------------------------
        BYTE   PATT
         POIN2  TheMadGodsBlessing_9_16
// 022   ----------------------------------------
        BYTE           PAN     c_v-32
        BYTE           VOICE   38
        BYTE           N03     Gs1   v096
        BYTE   W06
        BYTE                   Gs1   v080
        BYTE   W06
        BYTE                   Gs1   v064
        BYTE   W06
        BYTE                   Gs1   v048
        BYTE   W06
        BYTE                   Cs2   v096
        BYTE   W06
        BYTE                   Cs2   v080
        BYTE   W06
        BYTE                   Cs2   v064
        BYTE   W06
        BYTE                   Cs2   v048
        BYTE   W06
        BYTE                   Dn2   v096
        BYTE   W06
        BYTE                   Dn2   v080
        BYTE   W06
        BYTE                   Dn2   v064
        BYTE   W06
        BYTE                   Dn2   v048
        BYTE   W06
        BYTE                   Fn2   v096
        BYTE   W06
        BYTE                   Fn2   v080
        BYTE   W06
        BYTE                   Fn2   v064
        BYTE   W06
        BYTE                   Fn2   v048
        BYTE   W06
// 023   ----------------------------------------
        BYTE   PATT
         POIN2  TheMadGodsBlessing_4_23
// 024   ----------------------------------------
        BYTE   PATT
         POIN2  TheMadGodsBlessing_4_24
// 025   ----------------------------------------
        BYTE   PATT
         POIN2  TheMadGodsBlessing_4_25
// 026   ----------------------------------------
        BYTE           PAN     c_v+39
        BYTE   GoTo
         POIN2  TheMadGodsBlessing_9_LOOP
        BYTE   W06
        BYTE   FINE


//********************** End of Song ***********************//

        ALIGN 4
TheMadGodsBlessing:
        BYTE   10                      // Num Tracks
        BYTE   0                       // Unknown
        BYTE   TheMadGodsBlessing_pri  // Priority
        BYTE   TheMadGodsBlessing_rev  // Reverb

        POIN2   TheMadGodsBlessing_grp 

        POIN2   TheMadGodsBlessing_0
        POIN2   TheMadGodsBlessing_1
        POIN2   TheMadGodsBlessing_2
        POIN2   TheMadGodsBlessing_3
        POIN2   TheMadGodsBlessing_4
        POIN2   TheMadGodsBlessing_5
        POIN2   TheMadGodsBlessing_6
        POIN2   TheMadGodsBlessing_7
        POIN2   TheMadGodsBlessing_8
        POIN2   TheMadGodsBlessing_9

        
