//Event file generated from Sappy .s format.
        #include "MPlayDef.event"

        #define    TheProudCommander_grp  voicegroup000
        #define    TheProudCommander_pri  0
        #define    TheProudCommander_rev  0
        #define    TheProudCommander_key  0

        // .rodata
        // TheProudCommander
        ALIGN 4

//****************** Track 0 (Midi-Chn.0) ******************//

TheProudCommander_0:
        BYTE   KEYSH   TheProudCommander_key+0
// 000   ----------------------------------------
        BYTE   TEMPO   90/2
TheProudCommander_0_LOOP:
        BYTE           VOICE   109
        BYTE   W96
// 001   ----------------------------------------
        BYTE   W96
// 002   ----------------------------------------
        BYTE   W96
// 003   ----------------------------------------
        BYTE           PAN     c_v-6
        BYTE           VOL     63
        BYTE           BEND    c_v+3
        BYTE   W96
// 004   ----------------------------------------
        BYTE   W24
        BYTE           N11     Ds3   v086
        BYTE           N11     Gs3   v097
        BYTE   W12
        BYTE           N05     Fs3   v086
        BYTE           N05     As3   v106
        BYTE   W06
        BYTE                   Gs3   v092
        BYTE           N05     Bn3   v106
        BYTE   W06
        BYTE           N44     As3   v100   gtp3
        BYTE                   Cs4   v111
        BYTE   W48
// 005   ----------------------------------------
        BYTE           N20     Bn3   v093
        BYTE           N20     Ds4   v103
        BYTE   W21
        BYTE           N02     Bn3   v044
        BYTE           N02     Ds4
        BYTE   W03
        BYTE           N44     Gs3   v099
        BYTE           N44     As3   v108
        BYTE   W44
        BYTE   W01
        BYTE           N02     Gs3   v044
        BYTE           N02     As3
        BYTE   W03
        BYTE           N20     Ds3   v107
        BYTE           N20     Gs3   v111
        BYTE   W21
        BYTE           N02     Ds3   v044
        BYTE           N02     Gs3
        BYTE   W03
// 006   ----------------------------------------
        BYTE           N64     Ds3   v109   gtp1
        BYTE   W66
        BYTE           N05     Ds3   v044
        BYTE   W06
        BYTE           N56     Gs3   v109   gtp2
        BYTE   W12
        BYTE           VOL     62
        BYTE   W03
        BYTE                   61
        BYTE   W03
        BYTE                   60
        BYTE   W03
        BYTE                   59
        BYTE   W03
// 007   ----------------------------------------
        BYTE                   58
        BYTE   W03
        BYTE                   57
        BYTE   W03
        BYTE                   56
        BYTE   W03
        BYTE                   55
        BYTE   W03
        BYTE                   54
        BYTE   W03
        BYTE                   53
        BYTE   W03
        BYTE                   52
        BYTE   W03
        BYTE                   51
        BYTE   W03
        BYTE                   50
        BYTE   W03
        BYTE                   49
        BYTE   W03
        BYTE                   48
        BYTE   W03
        BYTE                   47
        BYTE   W03
        BYTE                   46
        BYTE           N05     As3   v111
        BYTE   W03
        BYTE           VOL     45
        BYTE   W03
        BYTE                   44
        BYTE           N05     Bn3
        BYTE   W03
        BYTE           VOL     43
        BYTE   W01
        BYTE                   42
        BYTE   W02
        BYTE           N22     As3   v085
        BYTE           N22     Cs4   v111
        BYTE   W01
        BYTE           VOL     43
        BYTE   W03
        BYTE                   44
        BYTE   W03
        BYTE                   45
        BYTE   W03
        BYTE                   46
        BYTE   W03
        BYTE                   47
        BYTE   W03
        BYTE                   48
        BYTE   W03
        BYTE                   49
        BYTE   W03
        BYTE                   50
        BYTE   W02
        BYTE           N22     Bn3   v081
        BYTE           N22     Ds4   v108
        BYTE   W01
        BYTE           VOL     51
        BYTE   W03
        BYTE                   52
        BYTE   W03
        BYTE                   53
        BYTE   W03
        BYTE                   54
        BYTE   W03
        BYTE                   55
        BYTE   W03
        BYTE                   56
        BYTE   W03
        BYTE                   57
        BYTE   W03
        BYTE                   58
        BYTE   W02
// 008   ----------------------------------------
        BYTE           N22     Ds4   v081
        BYTE           N22     Gs4   v108
        BYTE   W01
        BYTE           VOL     59
        BYTE   W03
        BYTE                   60
        BYTE   W03
        BYTE                   61
        BYTE   W03
        BYTE                   62
        BYTE   W03
        BYTE                   63
        BYTE   W11
        BYTE           N22     Ds4   v080
        BYTE           N22     Fs4   v107
        BYTE   W24
        BYTE                   Cs4   v086
        BYTE           N22     En4   v111
        BYTE   W09
        BYTE           VOL     62
        BYTE   W15
        BYTE           N22     As3   v082
        BYTE           N22     Cs4   v109
        BYTE   W05
        BYTE           VOL     61
        BYTE   W07
        BYTE                   60
        BYTE   W12
// 009   ----------------------------------------
        BYTE           N68     Bn3   v076   gtp2
        BYTE                   Ds4   v101
        BYTE   W02
        BYTE           VOL     59
        BYTE   W07
        BYTE                   58
        BYTE   W03
        BYTE                   57
        BYTE   W06
        BYTE                   56
        BYTE   W03
        BYTE                   55
        BYTE   W03
        BYTE                   54
        BYTE   W06
        BYTE                   53
        BYTE   W03
        BYTE                   52
        BYTE   W03
        BYTE                   51
        BYTE   W03
        BYTE                   50
        BYTE   W03
        BYTE                   48
        BYTE   W03
        BYTE                   47
        BYTE   W03
        BYTE                   46
        BYTE   W03
        BYTE                   44
        BYTE   W03
        BYTE                   42
        BYTE   W03
        BYTE                   40
        BYTE   W03
        BYTE                   38
        BYTE   W03
        BYTE                   36
        BYTE   W03
        BYTE                   34
        BYTE   W03
        BYTE                   31
        BYTE   W03
        BYTE           N44     Bn3   v122   gtp3
        BYTE           VOL     28
        BYTE   W01
        BYTE                   26
        BYTE   W03
        BYTE                   27
        BYTE   W05
        BYTE                   28
        BYTE   W03
        BYTE                   29
        BYTE   W04
        BYTE                   30
        BYTE   W03
        BYTE                   31
        BYTE   W03
        BYTE                   32
        BYTE   W02
// 010   ----------------------------------------
        BYTE   W01
        BYTE                   33
        BYTE   W03
        BYTE                   34
        BYTE   W03
        BYTE                   35
        BYTE   W02
        BYTE                   36
        BYTE   W03
        BYTE                   37
        BYTE   W01
        BYTE                   38
        BYTE   W03
        BYTE                   39
        BYTE   W02
        BYTE                   40
        BYTE   W01
        BYTE                   41
        BYTE   W02
        BYTE                   42
        BYTE   W01
        BYTE                   43
        BYTE   W02
        BYTE                   44
        BYTE           N17     Cs4   v112
        BYTE   W01
        BYTE           VOL     45
        BYTE   W02
        BYTE                   46
        BYTE   W01
        BYTE                   47
        BYTE   W02
        BYTE                   48
        BYTE   W01
        BYTE                   49
        BYTE   W02
        BYTE                   51
        BYTE   W01
        BYTE                   52
        BYTE   W02
        BYTE                   54
        BYTE   W01
        BYTE                   55
        BYTE   W02
        BYTE                   57
        BYTE   W01
        BYTE                   59
        BYTE   W02
        BYTE                   61
        BYTE           N02     Bn3
        BYTE   W01
        BYTE           VOL     63
        BYTE   W02
        BYTE           N02     Cs4
        BYTE   W01
        BYTE           VOL     62
        BYTE   W02
        BYTE           N23     Ds4
        BYTE   W01
        BYTE           VOL     61
        BYTE   W02
        BYTE                   60
        BYTE   W03
        BYTE                   59
        BYTE   W01
        BYTE                   58
        BYTE   W02
        BYTE                   57
        BYTE   W01
        BYTE                   56
        BYTE   W02
        BYTE                   55
        BYTE   W01
        BYTE                   54
        BYTE   W02
        BYTE                   52
        BYTE   W01
        BYTE                   51
        BYTE   W02
        BYTE                   49
        BYTE   W01
        BYTE                   48
        BYTE   W02
        BYTE                   46
        BYTE   W01
        BYTE                   43
        BYTE   W01
        BYTE                   42
        BYTE   W01
        BYTE           N44     As4   v107   gtp2
        BYTE   W02
        BYTE           VOL     43
        BYTE   W06
        BYTE                   44
        BYTE   W03
        BYTE                   45
        BYTE   W03
        BYTE                   46
        BYTE   W03
        BYTE                   47
        BYTE   W03
        BYTE                   48
        BYTE   W03
        BYTE                   49
        BYTE   W01
// 011   ----------------------------------------
        BYTE   W02
        BYTE                   50
        BYTE   W03
        BYTE                   52
        BYTE   W03
        BYTE                   54
        BYTE   W03
        BYTE                   56
        BYTE   W03
        BYTE                   59
        BYTE   W03
        BYTE                   63
        BYTE   W07
        BYTE           N02     Ds3   v099
        BYTE           N02     Gs3   v109
        BYTE   W03
        BYTE                   Ds3   v044
        BYTE           N02     Gs3   v050
        BYTE   W03
        BYTE                   Fn3   v099
        BYTE           N02     As3   v109
        BYTE   W03
        BYTE                   Fn3   v044
        BYTE           N02     As3   v050
        BYTE   W03
        BYTE                   As3   v099
        BYTE           N02     Ds4   v109
        BYTE   W03
        BYTE                   As3   v044
        BYTE           N02     Ds4   v050
        BYTE   W03
        BYTE                   Gs3   v099
        BYTE           N02     Cs4   v109
        BYTE   W03
        BYTE                   Gs3   v044
        BYTE           N02     Cs4   v050
        BYTE   W03
        BYTE                   As3   v099
        BYTE           N02     Ds4   v109
        BYTE   W03
        BYTE                   As3   v044
        BYTE           N02     Ds4   v050
        BYTE   W03
        BYTE                   Ds4   v099
        BYTE           N02     Gs4   v109
        BYTE   W03
        BYTE                   Ds4   v044
        BYTE           N02     Gs4   v050
        BYTE   W03
        BYTE                   Gs3   v099
        BYTE           N02     Cs4   v109
        BYTE   W03
        BYTE                   Gs3   v044
        BYTE           N02     Cs4   v050
        BYTE   W03
        BYTE                   As3   v099
        BYTE           N02     Ds4   v109
        BYTE   W03
        BYTE                   As3   v044
        BYTE           N02     Ds4   v050
        BYTE   W03
        BYTE                   Fn4   v099
        BYTE           N02     As4   v109
        BYTE   W03
        BYTE                   Fn4   v044
        BYTE           N02     As4   v050
        BYTE   W03
        BYTE                   As3   v099
        BYTE           N02     Ds4   v109
        BYTE   W03
        BYTE                   As3   v044
        BYTE           N02     Ds4   v050
        BYTE   W03
        BYTE                   Cn4   v099
        BYTE           N02     Fn4   v109
        BYTE   W03
        BYTE                   Cn4   v044
        BYTE           N02     Fn4   v050
        BYTE   W03
        BYTE                   Gn4   v099
        BYTE           N02     Cn5   v109
        BYTE   W03
        BYTE                   Gn4   v044
        BYTE           N02     Cn5   v050
        BYTE   W03
// 012   ----------------------------------------
        BYTE           VOICE   68
        BYTE           PAN     c_v+6
        BYTE           VOL     47
        BYTE           BEND    c_v+0
        BYTE           N32     Gs3   v096   gtp3
        BYTE   W36
        BYTE           N05     Fn3   v105
        BYTE   W06
        BYTE                   Gn3   v097
        BYTE   W06
        BYTE           N23     Gs3   v108
        BYTE   W05
        BYTE           VOL     46
        BYTE   W10
        BYTE                   45
        BYTE   W09
        BYTE           N17     Gn3   v104
        BYTE   W09
        BYTE           VOL     44
        BYTE   W09
        BYTE           N02     Gs3
        BYTE   W03
        BYTE                   An3   v103
        BYTE   W01
        BYTE           VOL     43
        BYTE   W02
// 013   ----------------------------------------
        BYTE           N44     As3   v101   gtp1
        BYTE   W05
        BYTE           VOL     42
        BYTE   W11
        BYTE                   41
        BYTE   W07
        BYTE                   40
        BYTE   W03
        BYTE                   39
        BYTE   W07
        BYTE                   38
        BYTE   W07
        BYTE                   37
        BYTE   W03
        BYTE                   36
        BYTE   W04
        BYTE                   35
        BYTE   W01
        BYTE           N23     Bn3   v100
        BYTE   W16
        BYTE           VOL     36
        BYTE   W08
        BYTE           N23     Ds4   v102
        BYTE   W04
        BYTE           VOL     37
        BYTE   W12
        BYTE                   38
        BYTE   W08
// 014   ----------------------------------------
        BYTE           N17     Fn4   v096
        BYTE   W04
        BYTE           VOL     39
        BYTE   W08
        BYTE                   40
        BYTE   W06
        BYTE           N02     Ds4   v103
        BYTE   W02
        BYTE           VOL     41
        BYTE   W01
        BYTE           N02     Fn4   v105
        BYTE   W03
        BYTE           N68     Fs4   v098   gtp3
        BYTE   W01
        BYTE           VOL     42
        BYTE   W05
        BYTE                   38
        BYTE   W01
        BYTE                   32
        BYTE   W01
        BYTE                   28
        BYTE   W01
        BYTE                   25
        BYTE   W01
        BYTE                   21
        BYTE   W03
        BYTE                   22
        BYTE   W06
        BYTE                   23
        BYTE   W04
        BYTE                   24
        BYTE   W03
        BYTE                   25
        BYTE   W03
        BYTE                   26
        BYTE   W05
        BYTE                   27
        BYTE   W01
        BYTE                   28
        BYTE   W03
        BYTE                   29
        BYTE   W03
        BYTE                   30
        BYTE   W02
        BYTE                   31
        BYTE   W01
        BYTE                   32
        BYTE   W03
        BYTE                   33
        BYTE   W02
        BYTE                   34
        BYTE   W01
        BYTE                   35
        BYTE   W02
        BYTE                   36
        BYTE   W01
        BYTE                   38
        BYTE   W02
        BYTE                   39
        BYTE   W01
        BYTE                   40
        BYTE   W02
        BYTE                   42
        BYTE   W01
        BYTE                   43
        BYTE   W02
        BYTE                   45
        BYTE   W01
        BYTE                   47
        BYTE   W10
// 015   ----------------------------------------
        BYTE   W72
        BYTE           VOICE   109
        BYTE           PAN     c_v-6
        BYTE           VOL     63
        BYTE           BEND    c_v+3
        BYTE           N04     Gn3   v069
        BYTE           N04     Dn4   v077
        BYTE   W06
        BYTE                   Gn3   v025
        BYTE           N04     Dn4   v021
        BYTE   W18
// 016   ----------------------------------------
        BYTE           N23     Dn4   v069
        BYTE           N23     An4   v077
        BYTE   W24
        BYTE           N04     Cs4   v069
        BYTE           N04     Gn4   v077
        BYTE   W06
        BYTE                   Cs4   v025
        BYTE           N04     Gn4   v021
        BYTE   W06
        BYTE                   Dn4   v069
        BYTE           N04     An4   v077
        BYTE   W06
        BYTE                   Dn4   v025
        BYTE           N04     An4   v021
        BYTE   W06
        BYTE           N22     En4   v069
        BYTE           N22     Bn4   v077
        BYTE   W24
        BYTE           N44     An3   v069   gtp2
        BYTE                   En4   v077
        BYTE   W24
// 017   ----------------------------------------
        BYTE   W24
        BYTE           N04     An3   v021
        BYTE           N04     En4
        BYTE   W48
        BYTE           VOICE   68
        BYTE           PAN     c_v+6
        BYTE           VOL     47
        BYTE           BEND    c_v+0
        BYTE           N05     Fs4   v076
        BYTE   W06
        BYTE                   Gn4
        BYTE   W06
        BYTE           N02     An4   v073
        BYTE   W03
        BYTE                   An4   v021
        BYTE   W03
        BYTE                   Bn3   v077
        BYTE   W03
        BYTE                   Bn3   v021
        BYTE   W03
// 018   ----------------------------------------
        BYTE           N44     Fs4   v073   gtp3
        BYTE   W48
        BYTE           N32     En4   v077   gtp3
        BYTE   W36
        BYTE           N05     Fs4   v072
        BYTE   W06
        BYTE           N02     Gn4   v070
        BYTE   W03
        BYTE                   Gn4   v021
        BYTE   W03
// 019   ----------------------------------------
        BYTE           N44     An4   v073   gtp3
        BYTE   W96
// 020   ----------------------------------------
        BYTE   W96
// 021   ----------------------------------------
        BYTE   W96
// 022   ----------------------------------------
        BYTE   W48
        BYTE           VOICE   109
        BYTE           VOL     100
        BYTE           PAN     c_v+0
        BYTE   GoTo
         POIN2  TheProudCommander_0_LOOP
        BYTE   FINE

//****************** Track 1 (Midi-Chn.1) ******************//

TheProudCommander_1:
        BYTE   KEYSH   TheProudCommander_key+0
// 000   ----------------------------------------
TheProudCommander_1_LOOP:
        BYTE           VOICE   66
        BYTE   W96
// 001   ----------------------------------------
        BYTE   W96
// 002   ----------------------------------------
        BYTE   W24
        BYTE           PAN     c_v+17
        BYTE           VOL     58
        BYTE   W60
        BYTE           N02     Ds2   v099
        BYTE   W03
        BYTE                   En2
        BYTE   W03
        BYTE                   Fs2
        BYTE   W03
        BYTE                   Gs2
        BYTE   W03
// 003   ----------------------------------------
        BYTE           N56     As2   v099   gtp3
        BYTE   W05
        BYTE           VOL     50
        BYTE   W01
        BYTE                   46
        BYTE   W01
        BYTE                   42
        BYTE   W01
        BYTE                   34
        BYTE   W03
        BYTE                   35
        BYTE   W06
        BYTE                   36
        BYTE   W03
        BYTE                   37
        BYTE   W03
        BYTE                   38
        BYTE   W03
        BYTE                   39
        BYTE   W03
        BYTE                   40
        BYTE   W03
        BYTE                   41
        BYTE   W03
        BYTE                   42
        BYTE   W02
        BYTE                   43
        BYTE   W01
        BYTE                   44
        BYTE   W02
        BYTE                   45
        BYTE   W01
        BYTE                   46
        BYTE   W02
        BYTE                   47
        BYTE   W01
        BYTE                   48
        BYTE   W02
        BYTE                   50
        BYTE   W01
        BYTE                   51
        BYTE   W02
        BYTE                   52
        BYTE   W01
        BYTE                   54
        BYTE   W02
        BYTE                   56
        BYTE   W01
        BYTE                   58
        BYTE   W07
        BYTE           N05     Gs2
        BYTE   W06
        BYTE                   As2
        BYTE   W06
        BYTE           N68     Bn2   v099   gtp3
        BYTE   W04
        BYTE           VOL     55
        BYTE   W01
        BYTE                   48
        BYTE   W01
        BYTE                   45
        BYTE   W01
        BYTE                   41
        BYTE   W01
        BYTE                   35
        BYTE   W06
        BYTE                   36
        BYTE   W03
        BYTE                   37
        BYTE   W06
        BYTE                   38
        BYTE   W01
// 004   ----------------------------------------
        BYTE   W02
        BYTE                   39
        BYTE   W03
        BYTE                   40
        BYTE   W06
        BYTE                   42
        BYTE   W03
        BYTE                   43
        BYTE   W03
        BYTE                   44
        BYTE   W03
        BYTE                   45
        BYTE   W03
        BYTE                   46
        BYTE   W03
        BYTE                   48
        BYTE   W03
        BYTE                   50
        BYTE   W03
        BYTE                   52
        BYTE   W03
        BYTE                   54
        BYTE   W03
        BYTE                   56
        BYTE   W02
        BYTE                   58
        BYTE   W56
// 005   ----------------------------------------
        BYTE   W96
// 006   ----------------------------------------
        BYTE           N56     As2   v099   gtp3
        BYTE   W04
        BYTE           VOL     52
        BYTE   W01
        BYTE                   46
        BYTE   W01
        BYTE                   41
        BYTE   W01
        BYTE                   30
        BYTE   W03
        BYTE                   31
        BYTE   W03
        BYTE                   32
        BYTE   W03
        BYTE                   33
        BYTE   W03
        BYTE                   34
        BYTE   W03
        BYTE                   35
        BYTE   W03
        BYTE                   36
        BYTE   W02
        BYTE                   37
        BYTE   W03
        BYTE                   38
        BYTE   W01
        BYTE                   39
        BYTE   W02
        BYTE                   40
        BYTE   W03
        BYTE                   41
        BYTE   W01
        BYTE                   42
        BYTE   W02
        BYTE                   43
        BYTE   W01
        BYTE                   45
        BYTE   W03
        BYTE                   47
        BYTE   W02
        BYTE                   48
        BYTE   W01
        BYTE                   50
        BYTE   W02
        BYTE                   51
        BYTE   W01
        BYTE                   53
        BYTE   W02
        BYTE                   55
        BYTE   W01
        BYTE                   57
        BYTE   W01
        BYTE                   58
        BYTE   W07
        BYTE           N05     Gs2
        BYTE   W06
        BYTE                   As2
        BYTE   W06
        BYTE                   Bn2
        BYTE   W06
        BYTE                   Cs3
        BYTE   W06
        BYTE           N56     Ds3   v099   gtp3
        BYTE   W03
        BYTE           VOL     52
        BYTE   W01
        BYTE                   47
        BYTE   W01
        BYTE                   41
        BYTE   W01
        BYTE                   34
        BYTE   W03
        BYTE                   35
        BYTE   W03
// 007   ----------------------------------------
        BYTE   W03
        BYTE                   36
        BYTE   W03
        BYTE                   37
        BYTE   W03
        BYTE                   38
        BYTE   W01
        BYTE                   39
        BYTE   W03
        BYTE                   40
        BYTE   W03
        BYTE                   41
        BYTE   W02
        BYTE                   42
        BYTE   W01
        BYTE                   43
        BYTE   W03
        BYTE                   44
        BYTE   W02
        BYTE                   45
        BYTE   W01
        BYTE                   46
        BYTE   W02
        BYTE                   47
        BYTE   W01
        BYTE                   49
        BYTE   W02
        BYTE                   50
        BYTE   W01
        BYTE                   51
        BYTE   W02
        BYTE                   53
        BYTE   W01
        BYTE                   55
        BYTE   W02
        BYTE                   58
        BYTE   W60
// 008   ----------------------------------------
        BYTE   W96
// 009   ----------------------------------------
        BYTE   W96
// 010   ----------------------------------------
        BYTE   W96
// 011   ----------------------------------------
        BYTE   W96
// 012   ----------------------------------------
        BYTE   W96
// 013   ----------------------------------------
        BYTE   W96
// 014   ----------------------------------------
        BYTE   W80
        BYTE   W01
        BYTE           N02     Cn2   v083
        BYTE   W03
        BYTE                   Dn2   v091
        BYTE   W03
        BYTE                   En2   v106
        BYTE   W03
        BYTE                   Fs2   v114
        BYTE   W03
        BYTE                   Gn2   v126
        BYTE   W03
// 015   ----------------------------------------
        BYTE           N44     Dn2   v085   gtp1
        BYTE                   An2   v101
        BYTE   W48
        BYTE           N05     En2   v106
        BYTE   W06
        BYTE                   En2   v043
        BYTE   W06
        BYTE                   An2   v109
        BYTE   W06
        BYTE                   An2   v047
        BYTE   W06
        BYTE           N20     Gn2   v126
        BYTE   W24
// 016   ----------------------------------------
        BYTE           N17     En2   v086
        BYTE           N17     Bn2   v102
        BYTE   W18
        BYTE           N05     En2   v036
        BYTE           N05     Bn2
        BYTE   W06
        BYTE           N17     Fs2   v086
        BYTE           N17     Cs3   v114
        BYTE   W18
        BYTE           N05     Fs2   v036
        BYTE           N05     Cs3
        BYTE   W06
        BYTE           N44     Gn2   v095   gtp3
        BYTE           N44     Dn3   v111   gtp2
        BYTE   W03
        BYTE           VOL     57
        BYTE   W03
        BYTE                   56
        BYTE   W03
        BYTE                   55
        BYTE   W06
        BYTE                   54
        BYTE   W03
        BYTE                   53
        BYTE   W03
        BYTE                   52
        BYTE   W03
        BYTE                   51
        BYTE   W03
        BYTE                   50
        BYTE   W03
        BYTE                   49
        BYTE   W03
        BYTE                   48
        BYTE   W03
        BYTE                   47
        BYTE   W03
        BYTE                   46
        BYTE   W03
        BYTE                   45
        BYTE   W06
// 017   ----------------------------------------
        BYTE           N10     Fs2   v110
        BYTE           N10     Cs3   v126
        BYTE           VOL     44
        BYTE   W03
        BYTE                   43
        BYTE   W03
        BYTE                   42
        BYTE   W03
        BYTE                   41
        BYTE   W03
        BYTE           N05     Gn2   v107
        BYTE           N05     Dn3   v123
        BYTE           VOL     40
        BYTE   W03
        BYTE                   39
        BYTE   W03
        BYTE           N05     Fs2   v106
        BYTE           N05     Cs3   v122
        BYTE           VOL     38
        BYTE   W03
        BYTE                   37
        BYTE   W03
        BYTE           N68     En2   v110   gtp3
        BYTE                   Bn2   v126
        BYTE   W07
        BYTE           VOL     38
        BYTE   W03
        BYTE                   39
        BYTE   W06
        BYTE                   40
        BYTE   W06
        BYTE                   41
        BYTE   W06
        BYTE                   42
        BYTE   W03
        BYTE                   43
        BYTE   W03
        BYTE                   44
        BYTE   W03
        BYTE                   45
        BYTE   W06
        BYTE                   46
        BYTE   W03
        BYTE                   48
        BYTE   W03
        BYTE                   49
        BYTE   W03
        BYTE                   50
        BYTE   W03
        BYTE                   51
        BYTE   W03
        BYTE                   53
        BYTE   W03
        BYTE                   55
        BYTE   W03
        BYTE                   56
        BYTE   W02
        BYTE                   58
        BYTE   W06
// 018   ----------------------------------------
        BYTE   W72
        BYTE           PAN     c_v+0
        BYTE           VOL     0
        BYTE   W01
        BYTE                   1
        BYTE   W02
        BYTE                   2
        BYTE   W01
        BYTE                   3
        BYTE   W02
        BYTE                   4
        BYTE   W01
        BYTE                   5
        BYTE   W02
        BYTE                   6
        BYTE   W01
        BYTE                   7
        BYTE   W03
        BYTE                   8
        BYTE   W02
        BYTE                   9
        BYTE   W01
        BYTE                   10
        BYTE   W02
        BYTE                   11
        BYTE   W01
        BYTE                   12
        BYTE   W02
        BYTE                   13
        BYTE   W01
        BYTE                   14
        BYTE   W01
        BYTE           N48     En2   v100   gtp2
        BYTE   W01
// 019   ----------------------------------------
        BYTE           VOL     15
        BYTE   W01
        BYTE                   16
        BYTE   W02
        BYTE                   17
        BYTE   W01
        BYTE                   18
        BYTE   W02
        BYTE                   19
        BYTE   W01
        BYTE                   20
        BYTE   W02
        BYTE                   21
        BYTE   W03
        BYTE                   22
        BYTE   W01
        BYTE                   23
        BYTE   W02
        BYTE                   24
        BYTE   W01
        BYTE                   25
        BYTE   W02
        BYTE                   26
        BYTE   W01
        BYTE                   27
        BYTE   W02
        BYTE                   28
        BYTE   W01
        BYTE                   29
        BYTE   W02
        BYTE                   30
        BYTE   W01
        BYTE                   31
        BYTE   W02
        BYTE                   32
        BYTE   W01
        BYTE                   33
        BYTE   W02
        BYTE                   34
        BYTE   W01
        BYTE                   35
        BYTE   W02
        BYTE                   36
        BYTE   W01
        BYTE                   37
        BYTE   W02
        BYTE                   38
        BYTE   W01
        BYTE                   39
        BYTE   W02
        BYTE                   40
        BYTE   W03
        BYTE                   42
        BYTE   W54
// 020   ----------------------------------------
        BYTE   W96
// 021   ----------------------------------------
        BYTE   W96
// 022   ----------------------------------------
        BYTE   W24
        BYTE           PAN     c_v+17
        BYTE           VOL     58
        BYTE   W12
        BYTE           N02     Ds2   v099
        BYTE   W03
        BYTE                   En2
        BYTE   W03
        BYTE                   Fs2
        BYTE   W03
        BYTE                   Gs2
        BYTE   W03
        BYTE           VOL     100
        BYTE           PAN     c_v+0
        BYTE   GoTo
         POIN2  TheProudCommander_1_LOOP
        BYTE   FINE

//****************** Track 2 (Midi-Chn.2) ******************//

TheProudCommander_2:
        BYTE   KEYSH   TheProudCommander_key+0
// 000   ----------------------------------------
TheProudCommander_2_LOOP:
        BYTE           VOICE   105
        BYTE   W96
// 001   ----------------------------------------
        BYTE   W96
// 002   ----------------------------------------
        BYTE   W24
        BYTE           PAN     c_v-16
        BYTE           VOL     47
        BYTE   W60
        BYTE           N02     Ds3   v086
        BYTE   W03
        BYTE                   En3   v082
        BYTE   W03
        BYTE                   Fs3   v080
        BYTE   W03
        BYTE                   Gs3   v084
        BYTE   W03
// 003   ----------------------------------------
        BYTE           N56     As3   v085   gtp3
        BYTE   W60
        BYTE           N02     Gs3   v082
        BYTE   W03
        BYTE                   Gs3   v029
        BYTE   W03
        BYTE                   As3   v084
        BYTE   W03
        BYTE                   As3   v031
        BYTE   W03
        BYTE           N72     Bn3   v101
        BYTE   W05
        BYTE           VOL     46
        BYTE   W01
        BYTE                   45
        BYTE   W01
        BYTE                   42
        BYTE   W01
        BYTE                   41
        BYTE   W01
        BYTE                   40
        BYTE   W01
        BYTE                   37
        BYTE   W01
        BYTE                   36
        BYTE   W01
        BYTE                   35
        BYTE   W01
        BYTE                   32
        BYTE   W01
        BYTE                   31
        BYTE   W01
        BYTE                   29
        BYTE   W05
        BYTE                   30
        BYTE   W03
        BYTE                   31
        BYTE   W01
// 004   ----------------------------------------
        BYTE   W03
        BYTE                   32
        BYTE   W05
        BYTE                   33
        BYTE   W04
        BYTE                   34
        BYTE   W02
        BYTE                   35
        BYTE   W04
        BYTE                   36
        BYTE   W03
        BYTE                   37
        BYTE   W02
        BYTE                   38
        BYTE   W03
        BYTE                   39
        BYTE   W01
        BYTE                   40
        BYTE   W02
        BYTE                   41
        BYTE   W03
        BYTE                   42
        BYTE   W01
        BYTE                   43
        BYTE   W02
        BYTE                   44
        BYTE   W01
        BYTE                   45
        BYTE   W02
        BYTE                   46
        BYTE   W01
        BYTE                   47
        BYTE   W09
        BYTE           N02     Bn3   v031
        BYTE   W48
// 005   ----------------------------------------
        BYTE   W24
        BYTE                   Fs2   v113
        BYTE   W03
        BYTE                   Fs2   v061
        BYTE   W03
        BYTE                   Gs2   v115
        BYTE   W03
        BYTE                   Gs2   v063
        BYTE   W03
        BYTE                   Cs3   v105
        BYTE   W03
        BYTE                   Cs3   v053
        BYTE   W03
        BYTE                   Gs2   v105
        BYTE   W03
        BYTE                   Gs2   v053
        BYTE   W03
        BYTE                   As2   v109
        BYTE   W03
        BYTE                   As2   v057
        BYTE   W03
        BYTE                   Ds3   v105
        BYTE   W03
        BYTE                   Ds3   v053
        BYTE   W03
        BYTE                   Cs3   v106
        BYTE   W03
        BYTE                   Cs3   v054
        BYTE   W03
        BYTE                   Ds3   v109
        BYTE   W03
        BYTE                   Ds3   v057
        BYTE   W03
        BYTE                   Gs3   v116
        BYTE   W03
        BYTE                   Gs3   v064
        BYTE   W03
        BYTE                   Cs3   v110
        BYTE   W03
        BYTE                   Cs3   v058
        BYTE   W03
        BYTE                   Ds3   v106
        BYTE   W03
        BYTE                   Ds3   v054
        BYTE   W03
        BYTE                   As3   v114
        BYTE   W03
        BYTE                   As3   v062
        BYTE   W03
// 006   ----------------------------------------
        BYTE           N56     As3   v082   gtp3
        BYTE   W03
        BYTE           VOL     44
        BYTE   W01
        BYTE                   41
        BYTE   W01
        BYTE                   38
        BYTE   W09
        BYTE                   39
        BYTE   W09
        BYTE                   40
        BYTE   W03
        BYTE                   41
        BYTE   W06
        BYTE                   42
        BYTE   W03
        BYTE                   43
        BYTE   W03
        BYTE                   44
        BYTE   W06
        BYTE                   45
        BYTE   W03
        BYTE                   46
        BYTE   W02
        BYTE                   47
        BYTE   W11
        BYTE           N02     Gs3   v085
        BYTE   W03
        BYTE                   Gs3   v033
        BYTE   W03
        BYTE                   As3   v086
        BYTE   W03
        BYTE                   As3   v034
        BYTE   W03
        BYTE                   Bn3   v078
        BYTE   W03
        BYTE                   Bn3   v026
        BYTE   W03
        BYTE                   Cs4   v080
        BYTE   W03
        BYTE                   Cs4   v028
        BYTE   W03
        BYTE           N60     Ds4   v097
        BYTE   W01
        BYTE           VOL     46
        BYTE   W01
        BYTE                   44
        BYTE   W01
        BYTE                   42
        BYTE   W01
        BYTE                   39
        BYTE   W01
        BYTE                   38
        BYTE   W01
        BYTE                   36
        BYTE   W01
        BYTE                   34
        BYTE   W03
        BYTE                   35
        BYTE   W02
// 007   ----------------------------------------
        BYTE   W07
        BYTE                   36
        BYTE   W06
        BYTE                   37
        BYTE   W06
        BYTE                   38
        BYTE   W03
        BYTE                   39
        BYTE   W06
        BYTE                   40
        BYTE   W03
        BYTE                   41
        BYTE   W03
        BYTE                   42
        BYTE   W03
        BYTE                   44
        BYTE   W03
        BYTE                   45
        BYTE   W03
        BYTE                   47
        BYTE   W05
        BYTE           N02     Ds4   v031
        BYTE   W48
// 008   ----------------------------------------
        BYTE   W96
// 009   ----------------------------------------
        BYTE   W66
        BYTE           VOL     45
        BYTE   W02
        BYTE                   44
        BYTE   W01
        BYTE                   41
        BYTE   W02
        BYTE                   39
        BYTE   W01
        BYTE           N02     Fs2   v103
        BYTE           VOL     38
        BYTE   W01
        BYTE                   36
        BYTE   W02
        BYTE           N02     Fs2   v044
        BYTE   W03
        BYTE                   Gs2   v095
        BYTE   W03
        BYTE                   Gs2   v036
        BYTE   W03
        BYTE                   Cs3   v104
        BYTE   W03
        BYTE                   Cs3   v045
        BYTE   W03
        BYTE                   Gs2   v098
        BYTE   W03
        BYTE                   Gs2   v039
        BYTE   W01
        BYTE           VOL     37
        BYTE   W02
// 010   ----------------------------------------
        BYTE           N02     As2   v098
        BYTE   W03
        BYTE                   As2   v039
        BYTE   W03
        BYTE                   Cs3   v105
        BYTE   W03
        BYTE                   Cs3   v046
        BYTE   W02
        BYTE           VOL     38
        BYTE   W01
        BYTE           N02     Bn2   v104
        BYTE   W03
        BYTE                   Bn2   v045
        BYTE   W03
        BYTE                   Ds3   v097
        BYTE   W03
        BYTE                   Ds3   v038
        BYTE   W03
        BYTE                   Fs3   v104
        BYTE   W03
        BYTE                   Fs3   v045
        BYTE   W03
        BYTE                   Bn2   v104
        BYTE   W02
        BYTE           VOL     39
        BYTE   W01
        BYTE           N02     Bn2   v045
        BYTE   W03
        BYTE                   Cs3   v103
        BYTE   W03
        BYTE                   Cs3   v044
        BYTE   W03
        BYTE                   Gs3   v097
        BYTE   W03
        BYTE                   Gs3   v038
        BYTE   W03
        BYTE                   Fs2   v096
        BYTE   W03
        BYTE                   Fs2   v037
        BYTE   W01
        BYTE           VOL     40
        BYTE   W02
        BYTE           N02     Gs2   v105
        BYTE   W03
        BYTE                   Gs2   v046
        BYTE   W03
        BYTE                   Cs3   v101
        BYTE   W03
        BYTE                   Cs3   v042
        BYTE   W03
        BYTE           VOL     41
        BYTE           N02     Gs2   v098
        BYTE   W03
        BYTE                   Gs2   v039
        BYTE   W03
        BYTE                   As2   v099
        BYTE   W03
        BYTE                   As2   v040
        BYTE   W03
        BYTE                   Ds3   v095
        BYTE   W03
        BYTE                   Ds3   v036
        BYTE   W03
        BYTE                   Cs3   v096
        BYTE   W02
        BYTE           VOL     42
        BYTE   W01
        BYTE           N02     Cs3   v037
        BYTE   W03
        BYTE                   Ds3   v101
        BYTE   W03
        BYTE                   Ds3   v042
        BYTE   W03
// 011   ----------------------------------------
        BYTE                   Gs3   v100
        BYTE   W03
        BYTE                   Gs3   v041
        BYTE   W03
        BYTE                   Cs3   v099
        BYTE   W03
        BYTE                   Cs3   v040
        BYTE   W02
        BYTE           VOL     43
        BYTE   W01
        BYTE           N02     Ds3   v103
        BYTE   W03
        BYTE                   Ds3   v044
        BYTE   W03
        BYTE                   As3   v106
        BYTE   W03
        BYTE                   As3   v047
        BYTE   W03
        BYTE                   Gs2   v100
        BYTE           VOL     44
        BYTE   W03
        BYTE           N02     Gs2   v041
        BYTE   W03
        BYTE                   As2   v104
        BYTE   W03
        BYTE                   As2   v045
        BYTE   W03
        BYTE                   Ds3   v095
        BYTE   W03
        BYTE                   Ds3   v036
        BYTE   W03
        BYTE                   Cs3   v100
        BYTE   W03
        BYTE           VOL     45
        BYTE           N02     Cs3   v041
        BYTE   W03
        BYTE                   Ds3   v098
        BYTE   W03
        BYTE                   Ds3   v039
        BYTE   W03
        BYTE                   Gs3   v099
        BYTE   W03
        BYTE                   Gs3   v040
        BYTE   W03
        BYTE                   Cs3   v099
        BYTE   W03
        BYTE                   Cs3   v040
        BYTE   W02
        BYTE           VOL     46
        BYTE   W01
        BYTE           N02     Ds3   v095
        BYTE   W03
        BYTE                   Ds3   v036
        BYTE   W03
        BYTE                   As3   v107
        BYTE   W03
        BYTE                   As3   v048
        BYTE   W03
        BYTE                   Ds3   v107
        BYTE   W01
        BYTE           VOL     47
        BYTE   W02
        BYTE           N02     Ds3   v048
        BYTE   W03
        BYTE                   Fn3   v101
        BYTE   W03
        BYTE                   Fn3   v042
        BYTE   W03
        BYTE                   Cn4   v104
        BYTE   W03
        BYTE                   Cn4   v045
        BYTE   W03
// 012   ----------------------------------------
        BYTE           N68     Gn3   v071   gtp3
        BYTE                   Cn4   v075
        BYTE   W09
        BYTE           VOL     46
        BYTE   W03
        BYTE                   45
        BYTE   W04
        BYTE                   44
        BYTE   W03
        BYTE                   43
        BYTE   W02
        BYTE                   42
        BYTE   W04
        BYTE                   41
        BYTE   W03
        BYTE                   40
        BYTE   W02
        BYTE                   39
        BYTE   W03
        BYTE                   38
        BYTE   W01
        BYTE                   37
        BYTE   W02
        BYTE                   36
        BYTE   W03
        BYTE                   35
        BYTE   W01
        BYTE                   34
        BYTE   W02
        BYTE                   33
        BYTE   W03
        BYTE                   32
        BYTE   W01
        BYTE                   31
        BYTE   W02
        BYTE                   30
        BYTE   W01
        BYTE                   29
        BYTE   W02
        BYTE                   28
        BYTE   W01
        BYTE                   27
        BYTE   W02
        BYTE                   26
        BYTE   W01
        BYTE                   25
        BYTE   W02
        BYTE                   23
        BYTE   W01
        BYTE                   22
        BYTE   W02
        BYTE                   21
        BYTE   W01
        BYTE                   19
        BYTE   W02
        BYTE                   18
        BYTE   W01
        BYTE                   16
        BYTE   W02
        BYTE                   15
        BYTE   W01
        BYTE                   13
        BYTE   W01
        BYTE                   12
        BYTE   W28
// 013   ----------------------------------------
        BYTE   W64
        BYTE                   15
        BYTE   W01
        BYTE                   19
        BYTE   W01
        BYTE                   22
        BYTE   W01
        BYTE                   29
        BYTE   W05
        BYTE           N23     Bn2   v083
        BYTE   W10
        BYTE           VOL     30
        BYTE   W09
        BYTE                   31
        BYTE   W05
// 014   ----------------------------------------
        BYTE           N17     Cs3   v084
        BYTE   W07
        BYTE           VOL     32
        BYTE   W09
        BYTE                   33
        BYTE   W02
        BYTE           N02     Bn2   v079
        BYTE   W03
        BYTE                   Cs3   v085
        BYTE   W03
        BYTE           N23     Ds3   v083
        BYTE   W01
        BYTE           VOL     34
        BYTE   W03
        BYTE                   35
        BYTE   W09
        BYTE                   36
        BYTE   W06
        BYTE                   37
        BYTE   W03
        BYTE                   38
        BYTE   W02
        BYTE           N23     Bn2   v084
        BYTE   W04
        BYTE           VOL     39
        BYTE   W03
        BYTE                   40
        BYTE   W03
        BYTE                   41
        BYTE   W06
        BYTE                   42
        BYTE   W03
        BYTE                   43
        BYTE   W03
        BYTE                   44
        BYTE   W02
        BYTE           N08     Cs3   v083
        BYTE           N08     Fs3   v086
        BYTE   W01
        BYTE           VOL     45
        BYTE   W03
        BYTE                   46
        BYTE   W02
        BYTE                   47
        BYTE   W03
        BYTE           N02     Fn2
        BYTE           N02     Cn3
        BYTE   W03
        BYTE                   Gn2
        BYTE           N02     Dn3
        BYTE   W03
        BYTE                   An2
        BYTE           N02     En3
        BYTE   W03
        BYTE                   Bn2
        BYTE           N02     Fs3
        BYTE   W03
        BYTE                   Cn3
        BYTE           N02     Gn3
        BYTE   W03
// 015   ----------------------------------------
        BYTE           N44     Dn3   v081   gtp3
        BYTE                   An3   v091
        BYTE   W24
        BYTE           VOL     46
        BYTE   W12
        BYTE                   45
        BYTE   W09
        BYTE                   44
        BYTE   W03
        BYTE           N05     An2   v094
        BYTE           N05     En3
        BYTE   W06
        BYTE                   An2   v024
        BYTE           N05     En3   v035
        BYTE           VOL     43
        BYTE   W06
        BYTE           N05     Dn3   v075
        BYTE           N05     An3   v086
        BYTE           VOL     42
        BYTE   W03
        BYTE                   41
        BYTE   W03
        BYTE           N05     Dn3   v024
        BYTE           N05     An3   v035
        BYTE   W03
        BYTE           VOL     40
        BYTE   W03
        BYTE           N23     Cn3   v065
        BYTE           N23     Gn3   v084
        BYTE           VOL     39
        BYTE   W01
        BYTE                   38
        BYTE   W06
        BYTE                   39
        BYTE   W15
        BYTE                   40
        BYTE   W02
// 016   ----------------------------------------
        BYTE           N23     En3   v076
        BYTE           N23     Bn3   v081
        BYTE   W04
        BYTE           VOL     41
        BYTE   W09
        BYTE                   42
        BYTE   W09
        BYTE                   43
        BYTE   W02
        BYTE           N23     Fs3   v084
        BYTE           N23     Cs4   v087
        BYTE   W01
        BYTE           VOL     44
        BYTE   W06
        BYTE                   45
        BYTE   W06
        BYTE                   46
        BYTE   W03
        BYTE                   47
        BYTE   W08
        BYTE           N44     Gn3   v082   gtp3
        BYTE           N44     Dn4   v085   gtp2
        BYTE   W15
        BYTE           VOL     46
        BYTE   W09
        BYTE                   45
        BYTE   W09
        BYTE                   44
        BYTE   W09
        BYTE                   43
        BYTE   W06
// 017   ----------------------------------------
        BYTE                   42
        BYTE           N10     Fs3   v084
        BYTE           N10     Cs4   v087
        BYTE   W06
        BYTE           VOL     41
        BYTE   W06
        BYTE                   40
        BYTE           N05     Gn3   v082
        BYTE           N05     Dn4   v085
        BYTE   W03
        BYTE           VOL     39
        BYTE   W03
        BYTE                   38
        BYTE           N05     Fs3   v081
        BYTE           N05     Cs4   v085
        BYTE   W03
        BYTE           VOL     37
        BYTE   W03
        BYTE                   36
        BYTE           N68     En3   v084   gtp3
        BYTE                   Bn3   v087
        BYTE   W01
        BYTE           VOL     35
        BYTE   W12
        BYTE                   36
        BYTE   W09
        BYTE                   37
        BYTE   W06
        BYTE                   38
        BYTE   W09
        BYTE                   39
        BYTE   W06
        BYTE                   40
        BYTE   W03
        BYTE                   41
        BYTE   W06
        BYTE                   42
        BYTE   W03
        BYTE                   43
        BYTE   W03
        BYTE                   44
        BYTE   W03
        BYTE                   45
        BYTE   W03
        BYTE                   47
        BYTE   W08
// 018   ----------------------------------------
        BYTE           N44     Bn3   v093   gtp3
        BYTE   W02
        BYTE           VOL     46
        BYTE   W01
        BYTE                   44
        BYTE   W01
        BYTE                   43
        BYTE   W01
        BYTE                   40
        BYTE   W01
        BYTE                   38
        BYTE   W01
        BYTE                   37
        BYTE   W01
        BYTE                   34
        BYTE   W01
        BYTE                   32
        BYTE   W01
        BYTE                   31
        BYTE   W09
        BYTE                   32
        BYTE   W18
        BYTE                   33
        BYTE   W11
        BYTE           N24     Cn4   v091
        BYTE   W04
        BYTE           VOL     34
        BYTE   W09
        BYTE                   35
        BYTE   W09
        BYTE                   36
        BYTE   W02
        BYTE           N44     Dn4   v097   gtp3
        BYTE   W07
        BYTE           VOL     37
        BYTE   W06
        BYTE                   38
        BYTE   W09
        BYTE                   39
        BYTE   W02
// 019   ----------------------------------------
        BYTE   W04
        BYTE                   40
        BYTE   W03
        BYTE                   41
        BYTE   W06
        BYTE                   42
        BYTE   W06
        BYTE                   43
        BYTE   W03
        BYTE                   44
        BYTE   W02
        BYTE           N23     Gn3   v091
        BYTE   W01
        BYTE           VOL     45
        BYTE   W03
        BYTE                   46
        BYTE   W03
        BYTE                   47
        BYTE   W17
        BYTE           TIE     Gs3   v100
        BYTE   W13
        BYTE           VOL     46
        BYTE   W05
        BYTE                   45
        BYTE   W04
        BYTE                   44
        BYTE   W05
        BYTE                   43
        BYTE   W03
        BYTE                   42
        BYTE   W04
        BYTE                   41
        BYTE   W05
        BYTE                   40
        BYTE   W01
        BYTE                   39
        BYTE   W05
        BYTE                   38
        BYTE   W03
// 020   ----------------------------------------
        BYTE                   37
        BYTE   W01
        BYTE                   36
        BYTE   W03
        BYTE                   35
        BYTE   W03
        BYTE                   34
        BYTE   W02
        BYTE                   33
        BYTE   W03
        BYTE                   32
        BYTE   W03
        BYTE                   31
        BYTE   W01
        BYTE                   30
        BYTE   W02
        BYTE                   29
        BYTE   W03
        BYTE                   28
        BYTE   W01
        BYTE                   27
        BYTE   W02
        BYTE                   26
        BYTE   W01
        BYTE                   25
        BYTE   W02
        BYTE                   24
        BYTE   W01
        BYTE                   23
        BYTE   W02
        BYTE                   22
        BYTE   W01
        BYTE                   21
        BYTE   W02
        BYTE                   20
        BYTE   W01
        BYTE                   19
        BYTE   W02
        BYTE                   17
        BYTE   W01
        BYTE                   16
        BYTE   W02
        BYTE                   15
        BYTE   W01
        BYTE                   14
        BYTE   W02
        BYTE                   12
        BYTE   W01
        BYTE                   11
        BYTE   W02
        BYTE                   9
        BYTE   W08
        BYTE           EOT
        BYTE   W42
        BYTE   W01
// 021   ----------------------------------------
        BYTE   W72
        BYTE           VOL     47
        BYTE   W24
// 022   ----------------------------------------
        BYTE   W36
        BYTE           N02     Ds3   v086
        BYTE   W03
        BYTE                   En3   v082
        BYTE   W03
        BYTE                   Fs3   v080
        BYTE   W03
        BYTE                   Gs3   v084
        BYTE   W03
        BYTE           VOL     100
        BYTE           PAN     c_v+0
        BYTE   GoTo
         POIN2  TheProudCommander_2_LOOP
        BYTE   FINE

//****************** Track 3 (Midi-Chn.3) ******************//

TheProudCommander_3:
        BYTE   KEYSH   TheProudCommander_key+0
// 000   ----------------------------------------
TheProudCommander_3_LOOP:
        BYTE           VOICE   2
        BYTE           VOL     60
        BYTE           N04     Gs0   v127
        BYTE   W12
        BYTE                   Gs0
        BYTE   W60
        BYTE                   Gs0
        BYTE   W12
        BYTE                   Gs0
        BYTE   W12
// 001   ----------------------------------------
TheProudCommander_3_1:
        BYTE   W48
        BYTE           N04     Gs0   v127
        BYTE   W12
        BYTE                   Gs0
        BYTE   W36
        BYTE   PEND
// 002   ----------------------------------------
TheProudCommander_3_2:
        BYTE   W24
        BYTE           N04     Gs0   v127
        BYTE   W12
        BYTE                   Gs0
        BYTE   W60
        BYTE   PEND
// 003   ----------------------------------------
TheProudCommander_3_3:
        BYTE           N04     Gs0   v127
        BYTE   W12
        BYTE                   Gs0
        BYTE   W60
        BYTE                   Gs0
        BYTE   W12
        BYTE                   Gs0
        BYTE   W12
        BYTE   PEND
// 004   ----------------------------------------
        BYTE   PATT
         POIN2  TheProudCommander_3_1
// 005   ----------------------------------------
        BYTE   PATT
         POIN2  TheProudCommander_3_2
// 006   ----------------------------------------
        BYTE   PATT
         POIN2  TheProudCommander_3_3
// 007   ----------------------------------------
        BYTE   PATT
         POIN2  TheProudCommander_3_1
// 008   ----------------------------------------
        BYTE   W12
        BYTE           N04     Gs0   v127
        BYTE   W12
        BYTE                   Gs0
        BYTE   W12
        BYTE                   Gs0
        BYTE   W24
        BYTE                   Gs0
        BYTE   W12
        BYTE                   Gs1
        BYTE   W06
        BYTE                   Ds1
        BYTE   W06
        BYTE                   As0
        BYTE   W06
        BYTE                   Gs0
        BYTE   W06
// 009   ----------------------------------------
        BYTE                   Gs0
        BYTE   W12
        BYTE                   Gs0
        BYTE   W36
        BYTE                   Gs0
        BYTE   W24
        BYTE                   Gs0
        BYTE   W12
        BYTE                   Gs0
        BYTE   W12
// 010   ----------------------------------------
        BYTE   W24
        BYTE                   Gs0
        BYTE   W12
        BYTE                   Gs0
        BYTE   W12
        BYTE                   Gs0
        BYTE   W12
        BYTE                   Gs0
        BYTE   W24
        BYTE                   Gs0
        BYTE   W12
// 011   ----------------------------------------
        BYTE                   Gs0
        BYTE   W12
        BYTE                   Gs0
        BYTE   W12
        BYTE                   Gs0
        BYTE   W36
        BYTE                   Gs0
        BYTE   W12
        BYTE                   Gs1
        BYTE   W06
        BYTE                   Ds1
        BYTE   W06
        BYTE                   As0
        BYTE   W06
        BYTE                   Gs0
        BYTE   W06
// 012   ----------------------------------------
        BYTE           N54     Fn0
        BYTE   W60
        BYTE           N04
        BYTE   W12
        BYTE                   Fn0
        BYTE   W12
        BYTE           N48     Fn0   v127   gtp1
        BYTE   W12
// 013   ----------------------------------------
        BYTE   W48
        BYTE           N54
        BYTE   W48
// 014   ----------------------------------------
        BYTE   W12
        BYTE           N04
        BYTE   W12
        BYTE                   Fn0
        BYTE   W12
        BYTE           N44     Fn0   v127   gtp2
        BYTE   W48
        BYTE           N04
        BYTE   W06
        BYTE                   Fn0
        BYTE   W06
// 015   ----------------------------------------
        BYTE                   En0
        BYTE   W12
        BYTE           N48     En0   v127   gtp1
        BYTE   W54
        BYTE           N04
        BYTE   W06
        BYTE                   En0
        BYTE   W12
        BYTE           N44     En0   v127   gtp1
        BYTE   W12
// 016   ----------------------------------------
        BYTE   W36
        BYTE           N04
        BYTE   W12
        BYTE                   En0
        BYTE   W12
        BYTE           N48     En0   v127   gtp1
        BYTE   W36
// 017   ----------------------------------------
        BYTE   W24
        BYTE           N04
        BYTE   W12
        BYTE           N20
        BYTE   W24
        BYTE           N04
        BYTE   W12
        BYTE                   En0
        BYTE   W12
        BYTE                   En0
        BYTE   W12
// 018   ----------------------------------------
        BYTE                   En1
        BYTE   W12
        BYTE           N22     En0
        BYTE   W24
        BYTE           N04
        BYTE   W12
        BYTE                   En1
        BYTE   W12
        BYTE                   En0
        BYTE   W12
        BYTE                   En0
        BYTE   W12
        BYTE           N20     En1
        BYTE   W12
// 019   ----------------------------------------
        BYTE   W12
        BYTE           N04     En0
        BYTE   W12
        BYTE                   En0
        BYTE   W12
        BYTE                   Fs0
        BYTE   W12
        BYTE                   Gs0
        BYTE   W12
        BYTE                   Gs0
        BYTE   W36
// 020   ----------------------------------------
        BYTE   PATT
         POIN2  TheProudCommander_3_2
// 021   ----------------------------------------
        BYTE   PATT
         POIN2  TheProudCommander_3_3
// 022   ----------------------------------------
        BYTE   W48
        BYTE   GoTo
         POIN2  TheProudCommander_3_LOOP
        BYTE   FINE

//****************** Track 4 (Midi-Chn.4) ******************//

TheProudCommander_4:
        BYTE   KEYSH   TheProudCommander_key+0
// 000   ----------------------------------------
TheProudCommander_4_LOOP:
        BYTE           VOICE   47
        BYTE           PAN     c_v+12
        BYTE           VOL     63
        BYTE           N36     Gs2   v121
        BYTE   W60
        BYTE           N03     Gs2   v085
        BYTE   W04
        BYTE                   Gs2   v097
        BYTE   W04
        BYTE                   Gs2   v112
        BYTE   W04
        BYTE           N36     Gs2   v127
        BYTE   W24
// 001   ----------------------------------------
TheProudCommander_4_1:
        BYTE   W48
        BYTE           N11     Gs2   v116
        BYTE   W12
        BYTE           N36     Gs2   v106
        BYTE   W36
        BYTE   PEND
// 002   ----------------------------------------
        BYTE   W12
        BYTE           N03     Gs2   v070
        BYTE   W04
        BYTE                   Gs2   v089
        BYTE   W04
        BYTE                   Gs2   v107
        BYTE   W04
        BYTE           N36     Gs2   v121
        BYTE   W44
        BYTE   W02
        BYTE           VOL     37
        BYTE   W02
        BYTE           N23     Gs4
        BYTE   W01
        BYTE           VOL     38
        BYTE   W02
        BYTE                   39
        BYTE   W01
        BYTE                   40
        BYTE   W02
        BYTE                   41
        BYTE   W01
        BYTE                   42
        BYTE   W02
        BYTE                   44
        BYTE   W01
        BYTE                   45
        BYTE   W02
        BYTE                   47
        BYTE   W01
        BYTE                   49
        BYTE   W02
        BYTE                   52
        BYTE   W01
        BYTE                   55
        BYTE   W02
        BYTE                   58
        BYTE   W01
        BYTE                   62
        BYTE   W01
        BYTE                   63
        BYTE   W04
// 003   ----------------------------------------
        BYTE           N36     Gs2
        BYTE   W60
        BYTE           N03     Gs2   v081
        BYTE   W04
        BYTE                   Gs2   v097
        BYTE   W04
        BYTE                   Gs2   v112
        BYTE   W04
        BYTE           N36     Gs2   v127
        BYTE   W24
// 004   ----------------------------------------
        BYTE   PATT
         POIN2  TheProudCommander_4_1
// 005   ----------------------------------------
        BYTE   W12
        BYTE           N03     Gs2   v069
        BYTE   W04
        BYTE                   Gs2   v089
        BYTE   W04
        BYTE                   Gs2   v112
        BYTE   W04
        BYTE           N36     Gs2   v121
        BYTE   W44
        BYTE   W03
        BYTE           VOL     31
        BYTE   W01
        BYTE           N23     Gs4
        BYTE   W01
        BYTE           VOL     32
        BYTE   W01
        BYTE                   33
        BYTE   W02
        BYTE                   34
        BYTE   W01
        BYTE                   36
        BYTE   W02
        BYTE                   37
        BYTE   W01
        BYTE                   39
        BYTE   W02
        BYTE                   41
        BYTE   W01
        BYTE                   43
        BYTE   W02
        BYTE                   45
        BYTE   W01
        BYTE                   47
        BYTE   W02
        BYTE                   50
        BYTE   W01
        BYTE                   53
        BYTE   W02
        BYTE                   57
        BYTE   W01
        BYTE                   61
        BYTE   W01
        BYTE                   63
        BYTE   W03
// 006   ----------------------------------------
        BYTE           N36     Gs2
        BYTE   W60
        BYTE           N03     Gs2   v072
        BYTE   W04
        BYTE                   Gs2   v088
        BYTE   W04
        BYTE                   Gs2   v112
        BYTE   W04
        BYTE           N36     Gs2   v127
        BYTE   W24
// 007   ----------------------------------------
        BYTE   PATT
         POIN2  TheProudCommander_4_1
// 008   ----------------------------------------
        BYTE   W12
        BYTE           N03     Gs2   v091
        BYTE   W04
        BYTE                   Gs2   v081
        BYTE   W04
        BYTE                   Gs2   v107
        BYTE   W04
        BYTE           N36     Gs2   v121
        BYTE   W44
        BYTE   W02
        BYTE           VOL     52
        BYTE   W01
        BYTE                   33
        BYTE   W01
        BYTE           N23     Gs4
        BYTE   W01
        BYTE           VOL     34
        BYTE   W01
        BYTE                   35
        BYTE   W02
        BYTE                   36
        BYTE   W01
        BYTE                   37
        BYTE   W02
        BYTE                   39
        BYTE   W01
        BYTE                   40
        BYTE   W02
        BYTE                   42
        BYTE   W01
        BYTE                   44
        BYTE   W02
        BYTE                   46
        BYTE   W01
        BYTE                   48
        BYTE   W02
        BYTE                   50
        BYTE   W01
        BYTE                   53
        BYTE   W02
        BYTE                   56
        BYTE   W01
        BYTE                   60
        BYTE   W01
        BYTE                   63
        BYTE   W03
// 009   ----------------------------------------
        BYTE           N36     Gs2
        BYTE   W60
        BYTE           N03     Gs2   v088
        BYTE   W04
        BYTE                   Gs2   v087
        BYTE   W04
        BYTE                   Gs2   v112
        BYTE   W04
        BYTE           N36     Gs2   v127
        BYTE   W24
// 010   ----------------------------------------
        BYTE   PATT
         POIN2  TheProudCommander_4_1
// 011   ----------------------------------------
        BYTE   W12
        BYTE           N03     Gs2   v072
        BYTE   W04
        BYTE                   Gs2   v091
        BYTE   W04
        BYTE                   Gs2   v107
        BYTE   W04
        BYTE           N23     Gs2   v121
        BYTE   W21
        BYTE           VOL     57
        BYTE   W01
        BYTE                   51
        BYTE   W01
        BYTE                   39
        BYTE   W01
        BYTE                   37
        BYTE           N44     Gs4   v121   gtp3
        BYTE   W03
        BYTE           VOL     38
        BYTE   W03
        BYTE                   39
        BYTE   W03
        BYTE                   40
        BYTE   W03
        BYTE                   41
        BYTE   W01
        BYTE                   42
        BYTE   W03
        BYTE                   43
        BYTE   W03
        BYTE                   44
        BYTE   W02
        BYTE                   45
        BYTE   W01
        BYTE                   46
        BYTE   W03
        BYTE                   47
        BYTE   W02
        BYTE                   48
        BYTE   W01
        BYTE                   49
        BYTE   W02
        BYTE                   50
        BYTE   W01
        BYTE                   51
        BYTE   W02
        BYTE                   52
        BYTE   W01
        BYTE                   53
        BYTE   W02
        BYTE                   54
        BYTE   W01
        BYTE                   55
        BYTE   W02
        BYTE                   56
        BYTE   W01
        BYTE                   58
        BYTE   W02
        BYTE                   59
        BYTE   W01
        BYTE                   61
        BYTE   W02
        BYTE                   63
        BYTE   W03
// 012   ----------------------------------------
        BYTE           N36     Fn2
        BYTE   W60
        BYTE           N03     Fn2   v061
        BYTE   W04
        BYTE                   Fn2   v085
        BYTE   W04
        BYTE                   Fn2   v112
        BYTE   W04
        BYTE           N36     Fn2   v127
        BYTE   W24
// 013   ----------------------------------------
        BYTE   W48
        BYTE           N11     Fn2   v116
        BYTE   W12
        BYTE           N36     Fn2   v106
        BYTE   W36
// 014   ----------------------------------------
        BYTE   W12
        BYTE           N03     Fn2   v081
        BYTE   W04
        BYTE                   Fn2   v091
        BYTE   W04
        BYTE                   Fn2   v107
        BYTE   W04
        BYTE           N11     Fn2   v104
        BYTE   W12
        BYTE                   Fn2
        BYTE   W09
        BYTE           VOL     59
        BYTE   W01
        BYTE                   54
        BYTE   W01
        BYTE                   50
        BYTE   W01
        BYTE           N44     Fn4   v121   gtp3
        BYTE           VOL     40
        BYTE   W01
        BYTE                   36
        BYTE   W03
        BYTE                   37
        BYTE   W03
        BYTE                   38
        BYTE   W02
        BYTE                   39
        BYTE   W03
        BYTE                   40
        BYTE   W03
        BYTE                   41
        BYTE   W01
        BYTE                   42
        BYTE   W03
        BYTE                   43
        BYTE   W02
        BYTE                   44
        BYTE   W01
        BYTE                   45
        BYTE   W02
        BYTE                   46
        BYTE   W03
        BYTE                   47
        BYTE   W01
        BYTE                   48
        BYTE   W02
        BYTE                   49
        BYTE   W01
        BYTE                   50
        BYTE   W02
        BYTE                   51
        BYTE   W01
        BYTE                   53
        BYTE   W02
        BYTE                   54
        BYTE   W01
        BYTE                   55
        BYTE   W02
        BYTE                   57
        BYTE   W01
        BYTE                   58
        BYTE   W02
        BYTE                   60
        BYTE   W01
        BYTE                   62
        BYTE   W01
        BYTE                   63
        BYTE   W04
// 015   ----------------------------------------
        BYTE           N36     En2
        BYTE   W60
        BYTE           N03     En2   v110
        BYTE   W04
        BYTE                   En2
        BYTE   W04
        BYTE                   En2   v112
        BYTE   W04
        BYTE           N36     En2   v127
        BYTE   W24
// 016   ----------------------------------------
        BYTE   W48
        BYTE           N11     En2   v116
        BYTE   W12
        BYTE           N24     En2   v106
        BYTE   W24
        BYTE                   En2
        BYTE   W12
// 017   ----------------------------------------
        BYTE   W12
        BYTE           N03     En2   v086
        BYTE   W04
        BYTE                   En2   v096
        BYTE   W04
        BYTE                   En2   v107
        BYTE   W04
        BYTE           N23     En2   v111
        BYTE   W24
        BYTE           N11     En2   v107
        BYTE   W12
        BYTE           N23     En2   v121
        BYTE   W24
        BYTE           N11     En2   v116
        BYTE   W12
// 018   ----------------------------------------
        BYTE                   En2   v107
        BYTE   W12
        BYTE           N23     En2   v121
        BYTE   W24
        BYTE                   En2   v113
        BYTE   W24
        BYTE           N03     En2   v110
        BYTE   W04
        BYTE                   En2
        BYTE   W04
        BYTE                   En2   v112
        BYTE   W04
        BYTE           N11     En2   v127
        BYTE   W12
        BYTE                   En2   v113
        BYTE   W12
// 019   ----------------------------------------
        BYTE           VOL     32
        BYTE           N44     En4   v121   gtp3
        BYTE   W03
        BYTE           VOL     33
        BYTE   W03
        BYTE                   34
        BYTE   W03
        BYTE                   35
        BYTE   W01
        BYTE                   36
        BYTE   W03
        BYTE                   37
        BYTE   W03
        BYTE                   38
        BYTE   W02
        BYTE                   39
        BYTE   W01
        BYTE                   40
        BYTE   W03
        BYTE                   41
        BYTE   W02
        BYTE                   42
        BYTE   W01
        BYTE                   43
        BYTE   W02
        BYTE                   44
        BYTE   W01
        BYTE                   45
        BYTE   W02
        BYTE                   46
        BYTE   W01
        BYTE                   47
        BYTE   W02
        BYTE                   48
        BYTE   W01
        BYTE                   49
        BYTE   W02
        BYTE                   51
        BYTE   W01
        BYTE                   52
        BYTE   W02
        BYTE                   54
        BYTE   W01
        BYTE                   55
        BYTE   W02
        BYTE                   57
        BYTE   W01
        BYTE                   59
        BYTE   W02
        BYTE                   60
        BYTE   W01
        BYTE                   63
        BYTE   W02
        BYTE           N36     Gs2
        BYTE   W48
// 020   ----------------------------------------
        BYTE   W12
        BYTE           N03     Gs2   v085
        BYTE   W04
        BYTE                   Gs2   v097
        BYTE   W04
        BYTE                   Gs2   v112
        BYTE   W04
        BYTE           N36     Gs2   v127
        BYTE   W72
// 021   ----------------------------------------
        BYTE           N11     Gs2   v116
        BYTE   W12
        BYTE           N36     Gs2   v106
        BYTE   W48
        BYTE           N03     Gs2   v070
        BYTE   W04
        BYTE                   Gs2   v089
        BYTE   W04
        BYTE                   Gs2   v107
        BYTE   W04
        BYTE           N36     Gs2   v121
        BYTE   W24
// 022   ----------------------------------------
        BYTE   W22
        BYTE           VOL     37
        BYTE   W02
        BYTE           N23     Gs4
        BYTE   W01
        BYTE           VOL     38
        BYTE   W02
        BYTE                   39
        BYTE   W01
        BYTE                   40
        BYTE   W02
        BYTE                   41
        BYTE   W01
        BYTE                   42
        BYTE   W02
        BYTE                   44
        BYTE   W01
        BYTE                   45
        BYTE   W02
        BYTE                   47
        BYTE   W01
        BYTE                   49
        BYTE   W02
        BYTE                   52
        BYTE   W01
        BYTE                   55
        BYTE   W02
        BYTE                   58
        BYTE   W01
        BYTE                   62
        BYTE   W01
        BYTE                   63
        BYTE   W04
        BYTE   GoTo
         POIN2  TheProudCommander_4_LOOP
        BYTE   FINE

//****************** Track 5 (Midi-Chn.5) ******************//

TheProudCommander_5:
        BYTE   KEYSH   TheProudCommander_key+0
// 000   ----------------------------------------
TheProudCommander_5_LOOP:
        BYTE           VOICE   117
        BYTE           PAN     c_v-20
        BYTE           VOL     58
        BYTE           N11     Cs4   v127
        BYTE   W12
        BYTE                   Cn4
        BYTE   W12
        BYTE           N03     Cn4   v042
        BYTE   W36
        BYTE                   Cn4   v122
        BYTE   W04
        BYTE                   Cs4   v113
        BYTE   W04
        BYTE                   Cn4   v127
        BYTE   W04
        BYTE           N11     Cs4
        BYTE   W12
        BYTE                   Cn4
        BYTE   W12
// 001   ----------------------------------------
TheProudCommander_5_1:
        BYTE           N03     Cn4   v042
        BYTE   W48
        BYTE           N11     Cs4   v127
        BYTE   W12
        BYTE           N10     Cn4
        BYTE   W12
        BYTE           N03     Cn4   v042
        BYTE   W24
        BYTE   PEND
// 002   ----------------------------------------
TheProudCommander_5_2:
        BYTE   W24
        BYTE           N11     Cs4   v127
        BYTE   W12
        BYTE                   Cn4
        BYTE   W12
        BYTE           N03     Cn4   v042
        BYTE   W12
        BYTE           N11     Cn4   v127
        BYTE   W12
        BYTE                   Bn4   v079
        BYTE   W12
        BYTE           N03     Cn4   v113
        BYTE   W04
        BYTE                   Cs4   v117
        BYTE   W04
        BYTE                   Cn4   v127
        BYTE   W04
        BYTE   PEND
// 003   ----------------------------------------
TheProudCommander_5_3:
        BYTE           N11     Cs4   v127
        BYTE   W12
        BYTE                   Cn4
        BYTE   W12
        BYTE           N03     Cn4   v042
        BYTE   W36
        BYTE                   Cn4   v122
        BYTE   W04
        BYTE                   Cs4   v113
        BYTE   W04
        BYTE                   Cn4   v127
        BYTE   W04
        BYTE           N11     Cs4
        BYTE   W12
        BYTE                   Cn4
        BYTE   W12
        BYTE   PEND
// 004   ----------------------------------------
        BYTE   PATT
         POIN2  TheProudCommander_5_1
// 005   ----------------------------------------
        BYTE   PATT
         POIN2  TheProudCommander_5_2
// 006   ----------------------------------------
        BYTE   PATT
         POIN2  TheProudCommander_5_3
// 007   ----------------------------------------
        BYTE           N03     Cn4   v042
        BYTE   W36
        BYTE           N11     Bn4   v085
        BYTE   W12
        BYTE                   Cs4   v127
        BYTE   W12
        BYTE           N10     Cn4
        BYTE   W12
        BYTE           N03     Cn4   v042
        BYTE   W12
        BYTE           N09     Cn4   v127
        BYTE   W12
// 008   ----------------------------------------
        BYTE           N03     Cn4   v042
        BYTE   W12
        BYTE           N05     Cn4   v127
        BYTE   W06
        BYTE                   Cs4
        BYTE   W06
        BYTE           N11
        BYTE   W12
        BYTE                   Cn4
        BYTE   W12
        BYTE           N03     Cn4   v042
        BYTE   W12
        BYTE           N11     Cn4   v127
        BYTE   W12
        BYTE           N23     Bn4   v079
        BYTE   W24
// 009   ----------------------------------------
        BYTE           N11     Cs4   v127
        BYTE   W12
        BYTE           N03     Cs4   v042
        BYTE   W12
        BYTE           N11     Cn4   v127
        BYTE   W12
        BYTE           N03     Cn4   v042
        BYTE   W12
        BYTE           N11     Cn4   v127
        BYTE   W12
        BYTE           N03     Cn4   v122
        BYTE   W04
        BYTE                   Cs4   v113
        BYTE   W04
        BYTE                   Cn4   v127
        BYTE   W04
        BYTE           N11     Cs4
        BYTE   W12
        BYTE           N03     Cs4   v042
        BYTE   W12
// 010   ----------------------------------------
        BYTE           N11     Cn4   v127
        BYTE   W12
        BYTE           N03     Cn4   v042
        BYTE   W36
        BYTE           N11     Cs4   v127
        BYTE   W12
        BYTE           N03     Cs4   v042
        BYTE   W12
        BYTE           N11     Cn4   v127
        BYTE   W12
        BYTE           N03     Cn4   v042
        BYTE   W12
// 011   ----------------------------------------
        BYTE           N11     Cn4   v127
        BYTE   W12
        BYTE           N03     Cn4   v042
        BYTE   W12
        BYTE           N05     Cs4   v127
        BYTE   W06
        BYTE                   Cn4
        BYTE   W06
        BYTE                   Cs4
        BYTE   W06
        BYTE                   Cn4
        BYTE   W06
        BYTE           N44     Bn4   v127   gtp3
        BYTE   W01
        BYTE           VOL     55
        BYTE   W01
        BYTE                   53
        BYTE   W01
        BYTE                   50
        BYTE   W01
        BYTE                   45
        BYTE   W01
        BYTE                   43
        BYTE   W01
        BYTE                   40
        BYTE   W01
        BYTE                   35
        BYTE   W03
        BYTE                   36
        BYTE   W03
        BYTE                   37
        BYTE   W03
        BYTE                   38
        BYTE   W03
        BYTE                   39
        BYTE   W02
        BYTE                   40
        BYTE   W03
        BYTE                   41
        BYTE   W03
        BYTE                   42
        BYTE   W01
        BYTE                   43
        BYTE   W02
        BYTE                   44
        BYTE   W01
        BYTE                   45
        BYTE   W02
        BYTE                   46
        BYTE   W01
        BYTE                   47
        BYTE   W02
        BYTE                   48
        BYTE   W01
        BYTE                   49
        BYTE   W02
        BYTE                   50
        BYTE   W01
        BYTE                   52
        BYTE   W02
        BYTE                   54
        BYTE   W01
        BYTE                   55
        BYTE   W02
        BYTE                   58
        BYTE   W03
// 012   ----------------------------------------
        BYTE   W96
// 013   ----------------------------------------
        BYTE   W96
// 014   ----------------------------------------
        BYTE   W96
// 015   ----------------------------------------
        BYTE   PATT
         POIN2  TheProudCommander_5_3
// 016   ----------------------------------------
        BYTE   PATT
         POIN2  TheProudCommander_5_1
// 017   ----------------------------------------
        BYTE   PATT
         POIN2  TheProudCommander_5_2
// 018   ----------------------------------------
        BYTE   W96
// 019   ----------------------------------------
        BYTE   W48
        BYTE           N11     Cs4   v127
        BYTE   W12
        BYTE                   Cn4
        BYTE   W12
        BYTE           N03     Cn4   v042
        BYTE   W24
// 020   ----------------------------------------
        BYTE   W12
        BYTE                   Cn4   v122
        BYTE   W04
        BYTE                   Cs4   v113
        BYTE   W04
        BYTE                   Cn4   v127
        BYTE   W04
        BYTE           N11     Cs4
        BYTE   W12
        BYTE                   Cn4
        BYTE   W12
        BYTE           N03     Cn4   v042
        BYTE   W48
// 021   ----------------------------------------
        BYTE           N11     Cs4   v127
        BYTE   W12
        BYTE           N10     Cn4
        BYTE   W12
        BYTE           N03     Cn4   v042
        BYTE   W48
        BYTE           N11     Cs4   v127
        BYTE   W12
        BYTE                   Cn4
        BYTE   W12
// 022   ----------------------------------------
        BYTE           N03     Cn4   v042
        BYTE   W12
        BYTE           N11     Cn4   v127
        BYTE   W12
        BYTE                   Bn4   v079
        BYTE   W12
        BYTE           N03     Cn4   v113
        BYTE   W04
        BYTE                   Cs4   v117
        BYTE   W04
        BYTE                   Cn4   v127
        BYTE   W04
        BYTE   GoTo
         POIN2  TheProudCommander_5_LOOP
        BYTE   FINE

//****************** Track 6 (Midi-Chn.6) ******************//

TheProudCommander_6:
        BYTE   KEYSH   TheProudCommander_key+0
// 000   ----------------------------------------
TheProudCommander_6_LOOP:
        BYTE           VOICE   20
        BYTE   W96
// 001   ----------------------------------------
        BYTE   W96
// 002   ----------------------------------------
        BYTE   W24
        BYTE           VOL     0
        BYTE   W01
        BYTE                   1
        BYTE   W02
        BYTE                   2
        BYTE   W01
        BYTE                   3
        BYTE   W02
        BYTE                   4
        BYTE   W01
        BYTE                   5
        BYTE   W02
        BYTE                   6
        BYTE   W01
        BYTE                   7
        BYTE   W03
        BYTE                   8
        BYTE   W02
        BYTE                   9
        BYTE   W01
        BYTE                   10
        BYTE   W02
        BYTE                   11
        BYTE   W01
        BYTE                   12
        BYTE   W02
        BYTE                   13
        BYTE   W01
        BYTE                   14
        BYTE   W02
        BYTE                   15
        BYTE   W01
        BYTE                   16
        BYTE   W02
        BYTE                   17
        BYTE   W01
        BYTE                   18
        BYTE   W02
        BYTE                   19
        BYTE   W01
        BYTE                   20
        BYTE   W02
        BYTE                   21
        BYTE   W03
        BYTE                   22
        BYTE   W01
        BYTE                   23
        BYTE   W02
        BYTE                   24
        BYTE   W01
        BYTE                   25
        BYTE   W02
        BYTE                   26
        BYTE   W01
        BYTE                   27
        BYTE   W02
        BYTE                   28
        BYTE   W01
        BYTE                   29
        BYTE   W02
        BYTE                   30
        BYTE   W01
        BYTE                   31
        BYTE   W02
        BYTE                   32
        BYTE   W01
        BYTE                   33
        BYTE   W02
        BYTE                   34
        BYTE   W01
        BYTE                   35
        BYTE   W02
        BYTE                   36
        BYTE   W01
        BYTE                   37
        BYTE   W02
        BYTE                   38
        BYTE   W01
        BYTE                   39
        BYTE   W02
        BYTE                   40
        BYTE   W03
        BYTE                   42
        BYTE   W06
// 003   ----------------------------------------
        BYTE   W96
// 004   ----------------------------------------
        BYTE   W96
// 005   ----------------------------------------
        BYTE   W96
// 006   ----------------------------------------
        BYTE   W96
// 007   ----------------------------------------
        BYTE   W96
// 008   ----------------------------------------
        BYTE   W96
// 009   ----------------------------------------
        BYTE   W96
// 010   ----------------------------------------
        BYTE   W96
// 011   ----------------------------------------
        BYTE   W24
        BYTE           PAN     c_v-15
        BYTE           VOL     55
        BYTE   W24
        BYTE           N23     Ds3   v090
        BYTE           N23     Gs3   v086
        BYTE   W24
        BYTE                   Fn3   v102
        BYTE           N23     As3   v113
        BYTE   W24
// 012   ----------------------------------------
        BYTE           N68     Gs3   v108   gtp3
        BYTE           N68     Cn4   v117   gtp1
        BYTE   W23
        BYTE           VOL     54
        BYTE   W11
        BYTE                   53
        BYTE   W15
        BYTE                   52
        BYTE   W12
        BYTE                   51
        BYTE   W08
        BYTE                   50
        BYTE   W03
        BYTE           N68     Fn3   v091   gtp3
        BYTE                   Gn3   v104
        BYTE           N68     Ds4   v113   gtp3
        BYTE   W08
        BYTE           VOL     49
        BYTE   W12
        BYTE                   48
        BYTE   W04
// 013   ----------------------------------------
        BYTE   W04
        BYTE                   47
        BYTE   W03
        BYTE                   46
        BYTE   W12
        BYTE                   45
        BYTE   W04
        BYTE                   44
        BYTE   W07
        BYTE                   43
        BYTE   W08
        BYTE                   42
        BYTE   W04
        BYTE                   41
        BYTE   W04
        BYTE                   40
        BYTE   W02
        BYTE           N68     Fs3   v095   gtp3
        BYTE           N68     Ds4   v091   gtp2
        BYTE           N66     Fn4   v104
        BYTE   W14
        BYTE           VOL     41
        BYTE   W16
        BYTE                   42
        BYTE   W12
        BYTE                   43
        BYTE   W06
// 014   ----------------------------------------
        BYTE   W10
        BYTE                   44
        BYTE   W07
        BYTE                   45
        BYTE   W07
        BYTE           N66     Fs3   v091   gtp1
        BYTE           N66     Bn3
        BYTE           N48     Ds4   v091   gtp2
        BYTE   W05
        BYTE           VOL     46
        BYTE   W12
        BYTE                   47
        BYTE   W04
        BYTE                   48
        BYTE   W08
        BYTE                   49
        BYTE   W08
        BYTE                   50
        BYTE   W07
        BYTE                   51
        BYTE   W04
        BYTE           N23     Cs4   v095
        BYTE           VOL     52
        BYTE   W04
        BYTE                   53
        BYTE   W08
        BYTE                   54
        BYTE   W04
        BYTE                   55
        BYTE   W08
// 015   ----------------------------------------
        BYTE           N60     Fs3   v095   gtp1
        BYTE   W09
        BYTE           VOL     54
        BYTE   W12
        BYTE                   53
        BYTE   W16
        BYTE                   52
        BYTE   W12
        BYTE                   51
        BYTE   W12
        BYTE                   50
        BYTE   W05
        BYTE           N05
        BYTE   W03
        BYTE           VOL     49
        BYTE   W03
        BYTE           N68     En3   v095   gtp2
        BYTE   W09
        BYTE           VOL     48
        BYTE   W08
        BYTE                   47
        BYTE   W07
// 016   ----------------------------------------
        BYTE   W01
        BYTE                   46
        BYTE   W08
        BYTE                   45
        BYTE   W08
        BYTE                   44
        BYTE   W04
        BYTE                   43
        BYTE   W09
        BYTE                   42
        BYTE   W08
        BYTE                   41
        BYTE   W04
        BYTE                   40
        BYTE   W04
        BYTE                   39
        BYTE   W02
        BYTE           N68     Fs3   v095   gtp3
        BYTE   W12
        BYTE           VOL     40
        BYTE   W10
        BYTE                   41
        BYTE   W11
        BYTE                   42
        BYTE   W10
        BYTE                   43
        BYTE   W05
// 017   ----------------------------------------
        BYTE   W09
        BYTE                   44
        BYTE   W07
        BYTE                   45
        BYTE   W07
        BYTE                   46
        BYTE   W01
        BYTE           N20     En3
        BYTE   W09
        BYTE           VOL     47
        BYTE   W07
        BYTE                   48
        BYTE   W03
        BYTE                   49
        BYTE   W05
        BYTE           N44     An3
        BYTE   W06
        BYTE           VOL     50
        BYTE   W03
        BYTE                   51
        BYTE   W07
        BYTE                   52
        BYTE   W04
        BYTE                   53
        BYTE   W07
        BYTE                   54
        BYTE   W03
        BYTE                   55
        BYTE   W18
// 018   ----------------------------------------
        BYTE           N68     Gn3   v091   gtp3
        BYTE                   Cn4   v106
        BYTE   W10
        BYTE           VOL     54
        BYTE   W09
        BYTE                   53
        BYTE   W09
        BYTE                   52
        BYTE   W06
        BYTE                   51
        BYTE   W06
        BYTE                   50
        BYTE   W03
        BYTE                   49
        BYTE   W06
        BYTE                   48
        BYTE   W06
        BYTE                   47
        BYTE   W03
        BYTE                   46
        BYTE   W03
        BYTE                   45
        BYTE   W03
        BYTE                   44
        BYTE   W03
        BYTE                   43
        BYTE   W03
        BYTE                   42
        BYTE   W02
        BYTE                   41
        BYTE           N23     Gn3   v102
        BYTE           N68     Dn4   v107   gtp3
        BYTE   W09
        BYTE           VOL     42
        BYTE   W09
        BYTE                   43
        BYTE   W06
// 019   ----------------------------------------
        BYTE           N23     An3   v104
        BYTE   W03
        BYTE           VOL     44
        BYTE   W06
        BYTE                   45
        BYTE   W03
        BYTE                   46
        BYTE   W06
        BYTE                   47
        BYTE   W03
        BYTE                   48
        BYTE   W03
        BYTE                   49
        BYTE           N23     Dn3
        BYTE   W06
        BYTE           VOL     50
        BYTE   W03
        BYTE                   52
        BYTE   W03
        BYTE                   53
        BYTE   W03
        BYTE                   54
        BYTE   W01
        BYTE                   55
        BYTE   W08
        BYTE           N68     Ds3   v095   gtp2
        BYTE                   Gs3
        BYTE           N68     Cs4   v095   gtp2
        BYTE   W48
// 020   ----------------------------------------
        BYTE   W10
        BYTE           VOL     54
        BYTE   W12
        BYTE                   53
        BYTE   W02
        BYTE           N68     Ds3   v095   gtp2
        BYTE                   Fs3
        BYTE           N68     Bn3   v095   gtp2
        BYTE   W10
        BYTE           VOL     52
        BYTE   W09
        BYTE                   51
        BYTE   W06
        BYTE                   50
        BYTE   W06
        BYTE                   49
        BYTE   W09
        BYTE                   48
        BYTE   W03
        BYTE                   47
        BYTE   W06
        BYTE                   46
        BYTE   W06
        BYTE                   45
        BYTE   W03
        BYTE                   44
        BYTE   W03
        BYTE                   43
        BYTE   W06
        BYTE                   42
        BYTE   W03
        BYTE                   40
        BYTE   W02
// 021   ----------------------------------------
        BYTE           N68     Cs3   v095   gtp2
        BYTE                   Ds3
        BYTE           N68     As3   v095   gtp2
        BYTE   W06
        BYTE           VOL     41
        BYTE   W16
        BYTE                   42
        BYTE   W11
        BYTE                   43
        BYTE   W16
        BYTE                   44
        BYTE   W12
        BYTE                   45
        BYTE   W08
        BYTE                   46
        BYTE   W03
        BYTE           N68     Ds3   v095   gtp2
        BYTE                   Gs3
        BYTE           N68     Bn3   v095   gtp2
        BYTE   W09
        BYTE           VOL     47
        BYTE   W08
        BYTE                   48
        BYTE   W07
// 022   ----------------------------------------
        BYTE   W01
        BYTE                   49
        BYTE   W08
        BYTE                   50
        BYTE   W07
        BYTE                   51
        BYTE   W04
        BYTE                   52
        BYTE   W04
        BYTE                   53
        BYTE   W08
        BYTE                   54
        BYTE   W04
        BYTE                   55
        BYTE   W12
        BYTE                   100
        BYTE           PAN     c_v+0
        BYTE   GoTo
         POIN2  TheProudCommander_6_LOOP
        BYTE   FINE

//****************** Track 7 (Midi-Chn.7) ******************//

TheProudCommander_7:
        BYTE   KEYSH   TheProudCommander_key+0
// 000   ----------------------------------------
TheProudCommander_7_LOOP:
        BYTE           VOICE   109
        BYTE   W96
// 001   ----------------------------------------
        BYTE   W96
// 002   ----------------------------------------
        BYTE   W90
        BYTE           PAN     c_v+63
        BYTE           VOL     33
        BYTE   W06
// 003   ----------------------------------------
        BYTE           PAN     c_v+9
        BYTE           VOL     36
        BYTE           N68     Gs2   v100   gtp2
        BYTE                   Ds3   v087
        BYTE   W12
        BYTE           VOL     37
        BYTE   W10
        BYTE                   38
        BYTE   W15
        BYTE                   39
        BYTE   W07
        BYTE                   40
        BYTE   W09
        BYTE                   41
        BYTE   W10
        BYTE                   42
        BYTE   W06
        BYTE                   43
        BYTE   W03
        BYTE           N44     Gs2   v087   gtp2
        BYTE                   Fs3   v100
        BYTE   W06
        BYTE           VOL     44
        BYTE   W07
        BYTE                   45
        BYTE   W09
        BYTE                   46
        BYTE   W02
// 004   ----------------------------------------
        BYTE   W01
        BYTE                   47
        BYTE   W06
        BYTE                   48
        BYTE   W07
        BYTE                   49
        BYTE   W03
        BYTE                   50
        BYTE   W06
        BYTE                   51
        BYTE   W01
        BYTE           N22     Gs2
        BYTE           N22     Fn3   v108
        BYTE   W02
        BYTE           VOL     52
        BYTE   W04
        BYTE                   53
        BYTE   W18
        BYTE           N68     Gs2   v100   gtp2
        BYTE           N22     En3   v108
        BYTE   W19
        BYTE           VOL     52
        BYTE   W05
        BYTE           N44     Ds3   v100   gtp2
        BYTE   W09
        BYTE           VOL     51
        BYTE   W10
        BYTE                   50
        BYTE   W05
// 005   ----------------------------------------
        BYTE   W13
        BYTE                   49
        BYTE   W07
        BYTE                   48
        BYTE   W04
        BYTE           N44     Gs2   v100   gtp2
        BYTE                   Ds3
        BYTE   W10
        BYTE           VOL     47
        BYTE   W07
        BYTE                   46
        BYTE   W07
        BYTE                   45
        BYTE   W10
        BYTE                   44
        BYTE   W04
        BYTE                   43
        BYTE   W10
        BYTE           N22     Gs2
        BYTE           N22     Cs3   v091
        BYTE           VOL     42
        BYTE   W04
        BYTE                   41
        BYTE   W07
        BYTE                   40
        BYTE   W03
        BYTE                   39
        BYTE   W04
        BYTE                   38
        BYTE   W04
        BYTE                   37
        BYTE   W02
// 006   ----------------------------------------
        BYTE           N68     Gs2   v100   gtp2
        BYTE                   Ds3   v087
        BYTE   W05
        BYTE           VOL     38
        BYTE   W23
        BYTE                   39
        BYTE   W11
        BYTE                   40
        BYTE   W12
        BYTE                   41
        BYTE   W11
        BYTE                   42
        BYTE   W10
        BYTE           N44     Gs2   v087   gtp2
        BYTE                   Fs3   v100
        BYTE   W01
        BYTE           VOL     43
        BYTE   W12
        BYTE                   44
        BYTE   W07
        BYTE                   45
        BYTE   W04
// 007   ----------------------------------------
        BYTE   W04
        BYTE                   46
        BYTE   W07
        BYTE                   47
        BYTE   W04
        BYTE                   48
        BYTE   W08
        BYTE                   49
        BYTE   W01
        BYTE           N22     Gs2
        BYTE           N22     Fn3   v108
        BYTE   W06
        BYTE           VOL     50
        BYTE   W04
        BYTE                   51
        BYTE   W08
        BYTE                   53
        BYTE   W06
        BYTE           N68     Gs2   v100   gtp2
        BYTE           N22     En3   v108
        BYTE   W24
        BYTE           N44     Ds3   v100   gtp2
        BYTE   W01
        BYTE           VOL     52
        BYTE   W09
        BYTE                   51
        BYTE   W09
        BYTE                   50
        BYTE   W05
// 008   ----------------------------------------
        BYTE   W08
        BYTE                   49
        BYTE   W08
        BYTE                   48
        BYTE   W08
        BYTE           N44     Gs2   v100   gtp2
        BYTE           N22     Cs3
        BYTE   W05
        BYTE           VOL     47
        BYTE   W09
        BYTE                   46
        BYTE   W09
        BYTE                   45
        BYTE   W01
        BYTE           N22     En3
        BYTE   W12
        BYTE           VOL     44
        BYTE   W08
        BYTE                   43
        BYTE   W04
        BYTE           N22     Gs2
        BYTE           N22     Gs3
        BYTE   W09
        BYTE           VOL     42
        BYTE   W09
        BYTE                   41
        BYTE   W06
// 009   ----------------------------------------
        BYTE           N68     Gs2   v100   gtp2
        BYTE   W06
        BYTE           N02     Gs3   v111
        BYTE   W03
        BYTE                   Gs3   v051
        BYTE   W03
        BYTE                   Cs3   v111
        BYTE   W03
        BYTE                   Cs3   v051
        BYTE   W03
        BYTE                   Ds3   v111
        BYTE   W03
        BYTE                   Ds3   v051
        BYTE   W03
        BYTE                   As3   v111
        BYTE   W03
        BYTE                   As3   v051
        BYTE   W03
        BYTE                   Ds3   v111
        BYTE   W03
        BYTE                   Ds3   v051
        BYTE   W03
        BYTE                   Cs3   v111
        BYTE   W03
        BYTE                   Cs3   v051
        BYTE   W03
        BYTE                   Ds3   v111
        BYTE   W03
        BYTE                   Ds3   v051
        BYTE   W03
        BYTE                   Gs3   v111
        BYTE   W03
        BYTE                   Gs3   v051
        BYTE   W03
        BYTE                   Ds3   v111
        BYTE   W03
        BYTE                   Ds3   v051
        BYTE   W03
        BYTE                   As3   v111
        BYTE   W03
        BYTE                   As3   v051
        BYTE   W03
        BYTE                   Cs4   v111
        BYTE   W02
        BYTE           VOL     42
        BYTE   W01
        BYTE           N02     Cs4   v051
        BYTE   W03
        BYTE           N44     Gs2   v100   gtp2
        BYTE           N02     Bn3   v111
        BYTE   W03
        BYTE                   Bn3   v051
        BYTE   W03
        BYTE                   Ds3   v111
        BYTE   W03
        BYTE                   Ds3   v051
        BYTE   W03
        BYTE                   Gs3   v111
        BYTE   W03
        BYTE                   Gs3   v051
        BYTE           VOL     43
        BYTE   W03
        BYTE           N02     Cs3   v111
        BYTE   W03
        BYTE                   Cs3   v051
        BYTE   W03
// 010   ----------------------------------------
        BYTE                   Ds3   v111
        BYTE   W03
        BYTE                   Ds3   v051
        BYTE   W03
        BYTE                   As3   v111
        BYTE   W03
        BYTE                   As3   v051
        BYTE   W03
        BYTE                   Gs3   v111
        BYTE   W03
        BYTE                   Gs3   v051
        BYTE   W01
        BYTE           VOL     44
        BYTE   W02
        BYTE           N02     Ds3   v111
        BYTE   W03
        BYTE                   Ds3   v051
        BYTE   W03
        BYTE           N21     Gs2   v100
        BYTE   W05
        BYTE           VOL     45
        BYTE   W01
        BYTE           N02     Cs3   v111
        BYTE   W03
        BYTE                   Cs3   v051
        BYTE   W03
        BYTE                   Ds3   v111
        BYTE   W03
        BYTE                   Ds3   v051
        BYTE   W03
        BYTE                   Fs3   v111
        BYTE   W03
        BYTE                   Fs3   v051
        BYTE   W03
        BYTE           N68     Gs2   v100   gtp2
        BYTE           VOL     46
        BYTE   W06
        BYTE           N02     Gs3   v111
        BYTE   W03
        BYTE                   Gs3   v051
        BYTE   W03
        BYTE                   Cs3   v111
        BYTE   W01
        BYTE           VOL     47
        BYTE   W02
        BYTE           N02     Cs3   v051
        BYTE   W03
        BYTE                   Ds3   v111
        BYTE   W03
        BYTE                   Ds3   v051
        BYTE   W03
        BYTE                   As3   v111
        BYTE   W02
        BYTE           VOL     48
        BYTE   W01
        BYTE           N02     As3   v051
        BYTE   W03
        BYTE                   Ds3   v111
        BYTE   W03
        BYTE                   Ds3   v051
        BYTE   W03
        BYTE                   Cs3   v111
        BYTE   W02
        BYTE           VOL     49
        BYTE   W01
        BYTE           N02     Cs3   v051
        BYTE   W03
        BYTE                   Ds3   v111
        BYTE   W03
        BYTE                   Ds3   v051
        BYTE   W03
// 011   ----------------------------------------
        BYTE                   Gs3   v111
        BYTE   W03
        BYTE                   Gs3   v051
        BYTE           VOL     50
        BYTE   W03
        BYTE           N02     Ds3   v111
        BYTE   W03
        BYTE                   Ds3   v051
        BYTE           VOL     51
        BYTE   W03
        BYTE           N02     As3   v111
        BYTE   W03
        BYTE                   As3   v051
        BYTE   W03
        BYTE                   Cs4   v111
        BYTE   W03
        BYTE                   Cs4   v051
        BYTE   W01
        BYTE           VOL     53
        BYTE   W02
        BYTE           N21     Gs2   v100
        BYTE           N02     Bn3   v111
        BYTE   W03
        BYTE                   Bn3   v051
        BYTE   W03
        BYTE                   Ds3   v111
        BYTE   W03
        BYTE                   Ds3   v051
        BYTE   W03
        BYTE                   Gs3   v111
        BYTE   W03
        BYTE                   Gs3   v051
        BYTE   W03
        BYTE                   Cs3   v111
        BYTE   W03
        BYTE                   Cs3   v051
        BYTE   W03
        BYTE                   Ds3   v126
        BYTE   W03
        BYTE                   Ds3   v050
        BYTE   W03
        BYTE                   Gs3   v126
        BYTE   W03
        BYTE                   Gs3   v050
        BYTE   W03
        BYTE                   Cs3   v126
        BYTE   W03
        BYTE                   Cs3   v050
        BYTE   W03
        BYTE                   Ds3   v126
        BYTE   W03
        BYTE                   Ds3   v050
        BYTE   W03
        BYTE                   As3   v126
        BYTE   W03
        BYTE                   As3   v050
        BYTE   W03
        BYTE                   Ds3   v126
        BYTE   W03
        BYTE                   Ds3   v050
        BYTE   W03
        BYTE                   Fn3   v126
        BYTE   W03
        BYTE                   Fn3   v050
        BYTE   W03
        BYTE                   Cn4   v126
        BYTE   W03
        BYTE                   Cn4   v050
        BYTE   W03
// 012   ----------------------------------------
        BYTE   W96
// 013   ----------------------------------------
        BYTE   W96
// 014   ----------------------------------------
        BYTE   W24
        BYTE           PAN     c_v+0
        BYTE           VOL     0
        BYTE   W01
        BYTE                   1
        BYTE   W02
        BYTE                   2
        BYTE   W01
        BYTE                   3
        BYTE   W02
        BYTE                   4
        BYTE   W01
        BYTE                   5
        BYTE   W02
        BYTE                   6
        BYTE   W01
        BYTE                   7
        BYTE   W03
        BYTE                   8
        BYTE   W02
        BYTE                   9
        BYTE   W01
        BYTE                   10
        BYTE   W02
        BYTE                   11
        BYTE   W01
        BYTE                   12
        BYTE   W02
        BYTE                   13
        BYTE   W01
        BYTE                   14
        BYTE   W02
        BYTE                   15
        BYTE   W01
        BYTE                   16
        BYTE   W02
        BYTE                   17
        BYTE   W01
        BYTE                   18
        BYTE   W02
        BYTE                   19
        BYTE   W01
        BYTE                   20
        BYTE   W02
        BYTE                   21
        BYTE   W03
        BYTE                   22
        BYTE   W01
        BYTE                   23
        BYTE   W02
        BYTE                   24
        BYTE   W01
        BYTE                   25
        BYTE   W02
        BYTE                   26
        BYTE   W01
        BYTE                   27
        BYTE   W02
        BYTE                   28
        BYTE   W01
        BYTE                   29
        BYTE   W02
        BYTE                   30
        BYTE   W01
        BYTE                   31
        BYTE   W02
        BYTE                   32
        BYTE   W01
        BYTE                   33
        BYTE   W02
        BYTE                   34
        BYTE   W01
        BYTE                   35
        BYTE   W02
        BYTE                   36
        BYTE   W01
        BYTE                   37
        BYTE   W02
        BYTE                   38
        BYTE   W01
        BYTE                   39
        BYTE   W02
        BYTE                   40
        BYTE   W03
        BYTE                   42
        BYTE   W06
// 015   ----------------------------------------
        BYTE   W96
// 016   ----------------------------------------
        BYTE   W96
// 017   ----------------------------------------
        BYTE   W24
        BYTE           PAN     c_v+9
        BYTE           VOL     53
        BYTE           N02     Dn3   v069
        BYTE   W03
        BYTE                   Dn3   v030
        BYTE   W03
        BYTE                   En3   v070
        BYTE   W03
        BYTE                   En3   v030
        BYTE   W03
        BYTE                   An3   v071
        BYTE   W03
        BYTE                   An3   v031
        BYTE   W03
        BYTE                   En3   v073
        BYTE   W03
        BYTE                   En3   v031
        BYTE   W03
        BYTE                   Fs3   v074
        BYTE   W03
        BYTE                   Fs3   v032
        BYTE   W03
        BYTE                   An3   v075
        BYTE   W03
        BYTE                   An3   v032
        BYTE   W03
        BYTE                   Gn3   v076
        BYTE   W03
        BYTE                   Gn3   v033
        BYTE   W03
        BYTE                   Bn3   v078
        BYTE   W03
        BYTE                   Bn3   v033
        BYTE   W03
        BYTE                   Dn4   v079
        BYTE   W03
        BYTE                   Dn4   v034
        BYTE   W03
        BYTE                   Gn3   v080
        BYTE   W03
        BYTE                   Gn3   v034
        BYTE   W03
        BYTE                   An3   v081
        BYTE   W03
        BYTE                   An3   v034
        BYTE   W03
        BYTE                   En4   v083
        BYTE   W03
        BYTE                   En4   v035
        BYTE   W03
// 018   ----------------------------------------
        BYTE                   Dn3   v084
        BYTE   W03
        BYTE                   Dn3   v036
        BYTE   W03
        BYTE                   En3   v085
        BYTE   W03
        BYTE                   En3   v036
        BYTE   W03
        BYTE                   An3   v086
        BYTE   W03
        BYTE                   An3   v036
        BYTE   W03
        BYTE                   En3   v088
        BYTE   W03
        BYTE                   En3   v037
        BYTE   W03
        BYTE                   Fs3   v089
        BYTE   W03
        BYTE                   Fs3   v038
        BYTE   W03
        BYTE                   Bn3   v090
        BYTE   W03
        BYTE                   Bn3   v038
        BYTE   W03
        BYTE                   An3   v092
        BYTE   W03
        BYTE                   An3   v039
        BYTE   W03
        BYTE                   Bn3   v093
        BYTE   W03
        BYTE                   Bn3   v039
        BYTE   W03
        BYTE                   En4   v094
        BYTE   W03
        BYTE                   En4   v039
        BYTE   W03
        BYTE                   An3   v095
        BYTE   W03
        BYTE                   An3   v040
        BYTE   W03
        BYTE                   Bn3   v097
        BYTE   W03
        BYTE                   Bn3   v041
        BYTE   W03
        BYTE                   Fs4   v098
        BYTE   W03
        BYTE                   Fs4   v041
        BYTE   W03
        BYTE                   En3   v099
        BYTE   W03
        BYTE                   En3   v041
        BYTE   W03
        BYTE                   Fs3   v100
        BYTE   W03
        BYTE                   Fs3   v042
        BYTE   W03
        BYTE                   Bn3   v102
        BYTE   W03
        BYTE                   Bn3   v043
        BYTE   W03
        BYTE                   An3   v103
        BYTE   W03
        BYTE                   An3   v043
        BYTE   W03
// 019   ----------------------------------------
        BYTE                   Bn3   v104
        BYTE   W03
        BYTE                   Bn3   v043
        BYTE   W03
        BYTE                   En4   v105
        BYTE   W03
        BYTE                   En4   v044
        BYTE   W03
        BYTE                   An3   v107
        BYTE   W03
        BYTE                   An3   v044
        BYTE   W03
        BYTE                   Bn3   v108
        BYTE   W03
        BYTE                   Bn3   v045
        BYTE   W03
        BYTE                   Fs4   v109
        BYTE   W03
        BYTE                   Fs4   v045
        BYTE   W03
        BYTE                   Bn3   v111
        BYTE   W03
        BYTE                   Bn3   v046
        BYTE   W03
        BYTE                   Cs4   v111
        BYTE   W03
        BYTE                   Cs4   v046
        BYTE   W03
        BYTE                   Fs4   v111
        BYTE   W03
        BYTE                   Fs4   v046
        BYTE   W48
        BYTE   W03
// 020   ----------------------------------------
        BYTE   W96
// 021   ----------------------------------------
        BYTE   W72
        BYTE           VOICE   5
        BYTE           PAN     c_v+0
        BYTE           VOL     0
        BYTE   W01
        BYTE                   1
        BYTE   W02
        BYTE                   2
        BYTE   W01
        BYTE                   3
        BYTE   W02
        BYTE                   4
        BYTE   W01
        BYTE                   5
        BYTE   W02
        BYTE                   6
        BYTE   W01
        BYTE                   7
        BYTE   W03
        BYTE                   8
        BYTE   W02
        BYTE                   9
        BYTE   W01
        BYTE                   10
        BYTE   W02
        BYTE                   11
        BYTE   W01
        BYTE                   12
        BYTE   W02
        BYTE                   13
        BYTE   W01
        BYTE                   14
        BYTE   W01
        BYTE           N48     En3   v101
        BYTE   W01
// 022   ----------------------------------------
        BYTE           VOL     15
        BYTE   W01
        BYTE                   16
        BYTE   W02
        BYTE                   17
        BYTE   W01
        BYTE                   18
        BYTE   W02
        BYTE                   19
        BYTE   W01
        BYTE                   20
        BYTE   W02
        BYTE                   21
        BYTE   W03
        BYTE                   22
        BYTE   W01
        BYTE                   23
        BYTE   W02
        BYTE                   24
        BYTE   W01
        BYTE                   25
        BYTE   W02
        BYTE                   26
        BYTE   W01
        BYTE                   27
        BYTE   W02
        BYTE                   28
        BYTE   W01
        BYTE                   29
        BYTE   W02
        BYTE                   30
        BYTE   W01
        BYTE                   31
        BYTE   W02
        BYTE                   32
        BYTE   W01
        BYTE                   33
        BYTE   W02
        BYTE                   34
        BYTE   W01
        BYTE                   35
        BYTE   W02
        BYTE                   36
        BYTE   W01
        BYTE                   37
        BYTE   W02
        BYTE                   38
        BYTE   W01
        BYTE                   39
        BYTE   W02
        BYTE                   40
        BYTE   W03
        BYTE                   42
        BYTE   W06
        BYTE           VOICE   109
        BYTE           VOL     100
        BYTE   GoTo
         POIN2  TheProudCommander_7_LOOP
        BYTE   FINE

//****************** Track 8 (Midi-Chn.8) ******************//

TheProudCommander_8:
        BYTE   KEYSH   TheProudCommander_key+0
// 000   ----------------------------------------
TheProudCommander_8_LOOP:
        BYTE           VOICE   121
        BYTE           N06     Cn1   v100
        BYTE   W12
        BYTE                   Cn1
        BYTE   W12
        BYTE           N12     Dn1
        BYTE   W12
        BYTE           N06     Cs1
        BYTE   W06
        BYTE           N12     Dn1
        BYTE   W12
        BYTE           N06     As1
        BYTE   W06
        BYTE                   Fn1
        BYTE   W12
        BYTE                   Cn1
        BYTE   W12
        BYTE                   Cn1
        BYTE   W12
// 001   ----------------------------------------
TheProudCommander_8_1:
        BYTE           N12     Dn1   v100
        BYTE   W12
        BYTE           N06     Cs1
        BYTE   W06
        BYTE           N12     Dn1
        BYTE   W24
        BYTE           N06     As1
        BYTE   W06
        BYTE                   Cn1
        BYTE   W12
        BYTE                   Cn1
        BYTE   W12
        BYTE           N12     Dn1
        BYTE   W12
        BYTE           N06     Cs1
        BYTE   W06
        BYTE           N12     Dn1
        BYTE   W06
        BYTE   PEND
// 002   ----------------------------------------
        BYTE   W06
        BYTE           N06     As1
        BYTE   W06
        BYTE                   Fn1
        BYTE   W12
        BYTE                   Cn1
        BYTE   W12
        BYTE                   Cn1
        BYTE   W12
        BYTE           N48     En2
        BYTE           N12     Dn1
        BYTE   W12
        BYTE           N06     Cs1
        BYTE   W06
        BYTE           N12     Dn1
        BYTE   W24
        BYTE           N06     As1
        BYTE   W06
// 003   ----------------------------------------
TheProudCommander_8_3:
        BYTE           N06     Cn1   v100
        BYTE   W12
        BYTE                   Cn1
        BYTE   W12
        BYTE           N12     Dn1
        BYTE   W12
        BYTE           N06     Cs1
        BYTE   W06
        BYTE           N12     Dn1
        BYTE   W12
        BYTE           N06     As1
        BYTE   W06
        BYTE                   Fn1
        BYTE   W12
        BYTE                   Cn1
        BYTE   W12
        BYTE                   Cn1
        BYTE   W12
        BYTE   PEND
// 004   ----------------------------------------
        BYTE   PATT
         POIN2  TheProudCommander_8_1
// 005   ----------------------------------------
TheProudCommander_8_5:
        BYTE   W06
        BYTE           N06     As1   v100
        BYTE   W06
        BYTE                   Fn1
        BYTE   W12
        BYTE                   Cn1
        BYTE   W12
        BYTE                   Cn1
        BYTE   W12
        BYTE           N12     Dn1
        BYTE   W12
        BYTE           N06     Cs1
        BYTE   W06
        BYTE           N12     Dn1
        BYTE   W24
        BYTE           N06     As1
        BYTE   W06
        BYTE   PEND
// 006   ----------------------------------------
        BYTE   PATT
         POIN2  TheProudCommander_8_3
// 007   ----------------------------------------
        BYTE   PATT
         POIN2  TheProudCommander_8_1
// 008   ----------------------------------------
        BYTE   W06
        BYTE           N06     As1   v100
        BYTE   W06
        BYTE                   Fn1
        BYTE   W12
        BYTE                   Cn1
        BYTE   W12
        BYTE                   Cn1
        BYTE   W12
        BYTE           N12     Dn1
        BYTE   W12
        BYTE           N06     Cs1
        BYTE   W06
        BYTE           N12     Dn1
        BYTE   W18
        BYTE           N06
        BYTE   W06
        BYTE                   As1
        BYTE   W06
// 009   ----------------------------------------
        BYTE           VOL     58
        BYTE   W06
        BYTE           N06
        BYTE   W06
        BYTE                   Dn1
        BYTE   W12
        BYTE           N11     Fn1   v106
        BYTE   W12
        BYTE           N05     Gn1
        BYTE   W06
        BYTE                   Fn1
        BYTE   W06
        BYTE           N11     Gn1
        BYTE   W12
        BYTE                   Fn1
        BYTE   W24
        BYTE           N05
        BYTE   W12
// 010   ----------------------------------------
        BYTE                   Fn1
        BYTE   W12
        BYTE                   Cn2
        BYTE   W06
        BYTE                   An1
        BYTE   W06
        BYTE                   Gn1
        BYTE   W06
        BYTE                   Fn1
        BYTE   W06
        BYTE                   Gn1
        BYTE   W06
        BYTE                   Fn1
        BYTE   W18
        BYTE           N11
        BYTE   W12
        BYTE           N05     Gn1
        BYTE   W06
        BYTE                   Fn1
        BYTE   W06
        BYTE           N11     Gn1
        BYTE   W12
// 011   ----------------------------------------
        BYTE                   Fn1
        BYTE   W12
        BYTE                   An1
        BYTE   W12
        BYTE                   Fn1
        BYTE   W36
        BYTE                   Fn1
        BYTE   W12
        BYTE           N05     Cn2
        BYTE   W06
        BYTE                   An1
        BYTE   W06
        BYTE           N03     Gn1
        BYTE   W04
        BYTE                   Fn1
        BYTE   W04
        BYTE                   Fn1
        BYTE   W04
// 012   ----------------------------------------
        BYTE           N04     En2   v083
        BYTE           N11     Dn1   v127
        BYTE   W12
        BYTE                   En1
        BYTE   W12
        BYTE           N05     An2   v099
        BYTE   W24
        BYTE                   An2   v094
        BYTE   W24
        BYTE           N04
        BYTE           N11     Dn1   v127
        BYTE   W12
        BYTE                   En1
        BYTE   W12
// 013   ----------------------------------------
        BYTE           N03     An2   v087
        BYTE   W24
        BYTE                   An2   v080
        BYTE           N11     Bn1   v110
        BYTE   W12
        BYTE           N05     Dn1   v127
        BYTE   W06
        BYTE                   En1
        BYTE   W06
        BYTE           N03     An2   v096
        BYTE           N11     Dn1   v127
        BYTE   W12
        BYTE                   En1
        BYTE   W12
        BYTE           N03     An2   v094
        BYTE   W24
// 014   ----------------------------------------
        BYTE           N02     An2   v090
        BYTE   W24
        BYTE           N03
        BYTE           N11     Dn1   v127
        BYTE   W12
        BYTE                   En1
        BYTE   W12
        BYTE           N03     An2   v071
        BYTE   W12
        BYTE                   An2   v096
        BYTE           N11     Dn2   v098
        BYTE   W12
        BYTE                   Bn1   v110
        BYTE   W12
        BYTE           N05     Dn1   v127
        BYTE   W06
        BYTE                   En1
        BYTE   W06
// 015   ----------------------------------------
        BYTE           N48     Cs2   v083
        BYTE           N11     Dn1   v127
        BYTE   W12
        BYTE                   En1
        BYTE   W12
        BYTE                   As1   v075
        BYTE   W12
        BYTE                   As1
        BYTE   W12
        BYTE                   As1
        BYTE   W12
        BYTE                   Gn1   v127
        BYTE   W12
        BYTE                   Dn1
        BYTE   W12
        BYTE                   En1
        BYTE   W12
// 016   ----------------------------------------
        BYTE                   As1   v075
        BYTE   W12
        BYTE           N05
        BYTE   W06
        BYTE                   As1   v056
        BYTE   W06
        BYTE           N11     As1   v075
        BYTE   W12
        BYTE           N05     Bn1   v110
        BYTE   W06
        BYTE                   En1   v127
        BYTE   W06
        BYTE           N11     Dn1
        BYTE   W12
        BYTE                   En1
        BYTE   W12
        BYTE                   As1   v075
        BYTE   W12
        BYTE                   As1
        BYTE   W12
// 017   ----------------------------------------
        BYTE                   As1
        BYTE   W12
        BYTE                   Gn1   v127
        BYTE   W12
        BYTE                   Dn1
        BYTE   W12
        BYTE                   En1
        BYTE   W12
        BYTE                   As1   v075
        BYTE   W12
        BYTE           N05
        BYTE   W06
        BYTE                   As1   v056
        BYTE   W06
        BYTE           N11     As1   v075
        BYTE   W12
        BYTE           N05     Bn1   v110
        BYTE   W06
        BYTE                   En1   v127
        BYTE   W06
// 018   ----------------------------------------
        BYTE           N11     Dn1
        BYTE   W12
        BYTE                   En1
        BYTE   W12
        BYTE                   As1   v075
        BYTE   W12
        BYTE                   As1
        BYTE   W12
        BYTE                   Bn1   v110
        BYTE   W12
        BYTE                   En1   v127
        BYTE   W12
        BYTE                   Bn1   v110
        BYTE   W12
        BYTE                   Dn2
        BYTE   W12
// 019   ----------------------------------------
        BYTE                   Dn1   v127
        BYTE   W12
        BYTE           N05     En3   v110
        BYTE   W06
        BYTE                   Bn1
        BYTE   W06
        BYTE                   Dn1   v127
        BYTE   W06
        BYTE                   Ds3   v110
        BYTE   W06
        BYTE           N03     Bn1
        BYTE   W04
        BYTE                   Dn2   v087
        BYTE   W04
        BYTE                   Bn1   v096
        BYTE   W04
        BYTE           N06     Cn1   v100
        BYTE   W12
        BYTE                   Cn1
        BYTE   W12
        BYTE           N12     Dn1
        BYTE   W12
        BYTE           N06     Cs1
        BYTE   W06
        BYTE           N12     Dn1
        BYTE   W06
// 020   ----------------------------------------
        BYTE   PATT
         POIN2  TheProudCommander_8_5
// 021   ----------------------------------------
        BYTE   PATT
         POIN2  TheProudCommander_8_3
// 022   ----------------------------------------
        BYTE           N12     Dn1   v100
        BYTE   W12
        BYTE           N06     Cs1
        BYTE   W06
        BYTE           N12     Dn1
        BYTE   W24
        BYTE           N06     As1
        BYTE   W06
        BYTE           VOL     100
        BYTE   GoTo
         POIN2  TheProudCommander_8_LOOP
        BYTE   FINE

//***************** Track 9 (Midi-Chn.10) ******************//

TheProudCommander_9:
        BYTE   KEYSH   TheProudCommander_key+0
// 000   ----------------------------------------
TheProudCommander_9_LOOP:
        BYTE           VOICE   41
        BYTE           VOL     37
        BYTE           N06     Gs4   v100
        BYTE   W12
        BYTE           N12     Gs2
        BYTE           N12     Gs1
        BYTE   W12
        BYTE                   Gs2
        BYTE           N12     Gs1
        BYTE   W12
        BYTE                   Gs2
        BYTE           N12     Gs1
        BYTE   W12
        BYTE                   Gs2
        BYTE           N12     Gs1
        BYTE   W12
        BYTE                   Gs4
        BYTE   W12
        BYTE           N06
        BYTE   W12
        BYTE           N12     Gs2
        BYTE           N12     Gs1
        BYTE   W12
// 001   ----------------------------------------
TheProudCommander_9_1:
        BYTE           N12     Gs2   v100
        BYTE           N12     Gs1
        BYTE   W12
        BYTE                   Gs2
        BYTE           N12     Gs1
        BYTE   W12
        BYTE                   Gs2
        BYTE           N12     Gs1
        BYTE   W12
        BYTE                   Gs2
        BYTE           N12     Gs1
        BYTE   W12
        BYTE           N06     Gs4
        BYTE   W12
        BYTE           N12     Gs2
        BYTE           N12     Gs1
        BYTE   W12
        BYTE                   Gs2
        BYTE           N12     Gs1
        BYTE   W12
        BYTE                   Gs2
        BYTE           N12     Gs1
        BYTE   W12
        BYTE   PEND
// 002   ----------------------------------------
TheProudCommander_9_2:
        BYTE           N12     Gs2   v100
        BYTE           N12     Gs1
        BYTE   W12
        BYTE                   Gs4
        BYTE   W12
        BYTE           N06
        BYTE   W12
        BYTE           N12     Gs2
        BYTE           N12     Gs1
        BYTE   W12
        BYTE                   Gs2
        BYTE           N12     Gs1
        BYTE   W12
        BYTE                   Gs2
        BYTE           N12     Gs1
        BYTE   W12
        BYTE                   Gs2
        BYTE           N12     Gs1
        BYTE   W12
        BYTE                   Gs2
        BYTE           N12     Gs1
        BYTE   W12
        BYTE   PEND
// 003   ----------------------------------------
TheProudCommander_9_3:
        BYTE           N06     Gs4   v100
        BYTE   W12
        BYTE           N12     Gs2
        BYTE           N12     Gs1
        BYTE   W12
        BYTE                   Gs2
        BYTE           N12     Gs1
        BYTE   W12
        BYTE                   Gs2
        BYTE           N12     Gs1
        BYTE   W12
        BYTE                   Gs2
        BYTE           N12     Gs1
        BYTE   W12
        BYTE                   Gs4
        BYTE   W12
        BYTE           N06
        BYTE   W12
        BYTE           N12     Gs2
        BYTE           N12     Gs1
        BYTE   W12
        BYTE   PEND
// 004   ----------------------------------------
        BYTE   PATT
         POIN2  TheProudCommander_9_1
// 005   ----------------------------------------
        BYTE   PATT
         POIN2  TheProudCommander_9_2
// 006   ----------------------------------------
        BYTE   PATT
         POIN2  TheProudCommander_9_3
// 007   ----------------------------------------
        BYTE   PATT
         POIN2  TheProudCommander_9_1
// 008   ----------------------------------------
        BYTE   PATT
         POIN2  TheProudCommander_9_2
// 009   ----------------------------------------
        BYTE   W96
// 010   ----------------------------------------
        BYTE   W96
// 011   ----------------------------------------
        BYTE   W96
// 012   ----------------------------------------
        BYTE   W96
// 013   ----------------------------------------
        BYTE   W96
// 014   ----------------------------------------
        BYTE   W96
// 015   ----------------------------------------
        BYTE   W96
// 016   ----------------------------------------
        BYTE   W96
// 017   ----------------------------------------
        BYTE   W96
// 018   ----------------------------------------
        BYTE           N12     Dn4   v100
        BYTE   W12
        BYTE                   En3
        BYTE           N12     En2
        BYTE   W12
        BYTE                   En3
        BYTE           N12     En2
        BYTE   W12
        BYTE                   En3
        BYTE           N12     En2
        BYTE   W12
        BYTE                   En3
        BYTE           N12     En2
        BYTE   W12
        BYTE                   Dn4
        BYTE   W12
        BYTE                   Cn4
        BYTE   W12
        BYTE                   En3
        BYTE           N12     En2
        BYTE   W12
// 019   ----------------------------------------
        BYTE                   En3
        BYTE           N12     En2
        BYTE   W12
        BYTE                   En3
        BYTE           N12     En2
        BYTE   W12
        BYTE                   En3
        BYTE           N12     En2
        BYTE   W12
        BYTE                   Fs3
        BYTE   W12
        BYTE           N06     Gs4
        BYTE           N12     Cn3
        BYTE   W12
        BYTE                   Gs2
        BYTE           N12     Gs1
        BYTE   W12
        BYTE                   Gs2
        BYTE           N12     Gs1
        BYTE   W12
        BYTE                   Gs2
        BYTE           N12     Gs1
        BYTE   W12
// 020   ----------------------------------------
        BYTE   PATT
         POIN2  TheProudCommander_9_2
// 021   ----------------------------------------
        BYTE   PATT
         POIN2  TheProudCommander_9_3
// 022   ----------------------------------------
        BYTE           N12     Gs2   v100
        BYTE           N12     Gs1
        BYTE   W12
        BYTE                   Gs2
        BYTE           N12     Gs1
        BYTE   W12
        BYTE                   Gs2
        BYTE           N12     Gs1
        BYTE   W12
        BYTE                   Gs2
        BYTE           N12     Gs1
        BYTE   W12
        BYTE   GoTo
         POIN2  TheProudCommander_9_LOOP
        BYTE   FINE


//********************** End of Song ***********************//

        ALIGN 4
TheProudCommander:
        BYTE   10                      // Num Tracks
        BYTE   0                       // Unknown
        BYTE   TheProudCommander_pri   // Priority
        BYTE   TheProudCommander_rev   // Reverb

        POIN2   TheProudCommander_grp  

        POIN2   TheProudCommander_0
        POIN2   TheProudCommander_1
        POIN2   TheProudCommander_2
        POIN2   TheProudCommander_3
        POIN2   TheProudCommander_4
        POIN2   TheProudCommander_5
        POIN2   TheProudCommander_6
        POIN2   TheProudCommander_7
        POIN2   TheProudCommander_8
        POIN2   TheProudCommander_9

        
