//Event file generated from Sappy .s format.
        #include "MPlayDef.event"

        #define    TitleTheme_grp  voicegroup000
        #define    TitleTheme_pri  0
        #define    TitleTheme_rev  0
        #define    TitleTheme_key  0

        // .rodata
        // TitleTheme
        ALIGN 4

//****************** Track 0 (Midi-Chn.0) ******************//

TitleTheme_0:
        BYTE   KEYSH   TitleTheme_key+0
// 000   ----------------------------------------
        BYTE   TEMPO   140/2
        BYTE           VOICE   0
        BYTE   W90
TitleTheme_0_LOOP:
        BYTE   W06
// 001   ----------------------------------------
        BYTE           PAN     c_v+17
        BYTE           VOL     64
        BYTE           N96     Cn2   v080
        BYTE           TIE     Cs1
        BYTE           TIE     Gs1
        BYTE           N96     Fn1
        BYTE   W96
// 002   ----------------------------------------
        BYTE                   Fn1
        BYTE           N96     As1
        BYTE           N96     As0
        BYTE   W96
// 003   ----------------------------------------
        BYTE           EOT     Gs1
        BYTE                   Cs1
        BYTE           N96     Cn2
        BYTE           N48     As0
        BYTE           N48     Fn1
        BYTE   W48
        BYTE                   As1
        BYTE           N48     As0
        BYTE           N48     Fn1
        BYTE   W48
// 004   ----------------------------------------
TitleTheme_0_4:
        BYTE           N96     Ds1   v080
        BYTE           N96     Ds2
        BYTE           N48     Cn2
        BYTE   W96
        BYTE   PEND
// 005   ----------------------------------------
        BYTE           N96
        BYTE           N48     As0
        BYTE           N48     Fn1
        BYTE   W48
        BYTE                   As1
        BYTE           N48     As0
        BYTE           N48     Fn1
        BYTE   W48
// 006   ----------------------------------------
        BYTE           N96     Ds2
        BYTE           N96     Ds1
        BYTE           N96     As1
        BYTE   W96
// 007   ----------------------------------------
TitleTheme_0_7:
        BYTE           N96     As1   v080
        BYTE           N96     Ds1
        BYTE   W96
        BYTE   PEND
// 008   ----------------------------------------
        BYTE                   Gs1
        BYTE   W96
// 009   ----------------------------------------
        BYTE                   Cn2
        BYTE           N96     Gs1
        BYTE           N96     Fn1
        BYTE           N96     Cs1
        BYTE   W96
// 010   ----------------------------------------
TitleTheme_0_10:
        BYTE           N96     Ds1   v080
        BYTE           N96     As1
        BYTE           N96     As0
        BYTE   W96
        BYTE   PEND
// 011   ----------------------------------------
TitleTheme_0_11:
        BYTE           N96     Cn2   v080
        BYTE           N48     Fn1
        BYTE           N48     As0
        BYTE   W48
        BYTE                   As1
        BYTE           N48     Fn1
        BYTE           N48     As0
        BYTE   W48
        BYTE   PEND
// 012   ----------------------------------------
        BYTE           N96     Ds2
        BYTE           N48     Cn2
        BYTE           N96     Ds1
        BYTE   W96
// 013   ----------------------------------------
        BYTE           N90     As1
        BYTE           N90     Ds1
        BYTE           N90     Cn1
        BYTE   W96
// 014   ----------------------------------------
        BYTE           N96     Gs1
        BYTE   W96
// 015   ----------------------------------------
        BYTE                   Gn1
        BYTE           N96     As0
        BYTE           N96     Ds1
        BYTE   W96
// 016   ----------------------------------------
TitleTheme_0_16:
        BYTE           N48     Gs1   v080
        BYTE   W48
        BYTE                   As1
        BYTE   W48
        BYTE   PEND
// 017   ----------------------------------------
        BYTE           TIE     Gs1
        BYTE           TIE     Fn1
        BYTE           TIE     Cs1
        BYTE           N96     Cn2
        BYTE   W96
// 018   ----------------------------------------
        BYTE                   As1
        BYTE           N96     As0
        BYTE   W96
// 019   ----------------------------------------
        BYTE           EOT     Cs1
        BYTE                   Fn1
        BYTE                   Gs1
        BYTE           N96     Cn2
        BYTE           N48     Fn1
        BYTE           N48     As0
        BYTE   W48
        BYTE                   Fn1
        BYTE           N48     As1
        BYTE           N48     As0
        BYTE   W48
// 020   ----------------------------------------
        BYTE   PATT
         POIN2  TitleTheme_0_4
// 021   ----------------------------------------
        BYTE   PATT
         POIN2  TitleTheme_0_11
// 022   ----------------------------------------
TitleTheme_0_22:
        BYTE           N96     Ds2   v080
        BYTE           N96     Ds1
        BYTE           N48     Cn2
        BYTE   W96
        BYTE   PEND
// 023   ----------------------------------------
        BYTE   PATT
         POIN2  TitleTheme_0_7
// 024   ----------------------------------------
        BYTE           N96     Gs1   v080
        BYTE   W96
// 025   ----------------------------------------
        BYTE                   Cn2
        BYTE           N96     Fn1
        BYTE           TIE     Gs1
        BYTE           TIE     Cs1
        BYTE   W96
// 026   ----------------------------------------
        BYTE   PATT
         POIN2  TitleTheme_0_10
// 027   ----------------------------------------
        BYTE           EOT     Cs1
        BYTE                   Gs1
        BYTE           N96     Cn2   v080
        BYTE           N48     Fn1
        BYTE           N48     As0
        BYTE   W48
        BYTE                   Fn1
        BYTE           N48     As1
        BYTE           N48     As0
        BYTE   W48
// 028   ----------------------------------------
        BYTE   PATT
         POIN2  TitleTheme_0_22
// 029   ----------------------------------------
        BYTE           N96     As1   v080
        BYTE           N96     Ds1
        BYTE           N96     Cn1
        BYTE   W96
// 030   ----------------------------------------
        BYTE                   Gs1
        BYTE   W96
// 031   ----------------------------------------
        BYTE                   Gn1
        BYTE           N96     Ds1
        BYTE           N96     As0
        BYTE   W96
// 032   ----------------------------------------
        BYTE   PATT
         POIN2  TitleTheme_0_16
// 033   ----------------------------------------
        BYTE           VOL     100
        BYTE           PAN     c_v+0
        BYTE   GoTo
         POIN2  TitleTheme_0_LOOP
        BYTE   FINE

//****************** Track 1 (Midi-Chn.1) ******************//

TitleTheme_1:
        BYTE   KEYSH   TitleTheme_key+0
// 000   ----------------------------------------
        BYTE           VOICE   127
        BYTE   W24
        BYTE           N72     En2   v080
        BYTE   W66
TitleTheme_1_LOOP:
        BYTE   W06
// 001   ----------------------------------------
        BYTE           PAN     c_v-10
        BYTE           VOL     69
        BYTE           N06     Dn1   v080
        BYTE   W24
        BYTE                   Dn1
        BYTE   W48
        BYTE                   Dn1
        BYTE   W08
        BYTE                   Dn1
        BYTE   W08
        BYTE                   Dn1
        BYTE   W08
// 002   ----------------------------------------
TitleTheme_1_2:
        BYTE           N06     Dn1   v080
        BYTE   W24
        BYTE                   Dn1
        BYTE   W72
        BYTE   PEND
// 003   ----------------------------------------
TitleTheme_1_3:
        BYTE           N06     Dn1   v080
        BYTE   W24
        BYTE                   Dn1
        BYTE   W48
        BYTE                   Dn1
        BYTE   W08
        BYTE                   Dn1
        BYTE   W08
        BYTE                   Dn1
        BYTE   W08
        BYTE   PEND
// 004   ----------------------------------------
        BYTE   PATT
         POIN2  TitleTheme_1_2
// 005   ----------------------------------------
        BYTE   PATT
         POIN2  TitleTheme_1_3
// 006   ----------------------------------------
        BYTE   PATT
         POIN2  TitleTheme_1_2
// 007   ----------------------------------------
        BYTE   PATT
         POIN2  TitleTheme_1_3
// 008   ----------------------------------------
        BYTE   PATT
         POIN2  TitleTheme_1_2
// 009   ----------------------------------------
        BYTE   PATT
         POIN2  TitleTheme_1_3
// 010   ----------------------------------------
        BYTE   PATT
         POIN2  TitleTheme_1_2
// 011   ----------------------------------------
        BYTE   PATT
         POIN2  TitleTheme_1_3
// 012   ----------------------------------------
        BYTE   PATT
         POIN2  TitleTheme_1_2
// 013   ----------------------------------------
        BYTE   PATT
         POIN2  TitleTheme_1_3
// 014   ----------------------------------------
        BYTE   PATT
         POIN2  TitleTheme_1_2
// 015   ----------------------------------------
        BYTE   PATT
         POIN2  TitleTheme_1_3
// 016   ----------------------------------------
TitleTheme_1_16:
        BYTE           N06     Dn1   v080
        BYTE   W24
        BYTE                   Dn1
        BYTE   W24
        BYTE           N48     En2
        BYTE   W48
        BYTE   PEND
// 017   ----------------------------------------
        BYTE   PATT
         POIN2  TitleTheme_1_3
// 018   ----------------------------------------
        BYTE   PATT
         POIN2  TitleTheme_1_2
// 019   ----------------------------------------
        BYTE   PATT
         POIN2  TitleTheme_1_3
// 020   ----------------------------------------
        BYTE   PATT
         POIN2  TitleTheme_1_2
// 021   ----------------------------------------
        BYTE   PATT
         POIN2  TitleTheme_1_3
// 022   ----------------------------------------
        BYTE   PATT
         POIN2  TitleTheme_1_2
// 023   ----------------------------------------
        BYTE   PATT
         POIN2  TitleTheme_1_3
// 024   ----------------------------------------
        BYTE   PATT
         POIN2  TitleTheme_1_2
// 025   ----------------------------------------
        BYTE   PATT
         POIN2  TitleTheme_1_3
// 026   ----------------------------------------
        BYTE   PATT
         POIN2  TitleTheme_1_2
// 027   ----------------------------------------
        BYTE   PATT
         POIN2  TitleTheme_1_3
// 028   ----------------------------------------
        BYTE   PATT
         POIN2  TitleTheme_1_2
// 029   ----------------------------------------
        BYTE   PATT
         POIN2  TitleTheme_1_3
// 030   ----------------------------------------
        BYTE   PATT
         POIN2  TitleTheme_1_2
// 031   ----------------------------------------
        BYTE   PATT
         POIN2  TitleTheme_1_3
// 032   ----------------------------------------
        BYTE   PATT
         POIN2  TitleTheme_1_16
// 033   ----------------------------------------
        BYTE           VOL     100
        BYTE           PAN     c_v+0
        BYTE   GoTo
         POIN2  TitleTheme_1_LOOP
        BYTE   FINE

//****************** Track 2 (Midi-Chn.2) ******************//

TitleTheme_2:
        BYTE   KEYSH   TitleTheme_key+0
// 000   ----------------------------------------
        BYTE           VOICE   91
        BYTE   W90
TitleTheme_2_LOOP:
        BYTE   W06
// 001   ----------------------------------------
        BYTE           VOL     64
        BYTE           PAN     c_v+31
        BYTE   W96
// 002   ----------------------------------------
        BYTE   W96
// 003   ----------------------------------------
        BYTE   W96
// 004   ----------------------------------------
        BYTE   W96
// 005   ----------------------------------------
        BYTE   W96
// 006   ----------------------------------------
        BYTE   W96
// 007   ----------------------------------------
        BYTE   W96
// 008   ----------------------------------------
TitleTheme_2_8:
        BYTE   W48
        BYTE           N48     Fn3   v080
        BYTE   W48
        BYTE   PEND
// 009   ----------------------------------------
        BYTE           N96     Cn4
        BYTE   W96
// 010   ----------------------------------------
TitleTheme_2_10:
        BYTE           N36     Cn4   v080
        BYTE   W36
        BYTE                   As3
        BYTE   W36
        BYTE           N24     Gs3
        BYTE   W24
        BYTE   PEND
// 011   ----------------------------------------
TitleTheme_2_11:
        BYTE           N48     Gn3   v080
        BYTE   W48
        BYTE                   Gs3
        BYTE   W48
        BYTE   PEND
// 012   ----------------------------------------
TitleTheme_2_12:
        BYTE           N24     As3   v080
        BYTE   W48
        BYTE           N48     Ds4
        BYTE   W48
        BYTE   PEND
// 013   ----------------------------------------
TitleTheme_2_13:
        BYTE           N24     Fn4   v080
        BYTE   W24
        BYTE                   Gn4
        BYTE   W24
        BYTE           N96     Ds4
        BYTE   W48
        BYTE   PEND
// 014   ----------------------------------------
TitleTheme_2_14:
        BYTE   W48
        BYTE           N48     Cn4   v080
        BYTE   W48
        BYTE   PEND
// 015   ----------------------------------------
        BYTE           TIE     Fn4
        BYTE   W96
// 016   ----------------------------------------
        BYTE   W96
// 017   ----------------------------------------
        BYTE           EOT
        BYTE   W96
// 018   ----------------------------------------
        BYTE   W96
// 019   ----------------------------------------
        BYTE   W96
// 020   ----------------------------------------
        BYTE   W96
// 021   ----------------------------------------
        BYTE   W96
// 022   ----------------------------------------
        BYTE   W96
// 023   ----------------------------------------
        BYTE   W96
// 024   ----------------------------------------
        BYTE   PATT
         POIN2  TitleTheme_2_8
// 025   ----------------------------------------
        BYTE           N96     Cn4   v080
        BYTE   W96
// 026   ----------------------------------------
        BYTE   PATT
         POIN2  TitleTheme_2_10
// 027   ----------------------------------------
        BYTE   PATT
         POIN2  TitleTheme_2_11
// 028   ----------------------------------------
        BYTE   PATT
         POIN2  TitleTheme_2_12
// 029   ----------------------------------------
        BYTE   PATT
         POIN2  TitleTheme_2_13
// 030   ----------------------------------------
        BYTE   PATT
         POIN2  TitleTheme_2_14
// 031   ----------------------------------------
        BYTE           TIE     Fn4   v080
        BYTE   W96
// 032   ----------------------------------------
        BYTE   W96
// 033   ----------------------------------------
        BYTE           EOT
        BYTE           VOL     100
        BYTE           PAN     c_v+0
        BYTE   GoTo
         POIN2  TitleTheme_2_LOOP
        BYTE   FINE

//****************** Track 3 (Midi-Chn.3) ******************//

TitleTheme_3:
        BYTE   KEYSH   TitleTheme_key+0
// 000   ----------------------------------------
        BYTE           VOICE   94
        BYTE   W90
TitleTheme_3_LOOP:
        BYTE   W06
// 001   ----------------------------------------
        BYTE           VOL     65
        BYTE           PAN     c_v-32
        BYTE   W96
// 002   ----------------------------------------
        BYTE   W96
// 003   ----------------------------------------
        BYTE   W96
// 004   ----------------------------------------
        BYTE   W96
// 005   ----------------------------------------
        BYTE   W96
// 006   ----------------------------------------
        BYTE   W96
// 007   ----------------------------------------
        BYTE   W96
// 008   ----------------------------------------
TitleTheme_3_8:
        BYTE   W48
        BYTE           N48     Fn2   v080
        BYTE   W48
        BYTE   PEND
// 009   ----------------------------------------
        BYTE           N96     Cn3
        BYTE   W96
// 010   ----------------------------------------
TitleTheme_3_10:
        BYTE           N36     Cn3   v080
        BYTE   W36
        BYTE                   As2
        BYTE   W36
        BYTE           N24     Gs2
        BYTE   W24
        BYTE   PEND
// 011   ----------------------------------------
TitleTheme_3_11:
        BYTE           N48     Gn2   v080
        BYTE   W48
        BYTE                   Gs2
        BYTE   W48
        BYTE   PEND
// 012   ----------------------------------------
TitleTheme_3_12:
        BYTE           N24     As2   v080
        BYTE   W48
        BYTE           N48     Ds3
        BYTE   W48
        BYTE   PEND
// 013   ----------------------------------------
TitleTheme_3_13:
        BYTE           N24     Fn3   v080
        BYTE   W24
        BYTE                   Gn3
        BYTE   W24
        BYTE           N96     Ds3
        BYTE   W48
        BYTE   PEND
// 014   ----------------------------------------
TitleTheme_3_14:
        BYTE   W48
        BYTE           N48     Cn3   v080
        BYTE   W48
        BYTE   PEND
// 015   ----------------------------------------
        BYTE           TIE     Fn3
        BYTE   W96
// 016   ----------------------------------------
        BYTE   W96
// 017   ----------------------------------------
        BYTE           EOT
        BYTE   W96
// 018   ----------------------------------------
        BYTE   W96
// 019   ----------------------------------------
        BYTE   W96
// 020   ----------------------------------------
        BYTE   W96
// 021   ----------------------------------------
        BYTE   W96
// 022   ----------------------------------------
        BYTE   W96
// 023   ----------------------------------------
        BYTE   W96
// 024   ----------------------------------------
        BYTE   PATT
         POIN2  TitleTheme_3_8
// 025   ----------------------------------------
        BYTE           N96     Cn3   v080
        BYTE   W96
// 026   ----------------------------------------
        BYTE   PATT
         POIN2  TitleTheme_3_10
// 027   ----------------------------------------
        BYTE   PATT
         POIN2  TitleTheme_3_11
// 028   ----------------------------------------
        BYTE   PATT
         POIN2  TitleTheme_3_12
// 029   ----------------------------------------
        BYTE   PATT
         POIN2  TitleTheme_3_13
// 030   ----------------------------------------
        BYTE   PATT
         POIN2  TitleTheme_3_14
// 031   ----------------------------------------
        BYTE           TIE     Fn3   v080
        BYTE   W96
// 032   ----------------------------------------
        BYTE   W96
// 033   ----------------------------------------
        BYTE           EOT
        BYTE           VOL     100
        BYTE           PAN     c_v+0
        BYTE   GoTo
         POIN2  TitleTheme_3_LOOP
        BYTE   FINE

//****************** Track 4 (Midi-Chn.4) ******************//

TitleTheme_4:
        BYTE   KEYSH   TitleTheme_key+0
// 000   ----------------------------------------
        BYTE           VOICE   77
        BYTE   W90
TitleTheme_4_LOOP:
        BYTE   W06
// 001   ----------------------------------------
        BYTE           PAN     c_v+11
        BYTE           VOL     71
        BYTE   W96
// 002   ----------------------------------------
        BYTE   W96
// 003   ----------------------------------------
        BYTE   W96
// 004   ----------------------------------------
        BYTE   W96
// 005   ----------------------------------------
        BYTE   W96
// 006   ----------------------------------------
        BYTE   W96
// 007   ----------------------------------------
        BYTE   W96
// 008   ----------------------------------------
        BYTE   W96
// 009   ----------------------------------------
        BYTE   W96
// 010   ----------------------------------------
        BYTE   W96
// 011   ----------------------------------------
        BYTE   W96
// 012   ----------------------------------------
        BYTE   W96
// 013   ----------------------------------------
        BYTE   W96
// 014   ----------------------------------------
        BYTE   W96
// 015   ----------------------------------------
        BYTE   W96
// 016   ----------------------------------------
TitleTheme_4_16:
        BYTE   W24
        BYTE           N24     Ds4   v080
        BYTE   W24
        BYTE           N06
        BYTE   W08
        BYTE                   As3
        BYTE   W08
        BYTE                   Gs3
        BYTE   W08
        BYTE                   Gn3
        BYTE   W08
        BYTE                   Ds3
        BYTE   W08
        BYTE                   As2
        BYTE   W08
        BYTE   PEND
// 017   ----------------------------------------
        BYTE   W96
// 018   ----------------------------------------
        BYTE   W96
// 019   ----------------------------------------
        BYTE   W96
// 020   ----------------------------------------
        BYTE   W96
// 021   ----------------------------------------
        BYTE   W96
// 022   ----------------------------------------
        BYTE   W96
// 023   ----------------------------------------
        BYTE   W96
// 024   ----------------------------------------
        BYTE   W96
// 025   ----------------------------------------
        BYTE   W96
// 026   ----------------------------------------
        BYTE   W96
// 027   ----------------------------------------
        BYTE   W96
// 028   ----------------------------------------
        BYTE   W96
// 029   ----------------------------------------
        BYTE   W96
// 030   ----------------------------------------
        BYTE   W96
// 031   ----------------------------------------
        BYTE   W96
// 032   ----------------------------------------
        BYTE   PATT
         POIN2  TitleTheme_4_16
// 033   ----------------------------------------
        BYTE           VOL     100
        BYTE           PAN     c_v+0
        BYTE   GoTo
         POIN2  TitleTheme_4_LOOP
        BYTE   FINE

//****************** Track 5 (Midi-Chn.5) ******************//

TitleTheme_5:
        BYTE   KEYSH   TitleTheme_key+0
// 000   ----------------------------------------
        BYTE           VOICE   109
        BYTE   W90
TitleTheme_5_LOOP:
        BYTE   W06
// 001   ----------------------------------------
        BYTE           PAN     c_v-13
        BYTE           VOL     43
        BYTE   W96
// 002   ----------------------------------------
        BYTE   W96
// 003   ----------------------------------------
        BYTE   W96
// 004   ----------------------------------------
        BYTE   W96
// 005   ----------------------------------------
        BYTE   W96
// 006   ----------------------------------------
        BYTE   W96
// 007   ----------------------------------------
        BYTE   W96
// 008   ----------------------------------------
        BYTE   W96
// 009   ----------------------------------------
        BYTE   W96
// 010   ----------------------------------------
        BYTE   W96
// 011   ----------------------------------------
        BYTE   W96
// 012   ----------------------------------------
        BYTE   W96
// 013   ----------------------------------------
        BYTE   W96
// 014   ----------------------------------------
        BYTE   W96
// 015   ----------------------------------------
        BYTE   W96
// 016   ----------------------------------------
        BYTE   W96
// 017   ----------------------------------------
        BYTE           TIE     Gs3   v080
        BYTE           N96     Cn4
        BYTE   W96
// 018   ----------------------------------------
TitleTheme_5_18:
        BYTE           N96     As3   v080
        BYTE           N96     As2
        BYTE   W96
        BYTE   PEND
// 019   ----------------------------------------
TitleTheme_5_19:
        BYTE           EOT     Gs3
        BYTE           N48     Fn3   v080
        BYTE           N48     Cn4
        BYTE   W48
        BYTE                   Fn3
        BYTE           N48     As3
        BYTE   W48
        BYTE   PEND
// 020   ----------------------------------------
        BYTE           N96     Ds3
        BYTE           N96     Ds4
        BYTE   W48
        BYTE           N48     Cn4
        BYTE   W48
// 021   ----------------------------------------
        BYTE                   Fn3
        BYTE           N48     Cn4
        BYTE   W48
        BYTE                   As3
        BYTE           N48     Fn3
        BYTE   W48
// 022   ----------------------------------------
TitleTheme_5_22:
        BYTE           N96     Ds4   v080
        BYTE           N96     Ds3
        BYTE   W48
        BYTE           N48     Cn4
        BYTE   W48
        BYTE   PEND
// 023   ----------------------------------------
        BYTE           N96     As3
        BYTE           N96     Ds3
        BYTE   W96
// 024   ----------------------------------------
        BYTE                   Gs3
        BYTE   W96
// 025   ----------------------------------------
        BYTE                   Cn4
        BYTE           TIE     Gs3
        BYTE   W96
// 026   ----------------------------------------
        BYTE   PATT
         POIN2  TitleTheme_5_18
// 027   ----------------------------------------
        BYTE   PATT
         POIN2  TitleTheme_5_19
// 028   ----------------------------------------
        BYTE   PATT
         POIN2  TitleTheme_5_22
// 029   ----------------------------------------
        BYTE           N96     As3   v080
        BYTE   W96
// 030   ----------------------------------------
        BYTE                   Gs3
        BYTE   W96
// 031   ----------------------------------------
        BYTE                   Gn3
        BYTE   W96
// 032   ----------------------------------------
        BYTE           N48     Gs3
        BYTE   W48
        BYTE                   As3
        BYTE   W48
// 033   ----------------------------------------
        BYTE           VOL     100
        BYTE           PAN     c_v+0
        BYTE   GoTo
         POIN2  TitleTheme_5_LOOP
        BYTE   FINE


//********************** End of Song ***********************//

        ALIGN 4
TitleTheme:
        BYTE   6                       // Num Tracks
        BYTE   0                       // Unknown
        BYTE   TitleTheme_pri          // Priority
        BYTE   TitleTheme_rev          // Reverb

        POIN2   TitleTheme_grp         

        POIN2   TitleTheme_0
        POIN2   TitleTheme_1
        POIN2   TitleTheme_2
        POIN2   TitleTheme_3
        POIN2   TitleTheme_4
        POIN2   TitleTheme_5

        
