//Event file generated from Sappy .s format.
        #include "MPlayDef.event"

        #define    TwilightOfTheGods_2_grp  voicegroup000
        #define    TwilightOfTheGods_2_pri  0
        #define    TwilightOfTheGods_2_rev  0
        #define    TwilightOfTheGods_2_key  0

        // .rodata
        // TwilightOfTheGods_2
        ALIGN 4

//****************** Track 0 (Midi-Chn.0) ******************//

TwilightOfTheGods_2_0:
        BYTE   KEYSH   TwilightOfTheGods_2_key+0
// 000   ----------------------------------------
        BYTE   TEMPO   156/2
        BYTE           VOICE   60
        BYTE           PAN     c_v+14
        BYTE           VOL     58
        BYTE   W96
// 001   ----------------------------------------
        BYTE   W96
// 002   ----------------------------------------
        BYTE   W96
// 003   ----------------------------------------
        BYTE   W96
// 004   ----------------------------------------
        BYTE   W96
// 005   ----------------------------------------
        BYTE   W96
// 006   ----------------------------------------
        BYTE   W96
// 007   ----------------------------------------
        BYTE   W96
// 008   ----------------------------------------
        BYTE   W96
// 009   ----------------------------------------
        BYTE   W96
// 010   ----------------------------------------
        BYTE   W96
// 011   ----------------------------------------
        BYTE   W96
// 012   ----------------------------------------
        BYTE   W96
// 013   ----------------------------------------
        BYTE   W96
// 014   ----------------------------------------
        BYTE   W96
// 015   ----------------------------------------
        BYTE   W96
// 016   ----------------------------------------
TwilightOfTheGods_2_0_LOOP:
        BYTE   W24
        BYTE           N21     En4   v100
        BYTE   W24
        BYTE                   Dn4
        BYTE   W24
        BYTE                   An3
        BYTE   W24
// 017   ----------------------------------------
TwilightOfTheGods_2_0_17:
        BYTE           N42     Bn3   v100   gtp1
        BYTE   W48
        BYTE           N21     Gn3
        BYTE   W24
        BYTE                   An3
        BYTE   W24
        BYTE   PEND
// 018   ----------------------------------------
TwilightOfTheGods_2_0_18:
        BYTE           N42     Bn3   v100   gtp1
        BYTE   W48
        BYTE                   Gn4
        BYTE   W48
        BYTE   PEND
// 019   ----------------------------------------
TwilightOfTheGods_2_0_19:
        BYTE           N42     Fs4   v100   gtp1
        BYTE   W48
        BYTE                   Dn4
        BYTE   W48
        BYTE   PEND
// 020   ----------------------------------------
TwilightOfTheGods_2_0_20:
        BYTE   W24
        BYTE           N21     En4   v100
        BYTE   W24
        BYTE                   Dn4
        BYTE   W24
        BYTE                   An3
        BYTE   W24
        BYTE   PEND
// 021   ----------------------------------------
        BYTE   PATT
         POIN2  TwilightOfTheGods_2_0_17
// 022   ----------------------------------------
TwilightOfTheGods_2_0_22:
        BYTE           N42     Bn3   v100   gtp1
        BYTE   W48
        BYTE                   En4
        BYTE   W48
        BYTE   PEND
// 023   ----------------------------------------
TwilightOfTheGods_2_0_23:
        BYTE           N42     Ds4   v100   gtp1
        BYTE   W48
        BYTE                   Bn3
        BYTE   W48
        BYTE   PEND
// 024   ----------------------------------------
TwilightOfTheGods_2_0_24:
        BYTE           N42     An3   v100   gtp1
        BYTE   W48
        BYTE           N84     Gn3   v100   gtp2
        BYTE   W48
        BYTE   PEND
// 025   ----------------------------------------
TwilightOfTheGods_2_0_25:
        BYTE   W48
        BYTE           N14     En3   v100
        BYTE   W16
        BYTE                   Fs3
        BYTE   W16
        BYTE                   Gn3
        BYTE   W16
        BYTE   PEND
// 026   ----------------------------------------
TwilightOfTheGods_2_0_26:
        BYTE           N42     An3   v100   gtp1
        BYTE   W48
        BYTE                   Gn3
        BYTE   W48
        BYTE   PEND
// 027   ----------------------------------------
TwilightOfTheGods_2_0_27:
        BYTE           N42     Fs3   v100   gtp1
        BYTE   W48
        BYTE                   Dn3
        BYTE   W48
        BYTE   PEND
// 028   ----------------------------------------
        BYTE   PATT
         POIN2  TwilightOfTheGods_2_0_24
// 029   ----------------------------------------
        BYTE   PATT
         POIN2  TwilightOfTheGods_2_0_25
// 030   ----------------------------------------
TwilightOfTheGods_2_0_30:
        BYTE           N42     Fs3   v100   gtp1
        BYTE   W48
        BYTE                   En3
        BYTE   W48
        BYTE   PEND
// 031   ----------------------------------------
        BYTE           N84     Fs3
        BYTE   W96
// 032   ----------------------------------------
        BYTE   W96
// 033   ----------------------------------------
        BYTE   W96
// 034   ----------------------------------------
        BYTE   W96
// 035   ----------------------------------------
        BYTE   W96
// 036   ----------------------------------------
        BYTE   W96
// 037   ----------------------------------------
        BYTE   W96
// 038   ----------------------------------------
        BYTE   PATT
         POIN2  TwilightOfTheGods_2_0_20
// 039   ----------------------------------------
        BYTE   PATT
         POIN2  TwilightOfTheGods_2_0_17
// 040   ----------------------------------------
        BYTE   PATT
         POIN2  TwilightOfTheGods_2_0_18
// 041   ----------------------------------------
        BYTE   PATT
         POIN2  TwilightOfTheGods_2_0_19
// 042   ----------------------------------------
        BYTE   PATT
         POIN2  TwilightOfTheGods_2_0_20
// 043   ----------------------------------------
        BYTE   PATT
         POIN2  TwilightOfTheGods_2_0_17
// 044   ----------------------------------------
        BYTE   PATT
         POIN2  TwilightOfTheGods_2_0_22
// 045   ----------------------------------------
        BYTE   PATT
         POIN2  TwilightOfTheGods_2_0_23
// 046   ----------------------------------------
        BYTE   PATT
         POIN2  TwilightOfTheGods_2_0_24
// 047   ----------------------------------------
        BYTE   PATT
         POIN2  TwilightOfTheGods_2_0_25
// 048   ----------------------------------------
        BYTE   PATT
         POIN2  TwilightOfTheGods_2_0_26
// 049   ----------------------------------------
        BYTE   PATT
         POIN2  TwilightOfTheGods_2_0_27
// 050   ----------------------------------------
        BYTE   PATT
         POIN2  TwilightOfTheGods_2_0_24
// 051   ----------------------------------------
        BYTE   PATT
         POIN2  TwilightOfTheGods_2_0_25
// 052   ----------------------------------------
        BYTE   PATT
         POIN2  TwilightOfTheGods_2_0_30
// 053   ----------------------------------------
TwilightOfTheGods_2_0_53:
        BYTE           N14     Bn2   v100
        BYTE           N14     Fs3
        BYTE   W16
        BYTE                   Cn3
        BYTE           N14     Gn3
        BYTE   W16
        BYTE                   Dn3
        BYTE           N14     An3
        BYTE   W16
        BYTE                   En3
        BYTE           N14     Bn3
        BYTE   W16
        BYTE                   Fs3
        BYTE           N14     Cn4
        BYTE   W16
        BYTE                   Gn3
        BYTE           N14     Dn4
        BYTE   W16
        BYTE   PEND
// 054   ----------------------------------------
TwilightOfTheGods_2_0_54:
        BYTE           N42     En4   v100   gtp1
        BYTE   W48
        BYTE           N14     Gn3   v098
        BYTE   W16
        BYTE                   An3
        BYTE   W16
        BYTE                   Bn3
        BYTE   W16
        BYTE   PEND
// 055   ----------------------------------------
TwilightOfTheGods_2_0_55:
        BYTE           N42     Dn4   v092   gtp1
        BYTE   W48
        BYTE           N14     Fs3   v093
        BYTE   W16
        BYTE                   Gn3
        BYTE   W16
        BYTE                   An3
        BYTE   W16
        BYTE   PEND
// 056   ----------------------------------------
TwilightOfTheGods_2_0_56:
        BYTE           N42     Dn4   v093   gtp1
        BYTE   W48
        BYTE           N14     En3
        BYTE   W16
        BYTE                   Fs3
        BYTE   W16
        BYTE                   Gn3
        BYTE   W16
        BYTE   PEND
// 057   ----------------------------------------
        BYTE           N42     Dn4   v092   gtp1
        BYTE   W48
        BYTE           N14     Fs3
        BYTE   W16
        BYTE                   Gn3
        BYTE   W16
        BYTE                   An3
        BYTE   W15
        BYTE           VOICE   68
        BYTE   W01
// 058   ----------------------------------------
TwilightOfTheGods_2_0_58:
        BYTE           N42     En4   v103   gtp1
        BYTE   W16
        BYTE           N07     En3
        BYTE   W08
        BYTE                   Fs3
        BYTE   W08
        BYTE                   Gn3
        BYTE   W08
        BYTE                   Fs3
        BYTE   W08
        BYTE           N14     En3
        BYTE   W16
        BYTE                   Fs3
        BYTE   W16
        BYTE                   Gn3
        BYTE   W16
        BYTE   PEND
// 059   ----------------------------------------
TwilightOfTheGods_2_0_59:
        BYTE           N42     En4   v103
        BYTE   W16
        BYTE           N07     En3
        BYTE   W08
        BYTE                   Fs3
        BYTE   W08
        BYTE                   Gn3
        BYTE   W08
        BYTE                   Fs3
        BYTE   W08
        BYTE           N14     En3
        BYTE   W16
        BYTE                   Fs3
        BYTE   W16
        BYTE                   Gn3
        BYTE   W16
        BYTE   PEND
// 060   ----------------------------------------
TwilightOfTheGods_2_0_60:
        BYTE           N42     En4   v103
        BYTE   W16
        BYTE           N07     En3   v104
        BYTE   W08
        BYTE                   Fs3
        BYTE   W08
        BYTE                   Gn3
        BYTE   W08
        BYTE                   Fs3
        BYTE   W08
        BYTE           N14     En3
        BYTE   W16
        BYTE                   Fs3
        BYTE   W16
        BYTE                   Gn3
        BYTE   W16
        BYTE   PEND
// 061   ----------------------------------------
TwilightOfTheGods_2_0_61:
        BYTE           N42     En4   v104
        BYTE   W16
        BYTE           N07     En3
        BYTE   W08
        BYTE                   Fs3
        BYTE   W08
        BYTE                   Gn3
        BYTE   W08
        BYTE                   Fs3
        BYTE   W08
        BYTE           N14     En3
        BYTE           N48     Ds4   v094
        BYTE   W16
        BYTE           N14     Fs3   v104
        BYTE   W16
        BYTE                   Gn3
        BYTE   W16
        BYTE   PEND
// 062   ----------------------------------------
        BYTE           VOICE   60
        BYTE           N96     En4   v064
        BYTE   W96
// 063   ----------------------------------------
        BYTE   W96
// 064   ----------------------------------------
        BYTE   W96
// 065   ----------------------------------------
        BYTE   W96
// 066   ----------------------------------------
        BYTE   W96
// 067   ----------------------------------------
        BYTE   W96
// 068   ----------------------------------------
        BYTE   W96
// 069   ----------------------------------------
        BYTE   W96
// 070   ----------------------------------------
        BYTE   PATT
         POIN2  TwilightOfTheGods_2_0_20
// 071   ----------------------------------------
        BYTE   PATT
         POIN2  TwilightOfTheGods_2_0_17
// 072   ----------------------------------------
        BYTE   PATT
         POIN2  TwilightOfTheGods_2_0_18
// 073   ----------------------------------------
        BYTE   PATT
         POIN2  TwilightOfTheGods_2_0_19
// 074   ----------------------------------------
        BYTE   PATT
         POIN2  TwilightOfTheGods_2_0_20
// 075   ----------------------------------------
        BYTE   PATT
         POIN2  TwilightOfTheGods_2_0_17
// 076   ----------------------------------------
        BYTE   PATT
         POIN2  TwilightOfTheGods_2_0_22
// 077   ----------------------------------------
        BYTE   PATT
         POIN2  TwilightOfTheGods_2_0_23
// 078   ----------------------------------------
        BYTE   PATT
         POIN2  TwilightOfTheGods_2_0_24
// 079   ----------------------------------------
        BYTE   PATT
         POIN2  TwilightOfTheGods_2_0_25
// 080   ----------------------------------------
        BYTE   PATT
         POIN2  TwilightOfTheGods_2_0_26
// 081   ----------------------------------------
        BYTE   PATT
         POIN2  TwilightOfTheGods_2_0_27
// 082   ----------------------------------------
        BYTE   PATT
         POIN2  TwilightOfTheGods_2_0_24
// 083   ----------------------------------------
        BYTE   PATT
         POIN2  TwilightOfTheGods_2_0_25
// 084   ----------------------------------------
        BYTE   PATT
         POIN2  TwilightOfTheGods_2_0_30
// 085   ----------------------------------------
        BYTE           N84     Fs3   v100
        BYTE   W96
// 086   ----------------------------------------
        BYTE   PATT
         POIN2  TwilightOfTheGods_2_0_20
// 087   ----------------------------------------
        BYTE   PATT
         POIN2  TwilightOfTheGods_2_0_17
// 088   ----------------------------------------
        BYTE   PATT
         POIN2  TwilightOfTheGods_2_0_18
// 089   ----------------------------------------
        BYTE   PATT
         POIN2  TwilightOfTheGods_2_0_19
// 090   ----------------------------------------
        BYTE   PATT
         POIN2  TwilightOfTheGods_2_0_20
// 091   ----------------------------------------
        BYTE   PATT
         POIN2  TwilightOfTheGods_2_0_17
// 092   ----------------------------------------
        BYTE   PATT
         POIN2  TwilightOfTheGods_2_0_22
// 093   ----------------------------------------
        BYTE   PATT
         POIN2  TwilightOfTheGods_2_0_23
// 094   ----------------------------------------
        BYTE   PATT
         POIN2  TwilightOfTheGods_2_0_24
// 095   ----------------------------------------
        BYTE   PATT
         POIN2  TwilightOfTheGods_2_0_25
// 096   ----------------------------------------
        BYTE   PATT
         POIN2  TwilightOfTheGods_2_0_26
// 097   ----------------------------------------
        BYTE   PATT
         POIN2  TwilightOfTheGods_2_0_27
// 098   ----------------------------------------
        BYTE   PATT
         POIN2  TwilightOfTheGods_2_0_24
// 099   ----------------------------------------
        BYTE   PATT
         POIN2  TwilightOfTheGods_2_0_25
// 100   ----------------------------------------
        BYTE   PATT
         POIN2  TwilightOfTheGods_2_0_30
// 101   ----------------------------------------
        BYTE   PATT
         POIN2  TwilightOfTheGods_2_0_53
// 102   ----------------------------------------
        BYTE   PATT
         POIN2  TwilightOfTheGods_2_0_54
// 103   ----------------------------------------
        BYTE   PATT
         POIN2  TwilightOfTheGods_2_0_55
// 104   ----------------------------------------
        BYTE   PATT
         POIN2  TwilightOfTheGods_2_0_56
// 105   ----------------------------------------
        BYTE           N42     Dn4   v092   gtp1
        BYTE   W48
        BYTE           N14     Fs3
        BYTE   W16
        BYTE                   Gn3
        BYTE   W16
        BYTE                   An3
        BYTE   W16
// 106   ----------------------------------------
        BYTE   PATT
         POIN2  TwilightOfTheGods_2_0_58
// 107   ----------------------------------------
        BYTE   PATT
         POIN2  TwilightOfTheGods_2_0_59
// 108   ----------------------------------------
        BYTE   PATT
         POIN2  TwilightOfTheGods_2_0_60
// 109   ----------------------------------------
        BYTE   PATT
         POIN2  TwilightOfTheGods_2_0_61
// 110   ----------------------------------------
        BYTE           N96     En4   v064
        BYTE   W96
// 111   ----------------------------------------
        BYTE   W96
// 112   ----------------------------------------
        BYTE   W96
// 113   ----------------------------------------
        BYTE   W96
// 114   ----------------------------------------
        BYTE   W96
// 115   ----------------------------------------
        BYTE   W96
// 116   ----------------------------------------
        BYTE   W96
// 117   ----------------------------------------
        BYTE   W96
// 118   ----------------------------------------
        BYTE   GoTo
         POIN2  TwilightOfTheGods_2_0_LOOP
        BYTE   FINE

//****************** Track 1 (Midi-Chn.1) ******************//

TwilightOfTheGods_2_1:
        BYTE   KEYSH   TwilightOfTheGods_2_key+0
// 000   ----------------------------------------
        BYTE           PAN     c_v+26
        BYTE           VOICE   105
        BYTE           VOL     28
        BYTE   W96
// 001   ----------------------------------------
        BYTE           TIE     Bn4   v056
        BYTE           TIE     En4
        BYTE           TIE     Bn3
        BYTE   W96
// 002   ----------------------------------------
        BYTE   W96
// 003   ----------------------------------------
        BYTE   W96
// 004   ----------------------------------------
        BYTE           EOT
        BYTE           EOT     En4
        BYTE                   Bn4
        BYTE   W96
// 005   ----------------------------------------
        BYTE           TIE     An3   v064
        BYTE           TIE     En4
        BYTE           TIE     Bn3
        BYTE           TIE     En3
        BYTE   W96
// 006   ----------------------------------------
        BYTE   W96
// 007   ----------------------------------------
        BYTE           EOT     An3
        BYTE           N48     An3   v080
        BYTE   W48
        BYTE           EOT     En3
        BYTE           N16     Gn3   v088
        BYTE   W16
        BYTE                   Fs3   v096
        BYTE   W16
        BYTE                   Dn3   v104
        BYTE   W14
        BYTE           EOT     Bn3
        BYTE                   En4
        BYTE   W02
// 008   ----------------------------------------
        BYTE           N84     Bn2   v102   gtp2
        BYTE           TIE     En4
        BYTE           TIE     En3
        BYTE   W96
// 009   ----------------------------------------
TwilightOfTheGods_2_1_9:
        BYTE           N96     An2   v102
        BYTE   W42
        BYTE   W01
        BYTE           EOT     En4
        BYTE   W05
        BYTE           N14
        BYTE   W16
        BYTE                   Dn4
        BYTE   W16
        BYTE                   An3
        BYTE   W16
        BYTE   PEND
// 010   ----------------------------------------
        BYTE                   Gn2
        BYTE           N92     Bn3   v102   gtp2
        BYTE                   Cn3
        BYTE   W16
        BYTE           N14     Fs2
        BYTE   W16
        BYTE                   Gn2
        BYTE   W16
        BYTE                   An2
        BYTE   W16
        BYTE                   Bn2
        BYTE   W16
        BYTE           N15     Dn3
        BYTE   W16
// 011   ----------------------------------------
        BYTE           N14     Fs3
        BYTE           N14     Bn3
        BYTE   W16
        BYTE                   Dn3
        BYTE           N14     An3
        BYTE   W16
        BYTE                   An2
        BYTE           N14     Gn3
        BYTE   W16
        BYTE                   Dn3
        BYTE           N14     An3
        BYTE   W16
        BYTE                   An2
        BYTE           N14     Fs3
        BYTE   W16
        BYTE                   Fs2
        BYTE           N14     Dn3
        BYTE   W06
        BYTE           EOT     En3
        BYTE   W10
// 012   ----------------------------------------
TwilightOfTheGods_2_1_12:
        BYTE           TIE     En3   v102
        BYTE           TIE     Bn2
        BYTE   W96
        BYTE   PEND
// 013   ----------------------------------------
        BYTE           N92     Fs3   v102   gtp3
        BYTE   W96
// 014   ----------------------------------------
        BYTE                   Gn3
        BYTE   W96
// 015   ----------------------------------------
        BYTE           N14     En4
        BYTE   W16
        BYTE                   Dn4
        BYTE   W16
        BYTE                   An3
        BYTE   W16
        BYTE                   Bn3
        BYTE   W16
        BYTE                   An3
        BYTE   W16
        BYTE                   Dn3
        BYTE   W15
        BYTE           EOT     En3
        BYTE   W01
// 016   ----------------------------------------
        BYTE                   Bn2
TwilightOfTheGods_2_1_LOOP:
        BYTE           TIE     En3   v102
        BYTE           TIE     Bn2
        BYTE           N92     Bn3   v102   gtp3
        BYTE           N84     En4   v102   gtp2
        BYTE   W96
// 017   ----------------------------------------
TwilightOfTheGods_2_1_17:
        BYTE           N92     An3   v102   gtp3
        BYTE           N84     Fs4   v102   gtp2
        BYTE   W92
        BYTE   W03
        BYTE           EOT     En3
        BYTE   W01
        BYTE   PEND
// 018   ----------------------------------------
TwilightOfTheGods_2_1_18:
        BYTE           EOT     Bn2
        BYTE           N96     Gn2   v102
        BYTE           N96     Cn3
        BYTE           N92     Cn4   v102   gtp3
        BYTE           N84     Gn4   v102   gtp2
        BYTE   W96
        BYTE   PEND
// 019   ----------------------------------------
TwilightOfTheGods_2_1_19:
        BYTE           N96     Fs2   v102
        BYTE           N96     Bn2
        BYTE           N92     Dn4   v102   gtp3
        BYTE           N84     Fs4   v102   gtp2
        BYTE   W96
        BYTE   PEND
// 020   ----------------------------------------
TwilightOfTheGods_2_1_20:
        BYTE           N96     Bn2   v102
        BYTE           N96     En2
        BYTE           N92     Bn3   v102   gtp3
        BYTE           N84     En4   v102   gtp2
        BYTE   W96
        BYTE   PEND
// 021   ----------------------------------------
TwilightOfTheGods_2_1_21:
        BYTE           N96     Dn2   v102
        BYTE           N96     An2
        BYTE           N92     An3   v102   gtp3
        BYTE           N84     Dn4   v102   gtp2
        BYTE   W96
        BYTE   PEND
// 022   ----------------------------------------
TwilightOfTheGods_2_1_22:
        BYTE           N96     En2   v102
        BYTE           N96     Cn3
        BYTE           N92     Gn3   v102   gtp3
        BYTE           N84     Cn4   v102   gtp2
        BYTE   W96
        BYTE   PEND
// 023   ----------------------------------------
TwilightOfTheGods_2_1_23:
        BYTE           N96     Ds2   v102
        BYTE           N96     Bn2
        BYTE           N84     Bn3   v102   gtp2
        BYTE           N96     Fs3
        BYTE   W96
        BYTE   PEND
// 024   ----------------------------------------
TwilightOfTheGods_2_1_24:
        BYTE           TIE     En2   v102
        BYTE           TIE     Cn3
        BYTE           N92     Gn3   v102   gtp3
        BYTE           N84     Cn4   v102   gtp2
        BYTE   W96
        BYTE   PEND
// 025   ----------------------------------------
TwilightOfTheGods_2_1_25:
        BYTE           N92     Gn3   v102   gtp3
        BYTE           N84     Dn4   v102   gtp2
        BYTE   W92
        BYTE   W03
        BYTE           EOT     En2
        BYTE                   Cn3
        BYTE   W01
        BYTE   PEND
// 026   ----------------------------------------
TwilightOfTheGods_2_1_26:
        BYTE           TIE     Bn2   v102
        BYTE           N92     En3   v102   gtp3
        BYTE           N84     Cn4   v102   gtp2
        BYTE           N96     En2   v100
        BYTE   W96
        BYTE   PEND
// 027   ----------------------------------------
TwilightOfTheGods_2_1_27:
        BYTE           N92     Fs3   v102   gtp3
        BYTE           N84     Bn3   v102   gtp2
        BYTE           N96     Ds2
        BYTE   W92
        BYTE   W03
        BYTE           EOT     Bn2
        BYTE   W01
        BYTE   PEND
// 028   ----------------------------------------
TwilightOfTheGods_2_1_28:
        BYTE           TIE     Gn2   v102
        BYTE           TIE     Cn3
        BYTE           N92     En3   v102   gtp3
        BYTE           N84     Cn4   v102   gtp2
        BYTE   W96
        BYTE   PEND
// 029   ----------------------------------------
TwilightOfTheGods_2_1_29:
        BYTE           N92     Dn3   v102   gtp3
        BYTE           N84     Bn3   v102   gtp2
        BYTE   W92
        BYTE   W03
        BYTE           EOT     Gn2
        BYTE                   Cn3
        BYTE   W01
        BYTE   PEND
// 030   ----------------------------------------
TwilightOfTheGods_2_1_30:
        BYTE           N92     Fs2   v102   gtp1
        BYTE                   Bn2
        BYTE           N84     An3   v102   gtp2
        BYTE           N90     En3   v100
        BYTE   W96
        BYTE   PEND
// 031   ----------------------------------------
TwilightOfTheGods_2_1_31:
        BYTE           N96     Bn2   v100
        BYTE           N48     Fs3
        BYTE           N96     En2
        BYTE   W48
        BYTE           N48     Dn3
        BYTE   W48
        BYTE   PEND
// 032   ----------------------------------------
        BYTE           N90     En3
        BYTE   W96
// 033   ----------------------------------------
        BYTE   W96
// 034   ----------------------------------------
        BYTE   W96
// 035   ----------------------------------------
        BYTE   W96
// 036   ----------------------------------------
        BYTE   W96
// 037   ----------------------------------------
        BYTE   W96
// 038   ----------------------------------------
TwilightOfTheGods_2_1_38:
        BYTE           TIE     En3   v102
        BYTE           TIE     Bn2
        BYTE           N92     Bn3   v102   gtp3
        BYTE           N84     En4   v102   gtp2
        BYTE   W96
        BYTE   PEND
// 039   ----------------------------------------
        BYTE   PATT
         POIN2  TwilightOfTheGods_2_1_17
// 040   ----------------------------------------
        BYTE   PATT
         POIN2  TwilightOfTheGods_2_1_18
// 041   ----------------------------------------
        BYTE   PATT
         POIN2  TwilightOfTheGods_2_1_19
// 042   ----------------------------------------
        BYTE   PATT
         POIN2  TwilightOfTheGods_2_1_20
// 043   ----------------------------------------
        BYTE   PATT
         POIN2  TwilightOfTheGods_2_1_21
// 044   ----------------------------------------
        BYTE   PATT
         POIN2  TwilightOfTheGods_2_1_22
// 045   ----------------------------------------
TwilightOfTheGods_2_1_45:
        BYTE           N96     Ds2   v102
        BYTE           N96     Bn2
        BYTE           N84     Bn3   v102   gtp2
        BYTE           N90     Fs3
        BYTE   W96
        BYTE   PEND
// 046   ----------------------------------------
        BYTE   PATT
         POIN2  TwilightOfTheGods_2_1_24
// 047   ----------------------------------------
        BYTE   PATT
         POIN2  TwilightOfTheGods_2_1_25
// 048   ----------------------------------------
TwilightOfTheGods_2_1_48:
        BYTE           TIE     Ds2   v102
        BYTE           TIE     Bn2
        BYTE           N92     En3   v102   gtp3
        BYTE           N84     Cn4   v102   gtp2
        BYTE   W96
        BYTE   PEND
// 049   ----------------------------------------
TwilightOfTheGods_2_1_49:
        BYTE           N92     Fs3   v102   gtp3
        BYTE           N84     Bn3   v102   gtp2
        BYTE   W92
        BYTE   W03
        BYTE           EOT     Ds2
        BYTE                   Bn2
        BYTE   W01
        BYTE   PEND
// 050   ----------------------------------------
        BYTE   PATT
         POIN2  TwilightOfTheGods_2_1_28
// 051   ----------------------------------------
        BYTE   PATT
         POIN2  TwilightOfTheGods_2_1_29
// 052   ----------------------------------------
TwilightOfTheGods_2_1_52:
        BYTE           N92     Fs2   v102   gtp1
        BYTE                   Bn2
        BYTE           N84     An3   v102   gtp2
        BYTE           N90     En3
        BYTE   W96
        BYTE   PEND
// 053   ----------------------------------------
TwilightOfTheGods_2_1_53:
        BYTE           N48     Bn3   v102
        BYTE           N48     Fs3
        BYTE   W48
        BYTE           N21     Cn4
        BYTE           N48     Dn3   v100
        BYTE   W24
        BYTE           N21     Dn4   v102
        BYTE   W24
        BYTE   PEND
// 054   ----------------------------------------
TwilightOfTheGods_2_1_54:
        BYTE           N92     En2   v102   gtp1
        BYTE                   En3
        BYTE           N92     En4   v102   gtp3
        BYTE   W96
        BYTE   PEND
// 055   ----------------------------------------
TwilightOfTheGods_2_1_55:
        BYTE           N92     Dn2   v102   gtp1
        BYTE                   Dn3
        BYTE           N92     Fs4   v102   gtp3
        BYTE   W96
        BYTE   PEND
// 056   ----------------------------------------
TwilightOfTheGods_2_1_56:
        BYTE           N92     Dn2   v102   gtp1
        BYTE                   Dn3
        BYTE           N92     Gn4   v102   gtp3
        BYTE   W96
        BYTE   PEND
// 057   ----------------------------------------
TwilightOfTheGods_2_1_57:
        BYTE           N92     Dn3   v102   gtp1
        BYTE           N92     Fs4   v102   gtp3
        BYTE           N90     Bn1
        BYTE   W96
        BYTE   PEND
// 058   ----------------------------------------
TwilightOfTheGods_2_1_58:
        BYTE           N92     Bn2   v102   gtp3
        BYTE                   Gn3
        BYTE           N92     En4   v102   gtp3
        BYTE   W96
        BYTE   PEND
// 059   ----------------------------------------
TwilightOfTheGods_2_1_59:
        BYTE           N92     Fs3   v102   gtp3
        BYTE                   Bn2
        BYTE           N92     Dn4   v102   gtp3
        BYTE   W96
        BYTE   PEND
// 060   ----------------------------------------
TwilightOfTheGods_2_1_60:
        BYTE           N92     En3   v102   gtp3
        BYTE                   Bn2
        BYTE           N90     Cn4
        BYTE   W96
        BYTE   PEND
// 061   ----------------------------------------
TwilightOfTheGods_2_1_61:
        BYTE           N90     Bn3   v102
        BYTE           N90     Ds3
        BYTE           N90     Bn2
        BYTE   W96
        BYTE   PEND
// 062   ----------------------------------------
TwilightOfTheGods_2_1_62:
        BYTE           N92     Bn2   v102   gtp2
        BYTE           TIE     En4
        BYTE           TIE     En3
        BYTE   W96
        BYTE   PEND
// 063   ----------------------------------------
        BYTE   PATT
         POIN2  TwilightOfTheGods_2_1_9
// 064   ----------------------------------------
TwilightOfTheGods_2_1_64:
        BYTE           EOT     En3
        BYTE           N14     Gn2   v102
        BYTE           N92     Bn3   v102   gtp1
        BYTE           N92     Cn3   v102   gtp2
        BYTE   W16
        BYTE           N14     Fs2
        BYTE   W16
        BYTE                   Gn2
        BYTE   W16
        BYTE                   An2
        BYTE   W16
        BYTE                   Bn2
        BYTE   W16
        BYTE           N15     Dn3
        BYTE   W16
        BYTE   PEND
// 065   ----------------------------------------
TwilightOfTheGods_2_1_65:
        BYTE           N14     Fs3   v102
        BYTE           N14     Bn3
        BYTE   W16
        BYTE                   Dn3
        BYTE           N14     An3
        BYTE   W16
        BYTE                   An2
        BYTE           N14     Gn3
        BYTE   W16
        BYTE                   Dn3
        BYTE           N14     An3
        BYTE   W16
        BYTE                   An2
        BYTE           N14     Fs3
        BYTE   W16
        BYTE                   Fs2
        BYTE           N14     Dn3
        BYTE   W16
        BYTE   PEND
// 066   ----------------------------------------
        BYTE   PATT
         POIN2  TwilightOfTheGods_2_1_12
// 067   ----------------------------------------
        BYTE           N92     Fs3   v102   gtp3
        BYTE   W96
// 068   ----------------------------------------
        BYTE                   Gn3
        BYTE   W96
// 069   ----------------------------------------
TwilightOfTheGods_2_1_69:
        BYTE           N14     En4   v102
        BYTE   W16
        BYTE                   Dn4
        BYTE   W16
        BYTE                   An3
        BYTE   W16
        BYTE                   Bn3
        BYTE   W16
        BYTE                   An3
        BYTE   W16
        BYTE                   Dn4
        BYTE   W15
        BYTE           EOT     En3
        BYTE   W01
        BYTE   PEND
// 070   ----------------------------------------
        BYTE                   Bn2
        BYTE           TIE     En3
        BYTE           TIE     Bn2
        BYTE           N92     Bn3   v102   gtp3
        BYTE           N84     En4   v102   gtp2
        BYTE   W96
// 071   ----------------------------------------
        BYTE   PATT
         POIN2  TwilightOfTheGods_2_1_17
// 072   ----------------------------------------
        BYTE   PATT
         POIN2  TwilightOfTheGods_2_1_18
// 073   ----------------------------------------
        BYTE   PATT
         POIN2  TwilightOfTheGods_2_1_19
// 074   ----------------------------------------
        BYTE   PATT
         POIN2  TwilightOfTheGods_2_1_20
// 075   ----------------------------------------
        BYTE   PATT
         POIN2  TwilightOfTheGods_2_1_21
// 076   ----------------------------------------
        BYTE   PATT
         POIN2  TwilightOfTheGods_2_1_22
// 077   ----------------------------------------
        BYTE   PATT
         POIN2  TwilightOfTheGods_2_1_23
// 078   ----------------------------------------
        BYTE   PATT
         POIN2  TwilightOfTheGods_2_1_24
// 079   ----------------------------------------
        BYTE   PATT
         POIN2  TwilightOfTheGods_2_1_25
// 080   ----------------------------------------
        BYTE   PATT
         POIN2  TwilightOfTheGods_2_1_26
// 081   ----------------------------------------
        BYTE   PATT
         POIN2  TwilightOfTheGods_2_1_27
// 082   ----------------------------------------
        BYTE   PATT
         POIN2  TwilightOfTheGods_2_1_28
// 083   ----------------------------------------
        BYTE   PATT
         POIN2  TwilightOfTheGods_2_1_29
// 084   ----------------------------------------
        BYTE   PATT
         POIN2  TwilightOfTheGods_2_1_30
// 085   ----------------------------------------
        BYTE   PATT
         POIN2  TwilightOfTheGods_2_1_31
// 086   ----------------------------------------
        BYTE   PATT
         POIN2  TwilightOfTheGods_2_1_38
// 087   ----------------------------------------
        BYTE   PATT
         POIN2  TwilightOfTheGods_2_1_17
// 088   ----------------------------------------
        BYTE   PATT
         POIN2  TwilightOfTheGods_2_1_18
// 089   ----------------------------------------
        BYTE   PATT
         POIN2  TwilightOfTheGods_2_1_19
// 090   ----------------------------------------
        BYTE   PATT
         POIN2  TwilightOfTheGods_2_1_20
// 091   ----------------------------------------
        BYTE   PATT
         POIN2  TwilightOfTheGods_2_1_21
// 092   ----------------------------------------
        BYTE   PATT
         POIN2  TwilightOfTheGods_2_1_22
// 093   ----------------------------------------
        BYTE   PATT
         POIN2  TwilightOfTheGods_2_1_45
// 094   ----------------------------------------
        BYTE   PATT
         POIN2  TwilightOfTheGods_2_1_24
// 095   ----------------------------------------
        BYTE   PATT
         POIN2  TwilightOfTheGods_2_1_25
// 096   ----------------------------------------
        BYTE   PATT
         POIN2  TwilightOfTheGods_2_1_48
// 097   ----------------------------------------
        BYTE   PATT
         POIN2  TwilightOfTheGods_2_1_49
// 098   ----------------------------------------
        BYTE   PATT
         POIN2  TwilightOfTheGods_2_1_28
// 099   ----------------------------------------
        BYTE   PATT
         POIN2  TwilightOfTheGods_2_1_29
// 100   ----------------------------------------
        BYTE   PATT
         POIN2  TwilightOfTheGods_2_1_52
// 101   ----------------------------------------
        BYTE   PATT
         POIN2  TwilightOfTheGods_2_1_53
// 102   ----------------------------------------
        BYTE   PATT
         POIN2  TwilightOfTheGods_2_1_54
// 103   ----------------------------------------
        BYTE   PATT
         POIN2  TwilightOfTheGods_2_1_55
// 104   ----------------------------------------
        BYTE   PATT
         POIN2  TwilightOfTheGods_2_1_56
// 105   ----------------------------------------
        BYTE   PATT
         POIN2  TwilightOfTheGods_2_1_57
// 106   ----------------------------------------
        BYTE   PATT
         POIN2  TwilightOfTheGods_2_1_58
// 107   ----------------------------------------
        BYTE   PATT
         POIN2  TwilightOfTheGods_2_1_59
// 108   ----------------------------------------
        BYTE   PATT
         POIN2  TwilightOfTheGods_2_1_60
// 109   ----------------------------------------
        BYTE   PATT
         POIN2  TwilightOfTheGods_2_1_61
// 110   ----------------------------------------
        BYTE   PATT
         POIN2  TwilightOfTheGods_2_1_62
// 111   ----------------------------------------
        BYTE   PATT
         POIN2  TwilightOfTheGods_2_1_9
// 112   ----------------------------------------
        BYTE   PATT
         POIN2  TwilightOfTheGods_2_1_64
// 113   ----------------------------------------
        BYTE   PATT
         POIN2  TwilightOfTheGods_2_1_65
// 114   ----------------------------------------
        BYTE   PATT
         POIN2  TwilightOfTheGods_2_1_12
// 115   ----------------------------------------
        BYTE           N92     Fs3   v102   gtp3
        BYTE   W96
// 116   ----------------------------------------
        BYTE                   Gn3
        BYTE   W96
// 117   ----------------------------------------
        BYTE   PATT
         POIN2  TwilightOfTheGods_2_1_69
// 118   ----------------------------------------
        BYTE           EOT     Bn2
        BYTE   GoTo
         POIN2  TwilightOfTheGods_2_1_LOOP
        BYTE   FINE

//****************** Track 2 (Midi-Chn.2) ******************//

TwilightOfTheGods_2_2:
        BYTE   KEYSH   TwilightOfTheGods_2_key+0
// 000   ----------------------------------------
        BYTE           PAN     c_v-26
        BYTE           VOICE   0
        BYTE           VOL     49
        BYTE           N90     En2   v114
        BYTE           N90     En1   v112
        BYTE           N90     Bn1   v109
        BYTE   W92
        BYTE   W03
        BYTE           VOICE   1
        BYTE   W01
// 001   ----------------------------------------
        BYTE           N96     Dn3
        BYTE           N96     Bn2
        BYTE   W96
// 002   ----------------------------------------
        BYTE   W96
// 003   ----------------------------------------
        BYTE   W92
        BYTE   W03
        BYTE           VOICE   0
        BYTE   W01
// 004   ----------------------------------------
        BYTE           N90     Cn2
        BYTE           N90     En1
        BYTE   W96
// 005   ----------------------------------------
        BYTE           VOICE   1
        BYTE           N72     Gn2
        BYTE           N72     Bn2
        BYTE   W96
// 006   ----------------------------------------
        BYTE   W96
// 007   ----------------------------------------
        BYTE   W92
        BYTE   W03
        BYTE           VOICE   0
        BYTE   W01
// 008   ----------------------------------------
        BYTE           N90     Gn2   v104
        BYTE           N90     An1   v109
        BYTE   W96
// 009   ----------------------------------------
        BYTE           VOICE   1
        BYTE           N48     Gn2   v094
        BYTE           N48     Bn2
        BYTE   W96
// 010   ----------------------------------------
        BYTE   W96
// 011   ----------------------------------------
        BYTE   W90
        BYTE   W01
        BYTE           VOICE   0
        BYTE   W05
// 012   ----------------------------------------
        BYTE           N90     Gn2   v102
        BYTE           N90     Bn1
        BYTE   W92
        BYTE   W03
        BYTE           VOICE   1
        BYTE   W01
// 013   ----------------------------------------
        BYTE           N48     Bn2   v094
        BYTE           N48     Fs2
        BYTE   W96
// 014   ----------------------------------------
        BYTE   W96
// 015   ----------------------------------------
        BYTE   W96
// 016   ----------------------------------------
TwilightOfTheGods_2_2_LOOP:
        BYTE           VOICE   0
        BYTE           N72     En2   v112
        BYTE           N72     Bn1
        BYTE           N72     En1
        BYTE   W96
// 017   ----------------------------------------
        BYTE   W96
// 018   ----------------------------------------
        BYTE   W96
// 019   ----------------------------------------
        BYTE   W96
// 020   ----------------------------------------
        BYTE   W96
// 021   ----------------------------------------
        BYTE   W96
// 022   ----------------------------------------
        BYTE   W96
// 023   ----------------------------------------
        BYTE   W96
// 024   ----------------------------------------
        BYTE   W96
// 025   ----------------------------------------
        BYTE   W96
// 026   ----------------------------------------
        BYTE   W96
// 027   ----------------------------------------
        BYTE   W96
// 028   ----------------------------------------
        BYTE   W96
// 029   ----------------------------------------
        BYTE   W96
// 030   ----------------------------------------
        BYTE   W96
// 031   ----------------------------------------
        BYTE   W92
        BYTE   W03
        BYTE           VOICE   5
        BYTE   W01
// 032   ----------------------------------------
        BYTE           N12     En1   v100
        BYTE           N12     Bn2   v104
        BYTE           N12     Bn1   v100
        BYTE   W06
        BYTE           N06     En3   v104
        BYTE   W06
        BYTE                   Fs3
        BYTE   W06
        BYTE                   Gn3
        BYTE   W06
        BYTE                   Dn4
        BYTE   W06
        BYTE                   An3
        BYTE   W06
        BYTE                   Gn3
        BYTE   W06
        BYTE                   Fs3
        BYTE   W06
        BYTE                   Gn3
        BYTE   W06
        BYTE                   Fs3
        BYTE   W06
        BYTE                   En3
        BYTE   W06
        BYTE                   Fs3
        BYTE   W06
        BYTE                   En3
        BYTE   W06
        BYTE                   An2
        BYTE   W06
        BYTE                   En3
        BYTE   W06
        BYTE                   Fs3
        BYTE   W06
// 033   ----------------------------------------
TwilightOfTheGods_2_2_33:
        BYTE           N06     Bn2   v104
        BYTE   W06
        BYTE                   Fs3
        BYTE   W06
        BYTE                   Gn3
        BYTE   W06
        BYTE                   An2
        BYTE   W06
        BYTE                   Gn3
        BYTE   W06
        BYTE                   Gn3
        BYTE   W06
        BYTE                   Fs3
        BYTE   W06
        BYTE                   Dn3
        BYTE   W06
        BYTE           N12     En1   v100
        BYTE           N06     Bn2   v104
        BYTE   W06
        BYTE                   En3
        BYTE   W06
        BYTE                   Fs3
        BYTE   W06
        BYTE                   Gn3
        BYTE   W06
        BYTE                   Dn4
        BYTE   W06
        BYTE                   An3
        BYTE   W06
        BYTE                   Gn3
        BYTE   W06
        BYTE                   Fs3
        BYTE   W06
        BYTE   PEND
// 034   ----------------------------------------
        BYTE                   Gn3
        BYTE   W06
        BYTE                   Fs3
        BYTE   W06
        BYTE                   En3
        BYTE   W06
        BYTE                   Fs3
        BYTE   W06
        BYTE                   En3
        BYTE   W06
        BYTE                   An2
        BYTE   W06
        BYTE                   En3
        BYTE   W06
        BYTE                   Fs3
        BYTE   W06
        BYTE                   Bn2
        BYTE   W06
        BYTE                   Fs3
        BYTE   W06
        BYTE                   Gn3
        BYTE   W06
        BYTE                   An2
        BYTE   W06
        BYTE                   Gn3
        BYTE   W06
        BYTE                   Gn3
        BYTE   W06
        BYTE                   Fs3
        BYTE   W06
        BYTE                   Dn3
        BYTE   W06
// 035   ----------------------------------------
        BYTE           N12     En1   v100
        BYTE           N06     Bn2   v104
        BYTE   W06
        BYTE                   En3
        BYTE   W06
        BYTE                   Fs3
        BYTE   W06
        BYTE                   Gn3
        BYTE   W06
        BYTE                   Dn4
        BYTE   W06
        BYTE                   An3
        BYTE   W06
        BYTE                   Gn3
        BYTE   W06
        BYTE                   Fs3
        BYTE   W06
        BYTE                   Gn3
        BYTE   W06
        BYTE                   Fs3
        BYTE   W06
        BYTE                   En3
        BYTE   W06
        BYTE                   Fs3
        BYTE   W06
        BYTE                   En3
        BYTE   W06
        BYTE                   An2
        BYTE   W06
        BYTE                   En3
        BYTE   W06
        BYTE                   Fs3
        BYTE   W06
// 036   ----------------------------------------
        BYTE   PATT
         POIN2  TwilightOfTheGods_2_2_33
// 037   ----------------------------------------
        BYTE           N06     Gn3   v104
        BYTE   W06
        BYTE                   Fs3
        BYTE   W06
        BYTE                   En3
        BYTE   W06
        BYTE                   Fs3
        BYTE   W06
        BYTE                   Fs5
        BYTE   W06
        BYTE                   An4
        BYTE   W06
        BYTE                   Dn5
        BYTE   W06
        BYTE                   Dn4
        BYTE   W06
        BYTE                   En4
        BYTE   W06
        BYTE                   An3
        BYTE   W06
        BYTE                   Dn4
        BYTE   W06
        BYTE                   Gn3
        BYTE   W06
        BYTE                   Fs3
        BYTE   W06
        BYTE                   An2
        BYTE   W06
        BYTE                   Gn2
        BYTE   W06
        BYTE                   Dn2
        BYTE   W05
        BYTE           VOICE   0
        BYTE   W01
// 038   ----------------------------------------
TwilightOfTheGods_2_2_38:
        BYTE           N72     En2   v112
        BYTE           N72     Bn1
        BYTE           N72     En1
        BYTE   W96
        BYTE   PEND
// 039   ----------------------------------------
        BYTE   W96
// 040   ----------------------------------------
        BYTE   W96
// 041   ----------------------------------------
        BYTE   W96
// 042   ----------------------------------------
        BYTE   W96
// 043   ----------------------------------------
        BYTE   W96
// 044   ----------------------------------------
        BYTE   W96
// 045   ----------------------------------------
        BYTE   W96
// 046   ----------------------------------------
        BYTE   W96
// 047   ----------------------------------------
        BYTE   W96
// 048   ----------------------------------------
        BYTE   W96
// 049   ----------------------------------------
        BYTE   W92
        BYTE   W03
        BYTE           VOICE   18
        BYTE   W01
// 050   ----------------------------------------
TwilightOfTheGods_2_2_50:
        BYTE           N42     An4   v100   gtp1
        BYTE   W48
        BYTE           N84     Gn4   v100   gtp2
        BYTE   W48
        BYTE   PEND
// 051   ----------------------------------------
TwilightOfTheGods_2_2_51:
        BYTE   W48
        BYTE           N14     En4   v100
        BYTE   W16
        BYTE                   Fs4
        BYTE   W16
        BYTE                   Gn4
        BYTE   W16
        BYTE   PEND
// 052   ----------------------------------------
TwilightOfTheGods_2_2_52:
        BYTE           N42     Fs4   v100   gtp1
        BYTE   W48
        BYTE                   En4
        BYTE   W48
        BYTE   PEND
// 053   ----------------------------------------
TwilightOfTheGods_2_2_53:
        BYTE           N03     Fs3   v100
        BYTE   W04
        BYTE                   Gn3
        BYTE   W04
        BYTE                   An3
        BYTE   W04
        BYTE                   Bn3
        BYTE   W04
        BYTE                   Gn3
        BYTE   W04
        BYTE                   An3
        BYTE   W04
        BYTE                   Bn3
        BYTE   W04
        BYTE                   Cn4
        BYTE   W04
        BYTE                   An3
        BYTE   W04
        BYTE                   Bn3
        BYTE   W04
        BYTE                   Cn4
        BYTE   W04
        BYTE                   Dn4
        BYTE   W04
        BYTE                   Bn3
        BYTE   W04
        BYTE                   Cn4
        BYTE   W04
        BYTE                   Dn4
        BYTE   W04
        BYTE                   En4
        BYTE   W04
        BYTE                   Cn4
        BYTE   W04
        BYTE                   Dn4
        BYTE   W04
        BYTE                   En4
        BYTE   W04
        BYTE                   Fs4
        BYTE   W04
        BYTE                   Dn4
        BYTE   W04
        BYTE                   En4
        BYTE   W04
        BYTE                   Fs4
        BYTE   W04
        BYTE                   An4
        BYTE   W04
        BYTE   PEND
// 054   ----------------------------------------
TwilightOfTheGods_2_2_54:
        BYTE           N07     En4   v100
        BYTE   W16
        BYTE                   Gn4
        BYTE   W08
        BYTE                   Fs4
        BYTE   W08
        BYTE                   Gn4
        BYTE   W08
        BYTE                   Fs4
        BYTE   W08
        BYTE                   En4
        BYTE   W16
        BYTE                   Gn4
        BYTE   W08
        BYTE                   Fs4
        BYTE   W08
        BYTE                   Gn4
        BYTE   W08
        BYTE                   Fs4
        BYTE   W08
        BYTE   PEND
// 055   ----------------------------------------
TwilightOfTheGods_2_2_55:
        BYTE           N07     En4   v100
        BYTE   W16
        BYTE                   Gn4
        BYTE   W08
        BYTE                   Fs4
        BYTE   W08
        BYTE                   Gn4
        BYTE   W08
        BYTE                   Fs4
        BYTE   W08
        BYTE                   En4
        BYTE   W08
        BYTE                   Fs4
        BYTE   W08
        BYTE                   Gn4
        BYTE   W08
        BYTE                   An4
        BYTE   W08
        BYTE                   Gn4
        BYTE   W08
        BYTE                   Fs4
        BYTE   W08
        BYTE   PEND
// 056   ----------------------------------------
        BYTE   PATT
         POIN2  TwilightOfTheGods_2_2_54
// 057   ----------------------------------------
        BYTE   PATT
         POIN2  TwilightOfTheGods_2_2_55
// 058   ----------------------------------------
TwilightOfTheGods_2_2_58:
        BYTE           N07     En5   v100
        BYTE           N07     En4
        BYTE   W16
        BYTE                   Gn5
        BYTE           N07     Gn4
        BYTE   W08
        BYTE                   Fs5
        BYTE           N07     Fs4
        BYTE   W08
        BYTE                   Gn5
        BYTE           N07     Gn4
        BYTE   W08
        BYTE                   Fs5
        BYTE           N07     Fs4
        BYTE   W08
        BYTE                   En5
        BYTE           N07     En4
        BYTE   W16
        BYTE                   Gn5
        BYTE           N07     Gn4
        BYTE   W08
        BYTE                   Fs5
        BYTE           N07     Fs4
        BYTE   W08
        BYTE                   Gn5
        BYTE           N07     Gn4
        BYTE   W08
        BYTE                   Fs5
        BYTE           N07     Fs4
        BYTE   W08
        BYTE   PEND
// 059   ----------------------------------------
TwilightOfTheGods_2_2_59:
        BYTE           N07     En5   v100
        BYTE           N07     En4
        BYTE   W16
        BYTE                   Gn5
        BYTE           N07     Gn4
        BYTE   W08
        BYTE                   Fs5
        BYTE           N07     Fs4
        BYTE   W08
        BYTE                   Gn5
        BYTE           N07     Gn4
        BYTE   W08
        BYTE                   Fs5
        BYTE           N07     Fs4
        BYTE   W08
        BYTE                   En5
        BYTE           N07     En4
        BYTE   W08
        BYTE                   Fs5
        BYTE           N07     Fs4
        BYTE   W08
        BYTE                   Gn5
        BYTE           N07     Gn4
        BYTE   W08
        BYTE                   An5
        BYTE           N07     An4
        BYTE   W08
        BYTE                   Gn5
        BYTE           N07     Gn4
        BYTE   W08
        BYTE                   Fs5
        BYTE           N07     Fs4
        BYTE   W08
        BYTE   PEND
// 060   ----------------------------------------
TwilightOfTheGods_2_2_60:
        BYTE           N07     En4   v100
        BYTE           N07     En5
        BYTE   W16
        BYTE                   Gn4
        BYTE           N07     Gn5
        BYTE   W08
        BYTE                   Fs4
        BYTE           N07     Fs5
        BYTE   W08
        BYTE                   Gn4
        BYTE           N07     Gn5
        BYTE   W08
        BYTE                   Fs4
        BYTE           N07     Fs5
        BYTE   W08
        BYTE                   En4
        BYTE           N07     En5
        BYTE   W16
        BYTE                   Gn4
        BYTE           N07     Gn5
        BYTE   W08
        BYTE                   Fs4
        BYTE           N07     Fs5
        BYTE   W08
        BYTE                   Gn4
        BYTE           N07     Gn5
        BYTE   W08
        BYTE                   Fs4
        BYTE           N07     Fs5
        BYTE   W08
        BYTE   PEND
// 061   ----------------------------------------
TwilightOfTheGods_2_2_61:
        BYTE           N07     En4   v100
        BYTE           N07     En5
        BYTE   W16
        BYTE                   Gn4
        BYTE           N07     Gn5
        BYTE   W08
        BYTE                   Fs4
        BYTE           N07     Fs5
        BYTE   W08
        BYTE                   Gn4
        BYTE           N07     Gn5
        BYTE   W08
        BYTE                   Fs4
        BYTE           N07     Fs5
        BYTE   W08
        BYTE                   En4
        BYTE           N07     En5
        BYTE   W08
        BYTE                   Fs4
        BYTE           N07     Fs5
        BYTE   W08
        BYTE                   Gn4
        BYTE           N07     Gn5
        BYTE   W08
        BYTE                   An4
        BYTE           N07     An5
        BYTE   W08
        BYTE                   Gn4
        BYTE           N07     Gn5
        BYTE   W08
        BYTE                   Fs4
        BYTE           N07     Fs5
        BYTE   W08
        BYTE   PEND
// 062   ----------------------------------------
        BYTE   W96
// 063   ----------------------------------------
        BYTE   W96
// 064   ----------------------------------------
        BYTE   W96
// 065   ----------------------------------------
        BYTE   W96
// 066   ----------------------------------------
TwilightOfTheGods_2_2_66:
        BYTE           N06     En4   v094
        BYTE   W16
        BYTE                   Gn4
        BYTE   W08
        BYTE                   Fs4
        BYTE   W08
        BYTE                   Gn4
        BYTE   W08
        BYTE                   Fs4
        BYTE   W08
        BYTE                   En4
        BYTE   W16
        BYTE                   Gn4
        BYTE   W08
        BYTE                   Fs4
        BYTE   W08
        BYTE                   Gn4
        BYTE   W08
        BYTE                   Fs4
        BYTE   W08
        BYTE   PEND
// 067   ----------------------------------------
TwilightOfTheGods_2_2_67:
        BYTE           N06     En4   v094
        BYTE   W16
        BYTE                   Gn4
        BYTE   W08
        BYTE                   Fs4
        BYTE   W08
        BYTE                   Gn4
        BYTE   W08
        BYTE                   Fs4
        BYTE   W08
        BYTE                   En4
        BYTE   W08
        BYTE                   Fs4
        BYTE   W08
        BYTE                   Gn4
        BYTE   W08
        BYTE                   An4
        BYTE   W08
        BYTE                   Gn4
        BYTE   W08
        BYTE                   Fs4
        BYTE   W08
        BYTE   PEND
// 068   ----------------------------------------
        BYTE   PATT
         POIN2  TwilightOfTheGods_2_2_66
// 069   ----------------------------------------
        BYTE   PATT
         POIN2  TwilightOfTheGods_2_2_67
// 070   ----------------------------------------
        BYTE   PATT
         POIN2  TwilightOfTheGods_2_2_38
// 071   ----------------------------------------
        BYTE   W96
// 072   ----------------------------------------
        BYTE   W96
// 073   ----------------------------------------
        BYTE   W96
// 074   ----------------------------------------
        BYTE   W96
// 075   ----------------------------------------
        BYTE   W96
// 076   ----------------------------------------
        BYTE   W96
// 077   ----------------------------------------
        BYTE   W96
// 078   ----------------------------------------
        BYTE   W96
// 079   ----------------------------------------
        BYTE   W96
// 080   ----------------------------------------
        BYTE   W96
// 081   ----------------------------------------
        BYTE   W96
// 082   ----------------------------------------
        BYTE   W96
// 083   ----------------------------------------
        BYTE   W96
// 084   ----------------------------------------
        BYTE   W96
// 085   ----------------------------------------
        BYTE   W96
// 086   ----------------------------------------
        BYTE   PATT
         POIN2  TwilightOfTheGods_2_2_38
// 087   ----------------------------------------
        BYTE   W96
// 088   ----------------------------------------
        BYTE   W96
// 089   ----------------------------------------
        BYTE   W96
// 090   ----------------------------------------
        BYTE   W96
// 091   ----------------------------------------
        BYTE   W96
// 092   ----------------------------------------
        BYTE   W96
// 093   ----------------------------------------
        BYTE   W96
// 094   ----------------------------------------
        BYTE   W96
// 095   ----------------------------------------
        BYTE   W96
// 096   ----------------------------------------
        BYTE   W96
// 097   ----------------------------------------
        BYTE   W96
// 098   ----------------------------------------
        BYTE   PATT
         POIN2  TwilightOfTheGods_2_2_50
// 099   ----------------------------------------
        BYTE   PATT
         POIN2  TwilightOfTheGods_2_2_51
// 100   ----------------------------------------
        BYTE   PATT
         POIN2  TwilightOfTheGods_2_2_52
// 101   ----------------------------------------
        BYTE   PATT
         POIN2  TwilightOfTheGods_2_2_53
// 102   ----------------------------------------
        BYTE   PATT
         POIN2  TwilightOfTheGods_2_2_54
// 103   ----------------------------------------
        BYTE   PATT
         POIN2  TwilightOfTheGods_2_2_55
// 104   ----------------------------------------
        BYTE   PATT
         POIN2  TwilightOfTheGods_2_2_54
// 105   ----------------------------------------
        BYTE   PATT
         POIN2  TwilightOfTheGods_2_2_55
// 106   ----------------------------------------
        BYTE   PATT
         POIN2  TwilightOfTheGods_2_2_58
// 107   ----------------------------------------
        BYTE   PATT
         POIN2  TwilightOfTheGods_2_2_59
// 108   ----------------------------------------
        BYTE   PATT
         POIN2  TwilightOfTheGods_2_2_60
// 109   ----------------------------------------
        BYTE   PATT
         POIN2  TwilightOfTheGods_2_2_61
// 110   ----------------------------------------
        BYTE   W96
// 111   ----------------------------------------
        BYTE   W96
// 112   ----------------------------------------
        BYTE   W96
// 113   ----------------------------------------
        BYTE   W96
// 114   ----------------------------------------
        BYTE   PATT
         POIN2  TwilightOfTheGods_2_2_66
// 115   ----------------------------------------
        BYTE   PATT
         POIN2  TwilightOfTheGods_2_2_67
// 116   ----------------------------------------
        BYTE   PATT
         POIN2  TwilightOfTheGods_2_2_66
// 117   ----------------------------------------
        BYTE   PATT
         POIN2  TwilightOfTheGods_2_2_67
// 118   ----------------------------------------
        BYTE           VOICE   0
        BYTE   GoTo
         POIN2  TwilightOfTheGods_2_2_LOOP
        BYTE   FINE

//****************** Track 3 (Midi-Chn.3) ******************//

TwilightOfTheGods_2_3:
        BYTE   KEYSH   TwilightOfTheGods_2_key+0
// 000   ----------------------------------------
        BYTE           VOICE   101
        BYTE           PAN     c_v-13
        BYTE           VOL     52
        BYTE           N06     Bn2   v108
        BYTE   W16
        BYTE                   Bn2   v080
        BYTE   W08
        BYTE                   Bn2   v092
        BYTE   W08
        BYTE                   Bn2   v080
        BYTE   W08
        BYTE                   Bn2   v092
        BYTE   W08
        BYTE           N10     Bn2   v108
        BYTE   W16
        BYTE           N06     Bn2   v080
        BYTE   W08
        BYTE                   Bn2   v092
        BYTE   W08
        BYTE                   Bn2   v080
        BYTE   W08
        BYTE                   Bn2   v092
        BYTE   W08
// 001   ----------------------------------------
TwilightOfTheGods_2_3_1:
        BYTE           N06     An2   v108
        BYTE   W16
        BYTE                   An2   v080
        BYTE   W08
        BYTE                   An2   v092
        BYTE   W08
        BYTE                   An2   v080
        BYTE   W08
        BYTE                   An2   v092
        BYTE   W08
        BYTE                   An2
        BYTE   W08
        BYTE                   Bn2
        BYTE   W08
        BYTE                   Cn3
        BYTE   W08
        BYTE                   Dn3
        BYTE   W08
        BYTE                   Cn3
        BYTE   W08
        BYTE                   Bn2
        BYTE   W08
        BYTE   PEND
// 002   ----------------------------------------
TwilightOfTheGods_2_3_2:
        BYTE           N06     Gn2   v080
        BYTE   W16
        BYTE                   Gn2   v108
        BYTE   W08
        BYTE                   Gn2   v092
        BYTE   W08
        BYTE                   Gn2   v108
        BYTE   W08
        BYTE                   Gn2   v092
        BYTE   W08
        BYTE           N10
        BYTE   W16
        BYTE           N06     Gn2   v108
        BYTE   W08
        BYTE                   Gn2   v092
        BYTE   W08
        BYTE                   Gn2   v108
        BYTE   W08
        BYTE                   Gn2   v092
        BYTE   W08
        BYTE   PEND
// 003   ----------------------------------------
TwilightOfTheGods_2_3_3:
        BYTE           N06     Fs2   v108
        BYTE   W16
        BYTE                   Fs2
        BYTE   W08
        BYTE                   Fs2   v092
        BYTE   W08
        BYTE                   Fs2   v108
        BYTE   W08
        BYTE                   Fs2   v092
        BYTE   W08
        BYTE                   Fs2
        BYTE   W08
        BYTE                   Gn2
        BYTE   W08
        BYTE                   An2
        BYTE   W08
        BYTE                   Bn2
        BYTE   W08
        BYTE                   Gn2
        BYTE   W08
        BYTE                   Fs2
        BYTE   W08
        BYTE   PEND
// 004   ----------------------------------------
TwilightOfTheGods_2_3_4:
        BYTE           N06     En2   v108
        BYTE   W16
        BYTE                   En2   v080
        BYTE   W08
        BYTE                   En2   v092
        BYTE   W08
        BYTE                   En2   v080
        BYTE   W08
        BYTE                   En2   v092
        BYTE   W08
        BYTE           N10     En2   v108
        BYTE   W16
        BYTE           N06     En2   v080
        BYTE   W08
        BYTE                   En2   v092
        BYTE   W08
        BYTE                   En2   v080
        BYTE   W08
        BYTE                   En2   v092
        BYTE   W08
        BYTE   PEND
// 005   ----------------------------------------
        BYTE   PATT
         POIN2  TwilightOfTheGods_2_3_3
// 006   ----------------------------------------
        BYTE   PATT
         POIN2  TwilightOfTheGods_2_3_2
// 007   ----------------------------------------
TwilightOfTheGods_2_3_7:
        BYTE           N06     An2   v108
        BYTE   W16
        BYTE                   An2
        BYTE   W08
        BYTE                   An2   v092
        BYTE   W08
        BYTE                   An2   v108
        BYTE   W08
        BYTE                   An2   v092
        BYTE   W08
        BYTE                   An2
        BYTE   W08
        BYTE                   Bn2
        BYTE   W08
        BYTE                   Cn3
        BYTE   W08
        BYTE                   Dn3
        BYTE   W08
        BYTE                   Cn3
        BYTE   W08
        BYTE                   Bn2
        BYTE   W08
        BYTE   PEND
// 008   ----------------------------------------
TwilightOfTheGods_2_3_8:
        BYTE           N06     Bn2   v108
        BYTE   W16
        BYTE                   Bn2   v080
        BYTE   W08
        BYTE                   Bn2   v092
        BYTE   W08
        BYTE                   Bn2   v080
        BYTE   W08
        BYTE                   Bn2   v092
        BYTE   W08
        BYTE           N10     Bn2   v108
        BYTE   W16
        BYTE           N06     Bn2   v080
        BYTE   W08
        BYTE                   Bn2   v092
        BYTE   W08
        BYTE                   Bn2   v080
        BYTE   W08
        BYTE                   Bn2   v092
        BYTE   W08
        BYTE   PEND
// 009   ----------------------------------------
        BYTE   PATT
         POIN2  TwilightOfTheGods_2_3_1
// 010   ----------------------------------------
        BYTE   PATT
         POIN2  TwilightOfTheGods_2_3_2
// 011   ----------------------------------------
        BYTE   PATT
         POIN2  TwilightOfTheGods_2_3_3
// 012   ----------------------------------------
        BYTE   PATT
         POIN2  TwilightOfTheGods_2_3_4
// 013   ----------------------------------------
        BYTE   PATT
         POIN2  TwilightOfTheGods_2_3_3
// 014   ----------------------------------------
        BYTE   PATT
         POIN2  TwilightOfTheGods_2_3_2
// 015   ----------------------------------------
        BYTE   PATT
         POIN2  TwilightOfTheGods_2_3_7
// 016   ----------------------------------------
TwilightOfTheGods_2_3_LOOP:
        BYTE           N06     Bn2   v108
        BYTE   W16
        BYTE                   Bn2   v080
        BYTE   W08
        BYTE                   Bn2   v092
        BYTE   W08
        BYTE                   Bn2   v080
        BYTE   W08
        BYTE                   Bn2   v092
        BYTE   W08
        BYTE           N10     Bn2   v108
        BYTE   W16
        BYTE           N06     Bn2   v080
        BYTE   W08
        BYTE                   Bn2   v092
        BYTE   W08
        BYTE                   Bn2   v080
        BYTE   W08
        BYTE                   Bn2   v092
        BYTE   W08
// 017   ----------------------------------------
        BYTE   PATT
         POIN2  TwilightOfTheGods_2_3_1
// 018   ----------------------------------------
        BYTE   PATT
         POIN2  TwilightOfTheGods_2_3_2
// 019   ----------------------------------------
        BYTE   PATT
         POIN2  TwilightOfTheGods_2_3_3
// 020   ----------------------------------------
        BYTE   PATT
         POIN2  TwilightOfTheGods_2_3_4
// 021   ----------------------------------------
        BYTE   PATT
         POIN2  TwilightOfTheGods_2_3_3
// 022   ----------------------------------------
        BYTE   PATT
         POIN2  TwilightOfTheGods_2_3_2
// 023   ----------------------------------------
        BYTE   PATT
         POIN2  TwilightOfTheGods_2_3_7
// 024   ----------------------------------------
        BYTE   PATT
         POIN2  TwilightOfTheGods_2_3_8
// 025   ----------------------------------------
        BYTE   PATT
         POIN2  TwilightOfTheGods_2_3_1
// 026   ----------------------------------------
        BYTE   PATT
         POIN2  TwilightOfTheGods_2_3_2
// 027   ----------------------------------------
        BYTE   PATT
         POIN2  TwilightOfTheGods_2_3_3
// 028   ----------------------------------------
        BYTE   PATT
         POIN2  TwilightOfTheGods_2_3_4
// 029   ----------------------------------------
        BYTE   PATT
         POIN2  TwilightOfTheGods_2_3_3
// 030   ----------------------------------------
        BYTE   PATT
         POIN2  TwilightOfTheGods_2_3_2
// 031   ----------------------------------------
        BYTE   PATT
         POIN2  TwilightOfTheGods_2_3_7
// 032   ----------------------------------------
        BYTE   W96
// 033   ----------------------------------------
        BYTE   W96
// 034   ----------------------------------------
        BYTE   W96
// 035   ----------------------------------------
        BYTE   W96
// 036   ----------------------------------------
        BYTE   W96
// 037   ----------------------------------------
        BYTE   W96
// 038   ----------------------------------------
        BYTE   PATT
         POIN2  TwilightOfTheGods_2_3_8
// 039   ----------------------------------------
        BYTE   PATT
         POIN2  TwilightOfTheGods_2_3_1
// 040   ----------------------------------------
        BYTE   PATT
         POIN2  TwilightOfTheGods_2_3_2
// 041   ----------------------------------------
        BYTE   PATT
         POIN2  TwilightOfTheGods_2_3_3
// 042   ----------------------------------------
        BYTE   PATT
         POIN2  TwilightOfTheGods_2_3_4
// 043   ----------------------------------------
        BYTE   PATT
         POIN2  TwilightOfTheGods_2_3_3
// 044   ----------------------------------------
        BYTE   PATT
         POIN2  TwilightOfTheGods_2_3_2
// 045   ----------------------------------------
        BYTE   PATT
         POIN2  TwilightOfTheGods_2_3_7
// 046   ----------------------------------------
        BYTE   PATT
         POIN2  TwilightOfTheGods_2_0_24
// 047   ----------------------------------------
        BYTE   PATT
         POIN2  TwilightOfTheGods_2_0_25
// 048   ----------------------------------------
        BYTE   PATT
         POIN2  TwilightOfTheGods_2_0_26
// 049   ----------------------------------------
        BYTE   PATT
         POIN2  TwilightOfTheGods_2_0_27
// 050   ----------------------------------------
        BYTE   PATT
         POIN2  TwilightOfTheGods_2_0_24
// 051   ----------------------------------------
        BYTE   PATT
         POIN2  TwilightOfTheGods_2_0_25
// 052   ----------------------------------------
        BYTE   PATT
         POIN2  TwilightOfTheGods_2_0_30
// 053   ----------------------------------------
        BYTE           VOICE   55
        BYTE           N14     Fs2   v120
        BYTE   W16
        BYTE                   Gn2
        BYTE   W16
        BYTE                   An2
        BYTE   W16
        BYTE                   Bn2
        BYTE   W16
        BYTE                   Cn3
        BYTE   W16
        BYTE                   Dn3
        BYTE   W16
// 054   ----------------------------------------
        BYTE           N42     En3   v121   gtp1
        BYTE   W96
// 055   ----------------------------------------
        BYTE                   Dn3   v123
        BYTE   W96
// 056   ----------------------------------------
        BYTE                   Cn3   v121
        BYTE   W96
// 057   ----------------------------------------
        BYTE                   Bn2
        BYTE   W96
// 058   ----------------------------------------
        BYTE                   En3
        BYTE   W96
// 059   ----------------------------------------
        BYTE           N42     En3   v123
        BYTE   W96
// 060   ----------------------------------------
        BYTE                   En3   v121
        BYTE   W96
// 061   ----------------------------------------
        BYTE                   En3
        BYTE   W48
        BYTE                   Ds3   v112
        BYTE   W44
        BYTE   W03
        BYTE           VOICE   101
        BYTE   W01
// 062   ----------------------------------------
        BYTE   PATT
         POIN2  TwilightOfTheGods_2_3_8
// 063   ----------------------------------------
        BYTE   PATT
         POIN2  TwilightOfTheGods_2_3_1
// 064   ----------------------------------------
        BYTE   PATT
         POIN2  TwilightOfTheGods_2_3_2
// 065   ----------------------------------------
        BYTE   PATT
         POIN2  TwilightOfTheGods_2_3_3
// 066   ----------------------------------------
        BYTE           TIE     En3   v100
        BYTE   W96
// 067   ----------------------------------------
TwilightOfTheGods_2_3_67:
        BYTE           N92     Fs3   v100   gtp2
        BYTE   W92
        BYTE   W03
        BYTE           EOT     En3
        BYTE   W01
        BYTE   PEND
// 068   ----------------------------------------
TwilightOfTheGods_2_3_68:
        BYTE           N92     Gn3   v100   gtp3
        BYTE           TIE     En4
        BYTE   W96
        BYTE   PEND
// 069   ----------------------------------------
TwilightOfTheGods_2_3_69:
        BYTE           N48     An3   v100
        BYTE   W48
        BYTE           EOT     En4
        BYTE           N42     Ds4
        BYTE           N48     Bn3
        BYTE   W48
        BYTE   PEND
// 070   ----------------------------------------
        BYTE   PATT
         POIN2  TwilightOfTheGods_2_3_8
// 071   ----------------------------------------
        BYTE   PATT
         POIN2  TwilightOfTheGods_2_3_1
// 072   ----------------------------------------
        BYTE   PATT
         POIN2  TwilightOfTheGods_2_3_2
// 073   ----------------------------------------
        BYTE   PATT
         POIN2  TwilightOfTheGods_2_3_3
// 074   ----------------------------------------
        BYTE   PATT
         POIN2  TwilightOfTheGods_2_3_4
// 075   ----------------------------------------
        BYTE   PATT
         POIN2  TwilightOfTheGods_2_3_3
// 076   ----------------------------------------
        BYTE   PATT
         POIN2  TwilightOfTheGods_2_3_2
// 077   ----------------------------------------
        BYTE   PATT
         POIN2  TwilightOfTheGods_2_3_7
// 078   ----------------------------------------
        BYTE   PATT
         POIN2  TwilightOfTheGods_2_3_8
// 079   ----------------------------------------
        BYTE   PATT
         POIN2  TwilightOfTheGods_2_3_1
// 080   ----------------------------------------
        BYTE   PATT
         POIN2  TwilightOfTheGods_2_3_2
// 081   ----------------------------------------
        BYTE   PATT
         POIN2  TwilightOfTheGods_2_3_3
// 082   ----------------------------------------
        BYTE   PATT
         POIN2  TwilightOfTheGods_2_3_4
// 083   ----------------------------------------
        BYTE   PATT
         POIN2  TwilightOfTheGods_2_3_3
// 084   ----------------------------------------
        BYTE   PATT
         POIN2  TwilightOfTheGods_2_3_2
// 085   ----------------------------------------
        BYTE   PATT
         POIN2  TwilightOfTheGods_2_3_7
// 086   ----------------------------------------
        BYTE   PATT
         POIN2  TwilightOfTheGods_2_3_8
// 087   ----------------------------------------
        BYTE   PATT
         POIN2  TwilightOfTheGods_2_3_1
// 088   ----------------------------------------
        BYTE   PATT
         POIN2  TwilightOfTheGods_2_3_2
// 089   ----------------------------------------
        BYTE   PATT
         POIN2  TwilightOfTheGods_2_3_3
// 090   ----------------------------------------
        BYTE   PATT
         POIN2  TwilightOfTheGods_2_3_4
// 091   ----------------------------------------
        BYTE   PATT
         POIN2  TwilightOfTheGods_2_3_3
// 092   ----------------------------------------
        BYTE   PATT
         POIN2  TwilightOfTheGods_2_3_2
// 093   ----------------------------------------
        BYTE   PATT
         POIN2  TwilightOfTheGods_2_3_7
// 094   ----------------------------------------
        BYTE   PATT
         POIN2  TwilightOfTheGods_2_0_24
// 095   ----------------------------------------
        BYTE   PATT
         POIN2  TwilightOfTheGods_2_0_25
// 096   ----------------------------------------
        BYTE   PATT
         POIN2  TwilightOfTheGods_2_0_26
// 097   ----------------------------------------
        BYTE   PATT
         POIN2  TwilightOfTheGods_2_0_27
// 098   ----------------------------------------
        BYTE   PATT
         POIN2  TwilightOfTheGods_2_0_24
// 099   ----------------------------------------
        BYTE   PATT
         POIN2  TwilightOfTheGods_2_0_25
// 100   ----------------------------------------
        BYTE   PATT
         POIN2  TwilightOfTheGods_2_0_30
// 101   ----------------------------------------
        BYTE           N14     Fs2   v120
        BYTE   W16
        BYTE                   Gn2
        BYTE   W16
        BYTE                   An2
        BYTE   W16
        BYTE                   Bn2
        BYTE   W16
        BYTE                   Cn3
        BYTE   W16
        BYTE                   Dn3
        BYTE   W16
// 102   ----------------------------------------
        BYTE           N42     En3   v121   gtp1
        BYTE   W96
// 103   ----------------------------------------
        BYTE                   Dn3   v123
        BYTE   W96
// 104   ----------------------------------------
        BYTE                   Cn3   v121
        BYTE   W96
// 105   ----------------------------------------
        BYTE                   Bn2
        BYTE   W96
// 106   ----------------------------------------
        BYTE                   En3
        BYTE   W96
// 107   ----------------------------------------
        BYTE           N42     En3   v123
        BYTE   W96
// 108   ----------------------------------------
        BYTE                   En3   v121
        BYTE   W96
// 109   ----------------------------------------
        BYTE                   En3
        BYTE   W48
        BYTE                   Ds3   v112
        BYTE   W48
// 110   ----------------------------------------
        BYTE   PATT
         POIN2  TwilightOfTheGods_2_3_8
// 111   ----------------------------------------
        BYTE   PATT
         POIN2  TwilightOfTheGods_2_3_1
// 112   ----------------------------------------
        BYTE   PATT
         POIN2  TwilightOfTheGods_2_3_2
// 113   ----------------------------------------
        BYTE   PATT
         POIN2  TwilightOfTheGods_2_3_3
// 114   ----------------------------------------
        BYTE           TIE     En3   v100
        BYTE   W96
// 115   ----------------------------------------
        BYTE   PATT
         POIN2  TwilightOfTheGods_2_3_67
// 116   ----------------------------------------
        BYTE   PATT
         POIN2  TwilightOfTheGods_2_3_68
// 117   ----------------------------------------
        BYTE   PATT
         POIN2  TwilightOfTheGods_2_3_69
// 118   ----------------------------------------
        BYTE   GoTo
         POIN2  TwilightOfTheGods_2_3_LOOP
        BYTE   FINE

//****************** Track 4 (Midi-Chn.4) ******************//

TwilightOfTheGods_2_4:
        BYTE   KEYSH   TwilightOfTheGods_2_key+0
// 000   ----------------------------------------
        BYTE           VOICE   51
        BYTE           PAN     c_v-13
        BYTE           VOL     49
        BYTE           TIE     En1   v068
        BYTE   W96
// 001   ----------------------------------------
        BYTE   W96
// 002   ----------------------------------------
        BYTE   W96
// 003   ----------------------------------------
        BYTE   W96
// 004   ----------------------------------------
        BYTE           EOT
        BYTE           TIE     Cn1   v080
        BYTE   W96
// 005   ----------------------------------------
        BYTE   W96
// 006   ----------------------------------------
        BYTE   W96
// 007   ----------------------------------------
        BYTE   W96
// 008   ----------------------------------------
        BYTE           EOT
        BYTE           TIE     An0   v096
        BYTE   W96
// 009   ----------------------------------------
        BYTE   W96
// 010   ----------------------------------------
        BYTE   W96
// 011   ----------------------------------------
        BYTE   W96
// 012   ----------------------------------------
        BYTE           EOT
        BYTE           TIE     Bn0
        BYTE   W96
// 013   ----------------------------------------
        BYTE   W96
// 014   ----------------------------------------
        BYTE   W96
// 015   ----------------------------------------
        BYTE   W96
// 016   ----------------------------------------
        BYTE           EOT
TwilightOfTheGods_2_4_LOOP:
        BYTE   W96
// 017   ----------------------------------------
        BYTE   W48
        BYTE           VOICE   58
        BYTE           N21     Gn2   v100
        BYTE   W24
        BYTE                   An2
        BYTE   W24
// 018   ----------------------------------------
TwilightOfTheGods_2_4_18:
        BYTE           N42     Bn2   v100   gtp1
        BYTE   W48
        BYTE                   Gn3
        BYTE   W48
        BYTE   PEND
// 019   ----------------------------------------
        BYTE   PATT
         POIN2  TwilightOfTheGods_2_0_27
// 020   ----------------------------------------
        BYTE   W96
// 021   ----------------------------------------
TwilightOfTheGods_2_4_21:
        BYTE   W48
        BYTE           N21     Gn2   v100
        BYTE   W24
        BYTE                   An2
        BYTE   W24
        BYTE   PEND
// 022   ----------------------------------------
TwilightOfTheGods_2_4_22:
        BYTE           N42     Bn2   v100   gtp1
        BYTE   W48
        BYTE                   En3
        BYTE   W48
        BYTE   PEND
// 023   ----------------------------------------
TwilightOfTheGods_2_4_23:
        BYTE           N42     Ds3   v100   gtp1
        BYTE   W48
        BYTE                   Bn2
        BYTE   W48
        BYTE   PEND
// 024   ----------------------------------------
        BYTE   W96
// 025   ----------------------------------------
TwilightOfTheGods_2_4_25:
        BYTE   W48
        BYTE           N14     En2   v100
        BYTE   W16
        BYTE                   Fs2
        BYTE   W16
        BYTE                   Gn2
        BYTE   W16
        BYTE   PEND
// 026   ----------------------------------------
TwilightOfTheGods_2_4_26:
        BYTE           N42     An2   v100   gtp1
        BYTE   W48
        BYTE                   Gn2
        BYTE   W48
        BYTE   PEND
// 027   ----------------------------------------
TwilightOfTheGods_2_4_27:
        BYTE           N42     Fs2   v100   gtp1
        BYTE   W48
        BYTE                   Dn2
        BYTE   W48
        BYTE   PEND
// 028   ----------------------------------------
        BYTE   W96
// 029   ----------------------------------------
        BYTE   PATT
         POIN2  TwilightOfTheGods_2_4_25
// 030   ----------------------------------------
TwilightOfTheGods_2_4_30:
        BYTE           N42     Fs2   v100   gtp1
        BYTE   W48
        BYTE                   En2
        BYTE   W48
        BYTE   PEND
// 031   ----------------------------------------
        BYTE           N84     Bn1
        BYTE   W92
        BYTE   W03
        BYTE           VOICE   51
        BYTE   W01
// 032   ----------------------------------------
        BYTE           N18     En1
        BYTE   W96
// 033   ----------------------------------------
        BYTE           N12     Gn1
        BYTE   W18
        BYTE           N09     Fs1
        BYTE   W18
        BYTE                   Dn1
        BYTE   W12
        BYTE           N24     En1
        BYTE   W48
// 034   ----------------------------------------
        BYTE   W48
        BYTE           N12     Gn1
        BYTE   W18
        BYTE           N09     Fs1
        BYTE   W18
        BYTE                   Dn1
        BYTE   W12
// 035   ----------------------------------------
        BYTE           N18     En1
        BYTE   W96
// 036   ----------------------------------------
        BYTE           N12     Gn1
        BYTE   W18
        BYTE           N09     Fs1
        BYTE   W18
        BYTE                   Dn1
        BYTE   W12
        BYTE           N18     En1
        BYTE   W48
// 037   ----------------------------------------
        BYTE   W96
// 038   ----------------------------------------
        BYTE           TIE     En2   v082
        BYTE   W96
// 039   ----------------------------------------
TwilightOfTheGods_2_4_39:
        BYTE   W24
        BYTE           EOT     En2
        BYTE           N12     Bn1   v082
        BYTE   W12
        BYTE                   Dn2
        BYTE   W12
        BYTE           N24     En2
        BYTE   W24
        BYTE           N12     Dn2
        BYTE   W12
        BYTE                   An1
        BYTE   W12
        BYTE   PEND
// 040   ----------------------------------------
TwilightOfTheGods_2_4_40:
        BYTE           N66     Gn1   v082
        BYTE   W72
        BYTE           N22
        BYTE   W24
        BYTE   PEND
// 041   ----------------------------------------
TwilightOfTheGods_2_4_41:
        BYTE           N44     An1   v082   gtp2
        BYTE   W48
        BYTE                   Bn1
        BYTE   W48
        BYTE   PEND
// 042   ----------------------------------------
        BYTE           TIE     En2
        BYTE   W96
// 043   ----------------------------------------
        BYTE   PATT
         POIN2  TwilightOfTheGods_2_4_39
// 044   ----------------------------------------
TwilightOfTheGods_2_4_44:
        BYTE           N44     Gn1   v082   gtp2
        BYTE   W48
        BYTE                   En2
        BYTE           N44     Bn1   v082   gtp2
        BYTE   W48
        BYTE   PEND
// 045   ----------------------------------------
TwilightOfTheGods_2_4_45:
        BYTE           N48     En2   v082
        BYTE           N48     Bn1
        BYTE   W48
        BYTE           N44     Ds2   v082   gtp2
        BYTE                   Bn1
        BYTE   W48
        BYTE   PEND
// 046   ----------------------------------------
        BYTE           VOICE   36
        BYTE           N05     Cn2   v108
        BYTE   W16
        BYTE                   Cn2
        BYTE   W08
        BYTE                   Cn2
        BYTE   W08
        BYTE                   Cn2
        BYTE   W08
        BYTE                   Cn2
        BYTE   W08
        BYTE                   Cn2
        BYTE   W16
        BYTE                   Cn2
        BYTE   W08
        BYTE                   Cn2
        BYTE   W08
        BYTE                   Cn2
        BYTE   W08
        BYTE                   Cn2
        BYTE   W08
// 047   ----------------------------------------
TwilightOfTheGods_2_4_47:
        BYTE           N05     Cn2   v108
        BYTE   W16
        BYTE                   Cn2
        BYTE   W08
        BYTE                   Cn2
        BYTE   W08
        BYTE                   Cn2
        BYTE   W08
        BYTE                   Cn2
        BYTE   W08
        BYTE           N11
        BYTE   W16
        BYTE                   Cn2
        BYTE   W16
        BYTE                   Cn2
        BYTE   W16
        BYTE   PEND
// 048   ----------------------------------------
TwilightOfTheGods_2_4_48:
        BYTE           N05     Bn1   v108
        BYTE   W16
        BYTE                   Bn1
        BYTE   W08
        BYTE                   Bn1
        BYTE   W08
        BYTE                   Bn1
        BYTE   W08
        BYTE                   Bn1
        BYTE   W08
        BYTE                   Bn1
        BYTE   W16
        BYTE                   Bn1
        BYTE   W08
        BYTE                   Bn1
        BYTE   W08
        BYTE                   Bn1
        BYTE   W08
        BYTE                   Bn1
        BYTE   W08
        BYTE   PEND
// 049   ----------------------------------------
TwilightOfTheGods_2_4_49:
        BYTE           N05     Bn1   v108
        BYTE   W16
        BYTE                   Bn1
        BYTE   W08
        BYTE                   Bn1
        BYTE   W08
        BYTE                   Bn1
        BYTE   W08
        BYTE                   Bn1
        BYTE   W08
        BYTE           N11
        BYTE   W16
        BYTE                   Bn1
        BYTE   W16
        BYTE                   Bn1
        BYTE   W16
        BYTE   PEND
// 050   ----------------------------------------
TwilightOfTheGods_2_4_50:
        BYTE           N05     Cn2   v108
        BYTE   W16
        BYTE                   Cn2
        BYTE   W08
        BYTE                   Cn2
        BYTE   W08
        BYTE                   Cn2
        BYTE   W08
        BYTE                   Cn2
        BYTE   W08
        BYTE                   Cn2
        BYTE   W16
        BYTE                   Cn2
        BYTE   W08
        BYTE                   Cn2
        BYTE   W08
        BYTE                   Cn2
        BYTE   W08
        BYTE                   Cn2
        BYTE   W08
        BYTE   PEND
// 051   ----------------------------------------
        BYTE   PATT
         POIN2  TwilightOfTheGods_2_4_47
// 052   ----------------------------------------
        BYTE   PATT
         POIN2  TwilightOfTheGods_2_4_48
// 053   ----------------------------------------
TwilightOfTheGods_2_4_53:
        BYTE           N11     Bn1   v108
        BYTE   W16
        BYTE                   Bn1
        BYTE   W16
        BYTE                   Bn1
        BYTE   W16
        BYTE                   Bn1
        BYTE   W16
        BYTE                   Bn1
        BYTE   W16
        BYTE                   Bn1
        BYTE   W16
        BYTE   PEND
// 054   ----------------------------------------
TwilightOfTheGods_2_4_54:
        BYTE           N17     En2   v108
        BYTE   W24
        BYTE           N05
        BYTE   W08
        BYTE                   En2
        BYTE   W08
        BYTE                   En2
        BYTE   W08
        BYTE           N11
        BYTE   W16
        BYTE                   En2
        BYTE   W16
        BYTE                   En2
        BYTE   W16
        BYTE   PEND
// 055   ----------------------------------------
TwilightOfTheGods_2_4_55:
        BYTE           N17     Dn2   v108
        BYTE   W24
        BYTE           N05
        BYTE   W08
        BYTE                   Dn2
        BYTE   W08
        BYTE                   Dn2
        BYTE   W08
        BYTE           N11
        BYTE   W16
        BYTE                   Dn2
        BYTE   W16
        BYTE                   Dn2
        BYTE   W16
        BYTE   PEND
// 056   ----------------------------------------
TwilightOfTheGods_2_4_56:
        BYTE           N17     Cn2   v108
        BYTE   W24
        BYTE           N05
        BYTE   W08
        BYTE                   Cn2
        BYTE   W08
        BYTE                   Cn2
        BYTE   W08
        BYTE           N11
        BYTE   W16
        BYTE                   Cn2
        BYTE   W16
        BYTE                   Cn2
        BYTE   W16
        BYTE   PEND
// 057   ----------------------------------------
TwilightOfTheGods_2_4_57:
        BYTE           N17     Bn1   v108
        BYTE   W24
        BYTE           N05
        BYTE   W08
        BYTE                   Bn1
        BYTE   W08
        BYTE                   Bn1
        BYTE   W08
        BYTE           N11
        BYTE   W16
        BYTE                   Bn1
        BYTE   W16
        BYTE                   Bn1
        BYTE   W16
        BYTE   PEND
// 058   ----------------------------------------
        BYTE   PATT
         POIN2  TwilightOfTheGods_2_4_54
// 059   ----------------------------------------
        BYTE   PATT
         POIN2  TwilightOfTheGods_2_4_55
// 060   ----------------------------------------
        BYTE   PATT
         POIN2  TwilightOfTheGods_2_4_56
// 061   ----------------------------------------
        BYTE   PATT
         POIN2  TwilightOfTheGods_2_4_57
// 062   ----------------------------------------
        BYTE   W96
// 063   ----------------------------------------
        BYTE   W96
// 064   ----------------------------------------
        BYTE   W96
// 065   ----------------------------------------
        BYTE   W96
// 066   ----------------------------------------
        BYTE   W96
// 067   ----------------------------------------
        BYTE   W96
// 068   ----------------------------------------
        BYTE   W96
// 069   ----------------------------------------
        BYTE   W96
// 070   ----------------------------------------
        BYTE   W96
// 071   ----------------------------------------
        BYTE   PATT
         POIN2  TwilightOfTheGods_2_4_21
// 072   ----------------------------------------
        BYTE   PATT
         POIN2  TwilightOfTheGods_2_4_18
// 073   ----------------------------------------
        BYTE   PATT
         POIN2  TwilightOfTheGods_2_0_27
// 074   ----------------------------------------
        BYTE   W96
// 075   ----------------------------------------
        BYTE   PATT
         POIN2  TwilightOfTheGods_2_4_21
// 076   ----------------------------------------
        BYTE   PATT
         POIN2  TwilightOfTheGods_2_4_22
// 077   ----------------------------------------
        BYTE   PATT
         POIN2  TwilightOfTheGods_2_4_23
// 078   ----------------------------------------
        BYTE   W96
// 079   ----------------------------------------
        BYTE   PATT
         POIN2  TwilightOfTheGods_2_4_25
// 080   ----------------------------------------
        BYTE   PATT
         POIN2  TwilightOfTheGods_2_4_26
// 081   ----------------------------------------
        BYTE   PATT
         POIN2  TwilightOfTheGods_2_4_27
// 082   ----------------------------------------
        BYTE   W96
// 083   ----------------------------------------
        BYTE   PATT
         POIN2  TwilightOfTheGods_2_4_25
// 084   ----------------------------------------
        BYTE   PATT
         POIN2  TwilightOfTheGods_2_4_30
// 085   ----------------------------------------
        BYTE           N84     Bn1   v100
        BYTE   W96
// 086   ----------------------------------------
        BYTE           TIE     En2   v082
        BYTE   W96
// 087   ----------------------------------------
        BYTE   PATT
         POIN2  TwilightOfTheGods_2_4_39
// 088   ----------------------------------------
        BYTE   PATT
         POIN2  TwilightOfTheGods_2_4_40
// 089   ----------------------------------------
        BYTE   PATT
         POIN2  TwilightOfTheGods_2_4_41
// 090   ----------------------------------------
        BYTE           TIE     En2   v082
        BYTE   W96
// 091   ----------------------------------------
        BYTE   PATT
         POIN2  TwilightOfTheGods_2_4_39
// 092   ----------------------------------------
        BYTE   PATT
         POIN2  TwilightOfTheGods_2_4_44
// 093   ----------------------------------------
        BYTE   PATT
         POIN2  TwilightOfTheGods_2_4_45
// 094   ----------------------------------------
        BYTE   PATT
         POIN2  TwilightOfTheGods_2_4_50
// 095   ----------------------------------------
        BYTE   PATT
         POIN2  TwilightOfTheGods_2_4_47
// 096   ----------------------------------------
        BYTE   PATT
         POIN2  TwilightOfTheGods_2_4_48
// 097   ----------------------------------------
        BYTE   PATT
         POIN2  TwilightOfTheGods_2_4_49
// 098   ----------------------------------------
        BYTE   PATT
         POIN2  TwilightOfTheGods_2_4_50
// 099   ----------------------------------------
        BYTE   PATT
         POIN2  TwilightOfTheGods_2_4_47
// 100   ----------------------------------------
        BYTE   PATT
         POIN2  TwilightOfTheGods_2_4_48
// 101   ----------------------------------------
        BYTE   PATT
         POIN2  TwilightOfTheGods_2_4_53
// 102   ----------------------------------------
        BYTE   PATT
         POIN2  TwilightOfTheGods_2_4_54
// 103   ----------------------------------------
        BYTE   PATT
         POIN2  TwilightOfTheGods_2_4_55
// 104   ----------------------------------------
        BYTE   PATT
         POIN2  TwilightOfTheGods_2_4_56
// 105   ----------------------------------------
        BYTE   PATT
         POIN2  TwilightOfTheGods_2_4_57
// 106   ----------------------------------------
        BYTE   PATT
         POIN2  TwilightOfTheGods_2_4_54
// 107   ----------------------------------------
        BYTE   PATT
         POIN2  TwilightOfTheGods_2_4_55
// 108   ----------------------------------------
        BYTE   PATT
         POIN2  TwilightOfTheGods_2_4_56
// 109   ----------------------------------------
        BYTE   PATT
         POIN2  TwilightOfTheGods_2_4_57
// 110   ----------------------------------------
        BYTE   W96
// 111   ----------------------------------------
        BYTE   W96
// 112   ----------------------------------------
        BYTE   W96
// 113   ----------------------------------------
        BYTE   W96
// 114   ----------------------------------------
        BYTE   W96
// 115   ----------------------------------------
        BYTE   W96
// 116   ----------------------------------------
        BYTE   W96
// 117   ----------------------------------------
        BYTE   W96
// 118   ----------------------------------------
        BYTE           VOICE   51
        BYTE   GoTo
         POIN2  TwilightOfTheGods_2_4_LOOP
        BYTE   FINE

//****************** Track 5 (Midi-Chn.5) ******************//

TwilightOfTheGods_2_5:
        BYTE   KEYSH   TwilightOfTheGods_2_key+0
// 000   ----------------------------------------
        BYTE           PAN     c_v+11
        BYTE           VOICE   106
        BYTE           VOL     51
        BYTE           N06     En3   v080
        BYTE   W16
        BYTE                   Gn3   v108
        BYTE   W08
        BYTE                   Fs3   v092
        BYTE   W08
        BYTE                   Gn3   v108
        BYTE   W08
        BYTE                   Fs3   v092
        BYTE   W08
        BYTE           N12     En3   v080
        BYTE   W16
        BYTE           N06     Gn3   v108
        BYTE   W08
        BYTE                   Fs3   v092
        BYTE   W08
        BYTE                   Gn3
        BYTE   W08
        BYTE                   Fs3
        BYTE   W08
// 001   ----------------------------------------
TwilightOfTheGods_2_5_1:
        BYTE           N06     En3   v092
        BYTE   W16
        BYTE                   Gn3
        BYTE   W08
        BYTE                   Fs3
        BYTE   W08
        BYTE                   Gn3   v108
        BYTE   W08
        BYTE                   Fs3   v092
        BYTE   W08
        BYTE                   En3
        BYTE   W08
        BYTE                   Fs3
        BYTE   W08
        BYTE                   Gn3
        BYTE   W08
        BYTE                   An3
        BYTE   W08
        BYTE                   Gn3
        BYTE   W08
        BYTE                   Fs3
        BYTE   W08
        BYTE   PEND
// 002   ----------------------------------------
TwilightOfTheGods_2_5_2:
        BYTE           N06     En3   v080
        BYTE   W16
        BYTE                   Gn3   v108
        BYTE   W08
        BYTE                   Fs3   v092
        BYTE   W08
        BYTE                   Gn3   v108
        BYTE   W08
        BYTE                   Fs3   v092
        BYTE   W08
        BYTE           N12     En3   v080
        BYTE   W16
        BYTE           N06     Gn3   v108
        BYTE   W08
        BYTE                   Fs3   v092
        BYTE   W08
        BYTE                   Gn3
        BYTE   W08
        BYTE                   Fs3
        BYTE   W08
        BYTE   PEND
// 003   ----------------------------------------
        BYTE   PATT
         POIN2  TwilightOfTheGods_2_5_1
// 004   ----------------------------------------
        BYTE   PATT
         POIN2  TwilightOfTheGods_2_5_2
// 005   ----------------------------------------
        BYTE   PATT
         POIN2  TwilightOfTheGods_2_5_1
// 006   ----------------------------------------
        BYTE   PATT
         POIN2  TwilightOfTheGods_2_5_2
// 007   ----------------------------------------
        BYTE   PATT
         POIN2  TwilightOfTheGods_2_5_1
// 008   ----------------------------------------
        BYTE   PATT
         POIN2  TwilightOfTheGods_2_5_2
// 009   ----------------------------------------
        BYTE   PATT
         POIN2  TwilightOfTheGods_2_5_1
// 010   ----------------------------------------
        BYTE   PATT
         POIN2  TwilightOfTheGods_2_5_2
// 011   ----------------------------------------
        BYTE   PATT
         POIN2  TwilightOfTheGods_2_5_1
// 012   ----------------------------------------
        BYTE   PATT
         POIN2  TwilightOfTheGods_2_5_2
// 013   ----------------------------------------
        BYTE   PATT
         POIN2  TwilightOfTheGods_2_5_1
// 014   ----------------------------------------
        BYTE   PATT
         POIN2  TwilightOfTheGods_2_5_2
// 015   ----------------------------------------
        BYTE   PATT
         POIN2  TwilightOfTheGods_2_5_1
// 016   ----------------------------------------
TwilightOfTheGods_2_5_LOOP:
        BYTE           N06     En3   v080
        BYTE   W16
        BYTE                   Gn3   v108
        BYTE   W08
        BYTE                   Fs3   v092
        BYTE   W08
        BYTE                   Gn3   v108
        BYTE   W08
        BYTE                   Fs3   v092
        BYTE   W08
        BYTE           N12     En3   v080
        BYTE   W16
        BYTE           N06     Gn3   v108
        BYTE   W08
        BYTE                   Fs3   v092
        BYTE   W08
        BYTE                   Gn3
        BYTE   W08
        BYTE                   Fs3
        BYTE   W08
// 017   ----------------------------------------
        BYTE   PATT
         POIN2  TwilightOfTheGods_2_5_1
// 018   ----------------------------------------
        BYTE   PATT
         POIN2  TwilightOfTheGods_2_5_2
// 019   ----------------------------------------
        BYTE   PATT
         POIN2  TwilightOfTheGods_2_5_1
// 020   ----------------------------------------
        BYTE   PATT
         POIN2  TwilightOfTheGods_2_5_2
// 021   ----------------------------------------
        BYTE   PATT
         POIN2  TwilightOfTheGods_2_5_1
// 022   ----------------------------------------
        BYTE   PATT
         POIN2  TwilightOfTheGods_2_5_2
// 023   ----------------------------------------
        BYTE   PATT
         POIN2  TwilightOfTheGods_2_5_1
// 024   ----------------------------------------
        BYTE   PATT
         POIN2  TwilightOfTheGods_2_5_2
// 025   ----------------------------------------
        BYTE   PATT
         POIN2  TwilightOfTheGods_2_5_1
// 026   ----------------------------------------
        BYTE   PATT
         POIN2  TwilightOfTheGods_2_5_2
// 027   ----------------------------------------
        BYTE   PATT
         POIN2  TwilightOfTheGods_2_5_1
// 028   ----------------------------------------
        BYTE   PATT
         POIN2  TwilightOfTheGods_2_5_2
// 029   ----------------------------------------
        BYTE   PATT
         POIN2  TwilightOfTheGods_2_5_1
// 030   ----------------------------------------
        BYTE   PATT
         POIN2  TwilightOfTheGods_2_5_2
// 031   ----------------------------------------
        BYTE   PATT
         POIN2  TwilightOfTheGods_2_5_1
// 032   ----------------------------------------
        BYTE   W96
// 033   ----------------------------------------
        BYTE   W96
// 034   ----------------------------------------
        BYTE   W96
// 035   ----------------------------------------
        BYTE   W96
// 036   ----------------------------------------
        BYTE   W96
// 037   ----------------------------------------
        BYTE   W96
// 038   ----------------------------------------
        BYTE   PATT
         POIN2  TwilightOfTheGods_2_5_2
// 039   ----------------------------------------
        BYTE   PATT
         POIN2  TwilightOfTheGods_2_5_1
// 040   ----------------------------------------
        BYTE   PATT
         POIN2  TwilightOfTheGods_2_5_2
// 041   ----------------------------------------
        BYTE   PATT
         POIN2  TwilightOfTheGods_2_5_1
// 042   ----------------------------------------
        BYTE   PATT
         POIN2  TwilightOfTheGods_2_5_2
// 043   ----------------------------------------
        BYTE   PATT
         POIN2  TwilightOfTheGods_2_5_1
// 044   ----------------------------------------
        BYTE   PATT
         POIN2  TwilightOfTheGods_2_5_2
// 045   ----------------------------------------
        BYTE   PATT
         POIN2  TwilightOfTheGods_2_5_1
// 046   ----------------------------------------
        BYTE           VOICE   82
        BYTE           N06     En3   v092
        BYTE   W16
        BYTE                   En3
        BYTE   W08
        BYTE                   En3
        BYTE   W08
        BYTE                   En3
        BYTE   W08
        BYTE                   En3
        BYTE   W08
        BYTE                   En3
        BYTE   W16
        BYTE                   En3
        BYTE   W08
        BYTE                   En3
        BYTE   W08
        BYTE                   En3
        BYTE   W08
        BYTE                   En3
        BYTE   W08
// 047   ----------------------------------------
TwilightOfTheGods_2_5_47:
        BYTE           N06     En3   v092
        BYTE   W16
        BYTE                   En3
        BYTE   W08
        BYTE                   En3
        BYTE   W08
        BYTE                   En3
        BYTE   W08
        BYTE                   En3
        BYTE   W08
        BYTE                   En3
        BYTE   W16
        BYTE                   En3
        BYTE   W08
        BYTE                   En3
        BYTE   W08
        BYTE                   En3
        BYTE   W08
        BYTE                   En3
        BYTE   W08
        BYTE   PEND
// 048   ----------------------------------------
TwilightOfTheGods_2_5_48:
        BYTE           N06     Bn3   v092
        BYTE   W16
        BYTE                   Bn3
        BYTE   W08
        BYTE                   Bn3
        BYTE   W08
        BYTE                   Bn3
        BYTE   W08
        BYTE                   Bn3
        BYTE   W08
        BYTE                   Bn3
        BYTE   W16
        BYTE                   Bn3
        BYTE   W08
        BYTE                   Bn3
        BYTE   W08
        BYTE                   Bn3
        BYTE   W08
        BYTE                   Bn3
        BYTE   W08
        BYTE   PEND
// 049   ----------------------------------------
TwilightOfTheGods_2_5_49:
        BYTE           N06     Fs3   v092
        BYTE   W16
        BYTE                   Fs3
        BYTE   W08
        BYTE                   Fs3
        BYTE   W08
        BYTE                   Fs3
        BYTE   W08
        BYTE                   Fs3
        BYTE   W08
        BYTE                   Dn3
        BYTE   W16
        BYTE                   Dn3
        BYTE   W08
        BYTE                   Dn3
        BYTE   W08
        BYTE                   Dn3
        BYTE   W08
        BYTE                   Dn3
        BYTE   W08
        BYTE   PEND
// 050   ----------------------------------------
        BYTE   PATT
         POIN2  TwilightOfTheGods_2_5_47
// 051   ----------------------------------------
TwilightOfTheGods_2_5_51:
        BYTE           N06     Gn3   v092
        BYTE   W16
        BYTE                   Gn3
        BYTE   W08
        BYTE                   Gn3
        BYTE   W08
        BYTE                   Gn3
        BYTE   W08
        BYTE                   Gn3
        BYTE   W08
        BYTE                   Gn3
        BYTE   W16
        BYTE                   Gn3
        BYTE   W08
        BYTE                   Gn3
        BYTE   W08
        BYTE                   Gn3
        BYTE   W08
        BYTE                   Gn3
        BYTE   W08
        BYTE   PEND
// 052   ----------------------------------------
        BYTE   PATT
         POIN2  TwilightOfTheGods_2_5_47
// 053   ----------------------------------------
        BYTE           N06     Ds3   v092
        BYTE   W16
        BYTE                   Ds3
        BYTE   W08
        BYTE                   Ds3
        BYTE   W08
        BYTE                   Ds3
        BYTE   W08
        BYTE                   Ds3
        BYTE   W08
        BYTE                   Ds3
        BYTE   W16
        BYTE                   Ds3
        BYTE   W08
        BYTE                   Ds3
        BYTE   W08
        BYTE                   Ds3
        BYTE   W08
        BYTE                   Ds3
        BYTE   W07
        BYTE           VOICE   106
        BYTE   W01
// 054   ----------------------------------------
        BYTE   PATT
         POIN2  TwilightOfTheGods_2_5_2
// 055   ----------------------------------------
        BYTE   PATT
         POIN2  TwilightOfTheGods_2_5_1
// 056   ----------------------------------------
        BYTE   PATT
         POIN2  TwilightOfTheGods_2_5_2
// 057   ----------------------------------------
        BYTE   PATT
         POIN2  TwilightOfTheGods_2_5_1
// 058   ----------------------------------------
        BYTE   PATT
         POIN2  TwilightOfTheGods_2_5_2
// 059   ----------------------------------------
        BYTE   PATT
         POIN2  TwilightOfTheGods_2_5_1
// 060   ----------------------------------------
        BYTE   PATT
         POIN2  TwilightOfTheGods_2_5_2
// 061   ----------------------------------------
        BYTE   PATT
         POIN2  TwilightOfTheGods_2_5_1
// 062   ----------------------------------------
        BYTE   PATT
         POIN2  TwilightOfTheGods_2_5_2
// 063   ----------------------------------------
        BYTE   PATT
         POIN2  TwilightOfTheGods_2_5_1
// 064   ----------------------------------------
        BYTE   PATT
         POIN2  TwilightOfTheGods_2_5_2
// 065   ----------------------------------------
        BYTE   PATT
         POIN2  TwilightOfTheGods_2_5_1
// 066   ----------------------------------------
        BYTE   PATT
         POIN2  TwilightOfTheGods_2_5_2
// 067   ----------------------------------------
        BYTE   PATT
         POIN2  TwilightOfTheGods_2_5_1
// 068   ----------------------------------------
        BYTE   PATT
         POIN2  TwilightOfTheGods_2_5_2
// 069   ----------------------------------------
        BYTE   PATT
         POIN2  TwilightOfTheGods_2_5_1
// 070   ----------------------------------------
        BYTE   PATT
         POIN2  TwilightOfTheGods_2_5_2
// 071   ----------------------------------------
        BYTE   PATT
         POIN2  TwilightOfTheGods_2_5_1
// 072   ----------------------------------------
        BYTE   PATT
         POIN2  TwilightOfTheGods_2_5_2
// 073   ----------------------------------------
        BYTE   PATT
         POIN2  TwilightOfTheGods_2_5_1
// 074   ----------------------------------------
        BYTE   PATT
         POIN2  TwilightOfTheGods_2_5_2
// 075   ----------------------------------------
        BYTE   PATT
         POIN2  TwilightOfTheGods_2_5_1
// 076   ----------------------------------------
        BYTE   PATT
         POIN2  TwilightOfTheGods_2_5_2
// 077   ----------------------------------------
        BYTE   PATT
         POIN2  TwilightOfTheGods_2_5_1
// 078   ----------------------------------------
        BYTE   PATT
         POIN2  TwilightOfTheGods_2_5_2
// 079   ----------------------------------------
        BYTE   PATT
         POIN2  TwilightOfTheGods_2_5_1
// 080   ----------------------------------------
        BYTE   PATT
         POIN2  TwilightOfTheGods_2_5_2
// 081   ----------------------------------------
        BYTE   PATT
         POIN2  TwilightOfTheGods_2_5_1
// 082   ----------------------------------------
        BYTE   PATT
         POIN2  TwilightOfTheGods_2_5_2
// 083   ----------------------------------------
        BYTE   PATT
         POIN2  TwilightOfTheGods_2_5_1
// 084   ----------------------------------------
        BYTE   PATT
         POIN2  TwilightOfTheGods_2_5_2
// 085   ----------------------------------------
        BYTE   PATT
         POIN2  TwilightOfTheGods_2_5_1
// 086   ----------------------------------------
        BYTE   PATT
         POIN2  TwilightOfTheGods_2_5_2
// 087   ----------------------------------------
        BYTE   PATT
         POIN2  TwilightOfTheGods_2_5_1
// 088   ----------------------------------------
        BYTE   PATT
         POIN2  TwilightOfTheGods_2_5_2
// 089   ----------------------------------------
        BYTE   PATT
         POIN2  TwilightOfTheGods_2_5_1
// 090   ----------------------------------------
        BYTE   PATT
         POIN2  TwilightOfTheGods_2_5_2
// 091   ----------------------------------------
        BYTE   PATT
         POIN2  TwilightOfTheGods_2_5_1
// 092   ----------------------------------------
        BYTE   PATT
         POIN2  TwilightOfTheGods_2_5_2
// 093   ----------------------------------------
        BYTE   PATT
         POIN2  TwilightOfTheGods_2_5_1
// 094   ----------------------------------------
        BYTE   PATT
         POIN2  TwilightOfTheGods_2_5_47
// 095   ----------------------------------------
        BYTE   PATT
         POIN2  TwilightOfTheGods_2_5_47
// 096   ----------------------------------------
        BYTE   PATT
         POIN2  TwilightOfTheGods_2_5_48
// 097   ----------------------------------------
        BYTE   PATT
         POIN2  TwilightOfTheGods_2_5_49
// 098   ----------------------------------------
        BYTE   PATT
         POIN2  TwilightOfTheGods_2_5_47
// 099   ----------------------------------------
        BYTE   PATT
         POIN2  TwilightOfTheGods_2_5_51
// 100   ----------------------------------------
        BYTE   PATT
         POIN2  TwilightOfTheGods_2_5_47
// 101   ----------------------------------------
        BYTE           N06     Ds3   v092
        BYTE   W16
        BYTE                   Ds3
        BYTE   W08
        BYTE                   Ds3
        BYTE   W08
        BYTE                   Ds3
        BYTE   W08
        BYTE                   Ds3
        BYTE   W08
        BYTE                   Ds3
        BYTE   W16
        BYTE                   Ds3
        BYTE   W08
        BYTE                   Ds3
        BYTE   W08
        BYTE                   Ds3
        BYTE   W08
        BYTE                   Ds3
        BYTE   W08
// 102   ----------------------------------------
        BYTE   PATT
         POIN2  TwilightOfTheGods_2_5_2
// 103   ----------------------------------------
        BYTE   PATT
         POIN2  TwilightOfTheGods_2_5_1
// 104   ----------------------------------------
        BYTE   PATT
         POIN2  TwilightOfTheGods_2_5_2
// 105   ----------------------------------------
        BYTE   PATT
         POIN2  TwilightOfTheGods_2_5_1
// 106   ----------------------------------------
        BYTE   PATT
         POIN2  TwilightOfTheGods_2_5_2
// 107   ----------------------------------------
        BYTE   PATT
         POIN2  TwilightOfTheGods_2_5_1
// 108   ----------------------------------------
        BYTE   PATT
         POIN2  TwilightOfTheGods_2_5_2
// 109   ----------------------------------------
        BYTE   PATT
         POIN2  TwilightOfTheGods_2_5_1
// 110   ----------------------------------------
        BYTE   PATT
         POIN2  TwilightOfTheGods_2_5_2
// 111   ----------------------------------------
        BYTE   PATT
         POIN2  TwilightOfTheGods_2_5_1
// 112   ----------------------------------------
        BYTE   PATT
         POIN2  TwilightOfTheGods_2_5_2
// 113   ----------------------------------------
        BYTE   PATT
         POIN2  TwilightOfTheGods_2_5_1
// 114   ----------------------------------------
        BYTE   PATT
         POIN2  TwilightOfTheGods_2_5_2
// 115   ----------------------------------------
        BYTE   PATT
         POIN2  TwilightOfTheGods_2_5_1
// 116   ----------------------------------------
        BYTE   PATT
         POIN2  TwilightOfTheGods_2_5_2
// 117   ----------------------------------------
        BYTE   PATT
         POIN2  TwilightOfTheGods_2_5_1
// 118   ----------------------------------------
        BYTE   GoTo
         POIN2  TwilightOfTheGods_2_5_LOOP
        BYTE   FINE

//****************** Track 6 (Midi-Chn.6) ******************//

TwilightOfTheGods_2_6:
        BYTE   KEYSH   TwilightOfTheGods_2_key+0
// 000   ----------------------------------------
        BYTE           VOICE   124
        BYTE           VOL     56
        BYTE           N96     En2   v094
        BYTE   W96
// 001   ----------------------------------------
        BYTE   W96
// 002   ----------------------------------------
        BYTE   W96
// 003   ----------------------------------------
        BYTE   W96
// 004   ----------------------------------------
        BYTE   W96
// 005   ----------------------------------------
        BYTE   W96
// 006   ----------------------------------------
        BYTE   W96
// 007   ----------------------------------------
        BYTE   W96
// 008   ----------------------------------------
        BYTE   W96
// 009   ----------------------------------------
        BYTE   W96
// 010   ----------------------------------------
        BYTE   W96
// 011   ----------------------------------------
        BYTE   W96
// 012   ----------------------------------------
        BYTE   W96
// 013   ----------------------------------------
        BYTE   W96
// 014   ----------------------------------------
        BYTE   W96
// 015   ----------------------------------------
        BYTE   W48
        BYTE           N03     An1   v016
        BYTE   W03
        BYTE                   An1   v020
        BYTE   W03
        BYTE                   An1   v028
        BYTE   W03
        BYTE                   An1   v032
        BYTE   W03
        BYTE                   An1   v040
        BYTE   W03
        BYTE                   An1   v048
        BYTE   W03
        BYTE                   An1   v052
        BYTE   W03
        BYTE                   An1   v060
        BYTE   W03
        BYTE                   An1   v064
        BYTE   W03
        BYTE                   An1   v072
        BYTE   W03
        BYTE                   An1   v076
        BYTE   W03
        BYTE                   An1   v084
        BYTE   W03
        BYTE                   An1   v092
        BYTE   W03
        BYTE                   An1   v096
        BYTE   W03
        BYTE                   An1   v104
        BYTE   W03
        BYTE                   An1
        BYTE   W03
// 016   ----------------------------------------
TwilightOfTheGods_2_6_LOOP:
        BYTE           N48     Cs2   v104
        BYTE           N12     Gn1
        BYTE   W48
        BYTE           N16     Dn1   v080
        BYTE   W16
        BYTE           N32     Dn1   v056
        BYTE   W32
// 017   ----------------------------------------
TwilightOfTheGods_2_6_17:
        BYTE   W48
        BYTE           N16     Dn1   v080
        BYTE   W16
        BYTE           N32     Dn1   v056
        BYTE   W32
        BYTE   PEND
// 018   ----------------------------------------
        BYTE   PATT
         POIN2  TwilightOfTheGods_2_6_17
// 019   ----------------------------------------
TwilightOfTheGods_2_6_19:
        BYTE   W48
        BYTE           N16     Dn1   v080
        BYTE   W16
        BYTE                   Dn1   v056
        BYTE   W16
        BYTE           N04     En1   v064
        BYTE   W04
        BYTE           N02     En1   v040
        BYTE   W02
        BYTE                   En1   v056
        BYTE   W02
        BYTE                   En1   v072
        BYTE   W02
        BYTE                   En1   v088
        BYTE   W02
        BYTE                   En1   v080
        BYTE   W02
        BYTE                   En1   v072
        BYTE   W02
        BYTE   PEND
// 020   ----------------------------------------
TwilightOfTheGods_2_6_20:
        BYTE           N48     Cs2   v104
        BYTE           N12     Gn1
        BYTE   W48
        BYTE           N16     Dn1   v080
        BYTE   W16
        BYTE           N32     Dn1   v056
        BYTE   W32
        BYTE   PEND
// 021   ----------------------------------------
        BYTE   PATT
         POIN2  TwilightOfTheGods_2_6_17
// 022   ----------------------------------------
        BYTE   PATT
         POIN2  TwilightOfTheGods_2_6_17
// 023   ----------------------------------------
        BYTE   PATT
         POIN2  TwilightOfTheGods_2_6_19
// 024   ----------------------------------------
        BYTE   PATT
         POIN2  TwilightOfTheGods_2_6_20
// 025   ----------------------------------------
        BYTE   PATT
         POIN2  TwilightOfTheGods_2_6_17
// 026   ----------------------------------------
        BYTE   PATT
         POIN2  TwilightOfTheGods_2_6_17
// 027   ----------------------------------------
        BYTE   PATT
         POIN2  TwilightOfTheGods_2_6_19
// 028   ----------------------------------------
        BYTE   PATT
         POIN2  TwilightOfTheGods_2_6_20
// 029   ----------------------------------------
        BYTE   PATT
         POIN2  TwilightOfTheGods_2_6_17
// 030   ----------------------------------------
        BYTE   PATT
         POIN2  TwilightOfTheGods_2_6_17
// 031   ----------------------------------------
        BYTE   PATT
         POIN2  TwilightOfTheGods_2_6_19
// 032   ----------------------------------------
        BYTE           N48     Cs2   v104
        BYTE           N12     Cn1
        BYTE   W96
// 033   ----------------------------------------
TwilightOfTheGods_2_6_33:
        BYTE   W48
        BYTE           N48     Cs2   v100
        BYTE           N09     Cn1
        BYTE   W48
        BYTE   PEND
// 034   ----------------------------------------
        BYTE   W96
// 035   ----------------------------------------
        BYTE           N48     Cs2
        BYTE           N09     Cn1
        BYTE   W96
// 036   ----------------------------------------
        BYTE   PATT
         POIN2  TwilightOfTheGods_2_6_33
// 037   ----------------------------------------
        BYTE   W72
        BYTE           N06     Cn2   v100
        BYTE   W08
        BYTE                   Bn1
        BYTE   W08
        BYTE                   Gn1
        BYTE   W08
// 038   ----------------------------------------
TwilightOfTheGods_2_6_38:
        BYTE           N24     Cs2   v100
        BYTE           N12     Cn1
        BYTE   W24
        BYTE                   Dn1
        BYTE   W24
        BYTE                   Cn1
        BYTE   W16
        BYTE           N06     Cn1   v112
        BYTE   W08
        BYTE           N12     Dn1   v100
        BYTE   W24
        BYTE   PEND
// 039   ----------------------------------------
TwilightOfTheGods_2_6_39:
        BYTE           N12     Cn1   v100
        BYTE   W24
        BYTE                   Dn1
        BYTE   W24
        BYTE                   Cn1
        BYTE   W16
        BYTE           N06     Cn1   v112
        BYTE   W08
        BYTE           N12     Dn1   v100
        BYTE   W24
        BYTE   PEND
// 040   ----------------------------------------
        BYTE   PATT
         POIN2  TwilightOfTheGods_2_6_39
// 041   ----------------------------------------
        BYTE   PATT
         POIN2  TwilightOfTheGods_2_6_39
// 042   ----------------------------------------
        BYTE   PATT
         POIN2  TwilightOfTheGods_2_6_39
// 043   ----------------------------------------
        BYTE   PATT
         POIN2  TwilightOfTheGods_2_6_39
// 044   ----------------------------------------
        BYTE   PATT
         POIN2  TwilightOfTheGods_2_6_39
// 045   ----------------------------------------
TwilightOfTheGods_2_6_45:
        BYTE           N12     Cn1   v100
        BYTE   W24
        BYTE                   Dn1
        BYTE   W24
        BYTE                   Cn1
        BYTE   W16
        BYTE           N06     Cn1   v112
        BYTE   W08
        BYTE                   Cn2   v100
        BYTE           N12     Dn1
        BYTE   W08
        BYTE           N06     Bn1
        BYTE   W08
        BYTE                   Gn1
        BYTE   W08
        BYTE   PEND
// 046   ----------------------------------------
TwilightOfTheGods_2_6_46:
        BYTE           N24     Cs2   v100
        BYTE           N12     Cn1
        BYTE           N12     Fs2
        BYTE   W16
        BYTE           N06     Fs2   v080
        BYTE   W08
        BYTE           N12     Dn1   v100
        BYTE           N06     Fs2
        BYTE   W08
        BYTE                   Fs2
        BYTE   W08
        BYTE                   Fs2   v080
        BYTE   W08
        BYTE           N12     Cn1   v100
        BYTE           N12     Fs2
        BYTE   W16
        BYTE           N06     Fs2   v080
        BYTE           N06     Cn1   v112
        BYTE   W08
        BYTE           N12     Dn1   v100
        BYTE           N06     Fs2
        BYTE   W08
        BYTE                   Fs2
        BYTE   W08
        BYTE                   Fs2   v080
        BYTE   W08
        BYTE   PEND
// 047   ----------------------------------------
TwilightOfTheGods_2_6_47:
        BYTE           N12     Cn1   v100
        BYTE           N12     Fs2
        BYTE   W16
        BYTE           N06     Fs2   v080
        BYTE   W08
        BYTE           N12     Dn1   v100
        BYTE           N06     Fs2
        BYTE   W08
        BYTE                   Fs2
        BYTE   W08
        BYTE                   Fs2   v080
        BYTE   W08
        BYTE           N12     Cn1   v100
        BYTE           N12     Fs2
        BYTE   W16
        BYTE           N06     Fs2   v080
        BYTE           N06     Cn1   v112
        BYTE   W08
        BYTE           N12     Dn1   v100
        BYTE           N06     Fs2
        BYTE   W08
        BYTE                   Fs2
        BYTE   W08
        BYTE                   Fs2   v080
        BYTE   W08
        BYTE   PEND
// 048   ----------------------------------------
        BYTE   PATT
         POIN2  TwilightOfTheGods_2_6_47
// 049   ----------------------------------------
        BYTE   PATT
         POIN2  TwilightOfTheGods_2_6_47
// 050   ----------------------------------------
        BYTE   PATT
         POIN2  TwilightOfTheGods_2_6_47
// 051   ----------------------------------------
        BYTE   PATT
         POIN2  TwilightOfTheGods_2_6_47
// 052   ----------------------------------------
        BYTE   PATT
         POIN2  TwilightOfTheGods_2_6_47
// 053   ----------------------------------------
TwilightOfTheGods_2_6_53:
        BYTE           N08     Cn2   v100
        BYTE           N12     Cn1
        BYTE           N12     Fs2
        BYTE   W16
        BYTE           N08     Bn1
        BYTE           N06     Fs2   v080
        BYTE   W08
        BYTE           N12     Dn1   v100
        BYTE           N06     Fs2
        BYTE   W08
        BYTE           N08     Gn1
        BYTE           N06     Fs2
        BYTE   W08
        BYTE                   Fs2   v080
        BYTE   W08
        BYTE           N08     Cn2   v100
        BYTE           N12     Cn1
        BYTE           N12     Fs2
        BYTE   W16
        BYTE           N08     Bn1
        BYTE           N06     Fs2   v080
        BYTE           N06     Cn1   v112
        BYTE   W08
        BYTE           N01     DnM2   v100
        BYTE           N12     Dn1
        BYTE           N06     Fs2
        BYTE   W08
        BYTE           N08     Gn1
        BYTE           N06     Fs2
        BYTE   W08
        BYTE                   Fs2   v080
        BYTE   W08
        BYTE   PEND
// 054   ----------------------------------------
        BYTE   PATT
         POIN2  TwilightOfTheGods_2_6_46
// 055   ----------------------------------------
        BYTE   PATT
         POIN2  TwilightOfTheGods_2_6_47
// 056   ----------------------------------------
        BYTE   PATT
         POIN2  TwilightOfTheGods_2_6_47
// 057   ----------------------------------------
        BYTE   PATT
         POIN2  TwilightOfTheGods_2_6_53
// 058   ----------------------------------------
        BYTE   PATT
         POIN2  TwilightOfTheGods_2_6_47
// 059   ----------------------------------------
        BYTE   PATT
         POIN2  TwilightOfTheGods_2_6_47
// 060   ----------------------------------------
        BYTE   PATT
         POIN2  TwilightOfTheGods_2_6_47
// 061   ----------------------------------------
TwilightOfTheGods_2_6_61:
        BYTE           N12     Cn2   v100
        BYTE           N36     Cs2
        BYTE           N12     Cn1
        BYTE           N12     Fs2
        BYTE   W16
        BYTE           N08     Bn1
        BYTE           N06     Fs2   v080
        BYTE   W08
        BYTE           N12     Dn1   v100
        BYTE           N06     Fs2
        BYTE   W08
        BYTE           N08     Gn1
        BYTE           N06     Fs2
        BYTE   W08
        BYTE                   Fs2   v080
        BYTE   W08
        BYTE           N12     Cn2   v100
        BYTE           N12     Cn1
        BYTE           N12     Fs2
        BYTE   W16
        BYTE           N08     Bn1
        BYTE           N24     Cs2
        BYTE           N06     Fs2   v080
        BYTE           N06     Cn1   v112
        BYTE   W08
        BYTE           N01     DnM2   v100
        BYTE           N12     Dn1
        BYTE           N06     Fs2
        BYTE   W08
        BYTE           N08     Gn1
        BYTE           N06     Fs2
        BYTE   W08
        BYTE                   Fs2   v080
        BYTE   W08
        BYTE   PEND
// 062   ----------------------------------------
        BYTE   PATT
         POIN2  TwilightOfTheGods_2_6_46
// 063   ----------------------------------------
        BYTE   PATT
         POIN2  TwilightOfTheGods_2_6_47
// 064   ----------------------------------------
        BYTE   PATT
         POIN2  TwilightOfTheGods_2_6_47
// 065   ----------------------------------------
TwilightOfTheGods_2_6_65:
        BYTE           N12     Cn1   v100
        BYTE           N12     Fs2
        BYTE   W16
        BYTE           N06     Fs2   v080
        BYTE   W08
        BYTE           N12     Dn1   v100
        BYTE           N06     Fs2
        BYTE   W08
        BYTE                   Fs2
        BYTE   W08
        BYTE                   Fs2   v080
        BYTE   W08
        BYTE           N12     Cn1   v100
        BYTE           N12     Fs2
        BYTE   W16
        BYTE           N06     Fs2   v080
        BYTE           N06     Cn1   v112
        BYTE   W08
        BYTE                   Cn2   v100
        BYTE           N12     Dn1
        BYTE           N06     Fs2
        BYTE   W08
        BYTE                   Bn1
        BYTE           N06     Fs2
        BYTE   W08
        BYTE                   Gn1
        BYTE           N06     Fs2   v080
        BYTE   W08
        BYTE   PEND
// 066   ----------------------------------------
        BYTE   PATT
         POIN2  TwilightOfTheGods_2_6_46
// 067   ----------------------------------------
        BYTE   PATT
         POIN2  TwilightOfTheGods_2_6_47
// 068   ----------------------------------------
        BYTE   PATT
         POIN2  TwilightOfTheGods_2_6_47
// 069   ----------------------------------------
TwilightOfTheGods_2_6_69:
        BYTE           N12     Cn1   v100
        BYTE           N12     Fs2
        BYTE   W16
        BYTE           N06     Fs2   v080
        BYTE   W08
        BYTE           N12     Dn1   v100
        BYTE           N06     Fs2
        BYTE   W08
        BYTE                   Fs2
        BYTE   W08
        BYTE                   Fs2   v080
        BYTE   W08
        BYTE           N12     Cn1   v100
        BYTE           N14     Fs2
        BYTE   W16
        BYTE           N06     Cn1   v112
        BYTE           N14     Fs2   v100
        BYTE   W08
        BYTE           N06     Cn2
        BYTE           N12     Dn1
        BYTE   W08
        BYTE           N06     Bn1
        BYTE           N14     Fs2
        BYTE   W08
        BYTE           N06     Gn1
        BYTE   W08
        BYTE   PEND
// 070   ----------------------------------------
        BYTE   PATT
         POIN2  TwilightOfTheGods_2_6_20
// 071   ----------------------------------------
        BYTE   PATT
         POIN2  TwilightOfTheGods_2_6_17
// 072   ----------------------------------------
        BYTE   PATT
         POIN2  TwilightOfTheGods_2_6_17
// 073   ----------------------------------------
        BYTE   PATT
         POIN2  TwilightOfTheGods_2_6_19
// 074   ----------------------------------------
        BYTE   PATT
         POIN2  TwilightOfTheGods_2_6_20
// 075   ----------------------------------------
        BYTE   PATT
         POIN2  TwilightOfTheGods_2_6_17
// 076   ----------------------------------------
        BYTE   PATT
         POIN2  TwilightOfTheGods_2_6_17
// 077   ----------------------------------------
        BYTE   PATT
         POIN2  TwilightOfTheGods_2_6_19
// 078   ----------------------------------------
        BYTE   PATT
         POIN2  TwilightOfTheGods_2_6_20
// 079   ----------------------------------------
        BYTE   PATT
         POIN2  TwilightOfTheGods_2_6_17
// 080   ----------------------------------------
        BYTE   PATT
         POIN2  TwilightOfTheGods_2_6_17
// 081   ----------------------------------------
        BYTE   PATT
         POIN2  TwilightOfTheGods_2_6_19
// 082   ----------------------------------------
        BYTE   PATT
         POIN2  TwilightOfTheGods_2_6_20
// 083   ----------------------------------------
        BYTE   PATT
         POIN2  TwilightOfTheGods_2_6_17
// 084   ----------------------------------------
        BYTE   PATT
         POIN2  TwilightOfTheGods_2_6_17
// 085   ----------------------------------------
        BYTE   PATT
         POIN2  TwilightOfTheGods_2_6_19
// 086   ----------------------------------------
        BYTE   PATT
         POIN2  TwilightOfTheGods_2_6_38
// 087   ----------------------------------------
        BYTE   PATT
         POIN2  TwilightOfTheGods_2_6_39
// 088   ----------------------------------------
        BYTE   PATT
         POIN2  TwilightOfTheGods_2_6_39
// 089   ----------------------------------------
        BYTE   PATT
         POIN2  TwilightOfTheGods_2_6_39
// 090   ----------------------------------------
        BYTE   PATT
         POIN2  TwilightOfTheGods_2_6_39
// 091   ----------------------------------------
        BYTE   PATT
         POIN2  TwilightOfTheGods_2_6_39
// 092   ----------------------------------------
        BYTE   PATT
         POIN2  TwilightOfTheGods_2_6_39
// 093   ----------------------------------------
        BYTE   PATT
         POIN2  TwilightOfTheGods_2_6_45
// 094   ----------------------------------------
        BYTE   PATT
         POIN2  TwilightOfTheGods_2_6_46
// 095   ----------------------------------------
        BYTE   PATT
         POIN2  TwilightOfTheGods_2_6_47
// 096   ----------------------------------------
        BYTE   PATT
         POIN2  TwilightOfTheGods_2_6_47
// 097   ----------------------------------------
        BYTE   PATT
         POIN2  TwilightOfTheGods_2_6_47
// 098   ----------------------------------------
        BYTE   PATT
         POIN2  TwilightOfTheGods_2_6_47
// 099   ----------------------------------------
        BYTE   PATT
         POIN2  TwilightOfTheGods_2_6_47
// 100   ----------------------------------------
        BYTE   PATT
         POIN2  TwilightOfTheGods_2_6_47
// 101   ----------------------------------------
        BYTE   PATT
         POIN2  TwilightOfTheGods_2_6_53
// 102   ----------------------------------------
        BYTE   PATT
         POIN2  TwilightOfTheGods_2_6_46
// 103   ----------------------------------------
        BYTE   PATT
         POIN2  TwilightOfTheGods_2_6_47
// 104   ----------------------------------------
        BYTE   PATT
         POIN2  TwilightOfTheGods_2_6_47
// 105   ----------------------------------------
        BYTE   PATT
         POIN2  TwilightOfTheGods_2_6_53
// 106   ----------------------------------------
        BYTE   PATT
         POIN2  TwilightOfTheGods_2_6_47
// 107   ----------------------------------------
        BYTE   PATT
         POIN2  TwilightOfTheGods_2_6_47
// 108   ----------------------------------------
        BYTE   PATT
         POIN2  TwilightOfTheGods_2_6_47
// 109   ----------------------------------------
        BYTE   PATT
         POIN2  TwilightOfTheGods_2_6_61
// 110   ----------------------------------------
        BYTE   PATT
         POIN2  TwilightOfTheGods_2_6_46
// 111   ----------------------------------------
        BYTE   PATT
         POIN2  TwilightOfTheGods_2_6_47
// 112   ----------------------------------------
        BYTE   PATT
         POIN2  TwilightOfTheGods_2_6_47
// 113   ----------------------------------------
        BYTE   PATT
         POIN2  TwilightOfTheGods_2_6_65
// 114   ----------------------------------------
        BYTE   PATT
         POIN2  TwilightOfTheGods_2_6_46
// 115   ----------------------------------------
        BYTE   PATT
         POIN2  TwilightOfTheGods_2_6_47
// 116   ----------------------------------------
        BYTE   PATT
         POIN2  TwilightOfTheGods_2_6_47
// 117   ----------------------------------------
        BYTE   PATT
         POIN2  TwilightOfTheGods_2_6_69
// 118   ----------------------------------------
        BYTE   GoTo
         POIN2  TwilightOfTheGods_2_6_LOOP
        BYTE   FINE


//********************** End of Song ***********************//

        ALIGN 4
TwilightOfTheGods_2:
        BYTE   7                       // Num Tracks
        BYTE   0                       // Unknown
        BYTE   TwilightOfTheGods_2_pri // Priority
        BYTE   TwilightOfTheGods_2_rev // Reverb

        POIN2   TwilightOfTheGods_2_grp

        POIN2   TwilightOfTheGods_2_0
        POIN2   TwilightOfTheGods_2_1
        POIN2   TwilightOfTheGods_2_2
        POIN2   TwilightOfTheGods_2_3
        POIN2   TwilightOfTheGods_2_4
        POIN2   TwilightOfTheGods_2_5
        POIN2   TwilightOfTheGods_2_6

        
