//Event file generated from Sappy .s format.
        #include "MPlayDef.event"

        #define    TwilightOfTheGods_Sme_grp  voicegroup000
        #define    TwilightOfTheGods_Sme_pri  0
        #define    TwilightOfTheGods_Sme_rev  0
        #define    TwilightOfTheGods_Sme_key  0

        // .rodata
        // TwilightOfTheGods_Sme
        ALIGN 4

//****************** Track 0 (Midi-Chn.0) ******************//

TwilightOfTheGods_Sme_0:
        BYTE   KEYSH   TwilightOfTheGods_Sme_key+0
// 000   ----------------------------------------
        BYTE   TEMPO   160/2
        BYTE           VOICE   48
        BYTE           VOL     33
        BYTE           N08     En3   v104
        BYTE   W16
        BYTE                   Gn3
        BYTE   W08
        BYTE                   Fs3
        BYTE   W08
        BYTE                   Gn3
        BYTE   W08
        BYTE                   Fs3
        BYTE   W08
        BYTE           N16     En3
        BYTE   W16
        BYTE           N08     Gn3
        BYTE   W08
        BYTE                   Fs3
        BYTE   W08
        BYTE                   Gn3
        BYTE   W08
        BYTE                   Fs3
        BYTE   W08
// 001   ----------------------------------------
TwilightOfTheGods_Sme_0_1:
        BYTE           N08     En3   v104
        BYTE   W16
        BYTE                   Gn3
        BYTE   W08
        BYTE                   Fs3
        BYTE   W08
        BYTE                   Gn3
        BYTE   W08
        BYTE                   Fs3
        BYTE   W08
        BYTE                   En3
        BYTE   W08
        BYTE                   Fs3
        BYTE   W08
        BYTE                   Gn3
        BYTE   W08
        BYTE                   An3
        BYTE   W08
        BYTE                   Gn3
        BYTE   W08
        BYTE                   Fs3
        BYTE   W08
        BYTE   PEND
// 002   ----------------------------------------
TwilightOfTheGods_Sme_0_2:
        BYTE           N08     En3   v104
        BYTE   W16
        BYTE                   Gn3
        BYTE   W08
        BYTE                   Fs3
        BYTE   W08
        BYTE                   Gn3
        BYTE   W08
        BYTE                   Fs3
        BYTE   W08
        BYTE           N16     En3
        BYTE   W16
        BYTE           N08     Gn3
        BYTE   W08
        BYTE                   Fs3
        BYTE   W08
        BYTE                   Gn3
        BYTE   W08
        BYTE                   Fs3
        BYTE   W08
        BYTE   PEND
// 003   ----------------------------------------
        BYTE   PATT
         POIN2  TwilightOfTheGods_Sme_0_1
// 004   ----------------------------------------
        BYTE   PATT
         POIN2  TwilightOfTheGods_Sme_0_2
// 005   ----------------------------------------
        BYTE           N08     En3   v104
        BYTE   W16
        BYTE                   Gn3
        BYTE   W08
        BYTE                   Fs3
        BYTE   W08
        BYTE                   Gn3
        BYTE   W08
        BYTE                   Fs3
        BYTE   W08
TwilightOfTheGods_Sme_0_LOOP:
        BYTE           N08     En3   v104
        BYTE   W08
        BYTE                   Fs3
        BYTE   W08
        BYTE                   Gn3
        BYTE   W08
        BYTE                   An3
        BYTE   W08
        BYTE                   Gn3
        BYTE   W08
        BYTE                   Fs3
        BYTE   W08
// 006   ----------------------------------------
        BYTE   PATT
         POIN2  TwilightOfTheGods_Sme_0_2
// 007   ----------------------------------------
        BYTE   PATT
         POIN2  TwilightOfTheGods_Sme_0_1
// 008   ----------------------------------------
        BYTE   PATT
         POIN2  TwilightOfTheGods_Sme_0_2
// 009   ----------------------------------------
        BYTE   PATT
         POIN2  TwilightOfTheGods_Sme_0_1
// 010   ----------------------------------------
        BYTE   PATT
         POIN2  TwilightOfTheGods_Sme_0_2
// 011   ----------------------------------------
        BYTE   PATT
         POIN2  TwilightOfTheGods_Sme_0_1
// 012   ----------------------------------------
        BYTE   PATT
         POIN2  TwilightOfTheGods_Sme_0_2
// 013   ----------------------------------------
        BYTE   PATT
         POIN2  TwilightOfTheGods_Sme_0_1
// 014   ----------------------------------------
        BYTE   PATT
         POIN2  TwilightOfTheGods_Sme_0_2
// 015   ----------------------------------------
        BYTE   PATT
         POIN2  TwilightOfTheGods_Sme_0_1
// 016   ----------------------------------------
        BYTE   PATT
         POIN2  TwilightOfTheGods_Sme_0_2
// 017   ----------------------------------------
        BYTE   PATT
         POIN2  TwilightOfTheGods_Sme_0_1
// 018   ----------------------------------------
        BYTE   PATT
         POIN2  TwilightOfTheGods_Sme_0_2
// 019   ----------------------------------------
        BYTE   PATT
         POIN2  TwilightOfTheGods_Sme_0_1
// 020   ----------------------------------------
        BYTE   PATT
         POIN2  TwilightOfTheGods_Sme_0_2
// 021   ----------------------------------------
        BYTE   PATT
         POIN2  TwilightOfTheGods_Sme_0_1
// 022   ----------------------------------------
        BYTE   PATT
         POIN2  TwilightOfTheGods_Sme_0_2
// 023   ----------------------------------------
        BYTE   PATT
         POIN2  TwilightOfTheGods_Sme_0_1
// 024   ----------------------------------------
        BYTE   PATT
         POIN2  TwilightOfTheGods_Sme_0_2
// 025   ----------------------------------------
        BYTE   PATT
         POIN2  TwilightOfTheGods_Sme_0_1
// 026   ----------------------------------------
        BYTE   PATT
         POIN2  TwilightOfTheGods_Sme_0_2
// 027   ----------------------------------------
        BYTE   PATT
         POIN2  TwilightOfTheGods_Sme_0_1
// 028   ----------------------------------------
        BYTE   PATT
         POIN2  TwilightOfTheGods_Sme_0_2
// 029   ----------------------------------------
        BYTE   PATT
         POIN2  TwilightOfTheGods_Sme_0_1
// 030   ----------------------------------------
        BYTE   PATT
         POIN2  TwilightOfTheGods_Sme_0_2
// 031   ----------------------------------------
        BYTE   PATT
         POIN2  TwilightOfTheGods_Sme_0_1
// 032   ----------------------------------------
        BYTE   TEMPO   104/2
        BYTE   W96
// 033   ----------------------------------------
        BYTE   W96
// 034   ----------------------------------------
        BYTE   W96
// 035   ----------------------------------------
        BYTE   W96
// 036   ----------------------------------------
        BYTE   TEMPO   160/2
        BYTE           N08     En3   v104
        BYTE   W16
        BYTE                   Gn3
        BYTE   W08
        BYTE                   Fs3
        BYTE   W08
        BYTE                   Gn3
        BYTE   W08
        BYTE                   Fs3
        BYTE   W08
        BYTE           N16     En3
        BYTE   W16
        BYTE           N08     Gn3
        BYTE   W08
        BYTE                   Fs3
        BYTE   W08
        BYTE                   Gn3
        BYTE   W08
        BYTE                   Fs3
        BYTE   W08
// 037   ----------------------------------------
        BYTE   PATT
         POIN2  TwilightOfTheGods_Sme_0_1
// 038   ----------------------------------------
        BYTE   PATT
         POIN2  TwilightOfTheGods_Sme_0_2
// 039   ----------------------------------------
        BYTE   PATT
         POIN2  TwilightOfTheGods_Sme_0_1
// 040   ----------------------------------------
        BYTE   PATT
         POIN2  TwilightOfTheGods_Sme_0_2
// 041   ----------------------------------------
        BYTE   PATT
         POIN2  TwilightOfTheGods_Sme_0_1
// 042   ----------------------------------------
        BYTE   PATT
         POIN2  TwilightOfTheGods_Sme_0_2
// 043   ----------------------------------------
        BYTE           N08     En3   v104
        BYTE   W16
        BYTE                   Bn2
        BYTE   W08
        BYTE                   En3
        BYTE   W08
        BYTE                   Fs3
        BYTE   W08
        BYTE                   En3
        BYTE   W08
        BYTE           N48     Ds3
        BYTE   GoTo
         POIN2  TwilightOfTheGods_Sme_0_LOOP
        BYTE   W48
// 044   ----------------------------------------
        BYTE           N96     En3
        BYTE   W96
// 045   ----------------------------------------
        BYTE                   Dn3
        BYTE   W96
// 046   ----------------------------------------
        BYTE                   Bn2
        BYTE   W96
// 047   ----------------------------------------
        BYTE                   Bn2
        BYTE   W96
// 048   ----------------------------------------
        BYTE                   En3
        BYTE   W96
// 049   ----------------------------------------
        BYTE                   Bn2
        BYTE   W96
// 050   ----------------------------------------
        BYTE                   An2
        BYTE   W96
// 051   ----------------------------------------
        BYTE                   Bn2
        BYTE   W96
// 052   ----------------------------------------
        BYTE                   En3
        BYTE   W96
// 053   ----------------------------------------
        BYTE                   Bn2
        BYTE   W96
// 054   ----------------------------------------
        BYTE                   Bn2
        BYTE   W96
// 055   ----------------------------------------
        BYTE                   Bn2
        BYTE   W96
// 056   ----------------------------------------
        BYTE                   En3
        BYTE   W96
// 057   ----------------------------------------
        BYTE                   Bn2
        BYTE   W96
// 058   ----------------------------------------
        BYTE                   An2
        BYTE   W96
// 059   ----------------------------------------
        BYTE                   Bn2
        BYTE   W96
// 060   ----------------------------------------
        BYTE   W96
// 061   ----------------------------------------
        BYTE   W96
// 062   ----------------------------------------
        BYTE   W96
// 063   ----------------------------------------
        BYTE   W96
// 064   ----------------------------------------
        BYTE   W96
// 065   ----------------------------------------
        BYTE   W96
// 066   ----------------------------------------
        BYTE   W96
// 067   ----------------------------------------
        BYTE   W96
// 068   ----------------------------------------
        BYTE   W96
// 069   ----------------------------------------
        BYTE   W96
// 070   ----------------------------------------
        BYTE   W96
// 071   ----------------------------------------
        BYTE   W96
// 072   ----------------------------------------
        BYTE   W96
// 073   ----------------------------------------
        BYTE   W96
// 074   ----------------------------------------
        BYTE   W96
// 075   ----------------------------------------
        BYTE   W96
// 076   ----------------------------------------
        BYTE   W96
// 077   ----------------------------------------
        BYTE   W96
// 078   ----------------------------------------
        BYTE   W96
// 079   ----------------------------------------
        BYTE   W96
// 080   ----------------------------------------
        BYTE   FINE

//****************** Track 1 (Midi-Chn.1) ******************//

TwilightOfTheGods_Sme_1:
        BYTE   KEYSH   TwilightOfTheGods_Sme_key+0
// 000   ----------------------------------------
        BYTE           VOICE   51
        BYTE           VOL     38
        BYTE           TIE     En1   v104
        BYTE   W96
// 001   ----------------------------------------
        BYTE   W96
// 002   ----------------------------------------
        BYTE   W96
// 003   ----------------------------------------
        BYTE   W96
// 004   ----------------------------------------
TwilightOfTheGods_Sme_1_4:
        BYTE           EOT     En1
        BYTE           TIE     Cn1   v104
        BYTE   W96
        BYTE   PEND
// 005   ----------------------------------------
        BYTE   W48
TwilightOfTheGods_Sme_1_LOOP:
        BYTE   W48
// 006   ----------------------------------------
        BYTE   W96
// 007   ----------------------------------------
        BYTE   W96
// 008   ----------------------------------------
TwilightOfTheGods_Sme_1_8:
        BYTE           EOT     Cn1
        BYTE           TIE     An0   v104
        BYTE   W96
        BYTE   PEND
// 009   ----------------------------------------
        BYTE   W96
// 010   ----------------------------------------
        BYTE   W96
// 011   ----------------------------------------
        BYTE   W96
// 012   ----------------------------------------
TwilightOfTheGods_Sme_1_12:
        BYTE           EOT     An0
        BYTE           TIE     Bn0   v104
        BYTE   W96
        BYTE   PEND
// 013   ----------------------------------------
        BYTE   W96
// 014   ----------------------------------------
        BYTE   W96
// 015   ----------------------------------------
        BYTE   W96
// 016   ----------------------------------------
        BYTE           EOT
        BYTE           TIE     En1
        BYTE   W96
// 017   ----------------------------------------
        BYTE   W96
// 018   ----------------------------------------
        BYTE   W96
// 019   ----------------------------------------
        BYTE   W96
// 020   ----------------------------------------
        BYTE   PATT
         POIN2  TwilightOfTheGods_Sme_1_4
// 021   ----------------------------------------
        BYTE   W96
// 022   ----------------------------------------
        BYTE   W96
// 023   ----------------------------------------
        BYTE   W96
// 024   ----------------------------------------
        BYTE   PATT
         POIN2  TwilightOfTheGods_Sme_1_8
// 025   ----------------------------------------
        BYTE   W96
// 026   ----------------------------------------
        BYTE   W96
// 027   ----------------------------------------
        BYTE   W96
// 028   ----------------------------------------
        BYTE   PATT
         POIN2  TwilightOfTheGods_Sme_1_12
// 029   ----------------------------------------
        BYTE   W96
// 030   ----------------------------------------
        BYTE   W96
// 031   ----------------------------------------
        BYTE   W96
// 032   ----------------------------------------
        BYTE           EOT     Bn0
        BYTE           N12     En1   v104
        BYTE   W48
        BYTE           N24     Gn1
        BYTE   W24
        BYTE                   Fs1
        BYTE   W24
// 033   ----------------------------------------
TwilightOfTheGods_Sme_1_33:
        BYTE           N12     En1   v104
        BYTE   W48
        BYTE           N24     Gn1
        BYTE   W24
        BYTE                   Fs1
        BYTE   W24
        BYTE   PEND
// 034   ----------------------------------------
        BYTE   PATT
         POIN2  TwilightOfTheGods_Sme_1_33
// 035   ----------------------------------------
        BYTE   PATT
         POIN2  TwilightOfTheGods_Sme_1_33
// 036   ----------------------------------------
        BYTE           TIE     En1   v104
        BYTE   W96
// 037   ----------------------------------------
        BYTE   W96
// 038   ----------------------------------------
        BYTE           EOT
        BYTE           TIE     Dn1
        BYTE   W96
// 039   ----------------------------------------
        BYTE   W96
// 040   ----------------------------------------
        BYTE           EOT
        BYTE           TIE     Cn1
        BYTE   W96
// 041   ----------------------------------------
        BYTE   W96
// 042   ----------------------------------------
        BYTE           EOT
        BYTE           N96     Dn1
        BYTE   W96
// 043   ----------------------------------------
        BYTE           N48
        BYTE   W48
        BYTE                   Ds1
        BYTE   GoTo
         POIN2  TwilightOfTheGods_Sme_1_LOOP
        BYTE   W48
// 044   ----------------------------------------
        BYTE           TIE     En1
        BYTE   W96
// 045   ----------------------------------------
        BYTE   W96
// 046   ----------------------------------------
        BYTE   W96
// 047   ----------------------------------------
        BYTE   W96
// 048   ----------------------------------------
        BYTE   PATT
         POIN2  TwilightOfTheGods_Sme_1_4
// 049   ----------------------------------------
        BYTE   W96
// 050   ----------------------------------------
        BYTE   W96
// 051   ----------------------------------------
        BYTE   W96
// 052   ----------------------------------------
        BYTE   PATT
         POIN2  TwilightOfTheGods_Sme_1_8
// 053   ----------------------------------------
        BYTE   W96
// 054   ----------------------------------------
        BYTE   W96
// 055   ----------------------------------------
        BYTE   W96
// 056   ----------------------------------------
        BYTE   PATT
         POIN2  TwilightOfTheGods_Sme_1_12
// 057   ----------------------------------------
        BYTE   W96
// 058   ----------------------------------------
        BYTE   W96
// 059   ----------------------------------------
        BYTE   W96
// 060   ----------------------------------------
        BYTE           EOT     Bn0
        BYTE           TIE     An0   v104
        BYTE   W96
// 061   ----------------------------------------
        BYTE   W96
// 062   ----------------------------------------
        BYTE   W96
// 063   ----------------------------------------
        BYTE   W96
// 064   ----------------------------------------
        BYTE   PATT
         POIN2  TwilightOfTheGods_Sme_1_12
// 065   ----------------------------------------
        BYTE   W96
// 066   ----------------------------------------
        BYTE   W96
// 067   ----------------------------------------
        BYTE   W96
// 068   ----------------------------------------
        BYTE           EOT     Bn0
        BYTE           N96     En1   v104
        BYTE   W96
// 069   ----------------------------------------
        BYTE                   Dn1
        BYTE   W96
// 070   ----------------------------------------
        BYTE                   Cn1
        BYTE   W96
// 071   ----------------------------------------
        BYTE                   Bn0
        BYTE   W96
// 072   ----------------------------------------
        BYTE                   En1
        BYTE   W96
// 073   ----------------------------------------
        BYTE                   Dn1
        BYTE   W96
// 074   ----------------------------------------
        BYTE                   Cn1
        BYTE   W96
// 075   ----------------------------------------
        BYTE                   Bn0
        BYTE   W96
// 076   ----------------------------------------
        BYTE                   En1
        BYTE   W96
// 077   ----------------------------------------
        BYTE                   En1
        BYTE   W96
// 078   ----------------------------------------
        BYTE                   En1
        BYTE   W96
// 079   ----------------------------------------
        BYTE                   Dn1
        BYTE   W96
// 080   ----------------------------------------
        BYTE   FINE

//****************** Track 2 (Midi-Chn.2) ******************//

TwilightOfTheGods_Sme_2:
        BYTE   KEYSH   TwilightOfTheGods_Sme_key+0
// 000   ----------------------------------------
        BYTE           VOICE   79
        BYTE           VOL     37
        BYTE   W96
// 001   ----------------------------------------
        BYTE           TIE     Bn3   v104
        BYTE           TIE     Fs4
        BYTE   W96
// 002   ----------------------------------------
        BYTE   W96
// 003   ----------------------------------------
        BYTE   W96
// 004   ----------------------------------------
        BYTE           EOT     Bn3
        BYTE                   Fs4
        BYTE           N96     Bn3   v078
        BYTE   W96
// 005   ----------------------------------------
        BYTE           TIE     Bn3   v104
        BYTE           TIE     En4
        BYTE   W48
TwilightOfTheGods_Sme_2_LOOP:
        BYTE   W48
// 006   ----------------------------------------
        BYTE   W96
// 007   ----------------------------------------
        BYTE   W96
// 008   ----------------------------------------
TwilightOfTheGods_Sme_2_8:
        BYTE           EOT     Bn3
        BYTE                   En4
        BYTE           N96     Bn3   v076
        BYTE   W96
        BYTE   PEND
// 009   ----------------------------------------
TwilightOfTheGods_Sme_2_9:
        BYTE           TIE     Bn3   v104
        BYTE           TIE     En4
        BYTE   W96
        BYTE   PEND
// 010   ----------------------------------------
        BYTE   W96
// 011   ----------------------------------------
        BYTE   W96
// 012   ----------------------------------------
        BYTE   PATT
         POIN2  TwilightOfTheGods_Sme_2_8
// 013   ----------------------------------------
        BYTE   PATT
         POIN2  TwilightOfTheGods_Sme_2_9
// 014   ----------------------------------------
        BYTE   W96
// 015   ----------------------------------------
        BYTE   W96
// 016   ----------------------------------------
        BYTE   PATT
         POIN2  TwilightOfTheGods_Sme_2_8
// 017   ----------------------------------------
        BYTE   W96
// 018   ----------------------------------------
        BYTE   W96
// 019   ----------------------------------------
        BYTE   W96
// 020   ----------------------------------------
        BYTE   W96
// 021   ----------------------------------------
        BYTE   W96
// 022   ----------------------------------------
        BYTE   W96
// 023   ----------------------------------------
        BYTE   W96
// 024   ----------------------------------------
        BYTE   W96
// 025   ----------------------------------------
        BYTE   W96
// 026   ----------------------------------------
        BYTE   W96
// 027   ----------------------------------------
        BYTE   W96
// 028   ----------------------------------------
        BYTE   W96
// 029   ----------------------------------------
        BYTE   W96
// 030   ----------------------------------------
        BYTE   W96
// 031   ----------------------------------------
        BYTE   W96
// 032   ----------------------------------------
        BYTE   W96
// 033   ----------------------------------------
        BYTE   W96
// 034   ----------------------------------------
        BYTE   W96
// 035   ----------------------------------------
        BYTE   W96
// 036   ----------------------------------------
        BYTE   W96
// 037   ----------------------------------------
        BYTE   W96
// 038   ----------------------------------------
        BYTE   W96
// 039   ----------------------------------------
        BYTE   W96
// 040   ----------------------------------------
        BYTE   W96
// 041   ----------------------------------------
        BYTE   W96
// 042   ----------------------------------------
        BYTE   W96
// 043   ----------------------------------------
        BYTE   W48
        BYTE   GoTo
         POIN2  TwilightOfTheGods_Sme_2_LOOP
        BYTE   W48
// 044   ----------------------------------------
        BYTE   W96
// 045   ----------------------------------------
        BYTE   W96
// 046   ----------------------------------------
        BYTE   W96
// 047   ----------------------------------------
        BYTE   W96
// 048   ----------------------------------------
        BYTE   W96
// 049   ----------------------------------------
        BYTE   W96
// 050   ----------------------------------------
        BYTE   W96
// 051   ----------------------------------------
        BYTE   W96
// 052   ----------------------------------------
        BYTE   W96
// 053   ----------------------------------------
        BYTE   W96
// 054   ----------------------------------------
        BYTE   W96
// 055   ----------------------------------------
        BYTE   W96
// 056   ----------------------------------------
        BYTE   W96
// 057   ----------------------------------------
        BYTE   W96
// 058   ----------------------------------------
        BYTE   W96
// 059   ----------------------------------------
        BYTE   W96
// 060   ----------------------------------------
        BYTE   W96
// 061   ----------------------------------------
        BYTE   W96
// 062   ----------------------------------------
        BYTE   W96
// 063   ----------------------------------------
        BYTE   W96
// 064   ----------------------------------------
        BYTE   W96
// 065   ----------------------------------------
        BYTE   W96
// 066   ----------------------------------------
        BYTE   W96
// 067   ----------------------------------------
        BYTE   W96
// 068   ----------------------------------------
        BYTE   W96
// 069   ----------------------------------------
        BYTE   W96
// 070   ----------------------------------------
        BYTE   W96
// 071   ----------------------------------------
        BYTE   W96
// 072   ----------------------------------------
        BYTE   W96
// 073   ----------------------------------------
        BYTE   W96
// 074   ----------------------------------------
        BYTE   W96
// 075   ----------------------------------------
        BYTE   W96
// 076   ----------------------------------------
        BYTE   W96
// 077   ----------------------------------------
        BYTE   W96
// 078   ----------------------------------------
        BYTE   W96
// 079   ----------------------------------------
        BYTE   W96
// 080   ----------------------------------------
        BYTE   FINE

//****************** Track 3 (Midi-Chn.3) ******************//

TwilightOfTheGods_Sme_3:
        BYTE   KEYSH   TwilightOfTheGods_Sme_key+0
// 000   ----------------------------------------
        BYTE           VOICE   52
        BYTE           VOL     46
        BYTE   W96
// 001   ----------------------------------------
        BYTE   W96
// 002   ----------------------------------------
        BYTE   W96
// 003   ----------------------------------------
        BYTE   W96
// 004   ----------------------------------------
        BYTE   W96
// 005   ----------------------------------------
        BYTE   W48
TwilightOfTheGods_Sme_3_LOOP:
        BYTE   W48
// 006   ----------------------------------------
        BYTE   W96
// 007   ----------------------------------------
        BYTE   W96
// 008   ----------------------------------------
        BYTE   W96
// 009   ----------------------------------------
        BYTE   W96
// 010   ----------------------------------------
        BYTE   W96
// 011   ----------------------------------------
        BYTE   W96
// 012   ----------------------------------------
        BYTE   W96
// 013   ----------------------------------------
        BYTE   W96
// 014   ----------------------------------------
        BYTE   W96
// 015   ----------------------------------------
        BYTE   W96
// 016   ----------------------------------------
TwilightOfTheGods_Sme_3_16:
        BYTE   W24
        BYTE           N24     En4   v104
        BYTE   W24
        BYTE                   Dn4
        BYTE   W24
        BYTE                   An3
        BYTE   W24
        BYTE   PEND
// 017   ----------------------------------------
TwilightOfTheGods_Sme_3_17:
        BYTE           N48     Bn3   v104
        BYTE   W48
        BYTE           N24     Gn2
        BYTE   W24
        BYTE                   An2
        BYTE   W24
        BYTE   PEND
// 018   ----------------------------------------
TwilightOfTheGods_Sme_3_18:
        BYTE           N48     Bn2   v104
        BYTE   W48
        BYTE                   Gn3
        BYTE   W48
        BYTE   PEND
// 019   ----------------------------------------
TwilightOfTheGods_Sme_3_19:
        BYTE           N48     Fs3   v104
        BYTE   W48
        BYTE                   Dn3
        BYTE   W48
        BYTE   PEND
// 020   ----------------------------------------
        BYTE   PATT
         POIN2  TwilightOfTheGods_Sme_3_16
// 021   ----------------------------------------
        BYTE   PATT
         POIN2  TwilightOfTheGods_Sme_3_17
// 022   ----------------------------------------
        BYTE           N48     Bn2   v104
        BYTE   W48
        BYTE                   Cn3
        BYTE   W48
// 023   ----------------------------------------
        BYTE                   Bn2
        BYTE   W48
        BYTE                   Gn2
        BYTE   W48
// 024   ----------------------------------------
        BYTE   PATT
         POIN2  TwilightOfTheGods_Sme_3_16
// 025   ----------------------------------------
        BYTE   PATT
         POIN2  TwilightOfTheGods_Sme_3_17
// 026   ----------------------------------------
        BYTE   PATT
         POIN2  TwilightOfTheGods_Sme_3_18
// 027   ----------------------------------------
        BYTE   PATT
         POIN2  TwilightOfTheGods_Sme_3_19
// 028   ----------------------------------------
        BYTE   PATT
         POIN2  TwilightOfTheGods_Sme_3_16
// 029   ----------------------------------------
        BYTE   PATT
         POIN2  TwilightOfTheGods_Sme_3_17
// 030   ----------------------------------------
        BYTE           N48     Bn2   v104
        BYTE   W48
        BYTE                   En3
        BYTE   W48
// 031   ----------------------------------------
        BYTE                   Ds3
        BYTE   W48
        BYTE                   Bn2
        BYTE   W48
// 032   ----------------------------------------
        BYTE           TIE     En4
        BYTE   W96
// 033   ----------------------------------------
        BYTE   W96
// 034   ----------------------------------------
        BYTE   W12
        BYTE           EOT
        BYTE   W84
// 035   ----------------------------------------
        BYTE   W96
// 036   ----------------------------------------
        BYTE   W96
// 037   ----------------------------------------
        BYTE   W96
// 038   ----------------------------------------
        BYTE   W96
// 039   ----------------------------------------
        BYTE   W96
// 040   ----------------------------------------
        BYTE   W96
// 041   ----------------------------------------
        BYTE   W96
// 042   ----------------------------------------
        BYTE   W96
// 043   ----------------------------------------
        BYTE   W48
        BYTE   GoTo
         POIN2  TwilightOfTheGods_Sme_3_LOOP
        BYTE   W48
// 044   ----------------------------------------
        BYTE   PATT
         POIN2  TwilightOfTheGods_Sme_3_16
// 045   ----------------------------------------
TwilightOfTheGods_Sme_3_45:
        BYTE           N48     Bn3   v104
        BYTE   W48
        BYTE           N24     Gn3
        BYTE   W24
        BYTE                   An3
        BYTE   W24
        BYTE   PEND
// 046   ----------------------------------------
TwilightOfTheGods_Sme_3_46:
        BYTE           N48     Bn3   v104
        BYTE   W48
        BYTE                   Gn4
        BYTE   W48
        BYTE   PEND
// 047   ----------------------------------------
TwilightOfTheGods_Sme_3_47:
        BYTE           N48     Fs4   v104
        BYTE   W48
        BYTE                   Dn4
        BYTE   W48
        BYTE   PEND
// 048   ----------------------------------------
        BYTE   PATT
         POIN2  TwilightOfTheGods_Sme_3_16
// 049   ----------------------------------------
        BYTE   PATT
         POIN2  TwilightOfTheGods_Sme_3_45
// 050   ----------------------------------------
TwilightOfTheGods_Sme_3_50:
        BYTE           N48     Bn3   v104
        BYTE   W48
        BYTE                   Cn4
        BYTE   W48
        BYTE   PEND
// 051   ----------------------------------------
        BYTE                   Bn3
        BYTE   W48
        BYTE                   Gn3
        BYTE   W48
// 052   ----------------------------------------
        BYTE   PATT
         POIN2  TwilightOfTheGods_Sme_3_16
// 053   ----------------------------------------
        BYTE   PATT
         POIN2  TwilightOfTheGods_Sme_3_45
// 054   ----------------------------------------
        BYTE   PATT
         POIN2  TwilightOfTheGods_Sme_3_46
// 055   ----------------------------------------
        BYTE   PATT
         POIN2  TwilightOfTheGods_Sme_3_47
// 056   ----------------------------------------
        BYTE   PATT
         POIN2  TwilightOfTheGods_Sme_3_16
// 057   ----------------------------------------
        BYTE   PATT
         POIN2  TwilightOfTheGods_Sme_3_45
// 058   ----------------------------------------
        BYTE   PATT
         POIN2  TwilightOfTheGods_Sme_3_50
// 059   ----------------------------------------
TwilightOfTheGods_Sme_3_59:
        BYTE           N48     Bn3   v104
        BYTE   W48
        BYTE                   An3
        BYTE   W48
        BYTE   PEND
// 060   ----------------------------------------
TwilightOfTheGods_Sme_3_60:
        BYTE           N48     An3   v104
        BYTE   W48
        BYTE           N96     Gn3
        BYTE   W48
        BYTE   PEND
// 061   ----------------------------------------
TwilightOfTheGods_Sme_3_61:
        BYTE   W48
        BYTE           N16     En3   v104
        BYTE   W16
        BYTE                   Fs3
        BYTE   W16
        BYTE                   Gn3
        BYTE   W16
        BYTE   PEND
// 062   ----------------------------------------
        BYTE           N48     An3
        BYTE   W48
        BYTE                   Gn3
        BYTE   W48
// 063   ----------------------------------------
        BYTE   PATT
         POIN2  TwilightOfTheGods_Sme_3_19
// 064   ----------------------------------------
        BYTE   PATT
         POIN2  TwilightOfTheGods_Sme_3_60
// 065   ----------------------------------------
        BYTE   PATT
         POIN2  TwilightOfTheGods_Sme_3_61
// 066   ----------------------------------------
        BYTE   PATT
         POIN2  TwilightOfTheGods_Sme_3_59
// 067   ----------------------------------------
        BYTE           N48     Bn3   v104
        BYTE   W48
        BYTE           N16     Gn3
        BYTE   W16
        BYTE                   An3
        BYTE   W16
        BYTE                   Bn3
        BYTE   W16
// 068   ----------------------------------------
TwilightOfTheGods_Sme_3_68:
        BYTE           N48     En4   v104
        BYTE   W48
        BYTE           N16     Gn3
        BYTE   W16
        BYTE                   An3
        BYTE   W16
        BYTE                   Bn3
        BYTE   W16
        BYTE   PEND
// 069   ----------------------------------------
TwilightOfTheGods_Sme_3_69:
        BYTE           N48     Dn4   v104
        BYTE   W48
        BYTE           N16     En3
        BYTE   W16
        BYTE                   Gn3
        BYTE   W16
        BYTE                   An3
        BYTE   W16
        BYTE   PEND
// 070   ----------------------------------------
TwilightOfTheGods_Sme_3_70:
        BYTE           N48     Dn4   v104
        BYTE   W48
        BYTE           N16     Dn3
        BYTE   W16
        BYTE                   Fs3
        BYTE   W16
        BYTE                   An3
        BYTE   W16
        BYTE   PEND
// 071   ----------------------------------------
        BYTE           N24     En4
        BYTE   W24
        BYTE                   Dn4
        BYTE   W24
        BYTE           N16     Gn3
        BYTE   W16
        BYTE                   An3
        BYTE   W16
        BYTE                   Bn3
        BYTE   W16
// 072   ----------------------------------------
        BYTE   PATT
         POIN2  TwilightOfTheGods_Sme_3_68
// 073   ----------------------------------------
        BYTE   PATT
         POIN2  TwilightOfTheGods_Sme_3_69
// 074   ----------------------------------------
        BYTE   PATT
         POIN2  TwilightOfTheGods_Sme_3_70
// 075   ----------------------------------------
        BYTE           N24     En4   v104
        BYTE   W24
        BYTE                   Dn4
        BYTE   W24
        BYTE           N16     Dn3
        BYTE   W16
        BYTE                   Fs3
        BYTE   W16
        BYTE                   An3
        BYTE   W16
// 076   ----------------------------------------
        BYTE           N24     En4
        BYTE   W96
// 077   ----------------------------------------
        BYTE                   En4
        BYTE   W96
// 078   ----------------------------------------
        BYTE                   En4
        BYTE   W96
// 079   ----------------------------------------
        BYTE                   En4
        BYTE   W96
// 080   ----------------------------------------
        BYTE   FINE

//****************** Track 4 (Midi-Chn.4) ******************//

TwilightOfTheGods_Sme_4:
        BYTE   KEYSH   TwilightOfTheGods_Sme_key+0
// 000   ----------------------------------------
        BYTE           VOICE   1
        BYTE           VOL     41
        BYTE           N96     En2   v104
        BYTE   W96
// 001   ----------------------------------------
        BYTE           TIE     Bn2
        BYTE           TIE     Dn3
        BYTE   W96
// 002   ----------------------------------------
        BYTE   W96
// 003   ----------------------------------------
        BYTE   W96
// 004   ----------------------------------------
        BYTE           EOT     Bn2
        BYTE                   Dn3
        BYTE           N96     Bn2   v062
        BYTE           N96     Cn2
        BYTE   W96
// 005   ----------------------------------------
        BYTE           TIE     Gn2   v104
        BYTE           TIE     Bn2
        BYTE   W48
TwilightOfTheGods_Sme_4_LOOP:
        BYTE   W48
// 006   ----------------------------------------
        BYTE   W96
// 007   ----------------------------------------
        BYTE   W96
// 008   ----------------------------------------
        BYTE           EOT     Gn2
        BYTE                   Bn2
        BYTE           N96     Gn2   v059
        BYTE           N96     An1
        BYTE   W96
// 009   ----------------------------------------
TwilightOfTheGods_Sme_4_9:
        BYTE           TIE     Gn2   v104
        BYTE           TIE     Bn2
        BYTE   W96
        BYTE   PEND
// 010   ----------------------------------------
        BYTE   W96
// 011   ----------------------------------------
        BYTE   W96
// 012   ----------------------------------------
        BYTE           EOT     Gn2
        BYTE                   Bn2
        BYTE           N96     Gn2   v059
        BYTE           N96     Bn1   v104
        BYTE   W96
// 013   ----------------------------------------
        BYTE   PATT
         POIN2  TwilightOfTheGods_Sme_4_9
// 014   ----------------------------------------
        BYTE   W96
// 015   ----------------------------------------
        BYTE   W96
// 016   ----------------------------------------
        BYTE           EOT     Gn2
        BYTE                   Bn2
        BYTE           N96     Gn2   v059
        BYTE   W96
// 017   ----------------------------------------
        BYTE   W96
// 018   ----------------------------------------
        BYTE   W96
// 019   ----------------------------------------
        BYTE   W96
// 020   ----------------------------------------
        BYTE   W96
// 021   ----------------------------------------
        BYTE   W96
// 022   ----------------------------------------
        BYTE   W96
// 023   ----------------------------------------
        BYTE   W96
// 024   ----------------------------------------
        BYTE   W96
// 025   ----------------------------------------
        BYTE   W96
// 026   ----------------------------------------
        BYTE   W96
// 027   ----------------------------------------
        BYTE   W96
// 028   ----------------------------------------
        BYTE   W96
// 029   ----------------------------------------
        BYTE   W96
// 030   ----------------------------------------
        BYTE   W96
// 031   ----------------------------------------
        BYTE   W96
// 032   ----------------------------------------
        BYTE   W96
// 033   ----------------------------------------
        BYTE   W96
// 034   ----------------------------------------
        BYTE   W96
// 035   ----------------------------------------
        BYTE   W96
// 036   ----------------------------------------
        BYTE   W96
// 037   ----------------------------------------
        BYTE   W96
// 038   ----------------------------------------
        BYTE   W96
// 039   ----------------------------------------
        BYTE   W96
// 040   ----------------------------------------
        BYTE   W96
// 041   ----------------------------------------
        BYTE   W96
// 042   ----------------------------------------
        BYTE   W96
// 043   ----------------------------------------
        BYTE   W48
        BYTE   GoTo
         POIN2  TwilightOfTheGods_Sme_4_LOOP
        BYTE   W48
// 044   ----------------------------------------
        BYTE   W96
// 045   ----------------------------------------
        BYTE   W96
// 046   ----------------------------------------
        BYTE   W96
// 047   ----------------------------------------
        BYTE   W96
// 048   ----------------------------------------
        BYTE   W96
// 049   ----------------------------------------
        BYTE   W96
// 050   ----------------------------------------
        BYTE   W96
// 051   ----------------------------------------
        BYTE   W96
// 052   ----------------------------------------
        BYTE   W96
// 053   ----------------------------------------
        BYTE   W96
// 054   ----------------------------------------
        BYTE   W96
// 055   ----------------------------------------
        BYTE   W96
// 056   ----------------------------------------
        BYTE   W96
// 057   ----------------------------------------
        BYTE   W96
// 058   ----------------------------------------
        BYTE   W96
// 059   ----------------------------------------
        BYTE   W96
// 060   ----------------------------------------
        BYTE   W96
// 061   ----------------------------------------
        BYTE   W96
// 062   ----------------------------------------
        BYTE   W96
// 063   ----------------------------------------
        BYTE   W96
// 064   ----------------------------------------
        BYTE   W96
// 065   ----------------------------------------
        BYTE   W96
// 066   ----------------------------------------
        BYTE   W96
// 067   ----------------------------------------
        BYTE   W96
// 068   ----------------------------------------
        BYTE   W96
// 069   ----------------------------------------
        BYTE   W96
// 070   ----------------------------------------
        BYTE   W96
// 071   ----------------------------------------
        BYTE   W96
// 072   ----------------------------------------
        BYTE   W96
// 073   ----------------------------------------
        BYTE   W96
// 074   ----------------------------------------
        BYTE   W96
// 075   ----------------------------------------
        BYTE   W96
// 076   ----------------------------------------
        BYTE   W96
// 077   ----------------------------------------
        BYTE   W96
// 078   ----------------------------------------
        BYTE   W96
// 079   ----------------------------------------
        BYTE   W96
// 080   ----------------------------------------
        BYTE   FINE

//****************** Track 5 (Midi-Chn.5) ******************//

TwilightOfTheGods_Sme_5:
        BYTE   KEYSH   TwilightOfTheGods_Sme_key+0
// 000   ----------------------------------------
        BYTE           VOICE   123
        BYTE           VOL     45
        BYTE           N96     En2   v104
        BYTE   W96
// 001   ----------------------------------------
        BYTE   W96
// 002   ----------------------------------------
        BYTE   W96
// 003   ----------------------------------------
        BYTE   W96
// 004   ----------------------------------------
        BYTE   W96
// 005   ----------------------------------------
        BYTE   W48
TwilightOfTheGods_Sme_5_LOOP:
        BYTE   W48
// 006   ----------------------------------------
        BYTE   W96
// 007   ----------------------------------------
        BYTE   W96
// 008   ----------------------------------------
        BYTE   W96
// 009   ----------------------------------------
        BYTE   W96
// 010   ----------------------------------------
        BYTE   W96
// 011   ----------------------------------------
        BYTE   W96
// 012   ----------------------------------------
        BYTE   W96
// 013   ----------------------------------------
        BYTE   W96
// 014   ----------------------------------------
        BYTE   W96
// 015   ----------------------------------------
        BYTE   W48
        BYTE           N03     Cn1   v016
        BYTE   W03
        BYTE                   Cn1   v020
        BYTE   W03
        BYTE                   Cn1   v028
        BYTE   W03
        BYTE                   Cn1   v032
        BYTE   W03
        BYTE                   Cn1   v040
        BYTE   W03
        BYTE                   Cn1   v048
        BYTE   W03
        BYTE                   Cn1   v052
        BYTE   W03
        BYTE                   Cn1   v060
        BYTE   W03
        BYTE                   Cn1   v064
        BYTE   W03
        BYTE                   Cn1   v072
        BYTE   W03
        BYTE                   Cn1   v076
        BYTE   W03
        BYTE                   Cn1   v084
        BYTE   W03
        BYTE                   Cn1   v092
        BYTE   W03
        BYTE                   Cn1   v096
        BYTE   W03
        BYTE                   Cn1   v104
        BYTE   W03
        BYTE                   Cn1
        BYTE   W03
// 016   ----------------------------------------
TwilightOfTheGods_Sme_5_16:
        BYTE           N48     Cn1   v104
        BYTE           N48     Cs2
        BYTE   W48
        BYTE           N16     Dn1   v064
        BYTE   W16
        BYTE           N32     Dn1   v040
        BYTE   W32
        BYTE   PEND
// 017   ----------------------------------------
TwilightOfTheGods_Sme_5_17:
        BYTE   W48
        BYTE           N16     Dn1   v064
        BYTE   W16
        BYTE           N32     Dn1   v040
        BYTE   W32
        BYTE   PEND
// 018   ----------------------------------------
        BYTE   PATT
         POIN2  TwilightOfTheGods_Sme_5_17
// 019   ----------------------------------------
TwilightOfTheGods_Sme_5_19:
        BYTE   W48
        BYTE           N16     Dn1   v064
        BYTE   W16
        BYTE                   Dn1   v040
        BYTE   W16
        BYTE                   Ds1   v064
        BYTE   W16
        BYTE   PEND
// 020   ----------------------------------------
        BYTE   PATT
         POIN2  TwilightOfTheGods_Sme_5_16
// 021   ----------------------------------------
        BYTE   PATT
         POIN2  TwilightOfTheGods_Sme_5_17
// 022   ----------------------------------------
        BYTE   PATT
         POIN2  TwilightOfTheGods_Sme_5_17
// 023   ----------------------------------------
        BYTE   PATT
         POIN2  TwilightOfTheGods_Sme_5_19
// 024   ----------------------------------------
        BYTE   PATT
         POIN2  TwilightOfTheGods_Sme_5_16
// 025   ----------------------------------------
        BYTE   PATT
         POIN2  TwilightOfTheGods_Sme_5_17
// 026   ----------------------------------------
        BYTE   PATT
         POIN2  TwilightOfTheGods_Sme_5_17
// 027   ----------------------------------------
        BYTE   PATT
         POIN2  TwilightOfTheGods_Sme_5_19
// 028   ----------------------------------------
        BYTE   PATT
         POIN2  TwilightOfTheGods_Sme_5_16
// 029   ----------------------------------------
        BYTE   PATT
         POIN2  TwilightOfTheGods_Sme_5_17
// 030   ----------------------------------------
        BYTE   PATT
         POIN2  TwilightOfTheGods_Sme_5_17
// 031   ----------------------------------------
        BYTE   PATT
         POIN2  TwilightOfTheGods_Sme_5_19
// 032   ----------------------------------------
TwilightOfTheGods_Sme_5_32:
        BYTE           N48     Cn1   v104
        BYTE           N48     Cs2
        BYTE   W96
        BYTE   PEND
// 033   ----------------------------------------
        BYTE   W96
// 034   ----------------------------------------
        BYTE   W96
// 035   ----------------------------------------
        BYTE   W48
        BYTE                   En2
        BYTE   W48
// 036   ----------------------------------------
TwilightOfTheGods_Sme_5_36:
        BYTE           N48     Cn1   v104
        BYTE           N96     Cs2
        BYTE   W48
        BYTE           N48     Cn1
        BYTE   W48
        BYTE   PEND
// 037   ----------------------------------------
TwilightOfTheGods_Sme_5_37:
        BYTE           N48     Cn1   v104
        BYTE   W48
        BYTE                   Cn1
        BYTE   W48
        BYTE   PEND
// 038   ----------------------------------------
        BYTE   PATT
         POIN2  TwilightOfTheGods_Sme_5_36
// 039   ----------------------------------------
        BYTE   PATT
         POIN2  TwilightOfTheGods_Sme_5_37
// 040   ----------------------------------------
        BYTE   PATT
         POIN2  TwilightOfTheGods_Sme_5_36
// 041   ----------------------------------------
        BYTE   PATT
         POIN2  TwilightOfTheGods_Sme_5_37
// 042   ----------------------------------------
        BYTE   PATT
         POIN2  TwilightOfTheGods_Sme_5_36
// 043   ----------------------------------------
        BYTE           N48     Cn1   v104
        BYTE   W24
        BYTE           N96     En2
        BYTE   W24
        BYTE           N48     Cn1
        BYTE   GoTo
         POIN2  TwilightOfTheGods_Sme_5_LOOP
        BYTE   W48
// 044   ----------------------------------------
        BYTE   W24
        BYTE           N96     Cs2
        BYTE   W72
// 045   ----------------------------------------
        BYTE   W96
// 046   ----------------------------------------
        BYTE   W96
// 047   ----------------------------------------
        BYTE   W96
// 048   ----------------------------------------
        BYTE                   Cs2
        BYTE   W96
// 049   ----------------------------------------
        BYTE   W96
// 050   ----------------------------------------
        BYTE   W96
// 051   ----------------------------------------
        BYTE   W96
// 052   ----------------------------------------
        BYTE                   Cs2
        BYTE   W96
// 053   ----------------------------------------
        BYTE   W96
// 054   ----------------------------------------
        BYTE   W96
// 055   ----------------------------------------
        BYTE   W96
// 056   ----------------------------------------
        BYTE                   Cs2
        BYTE   W96
// 057   ----------------------------------------
        BYTE   W96
// 058   ----------------------------------------
        BYTE   W96
// 059   ----------------------------------------
        BYTE   W96
// 060   ----------------------------------------
TwilightOfTheGods_Sme_5_60:
        BYTE           N24     Cn1   v104
        BYTE   W24
        BYTE                   Cn1
        BYTE   W24
        BYTE                   Cn1
        BYTE   W24
        BYTE                   Cn1
        BYTE   W24
        BYTE   PEND
// 061   ----------------------------------------
        BYTE   PATT
         POIN2  TwilightOfTheGods_Sme_5_60
// 062   ----------------------------------------
        BYTE   PATT
         POIN2  TwilightOfTheGods_Sme_5_60
// 063   ----------------------------------------
        BYTE   PATT
         POIN2  TwilightOfTheGods_Sme_5_60
// 064   ----------------------------------------
        BYTE   PATT
         POIN2  TwilightOfTheGods_Sme_5_60
// 065   ----------------------------------------
        BYTE   PATT
         POIN2  TwilightOfTheGods_Sme_5_60
// 066   ----------------------------------------
        BYTE   PATT
         POIN2  TwilightOfTheGods_Sme_5_60
// 067   ----------------------------------------
        BYTE   PATT
         POIN2  TwilightOfTheGods_Sme_5_60
// 068   ----------------------------------------
        BYTE   PATT
         POIN2  TwilightOfTheGods_Sme_5_36
// 069   ----------------------------------------
        BYTE   PATT
         POIN2  TwilightOfTheGods_Sme_5_36
// 070   ----------------------------------------
        BYTE   PATT
         POIN2  TwilightOfTheGods_Sme_5_36
// 071   ----------------------------------------
        BYTE   PATT
         POIN2  TwilightOfTheGods_Sme_5_36
// 072   ----------------------------------------
        BYTE   PATT
         POIN2  TwilightOfTheGods_Sme_5_36
// 073   ----------------------------------------
        BYTE   PATT
         POIN2  TwilightOfTheGods_Sme_5_36
// 074   ----------------------------------------
        BYTE   PATT
         POIN2  TwilightOfTheGods_Sme_5_36
// 075   ----------------------------------------
        BYTE   PATT
         POIN2  TwilightOfTheGods_Sme_5_36
// 076   ----------------------------------------
        BYTE   PATT
         POIN2  TwilightOfTheGods_Sme_5_32
// 077   ----------------------------------------
        BYTE   PATT
         POIN2  TwilightOfTheGods_Sme_5_32
// 078   ----------------------------------------
        BYTE   PATT
         POIN2  TwilightOfTheGods_Sme_5_32
// 079   ----------------------------------------
        BYTE   PATT
         POIN2  TwilightOfTheGods_Sme_5_32
// 080   ----------------------------------------
        BYTE   FINE

//****************** Track 6 (Midi-Chn.6) ******************//

TwilightOfTheGods_Sme_6:
        BYTE   KEYSH   TwilightOfTheGods_Sme_key+0
// 000   ----------------------------------------
        BYTE           VOICE   1
        BYTE           VOL     42
        BYTE   W96
// 001   ----------------------------------------
        BYTE   W96
// 002   ----------------------------------------
        BYTE   W96
// 003   ----------------------------------------
        BYTE   W96
// 004   ----------------------------------------
        BYTE   W96
// 005   ----------------------------------------
        BYTE   W48
TwilightOfTheGods_Sme_6_LOOP:
        BYTE   W48
// 006   ----------------------------------------
        BYTE   W96
// 007   ----------------------------------------
        BYTE   W96
// 008   ----------------------------------------
        BYTE   W96
// 009   ----------------------------------------
        BYTE   W96
// 010   ----------------------------------------
        BYTE   W96
// 011   ----------------------------------------
        BYTE   W96
// 012   ----------------------------------------
        BYTE   W96
// 013   ----------------------------------------
        BYTE   W96
// 014   ----------------------------------------
        BYTE   W96
// 015   ----------------------------------------
        BYTE   W96
// 016   ----------------------------------------
        BYTE   W96
// 017   ----------------------------------------
        BYTE   W96
// 018   ----------------------------------------
        BYTE   W96
// 019   ----------------------------------------
        BYTE   W96
// 020   ----------------------------------------
        BYTE   W96
// 021   ----------------------------------------
        BYTE   W96
// 022   ----------------------------------------
        BYTE   W96
// 023   ----------------------------------------
        BYTE   W96
// 024   ----------------------------------------
        BYTE   W96
// 025   ----------------------------------------
        BYTE   W96
// 026   ----------------------------------------
        BYTE   W96
// 027   ----------------------------------------
        BYTE   W96
// 028   ----------------------------------------
        BYTE   W96
// 029   ----------------------------------------
        BYTE   W96
// 030   ----------------------------------------
        BYTE   W96
// 031   ----------------------------------------
        BYTE   W96
// 032   ----------------------------------------
TwilightOfTheGods_Sme_6_32:
        BYTE           N04     Bn2   v104
        BYTE   W04
        BYTE                   En3
        BYTE   W04
        BYTE                   Fs3
        BYTE   W04
        BYTE                   Gn3
        BYTE   W04
        BYTE                   Dn4
        BYTE   W04
        BYTE                   An3
        BYTE   W04
        BYTE                   Gn3
        BYTE   W04
        BYTE                   Fs3
        BYTE   W04
        BYTE                   Gn3
        BYTE   W04
        BYTE                   Fs3
        BYTE   W04
        BYTE                   En3
        BYTE   W04
        BYTE                   Fs3
        BYTE   W04
        BYTE                   En3
        BYTE   W04
        BYTE                   An2
        BYTE   W04
        BYTE                   En3
        BYTE   W04
        BYTE                   Fs3
        BYTE   W04
        BYTE                   Bn2
        BYTE   W04
        BYTE                   Fs3
        BYTE   W04
        BYTE                   Gn3
        BYTE   W04
        BYTE                   An2
        BYTE   W04
        BYTE                   Gn3
        BYTE   W04
        BYTE                   Gn3
        BYTE   W04
        BYTE                   Fs3
        BYTE   W04
        BYTE                   Dn3
        BYTE   W04
        BYTE   PEND
// 033   ----------------------------------------
        BYTE   PATT
         POIN2  TwilightOfTheGods_Sme_6_32
// 034   ----------------------------------------
        BYTE   PATT
         POIN2  TwilightOfTheGods_Sme_6_32
// 035   ----------------------------------------
        BYTE           N04     Bn2   v104
        BYTE   W04
        BYTE                   En3
        BYTE   W04
        BYTE                   Fs3
        BYTE   W04
        BYTE                   Gn3
        BYTE   W04
        BYTE                   Dn4
        BYTE   W04
        BYTE                   An3
        BYTE   W04
        BYTE                   Gn3
        BYTE   W04
        BYTE                   Fs3
        BYTE   W04
        BYTE                   Gn3
        BYTE   W04
        BYTE                   Fs3
        BYTE   W04
        BYTE                   En3
        BYTE   W04
        BYTE                   Fs3
        BYTE   W04
        BYTE                   Fs5
        BYTE   W04
        BYTE                   An4
        BYTE   W04
        BYTE                   Dn5
        BYTE   W04
        BYTE                   Dn4
        BYTE   W04
        BYTE                   En4
        BYTE   W04
        BYTE                   An3
        BYTE   W04
        BYTE                   Dn4
        BYTE   W04
        BYTE                   Gn3
        BYTE   W04
        BYTE                   Fs3
        BYTE   W04
        BYTE                   An2
        BYTE   W04
        BYTE                   An2
        BYTE   W04
        BYTE                   An2
        BYTE   W04
// 036   ----------------------------------------
        BYTE   W96
// 037   ----------------------------------------
        BYTE   W96
// 038   ----------------------------------------
        BYTE   W96
// 039   ----------------------------------------
        BYTE   W96
// 040   ----------------------------------------
        BYTE   W96
// 041   ----------------------------------------
        BYTE   W96
// 042   ----------------------------------------
        BYTE   W96
// 043   ----------------------------------------
        BYTE   W48
        BYTE   GoTo
         POIN2  TwilightOfTheGods_Sme_6_LOOP
        BYTE   W48
// 044   ----------------------------------------
TwilightOfTheGods_Sme_6_44:
        BYTE   W24
        BYTE           N24     En3   v064
        BYTE   W24
        BYTE                   Dn3
        BYTE   W24
        BYTE                   An2
        BYTE   W24
        BYTE   PEND
// 045   ----------------------------------------
TwilightOfTheGods_Sme_6_45:
        BYTE           N48     Bn2   v064
        BYTE   W48
        BYTE           N24     Gn2
        BYTE   W24
        BYTE                   An2
        BYTE   W24
        BYTE   PEND
// 046   ----------------------------------------
TwilightOfTheGods_Sme_6_46:
        BYTE           N48     Bn2   v064
        BYTE   W48
        BYTE                   Gn3
        BYTE   W48
        BYTE   PEND
// 047   ----------------------------------------
TwilightOfTheGods_Sme_6_47:
        BYTE           N48     Fs3   v064
        BYTE   W48
        BYTE                   Dn3
        BYTE   W48
        BYTE   PEND
// 048   ----------------------------------------
        BYTE   PATT
         POIN2  TwilightOfTheGods_Sme_6_44
// 049   ----------------------------------------
        BYTE   PATT
         POIN2  TwilightOfTheGods_Sme_6_45
// 050   ----------------------------------------
TwilightOfTheGods_Sme_6_50:
        BYTE           N48     Bn2   v064
        BYTE   W48
        BYTE                   Cn3
        BYTE   W48
        BYTE   PEND
// 051   ----------------------------------------
        BYTE                   Bn2
        BYTE   W48
        BYTE                   Gn2
        BYTE   W48
// 052   ----------------------------------------
        BYTE   PATT
         POIN2  TwilightOfTheGods_Sme_6_44
// 053   ----------------------------------------
        BYTE   PATT
         POIN2  TwilightOfTheGods_Sme_6_45
// 054   ----------------------------------------
        BYTE   PATT
         POIN2  TwilightOfTheGods_Sme_6_46
// 055   ----------------------------------------
        BYTE   PATT
         POIN2  TwilightOfTheGods_Sme_6_47
// 056   ----------------------------------------
        BYTE   PATT
         POIN2  TwilightOfTheGods_Sme_6_44
// 057   ----------------------------------------
        BYTE   PATT
         POIN2  TwilightOfTheGods_Sme_6_45
// 058   ----------------------------------------
        BYTE   PATT
         POIN2  TwilightOfTheGods_Sme_6_50
// 059   ----------------------------------------
        BYTE           N48     Bn2   v064
        BYTE   W48
        BYTE                   An2
        BYTE   W48
// 060   ----------------------------------------
        BYTE   W96
// 061   ----------------------------------------
        BYTE   W96
// 062   ----------------------------------------
        BYTE   W96
// 063   ----------------------------------------
        BYTE   W96
// 064   ----------------------------------------
        BYTE   W96
// 065   ----------------------------------------
        BYTE   W96
// 066   ----------------------------------------
        BYTE   W96
// 067   ----------------------------------------
        BYTE   W96
// 068   ----------------------------------------
        BYTE   W96
// 069   ----------------------------------------
        BYTE   W96
// 070   ----------------------------------------
        BYTE   W96
// 071   ----------------------------------------
        BYTE   W96
// 072   ----------------------------------------
        BYTE   W96
// 073   ----------------------------------------
        BYTE   W96
// 074   ----------------------------------------
        BYTE   W96
// 075   ----------------------------------------
        BYTE   W96
// 076   ----------------------------------------
        BYTE   W96
// 077   ----------------------------------------
        BYTE   W96
// 078   ----------------------------------------
        BYTE   W96
// 079   ----------------------------------------
        BYTE   W96
// 080   ----------------------------------------
        BYTE   FINE

//****************** Track 7 (Midi-Chn.7) ******************//

TwilightOfTheGods_Sme_7:
        BYTE   KEYSH   TwilightOfTheGods_Sme_key+0
// 000   ----------------------------------------
        BYTE           VOICE   61
        BYTE           VOL     40
        BYTE   W96
// 001   ----------------------------------------
        BYTE   W96
// 002   ----------------------------------------
        BYTE   W96
// 003   ----------------------------------------
        BYTE   W96
// 004   ----------------------------------------
        BYTE   W96
// 005   ----------------------------------------
        BYTE   W48
TwilightOfTheGods_Sme_7_LOOP:
        BYTE   W48
// 006   ----------------------------------------
        BYTE   W96
// 007   ----------------------------------------
        BYTE   W96
// 008   ----------------------------------------
        BYTE   W96
// 009   ----------------------------------------
        BYTE   W96
// 010   ----------------------------------------
        BYTE   W96
// 011   ----------------------------------------
        BYTE   W96
// 012   ----------------------------------------
        BYTE   W96
// 013   ----------------------------------------
        BYTE   W96
// 014   ----------------------------------------
        BYTE   W96
// 015   ----------------------------------------
        BYTE   W96
// 016   ----------------------------------------
        BYTE   W96
// 017   ----------------------------------------
        BYTE   W96
// 018   ----------------------------------------
        BYTE   W96
// 019   ----------------------------------------
        BYTE   W96
// 020   ----------------------------------------
        BYTE   W96
// 021   ----------------------------------------
        BYTE   W96
// 022   ----------------------------------------
        BYTE   W96
// 023   ----------------------------------------
        BYTE   W96
// 024   ----------------------------------------
        BYTE   W96
// 025   ----------------------------------------
        BYTE   W96
// 026   ----------------------------------------
        BYTE   W96
// 027   ----------------------------------------
        BYTE   W96
// 028   ----------------------------------------
        BYTE   W96
// 029   ----------------------------------------
        BYTE   W96
// 030   ----------------------------------------
        BYTE   W96
// 031   ----------------------------------------
        BYTE   W96
// 032   ----------------------------------------
        BYTE   W96
// 033   ----------------------------------------
        BYTE   W96
// 034   ----------------------------------------
        BYTE   W96
// 035   ----------------------------------------
        BYTE   W96
// 036   ----------------------------------------
TwilightOfTheGods_Sme_7_36:
        BYTE           N08     En4   v104
        BYTE   W16
        BYTE                   Gn4
        BYTE   W08
        BYTE                   Fs4
        BYTE   W08
        BYTE                   Gn4
        BYTE   W08
        BYTE                   Fs4
        BYTE   W08
        BYTE           N16     En4
        BYTE   W16
        BYTE           N08     Gn4
        BYTE   W08
        BYTE                   Fs4
        BYTE   W08
        BYTE                   Gn4
        BYTE   W08
        BYTE                   Fs4
        BYTE   W08
        BYTE   PEND
// 037   ----------------------------------------
TwilightOfTheGods_Sme_7_37:
        BYTE           N08     En4   v104
        BYTE   W16
        BYTE                   Gn4
        BYTE   W08
        BYTE                   Fs4
        BYTE   W08
        BYTE                   Gn4
        BYTE   W08
        BYTE                   Fs4
        BYTE   W08
        BYTE                   En4
        BYTE   W08
        BYTE                   Fs4
        BYTE   W08
        BYTE                   Gn4
        BYTE   W08
        BYTE                   An4
        BYTE   W08
        BYTE                   Gn4
        BYTE   W08
        BYTE                   Fs4
        BYTE   W08
        BYTE   PEND
// 038   ----------------------------------------
        BYTE   PATT
         POIN2  TwilightOfTheGods_Sme_7_36
// 039   ----------------------------------------
        BYTE   PATT
         POIN2  TwilightOfTheGods_Sme_7_37
// 040   ----------------------------------------
        BYTE   PATT
         POIN2  TwilightOfTheGods_Sme_7_36
// 041   ----------------------------------------
        BYTE   PATT
         POIN2  TwilightOfTheGods_Sme_7_37
// 042   ----------------------------------------
        BYTE   PATT
         POIN2  TwilightOfTheGods_Sme_7_36
// 043   ----------------------------------------
        BYTE           N08     En4   v104
        BYTE   W16
        BYTE                   Bn3
        BYTE   W08
        BYTE                   En4
        BYTE   W08
        BYTE                   Fs4
        BYTE   W08
        BYTE                   En4
        BYTE   W08
        BYTE           N48     Ds4
        BYTE   GoTo
         POIN2  TwilightOfTheGods_Sme_7_LOOP
        BYTE   W48
// 044   ----------------------------------------
        BYTE   W96
// 045   ----------------------------------------
        BYTE   W96
// 046   ----------------------------------------
        BYTE   W96
// 047   ----------------------------------------
        BYTE   W96
// 048   ----------------------------------------
        BYTE   W96
// 049   ----------------------------------------
        BYTE   W96
// 050   ----------------------------------------
        BYTE   W96
// 051   ----------------------------------------
        BYTE   W96
// 052   ----------------------------------------
        BYTE   W96
// 053   ----------------------------------------
        BYTE   W96
// 054   ----------------------------------------
        BYTE   W96
// 055   ----------------------------------------
        BYTE   W96
// 056   ----------------------------------------
        BYTE   W96
// 057   ----------------------------------------
        BYTE   W96
// 058   ----------------------------------------
        BYTE   W96
// 059   ----------------------------------------
        BYTE   W96
// 060   ----------------------------------------
TwilightOfTheGods_Sme_7_60:
        BYTE           N16     En2   v104
        BYTE   W24
        BYTE                   En2
        BYTE   W24
        BYTE                   En2
        BYTE   W16
        BYTE                   En2
        BYTE   W16
        BYTE                   En2
        BYTE   W16
        BYTE   PEND
// 061   ----------------------------------------
        BYTE   PATT
         POIN2  TwilightOfTheGods_Sme_7_60
// 062   ----------------------------------------
        BYTE   PATT
         POIN2  TwilightOfTheGods_Sme_7_60
// 063   ----------------------------------------
        BYTE   PATT
         POIN2  TwilightOfTheGods_Sme_7_60
// 064   ----------------------------------------
TwilightOfTheGods_Sme_7_64:
        BYTE           N16     Cn2   v104
        BYTE   W24
        BYTE                   Cn2
        BYTE   W24
        BYTE                   Cn2
        BYTE   W16
        BYTE                   Cn2
        BYTE   W16
        BYTE                   Cn2
        BYTE   W16
        BYTE   PEND
// 065   ----------------------------------------
        BYTE   PATT
         POIN2  TwilightOfTheGods_Sme_7_64
// 066   ----------------------------------------
TwilightOfTheGods_Sme_7_66:
        BYTE           N16     Dn2   v104
        BYTE   W24
        BYTE                   Dn2
        BYTE   W24
        BYTE                   Dn2
        BYTE   W16
        BYTE                   Dn2
        BYTE   W16
        BYTE                   Dn2
        BYTE   W16
        BYTE   PEND
// 067   ----------------------------------------
        BYTE   PATT
         POIN2  TwilightOfTheGods_Sme_7_66
// 068   ----------------------------------------
        BYTE   W96
// 069   ----------------------------------------
        BYTE   W96
// 070   ----------------------------------------
        BYTE   W96
// 071   ----------------------------------------
        BYTE   W96
// 072   ----------------------------------------
        BYTE   W96
// 073   ----------------------------------------
        BYTE   W96
// 074   ----------------------------------------
        BYTE   W96
// 075   ----------------------------------------
        BYTE   W96
// 076   ----------------------------------------
        BYTE   W96
// 077   ----------------------------------------
        BYTE   W96
// 078   ----------------------------------------
        BYTE   W96
// 079   ----------------------------------------
        BYTE   W96
// 080   ----------------------------------------
        BYTE   FINE

//****************** Track 8 (Midi-Chn.8) ******************//

TwilightOfTheGods_Sme_8:
        BYTE   KEYSH   TwilightOfTheGods_Sme_key+0
// 000   ----------------------------------------
        BYTE           VOICE   116
        BYTE           VOL     41
        BYTE   W96
// 001   ----------------------------------------
        BYTE   W96
// 002   ----------------------------------------
        BYTE   W96
// 003   ----------------------------------------
        BYTE   W96
// 004   ----------------------------------------
        BYTE   W96
// 005   ----------------------------------------
        BYTE   W48
TwilightOfTheGods_Sme_8_LOOP:
        BYTE   W48
// 006   ----------------------------------------
        BYTE   W96
// 007   ----------------------------------------
        BYTE   W96
// 008   ----------------------------------------
        BYTE   W96
// 009   ----------------------------------------
        BYTE   W96
// 010   ----------------------------------------
        BYTE   W96
// 011   ----------------------------------------
        BYTE   W96
// 012   ----------------------------------------
        BYTE   W96
// 013   ----------------------------------------
        BYTE   W96
// 014   ----------------------------------------
        BYTE   W96
// 015   ----------------------------------------
        BYTE   W96
// 016   ----------------------------------------
        BYTE   W96
// 017   ----------------------------------------
        BYTE   W96
// 018   ----------------------------------------
        BYTE   W96
// 019   ----------------------------------------
        BYTE   W96
// 020   ----------------------------------------
        BYTE   W96
// 021   ----------------------------------------
        BYTE   W96
// 022   ----------------------------------------
        BYTE   W96
// 023   ----------------------------------------
        BYTE   W96
// 024   ----------------------------------------
        BYTE   W96
// 025   ----------------------------------------
        BYTE   W96
// 026   ----------------------------------------
        BYTE   W96
// 027   ----------------------------------------
        BYTE   W96
// 028   ----------------------------------------
        BYTE   W96
// 029   ----------------------------------------
        BYTE   W96
// 030   ----------------------------------------
        BYTE   W96
// 031   ----------------------------------------
        BYTE   W96
// 032   ----------------------------------------
        BYTE   W96
// 033   ----------------------------------------
        BYTE   W96
// 034   ----------------------------------------
        BYTE   W96
// 035   ----------------------------------------
        BYTE   W96
// 036   ----------------------------------------
TwilightOfTheGods_Sme_8_36:
        BYTE           N16     Cn2   v104
        BYTE           N08     Cn3
        BYTE   W16
        BYTE           N16     Cn2
        BYTE   W16
        BYTE                   Cn2
        BYTE   W08
        BYTE           N08     Cn3
        BYTE   W08
        BYTE           N16     Cn2
        BYTE           N08     Cn3
        BYTE   W16
        BYTE           N16     Cn2
        BYTE   W16
        BYTE                   Cn2
        BYTE           N08     Cn3
        BYTE   W16
        BYTE   PEND
// 037   ----------------------------------------
        BYTE   PATT
         POIN2  TwilightOfTheGods_Sme_8_36
// 038   ----------------------------------------
        BYTE   PATT
         POIN2  TwilightOfTheGods_Sme_8_36
// 039   ----------------------------------------
        BYTE   PATT
         POIN2  TwilightOfTheGods_Sme_8_36
// 040   ----------------------------------------
        BYTE   PATT
         POIN2  TwilightOfTheGods_Sme_8_36
// 041   ----------------------------------------
        BYTE   PATT
         POIN2  TwilightOfTheGods_Sme_8_36
// 042   ----------------------------------------
        BYTE   PATT
         POIN2  TwilightOfTheGods_Sme_8_36
// 043   ----------------------------------------
        BYTE           N16     Cn2   v104
        BYTE           N08     Cn3
        BYTE   W16
        BYTE           N16     Cn2
        BYTE   W16
        BYTE                   Cn2
        BYTE   W08
        BYTE           N08     Cn3
        BYTE   W08
        BYTE           N16     Cn2
        BYTE           N08     Cn3
        BYTE   GoTo
         POIN2  TwilightOfTheGods_Sme_8_LOOP
        BYTE   W16
        BYTE           N16     Cn2
        BYTE   W16
        BYTE                   Cn2
        BYTE           N08     Cn3
        BYTE   W16
// 044   ----------------------------------------
        BYTE   PATT
         POIN2  TwilightOfTheGods_Sme_8_36
// 045   ----------------------------------------
        BYTE   PATT
         POIN2  TwilightOfTheGods_Sme_8_36
// 046   ----------------------------------------
        BYTE   PATT
         POIN2  TwilightOfTheGods_Sme_8_36
// 047   ----------------------------------------
        BYTE   PATT
         POIN2  TwilightOfTheGods_Sme_8_36
// 048   ----------------------------------------
        BYTE   PATT
         POIN2  TwilightOfTheGods_Sme_8_36
// 049   ----------------------------------------
        BYTE   PATT
         POIN2  TwilightOfTheGods_Sme_8_36
// 050   ----------------------------------------
        BYTE   PATT
         POIN2  TwilightOfTheGods_Sme_8_36
// 051   ----------------------------------------
        BYTE   PATT
         POIN2  TwilightOfTheGods_Sme_8_36
// 052   ----------------------------------------
        BYTE   PATT
         POIN2  TwilightOfTheGods_Sme_8_36
// 053   ----------------------------------------
        BYTE   PATT
         POIN2  TwilightOfTheGods_Sme_8_36
// 054   ----------------------------------------
        BYTE   PATT
         POIN2  TwilightOfTheGods_Sme_8_36
// 055   ----------------------------------------
        BYTE   PATT
         POIN2  TwilightOfTheGods_Sme_8_36
// 056   ----------------------------------------
        BYTE   PATT
         POIN2  TwilightOfTheGods_Sme_8_36
// 057   ----------------------------------------
        BYTE   PATT
         POIN2  TwilightOfTheGods_Sme_8_36
// 058   ----------------------------------------
        BYTE   PATT
         POIN2  TwilightOfTheGods_Sme_8_36
// 059   ----------------------------------------
        BYTE   PATT
         POIN2  TwilightOfTheGods_Sme_8_36
// 060   ----------------------------------------
        BYTE   PATT
         POIN2  TwilightOfTheGods_Sme_8_36
// 061   ----------------------------------------
        BYTE   PATT
         POIN2  TwilightOfTheGods_Sme_8_36
// 062   ----------------------------------------
        BYTE   PATT
         POIN2  TwilightOfTheGods_Sme_8_36
// 063   ----------------------------------------
        BYTE   PATT
         POIN2  TwilightOfTheGods_Sme_8_36
// 064   ----------------------------------------
        BYTE   PATT
         POIN2  TwilightOfTheGods_Sme_8_36
// 065   ----------------------------------------
        BYTE   PATT
         POIN2  TwilightOfTheGods_Sme_8_36
// 066   ----------------------------------------
        BYTE   PATT
         POIN2  TwilightOfTheGods_Sme_8_36
// 067   ----------------------------------------
        BYTE   PATT
         POIN2  TwilightOfTheGods_Sme_8_36
// 068   ----------------------------------------
        BYTE   PATT
         POIN2  TwilightOfTheGods_Sme_8_36
// 069   ----------------------------------------
        BYTE   PATT
         POIN2  TwilightOfTheGods_Sme_8_36
// 070   ----------------------------------------
        BYTE   PATT
         POIN2  TwilightOfTheGods_Sme_8_36
// 071   ----------------------------------------
        BYTE   PATT
         POIN2  TwilightOfTheGods_Sme_8_36
// 072   ----------------------------------------
        BYTE   PATT
         POIN2  TwilightOfTheGods_Sme_8_36
// 073   ----------------------------------------
        BYTE   PATT
         POIN2  TwilightOfTheGods_Sme_8_36
// 074   ----------------------------------------
        BYTE   PATT
         POIN2  TwilightOfTheGods_Sme_8_36
// 075   ----------------------------------------
        BYTE   PATT
         POIN2  TwilightOfTheGods_Sme_8_36
// 076   ----------------------------------------
        BYTE   PATT
         POIN2  TwilightOfTheGods_Sme_8_36
// 077   ----------------------------------------
        BYTE   PATT
         POIN2  TwilightOfTheGods_Sme_8_36
// 078   ----------------------------------------
        BYTE   PATT
         POIN2  TwilightOfTheGods_Sme_8_36
// 079   ----------------------------------------
        BYTE   PATT
         POIN2  TwilightOfTheGods_Sme_8_36
// 080   ----------------------------------------
        BYTE   FINE


//********************** End of Song ***********************//

        ALIGN 4
TwilightOfTheGods_Sme:
        BYTE   9                       // Num Tracks
        BYTE   0                       // Unknown
        BYTE   TwilightOfTheGods_Sme_pri // Priority
        BYTE   TwilightOfTheGods_Sme_rev // Reverb

        POIN2   TwilightOfTheGods_Sme_grp

        POIN2   TwilightOfTheGods_Sme_0
        POIN2   TwilightOfTheGods_Sme_1
        POIN2   TwilightOfTheGods_Sme_2
        POIN2   TwilightOfTheGods_Sme_3
        POIN2   TwilightOfTheGods_Sme_4
        POIN2   TwilightOfTheGods_Sme_5
        POIN2   TwilightOfTheGods_Sme_6
        POIN2   TwilightOfTheGods_Sme_7
        POIN2   TwilightOfTheGods_Sme_8

        
