        .include "MPlayDef.s"

        .equ    TwilightOfTheGods_Sme_grp, voicegroup000
        .equ    TwilightOfTheGods_Sme_pri, 0
        .equ    TwilightOfTheGods_Sme_rev, 0
        .equ    TwilightOfTheGods_Sme_key, 0

        .section .rodata
        .global TwilightOfTheGods_Sme
        .align  2

@****************** Track 0 (Midi-Chn.0) ******************@

TwilightOfTheGods_Sme_0:
        .byte   KEYSH , TwilightOfTheGods_Sme_key+0
@ 000   ----------------------------------------
        .byte   TEMPO , 160/2
        .byte           VOICE , 48
        .byte           VOL   , 33
        .byte           N08   , En3 , v104
        .byte   W16
        .byte                   Gn3
        .byte   W08
        .byte                   Fs3
        .byte   W08
        .byte                   Gn3
        .byte   W08
        .byte                   Fs3
        .byte   W08
        .byte           N16   , En3
        .byte   W16
        .byte           N08   , Gn3
        .byte   W08
        .byte                   Fs3
        .byte   W08
        .byte                   Gn3
        .byte   W08
        .byte                   Fs3
        .byte   W08
@ 001   ----------------------------------------
TwilightOfTheGods_Sme_0_1:
        .byte           N08   , En3 , v104
        .byte   W16
        .byte                   Gn3
        .byte   W08
        .byte                   Fs3
        .byte   W08
        .byte                   Gn3
        .byte   W08
        .byte                   Fs3
        .byte   W08
        .byte                   En3
        .byte   W08
        .byte                   Fs3
        .byte   W08
        .byte                   Gn3
        .byte   W08
        .byte                   An3
        .byte   W08
        .byte                   Gn3
        .byte   W08
        .byte                   Fs3
        .byte   W08
        .byte   PEND
@ 002   ----------------------------------------
TwilightOfTheGods_Sme_0_2:
        .byte           N08   , En3 , v104
        .byte   W16
        .byte                   Gn3
        .byte   W08
        .byte                   Fs3
        .byte   W08
        .byte                   Gn3
        .byte   W08
        .byte                   Fs3
        .byte   W08
        .byte           N16   , En3
        .byte   W16
        .byte           N08   , Gn3
        .byte   W08
        .byte                   Fs3
        .byte   W08
        .byte                   Gn3
        .byte   W08
        .byte                   Fs3
        .byte   W08
        .byte   PEND
@ 003   ----------------------------------------
        .byte   PATT
         .word  TwilightOfTheGods_Sme_0_1
@ 004   ----------------------------------------
        .byte   PATT
         .word  TwilightOfTheGods_Sme_0_2
@ 005   ----------------------------------------
        .byte           N08   , En3 , v104
        .byte   W16
        .byte                   Gn3
        .byte   W08
        .byte                   Fs3
        .byte   W08
        .byte                   Gn3
        .byte   W08
        .byte                   Fs3
        .byte   W08
TwilightOfTheGods_Sme_0_LOOP:
        .byte           N08   , En3 , v104
        .byte   W08
        .byte                   Fs3
        .byte   W08
        .byte                   Gn3
        .byte   W08
        .byte                   An3
        .byte   W08
        .byte                   Gn3
        .byte   W08
        .byte                   Fs3
        .byte   W08
@ 006   ----------------------------------------
        .byte   PATT
         .word  TwilightOfTheGods_Sme_0_2
@ 007   ----------------------------------------
        .byte   PATT
         .word  TwilightOfTheGods_Sme_0_1
@ 008   ----------------------------------------
        .byte   PATT
         .word  TwilightOfTheGods_Sme_0_2
@ 009   ----------------------------------------
        .byte   PATT
         .word  TwilightOfTheGods_Sme_0_1
@ 010   ----------------------------------------
        .byte   PATT
         .word  TwilightOfTheGods_Sme_0_2
@ 011   ----------------------------------------
        .byte   PATT
         .word  TwilightOfTheGods_Sme_0_1
@ 012   ----------------------------------------
        .byte   PATT
         .word  TwilightOfTheGods_Sme_0_2
@ 013   ----------------------------------------
        .byte   PATT
         .word  TwilightOfTheGods_Sme_0_1
@ 014   ----------------------------------------
        .byte   PATT
         .word  TwilightOfTheGods_Sme_0_2
@ 015   ----------------------------------------
        .byte   PATT
         .word  TwilightOfTheGods_Sme_0_1
@ 016   ----------------------------------------
        .byte   PATT
         .word  TwilightOfTheGods_Sme_0_2
@ 017   ----------------------------------------
        .byte   PATT
         .word  TwilightOfTheGods_Sme_0_1
@ 018   ----------------------------------------
        .byte   PATT
         .word  TwilightOfTheGods_Sme_0_2
@ 019   ----------------------------------------
        .byte   PATT
         .word  TwilightOfTheGods_Sme_0_1
@ 020   ----------------------------------------
        .byte   PATT
         .word  TwilightOfTheGods_Sme_0_2
@ 021   ----------------------------------------
        .byte   PATT
         .word  TwilightOfTheGods_Sme_0_1
@ 022   ----------------------------------------
        .byte   PATT
         .word  TwilightOfTheGods_Sme_0_2
@ 023   ----------------------------------------
        .byte   PATT
         .word  TwilightOfTheGods_Sme_0_1
@ 024   ----------------------------------------
        .byte   PATT
         .word  TwilightOfTheGods_Sme_0_2
@ 025   ----------------------------------------
        .byte   PATT
         .word  TwilightOfTheGods_Sme_0_1
@ 026   ----------------------------------------
        .byte   PATT
         .word  TwilightOfTheGods_Sme_0_2
@ 027   ----------------------------------------
        .byte   PATT
         .word  TwilightOfTheGods_Sme_0_1
@ 028   ----------------------------------------
        .byte   PATT
         .word  TwilightOfTheGods_Sme_0_2
@ 029   ----------------------------------------
        .byte   PATT
         .word  TwilightOfTheGods_Sme_0_1
@ 030   ----------------------------------------
        .byte   PATT
         .word  TwilightOfTheGods_Sme_0_2
@ 031   ----------------------------------------
        .byte   PATT
         .word  TwilightOfTheGods_Sme_0_1
@ 032   ----------------------------------------
        .byte   TEMPO , 104/2
        .byte   W96
@ 033   ----------------------------------------
        .byte   W96
@ 034   ----------------------------------------
        .byte   W96
@ 035   ----------------------------------------
        .byte   W96
@ 036   ----------------------------------------
        .byte   TEMPO , 160/2
        .byte           N08   , En3 , v104
        .byte   W16
        .byte                   Gn3
        .byte   W08
        .byte                   Fs3
        .byte   W08
        .byte                   Gn3
        .byte   W08
        .byte                   Fs3
        .byte   W08
        .byte           N16   , En3
        .byte   W16
        .byte           N08   , Gn3
        .byte   W08
        .byte                   Fs3
        .byte   W08
        .byte                   Gn3
        .byte   W08
        .byte                   Fs3
        .byte   W08
@ 037   ----------------------------------------
        .byte   PATT
         .word  TwilightOfTheGods_Sme_0_1
@ 038   ----------------------------------------
        .byte   PATT
         .word  TwilightOfTheGods_Sme_0_2
@ 039   ----------------------------------------
        .byte   PATT
         .word  TwilightOfTheGods_Sme_0_1
@ 040   ----------------------------------------
        .byte   PATT
         .word  TwilightOfTheGods_Sme_0_2
@ 041   ----------------------------------------
        .byte   PATT
         .word  TwilightOfTheGods_Sme_0_1
@ 042   ----------------------------------------
        .byte   PATT
         .word  TwilightOfTheGods_Sme_0_2
@ 043   ----------------------------------------
        .byte           N08   , En3 , v104
        .byte   W16
        .byte                   Bn2
        .byte   W08
        .byte                   En3
        .byte   W08
        .byte                   Fs3
        .byte   W08
        .byte                   En3
        .byte   W08
        .byte           N48   , Ds3
        .byte   GOTO
         .word  TwilightOfTheGods_Sme_0_LOOP
        .byte   W48
@ 044   ----------------------------------------
        .byte           N96   , En3
        .byte   W96
@ 045   ----------------------------------------
        .byte                   Dn3
        .byte   W96
@ 046   ----------------------------------------
        .byte                   Bn2
        .byte   W96
@ 047   ----------------------------------------
        .byte                   Bn2
        .byte   W96
@ 048   ----------------------------------------
        .byte                   En3
        .byte   W96
@ 049   ----------------------------------------
        .byte                   Bn2
        .byte   W96
@ 050   ----------------------------------------
        .byte                   An2
        .byte   W96
@ 051   ----------------------------------------
        .byte                   Bn2
        .byte   W96
@ 052   ----------------------------------------
        .byte                   En3
        .byte   W96
@ 053   ----------------------------------------
        .byte                   Bn2
        .byte   W96
@ 054   ----------------------------------------
        .byte                   Bn2
        .byte   W96
@ 055   ----------------------------------------
        .byte                   Bn2
        .byte   W96
@ 056   ----------------------------------------
        .byte                   En3
        .byte   W96
@ 057   ----------------------------------------
        .byte                   Bn2
        .byte   W96
@ 058   ----------------------------------------
        .byte                   An2
        .byte   W96
@ 059   ----------------------------------------
        .byte                   Bn2
        .byte   W96
@ 060   ----------------------------------------
        .byte   W96
@ 061   ----------------------------------------
        .byte   W96
@ 062   ----------------------------------------
        .byte   W96
@ 063   ----------------------------------------
        .byte   W96
@ 064   ----------------------------------------
        .byte   W96
@ 065   ----------------------------------------
        .byte   W96
@ 066   ----------------------------------------
        .byte   W96
@ 067   ----------------------------------------
        .byte   W96
@ 068   ----------------------------------------
        .byte   W96
@ 069   ----------------------------------------
        .byte   W96
@ 070   ----------------------------------------
        .byte   W96
@ 071   ----------------------------------------
        .byte   W96
@ 072   ----------------------------------------
        .byte   W96
@ 073   ----------------------------------------
        .byte   W96
@ 074   ----------------------------------------
        .byte   W96
@ 075   ----------------------------------------
        .byte   W96
@ 076   ----------------------------------------
        .byte   W96
@ 077   ----------------------------------------
        .byte   W96
@ 078   ----------------------------------------
        .byte   W96
@ 079   ----------------------------------------
        .byte   W96
@ 080   ----------------------------------------
        .byte   FINE

@****************** Track 1 (Midi-Chn.1) ******************@

TwilightOfTheGods_Sme_1:
        .byte   KEYSH , TwilightOfTheGods_Sme_key+0
@ 000   ----------------------------------------
        .byte           VOICE , 51
        .byte           VOL   , 38
        .byte           TIE   , En1 , v104
        .byte   W96
@ 001   ----------------------------------------
        .byte   W96
@ 002   ----------------------------------------
        .byte   W96
@ 003   ----------------------------------------
        .byte   W96
@ 004   ----------------------------------------
TwilightOfTheGods_Sme_1_4:
        .byte           EOT   , En1
        .byte           TIE   , Cn1 , v104
        .byte   W96
        .byte   PEND
@ 005   ----------------------------------------
        .byte   W48
TwilightOfTheGods_Sme_1_LOOP:
        .byte   W48
@ 006   ----------------------------------------
        .byte   W96
@ 007   ----------------------------------------
        .byte   W96
@ 008   ----------------------------------------
TwilightOfTheGods_Sme_1_8:
        .byte           EOT   , Cn1
        .byte           TIE   , An0 , v104
        .byte   W96
        .byte   PEND
@ 009   ----------------------------------------
        .byte   W96
@ 010   ----------------------------------------
        .byte   W96
@ 011   ----------------------------------------
        .byte   W96
@ 012   ----------------------------------------
TwilightOfTheGods_Sme_1_12:
        .byte           EOT   , An0
        .byte           TIE   , Bn0 , v104
        .byte   W96
        .byte   PEND
@ 013   ----------------------------------------
        .byte   W96
@ 014   ----------------------------------------
        .byte   W96
@ 015   ----------------------------------------
        .byte   W96
@ 016   ----------------------------------------
        .byte           EOT
        .byte           TIE   , En1
        .byte   W96
@ 017   ----------------------------------------
        .byte   W96
@ 018   ----------------------------------------
        .byte   W96
@ 019   ----------------------------------------
        .byte   W96
@ 020   ----------------------------------------
        .byte   PATT
         .word  TwilightOfTheGods_Sme_1_4
@ 021   ----------------------------------------
        .byte   W96
@ 022   ----------------------------------------
        .byte   W96
@ 023   ----------------------------------------
        .byte   W96
@ 024   ----------------------------------------
        .byte   PATT
         .word  TwilightOfTheGods_Sme_1_8
@ 025   ----------------------------------------
        .byte   W96
@ 026   ----------------------------------------
        .byte   W96
@ 027   ----------------------------------------
        .byte   W96
@ 028   ----------------------------------------
        .byte   PATT
         .word  TwilightOfTheGods_Sme_1_12
@ 029   ----------------------------------------
        .byte   W96
@ 030   ----------------------------------------
        .byte   W96
@ 031   ----------------------------------------
        .byte   W96
@ 032   ----------------------------------------
        .byte           EOT   , Bn0
        .byte           N12   , En1 , v104
        .byte   W48
        .byte           N24   , Gn1
        .byte   W24
        .byte                   Fs1
        .byte   W24
@ 033   ----------------------------------------
TwilightOfTheGods_Sme_1_33:
        .byte           N12   , En1 , v104
        .byte   W48
        .byte           N24   , Gn1
        .byte   W24
        .byte                   Fs1
        .byte   W24
        .byte   PEND
@ 034   ----------------------------------------
        .byte   PATT
         .word  TwilightOfTheGods_Sme_1_33
@ 035   ----------------------------------------
        .byte   PATT
         .word  TwilightOfTheGods_Sme_1_33
@ 036   ----------------------------------------
        .byte           TIE   , En1 , v104
        .byte   W96
@ 037   ----------------------------------------
        .byte   W96
@ 038   ----------------------------------------
        .byte           EOT
        .byte           TIE   , Dn1
        .byte   W96
@ 039   ----------------------------------------
        .byte   W96
@ 040   ----------------------------------------
        .byte           EOT
        .byte           TIE   , Cn1
        .byte   W96
@ 041   ----------------------------------------
        .byte   W96
@ 042   ----------------------------------------
        .byte           EOT
        .byte           N96   , Dn1
        .byte   W96
@ 043   ----------------------------------------
        .byte           N48
        .byte   W48
        .byte                   Ds1
        .byte   GOTO
         .word  TwilightOfTheGods_Sme_1_LOOP
        .byte   W48
@ 044   ----------------------------------------
        .byte           TIE   , En1
        .byte   W96
@ 045   ----------------------------------------
        .byte   W96
@ 046   ----------------------------------------
        .byte   W96
@ 047   ----------------------------------------
        .byte   W96
@ 048   ----------------------------------------
        .byte   PATT
         .word  TwilightOfTheGods_Sme_1_4
@ 049   ----------------------------------------
        .byte   W96
@ 050   ----------------------------------------
        .byte   W96
@ 051   ----------------------------------------
        .byte   W96
@ 052   ----------------------------------------
        .byte   PATT
         .word  TwilightOfTheGods_Sme_1_8
@ 053   ----------------------------------------
        .byte   W96
@ 054   ----------------------------------------
        .byte   W96
@ 055   ----------------------------------------
        .byte   W96
@ 056   ----------------------------------------
        .byte   PATT
         .word  TwilightOfTheGods_Sme_1_12
@ 057   ----------------------------------------
        .byte   W96
@ 058   ----------------------------------------
        .byte   W96
@ 059   ----------------------------------------
        .byte   W96
@ 060   ----------------------------------------
        .byte           EOT   , Bn0
        .byte           TIE   , An0 , v104
        .byte   W96
@ 061   ----------------------------------------
        .byte   W96
@ 062   ----------------------------------------
        .byte   W96
@ 063   ----------------------------------------
        .byte   W96
@ 064   ----------------------------------------
        .byte   PATT
         .word  TwilightOfTheGods_Sme_1_12
@ 065   ----------------------------------------
        .byte   W96
@ 066   ----------------------------------------
        .byte   W96
@ 067   ----------------------------------------
        .byte   W96
@ 068   ----------------------------------------
        .byte           EOT   , Bn0
        .byte           N96   , En1 , v104
        .byte   W96
@ 069   ----------------------------------------
        .byte                   Dn1
        .byte   W96
@ 070   ----------------------------------------
        .byte                   Cn1
        .byte   W96
@ 071   ----------------------------------------
        .byte                   Bn0
        .byte   W96
@ 072   ----------------------------------------
        .byte                   En1
        .byte   W96
@ 073   ----------------------------------------
        .byte                   Dn1
        .byte   W96
@ 074   ----------------------------------------
        .byte                   Cn1
        .byte   W96
@ 075   ----------------------------------------
        .byte                   Bn0
        .byte   W96
@ 076   ----------------------------------------
        .byte                   En1
        .byte   W96
@ 077   ----------------------------------------
        .byte                   En1
        .byte   W96
@ 078   ----------------------------------------
        .byte                   En1
        .byte   W96
@ 079   ----------------------------------------
        .byte                   Dn1
        .byte   W96
@ 080   ----------------------------------------
        .byte   FINE

@****************** Track 2 (Midi-Chn.2) ******************@

TwilightOfTheGods_Sme_2:
        .byte   KEYSH , TwilightOfTheGods_Sme_key+0
@ 000   ----------------------------------------
        .byte           VOICE , 79
        .byte           VOL   , 37
        .byte   W96
@ 001   ----------------------------------------
        .byte           TIE   , Bn3 , v104
        .byte           TIE   , Fs4
        .byte   W96
@ 002   ----------------------------------------
        .byte   W96
@ 003   ----------------------------------------
        .byte   W96
@ 004   ----------------------------------------
        .byte           EOT   , Bn3
        .byte                   Fs4
        .byte           N96   , Bn3 , v078
        .byte   W96
@ 005   ----------------------------------------
        .byte           TIE   , Bn3 , v104
        .byte           TIE   , En4
        .byte   W48
TwilightOfTheGods_Sme_2_LOOP:
        .byte   W48
@ 006   ----------------------------------------
        .byte   W96
@ 007   ----------------------------------------
        .byte   W96
@ 008   ----------------------------------------
TwilightOfTheGods_Sme_2_8:
        .byte           EOT   , Bn3
        .byte                   En4
        .byte           N96   , Bn3 , v076
        .byte   W96
        .byte   PEND
@ 009   ----------------------------------------
TwilightOfTheGods_Sme_2_9:
        .byte           TIE   , Bn3 , v104
        .byte           TIE   , En4
        .byte   W96
        .byte   PEND
@ 010   ----------------------------------------
        .byte   W96
@ 011   ----------------------------------------
        .byte   W96
@ 012   ----------------------------------------
        .byte   PATT
         .word  TwilightOfTheGods_Sme_2_8
@ 013   ----------------------------------------
        .byte   PATT
         .word  TwilightOfTheGods_Sme_2_9
@ 014   ----------------------------------------
        .byte   W96
@ 015   ----------------------------------------
        .byte   W96
@ 016   ----------------------------------------
        .byte   PATT
         .word  TwilightOfTheGods_Sme_2_8
@ 017   ----------------------------------------
        .byte   W96
@ 018   ----------------------------------------
        .byte   W96
@ 019   ----------------------------------------
        .byte   W96
@ 020   ----------------------------------------
        .byte   W96
@ 021   ----------------------------------------
        .byte   W96
@ 022   ----------------------------------------
        .byte   W96
@ 023   ----------------------------------------
        .byte   W96
@ 024   ----------------------------------------
        .byte   W96
@ 025   ----------------------------------------
        .byte   W96
@ 026   ----------------------------------------
        .byte   W96
@ 027   ----------------------------------------
        .byte   W96
@ 028   ----------------------------------------
        .byte   W96
@ 029   ----------------------------------------
        .byte   W96
@ 030   ----------------------------------------
        .byte   W96
@ 031   ----------------------------------------
        .byte   W96
@ 032   ----------------------------------------
        .byte   W96
@ 033   ----------------------------------------
        .byte   W96
@ 034   ----------------------------------------
        .byte   W96
@ 035   ----------------------------------------
        .byte   W96
@ 036   ----------------------------------------
        .byte   W96
@ 037   ----------------------------------------
        .byte   W96
@ 038   ----------------------------------------
        .byte   W96
@ 039   ----------------------------------------
        .byte   W96
@ 040   ----------------------------------------
        .byte   W96
@ 041   ----------------------------------------
        .byte   W96
@ 042   ----------------------------------------
        .byte   W96
@ 043   ----------------------------------------
        .byte   W48
        .byte   GOTO
         .word  TwilightOfTheGods_Sme_2_LOOP
        .byte   W48
@ 044   ----------------------------------------
        .byte   W96
@ 045   ----------------------------------------
        .byte   W96
@ 046   ----------------------------------------
        .byte   W96
@ 047   ----------------------------------------
        .byte   W96
@ 048   ----------------------------------------
        .byte   W96
@ 049   ----------------------------------------
        .byte   W96
@ 050   ----------------------------------------
        .byte   W96
@ 051   ----------------------------------------
        .byte   W96
@ 052   ----------------------------------------
        .byte   W96
@ 053   ----------------------------------------
        .byte   W96
@ 054   ----------------------------------------
        .byte   W96
@ 055   ----------------------------------------
        .byte   W96
@ 056   ----------------------------------------
        .byte   W96
@ 057   ----------------------------------------
        .byte   W96
@ 058   ----------------------------------------
        .byte   W96
@ 059   ----------------------------------------
        .byte   W96
@ 060   ----------------------------------------
        .byte   W96
@ 061   ----------------------------------------
        .byte   W96
@ 062   ----------------------------------------
        .byte   W96
@ 063   ----------------------------------------
        .byte   W96
@ 064   ----------------------------------------
        .byte   W96
@ 065   ----------------------------------------
        .byte   W96
@ 066   ----------------------------------------
        .byte   W96
@ 067   ----------------------------------------
        .byte   W96
@ 068   ----------------------------------------
        .byte   W96
@ 069   ----------------------------------------
        .byte   W96
@ 070   ----------------------------------------
        .byte   W96
@ 071   ----------------------------------------
        .byte   W96
@ 072   ----------------------------------------
        .byte   W96
@ 073   ----------------------------------------
        .byte   W96
@ 074   ----------------------------------------
        .byte   W96
@ 075   ----------------------------------------
        .byte   W96
@ 076   ----------------------------------------
        .byte   W96
@ 077   ----------------------------------------
        .byte   W96
@ 078   ----------------------------------------
        .byte   W96
@ 079   ----------------------------------------
        .byte   W96
@ 080   ----------------------------------------
        .byte   FINE

@****************** Track 3 (Midi-Chn.3) ******************@

TwilightOfTheGods_Sme_3:
        .byte   KEYSH , TwilightOfTheGods_Sme_key+0
@ 000   ----------------------------------------
        .byte           VOICE , 52
        .byte           VOL   , 46
        .byte   W96
@ 001   ----------------------------------------
        .byte   W96
@ 002   ----------------------------------------
        .byte   W96
@ 003   ----------------------------------------
        .byte   W96
@ 004   ----------------------------------------
        .byte   W96
@ 005   ----------------------------------------
        .byte   W48
TwilightOfTheGods_Sme_3_LOOP:
        .byte   W48
@ 006   ----------------------------------------
        .byte   W96
@ 007   ----------------------------------------
        .byte   W96
@ 008   ----------------------------------------
        .byte   W96
@ 009   ----------------------------------------
        .byte   W96
@ 010   ----------------------------------------
        .byte   W96
@ 011   ----------------------------------------
        .byte   W96
@ 012   ----------------------------------------
        .byte   W96
@ 013   ----------------------------------------
        .byte   W96
@ 014   ----------------------------------------
        .byte   W96
@ 015   ----------------------------------------
        .byte   W96
@ 016   ----------------------------------------
TwilightOfTheGods_Sme_3_16:
        .byte   W24
        .byte           N24   , En4 , v104
        .byte   W24
        .byte                   Dn4
        .byte   W24
        .byte                   An3
        .byte   W24
        .byte   PEND
@ 017   ----------------------------------------
TwilightOfTheGods_Sme_3_17:
        .byte           N48   , Bn3 , v104
        .byte   W48
        .byte           N24   , Gn2
        .byte   W24
        .byte                   An2
        .byte   W24
        .byte   PEND
@ 018   ----------------------------------------
TwilightOfTheGods_Sme_3_18:
        .byte           N48   , Bn2 , v104
        .byte   W48
        .byte                   Gn3
        .byte   W48
        .byte   PEND
@ 019   ----------------------------------------
TwilightOfTheGods_Sme_3_19:
        .byte           N48   , Fs3 , v104
        .byte   W48
        .byte                   Dn3
        .byte   W48
        .byte   PEND
@ 020   ----------------------------------------
        .byte   PATT
         .word  TwilightOfTheGods_Sme_3_16
@ 021   ----------------------------------------
        .byte   PATT
         .word  TwilightOfTheGods_Sme_3_17
@ 022   ----------------------------------------
        .byte           N48   , Bn2 , v104
        .byte   W48
        .byte                   Cn3
        .byte   W48
@ 023   ----------------------------------------
        .byte                   Bn2
        .byte   W48
        .byte                   Gn2
        .byte   W48
@ 024   ----------------------------------------
        .byte   PATT
         .word  TwilightOfTheGods_Sme_3_16
@ 025   ----------------------------------------
        .byte   PATT
         .word  TwilightOfTheGods_Sme_3_17
@ 026   ----------------------------------------
        .byte   PATT
         .word  TwilightOfTheGods_Sme_3_18
@ 027   ----------------------------------------
        .byte   PATT
         .word  TwilightOfTheGods_Sme_3_19
@ 028   ----------------------------------------
        .byte   PATT
         .word  TwilightOfTheGods_Sme_3_16
@ 029   ----------------------------------------
        .byte   PATT
         .word  TwilightOfTheGods_Sme_3_17
@ 030   ----------------------------------------
        .byte           N48   , Bn2 , v104
        .byte   W48
        .byte                   En3
        .byte   W48
@ 031   ----------------------------------------
        .byte                   Ds3
        .byte   W48
        .byte                   Bn2
        .byte   W48
@ 032   ----------------------------------------
        .byte           TIE   , En4
        .byte   W96
@ 033   ----------------------------------------
        .byte   W96
@ 034   ----------------------------------------
        .byte   W12
        .byte           EOT
        .byte   W84
@ 035   ----------------------------------------
        .byte   W96
@ 036   ----------------------------------------
        .byte   W96
@ 037   ----------------------------------------
        .byte   W96
@ 038   ----------------------------------------
        .byte   W96
@ 039   ----------------------------------------
        .byte   W96
@ 040   ----------------------------------------
        .byte   W96
@ 041   ----------------------------------------
        .byte   W96
@ 042   ----------------------------------------
        .byte   W96
@ 043   ----------------------------------------
        .byte   W48
        .byte   GOTO
         .word  TwilightOfTheGods_Sme_3_LOOP
        .byte   W48
@ 044   ----------------------------------------
        .byte   PATT
         .word  TwilightOfTheGods_Sme_3_16
@ 045   ----------------------------------------
TwilightOfTheGods_Sme_3_45:
        .byte           N48   , Bn3 , v104
        .byte   W48
        .byte           N24   , Gn3
        .byte   W24
        .byte                   An3
        .byte   W24
        .byte   PEND
@ 046   ----------------------------------------
TwilightOfTheGods_Sme_3_46:
        .byte           N48   , Bn3 , v104
        .byte   W48
        .byte                   Gn4
        .byte   W48
        .byte   PEND
@ 047   ----------------------------------------
TwilightOfTheGods_Sme_3_47:
        .byte           N48   , Fs4 , v104
        .byte   W48
        .byte                   Dn4
        .byte   W48
        .byte   PEND
@ 048   ----------------------------------------
        .byte   PATT
         .word  TwilightOfTheGods_Sme_3_16
@ 049   ----------------------------------------
        .byte   PATT
         .word  TwilightOfTheGods_Sme_3_45
@ 050   ----------------------------------------
TwilightOfTheGods_Sme_3_50:
        .byte           N48   , Bn3 , v104
        .byte   W48
        .byte                   Cn4
        .byte   W48
        .byte   PEND
@ 051   ----------------------------------------
        .byte                   Bn3
        .byte   W48
        .byte                   Gn3
        .byte   W48
@ 052   ----------------------------------------
        .byte   PATT
         .word  TwilightOfTheGods_Sme_3_16
@ 053   ----------------------------------------
        .byte   PATT
         .word  TwilightOfTheGods_Sme_3_45
@ 054   ----------------------------------------
        .byte   PATT
         .word  TwilightOfTheGods_Sme_3_46
@ 055   ----------------------------------------
        .byte   PATT
         .word  TwilightOfTheGods_Sme_3_47
@ 056   ----------------------------------------
        .byte   PATT
         .word  TwilightOfTheGods_Sme_3_16
@ 057   ----------------------------------------
        .byte   PATT
         .word  TwilightOfTheGods_Sme_3_45
@ 058   ----------------------------------------
        .byte   PATT
         .word  TwilightOfTheGods_Sme_3_50
@ 059   ----------------------------------------
TwilightOfTheGods_Sme_3_59:
        .byte           N48   , Bn3 , v104
        .byte   W48
        .byte                   An3
        .byte   W48
        .byte   PEND
@ 060   ----------------------------------------
TwilightOfTheGods_Sme_3_60:
        .byte           N48   , An3 , v104
        .byte   W48
        .byte           N96   , Gn3
        .byte   W48
        .byte   PEND
@ 061   ----------------------------------------
TwilightOfTheGods_Sme_3_61:
        .byte   W48
        .byte           N16   , En3 , v104
        .byte   W16
        .byte                   Fs3
        .byte   W16
        .byte                   Gn3
        .byte   W16
        .byte   PEND
@ 062   ----------------------------------------
        .byte           N48   , An3
        .byte   W48
        .byte                   Gn3
        .byte   W48
@ 063   ----------------------------------------
        .byte   PATT
         .word  TwilightOfTheGods_Sme_3_19
@ 064   ----------------------------------------
        .byte   PATT
         .word  TwilightOfTheGods_Sme_3_60
@ 065   ----------------------------------------
        .byte   PATT
         .word  TwilightOfTheGods_Sme_3_61
@ 066   ----------------------------------------
        .byte   PATT
         .word  TwilightOfTheGods_Sme_3_59
@ 067   ----------------------------------------
        .byte           N48   , Bn3 , v104
        .byte   W48
        .byte           N16   , Gn3
        .byte   W16
        .byte                   An3
        .byte   W16
        .byte                   Bn3
        .byte   W16
@ 068   ----------------------------------------
TwilightOfTheGods_Sme_3_68:
        .byte           N48   , En4 , v104
        .byte   W48
        .byte           N16   , Gn3
        .byte   W16
        .byte                   An3
        .byte   W16
        .byte                   Bn3
        .byte   W16
        .byte   PEND
@ 069   ----------------------------------------
TwilightOfTheGods_Sme_3_69:
        .byte           N48   , Dn4 , v104
        .byte   W48
        .byte           N16   , En3
        .byte   W16
        .byte                   Gn3
        .byte   W16
        .byte                   An3
        .byte   W16
        .byte   PEND
@ 070   ----------------------------------------
TwilightOfTheGods_Sme_3_70:
        .byte           N48   , Dn4 , v104
        .byte   W48
        .byte           N16   , Dn3
        .byte   W16
        .byte                   Fs3
        .byte   W16
        .byte                   An3
        .byte   W16
        .byte   PEND
@ 071   ----------------------------------------
        .byte           N24   , En4
        .byte   W24
        .byte                   Dn4
        .byte   W24
        .byte           N16   , Gn3
        .byte   W16
        .byte                   An3
        .byte   W16
        .byte                   Bn3
        .byte   W16
@ 072   ----------------------------------------
        .byte   PATT
         .word  TwilightOfTheGods_Sme_3_68
@ 073   ----------------------------------------
        .byte   PATT
         .word  TwilightOfTheGods_Sme_3_69
@ 074   ----------------------------------------
        .byte   PATT
         .word  TwilightOfTheGods_Sme_3_70
@ 075   ----------------------------------------
        .byte           N24   , En4 , v104
        .byte   W24
        .byte                   Dn4
        .byte   W24
        .byte           N16   , Dn3
        .byte   W16
        .byte                   Fs3
        .byte   W16
        .byte                   An3
        .byte   W16
@ 076   ----------------------------------------
        .byte           N24   , En4
        .byte   W96
@ 077   ----------------------------------------
        .byte                   En4
        .byte   W96
@ 078   ----------------------------------------
        .byte                   En4
        .byte   W96
@ 079   ----------------------------------------
        .byte                   En4
        .byte   W96
@ 080   ----------------------------------------
        .byte   FINE

@****************** Track 4 (Midi-Chn.4) ******************@

TwilightOfTheGods_Sme_4:
        .byte   KEYSH , TwilightOfTheGods_Sme_key+0
@ 000   ----------------------------------------
        .byte           VOICE , 1
        .byte           VOL   , 41
        .byte           N96   , En2 , v104
        .byte   W96
@ 001   ----------------------------------------
        .byte           TIE   , Bn2
        .byte           TIE   , Dn3
        .byte   W96
@ 002   ----------------------------------------
        .byte   W96
@ 003   ----------------------------------------
        .byte   W96
@ 004   ----------------------------------------
        .byte           EOT   , Bn2
        .byte                   Dn3
        .byte           N96   , Bn2 , v062
        .byte           N96   , Cn2
        .byte   W96
@ 005   ----------------------------------------
        .byte           TIE   , Gn2 , v104
        .byte           TIE   , Bn2
        .byte   W48
TwilightOfTheGods_Sme_4_LOOP:
        .byte   W48
@ 006   ----------------------------------------
        .byte   W96
@ 007   ----------------------------------------
        .byte   W96
@ 008   ----------------------------------------
        .byte           EOT   , Gn2
        .byte                   Bn2
        .byte           N96   , Gn2 , v059
        .byte           N96   , An1
        .byte   W96
@ 009   ----------------------------------------
TwilightOfTheGods_Sme_4_9:
        .byte           TIE   , Gn2 , v104
        .byte           TIE   , Bn2
        .byte   W96
        .byte   PEND
@ 010   ----------------------------------------
        .byte   W96
@ 011   ----------------------------------------
        .byte   W96
@ 012   ----------------------------------------
        .byte           EOT   , Gn2
        .byte                   Bn2
        .byte           N96   , Gn2 , v059
        .byte           N96   , Bn1 , v104
        .byte   W96
@ 013   ----------------------------------------
        .byte   PATT
         .word  TwilightOfTheGods_Sme_4_9
@ 014   ----------------------------------------
        .byte   W96
@ 015   ----------------------------------------
        .byte   W96
@ 016   ----------------------------------------
        .byte           EOT   , Gn2
        .byte                   Bn2
        .byte           N96   , Gn2 , v059
        .byte   W96
@ 017   ----------------------------------------
        .byte   W96
@ 018   ----------------------------------------
        .byte   W96
@ 019   ----------------------------------------
        .byte   W96
@ 020   ----------------------------------------
        .byte   W96
@ 021   ----------------------------------------
        .byte   W96
@ 022   ----------------------------------------
        .byte   W96
@ 023   ----------------------------------------
        .byte   W96
@ 024   ----------------------------------------
        .byte   W96
@ 025   ----------------------------------------
        .byte   W96
@ 026   ----------------------------------------
        .byte   W96
@ 027   ----------------------------------------
        .byte   W96
@ 028   ----------------------------------------
        .byte   W96
@ 029   ----------------------------------------
        .byte   W96
@ 030   ----------------------------------------
        .byte   W96
@ 031   ----------------------------------------
        .byte   W96
@ 032   ----------------------------------------
        .byte   W96
@ 033   ----------------------------------------
        .byte   W96
@ 034   ----------------------------------------
        .byte   W96
@ 035   ----------------------------------------
        .byte   W96
@ 036   ----------------------------------------
        .byte   W96
@ 037   ----------------------------------------
        .byte   W96
@ 038   ----------------------------------------
        .byte   W96
@ 039   ----------------------------------------
        .byte   W96
@ 040   ----------------------------------------
        .byte   W96
@ 041   ----------------------------------------
        .byte   W96
@ 042   ----------------------------------------
        .byte   W96
@ 043   ----------------------------------------
        .byte   W48
        .byte   GOTO
         .word  TwilightOfTheGods_Sme_4_LOOP
        .byte   W48
@ 044   ----------------------------------------
        .byte   W96
@ 045   ----------------------------------------
        .byte   W96
@ 046   ----------------------------------------
        .byte   W96
@ 047   ----------------------------------------
        .byte   W96
@ 048   ----------------------------------------
        .byte   W96
@ 049   ----------------------------------------
        .byte   W96
@ 050   ----------------------------------------
        .byte   W96
@ 051   ----------------------------------------
        .byte   W96
@ 052   ----------------------------------------
        .byte   W96
@ 053   ----------------------------------------
        .byte   W96
@ 054   ----------------------------------------
        .byte   W96
@ 055   ----------------------------------------
        .byte   W96
@ 056   ----------------------------------------
        .byte   W96
@ 057   ----------------------------------------
        .byte   W96
@ 058   ----------------------------------------
        .byte   W96
@ 059   ----------------------------------------
        .byte   W96
@ 060   ----------------------------------------
        .byte   W96
@ 061   ----------------------------------------
        .byte   W96
@ 062   ----------------------------------------
        .byte   W96
@ 063   ----------------------------------------
        .byte   W96
@ 064   ----------------------------------------
        .byte   W96
@ 065   ----------------------------------------
        .byte   W96
@ 066   ----------------------------------------
        .byte   W96
@ 067   ----------------------------------------
        .byte   W96
@ 068   ----------------------------------------
        .byte   W96
@ 069   ----------------------------------------
        .byte   W96
@ 070   ----------------------------------------
        .byte   W96
@ 071   ----------------------------------------
        .byte   W96
@ 072   ----------------------------------------
        .byte   W96
@ 073   ----------------------------------------
        .byte   W96
@ 074   ----------------------------------------
        .byte   W96
@ 075   ----------------------------------------
        .byte   W96
@ 076   ----------------------------------------
        .byte   W96
@ 077   ----------------------------------------
        .byte   W96
@ 078   ----------------------------------------
        .byte   W96
@ 079   ----------------------------------------
        .byte   W96
@ 080   ----------------------------------------
        .byte   FINE

@****************** Track 5 (Midi-Chn.5) ******************@

TwilightOfTheGods_Sme_5:
        .byte   KEYSH , TwilightOfTheGods_Sme_key+0
@ 000   ----------------------------------------
        .byte           VOICE , 123
        .byte           VOL   , 45
        .byte           N96   , En2 , v104
        .byte   W96
@ 001   ----------------------------------------
        .byte   W96
@ 002   ----------------------------------------
        .byte   W96
@ 003   ----------------------------------------
        .byte   W96
@ 004   ----------------------------------------
        .byte   W96
@ 005   ----------------------------------------
        .byte   W48
TwilightOfTheGods_Sme_5_LOOP:
        .byte   W48
@ 006   ----------------------------------------
        .byte   W96
@ 007   ----------------------------------------
        .byte   W96
@ 008   ----------------------------------------
        .byte   W96
@ 009   ----------------------------------------
        .byte   W96
@ 010   ----------------------------------------
        .byte   W96
@ 011   ----------------------------------------
        .byte   W96
@ 012   ----------------------------------------
        .byte   W96
@ 013   ----------------------------------------
        .byte   W96
@ 014   ----------------------------------------
        .byte   W96
@ 015   ----------------------------------------
        .byte   W48
        .byte           N03   , Cn1 , v016
        .byte   W03
        .byte                   Cn1 , v020
        .byte   W03
        .byte                   Cn1 , v028
        .byte   W03
        .byte                   Cn1 , v032
        .byte   W03
        .byte                   Cn1 , v040
        .byte   W03
        .byte                   Cn1 , v048
        .byte   W03
        .byte                   Cn1 , v052
        .byte   W03
        .byte                   Cn1 , v060
        .byte   W03
        .byte                   Cn1 , v064
        .byte   W03
        .byte                   Cn1 , v072
        .byte   W03
        .byte                   Cn1 , v076
        .byte   W03
        .byte                   Cn1 , v084
        .byte   W03
        .byte                   Cn1 , v092
        .byte   W03
        .byte                   Cn1 , v096
        .byte   W03
        .byte                   Cn1 , v104
        .byte   W03
        .byte                   Cn1
        .byte   W03
@ 016   ----------------------------------------
TwilightOfTheGods_Sme_5_16:
        .byte           N48   , Cn1 , v104
        .byte           N48   , Cs2
        .byte   W48
        .byte           N16   , Dn1 , v064
        .byte   W16
        .byte           N32   , Dn1 , v040
        .byte   W32
        .byte   PEND
@ 017   ----------------------------------------
TwilightOfTheGods_Sme_5_17:
        .byte   W48
        .byte           N16   , Dn1 , v064
        .byte   W16
        .byte           N32   , Dn1 , v040
        .byte   W32
        .byte   PEND
@ 018   ----------------------------------------
        .byte   PATT
         .word  TwilightOfTheGods_Sme_5_17
@ 019   ----------------------------------------
TwilightOfTheGods_Sme_5_19:
        .byte   W48
        .byte           N16   , Dn1 , v064
        .byte   W16
        .byte                   Dn1 , v040
        .byte   W16
        .byte                   Ds1 , v064
        .byte   W16
        .byte   PEND
@ 020   ----------------------------------------
        .byte   PATT
         .word  TwilightOfTheGods_Sme_5_16
@ 021   ----------------------------------------
        .byte   PATT
         .word  TwilightOfTheGods_Sme_5_17
@ 022   ----------------------------------------
        .byte   PATT
         .word  TwilightOfTheGods_Sme_5_17
@ 023   ----------------------------------------
        .byte   PATT
         .word  TwilightOfTheGods_Sme_5_19
@ 024   ----------------------------------------
        .byte   PATT
         .word  TwilightOfTheGods_Sme_5_16
@ 025   ----------------------------------------
        .byte   PATT
         .word  TwilightOfTheGods_Sme_5_17
@ 026   ----------------------------------------
        .byte   PATT
         .word  TwilightOfTheGods_Sme_5_17
@ 027   ----------------------------------------
        .byte   PATT
         .word  TwilightOfTheGods_Sme_5_19
@ 028   ----------------------------------------
        .byte   PATT
         .word  TwilightOfTheGods_Sme_5_16
@ 029   ----------------------------------------
        .byte   PATT
         .word  TwilightOfTheGods_Sme_5_17
@ 030   ----------------------------------------
        .byte   PATT
         .word  TwilightOfTheGods_Sme_5_17
@ 031   ----------------------------------------
        .byte   PATT
         .word  TwilightOfTheGods_Sme_5_19
@ 032   ----------------------------------------
TwilightOfTheGods_Sme_5_32:
        .byte           N48   , Cn1 , v104
        .byte           N48   , Cs2
        .byte   W96
        .byte   PEND
@ 033   ----------------------------------------
        .byte   W96
@ 034   ----------------------------------------
        .byte   W96
@ 035   ----------------------------------------
        .byte   W48
        .byte                   En2
        .byte   W48
@ 036   ----------------------------------------
TwilightOfTheGods_Sme_5_36:
        .byte           N48   , Cn1 , v104
        .byte           N96   , Cs2
        .byte   W48
        .byte           N48   , Cn1
        .byte   W48
        .byte   PEND
@ 037   ----------------------------------------
TwilightOfTheGods_Sme_5_37:
        .byte           N48   , Cn1 , v104
        .byte   W48
        .byte                   Cn1
        .byte   W48
        .byte   PEND
@ 038   ----------------------------------------
        .byte   PATT
         .word  TwilightOfTheGods_Sme_5_36
@ 039   ----------------------------------------
        .byte   PATT
         .word  TwilightOfTheGods_Sme_5_37
@ 040   ----------------------------------------
        .byte   PATT
         .word  TwilightOfTheGods_Sme_5_36
@ 041   ----------------------------------------
        .byte   PATT
         .word  TwilightOfTheGods_Sme_5_37
@ 042   ----------------------------------------
        .byte   PATT
         .word  TwilightOfTheGods_Sme_5_36
@ 043   ----------------------------------------
        .byte           N48   , Cn1 , v104
        .byte   W24
        .byte           N96   , En2
        .byte   W24
        .byte           N48   , Cn1
        .byte   GOTO
         .word  TwilightOfTheGods_Sme_5_LOOP
        .byte   W48
@ 044   ----------------------------------------
        .byte   W24
        .byte           N96   , Cs2
        .byte   W72
@ 045   ----------------------------------------
        .byte   W96
@ 046   ----------------------------------------
        .byte   W96
@ 047   ----------------------------------------
        .byte   W96
@ 048   ----------------------------------------
        .byte                   Cs2
        .byte   W96
@ 049   ----------------------------------------
        .byte   W96
@ 050   ----------------------------------------
        .byte   W96
@ 051   ----------------------------------------
        .byte   W96
@ 052   ----------------------------------------
        .byte                   Cs2
        .byte   W96
@ 053   ----------------------------------------
        .byte   W96
@ 054   ----------------------------------------
        .byte   W96
@ 055   ----------------------------------------
        .byte   W96
@ 056   ----------------------------------------
        .byte                   Cs2
        .byte   W96
@ 057   ----------------------------------------
        .byte   W96
@ 058   ----------------------------------------
        .byte   W96
@ 059   ----------------------------------------
        .byte   W96
@ 060   ----------------------------------------
TwilightOfTheGods_Sme_5_60:
        .byte           N24   , Cn1 , v104
        .byte   W24
        .byte                   Cn1
        .byte   W24
        .byte                   Cn1
        .byte   W24
        .byte                   Cn1
        .byte   W24
        .byte   PEND
@ 061   ----------------------------------------
        .byte   PATT
         .word  TwilightOfTheGods_Sme_5_60
@ 062   ----------------------------------------
        .byte   PATT
         .word  TwilightOfTheGods_Sme_5_60
@ 063   ----------------------------------------
        .byte   PATT
         .word  TwilightOfTheGods_Sme_5_60
@ 064   ----------------------------------------
        .byte   PATT
         .word  TwilightOfTheGods_Sme_5_60
@ 065   ----------------------------------------
        .byte   PATT
         .word  TwilightOfTheGods_Sme_5_60
@ 066   ----------------------------------------
        .byte   PATT
         .word  TwilightOfTheGods_Sme_5_60
@ 067   ----------------------------------------
        .byte   PATT
         .word  TwilightOfTheGods_Sme_5_60
@ 068   ----------------------------------------
        .byte   PATT
         .word  TwilightOfTheGods_Sme_5_36
@ 069   ----------------------------------------
        .byte   PATT
         .word  TwilightOfTheGods_Sme_5_36
@ 070   ----------------------------------------
        .byte   PATT
         .word  TwilightOfTheGods_Sme_5_36
@ 071   ----------------------------------------
        .byte   PATT
         .word  TwilightOfTheGods_Sme_5_36
@ 072   ----------------------------------------
        .byte   PATT
         .word  TwilightOfTheGods_Sme_5_36
@ 073   ----------------------------------------
        .byte   PATT
         .word  TwilightOfTheGods_Sme_5_36
@ 074   ----------------------------------------
        .byte   PATT
         .word  TwilightOfTheGods_Sme_5_36
@ 075   ----------------------------------------
        .byte   PATT
         .word  TwilightOfTheGods_Sme_5_36
@ 076   ----------------------------------------
        .byte   PATT
         .word  TwilightOfTheGods_Sme_5_32
@ 077   ----------------------------------------
        .byte   PATT
         .word  TwilightOfTheGods_Sme_5_32
@ 078   ----------------------------------------
        .byte   PATT
         .word  TwilightOfTheGods_Sme_5_32
@ 079   ----------------------------------------
        .byte   PATT
         .word  TwilightOfTheGods_Sme_5_32
@ 080   ----------------------------------------
        .byte   FINE

@****************** Track 6 (Midi-Chn.6) ******************@

TwilightOfTheGods_Sme_6:
        .byte   KEYSH , TwilightOfTheGods_Sme_key+0
@ 000   ----------------------------------------
        .byte           VOICE , 1
        .byte           VOL   , 42
        .byte   W96
@ 001   ----------------------------------------
        .byte   W96
@ 002   ----------------------------------------
        .byte   W96
@ 003   ----------------------------------------
        .byte   W96
@ 004   ----------------------------------------
        .byte   W96
@ 005   ----------------------------------------
        .byte   W48
TwilightOfTheGods_Sme_6_LOOP:
        .byte   W48
@ 006   ----------------------------------------
        .byte   W96
@ 007   ----------------------------------------
        .byte   W96
@ 008   ----------------------------------------
        .byte   W96
@ 009   ----------------------------------------
        .byte   W96
@ 010   ----------------------------------------
        .byte   W96
@ 011   ----------------------------------------
        .byte   W96
@ 012   ----------------------------------------
        .byte   W96
@ 013   ----------------------------------------
        .byte   W96
@ 014   ----------------------------------------
        .byte   W96
@ 015   ----------------------------------------
        .byte   W96
@ 016   ----------------------------------------
        .byte   W96
@ 017   ----------------------------------------
        .byte   W96
@ 018   ----------------------------------------
        .byte   W96
@ 019   ----------------------------------------
        .byte   W96
@ 020   ----------------------------------------
        .byte   W96
@ 021   ----------------------------------------
        .byte   W96
@ 022   ----------------------------------------
        .byte   W96
@ 023   ----------------------------------------
        .byte   W96
@ 024   ----------------------------------------
        .byte   W96
@ 025   ----------------------------------------
        .byte   W96
@ 026   ----------------------------------------
        .byte   W96
@ 027   ----------------------------------------
        .byte   W96
@ 028   ----------------------------------------
        .byte   W96
@ 029   ----------------------------------------
        .byte   W96
@ 030   ----------------------------------------
        .byte   W96
@ 031   ----------------------------------------
        .byte   W96
@ 032   ----------------------------------------
TwilightOfTheGods_Sme_6_32:
        .byte           N04   , Bn2 , v104
        .byte   W04
        .byte                   En3
        .byte   W04
        .byte                   Fs3
        .byte   W04
        .byte                   Gn3
        .byte   W04
        .byte                   Dn4
        .byte   W04
        .byte                   An3
        .byte   W04
        .byte                   Gn3
        .byte   W04
        .byte                   Fs3
        .byte   W04
        .byte                   Gn3
        .byte   W04
        .byte                   Fs3
        .byte   W04
        .byte                   En3
        .byte   W04
        .byte                   Fs3
        .byte   W04
        .byte                   En3
        .byte   W04
        .byte                   An2
        .byte   W04
        .byte                   En3
        .byte   W04
        .byte                   Fs3
        .byte   W04
        .byte                   Bn2
        .byte   W04
        .byte                   Fs3
        .byte   W04
        .byte                   Gn3
        .byte   W04
        .byte                   An2
        .byte   W04
        .byte                   Gn3
        .byte   W04
        .byte                   Gn3
        .byte   W04
        .byte                   Fs3
        .byte   W04
        .byte                   Dn3
        .byte   W04
        .byte   PEND
@ 033   ----------------------------------------
        .byte   PATT
         .word  TwilightOfTheGods_Sme_6_32
@ 034   ----------------------------------------
        .byte   PATT
         .word  TwilightOfTheGods_Sme_6_32
@ 035   ----------------------------------------
        .byte           N04   , Bn2 , v104
        .byte   W04
        .byte                   En3
        .byte   W04
        .byte                   Fs3
        .byte   W04
        .byte                   Gn3
        .byte   W04
        .byte                   Dn4
        .byte   W04
        .byte                   An3
        .byte   W04
        .byte                   Gn3
        .byte   W04
        .byte                   Fs3
        .byte   W04
        .byte                   Gn3
        .byte   W04
        .byte                   Fs3
        .byte   W04
        .byte                   En3
        .byte   W04
        .byte                   Fs3
        .byte   W04
        .byte                   Fs5
        .byte   W04
        .byte                   An4
        .byte   W04
        .byte                   Dn5
        .byte   W04
        .byte                   Dn4
        .byte   W04
        .byte                   En4
        .byte   W04
        .byte                   An3
        .byte   W04
        .byte                   Dn4
        .byte   W04
        .byte                   Gn3
        .byte   W04
        .byte                   Fs3
        .byte   W04
        .byte                   An2
        .byte   W04
        .byte                   An2
        .byte   W04
        .byte                   An2
        .byte   W04
@ 036   ----------------------------------------
        .byte   W96
@ 037   ----------------------------------------
        .byte   W96
@ 038   ----------------------------------------
        .byte   W96
@ 039   ----------------------------------------
        .byte   W96
@ 040   ----------------------------------------
        .byte   W96
@ 041   ----------------------------------------
        .byte   W96
@ 042   ----------------------------------------
        .byte   W96
@ 043   ----------------------------------------
        .byte   W48
        .byte   GOTO
         .word  TwilightOfTheGods_Sme_6_LOOP
        .byte   W48
@ 044   ----------------------------------------
TwilightOfTheGods_Sme_6_44:
        .byte   W24
        .byte           N24   , En3 , v064
        .byte   W24
        .byte                   Dn3
        .byte   W24
        .byte                   An2
        .byte   W24
        .byte   PEND
@ 045   ----------------------------------------
TwilightOfTheGods_Sme_6_45:
        .byte           N48   , Bn2 , v064
        .byte   W48
        .byte           N24   , Gn2
        .byte   W24
        .byte                   An2
        .byte   W24
        .byte   PEND
@ 046   ----------------------------------------
TwilightOfTheGods_Sme_6_46:
        .byte           N48   , Bn2 , v064
        .byte   W48
        .byte                   Gn3
        .byte   W48
        .byte   PEND
@ 047   ----------------------------------------
TwilightOfTheGods_Sme_6_47:
        .byte           N48   , Fs3 , v064
        .byte   W48
        .byte                   Dn3
        .byte   W48
        .byte   PEND
@ 048   ----------------------------------------
        .byte   PATT
         .word  TwilightOfTheGods_Sme_6_44
@ 049   ----------------------------------------
        .byte   PATT
         .word  TwilightOfTheGods_Sme_6_45
@ 050   ----------------------------------------
TwilightOfTheGods_Sme_6_50:
        .byte           N48   , Bn2 , v064
        .byte   W48
        .byte                   Cn3
        .byte   W48
        .byte   PEND
@ 051   ----------------------------------------
        .byte                   Bn2
        .byte   W48
        .byte                   Gn2
        .byte   W48
@ 052   ----------------------------------------
        .byte   PATT
         .word  TwilightOfTheGods_Sme_6_44
@ 053   ----------------------------------------
        .byte   PATT
         .word  TwilightOfTheGods_Sme_6_45
@ 054   ----------------------------------------
        .byte   PATT
         .word  TwilightOfTheGods_Sme_6_46
@ 055   ----------------------------------------
        .byte   PATT
         .word  TwilightOfTheGods_Sme_6_47
@ 056   ----------------------------------------
        .byte   PATT
         .word  TwilightOfTheGods_Sme_6_44
@ 057   ----------------------------------------
        .byte   PATT
         .word  TwilightOfTheGods_Sme_6_45
@ 058   ----------------------------------------
        .byte   PATT
         .word  TwilightOfTheGods_Sme_6_50
@ 059   ----------------------------------------
        .byte           N48   , Bn2 , v064
        .byte   W48
        .byte                   An2
        .byte   W48
@ 060   ----------------------------------------
        .byte   W96
@ 061   ----------------------------------------
        .byte   W96
@ 062   ----------------------------------------
        .byte   W96
@ 063   ----------------------------------------
        .byte   W96
@ 064   ----------------------------------------
        .byte   W96
@ 065   ----------------------------------------
        .byte   W96
@ 066   ----------------------------------------
        .byte   W96
@ 067   ----------------------------------------
        .byte   W96
@ 068   ----------------------------------------
        .byte   W96
@ 069   ----------------------------------------
        .byte   W96
@ 070   ----------------------------------------
        .byte   W96
@ 071   ----------------------------------------
        .byte   W96
@ 072   ----------------------------------------
        .byte   W96
@ 073   ----------------------------------------
        .byte   W96
@ 074   ----------------------------------------
        .byte   W96
@ 075   ----------------------------------------
        .byte   W96
@ 076   ----------------------------------------
        .byte   W96
@ 077   ----------------------------------------
        .byte   W96
@ 078   ----------------------------------------
        .byte   W96
@ 079   ----------------------------------------
        .byte   W96
@ 080   ----------------------------------------
        .byte   FINE

@****************** Track 7 (Midi-Chn.7) ******************@

TwilightOfTheGods_Sme_7:
        .byte   KEYSH , TwilightOfTheGods_Sme_key+0
@ 000   ----------------------------------------
        .byte           VOICE , 61
        .byte           VOL   , 40
        .byte   W96
@ 001   ----------------------------------------
        .byte   W96
@ 002   ----------------------------------------
        .byte   W96
@ 003   ----------------------------------------
        .byte   W96
@ 004   ----------------------------------------
        .byte   W96
@ 005   ----------------------------------------
        .byte   W48
TwilightOfTheGods_Sme_7_LOOP:
        .byte   W48
@ 006   ----------------------------------------
        .byte   W96
@ 007   ----------------------------------------
        .byte   W96
@ 008   ----------------------------------------
        .byte   W96
@ 009   ----------------------------------------
        .byte   W96
@ 010   ----------------------------------------
        .byte   W96
@ 011   ----------------------------------------
        .byte   W96
@ 012   ----------------------------------------
        .byte   W96
@ 013   ----------------------------------------
        .byte   W96
@ 014   ----------------------------------------
        .byte   W96
@ 015   ----------------------------------------
        .byte   W96
@ 016   ----------------------------------------
        .byte   W96
@ 017   ----------------------------------------
        .byte   W96
@ 018   ----------------------------------------
        .byte   W96
@ 019   ----------------------------------------
        .byte   W96
@ 020   ----------------------------------------
        .byte   W96
@ 021   ----------------------------------------
        .byte   W96
@ 022   ----------------------------------------
        .byte   W96
@ 023   ----------------------------------------
        .byte   W96
@ 024   ----------------------------------------
        .byte   W96
@ 025   ----------------------------------------
        .byte   W96
@ 026   ----------------------------------------
        .byte   W96
@ 027   ----------------------------------------
        .byte   W96
@ 028   ----------------------------------------
        .byte   W96
@ 029   ----------------------------------------
        .byte   W96
@ 030   ----------------------------------------
        .byte   W96
@ 031   ----------------------------------------
        .byte   W96
@ 032   ----------------------------------------
        .byte   W96
@ 033   ----------------------------------------
        .byte   W96
@ 034   ----------------------------------------
        .byte   W96
@ 035   ----------------------------------------
        .byte   W96
@ 036   ----------------------------------------
TwilightOfTheGods_Sme_7_36:
        .byte           N08   , En4 , v104
        .byte   W16
        .byte                   Gn4
        .byte   W08
        .byte                   Fs4
        .byte   W08
        .byte                   Gn4
        .byte   W08
        .byte                   Fs4
        .byte   W08
        .byte           N16   , En4
        .byte   W16
        .byte           N08   , Gn4
        .byte   W08
        .byte                   Fs4
        .byte   W08
        .byte                   Gn4
        .byte   W08
        .byte                   Fs4
        .byte   W08
        .byte   PEND
@ 037   ----------------------------------------
TwilightOfTheGods_Sme_7_37:
        .byte           N08   , En4 , v104
        .byte   W16
        .byte                   Gn4
        .byte   W08
        .byte                   Fs4
        .byte   W08
        .byte                   Gn4
        .byte   W08
        .byte                   Fs4
        .byte   W08
        .byte                   En4
        .byte   W08
        .byte                   Fs4
        .byte   W08
        .byte                   Gn4
        .byte   W08
        .byte                   An4
        .byte   W08
        .byte                   Gn4
        .byte   W08
        .byte                   Fs4
        .byte   W08
        .byte   PEND
@ 038   ----------------------------------------
        .byte   PATT
         .word  TwilightOfTheGods_Sme_7_36
@ 039   ----------------------------------------
        .byte   PATT
         .word  TwilightOfTheGods_Sme_7_37
@ 040   ----------------------------------------
        .byte   PATT
         .word  TwilightOfTheGods_Sme_7_36
@ 041   ----------------------------------------
        .byte   PATT
         .word  TwilightOfTheGods_Sme_7_37
@ 042   ----------------------------------------
        .byte   PATT
         .word  TwilightOfTheGods_Sme_7_36
@ 043   ----------------------------------------
        .byte           N08   , En4 , v104
        .byte   W16
        .byte                   Bn3
        .byte   W08
        .byte                   En4
        .byte   W08
        .byte                   Fs4
        .byte   W08
        .byte                   En4
        .byte   W08
        .byte           N48   , Ds4
        .byte   GOTO
         .word  TwilightOfTheGods_Sme_7_LOOP
        .byte   W48
@ 044   ----------------------------------------
        .byte   W96
@ 045   ----------------------------------------
        .byte   W96
@ 046   ----------------------------------------
        .byte   W96
@ 047   ----------------------------------------
        .byte   W96
@ 048   ----------------------------------------
        .byte   W96
@ 049   ----------------------------------------
        .byte   W96
@ 050   ----------------------------------------
        .byte   W96
@ 051   ----------------------------------------
        .byte   W96
@ 052   ----------------------------------------
        .byte   W96
@ 053   ----------------------------------------
        .byte   W96
@ 054   ----------------------------------------
        .byte   W96
@ 055   ----------------------------------------
        .byte   W96
@ 056   ----------------------------------------
        .byte   W96
@ 057   ----------------------------------------
        .byte   W96
@ 058   ----------------------------------------
        .byte   W96
@ 059   ----------------------------------------
        .byte   W96
@ 060   ----------------------------------------
TwilightOfTheGods_Sme_7_60:
        .byte           N16   , En2 , v104
        .byte   W24
        .byte                   En2
        .byte   W24
        .byte                   En2
        .byte   W16
        .byte                   En2
        .byte   W16
        .byte                   En2
        .byte   W16
        .byte   PEND
@ 061   ----------------------------------------
        .byte   PATT
         .word  TwilightOfTheGods_Sme_7_60
@ 062   ----------------------------------------
        .byte   PATT
         .word  TwilightOfTheGods_Sme_7_60
@ 063   ----------------------------------------
        .byte   PATT
         .word  TwilightOfTheGods_Sme_7_60
@ 064   ----------------------------------------
TwilightOfTheGods_Sme_7_64:
        .byte           N16   , Cn2 , v104
        .byte   W24
        .byte                   Cn2
        .byte   W24
        .byte                   Cn2
        .byte   W16
        .byte                   Cn2
        .byte   W16
        .byte                   Cn2
        .byte   W16
        .byte   PEND
@ 065   ----------------------------------------
        .byte   PATT
         .word  TwilightOfTheGods_Sme_7_64
@ 066   ----------------------------------------
TwilightOfTheGods_Sme_7_66:
        .byte           N16   , Dn2 , v104
        .byte   W24
        .byte                   Dn2
        .byte   W24
        .byte                   Dn2
        .byte   W16
        .byte                   Dn2
        .byte   W16
        .byte                   Dn2
        .byte   W16
        .byte   PEND
@ 067   ----------------------------------------
        .byte   PATT
         .word  TwilightOfTheGods_Sme_7_66
@ 068   ----------------------------------------
        .byte   W96
@ 069   ----------------------------------------
        .byte   W96
@ 070   ----------------------------------------
        .byte   W96
@ 071   ----------------------------------------
        .byte   W96
@ 072   ----------------------------------------
        .byte   W96
@ 073   ----------------------------------------
        .byte   W96
@ 074   ----------------------------------------
        .byte   W96
@ 075   ----------------------------------------
        .byte   W96
@ 076   ----------------------------------------
        .byte   W96
@ 077   ----------------------------------------
        .byte   W96
@ 078   ----------------------------------------
        .byte   W96
@ 079   ----------------------------------------
        .byte   W96
@ 080   ----------------------------------------
        .byte   FINE

@****************** Track 8 (Midi-Chn.8) ******************@

TwilightOfTheGods_Sme_8:
        .byte   KEYSH , TwilightOfTheGods_Sme_key+0
@ 000   ----------------------------------------
        .byte           VOICE , 116
        .byte           VOL   , 41
        .byte   W96
@ 001   ----------------------------------------
        .byte   W96
@ 002   ----------------------------------------
        .byte   W96
@ 003   ----------------------------------------
        .byte   W96
@ 004   ----------------------------------------
        .byte   W96
@ 005   ----------------------------------------
        .byte   W48
TwilightOfTheGods_Sme_8_LOOP:
        .byte   W48
@ 006   ----------------------------------------
        .byte   W96
@ 007   ----------------------------------------
        .byte   W96
@ 008   ----------------------------------------
        .byte   W96
@ 009   ----------------------------------------
        .byte   W96
@ 010   ----------------------------------------
        .byte   W96
@ 011   ----------------------------------------
        .byte   W96
@ 012   ----------------------------------------
        .byte   W96
@ 013   ----------------------------------------
        .byte   W96
@ 014   ----------------------------------------
        .byte   W96
@ 015   ----------------------------------------
        .byte   W96
@ 016   ----------------------------------------
        .byte   W96
@ 017   ----------------------------------------
        .byte   W96
@ 018   ----------------------------------------
        .byte   W96
@ 019   ----------------------------------------
        .byte   W96
@ 020   ----------------------------------------
        .byte   W96
@ 021   ----------------------------------------
        .byte   W96
@ 022   ----------------------------------------
        .byte   W96
@ 023   ----------------------------------------
        .byte   W96
@ 024   ----------------------------------------
        .byte   W96
@ 025   ----------------------------------------
        .byte   W96
@ 026   ----------------------------------------
        .byte   W96
@ 027   ----------------------------------------
        .byte   W96
@ 028   ----------------------------------------
        .byte   W96
@ 029   ----------------------------------------
        .byte   W96
@ 030   ----------------------------------------
        .byte   W96
@ 031   ----------------------------------------
        .byte   W96
@ 032   ----------------------------------------
        .byte   W96
@ 033   ----------------------------------------
        .byte   W96
@ 034   ----------------------------------------
        .byte   W96
@ 035   ----------------------------------------
        .byte   W96
@ 036   ----------------------------------------
TwilightOfTheGods_Sme_8_36:
        .byte           N16   , Cn2 , v104
        .byte           N08   , Cn3
        .byte   W16
        .byte           N16   , Cn2
        .byte   W16
        .byte                   Cn2
        .byte   W08
        .byte           N08   , Cn3
        .byte   W08
        .byte           N16   , Cn2
        .byte           N08   , Cn3
        .byte   W16
        .byte           N16   , Cn2
        .byte   W16
        .byte                   Cn2
        .byte           N08   , Cn3
        .byte   W16
        .byte   PEND
@ 037   ----------------------------------------
        .byte   PATT
         .word  TwilightOfTheGods_Sme_8_36
@ 038   ----------------------------------------
        .byte   PATT
         .word  TwilightOfTheGods_Sme_8_36
@ 039   ----------------------------------------
        .byte   PATT
         .word  TwilightOfTheGods_Sme_8_36
@ 040   ----------------------------------------
        .byte   PATT
         .word  TwilightOfTheGods_Sme_8_36
@ 041   ----------------------------------------
        .byte   PATT
         .word  TwilightOfTheGods_Sme_8_36
@ 042   ----------------------------------------
        .byte   PATT
         .word  TwilightOfTheGods_Sme_8_36
@ 043   ----------------------------------------
        .byte           N16   , Cn2 , v104
        .byte           N08   , Cn3
        .byte   W16
        .byte           N16   , Cn2
        .byte   W16
        .byte                   Cn2
        .byte   W08
        .byte           N08   , Cn3
        .byte   W08
        .byte           N16   , Cn2
        .byte           N08   , Cn3
        .byte   GOTO
         .word  TwilightOfTheGods_Sme_8_LOOP
        .byte   W16
        .byte           N16   , Cn2
        .byte   W16
        .byte                   Cn2
        .byte           N08   , Cn3
        .byte   W16
@ 044   ----------------------------------------
        .byte   PATT
         .word  TwilightOfTheGods_Sme_8_36
@ 045   ----------------------------------------
        .byte   PATT
         .word  TwilightOfTheGods_Sme_8_36
@ 046   ----------------------------------------
        .byte   PATT
         .word  TwilightOfTheGods_Sme_8_36
@ 047   ----------------------------------------
        .byte   PATT
         .word  TwilightOfTheGods_Sme_8_36
@ 048   ----------------------------------------
        .byte   PATT
         .word  TwilightOfTheGods_Sme_8_36
@ 049   ----------------------------------------
        .byte   PATT
         .word  TwilightOfTheGods_Sme_8_36
@ 050   ----------------------------------------
        .byte   PATT
         .word  TwilightOfTheGods_Sme_8_36
@ 051   ----------------------------------------
        .byte   PATT
         .word  TwilightOfTheGods_Sme_8_36
@ 052   ----------------------------------------
        .byte   PATT
         .word  TwilightOfTheGods_Sme_8_36
@ 053   ----------------------------------------
        .byte   PATT
         .word  TwilightOfTheGods_Sme_8_36
@ 054   ----------------------------------------
        .byte   PATT
         .word  TwilightOfTheGods_Sme_8_36
@ 055   ----------------------------------------
        .byte   PATT
         .word  TwilightOfTheGods_Sme_8_36
@ 056   ----------------------------------------
        .byte   PATT
         .word  TwilightOfTheGods_Sme_8_36
@ 057   ----------------------------------------
        .byte   PATT
         .word  TwilightOfTheGods_Sme_8_36
@ 058   ----------------------------------------
        .byte   PATT
         .word  TwilightOfTheGods_Sme_8_36
@ 059   ----------------------------------------
        .byte   PATT
         .word  TwilightOfTheGods_Sme_8_36
@ 060   ----------------------------------------
        .byte   PATT
         .word  TwilightOfTheGods_Sme_8_36
@ 061   ----------------------------------------
        .byte   PATT
         .word  TwilightOfTheGods_Sme_8_36
@ 062   ----------------------------------------
        .byte   PATT
         .word  TwilightOfTheGods_Sme_8_36
@ 063   ----------------------------------------
        .byte   PATT
         .word  TwilightOfTheGods_Sme_8_36
@ 064   ----------------------------------------
        .byte   PATT
         .word  TwilightOfTheGods_Sme_8_36
@ 065   ----------------------------------------
        .byte   PATT
         .word  TwilightOfTheGods_Sme_8_36
@ 066   ----------------------------------------
        .byte   PATT
         .word  TwilightOfTheGods_Sme_8_36
@ 067   ----------------------------------------
        .byte   PATT
         .word  TwilightOfTheGods_Sme_8_36
@ 068   ----------------------------------------
        .byte   PATT
         .word  TwilightOfTheGods_Sme_8_36
@ 069   ----------------------------------------
        .byte   PATT
         .word  TwilightOfTheGods_Sme_8_36
@ 070   ----------------------------------------
        .byte   PATT
         .word  TwilightOfTheGods_Sme_8_36
@ 071   ----------------------------------------
        .byte   PATT
         .word  TwilightOfTheGods_Sme_8_36
@ 072   ----------------------------------------
        .byte   PATT
         .word  TwilightOfTheGods_Sme_8_36
@ 073   ----------------------------------------
        .byte   PATT
         .word  TwilightOfTheGods_Sme_8_36
@ 074   ----------------------------------------
        .byte   PATT
         .word  TwilightOfTheGods_Sme_8_36
@ 075   ----------------------------------------
        .byte   PATT
         .word  TwilightOfTheGods_Sme_8_36
@ 076   ----------------------------------------
        .byte   PATT
         .word  TwilightOfTheGods_Sme_8_36
@ 077   ----------------------------------------
        .byte   PATT
         .word  TwilightOfTheGods_Sme_8_36
@ 078   ----------------------------------------
        .byte   PATT
         .word  TwilightOfTheGods_Sme_8_36
@ 079   ----------------------------------------
        .byte   PATT
         .word  TwilightOfTheGods_Sme_8_36
@ 080   ----------------------------------------
        .byte   FINE


@********************** End of Song ***********************@

        .align  2
TwilightOfTheGods_Sme:
        .byte   9                       @ Num Tracks
        .byte   0                       @ Unknown
        .byte   TwilightOfTheGods_Sme_pri @ Priority
        .byte   TwilightOfTheGods_Sme_rev @ Reverb

        .word   TwilightOfTheGods_Sme_grp

        .word   TwilightOfTheGods_Sme_0
        .word   TwilightOfTheGods_Sme_1
        .word   TwilightOfTheGods_Sme_2
        .word   TwilightOfTheGods_Sme_3
        .word   TwilightOfTheGods_Sme_4
        .word   TwilightOfTheGods_Sme_5
        .word   TwilightOfTheGods_Sme_6
        .word   TwilightOfTheGods_Sme_7
        .word   TwilightOfTheGods_Sme_8

        .end
