//Event file generated from Sappy .s format.
        #include "MPlayDef.event"

        #define    WarringPowers_grp  voicegroup000
        #define    WarringPowers_pri  0
        #define    WarringPowers_rev  0
        #define    WarringPowers_key  0

        // .rodata
        // WarringPowers
        ALIGN 4

//****************** Track 0 (Midi-Chn.0) ******************//

WarringPowers_0:
        BYTE   KEYSH   WarringPowers_key+0
// 000   ----------------------------------------
        BYTE   TEMPO   212/2
WarringPowers_0_LOOP:
        BYTE           VOL     53
        BYTE           VOICE   61
        BYTE           PAN     c_v-1
        BYTE   W12
        BYTE           N12     Bn2   v064
        BYTE   W12
        BYTE                   Dn3
        BYTE   W12
        BYTE                   Cs3
        BYTE   W12
        BYTE                   Cn3
        BYTE   W12
        BYTE                   Gn3
        BYTE   W12
        BYTE                   Fs3
        BYTE   W12
        BYTE                   Fn3
        BYTE   W12
// 001   ----------------------------------------
        BYTE           N96     En3
        BYTE   W96
// 002   ----------------------------------------
WarringPowers_0_2:
        BYTE   W12
        BYTE           N12     Bn2   v064
        BYTE   W12
        BYTE                   Dn3
        BYTE   W12
        BYTE                   Cs3
        BYTE   W12
        BYTE                   Cn3
        BYTE   W12
        BYTE                   Gn3
        BYTE   W12
        BYTE                   Fs3
        BYTE   W12
        BYTE                   Cn4
        BYTE   W12
        BYTE   PEND
// 003   ----------------------------------------
        BYTE           N96     Bn3
        BYTE   W96
// 004   ----------------------------------------
WarringPowers_0_4:
        BYTE   W12
        BYTE           N12     Bn2   v064
        BYTE   W24
        BYTE                   Dn3
        BYTE   W24
        BYTE                   Cs3
        BYTE   W24
        BYTE                   Cn3
        BYTE   W12
        BYTE   PEND
// 005   ----------------------------------------
        BYTE           N96     Bn2
        BYTE   W96
// 006   ----------------------------------------
        BYTE   W12
        BYTE           N12     Bn3   v051
        BYTE           N12     Bn2
        BYTE   W24
        BYTE                   Dn4
        BYTE           N12     Dn3
        BYTE   W24
        BYTE                   Cs4
        BYTE           N12     Cs3
        BYTE   W24
        BYTE                   Cn4
        BYTE           N12     Cn3
        BYTE   W12
// 007   ----------------------------------------
        BYTE           N96     Bn3
        BYTE           N96     Bn2
        BYTE   W96
// 008   ----------------------------------------
        BYTE   PATT
         POIN2  WarringPowers_0_4
// 009   ----------------------------------------
        BYTE   PATT
         POIN2  WarringPowers_0_4
// 010   ----------------------------------------
        BYTE   PATT
         POIN2  WarringPowers_0_4
// 011   ----------------------------------------
        BYTE   PATT
         POIN2  WarringPowers_0_4
// 012   ----------------------------------------
WarringPowers_0_12:
        BYTE           N12     Bn2   v064
        BYTE   W12
        BYTE                   Dn3
        BYTE   W12
        BYTE                   Cs3
        BYTE   W12
        BYTE                   Cn3
        BYTE   W12
        BYTE                   Bn2
        BYTE   W12
        BYTE                   Dn3
        BYTE   W12
        BYTE                   Cs3
        BYTE   W12
        BYTE                   Cn3
        BYTE   W12
        BYTE   PEND
// 013   ----------------------------------------
WarringPowers_0_13:
        BYTE           N06     Bn2   v064
        BYTE   W06
        BYTE                   Dn3
        BYTE   W06
        BYTE                   Cs3
        BYTE   W06
        BYTE                   Cn3
        BYTE   W06
        BYTE                   Bn2
        BYTE   W06
        BYTE                   Dn3
        BYTE   W06
        BYTE                   Cs3
        BYTE   W06
        BYTE                   Cn3
        BYTE   W06
        BYTE                   Bn2
        BYTE   W06
        BYTE                   Dn3
        BYTE   W06
        BYTE                   Cs3
        BYTE   W06
        BYTE                   Cn3
        BYTE   W06
        BYTE                   Bn2
        BYTE   W06
        BYTE                   Dn3
        BYTE   W06
        BYTE                   Cs3
        BYTE   W06
        BYTE                   Cn3
        BYTE   W06
        BYTE   PEND
// 014   ----------------------------------------
        BYTE   GoTo
         POIN2  WarringPowers_0_LOOP
        BYTE   FINE

//****************** Track 1 (Midi-Chn.1) ******************//

WarringPowers_1:
        BYTE   KEYSH   WarringPowers_key+0
// 000   ----------------------------------------
WarringPowers_1_LOOP:
        BYTE           VOL     64
        BYTE           VOICE   86
        BYTE           PAN     c_v+33
        BYTE   W12
        BYTE           N12     En3   v064
        BYTE   W12
        BYTE                   Gn3
        BYTE   W12
        BYTE                   Fs3
        BYTE   W12
        BYTE                   Fn3
        BYTE   W12
        BYTE                   Cn4
        BYTE   W12
        BYTE                   Bn3
        BYTE   W12
        BYTE                   As3
        BYTE   W12
// 001   ----------------------------------------
        BYTE           N96     An3
        BYTE   W96
// 002   ----------------------------------------
        BYTE   W12
        BYTE           N12     En3
        BYTE   W12
        BYTE                   Gn3
        BYTE   W12
        BYTE                   Fs3
        BYTE   W12
        BYTE                   Fn3
        BYTE   W12
        BYTE                   Cn4
        BYTE   W12
        BYTE                   Bn3
        BYTE   W12
        BYTE                   Fn4
        BYTE   W12
// 003   ----------------------------------------
        BYTE           N96     En4
        BYTE   W96
// 004   ----------------------------------------
WarringPowers_1_4:
        BYTE   W12
        BYTE           N12     En3   v064
        BYTE   W24
        BYTE                   Gn3
        BYTE   W24
        BYTE                   Fs3
        BYTE   W24
        BYTE                   Fn3
        BYTE   W12
        BYTE   PEND
// 005   ----------------------------------------
        BYTE           N96     En3
        BYTE   W96
// 006   ----------------------------------------
        BYTE   PATT
         POIN2  WarringPowers_1_4
// 007   ----------------------------------------
        BYTE           N96     En3   v064
        BYTE   W96
// 008   ----------------------------------------
        BYTE   PATT
         POIN2  WarringPowers_1_4
// 009   ----------------------------------------
        BYTE   PATT
         POIN2  WarringPowers_1_4
// 010   ----------------------------------------
        BYTE   PATT
         POIN2  WarringPowers_1_4
// 011   ----------------------------------------
        BYTE   PATT
         POIN2  WarringPowers_1_4
// 012   ----------------------------------------
        BYTE           N12     En3   v064
        BYTE   W12
        BYTE                   Gn3
        BYTE   W12
        BYTE                   Fs3
        BYTE   W12
        BYTE                   Fn3
        BYTE   W12
        BYTE                   En3
        BYTE   W12
        BYTE                   Gn3
        BYTE   W12
        BYTE                   Fs3
        BYTE   W12
        BYTE                   Fn3
        BYTE   W12
// 013   ----------------------------------------
        BYTE           N06     En3
        BYTE   W06
        BYTE                   Gn3
        BYTE   W06
        BYTE                   Fs3
        BYTE   W06
        BYTE                   Fn3
        BYTE   W06
        BYTE                   En3
        BYTE   W06
        BYTE                   Gn3
        BYTE   W06
        BYTE                   Fs3
        BYTE   W06
        BYTE                   Fn3
        BYTE   W06
        BYTE                   En3
        BYTE   W06
        BYTE                   Gn3
        BYTE   W06
        BYTE                   Fs3
        BYTE   W06
        BYTE                   Fn3
        BYTE   W06
        BYTE                   En3
        BYTE   W06
        BYTE                   Gn3
        BYTE   W06
        BYTE                   Fs3
        BYTE   W06
        BYTE                   Fn3
        BYTE   W06
// 014   ----------------------------------------
        BYTE   GoTo
         POIN2  WarringPowers_1_LOOP
        BYTE   FINE

//****************** Track 2 (Midi-Chn.2) ******************//

WarringPowers_2:
        BYTE   KEYSH   WarringPowers_key+0
// 000   ----------------------------------------
WarringPowers_2_LOOP:
        BYTE           VOICE   109
        BYTE           PAN     c_v-23
        BYTE           VOL     32
        BYTE   W12
        BYTE           N84     An2   v080
        BYTE   W84
// 001   ----------------------------------------
        BYTE           N12
        BYTE   W12
        BYTE           N84
        BYTE   W84
// 002   ----------------------------------------
        BYTE           N12
        BYTE   W12
        BYTE           N84     As2
        BYTE   W84
// 003   ----------------------------------------
        BYTE           N12
        BYTE   W12
        BYTE           N84
        BYTE   W84
// 004   ----------------------------------------
        BYTE           N12
        BYTE   W12
        BYTE           TIE     An2
        BYTE   W84
// 005   ----------------------------------------
        BYTE   W96
// 006   ----------------------------------------
        BYTE           EOT
        BYTE           N12
        BYTE   W12
        BYTE           TIE
        BYTE   W84
// 007   ----------------------------------------
        BYTE   W96
// 008   ----------------------------------------
        BYTE           EOT
        BYTE           TIE     As2
        BYTE           TIE     As3
        BYTE   W96
// 009   ----------------------------------------
        BYTE   W90
        BYTE           EOT
        BYTE           EOT     As2
        BYTE   W06
// 010   ----------------------------------------
        BYTE           N96     Bn2
        BYTE           N96     Bn3
        BYTE   W96
// 011   ----------------------------------------
        BYTE                   Cn3
        BYTE           N96     Cn4
        BYTE   W96
// 012   ----------------------------------------
        BYTE           N48     Dn3
        BYTE           N48     Dn4
        BYTE   W48
        BYTE                   Cn3
        BYTE           N48     Cn4
        BYTE   W48
// 013   ----------------------------------------
        BYTE                   Bn2
        BYTE           N48     Bn3
        BYTE   W48
        BYTE                   As2
        BYTE           N48     As3
        BYTE   W48
// 014   ----------------------------------------
        BYTE   GoTo
         POIN2  WarringPowers_2_LOOP
        BYTE   FINE

//****************** Track 3 (Midi-Chn.3) ******************//

WarringPowers_3:
        BYTE   KEYSH   WarringPowers_key+0
// 000   ----------------------------------------
WarringPowers_3_LOOP:
        BYTE           VOICE   127
        BYTE           PAN     c_v+8
        BYTE           VOL     47
        BYTE           N24     Dn1   v097
        BYTE           N48     An2   v122
        BYTE   W24
        BYTE           N24     Dn1   v097
        BYTE   W24
        BYTE                   Dn1
        BYTE   W12
        BYTE           N12     As1   v064
        BYTE   W12
        BYTE           N24     Dn1   v097
        BYTE   W24
// 001   ----------------------------------------
WarringPowers_3_1:
        BYTE           N24     Dn1   v097
        BYTE   W24
        BYTE                   Dn1
        BYTE   W12
        BYTE           N12     Dn2
        BYTE   W12
        BYTE           N24     Dn1
        BYTE           N12     Dn2
        BYTE   W12
        BYTE                   Dn2
        BYTE           N12     As1   v064
        BYTE   W12
        BYTE           N24     Dn1   v097
        BYTE           N12     Bn1   v094
        BYTE   W12
        BYTE                   Gn1   v092
        BYTE   W12
        BYTE   PEND
// 002   ----------------------------------------
WarringPowers_3_2:
        BYTE           N24     Dn1   v097
        BYTE           N48     Cs2   v122
        BYTE   W24
        BYTE           N24     Dn1   v097
        BYTE   W24
        BYTE                   Dn1
        BYTE   W12
        BYTE           N12     As1   v064
        BYTE   W12
        BYTE           N24     Dn1   v097
        BYTE   W24
        BYTE   PEND
// 003   ----------------------------------------
        BYTE   PATT
         POIN2  WarringPowers_3_1
// 004   ----------------------------------------
        BYTE   PATT
         POIN2  WarringPowers_3_2
// 005   ----------------------------------------
        BYTE   PATT
         POIN2  WarringPowers_3_1
// 006   ----------------------------------------
        BYTE   PATT
         POIN2  WarringPowers_3_2
// 007   ----------------------------------------
        BYTE   PATT
         POIN2  WarringPowers_3_1
// 008   ----------------------------------------
        BYTE           N24     Dn1   v097
        BYTE           N48     Cs2   v122
        BYTE   W24
        BYTE           N24     Dn1   v097
        BYTE   W12
        BYTE           N12     Gs1   v064
        BYTE   W12
        BYTE           N24     Dn1   v097
        BYTE   W12
        BYTE           N12     As1   v064
        BYTE   W12
        BYTE           N24     Dn1   v097
        BYTE   W12
        BYTE           N12     Gs1   v064
        BYTE   W12
// 009   ----------------------------------------
WarringPowers_3_9:
        BYTE           N24     Dn1   v097
        BYTE   W12
        BYTE           N12     As1   v064
        BYTE   W12
        BYTE           N24     Dn1   v097
        BYTE   W12
        BYTE           N12     Gs1   v064
        BYTE   W12
        BYTE           N24     Dn1   v097
        BYTE   W12
        BYTE           N12     As1   v064
        BYTE   W12
        BYTE           N24     Dn1   v097
        BYTE   W12
        BYTE           N12     Gs1   v064
        BYTE   W12
        BYTE   PEND
// 010   ----------------------------------------
        BYTE   PATT
         POIN2  WarringPowers_3_9
// 011   ----------------------------------------
        BYTE   PATT
         POIN2  WarringPowers_3_9
// 012   ----------------------------------------
WarringPowers_3_12:
        BYTE           N24     Dn1   v097
        BYTE           N48     An2   v122
        BYTE   W24
        BYTE           N24     Dn1   v097
        BYTE   W24
        BYTE                   Dn1
        BYTE           N48     An2   v122
        BYTE   W24
        BYTE           N24     Dn1   v097
        BYTE   W24
        BYTE   PEND
// 013   ----------------------------------------
        BYTE   PATT
         POIN2  WarringPowers_3_12
// 014   ----------------------------------------
        BYTE   GoTo
         POIN2  WarringPowers_3_LOOP
        BYTE   FINE

//****************** Track 4 (Midi-Chn.4) ******************//

WarringPowers_4:
        BYTE   KEYSH   WarringPowers_key+0
// 000   ----------------------------------------
WarringPowers_4_LOOP:
        BYTE           VOICE   47
        BYTE           PAN     c_v-8
        BYTE           VOL     55
        BYTE           N48     An2   v116
        BYTE   W96
// 001   ----------------------------------------
WarringPowers_4_1:
        BYTE   W72
        BYTE           N24     An2   v116
        BYTE   W24
        BYTE   PEND
// 002   ----------------------------------------
        BYTE           N48     As2
        BYTE   W96
// 003   ----------------------------------------
        BYTE   W72
        BYTE           N24
        BYTE   W24
// 004   ----------------------------------------
        BYTE           N48     An2
        BYTE   W96
// 005   ----------------------------------------
        BYTE   PATT
         POIN2  WarringPowers_4_1
// 006   ----------------------------------------
        BYTE           N48     An2   v116
        BYTE   W96
// 007   ----------------------------------------
        BYTE   PATT
         POIN2  WarringPowers_4_1
// 008   ----------------------------------------
WarringPowers_4_8:
        BYTE           N24     As2   v116
        BYTE   W24
        BYTE                   As2
        BYTE   W24
        BYTE                   As2
        BYTE   W24
        BYTE                   As2
        BYTE   W24
        BYTE   PEND
// 009   ----------------------------------------
        BYTE   PATT
         POIN2  WarringPowers_4_8
// 010   ----------------------------------------
        BYTE           N24     Bn2   v116
        BYTE   W24
        BYTE                   Bn2
        BYTE   W24
        BYTE                   Bn2
        BYTE   W24
        BYTE                   Bn2
        BYTE   W24
// 011   ----------------------------------------
        BYTE                   Cn3
        BYTE   W24
        BYTE                   Cn3
        BYTE   W24
        BYTE                   Cn3
        BYTE   W24
        BYTE                   Cn3
        BYTE   W24
// 012   ----------------------------------------
        BYTE                   Dn3
        BYTE   W24
        BYTE                   Dn3
        BYTE   W24
        BYTE                   Cn3
        BYTE   W24
        BYTE                   Cn3
        BYTE   W24
// 013   ----------------------------------------
        BYTE                   Bn2
        BYTE   W24
        BYTE                   Bn2
        BYTE   W24
        BYTE                   As2
        BYTE   W24
        BYTE                   As1
        BYTE   W24
// 014   ----------------------------------------
        BYTE   GoTo
         POIN2  WarringPowers_4_LOOP
        BYTE   FINE

//****************** Track 5 (Midi-Chn.5) ******************//

WarringPowers_5:
        BYTE   KEYSH   WarringPowers_key+0
// 000   ----------------------------------------
WarringPowers_5_LOOP:
        BYTE           VOICE   104
        BYTE           PAN     c_v+24
        BYTE           VOL     35
        BYTE           N12     An2   v085
        BYTE           N12     Dn2
        BYTE   W12
        BYTE           N06     An2   v067
        BYTE           N06     Dn2
        BYTE   W12
        BYTE                   An2   v085
        BYTE           N06     Dn2
        BYTE   W12
        BYTE           N24     An2
        BYTE           N24     Dn2
        BYTE   W24
        BYTE                   An2
        BYTE           N24     Dn2
        BYTE   W24
        BYTE           N12     An2
        BYTE           N12     Dn2
        BYTE   W12
// 001   ----------------------------------------
WarringPowers_5_1:
        BYTE           N12     An2   v085
        BYTE           N12     Dn2
        BYTE   W12
        BYTE           N06     An2   v067
        BYTE           N06     Dn2
        BYTE   W12
        BYTE                   An2   v085
        BYTE           N06     Dn2
        BYTE   W12
        BYTE           N24     An2
        BYTE           N24     Dn2
        BYTE   W24
        BYTE                   An2
        BYTE           N24     Dn2
        BYTE   W24
        BYTE           N12     An2
        BYTE           N12     Dn2
        BYTE   W12
        BYTE   PEND
// 002   ----------------------------------------
WarringPowers_5_2:
        BYTE           N12     As2   v085
        BYTE           N12     Ds2
        BYTE   W12
        BYTE           N06     As2   v067
        BYTE           N06     Ds2
        BYTE   W12
        BYTE                   As2   v085
        BYTE           N06     Ds2
        BYTE   W12
        BYTE           N24     As2
        BYTE           N24     Ds2
        BYTE   W24
        BYTE                   As2
        BYTE           N24     Ds2
        BYTE   W24
        BYTE           N12     As2
        BYTE           N12     Ds2
        BYTE   W12
        BYTE   PEND
// 003   ----------------------------------------
        BYTE   PATT
         POIN2  WarringPowers_5_2
// 004   ----------------------------------------
        BYTE   PATT
         POIN2  WarringPowers_5_1
// 005   ----------------------------------------
        BYTE   PATT
         POIN2  WarringPowers_5_1
// 006   ----------------------------------------
WarringPowers_5_6:
        BYTE           N12     Dn3   v085
        BYTE           N12     Dn2
        BYTE           N12     An2
        BYTE   W12
        BYTE           N06     Dn3   v067
        BYTE           N06     An2
        BYTE           N06     Dn2
        BYTE   W12
        BYTE                   Dn3   v085
        BYTE           N06     An2
        BYTE           N06     Dn2
        BYTE   W12
        BYTE           N24     Dn3
        BYTE           N24     Dn2
        BYTE           N24     An2
        BYTE   W24
        BYTE                   Dn3
        BYTE           N24     Dn2
        BYTE           N24     An2
        BYTE   W24
        BYTE           N12     Dn3
        BYTE           N12     Dn2
        BYTE           N12     An2
        BYTE   W12
        BYTE   PEND
// 007   ----------------------------------------
        BYTE   PATT
         POIN2  WarringPowers_5_6
// 008   ----------------------------------------
WarringPowers_5_8:
        BYTE           N12     Ds3   v085
        BYTE           N12     As2
        BYTE           N12     Ds2
        BYTE   W12
        BYTE           N06     Ds3   v067
        BYTE           N06     As2
        BYTE           N06     Ds2
        BYTE   W12
        BYTE                   Ds3   v085
        BYTE           N06     As2
        BYTE           N06     Ds2
        BYTE   W12
        BYTE           N24     Ds3
        BYTE           N24     As2
        BYTE           N24     Ds2
        BYTE   W24
        BYTE                   Ds3
        BYTE           N24     As2
        BYTE           N24     Ds2
        BYTE   W24
        BYTE           N12     Ds3
        BYTE           N12     As2
        BYTE           N12     Ds2
        BYTE   W12
        BYTE   PEND
// 009   ----------------------------------------
        BYTE   PATT
         POIN2  WarringPowers_5_8
// 010   ----------------------------------------
        BYTE           N12     En3   v085
        BYTE           N12     Bn2
        BYTE           N12     En2
        BYTE   W12
        BYTE           N06     En3   v067
        BYTE           N06     Bn2
        BYTE           N06     En2
        BYTE   W12
        BYTE                   En3   v085
        BYTE           N06     Bn2
        BYTE           N06     En2
        BYTE   W12
        BYTE           N24     En3
        BYTE           N24     Bn2
        BYTE           N24     En2
        BYTE   W24
        BYTE                   En3
        BYTE           N24     Bn2
        BYTE           N24     En2
        BYTE   W24
        BYTE           N12     En3
        BYTE           N12     Bn2
        BYTE           N12     En2
        BYTE   W12
// 011   ----------------------------------------
        BYTE                   Fn3
        BYTE           N12     Cn3
        BYTE           N12     Fn2
        BYTE   W12
        BYTE           N06     Fn3   v067
        BYTE           N06     Cn3
        BYTE           N06     Fn2
        BYTE   W12
        BYTE                   Fn3   v085
        BYTE           N06     Cn3
        BYTE           N06     Fn2
        BYTE   W12
        BYTE           N24     Fn3
        BYTE           N24     Cn3
        BYTE           N24     Fn2
        BYTE   W24
        BYTE                   Fn3
        BYTE           N24     Cn3
        BYTE           N24     Fn2
        BYTE   W24
        BYTE           N12     Fn3
        BYTE           N12     Cn3
        BYTE           N12     Fn2
        BYTE   W12
// 012   ----------------------------------------
        BYTE                   Gn3
        BYTE           N12     Dn3
        BYTE           N12     Gn2
        BYTE   W12
        BYTE           N06     Gn3   v067
        BYTE           N06     Dn3
        BYTE           N06     Gn2
        BYTE   W12
        BYTE                   Gn3   v085
        BYTE           N06     Dn3
        BYTE           N06     Gn2
        BYTE   W12
        BYTE           N24     Fn3
        BYTE           N24     Cn3
        BYTE           N24     Fn2
        BYTE   W24
        BYTE                   Fn3
        BYTE           N24     Cn3
        BYTE           N24     Fn2
        BYTE   W24
        BYTE           N12     Fn3
        BYTE           N12     Cn3
        BYTE           N12     Fn2
        BYTE   W12
// 013   ----------------------------------------
        BYTE                   En3
        BYTE           N12     Bn2
        BYTE           N12     En2
        BYTE   W12
        BYTE           N06     En3   v067
        BYTE           N06     Bn2
        BYTE           N06     En2
        BYTE   W12
        BYTE                   En2   v085
        BYTE           N06     Bn2
        BYTE           N06     En3
        BYTE   W12
        BYTE           N24     Ds3
        BYTE           N24     As2
        BYTE           N24     Ds2
        BYTE   W24
        BYTE                   Ds3
        BYTE           N24     As2
        BYTE           N24     Ds2
        BYTE   W24
        BYTE           N12     Ds3
        BYTE           N12     As2
        BYTE           N12     Ds2
        BYTE   W12
// 014   ----------------------------------------
        BYTE   GoTo
         POIN2  WarringPowers_5_LOOP
        BYTE   FINE

//****************** Track 6 (Midi-Chn.6) ******************//

WarringPowers_6:
        BYTE   KEYSH   WarringPowers_key+0
// 000   ----------------------------------------
WarringPowers_6_LOOP:
        BYTE           VOL     64
        BYTE           VOICE   17
        BYTE           PAN     c_v-32
        BYTE   W12
        BYTE           N12     Bn2   v064
        BYTE   W12
        BYTE                   Dn3
        BYTE   W12
        BYTE                   Cs3
        BYTE   W12
        BYTE                   Cn3
        BYTE   W12
        BYTE                   Gn3
        BYTE   W12
        BYTE                   Fs3
        BYTE   W12
        BYTE                   Fn3
        BYTE   W12
// 001   ----------------------------------------
        BYTE           N96     En3
        BYTE   W96
// 002   ----------------------------------------
        BYTE   PATT
         POIN2  WarringPowers_0_2
// 003   ----------------------------------------
        BYTE           N96     Bn3   v064
        BYTE   W96
// 004   ----------------------------------------
        BYTE   PATT
         POIN2  WarringPowers_0_4
// 005   ----------------------------------------
        BYTE           N96     Bn2   v064
        BYTE   W96
// 006   ----------------------------------------
        BYTE   W12
        BYTE           N12     Bn3
        BYTE   W24
        BYTE                   Dn4
        BYTE   W24
        BYTE                   Cs4
        BYTE   W24
        BYTE                   Cn4
        BYTE   W12
// 007   ----------------------------------------
        BYTE           N96     Bn3
        BYTE   W96
// 008   ----------------------------------------
        BYTE   PATT
         POIN2  WarringPowers_0_4
// 009   ----------------------------------------
        BYTE   PATT
         POIN2  WarringPowers_0_4
// 010   ----------------------------------------
        BYTE   PATT
         POIN2  WarringPowers_0_4
// 011   ----------------------------------------
        BYTE   PATT
         POIN2  WarringPowers_0_4
// 012   ----------------------------------------
        BYTE   PATT
         POIN2  WarringPowers_0_12
// 013   ----------------------------------------
        BYTE   PATT
         POIN2  WarringPowers_0_13
// 014   ----------------------------------------
        BYTE   GoTo
         POIN2  WarringPowers_6_LOOP
        BYTE   FINE


//********************** End of Song ***********************//

        ALIGN 4
WarringPowers:
        BYTE   7                       // Num Tracks
        BYTE   0                       // Unknown
        BYTE   WarringPowers_pri       // Priority
        BYTE   WarringPowers_rev       // Reverb

        POIN2   WarringPowers_grp      

        POIN2   WarringPowers_0
        POIN2   WarringPowers_1
        POIN2   WarringPowers_2
        POIN2   WarringPowers_3
        POIN2   WarringPowers_4
        POIN2   WarringPowers_5
        POIN2   WarringPowers_6

        
