//Event file generated from Sappy .s format.
	#include "MPlayDef.event"

	#define	WhatLiesAtTheEnd_grp  voicegroup000
	#define	WhatLiesAtTheEnd_pri  0
	#define	WhatLiesAtTheEnd_rev  0
	#define	WhatLiesAtTheEnd_mvl  85
	#define	WhatLiesAtTheEnd_key  0
	#define	WhatLiesAtTheEnd_tbs  1
	#define	WhatLiesAtTheEnd_exg  0
	#define	WhatLiesAtTheEnd_cmp  1

	// .rodata
	//	WhatLiesAtTheEnd
	ALIGN 4

//**************** Track 1 (Midi-Chn.1) ****************//

WhatLiesAtTheEnd_1:
	BYTE	KEYSH   WhatLiesAtTheEnd_key+0
WhatLiesAtTheEnd_1_B1:
// 000   ----------------------------------------
	BYTE	TEMPO   137*WhatLiesAtTheEnd_tbs/2
	BYTE		VOICE   91
	BYTE		PAN     c_v+23
	BYTE		VOL     81*WhatLiesAtTheEnd_mvl/mxv
	BYTE	W96
// 001   ----------------------------------------
	BYTE	W96
// 002   ----------------------------------------
	BYTE	W96
// 003   ----------------------------------------
	BYTE	W96
// 004   ----------------------------------------
	BYTE	W96
// 005   ----------------------------------------
	BYTE	W96
// 006   ----------------------------------------
	BYTE	W96
// 007   ----------------------------------------
	BYTE	W96
// 008   ----------------------------------------
	BYTE	W96
// 009   ----------------------------------------
	BYTE	W96
// 010   ----------------------------------------
	BYTE	W96
// 011   ----------------------------------------
	BYTE	W96
// 012   ----------------------------------------
	BYTE	W96
// 013   ----------------------------------------
	BYTE	W96
// 014   ----------------------------------------
	BYTE	W96
// 015   ----------------------------------------
	BYTE	W96
// 016   ----------------------------------------
	BYTE	W96
// 017   ----------------------------------------
	BYTE	W96
// 018   ----------------------------------------
	BYTE	W96
// 019   ----------------------------------------
	BYTE	W96
// 020   ----------------------------------------
	BYTE	W96
// 021   ----------------------------------------
	BYTE	W96
// 022   ----------------------------------------
	BYTE	W96
// 023   ----------------------------------------
	BYTE	W96
// 024   ----------------------------------------
	BYTE	W96
// 025   ----------------------------------------
	BYTE	W96
// 026   ----------------------------------------
	BYTE	W96
// 027   ----------------------------------------
	BYTE	W96
// 028   ----------------------------------------
	BYTE	W96
// 029   ----------------------------------------
	BYTE	W96
// 030   ----------------------------------------
	BYTE	W96
// 031   ----------------------------------------
	BYTE	W96
// 032   ----------------------------------------
	BYTE	W96
// 033   ----------------------------------------
	BYTE	W96
// 034   ----------------------------------------
	BYTE	W96
// 035   ----------------------------------------
	BYTE	W96
// 036   ----------------------------------------
	BYTE	W96
// 037   ----------------------------------------
	BYTE	W96
// 038   ----------------------------------------
	BYTE	W96
// 039   ----------------------------------------
	BYTE	W96
// 040   ----------------------------------------
	BYTE	W96
// 041   ----------------------------------------
	BYTE	W96
// 042   ----------------------------------------
	BYTE	W96
// 043   ----------------------------------------
	BYTE	W96
// 044   ----------------------------------------
	BYTE	W96
// 045   ----------------------------------------
	BYTE	W96
// 046   ----------------------------------------
	BYTE	W96
// 047   ----------------------------------------
	BYTE	W96
// 048   ----------------------------------------
	BYTE	W96
// 049   ----------------------------------------
	BYTE	W96
// 050   ----------------------------------------
	BYTE	W96
// 051   ----------------------------------------
	BYTE	W96
// 052   ----------------------------------------
	BYTE	W96
// 053   ----------------------------------------
	BYTE		N48     As2   v080
	BYTE	W48
	BYTE		        Fn3 
	BYTE	W48
// 054   ----------------------------------------
	BYTE		N48   
	BYTE	W48
	BYTE		N24     Ds3 
	BYTE	W24
	BYTE		        Cs3 
	BYTE	W24
// 055   ----------------------------------------
	BYTE		N36   
	BYTE	W36
	BYTE		N08     Bn2 
	BYTE	W12
	BYTE		N36   
	BYTE	W36
	BYTE		N08     Fs3 
	BYTE	W12
// 056   ----------------------------------------
	BYTE		N36   
	BYTE	W36
	BYTE		N08     Fn3 
	BYTE	W12
	BYTE		N48   
	BYTE	W48
// 057   ----------------------------------------
	BYTE		        As2 
	BYTE	W60
	BYTE		N12   
	BYTE	W12
	BYTE		        Cs3 
	BYTE	W12
	BYTE		        Fn3 
	BYTE	W12
// 058   ----------------------------------------
	BYTE		N48     Gs3 
	BYTE	W48
	BYTE		N24     Fs3 
	BYTE	W24
	BYTE		        Fn3 
	BYTE	W24
// 059   ----------------------------------------
	BYTE		N36   
	BYTE	W36
	BYTE		N08     Ds3 
	BYTE	W12
	BYTE		N36   
	BYTE	W36
	BYTE		N08     Cs3 
	BYTE	W12
// 060   ----------------------------------------
	BYTE		N36   
	BYTE	W36
	BYTE		N08     Cn3 
	BYTE	W12
	BYTE		N48   
	BYTE	W48
// 061   ----------------------------------------
	BYTE	W96
// 062   ----------------------------------------
	BYTE	W96
// 063   ----------------------------------------
	BYTE	W96
// 064   ----------------------------------------
	BYTE	W96
// 065   ----------------------------------------
	BYTE	W96
// 066   ----------------------------------------
	BYTE	W96
// 067   ----------------------------------------
	BYTE	W96
// 068   ----------------------------------------
	BYTE	W96
// 069   ----------------------------------------
	BYTE	W96
// 070   ----------------------------------------
	BYTE	W96
// 071   ----------------------------------------
	BYTE	W96
// 072   ----------------------------------------
	BYTE	W96
// 073   ----------------------------------------
	BYTE	W96
// 074   ----------------------------------------
	BYTE	W96
// 075   ----------------------------------------
	BYTE	W96
// 076   ----------------------------------------
	BYTE	W96
// 077   ----------------------------------------
	BYTE	W96
// 078   ----------------------------------------
	BYTE	W96
// 079   ----------------------------------------
	BYTE	W96
// 080   ----------------------------------------
	BYTE	W96
// 081   ----------------------------------------
	BYTE	W96
// 082   ----------------------------------------
	BYTE	W96
// 083   ----------------------------------------
	BYTE	W96
// 084   ----------------------------------------
	BYTE	W96
// 085   ----------------------------------------
	BYTE	W48
	BYTE		        Ds3 
	BYTE		N48     Fn3 
	BYTE		N48     Cn4 
	BYTE	W48
// 086   ----------------------------------------
	BYTE		N96     Ds3 
	BYTE		N96     Cn4 
	BYTE		N96     Ds4 
	BYTE	W96
// 087   ----------------------------------------
WhatLiesAtTheEnd_1_087:
	BYTE		N96     Cs3   v080
	BYTE		N96     As3 
	BYTE		N96     Cs4 
	BYTE	W96
	BYTE	PEND
// 088   ----------------------------------------
	BYTE		        Cn3 
	BYTE		N96     Gs3 
	BYTE		N96     Cn4 
	BYTE	W96
// 089   ----------------------------------------
	BYTE	PATT
	 POIN2	WhatLiesAtTheEnd_1_087
// 090   ----------------------------------------
	BYTE		N48     Ds3   v080
	BYTE		N48     Cn4 
	BYTE		N48     Ds4 
	BYTE	W48
	BYTE		        Gs3 
	BYTE		N48     Cn4 
	BYTE	W48
// 091   ----------------------------------------
	BYTE		        As3 
	BYTE		N48     Cs4 
	BYTE	W48
	BYTE		N48   
	BYTE		N48     Fn4 
	BYTE	W48
// 092   ----------------------------------------
	BYTE		N80     Fn3 
	BYTE		N96     Cn4 
	BYTE		N80     Fn4 
	BYTE	W80
	BYTE		N08     Fs4 
	BYTE	W08
	BYTE		        Fn4 
	BYTE	W08
// 093   ----------------------------------------
	BYTE		N96     Ds3 
	BYTE		N96     As3 
	BYTE		N96     Ds4 
	BYTE	W96
	BYTE	GoTo
	 POIN2	WhatLiesAtTheEnd_1_B1
WhatLiesAtTheEnd_1_B2:
// 094   ----------------------------------------
	BYTE	FINE

//**************** Track 2 (Midi-Chn.2) ****************//

WhatLiesAtTheEnd_2:
	BYTE	KEYSH   WhatLiesAtTheEnd_key+0
WhatLiesAtTheEnd_2_B1:
// 000   ----------------------------------------
	BYTE		VOICE   41
	BYTE		VOL     57*WhatLiesAtTheEnd_mvl/mxv
	BYTE		PAN     c_v-16
	BYTE	W08
	BYTE		N06     Fn3   v080
	BYTE	W08
	BYTE		        Gs3 
	BYTE	W08
	BYTE		        Cn4 
	BYTE	W08
	BYTE		        Cs4 
	BYTE	W08
	BYTE		        Ds4 
	BYTE	W08
	BYTE		        Gs4 
	BYTE	W08
	BYTE		        Ds4 
	BYTE	W08
	BYTE		        Cs4 
	BYTE	W08
	BYTE		        Cn4 
	BYTE	W08
	BYTE		        Gs3 
	BYTE	W08
	BYTE		        Fn3 
	BYTE	W08
// 001   ----------------------------------------
WhatLiesAtTheEnd_2_001:
	BYTE	W08
	BYTE		N06     Fn3   v080
	BYTE	W08
	BYTE		        Gs3 
	BYTE	W08
	BYTE		        Cn4 
	BYTE	W08
	BYTE		        Cs4 
	BYTE	W08
	BYTE		        Ds4 
	BYTE	W08
	BYTE		        Gs4 
	BYTE	W08
	BYTE		        Ds4 
	BYTE	W08
	BYTE		        Cs4 
	BYTE	W08
	BYTE		        Cn4 
	BYTE	W08
	BYTE		        Gs3 
	BYTE	W08
	BYTE		        Fn3 
	BYTE	W08
	BYTE	PEND
// 002   ----------------------------------------
	BYTE	PATT
	 POIN2	WhatLiesAtTheEnd_2_001
// 003   ----------------------------------------
WhatLiesAtTheEnd_2_003:
	BYTE	W08
	BYTE		N06     Fs3   v080
	BYTE	W08
	BYTE		        Gs3 
	BYTE	W08
	BYTE		        Cn4 
	BYTE	W08
	BYTE		        Cs4 
	BYTE	W08
	BYTE		        Ds4 
	BYTE	W08
	BYTE		        Gs4 
	BYTE	W08
	BYTE		        Ds4 
	BYTE	W08
	BYTE		        Cs4 
	BYTE	W08
	BYTE		        Cn4 
	BYTE	W08
	BYTE		        Cs4 
	BYTE	W08
	BYTE		        Ds4 
	BYTE	W08
	BYTE	PEND
// 004   ----------------------------------------
	BYTE	PATT
	 POIN2	WhatLiesAtTheEnd_2_001
// 005   ----------------------------------------
	BYTE	PATT
	 POIN2	WhatLiesAtTheEnd_2_001
// 006   ----------------------------------------
	BYTE	PATT
	 POIN2	WhatLiesAtTheEnd_2_001
// 007   ----------------------------------------
	BYTE	PATT
	 POIN2	WhatLiesAtTheEnd_2_003
// 008   ----------------------------------------
	BYTE	PATT
	 POIN2	WhatLiesAtTheEnd_2_001
// 009   ----------------------------------------
	BYTE	PATT
	 POIN2	WhatLiesAtTheEnd_2_001
// 010   ----------------------------------------
	BYTE	PATT
	 POIN2	WhatLiesAtTheEnd_2_001
// 011   ----------------------------------------
	BYTE	PATT
	 POIN2	WhatLiesAtTheEnd_2_003
// 012   ----------------------------------------
	BYTE	PATT
	 POIN2	WhatLiesAtTheEnd_2_001
// 013   ----------------------------------------
	BYTE	PATT
	 POIN2	WhatLiesAtTheEnd_2_001
// 014   ----------------------------------------
	BYTE	PATT
	 POIN2	WhatLiesAtTheEnd_2_001
// 015   ----------------------------------------
	BYTE	PATT
	 POIN2	WhatLiesAtTheEnd_2_003
// 016   ----------------------------------------
	BYTE	PATT
	 POIN2	WhatLiesAtTheEnd_2_001
// 017   ----------------------------------------
	BYTE	PATT
	 POIN2	WhatLiesAtTheEnd_2_001
// 018   ----------------------------------------
	BYTE	PATT
	 POIN2	WhatLiesAtTheEnd_2_001
// 019   ----------------------------------------
	BYTE	PATT
	 POIN2	WhatLiesAtTheEnd_2_003
// 020   ----------------------------------------
	BYTE		N48     Fs3   v080
	BYTE		N48     As3 
	BYTE	W24
	BYTE		N24     Ds3 
	BYTE	W24
	BYTE		N48     As3 
	BYTE		N48     Ds4 
	BYTE	W24
	BYTE		N24     Ds3 
	BYTE	W24
// 021   ----------------------------------------
	BYTE		N48     Gs3 
	BYTE		N48     Cn4 
	BYTE	W24
	BYTE		N24     Fn3 
	BYTE	W24
	BYTE		N48     Cs3 
	BYTE		N48     Gs3 
	BYTE	W24
	BYTE		N24     Fn3 
	BYTE	W24
// 022   ----------------------------------------
	BYTE		N48     As3 
	BYTE		N48     Cs4 
	BYTE	W24
	BYTE		N24     Fs3 
	BYTE	W24
	BYTE		N48     As3 
	BYTE		N72     Ds4 
	BYTE	W24
	BYTE		N24     Fs3 
	BYTE	W24
// 023   ----------------------------------------
	BYTE		N48     Gs3 
	BYTE	W24
	BYTE		N24     Cs4 
	BYTE	W24
	BYTE		        Fn3 
	BYTE		N24     Gs3 
	BYTE	W24
	BYTE		        Cs3 
	BYTE		N24     Fn3 
	BYTE	W24
// 024   ----------------------------------------
	BYTE		N48     Fs3 
	BYTE		N48     As3 
	BYTE	W48
	BYTE		N48   
	BYTE		N48     Ds4 
	BYTE	W48
// 025   ----------------------------------------
	BYTE		        Gs3 
	BYTE		N48     Cn4 
	BYTE	W48
	BYTE		        Cs3 
	BYTE		N48     Gs3 
	BYTE	W48
// 026   ----------------------------------------
	BYTE		N72     Dn3 
	BYTE		N72     Gn3 
	BYTE	W24
	BYTE		N06     As3 
	BYTE	W08
	BYTE		        Dn4 
	BYTE	W08
	BYTE		        Fn4 
	BYTE	W08
	BYTE		        As4 
	BYTE	W08
	BYTE		        Fn4 
	BYTE	W08
	BYTE		        Dn4 
	BYTE	W08
	BYTE		        Fn4 
	BYTE	W08
	BYTE		        Dn4 
	BYTE	W08
	BYTE		        As3 
	BYTE	W08
// 027   ----------------------------------------
	BYTE		N48     Fn4 
	BYTE	W48
	BYTE		N24     Gn4 
	BYTE	W48
// 028   ----------------------------------------
	BYTE	W96
// 029   ----------------------------------------
	BYTE	W96
// 030   ----------------------------------------
	BYTE	W96
// 031   ----------------------------------------
	BYTE	W96
// 032   ----------------------------------------
	BYTE	W96
// 033   ----------------------------------------
	BYTE	W96
// 034   ----------------------------------------
	BYTE	W96
// 035   ----------------------------------------
	BYTE	W96
// 036   ----------------------------------------
WhatLiesAtTheEnd_2_036:
	BYTE	W08
	BYTE		N06     Fn3   v080
	BYTE	W08
	BYTE		        An3 
	BYTE	W08
	BYTE		        Cn4 
	BYTE	W08
	BYTE		        Dn4 
	BYTE	W08
	BYTE		        En4 
	BYTE	W08
	BYTE		        An4 
	BYTE	W08
	BYTE		        En4 
	BYTE	W08
	BYTE		        Dn4 
	BYTE	W08
	BYTE		        Cn4 
	BYTE	W08
	BYTE		        An3 
	BYTE	W08
	BYTE		        Fn3 
	BYTE	W08
	BYTE	PEND
// 037   ----------------------------------------
	BYTE	PATT
	 POIN2	WhatLiesAtTheEnd_2_036
// 038   ----------------------------------------
	BYTE	PATT
	 POIN2	WhatLiesAtTheEnd_2_036
// 039   ----------------------------------------
WhatLiesAtTheEnd_2_039:
	BYTE	W08
	BYTE		N06     Gn3   v080
	BYTE	W08
	BYTE		        An3 
	BYTE	W08
	BYTE		        Cn4 
	BYTE	W08
	BYTE		        Dn4 
	BYTE	W08
	BYTE		        En4 
	BYTE	W08
	BYTE		        An4 
	BYTE	W08
	BYTE		        En4 
	BYTE	W08
	BYTE		        Dn4 
	BYTE	W08
	BYTE		        Cn4 
	BYTE	W08
	BYTE		        Dn4 
	BYTE	W08
	BYTE		        En4 
	BYTE	W08
	BYTE	PEND
// 040   ----------------------------------------
	BYTE	PATT
	 POIN2	WhatLiesAtTheEnd_2_036
// 041   ----------------------------------------
	BYTE	PATT
	 POIN2	WhatLiesAtTheEnd_2_036
// 042   ----------------------------------------
	BYTE	PATT
	 POIN2	WhatLiesAtTheEnd_2_036
// 043   ----------------------------------------
	BYTE	PATT
	 POIN2	WhatLiesAtTheEnd_2_039
// 044   ----------------------------------------
	BYTE	W96
// 045   ----------------------------------------
	BYTE	W96
// 046   ----------------------------------------
	BYTE	W96
// 047   ----------------------------------------
	BYTE	W96
// 048   ----------------------------------------
	BYTE		N24     Gs4   v116
	BYTE	W24
	BYTE		        Fs4 
	BYTE	W24
	BYTE		        Cs4 
	BYTE	W24
	BYTE		        Ds4 
	BYTE	W24
// 049   ----------------------------------------
	BYTE		        Fs4 
	BYTE	W24
	BYTE		        En4 
	BYTE	W24
	BYTE		        Ds4 
	BYTE	W24
	BYTE		        En4 
	BYTE	W24
// 050   ----------------------------------------
	BYTE		        Bn3 
	BYTE	W24
	BYTE		        An3 
	BYTE	W24
	BYTE		        Gs3 
	BYTE	W24
	BYTE		        Fs3 
	BYTE	W24
// 051   ----------------------------------------
	BYTE		N96     Gs3 
	BYTE	W96
// 052   ----------------------------------------
	BYTE		N84     Ds3   v080
	BYTE	W96
// 053   ----------------------------------------
	BYTE	W96
// 054   ----------------------------------------
	BYTE	W96
// 055   ----------------------------------------
	BYTE	W96
// 056   ----------------------------------------
	BYTE	W96
// 057   ----------------------------------------
	BYTE	W96
// 058   ----------------------------------------
	BYTE	W96
// 059   ----------------------------------------
	BYTE	W96
// 060   ----------------------------------------
	BYTE	W96
// 061   ----------------------------------------
	BYTE	W96
// 062   ----------------------------------------
	BYTE	W96
// 063   ----------------------------------------
	BYTE	W96
// 064   ----------------------------------------
	BYTE	W96
// 065   ----------------------------------------
	BYTE	W96
// 066   ----------------------------------------
	BYTE	W96
// 067   ----------------------------------------
	BYTE	W96
// 068   ----------------------------------------
	BYTE	W96
// 069   ----------------------------------------
	BYTE	W96
// 070   ----------------------------------------
	BYTE	W96
// 071   ----------------------------------------
	BYTE	W96
// 072   ----------------------------------------
	BYTE	W96
// 073   ----------------------------------------
	BYTE	W48
	BYTE		N06     Fn3   v108
	BYTE	W08
	BYTE		        An3 
	BYTE	W08
	BYTE		        Cn4 
	BYTE	W08
	BYTE		        Ds4 
	BYTE	W08
	BYTE		        Cn4 
	BYTE	W08
	BYTE		        An3 
	BYTE	W08
// 074   ----------------------------------------
	BYTE		N24     Cs4 
	BYTE	W24
	BYTE		N06     Fn3 
	BYTE	W08
	BYTE		        An3 
	BYTE	W08
	BYTE		        Cs4 
	BYTE	W08
	BYTE		N24     Cn4 
	BYTE	W24
	BYTE		N06     Fn3 
	BYTE	W08
	BYTE		        Gs3 
	BYTE	W08
	BYTE		        Cs4 
	BYTE	W08
// 075   ----------------------------------------
	BYTE		N48     Fn4 
	BYTE	W96
// 076   ----------------------------------------
	BYTE	W96
// 077   ----------------------------------------
	BYTE	W72
	BYTE		N06     Gs3 
	BYTE	W08
	BYTE		        Cn4 
	BYTE	W08
	BYTE		        Cs4 
	BYTE	W08
// 078   ----------------------------------------
	BYTE		        Ds4 
	BYTE	W08
	BYTE		        Fn4 
	BYTE	W08
	BYTE		        Cs4 
	BYTE	W08
	BYTE		        Gs3 
	BYTE	W08
	BYTE		        As3 
	BYTE	W08
	BYTE		        Fn3 
	BYTE	W08
	BYTE		        Cs3 
	BYTE	W08
	BYTE		        Cn3 
	BYTE	W08
	BYTE		        As2 
	BYTE	W08
	BYTE		N24     Fs2 
	BYTE	W24
// 079   ----------------------------------------
	BYTE	W96
// 080   ----------------------------------------
	BYTE	W96
// 081   ----------------------------------------
	BYTE	W96
// 082   ----------------------------------------
	BYTE	W96
// 083   ----------------------------------------
	BYTE	W96
// 084   ----------------------------------------
	BYTE	W96
// 085   ----------------------------------------
	BYTE	W96
// 086   ----------------------------------------
WhatLiesAtTheEnd_2_086:
	BYTE	W08
	BYTE		N08     Cn4   v080
	BYTE	W08
	BYTE		        Cs4 
	BYTE	W08
	BYTE		N24     Gs4 
	BYTE	W24
	BYTE		N08     Ds4 
	BYTE	W08
	BYTE		        Cs4 
	BYTE	W08
	BYTE		N32     Fn4 
	BYTE	W32
	BYTE	PEND
// 087   ----------------------------------------
WhatLiesAtTheEnd_2_087:
	BYTE	W16
	BYTE		N08     As3   v080
	BYTE	W08
	BYTE		        Fn3 
	BYTE	W08
	BYTE		        Cs3 
	BYTE	W08
	BYTE		        Cn3 
	BYTE	W08
	BYTE		N48     Gs2 
	BYTE	W48
	BYTE	PEND
// 088   ----------------------------------------
	BYTE	PATT
	 POIN2	WhatLiesAtTheEnd_2_086
// 089   ----------------------------------------
	BYTE	PATT
	 POIN2	WhatLiesAtTheEnd_2_087
// 090   ----------------------------------------
	BYTE	PATT
	 POIN2	WhatLiesAtTheEnd_2_086
// 091   ----------------------------------------
	BYTE	PATT
	 POIN2	WhatLiesAtTheEnd_2_087
// 092   ----------------------------------------
	BYTE	PATT
	 POIN2	WhatLiesAtTheEnd_2_086
// 093   ----------------------------------------
	BYTE		N06     Cn4   v080
	BYTE	W08
	BYTE		        Gs3 
	BYTE	W08
	BYTE		        Fn3 
	BYTE	W08
	BYTE		        Ds3 
	BYTE	W08
	BYTE		        Gs3 
	BYTE	W08
	BYTE		        Cs3 
	BYTE	W08
	BYTE		        Cn3 
	BYTE	W08
	BYTE		        Ds3 
	BYTE	W08
	BYTE		        Gs3 
	BYTE	W08
	BYTE		        Cn4 
	BYTE	W08
	BYTE		        Ds4 
	BYTE	W08
	BYTE		        Gs4 
	BYTE	W08
	BYTE	GoTo
	 POIN2	WhatLiesAtTheEnd_2_B1
WhatLiesAtTheEnd_2_B2:
// 094   ----------------------------------------
	BYTE	FINE

//**************** Track 3 (Midi-Chn.3) ****************//

WhatLiesAtTheEnd_3:
	BYTE	KEYSH   WhatLiesAtTheEnd_key+0
WhatLiesAtTheEnd_3_B1:
// 000   ----------------------------------------
	BYTE		VOICE   0
	BYTE		PAN     c_v+0
	BYTE		VOL     101*WhatLiesAtTheEnd_mvl/mxv
	BYTE		N12     Fn1   v080
	BYTE		N12     Cn2 
	BYTE	W24
	BYTE		N06     Fn1 
	BYTE		N06     Cn2 
	BYTE	W08
	BYTE		        Fn1 
	BYTE		N06     Cn2 
	BYTE	W08
	BYTE		        Fn1 
	BYTE		N06     Cn2 
	BYTE	W08
	BYTE		N12     Fn1 
	BYTE		N12     As1 
	BYTE	W24
	BYTE		N24     Fn1 
	BYTE		N24     As1 
	BYTE	W24
// 001   ----------------------------------------
WhatLiesAtTheEnd_3_001:
	BYTE		N12     Fn1   v080
	BYTE		N12     Cn2 
	BYTE	W24
	BYTE		N18     Fn1 
	BYTE		N18     Cn2 
	BYTE	W24
	BYTE		N12     Fn1 
	BYTE		N12     As1 
	BYTE	W24
	BYTE		N18     Fn1 
	BYTE		N18     As1 
	BYTE	W24
	BYTE	PEND
// 002   ----------------------------------------
WhatLiesAtTheEnd_3_002:
	BYTE		N12     Fs1   v080
	BYTE		N12     Cn2 
	BYTE	W24
	BYTE		N06     Fs1 
	BYTE		N06     Cn2 
	BYTE	W08
	BYTE		        Fs1 
	BYTE		N06     Cn2 
	BYTE	W08
	BYTE		        Fs1 
	BYTE		N06     Cn2 
	BYTE	W08
	BYTE		N12     Fs1 
	BYTE		N12     As1 
	BYTE	W24
	BYTE		N24     Fs1 
	BYTE		N24     As1 
	BYTE	W24
	BYTE	PEND
// 003   ----------------------------------------
WhatLiesAtTheEnd_3_003:
	BYTE		N12     Gs1   v080
	BYTE		N12     Cs2 
	BYTE	W24
	BYTE		N18     Gs1 
	BYTE		N18     Cs2 
	BYTE	W24
	BYTE		N12     Gs1 
	BYTE		N12     Cn2 
	BYTE	W24
	BYTE		N18     Gs1 
	BYTE		N18     Cn2 
	BYTE	W24
	BYTE	PEND
// 004   ----------------------------------------
WhatLiesAtTheEnd_3_004:
	BYTE		N12     Fn1   v080
	BYTE		N12     Cn2 
	BYTE	W24
	BYTE		N06     Fn1 
	BYTE		N06     Cn2 
	BYTE	W08
	BYTE		        Fn1 
	BYTE		N06     Cn2 
	BYTE	W08
	BYTE		        Fn1 
	BYTE		N06     Cn2 
	BYTE	W08
	BYTE		N12     Fn1 
	BYTE		N12     As1 
	BYTE	W24
	BYTE		N24     Fn1 
	BYTE		N24     As1 
	BYTE	W24
	BYTE	PEND
// 005   ----------------------------------------
	BYTE	PATT
	 POIN2	WhatLiesAtTheEnd_3_001
// 006   ----------------------------------------
	BYTE	PATT
	 POIN2	WhatLiesAtTheEnd_3_002
// 007   ----------------------------------------
	BYTE	PATT
	 POIN2	WhatLiesAtTheEnd_3_003
// 008   ----------------------------------------
	BYTE	PATT
	 POIN2	WhatLiesAtTheEnd_3_004
// 009   ----------------------------------------
	BYTE	PATT
	 POIN2	WhatLiesAtTheEnd_3_001
// 010   ----------------------------------------
	BYTE	PATT
	 POIN2	WhatLiesAtTheEnd_3_002
// 011   ----------------------------------------
	BYTE	PATT
	 POIN2	WhatLiesAtTheEnd_3_003
// 012   ----------------------------------------
	BYTE	PATT
	 POIN2	WhatLiesAtTheEnd_3_004
// 013   ----------------------------------------
	BYTE	PATT
	 POIN2	WhatLiesAtTheEnd_3_001
// 014   ----------------------------------------
	BYTE	PATT
	 POIN2	WhatLiesAtTheEnd_3_002
// 015   ----------------------------------------
	BYTE	PATT
	 POIN2	WhatLiesAtTheEnd_3_003
// 016   ----------------------------------------
	BYTE	PATT
	 POIN2	WhatLiesAtTheEnd_3_004
// 017   ----------------------------------------
	BYTE	PATT
	 POIN2	WhatLiesAtTheEnd_3_001
// 018   ----------------------------------------
	BYTE	PATT
	 POIN2	WhatLiesAtTheEnd_3_002
// 019   ----------------------------------------
	BYTE	PATT
	 POIN2	WhatLiesAtTheEnd_3_003
// 020   ----------------------------------------
	BYTE		N24     Fs2   v080
	BYTE		N24     As2 
	BYTE	W24
	BYTE		        Ds2 
	BYTE	W24
	BYTE		        As2 
	BYTE		N24     Ds3 
	BYTE	W24
	BYTE		        Ds2 
	BYTE	W24
// 021   ----------------------------------------
	BYTE		        Gs2 
	BYTE		N24     Cn3 
	BYTE	W24
	BYTE		        Fn2 
	BYTE	W24
	BYTE		        Cs2 
	BYTE		N24     Gs2 
	BYTE	W24
	BYTE		        Fn2 
	BYTE	W24
// 022   ----------------------------------------
	BYTE		        As2 
	BYTE		N24     Cs3 
	BYTE	W24
	BYTE		        Fs2 
	BYTE	W24
	BYTE		        As2 
	BYTE		N24     Ds3 
	BYTE	W24
	BYTE		        Fs2 
	BYTE	W24
// 023   ----------------------------------------
	BYTE		        Gs2 
	BYTE	W24
	BYTE		        Cs3 
	BYTE	W24
	BYTE		        Fn2 
	BYTE		N24     Gs2 
	BYTE	W24
	BYTE		        Cs2 
	BYTE		N24     Fn2 
	BYTE	W24
// 024   ----------------------------------------
	BYTE		        Ds2 
	BYTE		N24     As2 
	BYTE	W24
	BYTE		        Ds2 
	BYTE	W24
	BYTE		        Fs2 
	BYTE	W24
	BYTE		        As2 
	BYTE	W24
// 025   ----------------------------------------
	BYTE		        Gs2 
	BYTE		N24     Cn3 
	BYTE	W24
	BYTE		        Gs2 
	BYTE	W24
	BYTE		        Fn2 
	BYTE		N24     Gs2 
	BYTE	W24
	BYTE		N24   
	BYTE	W24
// 026   ----------------------------------------
	BYTE		N48     Dn2 
	BYTE		N48     Gn2 
	BYTE		N48     As2 
	BYTE	W48
	BYTE		        Gn2 
	BYTE		N48     As2 
	BYTE		N48     Dn3 
	BYTE	W48
// 027   ----------------------------------------
	BYTE		        As2 
	BYTE		N48     Dn3 
	BYTE		N36     Fn3 
	BYTE	W36
	BYTE		N06     En3 
	BYTE	W06
	BYTE		        Fn3 
	BYTE	W06
	BYTE		N22     As2 
	BYTE		N22     Dn3 
	BYTE		N22     En3 
	BYTE		N22     Gn3 
	BYTE	W24
	BYTE		N24     An2 
	BYTE		N24     Dn3 
	BYTE	W24
// 028   ----------------------------------------
	BYTE		N12     Fn2 
	BYTE		N12     An2 
	BYTE	W24
	BYTE		N06     Fn2 
	BYTE		N06     An2 
	BYTE	W08
	BYTE		        Fn2 
	BYTE		N06     An2 
	BYTE	W08
	BYTE		N08     Fn2 
	BYTE		N08     An2 
	BYTE	W08
	BYTE		N12     Gn2 
	BYTE		N12     As2 
	BYTE	W24
	BYTE		        Gn2 
	BYTE		N12     As2 
	BYTE	W24
// 029   ----------------------------------------
	BYTE		        En2 
	BYTE		N12     Gn2 
	BYTE	W24
	BYTE		N18     En2 
	BYTE		N18     Gn2 
	BYTE	W24
	BYTE		N12     Fn2 
	BYTE		N12     An2 
	BYTE	W24
	BYTE		N18     Fn2 
	BYTE		N18     An2 
	BYTE	W24
// 030   ----------------------------------------
	BYTE		N12     Dn2 
	BYTE		N12     Fn2 
	BYTE	W24
	BYTE		N06     Dn2 
	BYTE		N06     Fn2 
	BYTE	W08
	BYTE		        Dn2 
	BYTE		N06     Fn2 
	BYTE	W08
	BYTE		N08     Dn2 
	BYTE		N08     Fn2 
	BYTE	W08
	BYTE		N12     En2 
	BYTE		N12     Gn2 
	BYTE	W24
	BYTE		N18     En2 
	BYTE		N18     Gn2 
	BYTE	W24
// 031   ----------------------------------------
	BYTE		N12     Cn2 
	BYTE		N12     En2 
	BYTE	W24
	BYTE		N18     Cn2 
	BYTE		N18     En2 
	BYTE	W24
	BYTE		N42     Dn2 
	BYTE		N42     Fn2 
	BYTE	W48
// 032   ----------------------------------------
	BYTE		N48     As1 
	BYTE	W48
	BYTE		        Cn2 
	BYTE	W48
// 033   ----------------------------------------
	BYTE		        An1 
	BYTE	W48
	BYTE		        Dn2 
	BYTE	W48
// 034   ----------------------------------------
	BYTE		        Gn2 
	BYTE	W48
	BYTE		        An2 
	BYTE	W48
// 035   ----------------------------------------
	BYTE		N72     Dn3 
	BYTE	W72
	BYTE		N24     An3 
	BYTE		N24     Dn4 
	BYTE	W24
// 036   ----------------------------------------
WhatLiesAtTheEnd_3_036:
	BYTE		N48     Dn4   v080
	BYTE	W02
	BYTE		N44     Fn4 
	BYTE	W02
	BYTE		        An4 
	BYTE	W44
	BYTE		N16     Dn4 
	BYTE		N16     An4 
	BYTE	W16
	BYTE		        Dn4 
	BYTE		N16     Gn4 
	BYTE	W16
	BYTE		        Dn4 
	BYTE		N16     Fn4 
	BYTE	W16
	BYTE	PEND
// 037   ----------------------------------------
WhatLiesAtTheEnd_3_037:
	BYTE		N24     Gn3   v080
	BYTE	W02
	BYTE		N22     Cn4 
	BYTE	W02
	BYTE		N20     En4 
	BYTE	W20
	BYTE		N24     Dn4 
	BYTE		N24     Fn4 
	BYTE	W24
	BYTE		        En4 
	BYTE		N24     Gn4 
	BYTE	W24
	BYTE		        En4 
	BYTE		N24     Cn5 
	BYTE	W24
	BYTE	PEND
// 038   ----------------------------------------
	BYTE		N48     Cn4 
	BYTE	W02
	BYTE		N44     En4 
	BYTE	W02
	BYTE		        Gn4 
	BYTE	W44
	BYTE		N16     Cn4 
	BYTE		N16     An4 
	BYTE	W16
	BYTE		        Cn4 
	BYTE		N16     Gn4 
	BYTE	W16
	BYTE		        Cn4 
	BYTE		N16     Fn4 
	BYTE	W16
// 039   ----------------------------------------
	BYTE		N48     Gn3 
	BYTE	W02
	BYTE		N44     Cn4 
	BYTE	W02
	BYTE		        En4 
	BYTE	W44
	BYTE		N24     Dn4 
	BYTE		N24     Fn4 
	BYTE	W24
	BYTE		        Dn4 
	BYTE	W24
// 040   ----------------------------------------
	BYTE	PATT
	 POIN2	WhatLiesAtTheEnd_3_036
// 041   ----------------------------------------
	BYTE	PATT
	 POIN2	WhatLiesAtTheEnd_3_037
// 042   ----------------------------------------
	BYTE		N24     Dn4   v080
	BYTE	W02
	BYTE		N22     Gn4 
	BYTE	W02
	BYTE		N20     Dn5 
	BYTE	W14
	BYTE		N06     En5 
	BYTE	W06
	BYTE		N48     Cn5 
	BYTE	W48
	BYTE		N24     An4 
	BYTE	W24
// 043   ----------------------------------------
	BYTE		N72     Gn3 
	BYTE	W02
	BYTE		        An3 
	BYTE	W02
	BYTE		        Dn4 
	BYTE	W02
	BYTE		        Dn5 
	BYTE	W90
// 044   ----------------------------------------
	BYTE		N48     As3 
	BYTE	W02
	BYTE		N44     Ds4 
	BYTE	W02
	BYTE		        An4 
	BYTE	W44
	BYTE		N48     Gn2 
	BYTE		N48     Gn3 
	BYTE	W02
	BYTE		N44     Cn4 
	BYTE	W02
	BYTE		        Gn4 
	BYTE	W44
// 045   ----------------------------------------
	BYTE		N24     An3 
	BYTE	W02
	BYTE		        Cn4 
	BYTE	W02
	BYTE		        Gn4 
	BYTE	W20
	BYTE		        Fn4 
	BYTE	W24
	BYTE		N48     Cn4 
	BYTE	W02
	BYTE		N44     Fn4 
	BYTE	W02
	BYTE		        Cn5 
	BYTE	W44
// 046   ----------------------------------------
	BYTE		N24     Cs4 
	BYTE	W02
	BYTE		        Fn4 
	BYTE	W02
	BYTE		        Cn5 
	BYTE	W20
	BYTE		        As4 
	BYTE	W24
	BYTE		N48     Gn4 
	BYTE	W02
	BYTE		N44     As4 
	BYTE	W02
	BYTE		        Fn5 
	BYTE	W44
// 047   ----------------------------------------
	BYTE		N48     Ds4 
	BYTE	W02
	BYTE		        Gs4 
	BYTE	W02
	BYTE		        Ds5 
	BYTE	W44
	BYTE		        Cs4 
	BYTE	W02
	BYTE		N44     Fn4 
	BYTE	W02
	BYTE		        Gs4 
	BYTE	W44
// 048   ----------------------------------------
	BYTE		N24     Gs3 
	BYTE	W02
	BYTE		        Cs4 
	BYTE	W02
	BYTE		        Gs4 
	BYTE	W20
	BYTE		        Fs4 
	BYTE	W24
	BYTE		        Fs3 
	BYTE		N24     Cs4 
	BYTE	W24
	BYTE		        Ds4 
	BYTE	W24
// 049   ----------------------------------------
	BYTE		        Gs3 
	BYTE	W02
	BYTE		        Bn3 
	BYTE	W02
	BYTE		        Fs4 
	BYTE	W20
	BYTE		        En4 
	BYTE	W24
	BYTE		        Ds3 
	BYTE		N24     Ds4 
	BYTE	W24
	BYTE		        En4 
	BYTE	W24
// 050   ----------------------------------------
	BYTE		        En3 
	BYTE	W02
	BYTE		        Fs3 
	BYTE	W02
	BYTE		        Bn3 
	BYTE	W20
	BYTE		        An3 
	BYTE	W24
	BYTE		        Gs3 
	BYTE	W24
	BYTE		        En3 
	BYTE		N24     Fs3 
	BYTE	W24
// 051   ----------------------------------------
	BYTE		N72     Cs3 
	BYTE		N72     Ds3 
	BYTE		TIE     Gs3 
	BYTE	W72
	BYTE		N06     Gs1 
	BYTE		N06     Gs2 
	BYTE	W08
	BYTE		        Cs2 
	BYTE		N06     Cs3 
	BYTE	W08
	BYTE		        Ds2 
	BYTE		N06     Ds3 
	BYTE	W08
// 052   ----------------------------------------
	BYTE		N48     Cn2 
	BYTE		N48     Cn3 
	BYTE	W48
	BYTE		EOT     Gs3 
	BYTE	W48
// 053   ----------------------------------------
	BYTE		N24     As2 
	BYTE	W24
	BYTE		N48     Fn3 
	BYTE	W48
	BYTE		        Fn2 
	BYTE		N48     Fn3 
	BYTE	W24
// 054   ----------------------------------------
	BYTE	W24
	BYTE		N24     As2 
	BYTE	W24
	BYTE		        Fn2 
	BYTE		N24     Fn3 
	BYTE	W24
	BYTE		        Cs3 
	BYTE	W24
// 055   ----------------------------------------
	BYTE		        Bn2 
	BYTE	W24
	BYTE		N44     Fs3 
	BYTE	W48
	BYTE		N48   
	BYTE	W24
// 056   ----------------------------------------
	BYTE	W24
	BYTE		N24     Bn2 
	BYTE	W24
	BYTE		        Fs3 
	BYTE	W24
	BYTE		        Cs3 
	BYTE	W24
// 057   ----------------------------------------
	BYTE		        As2 
	BYTE	W24
	BYTE		N48     Fn3 
	BYTE	W48
	BYTE		N48   
	BYTE	W24
// 058   ----------------------------------------
	BYTE	W24
	BYTE		N24     As2 
	BYTE	W24
	BYTE		        Fn3 
	BYTE	W24
	BYTE		        Cs3 
	BYTE	W24
// 059   ----------------------------------------
	BYTE		        Bn2 
	BYTE	W24
	BYTE		N44     Fs3 
	BYTE	W48
	BYTE		N24   
	BYTE	W24
// 060   ----------------------------------------
	BYTE		N48     Cn2 
	BYTE		N48     Fs2 
	BYTE		N48     Cn3 
	BYTE	W48
	BYTE		N44     Cn2 
	BYTE		N44     Fn2 
	BYTE		N44     Cn3 
	BYTE	W48
// 061   ----------------------------------------
	BYTE		N18     Ds2 
	BYTE		N18     As2 
	BYTE	W24
	BYTE		N06     Ds2 
	BYTE		N06     As2 
	BYTE	W08
	BYTE		        Ds2 
	BYTE		N06     As2 
	BYTE	W08
	BYTE		        Ds2 
	BYTE		N06     As2 
	BYTE	W08
	BYTE		N12     Ds2 
	BYTE		N12     As2 
	BYTE	W24
	BYTE		N18     Ds2 
	BYTE		N18     As2 
	BYTE	W24
// 062   ----------------------------------------
	BYTE		N12     Fn2 
	BYTE		N12     Cn3 
	BYTE	W24
	BYTE		N06     Fn2 
	BYTE		N06     Cn3 
	BYTE	W08
	BYTE		        Fn2 
	BYTE		N06     Cn3 
	BYTE	W08
	BYTE		        Fn2 
	BYTE		N06     Cn3 
	BYTE	W08
	BYTE		N12     Fn2 
	BYTE		N12     Cn3 
	BYTE	W24
	BYTE		N22     Fn2 
	BYTE		N22     Cn3 
	BYTE	W24
// 063   ----------------------------------------
	BYTE		N12     As2 
	BYTE		N12     Cs3 
	BYTE	W24
	BYTE		N06     As2 
	BYTE		N06     Cs3 
	BYTE	W08
	BYTE		        As2 
	BYTE		N06     Cs3 
	BYTE	W08
	BYTE		        As2 
	BYTE		N06     Cs3 
	BYTE	W08
	BYTE		N12     As2 
	BYTE		N12     Cs3 
	BYTE	W24
	BYTE		N22     As2 
	BYTE		N22     Cs3 
	BYTE	W24
// 064   ----------------------------------------
	BYTE		N12     Gn2 
	BYTE		N12     Cn3 
	BYTE	W24
	BYTE		N06     Gn2 
	BYTE		N06     Cn3 
	BYTE	W08
	BYTE		        Gn2 
	BYTE		N06     Cn3 
	BYTE	W08
	BYTE		        Gn2 
	BYTE		N06     Cn3 
	BYTE	W08
	BYTE		N12     Fn2 
	BYTE		N12     Cn3 
	BYTE	W24
	BYTE		N22     Fn2 
	BYTE		N22     Cn3 
	BYTE	W24
// 065   ----------------------------------------
	BYTE		N12     Fs2 
	BYTE		N12     As2 
	BYTE	W24
	BYTE		N06     Fs2 
	BYTE		N06     As2 
	BYTE	W08
	BYTE		        Fs2 
	BYTE		N06     As2 
	BYTE	W08
	BYTE		        Fs2 
	BYTE		N06     As2 
	BYTE	W08
	BYTE		N12     Fs2 
	BYTE		N12     As2 
	BYTE	W24
	BYTE		N22     Fs2 
	BYTE		N22     As2 
	BYTE	W24
// 066   ----------------------------------------
	BYTE		N12     Bn2 
	BYTE		N12     Ds3 
	BYTE	W24
	BYTE		N06     Bn2 
	BYTE		N06     Ds3 
	BYTE	W08
	BYTE		        Bn2 
	BYTE		N06     Ds3 
	BYTE	W08
	BYTE		        Bn2 
	BYTE		N06     Ds3 
	BYTE	W08
	BYTE		N12     Bn2 
	BYTE		N12     Ds3 
	BYTE	W24
	BYTE		N22     Bn2 
	BYTE		N22     Ds3 
	BYTE	W24
// 067   ----------------------------------------
	BYTE		N12     Cn3 
	BYTE		N12     Fn3 
	BYTE	W24
	BYTE		N06     Cn3 
	BYTE		N06     Fn3 
	BYTE	W08
	BYTE		        Cn3 
	BYTE		N06     Fn3 
	BYTE	W08
	BYTE		        Cn3 
	BYTE		N06     Fn3 
	BYTE	W08
	BYTE		N12     Cn3 
	BYTE		N12     Fn3 
	BYTE	W24
	BYTE		N18     Cn3 
	BYTE		N18     Fn3 
	BYTE	W24
// 068   ----------------------------------------
	BYTE		N12     Fs2 
	BYTE		N12     As2 
	BYTE	W24
	BYTE		N06     Fs2 
	BYTE		N06     As2 
	BYTE	W08
	BYTE		        Fs2 
	BYTE		N06     As2 
	BYTE	W08
	BYTE		        Fs2 
	BYTE		N06     As2 
	BYTE	W08
	BYTE		N12     Fn2 
	BYTE		N12     An2 
	BYTE	W24
	BYTE		N18     Fn2 
	BYTE		N18     An2 
	BYTE	W24
// 069   ----------------------------------------
	BYTE		N24     Fn1 
	BYTE	W24
	BYTE		N06     Fn4 
	BYTE	W08
	BYTE		        Fs4 
	BYTE	W08
	BYTE		        An3 
	BYTE	W08
	BYTE		        Fn3 
	BYTE	W08
	BYTE		        Fs3 
	BYTE	W08
	BYTE		        An2 
	BYTE	W08
	BYTE		        Fn2 
	BYTE	W08
	BYTE		        Fs2 
	BYTE	W08
	BYTE		        An1 
	BYTE	W08
// 070   ----------------------------------------
	BYTE		N12     Fn1 
	BYTE	W24
	BYTE		N48     Ds2 
	BYTE	W72
// 071   ----------------------------------------
WhatLiesAtTheEnd_3_071:
	BYTE		N12     Fs1   v080
	BYTE		N12     As1 
	BYTE		N12     Fs2 
	BYTE	W24
	BYTE		N06     Fs1 
	BYTE		N06     As1 
	BYTE		N06     Fs2 
	BYTE	W08
	BYTE		        Fs1 
	BYTE		N06     As1 
	BYTE		N06     Fs2 
	BYTE	W08
	BYTE		        Fs1 
	BYTE		N06     As1 
	BYTE		N06     Fs2 
	BYTE	W08
	BYTE		N12     Fs1 
	BYTE		N12     Cs2 
	BYTE		N12     Fs2 
	BYTE	W24
	BYTE		N18     Fs1 
	BYTE		N18     Cs2 
	BYTE		N18     Fs2 
	BYTE	W24
	BYTE	PEND
// 072   ----------------------------------------
WhatLiesAtTheEnd_3_072:
	BYTE		N12     Gs1   v080
	BYTE		N12     Cn2 
	BYTE		N12     Gs2 
	BYTE	W24
	BYTE		N06     Gs1 
	BYTE		N06     Cn2 
	BYTE		N06     Gs2 
	BYTE	W08
	BYTE		        Gs1 
	BYTE		N06     Cn2 
	BYTE		N06     Gs2 
	BYTE	W08
	BYTE		        Gs1 
	BYTE		N06     Cn2 
	BYTE		N06     Gs2 
	BYTE	W08
	BYTE		N12     Gs1 
	BYTE		N12     Ds2 
	BYTE		N12     Gs2 
	BYTE	W24
	BYTE		N18     Gs1 
	BYTE		N18     Ds2 
	BYTE		N18     Gs2 
	BYTE	W24
	BYTE	PEND
// 073   ----------------------------------------
	BYTE		N12     As1 
	BYTE		N12     Fn2 
	BYTE		N12     As2 
	BYTE	W24
	BYTE		N06     As1 
	BYTE		N06     Fn2 
	BYTE		N06     As2 
	BYTE	W08
	BYTE		        As1 
	BYTE		N06     Fn2 
	BYTE		N06     As2 
	BYTE	W08
	BYTE		        As1 
	BYTE		N06     Fn2 
	BYTE		N06     As2 
	BYTE	W08
	BYTE		N12     As1 
	BYTE		N12     Fn2 
	BYTE		N12     As2 
	BYTE	W24
	BYTE		N18     As1 
	BYTE		N18     Fn2 
	BYTE		N18     As2 
	BYTE	W24
// 074   ----------------------------------------
	BYTE		N12     As1 
	BYTE		N12     Ds2 
	BYTE		N12     As2 
	BYTE	W24
	BYTE		N06     As1 
	BYTE		N06     Ds2 
	BYTE		N06     As2 
	BYTE	W08
	BYTE		        As1 
	BYTE		N06     Ds2 
	BYTE		N06     As2 
	BYTE	W08
	BYTE		        As1 
	BYTE		N06     Ds2 
	BYTE		N06     As2 
	BYTE	W08
	BYTE		N12     As1 
	BYTE		N12     Cs2 
	BYTE		N12     As2 
	BYTE	W24
	BYTE		N18     As1 
	BYTE		N18     Cs2 
	BYTE		N18     As2 
	BYTE	W24
// 075   ----------------------------------------
	BYTE	PATT
	 POIN2	WhatLiesAtTheEnd_3_071
// 076   ----------------------------------------
	BYTE	PATT
	 POIN2	WhatLiesAtTheEnd_3_072
// 077   ----------------------------------------
	BYTE		N12     Fn1   v080
	BYTE		N12     Cn2 
	BYTE		N12     Fn2 
	BYTE	W24
	BYTE		N06     Fn1 
	BYTE		N06     Cn2 
	BYTE		N06     Fn2 
	BYTE	W08
	BYTE		        Fn1 
	BYTE		N06     Cn2 
	BYTE		N06     Fn2 
	BYTE	W08
	BYTE		        Fn1 
	BYTE		N06     Cn2 
	BYTE		N06     Fn2 
	BYTE	W08
	BYTE		N12     Fn1 
	BYTE		N12     Cs2 
	BYTE		N12     Fn2 
	BYTE	W24
	BYTE		N18     Fn1 
	BYTE		N18     Cn2 
	BYTE		N18     Fn2 
	BYTE	W24
// 078   ----------------------------------------
	BYTE		N12     As1 
	BYTE		N12     Fn2 
	BYTE		N12     As2 
	BYTE	W24
	BYTE		N18     As1 
	BYTE		N18     Ds2 
	BYTE		N18     As2 
	BYTE	W24
	BYTE		N36     As1 
	BYTE		N36     Cs2 
	BYTE		N36     As2 
	BYTE	W24
	BYTE		N24     As4 
	BYTE	W24
// 079   ----------------------------------------
WhatLiesAtTheEnd_3_079:
	BYTE		N48     Fn5   v080
	BYTE	W48
	BYTE		N16   
	BYTE	W16
	BYTE		        Ds5 
	BYTE	W16
	BYTE		        Cs5 
	BYTE	W16
	BYTE	PEND
// 080   ----------------------------------------
WhatLiesAtTheEnd_3_080:
	BYTE		N24     Cn5   v080
	BYTE	W24
	BYTE		        Cs5 
	BYTE	W24
	BYTE		        Ds5 
	BYTE	W24
	BYTE		        Gs5 
	BYTE	W24
	BYTE	PEND
// 081   ----------------------------------------
	BYTE		N48     Ds5 
	BYTE	W48
	BYTE		N16     Fn5 
	BYTE	W16
	BYTE		        Ds5 
	BYTE	W16
	BYTE		        Cs5 
	BYTE	W16
// 082   ----------------------------------------
	BYTE		N48     Cn5 
	BYTE	W48
	BYTE		N24     Cs5 
	BYTE	W24
	BYTE		        As4 
	BYTE	W24
// 083   ----------------------------------------
	BYTE	PATT
	 POIN2	WhatLiesAtTheEnd_3_079
// 084   ----------------------------------------
	BYTE	PATT
	 POIN2	WhatLiesAtTheEnd_3_080
// 085   ----------------------------------------
	BYTE		N16     As5   v080
	BYTE	W16
	BYTE		N08     Cn6 
	BYTE	W08
	BYTE		N48     Gs5 
	BYTE	W48
	BYTE		N24     Fn5 
	BYTE	W24
// 086   ----------------------------------------
	BYTE		N48     As5 
	BYTE	W96
// 087   ----------------------------------------
	BYTE	W96
// 088   ----------------------------------------
	BYTE	W96
// 089   ----------------------------------------
	BYTE	W96
// 090   ----------------------------------------
	BYTE	W96
// 091   ----------------------------------------
	BYTE	W96
// 092   ----------------------------------------
	BYTE	W96
// 093   ----------------------------------------
	BYTE		N06     Cn5 
	BYTE	W08
	BYTE		        Gs4 
	BYTE	W08
	BYTE		        Fn4 
	BYTE	W08
	BYTE		        Ds4 
	BYTE	W08
	BYTE		        Gs4 
	BYTE	W08
	BYTE		        Cs4 
	BYTE	W08
	BYTE		        Cn4 
	BYTE	W08
	BYTE		        Ds4 
	BYTE	W08
	BYTE		        Gs4 
	BYTE	W08
	BYTE		        Cn5 
	BYTE	W08
	BYTE		        Ds5 
	BYTE	W08
	BYTE		        Gs5 
	BYTE	W08
	BYTE	GoTo
	 POIN2	WhatLiesAtTheEnd_3_B1
WhatLiesAtTheEnd_3_B2:
// 094   ----------------------------------------
	BYTE	FINE

//**************** Track 4 (Midi-Chn.4) ****************//

WhatLiesAtTheEnd_4:
	BYTE	KEYSH   WhatLiesAtTheEnd_key+0
WhatLiesAtTheEnd_4_B1:
// 000   ----------------------------------------
	BYTE		VOICE   86
	BYTE		PAN     c_v-26
	BYTE		VOL     90*WhatLiesAtTheEnd_mvl/mxv
	BYTE	W96
// 001   ----------------------------------------
	BYTE	W96
// 002   ----------------------------------------
	BYTE	W96
// 003   ----------------------------------------
	BYTE	W96
// 004   ----------------------------------------
WhatLiesAtTheEnd_4_004:
	BYTE		N48     Cn4   v080
	BYTE	W48
	BYTE		N06     Fn3 
	BYTE	W08
	BYTE		        Gs3 
	BYTE	W08
	BYTE		        Cn4 
	BYTE	W08
	BYTE		        Ds4 
	BYTE	W08
	BYTE		        Cn4 
	BYTE	W08
	BYTE		        Gs3 
	BYTE	W08
	BYTE	PEND
// 005   ----------------------------------------
WhatLiesAtTheEnd_4_005:
	BYTE		N24     Cs4   v080
	BYTE	W24
	BYTE		N06     Fn3 
	BYTE	W08
	BYTE		        Gs3 
	BYTE	W08
	BYTE		        Cs4 
	BYTE	W08
	BYTE		N24     Cn4 
	BYTE	W24
	BYTE		N06     Fn3 
	BYTE	W08
	BYTE		        Gs3 
	BYTE	W08
	BYTE		        Cn4 
	BYTE	W08
	BYTE	PEND
// 006   ----------------------------------------
	BYTE		TIE     As3 
	BYTE	W96
// 007   ----------------------------------------
	BYTE	W84
	BYTE		EOT   
	BYTE	W12
// 008   ----------------------------------------
	BYTE	PATT
	 POIN2	WhatLiesAtTheEnd_4_004
// 009   ----------------------------------------
	BYTE	PATT
	 POIN2	WhatLiesAtTheEnd_4_005
// 010   ----------------------------------------
	BYTE		TIE     As3   v080
	BYTE	W96
// 011   ----------------------------------------
	BYTE	W84
	BYTE		EOT   
	BYTE	W12
// 012   ----------------------------------------
	BYTE	PATT
	 POIN2	WhatLiesAtTheEnd_4_004
// 013   ----------------------------------------
	BYTE		N24     Cs4   v080
	BYTE	W24
	BYTE		N06     Fn3 
	BYTE	W08
	BYTE		        Gs3 
	BYTE	W08
	BYTE		        Cs4 
	BYTE	W08
	BYTE		N24     Ds4 
	BYTE	W24
	BYTE		N06     Fn3 
	BYTE	W08
	BYTE		        Gs3 
	BYTE	W08
	BYTE		        Ds4 
	BYTE	W08
// 014   ----------------------------------------
	BYTE		N78     Fn4 
	BYTE	W80
	BYTE		N06     Fs4 
	BYTE	W08
	BYTE		        Fn4 
	BYTE	W08
// 015   ----------------------------------------
	BYTE		N96     Ds4 
	BYTE	W96
// 016   ----------------------------------------
	BYTE		N30   
	BYTE	W32
	BYTE		N06     Fn4 
	BYTE	W08
	BYTE		        Ds4 
	BYTE	W08
	BYTE		N48     Cs4 
	BYTE	W48
// 017   ----------------------------------------
	BYTE		N30     Cn4 
	BYTE	W32
	BYTE		N06     Cs4 
	BYTE	W08
	BYTE		        Cn4 
	BYTE	W08
	BYTE		N48     As3 
	BYTE	W48
// 018   ----------------------------------------
	BYTE		N30     Fn4 
	BYTE	W32
	BYTE		N06     Fs4 
	BYTE	W08
	BYTE		        Fn4 
	BYTE	W08
	BYTE		N44     Ds4 
	BYTE	W48
// 019   ----------------------------------------
	BYTE		N30     Cs4 
	BYTE	W32
	BYTE		N06     Ds4 
	BYTE	W08
	BYTE		        Cs4 
	BYTE	W08
	BYTE		N48     Cn4 
	BYTE	W48
// 020   ----------------------------------------
	BYTE	W96
// 021   ----------------------------------------
	BYTE	W96
// 022   ----------------------------------------
	BYTE	W96
// 023   ----------------------------------------
	BYTE	W96
// 024   ----------------------------------------
	BYTE		        Fn3   v064
	BYTE		N48     As3 
	BYTE	W48
	BYTE		N12     Fs3 
	BYTE	W16
	BYTE		        As3 
	BYTE	W16
	BYTE		N16     Fn4 
	BYTE	W16
// 025   ----------------------------------------
	BYTE		N48     Ds3 
	BYTE		N48     Cn4 
	BYTE	W48
	BYTE		        Cs3   v048
	BYTE		N48     Ds3 
	BYTE		N48     Gs3 
	BYTE	W48
// 026   ----------------------------------------
	BYTE		N96     Dn3 
	BYTE		N96     Fn3 
	BYTE		N96     As3 
	BYTE	W96
// 027   ----------------------------------------
	BYTE		N48     Dn3   v064
	BYTE		N48     Fn3 
	BYTE		N48     As3 
	BYTE	W48
	BYTE		N36     Dn3 
	BYTE		N36     En3 
	BYTE		N36     Gn3 
	BYTE		N36     As3 
	BYTE	W48
// 028   ----------------------------------------
	BYTE	W96
// 029   ----------------------------------------
	BYTE	W96
// 030   ----------------------------------------
	BYTE	W96
// 031   ----------------------------------------
	BYTE	W72
	BYTE		N24     Dn3   v080
	BYTE	W24
// 032   ----------------------------------------
	BYTE		N48     An3 
	BYTE	W48
	BYTE		N16   
	BYTE	W16
	BYTE		        Gn3 
	BYTE	W16
	BYTE		        Fn3 
	BYTE	W16
// 033   ----------------------------------------
	BYTE		N24     En3 
	BYTE	W24
	BYTE		        Fn3 
	BYTE	W24
	BYTE		        Gn3 
	BYTE	W24
	BYTE		        Cn4 
	BYTE	W24
// 034   ----------------------------------------
	BYTE		N12     Dn4 
	BYTE	W18
	BYTE		N06     En4 
	BYTE	W06
	BYTE		N48     Cn4 
	BYTE	W48
	BYTE		N24     An3 
	BYTE	W24
// 035   ----------------------------------------
	BYTE		N72     Dn4 
	BYTE	W96
// 036   ----------------------------------------
	BYTE	W96
// 037   ----------------------------------------
	BYTE	W96
// 038   ----------------------------------------
	BYTE	W96
// 039   ----------------------------------------
	BYTE	W72
	BYTE		N24     Dn3   v048
	BYTE	W24
// 040   ----------------------------------------
	BYTE		N48     An3   v064
	BYTE	W48
	BYTE		N18   
	BYTE	W16
	BYTE		        Gn3 
	BYTE	W16
	BYTE		        Fn3 
	BYTE	W16
// 041   ----------------------------------------
	BYTE		N24     En3 
	BYTE	W24
	BYTE		        Fn3 
	BYTE	W24
	BYTE		        Gn3 
	BYTE	W24
	BYTE		        Cn4 
	BYTE	W24
// 042   ----------------------------------------
	BYTE		N20     Dn4 
	BYTE	W18
	BYTE		N06     En4 
	BYTE	W06
	BYTE		N48     Cn4 
	BYTE	W48
	BYTE		N24     An3 
	BYTE	W24
// 043   ----------------------------------------
	BYTE		N48     Gn3   v048
	BYTE		N90     An3   v064
	BYTE		N90     Dn4 
	BYTE	W96
// 044   ----------------------------------------
	BYTE	W96
// 045   ----------------------------------------
	BYTE	W96
// 046   ----------------------------------------
	BYTE	W96
// 047   ----------------------------------------
	BYTE	W96
// 048   ----------------------------------------
	BYTE	W96
// 049   ----------------------------------------
	BYTE	W96
// 050   ----------------------------------------
	BYTE	W96
// 051   ----------------------------------------
	BYTE	W96
// 052   ----------------------------------------
	BYTE	W96
// 053   ----------------------------------------
	BYTE	W96
// 054   ----------------------------------------
	BYTE	W96
// 055   ----------------------------------------
	BYTE	W96
// 056   ----------------------------------------
	BYTE	W96
// 057   ----------------------------------------
	BYTE	W96
// 058   ----------------------------------------
	BYTE	W96
// 059   ----------------------------------------
	BYTE	W96
// 060   ----------------------------------------
	BYTE	W96
// 061   ----------------------------------------
	BYTE		N48     As2   v080
	BYTE		N48     As3 
	BYTE	W48
	BYTE		        Fn3 
	BYTE		N48     Fn4 
	BYTE	W48
// 062   ----------------------------------------
	BYTE		        Cn3 
	BYTE		N48     Fn3 
	BYTE		N48     Fn4 
	BYTE	W48
	BYTE		N24     Ds3 
	BYTE		N24     Ds4 
	BYTE	W24
	BYTE		        Cs3 
	BYTE		N24     Cs4 
	BYTE	W24
// 063   ----------------------------------------
	BYTE		N48     As2 
	BYTE		N36     Cs3 
	BYTE		N36     Cs4 
	BYTE	W36
	BYTE		N12     Cn3 
	BYTE		N12     Cn4 
	BYTE	W12
	BYTE		N36     Cn3 
	BYTE		N36     Cn4 
	BYTE	W36
	BYTE		N12     Fs3 
	BYTE		N12     Fs4 
	BYTE	W12
// 064   ----------------------------------------
	BYTE		N36     Fs3 
	BYTE		N36     Cs4 
	BYTE		N36     Fs4 
	BYTE	W36
	BYTE		N12     Fn3 
	BYTE		N12     Fn4 
	BYTE	W12
	BYTE		N42     Fn3 
	BYTE		N42     Cn4 
	BYTE		N42     Fn4 
	BYTE	W48
// 065   ----------------------------------------
	BYTE		N48     As2 
	BYTE		N48     As3 
	BYTE	W72
	BYTE		N06     As2 
	BYTE		N06     As3 
	BYTE	W08
	BYTE		        Cs3 
	BYTE		N06     Cs4 
	BYTE	W08
	BYTE		        Fn3 
	BYTE		N06     Fn4 
	BYTE	W08
// 066   ----------------------------------------
	BYTE		N48     Gs3 
	BYTE		N48     Gs4 
	BYTE	W48
	BYTE		N24     Fs3 
	BYTE		N24     Fs4 
	BYTE	W24
	BYTE		        Fn3 
	BYTE		N24     Fn4 
	BYTE	W24
// 067   ----------------------------------------
	BYTE		N84     Fn3 
	BYTE		N90     Cn4 
	BYTE		N84     Fn4 
	BYTE	W96
// 068   ----------------------------------------
	BYTE		N36     Cs3 
	BYTE		N36     Cs4 
	BYTE	W36
	BYTE		N12     Cn3 
	BYTE		N12     Cn4 
	BYTE	W12
	BYTE		N42     Cn3 
	BYTE		N42     Fn3 
	BYTE		N42     Cn4 
	BYTE	W48
// 069   ----------------------------------------
	BYTE	W96
// 070   ----------------------------------------
	BYTE	W72
	BYTE		N24     As3 
	BYTE	W24
// 071   ----------------------------------------
	BYTE		N48     Fn4 
	BYTE	W48
	BYTE		N16   
	BYTE	W16
	BYTE		        Ds4 
	BYTE	W16
	BYTE		        Cs4 
	BYTE	W16
// 072   ----------------------------------------
WhatLiesAtTheEnd_4_072:
	BYTE		N72     Gs3   v080
	BYTE		N24     Cn4 
	BYTE	W24
	BYTE		        Cs4 
	BYTE	W24
	BYTE		        Ds4 
	BYTE	W24
	BYTE		        Gs4 
	BYTE	W24
	BYTE	PEND
// 073   ----------------------------------------
	BYTE		N48     Cn4 
	BYTE		N60     Ds4 
	BYTE	W96
// 074   ----------------------------------------
	BYTE		N48     Cs4 
	BYTE	W48
	BYTE		N24     Cn4 
	BYTE	W24
	BYTE		        As3 
	BYTE	W24
// 075   ----------------------------------------
	BYTE		N48   
	BYTE		N48     Fn4 
	BYTE	W48
	BYTE		N16   
	BYTE	W16
	BYTE		        Ds4 
	BYTE	W16
	BYTE		        Cs4 
	BYTE	W16
// 076   ----------------------------------------
	BYTE	PATT
	 POIN2	WhatLiesAtTheEnd_4_072
// 077   ----------------------------------------
	BYTE		N16     As4   v080
	BYTE	W16
	BYTE		N08     Cn5 
	BYTE	W08
	BYTE		N48     Gs4 
	BYTE	W48
	BYTE		N24     Fn4 
	BYTE	W24
// 078   ----------------------------------------
	BYTE		N96     As4 
	BYTE	W96
// 079   ----------------------------------------
	BYTE	W96
// 080   ----------------------------------------
	BYTE	W96
// 081   ----------------------------------------
	BYTE	W96
// 082   ----------------------------------------
	BYTE	W96
// 083   ----------------------------------------
	BYTE	W96
// 084   ----------------------------------------
	BYTE	W96
// 085   ----------------------------------------
	BYTE	W96
// 086   ----------------------------------------
	BYTE	W96
// 087   ----------------------------------------
	BYTE	W96
// 088   ----------------------------------------
	BYTE	W96
// 089   ----------------------------------------
	BYTE	W96
// 090   ----------------------------------------
	BYTE	W48
	BYTE		N48     Cn3 
	BYTE	W48
// 091   ----------------------------------------
	BYTE		        Cs3 
	BYTE	W48
	BYTE		        Fn3 
	BYTE	W48
// 092   ----------------------------------------
	BYTE		N72   
	BYTE	W80
	BYTE		N06     Fs3 
	BYTE	W08
	BYTE		        Fn3 
	BYTE	W08
// 093   ----------------------------------------
	BYTE		N96     Ds3 
	BYTE	W96
	BYTE	GoTo
	 POIN2	WhatLiesAtTheEnd_4_B1
WhatLiesAtTheEnd_4_B2:
// 094   ----------------------------------------
	BYTE	FINE

//**************** Track 5 (Midi-Chn.5) ****************//

WhatLiesAtTheEnd_5:
	BYTE	KEYSH   WhatLiesAtTheEnd_key+0
WhatLiesAtTheEnd_5_B1:
// 000   ----------------------------------------
	BYTE		VOICE   79
	BYTE		PAN     c_v+23
	BYTE		VOL     70*WhatLiesAtTheEnd_mvl/mxv
	BYTE	W96
// 001   ----------------------------------------
	BYTE	W96
// 002   ----------------------------------------
	BYTE	W96
// 003   ----------------------------------------
	BYTE	W96
// 004   ----------------------------------------
	BYTE	W96
// 005   ----------------------------------------
	BYTE	W96
// 006   ----------------------------------------
	BYTE	W96
// 007   ----------------------------------------
	BYTE	W96
// 008   ----------------------------------------
	BYTE	W96
// 009   ----------------------------------------
	BYTE	W96
// 010   ----------------------------------------
	BYTE	W96
// 011   ----------------------------------------
	BYTE	W96
// 012   ----------------------------------------
	BYTE	W96
// 013   ----------------------------------------
	BYTE	W96
// 014   ----------------------------------------
	BYTE	W96
// 015   ----------------------------------------
	BYTE	W96
// 016   ----------------------------------------
	BYTE	W96
// 017   ----------------------------------------
	BYTE	W96
// 018   ----------------------------------------
	BYTE	W96
// 019   ----------------------------------------
	BYTE	W96
// 020   ----------------------------------------
WhatLiesAtTheEnd_5_020:
	BYTE		N48     Fn3   v080
	BYTE		N48     As3 
	BYTE	W48
	BYTE		N12     Fs3 
	BYTE	W16
	BYTE		        As3 
	BYTE	W16
	BYTE		N16     Fn4 
	BYTE	W16
	BYTE	PEND
// 021   ----------------------------------------
WhatLiesAtTheEnd_5_021:
	BYTE		N48     Ds3   v080
	BYTE		N48     Cn4 
	BYTE	W48
	BYTE		        Cs3 
	BYTE		N48     Gs3 
	BYTE	W48
	BYTE	PEND
// 022   ----------------------------------------
	BYTE		        Fs3 
	BYTE		N48     As3 
	BYTE	W48
	BYTE		N12   
	BYTE	W16
	BYTE		        Cn4 
	BYTE	W16
	BYTE		N16     Cs4 
	BYTE	W16
// 023   ----------------------------------------
	BYTE	PATT
	 POIN2	WhatLiesAtTheEnd_5_021
// 024   ----------------------------------------
	BYTE	PATT
	 POIN2	WhatLiesAtTheEnd_5_020
// 025   ----------------------------------------
	BYTE		N48     Ds3   v080
	BYTE		N48     Cn4 
	BYTE	W48
	BYTE		        Cs3 
	BYTE		N48     Ds3 
	BYTE		N48     Gs3 
	BYTE	W48
// 026   ----------------------------------------
	BYTE		N96     Dn3 
	BYTE		N96     Fn3 
	BYTE		N96     As3 
	BYTE	W96
// 027   ----------------------------------------
	BYTE	W96
// 028   ----------------------------------------
	BYTE	W96
// 029   ----------------------------------------
	BYTE	W96
// 030   ----------------------------------------
	BYTE	W96
// 031   ----------------------------------------
	BYTE	W96
// 032   ----------------------------------------
	BYTE	W96
// 033   ----------------------------------------
	BYTE	W96
// 034   ----------------------------------------
	BYTE	W96
// 035   ----------------------------------------
	BYTE	W96
// 036   ----------------------------------------
	BYTE	W96
// 037   ----------------------------------------
	BYTE	W96
// 038   ----------------------------------------
	BYTE	W96
// 039   ----------------------------------------
	BYTE	W96
// 040   ----------------------------------------
	BYTE	W96
// 041   ----------------------------------------
	BYTE	W96
// 042   ----------------------------------------
	BYTE	W96
// 043   ----------------------------------------
	BYTE	W96
// 044   ----------------------------------------
	BYTE	W96
// 045   ----------------------------------------
	BYTE	W96
// 046   ----------------------------------------
	BYTE	W96
// 047   ----------------------------------------
	BYTE	W96
// 048   ----------------------------------------
	BYTE	W96
// 049   ----------------------------------------
	BYTE	W96
// 050   ----------------------------------------
	BYTE	W96
// 051   ----------------------------------------
	BYTE	W96
// 052   ----------------------------------------
	BYTE	W96
// 053   ----------------------------------------
	BYTE		N48   
	BYTE	W48
	BYTE		        Fn4 
	BYTE	W48
// 054   ----------------------------------------
	BYTE		N48   
	BYTE	W48
	BYTE		N24     Ds4 
	BYTE	W24
	BYTE		        Cs4 
	BYTE	W24
// 055   ----------------------------------------
	BYTE		N36   
	BYTE	W36
	BYTE		N08     Bn3 
	BYTE	W12
	BYTE		N36   
	BYTE	W36
	BYTE		N08     Fs4 
	BYTE	W12
// 056   ----------------------------------------
	BYTE		N36   
	BYTE	W36
	BYTE		N08     Fn4 
	BYTE	W12
	BYTE		N48   
	BYTE	W48
// 057   ----------------------------------------
	BYTE		        As3 
	BYTE	W60
	BYTE		N12   
	BYTE	W12
	BYTE		        Cs4 
	BYTE	W12
	BYTE		        Fn4 
	BYTE	W12
// 058   ----------------------------------------
	BYTE		N48     Gs4 
	BYTE	W48
	BYTE		N24     Fs4 
	BYTE	W24
	BYTE		        Fn4 
	BYTE	W24
// 059   ----------------------------------------
	BYTE		N36   
	BYTE	W36
	BYTE		N08     Ds4 
	BYTE	W12
	BYTE		N36   
	BYTE	W36
	BYTE		N08     Cs4 
	BYTE	W12
// 060   ----------------------------------------
	BYTE		N36   
	BYTE	W36
	BYTE		N08     Cn4 
	BYTE	W12
	BYTE		N48   
	BYTE	W48
// 061   ----------------------------------------
	BYTE	W96
// 062   ----------------------------------------
	BYTE	W96
// 063   ----------------------------------------
	BYTE	W96
// 064   ----------------------------------------
	BYTE	W96
// 065   ----------------------------------------
	BYTE	W96
// 066   ----------------------------------------
	BYTE	W96
// 067   ----------------------------------------
	BYTE	W96
// 068   ----------------------------------------
	BYTE	W96
// 069   ----------------------------------------
	BYTE	W96
// 070   ----------------------------------------
	BYTE	W96
// 071   ----------------------------------------
	BYTE	W96
// 072   ----------------------------------------
	BYTE	W96
// 073   ----------------------------------------
	BYTE	W96
// 074   ----------------------------------------
	BYTE	W96
// 075   ----------------------------------------
	BYTE	W96
// 076   ----------------------------------------
	BYTE	W96
// 077   ----------------------------------------
	BYTE	W96
// 078   ----------------------------------------
	BYTE	W96
// 079   ----------------------------------------
	BYTE	W96
// 080   ----------------------------------------
	BYTE	W96
// 081   ----------------------------------------
	BYTE	W96
// 082   ----------------------------------------
	BYTE	W96
// 083   ----------------------------------------
	BYTE	W96
// 084   ----------------------------------------
	BYTE	W96
// 085   ----------------------------------------
	BYTE	W96
// 086   ----------------------------------------
	BYTE	W96
// 087   ----------------------------------------
	BYTE	W96
// 088   ----------------------------------------
	BYTE	W96
// 089   ----------------------------------------
	BYTE	W96
// 090   ----------------------------------------
	BYTE	W96
// 091   ----------------------------------------
	BYTE	W96
// 092   ----------------------------------------
	BYTE	W96
// 093   ----------------------------------------
	BYTE	W96
	BYTE	GoTo
	 POIN2	WhatLiesAtTheEnd_5_B1
WhatLiesAtTheEnd_5_B2:
// 094   ----------------------------------------
	BYTE	FINE

//**************** Track 6 (Midi-Chn.6) ****************//

WhatLiesAtTheEnd_6:
	BYTE	KEYSH   WhatLiesAtTheEnd_key+0
WhatLiesAtTheEnd_6_B1:
// 000   ----------------------------------------
	BYTE		VOICE   106
	BYTE		VOL     95*WhatLiesAtTheEnd_mvl/mxv
	BYTE		PAN     c_v-11
	BYTE		N72     Fn3   v064
	BYTE		N24     Cn4 
	BYTE	W24
	BYTE		N06   
	BYTE	W08
	BYTE		        Cs4 
	BYTE	W08
	BYTE		N08     Cn4 
	BYTE	W08
	BYTE		N18     As3 
	BYTE	W24
	BYTE		N24     Fn3 
	BYTE		N24     As3 
	BYTE	W24
// 001   ----------------------------------------
	BYTE		N72     Fn3 
	BYTE		N18     Cn4 
	BYTE	W24
	BYTE		N24   
	BYTE	W24
	BYTE		N18     As3 
	BYTE	W24
	BYTE		N24     Fn3 
	BYTE		N24     As3 
	BYTE	W24
// 002   ----------------------------------------
	BYTE		N72     Fs3 
	BYTE		N18     Cn4 
	BYTE	W24
	BYTE		N06   
	BYTE	W08
	BYTE		        Cs4 
	BYTE	W08
	BYTE		        Cn4 
	BYTE	W08
	BYTE		N18     As3 
	BYTE	W24
	BYTE		N24     Fs3 
	BYTE		N24     As3 
	BYTE	W24
// 003   ----------------------------------------
	BYTE		N72     Gs3 
	BYTE		N18     Cs4 
	BYTE	W24
	BYTE		N24   
	BYTE	W24
	BYTE		N18     Cn4 
	BYTE	W24
	BYTE		N24     Gs3 
	BYTE		N24     Cn4 
	BYTE	W24
// 004   ----------------------------------------
WhatLiesAtTheEnd_6_004:
	BYTE		PAN     c_v-11
	BYTE		N18     Fn3   v064
	BYTE	W24
	BYTE		N06   
	BYTE	W08
	BYTE		N06   
	BYTE	W08
	BYTE		N08   
	BYTE	W08
	BYTE		N18   
	BYTE	W24
	BYTE		N24   
	BYTE	W24
	BYTE	PEND
// 005   ----------------------------------------
WhatLiesAtTheEnd_6_005:
	BYTE		N18     Fn3   v064
	BYTE	W24
	BYTE		N24   
	BYTE	W24
	BYTE		N18   
	BYTE	W24
	BYTE		N24   
	BYTE	W24
	BYTE	PEND
// 006   ----------------------------------------
WhatLiesAtTheEnd_6_006:
	BYTE		N18     Fs3   v064
	BYTE	W24
	BYTE		N06   
	BYTE	W08
	BYTE		N06   
	BYTE	W08
	BYTE		N06   
	BYTE	W08
	BYTE		N18   
	BYTE	W24
	BYTE		N24   
	BYTE	W24
	BYTE	PEND
// 007   ----------------------------------------
WhatLiesAtTheEnd_6_007:
	BYTE		N18     Gs3   v064
	BYTE	W24
	BYTE		N24   
	BYTE	W24
	BYTE		N18   
	BYTE	W24
	BYTE		N24   
	BYTE	W24
	BYTE	PEND
// 008   ----------------------------------------
	BYTE	PATT
	 POIN2	WhatLiesAtTheEnd_6_004
// 009   ----------------------------------------
	BYTE	PATT
	 POIN2	WhatLiesAtTheEnd_6_005
// 010   ----------------------------------------
	BYTE	PATT
	 POIN2	WhatLiesAtTheEnd_6_006
// 011   ----------------------------------------
	BYTE	PATT
	 POIN2	WhatLiesAtTheEnd_6_007
// 012   ----------------------------------------
	BYTE		N48     Cn4   v080
	BYTE	W48
	BYTE		N06     Fn3 
	BYTE	W08
	BYTE		        Gs3 
	BYTE	W08
	BYTE		        Cn4 
	BYTE	W08
	BYTE		        Ds4 
	BYTE	W08
	BYTE		        Cn4 
	BYTE	W08
	BYTE		        Gs3 
	BYTE	W08
// 013   ----------------------------------------
	BYTE		N24     Cs4 
	BYTE	W24
	BYTE		N06     Fn3 
	BYTE	W08
	BYTE		        Gs3 
	BYTE	W08
	BYTE		        Cs4 
	BYTE	W08
	BYTE		N24     Ds4 
	BYTE	W24
	BYTE		N06     Fn3 
	BYTE	W08
	BYTE		        Gs3 
	BYTE	W08
	BYTE		        Ds4 
	BYTE	W08
// 014   ----------------------------------------
	BYTE		N78     Fn4 
	BYTE	W80
	BYTE		N06     Fs4 
	BYTE	W08
	BYTE		        Fn4 
	BYTE	W08
// 015   ----------------------------------------
	BYTE		N96     Ds4 
	BYTE	W96
// 016   ----------------------------------------
	BYTE		N30   
	BYTE	W32
	BYTE		N06     Fn4 
	BYTE	W08
	BYTE		        Ds4 
	BYTE	W08
	BYTE		N48     Cs4 
	BYTE	W48
// 017   ----------------------------------------
	BYTE		N30     Cn4 
	BYTE	W32
	BYTE		N06     Cs4 
	BYTE	W08
	BYTE		        Cn4 
	BYTE	W08
	BYTE		N48     As3 
	BYTE	W48
// 018   ----------------------------------------
	BYTE		N30     Fn4 
	BYTE	W32
	BYTE		N06     Fs4 
	BYTE	W08
	BYTE		        Fn4 
	BYTE	W08
	BYTE		N44     Ds4 
	BYTE	W48
// 019   ----------------------------------------
	BYTE		N30     Cs4 
	BYTE	W32
	BYTE		N06     Ds4 
	BYTE	W08
	BYTE		        Cs4 
	BYTE	W08
	BYTE		N48     Cn4 
	BYTE	W48
// 020   ----------------------------------------
	BYTE	W96
// 021   ----------------------------------------
	BYTE	W96
// 022   ----------------------------------------
	BYTE	W96
// 023   ----------------------------------------
	BYTE	W96
// 024   ----------------------------------------
	BYTE	W96
// 025   ----------------------------------------
	BYTE	W96
// 026   ----------------------------------------
	BYTE	W96
// 027   ----------------------------------------
	BYTE	W72
	BYTE		N24     An3 
	BYTE		N24     Dn4 
	BYTE	W24
// 028   ----------------------------------------
WhatLiesAtTheEnd_6_028:
	BYTE		N48     An4   v080
	BYTE	W48
	BYTE		N16   
	BYTE	W16
	BYTE		        Gn4 
	BYTE	W16
	BYTE		        Fn4 
	BYTE	W16
	BYTE	PEND
// 029   ----------------------------------------
WhatLiesAtTheEnd_6_029:
	BYTE		N24     En4   v080
	BYTE	W24
	BYTE		        Fn4 
	BYTE	W24
	BYTE		        Gn4 
	BYTE	W24
	BYTE		        Cn5 
	BYTE	W24
	BYTE	PEND
// 030   ----------------------------------------
	BYTE		N48     Gn4 
	BYTE	W48
	BYTE		N16     An4 
	BYTE	W16
	BYTE		        Gn4 
	BYTE	W16
	BYTE		        Fn4 
	BYTE	W16
// 031   ----------------------------------------
	BYTE		N48     En4 
	BYTE	W48
	BYTE		N24     Fn4 
	BYTE	W24
	BYTE		        Dn4 
	BYTE	W24
// 032   ----------------------------------------
	BYTE	PATT
	 POIN2	WhatLiesAtTheEnd_6_028
// 033   ----------------------------------------
	BYTE	PATT
	 POIN2	WhatLiesAtTheEnd_6_029
// 034   ----------------------------------------
	BYTE		N12     Dn5   v080
	BYTE	W18
	BYTE		N06     En5 
	BYTE	W06
	BYTE		N48     Cn5 
	BYTE	W48
	BYTE		N24     An4 
	BYTE	W24
// 035   ----------------------------------------
	BYTE		N72     Dn5 
	BYTE	W72
	BYTE		N24     An2   v048
	BYTE	W24
// 036   ----------------------------------------
WhatLiesAtTheEnd_6_036:
	BYTE		N12     As2   v048
	BYTE	W24
	BYTE		N06   
	BYTE		N06     Fn3 
	BYTE	W08
	BYTE		        As2 
	BYTE		N06     Fn3 
	BYTE	W08
	BYTE		        As2 
	BYTE		N06     Fn3 
	BYTE	W08
	BYTE		N12     Cn3 
	BYTE		N12     En3 
	BYTE		N12     Gn3 
	BYTE	W24
	BYTE		N18     Cn3 
	BYTE		N18     En3 
	BYTE		N18     Gn3 
	BYTE	W24
	BYTE	PEND
// 037   ----------------------------------------
WhatLiesAtTheEnd_6_037:
	BYTE		N12     An2   v048
	BYTE		N12     En3 
	BYTE	W24
	BYTE		N18     An2 
	BYTE		N18     En3 
	BYTE	W24
	BYTE		N12     Dn3 
	BYTE		N12     Fn3 
	BYTE	W24
	BYTE		N18     Dn3 
	BYTE		N18     Fn3 
	BYTE	W24
	BYTE	PEND
// 038   ----------------------------------------
	BYTE	PATT
	 POIN2	WhatLiesAtTheEnd_6_036
// 039   ----------------------------------------
WhatLiesAtTheEnd_6_039:
	BYTE		N12     Dn3   v048
	BYTE		N12     Gn3 
	BYTE	W24
	BYTE		N18     Dn3 
	BYTE		N18     Gn3 
	BYTE	W24
	BYTE		N36     Dn3 
	BYTE		N36     Fn3 
	BYTE	W48
	BYTE	PEND
// 040   ----------------------------------------
	BYTE	PATT
	 POIN2	WhatLiesAtTheEnd_6_036
// 041   ----------------------------------------
	BYTE	PATT
	 POIN2	WhatLiesAtTheEnd_6_037
// 042   ----------------------------------------
	BYTE		N12     As2   v048
	BYTE	W24
	BYTE		N06   
	BYTE		N06     Dn3 
	BYTE		N06     Gn3 
	BYTE	W08
	BYTE		        As2 
	BYTE		N06     Dn3 
	BYTE		N06     Gn3 
	BYTE	W08
	BYTE		        As2 
	BYTE		N06     Dn3 
	BYTE		N06     Gn3 
	BYTE	W08
	BYTE		N12     Cn3 
	BYTE		N12     En3 
	BYTE		N12     An3 
	BYTE	W24
	BYTE		N18     Cn3 
	BYTE		N18     En3 
	BYTE		N18     An3 
	BYTE	W24
// 043   ----------------------------------------
	BYTE	PATT
	 POIN2	WhatLiesAtTheEnd_6_039
// 044   ----------------------------------------
	BYTE		N48     Ds4   v048
	BYTE		N48     An4 
	BYTE	W48
	BYTE		        Cn4   v064
	BYTE		N48     Gn4 
	BYTE	W48
// 045   ----------------------------------------
	BYTE		        An3   v080
	BYTE		N48     Gn4 
	BYTE	W48
	BYTE		        Cn4 
	BYTE		N48     Fn4 
	BYTE	W48
// 046   ----------------------------------------
	BYTE		N24     Fn3 
	BYTE		N24     Fn4 
	BYTE	W24
	BYTE		        Ds3 
	BYTE		N24     Ds4 
	BYTE	W24
	BYTE		        As3 
	BYTE		N24     Fn4 
	BYTE	W24
	BYTE		        Cs4 
	BYTE		N24     Gs4 
	BYTE	W24
// 047   ----------------------------------------
	BYTE		N48     As3 
	BYTE		N48     Ds4 
	BYTE	W48
	BYTE		        Cs3 
	BYTE		N48     Cs4 
	BYTE	W48
// 048   ----------------------------------------
	BYTE		        Gs3 
	BYTE		N24     Gs4 
	BYTE	W24
	BYTE		        Fs4 
	BYTE	W24
	BYTE		N48     Fs3 
	BYTE		N24     Cs4 
	BYTE	W24
	BYTE		        Ds4 
	BYTE	W24
// 049   ----------------------------------------
	BYTE		N48     Gs3 
	BYTE		N24     Fs4 
	BYTE	W24
	BYTE		        En4 
	BYTE	W24
	BYTE		        Ds3 
	BYTE		N24     Ds4 
	BYTE	W24
	BYTE		        Cs3 
	BYTE		N24     En4 
	BYTE	W24
// 050   ----------------------------------------
	BYTE		N96     Fs3 
	BYTE		N48     Ds4 
	BYTE	W48
	BYTE		        Cs4 
	BYTE	W48
// 051   ----------------------------------------
	BYTE		N96     Gs3 
	BYTE		N96     Gs4 
	BYTE	W96
// 052   ----------------------------------------
	BYTE		        Cn3 
	BYTE		N72     Cn4 
	BYTE	W96
// 053   ----------------------------------------
	BYTE	W96
// 054   ----------------------------------------
	BYTE	W96
// 055   ----------------------------------------
	BYTE	W96
// 056   ----------------------------------------
	BYTE	W96
// 057   ----------------------------------------
	BYTE	W96
// 058   ----------------------------------------
	BYTE	W96
// 059   ----------------------------------------
	BYTE	W96
// 060   ----------------------------------------
	BYTE	W96
// 061   ----------------------------------------
	BYTE	W96
// 062   ----------------------------------------
	BYTE	W96
// 063   ----------------------------------------
	BYTE	W96
// 064   ----------------------------------------
	BYTE	W96
// 065   ----------------------------------------
	BYTE	W96
// 066   ----------------------------------------
	BYTE	W96
// 067   ----------------------------------------
	BYTE	W96
// 068   ----------------------------------------
	BYTE	W96
// 069   ----------------------------------------
	BYTE		N96     Fn3 
	BYTE	W96
// 070   ----------------------------------------
	BYTE	W24
	BYTE		N72     Cn4 
	BYTE		N42     Ds4 
	BYTE	W72
// 071   ----------------------------------------
	BYTE	W96
// 072   ----------------------------------------
	BYTE	W96
// 073   ----------------------------------------
	BYTE	W96
// 074   ----------------------------------------
	BYTE	W96
// 075   ----------------------------------------
	BYTE	W96
// 076   ----------------------------------------
	BYTE	W96
// 077   ----------------------------------------
	BYTE	W96
// 078   ----------------------------------------
	BYTE	W96
// 079   ----------------------------------------
WhatLiesAtTheEnd_6_079:
	BYTE		N48     Fs3   v064
	BYTE		N48     As3 
	BYTE	W48
	BYTE		        Gs3 
	BYTE	W48
	BYTE	PEND
// 080   ----------------------------------------
	BYTE		        Ds3 
	BYTE		N48     Cn4 
	BYTE	W48
	BYTE		        Ds4 
	BYTE	W48
// 081   ----------------------------------------
	BYTE		        Fn3 
	BYTE		N48     Cs4 
	BYTE	W48
	BYTE		        Cn4 
	BYTE	W48
// 082   ----------------------------------------
	BYTE		        Ds3 
	BYTE		N48     As3 
	BYTE	W48
	BYTE		        Cs3 
	BYTE		N48     Gs3 
	BYTE	W48
// 083   ----------------------------------------
	BYTE	PATT
	 POIN2	WhatLiesAtTheEnd_6_079
// 084   ----------------------------------------
	BYTE		N48     Ds3   v064
	BYTE		N48     Cn4 
	BYTE		N48     Ds4 
	BYTE	W48
	BYTE		        Cn4 
	BYTE		N48     Gs4 
	BYTE	W24
	BYTE		N24     Fn3 
	BYTE	W24
// 085   ----------------------------------------
	BYTE		N48     Fs3 
	BYTE		N48     Cs4 
	BYTE		N48     Fs4 
	BYTE	W48
	BYTE		        Ds3 
	BYTE		N48     Fn3 
	BYTE		N48     Cn4 
	BYTE	W48
// 086   ----------------------------------------
	BYTE	W96
// 087   ----------------------------------------
	BYTE	W96
// 088   ----------------------------------------
	BYTE	W96
// 089   ----------------------------------------
	BYTE	W96
// 090   ----------------------------------------
	BYTE	W96
// 091   ----------------------------------------
	BYTE	W96
// 092   ----------------------------------------
	BYTE	W96
// 093   ----------------------------------------
	BYTE	W96
	BYTE	GoTo
	 POIN2	WhatLiesAtTheEnd_6_B1
WhatLiesAtTheEnd_6_B2:
// 094   ----------------------------------------
	BYTE	FINE

//**************** Track 7 (Midi-Chn.7) ****************//

WhatLiesAtTheEnd_7:
	BYTE	KEYSH   WhatLiesAtTheEnd_key+0
WhatLiesAtTheEnd_7_B1:
// 000   ----------------------------------------
	BYTE		VOICE   101
	BYTE		PAN     c_v+27
	BYTE		VOL     116*WhatLiesAtTheEnd_mvl/mxv
	BYTE		N06     Cn3   v080
	BYTE	W24
	BYTE		N06   
	BYTE	W08
	BYTE		N06   
	BYTE	W08
	BYTE		N06   
	BYTE	W08
	BYTE		        As2 
	BYTE	W24
	BYTE		N06   
	BYTE	W24
// 001   ----------------------------------------
WhatLiesAtTheEnd_7_001:
	BYTE		N06     Cn3   v080
	BYTE	W24
	BYTE		N06   
	BYTE	W24
	BYTE		        As2 
	BYTE	W24
	BYTE		N06   
	BYTE	W24
	BYTE	PEND
// 002   ----------------------------------------
WhatLiesAtTheEnd_7_002:
	BYTE		N06     Cn3   v080
	BYTE	W24
	BYTE		N06   
	BYTE	W08
	BYTE		N06   
	BYTE	W08
	BYTE		N06   
	BYTE	W08
	BYTE		        As2 
	BYTE	W24
	BYTE		N06   
	BYTE	W24
	BYTE	PEND
// 003   ----------------------------------------
WhatLiesAtTheEnd_7_003:
	BYTE		N06     Cs3   v080
	BYTE	W24
	BYTE		N06   
	BYTE	W24
	BYTE		        Cn3 
	BYTE	W24
	BYTE		N06   
	BYTE	W24
	BYTE	PEND
// 004   ----------------------------------------
WhatLiesAtTheEnd_7_004:
	BYTE		VOL     116*WhatLiesAtTheEnd_mvl/mxv
	BYTE		N06     Cn3   v080
	BYTE	W24
	BYTE		N06   
	BYTE	W08
	BYTE		N06   
	BYTE	W08
	BYTE		N06   
	BYTE	W08
	BYTE		        As2 
	BYTE	W24
	BYTE		N06   
	BYTE	W24
	BYTE	PEND
// 005   ----------------------------------------
	BYTE	PATT
	 POIN2	WhatLiesAtTheEnd_7_001
// 006   ----------------------------------------
	BYTE	PATT
	 POIN2	WhatLiesAtTheEnd_7_002
// 007   ----------------------------------------
	BYTE	PATT
	 POIN2	WhatLiesAtTheEnd_7_003
// 008   ----------------------------------------
	BYTE	PATT
	 POIN2	WhatLiesAtTheEnd_7_004
// 009   ----------------------------------------
	BYTE	PATT
	 POIN2	WhatLiesAtTheEnd_7_001
// 010   ----------------------------------------
	BYTE	PATT
	 POIN2	WhatLiesAtTheEnd_7_002
// 011   ----------------------------------------
	BYTE	PATT
	 POIN2	WhatLiesAtTheEnd_7_003
// 012   ----------------------------------------
	BYTE	PATT
	 POIN2	WhatLiesAtTheEnd_7_004
// 013   ----------------------------------------
	BYTE	PATT
	 POIN2	WhatLiesAtTheEnd_7_001
// 014   ----------------------------------------
	BYTE	PATT
	 POIN2	WhatLiesAtTheEnd_7_002
// 015   ----------------------------------------
	BYTE	PATT
	 POIN2	WhatLiesAtTheEnd_7_003
// 016   ----------------------------------------
	BYTE	PATT
	 POIN2	WhatLiesAtTheEnd_7_004
// 017   ----------------------------------------
	BYTE	PATT
	 POIN2	WhatLiesAtTheEnd_7_001
// 018   ----------------------------------------
	BYTE	PATT
	 POIN2	WhatLiesAtTheEnd_7_002
// 019   ----------------------------------------
	BYTE	PATT
	 POIN2	WhatLiesAtTheEnd_7_003
// 020   ----------------------------------------
	BYTE	PATT
	 POIN2	WhatLiesAtTheEnd_7_004
// 021   ----------------------------------------
	BYTE	PATT
	 POIN2	WhatLiesAtTheEnd_7_001
// 022   ----------------------------------------
	BYTE	PATT
	 POIN2	WhatLiesAtTheEnd_7_002
// 023   ----------------------------------------
	BYTE	PATT
	 POIN2	WhatLiesAtTheEnd_7_003
// 024   ----------------------------------------
	BYTE	PATT
	 POIN2	WhatLiesAtTheEnd_7_004
// 025   ----------------------------------------
	BYTE	PATT
	 POIN2	WhatLiesAtTheEnd_7_001
// 026   ----------------------------------------
	BYTE	PATT
	 POIN2	WhatLiesAtTheEnd_7_002
// 027   ----------------------------------------
	BYTE	W72
	BYTE		N24     Dn2   v048
	BYTE	W24
// 028   ----------------------------------------
	BYTE		N48     Fn2 
	BYTE		N48     As2 
	BYTE	W48
	BYTE		        Gn2 
	BYTE		N48     Cn3 
	BYTE	W48
// 029   ----------------------------------------
	BYTE		        En2 
	BYTE		N48     An2 
	BYTE	W48
	BYTE		        As2 
	BYTE		N48     Dn3 
	BYTE	W48
// 030   ----------------------------------------
	BYTE		        Fn2 
	BYTE		N48     Dn3 
	BYTE	W48
	BYTE		        Gn2 
	BYTE		N48     En3 
	BYTE	W48
// 031   ----------------------------------------
	BYTE		        Gn2 
	BYTE		N48     Cn3 
	BYTE	W48
	BYTE		        Fn2 
	BYTE		N48     An2 
	BYTE	W48
// 032   ----------------------------------------
	BYTE		        As1   v080
	BYTE	W48
	BYTE		        Cn2 
	BYTE	W48
// 033   ----------------------------------------
	BYTE		        An1 
	BYTE	W48
	BYTE		        Dn2 
	BYTE	W48
// 034   ----------------------------------------
	BYTE		        Gn2 
	BYTE	W48
	BYTE		        An2 
	BYTE	W48
// 035   ----------------------------------------
	BYTE		N72     Dn3 
	BYTE	W72
	BYTE		N06     An2 
	BYTE	W24
// 036   ----------------------------------------
WhatLiesAtTheEnd_7_036:
	BYTE		N06     As2   v080
	BYTE	W24
	BYTE		N06   
	BYTE	W08
	BYTE		N06   
	BYTE	W08
	BYTE		N06   
	BYTE	W08
	BYTE		        Cn3 
	BYTE	W24
	BYTE		N06   
	BYTE	W24
	BYTE	PEND
// 037   ----------------------------------------
WhatLiesAtTheEnd_7_037:
	BYTE		N06     An2   v080
	BYTE	W24
	BYTE		N06   
	BYTE	W24
	BYTE		        Dn3 
	BYTE	W24
	BYTE		N06   
	BYTE	W24
	BYTE	PEND
// 038   ----------------------------------------
	BYTE	PATT
	 POIN2	WhatLiesAtTheEnd_7_036
// 039   ----------------------------------------
	BYTE		N06     Gn3   v080
	BYTE	W24
	BYTE		N06   
	BYTE	W24
	BYTE		        Fn3 
	BYTE	W24
	BYTE		        Dn3 
	BYTE	W24
// 040   ----------------------------------------
	BYTE	PATT
	 POIN2	WhatLiesAtTheEnd_7_036
// 041   ----------------------------------------
	BYTE	PATT
	 POIN2	WhatLiesAtTheEnd_7_037
// 042   ----------------------------------------
	BYTE	PATT
	 POIN2	WhatLiesAtTheEnd_7_036
// 043   ----------------------------------------
	BYTE		N06     Gn3   v080
	BYTE	W24
	BYTE		N06   
	BYTE	W24
	BYTE		        Fn3 
	BYTE	W48
// 044   ----------------------------------------
	BYTE	W96
// 045   ----------------------------------------
	BYTE	W96
// 046   ----------------------------------------
	BYTE	W96
// 047   ----------------------------------------
	BYTE	W96
// 048   ----------------------------------------
	BYTE	W96
// 049   ----------------------------------------
	BYTE	W96
// 050   ----------------------------------------
	BYTE	W96
// 051   ----------------------------------------
	BYTE	W96
// 052   ----------------------------------------
	BYTE	W96
// 053   ----------------------------------------
	BYTE	W96
// 054   ----------------------------------------
	BYTE	W96
// 055   ----------------------------------------
	BYTE	W96
// 056   ----------------------------------------
	BYTE	W96
// 057   ----------------------------------------
	BYTE	W96
// 058   ----------------------------------------
	BYTE	W96
// 059   ----------------------------------------
	BYTE	W96
// 060   ----------------------------------------
	BYTE	W96
// 061   ----------------------------------------
	BYTE		N48     As2 
	BYTE	W48
	BYTE		N16     Cs3 
	BYTE	W16
	BYTE		        Ds3 
	BYTE	W16
	BYTE		        Fn3 
	BYTE	W16
// 062   ----------------------------------------
	BYTE		N48     Cn3 
	BYTE	W48
	BYTE		        Gs2 
	BYTE	W48
// 063   ----------------------------------------
	BYTE		N36     Fs2 
	BYTE	W36
	BYTE		N12     Fn2 
	BYTE	W12
	BYTE		N36   
	BYTE	W36
	BYTE		N12     Cs3 
	BYTE	W12
// 064   ----------------------------------------
	BYTE		N36   
	BYTE	W36
	BYTE		N12     Cn3 
	BYTE	W12
	BYTE		N42   
	BYTE	W48
// 065   ----------------------------------------
	BYTE		N48     As2 
	BYTE	W72
	BYTE		N06   
	BYTE	W08
	BYTE		        Cs3 
	BYTE	W08
	BYTE		        Fn3 
	BYTE	W08
// 066   ----------------------------------------
	BYTE		N48     Gs3 
	BYTE	W48
	BYTE		N24     Fs3 
	BYTE	W24
	BYTE		        Fn3 
	BYTE	W24
// 067   ----------------------------------------
	BYTE		N84     Cn3 
	BYTE		N84     Fn3 
	BYTE	W96
// 068   ----------------------------------------
	BYTE		N36     Cs3 
	BYTE	W36
	BYTE		N12     Cn3 
	BYTE	W12
	BYTE		N48     Fn2 
	BYTE		N42     Cn3 
	BYTE	W48
// 069   ----------------------------------------
	BYTE		N90     Fn2 
	BYTE	W96
// 070   ----------------------------------------
	BYTE	W24
	BYTE		N72   
	BYTE		N48     An2 
	BYTE		N72     Cn3 
	BYTE		N48     Ds3 
	BYTE	W72
// 071   ----------------------------------------
	BYTE		        Fn3 
	BYTE	W48
	BYTE		N16   
	BYTE	W16
	BYTE		        Ds3 
	BYTE	W16
	BYTE		        Cs3 
	BYTE	W16
// 072   ----------------------------------------
	BYTE		N72     Gs2 
	BYTE		N24     Cn3 
	BYTE	W24
	BYTE		        Cs3 
	BYTE	W24
	BYTE		        Ds3 
	BYTE	W24
	BYTE		        Gs3 
	BYTE	W24
// 073   ----------------------------------------
	BYTE		N84     Cn3 
	BYTE		N96     Ds3 
	BYTE	W96
// 074   ----------------------------------------
	BYTE		N48     Cs3 
	BYTE	W48
	BYTE		N24     Cn3 
	BYTE	W24
	BYTE		        As2 
	BYTE	W24
// 075   ----------------------------------------
	BYTE		N96   
	BYTE		N48     Fn3 
	BYTE	W48
	BYTE		N16   
	BYTE	W16
	BYTE		        Ds3 
	BYTE	W16
	BYTE		        Cs3 
	BYTE	W16
// 076   ----------------------------------------
	BYTE		N72     Gs2 
	BYTE		N24     Cn3 
	BYTE	W24
	BYTE		        Cs3 
	BYTE	W24
	BYTE		        Ds3 
	BYTE	W24
	BYTE		        Gs2 
	BYTE	W24
// 077   ----------------------------------------
	BYTE		N16     As2 
	BYTE	W16
	BYTE		N08     Cn3 
	BYTE	W08
	BYTE		N48     Gs2 
	BYTE	W48
	BYTE		N24     Fn2 
	BYTE	W24
// 078   ----------------------------------------
	BYTE		N96     As1 
	BYTE	W96
// 079   ----------------------------------------
	BYTE	W96
// 080   ----------------------------------------
	BYTE	W96
// 081   ----------------------------------------
	BYTE	W96
// 082   ----------------------------------------
	BYTE	W96
// 083   ----------------------------------------
	BYTE	W96
// 084   ----------------------------------------
	BYTE	W96
// 085   ----------------------------------------
	BYTE	W96
// 086   ----------------------------------------
	BYTE	W96
// 087   ----------------------------------------
	BYTE	W96
// 088   ----------------------------------------
	BYTE	W96
// 089   ----------------------------------------
	BYTE	W96
// 090   ----------------------------------------
	BYTE	W48
	BYTE		N48     Cn2 
	BYTE	W48
// 091   ----------------------------------------
	BYTE		        Cs2 
	BYTE	W48
	BYTE		        Fn2 
	BYTE	W48
// 092   ----------------------------------------
	BYTE		N72   
	BYTE	W80
	BYTE		N06     Fs2 
	BYTE	W08
	BYTE		        Fn2 
	BYTE	W08
// 093   ----------------------------------------
	BYTE		N96     Ds2 
	BYTE	W96
	BYTE	GoTo
	 POIN2	WhatLiesAtTheEnd_7_B1
WhatLiesAtTheEnd_7_B2:
// 094   ----------------------------------------
	BYTE	FINE

//**************** Track 8 (Midi-Chn.8) ****************//

WhatLiesAtTheEnd_8:
	BYTE	KEYSH   WhatLiesAtTheEnd_key+0
WhatLiesAtTheEnd_8_B1:
// 000   ----------------------------------------
	BYTE		VOICE   47
	BYTE		VOL     97*WhatLiesAtTheEnd_mvl/mxv
	BYTE		N24     As2   v080
	BYTE	W96
// 001   ----------------------------------------
WhatLiesAtTheEnd_8_001:
	BYTE		N24     As2   v080
	BYTE	W72
	BYTE		N24   
	BYTE	W24
	BYTE	PEND
// 002   ----------------------------------------
	BYTE		        Fs2 
	BYTE	W96
// 003   ----------------------------------------
WhatLiesAtTheEnd_8_003:
	BYTE		N24     Gs2   v080
	BYTE	W72
	BYTE		N24   
	BYTE	W24
	BYTE	PEND
// 004   ----------------------------------------
WhatLiesAtTheEnd_8_004:
	BYTE		VOL     97*WhatLiesAtTheEnd_mvl/mxv
	BYTE		N24     As2   v080
	BYTE	W96
	BYTE	PEND
// 005   ----------------------------------------
	BYTE	PATT
	 POIN2	WhatLiesAtTheEnd_8_001
// 006   ----------------------------------------
	BYTE		N24     Fs2   v080
	BYTE	W96
// 007   ----------------------------------------
	BYTE	PATT
	 POIN2	WhatLiesAtTheEnd_8_003
// 008   ----------------------------------------
	BYTE	PATT
	 POIN2	WhatLiesAtTheEnd_8_004
// 009   ----------------------------------------
	BYTE	PATT
	 POIN2	WhatLiesAtTheEnd_8_001
// 010   ----------------------------------------
	BYTE		N24     Fs2   v080
	BYTE	W96
// 011   ----------------------------------------
	BYTE	PATT
	 POIN2	WhatLiesAtTheEnd_8_003
// 012   ----------------------------------------
	BYTE	PATT
	 POIN2	WhatLiesAtTheEnd_8_004
// 013   ----------------------------------------
	BYTE	PATT
	 POIN2	WhatLiesAtTheEnd_8_001
// 014   ----------------------------------------
	BYTE		N24     Fs2   v080
	BYTE	W96
// 015   ----------------------------------------
	BYTE	PATT
	 POIN2	WhatLiesAtTheEnd_8_003
// 016   ----------------------------------------
	BYTE	PATT
	 POIN2	WhatLiesAtTheEnd_8_004
// 017   ----------------------------------------
	BYTE	PATT
	 POIN2	WhatLiesAtTheEnd_8_001
// 018   ----------------------------------------
	BYTE		N24     Fs2   v080
	BYTE	W96
// 019   ----------------------------------------
	BYTE	PATT
	 POIN2	WhatLiesAtTheEnd_8_003
// 020   ----------------------------------------
	BYTE		N96     As2   v080
	BYTE	W96
// 021   ----------------------------------------
	BYTE	W96
// 022   ----------------------------------------
	BYTE	W96
// 023   ----------------------------------------
	BYTE	W96
// 024   ----------------------------------------
	BYTE		N24   
	BYTE	W96
// 025   ----------------------------------------
	BYTE		        Fn2 
	BYTE	W48
	BYTE		        Cs2 
	BYTE	W48
// 026   ----------------------------------------
	BYTE		        Ds2 
	BYTE	W96
// 027   ----------------------------------------
	BYTE		        Fn2 
	BYTE	W48
	BYTE		        Gn2 
	BYTE	W48
// 028   ----------------------------------------
	BYTE	W96
// 029   ----------------------------------------
	BYTE	W96
// 030   ----------------------------------------
	BYTE	W96
// 031   ----------------------------------------
	BYTE	W96
// 032   ----------------------------------------
	BYTE	W96
// 033   ----------------------------------------
	BYTE	W96
// 034   ----------------------------------------
	BYTE	W96
// 035   ----------------------------------------
	BYTE	W96
// 036   ----------------------------------------
	BYTE	W96
// 037   ----------------------------------------
	BYTE	W96
// 038   ----------------------------------------
	BYTE	W96
// 039   ----------------------------------------
	BYTE	W96
// 040   ----------------------------------------
	BYTE	W96
// 041   ----------------------------------------
	BYTE	W96
// 042   ----------------------------------------
	BYTE	W96
// 043   ----------------------------------------
	BYTE	W96
// 044   ----------------------------------------
	BYTE	W96
// 045   ----------------------------------------
	BYTE	W96
// 046   ----------------------------------------
	BYTE	W96
// 047   ----------------------------------------
	BYTE	W96
// 048   ----------------------------------------
	BYTE	W96
// 049   ----------------------------------------
	BYTE	W96
// 050   ----------------------------------------
	BYTE	W96
// 051   ----------------------------------------
	BYTE	W96
// 052   ----------------------------------------
	BYTE	W96
// 053   ----------------------------------------
	BYTE	W96
// 054   ----------------------------------------
	BYTE	W96
// 055   ----------------------------------------
	BYTE	W96
// 056   ----------------------------------------
	BYTE	W96
// 057   ----------------------------------------
	BYTE	W96
// 058   ----------------------------------------
	BYTE	W96
// 059   ----------------------------------------
	BYTE	W96
// 060   ----------------------------------------
	BYTE		N48     Fs2 
	BYTE	W48
	BYTE		N44     Fn2 
	BYTE	W48
// 061   ----------------------------------------
	BYTE		N24     As2 
	BYTE	W96
// 062   ----------------------------------------
	BYTE	PATT
	 POIN2	WhatLiesAtTheEnd_8_001
// 063   ----------------------------------------
	BYTE		N24     Fs2   v080
	BYTE	W96
// 064   ----------------------------------------
	BYTE	PATT
	 POIN2	WhatLiesAtTheEnd_8_003
// 065   ----------------------------------------
	BYTE		N24     As2   v080
	BYTE	W96
// 066   ----------------------------------------
	BYTE	PATT
	 POIN2	WhatLiesAtTheEnd_8_001
// 067   ----------------------------------------
	BYTE		N24     Fs2   v080
	BYTE	W96
// 068   ----------------------------------------
	BYTE	PATT
	 POIN2	WhatLiesAtTheEnd_8_003
// 069   ----------------------------------------
	BYTE		N24     Fn2   v080
	BYTE	W96
// 070   ----------------------------------------
	BYTE	W24
	BYTE		        Cn3 
	BYTE	W72
// 071   ----------------------------------------
WhatLiesAtTheEnd_8_071:
	BYTE		N24     As2   v080
	BYTE	W48
	BYTE		N24   
	BYTE	W48
	BYTE	PEND
// 072   ----------------------------------------
WhatLiesAtTheEnd_8_072:
	BYTE		N24     Gs2   v080
	BYTE	W48
	BYTE		N24   
	BYTE	W48
	BYTE	PEND
// 073   ----------------------------------------
	BYTE	PATT
	 POIN2	WhatLiesAtTheEnd_8_071
// 074   ----------------------------------------
	BYTE		N24     As2   v080
	BYTE	W48
	BYTE		        Gs2 
	BYTE	W48
// 075   ----------------------------------------
	BYTE		        Fs2 
	BYTE	W48
	BYTE		N24   
	BYTE	W48
// 076   ----------------------------------------
	BYTE	PATT
	 POIN2	WhatLiesAtTheEnd_8_072
// 077   ----------------------------------------
	BYTE		N24     Cn3   v080
	BYTE	W48
	BYTE		        Cs3 
	BYTE	W24
	BYTE		        Cn3 
	BYTE	W24
// 078   ----------------------------------------
	BYTE		        As2 
	BYTE	W96
// 079   ----------------------------------------
	BYTE	W96
// 080   ----------------------------------------
	BYTE	W96
// 081   ----------------------------------------
	BYTE	W96
// 082   ----------------------------------------
	BYTE	W96
// 083   ----------------------------------------
	BYTE	W96
// 084   ----------------------------------------
	BYTE	W96
// 085   ----------------------------------------
	BYTE	W96
// 086   ----------------------------------------
	BYTE	W96
// 087   ----------------------------------------
	BYTE	W96
// 088   ----------------------------------------
	BYTE	W96
// 089   ----------------------------------------
	BYTE	W96
// 090   ----------------------------------------
	BYTE	W96
// 091   ----------------------------------------
	BYTE	W96
// 092   ----------------------------------------
	BYTE	W96
// 093   ----------------------------------------
	BYTE	W96
	BYTE	GoTo
	 POIN2	WhatLiesAtTheEnd_8_B1
WhatLiesAtTheEnd_8_B2:
// 094   ----------------------------------------
	BYTE	FINE

//******************************************************//
	ALIGN 4

WhatLiesAtTheEnd:
	BYTE	8	// NumTrks
	BYTE	0	// NumBlks
	BYTE	WhatLiesAtTheEnd_pri	// Priority
	BYTE	WhatLiesAtTheEnd_rev	// Reverb.

	POIN2	WhatLiesAtTheEnd_grp

	POIN2	WhatLiesAtTheEnd_1
	POIN2	WhatLiesAtTheEnd_2
	POIN2	WhatLiesAtTheEnd_3
	POIN2	WhatLiesAtTheEnd_4
	POIN2	WhatLiesAtTheEnd_5
	POIN2	WhatLiesAtTheEnd_6
	POIN2	WhatLiesAtTheEnd_7
	POIN2	WhatLiesAtTheEnd_8

	
